<?xml version="1.0" encoding="UTF-8" standalone="no"?>
<svg
   enable-background="new 0 0 3839 665.43"
   height="333"
   viewBox="0 0 1920 333"
   width="1920"
   version="1.1"
   id="svg28"
   xmlns="http://www.w3.org/2000/svg"
   xmlns:svg="http://www.w3.org/2000/svg">
  <defs
     id="defs28" />
  <g
     transform="scale(.50013024 .50042828999)"
     id="g28">
    <path
       d="m3429.51 614.24v51.19h307.12v-51.19h51.18v-51.19h51.19v-102.37-51.19-102.37-102.37-102.38h-51.19v-51.18h-51.18v-51.19h-307.12v51.19h-51.19v51.18h-51.19v102.38 51.18 102.38 102.37 102.37h51.19v51.19z"
       id="path1" />
    <path
       d="m3736.63 614.24v-51.19h51.18v-153.56h-51.18v-51.18h-102.38v-51.19h-102.37v-51.19h102.37v51.19h153.56v-102.37h-51.18v-51.19h-307.12v51.19h-51.19v153.56h51.19v51.18h102.37v51.19h102.37v51.19h-102.37v-51.19h-153.56v102.37h51.19v51.19z"
       fill="#666"
       id="path2" />
    <path
       d="m2968.83 665.43h102.37 51.19 204.74v-51.19h51.19v-102.37-102.38h-51.19v-51.18-51.19-51.19h51.19v-102.37-102.37h-51.19v-51.19h-204.74-51.19-102.37v51.19h-51.19v102.37 358.31 102.37h51.19z"
       id="path3" />
    <path
       d="m3327.13 255.93v-102.37h-204.74-51.19-102.37v460.68h102.37 51.19 204.74v-102.37h-204.74v-51.19h153.56v-102.37h-153.56v-102.38z"
       fill="#666"
       id="path4" />
    <path
       d="m2610.52 307.12v204.75 102.37h51.19v51.19h153.56v-51.19h51.18v-102.37-204.75h51.19v-51.19h51.19v-102.37-102.37h-51.19v-51.19h-358.31v51.19h-51.18v102.37 102.37h51.18v51.19z"
       id="path5" />
    <path
       d="m2815.27 614.24v-358.31h102.37v-102.37h-358.31v102.37h102.38v358.31z"
       fill="#666"
       id="path6" />
    <path
       d="m2354.59 665.43h153.56v-51.19h51.18v-102.37-358.31-102.37h-51.18v-51.19h-153.56v51.19h-51.19v102.37 358.31 102.37h51.19z"
       id="path7" />
    <path
       d="m2354.59 153.56h153.56v460.68h-153.56z"
       fill="#666"
       id="path8" />
    <path
       d="m2047.47 665.43v-51.19h51.18 51.19v51.19h153.56v-51.19h51.19v-102.37-51.19-102.37-102.38-51.18-102.38h-51.19v-51.18h-51.19v-51.19h-204.74-51.19-102.37v51.19h-51.19v102.37 358.31 102.37h51.19v51.19z"
       id="path9" />
    <path
       d="m2047.47 460.68h102.37v51.19 102.37h153.56v-153.56h-51.19v-51.19h-51.19v-51.19h102.37v-153.55h-51.19v-51.19h-204.75-51.19-102.37v460.68h153.56v-153.56zm102.37-204.75v51.19h-51.19v51.19h-51.19v-102.38z"
       fill="#666"
       id="path10" />
    <path
       d="m1791.53 665.43v-51.19h51.19v-51.19h51.19v-102.37-255.93-102.38h-51.19v-51.18h-51.19v-51.19h-307.12v51.19h-51.18v51.18h-51.19v102.38 255.93 102.37h51.19v51.19h51.18v51.19z"
       id="path11" />
    <path
       d="m1791.53 614.24v-51.19h51.19v-358.3h-51.19v-51.19h-307.12v51.19h-51.19v358.31h51.19v51.19h307.12zm-204.74-102.37v-255.94h102.37v255.93h-102.37z"
       fill="#666"
       id="path12" />
    <path
       d="m460.68 153.56v-102.37h-51.19v-51.19h-204.74-51.19-102.37v51.19h-51.19v102.37 358.31 102.37h51.19v51.19h153.56v-51.19h51.18v-102.37h102.38v-51.19h51.18v-102.37-51.19-51.19h51.19z"
       id="path13" />
    <path
       d="m409.49 255.93v-102.37h-204.74-51.19-102.37v460.68h153.56v-153.56h153.56v-102.37h-153.56v-102.38z"
       fill="#666"
       id="path14" />
    <path
       d="m870.17 665.43v-51.19h51.19v-102.37-307.12-102.38h-51.19v-51.18h-51.18v-51.19h-307.12v51.19h-51.19v51.18h-51.19v102.38 307.12 102.37h51.19v51.19h153.56v-51.19h51.19 51.18v51.19z"
       id="path15" />
    <path
       d="m818.99 204.75v-51.19h-307.12v51.19h-51.19v409.49h153.56v-102.37h102.37v102.37h153.56v-409.49zm-204.75 204.74v-153.56h102.37v153.56z"
       fill="#666"
       id="path16" />
    <path
       d="m921.36 409.49h51.19v51.19 51.19h51.18v51.18 51.19h51.19v51.19h153.56v-51.19h51.19v-51.19-51.18h51.18v-51.19-51.19h51.19v-51.18-51.19h51.19v-102.37-51.19-102.37h-51.19v-51.19h-153.56v51.19h-51.19v102.37 51.19h-51.18v-51.19-102.37h-51.19v-51.19h-153.56v51.19h-51.19v102.37 51.19 102.37h51.19v51.19z"
       id="path17" />
    <path
       d="m1074.92 511.87v102.37h153.56v-102.37h51.19v-102.38h51.18v-102.37h51.19v-153.56h-153.56v153.56h-51.19v102.37h-51.18v-102.37h-51.19v-153.56h-153.56v153.56h51.19v102.37h51.18v102.38z"
       fill="#666"
       id="path18" />
    <g
       fill="#fff"
       id="g27">
      <path
         d="m3736.63 511.87v-51.19h51.18v-153.56h-51.18v-51.19h-102.38v-51.18h-102.37v-51.19h102.37v51.19h153.56v-102.38h-51.18v-51.18h-307.12v51.18h-51.19v153.56h51.19v51.19h102.37v51.19h102.37v51.18h-102.37v-51.18h-153.56v102.37h51.19v51.19z"
         id="path19" />
      <path
         d="m3327.13 153.56v-102.37h-204.74-51.19-102.37v460.68h102.37 51.19 204.74v-102.38h-204.74v-51.18h153.56v-102.38h-153.56v-102.37z"
         id="path20" />
      <path
         d="m2815.27 511.87v-358.31h102.37v-102.37h-358.31v102.37h102.38v358.31z"
         id="path21" />
      <path
         d="m2354.59 51.19h153.56v460.68h-153.56z"
         id="path22" />
      <path
         d="m2047.47 358.31h102.37v51.19 102.37h153.56v-153.56h-51.19v-51.19h-51.19v-51.19h102.37v-153.56h-51.19v-51.18h-204.75-51.19-102.37v460.68h153.56v-153.56zm102.37-204.75v51.19h-51.19v51.19h-51.19v-102.38z"
         id="path23" />
      <path
         d="m1791.53 511.87v-51.19h51.19v-358.31h-51.19v-51.18h-307.12v51.19h-51.19v358.31h51.19v51.19h307.12zm-204.74-102.38v-255.93h102.37v255.93z"
         id="path24" />
      <path
         d="m409.49 153.56v-102.37h-204.74-51.19-102.37v460.68h153.56v-153.56h153.56v-102.38h-153.56v-102.37z"
         id="path25" />
      <path
         d="m818.99 102.37v-51.18h-307.12v51.19h-51.19v409.49h153.56v-102.38h102.37v102.37h153.56v-409.49zm-204.75 204.75v-153.56h102.37v153.56z"
         id="path26" />
      <path
         d="m1074.92 409.49v102.38h153.56v-102.38h51.19v-102.37h51.18v-102.37h51.19v-153.56h-153.56v153.56h-51.19v102.37h-51.18v-102.37h-51.19v-153.56h-153.56v153.56h51.19v102.37h51.18v102.37z"
         id="path27" />
    </g>
  </g>
</svg>
