<?xml version="1.0" encoding="UTF-8" standalone="no"?>
<svg
   enable-background="new 0 0 3839 589.5"
   height="295"
   viewBox="0 0 1920 295"
   width="1920"
   version="1.1"
   id="svg31"
   xmlns="http://www.w3.org/2000/svg"
   xmlns:svg="http://www.w3.org/2000/svg">
  <defs
     id="defs31" />
  <g
     fill="#fff"
     transform="scale(.50011721 .50037511001)"
     id="g31">
    <path
       d="m0 51.1h144.4v528.8h-144.4z"
       id="path1" />
    <path
       d="m467.9 150v209l-136.2-187.8c-43.2-59.6-137.5-29-137.5 44.6v364h71.7v-253.3l172.3 237.7c31.8 44 101.2 21.4 101.2-32.8v-381.4z"
       id="path2" />
    <path
       d="m3767.4 150v209l-136.2-187.8c-43.2-59.6-137.5-29-137.5 44.6v364h71.7v-253.3l172.3 237.7c31.8 44 101.2 21.4 101.2-32.8v-381.4z"
       id="path3" />
    <path
       d="m2333.9 23.2h-74l-115.9 451.3-90.1-324.5h-149.8l110.1 367.9c29.2 97.5 168.3 94.8 193.6-3.8z"
       id="path4" />
    <path
       d="m792.6 508c-11.1 0-20-9-20-20v-246.2c0-11.1 9-20.1 20.1-20.1h82.2v-71.7h-102.4v-98.9l-256.3 170.6h91.9c11.1 0 20.1 9 20.1 20.1v245.9c0 50.9 41.3 92.1 92.1 92.1h52.2 102.2v-71.7z"
       id="path5" />
    <path
       d="m1361.3 488v-338h-144.3v337.6c0 50.9 41.3 92.1 92.1 92.1h52.2 102.2v-71.7h-82.2c-11.1 0-20-9-20-20z"
       id="path6" />
    <path
       d="m1632.7 508c-11.1 0-20-9-20-20v-338h-144.3v337.6c0 50.9 41.3 92.1 92.1 92.1h52.2 102.2v-71.7z"
       id="path7" />
    <path
       d="m1195 221.7v-71.7h-158.5-52.2c-50.9 0-92.2 41.3-92.2 92.2v245.5c0 50.9 41.3 92.2 92.2 92.2h52.2 158.5v-71.7h-138.4c-11.1 0-20.1-9-20.1-20.1v-87.3h131.5v-71.7h-131.5v-87.2c0-11.1 9-20.1 20.1-20.1z"
       id="path8" />
    <path
       d="m1728.1 257.8h144.4v321.9h-144.4z"
       id="path9" />
    <path
       d="m1728.1 150h144.4v71.7h-144.4z"
       id="path10" />
    <path
       d="m2850.1 257.8h144.4v321.9h-144.4z"
       id="path11" />
    <path
       d="m2850.1 150h144.4v71.7h-144.4z"
       id="path12" />
    <path
       d="m2319.6 257.8h144.4v321.9h-144.4z"
       id="path13" />
    <path
       d="m2319.6 150h144.4v71.7h-144.4z"
       id="path14" />
    <path
       d="m3244.4 151.6c-80 0-223.8 18.1-223.8 218.6s143.8 218.6 223.8 218.6 223.8-18.1 223.8-218.6-143.8-218.6-223.8-218.6zm65.4 297.1c0 33.7-26.9 81.1-65.4 81.1s-65.4-47.3-65.4-81.1v-157c0-33.7 26.9-81.1 65.4-81.1s65.4 47.3 65.4 81.1z"
       id="path15" />
    <path
       d="m2822.5 396.3c-.4-2.6-1-5-1.5-7.5-14.3-66.3-66.3-79.1-147.3-100.6 0 0-.4-.1-.9-.3l-18.6-5c-35.1-9.4-28.3-61.3 8.1-61.3h15.9 15.9 85.2l-.5-71.7h-138c-83.6 0-148.4 58.1-148.4 143.1 0 87.6 96.6 115.4 147.7 120.9 32.1 3.4 63.1 16.8 63.1 48.3 0 25.3-21.8 45.9-45.5 45.9h-165.3v70.9s186.3.9 188.9.8c80-3.9 143.6-69.2 143.6-148.4 0-13.2-.7-24.7-2.4-35.1z"
       id="path16" />
    <path
       d="m2820.8 7.2c0-3.9-3.1-7-7-7h-45.4c-3.9 0-7 3.1-7 7v33.4c0 3.9-3.1 7-7 7h-9.9c-3.9 0-7 3.1-7 7v42.9c0 3.9 3.1 7 7 7h69.2c3.9 0 7-3.1 7-7s-3.1-7-7-7h-55.2c-3.9 0-7-3.1-7-7v-15c0-3.9 3.1-7 7-7h55.2c3.9 0 7-3.1 7-7s-3.1-7-7-7h-13.9c-3.9 0-7-3.1-7-7v-19.5c0-3.9 3.1-7 7-7h14c3.9.2 7-3 7-6.8z"
       id="path17" />
    <path
       d="m3023.7 7.2c0-3.9-3.1-7-7-7h-45.4c-3.9 0-7 3.1-7 7v33.4c0 3.9-3.1 7-7 7h-9.9c-3.9 0-7 3.1-7 7v42.9c0 3.9 3.1 7 7 7h69.2c3.9 0 7-3.1 7-7s-3.1-7-7-7h-55.2c-3.9 0-7-3.1-7-7v-15c0-3.9 3.1-7 7-7h55.2c3.9 0 7-3.1 7-7s-3.1-7-7-7h-13.9c-3.9 0-7-3.1-7-7v-19.5c0-3.9 3.1-7 7-7h14c3.9.2 7-3 7-6.8z"
       id="path18" />
    <path
       d="m3189.6 7.2c0-3.9-3.1-7-7-7h-45.4c-3.9 0-7 3.1-7 7v33.4c0 3.9-3.1 7-7 7h-9.9c-3.9 0-7 3.1-7 7v42.9c0 3.9 3.1 7 7 7h69.2c3.9 0 7-3.1 7-7s-3.1-7-7-7h-55.1c-3.9 0-7-3.1-7-7v-15c0-3.9 3.1-7 7-7h55.2c3.9 0 7-3.1 7-7s-3.1-7-7-7h-14c-3.9 0-7-3.1-7-7v-19.5c0-3.9 3.1-7 7-7h14c3.9.2 7-3 7-6.8z"
       id="path19" />
    <path
       d="m2889.2 73h-31.6c-3.9 0-7-3.1-7-7v-58.8c0-3.9-3.1-7-7-7s-7 3.1-7 7v90.2c0 3.9 3.1 7 7 7h45.6c3.9 0 7-3.1 7-7v-17.4c0-3.9-3.2-7-7-7z"
       id="path20" />
    <path
       d="m3089.1 73.1h-31.6c-3.9 0-7-3.1-7-7v-58.9c0-3.9-3.1-7-7-7s-7 3.1-7 7v90.2c0 3.9 3.1 7 7 7h45.6c3.9 0 7-3.1 7-7v-17.4c0-3.9-3.1-6.9-7-6.9z"
       id="path21" />
    <path
       d="m3424.9 40.6v-33.5c0-3.9-3.1-7-7-7h-55.2c-3.9 0-7 3.1-7 7v90.2c0 3.9 3.1 7 7 7h17.4c3.9 0 7-3.1 7-7v-28.8c0-3.9 3.1-7 7-7h23.8c3.9 0 7 3.1 7 7v28.8c0 3.9 3.1 7 7 7s7-3.1 7-7v-42.9c0-3.9-3.1-7-7-7-3.8.2-7-3-7-6.8zm-48.1-26.4h27.2c3.9 0 7 3.1 7 7v19.4c0 3.9-3.1 7-7 7h-27.2c-3.9 0-7-3.1-7-7v-19.3c0-4 3.1-7.1 7-7.1z"
       id="path22" />
    <path
       d="m3269.6 24.6v-17.4c0-3.9-3.1-7-7-7h-51.6c-3.9 0-7 3.1-7 7v90.2c0 3.9 3.1 7 7 7h51.6c3.9 0 7-3.1 7-7s-3.1-7-7-7h-37.7c-3.9 0-7-3.1-7-7v-45c0-3.9 3.1-7 7-7h37.7c3.8.2 7-3 7-6.8z"
       id="path23" />
    <path
       d="m3746.4 24.6v-17.4c0-3.9-3.1-7-7-7h-51.6c-3.9 0-7 3.1-7 7v90.2c0 3.9 3.1 7 7 7h51.6c3.9 0 7-3.1 7-7s-3.1-7-7-7h-37.7c-3.9 0-7-3.1-7-7v-45c0-3.9 3.1-7 7-7h37.7c3.9.2 7-3 7-6.8z"
       id="path24" />
    <path
       d="m2545.8 4.5-29.7 69.3c-1.6 4-7.7 2.8-7.7-1.6v-64.9c0-3.9-3.1-7-7-7h-15.1c-2.8 0-5.3 1.6-6.5 4.3l-20.5 48.1c-1.6 3.7-7 3.1-7.7-.9l-7.7-45.6c-.6-3.4-3.5-5.9-6.9-5.9h-32.4c-3.9 0-7 3.1-7 7v24.4 65.6c0 3.9 3 7.2 6.8 7.3 4 .1 7.2-3 7.2-7v-58.9c0-3.9 3.1-7 7-7h9.5c3.4 0 6.4 2.6 6.9 5.9l5.4 32.3c.6 3.4 3.5 5.9 6.9 5.9h12.5c2.8 0 5.3-1.6 6.5-4.3l20.2-47.1c1.6-4 7.7-2.8 7.7 1.6v71.6c0 3.9 3.1 7 7 7h12.1c2.8 0 5.3-1.6 6.5-4.3l13.5-31.6c1.1-2.6 3.6-4.3 6.5-4.3h23.1c3.9 0 7 3.1 7 7v26.1c0 3.9 3.1 7 7 7h17.4c3.9 0 7-3.1 7-7v-83.1-7c0-3.9-3.1-7-7-7h-42.3c-2.6-.1-5.1 1.5-6.2 4.1zm15.6 9.7h19c3.9 0 7 3.1 7 7v22.2c0 3.9-3.1 7-7 7h-28.4c-5 0-8.3-5.1-6.5-9.8l9.5-22.2c1.1-2.5 3.6-4.2 6.4-4.2z"
       id="path25" />
    <path
       d="m3345.7 7.2c0-3.9-3.1-7-7-7h-18.8-14-18.9c-3.9 0-7 3.1-7 7v17.4c0 3.9 3.1 7 7 7h11.9c3.9 0 7 3.1 7 7v58.8c0 3.9 3.1 7 7 7s7-3.1 7-7v-58.8c0-3.9 3.1-7 7-7h11.9c3.9 0 7-3.1 7-7v-17.4z"
       id="path26" />
    <path
       d="m3660 67.4v-61.6c0-3.1-2.6-5.6-5.6-5.6h-2.6c-3.1 0-5.6 2.6-5.6 5.6v61.4c0 3.1-2.6 5.6-5.6 5.6h-7.9c-3.1 0-5.6 2.6-5.6 5.6v20c0 3.1 2.6 5.6 5.6 5.6h33.3c3.1 0 5.6-2.6 5.6-5.6v-20c0-3.1-2.6-5.6-5.6-5.6-3.4.3-6-2.4-6-5.4z"
       id="path27" />
    <path
       d="m3599.8.2h-46.3-7c-3.9 0-7 3.1-7 7v90.2c0 3.9 3.1 7 7 7s7-3.1 7-7v-58.8c0-3.9 3.1-7 7-7h32.3c3.9 0 7 3.1 7 7v58.8c0 3.9 3.1 7 7 7s7-3.1 7-7v-90.2c0-3.9-3.1-7-7-7z"
       id="path28" />
    <path
       d="m3458.7.2h-1.1c-3.9 0-7 3.2-7 7v90.2c0 3.9 3.1 7 7 7h60.4c3.9 0 7-3.1 7-7v-90.2c0-3.9-3.1-7-7-7zm5.9 65.9v-44.9c0-3.9 3.1-7 7-7h32.3c3.9 0 7 3.1 7 7v44.9c0 3.9-3.1 7-7 7h-32.3c-3.9 0-7-3.3-7-7z"
       id="path29" />
    <path
       d="m3778.5 40.6v-19.4c0-3.9 3.1-7 7-7h37.2c3.9 0 7-3.1 7-7s-3.1-7-7-7h-51c-3.9 0-7 3.1-7 7v47.5c0 3.9 3.1 7 7 7h29c3.9 0 7 3.1 7 7v14.9c0 3.9-3.1 7-7 7h-37.8c-3.9 0-7 3.1-7 7s3.1 7 7 7h69.2c3.9 0 7-3.1 7-7v-42.9c0-3.9-3.1-7-7-7h-46.5c-4-.1-7.1-3.3-7.1-7.1z"
       id="path30" />
    <path
       d="m2714 .2h-14-46.1-14-18.6c-3.9 0-7 3.1-7 7v17.3c0 3.9 3.1 7 7 7h11.7c3.9 0 7 3.1 7 7v58.5c0 3.9 3 7.2 6.8 7.3 4 .1 7.2-3 7.2-7v-58.8c0-3.9 3.1-7 7-7h32.1c3.9 0 7 3.1 7 7v58.5c0 3.9 3 7.2 6.8 7.3 4 .1 7.2-3 7.2-7v-58.8c0-3.9 3.1-7 7-7h11.7c3.9 0 7-3.1 7-7v-17.5c0-3.9-3.1-7-7-7z"
       id="path31" />
  </g>
</svg>
