<?xml version="1.0" encoding="UTF-8" standalone="no"?>
<svg
   height="474.00003"
   viewBox="0 0 1920 474.00003"
   width="1920"
   version="1.1"
   id="svg6"
   xmlns="http://www.w3.org/2000/svg"
   xmlns:svg="http://www.w3.org/2000/svg">
  <defs
     id="defs6" />
  <g
     fill="#fff"
     transform="matrix(.65664864066 0 0 .65617092816 -300.76540604542 -163.92042066811)"
     id="g6">
    <ellipse
       cx="1102.7633"
       cy="313.66492"
       rx="58.536098"
       ry="58.520855"
       transform="matrix(.99999637 -.00269284 .00269425 .99999637 0 0)"
       id="ellipse1" />
    <ellipse
       cx="1251.0529"
       cy="311.70447"
       rx="58.536098"
       ry="58.520855"
       transform="matrix(.99999637 -.00269284 .00269425 .99999637 0 0)"
       id="ellipse2" />
    <path
       d="m1184.1582 394.60547c-94.0118 1.2012-178.7255 42.5924-229.34179 123.01367-44.70595 71.02444-52.89212 163.04688-30.26368 242.81445 23.99355 84.56262 87.26307 150.77247 170.78517 177.8125 90.9862 29.46025 196.7949 9.29577 269.1601-52.71484 83.9463-71.92599 108.2284-197.37239 79.2618-300.56641-33.2576-118.49156-138.874-189.47309-259.6016-190.35937zm.1582 58.51953c85.6929.6295 162.3323 43.28954 195.25 124.68555 29.488 72.91969 21.9203 158.28183-20.0527 224.65234-47.8545 75.66778-142.8221 102.01817-227.4297 84.89453-82.423-16.68476-137.79254-81.51737-155.9258-161.43164-14.06946-62.02365-1.89258-129.3858 31.8496-182.98828 38.3061-60.85381 106.448-88.92212 176.3086-89.8125z"
       id="path2" />
    <path
       d="m1447.6187 425.74796c56.4552 127.04937 109.8983 257.1909 178.8639 378.1555 30.8246 54.07824 74.0594 127.92074 143.5675 133.04728 67.7341 4.99672 116.991-75.93011 146.8777-124.43092 75.4105-122.37165 131.3809-257.81722 190.2499-388.5421 15.3733-34.12992-35.1473-63.76939-50.6253-29.39926-55.8141 123.94577-110.1125 249.91813-177.9777 367.90964-18.4637 32.09586-38.2619 64.23627-63.9923 91.09065-9.0068 9.41103-14.8592 14.22552-24.9294 20.02867-7.0193 4.04515-12.0741 5.04777-19.7664 4.82269-3.4076-.28928-3.2552-.23117.4687.15675-2.483-.39711-4.9025-1.11626-7.3102-1.82958-.9667-.28415-4.4124-1.67938-10.1289-5.09917-9.4043-5.62781-17.5521-14.13824-26.5939-24.22634-24.8121-27.69557-43.2429-61.62913-61.0316-94.03116-63.2016-115.13386-113.9426-237.435-167.2117-357.31826-15.2946-34.43357-65.6371-4.48738-50.4603 29.66561z"
       id="path3" />
    <path
       d="m2372.4579 774.02799c94.2945-22.32222 219.6967-72.37355 230.3057-184.52849 7.7973-82.45962-57.5518-151.65452-127.9279-183.45262-102.2-46.17881-222.146-26.35074-299.8957 55.54233-76.7283 80.80768-101.0297 210.07008-56.4481 312.29167 28.0423 64.29181 74.466 118.053 141.0204 143.60549 59.8157 22.96645 124.8764 22.05388 187.6379 15.14325 37.1127-4.09108 37.3413-62.64787-.1576-58.52064-55.8271 6.14874-112.0811 8.10853-165.8095-10.69006-59.8454-20.93569-100.1094-78.412-117.9801-136.9259-31.1705-102.07044 20.9327-230.24899 121.1856-272.37907 80.946-34.00804 191.995-8.04868 242.0693 66.71174 53.5243 79.90683-23.1864 145.5107-94.1668 174.01433-24.4359 9.80956-49.9683 16.74283-75.5499 22.80428-36.7257 8.68979-20.9856 65.07341 15.7167 56.38369z"
       id="path4" />
    <path
       d="m492.63101 407.61157c-47.62893 137.64106-55.7352 303.13706 38.15446 423.84727 86.14776 110.75322 229.6433 134.5126 359.78427 100.88122 36.52464-9.43832 20.86058-65.83385-15.71088-56.38956-109.31071 28.24402-230.88574 10.50595-301.86078-85.00242-78.80046-106.0445-64.61914-250.19082-23.879-367.93372 12.37188-35.76043-44.2265-50.82935-56.48807-15.40279z"
       id="path5" />
    <path
       d="m2958.8031 420.6155c-42.0803 21.9998-69.7765 39.8261-86.6157 86.9418-13.7658 38.5173-6.3 89.1671 8.2739 127.93644 40.1681 106.85547 98.3176 173.42448 162.5254 247.77485 32.4976 37.6314 98.851 88.91779 98.851 88.91779s79.3258-61.95364 126.2716-117.11687c32.8407-38.58999 64.8118-94.99344 82.4853-143.95833 14.0647-38.96518 30.3545-93.97208 31.3659-146.61248.3721-19.4145-11.3976-59.3856-21.1147-75.9491-18.848-32.1328-28.7644-37.18-60.4744-53.6875-25.1004-13.0668-40.8975-17.387-77.1734-18.9527-19.9169-.86-44.5538 16.4309-54.6748 34.7227-8.5768 15.502-15.8099 45.7506-21.5311 62.76-7.855 23.3508-17.6708 55.3393-17.6708 55.3393s-23.4824-71.5772-44.7581-106.6283c-12.1648-20.041-23.0402-47.9213-43.8579-56.0745-21.1912-8.2989-61.8947 4.1274-81.9023 14.5864z"
       id="path6" />
  </g>
</svg>
