<?xml version="1.0" encoding="UTF-8" standalone="no"?>
<svg
   height="487.00003"
   viewBox="0 0 1920 487.00004"
   width="1920"
   version="1.1"
   id="svg25"
   xmlns="http://www.w3.org/2000/svg"
   xmlns:svg="http://www.w3.org/2000/svg">
  <defs
     id="defs25" />
  <g
     transform="scale(.5 .50046395)"
     id="g25">
    <g
       fill="#fff"
       transform="matrix(.47685501 0 0 .47685501 0 207.17016)"
       id="g3">
      <path
         d="m1481.2 1520.3h-309.7l6.2-663.5-311.1 663.5h-249.4l-313.7-669 6.3 669h-309.8v-958.4h511.1l230.2 540 231.4-540h508.6v958.4zm-251.4-57.8h193.7v-842.8h-412.7l-269.6 629.2-268.2-629.2h-415.3v842.8h193.7l-6.3-673.7h92.9l315.9 673.7h176l315.9-673.7h90.3z"
         id="path1" />
      <path
         d="m2240.5 1534.1c-18.9 0-37.8-.1-56.6-.2-18.6-.1-37.1-.2-55.5-.2-65.1 0-132.5 0-198.2-1.4l-8.5-.1c-89.7-1.3-225.1-3.3-304.7-67-80.9-62.6-86.6-188.9-90.1-264.3-3.8-52.9-3.8-107-3.8-159.3s0-106.4 3.8-160c4.8-79 12.2-198.9 89.6-263.2 35.3-28.4 78.9-46.3 133.5-54.9 100.2-17.2 209.8-16.3 315.8-15.5 89.4.7 170.4 1.2 257.9 2.9l12.5.2c94.5 1.4 223.9 3.3 303.5 67 77.7 61.8 84.8 178.1 90 263 3.9 54.2 3.9 108.3 3.9 160.6 0 52.2 0 106.1-3.8 159.7-3.3 74.2-9.1 197.9-89.9 263.7-42 35.4-89 46.6-133.4 53.4-87.3 13.6-177.4 15.6-266 15.6zm-242.1-928.6c-81.9 0-163.9 2.3-238.9 15.1-45.4 7.2-79.1 20.7-106.3 42.6-57.9 48.1-64.1 148.8-68.6 222.3-3.7 51.9-3.7 104.9-3.7 156.2s0 104.3 3.7 155.9c3 66.2 8.1 175.7 68.2 222.3 64.5 51.6 188.1 53.4 269.9 54.6l8.7.1c65.3 1.3 132.3 1.3 197.2 1.3 18.5 0 37.1.1 55.8.2 104.3.5 212.1 1 313.6-14.7 41.8-6.4 75.7-15.8 105.4-40.8 56.6-46.1 65.1-135.1 69.1-222.3v-.8c3.7-51.6 3.7-104.6 3.7-155.9s0-104.3-3.7-155.9c-4.8-79.4-10.8-176.7-68.5-222.5-64.2-51.4-187.1-53.2-268.4-54.4l-12.9-.2c-66.4-1.3-129.1-2.6-194.2-2.6-20.6 0-41.6-.2-63-.3-22.2 0-44.7-.2-67.1-.2zm60.1 695.3c-95.4 0-190.5-5.9-230.7-39.8-49.2-41.9-48.5-126-48.1-181.7l.1-14.6v-11.2c0-105.6-.1-169.3 30.3-212.2 34.3-48.5 98.8-58 198.7-58h183.2c52.5-.1 106.8-.3 160.6 7.1 43.5 6.7 91.1 19.5 110.6 88.1 15 51.2 15 135.8 15 186.3v11.4c.3 57.8.8 145.1-48.5 185.1-47.1 37.5-126.7 37.5-179.3 37.5-20 0-40.3.3-60.6.7-20.6.3-41.2.7-61.5.7-6.9 0-15.6.1-25.6.3-14.5.1-29.3.3-44.2.3zm-49.6-459.7c-92 0-134.5 9.4-151.6 33.6-19.7 27.9-19.7 87.9-19.7 178.8v11.2l-.1 15c-.4 44.9-.9 112.8 27.7 137.2 33.7 28.5 181.3 26.5 236.9 25.8 10.3-.1 19.2-.3 26.3-.3 20 0 40.3-.3 60.6-.7 20.6-.3 41.2-.7 61.5-.7 39.1 0 112 0 143.1-24.8 27.5-22.4 27.1-98.8 26.9-139.8v-11.8c0-44.3 0-126.8-12.7-170.1l-.1-.2c-9.4-33-24.8-41-63.4-46.9-49.3-6.8-101.6-6.6-152.1-6.5z"
         id="path2" />
      <path
         d="m3229.1 1531.1c-97.9 0-198.3-1.9-295.8-26.6-145.5-37.3-157.7-151.8-157.7-256.2 0-12.6 0-24.4 1.4-38.1l2.7-25.9h297.8v28.9c0 10.5 0 34.5 7.7 46.5 9.8 5.5 49.6 16.3 210.6 15.1l129.2-.1c46.6 0 80.3 0 93.3-9.9 11.2-8.5 16.2-35.3 16.2-86.8 0-17.2 0-40.9-6.1-54-10.3-21.4-72.9-22.9-99.6-23.5-4.5-.1-8.7-.2-12.5-.3-57.4-2.7-115.4-4-172.6-4-6.7 0-13.9-.1-21.4-.1-36-.4-80.9-.8-110.9 7.3-19.4 5.2-21.4 5.7-21.4 32.9v28.9h-281.8v-603.3h991.8v252.2h-633c-25.2 0-51.1 0-76.7-2.4v7.2c.1 20.1.2 40.6.1 61.1 57.3-30.4 172.8-34.5 289.3-34.5h7.5c72.1 0 206.4 0 298 28.3 135.1 41.2 153.8 167.4 153.8 297.6 0 131.1-20.3 218.9-62.2 268.4l-.1.1c-32.2 37.9-75.3 54.5-113.2 65.7-88 25.6-177.2 25.6-263.6 25.5h-115.9-27.4c-9.1 0-18.3 0-27.5 0zm-395.7-289v6.2c0 113.4 17.7 175.4 114.2 200.2 99.5 25.2 205.9 25 308.9 24.8h130.7 12.8c82.3.1 167.3.1 247.3-23.2 29.6-8.8 63-21.3 85.5-47.7 22.1-26.2 48.5-87.6 48.5-231.1 0-128.4-18.9-213.7-113-242.4-83.4-25.7-212-25.7-281.1-25.7h-7.6c-58.6 0-214.5-.1-263.6 28.5-11.1 7-23.1 17.2-35 29.9l-53.6 57.5 3.7-78.5c1.9-39.8 1.6-81.2 1.4-121.3-.1-13.6-.2-27.2-.2-40.8v-35.2l34.5 6.9c31.2 6.2 66.2 6.2 100.1 6.2h575.3v-136.7h-876.2v487.7h168.6c5.4-28.2 21.4-48.9 61.9-59.8 37.6-10.1 86.9-9.6 126.4-9.2 7.3.1 14.2.1 20.8.1 58.1 0 117 1.4 175 4.1 3.2.1 7.2.2 11.4.3 46.6 1.1 124.7 2.9 150.5 56.5 11.7 25 11.7 56 11.7 78.7 0 148.5-48.3 154.4-167.3 154.4l-128.7.1c-186.5 1.4-235.7-12.2-254.6-34.6-13-16.4-18.4-36.2-20.6-55.9zm250.7 17"
         id="path3" />
    </g>
    <g
       fill="#fff"
       transform="matrix(1.0009384 0 0 1.0009384 0 .000005)"
       id="g10">
      <path
         d="m257.7 109.1v269.4h-107.6v-269.4h-150.1v-92.2h407.8v92.2z"
         id="path4" />
      <path
         d="m728.7 378.5v-131.2h-232v131.2h-107.6v-361.6h107.6v129.6h232v-129.6h107.6v361.6z"
         id="path5" />
      <path
         d="m1306.5 261.4c-1.5 33.6-4.5 75.4-31.8 97.6-14.2 11.9-30.3 16.3-48 19-49 7.6-100.6 6-150.1 6-26.3 0-53.1 0-79.3-.5-35.4-.5-88.9-.5-118.8-24.4-27.3-21.1-30.3-64.5-31.8-97.6-1.5-21.1-1.5-42.3-1.5-63.4s0-42.3 1.5-63.4c2-33.1 5.1-75.4 31.8-97.6 14.2-11.4 30.8-16.8 48-19.5 47.5-8.1 102.1-6 150.1-6 26.8 0 53.1.5 79.8 1.1 35.4.5 88.4.5 118.3 24.4 27.3 21.7 29.8 64.5 31.8 97.6 1.5 21.1 1.5 42.3 1.5 63.4 0 21 0 42.2-1.5 63.3zm-106.6-125.8c-5.6-19.5-17.2-24.4-34.9-27.1-23.8-3.3-48-2.7-71.8-2.7h-64.7c-81.9 0-80.4 17.3-80.4 101.4 0 20.6-2 55.3 15.2 69.9 19.2 16.3 90 13 113.2 13 16.2 0 32.8-.5 49-.5 18.7 0 49 0 64.7-12.5 16.7-13.6 15.2-49.9 15.2-69.9 0-19.5 0-52.6-5.5-71.6z"
         id="path6" />
      <path
         d="m1787.2 378.5 2.5-270.5h-17.2l-126.8 270.5h-85.4l-126.9-270.5h-18.2l2.5 270.5h-101.1v-361.6h186l100.1 234.7 100.6-234.7h185v361.6z"
         id="path7" />
      <path
         d="m2287.1 355.2c-24.3 28.2-77.3 27.1-110.2 27.6-26.3 1.1-52.6 1.1-78.8 1.1-44 0-97 1.6-140-8.7-16.2-3.8-30.3-10.8-41.9-23.3-17.2-17.9-19.2-41.2-19.2-65.6 0-9.2.5-18.4 1-27.6h99.1c0 8.1 0 15.7 2.5 23.3 1.5 4.9 3.5 8.1 7.6 11.4 9.6 8.1 38.4 7 49.5 7 14.7 0 28.8.5 43.5.5 18.2 0 35.9-.5 54.1-.5 12.6 0 44.5 1.6 53.1-11.4 3.5-6 3.5-14.1 3.5-20.6 0-27.6-20.2-26.6-40.9-27.1-54.1-1.6-108.1-4.9-162.2-7-29.3-1.1-66.7-2.2-87.9-27.6-17.7-21.1-19.2-51.5-19.2-78.6 0-64.5 15.7-105.2 80.4-112.2 43.5-4.9 88.4-4.3 132.4-4.3 42.4 0 87.4-1.1 128.9 9.8 46 12.5 55.6 45 55.6 92.2v17.3h-99.6v-5.4c0-10.3-1-17.9-9.6-23.9-9.6-7-32.3-6.5-43.5-6.5h-87.4c-10.6 0-40.4-.5-49.5 6.5-6.6 4.9-8.1 13.6-8.1 21.7 0 6.5 1.5 15.2 6.6 19.5 3.5 3.3 8.6 4.3 13.1 4.9 11.6 2.2 23.8 2.2 35.4 2.7 22.7 1.1 45.5 2.2 68.2 2.7 38.9 1.1 94.5.5 132.4 11.4 12.1 3.8 22.7 9.2 32.3 18.4 20.7 19.5 21.7 56.9 21.7 84-.1 30.3-2.7 65-22.9 88.3z"
         id="path8" />
      <path
         d="m2779.9 261.4c-1.5 33.6-4.5 75.4-31.8 97.6-14.2 11.9-30.3 16.3-48 19-49 7.6-100.6 6-150.1 6-26.3 0-53.1 0-79.3-.5-35.4-.5-88.9-.5-118.8-24.4-27.3-21.1-30.3-64.5-31.8-97.6-1.5-21.1-1.5-42.3-1.5-63.4s0-42.3 1.5-63.4c2-33.1 5.1-75.4 31.8-97.6 14.2-11.4 30.8-16.8 48-19.5 47.5-8.1 102.1-6 150.1-6 26.8 0 53.1.5 79.8 1.1 35.4.5 88.4.5 118.3 24.4 27.3 21.7 29.8 64.5 31.8 97.6 1.5 21.1 1.5 42.3 1.5 63.4.1 21 .1 42.2-1.5 63.3zm-106.6-125.8c-5.6-19.5-17.2-24.4-34.9-27.1-23.8-3.3-48-2.7-71.8-2.7h-64.6c-81.9 0-80.4 17.3-80.4 101.4 0 20.6-2 55.3 15.2 69.9 19.2 16.3 90 13 113.2 13 16.2 0 32.8-.5 49-.5 18.7 0 49 0 64.7-12.5 16.7-13.6 15.2-49.9 15.2-69.9 0-19.5 0-52.6-5.6-71.6z"
         id="path9" />
      <path
         d="m3080.7 378.5-177.4-269.4h-11.1l2.5 269.4h-104.6v-361.6h179.9l176.4 269.4h10.6l-2.5-269.4h104.6v361.6z"
         id="path10" />
    </g>
    <g
       fill="none"
       id="g14">
      <path
         d="m1423.5 1462.5v-842.8h-412.8l-269.5 629.2-268.2-629.2h-415.3v842.8h193.7l-6.2-673.7h92.8l315.9 673.7h176l315.9-673.7h90.3l-6.3 673.7z"
         transform="matrix(.47685501 0 0 .47685501 0 207.17016)"
         id="path11" />
      <g
         stroke-width=".476855"
         id="g13">
        <path
           d="m1241.6351 523.51577c-30.6141-24.51034-89.2196-25.36868-127.9879-25.94091l-6.1514-.0954c-31.6632-.61991-61.562-1.23982-92.6053-1.23982-9.8232 0-19.83715-.0954-30.04185-.14306-10.58618-.0954-21.26773-.14306-31.99697-.14306-39.05442 0-78.15654 1.09677-113.92066 7.20051-21.64922 3.43336-37.71923 9.8709-50.68969 20.31403-27.6099 22.93672-30.5664 70.95602-32.71225 106.00487-1.76437 24.74877-1.76437 50.02209-1.76437 74.48475s0 49.73598 1.76437 74.3417c1.43056 31.5678 3.86252 83.78342 32.52151 106.00486 30.75715 24.60572 89.69643 25.46406 128.70317 26.03629l4.14864.0477c31.13863.61991 63.08791.61991 94.0358.61991 8.8218 0 17.6913.0477 26.6085.0954 49.736.23842 101.141.47685 149.5417-7.00977 19.9326-3.05187 36.098-7.53431 50.2606-19.45569 26.99-21.98301 31.0432-64.42311 32.9506-106.00487v-.38148c1.7644-24.60572 1.7644-49.87903 1.7644-74.3417 0-24.46266 0-49.73597-1.7644-74.34169-2.2889-37.8146-5.15-84.2126-32.6645-106.05256zm-82.9728 285.11161c-22.4599 17.88207-60.4175 17.88207-85.5001 17.88207-9.5371 0-19.2173.14305-28.8974.3338-9.8232.14305-19.6464.33379-29.3266.33379-3.2903 0-7.4389.0477-12.2075.14306-7.00975.0954-14.06721.14306-21.17235.14306-45.49197 0-90.84088-2.81345-110.01045-18.97883-23.46126-19.98023-23.12747-60.08373-22.93672-86.64456l.0477-6.96208v-5.34078c0-50.35589-.0477-80.73155 14.44871-101.18863 16.35612-23.12747 47.11327-27.65759 94.75109-27.65759h87.35982c25.0349-.0477 50.9281-.14306 76.5829 3.38567 20.7432 3.19493 43.4415 9.29867 52.7402 42.01093 7.1528 24.41497 7.1528 64.75691 7.1528 88.83808v5.43615c.2384 27.56222.4292 69.19166-23.0321 88.26586z"
           id="path12" />
        <path
           d="m1405.5778 897.94233c47.4471 12.01674 98.1845 11.92137 147.3005 11.826h62.325 6.1037c39.2452.0477 79.7779.0477 117.9263-11.06303 14.1149-4.19633 30.0418-10.15702 40.7711-22.74599 10.5385-12.4936 23.1274-41.7725 23.1274-110.20119 0-61.22818-9.0125-101.90392-53.8846-115.58966-39.7697-12.25517-101.0932-12.25517-134.0439-12.25517h-3.6241c-27.9437 0-102.2854-.0477-125.699 13.59037-5.2931 3.33798-11.0153 8.2019-16.6899 14.25796l-25.5594 27.41917 1.7643-37.43312c.906-18.97883.763-38.72063.6676-57.84251-.048-6.48523-.095-12.97046-.095-19.45569v-16.7853l16.4515 3.2903c14.8779 2.95651 31.5678 2.95651 47.7332 2.95651h274.3347v-65.23377h-417.8207v232.56219h80.3977c2.575-13.44731 10.2047-23.31821 29.5173-28.51593 17.9298-4.81624 41.4387-4.57781 60.2745-4.38707 3.4811.0477 6.7714.0477 9.9186.0477 27.7053 0 55.792.66759 83.4496 1.9551 1.526.0477 3.4334.0954 5.4362.14306 22.2214.52454 59.4638 1.38288 71.7666 26.94231 5.5793 11.92137 5.5793 26.70388 5.5793 37.52849 0 70.81297-23.0321 73.62641-79.7779 73.62641l-61.3712.0477c-88.9335.66759-112.3948-5.81763-121.4073-16.49919-6.1991-7.82042-8.7741-17.26215-9.8232-26.65619h-89.5534v2.9565c.048 54.07536 8.488 83.68805 54.5045 95.51406z"
           id="path13" />
      </g>
    </g>
    <g
       fill="#fff"
       id="g24">
      <g
         stroke-width=".421426"
         id="g16">
        <path
           d="m2547.2326 590.39311v339.88033h-135.7836v-339.88033h-189.3047v-116.22938h514.4351v116.22938z"
           id="path14" />
        <path
           d="m3337.7019 782.56351c-1.8964 42.39549-5.7314 95.03164-40.1619 123.09863-17.8685 15.04492-38.2655 20.52346-60.559 23.93701-61.8232 9.56638-126.8493 7.50139-189.3047 7.50139-33.1662 0-66.9225 0-100.0887-.67428-44.6291-.67428-112.1837-.67428-149.8171-30.76412-34.4305-26.67629-38.2655-81.37742-40.1619-123.09863-1.8964-26.67629-1.8964-53.35257-1.8964-80.02886 0-26.67628 0-53.35257 1.8964-80.02886 2.5285-41.7212 6.3635-95.03163 40.1619-123.09862 17.8685-14.37064 38.8977-21.19775 60.559-24.6113 59.9268-10.24066 128.7457-7.54353 189.3047-7.54353 33.7984 0 66.9225.67428 100.7209 1.3907 44.629.67429 111.5515.67429 149.1427 30.76413 34.4306 27.35056 37.5913 81.37742 40.162 123.09862 1.8964 26.67629 1.8964 53.35258 1.8964 80.02886.042 26.67629.042 53.35257-1.8543 80.02886zm-134.5193-158.66701c-6.9956-24.6113-21.6613-30.76412-43.9969-34.17767-29.9634-4.08784-60.5589-3.41356-90.5224-3.41356h-81.5881c-103.2494 0-101.353 21.87203-101.353 127.86075 0 26.002-2.5286 69.74605 19.1327 88.20453 24.2321 20.52346 113.448 16.39348 142.7793 16.39348 20.397 0 41.4262-.67428 61.8232-.67428 23.5999 0 61.8233 0 81.5882-15.7192 21.0291-17.10991 19.1327-62.91895 19.1327-88.20453 0-24.6113 0-66.3325-6.9957-90.26952z"
           id="path15" />
        <path
           d="m3354.3066 474.16406v115.55469h321.252l-239.707 340.55469h163.1777l240.9707-349.44727v-106.66211zm155.5489 23.00977c4.6357 0 9.3975.21063 14.0332.29492 16.2249.42143 25.623 2.23362 25.623 22.41992v24.23242c-.042 11.29422-2.6974 19.34239-14.1601 21.36524-7.5857 1.30642-17.8262 1.22265-25.4961 1.22265-4.7621 0-9.3992-.0845-14.1192-.21093-10.4513-.21072-22.5876-.63239-24.8633-14.16016-1.0535-6.32139-.7597-13.94784-.7597-20.35351 0-4.08784 0-8.05002.086-12.09571.084-5.68925.4636-12.22068 4.3828-16.60351 2.5707-2.8657 6.1512-4.25654 9.7754-4.88868 7.5857-1.30642 17.7438-1.22265 25.4981-1.22265zm-114.8399.84179h72.2754v15.84571l-35.8633 52.04687h-24.2754l35.6524-50.69726h-47.7891zm111.8477 16.85743c-3.8771 0-8.1759-.0842-11.9688.80078-1.1378.295-2.2763.71709-3.1191 1.72851-2.5707 2.8657-2.3594 10.91563-2.3594 14.58204 0 3.3714-.2109 11.29393 1.9805 14.0332.9693 1.22213 2.1073 1.72701 3.498 2.14844 4.0879 1.01142 10.8296 1.01202 15.086.92773l8.3457-.21094c2.36-.0843 5.6035-.0848 7.7949-1.22265 4.7621-2.23356 4.0879-11.20867 4.0879-15.67578 0-4.46712.6742-13.52869-4.0879-15.88868-2.1914-1.01142-5.3928-1.13867-7.7949-1.13867-3.7929 0-7.5858-.084-11.4629-.084z"
           id="path16" />
      </g>
      <path
         d="m2344.1665 511.64746h116.1698v605.03224h-116.1698z"
         stroke-linecap="round"
         stroke-linejoin="round"
         stroke-miterlimit="0"
         stroke-width="3.38936"
         transform="matrix(1 0 -.49053752 .87142007 0 0)"
         id="path17" />
      <g
         transform="translate(-44.7903 -10.065637)"
         id="g23">
        <path
           d="m3844.3963 303.46564h-94.2v-171.3l94.2 34.3z"
           id="path18" />
        <path
           d="m3598.9963 283.26564-94.2-34.3v-136.9h94.2z"
           id="path19" />
        <path
           d="m3674.5963 310.76564v94.6l209.8-76.4v-94.6z"
           id="path20" />
        <path
           d="m3477.6963 252.76564 184.1 67v67.2l-184.1-67zm-12.9-18.4v94.6l209.8 76.4v-94.6z"
           id="path21" />
        <path
           d="m3464.7963 86.465636v94.500004l209.8-76.3v-94.600003z"
           id="path22" />
        <path
           d="m3687.4963 28.465636 184.1 67v67.200004l-184.1-67.000004zm-12.9-18.399999v94.600003l209.8 76.4v-94.600004z"
           id="path23" />
      </g>
    </g>
  </g>
</svg>
