<?xml version="1.0" encoding="UTF-8" standalone="no"?>
<svg
   enable-background="new -1 -1 568.929 116.145"
   height="429.99997"
   viewBox="-1 -1 1919.9999 429.99998"
   width="1920"
   version="1.1"
   id="svg1"
   xmlns="http://www.w3.org/2000/svg"
   xmlns:svg="http://www.w3.org/2000/svg">
  <defs
     id="defs1" />
  <path
     d="m3087.5979-.66742682c-42.4375-3.08988918-95.6649 15.42496582-117.2618 52.45505682-21.5967 37.038092-16.9797 72.51708-17.7441 335.58982-122.2951-239.54075-162.0078-306.276027-226.8144-321.701123-64.8065-15.425196-132.6951 32.394992-126.5234 115.716773-121.8966-31.6309-183.6218 44.74809-176.6777 148.90226-40.8842-30.85839-167.4012-57.86339-253.8046 29.31249-41.6649-83.32168-168.1808-66.35158-209.8457-33.17579-16.1976-27.76839-77.9132-31.63069-118.0331-22.36909 1.545-108.00028-57.8549-162.77336-138.8672-164.31836-80.9961-1.553-122.6619 64.03598-118.0352 172.80856-21.5967 0-79.4592-11.5725-128.0682 33.16609-2.3093-108.77268-67.889-141.94847-134.2324-147.34767-66.3517-5.3992-153.5189 49.37419-139.6387 151.21087-60.9443-50.91829-222.95413-30.8672-282.35343 29.30469-26.23165-37.79439-96.43783-66.33488-159.69138-70.19718-63.26168-3.8624-146.57589 19.28769-175.12495 34.71279-17.73443-145.80277-162.00785-186.69666-255.35541-198.26745-93.34758-11.5709-205.97567-3.0809-247.640565 14.66989-41.65677 17.7425-66.3526039 66.33529-62.49022483 145.80267 3.85424913 78.68688 11.58074683 112.64347 10.81640683 177.42575-.7724792 64.81479-8.4823973 168.18966-10.02734702 267.70894-1.53681958 99.51918 148.12167002 87.16798 198.26753002 84.07808 50.14586-3.0736 67.8886-28.53329 70.97851-37.79489 3.08176-9.2535 14.65153-17.7349 21.59569-7.709 29.31341 57.09009 118.02784 48.59239 172.80855 47.82809 54.78072-.7644 59.39837-9.2438 94.11912-37.79289 25.45916 26.23159 98.74787 46.29169 154.29293 39.34759 55.5532-6.9442 138.10286-43.21179 168.95309-67.89838 4.63486 6.1717 33.94728 23.15109 97.20896 50.92768 63.26172 27.7685 156.60922 7.7164 189.78512-4.62689 33.1676-12.3433 50.1459-8.4901 61.7168.7714 11.5708 9.25349 47.057 21.58989 92.5761 21.58989 45.5192 0 73.2956-20.0521 88.7207-34.71289 15.4251-14.6445 39.3401-2.3101 56.3184 6.9434 74.0518 42.42919 134.2318 34.71439 158.1542 23.91599 23.9061-10.7984 17.7261-3.8543 68.6445 0 50.9183 3.8542 94.8937-32.39569 103.3828-40.88479 8.4892-8.481 20.0586-9.2536 72.5137 25.45899 52.4551 34.7126 108.7737 8.488 125.7519 2.3164 50.1459 33.1757 121.1165 9.2614 135.7773-7.71679 14.6608-16.9701 30.8576-13.8885 40.1191-6.1719 84.086 60.16368 161.2458 33.16889 185.1601 21.58989 28.5409 27.0041 101.0566 11.5785 131.1426-9.2539 26.2234 19.2874 78.6856 22.378 121.123 16.9707 42.4292-5.3992 80.2241-53.22739 72.5156-141.17577-7.7084-87.94827-8.4882-201.34835-8.4882-229.12494s-.0008-40.89409 6.9433-49.37499c2.3175 5.3992 118.8079 235.30594 193.6406 346.40422 74.8325 111.08197 143.8754 108.76347 216.3906 69.41598 72.515-39.33929 76.7682-153.51806 92.1932-259.20894.7644 3.0817 12.3508 56.31769 35.4844 165.87106 23.1336 109.55328 105.6911 106.45508 155.0645 103.36518 49.3572-3.0818 107.2365-55.53669 108.7734-136.54097 35.485 8.481 86.4035-9.2628 93.3476-17.75189 44.7466 99.51927 153.5207 85.63108 208.2851 69.43358 54.7808-16.1976 62.4967-76.37798 50.9258-138.86717-11.5709-62.48928-74.8317-401.1669-94.1191-484.48038-19.2876-83.31348-45.5125-124.20727-108.0098-128.8339686-62.4811-4.6266989-128.8241 51.3022876-179.7343 249.5683386-105.3169-127.29587-200.2026-227.970544-259.9922-158.537061-2.3093-66.351684-62.4886-95.6663765-104.9178-98.74804582zm-8.5059 44.74805882c45.1284-1.162799 70.5961 26.613494 64.8066 92.574178-5.7894 65.96068-17.3608 440.89919-23.1504 535.79087-5.7894 94.88358-118.0423 209.44515-207.1445 50.91019-89.1023-158.52686-229.1249-468.65859-249.9491-518.42178-25.4671-71.75018 68.2703-140.020863 112.244-48.60939 43.9739 91.41968 173.5808 339.06932 192.0957 366.84562 18.5149 27.76819 40.4933 24.28679 37.0293-37.039-3.472-61.33408 3.4727-351.79461 3.4727-378.40811 0-26.613587 25.4591-62.487978 70.5957-63.642578zm547.535 16.419896c1.7572-.081 3.5114-.068 5.2558.047 21.708 1.4277 41.9896 18.608896 50.0899 65.691382 18.5148 107.62507 96.0575 411.9743 104.1562 465.19319 8.0987 53.23529 18.5136 107.61997-17.3613 120.35357-35.8751 12.7335-94.8937 32.40109-112.2539-41.65819-17.3521-74.05938-37.029-267.31694-43.9649-281.20503-6.9441-13.8882-17.362-5.781-20.834 30.08589-3.4802 35.87509-16.205 168.95316-20.8397 194.41205-4.6347 25.4589-62.4904 83.31248-108.7734-4.62689-46.2831-87.93938-89.094-160.84687-99.502-172.42576-10.4162-11.5708-15.0521 6.94539-11.5801 32.40429 3.472 25.45889 28.9405 130.76107 53.2285 188.62295 24.3044 57.85379 21.9869 127.28797-26.6054 140.02147-48.6086 12.7254-84.4776 17.3574-107.6192-109.94527-23.1496-127.27017-71.7509-380.70101-79.8496-447.8163-9.2615-78.69418 19.6702-108.78187 49.7559-112.25387 30.0856-3.472 142.3398 116.88237 204.8203 221.02725 35.8751 52.07248 45.1288 68.26938 55.5449-13.8886 10.4162-82.15808 46.2844-195.56825 63.6446-231.44334 9.1547-18.918497 36.329-41.375192 62.6874-42.595692zm-3444.3234 143.081962c82.09461-.3698 209.25708 14.7342 272.25189 62.68559 77.53206 59.01708 69.42559 179.36185 28.93163 217.55464-40.50207 38.1846-81.00406 64.79839-55.5449 100.67378 25.45914 35.86719 153.91007 194.40445 54.3828 197.88475-99.51915 3.472-124.97947 5.7882-142.33982-37.03129-17.35222-42.81949-37.02959-89.10258-71.74216-86.78508-34.71259 2.3092-43.97425 49.75679-45.1289 82.16008-1.16279 32.3952-13.88936 46.28359-62.49022 45.12889-48.60087-1.1546-93.737326 13.8793-91.419907-57.86328 7.659698-237.28795 8.105908-347.16022 2.31641-407.33191-5.781359-60.17168-5.780289-106.46367 62.490227-114.56247 12.80223-1.52 29.34804-2.4283 48.29295-2.5137zm1528.6715 3.209c31.7898 1.1277 62.793 18.9713 62.793 83.77348 0 74.05958-16.1966 178.21466-17.3594 249.95694-1.1628 71.74218-.0004 144.65007 6.9356 166.62886 6.9441 21.987-2.3184 55.54409-23.1426 68.26949-20.8242 12.72549-49.7564 10.41659-63.6446-5.789-13.8881-16.1975-24.3033-1.1545-33.5566 9.26169-9.2534 10.4243-135.3949 12.7322-180.5233-38.17779-45.1286-50.92608-71.7441-122.66847-52.0664-197.88275 19.6614-75.22238 47.4391-159.69116 205.9745-170.10736 23.1497-1.1628 42.8203 10.4155 42.8203-69.43358-6.9523-52.07269 2.3103-92.57678 38.1855-96.04878 4.4854-.433 9.0426-.6123 13.584-.4512zm835.0174 19.3574c36.2653.7806 91.8206 3.8635 88.7226 56.32618-3.0898 52.45459-10.0274 246.09564-8.4824 319.39053 1.5368 73.29498 3.0821 124.97927 3.0821 145.03906 0 20.0516-16.9704 33.93949-54 33.93949-37.0297-.0001-74.0596 10.7976-77.9219-39.34769-3.8624-50.13718 2.3164-193.63125 2.3164-252.26554.01-58.64248-13.1082-168.19816-12.3438-204.44725 0-37.80209 22.3699-59.40718 58.627-58.63478zm-1221.7985 37.80279c39.3033-.0003 71.1657 29.53159 71.166 65.96088-.0003 36.42929-31.8627 65.96119-71.166 65.96089-39.3026-.0007-71.1638-29.5323-71.1641-65.96089.0003-36.42859 31.8615-65.96018 71.1641-65.96088zm-1057.09745 81.00388c-35.87536-1.1547-56.70862 50.91819-57.86327 70.58788-1.15464 19.6696.001 69.43448 62.49023 71.75188 62.48913 2.3093 75.21342-60.18128 63.64255-96.05657-11.56272-35.86729-33.54879-46.28319-68.26951-46.28319zm1782.29645 33.50969c30.6762.6374 69.8658 14.8734 62.2656 63.69148-8.0987 52.07259-8.0996 102.99318-8.0996 146.95887 0 43.97389 16.1967 104.15507 12.7246 142.34767-3.4721 38.17629-30.0852 56.69988-57.8535 55.53708-27.7764-1.1546-47.4455-16.19789-57.8535-19.66989-10.4162-3.4721-72.9078 39.34679-130.7616 1.1543-57.8621-38.17629-74.0597-85.63098-71.7422-127.27927 2.3092-174.73276 2.3086-171.27086 2.3086-193.25776 0-21.99509 35.8689-63.64518 71.7441-67.11718 35.8669-3.4721 69.4335-6.9441 69.4335 46.28319s-2.3184 157.38316-2.3184 177.05266c0 19.67769 33.5592 47.44528 37.0313 2.3086 3.4802-45.12849 3.4785-153.90057 4.625-183.98626 1.1628-30.08569 31.2417-42.81189 62.4902-43.97459 1.953-.072 3.9608-.091 6.0059-.049zm293.2889 10.1036c16.8336.289 32.2405 2.6759 44.3926 7.3046 48.6005 18.50679 71.7419 52.07518 67.1153 105.31057-4.6267 53.22719-10.0412 101.77218 2.3183 175.88866 3.4721 20.82409 20.8327 35.87559 15.0352 60.17178-5.7733 24.2962-31.2409 48.60809-54.3907 47.44539-23.1415-1.1547-33.5509-27.77609-53.2285-26.61329-19.6695 1.1627-27.7684 50.91769-116.8788 20.83199-89.0942-30.07749-92.5677-100.67477-99.5117-155.05656-6.9441-54.38999 18.5158-141.18436 54.3828-185.15815 26.9124-32.9804 90.2648-50.99219 140.7655-50.12499zm-1647.98585 3.6972c3.59022-.052 7.24801-.01 10.97266.1367 119.1968 4.6268 167.78913 71.74228 162.00777 121.50587-5.7895 49.75549-63.65134 80.99578-116.87888 97.19337-53.23565 16.2138-89.10395 30.1026-82.16794 42.82809 6.94414 12.7255 24.30412 6.9354 55.55272-3.47269 65.96115-24.3045 113.40881-39.3553 131.9238-10.416 18.51497 28.93119 25.45837 62.48958-48.60155 99.51947-74.05993 37.03-153.90209 57.86259-219.86324 9.2618-65.96927-48.60089-87.94824-153.91856-69.44138-208.30075 17.93639-52.69059 65.19937-146.64166 176.49604-148.25586zm373.77135 12.40239c50.2388-.5595 98.8675 14.0567 126.707 36.33399 40.502 32.4032 28.9322 79.85059 17.3614 97.21088-11.5791 17.3603-58.0181 10.302-97.211-19.66989-19.6777-15.0511-50.9175-19.6774-56.707-5.7891-5.7895 13.88009 19.6772 21.97849 52.0723 41.65629 32.4032 19.67769 84.4766 45.12979 99.5195 83.31438 15.051 38.18459 8.1059 94.89268-59.0098 124.97847-67.1238 30.09399-145.8114 15.04199-203.67373-18.5078-57.85417-33.56599-43.96512-81.00318-27.76757-102.99017 16.19755-21.9871 56.70722-3.4813 82.1582 8.0976 25.4673 11.57089 52.0811 24.29679 59.0253 13.88869 6.9442-10.4243-5.7895-20.84059-34.7206-34.72069-24.2638-11.6521-99.51832-33.55739-113.39844-82.15818-13.88825-48.60889 18.50634-107.61967 87.93944-130.76947 21.7004-7.2318 44.8693-10.6207 67.705-10.875zm254.5293 18.6953c36.7905.4362 64.1198 27.76259 61.9473 58.14059-2.3093 32.40319-15.043 104.15577-15.043 151.59376 0 47.44599 13.8874 87.94748 12.7246 112.25187-1.1627 24.3044-28.9396 43.97459-64.8066 43.97459-35.8753 0-64.806-1.1626-67.1153-46.28319-2.3175-45.13679 10.4153-114.56317 12.7246-152.75576 2.3256-38.19269-2.3001-76.37788-3.4629-99.51958-6.9441-26.61369 15.0508-63.65098 55.5528-67.12298 2.5308-.217 5.0258-.3084 7.4785-.2793zm-619.32018 45.03119c-11.15482.3458-22.16695 3.2763-30.4121 8.4844-21.97892 13.88829-40.4935 42.81809-21.97851 74.05858 9.25342 15.0429 46.28305 15.0435 71.74217 3.4727 25.45911-11.5709 37.0217-40.50219 25.45898-64.80669-7.23178-15.18519-26.21915-21.78529-44.81054-21.20899zm874.52518 35.10549c-33.2326 0-60.1719 33.15209-60.1719 74.06048 0 40.89219 26.9393 74.05278 60.1719 74.05278 33.2325 0 60.1718-33.16059 60.1718-74.05278 0-40.90839-26.9393-74.06048-60.1718-74.06048zm729.0311 1.1543c-31.3298 0-56.709 33.93319-56.709 75.79298 0 41.85159 25.3792 75.79098 56.709 75.79098 31.3134 0 56.6991-33.93129 56.6991-75.79098 0-41.85979-25.3857-75.79298-56.6991-75.79298z"
     fill="#fff"
     stroke-width="8.13134"
     transform="matrix(.5 0 0 .5001816 -.5 -.4998185)"
     id="path1" />
</svg>
