<?xml version="1.0" encoding="UTF-8" standalone="no"?>
<svg
   enable-background="new 0 0 3840 1213.5"
   height="607"
   viewBox="0 0 1920 607"
   width="1920"
   version="1.1"
   id="svg8"
   xmlns="http://www.w3.org/2000/svg"
   xmlns:svg="http://www.w3.org/2000/svg">
  <defs
     id="defs8" />
  <g
     fill="#fff"
     transform="scale(.5 .500206)"
     id="g8">
    <path
       d="m604.7 0c-318.8 0-579.9 245.8-604.7 558.1l325.2 134.5c27.6-18.8 60.8-29.9 96.7-29.9 3.2 0 6.4.1 9.6.3l144.6-209.6c0-1 0-2 0-3 0-126.2 102.6-228.8 228.8-228.8s228.8 102.7 228.8 228.8-102.7 228.8-228.8 228.8c-1.7 0-3.5 0-5.2-.1l-206.3 147.2c.1 2.7.2 5.4.2 8.1 0 94.7-77 171.8-171.8 171.8-83.1 0-152.6-59.3-168.4-137.9l-232.5-96.2c72 254.7 306 441.4 583.8 441.4 335.1 0 606.8-271.7 606.8-606.7-.1-335.2-271.7-606.8-606.8-606.8"
       id="path1" />
    <path
       d="m380.2 920.6-74.5-30.8c13.2 27.5 36.1 50.5 66.4 63.2 65.6 27.3 141.2-3.8 168.5-69.4 13.2-31.7 13.3-66.8.2-98.6s-37.8-56.7-69.6-69.9c-31.5-13.1-65.3-12.6-95-1.4l77 31.8c48.4 20.2 71.3 75.7 51.1 124.1-20.1 48.3-75.7 71.2-124.1 51"
       id="path2" />
    <path
       d="m957.3 450.4c0-84.1-68.4-152.5-152.5-152.5s-152.5 68.4-152.5 152.5 68.4 152.5 152.5 152.5c84.1-.1 152.5-68.5 152.5-152.5m-266.7-.3c0-63.3 51.3-114.5 114.5-114.5s114.5 51.3 114.5 114.5-51.3 114.5-114.5 114.5-114.5-51.3-114.5-114.5"
       id="path3" />
    <path
       d="m1859.4 415.1-40.7 71.5c-31.3-21.9-73.8-35-110.8-35-42.3 0-68.5 17.5-68.5 48.9 0 38.1 46.5 47 115.7 71.8 74.4 26.3 117.1 57.2 117.1 125.3 0 93.2-73.3 145.5-178.6 145.5-51.3 0-113.2-13.2-160.8-42.2l29.7-79.2c38.7 20.4 84.9 32.5 126.1 32.5 55.6 0 82-20.5 82-50.8 0-34.7-40.3-45.1-105.3-66.6-74.1-24.7-125.5-57.2-125.5-132.6 0-85 68.1-133.8 166-133.8 68.3 0 123.2 21.6 153.6 44.7"
       id="path4" />
    <path
       d="m2177.2 460.3v375h-95.7v-375h-139v-82.1h373.2v82.1z"
       id="path5" />
    <path
       d="m2517.5 460.1v103h183.2v82.1h-183.2v107.2h212.6v82.9h-308.3v-457.1h308.3v81.9z"
       id="path6" />
    <path
       d="m2943.7 746.5-30.3 88.8h-100.3l171.4-457.1h96.4l176.2 457.1h-103.7l-30.9-88.8zm88.4-259.3-62.4 183h126.1z"
       id="path7" />
    <path
       d="m3748.3 554.9-125.1 267.1h-54l-123-264.7v278h-91.7v-457.1h91.5l153.6 330 148.1-330h92.3v457.1h-91.6z"
       id="path8" />
  </g>
</svg>
