<?xml version="1.0" encoding="UTF-8" standalone="no"?>
<svg
   enable-background="new 0 0 3839 1027.7"
   height="514"
   viewBox="0 0 1920 514"
   width="1920"
   version="1.1"
   id="svg10"
   xmlns="http://www.w3.org/2000/svg"
   xmlns:svg="http://www.w3.org/2000/svg">
  <defs
     id="defs10" />
  <g
     fill="#fff"
     transform="scale(.50013024 .50014594)"
     id="g10">
    <path
       d="m1379.5 26.9h-111.2-111.7-111.1v111.5h111.1v862.5h111.7v-862.5h111.2z"
       id="path1" />
    <path
       d="m1648.9 26.9v862.3h-110.7v-862.3h-111.7v816.1c0 92.2 74.8 167.1 167.1 167.1 92.2 0 167.1-74.8 167.1-167.1v-816.1z"
       id="path2" />
    <path
       d="m2094.4 1000.9h95.1l-200.2-1000.9-200.3 1000.9h95.1l23-115h164.1zm-164.8-226.7 59.7-298.5 59.7 298.5z"
       id="path3" />
    <path
       d="m0 26.9 200.3 1000.8 200.2-1000.8h-95.1l-105.1 525.1-105-525.1z"
       id="path4" />
    <path
       d="m2982.5 169.9c0-79-64-143-143-143h-79.3-78.5-33.2v974h33.2 157.8c79 0 143-64 143-143v-245.6c0-32.3-15.6-71.7-39.6-98.4 24-26.6 39.6-66.1 39.6-98.4zm-111.7-31.5v319.6h-110.7v-319.6zm-110.7 750.8v-319.5h110.7v319.5z"
       id="path5" />
    <path
       d="m3839 26.9h-95.3l-103.6 432.9-103.7-432.9h-96l142.9 596.5v377.5h111.7v-369.6z"
       id="path6" />
    <path
       d="m462.1 26.9h111.7v974h-111.7z"
       id="path7" />
    <path
       d="m1057.2 1000.9-125.9-446.4c46.9-23.5 79.1-71.9 79.1-127.9v-256.7c0-79-64-143-143-143h-79.3-111.8v111.7 862.3h111.7v-542.8-319.7h110.7v319.6h-110.7l2.4 8.8 150.7 534.1z"
       id="path8" />
    <path
       d="m2354.2 889.2v-862.3h-111.7v862.3 55.9 55.8h282.6v-111.7z"
       id="path9" />
    <path
       d="m3241.9 17.8c-92.2 0-167.1 74.8-167.1 167.1v136.7 409.4 112.1c0 92.2 74.8 167.1 167.1 167.1 92.2 0 167.1-74.8 167.1-167.1v-112.2-149.7-134.6-125.2-136.7c0-92.2-74.8-166.9-167.1-166.9zm55.4 303.6v259.8 149.7 158.3h-110.7v-308-134.6-308h110.7z"
       id="path10" />
  </g>
</svg>
