<?xml version="1.0" encoding="UTF-8" standalone="no"?>
<svg
   enable-background="new 0 0 3849.4 1246.5"
   height="622"
   viewBox="0 0 1920 622"
   width="1920"
   version="1.1"
   id="svg25"
   xmlns="http://www.w3.org/2000/svg"
   xmlns:svg="http://www.w3.org/2000/svg">
  <defs
     id="defs25" />
  <g
     transform="matrix(.49878194432 0 0 .49900573678 0 .01961100024)"
     id="g25">
    <g
       fill="none"
       stroke="#fff"
       stroke-miterlimit="10"
       stroke-width="9.6786"
       id="g4">
      <path
         d="m2960.8 4.8h-265l879.1 1236.8h265.1z"
         id="path1" />
      <path
         d="m2695.8 4.8h-265.1l879.2 1236.8h265z"
         id="path2" />
      <path
         d="m2430.7 4.8h-265l879.1 1236.8h265.1z"
         id="path3" />
      <path
         d="m2165.7 4.8h-265.1l879.2 1236.8h265z"
         id="path4" />
    </g>
    <g
       fill="#fff"
       id="g24">
      <path
         d="m633.3 158.9h109.3v86.5h-109.3z"
         id="path5" />
      <path
         d="m1.6 1044 162-193.7h-149.3v-55.8h237.7v52.5l-162 193.6h166.2v55.8h-254.6z"
         id="path6" />
      <path
         d="m373.4 938.2-97.3-143.8h77l59.2 96.5 61.3-96.5h72.8l-96.9 144.3 105.3 157.8h-79.1l-66-104.5-67.3 104.5h-74.9z"
         id="path7" />
      <path
         d="m659.8 996.2c0 40.2 31.3 55.8 66.8 55.8 23.3 0 58.8-6.8 58.8-37.6 0-32.6-45.3-38.1-89.7-49.9-44.8-11.8-90.1-29.2-90.1-85.9 0-61.8 58.4-91.4 112.9-91.4 63 0 121 27.5 121 97.3h-64.3c-2.1-36.4-27.9-45.7-59.6-45.7-21.2 0-45.7 8.9-45.7 34.3 0 23.3 14.4 26.2 90.1 45.7 22 5.5 89.7 19.5 89.7 88 0 55.4-43.6 96.9-125.6 96.9-66.8 0-129.4-33-128.6-107.4h64.3z"
         id="path8" />
      <path
         d="m870 877.7h57.1v27.9h.8c14.4-23.3 38.1-33.8 65.1-33.8 68.5 0 99.4 55.4 99.4 117.6 0 58.4-32.2 112.9-96 112.9-26.2 0-51.2-11.4-65.6-33h-.8v104.1h-60zm162.4 110c0-34.7-14-70.6-52.5-70.6-39.3 0-52 35.1-52 70.6s13.5 69.4 52.5 69.4c39.4 0 52-33.9 52-69.4z"
         id="path9" />
      <path
         d="m1165.3 1001.7c1.7 38.1 20.3 55.4 53.7 55.4 24.1 0 43.6-14.8 47.4-28.3h52.9c-16.9 51.6-52.9 73.6-102.4 73.6-69 0-111.7-47.4-111.7-115.1 0-65.6 45.3-115.5 111.7-115.5 74.5 0 110.4 62.6 106.2 129.9zm97.7-38.1c-5.5-30.5-18.6-46.5-47.8-46.5-38.1 0-49.1 29.6-49.9 46.5z"
         id="path10" />
      <path
         d="m1494.8 954.7c-3.8-24.5-19.5-37.6-44.4-37.6-38.5 0-51.2 38.9-51.2 71.1 0 31.3 12.3 68.9 49.9 68.9 27.9 0 44-17.8 47.8-44.4h58c-7.6 57.9-47.8 89.7-105.3 89.7-66 0-110.4-46.5-110.4-112.1 0-68.1 40.6-118.4 111.7-118.4 51.6 0 99 27.1 102.8 82.9h-58.9z"
         id="path11" />
      <path
         d="m1652.1 877.7h44v40.2h-44v108.3c0 20.3 5.1 25.4 25.4 25.4 6.3 0 12.3-.4 18.6-1.7v47c-10.2 1.7-23.3 2.1-35.1 2.1-36.8 0-69-8.5-69-52v-129h-36.4v-40.2h36.4v-65.6h60.1z"
         id="path12" />
      <path
         d="m1712.2 877.7h57.1v40.6h.8c11-27.5 40.6-46.5 69.8-46.5 4.2 0 9.3.8 13.1 2.1v55.8c-5.5-1.3-14.4-2.1-21.6-2.1-44 0-59.2 31.7-59.2 70.2v98.6h-60.1v-218.7z"
         id="path13" />
      <path
         d="m2069.2 1096.4h-57.1v-30.5h-1.3c-15.2 24.5-41.5 36.4-66.8 36.4-63.9 0-80-36-80-90.1v-134.5h60.1v123.5c0 36 10.6 53.7 38.5 53.7 32.6 0 46.5-18.2 46.5-62.6v-114.6h60.1z"
         id="path14" />
      <path
         d="m2103.9 877.7h56.7v29.6h.8c15.7-22.4 38.5-35.5 66.8-35.5 27.5 0 52 10.2 63.9 36.4 12.7-19 35.5-36.4 66-36.4 46.5 0 80 21.6 80 78.3v146.4h-60.1v-124c0-29.2-2.5-53.3-36.8-53.3-33.8 0-40.2 27.9-40.2 55.4v121.8h-60.1v-122.7c0-25.4 1.7-54.6-36.4-54.6-11.8 0-40.6 7.6-40.6 50.3v126.9h-60.1v-218.6z"
         id="path15" />
      <path
         d="m2815.6 158.9h109.3v86.5h-109.3z"
         id="path16" />
      <path
         d="m633.3 277.5h109.3v362.5h-109.3z"
         id="path17" />
      <path
         d="m2815.7 277.5h109.3v362.5h-109.3z"
         id="path18" />
      <path
         d="m2036.1 158.9h109.3v481.1h-109.3z"
         id="path19" />
      <path
         d="m880.8 277.5h-109.3v86.5 276h109.3v-276h384.8v276h109.3v-276-86.5h-109.3z"
         id="path20" />
      <path
         d="m3557.3 277.5h-494.1-109.3v86.5 276h109.3v-276h494.1z"
         id="path21" />
      <path
         d="m.9 301.4h-.9v114.1 86.5 1.2h109.3v-1.2h384.8v51.5h-493.2v86.5h493.2 109.3.9v-86.5h-.9v-51.5-86.5-1.2h-109.3v1.2h-384.8v-51.5h495v-86.5h-603.4z"
         id="path22" />
      <path
         d="m1403.8 277.5v86.5 189.5 86.5h109.3 494.1v-86.5h-494.1v-189.5h494.1v-86.5h-494.1z"
         id="path23" />
      <path
         d="m2777.8 277.5h-100.4-4.1-499v86.5h499v51.5h-499v4.6 81.9 51.5 86.5h109.3 389.7 4.1 100.4 4.9 4.1v-362.5h-4.1zm-494.1 276v-51.5h389.7v51.5z"
         id="path24" />
    </g>
  </g>
</svg>
