<?xml version="1.0" encoding="UTF-8" standalone="no"?>
<svg
   height="210"
   viewBox="0 0 640 210"
   width="640"
   version="1.1"
   id="svg34"
   sodipodi:docname="amiga.svg"
   inkscape:version="1.3.2 (091e20e, 2023-11-25)"
   xmlns:inkscape="http://www.inkscape.org/namespaces/inkscape"
   xmlns:sodipodi="http://sodipodi.sourceforge.net/DTD/sodipodi-0.dtd"
   xmlns:xlink="http://www.w3.org/1999/xlink"
   xmlns="http://www.w3.org/2000/svg"
   xmlns:svg="http://www.w3.org/2000/svg">
  <defs
     id="defs34" />
  <sodipodi:namedview
     id="namedview34"
     pagecolor="#ffffff"
     bordercolor="#000000"
     borderopacity="0.25"
     inkscape:showpageshadow="2"
     inkscape:pageopacity="0.0"
     inkscape:pagecheckerboard="0"
     inkscape:deskcolor="#d1d1d1"
     inkscape:zoom="1"
     inkscape:cx="316.5"
     inkscape:cy="103"
     inkscape:window-width="1312"
     inkscape:window-height="449"
     inkscape:window-x="0"
     inkscape:window-y="39"
     inkscape:window-maximized="0"
     inkscape:current-layer="svg34" />
  <linearGradient
     id="a">
    <stop
       offset="0"
       stop-color="#6d83ee"
       id="stop1" />
    <stop
       offset=".24"
       stop-color="#0044c6"
       id="stop2" />
    <stop
       offset="1"
       stop-color="#84cd28"
       id="stop3" />
  </linearGradient>
  <linearGradient
     id="b"
     gradientTransform="matrix(1,0,0,-1,0,15280.942)"
     gradientUnits="userSpaceOnUse"
     x1="370.0282"
     x2="586.2901"
     xlink:href="#a"
     y1="14585.846"
     y2="13991.669" />
  <linearGradient
     id="c"
     gradientTransform="matrix(1,0,0,-1,0,15280.942)"
     gradientUnits="userSpaceOnUse"
     x1="83.739098"
     x2="449.0777"
     xlink:href="#a"
     y1="14537.668"
     y2="14021.581" />
  <linearGradient
     id="d">
    <stop
       offset="0"
       stop-color="#8dbc30"
       id="stop4" />
    <stop
       offset=".31"
       stop-color="#e4d300"
       id="stop5" />
    <stop
       offset=".49"
       stop-color="#e6970b"
       id="stop6" />
    <stop
       offset=".66"
       stop-color="#e86316"
       id="stop7" />
    <stop
       offset=".81"
       stop-color="#e93e1d"
       id="stop8" />
    <stop
       offset=".92"
       stop-color="#ea2822"
       id="stop9" />
    <stop
       offset="1"
       stop-color="#eb2024"
       id="stop10" />
  </linearGradient>
  <linearGradient
     id="e"
     gradientTransform="matrix(1,0,0,-1,0,15280.942)"
     gradientUnits="userSpaceOnUse"
     x1="332.41931"
     x2="1367.9995"
     xlink:href="#d"
     y1="14663.933"
     y2="14663.933" />
  <linearGradient
     id="f"
     gradientTransform="matrix(1,0,0,-1,0,15280.942)"
     gradientUnits="userSpaceOnUse"
     x1="431.08701"
     x2="1705.7705"
     xlink:href="#d"
     y1="14217.662"
     y2="15110.208" />
  <linearGradient
     id="g"
     gradientTransform="matrix(1,0,0,-1,0,15280.942)"
     gradientUnits="userSpaceOnUse"
     x1="587.37769"
     x2="708.61261"
     y1="14126.164"
     y2="14036.55">
    <stop
       offset="0"
       stop-opacity="0"
       id="stop11" />
    <stop
       offset=".16"
       id="stop12" />
  </linearGradient>
  <linearGradient
     id="h"
     gradientTransform="matrix(1,0,0,-1,0,15280.942)"
     gradientUnits="userSpaceOnUse"
     x1="368.58719"
     x2="440.39911"
     y1="14126.098"
     y2="14078.918">
    <stop
       offset="0"
       stop-opacity="0"
       id="stop13" />
    <stop
       offset=".25"
       id="stop14" />
  </linearGradient>
  <linearGradient
     id="i"
     gradientTransform="matrix(1,0,0,-1,0,15280.942)"
     gradientUnits="userSpaceOnUse"
     x1="470.51569"
     x2="510.12689"
     y1="14290.253"
     y2="14262.137">
    <stop
       offset=".2"
       stop-opacity="0"
       id="stop15" />
    <stop
       offset=".69"
       id="stop16" />
  </linearGradient>
  <g
     id="g1"
     transform="scale(0.16666666,0.16693164)">
    <g
       id="g35">
      <g
         transform="scale(1.000269,1.0001574)"
         id="g34">
        <g
           fill="#8b8b8b"
           id="g18">
          <path
             d="m 1516.257,1211.753 c -0.182,-0.158 -0.339,-0.329 -0.529,-0.484 -0.18,-0.155 -0.336,-0.324 -0.525,-0.476 -0.181,-0.158 -0.338,-0.329 -0.528,-0.482 -0.181,-0.158 -0.337,-0.327 -0.527,-0.482 -0.181,-0.155 -0.338,-0.327 -0.527,-0.479 -0.18,-0.158 -0.337,-0.327 -0.526,-0.479 -0.182,-0.158 -0.339,-0.329 -0.529,-0.482 -0.18,-0.158 -0.336,-0.327 -0.525,-0.479 -0.181,-0.158 -0.338,-0.329 -0.528,-0.482 -0.181,-0.158 -0.338,-0.327 -0.527,-0.479 -0.181,-0.158 -0.338,-0.329 -0.527,-0.482 -0.18,-0.158 -0.337,-0.327 -0.526,-0.479 -0.181,-0.158 -0.338,-0.327 -0.528,-0.482 -0.181,-0.155 -0.338,-0.327 -0.527,-0.479 -0.181,-0.158 -0.338,-0.329 -0.527,-0.482 -0.181,-0.155 -0.338,-0.327 -0.527,-0.479 -0.181,-0.158 -0.337,-0.327 -0.527,-0.482 -0.181,-0.155 -0.338,-0.327 -0.527,-0.479 -0.18,-0.158 -0.337,-0.327 -0.526,-0.479 -0.182,-0.158 -0.339,-0.329 -0.529,-0.482 -0.18,-0.158 -0.336,-0.327 -0.525,-0.479 -0.181,-0.158 -0.339,-0.329 -0.528,-0.482 -0.181,-0.158 -0.338,-0.327 -0.527,-0.479 -0.181,-0.158 -0.337,-0.329 -0.527,-0.482 -0.18,-0.158 -0.337,-0.327 -0.526,-0.479 -0.181,-0.158 -0.338,-0.327 -0.528,-0.482 -0.181,-0.155 -0.338,-0.327 -0.527,-0.479 -0.181,-0.158 -0.337,-0.329 -0.527,-0.482 -0.18,-0.155 -0.337,-0.327 -0.526,-0.479 -0.182,-0.158 -0.339,-0.329 -0.529,-0.482 -0.18,-0.158 -0.336,-0.327 -0.525,-0.479 -0.181,-0.158 -0.338,-0.327 -0.528,-0.482 -0.181,-0.155 -0.337,-0.327 -0.527,-0.479 -0.181,-0.158 -0.337,-0.327 -0.527,-0.479 -0.18,-0.158 -0.337,-0.327 -0.526,-0.482 -0.182,-0.158 -0.339,-0.327 -0.529,-0.482 -0.18,-0.155 -0.336,-0.327 -0.525,-0.479 -0.181,-0.155 -0.338,-0.327 -0.528,-0.479 -0.181,-0.158 -0.338,-0.329 -0.528,-0.482 -0.18,-0.158 -0.336,-0.327 -0.525,-0.479 -0.181,-0.158 -0.339,-0.327 -0.528,-0.482 -0.18,-0.155 -0.337,-0.327 -0.526,-0.479 -0.182,-0.158 -0.339,-0.329 -0.529,-0.482 -0.18,-0.155 -0.336,-0.327 -0.525,-0.479 -0.181,-0.158 -0.339,-0.327 -0.528,-0.482 -0.181,-0.155 -0.337,-0.327 -0.527,-0.479 -0.181,-0.158 -0.337,-0.327 -0.526,-0.479 -0.18,-0.158 -0.337,-0.327 -0.526,-0.482 -0.182,-0.158 -0.339,-0.327 -0.529,-0.482 -0.18,-0.155 -0.336,-0.327 -0.525,-0.479 -0.181,-0.155 -0.338,-0.327 -0.528,-0.479 -0.181,-0.158 -0.337,-0.327 -0.526,-0.482 -0.181,-0.155 -0.338,-0.327 -0.527,-0.479 -0.18,-0.158 -0.337,-0.327 -0.526,-0.479 -0.181,-0.158 -0.338,-0.329 -0.528,-0.482 -0.181,-0.158 -0.337,-0.327 -0.527,-0.482 -0.181,-0.155 -0.338,-0.327 -0.527,-0.479 -0.18,-0.158 -0.337,-0.327 -0.526,-0.479 -0.182,-0.158 -0.339,-0.329 -0.529,-0.482 -0.18,-0.158 -0.336,-0.327 -0.525,-0.479 -0.181,-0.158 -0.338,-0.329 -0.528,-0.482 -0.181,-0.158 -0.338,-0.327 -0.527,-0.479 -0.181,-0.158 -0.337,-0.329 -0.527,-0.482 -0.181,-0.158 -0.338,-0.327 -0.527,-0.479 -0.181,-0.158 -0.337,-0.327 -0.527,-0.482 -0.181,-0.158 -0.338,-0.327 -0.527,-0.479 -0.18,-0.158 -0.337,-0.327 -0.526,-0.479 -0.181,-0.158 -0.338,-0.329 -0.528,-0.482 -0.181,-0.158 -0.337,-0.327 -0.527,-0.482 -0.181,-0.155 -0.338,-0.327 -0.527,-0.479 -0.18,-0.158 -0.337,-0.327 -0.526,-0.479 -0.182,-0.158 -0.339,-0.329 -0.529,-0.482 -0.18,-0.158 -0.336,-0.327 -0.525,-0.479 -0.181,-0.158 -0.338,-0.329 -0.528,-0.482 -0.181,-0.158 -0.338,-0.327 -0.527,-0.479 -0.696,-0.607 -1.473,-1.173 -2.294,-1.714 -0.563,-1.736 -1.112,-3.483 -1.475,-5.288 -2.191,-10.867 -3.286,-25.342 -3.286,-43.429 l -27.875,-450.881 c 0,-24.052 -2.558,-39.673 -7.643,-46.896 -0.754,-1.067 -1.633,-2.027 -2.576,-2.934 -0.165,-0.171 -0.357,-0.318 -0.529,-0.484 -0.164,-0.169 -0.355,-0.313 -0.525,-0.476 -0.165,-0.171 -0.357,-0.318 -0.528,-0.482 -0.164,-0.171 -0.356,-0.316 -0.527,-0.482 -0.165,-0.169 -0.356,-0.316 -0.527,-0.479 -0.164,-0.169 -0.356,-0.316 -0.526,-0.479 -0.165,-0.171 -0.358,-0.318 -0.529,-0.482 -0.164,-0.169 -0.355,-0.316 -0.525,-0.479 -0.165,-0.169 -0.357,-0.318 -0.528,-0.482 -0.164,-0.169 -0.356,-0.316 -0.527,-0.482 -0.165,-0.169 -0.356,-0.316 -0.527,-0.479 -0.164,-0.169 -0.355,-0.316 -0.526,-0.479 -0.165,-0.169 -0.357,-0.318 -0.529,-0.482 -0.164,-0.169 -0.355,-0.316 -0.526,-0.479 -0.164,-0.171 -0.355,-0.316 -0.526,-0.479 -0.165,-0.171 -0.357,-0.318 -0.528,-0.482 -0.164,-0.171 -0.356,-0.316 -0.527,-0.482 -0.165,-0.169 -0.356,-0.316 -0.527,-0.479 -0.164,-0.169 -0.355,-0.316 -0.526,-0.479 -0.165,-0.171 -0.358,-0.318 -0.529,-0.482 -0.164,-0.169 -0.355,-0.316 -0.525,-0.479 -0.165,-0.169 -0.357,-0.318 -0.528,-0.482 -0.164,-0.169 -0.356,-0.316 -0.527,-0.482 -0.165,-0.169 -0.356,-0.316 -0.527,-0.479 -0.164,-0.169 -0.355,-0.316 -0.526,-0.479 -0.165,-0.169 -0.358,-0.318 -0.529,-0.482 -0.164,-0.169 -0.355,-0.316 -0.525,-0.479 -0.165,-0.169 -0.357,-0.316 -0.528,-0.482 -0.164,-0.169 -0.355,-0.316 -0.526,-0.479 -0.165,-0.169 -0.357,-0.318 -0.529,-0.482 -0.164,-0.169 -0.355,-0.316 -0.525,-0.479 -0.165,-0.169 -0.357,-0.316 -0.528,-0.482 -0.164,-0.169 -0.356,-0.316 -0.527,-0.479 -0.165,-0.169 -0.356,-0.316 -0.527,-0.482 -0.164,-0.169 -0.355,-0.313 -0.526,-0.479 -0.165,-0.169 -0.358,-0.316 -0.529,-0.482 -0.164,-0.169 -0.355,-0.316 -0.526,-0.479 -0.164,-0.169 -0.355,-0.316 -0.526,-0.479 -0.165,-0.169 -0.358,-0.318 -0.529,-0.482 -0.164,-0.169 -0.355,-0.316 -0.525,-0.479 -0.165,-0.169 -0.357,-0.316 -0.528,-0.482 -0.164,-0.169 -0.355,-0.316 -0.526,-0.479 -0.165,-0.169 -0.357,-0.318 -0.529,-0.482 -0.164,-0.169 -0.355,-0.316 -0.525,-0.479 -0.165,-0.169 -0.357,-0.316 -0.528,-0.482 -0.164,-0.169 -0.356,-0.316 -0.527,-0.479 -0.165,-0.169 -0.356,-0.316 -0.527,-0.482 -0.164,-0.169 -0.355,-0.313 -0.526,-0.479 -0.165,-0.169 -0.358,-0.316 -0.529,-0.482 -0.164,-0.169 -0.355,-0.313 -0.525,-0.479 -0.165,-0.169 -0.357,-0.316 -0.528,-0.479 -0.164,-0.171 -0.356,-0.318 -0.527,-0.482 -0.165,-0.169 -0.356,-0.316 -0.527,-0.479 -0.164,-0.171 -0.355,-0.316 -0.526,-0.479 -0.165,-0.171 -0.358,-0.318 -0.529,-0.484 -0.164,-0.169 -0.355,-0.313 -0.525,-0.476 -0.165,-0.171 -0.357,-0.318 -0.528,-0.482 -0.164,-0.169 -0.356,-0.316 -0.526,-0.479 -0.165,-0.172 -0.358,-0.318 -0.529,-0.482 -0.164,-0.169 -0.355,-0.316 -0.525,-0.479 -0.165,-0.169 -0.357,-0.318 -0.528,-0.482 -0.165,-0.171 -0.357,-0.316 -0.528,-0.482 -0.164,-0.169 -0.355,-0.313 -0.525,-0.479 -0.165,-0.169 -0.357,-0.316 -0.528,-0.479 -0.164,-0.171 -0.356,-0.318 -0.527,-0.482 -0.165,-0.169 -0.356,-0.316 -0.527,-0.479 -0.164,-0.171 -0.355,-0.316 -0.526,-0.479 -0.165,-0.171 -0.358,-0.318 -0.529,-0.484 -0.164,-0.169 -0.355,-0.313 -0.525,-0.476 -0.165,-0.171 -0.357,-0.318 -0.528,-0.482 -0.164,-0.169 -0.355,-0.316 -0.526,-0.479 -0.165,-0.171 -0.357,-0.318 -0.529,-0.482 -0.164,-0.169 -0.355,-0.316 -0.525,-0.479 -0.165,-0.169 -0.357,-0.318 -0.528,-0.482 -0.164,-0.169 -0.356,-0.316 -0.527,-0.482 -5.406,-5.568 -14.161,-8.363 -26.273,-8.363 -12.589,0 -21.888,2.406 -27.875,7.193 -5.996,4.809 -16.184,17.983 -30.572,39.564 l -284.152,404.617 -16.184,23.377 -16.188,22.482 -15.286,23.377 -35.051,44.073 c -10.789,11.395 -24.123,17.983 -40.015,19.782 -15.874,1.799 -26.667,4.648 -32.372,8.54 -5.686,3.905 -8.541,10.341 -8.541,19.336 0,5.427 1.828,9.481 5.468,12.178 0.185,0.152 0.331,0.335 0.527,0.482 0.185,0.152 0.331,0.335 0.527,0.479 0.185,0.152 0.33,0.335 0.526,0.479 0.185,0.155 0.332,0.337 0.528,0.482 0.185,0.152 0.331,0.335 0.527,0.482 0.185,0.152 0.331,0.335 0.527,0.479 0.185,0.152 0.331,0.335 0.527,0.479 0.185,0.152 0.332,0.338 0.527,0.482 0.185,0.152 0.331,0.335 0.526,0.479 0.185,0.152 0.331,0.335 0.526,0.482 0.186,0.152 0.332,0.335 0.528,0.479 0.185,0.155 0.33,0.335 0.525,0.479 0.185,0.155 0.331,0.338 0.527,0.482 0.185,0.152 0.332,0.335 0.527,0.482 0.185,0.152 0.331,0.335 0.526,0.479 0.185,0.152 0.331,0.335 0.526,0.479 0.185,0.155 0.331,0.337 0.527,0.482 0.185,0.152 0.332,0.335 0.527,0.482 0.185,0.152 0.331,0.335 0.526,0.479 0.185,0.152 0.331,0.335 0.526,0.479 0.186,0.155 0.332,0.337 0.528,0.482 0.185,0.152 0.33,0.335 0.525,0.479 0.185,0.152 0.331,0.335 0.527,0.482 0.185,0.152 0.332,0.335 0.527,0.479 0.185,0.152 0.331,0.338 0.527,0.482 0.185,0.152 0.33,0.335 0.526,0.479 0.186,0.152 0.332,0.335 0.528,0.482 0.185,0.152 0.33,0.335 0.525,0.479 0.185,0.152 0.332,0.335 0.528,0.482 0.185,0.152 0.332,0.335 0.528,0.479 0.185,0.152 0.33,0.335 0.525,0.479 0.185,0.155 0.331,0.335 0.527,0.482 0.185,0.152 0.331,0.335 0.526,0.479 0.186,0.155 0.332,0.337 0.528,0.482 0.185,0.152 0.33,0.335 0.525,0.479 0.185,0.152 0.331,0.335 0.527,0.482 0.185,0.152 0.332,0.335 0.527,0.479 0.185,0.152 0.331,0.335 0.526,0.482 0.185,0.152 0.331,0.335 0.526,0.479 0.186,0.152 0.332,0.335 0.528,0.482 0.185,0.152 0.33,0.335 0.525,0.479 0.185,0.152 0.331,0.335 0.527,0.479 0.185,0.155 0.332,0.337 0.527,0.482 0.185,0.152 0.331,0.335 0.526,0.479 0.185,0.155 0.331,0.335 0.526,0.482 0.185,0.152 0.331,0.335 0.527,0.479 0.185,0.152 0.332,0.338 0.527,0.482 0.185,0.152 0.331,0.335 0.527,0.479 0.185,0.155 0.33,0.335 0.526,0.482 0.186,0.152 0.332,0.335 0.528,0.479 0.185,0.152 0.33,0.335 0.525,0.479 0.185,0.155 0.332,0.338 0.528,0.482 0.185,0.155 0.332,0.335 0.528,0.482 0.185,0.152 0.33,0.335 0.525,0.479 0.185,0.152 0.331,0.335 0.527,0.479 0.185,0.155 0.332,0.337 0.527,0.482 0.185,0.152 0.331,0.335 0.526,0.479 0.185,0.155 0.331,0.335 0.526,0.482 0.185,0.152 0.331,0.335 0.527,0.479 0.185,0.152 0.332,0.337 0.527,0.482 0.185,0.152 0.331,0.335 0.526,0.479 0.185,0.152 0.331,0.335 0.526,0.482 0.186,0.152 0.332,0.335 0.528,0.479 0.185,0.155 0.33,0.335 0.525,0.479 0.185,0.155 0.331,0.337 0.527,0.482 0.185,0.152 0.332,0.335 0.527,0.482 0.185,0.152 0.331,0.335 0.526,0.479 0.185,0.152 0.331,0.335 0.526,0.479 0.186,0.155 0.332,0.338 0.528,0.482 0.185,0.152 0.33,0.335 0.525,0.479 0.185,0.155 0.331,0.335 0.527,0.482 0.185,0.152 0.332,0.335 0.527,0.479 0.185,0.155 0.331,0.337 0.527,0.482 0.185,0.152 0.33,0.335 0.526,0.479 0.185,0.152 0.332,0.335 0.528,0.482 3.589,2.964 9.101,4.485 16.641,4.485 h 24.276 l 76.43,-5.397 59.344,3.23 34.171,2.166 c 19.177,0 28.773,-6.912 28.773,-20.767 0,-4.741 -1.473,-8.662 -4.255,-11.852 -0.744,-0.944 -1.585,-1.834 -2.555,-2.651 -0.177,-0.158 -0.343,-0.324 -0.528,-0.479 -0.176,-0.161 -0.341,-0.327 -0.525,-0.479 -0.177,-0.161 -0.343,-0.327 -0.527,-0.482 -0.177,-0.161 -0.343,-0.327 -0.528,-0.482 -0.176,-0.158 -0.341,-0.324 -0.525,-0.479 -0.177,-0.158 -0.343,-0.324 -0.528,-0.479 -0.176,-0.161 -0.342,-0.327 -0.526,-0.482 -0.177,-0.161 -0.343,-0.324 -0.528,-0.482 -0.176,-0.158 -0.341,-0.324 -0.525,-0.479 -0.177,-0.158 -0.343,-0.324 -0.527,-0.479 -0.176,-0.161 -0.343,-0.327 -0.527,-0.482 -0.176,-0.161 -0.342,-0.324 -0.527,-0.479 -0.176,-0.161 -0.342,-0.324 -0.526,-0.482 -0.177,-0.158 -0.343,-0.324 -0.528,-0.479 -0.176,-0.161 -0.341,-0.327 -0.525,-0.479 -0.177,-0.161 -0.343,-0.327 -0.527,-0.482 -0.176,-0.161 -0.343,-0.324 -0.527,-0.482 -0.176,-0.158 -0.342,-0.324 -0.527,-0.479 -0.176,-0.161 -0.342,-0.324 -0.526,-0.479 -0.177,-0.161 -0.343,-0.327 -0.528,-0.482 -0.176,-0.161 -0.341,-0.324 -0.525,-0.479 -0.177,-0.161 -0.343,-0.327 -0.527,-0.482 -0.176,-0.158 -0.342,-0.324 -0.526,-0.479 -0.177,-0.161 -0.343,-0.327 -0.528,-0.482 -0.176,-0.161 -0.341,-0.324 -0.525,-0.479 -0.177,-0.161 -0.343,-0.327 -0.527,-0.482 -0.176,-0.158 -0.343,-0.324 -0.527,-0.479 -0.176,-0.161 -0.342,-0.327 -0.526,-0.482 -0.176,-0.158 -0.343,-0.324 -0.527,-0.479 -0.176,-0.161 -0.342,-0.324 -0.527,-0.482 -0.176,-0.158 -0.342,-0.324 -0.527,-0.479 -0.176,-0.161 -0.342,-0.324 -0.526,-0.479 -0.177,-0.161 -0.343,-0.327 -0.528,-0.482 -0.176,-0.161 -0.341,-0.324 -0.525,-0.479 -0.177,-0.161 -0.343,-0.327 -0.527,-0.482 -0.176,-0.158 -0.342,-0.324 -0.526,-0.479 -0.177,-0.161 -0.343,-0.327 -0.528,-0.482 -0.176,-0.161 -0.341,-0.324 -0.525,-0.479 -0.177,-0.161 -0.343,-0.327 -0.527,-0.482 -0.176,-0.158 -0.343,-0.324 -0.527,-0.479 -0.176,-0.161 -0.342,-0.327 -0.527,-0.482 -0.176,-0.158 -0.342,-0.324 -0.526,-0.479 -0.177,-0.161 -0.343,-0.327 -0.528,-0.482 -0.176,-0.158 -0.341,-0.324 -0.525,-0.479 -0.177,-0.158 -0.343,-0.327 -0.527,-0.479 -0.176,-0.161 -0.343,-0.327 -0.527,-0.482 -0.176,-0.161 -0.342,-0.324 -0.526,-0.479 -0.176,-0.161 -0.342,-0.327 -0.526,-0.482 -0.177,-0.158 -0.343,-0.324 -0.527,-0.479 -0.176,-0.161 -0.343,-0.327 -0.527,-0.482 -0.176,-0.161 -0.342,-0.324 -0.526,-0.479 -0.176,-0.161 -0.343,-0.327 -0.527,-0.482 -0.176,-0.158 -0.342,-0.324 -0.527,-0.479 -0.176,-0.161 -0.343,-0.327 -0.527,-0.482 -0.176,-0.158 -0.342,-0.324 -0.526,-0.479 -0.177,-0.161 -0.343,-0.327 -0.528,-0.482 -0.176,-0.158 -0.341,-0.324 -0.525,-0.479 -0.177,-0.158 -0.343,-0.327 -0.527,-0.479 -0.176,-0.161 -0.343,-0.327 -0.527,-0.482 -0.176,-0.161 -0.342,-0.324 -0.526,-0.479 -0.176,-0.161 -0.342,-0.327 -0.526,-0.482 -0.177,-0.158 -0.343,-0.324 -0.528,-0.479 -0.176,-0.161 -0.341,-0.327 -0.525,-0.479 -0.177,-0.161 -0.343,-0.327 -0.527,-0.482 -0.176,-0.161 -0.342,-0.324 -0.526,-0.482 -0.177,-0.158 -0.343,-0.324 -0.528,-0.479 -0.176,-0.161 -0.341,-0.327 -0.525,-0.479 -0.177,-0.161 -0.343,-0.327 -0.527,-0.482 -0.176,-0.161 -0.343,-0.327 -0.527,-0.482 -0.176,-0.158 -0.342,-0.324 -0.526,-0.479 -0.176,-0.161 -0.342,-0.324 -0.526,-0.479 -0.177,-0.161 -0.343,-0.327 -0.528,-0.482 -0.176,-0.161 -0.341,-0.324 -0.525,-0.479 -0.259,-0.234 -0.536,-0.457 -0.812,-0.68 -0.594,-0.512 -1.321,-0.95 -2.002,-1.41 -0.321,-0.207 -0.579,-0.446 -0.918,-0.642 -3.865,-2.354 -8.938,-4.033 -15.318,-4.988 -4.452,-0.528 -8.62,-1.165 -12.511,-1.905 1.185,-7.849 4.606,-17.009 10.355,-27.516 3.02,-7.22 8.15,-16.862 15.398,-28.901 3.626,-6.009 9.358,-15.354 17.211,-28.001 l 28.073,-42.443 h 143.151 l 2.437,42.631 v 36.867 c 0,16.786 -2.697,28.629 -8.092,35.515 -5.395,6.896 -15.892,11.242 -31.47,13.041 -15.595,1.796 -26.232,4.493 -31.923,8.094 -5.704,3.592 -8.541,9.299 -8.541,17.08 0,5.791 1.797,10.091 5.355,12.938 0.178,0.158 0.339,0.329 0.528,0.482 0.178,0.158 0.339,0.329 0.527,0.479 0.178,0.158 0.339,0.329 0.527,0.482 0.178,0.158 0.339,0.329 0.526,0.479 0.178,0.158 0.34,0.329 0.528,0.482 0.178,0.158 0.338,0.329 0.525,0.479 0.178,0.158 0.339,0.329 0.528,0.479 0.178,0.161 0.339,0.329 0.526,0.482 0.178,0.158 0.34,0.329 0.528,0.479 0.178,0.158 0.338,0.332 0.525,0.479 0.178,0.161 0.339,0.332 0.528,0.482 0.178,0.158 0.339,0.332 0.527,0.482 0.178,0.158 0.339,0.329 0.527,0.479 0.177,0.158 0.339,0.329 0.526,0.479 0.178,0.161 0.34,0.332 0.528,0.482 0.178,0.158 0.339,0.329 0.526,0.482 0.178,0.158 0.339,0.329 0.526,0.479 0.178,0.158 0.34,0.329 0.528,0.482 0.178,0.158 0.338,0.329 0.525,0.479 0.178,0.158 0.339,0.329 0.528,0.479 0.178,0.161 0.339,0.329 0.526,0.482 0.178,0.158 0.34,0.329 0.528,0.479 0.178,0.158 0.338,0.332 0.525,0.479 0.178,0.161 0.339,0.332 0.528,0.482 0.178,0.158 0.339,0.332 0.527,0.482 0.178,0.158 0.339,0.329 0.527,0.479 0.177,0.158 0.338,0.329 0.526,0.479 0.178,0.161 0.34,0.332 0.528,0.482 0.177,0.158 0.338,0.329 0.525,0.479 0.178,0.158 0.339,0.332 0.528,0.482 0.177,0.158 0.339,0.329 0.527,0.479 0.178,0.161 0.339,0.332 0.527,0.482 0.178,0.158 0.339,0.329 0.526,0.479 0.178,0.158 0.34,0.332 0.528,0.482 0.178,0.158 0.338,0.329 0.525,0.479 0.178,0.158 0.339,0.332 0.528,0.482 0.178,0.158 0.339,0.329 0.526,0.479 0.178,0.158 0.34,0.332 0.528,0.482 0.177,0.158 0.338,0.329 0.525,0.479 0.178,0.158 0.339,0.329 0.528,0.482 0.178,0.158 0.34,0.329 0.528,0.479 0.177,0.158 0.338,0.329 0.525,0.479 0.178,0.158 0.34,0.332 0.528,0.482 0.177,0.158 0.339,0.329 0.527,0.479 0.178,0.161 0.339,0.332 0.527,0.482 0.178,0.158 0.339,0.329 0.526,0.479 0.178,0.158 0.34,0.332 0.528,0.482 0.178,0.158 0.338,0.329 0.525,0.479 0.178,0.158 0.339,0.332 0.528,0.482 0.178,0.158 0.339,0.329 0.526,0.479 0.178,0.158 0.34,0.332 0.528,0.482 0.178,0.158 0.338,0.329 0.525,0.479 0.178,0.158 0.339,0.329 0.528,0.482 0.178,0.158 0.339,0.329 0.527,0.479 0.178,0.158 0.339,0.329 0.527,0.482 0.178,0.158 0.339,0.329 0.526,0.479 0.178,0.158 0.34,0.329 0.528,0.482 0.178,0.158 0.338,0.329 0.525,0.479 0.178,0.158 0.339,0.329 0.528,0.479 0.178,0.161 0.339,0.332 0.527,0.482 0.178,0.158 0.339,0.329 0.527,0.479 0.177,0.158 0.338,0.329 0.526,0.479 0.178,0.161 0.339,0.332 0.528,0.482 0.178,0.158 0.339,0.332 0.528,0.482 0.178,0.158 0.338,0.329 0.525,0.479 0.178,0.158 0.339,0.329 0.528,0.482 0.178,0.158 0.339,0.329 0.527,0.479 0.178,0.158 0.339,0.329 0.527,0.482 0.178,0.158 0.339,0.329 0.526,0.479 0.178,0.158 0.34,0.329 0.528,0.482 0.178,0.158 0.338,0.329 0.525,0.479 0.178,0.158 0.339,0.329 0.528,0.479 0.178,0.161 0.339,0.332 0.527,0.482 0.178,0.158 0.339,0.329 0.527,0.479 0.177,0.158 0.338,0.329 0.526,0.479 3.441,3.064 8.696,4.632 15.852,4.632 h 29.675 c 22.772,-0.898 44.198,-2.025 64.29,-3.372 20.075,-1.353 38.507,-2.025 55.296,-2.025 l 52.964,2.697 28.772,2.7 c 17.984,0 26.977,-6.602 26.977,-19.839 0.026,-5.646 -2.114,-10.191 -6.373,-13.633 z m -324.271,-254.786 79.36,-117.424 4.554,117.424 z"
             id="path16" />
          <path
             d="m 2635.806,1210.046 c -0.159,-0.169 -0.357,-0.316 -0.526,-0.479 -0.16,-0.172 -0.359,-0.318 -0.528,-0.482 -0.16,-0.172 -0.358,-0.316 -0.526,-0.479 -0.16,-0.171 -0.359,-0.316 -0.527,-0.482 -0.16,-0.171 -0.358,-0.316 -0.527,-0.482 -0.16,-0.169 -0.359,-0.316 -0.527,-0.479 -0.16,-0.169 -0.358,-0.316 -0.526,-0.479 -0.16,-0.172 -0.359,-0.316 -0.528,-0.482 -0.16,-0.169 -0.357,-0.316 -0.526,-0.479 -0.16,-0.172 -0.359,-0.316 -0.528,-0.482 -0.16,-0.169 -0.359,-0.316 -0.527,-0.479 -0.159,-0.171 -0.357,-0.316 -0.525,-0.479 -0.16,-0.171 -0.359,-0.318 -0.528,-0.482 -0.159,-0.169 -0.357,-0.316 -0.526,-0.479 -0.16,-0.172 -0.359,-0.318 -0.528,-0.482 -0.16,-0.171 -0.358,-0.316 -0.526,-0.479 -0.16,-0.172 -0.359,-0.316 -0.527,-0.482 -0.16,-0.172 -0.358,-0.316 -0.527,-0.482 -0.16,-0.169 -0.359,-0.316 -0.527,-0.479 -0.16,-0.169 -0.358,-0.316 -0.526,-0.479 -0.16,-0.171 -0.359,-0.316 -0.528,-0.482 -0.159,-0.169 -0.357,-0.316 -0.526,-0.479 -0.16,-0.171 -0.358,-0.316 -0.527,-0.482 -0.16,-0.169 -0.359,-0.316 -0.527,-0.479 -0.16,-0.172 -0.358,-0.316 -0.527,-0.482 -0.16,-0.169 -0.358,-0.313 -0.526,-0.479 -0.16,-0.169 -0.359,-0.316 -0.527,-0.482 -0.16,-0.169 -0.359,-0.316 -0.527,-0.479 -0.16,-0.171 -0.359,-0.316 -0.527,-0.479 -0.159,-0.171 -0.357,-0.316 -0.526,-0.482 -0.16,-0.169 -0.359,-0.316 -0.528,-0.482 -0.16,-0.169 -0.358,-0.313 -0.526,-0.479 -0.16,-0.169 -0.359,-0.316 -0.527,-0.479 -0.16,-0.172 -0.359,-0.316 -0.528,-0.482 -0.159,-0.172 -0.357,-0.316 -0.526,-0.479 -0.16,-0.171 -0.358,-0.316 -0.527,-0.482 -0.16,-0.169 -0.359,-0.316 -0.527,-0.479 -0.16,-0.171 -0.358,-0.316 -0.527,-0.482 -0.16,-0.169 -0.358,-0.313 -0.526,-0.479 -0.16,-0.169 -0.359,-0.316 -0.527,-0.482 -0.16,-0.169 -0.359,-0.316 -0.527,-0.479 -0.16,-0.172 -0.359,-0.316 -0.527,-0.479 -0.159,-0.171 -0.357,-0.316 -0.526,-0.482 -0.16,-0.169 -0.359,-0.316 -0.528,-0.482 -0.16,-0.169 -0.358,-0.313 -0.526,-0.479 -0.16,-0.169 -0.359,-0.316 -0.527,-0.479 -0.16,-0.172 -0.358,-0.316 -0.527,-0.482 -0.16,-0.169 -0.359,-0.316 -0.527,-0.479 -0.16,-0.172 -0.358,-0.316 -0.526,-0.482 -0.16,-0.169 -0.359,-0.316 -0.528,-0.479 -0.16,-0.171 -0.358,-0.316 -0.526,-0.479 -0.16,-0.171 -0.359,-0.318 -0.528,-0.482 -0.16,-0.171 -0.358,-0.316 -0.527,-0.482 -0.16,-0.169 -0.359,-0.316 -0.527,-0.479 -0.16,-0.169 -0.358,-0.316 -0.526,-0.479 -0.16,-0.172 -0.359,-0.316 -0.527,-0.482 -0.16,-0.172 -0.359,-0.316 -0.527,-0.482 -0.16,-0.169 -0.358,-0.316 -0.527,-0.479 -0.16,-0.169 -0.358,-0.316 -0.527,-0.479 -0.159,-0.171 -0.358,-0.316 -0.527,-0.482 -0.16,-0.169 -0.359,-0.316 -0.527,-0.479 -0.16,-0.172 -0.358,-0.316 -0.526,-0.482 -0.16,-0.169 -0.359,-0.316 -0.528,-0.479 -0.16,-0.172 -0.358,-0.316 -0.526,-0.479 -0.16,-0.172 -0.358,-0.318 -0.527,-0.482 -0.16,-0.172 -0.358,-0.316 -0.527,-0.482 -0.16,-0.169 -0.359,-0.316 -0.527,-0.479 -0.16,-0.169 -0.358,-0.316 -0.526,-0.479 -0.16,-0.171 -0.359,-0.316 -0.527,-0.482 -0.16,-0.171 -0.359,-0.316 -0.527,-0.482 -0.16,-0.169 -0.359,-0.316 -0.527,-0.479 -0.159,-0.169 -0.357,-0.316 -0.526,-0.479 -0.16,-0.172 -0.359,-0.316 -0.528,-0.482 -0.16,-0.169 -0.358,-0.316 -0.526,-0.479 -4.482,-4.765 -12.47,-7.342 -23.752,-7.862 0.463,-9.993 3.112,-23.633 7.996,-41.009 l 113.294,-394.735 c 5.987,-19.782 11.691,-32.668 17.086,-38.663 5.395,-5.987 16.031,-10.341 31.918,-13.038 15.879,-2.697 26.821,-5.848 32.821,-9.443 5.987,-3.595 8.994,-9.286 8.994,-17.085 0,-5.878 -1.635,-10.211 -4.835,-13.057 -0.168,-0.166 -0.35,-0.321 -0.528,-0.479 -0.168,-0.169 -0.349,-0.324 -0.527,-0.482 -0.168,-0.166 -0.349,-0.321 -0.527,-0.479 -0.168,-0.169 -0.349,-0.324 -0.526,-0.482 -0.168,-0.166 -0.349,-0.321 -0.527,-0.479 -0.168,-0.169 -0.349,-0.324 -0.527,-0.482 -0.168,-0.166 -0.349,-0.321 -0.527,-0.479 -0.168,-0.166 -0.349,-0.321 -0.526,-0.479 -0.168,-0.169 -0.35,-0.324 -0.528,-0.482 -0.168,-0.169 -0.348,-0.321 -0.525,-0.479 -0.168,-0.169 -0.35,-0.324 -0.528,-0.482 -0.168,-0.166 -0.349,-0.321 -0.527,-0.479 -0.168,-0.169 -0.349,-0.324 -0.527,-0.482 -0.168,-0.166 -0.349,-0.321 -0.526,-0.479 -0.168,-0.169 -0.35,-0.324 -0.528,-0.482 -0.168,-0.166 -0.348,-0.321 -0.525,-0.479 -0.168,-0.166 -0.35,-0.324 -0.528,-0.482 -0.168,-0.166 -0.349,-0.321 -0.526,-0.479 -0.168,-0.169 -0.35,-0.324 -0.528,-0.482 -0.168,-0.166 -0.349,-0.321 -0.526,-0.479 -0.168,-0.169 -0.349,-0.321 -0.526,-0.479 -0.168,-0.169 -0.35,-0.324 -0.528,-0.482 -0.168,-0.169 -0.348,-0.321 -0.525,-0.479 -0.168,-0.169 -0.35,-0.324 -0.528,-0.482 -0.168,-0.166 -0.349,-0.321 -0.527,-0.479 -0.168,-0.169 -0.349,-0.324 -0.527,-0.482 -0.168,-0.166 -0.349,-0.321 -0.526,-0.479 -0.168,-0.169 -0.35,-0.324 -0.528,-0.482 -0.168,-0.166 -0.348,-0.321 -0.525,-0.479 -0.168,-0.166 -0.35,-0.324 -0.528,-0.482 -0.168,-0.166 -0.349,-0.321 -0.526,-0.479 -0.168,-0.169 -0.35,-0.324 -0.528,-0.482 -0.168,-0.166 -0.348,-0.321 -0.526,-0.479 -0.168,-0.166 -0.349,-0.321 -0.527,-0.482 -0.168,-0.166 -0.349,-0.321 -0.527,-0.479 -0.168,-0.169 -0.349,-0.321 -0.527,-0.479 -0.167,-0.169 -0.349,-0.324 -0.526,-0.482 -0.168,-0.166 -0.35,-0.324 -0.528,-0.482 -0.168,-0.166 -0.348,-0.321 -0.525,-0.479 -0.168,-0.166 -0.35,-0.321 -0.528,-0.479 -0.168,-0.169 -0.349,-0.324 -0.527,-0.482 -0.168,-0.166 -0.349,-0.321 -0.527,-0.479 -0.168,-0.169 -0.349,-0.324 -0.526,-0.482 -0.168,-0.166 -0.35,-0.321 -0.528,-0.479 -0.168,-0.169 -0.349,-0.324 -0.526,-0.482 -0.168,-0.166 -0.349,-0.321 -0.526,-0.479 -0.168,-0.166 -0.349,-0.321 -0.527,-0.482 -0.168,-0.166 -0.349,-0.321 -0.527,-0.479 -0.168,-0.169 -0.349,-0.321 -0.527,-0.479 -0.168,-0.169 -0.349,-0.324 -0.526,-0.482 -0.168,-0.166 -0.35,-0.324 -0.528,-0.482 -0.167,-0.166 -0.348,-0.321 -0.525,-0.479 -0.168,-0.166 -0.35,-0.321 -0.528,-0.479 -0.168,-0.169 -0.349,-0.324 -0.527,-0.482 -0.168,-0.166 -0.349,-0.321 -0.527,-0.479 -0.168,-0.169 -0.349,-0.324 -0.526,-0.482 -0.168,-0.166 -0.35,-0.321 -0.528,-0.479 -0.168,-0.169 -0.348,-0.321 -0.525,-0.479 -0.168,-0.169 -0.35,-0.324 -0.528,-0.482 -0.168,-0.169 -0.349,-0.321 -0.526,-0.479 -0.168,-0.169 -0.35,-0.324 -0.528,-0.482 -0.168,-0.169 -0.348,-0.321 -0.526,-0.479 -0.168,-0.169 -0.349,-0.324 -0.527,-0.482 -0.168,-0.166 -0.349,-0.321 -0.527,-0.479 -0.168,-0.169 -0.349,-0.324 -0.527,-0.482 -0.168,-0.166 -0.349,-0.321 -0.526,-0.479 -0.168,-0.169 -0.35,-0.324 -0.528,-0.482 -0.168,-0.166 -0.349,-0.321 -0.526,-0.479 -0.168,-0.169 -0.349,-0.324 -0.526,-0.482 -0.168,-0.166 -0.35,-0.321 -0.528,-0.479 -0.168,-0.169 -0.348,-0.321 -0.525,-0.479 -0.168,-0.169 -0.35,-0.324 -0.528,-0.482 -0.168,-0.169 -0.349,-0.321 -0.526,-0.479 -0.168,-0.169 -0.35,-0.324 -0.528,-0.482 -0.168,-0.169 -0.348,-0.321 -0.526,-0.479 -2.996,-2.988 -7.539,-4.507 -13.674,-4.507 l -47.658,2.879 c -22.79,2.879 -62.944,4.311 -120.489,4.311 -7.8,0 -17.396,0 -28.772,0 -11.395,0 -18.293,0 -20.685,0 h -41.361 c -8.402,0 -14.99,2.011 -19.779,6.028 -4.807,4.022 -7.194,9.457 -7.194,16.342 0,4.477 1.509,8.05 4.433,10.78 0.163,0.166 0.353,0.318 0.527,0.479 0.163,0.169 0.353,0.318 0.526,0.479 0.163,0.169 0.354,0.321 0.528,0.482 0.163,0.169 0.354,0.318 0.527,0.479 0.163,0.169 0.354,0.321 0.527,0.482 0.163,0.166 0.354,0.318 0.526,0.479 0.163,0.169 0.354,0.318 0.528,0.482 0.162,0.169 0.353,0.318 0.526,0.479 0.163,0.169 0.354,0.321 0.527,0.482 0.163,0.166 0.354,0.318 0.527,0.479 0.163,0.169 0.354,0.318 0.527,0.482 0.163,0.166 0.354,0.318 0.526,0.479 0.163,0.169 0.354,0.318 0.528,0.482 0.162,0.166 0.353,0.318 0.526,0.479 0.163,0.169 0.354,0.318 0.527,0.482 0.163,0.166 0.354,0.318 0.527,0.479 0.163,0.169 0.354,0.318 0.527,0.479 0.163,0.169 0.354,0.321 0.527,0.482 0.163,0.166 0.354,0.318 0.526,0.479 0.163,0.169 0.354,0.321 0.528,0.482 0.162,0.169 0.353,0.318 0.526,0.479 0.163,0.169 0.354,0.321 0.527,0.482 0.163,0.166 0.354,0.318 0.527,0.479 0.163,0.169 0.354,0.318 0.527,0.482 0.163,0.166 0.354,0.318 0.526,0.479 0.163,0.169 0.354,0.318 0.528,0.482 0.162,0.166 0.353,0.318 0.526,0.479 0.163,0.169 0.354,0.318 0.527,0.482 0.163,0.166 0.354,0.316 0.526,0.479 0.163,0.169 0.354,0.318 0.528,0.482 0.162,0.166 0.353,0.318 0.526,0.479 0.163,0.166 0.354,0.318 0.528,0.482 0.163,0.166 0.354,0.316 0.527,0.479 0.163,0.169 0.354,0.318 0.527,0.479 0.163,0.169 0.354,0.318 0.526,0.482 0.163,0.166 0.354,0.318 0.528,0.482 0.162,0.166 0.353,0.316 0.526,0.479 0.163,0.166 0.354,0.318 0.527,0.479 0.163,0.169 0.354,0.318 0.528,0.482 0.162,0.166 0.353,0.318 0.526,0.479 0.163,0.169 0.354,0.318 0.527,0.482 0.163,0.166 0.354,0.318 0.527,0.479 0.163,0.169 0.353,0.318 0.527,0.479 0.163,0.169 0.353,0.321 0.526,0.482 0.163,0.166 0.354,0.318 0.528,0.482 0.163,0.166 0.354,0.316 0.527,0.479 0.163,0.169 0.354,0.318 0.527,0.479 0.163,0.169 0.354,0.318 0.526,0.482 0.163,0.166 0.354,0.318 0.528,0.482 0.162,0.166 0.353,0.316 0.526,0.479 0.163,0.166 0.354,0.318 0.527,0.479 0.163,0.169 0.354,0.318 0.527,0.482 0.163,0.166 0.354,0.318 0.527,0.479 0.163,0.169 0.354,0.318 0.526,0.479 0.163,0.169 0.354,0.321 0.528,0.482 0.162,0.169 0.353,0.318 0.526,0.479 0.163,0.169 0.354,0.321 0.527,0.482 0.163,0.166 0.353,0.318 0.526,0.479 0.163,0.169 0.354,0.321 0.528,0.482 0.162,0.169 0.353,0.318 0.525,0.479 0.163,0.169 0.354,0.321 0.527,0.482 0.163,0.166 0.354,0.318 0.527,0.479 0.163,0.169 0.354,0.318 0.527,0.482 0.163,0.166 0.354,0.318 0.527,0.479 0.163,0.169 0.354,0.318 0.527,0.482 0.163,0.166 0.354,0.318 0.527,0.479 0.163,0.169 0.354,0.318 0.526,0.479 0.163,0.169 0.354,0.321 0.528,0.482 0.162,0.169 0.353,0.318 0.526,0.479 0.163,0.169 0.354,0.321 0.527,0.482 0.163,0.166 0.353,0.318 0.526,0.479 0.163,0.169 0.354,0.321 0.528,0.482 0.162,0.169 0.353,0.318 0.525,0.479 0.163,0.169 0.354,0.321 0.528,0.482 0.163,0.166 0.354,0.318 0.527,0.479 3.273,3.372 8.693,5.459 16.111,6.354 -1.035,4.482 -2.454,9.843 -4.302,16.198 l -112.397,392.939 c -9.6,34.167 -16.498,54.399 -20.681,60.696 -4.205,6.292 -15.892,11.395 -35.069,15.286 -19.19,3.905 -31.474,7.195 -36.869,9.892 -5.394,2.697 -8.092,7.642 -8.092,14.832 0,3.018 0.498,5.652 1.484,7.911 -0.084,-0.076 -0.193,-0.136 -0.278,-0.21 -0.174,-0.161 -0.343,-0.324 -0.525,-0.479 -0.175,-0.161 -0.345,-0.324 -0.528,-0.479 -0.174,-0.163 -0.345,-0.327 -0.527,-0.482 -0.174,-0.161 -0.344,-0.324 -0.526,-0.479 -0.174,-0.161 -0.344,-0.324 -0.526,-0.482 -0.175,-0.161 -0.345,-0.324 -0.529,-0.482 -0.174,-0.161 -0.343,-0.321 -0.525,-0.476 -0.175,-0.163 -0.344,-0.327 -0.528,-0.482 -0.174,-0.161 -0.345,-0.324 -0.527,-0.482 -0.174,-0.161 -0.344,-0.324 -0.527,-0.479 -0.174,-0.161 -0.344,-0.324 -0.526,-0.479 -0.175,-0.163 -0.345,-0.327 -0.528,-0.482 -0.174,-0.161 -0.344,-0.324 -0.527,-0.482 -0.174,-0.161 -0.344,-0.324 -0.527,-0.479 -0.174,-0.161 -0.344,-0.324 -0.526,-0.479 -0.175,-0.163 -0.346,-0.327 -0.529,-0.482 -0.174,-0.161 -0.343,-0.324 -0.525,-0.479 -0.175,-0.161 -0.345,-0.324 -0.528,-0.482 -0.174,-0.161 -0.345,-0.324 -0.527,-0.479 -0.174,-0.163 -0.344,-0.324 -0.527,-0.482 -0.174,-0.161 -0.344,-0.324 -0.527,-0.479 -0.174,-0.161 -0.344,-0.324 -0.527,-0.482 -0.174,-0.161 -0.344,-0.324 -0.527,-0.479 -0.174,-0.161 -0.344,-0.324 -0.526,-0.479 -0.175,-0.163 -0.345,-0.327 -0.528,-0.482 -0.174,-0.161 -0.344,-0.324 -0.527,-0.482 -0.174,-0.161 -0.344,-0.324 -0.527,-0.479 -0.174,-0.161 -0.344,-0.324 -0.526,-0.479 -0.175,-0.163 -0.346,-0.327 -0.529,-0.482 -0.174,-0.161 -0.343,-0.324 -0.525,-0.479 -0.175,-0.161 -0.345,-0.324 -0.528,-0.482 -0.174,-0.161 -0.345,-0.324 -0.527,-0.479 -0.174,-0.163 -0.344,-0.324 -0.527,-0.482 -0.174,-0.161 -0.344,-0.324 -0.526,-0.479 -0.175,-0.161 -0.345,-0.324 -0.528,-0.482 -0.174,-0.161 -0.343,-0.324 -0.525,-0.479 -0.175,-0.161 -0.345,-0.324 -0.528,-0.482 -0.174,-0.161 -0.344,-0.324 -0.526,-0.479 -0.175,-0.161 -0.346,-0.324 -0.529,-0.482 -0.174,-0.161 -0.343,-0.324 -0.525,-0.479 -0.174,-0.161 -0.344,-0.324 -0.528,-0.479 -0.174,-0.163 -0.344,-0.327 -0.527,-0.482 -0.174,-0.161 -0.344,-0.324 -0.527,-0.479 -0.174,-0.161 -0.344,-0.324 -0.526,-0.482 -0.175,-0.161 -0.346,-0.324 -0.529,-0.482 -0.174,-0.161 -0.344,-0.324 -0.526,-0.479 -0.174,-0.161 -0.344,-0.324 -0.526,-0.479 -0.175,-0.161 -0.345,-0.324 -0.529,-0.482 -0.174,-0.161 -0.343,-0.324 -0.525,-0.479 -0.175,-0.161 -0.344,-0.324 -0.528,-0.482 -0.174,-0.161 -0.345,-0.324 -0.527,-0.479 -0.174,-0.161 -0.344,-0.324 -0.527,-0.482 -0.174,-0.158 -0.344,-0.321 -0.526,-0.479 -0.174,-0.161 -0.344,-0.324 -0.528,-0.479 -0.174,-0.163 -0.344,-0.327 -0.527,-0.482 -0.174,-0.161 -0.344,-0.324 -0.527,-0.479 -0.174,-0.161 -0.344,-0.324 -0.526,-0.482 -3.895,-3.592 -9.808,-6.023 -17.807,-7.247 -0.097,-0.016 -0.183,-0.033 -0.28,-0.049 0.369,-5.348 1.508,-13.784 3.45,-25.415 2.388,-14.358 4.789,-26.637 7.194,-36.81 l 88.117,-367.216 c 5.395,-22.139 10.636,-36.356 15.735,-42.653 5.089,-6.278 17.983,-10.467 38.668,-12.557 20.681,-2.098 31.021,-10.624 31.021,-25.6 0,-5.467 -1.722,-9.533 -5.125,-12.225 -0.179,-0.161 -0.339,-0.332 -0.528,-0.482 -0.178,-0.158 -0.337,-0.329 -0.526,-0.479 -0.178,-0.158 -0.338,-0.332 -0.527,-0.482 -0.178,-0.158 -0.338,-0.329 -0.527,-0.479 -0.178,-0.158 -0.338,-0.332 -0.527,-0.482 -0.178,-0.158 -0.337,-0.329 -0.526,-0.479 -0.179,-0.158 -0.339,-0.332 -0.528,-0.482 -0.178,-0.158 -0.337,-0.329 -0.525,-0.479 -0.179,-0.158 -0.338,-0.332 -0.527,-0.482 -0.178,-0.158 -0.337,-0.329 -0.526,-0.479 -0.178,-0.158 -0.338,-0.332 -0.528,-0.482 -0.178,-0.158 -0.337,-0.329 -0.526,-0.479 -0.179,-0.158 -0.338,-0.329 -0.527,-0.482 -0.178,-0.158 -0.338,-0.329 -0.527,-0.479 -0.178,-0.158 -0.338,-0.332 -0.527,-0.479 -0.178,-0.158 -0.337,-0.332 -0.526,-0.482 -0.178,-0.158 -0.338,-0.329 -0.528,-0.482 -0.178,-0.155 -0.337,-0.329 -0.526,-0.479 -0.178,-0.158 -0.338,-0.329 -0.527,-0.479 -0.178,-0.158 -0.338,-0.332 -0.528,-0.482 -0.178,-0.158 -0.337,-0.329 -0.525,-0.479 -0.179,-0.158 -0.338,-0.332 -0.527,-0.482 -0.178,-0.158 -0.337,-0.329 -0.526,-0.479 -0.178,-0.158 -0.338,-0.332 -0.528,-0.482 -0.178,-0.158 -0.337,-0.329 -0.526,-0.479 -0.179,-0.158 -0.338,-0.329 -0.527,-0.482 -0.178,-0.158 -0.338,-0.329 -0.527,-0.479 -0.178,-0.158 -0.338,-0.332 -0.527,-0.479 -0.178,-0.158 -0.337,-0.332 -0.526,-0.482 -0.178,-0.158 -0.338,-0.329 -0.528,-0.482 -0.178,-0.155 -0.337,-0.329 -0.526,-0.479 -0.178,-0.158 -0.338,-0.329 -0.527,-0.479 -0.178,-0.158 -0.338,-0.332 -0.527,-0.482 -0.178,-0.158 -0.338,-0.329 -0.527,-0.479 -0.178,-0.158 -0.337,-0.332 -0.526,-0.479 -0.179,-0.161 -0.339,-0.332 -0.528,-0.482 -0.178,-0.158 -0.337,-0.332 -0.526,-0.479 -0.178,-0.158 -0.338,-0.332 -0.527,-0.482 -0.178,-0.158 -0.338,-0.329 -0.526,-0.479 -0.178,-0.161 -0.339,-0.332 -0.528,-0.482 -0.178,-0.158 -0.337,-0.332 -0.526,-0.479 -0.178,-0.158 -0.339,-0.332 -0.527,-0.482 -0.178,-0.158 -0.338,-0.329 -0.528,-0.482 -0.178,-0.155 -0.337,-0.329 -0.526,-0.479 -0.178,-0.158 -0.338,-0.329 -0.527,-0.479 -0.178,-0.158 -0.338,-0.332 -0.527,-0.482 -0.178,-0.158 -0.338,-0.329 -0.527,-0.479 -0.178,-0.158 -0.337,-0.332 -0.526,-0.479 -0.179,-0.161 -0.339,-0.332 -0.528,-0.482 -0.178,-0.158 -0.337,-0.332 -0.526,-0.479 -0.178,-0.158 -0.338,-0.332 -0.527,-0.482 -0.178,-0.158 -0.338,-0.329 -0.526,-0.479 -0.178,-0.161 -0.338,-0.332 -0.528,-0.482 -0.178,-0.158 -0.337,-0.329 -0.526,-0.479 -0.179,-0.158 -0.339,-0.332 -0.527,-0.482 -0.178,-0.158 -0.338,-0.329 -0.527,-0.479 -0.178,-0.158 -0.338,-0.332 -0.527,-0.482 -0.178,-0.158 -0.337,-0.329 -0.526,-0.479 -0.179,-0.158 -0.338,-0.332 -0.528,-0.482 -0.178,-0.158 -0.337,-0.329 -0.526,-0.479 -0.178,-0.158 -0.338,-0.332 -0.527,-0.482 -0.178,-0.158 -0.338,-0.329 -0.527,-0.479 -0.178,-0.158 -0.338,-0.332 -0.527,-0.479 -0.178,-0.158 -0.337,-0.332 -0.526,-0.482 -0.178,-0.158 -0.338,-0.332 -0.527,-0.482 -0.178,-0.158 -0.339,-0.329 -0.528,-0.479 -0.178,-0.158 -0.337,-0.329 -0.526,-0.479 -0.179,-0.158 -0.339,-0.332 -0.527,-0.482 -0.178,-0.158 -0.338,-0.329 -0.527,-0.479 -0.178,-0.158 -0.338,-0.332 -0.527,-0.482 -0.178,-0.158 -0.337,-0.329 -0.526,-0.479 -0.178,-0.158 -0.338,-0.332 -0.528,-0.482 -0.178,-0.158 -0.337,-0.329 -0.526,-0.479 -0.178,-0.158 -0.338,-0.332 -0.527,-0.482 -0.178,-0.158 -0.338,-0.329 -0.527,-0.479 -3.294,-2.917 -8.328,-4.411 -15.184,-4.411 h -28.772 -67.427 c -14.384,0 -27.579,0 -39.561,0 -12.001,0 -23.378,0 -34.167,0 h -8.994 c -7.194,0 -11.996,0.857 -14.388,2.572 -2.401,1.728 -6.602,7.163 -12.589,16.323 L 1949.036,939.26 1938.279,664.317 c 0,-11.985 -0.902,-19.475 -2.697,-22.482 -0.326,-0.642 -0.906,-1.184 -1.662,-1.655 -0.168,-0.136 -0.275,-0.297 -0.473,-0.425 -0.186,-0.155 -0.304,-0.337 -0.527,-0.479 -0.186,-0.155 -0.304,-0.34 -0.527,-0.482 -0.186,-0.155 -0.304,-0.337 -0.526,-0.479 -0.186,-0.155 -0.305,-0.337 -0.528,-0.482 -0.186,-0.155 -0.303,-0.337 -0.526,-0.479 -0.186,-0.155 -0.304,-0.337 -0.527,-0.479 -0.186,-0.158 -0.304,-0.34 -0.527,-0.482 -0.186,-0.155 -0.304,-0.337 -0.527,-0.479 -0.186,-0.158 -0.304,-0.34 -0.527,-0.482 -0.186,-0.155 -0.304,-0.337 -0.528,-0.479 -0.186,-0.158 -0.303,-0.34 -0.526,-0.482 -0.186,-0.155 -0.304,-0.337 -0.527,-0.479 -0.186,-0.158 -0.304,-0.337 -0.527,-0.479 -0.186,-0.158 -0.304,-0.34 -0.528,-0.482 -0.186,-0.155 -0.303,-0.34 -0.526,-0.479 -0.186,-0.158 -0.304,-0.34 -0.527,-0.482 -0.186,-0.155 -0.304,-0.337 -0.527,-0.479 -0.186,-0.158 -0.304,-0.34 -0.526,-0.482 -0.186,-0.155 -0.304,-0.337 -0.527,-0.479 -0.186,-0.158 -0.304,-0.34 -0.528,-0.482 -0.186,-0.155 -0.303,-0.337 -0.526,-0.479 -0.186,-0.158 -0.304,-0.34 -0.527,-0.482 -0.186,-0.155 -0.305,-0.337 -0.528,-0.479 -0.185,-0.158 -0.303,-0.34 -0.526,-0.482 -0.186,-0.155 -0.304,-0.337 -0.527,-0.479 -0.186,-0.158 -0.304,-0.34 -0.527,-0.482 -0.186,-0.155 -0.304,-0.337 -0.527,-0.479 -0.186,-0.155 -0.304,-0.337 -0.527,-0.479 -0.186,-0.158 -0.304,-0.34 -0.527,-0.482 -0.186,-0.155 -0.304,-0.337 -0.527,-0.479 -0.186,-0.158 -0.304,-0.34 -0.527,-0.482 -0.186,-0.155 -0.304,-0.337 -0.527,-0.479 -0.186,-0.158 -0.304,-0.34 -0.528,-0.482 -0.186,-0.155 -0.303,-0.337 -0.526,-0.479 -0.186,-0.158 -0.304,-0.34 -0.527,-0.482 -0.186,-0.155 -0.304,-0.337 -0.527,-0.479 -0.186,-0.158 -0.304,-0.34 -0.527,-0.482 -0.186,-0.155 -0.304,-0.337 -0.527,-0.479 -0.186,-0.158 -0.304,-0.34 -0.528,-0.482 -0.186,-0.155 -0.303,-0.337 -0.526,-0.479 -0.186,-0.155 -0.304,-0.34 -0.527,-0.482 -0.186,-0.155 -0.304,-0.337 -0.527,-0.479 -0.186,-0.155 -0.304,-0.337 -0.528,-0.482 -0.186,-0.155 -0.303,-0.337 -0.526,-0.479 -0.186,-0.155 -0.304,-0.337 -0.527,-0.479 -0.186,-0.158 -0.305,-0.34 -0.528,-0.482 -0.185,-0.155 -0.303,-0.337 -0.526,-0.479 -0.186,-0.158 -0.304,-0.34 -0.527,-0.482 -0.186,-0.155 -0.304,-0.337 -0.527,-0.479 -0.186,-0.158 -0.304,-0.34 -0.527,-0.482 -0.186,-0.155 -0.304,-0.337 -0.526,-0.479 -0.186,-0.158 -0.305,-0.34 -0.528,-0.482 -0.186,-0.155 -0.303,-0.337 -0.526,-0.479 -0.186,-0.155 -0.304,-0.34 -0.527,-0.482 -0.186,-0.155 -0.304,-0.337 -0.527,-0.479 -0.186,-0.155 -0.304,-0.337 -0.528,-0.482 -0.186,-0.155 -0.303,-0.337 -0.526,-0.479 -0.186,-0.155 -0.304,-0.337 -0.527,-0.479 -0.186,-0.158 -0.304,-0.34 -0.527,-0.482 -0.186,-0.155 -0.304,-0.337 -0.527,-0.479 -0.186,-0.158 -0.304,-0.34 -0.527,-0.482 -0.186,-0.155 -0.304,-0.337 -0.528,-0.479 -0.186,-0.158 -0.303,-0.34 -0.526,-0.482 -0.186,-0.155 -0.304,-0.337 -0.527,-0.479 -0.186,-0.158 -0.304,-0.34 -0.527,-0.482 -0.186,-0.155 -0.304,-0.337 -0.527,-0.479 -0.186,-0.155 -0.304,-0.337 -0.527,-0.479 -0.186,-0.158 -0.304,-0.34 -0.528,-0.482 -0.186,-0.155 -0.304,-0.337 -0.526,-0.479 -0.186,-0.158 -0.304,-0.34 -0.526,-0.482 -0.186,-0.155 -0.304,-0.337 -0.527,-0.479 -0.186,-0.158 -0.304,-0.34 -0.527,-0.482 -0.186,-0.155 -0.304,-0.337 -0.527,-0.479 -0.172,-0.144 -0.261,-0.321 -0.464,-0.454 -1.855,-1.633 -5.625,-2.504 -11.57,-2.504 h -16.188 -62.94 -44.96 -44.956 l -33.269,-3.6 c -6.606,0 -12.297,2.112 -17.086,6.297 -4.807,4.202 -7.194,8.989 -7.194,14.385 0,4.058 1.437,7.495 4.189,10.363 0.151,0.171 0.367,0.316 0.528,0.482 0.15,0.171 0.366,0.313 0.525,0.479 0.151,0.171 0.367,0.313 0.528,0.482 0.151,0.171 0.367,0.313 0.527,0.479 0.151,0.171 0.367,0.316 0.527,0.482 0.151,0.171 0.366,0.313 0.526,0.479 0.151,0.171 0.367,0.313 0.528,0.482 0.151,0.169 0.367,0.313 0.527,0.479 0.151,0.171 0.367,0.313 0.527,0.482 0.151,0.169 0.366,0.313 0.526,0.479 0.151,0.171 0.367,0.313 0.528,0.482 0.15,0.169 0.366,0.313 0.526,0.479 0.151,0.171 0.367,0.313 0.528,0.479 0.151,0.171 0.367,0.316 0.527,0.482 0.151,0.171 0.367,0.313 0.527,0.479 0.151,0.171 0.366,0.313 0.526,0.482 0.151,0.169 0.367,0.313 0.528,0.482 0.15,0.169 0.366,0.31 0.526,0.476 0.151,0.171 0.367,0.316 0.528,0.482 0.151,0.171 0.366,0.313 0.526,0.482 0.151,0.169 0.367,0.313 0.528,0.479 0.15,0.171 0.366,0.313 0.526,0.479 0.151,0.171 0.367,0.316 0.528,0.482 0.151,0.171 0.367,0.313 0.526,0.482 0.151,0.169 0.367,0.313 0.527,0.479 0.151,0.171 0.367,0.313 0.527,0.482 0.151,0.169 0.367,0.313 0.527,0.479 0.151,0.171 0.367,0.313 0.527,0.479 0.151,0.171 0.366,0.313 0.526,0.482 0.151,0.169 0.368,0.313 0.528,0.482 0.15,0.169 0.366,0.31 0.526,0.476 0.151,0.171 0.367,0.316 0.528,0.482 0.151,0.171 0.366,0.313 0.526,0.482 0.151,0.169 0.367,0.313 0.528,0.479 0.15,0.171 0.366,0.313 0.526,0.479 0.151,0.171 0.367,0.316 0.528,0.482 0.151,0.171 0.367,0.313 0.527,0.482 0.151,0.169 0.367,0.313 0.527,0.479 0.151,0.172 0.366,0.313 0.526,0.479 0.151,0.171 0.367,0.316 0.528,0.482 0.15,0.171 0.366,0.313 0.526,0.479 0.151,0.172 0.367,0.313 0.528,0.482 0.151,0.171 0.367,0.313 0.527,0.479 0.151,0.171 0.367,0.316 0.527,0.482 0.151,0.171 0.366,0.313 0.526,0.479 0.151,0.171 0.367,0.313 0.528,0.482 0.15,0.169 0.366,0.313 0.526,0.479 0.151,0.171 0.367,0.313 0.528,0.482 0.151,0.171 0.367,0.313 0.527,0.479 0.151,0.171 0.367,0.313 0.527,0.482 0.151,0.169 0.367,0.313 0.527,0.479 0.151,0.171 0.366,0.313 0.526,0.479 0.151,0.171 0.368,0.316 0.528,0.482 0.15,0.171 0.366,0.313 0.526,0.479 0.151,0.171 0.367,0.313 0.528,0.482 0.151,0.171 0.367,0.313 0.527,0.479 0.151,0.171 0.367,0.316 0.527,0.482 0.151,0.171 0.366,0.313 0.526,0.479 0.151,0.171 0.367,0.313 0.528,0.482 0.15,0.169 0.366,0.313 0.526,0.479 0.151,0.171 0.367,0.313 0.528,0.482 0.151,0.169 0.366,0.313 0.526,0.479 0.151,0.171 0.367,0.313 0.528,0.482 0.15,0.169 0.366,0.313 0.526,0.479 0.151,0.171 0.367,0.313 0.528,0.479 0.151,0.171 0.367,0.316 0.527,0.482 0.151,0.171 0.367,0.313 0.527,0.479 0.151,0.171 0.366,0.313 0.526,0.482 0.151,0.169 0.367,0.313 0.528,0.482 0.15,0.169 0.366,0.31 0.526,0.476 0.151,0.171 0.367,0.316 0.528,0.482 0.151,0.171 0.367,0.316 0.528,0.482 0.15,0.171 0.366,0.313 0.525,0.479 0.151,0.171 0.367,0.313 0.528,0.482 0.15,0.171 0.366,0.313 0.526,0.479 4.072,4.616 11.541,7.762 22.413,9.449 0.314,0.049 0.592,0.098 0.902,0.147 -2.515,10.638 -7.161,26.131 -13.96,46.528 l -116.894,329.097 c -19.191,53.362 -32.075,84.073 -38.664,92.167 0,0 -2.579,2.839 -5.715,6.289 -6.313,6.94 -14.302,12.295 -23.313,14.913 -15.828,4.597 -23.746,11.773 -23.746,21.51 0,6.044 1.99,10.554 5.949,13.55 0.184,0.155 0.334,0.335 0.528,0.482 0.184,0.152 0.333,0.332 0.527,0.479 0.184,0.155 0.333,0.335 0.526,0.482 0.184,0.152 0.333,0.332 0.526,0.479 0.184,0.155 0.334,0.335 0.528,0.482 0.183,0.152 0.332,0.332 0.525,0.479 0.184,0.152 0.334,0.335 0.528,0.482 0.184,0.152 0.334,0.332 0.528,0.479 0.183,0.155 0.332,0.335 0.525,0.479 0.184,0.155 0.334,0.335 0.528,0.482 0.184,0.152 0.333,0.332 0.526,0.479 0.184,0.155 0.334,0.335 0.528,0.482 0.183,0.152 0.332,0.335 0.525,0.479 0.184,0.155 0.334,0.335 0.528,0.482 0.184,0.152 0.333,0.335 0.527,0.479 0.184,0.155 0.333,0.335 0.526,0.482 0.184,0.152 0.333,0.332 0.526,0.479 0.184,0.155 0.334,0.335 0.528,0.482 0.183,0.152 0.332,0.332 0.525,0.479 0.184,0.152 0.334,0.335 0.528,0.482 0.184,0.152 0.333,0.332 0.527,0.479 0.184,0.155 0.333,0.335 0.526,0.482 0.184,0.152 0.333,0.332 0.527,0.479 0.184,0.152 0.334,0.335 0.527,0.479 0.184,0.155 0.333,0.335 0.527,0.482 0.184,0.155 0.333,0.335 0.527,0.479 0.184,0.155 0.333,0.335 0.526,0.482 0.184,0.152 0.334,0.332 0.528,0.479 0.183,0.155 0.332,0.335 0.525,0.479 0.184,0.155 0.334,0.335 0.528,0.482 0.184,0.155 0.333,0.335 0.527,0.482 0.184,0.152 0.333,0.332 0.526,0.479 0.184,0.155 0.334,0.335 0.527,0.482 0.184,0.152 0.333,0.332 0.527,0.479 0.184,0.155 0.333,0.335 0.526,0.482 0.184,0.152 0.333,0.332 0.526,0.479 0.184,0.152 0.334,0.335 0.528,0.479 0.184,0.155 0.333,0.335 0.527,0.482 0.184,0.155 0.333,0.335 0.527,0.479 0.184,0.155 0.333,0.335 0.526,0.482 0.184,0.152 0.334,0.332 0.528,0.479 0.183,0.155 0.332,0.335 0.525,0.479 0.184,0.155 0.334,0.335 0.528,0.482 0.184,0.155 0.333,0.335 0.527,0.482 0.184,0.152 0.333,0.332 0.526,0.479 0.184,0.155 0.333,0.335 0.527,0.479 0.184,0.155 0.334,0.335 0.528,0.482 0.183,0.155 0.332,0.335 0.525,0.479 0.184,0.155 0.334,0.335 0.528,0.482 0.184,0.152 0.333,0.335 0.527,0.479 0.184,0.155 0.333,0.335 0.526,0.482 0.184,0.152 0.333,0.335 0.527,0.479 0.184,0.155 0.334,0.335 0.527,0.482 0.184,0.152 0.333,0.332 0.527,0.479 0.184,0.155 0.333,0.335 0.527,0.482 0.184,0.152 0.333,0.332 0.527,0.479 0.184,0.155 0.333,0.335 0.527,0.482 0.184,0.152 0.333,0.332 0.526,0.479 0.184,0.152 0.333,0.335 0.526,0.479 0.184,0.155 0.334,0.335 0.528,0.482 0.183,0.155 0.332,0.335 0.525,0.479 0.184,0.155 0.334,0.335 0.528,0.482 0.184,0.152 0.333,0.335 0.527,0.479 0.184,0.155 0.333,0.335 0.526,0.482 0.184,0.152 0.333,0.332 0.526,0.479 0.184,0.155 0.334,0.335 0.528,0.482 0.184,0.152 0.333,0.335 0.527,0.479 0.184,0.155 0.333,0.335 0.527,0.482 0.184,0.152 0.333,0.332 0.526,0.479 0.184,0.155 0.334,0.335 0.528,0.482 0.183,0.152 0.332,0.332 0.525,0.479 0.184,0.152 0.334,0.335 0.528,0.482 0.184,0.152 0.333,0.332 0.527,0.479 0.184,0.155 0.333,0.335 0.526,0.482 0.184,0.152 0.333,0.332 0.527,0.479 3.89,3.249 9.842,4.912 17.956,4.912 l 69.859,-2.697 53.052,2.161 33.269,3.233 c 19.177,0 28.773,-7.223 28.773,-21.665 0,-6.091 -2.197,-10.771 -6.45,-14.13 -0.16,-0.144 -0.317,-0.291 -0.484,-0.433 -0.175,-0.161 -0.343,-0.327 -0.526,-0.479 -0.176,-0.163 -0.344,-0.327 -0.528,-0.482 -0.175,-0.161 -0.343,-0.327 -0.526,-0.482 -0.175,-0.158 -0.343,-0.324 -0.526,-0.479 -0.175,-0.161 -0.344,-0.327 -0.528,-0.482 -0.175,-0.161 -0.342,-0.324 -0.525,-0.479 -0.175,-0.161 -0.344,-0.324 -0.528,-0.479 -0.175,-0.161 -0.343,-0.327 -0.527,-0.482 -0.175,-0.161 -0.343,-0.324 -0.527,-0.479 -0.175,-0.161 -0.343,-0.327 -0.526,-0.479 -0.175,-0.163 -0.344,-0.327 -0.528,-0.482 -0.175,-0.161 -0.343,-0.327 -0.527,-0.482 -0.175,-0.161 -0.343,-0.324 -0.527,-0.479 -0.175,-0.161 -0.343,-0.327 -0.526,-0.479 -0.175,-0.163 -0.344,-0.327 -0.528,-0.482 -0.175,-0.161 -0.342,-0.324 -0.525,-0.479 -0.175,-0.161 -0.344,-0.327 -0.528,-0.482 -0.175,-0.161 -0.343,-0.327 -0.527,-0.479 -0.175,-0.161 -0.343,-0.327 -0.527,-0.482 -0.174,-0.161 -0.343,-0.324 -0.526,-0.479 -0.175,-0.161 -0.344,-0.327 -0.528,-0.482 -0.174,-0.161 -0.342,-0.324 -0.525,-0.479 -0.175,-0.161 -0.344,-0.327 -0.528,-0.482 -0.174,-0.161 -0.343,-0.324 -0.526,-0.479 -0.176,-0.161 -0.344,-0.327 -0.528,-0.482 -0.174,-0.161 -0.343,-0.324 -0.526,-0.479 -0.175,-0.161 -0.343,-0.327 -0.526,-0.479 -0.175,-0.163 -0.344,-0.327 -0.528,-0.482 -0.175,-0.161 -0.342,-0.324 -0.525,-0.479 -0.175,-0.161 -0.344,-0.327 -0.528,-0.482 -0.175,-0.161 -0.343,-0.327 -0.527,-0.479 -0.175,-0.161 -0.343,-0.327 -0.527,-0.482 -0.175,-0.161 -0.343,-0.324 -0.526,-0.479 -0.175,-0.161 -0.344,-0.327 -0.528,-0.482 -0.174,-0.161 -0.342,-0.324 -0.525,-0.479 -0.175,-0.161 -0.344,-0.327 -0.528,-0.482 -0.175,-0.161 -0.343,-0.324 -0.527,-0.479 -0.175,-0.161 -0.343,-0.327 -0.527,-0.482 -0.175,-0.158 -0.343,-0.324 -0.526,-0.479 -0.175,-0.161 -0.344,-0.327 -0.528,-0.482 -0.175,-0.161 -0.343,-0.324 -0.527,-0.479 -0.175,-0.161 -0.343,-0.324 -0.527,-0.482 -0.175,-0.158 -0.343,-0.324 -0.526,-0.479 -0.175,-0.161 -0.344,-0.327 -0.528,-0.482 -0.175,-0.161 -0.342,-0.324 -0.525,-0.479 -0.175,-0.161 -0.344,-0.324 -0.528,-0.479 -0.175,-0.161 -0.343,-0.327 -0.527,-0.482 -0.175,-0.161 -0.343,-0.324 -0.527,-0.479 -0.175,-0.161 -0.344,-0.327 -0.527,-0.482 -0.175,-0.161 -0.343,-0.324 -0.527,-0.479 -0.175,-0.161 -0.343,-0.327 -0.527,-0.482 -0.175,-0.158 -0.343,-0.324 -0.526,-0.479 -0.175,-0.161 -0.344,-0.327 -0.528,-0.482 -0.175,-0.161 -0.343,-0.324 -0.527,-0.479 -0.175,-0.161 -0.343,-0.324 -0.527,-0.482 -0.175,-0.158 -0.343,-0.324 -0.526,-0.479 -0.175,-0.161 -0.344,-0.327 -0.528,-0.482 -0.175,-0.161 -0.342,-0.324 -0.525,-0.479 -0.175,-0.161 -0.344,-0.324 -0.528,-0.479 -0.175,-0.161 -0.343,-0.327 -0.527,-0.482 -0.175,-0.161 -0.343,-0.324 -0.527,-0.479 -0.174,-0.161 -0.343,-0.327 -0.526,-0.479 -0.175,-0.163 -0.344,-0.327 -0.528,-0.484 -0.175,-0.158 -0.342,-0.321 -0.525,-0.476 -0.175,-0.161 -0.344,-0.327 -0.528,-0.482 -0.174,-0.161 -0.343,-0.327 -0.526,-0.479 -0.175,-0.163 -0.344,-0.327 -0.528,-0.482 -0.175,-0.161 -0.342,-0.324 -0.525,-0.479 -0.175,-0.161 -0.344,-0.327 -0.528,-0.482 -0.175,-0.161 -0.343,-0.327 -0.527,-0.479 -0.175,-0.161 -0.343,-0.327 -0.527,-0.482 -0.16,-0.147 -0.308,-0.302 -0.475,-0.444 -3.72,-3.821 -9.571,-6.27 -17.705,-7.247 -7.552,-1.208 -14.21,-2.425 -20.164,-3.655 -0.01,-0.468 -0.043,-0.898 -0.043,-1.377 0,-12.633 0.898,-23.012 2.697,-31.133 1.795,-8.124 8.384,-31.15 19.779,-69.07 l 14.388,-48.738 55.226,-150.566 9.942,295.602 c 0,18.029 2.096,29.748 6.297,35.155 0.596,0.77 1.293,1.47 2.048,2.131 0.171,0.163 0.348,0.324 0.528,0.482 0.171,0.163 0.347,0.321 0.527,0.479 0.171,0.163 0.347,0.324 0.527,0.482 0.17,0.161 0.346,0.321 0.526,0.479 0.171,0.163 0.348,0.324 0.529,0.482 0.171,0.163 0.347,0.321 0.526,0.479 0.171,0.163 0.346,0.321 0.526,0.479 0.171,0.163 0.348,0.324 0.528,0.482 0.17,0.163 0.347,0.324 0.527,0.479 0.171,0.163 0.347,0.324 0.527,0.482 0.17,0.163 0.346,0.321 0.526,0.479 0.172,0.163 0.348,0.324 0.529,0.482 0.17,0.163 0.346,0.321 0.525,0.479 0.171,0.163 0.348,0.324 0.528,0.482 0.171,0.163 0.347,0.321 0.527,0.479 0.171,0.163 0.347,0.324 0.527,0.482 0.17,0.161 0.346,0.321 0.526,0.479 0.171,0.163 0.348,0.324 0.529,0.482 0.17,0.161 0.346,0.321 0.525,0.479 0.171,0.163 0.348,0.324 0.528,0.479 0.17,0.163 0.346,0.324 0.526,0.482 0.171,0.163 0.348,0.324 0.529,0.482 0.17,0.161 0.346,0.321 0.525,0.476 0.171,0.166 0.348,0.324 0.528,0.482 0.171,0.163 0.347,0.324 0.527,0.482 0.171,0.163 0.347,0.321 0.527,0.479 0.17,0.163 0.346,0.324 0.526,0.479 0.171,0.166 0.348,0.324 0.529,0.482 0.17,0.163 0.347,0.324 0.526,0.482 0.17,0.161 0.346,0.321 0.526,0.479 0.171,0.163 0.348,0.324 0.529,0.482 0.17,0.161 0.346,0.321 0.525,0.479 0.171,0.163 0.348,0.324 0.528,0.479 0.17,0.163 0.347,0.324 0.527,0.482 0.171,0.163 0.347,0.321 0.527,0.479 0.17,0.163 0.346,0.324 0.526,0.479 0.171,0.166 0.348,0.324 0.528,0.482 0.171,0.163 0.347,0.324 0.527,0.482 0.171,0.163 0.347,0.321 0.527,0.479 0.17,0.163 0.346,0.324 0.526,0.479 0.171,0.166 0.348,0.324 0.529,0.482 0.17,0.163 0.346,0.324 0.525,0.479 0.171,0.163 0.348,0.324 0.528,0.482 0.171,0.163 0.347,0.324 0.527,0.479 0.171,0.163 0.347,0.324 0.527,0.482 0.17,0.163 0.346,0.321 0.526,0.479 0.171,0.163 0.348,0.324 0.529,0.482 0.17,0.163 0.346,0.321 0.525,0.479 0.171,0.163 0.348,0.324 0.528,0.482 0.17,0.163 0.346,0.321 0.526,0.479 0.172,0.163 0.348,0.324 0.529,0.482 0.17,0.163 0.347,0.321 0.526,0.479 0.17,0.163 0.346,0.324 0.526,0.479 0.172,0.163 0.348,0.324 0.529,0.482 0.17,0.163 0.346,0.324 0.525,0.479 0.171,0.163 0.348,0.324 0.528,0.482 0.17,0.163 0.347,0.324 0.527,0.479 0.171,0.163 0.347,0.324 0.527,0.482 0.171,0.163 0.346,0.321 0.526,0.479 0.171,0.163 0.348,0.324 0.529,0.482 0.17,0.163 0.346,0.321 0.525,0.479 0.171,0.163 0.348,0.324 0.528,0.482 0.17,0.163 0.346,0.321 0.526,0.479 0.172,0.163 0.348,0.324 0.529,0.482 0.17,0.163 0.346,0.321 0.525,0.479 0.171,0.163 0.348,0.324 0.528,0.482 0.171,0.163 0.347,0.321 0.527,0.479 0.171,0.163 0.347,0.324 0.527,0.482 0.17,0.161 0.346,0.321 0.526,0.479 0.171,0.163 0.348,0.324 0.529,0.482 0.17,0.161 0.346,0.321 0.525,0.479 0.171,0.163 0.348,0.324 0.528,0.479 0.171,0.163 0.347,0.324 0.527,0.482 0.171,0.163 0.347,0.321 0.527,0.479 0.17,0.163 0.346,0.324 0.526,0.479 4.486,4.297 12.06,6.455 22.754,6.455 11.395,0 20.385,-2.697 26.991,-8.091 6.589,-5.397 16.776,-18.571 30.572,-39.548 l 204.205,-304.395 -51.831,202.243 c -8.401,32.973 -15.147,53.501 -20.232,61.591 -5.098,8.091 -13.644,12.742 -25.626,13.936 l -9.892,1.799 -10.789,0.901 -15.286,2.7 c -10.789,3.595 -16.184,10.491 -16.184,20.68 0,6.398 1.955,11.15 5.825,14.296 0.177,0.161 0.34,0.329 0.526,0.482 0.178,0.158 0.342,0.329 0.528,0.482 0.177,0.158 0.34,0.327 0.525,0.479 0.177,0.158 0.341,0.329 0.528,0.479 0.177,0.158 0.34,0.329 0.527,0.482 0.177,0.158 0.341,0.329 0.527,0.479 0.177,0.158 0.34,0.329 0.526,0.482 0.177,0.158 0.342,0.329 0.528,0.479 0.177,0.161 0.34,0.329 0.525,0.479 0.178,0.161 0.341,0.329 0.528,0.482 0.177,0.158 0.34,0.329 0.526,0.479 0.177,0.161 0.342,0.329 0.528,0.482 0.177,0.158 0.34,0.329 0.525,0.479 0.178,0.161 0.341,0.329 0.528,0.482 0.177,0.158 0.341,0.329 0.527,0.479 0.177,0.161 0.341,0.329 0.527,0.482 0.177,0.158 0.34,0.329 0.526,0.479 0.178,0.161 0.342,0.329 0.528,0.482 0.177,0.158 0.34,0.329 0.525,0.479 0.178,0.161 0.341,0.329 0.528,0.482 0.177,0.158 0.341,0.329 0.527,0.479 0.177,0.158 0.341,0.329 0.527,0.479 0.177,0.161 0.34,0.332 0.527,0.482 0.177,0.158 0.34,0.329 0.526,0.479 0.177,0.161 0.342,0.329 0.528,0.482 0.177,0.158 0.34,0.329 0.525,0.479 0.178,0.161 0.341,0.329 0.528,0.482 0.177,0.158 0.341,0.329 0.527,0.479 0.177,0.161 0.341,0.329 0.527,0.482 0.177,0.158 0.34,0.329 0.526,0.479 0.178,0.161 0.342,0.329 0.528,0.482 0.177,0.158 0.34,0.329 0.525,0.479 0.178,0.161 0.341,0.329 0.528,0.482 0.177,0.158 0.341,0.329 0.527,0.479 0.177,0.158 0.341,0.329 0.527,0.479 0.177,0.161 0.34,0.329 0.526,0.482 0.178,0.158 0.341,0.329 0.528,0.482 0.177,0.158 0.341,0.327 0.527,0.479 0.177,0.158 0.341,0.329 0.527,0.479 0.177,0.161 0.34,0.329 0.526,0.482 0.178,0.158 0.342,0.329 0.528,0.482 0.177,0.158 0.34,0.327 0.525,0.479 0.177,0.158 0.341,0.329 0.528,0.479 0.177,0.158 0.34,0.329 0.527,0.482 0.177,0.158 0.341,0.329 0.527,0.479 0.177,0.158 0.341,0.329 0.527,0.482 0.177,0.158 0.341,0.329 0.527,0.479 0.177,0.158 0.341,0.329 0.527,0.479 0.177,0.161 0.34,0.329 0.526,0.482 0.178,0.158 0.342,0.329 0.528,0.482 0.177,0.158 0.34,0.327 0.525,0.479 0.178,0.158 0.341,0.329 0.528,0.479 0.177,0.161 0.34,0.329 0.526,0.482 0.178,0.158 0.342,0.329 0.528,0.482 0.177,0.158 0.34,0.327 0.525,0.479 0.178,0.158 0.341,0.329 0.528,0.479 0.177,0.158 0.34,0.329 0.527,0.482 0.177,0.158 0.341,0.329 0.527,0.479 0.177,0.158 0.34,0.329 0.526,0.482 0.177,0.158 0.342,0.329 0.528,0.479 0.177,0.161 0.34,0.329 0.525,0.479 0.178,0.161 0.341,0.329 0.528,0.482 0.177,0.158 0.341,0.329 0.527,0.482 0.177,0.158 0.341,0.327 0.527,0.479 0.177,0.158 0.34,0.329 0.526,0.479 0.178,0.161 0.341,0.329 0.528,0.482 0.177,0.158 0.341,0.329 0.527,0.479 0.177,0.161 0.341,0.329 0.527,0.482 0.177,0.158 0.341,0.329 0.527,0.479 0.177,0.161 0.341,0.329 0.527,0.482 0.177,0.158 0.341,0.329 0.526,0.479 0.177,0.161 0.341,0.329 0.526,0.482 0.177,0.158 0.342,0.329 0.528,0.479 0.177,0.161 0.34,0.329 0.525,0.479 0.178,0.161 0.341,0.329 0.528,0.482 3.741,3.353 9.44,5.065 17.177,5.065 l 44.961,-3.595 c 21.578,-2.392 47.348,-3.6 77.328,-3.6 26.977,0 61.737,2.406 104.305,7.196 h 28.772 c 20.977,0 31.474,-6.885 31.474,-20.656 0,-3.217 -0.696,-6.033 -1.946,-8.532 0.018,0.014 0.042,0.022 0.06,0.035 0.184,0.155 0.333,0.335 0.526,0.482 0.185,0.152 0.334,0.335 0.528,0.482 0.183,0.152 0.333,0.332 0.525,0.479 0.184,0.152 0.334,0.332 0.528,0.479 0.184,0.155 0.333,0.335 0.526,0.482 0.184,0.152 0.334,0.335 0.528,0.479 0.184,0.155 0.333,0.335 0.526,0.482 0.184,0.152 0.333,0.332 0.526,0.479 0.185,0.152 0.334,0.335 0.528,0.482 0.183,0.152 0.333,0.332 0.525,0.479 0.184,0.152 0.334,0.335 0.528,0.482 0.184,0.152 0.333,0.332 0.527,0.479 0.184,0.152 0.333,0.335 0.527,0.479 0.184,0.155 0.333,0.335 0.526,0.482 0.184,0.152 0.334,0.335 0.528,0.482 0.183,0.152 0.333,0.332 0.525,0.479 0.184,0.152 0.334,0.332 0.528,0.479 0.184,0.155 0.333,0.335 0.526,0.482 0.184,0.152 0.334,0.335 0.528,0.479 0.183,0.155 0.332,0.335 0.525,0.479 0.184,0.155 0.334,0.335 0.528,0.482 0.184,0.155 0.333,0.335 0.527,0.482 0.184,0.152 0.333,0.332 0.527,0.479 0.184,0.155 0.333,0.335 0.526,0.479 0.184,0.155 0.334,0.335 0.528,0.482 0.183,0.152 0.332,0.332 0.525,0.479 0.184,0.155 0.334,0.335 0.528,0.482 0.184,0.152 0.333,0.335 0.527,0.479 0.184,0.155 0.333,0.335 0.527,0.482 0.184,0.152 0.334,0.332 0.527,0.479 0.184,0.155 0.333,0.335 0.527,0.482 0.184,0.152 0.333,0.332 0.527,0.479 0.184,0.155 0.333,0.335 0.526,0.482 0.184,0.152 0.334,0.332 0.528,0.479 0.184,0.155 0.333,0.335 0.527,0.482 0.184,0.152 0.333,0.332 0.527,0.479 0.184,0.155 0.333,0.335 0.526,0.479 0.184,0.155 0.334,0.335 0.528,0.482 0.183,0.152 0.332,0.332 0.525,0.479 0.184,0.155 0.334,0.335 0.528,0.482 0.184,0.152 0.333,0.335 0.527,0.479 0.184,0.155 0.333,0.335 0.527,0.482 0.184,0.152 0.333,0.332 0.526,0.479 0.185,0.155 0.334,0.335 0.528,0.482 0.183,0.152 0.333,0.332 0.525,0.479 0.184,0.152 0.334,0.335 0.528,0.482 0.184,0.152 0.333,0.332 0.526,0.479 0.184,0.152 0.334,0.335 0.528,0.482 0.183,0.152 0.332,0.332 0.525,0.479 0.184,0.152 0.334,0.335 0.528,0.482 0.184,0.152 0.333,0.332 0.527,0.479 0.184,0.152 0.333,0.335 0.527,0.479 0.184,0.155 0.333,0.335 0.526,0.482 0.184,0.152 0.334,0.335 0.528,0.482 0.184,0.152 0.333,0.332 0.526,0.479 0.184,0.152 0.333,0.332 0.526,0.479 0.185,0.155 0.334,0.335 0.528,0.482 0.183,0.152 0.333,0.332 0.525,0.479 3.891,3.249 9.843,4.91 17.954,4.91 h 3.6 c 37.766,-3.595 61.436,-5.685 71.036,-6.292 9.582,-0.591 23.67,-0.898 42.259,-0.898 l 97.111,3.595 h 52.15 c 18.576,0 27.875,-6.45 27.875,-19.347 0,-5.255 -1.695,-9.454 -4.978,-12.66 -0.169,-0.169 -0.368,-0.316 -0.536,-0.48 z"
             id="path17" />
          <path
             d="m 3832.366,1211.568 c -0.184,-0.155 -0.333,-0.329 -0.525,-0.479 -0.185,-0.158 -0.335,-0.329 -0.529,-0.482 -0.184,-0.155 -0.333,-0.329 -0.525,-0.479 -0.184,-0.155 -0.335,-0.329 -0.527,-0.482 -0.185,-0.155 -0.335,-0.329 -0.527,-0.479 -0.185,-0.158 -0.335,-0.329 -0.527,-0.482 -0.184,-0.155 -0.334,-0.329 -0.526,-0.479 -0.185,-0.155 -0.335,-0.329 -0.528,-0.482 -0.184,-0.155 -0.333,-0.327 -0.525,-0.479 -0.185,-0.155 -0.335,-0.329 -0.528,-0.479 -0.184,-0.158 -0.334,-0.329 -0.526,-0.482 -0.185,-0.155 -0.334,-0.329 -0.527,-0.479 -0.185,-0.155 -0.334,-0.329 -0.527,-0.482 -0.185,-0.155 -0.335,-0.329 -0.527,-0.479 -0.184,-0.158 -0.334,-0.329 -0.527,-0.482 -0.184,-0.155 -0.333,-0.329 -0.527,-0.479 -0.184,-0.155 -0.333,-0.329 -0.527,-0.482 -0.184,-0.155 -0.335,-0.329 -0.527,-0.479 -0.185,-0.158 -0.335,-0.329 -0.527,-0.482 -0.184,-0.155 -0.334,-0.329 -0.526,-0.479 -0.185,-0.155 -0.335,-0.329 -0.528,-0.482 -0.184,-0.155 -0.333,-0.327 -0.525,-0.479 -0.185,-0.155 -0.335,-0.329 -0.528,-0.479 -0.184,-0.158 -0.333,-0.329 -0.527,-0.482 -0.184,-0.155 -0.333,-0.329 -0.527,-0.479 -0.184,-0.155 -0.333,-0.329 -0.526,-0.482 -0.184,-0.155 -0.335,-0.329 -0.527,-0.479 -0.185,-0.158 -0.335,-0.329 -0.527,-0.482 -0.185,-0.155 -0.334,-0.329 -0.527,-0.479 -0.184,-0.155 -0.334,-0.329 -0.526,-0.482 -0.185,-0.155 -0.335,-0.329 -0.528,-0.479 -0.184,-0.158 -0.333,-0.329 -0.525,-0.479 -0.185,-0.158 -0.335,-0.332 -0.528,-0.482 -0.184,-0.155 -0.334,-0.329 -0.527,-0.482 -0.184,-0.155 -0.334,-0.327 -0.527,-0.479 -0.184,-0.155 -0.334,-0.329 -0.527,-0.479 -0.184,-0.158 -0.335,-0.332 -0.528,-0.482 -0.184,-0.155 -0.333,-0.329 -0.525,-0.479 -0.185,-0.155 -0.335,-0.329 -0.528,-0.482 -0.184,-0.155 -0.333,-0.329 -0.527,-0.479 -0.184,-0.158 -0.333,-0.329 -0.527,-0.482 -0.184,-0.155 -0.334,-0.329 -0.527,-0.479 -0.184,-0.155 -0.334,-0.329 -0.527,-0.482 -0.184,-0.155 -0.335,-0.329 -0.528,-0.479 -0.184,-0.158 -0.333,-0.329 -0.525,-0.479 -0.185,-0.158 -0.335,-0.332 -0.528,-0.482 -0.184,-0.155 -0.333,-0.329 -0.527,-0.482 -0.184,-0.155 -0.333,-0.327 -0.527,-0.479 -0.184,-0.155 -0.333,-0.329 -0.526,-0.479 -0.184,-0.158 -0.335,-0.332 -0.529,-0.482 -0.184,-0.155 -0.333,-0.329 -0.525,-0.479 -0.184,-0.155 -0.335,-0.329 -0.527,-0.482 -0.184,-0.155 -0.334,-0.329 -0.527,-0.479 -0.184,-0.158 -0.334,-0.329 -0.527,-0.482 -0.184,-0.155 -0.333,-0.329 -0.525,-0.479 -0.185,-0.155 -0.335,-0.329 -0.528,-0.482 -0.184,-0.155 -0.334,-0.329 -0.527,-0.479 -0.184,-0.158 -0.335,-0.329 -0.527,-0.482 -0.184,-0.155 -0.334,-0.329 -0.527,-0.479 -0.184,-0.155 -0.335,-0.329 -0.528,-0.482 -0.184,-0.155 -0.333,-0.327 -0.525,-0.479 -0.185,-0.155 -0.335,-0.329 -0.528,-0.479 -0.184,-0.158 -0.333,-0.329 -0.527,-0.482 -0.184,-0.155 -0.333,-0.329 -0.527,-0.479 -0.184,-0.155 -0.334,-0.329 -0.527,-0.482 -0.184,-0.155 -0.335,-0.329 -0.527,-0.479 -0.184,-0.158 -0.334,-0.329 -0.527,-0.482 -0.184,-0.155 -0.334,-0.329 -0.526,-0.479 -0.185,-0.155 -0.335,-0.329 -0.528,-0.482 -0.184,-0.155 -0.333,-0.329 -0.526,-0.479 -0.184,-0.158 -0.334,-0.329 -0.527,-0.482 -0.184,-0.155 -0.333,-0.329 -0.526,-0.479 -0.184,-0.155 -0.335,-0.329 -0.529,-0.482 -0.184,-0.155 -0.333,-0.327 -0.525,-0.479 -0.184,-0.155 -0.335,-0.329 -0.527,-0.479 -4.341,-3.668 -10.964,-6.151 -19.968,-7.394 -0.61,-0.084 -1.16,-0.21 -1.756,-0.302 -2.091,-10.78 -3.17,-24.887 -3.17,-42.552 l -27.876,-450.881 c 0,-24.052 -2.558,-39.673 -7.642,-46.896 -0.754,-1.067 -1.634,-2.027 -2.577,-2.936 -0.164,-0.169 -0.356,-0.316 -0.527,-0.479 -0.165,-0.171 -0.356,-0.318 -0.527,-0.482 -0.165,-0.169 -0.356,-0.316 -0.527,-0.479 -0.165,-0.171 -0.356,-0.316 -0.527,-0.482 -0.165,-0.169 -0.356,-0.316 -0.527,-0.479 -0.165,-0.169 -0.356,-0.316 -0.526,-0.479 -0.165,-0.171 -0.357,-0.318 -0.529,-0.482 -0.164,-0.169 -0.355,-0.316 -0.525,-0.479 -0.165,-0.169 -0.356,-0.318 -0.528,-0.482 -0.164,-0.169 -0.356,-0.316 -0.527,-0.482 -0.165,-0.169 -0.356,-0.316 -0.527,-0.479 -0.164,-0.169 -0.355,-0.316 -0.525,-0.479 -0.165,-0.169 -0.358,-0.318 -0.529,-0.482 -0.163,-0.169 -0.355,-0.316 -0.525,-0.479 -0.165,-0.169 -0.357,-0.316 -0.528,-0.482 -0.164,-0.169 -0.356,-0.316 -0.526,-0.479 -0.165,-0.169 -0.357,-0.316 -0.529,-0.482 -0.164,-0.169 -0.354,-0.316 -0.525,-0.479 -0.165,-0.169 -0.356,-0.316 -0.528,-0.482 -0.165,-0.169 -0.356,-0.316 -0.527,-0.479 -0.165,-0.169 -0.356,-0.316 -0.527,-0.482 -0.165,-0.169 -0.356,-0.313 -0.526,-0.479 -0.165,-0.169 -0.357,-0.316 -0.529,-0.482 -0.164,-0.169 -0.355,-0.313 -0.525,-0.479 -0.165,-0.169 -0.356,-0.316 -0.528,-0.479 -0.164,-0.171 -0.356,-0.318 -0.527,-0.482 -0.165,-0.169 -0.356,-0.316 -0.527,-0.479 -0.165,-0.171 -0.356,-0.318 -0.527,-0.482 -0.165,-0.169 -0.356,-0.316 -0.526,-0.479 -0.165,-0.169 -0.357,-0.318 -0.529,-0.482 -0.164,-0.169 -0.355,-0.316 -0.525,-0.479 -0.165,-0.169 -0.356,-0.316 -0.528,-0.482 -0.164,-0.169 -0.356,-0.316 -0.527,-0.479 -0.165,-0.169 -0.356,-0.316 -0.527,-0.482 -0.164,-0.169 -0.355,-0.313 -0.525,-0.479 -0.165,-0.169 -0.358,-0.316 -0.529,-0.482 -0.163,-0.169 -0.355,-0.313 -0.524,-0.479 -0.165,-0.169 -0.357,-0.316 -0.528,-0.479 -0.164,-0.171 -0.356,-0.318 -0.527,-0.482 -0.165,-0.169 -0.356,-0.316 -0.527,-0.479 -0.163,-0.171 -0.355,-0.316 -0.525,-0.479 -0.165,-0.171 -0.356,-0.318 -0.528,-0.482 -0.165,-0.171 -0.357,-0.316 -0.527,-0.482 -0.165,-0.169 -0.357,-0.316 -0.527,-0.479 -0.165,-0.169 -0.356,-0.316 -0.526,-0.479 -0.166,-0.171 -0.357,-0.318 -0.529,-0.482 -0.164,-0.169 -0.355,-0.316 -0.525,-0.479 -0.165,-0.169 -0.356,-0.318 -0.528,-0.482 -0.164,-0.169 -0.356,-0.316 -0.527,-0.482 -0.165,-0.169 -0.356,-0.316 -0.526,-0.479 -0.165,-0.169 -0.357,-0.316 -0.527,-0.479 -0.165,-0.171 -0.357,-0.318 -0.527,-0.482 -0.165,-0.169 -0.357,-0.316 -0.527,-0.479 -0.164,-0.171 -0.356,-0.316 -0.526,-0.479 -0.165,-0.171 -0.357,-0.318 -0.529,-0.484 -0.164,-0.169 -0.354,-0.313 -0.524,-0.476 -0.165,-0.171 -0.356,-0.318 -0.528,-0.482 -0.164,-0.169 -0.355,-0.316 -0.525,-0.479 -0.165,-0.172 -0.358,-0.318 -0.529,-0.482 -0.163,-0.169 -0.355,-0.316 -0.525,-0.479 -0.165,-0.169 -0.357,-0.318 -0.528,-0.482 -0.164,-0.169 -0.356,-0.316 -0.527,-0.482 -0.165,-0.169 -0.356,-0.316 -0.527,-0.479 -0.163,-0.169 -0.355,-0.316 -0.525,-0.479 -0.165,-0.169 -0.358,-0.318 -0.529,-0.482 -0.163,-0.169 -0.354,-0.316 -0.524,-0.479 -0.165,-0.169 -0.357,-0.316 -0.528,-0.482 -0.165,-0.169 -0.356,-0.316 -0.527,-0.479 -0.165,-0.169 -0.356,-0.316 -0.527,-0.482 -0.164,-0.169 -0.356,-0.313 -0.526,-0.479 -0.165,-0.169 -0.357,-0.316 -0.528,-0.482 -0.164,-0.169 -0.356,-0.316 -0.527,-0.479 -0.165,-0.169 -0.356,-0.316 -0.527,-0.482 -0.165,-0.169 -0.356,-0.316 -0.527,-0.479 -0.165,-0.169 -0.356,-0.316 -0.527,-0.482 -5.406,-5.568 -14.161,-8.363 -26.274,-8.363 -12.588,0 -21.887,2.406 -27.874,7.193 -5.997,4.809 -16.184,17.983 -30.573,39.564 l -284.152,404.617 -16.184,23.377 -16.188,22.482 -15.286,23.377 -35.051,44.073 c -8.248,8.709 -10.967,14.6 -18.881,17.703 9.285,-31.873 26.553,-92.705 26.553,-92.705 6.589,-23.377 14.079,-39.561 22.48,-48.556 8.388,-8.989 20.371,-13.487 35.967,-13.487 24.572,-2.289 36.864,-10.605 36.864,-24.966 0,-4.137 -1.261,-7.408 -3.667,-9.89 -0.152,-0.174 -0.364,-0.31 -0.528,-0.479 -0.152,-0.177 -0.363,-0.313 -0.527,-0.482 -0.152,-0.174 -0.364,-0.31 -0.527,-0.479 -0.152,-0.177 -0.363,-0.313 -0.526,-0.482 -0.153,-0.174 -0.365,-0.31 -0.528,-0.479 -0.152,-0.177 -0.363,-0.313 -0.526,-0.479 -0.152,-0.177 -0.364,-0.313 -0.528,-0.482 -0.152,-0.177 -0.363,-0.313 -0.527,-0.482 -0.152,-0.174 -0.364,-0.31 -0.527,-0.479 -0.152,-0.177 -0.364,-0.313 -0.527,-0.479 -0.152,-0.177 -0.363,-0.313 -0.526,-0.482 -0.153,-0.177 -0.365,-0.313 -0.528,-0.482 -0.152,-0.174 -0.363,-0.31 -0.526,-0.479 -0.152,-0.174 -0.364,-0.31 -0.528,-0.479 -0.152,-0.177 -0.363,-0.313 -0.527,-0.482 -0.152,-0.174 -0.364,-0.31 -0.527,-0.479 -0.152,-0.177 -0.363,-0.313 -0.526,-0.482 -0.153,-0.174 -0.365,-0.31 -0.528,-0.479 -0.152,-0.177 -0.363,-0.313 -0.526,-0.479 -0.152,-0.177 -0.364,-0.313 -0.528,-0.482 -0.152,-0.177 -0.363,-0.313 -0.527,-0.482 -0.152,-0.174 -0.364,-0.31 -0.527,-0.479 -0.152,-0.177 -0.363,-0.31 -0.526,-0.479 -0.152,-0.177 -0.364,-0.313 -0.528,-0.482 -0.152,-0.177 -0.363,-0.313 -0.527,-0.479 -0.152,-0.177 -0.364,-0.313 -0.527,-0.482 -0.153,-0.174 -0.363,-0.31 -0.526,-0.479 -0.153,-0.177 -0.364,-0.313 -0.528,-0.482 -0.152,-0.177 -0.363,-0.31 -0.526,-0.479 -0.152,-0.177 -0.364,-0.313 -0.528,-0.482 -0.152,-0.174 -0.363,-0.31 -0.527,-0.479 -0.152,-0.177 -0.364,-0.313 -0.527,-0.482 -0.152,-0.174 -0.363,-0.31 -0.526,-0.479 -0.153,-0.177 -0.365,-0.313 -0.528,-0.482 -0.152,-0.174 -0.363,-0.31 -0.527,-0.479 -0.152,-0.177 -0.363,-0.31 -0.526,-0.479 -0.152,-0.177 -0.364,-0.313 -0.528,-0.482 -0.152,-0.177 -0.363,-0.313 -0.527,-0.479 -0.152,-0.177 -0.364,-0.313 -0.527,-0.482 -0.153,-0.174 -0.363,-0.31 -0.526,-0.479 -0.153,-0.177 -0.364,-0.313 -0.528,-0.482 -0.152,-0.177 -0.363,-0.31 -0.526,-0.479 -0.152,-0.177 -0.364,-0.313 -0.528,-0.482 -0.152,-0.174 -0.363,-0.31 -0.527,-0.479 -0.152,-0.177 -0.364,-0.313 -0.527,-0.482 -0.152,-0.174 -0.363,-0.31 -0.526,-0.479 -0.153,-0.177 -0.365,-0.313 -0.528,-0.482 -0.152,-0.174 -0.363,-0.31 -0.526,-0.479 -0.152,-0.174 -0.364,-0.31 -0.528,-0.479 -0.152,-0.177 -0.363,-0.313 -0.527,-0.482 -0.152,-0.177 -0.364,-0.313 -0.527,-0.479 -0.152,-0.177 -0.363,-0.313 -0.526,-0.482 -0.152,-0.174 -0.364,-0.31 -0.528,-0.479 -0.153,-0.177 -0.363,-0.313 -0.527,-0.482 -0.152,-0.174 -0.364,-0.31 -0.527,-0.479 -0.152,-0.177 -0.363,-0.313 -0.526,-0.482 -0.153,-0.174 -0.364,-0.31 -0.528,-0.479 -0.152,-0.177 -0.363,-0.313 -0.527,-0.482 -0.152,-0.174 -0.363,-0.31 -0.526,-0.479 -0.153,-0.177 -0.365,-0.313 -0.528,-0.482 -0.152,-0.174 -0.363,-0.31 -0.526,-0.479 -0.152,-0.174 -0.364,-0.31 -0.528,-0.479 -0.152,-0.177 -0.363,-0.313 -0.527,-0.482 -0.152,-0.177 -0.364,-0.313 -0.527,-0.479 -0.152,-0.177 -0.363,-0.313 -0.526,-0.482 -0.152,-0.174 -0.364,-0.31 -0.528,-0.479 -0.153,-0.177 -0.363,-0.313 -0.527,-0.482 -0.152,-0.174 -0.364,-0.31 -0.527,-0.479 -0.152,-0.177 -0.363,-0.313 -0.526,-0.482 -0.153,-0.174 -0.364,-0.31 -0.528,-0.479 -0.152,-0.177 -0.363,-0.313 -0.526,-0.479 -0.152,-0.177 -0.364,-0.313 -0.528,-0.482 -0.152,-0.177 -0.363,-0.313 -0.527,-0.482 -0.152,-0.174 -0.364,-0.31 -0.527,-0.479 -0.153,-0.177 -0.363,-0.31 -0.526,-0.479 -3.508,-4.055 -9.952,-6.088 -19.335,-6.088 h -43.161 c -20.99,2.406 -44.664,3.598 -71.036,3.598 -1.8,0 -5.098,0 -9.891,0 -2.401,0 -6.292,0 -11.687,0 l -80.927,-2.697 -44.961,-0.901 c -20.99,0 -31.47,6.605 -31.47,19.782 0,7.127 2.275,12.078 6.714,14.968 0.135,0.128 0.288,0.242 0.429,0.365 0.17,0.166 0.347,0.327 0.527,0.482 0.17,0.166 0.348,0.324 0.528,0.482 0.17,0.163 0.346,0.321 0.525,0.479 0.17,0.163 0.348,0.324 0.528,0.479 0.17,0.166 0.347,0.327 0.527,0.482 0.17,0.163 0.347,0.324 0.527,0.479 0.17,0.166 0.347,0.324 0.526,0.482 0.17,0.163 0.348,0.324 0.528,0.479 0.17,0.166 0.346,0.324 0.526,0.479 0.17,0.166 0.347,0.327 0.527,0.482 0.17,0.166 0.347,0.324 0.527,0.482 0.17,0.163 0.347,0.324 0.527,0.479 0.17,0.163 0.346,0.324 0.526,0.479 0.17,0.166 0.347,0.327 0.527,0.482 0.17,0.166 0.347,0.324 0.527,0.482 0.17,0.163 0.347,0.321 0.527,0.479 0.17,0.163 0.347,0.324 0.526,0.479 0.17,0.166 0.348,0.327 0.528,0.482 0.17,0.166 0.346,0.324 0.525,0.479 0.17,0.166 0.348,0.324 0.528,0.482 0.17,0.163 0.347,0.324 0.527,0.479 0.17,0.166 0.347,0.324 0.527,0.482 0.17,0.163 0.347,0.324 0.526,0.479 0.171,0.166 0.348,0.324 0.528,0.482 0.17,0.163 0.347,0.324 0.526,0.479 0.17,0.163 0.346,0.324 0.526,0.479 0.17,0.166 0.348,0.327 0.528,0.482 0.17,0.166 0.346,0.324 0.525,0.479 0.17,0.166 0.347,0.324 0.527,0.482 0.17,0.163 0.347,0.324 0.526,0.479 0.17,0.166 0.348,0.327 0.528,0.482 0.17,0.166 0.346,0.324 0.525,0.479 0.17,0.166 0.348,0.324 0.528,0.482 0.17,0.163 0.347,0.324 0.527,0.479 0.17,0.166 0.347,0.324 0.527,0.482 0.17,0.163 0.347,0.324 0.526,0.479 0.171,0.166 0.348,0.324 0.528,0.482 0.17,0.163 0.346,0.324 0.526,0.479 0.17,0.163 0.347,0.324 0.527,0.479 0.17,0.166 0.347,0.327 0.527,0.482 0.17,0.166 0.347,0.324 0.527,0.479 0.17,0.166 0.347,0.324 0.526,0.482 0.17,0.163 0.347,0.324 0.527,0.479 0.17,0.166 0.347,0.327 0.527,0.482 0.17,0.163 0.347,0.324 0.527,0.479 0.17,0.166 0.347,0.324 0.526,0.482 0.17,0.163 0.348,0.324 0.528,0.479 0.17,0.166 0.347,0.324 0.526,0.482 0.17,0.163 0.347,0.324 0.526,0.479 0.171,0.166 0.348,0.324 0.528,0.482 0.17,0.163 0.346,0.324 0.526,0.479 0.17,0.163 0.347,0.324 0.527,0.479 0.17,0.166 0.347,0.327 0.527,0.482 0.17,0.166 0.347,0.324 0.527,0.479 0.17,0.166 0.347,0.324 0.526,0.482 0.17,0.163 0.347,0.324 0.527,0.479 0.17,0.166 0.347,0.327 0.527,0.482 0.17,0.163 0.347,0.324 0.527,0.479 0.17,0.166 0.347,0.324 0.526,0.482 0.17,0.163 0.348,0.324 0.528,0.479 0.17,0.166 0.346,0.324 0.525,0.479 0.17,0.166 0.348,0.327 0.528,0.482 0.17,0.166 0.347,0.324 0.527,0.482 0.17,0.163 0.347,0.324 0.527,0.479 0.17,0.163 0.347,0.324 0.526,0.479 0.17,0.166 0.348,0.327 0.528,0.482 0.17,0.166 0.346,0.324 0.526,0.479 0.17,0.166 0.347,0.324 0.527,0.482 0.17,0.163 0.347,0.324 0.527,0.479 0.091,0.09 0.159,0.199 0.253,0.283 3.099,3.775 8.107,5.729 15.171,5.729 4.009,0.514 7.654,1.045 11.134,1.584 -0.203,7.43 -1.345,14.165 -3.511,20.128 l -33.269,117.286 c -4.807,16.13 -10.044,26.43 -15.735,30.894 -5.704,4.485 -16.044,6.719 -31.021,6.719 -33.163,0 -61.629,-7.236 -85.465,-21.633 -23.609,-31.318 -35.453,-71.963 -35.453,-122.004 0,-53.43 12.279,-105.058 36.864,-154.906 24.572,-49.835 58.137,-91.873 100.71,-126.1 35.967,-28.812 74.025,-51.027 114.192,-66.637 40.154,-15.607 79.424,-23.418 117.792,-23.418 0.405,0 0.771,0.027 1.17,0.033 0.102,1.837 0.156,3.742 0.156,5.729 l -1.795,45.859 c 0,15.618 3.166,26.226 9.452,31.92 0.171,0.169 0.352,0.321 0.528,0.482 0.171,0.166 0.35,0.318 0.525,0.479 0.171,0.166 0.351,0.321 0.528,0.482 0.171,0.166 0.351,0.318 0.527,0.479 0.171,0.169 0.351,0.321 0.527,0.479 0.171,0.169 0.35,0.321 0.526,0.482 0.171,0.166 0.352,0.321 0.528,0.482 0.171,0.166 0.35,0.318 0.525,0.479 0.171,0.166 0.351,0.321 0.528,0.479 0.171,0.169 0.35,0.321 0.526,0.482 0.171,0.166 0.352,0.321 0.528,0.482 0.17,0.166 0.35,0.318 0.525,0.479 0.171,0.166 0.352,0.321 0.528,0.479 0.171,0.169 0.351,0.321 0.527,0.482 0.171,0.166 0.351,0.318 0.527,0.479 0.171,0.166 0.35,0.321 0.526,0.479 0.171,0.169 0.352,0.324 0.528,0.482 0.171,0.169 0.35,0.321 0.525,0.479 0.171,0.169 0.352,0.321 0.528,0.482 0.171,0.166 0.351,0.321 0.527,0.479 0.171,0.169 0.351,0.321 0.527,0.482 0.171,0.166 0.351,0.321 0.527,0.479 0.171,0.169 0.351,0.321 0.527,0.482 0.171,0.166 0.351,0.321 0.527,0.479 0.171,0.169 0.35,0.321 0.526,0.482 0.172,0.166 0.352,0.321 0.528,0.479 0.171,0.169 0.351,0.321 0.527,0.482 0.171,0.166 0.351,0.318 0.527,0.479 0.171,0.166 0.35,0.321 0.526,0.479 0.171,0.169 0.352,0.324 0.528,0.482 0.171,0.169 0.35,0.321 0.525,0.479 0.171,0.169 0.352,0.321 0.528,0.482 0.171,0.166 0.351,0.321 0.527,0.479 0.171,0.169 0.351,0.321 0.527,0.482 0.171,0.166 0.35,0.321 0.526,0.479 0.171,0.169 0.352,0.321 0.528,0.482 0.171,0.166 0.35,0.321 0.525,0.479 0.171,0.166 0.351,0.321 0.528,0.482 0.171,0.166 0.35,0.321 0.526,0.479 0.172,0.169 0.352,0.321 0.528,0.482 0.17,0.166 0.35,0.318 0.526,0.479 0.171,0.166 0.351,0.321 0.528,0.482 0.171,0.166 0.351,0.318 0.527,0.479 0.171,0.169 0.351,0.321 0.527,0.479 0.171,0.169 0.351,0.321 0.527,0.482 0.171,0.166 0.351,0.321 0.527,0.479 0.171,0.169 0.351,0.321 0.527,0.482 0.171,0.166 0.35,0.321 0.526,0.479 0.171,0.169 0.352,0.321 0.528,0.482 0.171,0.166 0.35,0.321 0.525,0.479 0.171,0.166 0.351,0.321 0.528,0.482 0.171,0.166 0.35,0.321 0.526,0.479 0.172,0.169 0.352,0.321 0.528,0.482 0.17,0.166 0.35,0.318 0.526,0.479 0.171,0.166 0.351,0.321 0.528,0.482 0.171,0.166 0.351,0.318 0.527,0.479 0.171,0.169 0.351,0.321 0.527,0.479 0.171,0.169 0.35,0.321 0.526,0.482 0.171,0.166 0.352,0.321 0.528,0.482 0.171,0.166 0.35,0.318 0.525,0.479 0.171,0.166 0.352,0.321 0.528,0.479 0.171,0.169 0.351,0.321 0.526,0.482 0.171,0.166 0.351,0.321 0.527,0.479 0.171,0.166 0.35,0.321 0.526,0.482 0.171,0.166 0.352,0.321 0.528,0.479 0.171,0.169 0.35,0.321 0.525,0.479 0.171,0.169 0.352,0.321 0.528,0.482 0.171,0.166 0.35,0.321 0.526,0.479 0.171,0.169 0.351,0.324 0.528,0.482 0.171,0.169 0.351,0.321 0.527,0.479 0.171,0.169 0.35,0.321 0.526,0.482 0.171,0.166 0.352,0.321 0.528,0.482 0.171,0.166 0.35,0.318 0.525,0.479 0.172,0.166 0.352,0.321 0.528,0.479 0.171,0.169 0.351,0.321 0.526,0.482 3.682,3.598 8.485,5.429 14.452,5.429 14.388,0 26.075,-15.583 35.069,-46.762 l 22.476,-68.332 c 3.599,-8.349 5.399,-15.161 5.399,-20.443 0,-4.703 -1.895,-8.668 -5.672,-11.898 -0.232,-0.218 -0.44,-0.441 -0.688,-0.65 -0.176,-0.161 -0.342,-0.324 -0.527,-0.479 -0.176,-0.161 -0.341,-0.324 -0.526,-0.482 -0.177,-0.161 -0.343,-0.324 -0.528,-0.482 -0.176,-0.158 -0.341,-0.321 -0.525,-0.476 -0.177,-0.161 -0.342,-0.327 -0.528,-0.482 -0.177,-0.161 -0.342,-0.324 -0.528,-0.482 -0.176,-0.158 -0.34,-0.321 -0.525,-0.479 -0.177,-0.161 -0.342,-0.324 -0.528,-0.482 -0.176,-0.158 -0.341,-0.324 -0.526,-0.479 -0.176,-0.161 -0.342,-0.324 -0.527,-0.479 -0.176,-0.161 -0.341,-0.324 -0.526,-0.482 -0.177,-0.158 -0.342,-0.324 -0.528,-0.479 -0.176,-0.161 -0.341,-0.327 -0.527,-0.482 -0.176,-0.161 -0.342,-0.324 -0.527,-0.479 -0.176,-0.161 -0.341,-0.324 -0.526,-0.482 -0.177,-0.158 -0.343,-0.324 -0.529,-0.482 -0.176,-0.158 -0.34,-0.321 -0.525,-0.476 -0.177,-0.161 -0.342,-0.327 -0.528,-0.482 -0.176,-0.161 -0.342,-0.324 -0.527,-0.482 -0.176,-0.158 -0.341,-0.321 -0.526,-0.479 -0.176,-0.161 -0.341,-0.324 -0.526,-0.479 -0.177,-0.161 -0.343,-0.327 -0.528,-0.482 -0.176,-0.161 -0.341,-0.324 -0.525,-0.479 -0.177,-0.161 -0.342,-0.324 -0.528,-0.482 -0.176,-0.161 -0.341,-0.324 -0.526,-0.479 -0.177,-0.161 -0.343,-0.327 -0.528,-0.482 -0.176,-0.161 -0.341,-0.324 -0.525,-0.479 -0.177,-0.161 -0.342,-0.324 -0.528,-0.482 -0.177,-0.161 -0.342,-0.324 -0.528,-0.482 -0.176,-0.158 -0.34,-0.321 -0.525,-0.476 -0.177,-0.161 -0.342,-0.327 -0.528,-0.482 -0.176,-0.161 -0.341,-0.324 -0.527,-0.482 -0.176,-0.158 -0.342,-0.321 -0.527,-0.479 -0.176,-0.161 -0.341,-0.324 -0.526,-0.479 -0.177,-0.161 -0.343,-0.327 -0.529,-0.482 -0.176,-0.161 -0.34,-0.324 -0.525,-0.479 -0.177,-0.161 -0.342,-0.324 -0.528,-0.482 -0.176,-0.161 -0.34,-0.324 -0.525,-0.479 -0.177,-0.161 -0.343,-0.327 -0.529,-0.482 -0.176,-0.161 -0.34,-0.324 -0.525,-0.479 -0.177,-0.161 -0.342,-0.324 -0.528,-0.482 -0.176,-0.161 -0.342,-0.324 -0.527,-0.479 -0.176,-0.161 -0.342,-0.324 -0.527,-0.482 -0.176,-0.158 -0.341,-0.324 -0.526,-0.479 -0.177,-0.161 -0.343,-0.324 -0.528,-0.482 -0.176,-0.161 -0.34,-0.321 -0.525,-0.479 -0.177,-0.161 -0.342,-0.324 -0.528,-0.482 -0.176,-0.158 -0.342,-0.324 -0.527,-0.479 -0.176,-0.161 -0.341,-0.324 -0.526,-0.479 -0.176,-0.161 -0.341,-0.324 -0.526,-0.482 -0.177,-0.161 -0.343,-0.324 -0.528,-0.482 -0.176,-0.158 -0.341,-0.321 -0.525,-0.476 -0.177,-0.161 -0.342,-0.327 -0.528,-0.482 -0.176,-0.161 -0.342,-0.324 -0.527,-0.482 -0.176,-0.161 -0.341,-0.324 -0.527,-0.479 -0.176,-0.161 -0.342,-0.324 -0.527,-0.482 -0.176,-0.158 -0.341,-0.324 -0.526,-0.479 -0.177,-0.161 -0.343,-0.324 -0.529,-0.482 -0.176,-0.158 -0.34,-0.321 -0.525,-0.479 -0.177,-0.161 -0.342,-0.324 -0.528,-0.482 -0.176,-0.158 -0.341,-0.324 -0.527,-0.479 -0.176,-0.161 -0.342,-0.324 -0.527,-0.479 -0.176,-0.161 -0.341,-0.324 -0.526,-0.482 -0.177,-0.158 -0.343,-0.324 -0.529,-0.482 -0.176,-0.158 -0.34,-0.321 -0.525,-0.476 -0.177,-0.161 -0.342,-0.327 -0.528,-0.482 -0.176,-0.161 -0.341,-0.324 -0.526,-0.482 -0.177,-0.161 -0.343,-0.324 -0.528,-0.482 -0.176,-0.158 -0.341,-0.321 -0.525,-0.476 -0.177,-0.161 -0.342,-0.327 -0.528,-0.482 -0.176,-0.161 -0.342,-0.324 -0.527,-0.482 -0.176,-0.158 -0.342,-0.324 -0.527,-0.479 -0.176,-0.161 -0.341,-0.324 -0.526,-0.479 -0.225,-0.204 -0.456,-0.406 -0.695,-0.604 -3.747,-3.296 -9.404,-5.846 -17.006,-7.636 -29.378,-6.436 -63.253,-9.669 -101.608,-9.669 -56.957,0 -114.955,8.404 -173.99,25.179 -59.053,16.789 -114.053,40.168 -165.001,70.139 -62.351,36.568 -110.597,80.334 -144.764,131.276 -34.172,50.956 -51.253,104.906 -51.253,161.849 0,66.931 24.792,122.236 74.386,165.945 0.178,0.158 0.345,0.321 0.524,0.476 0.181,0.161 0.352,0.327 0.534,0.487 0.177,0.158 0.343,0.318 0.52,0.474 0.18,0.161 0.349,0.324 0.53,0.484 0.179,0.158 0.348,0.321 0.527,0.482 0.178,0.158 0.347,0.321 0.526,0.479 0.178,0.158 0.345,0.318 0.524,0.476 0.18,0.161 0.349,0.324 0.53,0.484 0.179,0.158 0.348,0.321 0.527,0.479 0.179,0.161 0.347,0.324 0.526,0.482 0.179,0.158 0.348,0.321 0.527,0.479 0.179,0.158 0.348,0.324 0.527,0.482 0.178,0.158 0.347,0.321 0.526,0.479 0.178,0.158 0.345,0.321 0.524,0.476 0.181,0.161 0.352,0.327 0.534,0.487 0.177,0.158 0.343,0.318 0.52,0.474 0.18,0.161 0.349,0.324 0.53,0.484 0.179,0.158 0.348,0.321 0.527,0.482 0.178,0.158 0.347,0.321 0.526,0.479 0.178,0.158 0.345,0.318 0.524,0.476 0.18,0.161 0.349,0.324 0.53,0.484 0.179,0.158 0.348,0.321 0.527,0.479 0.179,0.161 0.347,0.324 0.526,0.482 0.178,0.158 0.345,0.318 0.523,0.476 0.181,0.161 0.352,0.327 0.534,0.487 0.177,0.155 0.343,0.316 0.52,0.474 0.18,0.158 0.349,0.324 0.53,0.484 0.179,0.158 0.348,0.321 0.527,0.479 0.179,0.158 0.347,0.321 0.526,0.479 0.178,0.158 0.345,0.321 0.523,0.479 0.181,0.161 0.352,0.327 0.534,0.484 0.177,0.158 0.343,0.318 0.52,0.476 0.18,0.158 0.349,0.324 0.53,0.482 0.179,0.158 0.348,0.324 0.527,0.482 0.178,0.158 0.347,0.321 0.526,0.479 0.179,0.158 0.348,0.324 0.527,0.482 0.178,0.158 0.345,0.318 0.523,0.476 0.181,0.161 0.352,0.327 0.534,0.487 0.177,0.155 0.343,0.316 0.52,0.474 0.18,0.158 0.349,0.324 0.53,0.484 0.179,0.158 0.348,0.321 0.527,0.479 0.179,0.158 0.347,0.321 0.526,0.479 0.178,0.158 0.345,0.321 0.523,0.479 0.181,0.161 0.352,0.327 0.534,0.484 0.177,0.158 0.343,0.318 0.52,0.476 0.18,0.158 0.349,0.324 0.53,0.482 0.179,0.158 0.348,0.324 0.527,0.482 0.178,0.158 0.347,0.321 0.526,0.479 0.178,0.158 0.345,0.321 0.524,0.476 0.18,0.161 0.349,0.327 0.53,0.484 0.179,0.158 0.348,0.324 0.527,0.482 0.179,0.158 0.347,0.321 0.526,0.479 0.178,0.158 0.345,0.321 0.523,0.476 0.181,0.161 0.352,0.327 0.534,0.487 0.177,0.158 0.343,0.318 0.52,0.474 0.18,0.161 0.349,0.324 0.53,0.484 0.179,0.158 0.348,0.321 0.527,0.482 0.179,0.158 0.347,0.321 0.526,0.479 0.179,0.158 0.348,0.321 0.527,0.479 0.179,0.158 0.348,0.324 0.527,0.482 0.178,0.158 0.347,0.321 0.526,0.479 0.178,0.158 0.345,0.321 0.524,0.476 0.18,0.161 0.349,0.327 0.53,0.484 0.179,0.158 0.348,0.324 0.527,0.482 0.179,0.158 0.347,0.321 0.526,0.479 0.178,0.158 0.345,0.321 0.523,0.476 0.181,0.161 0.352,0.327 0.534,0.487 0.177,0.158 0.343,0.318 0.52,0.474 0.18,0.161 0.349,0.324 0.53,0.484 0.179,0.158 0.348,0.321 0.527,0.482 0.179,0.158 0.347,0.321 0.526,0.479 0.178,0.158 0.345,0.318 0.523,0.476 0.181,0.161 0.352,0.327 0.534,0.487 0.177,0.155 0.343,0.318 0.52,0.474 0.18,0.161 0.349,0.324 0.53,0.484 3.439,3.045 6.984,6.044 10.663,8.981 56.338,44.955 129.478,67.434 219.399,67.434 77.54,0 145.96,-23.581 187.014,-49.753 0.013,0.01 0.031,0.016 0.043,0.024 0.186,0.155 0.332,0.338 0.528,0.482 0.185,0.152 0.33,0.335 0.525,0.479 0.185,0.152 0.332,0.335 0.528,0.482 0.185,0.152 0.331,0.335 0.527,0.479 0.185,0.152 0.331,0.337 0.527,0.482 0.185,0.152 0.331,0.335 0.527,0.479 0.185,0.152 0.332,0.335 0.527,0.482 0.185,0.152 0.331,0.335 0.526,0.479 0.185,0.152 0.331,0.335 0.526,0.479 0.185,0.155 0.331,0.337 0.527,0.482 0.186,0.152 0.332,0.335 0.527,0.482 0.185,0.152 0.331,0.335 0.526,0.479 0.185,0.152 0.331,0.335 0.526,0.479 0.186,0.155 0.333,0.337 0.528,0.482 0.185,0.152 0.33,0.335 0.525,0.479 0.185,0.152 0.331,0.335 0.527,0.482 0.186,0.152 0.332,0.335 0.527,0.479 0.185,0.152 0.331,0.335 0.526,0.482 0.185,0.152 0.331,0.335 0.526,0.479 0.186,0.152 0.332,0.335 0.528,0.482 0.185,0.152 0.33,0.335 0.525,0.479 0.186,0.152 0.332,0.335 0.527,0.479 0.185,0.155 0.332,0.338 0.527,0.482 0.185,0.152 0.331,0.335 0.526,0.479 0.185,0.155 0.331,0.335 0.526,0.482 0.185,0.152 0.332,0.335 0.528,0.479 0.185,0.155 0.331,0.337 0.527,0.482 0.185,0.152 0.331,0.335 0.527,0.479 0.185,0.155 0.33,0.335 0.526,0.482 0.186,0.152 0.332,0.335 0.528,0.479 0.185,0.155 0.331,0.338 0.526,0.482 0.185,0.152 0.331,0.335 0.526,0.479 0.186,0.152 0.332,0.335 0.528,0.482 0.185,0.152 0.33,0.335 0.525,0.479 0.186,0.152 0.331,0.335 0.527,0.479 0.185,0.155 0.332,0.337 0.527,0.482 0.185,0.152 0.331,0.335 0.526,0.479 0.185,0.155 0.331,0.335 0.526,0.482 0.185,0.152 0.331,0.335 0.527,0.479 0.185,0.152 0.332,0.338 0.527,0.482 0.185,0.152 0.331,0.335 0.526,0.479 0.185,0.152 0.331,0.335 0.526,0.482 0.186,0.152 0.333,0.335 0.528,0.479 0.185,0.155 0.33,0.335 0.525,0.479 0.185,0.155 0.331,0.338 0.527,0.482 0.186,0.152 0.332,0.335 0.527,0.482 0.185,0.152 0.331,0.335 0.526,0.479 0.185,0.152 0.331,0.335 0.526,0.479 0.186,0.155 0.332,0.337 0.528,0.482 0.185,0.152 0.33,0.335 0.525,0.479 0.185,0.155 0.332,0.337 0.528,0.482 0.185,0.152 0.33,0.335 0.526,0.479 0.186,0.155 0.332,0.337 0.528,0.482 0.185,0.152 0.331,0.335 0.526,0.479 0.185,0.152 0.331,0.335 0.526,0.482 0.186,0.152 0.333,0.335 0.528,0.479 0.185,0.155 0.33,0.335 0.525,0.479 0.185,0.155 0.331,0.337 0.527,0.482 0.186,0.152 0.332,0.335 0.527,0.482 0.185,0.152 0.331,0.335 0.526,0.479 0.185,0.152 0.331,0.335 0.526,0.479 0.186,0.155 0.333,0.338 0.528,0.482 0.185,0.152 0.33,0.335 0.525,0.479 0.186,0.155 0.332,0.335 0.527,0.482 0.186,0.152 0.332,0.335 0.527,0.479 0.185,0.155 0.331,0.337 0.526,0.482 0.185,0.152 0.331,0.335 0.526,0.479 0.185,0.152 0.331,0.335 0.527,0.482 3.589,2.961 9.101,4.485 16.641,4.485 l 57.019,-3.47 c 21.083,-1.284 42.221,-1.35 63.311,-0.201 l 27.683,1.505 34.172,2.166 c 19.177,0 28.772,-6.912 28.772,-20.767 0,-4.741 -1.473,-8.662 -4.255,-11.852 -0.744,-0.944 -1.584,-1.834 -2.555,-2.651 -0.177,-0.158 -0.343,-0.324 -0.528,-0.479 -0.176,-0.161 -0.341,-0.327 -0.525,-0.479 -0.177,-0.161 -0.343,-0.327 -0.527,-0.482 -0.176,-0.161 -0.343,-0.324 -0.527,-0.482 -0.176,-0.158 -0.342,-0.324 -0.527,-0.479 -0.176,-0.161 -0.342,-0.324 -0.526,-0.479 -0.177,-0.161 -0.343,-0.327 -0.527,-0.482 -0.176,-0.161 -0.343,-0.324 -0.527,-0.479 -0.176,-0.161 -0.342,-0.327 -0.527,-0.482 -0.176,-0.158 -0.342,-0.324 -0.526,-0.479 -0.177,-0.161 -0.343,-0.327 -0.528,-0.482 -0.176,-0.161 -0.341,-0.324 -0.525,-0.479 -0.177,-0.161 -0.343,-0.327 -0.527,-0.482 -0.176,-0.158 -0.343,-0.324 -0.527,-0.479 -0.176,-0.161 -0.342,-0.327 -0.526,-0.482 -0.176,-0.158 -0.342,-0.324 -0.526,-0.479 -0.177,-0.161 -0.343,-0.327 -0.528,-0.482 -0.176,-0.158 -0.342,-0.324 -0.526,-0.479 -0.176,-0.161 -0.342,-0.324 -0.526,-0.479 -0.177,-0.161 -0.343,-0.327 -0.528,-0.482 -0.176,-0.161 -0.341,-0.324 -0.525,-0.479 -0.177,-0.161 -0.343,-0.327 -0.527,-0.482 -0.176,-0.158 -0.342,-0.324 -0.526,-0.479 -0.177,-0.161 -0.343,-0.327 -0.528,-0.482 -0.176,-0.161 -0.341,-0.324 -0.525,-0.479 -0.177,-0.161 -0.343,-0.327 -0.527,-0.482 -0.176,-0.158 -0.343,-0.324 -0.527,-0.479 -0.176,-0.161 -0.342,-0.327 -0.527,-0.482 -0.176,-0.158 -0.342,-0.324 -0.526,-0.479 -0.177,-0.161 -0.343,-0.327 -0.528,-0.482 -0.176,-0.158 -0.341,-0.324 -0.525,-0.479 -0.177,-0.158 -0.343,-0.327 -0.527,-0.479 -0.176,-0.161 -0.343,-0.327 -0.527,-0.482 -0.176,-0.161 -0.342,-0.324 -0.526,-0.479 -0.176,-0.161 -0.342,-0.327 -0.526,-0.482 -0.177,-0.158 -0.343,-0.324 -0.527,-0.479 -0.176,-0.161 -0.343,-0.327 -0.527,-0.482 -0.176,-0.161 -0.342,-0.324 -0.526,-0.479 -0.176,-0.161 -0.342,-0.327 -0.526,-0.482 -0.177,-0.158 -0.343,-0.324 -0.528,-0.479 -0.176,-0.161 -0.342,-0.327 -0.526,-0.482 -0.176,-0.158 -0.342,-0.324 -0.526,-0.479 -0.177,-0.161 -0.343,-0.327 -0.528,-0.482 -0.176,-0.158 -0.341,-0.324 -0.525,-0.479 -0.177,-0.158 -0.343,-0.327 -0.527,-0.479 -0.176,-0.161 -0.343,-0.327 -0.527,-0.482 -0.176,-0.161 -0.342,-0.324 -0.527,-0.479 -0.176,-0.161 -0.342,-0.327 -0.526,-0.482 -0.177,-0.158 -0.343,-0.324 -0.527,-0.479 -0.176,-0.161 -0.343,-0.327 -0.527,-0.482 -0.176,-0.161 -0.342,-0.324 -0.527,-0.479 -0.176,-0.161 -0.342,-0.324 -0.526,-0.482 -0.177,-0.158 -0.343,-0.324 -0.528,-0.479 -0.176,-0.161 -0.341,-0.327 -0.525,-0.479 -0.177,-0.161 -0.343,-0.327 -0.527,-0.482 -0.176,-0.161 -0.343,-0.324 -0.527,-0.482 -0.176,-0.158 -0.342,-0.324 -0.527,-0.479 -0.176,-0.161 -0.342,-0.324 -0.526,-0.479 -0.177,-0.161 -0.343,-0.327 -0.528,-0.482 -0.176,-0.161 -0.341,-0.324 -0.525,-0.479 -0.177,-0.161 -0.343,-0.327 -0.527,-0.482 -0.176,-0.158 -0.343,-0.324 -0.527,-0.479 -0.176,-0.161 -0.342,-0.327 -0.526,-0.482 -0.176,-0.158 -0.342,-0.324 -0.526,-0.479 -0.177,-0.161 -0.343,-0.327 -0.527,-0.482 -0.177,-0.158 -0.343,-0.324 -0.528,-0.479 -0.176,-0.161 -0.341,-0.327 -0.525,-0.479 -0.177,-0.161 -0.343,-0.327 -0.527,-0.482 -0.176,-0.161 -0.343,-0.324 -0.527,-0.482 -0.176,-0.158 -0.342,-0.324 -0.527,-0.479 -0.176,-0.161 -0.342,-0.324 -0.526,-0.479 -0.177,-0.161 -0.343,-0.327 -0.528,-0.482 -0.176,-0.161 -0.341,-0.324 -0.525,-0.479 -0.259,-0.234 -0.536,-0.457 -0.812,-0.68 -0.594,-0.512 -1.321,-0.95 -2.002,-1.41 -0.321,-0.207 -0.579,-0.446 -0.918,-0.642 -3.865,-2.354 -8.938,-4.033 -15.318,-4.988 -4.451,-0.528 -8.62,-1.165 -12.511,-1.905 1.185,-7.849 4.606,-17.009 10.354,-27.516 3.021,-7.22 8.15,-16.862 15.398,-28.901 3.626,-6.009 9.358,-15.354 17.212,-28.001 l 28.072,-42.443 h 143.151 l 2.438,42.631 v 36.867 c 0,16.786 -2.697,28.629 -8.092,35.515 -5.395,6.896 -15.892,11.242 -31.469,13.041 -15.596,1.796 -26.232,4.493 -31.923,8.094 -5.704,3.592 -8.541,9.299 -8.541,17.08 0,5.791 1.797,10.091 5.355,12.938 0.178,0.158 0.339,0.329 0.528,0.482 0.177,0.158 0.339,0.329 0.527,0.479 0.178,0.158 0.339,0.329 0.527,0.482 0.177,0.158 0.339,0.329 0.527,0.479 0.178,0.158 0.339,0.329 0.527,0.479 0.178,0.161 0.339,0.332 0.527,0.482 0.177,0.158 0.338,0.329 0.526,0.479 0.178,0.158 0.339,0.332 0.528,0.482 0.177,0.158 0.339,0.329 0.527,0.479 0.178,0.158 0.339,0.332 0.527,0.482 0.178,0.158 0.339,0.329 0.526,0.479 0.178,0.158 0.34,0.332 0.528,0.482 0.178,0.158 0.338,0.329 0.525,0.479 0.178,0.158 0.339,0.329 0.528,0.482 0.177,0.158 0.339,0.329 0.527,0.479 0.178,0.158 0.339,0.329 0.527,0.482 0.177,0.158 0.338,0.329 0.526,0.479 0.178,0.158 0.34,0.329 0.528,0.482 0.177,0.158 0.338,0.329 0.525,0.479 0.178,0.158 0.34,0.329 0.528,0.479 0.177,0.161 0.338,0.329 0.526,0.482 0.178,0.158 0.34,0.329 0.528,0.479 0.177,0.158 0.338,0.332 0.525,0.479 0.178,0.161 0.34,0.332 0.528,0.482 0.177,0.158 0.339,0.332 0.527,0.482 0.178,0.158 0.339,0.329 0.527,0.479 0.178,0.158 0.339,0.332 0.527,0.482 0.177,0.158 0.339,0.329 0.527,0.479 0.178,0.158 0.339,0.329 0.527,0.482 0.177,0.158 0.338,0.329 0.526,0.479 0.178,0.158 0.34,0.329 0.528,0.482 0.177,0.158 0.338,0.329 0.525,0.479 0.178,0.158 0.34,0.329 0.528,0.479 0.177,0.161 0.339,0.332 0.527,0.482 0.178,0.158 0.339,0.329 0.527,0.479 0.177,0.158 0.338,0.329 0.526,0.479 0.178,0.161 0.34,0.332 0.528,0.482 0.177,0.158 0.339,0.332 0.527,0.482 0.178,0.158 0.339,0.329 0.527,0.479 0.178,0.158 0.339,0.329 0.526,0.479 0.178,0.161 0.34,0.332 0.528,0.482 0.178,0.158 0.338,0.329 0.525,0.479 0.178,0.158 0.339,0.332 0.528,0.482 0.178,0.158 0.339,0.329 0.527,0.479 0.178,0.161 0.339,0.332 0.527,0.482 0.178,0.158 0.339,0.329 0.526,0.479 0.178,0.161 0.34,0.332 0.528,0.482 0.178,0.158 0.338,0.329 0.525,0.479 0.178,0.158 0.339,0.332 0.528,0.482 0.177,0.158 0.338,0.329 0.526,0.479 0.178,0.158 0.34,0.332 0.528,0.482 0.177,0.158 0.339,0.329 0.526,0.479 0.178,0.158 0.339,0.329 0.526,0.479 0.178,0.161 0.34,0.332 0.528,0.482 0.178,0.158 0.338,0.329 0.525,0.479 0.178,0.158 0.339,0.332 0.528,0.482 0.177,0.158 0.339,0.329 0.527,0.479 0.178,0.161 0.339,0.332 0.527,0.482 0.178,0.158 0.339,0.329 0.526,0.479 0.178,0.158 0.34,0.332 0.528,0.482 0.178,0.158 0.338,0.329 0.525,0.479 0.178,0.158 0.339,0.332 0.528,0.482 0.177,0.158 0.338,0.329 0.526,0.479 0.178,0.158 0.34,0.332 0.528,0.482 0.177,0.158 0.338,0.329 0.525,0.479 0.178,0.158 0.34,0.329 0.528,0.482 0.178,0.158 0.339,0.329 0.527,0.479 0.178,0.158 0.339,0.329 0.527,0.482 0.177,0.158 0.338,0.329 0.526,0.479 0.178,0.158 0.34,0.329 0.528,0.482 0.177,0.158 0.338,0.329 0.525,0.479 0.178,0.158 0.34,0.329 0.528,0.479 0.177,0.161 0.339,0.332 0.527,0.482 0.178,0.158 0.339,0.329 0.527,0.479 0.178,0.158 0.339,0.332 0.527,0.482 3.44,3.064 8.696,4.629 15.851,4.629 h 29.674 c 22.772,-0.898 44.198,-2.025 64.29,-3.372 20.075,-1.353 38.507,-2.025 55.297,-2.025 l 71.035,2.697 28.773,2.7 c 17.983,0 26.977,-6.602 26.977,-19.839 0.033,-5.751 -2.187,-10.355 -6.601,-13.822 z m -342.109,-254.601 79.36,-117.424 4.553,117.424 z"
             id="path18" />
        </g>
        <path
           d="m 1279.468,1001.922 h -181.099 l -28.072,42.443 c -7.854,12.647 -13.585,21.991 -17.211,28 -7.248,12.041 -12.378,21.682 -15.398,28.903 -7.248,13.249 -10.856,24.388 -10.856,33.409 0,17.463 17.674,28.297 53.048,32.511 16.188,2.419 24.28,9.344 24.28,20.779 0,13.854 -9.595,20.766 -28.772,20.766 l -34.172,-2.163 -59.344,-3.231 -76.43,5.395 h -24.276 c -14.388,0 -21.583,-5.395 -21.583,-16.184 0,-8.994 2.854,-15.43 8.541,-19.334 5.704,-3.891 16.498,-6.741 32.372,-8.541 15.892,-1.8 29.226,-8.388 40.015,-19.783 l 35.051,-44.072 15.286,-23.378 16.188,-22.48 16.184,-23.378 284.152,-404.618 c 14.388,-21.578 24.576,-34.755 30.572,-39.562 5.987,-4.789 15.286,-7.194 27.875,-7.194 13.783,0 23.225,3.613 28.324,10.821 5.085,7.221 7.643,22.844 7.643,46.895 l 27.875,450.88 c 0,18.087 1.095,32.563 3.286,43.431 1.864,9.246 6.418,17.708 12.891,24.568 5.732,6.075 12.725,10.991 20.687,13.518 10.73,3.406 16.1,9.599 16.1,18.573 0,13.235 -8.994,19.837 -26.977,19.837 l -28.772,-2.697 -52.963,-2.697 c -16.79,0 -35.222,0.673 -55.296,2.024 -20.093,1.346 -41.518,2.473 -64.29,3.37 h -29.674 c -13.796,0 -20.681,-5.691 -20.681,-17.086 0,-7.782 2.836,-13.486 8.541,-17.081 5.691,-3.599 16.327,-6.297 31.923,-8.092 15.578,-1.8 26.075,-6.144 31.47,-13.042 5.395,-6.885 8.092,-18.728 8.092,-35.513 v -36.869 z m -3.568,-44.956 -8.065,-207.964 -140.55,207.964 z"
           id="path19" />
        <path
           d="m 2654.329,694.406 -113.295,394.736 c -5.395,19.195 -8.092,33.875 -8.092,44.063 0,22.184 11.983,33.269 35.967,33.269 21.578,0 32.367,6.741 32.367,20.214 0,12.898 -9.299,19.348 -27.875,19.348 h -52.15 l -97.111,-3.595 c -18.589,0 -32.677,0.305 -42.259,0.898 -9.6,0.606 -33.27,2.697 -71.036,6.292 h -3.599 c -15.578,0 -23.378,-5.983 -23.378,-17.983 0,-7.19 2.697,-12.135 8.092,-14.833 5.395,-2.698 17.678,-5.987 36.869,-9.891 19.177,-3.891 30.864,-8.994 35.069,-15.286 4.183,-6.297 11.081,-26.528 20.681,-60.695 l 112.397,-392.941 c 4.183,-14.384 6.292,-23.966 6.292,-28.772 0,-15.582 -11.099,-23.378 -33.269,-23.378 -19.191,0 -28.772,-5.731 -28.772,-17.198 0,-6.885 2.388,-12.32 7.194,-16.341 4.789,-4.017 11.377,-6.027 19.779,-6.027 h 41.361 20.685 28.772 c 57.545,0 97.699,-1.432 120.489,-4.313 l 47.658,-2.877 c 11.983,0 17.983,5.704 17.983,17.081 0,7.8 -3.007,13.491 -8.994,17.086 -6,3.595 -16.942,6.745 -32.821,9.443 -15.887,2.697 -26.524,7.051 -31.918,13.038 -5.395,5.994 -11.1,18.879 -17.086,38.662 z"
           id="path20" />
        <path
           d="m 3206.417,1033.392 c 0,0 -19.08,67.218 -27.914,97.365 -10.318,35.214 -107.753,90.565 -226.55,90.565 -89.921,0 -163.062,-22.48 -219.399,-67.436 -56.355,-44.961 -84.522,-103.098 -84.522,-174.443 0,-56.943 17.081,-110.893 51.253,-161.85 34.167,-50.943 82.413,-94.71 144.764,-131.278 50.948,-29.971 105.948,-53.349 165.001,-70.138 59.035,-16.776 117.033,-25.178 173.99,-25.178 38.354,0 72.23,3.231 101.608,9.667 14.976,3.528 22.48,9.977 22.48,19.348 0,5.282 -1.8,12.095 -5.399,20.443 l -22.476,68.334 c -8.994,31.178 -20.681,46.76 -35.069,46.76 -15.596,0 -23.378,-12.279 -23.378,-36.869 l 1.795,-45.858 c 0,-15.578 -3.146,-26.524 -9.438,-32.816 -6.297,-6.297 -16.947,-9.443 -31.923,-9.443 -38.368,0 -77.637,7.809 -117.792,23.418 -40.167,15.609 -78.226,37.825 -114.192,66.638 -42.573,34.225 -76.139,76.264 -100.71,126.099 -24.585,49.848 -36.864,101.478 -36.864,154.907 0,55.247 14.384,99.081 43.161,131.507 28.772,32.426 68.024,48.627 117.792,48.627 14.976,0 25.317,-2.235 31.021,-6.719 5.691,-4.466 10.928,-14.766 15.735,-30.895 l 33.27,-117.284 c 2.387,-6.575 3.595,-14.038 3.595,-22.395 0,-13.123 -2.697,-21.637 -8.092,-25.514 -5.395,-3.878 -19.783,-7.306 -43.161,-10.3 -12.589,0 -18.881,-5.982 -18.881,-17.983 0,-13.177 10.479,-19.783 31.47,-19.783 l 44.96,0.902 80.927,2.697 h 11.687 9.892 c 26.371,0 50.045,-1.194 71.036,-3.599 h 43.161 c 14.976,0 22.476,5.17 22.476,15.497 0,14.362 -12.292,22.678 -36.864,24.967 -15.596,0 -27.579,4.497 -35.967,13.486 -8.404,8.993 -15.894,25.176 -22.483,48.554 z"
           id="path21" />
        <path
           d="M 3577.739,1001.922 H 3396.64 l -28.073,42.443 c -7.854,12.647 -13.585,21.991 -17.211,28 -7.248,12.041 -12.378,21.682 -15.398,28.903 -7.248,13.249 -10.856,24.388 -10.856,33.409 0,17.463 17.674,28.297 53.048,32.511 16.188,2.419 24.28,9.344 24.28,20.779 0,13.854 -9.595,20.766 -28.772,20.766 l -34.171,-2.163 -27.683,-1.507 c -21.09,-1.148 -42.229,-1.081 -63.311,0.202 l -57.019,3.469 c -14.388,0 -21.583,-5.395 -21.583,-16.184 0,-8.994 2.854,-15.43 8.541,-19.334 5.704,-3.891 16.498,-6.741 32.372,-8.541 15.892,-1.8 17.188,-8.388 27.977,-19.783 l 35.051,-44.072 15.286,-23.378 16.188,-22.48 16.184,-23.378 284.152,-404.618 c 14.389,-21.578 24.576,-34.755 30.572,-39.562 5.987,-4.789 15.286,-7.194 27.875,-7.194 13.783,0 23.225,3.613 28.324,10.821 5.085,7.221 7.643,22.844 7.643,46.895 l 27.875,450.88 c 0,30.657 3.146,50.943 9.443,60.862 6.292,9.923 18.123,16.089 35.518,18.49 17.378,2.401 26.075,9.317 26.075,20.739 0,13.235 -8.994,19.837 -26.977,19.837 l -28.772,-2.697 -71.036,-2.697 c -16.79,0 -35.222,0.673 -55.296,2.024 -20.093,1.346 -41.518,2.473 -64.29,3.37 h -29.675 c -13.796,0 -20.68,-5.691 -20.68,-17.086 0,-7.782 2.836,-13.486 8.541,-17.081 5.691,-3.599 16.327,-6.297 31.923,-8.092 15.578,-1.8 26.075,-6.144 31.47,-13.042 5.395,-6.885 8.092,-18.728 8.092,-35.513 v -36.869 z m -3.568,-44.956 -8.065,-207.964 -140.55,207.964 z"
           id="path22" />
        <path
           d="m 2141.034,727.658 -284.125,423.526 c -13.796,20.977 -23.984,34.154 -30.572,39.548 -6.606,5.395 -15.596,8.092 -26.991,8.092 -11.996,0 -20.093,-2.697 -24.276,-8.105 -4.201,-5.408 -6.297,-17.126 -6.297,-35.154 l -14.429,-429.015 -90.774,247.481 -14.389,48.739 c -11.395,37.919 -17.983,60.947 -19.778,69.07 -1.8,8.119 -2.697,18.499 -2.697,31.133 0,14.442 3.442,23.925 10.34,28.436 6.885,4.524 23.517,8.877 49.902,13.091 14.976,1.8 22.48,8.419 22.48,19.855 0,14.442 -9.595,21.664 -28.772,21.664 l -33.269,-3.231 -53.052,-2.163 -69.859,2.697 c -15.582,0 -23.378,-5.987 -23.378,-17.983 0,-9.736 7.918,-16.912 23.746,-21.51 9.011,-2.617 17,-7.972 23.313,-14.914 3.136,-3.448 5.715,-6.288 5.715,-6.288 6.588,-8.092 19.473,-38.803 38.664,-92.165 L 1709.43,721.363 c 10.789,-32.367 16.184,-52.446 16.184,-60.242 0,-6.588 -2.85,-11.382 -8.541,-14.388 -5.704,-2.994 -17.238,-5.843 -34.62,-8.541 -17.391,-2.697 -26.075,-9.133 -26.075,-19.334 0,-5.395 2.388,-10.183 7.194,-14.384 4.789,-4.187 10.479,-6.297 17.086,-6.297 l 33.269,3.599 h 44.956 44.961 62.939 16.188 c 7.194,0 11.377,1.207 12.589,3.595 1.795,3.007 2.697,10.497 2.697,22.48 l 14.384,367.651 242.791,-374.831 c 5.987,-9.16 10.188,-14.595 12.589,-16.323 2.392,-1.714 7.194,-2.572 14.388,-2.572 h 8.994 34.167 39.562 67.427 28.772 c 13.177,0 19.783,5.395 19.783,16.157 0,14.976 -10.34,23.504 -31.021,25.599 -20.685,2.091 -33.579,6.279 -38.668,12.557 -5.098,6.297 -10.34,20.515 -15.735,42.654 l -88.117,367.215 c -2.406,10.174 -4.806,22.453 -7.194,36.81 -2.401,14.375 -3.595,23.957 -3.595,28.732 0,10.17 2.836,17.66 8.541,22.449 5.691,4.793 16.327,8.388 31.918,10.78 15.582,2.388 23.382,9.272 23.382,20.636 0,13.769 -10.497,20.654 -31.474,20.654 h -28.772 c -42.569,-4.789 -77.328,-7.194 -104.305,-7.194 -29.98,0 -55.75,1.207 -77.328,3.599 l -44.961,3.595 c -14.99,0 -22.476,-6.292 -22.476,-18.881 0,-10.188 5.395,-17.086 16.184,-20.681 l 15.286,-2.697 10.789,-0.902 9.891,-1.8 c 11.983,-1.194 20.528,-5.843 25.626,-13.935 5.085,-8.092 11.83,-28.62 20.232,-61.593 z"
           id="path23" />
        <path
           d="M 405.688,750.35 H 218.221 l 332.419,483.67 h 187.457 z"
           fill="url(#b)"
           id="path24"
           style="fill:url(#b)" />
        <path
           d="m 717.814,1234.02 h 20.283 L 405.688,750.35 h -20.293 z"
           id="path25" />
        <path
           d="M 187.467,750.35 H 0 l 332.419,483.67 h 187.467 z"
           fill="url(#c)"
           id="path26"
           style="fill:url(#c)" />
        <path
           d="m 499.593,1234.02 h 20.293 L 187.467,750.35 h -20.293 z"
           id="path27" />
        <path
           d="M 1180.532,0 332.419,1234.02 H 519.876 L 1368,0 Z"
           fill="url(#e)"
           id="path28"
           style="fill:url(#e)" />
        <path
           d="M 1398.754,0 550.64,1234.02 H 738.097 L 1586.22,0 Z"
           fill="url(#f)"
           id="path29"
           style="fill:url(#f)" />
        <path
           d="M 1565.928,0 717.814,1234.02 h 20.283 L 1586.22,0 Z"
           id="path30" />
        <path
           d="M 1347.707,0 499.593,1234.02 h 20.293 L 1368,0 Z"
           id="path31" />
        <path
           d="m 540.642,1219.475 9.998,14.545 93.768,-136.322 -9.989,-14.545 z"
           fill="url(#g)"
           id="path32"
           style="fill:url(#g)" />
        <path
           d="m 416.169,1083.153 -93.778,136.322 9.989,14.535 93.778,-136.361 z"
           fill="url(#h)"
           id="path33"
           style="fill:url(#h)" />
        <path
           d="m 441.54,1075.28 93.738,-136.371 -9.93,-14.457 -93.778,136.322 z"
           fill="url(#i)"
           id="path34"
           style="fill:url(#i)" />
      </g>
    </g>
  </g>
</svg>
