<?xml version="1.0" encoding="UTF-8" standalone="no"?>
<svg
   height="203"
   viewBox="0 0 639.99998 203"
   width="640"
   version="1.1"
   id="svg15"
   sodipodi:docname="apple2.svg"
   inkscape:version="1.3.2 (091e20e, 2023-11-25)"
   xmlns:inkscape="http://www.inkscape.org/namespaces/inkscape"
   xmlns:sodipodi="http://sodipodi.sourceforge.net/DTD/sodipodi-0.dtd"
   xmlns="http://www.w3.org/2000/svg"
   xmlns:svg="http://www.w3.org/2000/svg">
  <defs
     id="defs15" />
  <sodipodi:namedview
     id="namedview15"
     pagecolor="#ffffff"
     bordercolor="#000000"
     borderopacity="0.25"
     inkscape:showpageshadow="2"
     inkscape:pageopacity="0.0"
     inkscape:pagecheckerboard="0"
     inkscape:deskcolor="#d1d1d1"
     inkscape:zoom="1"
     inkscape:cx="320.5"
     inkscape:cy="105"
     inkscape:window-width="1312"
     inkscape:window-height="449"
     inkscape:window-x="0"
     inkscape:window-y="39"
     inkscape:window-maximized="0"
     inkscape:current-layer="svg15" />
  <g
     id="g1"
     transform="scale(0.16666667,0.16639344)">
    <g
       id="g16">
      <g
         transform="scale(1,1.000082)"
         id="g15">
        <path
           d="m 3399.8,396.1 h -98 V 264.5 h 251.6 V 847.3 H 3301.8 V 715.7 h 98 z"
           id="path1" />
        <path
           d="m 3742,715.7 h 98 V 847.3 H 3588.4 V 264.5 H 3840 v 131.6 h -98 z"
           id="path2" />
        <path
           d="m 1105.6,396.9 h 284.5 V 847.4 H 1236.5 V 528.5 h -84.8 c -27.8,0 -50.8,8.6 -69.1,25.9 -18.3,17.2 -27.4,39.5 -27.4,66.6 0,26.7 9.4,49.2 28.2,67.4 18.8,18.2 42,27.3 69.8,27.3 h 48.3 v 131.6 h -94.3 c -58,0 -109.2,-23.4 -153.6,-70.1 -44.5,-46.7 -66.7,-99.2 -66.7,-157.7 0,-58.9 21.1,-110.7 63.3,-155.5 42.2,-44.7 94,-67.1 155.4,-67.1 z"
           id="path3" />
        <path
           d="M 1437.6,979 V 396.9 h 289.6 c 59,0 109.6,22.3 151.7,66.8 42.2,44.5 63.3,98.7 63.3,162.4 0,61.8 -21.2,114.1 -63.6,157 -42.4,42.8 -93.9,64.3 -154.3,64.3 h -98 V 715.7 h 43.9 c 29.3,0 53.9,-8.2 73.9,-24.8 20,-16.5 30,-37.9 30,-64.1 0,-25.3 -9.5,-47.6 -28.5,-67 -20.5,-20.9 -45.6,-31.3 -75.3,-31.3 h -79 V 979 Z"
           id="path4" />
        <path
           d="M 1972.9,979 V 396.9 h 289.6 c 59,0 109.6,22.3 151.7,66.8 42.2,44.5 63.3,98.7 63.3,162.4 0,61.8 -21.2,114.1 -63.6,157 -42.4,42.8 -93.9,64.3 -154.3,64.3 h -98 V 715.7 h 43.9 c 29.3,0 53.9,-8.2 73.9,-24.8 20,-16.5 30,-37.9 30,-64.1 0,-25.3 -9.5,-47.6 -28.5,-67 -20.5,-20.9 -45.6,-31.3 -75.3,-31.3 h -79 V 979 Z"
           id="path5" />
        <path
           d="m 2508.2,264.5 h 153.6 v 582.8 h -153.6 z"
           id="path6" />
        <path
           d="m 3207.3,715.7 v 131.6 h -259.6 c -69.2,0 -128,-20 -176.2,-59.9 -51.7,-42.8 -77.5,-98.6 -77.5,-167.2 0,-58.4 25.3,-110.2 76.1,-155.5 50.7,-45.3 110.2,-67.9 178.4,-67.9 h 258.9 v 131.3 l -102.5,149.6 h -174 l 108.2,-149.2 h -79 c -29.3,0 -52.9,8.5 -70.9,25.5 -18,17 -27.1,38.6 -27.1,64.8 0,27.7 9.5,50.8 28.5,69.2 19,18.5 42.2,27.7 69.5,27.7 z"
           id="path7" />
        <path
           d="m 716.9,1211.2 c 71.9,0 157.2,-61.7 214.8,-152 H 115.4 c 50.6,91.4 115.7,160.7 190.9,160.7 91.6,0 80.6,-56.3 200.1,-56.3 118.8,0 98.6,47.6 210.5,47.6 z"
           fill="#0f9ad6"
           id="path8" />
        <path
           d="m 115.4,1059.2 h 816.4 c 29.6,-46.4 52,-100.4 61.4,-157.5 H 47.6 c 18.1,54 40.9,108.8 67.8,157.5 z"
           fill="#943f95"
           id="path9" />
        <path
           d="m 47.6,901.6 h 945.5 c 1.8,-10.6 3.1,-21.4 3.9,-32.2 -28,-14.1 -54.1,-33.8 -78.3,-59.2 -19.8,-20.9 -36,-42.9 -48.4,-66.1 H 7.5 c 7.8,46.4 21.4,101.5 40.1,157.5 z"
           fill="#e61d32"
           id="path10" />
        <path
           d="m 839.1,619.5 c 0,-11.2 0.7,-22.1 2,-32.9 H 5.2 C 1.8,611.8 0,638.9 0,668.3 c 0,20.3 2.6,46.3 7.5,75.8 H 870.3 C 849.6,705.5 839.1,663.8 839.1,619.5 Z"
           fill="#f38020"
           id="path11" />
        <path
           d="M 57.1,429.1 C 32.7,470.2 13.9,521.8 5.2,586.6 H 841 c 6.8,-57.9 31.6,-110.1 74.3,-155.4 0.7,-0.7 1.4,-1.4 2.1,-2.1 z"
           fill="#f6bf16"
           id="path12" />
        <g
           fill="#62b947"
           id="g14">
          <path
             d="m 347.00039,268.09961 c 0,0 -5.03009,0.15039 -13.83203,1.17578 -4.40097,0.5127 -9.74508,1.24409 -15.875,2.28516 -6.12993,1.04106 -13.04532,2.3918 -20.58984,4.14257 -7.54453,1.75078 -15.71852,3.90113 -24.36329,6.54297 -8.64476,2.64185 -17.76075,5.77598 -27.1914,9.49024 -4.71533,1.85713 -9.50847,3.85834 -14.36133,6.01758 -4.85286,2.15923 -9.7657,4.47497 -14.7168,6.95898 -4.95109,2.48401 -9.94113,5.1373 -14.95117,7.96875 -5.01003,2.83145 -10.04063,5.84141 -15.07031,9.04297 -5.02968,3.20156 -10.05833,6.59511 -15.06836,10.18945 -5.01004,3.59434 -10.00008,7.39061 -14.95117,11.40039 -4.9511,4.00979 -9.86394,8.23179 -14.7168,12.67969 -4.85286,4.4479 -9.646,9.12061 -14.36133,14.0293 -4.71532,4.90868 -9.35212,10.05317 -13.89062,15.44531 -4.53851,5.39214 -8.9784,11.03143 -13.300784,16.92969 -4.322383,5.89826 -8.52678,12.05537 -12.59375,18.48242 -1.662741,2.62764 -3.197078,5.50006 -4.8125,8.21875 H 942.69375 c 3.20509,-3.33793 6.42672,-6.64166 9.73047,-9.76563 4.04843,-3.82812 8.16953,-7.49726 12.36328,-11.00976 4.19375,-3.5125 8.45899,-6.86719 12.79492,-10.07031 4.33594,-3.20313 8.7418,-6.2543 13.2168,-9.1543 -2.4125,-3.125 -5.72325,-7.25001 -9.89453,-12.07617 -4.17129,-4.82617 -9.20274,-10.35352 -15.05664,-16.28321 -5.8539,-5.92968 -12.52989,-12.26172 -19.99024,-18.69726 -3.73017,-3.21777 -7.65593,-6.46119 -11.77343,-9.69336 -4.11751,-3.23218 -8.42657,-6.45313 -12.92188,-9.625 -4.49531,-3.17187 -9.17742,-6.29517 -14.04102,-9.33203 -4.86359,-3.03686 -9.9085,-5.98731 -15.13085,-8.81446 -5.22236,-2.82714 -10.62176,-5.52954 -16.19336,-8.07226 -5.57161,-2.54272 -11.31524,-4.92578 -17.22657,-7.10938 -5.91132,-2.18359 -11.9909,-4.16821 -18.23242,-5.91796 -6.24152,-1.74976 -12.64483,-3.26465 -19.20703,-4.50586 -6.5622,-1.24121 -13.28289,-2.20923 -20.15625,-2.86719 -6.87336,-0.65796 -13.89923,-1.00586 -21.07422,-1.00586 -6.83124,0 -13.3471,0.25537 -19.57617,0.73437 -6.22907,0.47901 -12.17159,1.18204 -17.86133,2.07618 -5.68974,0.89414 -11.12659,1.9792 -16.33984,3.22461 -5.21325,1.2454 -10.2043,2.65078 -15.00391,4.18359 -4.7996,1.53281 -9.40667,3.19287 -13.85547,4.94922 -4.4488,1.75634 -8.7376,3.60938 -12.89843,5.52539 -8.32168,3.83203 -16.13087,7.92032 -23.67774,12.00781 -7.54687,4.0875 -14.83262,8.17383 -22.10742,12.00586 -7.2748,3.83203 -14.53946,7.40899 -22.04492,10.47461 -3.75273,1.53281 -7.56605,2.93818 -11.47071,4.18359 -3.90466,1.24541 -7.9001,2.33047 -12.01953,3.22461 -4.11943,0.89414 -8.36272,1.59717 -12.75976,2.07617 C 575.88851,340.24463 571.3375,340.5 566.6,340.5 c -5.21874,0 -10.21902,-0.28223 -15.03516,-0.8125 -4.81613,-0.53027 -9.44756,-1.30899 -13.92773,-2.29883 -4.48017,-0.98984 -8.80867,-2.1916 -13.01953,-3.57031 -4.21086,-1.37871 -8.3043,-2.93399 -12.3125,-4.63086 -4.0082,-1.69687 -7.9325,-3.53613 -11.80469,-5.48047 -3.87219,-1.94433 -7.69326,-3.99414 -11.49609,-6.11523 -7.60566,-4.24219 -15.13907,-8.76602 -22.86719,-13.29102 -7.72812,-4.52499 -15.65138,-9.05078 -24.03516,-13.29297 -4.19189,-2.12109 -8.49734,-4.1709 -12.95312,-6.11523 -4.45578,-1.94434 -9.06133,-3.7836 -13.84766,-5.48047 -4.78632,-1.69687 -9.75398,-3.25215 -14.9375,-4.63086 -5.18351,-1.37871 -10.58311,-2.58047 -16.23047,-3.57031 -5.64735,-0.98985 -11.54285,-1.7666 -17.7207,-2.29688 -6.17785,-0.53027 -12.63712,-0.81445 -19.41211,-0.81445 z"
             transform="translate(-25.1)"
             id="path13" />
          <path
             d="m 692.1,208.6 c 15.6,-15.5 49,-127.5 49,-208.6 -73.6,17.1 -142.5,57.5 -182.3,112.7 -39.7,55.2 -62.3,125 -48.9,208.6 99.5,-8.6 146.2,-58.6 182.2,-112.7 z"
             id="path14" />
        </g>
      </g>
    </g>
  </g>
</svg>
