<?xml version="1.0" encoding="UTF-8" standalone="no"?>
<svg
   enable-background="new 0 0 3839 844.1"
   height="141"
   viewBox="0 0 640 141"
   width="640"
   version="1.1"
   id="svg32"
   sodipodi:docname="astrocade.svg"
   inkscape:version="1.3.2 (091e20e, 2023-11-25)"
   xmlns:inkscape="http://www.inkscape.org/namespaces/inkscape"
   xmlns:sodipodi="http://sodipodi.sourceforge.net/DTD/sodipodi-0.dtd"
   xmlns="http://www.w3.org/2000/svg"
   xmlns:svg="http://www.w3.org/2000/svg">
  <defs
     id="defs32" />
  <sodipodi:namedview
     id="namedview32"
     pagecolor="#ffffff"
     bordercolor="#000000"
     borderopacity="0.25"
     inkscape:showpageshadow="2"
     inkscape:pageopacity="0.0"
     inkscape:pagecheckerboard="0"
     inkscape:deskcolor="#d1d1d1"
     inkscape:zoom="0.24557292"
     inkscape:cx="1922.0361"
     inkscape:cy="423.49947"
     inkscape:window-width="1312"
     inkscape:window-height="449"
     inkscape:window-x="0"
     inkscape:window-y="39"
     inkscape:window-maximized="0"
     inkscape:current-layer="svg32" />
  <g
     transform="scale(0.16671008,0.16704182)"
     id="g32">
    <path
       d="m 2181,773 h 26.1 0.1 v 69.4 h 28.7 V 773 h 26.1 v -23.9 h -81 z"
       id="path1" />
    <path
       d="m 2319.6,772.9 c -11,0 -16.8,3.8 -21.2,9 h -0.3 v -32.8 h -25.9 v 93.4 h 25.9 v -35.8 c 0,-10.9 5.9,-13.1 10.3,-13.1 7.6,0 8.5,5.5 8.5,13.3 v 35.5 h 25.9 v -46.5 c 0,-15.6 -11.1,-23 -23.2,-23 z"
       id="path2" />
    <path
       d="m 2389.7,772.9 c -21.4,0 -35.8,16.1 -35.8,35.8 0,22.6 16.3,35.4 38,35.4 15.4,0 29.7,-6.8 34.9,-21.4 h -24.2 c -2.1,3.2 -6.6,4.8 -10.8,4.8 -8.1,0 -12.5,-5.5 -13.2,-13.2 h 49.6 c 0,-26.4 -11.6,-41.4 -38.5,-41.4 z m -10.9,27.9 c 1.2,-7.4 5.6,-11.4 13.3,-11.4 6.7,0 11.4,5.1 11.4,11.4 z"
       id="path3" />
    <path
       d="m 2531.2,749.1 h -48.1 v 93.3 h 28.7 v -28.2 h 17 c 21.4,0 36.6,-10.6 36.6,-33.2 0,-13.4 -8.9,-31.9 -34.2,-31.9 z m -8.2,42.8 h -11.1 V 773 h 12.8 c 7.1,0 13.6,0.5 13.6,9 0,9.4 -7.9,9.9 -15.3,9.9 z"
       id="path4" />
    <path
       d="m 2599.8,785.4 h -0.3 v -10.8 h -24.8 v 67.8 h 25.9 v -26.8 c 0,-14.5 5.5,-20.5 15.7,-20.5 5.2,0 7.6,0.8 10.2,1.7 v -22.9 c -2.5,-0.6 -5,-1 -7.6,-1 -9.4,0 -14.9,4.4 -19.1,12.5 z"
       id="path5" />
    <path
       d="m 2664.4,772.9 c -25.5,0 -37,16.7 -37,35.5 0,18.9 11.5,35.7 37,35.7 25.5,0 37,-16.9 37,-35.7 0,-18.8 -11.6,-35.5 -37,-35.5 z m 0,52.3 c -9.8,0 -11.1,-9.6 -11.1,-16.8 0,-7.2 1.3,-16.7 11.1,-16.7 9.8,0 11.1,9.5 11.1,16.7 0,7.1 -1.3,16.8 -11.1,16.8 z"
       id="path6" />
    <path
       d="m 2722.2,755.5 c -5,5 -5.7,12.4 -5.4,19.1 h -10.6 v 15.9 h 10.5 v 51.9 h 25.9 v -51.9 h 13.1 v -15.9 h -13.6 c -0.4,-6.3 1.7,-8.1 8,-8.1 2.1,0 4.2,0.6 6.3,0.9 v -17.8 c -3.9,-0.1 -7.7,-0.5 -11.6,-0.5 -10.5,0 -17,0.8 -22.6,6.4 z"
       id="path7" />
    <path
       d="m 2796.3,772.9 c -21.4,0 -35.8,16.1 -35.8,35.8 0,22.6 16.3,35.4 38,35.4 15.4,0 29.7,-6.8 34.9,-21.4 h -24.2 c -2.1,3.2 -6.6,4.8 -10.8,4.8 -8.1,0 -12.5,-5.5 -13.2,-13.2 h 49.6 c 0,-26.4 -11.6,-41.4 -38.5,-41.4 z m -11,27.9 c 1.2,-7.4 5.6,-11.4 13.3,-11.4 6.7,0 11.4,5.1 11.4,11.4 z"
       id="path8" />
    <path
       d="m 2894,801.1 c -8.6,-2.8 -18.4,-3.4 -22.7,-5.2 -1.4,-0.6 -3,-1.5 -3,-3.5 0,-4.4 4.1,-5.2 7.8,-5.2 2,0 4.1,0.7 5.7,2 1.7,1.2 2.9,2.9 3,5.1 v -0.2 h 23.6 c -0.6,-17.4 -18.3,-21.4 -32.9,-21.4 -13.6,0 -32,4.5 -32,21.6 0,11.6 8,17.9 27.7,21.3 12,2.1 14.2,3.3 14.2,7.2 0,3.9 -5.4,5.2 -8.8,5.2 -3.1,0 -5.6,-0.8 -6.9,-2 -1.9,-1.7 -3,-3.6 -3.1,-6 h -24.7 c 0.4,17.5 17.9,23.9 33.8,23.9 16.5,0 34.5,-5.1 34.5,-23.9 0,-11.1 -7.6,-16.2 -16.2,-18.9 z"
       id="path9" />
    <path
       d="m 2969,801.1 c -8.6,-2.8 -18.4,-3.4 -22.7,-5.2 -1.4,-0.6 -3,-1.5 -3,-3.5 0,-4.4 4.1,-5.2 7.8,-5.2 2,0 4.1,0.7 5.7,2 1.7,1.2 2.9,2.9 3,5.1 v -0.2 h 23.6 c -0.6,-17.4 -18.3,-21.4 -32.9,-21.4 -13.6,0 -32,4.5 -32,21.6 0,11.6 8,17.9 27.7,21.3 12,2.1 14.2,3.3 14.2,7.2 0,3.9 -5.4,5.2 -8.8,5.2 -3.1,0 -5.6,-0.8 -6.9,-2 -1.9,-1.7 -3,-3.6 -3.1,-6 h -24.7 c 0.4,17.5 17.9,23.9 33.8,23.9 16.5,0 34.5,-5.1 34.5,-23.9 0,-11.1 -7.6,-16.2 -16.2,-18.9 z"
       id="path10" />
    <path
       d="m 2996.1,774.6 h 25.9 v 67.8 h -25.9 z"
       id="path11" />
    <path
       d="m 2996.1,749.1 h 25.9 v 18.2 h -25.9 z"
       id="path12" />
    <path
       d="m 3070.8,772.9 c -25.5,0 -37,16.7 -37,35.5 0,18.9 11.5,35.7 37,35.7 25.5,0 37,-16.9 37,-35.7 0,-18.8 -11.5,-35.5 -37,-35.5 z m 0,52.3 c -9.8,0 -11.1,-9.6 -11.1,-16.8 0,-7.2 1.3,-16.7 11.1,-16.7 9.8,0 11.1,9.5 11.1,16.7 0,7.1 -1.3,16.8 -11.1,16.8 z"
       id="path13" />
    <path
       d="m 3166.3,772.9 c -10.3,0 -17.3,3.5 -22.1,10.3 h -0.3 v -8.6 h -24.9 -0.1 v 67.9 h 25.9 v -35.8 c 0,-10.9 5.9,-13.1 10.3,-13.1 7.6,0 8.5,5.5 8.5,13.3 v 35.5 h 25.9 v -46.5 c 0,-15.6 -11.1,-23 -23.2,-23 z"
       id="path14" />
    <path
       d="m 3269.7,827.2 v -27.8 c 0,-13 0.3,-26.5 -32.1,-26.5 -7.9,0 -16.6,0.8 -23.1,3.9 -6.7,3.1 -11.4,8.8 -11.8,18.3 h 24 c 0.2,-2.9 1.7,-6.9 9.7,-6.9 4.2,0 8.5,1.7 8.5,6.3 0,4.3 -3.6,5.3 -7.1,6 -13.2,2.5 -38.3,1.7 -38.3,23.1 0,14.2 10.8,20.5 23.9,20.5 8.3,0 16.3,-1.8 21.8,-8.1 h 0.3 c -0.1,1.8 0.2,4.6 0.9,6.4 h 26.4 c -2.8,-4.4 -3.1,-10.1 -3.1,-15.2 z m -24.9,-9 c -0.4,7.1 -4.9,10.6 -10.8,10.6 -4.7,0 -8.1,-3.2 -8.1,-6.3 0,-4.6 3.1,-6 8.8,-7.3 3.5,-0.8 7,-1.7 10.1,-3.3 z"
       id="path15" />
    <path
       d="m 3284,749.1 h 25.9 v 93.3 H 3284 Z"
       id="path16" />
    <path
       d="m 3399.7,749.1 -34.3,93.3 h 28.9 l 4.2,-13.3 h 29.6 l 3.9,13.3 h 29.8 l -34,-93.3 z m 4.9,60 9,-28.7 h 0.3 l 8.4,28.7 z"
       id="path17" />
    <path
       d="m 3492.8,785.4 h -0.3 v -10.8 h -24.8 v 67.8 h 25.9 v -26.8 c 0,-14.5 5.5,-20.5 15.7,-20.5 5.2,0 7.6,0.8 10.2,1.7 v -22.9 c -2.5,-0.6 -5,-1 -7.6,-1 -9.4,0 -14.9,4.4 -19.1,12.5 z"
       id="path18" />
    <path
       d="m 3557.7,825.2 c -10,0 -11.4,-8.5 -11.4,-16.7 0,-8.2 1.5,-16.8 11.4,-16.8 2.7,0 4.9,0.8 6.5,2.2 1.7,1.4 2.6,3.7 2.9,6.4 v -0.1 h 24.6 c -1.6,-18.6 -16.7,-27.4 -34.5,-27.4 -20.4,0 -36.7,14.3 -36.7,35.7 0,21.4 16.3,35.5 36.7,35.5 9.1,0 17.4,-2.6 23.5,-7.4 6.3,-5 10.6,-12.2 11.8,-21.3 h -24.7 c -0.6,5.3 -4.5,9.9 -10.1,9.9 z"
       id="path19" />
    <path
       d="m 3669.2,827.2 v -27.8 c 0,-13 0.3,-26.5 -32.1,-26.5 -7.9,0 -16.6,0.8 -23.1,3.9 -6.7,3.1 -11.4,8.8 -11.8,18.3 h 24 c 0.2,-2.9 1.7,-6.9 9.7,-6.9 4.2,0 8.5,1.7 8.5,6.3 0,4.3 -3.6,5.3 -7.1,6 -13.2,2.5 -38.3,1.7 -38.3,23.1 0,14.2 10.8,20.5 23.9,20.5 8.3,0 16.3,-1.8 21.8,-8.1 h 0.3 c -0.1,1.8 0.2,4.6 0.9,6.4 h 26.4 c -2.8,-4.4 -3.1,-10.1 -3.1,-15.2 z m -24.9,-9 c -0.4,7.1 -4.9,10.6 -10.8,10.6 -4.7,0 -8.1,-3.2 -8.1,-6.3 0,-4.6 3.1,-6 8.8,-7.3 3.5,-0.8 7,-1.7 10.1,-3.3 z"
       id="path20" />
    <path
       d="m 3727.5,781.9 h -0.3 c -3.9,-5.7 -10.8,-9.1 -18.5,-9.1 -22.8,0 -28.9,19.4 -28.9,35.3 0,17 9.3,35.9 28.5,35.9 12.7,0 16.6,-4.8 19.9,-9.1 h 0.3 v 7.5 h 24.9 V 749 h -25.9 z m -10.4,43.3 c -9.3,0 -11.4,-8.7 -11.4,-16.8 0,-7.9 2.1,-16.7 11.4,-16.7 9.3,0 11.4,8.7 11.4,16.7 0,8 -2.1,16.8 -11.4,16.8 z"
       id="path21" />
    <path
       d="m 3802.6,827.5 c -8.1,0 -12.5,-5.5 -13.2,-13.2 h 49.6 c 0,-26.4 -11.6,-41.4 -38.5,-41.4 -21.4,0 -35.8,16.1 -35.8,35.8 0,22.6 16.3,35.4 38,35.4 15.4,0 29.7,-6.8 34.9,-21.4 h -24.2 c -2.1,3.2 -6.6,4.8 -10.8,4.8 z m 0.2,-38.1 c 6.7,0 11.4,5.1 11.4,11.4 h -24.7 c 1.2,-7.4 5.6,-11.4 13.3,-11.4 z"
       id="path22" />
    <path
       d="m 3720.9,118 v 15 h -29.5 v 19.9 h -29.5 v 24.8 0.1 h -0.1 -29.5 v 29.7 h -29.5 v 34.6 h -29.5 v 39.6 h -29.5 v 257.2 h 29.5 v 39.6 h 29.5 V 613 l 29.5,0.1 v 29.7 h 29.6 v 24.8 h 29.5 v 19.9 h 29.5 v 15 H 3839 V 538.8 h -88.6 V 519 h -29.5 v -19.8 h -29.5 V 479.5 H 3839 V 341.1 h -147.6 v -19.8 h 29.5 v -19.8 h 29.5 V 281.7 H 3839 V 118 Z"
       id="path23" />
    <path
       d="M 3374.2,0 V 499.2 519 h -29.5 v 19.8 h -73.8 V 519 h -29.5 v -39.6 h -29.5 V 341.1 h 29.5 v -39.6 h 29.5 v -19.8 h 73.8 V 118 h -103.3 v 15 h -29.5 v 19.9 h -29.6 v 24.8 l -29.5,0.1 v 29.7 h -29.5 v 34.6 h -29.5 v 39.6 h -29.6 v 257.1 h 29.6 v 39.6 h 29.5 v 34.5 l 29.5,0.1 v 29.7 h 29.5 v 24.8 h 29.6 v 19.9 h 29.5 v 15 h 132.8 v -15 h 29.5 l 0.1,-19.9 h 29.5 v -24.8 h 29.4 V 613 l 29.5,-0.1 v -34.5 h 29.5 V 0 Z"
       id="path24" />
    <path
       d="m 3012.6,242.1 -0.1,-34.6 H 2983 v -29.7 l -29.5,-0.1 V 152.9 H 2924 V 133 h -29.5 v -15 h -132.9 v 15 h -29.5 v 19.9 h -29.5 v 24.9 h -29.5 v 29.7 h -29.6 v 34.6 H 2614 v 39.6 h -29.5 v 257.2 h 29.5 v 39.6 h 29.5 V 613 l 29.6,0.1 v 29.7 h 29.5 v 24.8 h 29.5 v 19.9 h 29.5 v 15 H 2865 V 538.8 h -73.9 V 519 h -29.5 v -39.6 h -29.5 V 341.1 h 29.5 v -39.6 h 29.5 v -19.8 h 73.9 v 19.8 h 29.5 v 401 h 147.6 V 242.1 Z"
       id="path25" />
    <path
       d="m 2444.3,118 v 15 h -29.5 v 19.9 h -29.5 v 24.9 h -29.5 v 29.7 h -29.5 v 34.6 h -29.6 v 39.6 h -29.5 v 257.1 h 29.5 v 39.6 l 29.6,-0.1 v 0.1 34.5 l 29.5,0.1 v 29.7 h 29.5 v 24.8 h 29.5 v 19.9 h 29.5 v 15 h 118.1 V 538.8 h -88.6 V 519 h -29.5 v -39.6 h -29.5 V 341.1 h 29.5 v -39.6 h 29.5 v -19.8 h 88.6 V 118 Z"
       id="path26" />
    <g
       fill="#eec21a"
       id="g31">
      <path
         d="m 1802.3,207.5 v 34.6 l -29.5,0.1 v 39.5 h -29.5 v 257.2 h 29.5 v 39.6 h 29.5 V 613 h 29.6 v 0.1 29.7 h 29.5 v 24.8 h 29.5 v 19.9 h 29.5 v 15 H 2068 v -15 h 29.5 l 0.1,-19.9 h 29.5 v -24.8 h 29.5 V 613 l 29.5,-0.1 v -34.5 h 29.5 v -39.6 h 29.5 V 281.7 h -29.5 v -39.5 l -29.5,-0.1 v -34.6 h -29.5 V 177.8 H 2127 V 153 h -29.5 l -0.1,-20 h -29.5 v -15 h -147.6 v 15 h -29.5 v 19.9 l -29.5,0.1 v 24.8 h -29.5 v 29.7 m 265.6,271.9 h -29.5 V 519 h -29.5 v 19.8 h -88.6 V 519 h -29.5 v -39.6 h -29.5 V 341.1 h 29.5 v -39.6 h 29.5 v -19.7 h 88.6 v 19.7 h 29.5 v 39.6 h 29.5 z"
         id="path27" />
      <path
         d="m 1637.1,444.6 h 39.7 v -30.7 h 0.1 29.5 v -38.5 h 14.8 V 242.2 l -14.8,-0.1 v -34.6 h -29.6 v -29.7 h -29.5 V 153 l -29.5,-0.1 V 133 h -29.5 V 118 H 1485 l -0.1,15 h -29.5 v 19.9 l -29.5,0.1 v 24.8 h -29.5 v 29.7 h -29.5 v 34.6 l -29.5,0.1 v 460.2 h 147.5 V 281.7 l 88.6,0.1 v 79 H 1544 v 19.8 h -29.5 v 121.5 l 87.1,200.3 h 147.6 z"
         id="path28" />
      <path
         d="M 1241.4,538.8 V 519 h -29.5 v -39.6 h -29.5 l -0.1,-217.5 h 86.9 v -54.4 l -29.5,-0.1 v -29.7 h -29.5 v -24.8 h -29.5 V 63.7 h -147.5 v 89.2 h -29.5 l -0.1,24.9 h -29.5 v 29.7 h -29.5 v 54.4 h 90.3 v 276.9 h 29.5 v 39.6 h 29.5 v 34.5 l 29.5,0.1 v 29.7 h 29.4 v 24.8 h 29.5 l 0.1,19.9 h 29.5 v 15 h 103.4 V 538.8 Z"
         id="path29" />
      <path
         d="m 892.9,242.1 v -34.6 h -29.5 v -29.7 l -29.5,-0.1 V 152.9 H 804.4 V 133 h -29.5 l -0.1,-15 H 745.3 627.2 v 15 h -29.5 v 19.9 l -29.5,0.1 v 24.8 h -29.5 v 29.7 h -29.5 v 34.6 l -29.6,0.1 v 138.5 h 29.5 l 0.1,-0.1 v 39.5 h 29.5 v 39.6 h 206.6 v 19.7 h 29.5 l 0.1,39.6 h -29.6 v 19.7 H 656.8 L 656.7,519 H 627.2 V 499.2 H 479.6 v 79.2 h 29.5 l 0.1,34.5 29.5,0.1 v 29.7 h 29.5 v 24.8 h 29.5 v 19.9 h 29.5 v 15 h 147.6 l 0.1,-15 h 29.5 v -19.9 h 29.5 v -24.8 h 29.5 v -29.8 h 29.5 l 0.1,-34.6 h 29.5 V 439.8 H 893 l -0.1,-39.5 H 863.4 V 360.8 H 656.8 l -0.1,-19.7 h -29.5 v -39.6 h 29.5 l 0.1,-19.7 88.5,-0.1 v 19.8 h 29.5 l 0.1,19.8 h 147.6 v -79.2 z"
         id="path30" />
      <path
         d="m 428,242.1 v -34.6 h -29.5 l -0.1,-29.7 H 369 V 152.9 H 339.5 V 133 H 310 V 118 H 177.1 v 15 h -29.5 v 19.9 l -29.5,0.1 v 24.8 H 88.6 v 29.7 H 59 v 34.6 l -29.5,0.1 v 39.5 H 0 v 257.1 h 29.5 v 39.6 H 59 v 34.5 h 29.6 v 0.1 29.7 h 29.5 v 24.8 h 29.5 v 19.9 h 29.5 v 15 H 280.5 V 538.8 H 206.6 V 519 H 177.1 V 479.4 H 147.6 V 341.1 h 29.5 v -39.6 h 29.5 l 0.1,-19.7 73.8,-0.1 v 19.8 H 310 v 401 H 457.5 V 242.1 Z"
         id="path31" />
    </g>
  </g>
</svg>
