<?xml version="1.0" encoding="UTF-8" standalone="no"?>
<svg
   height="67"
   viewBox="0 0 640 67"
   width="640"
   version="1.1"
   id="svg43"
   sodipodi:docname="coco.svg"
   inkscape:version="1.3.2 (091e20e, 2023-11-25)"
   xmlns:inkscape="http://www.inkscape.org/namespaces/inkscape"
   xmlns:sodipodi="http://sodipodi.sourceforge.net/DTD/sodipodi-0.dtd"
   xmlns:xlink="http://www.w3.org/1999/xlink"
   xmlns="http://www.w3.org/2000/svg"
   xmlns:svg="http://www.w3.org/2000/svg">
  <defs
     id="defs43">
    <linearGradient
       inkscape:collect="always"
       xlink:href="#k"
       id="linearGradient1"
       gradientUnits="userSpaceOnUse"
       x1="909.49982"
       y1="133.5766"
       x2="909.49982"
       y2="316.69281" />
    <linearGradient
       inkscape:collect="always"
       xlink:href="#k"
       id="linearGradient2"
       gradientUnits="userSpaceOnUse"
       x1="1295.1185"
       y1="80.167702"
       x2="1295.1185"
       y2="316.69269" />
    <linearGradient
       inkscape:collect="always"
       xlink:href="#k"
       id="linearGradient3"
       gradientUnits="userSpaceOnUse"
       x1="1466.0016"
       y1="80.167702"
       x2="1466.0016"
       y2="316.69269" />
    <linearGradient
       inkscape:collect="always"
       xlink:href="#k"
       id="linearGradient4"
       gradientUnits="userSpaceOnUse"
       x1="2030.5834"
       y1="80.167702"
       x2="2030.5834"
       y2="316.69269" />
    <linearGradient
       inkscape:collect="always"
       xlink:href="#k"
       id="linearGradient5"
       gradientUnits="userSpaceOnUse"
       x1="760.71368"
       y1="80.167702"
       x2="760.71368"
       y2="316.69269" />
    <linearGradient
       inkscape:collect="always"
       xlink:href="#k"
       id="linearGradient6"
       gradientUnits="userSpaceOnUse"
       x1="573.19061"
       y1="133.5766"
       x2="573.19061"
       y2="316.69269" />
    <linearGradient
       inkscape:collect="always"
       xlink:href="#k"
       id="linearGradient7"
       gradientUnits="userSpaceOnUse"
       x1="1643.6339"
       y1="133.5766"
       x2="1643.6339"
       y2="316.69269" />
    <linearGradient
       inkscape:collect="always"
       xlink:href="#k"
       id="linearGradient8"
       gradientUnits="userSpaceOnUse"
       x1="405.42719"
       y1="80.167702"
       x2="405.42719"
       y2="316.69269" />
    <linearGradient
       inkscape:collect="always"
       xlink:href="#k"
       id="linearGradient9"
       gradientUnits="userSpaceOnUse"
       x1="1056.1359"
       y1="126.4236"
       x2="1056.1359"
       y2="323.84579" />
    <linearGradient
       inkscape:collect="always"
       xlink:href="#k"
       id="linearGradient10"
       gradientUnits="userSpaceOnUse"
       x1="1837.2412"
       y1="126.4236"
       x2="1837.2412"
       y2="323.84579" />
  </defs>
  <sodipodi:namedview
     id="namedview43"
     pagecolor="#ffffff"
     bordercolor="#000000"
     borderopacity="0.25"
     inkscape:showpageshadow="2"
     inkscape:pageopacity="0.0"
     inkscape:pagecheckerboard="0"
     inkscape:deskcolor="#d1d1d1"
     inkscape:zoom="1"
     inkscape:cx="313.5"
     inkscape:cy="22"
     inkscape:window-width="1312"
     inkscape:window-height="449"
     inkscape:window-x="0"
     inkscape:window-y="39"
     inkscape:window-maximized="0"
     inkscape:current-layer="svg43" />
  <linearGradient
     id="a"
     gradientUnits="userSpaceOnUse"
     x1="909.49982"
     x2="909.49982"
     xlink:href="#k"
     y1="133.5766"
     y2="316.69281" />
  <linearGradient
     id="b"
     gradientUnits="userSpaceOnUse"
     x1="1295.1185"
     x2="1295.1185"
     xlink:href="#k"
     y1="80.167702"
     y2="316.69269" />
  <linearGradient
     id="c"
     gradientUnits="userSpaceOnUse"
     x1="1466.0016"
     x2="1466.0016"
     xlink:href="#k"
     y1="80.167702"
     y2="316.69269" />
  <linearGradient
     id="d"
     gradientUnits="userSpaceOnUse"
     x1="2030.5834"
     x2="2030.5834"
     xlink:href="#k"
     y1="80.167702"
     y2="316.69269" />
  <linearGradient
     id="e"
     gradientUnits="userSpaceOnUse"
     x1="760.71368"
     x2="760.71368"
     xlink:href="#k"
     y1="80.167702"
     y2="316.69269" />
  <linearGradient
     id="f"
     gradientUnits="userSpaceOnUse"
     x1="573.19061"
     x2="573.19061"
     xlink:href="#k"
     y1="133.5766"
     y2="316.69269" />
  <linearGradient
     id="g"
     gradientUnits="userSpaceOnUse"
     x1="1643.6339"
     x2="1643.6339"
     xlink:href="#k"
     y1="133.5766"
     y2="316.69269" />
  <linearGradient
     id="h"
     gradientUnits="userSpaceOnUse"
     x1="405.42719"
     x2="405.42719"
     xlink:href="#k"
     y1="80.167702"
     y2="316.69269" />
  <linearGradient
     id="i"
     gradientUnits="userSpaceOnUse"
     x1="1056.1359"
     x2="1056.1359"
     xlink:href="#k"
     y1="126.4236"
     y2="323.84579" />
  <linearGradient
     id="j"
     gradientUnits="userSpaceOnUse"
     x1="1837.2412"
     x2="1837.2412"
     xlink:href="#k"
     y1="126.4236"
     y2="323.84579" />
  <linearGradient
     id="k">
    <stop
       offset="0"
       stop-color="#fff"
       id="stop1" />
    <stop
       offset="1"
       stop-color="#a5a7aa"
       id="stop2" />
    <stop
       offset="1"
       id="stop3" />
  </linearGradient>
  <g
     id="g1"
     transform="scale(0.16666667,0.16584158)">
    <g
       id="g45">
      <g
         id="g44">
        <g
           transform="matrix(1,0,0,0.99972261,0,0.11206691)"
           id="g43">
          <g
             id="g22">
            <path
               d="M 2389.3,404 H 43.6 C 19.5,404 0,384.5 0,360.4 V 43.6 C 0,19.5 19.5,0 43.6,0 h 2345.7 c 24.1,0 43.6,19.5 43.6,43.6 v 316.7 c 0.1,24.2 -19.4,43.7 -43.6,43.7 z"
               id="path3" />
            <path
               d="m 873,133.6 h 73 v 183.1 h -73 z"
               fill="url(#a)"
               id="path4"
               style="fill:url(#linearGradient1)" />
            <path
               d="m 1258.6,160.1 v 58.7 c 0,13.8 -11.2,25 -25,25 h -20.2 v 73 h 38.1 c 44.2,0 80,-35.8 80,-80 v -58.7 c 0,-13.8 11.2,-25 25,-25 h 20.2 v -73 h -38.1 c -44.2,0.1 -80,35.9 -80,80 z"
               fill="url(#b)"
               id="path5"
               style="fill:url(#linearGradient2)" />
            <path
               d="M 1456.2,133.6 V 80.2 h -73 v 236.5 h 73 V 201.2 c 0,-5.4 4.4,-9.8 9.8,-9.8 5.4,0 9.8,4.4 9.8,9.8 v 115.5 h 73 V 185.8 c 0,-28.9 -23.4,-52.3 -52.3,-52.3 h -40.3 z"
               fill="url(#c)"
               id="path6"
               style="fill:url(#linearGradient3)" />
            <path
               d="M 2116.6,316.7 2076.4,211 2112,156.6 h -77 l -32.5,49.7 V 80.2 h -57.9 v 236.5 h 57.9 v -49.8 c 0,-9.2 12.8,-11.6 16.1,-3 l 20.1,52.7 h 77.9 z"
               fill="url(#d)"
               id="path7"
               style="fill:url(#linearGradient4)" />
            <path
               d="m 786.9,80.2 v 53.4 h -27.3 c -50.6,0 -91.6,41 -91.6,91.6 0,50.6 41,91.6 91.6,91.6 h 27.3 27.3 39.3 V 80.2 Z m -26.2,201 c -16.1,0 -29.2,-13.1 -29.2,-29.2 0,-16.1 13.1,-29.2 29.2,-29.2 16.1,0 29.2,13.1 29.2,29.2 0,16.1 -13.1,29.2 -29.2,29.2 z"
               fill="url(#e)"
               id="path8"
               style="fill:url(#linearGradient5)" />
            <path
               d="m 605.2,133.6 h -96.5 v 57.9 h 58.1 c 4.2,0 7.6,3.4 7.6,7.6 0,4.2 -3.4,7.6 -7.6,7.6 h -21.7 c -30,0 -55.4,23.5 -56.2,53.5 -0.9,31.1 24.1,56.6 55.1,56.6 h 30.4 10.2 53.4 9.4 10.2 v -131 C 657.5,157 634.1,133.6 605.2,133.6 Z m -39.3,147.6 c -16.1,0 -29.2,-13.1 -29.2,-29.2 0,-16.1 13.1,-29.2 29.2,-29.2 16.1,0 29.2,13.1 29.2,29.2 0,16.1 -13.1,29.2 -29.2,29.2 z"
               fill="url(#f)"
               id="path9"
               style="fill:url(#linearGradient6)" />
            <path
               d="m 1675.7,133.6 h -96.5 v 57.9 h 58.1 c 4.2,0 7.6,3.4 7.6,7.6 0,4.2 -3.4,7.6 -7.6,7.6 h -21.7 c -30,0 -55.4,23.5 -56.2,53.5 -0.9,31.1 24.1,56.6 55.1,56.6 h 30.4 10.2 53.4 9.4 10.2 v -131 c -0.2,-28.8 -23.6,-52.2 -52.4,-52.2 z m -39.3,147.6 c -16.1,0 -29.2,-13.1 -29.2,-29.2 0,-16.1 13.1,-29.2 29.2,-29.2 16.1,0 29.2,13.1 29.2,29.2 0,16.1 -13.1,29.2 -29.2,29.2 z"
               fill="url(#g)"
               id="path10"
               style="fill:url(#linearGradient7)" />
            <path
               d="m 447.4,216.3 c 27.1,-9.7 46.6,-35.6 46.6,-66 0,-38.7 -31.4,-70.1 -70.1,-70.1 -1.4,0 -107.5,0 -107.5,0 V 316.7 H 383 v -45.6 c 0,-8.4 11.4,-11 15,-3.3 l 23,48.9 h 73.6 z m -53.2,17.3 c -16.1,0 -29.2,-13.1 -29.2,-29.2 0,-16.1 13.1,-29.2 29.2,-29.2 16.1,0 29.2,13.1 29.2,29.2 0,16.1 -13,29.2 -29.2,29.2 z"
               fill="url(#h)"
               id="path11"
               style="fill:url(#linearGradient8)" />
            <path
               d="m 1056.1,126.4 c -54.5,0 -98.7,44.2 -98.7,98.7 0,54.5 44.2,98.7 98.7,98.7 54.5,0 98.7,-44.2 98.7,-98.7 0,-54.5 -44.1,-98.7 -98.7,-98.7 z m 0,154.8 c -16.1,0 -29.2,-13.1 -29.2,-29.2 0,-16.1 13.1,-29.2 29.2,-29.2 16.1,0 29.2,13.1 29.2,29.2 0,16.1 -13,29.2 -29.2,29.2 z"
               fill="url(#i)"
               id="path12"
               style="fill:url(#linearGradient9)" />
            <path
               d="m 1864.5,262.5 c -4.2,10.9 -14.8,18.7 -27.2,18.7 -16.1,0 -29.2,-13.1 -29.2,-29.2 0,-16.1 13.1,-29.2 29.2,-29.2 12.4,0 23,7.8 27.2,18.7 h 70.1 c 0.9,-5.3 1.4,-10.8 1.4,-16.4 0,-54.5 -44.2,-98.7 -98.7,-98.7 -54.5,0 -98.7,44.2 -98.7,98.7 0,54.5 44.2,98.7 98.7,98.7 41.3,0 76.6,-25.3 91.4,-61.3 z"
               fill="url(#j)"
               id="path13"
               style="fill:url(#linearGradient10)" />
            <path
               d="m 2821.3,33.7 v 93.2 h -39.9 V 33.7 h -55.7 V 1.9 H 2877 v 31.9 h -55.7 z"
               id="path14" />
            <path
               d="m 3047.8,68.4 c -4.1,7.1 -11.4,8.8 -19.1,10.1 18.9,1.3 21.9,10.5 21.9,27.9 v 20.4 h -37.5 c 0,-7.5 0.4,-15.4 -1.1,-22.7 -1.7,-8.2 -7.5,-9 -15,-9 h -62.6 v 31.7 h -38 V 1.9 h 92 c 6.7,0 13.7,0.2 20.4,0.2 14.2,0.2 30.2,-1.3 38.6,12.7 4.9,8.1 4.5,19.3 4.5,28.3 0,8.3 0.2,18 -4.1,25.3 z m -49.7,-35.2 h -63.7 v 30.7 h 53.6 c 2.8,0 5.6,-0.2 8.4,-0.2 13.7,-0.4 17.4,-0.7 17.4,-15.7 0,-12.8 -3.1,-14.8 -15.7,-14.8 z"
               id="path15" />
            <path
               d="m 3215,118.8 c -9,9.7 -28.7,9.4 -40.9,9.6 -9.7,0.4 -19.5,0.4 -29.2,0.4 -16.3,0 -36,0.6 -51.9,-3 -6,-1.3 -11.2,-3.7 -15.6,-8.1 -6.4,-6.2 -7.1,-14.2 -7.1,-22.7 0,-3.2 0.2,-6.4 0.4,-9.6 h 36.7 c 0,2.8 0,5.4 0.9,8.1 0.6,1.7 1.3,2.8 2.8,3.9 3.6,2.8 14.2,2.4 18.4,2.4 5.4,0 10.7,0.2 16.1,0.2 6.7,0 13.3,-0.2 20.1,-0.2 4.7,0 16.5,0.6 19.7,-3.9 1.3,-2.1 1.3,-4.9 1.3,-7.1 0,-9.6 -7.5,-9.2 -15.2,-9.4 -20.1,-0.6 -40.1,-1.7 -60.2,-2.4 -10.9,-0.4 -24.7,-0.7 -32.6,-9.6 -6.6,-7.3 -7.1,-17.8 -7.1,-27.2 0,-22.3 5.8,-36.4 29.8,-38.8 16.1,-1.7 32.8,-1.5 49.1,-1.5 15.7,0 32.4,-0.4 47.8,3.4 17.1,4.3 20.6,15.6 20.6,31.9 v 6 H 3182 v -1.9 c 0,-3.6 -0.4,-6.2 -3.6,-8.2 -3.6,-2.4 -12,-2.2 -16.1,-2.2 h -32.4 c -3.9,0 -15,-0.2 -18.4,2.2 -2.4,1.7 -3,4.7 -3,7.5 0,2.2 0.6,5.2 2.4,6.7 1.3,1.1 3.2,1.5 4.9,1.7 4.3,0.7 8.8,0.7 13.1,0.9 8.4,0.4 16.9,0.7 25.3,0.9 14.4,0.4 35.1,0.2 49.1,3.9 4.5,1.3 8.4,3.2 12,6.4 7.7,6.7 8.1,19.7 8.1,29.1 0,10.6 -0.9,22.6 -8.4,30.6 z"
               id="path16" />
            <path
               d="m 3466.8,120.7 c -12.4,9 -42.2,7.7 -57,7.7 h -17.1 c -15.4,0 -40.7,1.1 -53.8,-7.7 -8.8,-6 -9.6,-18 -9.6,-27.7 0,-8.2 0.7,-17.1 6.7,-23.2 4.5,-4.7 11.4,-5.6 17.6,-6.7 -2.8,-0.2 -5.8,-0.4 -8.6,-1.1 -12.6,-3.4 -14.2,-15.7 -14.2,-27 0,-18.2 5.4,-28.9 24.4,-31.9 15.6,-2.4 31.9,-2.6 47.6,-2.6 8.6,0 17.2,0.2 25.9,0.6 11.1,0.6 26.8,0.9 36.2,7.3 8.6,5.8 9.9,17.6 9.9,27.2 0,7.3 -0.9,15.7 -5.8,21.4 -4.5,5.2 -10.5,5.8 -17.1,6.2 6.7,1.1 12.6,1.9 17.6,6.7 6.6,6.2 6.7,17.1 6.7,25.5 0.1,9.2 -1.2,19.5 -9.4,25.3 z M 3437.7,80 c -2.8,-2.8 -13.1,-2.6 -16.7,-2.6 -6.7,-0.2 -13.5,-0.4 -20.2,-0.4 -6.2,0 -28.1,-0.6 -32.2,2.4 -2.8,2.1 -2.8,6.7 -2.8,9.9 0,2.8 0.2,6 2.4,8.1 4.3,3.8 27.4,2.8 32.8,2.8 6.6,0 13.1,-0.2 19.7,-0.4 4.7,0 15.9,0.6 18.4,-4.9 0.9,-2.1 0.9,-4.9 0.9,-7.1 0,-2.5 -0.2,-5.9 -2.3,-7.8 z M 3421,28.9 c -7.5,-0.2 -14.8,-0.4 -22.3,-0.4 -7.7,0 -15.7,-0.2 -23.4,0.9 -6.4,0.9 -8.1,4.3 -8.1,10.5 0,6.6 2.2,8.8 8.6,9.6 13.3,1.3 27.6,0.7 40.9,0.7 4.3,0 16.9,0 19.9,-3 1.9,-1.9 1.9,-5.4 1.9,-7.9 0,-10.8 -8.8,-10.2 -17.5,-10.4 z"
               id="path17" />
            <path
               d="m 3628.4,126.2 c -15,2.4 -35.2,2.2 -50.4,2.2 -9.4,0 -18.6,-0.2 -27.9,-0.4 -20.6,-0.4 -44.6,-1.1 -49.1,-26.1 -2.1,-11.6 -1.5,-25.7 -1.5,-37.5 0,-7.5 0,-14.8 0.2,-22.3 0.2,-10.5 0.9,-22.5 8.6,-30.6 5.1,-5.2 12.2,-7.9 19.3,-9 15,-2.4 35.1,-2.2 50.4,-2.2 9.2,0 18.6,0.4 27.7,0.6 32.1,0.8 50.6,4.1 50.6,41.2 v 44.6 c 0,20.9 -5.3,35.7 -27.9,39.5 z m -18.2,-91 c -4.3,-1.9 -10.7,-2.1 -15.4,-2.1 -7.5,0 -15,-0.2 -22.7,-0.2 -7.7,0 -16.1,-0.2 -23.6,1.5 -2.2,0.6 -4.5,1.3 -6.2,3.2 -5.1,5.2 -4.7,20.1 -4.7,26.8 0,6.2 -0.4,20.8 3.9,25.9 1.9,2.2 4.1,3.2 6.9,3.9 8.1,1.9 21.4,1.9 29.8,1.7 l 16.5,-0.4 c 4.7,-0.2 11.1,-0.2 15.4,-2.3 9.4,-4.1 8.1,-20.6 8.1,-28.9 0,-8.1 1.4,-24.7 -8,-29.1 z"
               id="path18" />
            <path
               d="m 3249.8,65.9 h 49.7 v 33.2 h -49.7 z"
               id="path19" />
            <path
               d="m 2831.7,404 h -246 c -24.1,0 -43.6,-19.5 -43.6,-43.6 v -82.7 c 0,-24.1 19.5,-43.6 43.6,-43.6 h 246 c 24.1,0 43.6,19.5 43.6,43.6 v 82.7 c 0.1,24.1 -19.5,43.6 -43.6,43.6 z"
               fill="#dd243c"
               id="path20" />
            <path
               d="m 3314,404 h -246 c -24.1,0 -43.6,-19.5 -43.6,-43.6 v -82.7 c 0,-24.1 19.5,-43.6 43.6,-43.6 h 246 c 24.1,0 43.6,19.5 43.6,43.6 v 82.7 c 0.1,24.1 -19.5,43.6 -43.6,43.6 z"
               fill="#1aaa4b"
               id="path21" />
            <path
               d="m 3796.4,404 h -246 c -24.1,0 -43.6,-19.5 -43.6,-43.6 v -82.7 c 0,-24.1 19.5,-43.6 43.6,-43.6 h 246 c 24.1,0 43.6,19.5 43.6,43.6 v 82.7 c 0,24.1 -19.5,43.6 -43.6,43.6 z"
               fill="#1094d2"
               id="path22" />
          </g>
          <g
             id="g42">
            <path
               d="M 2389.3,404 H 43.6 C 19.5,404 0,384.5 0,360.4 V 43.6 C 0,19.5 19.5,0 43.6,0 h 2345.7 c 24.1,0 43.6,19.5 43.6,43.6 v 316.7 c 0.1,24.2 -19.4,43.7 -43.6,43.7 z"
               id="path23" />
            <path
               d="m 873,133.6 h 73 v 183.1 h -73 z"
               fill="url(#a)"
               id="path24"
               style="fill:url(#a)" />
            <path
               d="m 1258.6,160.1 v 58.7 c 0,13.8 -11.2,25 -25,25 h -20.2 v 73 h 38.1 c 44.2,0 80,-35.8 80,-80 v -58.7 c 0,-13.8 11.2,-25 25,-25 h 20.2 v -73 h -38.1 c -44.2,0.1 -80,35.9 -80,80 z"
               fill="url(#b)"
               id="path25"
               style="fill:url(#b)" />
            <path
               d="M 1456.2,133.6 V 80.2 h -73 v 236.5 h 73 V 201.2 c 0,-5.4 4.4,-9.8 9.8,-9.8 5.4,0 9.8,4.4 9.8,9.8 v 115.5 h 73 V 185.8 c 0,-28.9 -23.4,-52.3 -52.3,-52.3 h -40.3 z"
               fill="url(#c)"
               id="path26"
               style="fill:url(#c)" />
            <path
               d="M 2116.6,316.7 2076.4,211 2112,156.6 h -77 l -32.5,49.7 V 80.2 h -57.9 v 236.5 h 57.9 v -49.8 c 0,-9.2 12.8,-11.6 16.1,-3 l 20.1,52.7 h 77.9 z"
               fill="url(#d)"
               id="path27"
               style="fill:url(#d)" />
            <path
               d="m 786.9,80.2 v 53.4 h -27.3 c -50.6,0 -91.6,41 -91.6,91.6 0,50.6 41,91.6 91.6,91.6 h 27.3 27.3 39.3 V 80.2 Z m -26.2,201 c -16.1,0 -29.2,-13.1 -29.2,-29.2 0,-16.1 13.1,-29.2 29.2,-29.2 16.1,0 29.2,13.1 29.2,29.2 0,16.1 -13.1,29.2 -29.2,29.2 z"
               fill="url(#e)"
               id="path28"
               style="fill:url(#e)" />
            <path
               d="m 605.2,133.6 h -96.5 v 57.9 h 58.1 c 4.2,0 7.6,3.4 7.6,7.6 0,4.2 -3.4,7.6 -7.6,7.6 h -21.7 c -30,0 -55.4,23.5 -56.2,53.5 -0.9,31.1 24.1,56.6 55.1,56.6 h 30.4 10.2 53.4 9.4 10.2 v -131 C 657.5,157 634.1,133.6 605.2,133.6 Z m -39.3,147.6 c -16.1,0 -29.2,-13.1 -29.2,-29.2 0,-16.1 13.1,-29.2 29.2,-29.2 16.1,0 29.2,13.1 29.2,29.2 0,16.1 -13.1,29.2 -29.2,29.2 z"
               fill="url(#f)"
               id="path29"
               style="fill:url(#f)" />
            <path
               d="m 1675.7,133.6 h -96.5 v 57.9 h 58.1 c 4.2,0 7.6,3.4 7.6,7.6 0,4.2 -3.4,7.6 -7.6,7.6 h -21.7 c -30,0 -55.4,23.5 -56.2,53.5 -0.9,31.1 24.1,56.6 55.1,56.6 h 30.4 10.2 53.4 9.4 10.2 v -131 c -0.2,-28.8 -23.6,-52.2 -52.4,-52.2 z m -39.3,147.6 c -16.1,0 -29.2,-13.1 -29.2,-29.2 0,-16.1 13.1,-29.2 29.2,-29.2 16.1,0 29.2,13.1 29.2,29.2 0,16.1 -13.1,29.2 -29.2,29.2 z"
               fill="url(#g)"
               id="path30"
               style="fill:url(#g)" />
            <path
               d="m 447.4,216.3 c 27.1,-9.7 46.6,-35.6 46.6,-66 0,-38.7 -31.4,-70.1 -70.1,-70.1 -1.4,0 -107.5,0 -107.5,0 V 316.7 H 383 v -45.6 c 0,-8.4 11.4,-11 15,-3.3 l 23,48.9 h 73.6 z m -53.2,17.3 c -16.1,0 -29.2,-13.1 -29.2,-29.2 0,-16.1 13.1,-29.2 29.2,-29.2 16.1,0 29.2,13.1 29.2,29.2 0,16.1 -13,29.2 -29.2,29.2 z"
               fill="url(#h)"
               id="path31"
               style="fill:url(#h)" />
            <path
               d="m 1056.1,126.4 c -54.5,0 -98.7,44.2 -98.7,98.7 0,54.5 44.2,98.7 98.7,98.7 54.5,0 98.7,-44.2 98.7,-98.7 0,-54.5 -44.1,-98.7 -98.7,-98.7 z m 0,154.8 c -16.1,0 -29.2,-13.1 -29.2,-29.2 0,-16.1 13.1,-29.2 29.2,-29.2 16.1,0 29.2,13.1 29.2,29.2 0,16.1 -13,29.2 -29.2,29.2 z"
               fill="url(#i)"
               id="path32"
               style="fill:url(#i)" />
            <path
               d="m 1864.5,262.5 c -4.2,10.9 -14.8,18.7 -27.2,18.7 -16.1,0 -29.2,-13.1 -29.2,-29.2 0,-16.1 13.1,-29.2 29.2,-29.2 12.4,0 23,7.8 27.2,18.7 h 70.1 c 0.9,-5.3 1.4,-10.8 1.4,-16.4 0,-54.5 -44.2,-98.7 -98.7,-98.7 -54.5,0 -98.7,44.2 -98.7,98.7 0,54.5 44.2,98.7 98.7,98.7 41.3,0 76.6,-25.3 91.4,-61.3 z"
               fill="url(#j)"
               id="path33"
               style="fill:url(#j)" />
            <path
               d="m 2821.3,33.7 v 93.2 h -39.9 V 33.7 h -55.7 V 1.9 H 2877 v 31.9 h -55.7 z"
               id="path34" />
            <path
               d="m 3047.8,68.4 c -4.1,7.1 -11.4,8.8 -19.1,10.1 18.9,1.3 21.9,10.5 21.9,27.9 v 20.4 h -37.5 c 0,-7.5 0.4,-15.4 -1.1,-22.7 -1.7,-8.2 -7.5,-9 -15,-9 h -62.6 v 31.7 h -38 V 1.9 h 92 c 6.7,0 13.7,0.2 20.4,0.2 14.2,0.2 30.2,-1.3 38.6,12.7 4.9,8.1 4.5,19.3 4.5,28.3 0,8.3 0.2,18 -4.1,25.3 z m -49.7,-35.2 h -63.7 v 30.7 h 53.6 c 2.8,0 5.6,-0.2 8.4,-0.2 13.7,-0.4 17.4,-0.7 17.4,-15.7 0,-12.8 -3.1,-14.8 -15.7,-14.8 z"
               id="path35" />
            <path
               d="m 3215,118.8 c -9,9.7 -28.7,9.4 -40.9,9.6 -9.7,0.4 -19.5,0.4 -29.2,0.4 -16.3,0 -36,0.6 -51.9,-3 -6,-1.3 -11.2,-3.7 -15.6,-8.1 -6.4,-6.2 -7.1,-14.2 -7.1,-22.7 0,-3.2 0.2,-6.4 0.4,-9.6 h 36.7 c 0,2.8 0,5.4 0.9,8.1 0.6,1.7 1.3,2.8 2.8,3.9 3.6,2.8 14.2,2.4 18.4,2.4 5.4,0 10.7,0.2 16.1,0.2 6.7,0 13.3,-0.2 20.1,-0.2 4.7,0 16.5,0.6 19.7,-3.9 1.3,-2.1 1.3,-4.9 1.3,-7.1 0,-9.6 -7.5,-9.2 -15.2,-9.4 -20.1,-0.6 -40.1,-1.7 -60.2,-2.4 -10.9,-0.4 -24.7,-0.7 -32.6,-9.6 -6.6,-7.3 -7.1,-17.8 -7.1,-27.2 0,-22.3 5.8,-36.4 29.8,-38.8 16.1,-1.7 32.8,-1.5 49.1,-1.5 15.7,0 32.4,-0.4 47.8,3.4 17.1,4.3 20.6,15.6 20.6,31.9 v 6 H 3182 v -1.9 c 0,-3.6 -0.4,-6.2 -3.6,-8.2 -3.6,-2.4 -12,-2.2 -16.1,-2.2 h -32.4 c -3.9,0 -15,-0.2 -18.4,2.2 -2.4,1.7 -3,4.7 -3,7.5 0,2.2 0.6,5.2 2.4,6.7 1.3,1.1 3.2,1.5 4.9,1.7 4.3,0.7 8.8,0.7 13.1,0.9 8.4,0.4 16.9,0.7 25.3,0.9 14.4,0.4 35.1,0.2 49.1,3.9 4.5,1.3 8.4,3.2 12,6.4 7.7,6.7 8.1,19.7 8.1,29.1 0,10.6 -0.9,22.6 -8.4,30.6 z"
               id="path36" />
            <path
               d="m 3466.8,120.7 c -12.4,9 -42.2,7.7 -57,7.7 h -17.1 c -15.4,0 -40.7,1.1 -53.8,-7.7 -8.8,-6 -9.6,-18 -9.6,-27.7 0,-8.2 0.7,-17.1 6.7,-23.2 4.5,-4.7 11.4,-5.6 17.6,-6.7 -2.8,-0.2 -5.8,-0.4 -8.6,-1.1 -12.6,-3.4 -14.2,-15.7 -14.2,-27 0,-18.2 5.4,-28.9 24.4,-31.9 15.6,-2.4 31.9,-2.6 47.6,-2.6 8.6,0 17.2,0.2 25.9,0.6 11.1,0.6 26.8,0.9 36.2,7.3 8.6,5.8 9.9,17.6 9.9,27.2 0,7.3 -0.9,15.7 -5.8,21.4 -4.5,5.2 -10.5,5.8 -17.1,6.2 6.7,1.1 12.6,1.9 17.6,6.7 6.6,6.2 6.7,17.1 6.7,25.5 0.1,9.2 -1.2,19.5 -9.4,25.3 z M 3437.7,80 c -2.8,-2.8 -13.1,-2.6 -16.7,-2.6 -6.7,-0.2 -13.5,-0.4 -20.2,-0.4 -6.2,0 -28.1,-0.6 -32.2,2.4 -2.8,2.1 -2.8,6.7 -2.8,9.9 0,2.8 0.2,6 2.4,8.1 4.3,3.8 27.4,2.8 32.8,2.8 6.6,0 13.1,-0.2 19.7,-0.4 4.7,0 15.9,0.6 18.4,-4.9 0.9,-2.1 0.9,-4.9 0.9,-7.1 0,-2.5 -0.2,-5.9 -2.3,-7.8 z M 3421,28.9 c -7.5,-0.2 -14.8,-0.4 -22.3,-0.4 -7.7,0 -15.7,-0.2 -23.4,0.9 -6.4,0.9 -8.1,4.3 -8.1,10.5 0,6.6 2.2,8.8 8.6,9.6 13.3,1.3 27.6,0.7 40.9,0.7 4.3,0 16.9,0 19.9,-3 1.9,-1.9 1.9,-5.4 1.9,-7.9 0,-10.8 -8.8,-10.2 -17.5,-10.4 z"
               id="path37" />
            <path
               d="m 3628.4,126.2 c -15,2.4 -35.2,2.2 -50.4,2.2 -9.4,0 -18.6,-0.2 -27.9,-0.4 -20.6,-0.4 -44.6,-1.1 -49.1,-26.1 -2.1,-11.6 -1.5,-25.7 -1.5,-37.5 0,-7.5 0,-14.8 0.2,-22.3 0.2,-10.5 0.9,-22.5 8.6,-30.6 5.1,-5.2 12.2,-7.9 19.3,-9 15,-2.4 35.1,-2.2 50.4,-2.2 9.2,0 18.6,0.4 27.7,0.6 32.1,0.8 50.6,4.1 50.6,41.2 v 44.6 c 0,20.9 -5.3,35.7 -27.9,39.5 z m -18.2,-91 c -4.3,-1.9 -10.7,-2.1 -15.4,-2.1 -7.5,0 -15,-0.2 -22.7,-0.2 -7.7,0 -16.1,-0.2 -23.6,1.5 -2.2,0.6 -4.5,1.3 -6.2,3.2 -5.1,5.2 -4.7,20.1 -4.7,26.8 0,6.2 -0.4,20.8 3.9,25.9 1.9,2.2 4.1,3.2 6.9,3.9 8.1,1.9 21.4,1.9 29.8,1.7 l 16.5,-0.4 c 4.7,-0.2 11.1,-0.2 15.4,-2.3 9.4,-4.1 8.1,-20.6 8.1,-28.9 0,-8.1 1.4,-24.7 -8,-29.1 z"
               id="path38" />
            <path
               d="m 3249.8,65.9 h 49.7 v 33.2 h -49.7 z"
               id="path39" />
            <path
               d="m 2831.7,404 h -246 c -24.1,0 -43.6,-19.5 -43.6,-43.6 v -82.7 c 0,-24.1 19.5,-43.6 43.6,-43.6 h 246 c 24.1,0 43.6,19.5 43.6,43.6 v 82.7 c 0.1,24.1 -19.5,43.6 -43.6,43.6 z"
               fill="#dd243c"
               id="path40" />
            <path
               d="m 3314,404 h -246 c -24.1,0 -43.6,-19.5 -43.6,-43.6 v -82.7 c 0,-24.1 19.5,-43.6 43.6,-43.6 h 246 c 24.1,0 43.6,19.5 43.6,43.6 v 82.7 c 0.1,24.1 -19.5,43.6 -43.6,43.6 z"
               fill="#1aaa4b"
               id="path41" />
            <path
               d="m 3796.4,404 h -246 c -24.1,0 -43.6,-19.5 -43.6,-43.6 v -82.7 c 0,-24.1 19.5,-43.6 43.6,-43.6 h 246 c 24.1,0 43.6,19.5 43.6,43.6 v 82.7 c 0,24.1 -19.5,43.6 -43.6,43.6 z"
               fill="#1094d2"
               id="path42" />
          </g>
        </g>
      </g>
    </g>
  </g>
</svg>
