<?xml version="1.0" encoding="UTF-8" standalone="no"?>
<svg
   height="91"
   viewBox="0 0 640 90.999998"
   width="640"
   version="1.1"
   id="svg33"
   sodipodi:docname="custom-collections.svg"
   inkscape:version="1.3.2 (091e20e, 2023-11-25)"
   xmlns:inkscape="http://www.inkscape.org/namespaces/inkscape"
   xmlns:sodipodi="http://sodipodi.sourceforge.net/DTD/sodipodi-0.dtd"
   xmlns="http://www.w3.org/2000/svg"
   xmlns:svg="http://www.w3.org/2000/svg">
  <defs
     id="defs33" />
  <sodipodi:namedview
     id="namedview33"
     pagecolor="#ffffff"
     bordercolor="#000000"
     borderopacity="0.25"
     inkscape:showpageshadow="2"
     inkscape:pageopacity="0.0"
     inkscape:pagecheckerboard="0"
     inkscape:deskcolor="#d1d1d1"
     inkscape:zoom="0.24557292"
     inkscape:cx="1922.0361"
     inkscape:cy="272.83139"
     inkscape:window-width="1312"
     inkscape:window-height="449"
     inkscape:window-x="0"
     inkscape:window-y="39"
     inkscape:window-maximized="0"
     inkscape:current-layer="svg33" />
  <g
     id="g34"
     transform="matrix(0.16666667,0,0,0.16605836,1.6666672e-7,1.1291968e-5)">
    <g
       transform="matrix(4.2197802,0,0,4.2153846,-2088.7912,-3878.1539)"
       id="g3">
      <path
         d="m 505,1040 h 10 v 10 h 60 v -10 h 10 v -10 h 10 v -20 -20 h -10 v -10 h 10 v -20 -20 h -10 v -10 h -10 v -10 h -60 v 10 h -10 v 10 h -10 v 20 50 20 h 10 z m 50,-50 h -10 v -10 h 10 z"
         fill="#120f26"
         id="path1" />
      <path
         d="m 585,1010 h -30 v 10 h -20 v -50 h 20 v 10 h 30 v -20 h -10 v -10 h -60 v 10 h -10 v 70 h 10 v 10 h 60 v -10 h 10 z"
         fill="#e22b17"
         id="path2" />
      <path
         d="m 585,990 h -30 v 10 h -20 v -50 h 20 v 10 h 30 v -20 h -10 v -10 h -60 v 10 h -10 v 70 h 10 v 10 h 60 v -10 h 10 z"
         fill="#ffda40"
         id="path3" />
    </g>
    <g
       transform="matrix(4.2197802,0,0,4.2153846,-780.65934,-4721.2307)"
       id="g6">
      <path
         d="m 295,1130 h -10 v 10 h -10 v 20 50 20 h 10 v 10 h 10 v 10 h 60 v -10 h 10 v -10 h 10 v -20 -50 -20 h -10 v -10 h -10 v -10 h -60 z"
         fill="#120f26"
         id="path4" />
      <path
         d="m 355,1240 v -10 h 10 v -70 h -10 v -10 h -60 v 10 h -10 v 70 h 10 v 10 z m -40,-20 v -50 h 20 v 50 z"
         fill="#e22b17"
         id="path5" />
      <path
         d="m 355,1220 v -10 h 10 v -70 h -10 v -10 h -60 v 10 h -10 v 70 h 10 v 10 z m -40,-20 v -50 h 20 v 50 z"
         fill="#ffda40"
         id="path6" />
    </g>
    <g
       transform="matrix(4.2197802,0,0,4.2153846,-6688.3516,-3878.1539)"
       id="g9">
      <path
         d="m 1765,950 v 70 20 h 10 v 10 h 20 10 40 v -10 h 10 v -20 -20 h -10 v -10 h -30 v -40 -20 h -10 v -10 h -30 v 10 h -10 z"
         fill="#120f26"
         id="path7" />
      <path
         d="m 1805,1020 v -70 h -30 v 90 h 20 10 40 v -20 z"
         fill="#e22b17"
         id="path8" />
      <path
         d="m 1805,1000 v -70 h -30 v 90 h 20 10 40 v -20 z"
         fill="#ffda40"
         id="path9" />
    </g>
    <g
       transform="matrix(4.2197802,0,0,4.2153846,-6350.7692,-3878.1539)"
       id="g12">
      <path
         d="m 1775,1040 v 10 h 20 10 40 v -10 h 10 v -20 -20 h -10 v -10 h -30 v -40 -20 h -10 v -10 h -30 v 10 h -10 v 20 70 20 z"
         fill="#120f26"
         id="path10" />
      <path
         d="m 1775,1040 h 20 10 40 v -20 h -40 v -70 h -30 z"
         fill="#e22b17"
         id="path11" />
      <path
         d="m 1775,1020 h 20 10 40 v -20 h -40 v -70 h -30 z"
         fill="#ffda40"
         id="path12" />
    </g>
    <g
       transform="matrix(4.2197802,0,0,4.2153846,-1920,-3878.1539)"
       id="g15">
      <path
         d="m 805,1040 v 10 h 20 10 40 v -10 h 10 v -20 -20 h -10 v -10 -10 -10 h 10 v -20 -20 h -10 v -10 h -40 -10 -20 v 10 h -10 v 20 70 20 z"
         fill="#120f26"
         id="path13" />
      <path
         d="m 835,1040 h 40 v -20 h -40 v -10 h 30 v -20 h -30 v -20 h 40 v -20 h -40 -10 -20 v 90 h 20 z"
         fill="#e22b17"
         id="path14" />
      <path
         d="m 835,1020 h 40 v -20 h -40 v -10 h 30 v -20 h -30 v -20 h 40 v -20 h -40 -10 -20 v 90 h 20 z"
         fill="#ffda40"
         id="path15" />
    </g>
    <g
       transform="matrix(4.2197802,0,0,4.2153846,-316.48351,-3878.1539)"
       id="g18">
      <path
         d="m 505,1040 h 10 v 10 h 60 v -10 h 10 v -10 h 10 v -20 -20 h -10 v -10 h 10 v -20 -20 h -10 v -10 h -10 v -10 h -60 v 10 h -10 v 10 h -10 v 20 50 20 h 10 z m 50,-50 h -10 v -10 h 10 z"
         fill="#120f26"
         id="path16" />
      <path
         d="m 575,950 h -60 v 10 h -10 v 70 h 10 v 10 h 60 v -10 h 10 v -20 h -30 v 10 h -20 v -50 h 20 v 10 h 30 v -20 h -10 z"
         fill="#e22b17"
         id="path17" />
      <path
         d="m 575,930 h -60 v 10 h -10 v 70 h 10 v 10 h 60 v -10 h 10 v -20 h -30 v 10 h -20 v -50 h 20 v 10 h 30 v -20 h -10 z"
         fill="#ffda40"
         id="path18" />
    </g>
    <g
       transform="matrix(4.2197802,0,0,4.2153846,-2173.1868,-4721.2307)"
       id="g21">
      <path
         d="m 1045,1220 v 20 h 10 v 10 h 30 v -10 h 10 v -20 -40 h 10 v -10 h 10 v -20 -20 h -10 v -10 h -70 v 10 h -10 v 20 20 h 10 v 10 h 10 z"
         fill="#120f26"
         id="path19" />
      <path
         d="m 1085,1170 h 20 v -20 h -70 v 20 h 20 v 70 h 30 z"
         fill="#e22b17"
         id="path20" />
      <path
         d="m 1085,1150 h 20 v -20 h -70 v 20 h 20 v 70 h 30 z"
         fill="#ffda40"
         id="path21" />
    </g>
    <g
       transform="matrix(4.2197802,0,0,4.2153846,-3312.5275,-3878.1539)"
       id="g24">
      <path
         d="m 1425,950 v -20 h -10 v -10 h -30 v 10 h -10 v 20 70 20 h 10 v 10 h 30 v -10 h 10 v -20 z"
         fill="#120f26"
         id="path22" />
      <path
         d="m 1385,950 h 30 v 90 h -30 z"
         fill="#e22b17"
         id="path23" />
      <path
         d="m 1385,930 h 30 v 90 h -30 z"
         fill="#ffda40"
         id="path24" />
    </g>
    <g
       transform="matrix(4.2197802,0,0,4.2153846,1498.022,-4721.2307)"
       id="g27">
      <path
         d="m 355,1130 v -10 h -60 v 10 h -10 v 10 h -10 v 20 50 20 h 10 v 10 h 10 v 10 h 60 v -10 h 10 v -10 h 10 v -20 -50 -20 h -10 v -10 z"
         fill="#120f26"
         id="path25" />
      <path
         d="m 355,1240 v -10 h 10 v -70 h -10 v -10 h -60 v 10 h -10 v 70 h 10 v 10 z m -40,-20 v -50 h 20 v 50 z"
         fill="#e22b17"
         id="path26" />
      <path
         d="m 355,1220 v -10 h 10 v -70 h -10 v -10 h -60 v 10 h -10 v 70 h 10 v 10 z m -40,-20 v -50 h 20 v 50 z"
         fill="#ffda40"
         id="path27" />
    </g>
    <g
       transform="matrix(4.2197802,0,0,4.2153846,-5717.8022,-3878.1539)"
       id="g30">
      <path
         d="m 2075,1040 h 10 v 10 h 30 v -10 h 10 10 v 10 h 30 v -10 h 10 v -20 -70 -20 h -10 v -10 h -30 v 10 h -10 -10 v -10 h -30 v 10 h -10 v 20 70 z"
         fill="#120f26"
         id="path28" />
      <path
         d="m 2165,1040 v -90 h -30 v 40 h -10 v -20 h -10 v -20 h -30 v 90 h 30 v -30 h 10 v 20 h 10 v 10 z"
         fill="#e22b17"
         id="path29" />
      <path
         d="m 2165,1020 v -90 h -30 v 40 h -10 v -20 h -10 v -20 h -30 v 90 h 30 v -30 h 10 v 20 h 10 v 10 z"
         fill="#ffda40"
         id="path30" />
    </g>
    <g
       transform="matrix(4.2197802,0,0,4.2153846,-274.28571,-4721.2307)"
       id="g33">
      <path
         d="m 955,1250 v -10 h 10 v -10 h 10 v -20 -10 -20 -20 -20 h -10 v -10 h -10 v -10 h -60 v 10 h -10 v 10 h -10 v 20 10 20 20 20 h 10 v 10 h 10 v 10 z"
         fill="#120f26"
         id="path31" />
      <path
         d="m 915,1200 v 10 h 20 v 10 h -20 v -10 h -30 v 20 h 10 v 10 h 60 v -10 h 10 v -30 h -10 v -10 h -20 v -10 h -20 v -10 h 20 v 10 h 30 v -20 h -10 v -10 h -60 v 10 h -10 v 30 h 10 v 10 z"
         fill="#e22b17"
         id="path32" />
      <path
         d="m 915,1180 v 10 h 20 v 10 h -20 v -10 h -30 v 20 h 10 v 10 h 60 v -10 h 10 v -30 h -10 v -10 h -20 v -10 h -20 v -10 h 20 v 10 h 30 v -20 h -10 v -10 h -60 v 10 h -10 v 30 h 10 v 10 z"
         fill="#ffda40"
         id="path33" />
    </g>
  </g>
</svg>
