<?xml version="1.0" encoding="UTF-8" standalone="no"?>
<svg
   height="134"
   viewBox="0 0 640 134"
   width="640"
   version="1.1"
   id="svg21"
   sodipodi:docname="desktop.svg"
   inkscape:version="1.3.2 (091e20e, 2023-11-25)"
   xmlns:inkscape="http://www.inkscape.org/namespaces/inkscape"
   xmlns:sodipodi="http://sodipodi.sourceforge.net/DTD/sodipodi-0.dtd"
   xmlns="http://www.w3.org/2000/svg"
   xmlns:svg="http://www.w3.org/2000/svg">
  <defs
     id="defs21" />
  <sodipodi:namedview
     id="namedview21"
     pagecolor="#ffffff"
     bordercolor="#000000"
     borderopacity="0.25"
     inkscape:showpageshadow="2"
     inkscape:pageopacity="0.0"
     inkscape:pagecheckerboard="0"
     inkscape:deskcolor="#d1d1d1"
     inkscape:zoom="1"
     inkscape:cx="278"
     inkscape:cy="56"
     inkscape:window-width="1312"
     inkscape:window-height="449"
     inkscape:window-x="0"
     inkscape:window-y="39"
     inkscape:window-maximized="0"
     inkscape:current-layer="svg21" />
  <g
     id="g22"
     transform="matrix(0.16666667,0,0,0.16625309,7.7500001e-6,1.3300248e-6)">
    <g
       transform="matrix(6.1935483,0,0,6.2000001,588.38714,-6944.0001)"
       id="g3">
      <path
         d="m 435,1130 h -10 v 20 70 20 h 10 v 10 h 30 v -10 h 10 v -10 h 20 v -10 h 10 10 v -10 h 10 v -20 -30 -20 h -10 v -10 h -10 v -10 h -40 -10 -20 z"
         fill="#120f26"
         id="path1" />
      <path
         d="m 465,1220 h 30 v -10 h 20 v -50 h -10 v -10 h -40 -10 -20 v 90 h 30 z m 20,-50 v 20 h -10 v 10 h -10 v -30 z"
         fill="#e22b17"
         id="path2" />
      <path
         d="m 465,1200 h 30 v -10 h 20 v -50 h -10 v -10 h -40 -10 -20 v 90 h 30 z m 20,-50 v 20 h -10 v 10 h -10 v -30 z"
         fill="#ffda40"
         id="path3" />
    </g>
    <g
       transform="matrix(6.1935483,0,0,6.2000001,-3994.8387,-5704.0001)"
       id="g6">
      <path
         d="m 745,940 h -10 v -10 h -10 v -10 h -40 -20 -10 v 10 h -10 v 20 70 20 h 10 v 10 h 10 20 30 v -10 h 10 10 v -10 h 10 v -20 -50 z"
         fill="#120f26"
         id="path4" />
      <path
         d="m 725,960 v -10 h -40 -20 -10 v 90 h 10 20 30 v -10 h 20 v -70 z m -40,10 h 20 v 40 h -10 v 10 h -10 z"
         fill="#e22b17"
         id="path5" />
      <path
         d="m 725,940 v -10 h -40 -20 -10 v 90 h 10 20 30 v -10 h 20 v -70 z m -40,10 h 20 v 40 h -10 v 10 h -10 z"
         fill="#ffda40"
         id="path6" />
    </g>
    <g
       transform="matrix(6.1935483,0,0,6.2000001,-4366.4516,-5704.0001)"
       id="g9">
      <path
         d="m 885,1000 h -10 v -10 -10 -10 h 10 v -20 -20 h -10 v -10 h -40 -10 -20 v 10 h -10 v 20 70 20 h 10 v 10 h 20 10 40 v -10 h 10 v -20 z"
         fill="#120f26"
         id="path7" />
      <path
         d="m 875,1020 h -40 v -10 h 30 v -20 h -30 v -20 h 40 v -20 h -40 -10 -20 v 90 h 20 10 40 z"
         fill="#e22b17"
         id="path8" />
      <path
         d="m 875,1000 h -40 v -10 h 30 v -20 h -30 v -20 h 40 v -20 h -40 -10 -20 v 90 h 20 10 40 z"
         fill="#ffda40"
         id="path9" />
    </g>
    <g
       transform="matrix(6.1935483,0,0,6.2000001,-4366.4516,-6944.0001)"
       id="g12">
      <path
         d="m 965,1140 v -10 h -10 v -10 h -60 v 10 h -10 v 10 h -10 v 20 10 20 20 20 h 10 v 10 h 10 v 10 h 60 v -10 h 10 v -10 h 10 v -20 -10 -20 -20 -20 z"
         fill="#120f26"
         id="path10" />
      <path
         d="m 885,1210 v 20 h 10 v 10 h 60 v -10 h 10 v -30 h -10 v -10 h -20 v -10 h -20 v -10 h 20 v 10 h 30 v -20 h -10 v -10 h -60 v 10 h -10 v 30 h 10 v 10 h 20 v 10 h 20 v 10 h -20 v -10 z"
         fill="#e22b17"
         id="path11" />
      <path
         d="m 885,1190 v 20 h 10 v 10 h 60 v -10 h 10 v -30 h -10 v -10 h -20 v -10 h -20 v -10 h 20 v 10 h 30 v -20 h -10 v -10 h -60 v 10 h -10 v 30 h 10 v 10 h 20 v 10 h 20 v 10 h -20 v -10 z"
         fill="#ffda40"
         id="path12" />
    </g>
    <g
       transform="matrix(6.1935483,0,0,6.2000001,-8392.2579,-5704.0001)"
       id="g15">
      <path
         d="m 1705,980 v -10 h 10 v -20 -20 h -10 v -10 h -20 v 10 h -10 v 10 h -10 v -10 h -10 v -10 h -30 v 10 h -10 v 20 70 20 h 10 v 10 h 30 v -10 h 10 10 v 10 h 30 v -10 h 10 v -20 -20 h -10 v -10 h -10 v -10 z"
         fill="#120f26"
         id="path13" />
      <path
         d="m 1655,980 v -30 h -30 v 90 h 30 v -20 h 10 v 10 h 10 v 10 h 30 v -20 h -10 v -10 h -10 v -10 h -10 v -10 h 10 v -10 h 10 v -10 h 10 v -20 h -20 v 10 h -10 v 10 h -10 v 10 z"
         fill="#e22b17"
         id="path14" />
      <path
         d="m 1655,960 v -30 h -30 v 90 h 30 v -20 h 10 v 10 h 10 v 10 h 30 v -20 h -10 v -10 h -10 v -10 h -10 v -10 h 10 v -10 h 10 v -10 h 10 v -20 h -20 v 10 h -10 v 10 h -10 v 10 z"
         fill="#ffda40"
         id="path15" />
    </g>
    <g
       transform="matrix(6.1935483,0,0,6.2000001,-4180.6451,-6944.0001)"
       id="g18">
      <path
         d="m 1025,1130 v 20 20 h 10 v 10 h 10 v 40 20 h 10 v 10 h 30 v -10 h 10 v -20 -40 h 10 v -10 h 10 v -20 -20 h -10 v -10 h -70 v 10 z"
         fill="#120f26"
         id="path16" />
      <path
         d="m 1105,1150 h -70 v 20 h 20 v 70 h 30 v -70 h 20 z"
         fill="#e22b17"
         id="path17" />
      <path
         d="m 1105,1130 h -70 v 20 h 20 v 70 h 30 v -70 h 20 z"
         fill="#ffda40"
         id="path18" />
    </g>
    <g
       transform="matrix(6.1935483,0,0,6.2000001,960.00004,-6944.0001)"
       id="g21">
      <path
         d="m 365,1140 v -10 h -10 v -10 h -60 v 10 h -10 v 10 h -10 v 20 50 20 h 10 v 10 h 10 v 10 h 60 v -10 h 10 v -10 h 10 v -20 -50 -20 z"
         fill="#120f26"
         id="path19" />
      <path
         d="m 355,1240 v -10 h 10 v -70 h -10 v -10 h -60 v 10 h -10 v 70 h 10 v 10 z m -40,-20 v -50 h 20 v 50 z"
         fill="#e22b17"
         id="path20" />
      <path
         d="m 355,1220 v -10 h 10 v -70 h -10 v -10 h -60 v 10 h -10 v 70 h 10 v 10 z m -40,-20 v -50 h 20 v 50 z"
         fill="#ffda40"
         id="path21" />
    </g>
  </g>
</svg>
