<?xml version="1.0" encoding="UTF-8" standalone="no"?>
<svg
   height="146"
   viewBox="0 0 640 146"
   width="640"
   version="1.1"
   id="svg95"
   sodipodi:docname="gc.svg"
   inkscape:version="1.3.2 (091e20e, 2023-11-25)"
   xmlns:inkscape="http://www.inkscape.org/namespaces/inkscape"
   xmlns:sodipodi="http://sodipodi.sourceforge.net/DTD/sodipodi-0.dtd"
   xmlns:xlink="http://www.w3.org/1999/xlink"
   xmlns="http://www.w3.org/2000/svg"
   xmlns:svg="http://www.w3.org/2000/svg">
  <defs
     id="defs95" />
  <sodipodi:namedview
     id="namedview95"
     pagecolor="#ffffff"
     bordercolor="#000000"
     borderopacity="0.25"
     inkscape:showpageshadow="2"
     inkscape:pageopacity="0.0"
     inkscape:pagecheckerboard="0"
     inkscape:deskcolor="#d1d1d1"
     inkscape:zoom="1"
     inkscape:cx="310.5"
     inkscape:cy="72"
     inkscape:window-width="1312"
     inkscape:window-height="449"
     inkscape:window-x="0"
     inkscape:window-y="39"
     inkscape:window-maximized="0"
     inkscape:current-layer="svg95" />
  <linearGradient
     id="a"
     gradientUnits="userSpaceOnUse"
     x1="548.87347"
     x2="662.58368"
     y1="205.8076"
     y2="205.8076">
    <stop
       offset="0"
       stop-color="#3c4da1"
       id="stop1" />
    <stop
       offset=".9932"
       stop-color="#45495f"
       id="stop2" />
  </linearGradient>
  <linearGradient
     id="b"
     gradientUnits="userSpaceOnUse"
     x1="246.5065"
     x2="246.5065"
     y1="581.88428"
     y2="744.6806">
    <stop
       offset=".0368"
       stop-color="#f7fbff"
       id="stop3" />
    <stop
       offset=".8957"
       stop-color="#e7ecfe"
       id="stop4" />
  </linearGradient>
  <linearGradient
     id="c"
     gradientUnits="userSpaceOnUse"
     x1="636.72339"
     x2="636.72339"
     y1="591.29291"
     y2="427.26019">
    <stop
       offset=".0368"
       stop-color="#adc1ea"
       id="stop5" />
    <stop
       offset=".8957"
       stop-color="#7185b8"
       id="stop6" />
  </linearGradient>
  <linearGradient
     id="d"
     gradientUnits="userSpaceOnUse"
     x1="379.3028"
     x2="644.89539"
     y1="663.28271"
     y2="663.28271">
    <stop
       offset=".0368"
       stop-color="#f7fbff"
       id="stop7" />
    <stop
       offset=".8957"
       stop-color="#6f83b9"
       id="stop8" />
  </linearGradient>
  <linearGradient
     id="e"
     gradientUnits="userSpaceOnUse"
     x1="0"
     x2="379.30289"
     y1="547.44873"
     y2="547.44873">
    <stop
       offset="0"
       stop-color="#617cc6"
       id="stop9" />
    <stop
       offset=".9932"
       stop-color="#91b0d7"
       id="stop10" />
  </linearGradient>
  <linearGradient
     id="f"
     gradientUnits="userSpaceOnUse"
     x1="246.5065"
     x2="246.5065"
     y1="131.291"
     y2="591.29291">
    <stop
       offset=".00000014918"
       stop-color="#4c5794"
       id="stop11" />
    <stop
       offset="1"
       stop-color="#424873"
       id="stop12" />
  </linearGradient>
  <linearGradient
     id="g"
     gradientUnits="userSpaceOnUse"
     x1="419.3703"
     x2="718.51129"
     y1="397.8916"
     y2="697.03271">
    <stop
       offset=".00000007459"
       stop-color="#3f578e"
       id="stop13" />
    <stop
       offset=".1523"
       stop-color="#435a92"
       id="stop14" />
    <stop
       offset=".3057"
       stop-color="#4f639d"
       id="stop15" />
    <stop
       offset=".4593"
       stop-color="#6373b0"
       id="stop16" />
    <stop
       offset=".5006"
       stop-color="#6a78b6"
       id="stop17" />
    <stop
       offset=".8998"
       stop-color="#6f83c1"
       id="stop18" />
    <stop
       offset="1"
       stop-color="#7187c4"
       id="stop19" />
  </linearGradient>
  <linearGradient
     id="h"
     gradientUnits="userSpaceOnUse"
     x1="379.30289"
     x2="379.30289"
     y1="0"
     y2="437.95901">
    <stop
       offset="0"
       stop-color="#9aa8d4"
       id="stop20" />
    <stop
       offset=".061"
       stop-color="#a2afd7"
       id="stop21" />
    <stop
       offset=".2422"
       stop-color="#b6bfdf"
       id="stop22" />
    <stop
       offset=".4249"
       stop-color="#c2c9e3"
       id="stop23" />
    <stop
       offset=".6099"
       stop-color="#c6cce5"
       id="stop24" />
    <stop
       offset="1"
       stop-color="#f2f1f7"
       id="stop25" />
  </linearGradient>
  <linearGradient
     id="i"
     gradientUnits="userSpaceOnUse"
     x1="379.3028"
     x2="548.87347"
     y1="189.67821"
     y2="189.67821">
    <stop
       offset=".0368"
       stop-color="#8792c3"
       id="stop26" />
    <stop
       offset="1"
       stop-color="#5c6d99"
       id="stop27" />
  </linearGradient>
  <linearGradient
     id="j">
    <stop
       offset=".5313"
       stop-color="#acc3d6"
       stop-opacity="0"
       id="stop28" />
    <stop
       offset="1"
       stop-color="#acc3d6"
       id="stop29" />
  </linearGradient>
  <linearGradient
     id="k"
     gradientUnits="userSpaceOnUse"
     x1="357.09839"
     x2="379.3028"
     xlink:href="#j"
     y1="533.22852"
     y2="533.22852" />
  <linearGradient
     id="l"
     gradientUnits="userSpaceOnUse"
     x1="357.09839"
     x2="379.3028"
     xlink:href="#j"
     y1="803.90131"
     y2="803.90131" />
  <linearGradient
     id="m">
    <stop
       offset=".6232"
       stop-color="#47588b"
       stop-opacity="0"
       id="stop30" />
    <stop
       offset="1"
       stop-color="#47588b"
       id="stop31" />
  </linearGradient>
  <linearGradient
     id="n"
     gradientTransform="matrix(0.5,-0.866,0.866,0.5,3738.1646,19059.336)"
     gradientUnits="userSpaceOnUse"
     x1="14424.986"
     x2="14447.203"
     xlink:href="#m"
     y1="-12585.924"
     y2="-12585.924" />
  <linearGradient
     id="o"
     gradientTransform="matrix(0.5,-0.866,0.866,0.5,3738.1646,19059.336)"
     gradientUnits="userSpaceOnUse"
     x1="14424.986"
     x2="14447.202"
     xlink:href="#m"
     y1="-12315.251"
     y2="-12315.251" />
  <linearGradient
     id="p"
     gradientUnits="userSpaceOnUse"
     x1="306.29019"
     x2="295.18771"
     y1="302.457"
     y2="283.22699">
    <stop
       offset=".0000002291"
       stop-color="#dbdde8"
       stop-opacity="0"
       id="stop32" />
    <stop
       offset=".1847"
       stop-color="#d8dae6"
       stop-opacity=".0369"
       id="stop33" />
    <stop
       offset=".3247"
       stop-color="#ced1df"
       stop-opacity=".0649"
       id="stop34" />
    <stop
       offset=".4499"
       stop-color="#bec1d4"
       stop-opacity=".09"
       id="stop35" />
    <stop
       offset=".5666"
       stop-color="#a7abc4"
       stop-opacity=".1133"
       id="stop36" />
    <stop
       offset=".6774"
       stop-color="#898eb0"
       stop-opacity=".1355"
       id="stop37" />
    <stop
       offset=".7836"
       stop-color="#656a97"
       stop-opacity=".1567"
       id="stop38" />
    <stop
       offset=".8864"
       stop-color="#3a4079"
       stop-opacity=".1773"
       id="stop39" />
    <stop
       offset=".9839"
       stop-color="#091157"
       stop-opacity=".1968"
       id="stop40" />
    <stop
       offset="1"
       stop-color="#000851"
       stop-opacity=".2"
       id="stop41" />
  </linearGradient>
  <linearGradient
     id="q"
     gradientTransform="matrix(-1,0,0,1,23548.764,7645.3281)"
     gradientUnits="userSpaceOnUse"
     x1="23300.66"
     x2="23294.77"
     y1="-6981.6885"
     y2="-6991.8911">
    <stop
       offset=".0000002291"
       stop-color="#dbdde8"
       stop-opacity="0"
       id="stop42" />
    <stop
       offset=".312"
       stop-color="#d9dbe7"
       stop-opacity=".0624"
       id="stop43" />
    <stop
       offset=".4549"
       stop-color="#d1d4e1"
       stop-opacity=".091"
       id="stop44" />
    <stop
       offset=".5633"
       stop-color="#c5c7d9"
       stop-opacity=".1127"
       id="stop45" />
    <stop
       offset=".6543"
       stop-color="#b3b6cc"
       stop-opacity=".1309"
       id="stop46" />
    <stop
       offset=".7345"
       stop-color="#9b9fbc"
       stop-opacity=".1469"
       id="stop47" />
    <stop
       offset=".807"
       stop-color="#7e82a8"
       stop-opacity=".1614"
       id="stop48" />
    <stop
       offset=".8737"
       stop-color="#5b6190"
       stop-opacity=".1747"
       id="stop49" />
    <stop
       offset=".9359"
       stop-color="#333974"
       stop-opacity=".1872"
       id="stop50" />
    <stop
       offset=".9924"
       stop-color="#070e56"
       stop-opacity=".1985"
       id="stop51" />
    <stop
       offset="1"
       stop-color="#000851"
       stop-opacity=".2"
       id="stop52" />
  </linearGradient>
  <linearGradient
     id="r"
     gradientTransform="matrix(0.5,-0.866,0.866,0.5,3738.1646,19059.336)"
     gradientUnits="userSpaceOnUse"
     x1="14159.403"
     x2="14181.604"
     xlink:href="#m"
     y1="-12213.59"
     y2="-12213.59" />
  <linearGradient
     id="s">
    <stop
       offset=".7598"
       stop-color="#3b4d86"
       stop-opacity="0"
       id="stop53" />
    <stop
       offset="1"
       stop-color="#3b4d86"
       id="stop54" />
  </linearGradient>
  <linearGradient
     id="t"
     gradientTransform="matrix(-0.5,-0.866,-0.866,0.5,19820.387,19059.336)"
     gradientUnits="userSpaceOnUse"
     x1="25559.863"
     x2="25582.072"
     xlink:href="#s"
     y1="7525.6333"
     y2="7525.6333" />
  <linearGradient
     id="u">
    <stop
       offset=".6232"
       stop-color="#e8f2f3"
       stop-opacity="0"
       id="stop55" />
    <stop
       offset=".9975"
       stop-color="#e8f2f3"
       id="stop56" />
  </linearGradient>
  <linearGradient
     id="v"
     gradientTransform="matrix(-0.5,-0.866,-0.866,0.5,19820.387,19059.336)"
     gradientUnits="userSpaceOnUse"
     x1="26134.582"
     x2="26113.145"
     xlink:href="#u"
     y1="7525.6572"
     y2="7525.6572" />
  <linearGradient
     id="w"
     gradientTransform="matrix(0.5,-0.866,0.866,0.5,3799.0386,19059.336)"
     gradientUnits="userSpaceOnUse"
     x1="14703.654"
     x2="14682.252"
     xlink:href="#u"
     y1="-12328.145"
     y2="-12328.145" />
  <linearGradient
     id="x"
     gradientTransform="matrix(0.5,0.866,0.866,-0.5,3864.8667,969.0223)"
     gradientUnits="userSpaceOnUse"
     x1="-2320.1506"
     x2="-2298.7825"
     xlink:href="#u"
     y1="-2442.3833"
     y2="-2442.3833" />
  <linearGradient
     id="y"
     gradientTransform="rotate(180,11803.763,6215.5962)"
     gradientUnits="userSpaceOnUse"
     x1="22940.424"
     x2="22962.629"
     xlink:href="#s"
     y1="11928.341"
     y2="11928.341" />
  <linearGradient
     id="z"
     gradientUnits="userSpaceOnUse"
     x1="656.30829"
     x2="644.57483"
     xlink:href="#s"
     y1="598.62299"
     y2="591.84857" />
  <g
     id="g1"
     transform="scale(0.16666666)">
    <g
       id="g97">
      <g
         id="g96">
        <g
           transform="scale(1.0002605,1)"
           id="g95">
          <path
             d="m 1460.7,424.4 -170,295.6 h 212.7 v -67.1 h -94.9 l 87.8,-146.8 118.8,213.9 h 88.3 L 1531.7,424.4 Z"
             id="path56" />
          <path
             d="m 1896.2,720 90.9,-157.9 V 720 h 73.2 l 0.2,-295.6 h -73.1 L 1866.8,633.7 1746,424.4 h -72.8 l 0.1,295.6 h 72.9 V 562.1 l 91.2,157.9 z"
             id="path57" />
          <path
             d="m 1300.2,542.1 h -184.7 v 62.4 h 107.1 V 653 H 1031.5 V 488.5 H 1297 v -64.1 h -267.9 c -58,0 -76.8,17.8 -76.8,73.5 v 148.6 c 0,55.9 18.7,73.7 76.8,73.7 h 194.5 c 58.1,0 76.7,-17.8 76.7,-73.7 z"
             id="path58" />
          <path
             d="m 2708,424.4 h -173.8 c -58.3,0 -76.8,17.8 -76.8,73.5 v 148.5 c 0,55.9 18.5,73.6 76.8,73.6 H 2708 c 58.1,0 76.9,-17.7 76.9,-73.6 v -53.9 h -79.5 V 653 H 2536.7 V 488.6 h 168.7 v 53.5 h 79.5 v -44.2 c 0,-55.7 -18.8,-73.5 -76.9,-73.5"
             id="path59" />
          <path
             d="M 3068.9,652.9 H 2896 V 424.4 h -79.4 v 222 c 0,55.9 18.7,73.7 76.8,73.7 h 178.1 c 58.2,0 76.9,-17.8 76.9,-73.7 v -222 H 3069 Z"
             id="path60" />
          <path
             d="m 3429.8,636.8 c 0,14.2 -3.2,18.1 -24.7,18.1 h -142.6 v -57.1 h 142.6 c 21.5,0 24.7,4 24.7,18 z m -167.2,-153 H 3405 c 22,0 23,4.8 23,13.3 V 524 c 0,8.5 -1,13.4 -23,13.4 h -142.4 z m 209.2,84.3 c 19.1,-9.1 29.6,-25.9 29.6,-47.8 v -34.6 c 0,-41.9 -22.4,-61.3 -70.4,-61.3 H 3183.2 V 720 h 230.6 c 60.1,0 90.3,-20.8 90.3,-62.5 v -35.9 c -0.1,-25.1 -11.5,-43.7 -32.3,-53.5 z"
             id="path61" />
          <path
             d="m 3613.4,597.6 h 129.9 v -62 h -129.9 v -49 h 222.9 V 424.4 H 3533.9 V 720 H 3839 v -67.1 h -225.6 z"
             id="path62" />
          <path
             d="m 2174.8,597.6 h 130 v -62 h -130 v -49 h 223 V 424.4 H 2095.6 V 720 h 304.9 v -67.1 h -225.7 z"
             id="path63" />
          <g
             fill="#c2c3c4"
             id="g71">
            <path
               d="M 3016.1,342.7 V 115.6 h -43.3 v 144.8 l -73.5,-144.8 h -58.2 v 227.1 h 43.1 v -177 l 89,177 z"
               id="path64" />
            <path
               d="m 1763.9,165.7 89.1,177 h 42.9 V 115.6 h -43.2 v 144.8 l -73.6,-144.8 h -58.3 v 227.1 h 43.1 z"
               id="path65" />
            <path
               d="m 1055.9,165.7 89,177 h 42.7 V 115.6 h -43.2 V 260.4 L 1071,115.6 h -58.3 v 227.1 h 43.2 z"
               id="path66" />
            <path
               d="m 1429.8,115.6 h 48.7 v 227.2 h -48.7 z"
               id="path67" />
            <path
               d="m 2162.8,342.7 h 46.3 V 151.8 h 72.9 v -36.1 h -192.2 v 36.1 h 73 z"
               id="path68" />
            <path
               d="m 3270.9,150.5 h 61 c 14.9,0 30.3,11.4 30.3,25.2 V 283 c 0,14.7 -15.8,24.9 -30.3,24.9 h -61 z m 62.3,192.2 c 39.8,0 71.9,-26.3 71.9,-58.6 V 174.4 c 0,-32.5 -32.1,-58.8 -71.9,-58.8 h -105.1 v 227.2 z"
               id="path69" />
            <path
               d="m 3741.1,284.6 c 0,13.7 -15.5,25 -30.3,25 h -36 c -14.9,0 -30.3,-11.3 -30.3,-25 V 173.9 c 0,-14.1 15.4,-25.1 30.3,-25.1 h 36 c 14.8,0 30.3,11 30.3,25.1 z m 42.9,-112 c 0,-32.4 -32.4,-58.6 -71.9,-58.6 h -38.8 c -39.6,0 -71.8,26.3 -71.8,58.6 v 113.2 c 0,32.5 32.2,58.7 71.8,58.7 h 38.8 c 39.5,0 71.9,-26.2 71.9,-58.7 z"
               id="path70" />
            <path
               d="m 2460.7,284.3 c 0,31.6 30.5,57.1 68.6,58.4 h 100.1 v -36 h -95.8 c -15,0 -30.3,-9.8 -30.3,-23.6 V 242 h 126.1 v -36.4 h -126.1 v -30.4 c 0,-13.7 15.3,-23.7 30.3,-23.7 h 95.8 v -35.9 h -98.6 c -38.8,0.8 -70.1,26.6 -70.1,58.5 z"
               id="path71" />
          </g>
          <path
             d="m 662.6,163.5 v 18.9 l -113.7,65.7 v -18.9 z"
             fill="url(#a)"
             id="path72"
             style="fill:url(#a)" />
          <path
             d="m 130.1,581.9 -16.4,9.4 265.6,153.4 v -18.9 z"
             fill="url(#b)"
             id="path73"
             style="fill:url(#b)" />
          <path
             d="M 113.7,284.6 379.3,131.3"
             fill="none"
             stroke="#000000"
             stroke-miterlimit="10"
             stroke-width="4.3485"
             id="path74" />
          <path
             d="m 379.3,131.3 169.6,97.9"
             fill="none"
             stroke="#000000"
             stroke-miterlimit="10"
             stroke-width="4.3485"
             id="path75" />
          <path
             d="m 628.6,436.7 v 145.2 l 16.3,9.4 v -164 z"
             fill="url(#c)"
             id="path76"
             style="fill:url(#c)" />
          <path
             d="M 628.6,581.9 379.3,725.8 v 18.9 L 644.9,591.3 Z"
             fill="url(#d)"
             id="path77"
             style="fill:url(#d)" />
          <path
             d="M 203.2,336.3 V 539.6 L 379.3,641.3 V 438 Z M 113.7,284.6 0,219 V 657 L 379.3,876 V 744.6 L 113.7,591.3 Z"
             fill="url(#e)"
             id="path78"
             style="fill:url(#e)" />
          <path
             d="m 113.7,284.6 v 306.7 l 16.4,-9.4 V 294.1 L 379.3,150.2 v -18.9 z"
             fill="url(#f)"
             id="path79"
             style="fill:url(#f)" />
          <path
             d="M 379.3,876 V 744.7 L 644.9,591.3 v -164 l -89.5,51.6 v 60.7 L 379.3,641.3 V 438 L 758.6,219 v 437.9 l -1.5,1 z"
             fill="url(#g)"
             id="path80"
             style="fill:url(#g)" />
          <path
             d="M 548.9,229.2 662.6,163.6 379.3,0 0,219 113.7,284.6 379.3,131.3 Z M 742.3,209.6 539,326.9 379.3,234.7 203.2,336.3 379.3,438 758.6,219 Z"
             fill="url(#h)"
             id="path81"
             style="fill:url(#h)" />
          <path
             d="m 379.3,131.3 v 18.9 l 169.6,97.9 v -18.9 z"
             fill="url(#i)"
             id="path82"
             style="fill:url(#i)" />
          <path
             d="m 357.1,425.2 v 203.3 l 22.2,12.8 V 438 Z"
             fill="url(#k)"
             opacity="0.7"
             id="path83"
             style="fill:url(#k)" />
          <path
             d="M 357.1,731.8 V 863.1 L 379.3,876 V 744.7 Z"
             fill="url(#l)"
             opacity="0.7"
             id="path84"
             style="fill:url(#l)" />
          <g
             opacity="0.7"
             id="g86">
            <path
               d="m 0,244.6 113.7,65.7 V 284.6 L 0,219 Z"
               fill="url(#n)"
               opacity="0.7"
               id="path85"
               style="fill:url(#n)" />
            <path
               d="M 203.2,361.9 379.3,463.6 V 438 L 203.2,336.3 Z"
               fill="url(#o)"
               opacity="0.7"
               id="path86"
               style="fill:url(#o)" />
          </g>
          <path
             d="M 395,243.8 225.4,349.1 203.2,336.3 379.3,234.7 Z"
             fill="url(#p)"
             id="path87"
             style="fill:url(#p)" />
          <path
             d="m 118.3,588.7 261,147.5 V 725.8 L 130.1,581.9 Z"
             fill="url(#q)"
             id="path88"
             style="fill:url(#q)" />
          <path
             d="m 113.7,591.3 88,61 177.6,118 v -25.6 z"
             fill="url(#r)"
             opacity="0.49"
             id="path89"
             style="fill:url(#r)" />
          <path
             d="m 644.9,616.9 -154.6,67.4 -111,60.4 113.9,-65.8 151.7,-87.6 z"
             fill="url(#t)"
             opacity="0.49"
             id="path90"
             style="fill:url(#t)" />
          <path
             d="M 379.3,131.4 113.7,284.6 92.4,272.3 379.3,106.8 Z"
             fill="url(#v)"
             opacity="0.7"
             id="path91"
             style="fill:url(#v)" />
          <path
             d="M 379.3,131.4 548.9,229.2 570.2,216.9 379.3,106.8 Z"
             fill="url(#w)"
             opacity="0.49"
             id="path92"
             style="fill:url(#w)" />
          <path
             d="m 527.5,216.9 113.7,-65.7 21.4,12.3 -113.7,65.7 z"
             fill="url(#x)"
             opacity="0.49"
             id="path93"
             style="fill:url(#x)" />
          <path
             d="M 667.1,578.5 V 414.4 l -22.2,12.9 v 164 z"
             fill="url(#y)"
             opacity="0.7"
             id="path94"
             style="fill:url(#y)" />
          <path
             d="m 644.9,618.4 v -27.1 l 22.2,-12.8 z"
             fill="url(#z)"
             opacity="0.7"
             id="path95"
             style="fill:url(#z)" />
        </g>
      </g>
    </g>
  </g>
</svg>
