<?xml version="1.0" encoding="UTF-8" standalone="no"?>
<svg
   height="143"
   viewBox="0 0 640 142.99999"
   width="640"
   version="1.1"
   id="svg16"
   sodipodi:docname="ngp.svg"
   inkscape:version="1.3.2 (091e20e, 2023-11-25)"
   xmlns:inkscape="http://www.inkscape.org/namespaces/inkscape"
   xmlns:sodipodi="http://sodipodi.sourceforge.net/DTD/sodipodi-0.dtd"
   xmlns="http://www.w3.org/2000/svg"
   xmlns:svg="http://www.w3.org/2000/svg">
  <defs
     id="defs16" />
  <sodipodi:namedview
     id="namedview16"
     pagecolor="#ffffff"
     bordercolor="#000000"
     borderopacity="0.25"
     inkscape:showpageshadow="2"
     inkscape:pageopacity="0.0"
     inkscape:pagecheckerboard="0"
     inkscape:deskcolor="#d1d1d1"
     inkscape:zoom="1"
     inkscape:cx="328.5"
     inkscape:cy="61"
     inkscape:window-width="1312"
     inkscape:window-height="449"
     inkscape:window-x="215"
     inkscape:window-y="39"
     inkscape:window-maximized="0"
     inkscape:current-layer="svg16" />
  <g
     id="g2">
    <g
       id="g1"
       transform="scale(0.16666667,0.16725146)">
      <g
         id="g18">
        <g
           id="g17"
           transform="scale(1,1.001171)">
          <g
             transform="scale(1,0.99906411)"
             id="g16">
            <path
               d="M 486.3,806.3 H 344 V 696.2 H 477 V 695.9 660 H 344 V 558.8 H 486.3 V 522.6 H 344 307.7 v 36.2 101.2 36.2 110.1 36.3 h 0.7 35.6 142.3 z"
               id="path1" />
            <path
               d="M 1433.8,806.3 H 1291.4 V 696.2 h 133 V 695.9 660 h -133 V 558.8 h 142.4 v -36.2 h -142.4 -36.2 v 36.2 101.2 36.2 110.1 36.3 h 0.7 35.5 142.4 z"
               id="path2" />
            <path
               d="M 42.5,522.6 H 0 v 320 H 36.3 V 577.1 L 221,842.6 h 35.4 v -320 h -36.3 v 255.2 z"
               id="path3" />
            <path
               d="m 677.6,513.5 c -93.4,0 -169.1,75.7 -169.1,169.1 0,93.4 75.7,169.1 169.1,169.1 93.4,0 169.1,-75.7 169.1,-169.1 0,-93.4 -75.7,-169.1 -169.1,-169.1 z m 0,302.6 c -73.7,0 -133.5,-59.8 -133.5,-133.5 0,-73.7 59.8,-133.5 133.5,-133.5 73.7,0 133.5,59.8 133.5,133.5 0,73.7 -59.8,133.5 -133.5,133.5 z"
               id="path4" />
            <path
               d="m 1626.5,513.5 c -93.4,0 -169.1,75.7 -169.1,169.1 0,93.4 75.7,169.1 169.1,169.1 93.4,0 169.1,-75.7 169.1,-169.1 0,-93.4 -75.7,-169.1 -169.1,-169.1 z m 0,302.6 c -73.7,0 -133.5,-59.8 -133.5,-133.5 0,-73.7 59.8,-133.5 133.5,-133.5 73.7,0 133.5,59.8 133.5,133.5 0,73.7 -59.8,133.5 -133.5,133.5 z"
               id="path5" />
            <path
               d="M 1180.4,688.5 H 994.9 v 36.3 h 178.8 c -17.7,53 -67.6,91.3 -126.6,91.3 -73.7,0 -133.5,-59.8 -133.5,-133.5 0,-73.7 59.8,-133.5 133.5,-133.5 45.9,0 86.3,23.1 110.3,58.4 h 41.2 c -27.7,-55.7 -85.1,-94 -151.5,-94 -93.4,0 -169.1,75.7 -169.1,169.1 0,93.4 75.7,169.1 169.1,169.1 91.4,0 165.8,-72.5 169,-163.2 z"
               id="path6" />
            <path
               d="M 3508.7,806.3 H 3366.4 V 696.2 h 133 V 695.9 660 h -133 V 558.8 h 142.3 v -36.2 h -142.3 -36.3 v 36.2 101.2 36.2 110.1 36.3 h 0.7 35.6 142.3 z"
               id="path7" />
            <path
               d="m 3840,522.6 h -112.4 -36.3 -112.4 v 36.2 h 112.4 v 283.8 h 36.3 V 558.8 H 3840 Z"
               id="path8" />
            <path
               d="m 3208.6,842.6 h 51.3 l -160,-160 160,-160 h -51.3 L 3031.3,699.9 V 522.6 H 2995 v 320 h 36.3 v -91.4 l 42.9,-43 z"
               id="path9" />
            <path
               d="m 2364.3,513.5 c -93.4,0 -169.1,75.7 -169.1,169.1 0,93.4 75.7,169.1 169.1,169.1 93.4,0 169.1,-75.7 169.1,-169.1 0,-93.4 -75.7,-169.1 -169.1,-169.1 z m 0,302.6 c -73.7,0 -133.5,-59.8 -133.5,-133.5 0,-73.7 59.8,-133.5 133.5,-133.5 73.7,0 133.5,59.8 133.5,133.5 0,73.7 -59.8,133.5 -133.5,133.5 z"
               id="path10" />
            <path
               d="m 2883.8,756.7 c -23.9,35.8 -64.7,59.4 -111.1,59.4 -73.7,0 -133.5,-59.8 -133.5,-133.5 0,-73.7 59.8,-133.5 133.5,-133.5 46.3,0 87.1,23.6 111.1,59.4 h 41 c -27.5,-56.3 -85.2,-95.1 -152.1,-95.1 -93.4,0 -169.1,75.7 -169.1,169.1 0,93.4 75.7,169.1 169.1,169.1 66.8,0 124.6,-38.8 152.1,-95.1 h -41 z"
               id="path11" />
            <path
               d="m 2188.7,224.4 -39,-24.4 79.1,-153.3 63.1,39.5 z"
               fill="#11a73b"
               id="path12" />
            <path
               d="m 2249.7,293.3 -27.8,-36.8 128.6,-114.9 44.9,59.4 z"
               fill="#00a0e9"
               id="path13" />
            <g
               fill="#e60019"
               id="g15">
              <path
                 d="m 2103.4,180.8 -45,-9.9 23.1,-170.9 72.7,16 z"
                 id="path14" />
              <path
                 d="m 1938,271.7 -133,66.6 -50.6,25.3 -10,5 243.3,486.2 60.6,-30.3 -213,-425.6 133.1,-66.6 c 57,-28.6 126.5,-5.3 155.1,51.8 28.6,57 5.4,126.4 -51.6,155 0,0 -9.5,4.3 -14.3,6 l -78.2,-67.4 15.1,-47.8 84.7,-0.9 -0.7,-67.7 -133.8,1.5 -43.4,137.2 3,2.6 147,127 c 14,-7 57.4,-32.9 57.4,-32.9 85.9,-47.3 119.8,-154.4 75.5,-242.8 -45.3,-90.8 -155.5,-127.5 -246.2,-82.2 z"
                 id="path15" />
            </g>
          </g>
        </g>
      </g>
    </g>
  </g>
</svg>
