<?xml version="1.0" encoding="UTF-8" standalone="no"?>
<svg
   height="195"
   viewBox="0 0 639.99998 195.00002"
   width="640"
   version="1.1"
   id="svg26"
   sodipodi:docname="odyssey2.svg"
   inkscape:version="1.3.2 (091e20e, 2023-11-25)"
   xmlns:inkscape="http://www.inkscape.org/namespaces/inkscape"
   xmlns:sodipodi="http://sodipodi.sourceforge.net/DTD/sodipodi-0.dtd"
   xmlns="http://www.w3.org/2000/svg"
   xmlns:svg="http://www.w3.org/2000/svg">
  <defs
     id="defs26" />
  <sodipodi:namedview
     id="namedview26"
     pagecolor="#ffffff"
     bordercolor="#000000"
     borderopacity="0.25"
     inkscape:showpageshadow="2"
     inkscape:pageopacity="0.0"
     inkscape:pagecheckerboard="0"
     inkscape:deskcolor="#d1d1d1"
     inkscape:zoom="1"
     inkscape:cx="325.5"
     inkscape:cy="107"
     inkscape:window-width="1312"
     inkscape:window-height="449"
     inkscape:window-x="215"
     inkscape:window-y="39"
     inkscape:window-maximized="0"
     inkscape:current-layer="svg26" />
  <clipPath
     id="a">
    <path
       d="m 0.1,56.1 h 3839 V 1166.7 H 0.1 Z"
       id="path1" />
  </clipPath>
  <linearGradient
     id="b"
     gradientUnits="userSpaceOnUse"
     x1="1775.0726"
     x2="1775.0726"
     y1="1619.5195"
     y2="203.6283">
    <stop
       offset=".3432"
       stop-color="#feee00"
       stop-opacity="0"
       id="stop1" />
    <stop
       offset=".3678"
       stop-color="#fed200"
       stop-opacity=".1521"
       id="stop2" />
    <stop
       offset=".4102"
       stop-color="#fda800"
       stop-opacity=".4152"
       id="stop3" />
    <stop
       offset=".4487"
       stop-color="#fd8a00"
       stop-opacity=".6536"
       id="stop4" />
    <stop
       offset=".4814"
       stop-color="#fd7800"
       stop-opacity=".8565"
       id="stop5" />
    <stop
       offset=".5046"
       stop-color="#fd7100"
       id="stop6" />
    <stop
       offset=".6858"
       stop-color="#fd0100"
       id="stop7" />
    <stop
       offset=".7798"
       stop-color="#fe0000"
       id="stop8" />
  </linearGradient>
  <g
     id="g2">
    <g
       id="g1"
       transform="scale(0.16666666,0.16709512)">
      <g
         id="g28">
        <g
           id="g27"
           transform="scale(1,0.99914387)">
          <g
             transform="matrix(1.0002605,0,0,1.0011142,-0.100026,0)"
             id="g26">
            <path
               d="M 1472.3,109.3 1429.7,3.2 1429.5,2.6 h -32.1 V 144 h 22.5 l -0.5,-113.9 44.7,113.9 h 15.8 l 44.7,-113.9 -0.5,113.1 v 0.8 h 22.3 V 2.6 h -31.9 z"
               id="path8" />
            <path
               d="m 1736.4,91.8 h 60 c -2.2,9 -7.8,17.3 -15.9,23.3 -8.6,6.7 -19.6,10.2 -31.7,10.2 -32.7,0 -50.3,-27 -50.3,-52.3 0,-33.5 25.9,-51.6 50.3,-51.6 10.7,0 20.4,3.1 28.9,9.3 4.8,3.5 9,7.9 12.6,13 l 0.3,0.4 h 26.9 L 1817,42.9 C 1806.5,17.6 1778.6,0 1749.2,0 c -41.8,0 -74.5,32 -74.5,73 0,41.3 32.6,73.7 74.3,73.7 30,0 57.1,-16.6 68.9,-42.2 5.7,-12.5 6.3,-26.3 6.3,-31.7 v -0.9 h -87.8 z"
               id="path9" />
            <path
               d="M 1926.1,106.9 1855.2,3 1854.9,2.6 h -22.3 V 144 h 23.3 l -0.4,-104.4 71.5,104.1 0.2,0.3 h 21.7 V 2.6 h -23.2 z"
               id="path10" />
            <path
               d="m 2166,2.6 -40,110.8 -39.5,-110.2 -0.2,-0.6 h -24.9 l 52.9,141.4 h 23.3 L 2190.9,2.6 Z"
               id="path11" />
            <path
               d="m 2253.8,0 c -42.1,0 -73.9,31.9 -73.9,74.1 v 0.2 c 0,40.6 32.4,72.4 73.7,72.4 41.7,0 74.3,-32.2 74.3,-73.3 0,-41.1 -32.5,-73.4 -74.1,-73.4 z m 50.1,73.5 c 0,32.4 -25.3,51.8 -49.7,51.8 -28.8,0 -50.5,-22.3 -50.5,-52 v -0.2 c 0,-29 22.1,-51.8 50.3,-51.8 31.2,0.1 49.9,26.6 49.9,52.2 z"
               id="path12" />
            <path
               d="m 2393,70.7 44.5,-68.1 h -27.1 l -31.5,49.7 -31.6,-49.7 h -27.4 l 45.2,67.7 -48.9,73.7 h 26.8 l 35.2,-56 36.1,56 h 27.4 z"
               id="path13" />
            <path
               d="M 1629.3,2.6 H 1608 L 1549.9,144 h 26.1 l 12.8,-33 3.7,-10.9 h 51 l 3.7,10.9 13.2,33 h 26 z m -11.5,29.2 18.5,48.6 h -36.8 z"
               id="path14" />
            <path
               d="m 2031.9,2.6 h -21.4 L 1952.4,144 h 26.1 l 12.8,-33 3.7,-10.9 h 51 l 3.7,10.9 13.2,33 h 26 z m -11.5,29.2 18.5,48.6 h -36.8 z"
               id="path15" />
            <g
               clip-path="url(#a)"
               id="g25">
              <path
                 d="M 360,203.6 H 29.7 c -26,0 -39.3,31 -21.5,49.9 l 1289.6,1366 h 149.8 L 463.9,256.7 C 439.8,223.4 401.2,203.6 360,203.6 Z m 165,407.8 c -18.9,0 -36.9,-8.3 -49.2,-22.6 l -149.3,-174 c -16.6,-19.4 -2.9,-49.4 22.7,-49.4 H 360 c 19.7,0 38.4,9 50.7,24.4 l 137.7,173 c 15.6,19.7 1.7,48.6 -23.4,48.6 z M 841.7,203.6 H 485.4 l 111.8,161.8 h 229.5 c 10.8,0 20.8,5.9 26.1,15.3 l 104.1,186.2 c 11.2,19.9 -3.3,44.5 -26.1,44.5 H 904.2 L 786.9,418.9 H 634.1 l 829.3,1200.7 h 128.7 L 935.3,262.3 c -17.4,-35.9 -53.7,-58.7 -93.6,-58.7 z m 999.8,215.3 h -154.9 c -15.2,0 -27.9,-11.3 -29.7,-26.4 l -3.2,-27.1 h 268.5 l 4.6,-161.8 h -364.4 c -55.1,0 -96.2,50.7 -84.9,104.6 l 41.3,196.1 c 6.6,31.3 34.2,53.7 66.1,53.7 h 191.7 l 1.2,21.8 c 1,17.2 -12.7,31.6 -29.9,31.6 h -206.7 l 212.3,1008.1 h 133.1 L 1918.4,498 c 1.2,-43.3 -33.6,-79.1 -76.9,-79.1 z m 465.1,0 H 2182 c -18.4,0 -32.4,-16.4 -29.5,-34.6 l 3,-18.8 h 233 l 47,-161.8 h -357.7 c -45.7,0 -83.6,35.4 -86.7,81 l -14.3,212.7 c -2.2,32.8 23.8,60.6 56.7,60.6 h 133 l -5.4,29 c -2.6,14.2 -15,24.5 -29.4,24.5 h -162.6 l -67.9,1008.1 h 123.1 l 330.1,-1137 c 9.3,-31.9 -14.6,-63.7 -47.8,-63.7 z m 306.9,192.5 c -21.8,0 -36.2,-22.5 -27.2,-42.3 l 5.1,-11.1 h 187.9 l 80.2,-139.1 h -158.1 c -21.8,0 -36.2,-22.5 -27.2,-42.3 l 5.1,-11.1 h 214.2 l 90.2,-161.8 h -484.6 l -457.9,1415.9 h 126 L 2748.5,611.5 h -135 z m 732.7,-407.8 -165.9,214.8 c -5.7,7.3 -14.4,11.6 -23.7,11.6 -24.5,0 -38.6,-27.8 -24.1,-47.6 l 130.9,-178.9 h -223.3 l -184.5,302.3 c -16.9,27.7 3,63.3 35.5,63.3 h 49.4 l -726,1050.4 h 60.4 L 3143.4,569.1 h 65.7 c 11.9,0 23.3,-5.1 31.2,-14.1 L 3550.1,203.6 Z M 1429.4,558 c 30,0 52.1,-28 45.2,-57.2 l -70.2,-297.2 h -178.5 l 57.3,176.1 c 6.3,19.3 -8.1,39.2 -28.4,39.2 h -4.7 c -12.5,0 -23.7,-7.8 -28,-19.5 L 1149.7,203.7 H 961.1 l 138.1,301 c 14.9,32.5 47.4,53.3 83.1,53.3 h 35.3 l 69.8,176.4 350,885.1 H 1701 L 1389.1,558 Z"
                 fill="url(#b)"
                 id="path16"
                 style="fill:url(#b)" />
              <g
                 fill="#fe0000"
                 id="g24">
                <path
                   d="m 3769.6,109.8 h -105.5 l -46,52.2 h 151.6 c 23.1,0 23.1,34.6 0,34.6 h -136.2 l -46,52.2 -39.1,44.3 -54.9,62.2 h 219.2 l 54.9,-62.2 h -148.2 l 39.1,-44.3 h 111.2 c 92.6,0.1 92.6,-139 -0.1,-139 z"
                   id="path17" />
                <path
                   d="M 1287.3,734.4 1217.5,558 h -35.3 c -35.7,0 -68.2,-20.8 -83.1,-53.3 L 961,203.6 h 188.6 l 72.4,195.7 c 4.3,11.7 15.5,19.5 28,19.5 h 4.7 c 20.3,0 34.7,-19.8 28.4,-39.2 l -57.3,-176.1 h 178.5 l 70.2,297.2 c 6.9,29.2 -15.2,57.2 -45.2,57.2 H 1389 l 51.8,176.4"
                   id="path18" />
                <path
                   d="m 3180.3,418.5 c -5.7,7.3 -14.4,11.6 -23.7,11.6 -24.5,0 -38.6,-27.8 -24.1,-47.6 l 130.9,-178.9 h -223.3 l -184.5,302.3 c -16.9,27.7 3,63.3 35.5,63.3 h 49.4 l -114.2,165.2 h 180.5 l 136.6,-165.2 h 65.7 c 11.9,0 23.3,-5.1 31.2,-14.1 l 309.8,-351.4 h -203.9 z"
                   id="path19" />
                <path
                   d="m 2327.3,734.4 h 350.2 l 70.9,-123 h -134.9 c -21.8,0 -36.2,-22.5 -27.2,-42.3 l 5.1,-11.1 h 187.9 l 80.2,-139.1 h -158.1 c -21.8,0 -36.2,-22.5 -27.2,-42.3 l 5.1,-11.1 h 214.2 l 90.2,-161.8 h -484.6 z"
                   id="path20" />
                <path
                   d="m 1991.1,284.6 -14.3,212.7 c -2.2,32.8 23.8,60.6 56.7,60.6 h 133 l -5.4,29 c -2.6,14.2 -15,24.5 -29.4,24.5 h -162.6 l -8.3,123 H 2250 c 18.5,0 34.8,-12.2 39.9,-30 l 64.4,-221.8 c 9.3,-31.9 -14.7,-63.7 -47.8,-63.7 H 2182 c -18.4,0 -32.4,-16.4 -29.5,-34.6 l 3,-18.8 h 233 l 47,-161.8 h -357.7 c -45.7,-0.1 -83.6,35.3 -86.7,80.9 z"
                   id="path21" />
                <path
                   d="m 1477.4,308.2 41.3,196.1 c 6.6,31.3 34.2,53.7 66.1,53.7 h 191.7 l 1.2,21.8 c 1,17.2 -12.7,31.6 -29.9,31.6 h -206.7 l 25.9,123 h 304.1 c 22.5,0 40.9,-17.9 41.6,-40.4 l 5.5,-196 c 1.2,-43.3 -33.6,-79.1 -76.9,-79.1 h -154.9 c -15.2,0 -27.9,-11.3 -29.7,-26.4 l -3.2,-27.1 H 1922 l 4.6,-161.8 h -364.4 c -55,0 -96.1,50.7 -84.8,104.6 z"
                   id="path22" />
                <path
                   d="M 935.3,262.3 C 917.9,226.4 881.6,203.6 841.7,203.6 H 485.4 l 111.8,161.8 h 229.5 c 10.8,0 20.8,5.9 26.1,15.3 l 104.1,186.2 c 11.1,19.9 -3.3,44.5 -26.1,44.5 H 904.2 L 786.9,418.9 H 634.1 L 852,734.4 h 245.4 c 30.7,0 50.8,-32.1 37.4,-59.7 z"
                   id="path23" />
                <path
                   d="M 463.9,256.7 C 439.8,223.4 401.2,203.6 360.1,203.6 H 29.6 c -26,0 -39.3,31 -21.5,49.9 l 423.3,448.3 c 19.6,20.8 46.9,32.5 75.4,32.5 h 220.5 c 33.9,0 53.6,-38.4 33.7,-65.9 z M 525,611.4 c -18.9,0 -36.9,-8.3 -49.2,-22.6 l -149.3,-174 c -16.6,-19.4 -2.9,-49.4 22.7,-49.4 H 360 c 19.7,0 38.4,9 50.7,24.4 l 137.7,173 c 15.6,19.7 1.7,48.6 -23.4,48.6 z"
                   id="path24" />
              </g>
            </g>
          </g>
        </g>
      </g>
    </g>
  </g>
</svg>
