<?xml version="1.0" encoding="UTF-8" standalone="no"?>
<svg
   height="292"
   viewBox="0 0 640 291.99998"
   width="640"
   version="1.1"
   id="svg8"
   sodipodi:docname="pc.svg"
   inkscape:version="1.3.2 (091e20e, 2023-11-25)"
   xmlns:inkscape="http://www.inkscape.org/namespaces/inkscape"
   xmlns:sodipodi="http://sodipodi.sourceforge.net/DTD/sodipodi-0.dtd"
   xmlns="http://www.w3.org/2000/svg"
   xmlns:svg="http://www.w3.org/2000/svg">
  <defs
     id="defs8" />
  <sodipodi:namedview
     id="namedview8"
     pagecolor="#ffffff"
     bordercolor="#000000"
     borderopacity="0.25"
     inkscape:showpageshadow="2"
     inkscape:pageopacity="0.0"
     inkscape:pagecheckerboard="0"
     inkscape:deskcolor="#d1d1d1"
     inkscape:zoom="1"
     inkscape:cx="318.5"
     inkscape:cy="101"
     inkscape:window-width="1312"
     inkscape:window-height="449"
     inkscape:window-x="215"
     inkscape:window-y="39"
     inkscape:window-maximized="0"
     inkscape:current-layer="svg8" />
  <g
     id="g2">
    <g
       id="g1"
       transform="scale(0.16666667,0.16676184)">
      <g
         id="g10">
        <g
           id="g9"
           transform="scale(1,0.99942926)">
          <g
             transform="scale(0.99997396,1.0003426)"
             id="g8">
            <path
               d="m 18.9,1712 v -348.7 l 467.9,-113.6 v -2.2 L 18.9,1133.8 V 785.1 h 795.4 v 231.7 H 304.1 v 2.2 l 510.2,138.1 v 182.7 L 304.1,1478 v 2.2 H 814.3 V 1712 Z"
               fill="#828283"
               id="path1" />
            <path
               d="m 547,512.2 c 20.1,0 37.9,-3.3 52.4,-8.9 47.9,-17.8 57.9,-71.3 57.9,-117 0,-40.1 -13.4,-101.4 -72.4,-101.4 -41.2,0 -52.4,34.5 -91.4,171.6 C 457.8,582.4 423.3,726.1 262.9,726.1 79.1,726.1 0,569 0,405.2 0,232.5 65.7,79.9 259.6,73.2 v 231.7 c -30.1,-4.5 -50.1,8.9 -63.5,29 -14.5,20.1 -20.1,47.9 -20.1,72.4 0,33.4 8.9,88 53.5,88 56.8,-4.5 69.1,-118.1 100.3,-230.6 C 361,151.2 413.3,39.8 559.3,39.8 c 207.2,0 274.1,190.5 274.1,367.6 0,90.2 -32.3,347.6 -286.3,349.8 v -245 z"
               fill="#828283"
               id="path2" />
            <path
               d="m 3311.1,905 c -0.1,3.2 -0.2,6.4 -0.2,9.5 -0.1,4 -0.2,8 -0.4,12 -0.2,4.3 -0.3,8.5 -0.5,12.7 -0.1,2.1 -0.2,4.3 -0.3,6.4 -2.1,40.3 -6.3,79.9 -12.5,118.7 110.2,39.3 187,93.2 187,193 0,170.9 -196.7,208.4 -325.5,208.4 -196.7,0 -369.9,-86.6 -369.9,-309.1 h -355.9 c -4.7,412.1 341.8,594.7 711.8,594.7 454.2,0 695.4,-229.5 695.4,-536.2 0,-379.3 -374.6,-456.6 -496.4,-487 -14.9,-3.8 -29.4,-7.5 -43.5,-11.2 0.4,2.6 0.7,5.3 1,7.9 0.1,0.7 0.2,1.4 0.3,2.1 0.8,5.9 1.5,11.8 2.2,17.7 0,0.4 0.1,0.8 0.1,1.1 1.9,16.6 3.4,33.4 4.6,50.3 0.2,3.2 0.5,6.3 0.6,9.5 0.2,3.6 0.4,7.3 0.6,10.9 0.2,4 0.4,8 0.6,12 0.1,3.2 0.3,6.4 0.4,9.6 0.2,4.8 0.3,9.7 0.4,14.5 0.1,2.5 0.1,5 0.2,7.5 0.1,7.5 0.2,15 0.2,22.5 v 1 c -0.1,7.4 -0.1,14.5 -0.3,21.5 z"
               fill="#fbbe02"
               id="path3" />
            <path
               d="m 2429.7,1442.2 c -1,0 -2,0.1 -3,0.1 -39.1,0 -75.3,-4 -108.7,-11.4 -17.8,28.2 -37.2,55 -58.2,80.1 -56.1,67.2 -122.9,122 -199,163.9 105.7,49.2 228.2,76.5 365.8,76.5 97.4,0 187.2,-13.8 268.9,-39.2 -60.2,-31.9 -113,-70.8 -157.9,-116.2 -44.7,-45.3 -80.8,-96.9 -107.9,-153.8 z"
               fill="#8d2877"
               id="path4" />
            <path
               d="m 2399.5,866.3 c 0,-191.3 -38.7,-348.9 -107.2,-473.4 -67.5,23.4 -122.5,66.3 -164.5,128.4 -59.7,88.2 -95.9,218 -95.9,362.9 0,1 -0.1,1.9 -0.2,2.8 0.1,4.9 0.2,9.7 0.2,14.4 0,369.9 -203.7,501.1 -416.8,501.1 H 1287.3 V 348.9 h 262.2 c 44.3,0 84.8,3.2 122,9.4 29.7,-52.3 64.1,-100.7 103.2,-144.7 44.2,-49.8 93.4,-93.1 147,-129.8 -86,-29.3 -180.5,-43.9 -280.8,-43.9 H 919.8 v 1671.7 h 721.1 c 510.4,-0.1 758.6,-360.6 758.6,-845.3 z"
               fill="#bc2223"
               id="path5" />
            <path
               d="m 1604.9,882.7 c 0,163.9 35.2,316.6 101.9,446.9 51.3,-11.8 105.9,-36.1 151.9,-82.9 73.3,-74.7 110.5,-190.9 110.5,-345.3 0,-18.3 1.9,-44.7 4.8,-73.1 14.8,-272.1 143.1,-519.3 452.8,-519.3 12,0 23.6,0.4 35.1,1.1 36.4,-93.2 100.5,-173.4 190.3,-236.8 16.1,-11.3 32.8,-22 50.1,-32 C 2618.8,14.5 2526.7,0 2426.7,0 1909.3,0 1604.9,386.3 1604.9,882.7 Z"
               fill="#8d2877"
               id="path6" />
            <path
               d="m 2489,505.7 c 0,240 146.6,352.6 326.6,421.6 3.3,-91.3 -7,-184.1 -14.6,-252.7 -2,-18.4 -4,-35.7 -5.4,-50.9 -7.1,-75.4 9.1,-182.1 76.1,-255.6 26.6,-29.2 62.1,-52 99.6,-66 6.6,-2.5 13.2,-4.3 19.9,-5.6 46.8,-12.3 69.8,-10.7 106.6,-10.7 175.6,0 318.4,51.5 330.1,252.9 h 355.9 C 3783.8,152.2 3463,0 3114.2,0 2812.1,0 2489,163.9 2489,505.7 Z"
               fill="#fbbe02"
               id="path7" />
            <path
               d="m 3173.6,484.5 c -19.6,-47.3 -43.3,-93.1 -71.1,-136 0,0 0,0 -0.1,0 -221.4,-16.5 -252.7,179 -244.2,269.3 3.3,34.9 9.2,81.3 13.9,133.6 12.3,89.9 12.2,185.2 -2.8,274.9 -4.5,27 -10.4,53.5 -17.8,79.3 -2.8,120.1 6.5,268 254.2,295.1 168.6,-259.8 184.4,-631.2 67.9,-916.2 z"
               fill="#8d2877"
               id="path8" />
          </g>
        </g>
      </g>
    </g>
  </g>
</svg>
