<?xml version="1.0" encoding="UTF-8" standalone="no"?>
<svg
   enable-background="new 0 0 3839.5 1335.5"
   height="223"
   viewBox="0 0 640 223"
   width="640"
   version="1.1"
   id="svg17"
   sodipodi:docname="pcfx.svg"
   inkscape:version="1.3.2 (091e20e, 2023-11-25)"
   xmlns:inkscape="http://www.inkscape.org/namespaces/inkscape"
   xmlns:sodipodi="http://sodipodi.sourceforge.net/DTD/sodipodi-0.dtd"
   xmlns="http://www.w3.org/2000/svg"
   xmlns:svg="http://www.w3.org/2000/svg">
  <defs
     id="defs17" />
  <sodipodi:namedview
     id="namedview17"
     pagecolor="#ffffff"
     bordercolor="#000000"
     borderopacity="0.25"
     inkscape:showpageshadow="2"
     inkscape:pageopacity="0.0"
     inkscape:pagecheckerboard="0"
     inkscape:deskcolor="#d1d1d1"
     inkscape:zoom="1"
     inkscape:cx="287"
     inkscape:cy="107"
     inkscape:window-width="1312"
     inkscape:window-height="449"
     inkscape:window-x="0"
     inkscape:window-y="39"
     inkscape:window-maximized="0"
     inkscape:current-layer="svg17" />
  <g
     transform="matrix(0.16668837,0,0,0.16698469,0,-0.00805029)"
     id="g17">
    <g
       fill="#444444"
       id="g5">
      <path
         d="M 1171.1,378.6 H 999.5 931.2 v 922.8 h 94 v -255 h 146 c 445.1,0 445.1,-667.8 -0.1,-667.8 z m 0,573.8 h -146 V 472.6 h 146 c 319.9,0 319.9,479.8 0,479.8 z"
         id="path1" />
      <path
         d="m 2023.2,1214.2 c -214.2,0 -387.8,-173.6 -387.8,-387.8 0,-214.2 173.6,-387.8 387.8,-387.8 145.2,0 271.7,79.8 338.1,198 H 2466 c -73.7,-171.7 -244.2,-291.9 -442.9,-291.9 -266.1,0 -481.8,215.7 -481.8,481.8 0,266.1 215.7,481.8 481.8,481.8 198.7,0 369.2,-120.3 442.9,-291.9 h -104.7 c -66.5,117.9 -192.9,197.8 -338.1,197.8 z"
         id="path2" />
      <path
         d="M 2406.2,736.2 H 2538 v 180.2 h -131.8 z"
         id="path3" />
      <path
         d="M 3073.2,888.7 V 707.5 h -272.5 v -164 h 272.5 V 362.3 h -272.5 -140.9 -40.3 v 923.3 h 181.2 V 888.7 Z"
         id="path4" />
      <path
         d="M 3553.9,791 3801.4,362.3 H 3592.2 L 3449.3,609.8 3306.4,362.3 h -209.2 l 247.5,428.7 -285.6,494.6 h 209.3 l 180.9,-313.4 181,313.4 h 209.2 z"
         id="path5" />
    </g>
    <path
       d="m 431.3,456 c 132.6,16.4 271.7,92.4 271.7,190.3 0,143.9 -189.5,246 -337.4,246 -137.9,0 -249.7,-55.9 -249.7,-123.3 0,-67.4 111.8,-122 249.7,-122 95.6,0 228.3,53.5 242.8,121.8 17.3,81.2 -43.1,128.6 -43.1,128.6 0,0 -88.6,76.9 -195.9,76.9 -107.3,0 -184.8,-36.6 -184.8,-87.1 0,-50.5 78.1,-91.5 185.4,-91.5 66.5,0 148.5,31 172.9,81.9 24.4,50.8 -32.9,156.4 -174,156.4 -76.8,0 -139,-29.7 -139,-66.2 0,-36.6 62.2,-63.8 139,-63.8 44.2,0 110.2,23.1 126.8,57.9 12.7,26.6 -0.9,85.1 -77.9,110"
       fill="none"
       stroke="#bcbcbc"
       stroke-linecap="round"
       stroke-miterlimit="10"
       stroke-width="40.1142"
       id="path6" />
    <g
       fill="#bcbcbc"
       id="g9">
      <circle
         cx="365.70001"
         cy="447.89999"
         r="30.6"
         id="circle6" />
      <path
         d="m 0,696 v 420.6 l 373.4,-219 V 477 Z"
         id="path7" />
      <path
         d="m 373.4,1137.7 v 197.8 L 746.8,1116.6 V 918.7 Z"
         id="path8" />
      <path
         d="m 373.4,1137.7 v 197.8 L 0,1116.6 V 918.7 Z"
         id="path9" />
    </g>
    <path
       d="m 32.6,661.8 v 420.5 l 373.3,-219 V 442.8 Z"
       fill="#ffdd34"
       id="path10" />
    <circle
       cx="409.5"
       cy="409.20001"
       fill="#7b46ce"
       r="30.6"
       id="circle10" />
    <path
       d="m 475,417.3 c 132.6,16.4 271.7,92.4 271.7,190.3 0,143.9 -189.5,246 -337.4,246 -137.9,0 -249.7,-55.9 -249.7,-123.3 0,-67.4 111.8,-122 249.7,-122 95.6,0 228.3,53.5 242.8,121.8 17.3,81.2 -43.1,128.6 -43.1,128.6 0,0 -88.6,76.9 -195.9,76.9 -107.3,0 -184.7,-36.6 -184.7,-87.1 0,-50.5 78.1,-91.5 185.4,-91.5 66.5,0 148.5,31 172.9,81.9 24.3,50.8 -32.9,156.4 -174.1,156.4 -76.8,0 -139,-29.7 -139,-66.2 0,-36.6 62.2,-63.8 139,-63.8 44.2,0 110.2,23.1 126.8,57.9 12.7,26.6 -0.9,85.1 -77.9,110"
       fill="none"
       stroke="#7b46ce"
       stroke-linecap="round"
       stroke-miterlimit="10"
       stroke-width="40.1142"
       id="path11" />
    <path
       d="m 405.9,1103.4 v 197.9 l 373.4,-219 V 884.4 Z"
       fill="#ff3abd"
       id="path12" />
    <path
       d="m 405.9,1103.4 v 197.9 L 32.6,1082.3 V 884.4 Z"
       fill="#7b46ce"
       id="path13" />
    <g
       fill="#444444"
       id="g16">
      <path
         d="m 1434,8.2 h 78.2 c 17.9,0 39,16.7 48.4,25.9 l 137.1,152.1 V 8.2 h 46.6 V 251 h -81.6 c -17.2,0.1 -33.7,-7.1 -45.3,-19.8 L 1480.4,78.8 V 251 H 1434 Z"
         id="path14" />
      <path
         d="m 2405.5,252.5 c -56,7.4 -112.6,8.6 -168.8,3.7 -33.1,-2 -65.5,-10.6 -95.3,-25.3 -37.6,-19.4 -49.5,-63.1 -49,-102.8 0.4,-36.6 11.2,-75.6 43.9,-96.9 21.4,-14 44.3,-18.7 68.5,-23.1 66.3,-11.7 132.6,-9.1 197.3,-2 v 34.6 c -76.3,-14.8 -156.8,-11.1 -184.2,23.9 -13.6,17.6 -20.5,39.5 -19.5,61.8 0,33 11.2,82.8 78.2,92.5 43.6,6.4 86.7,1.6 128.6,-6.1 z"
         id="path15" />
      <path
         d="m 1927.9,214.9 c 6.8,0 111.7,0.5 147.9,0 v 36.3 c -72.7,2.8 -142.5,4.1 -216,1 -62.2,-2.6 -72.9,-33.8 -74.4,-64 V 8.2 H 2072 v 34.5 h -185.2 v 61.8 H 2056 v 33.8 h -169.2 c 0,18.3 0.6,39 0.8,42.8 1,23.5 11.9,32.2 40.6,33.8"
         id="path16" />
    </g>
  </g>
</svg>
