<?xml version="1.0" encoding="UTF-8" standalone="no"?>
<svg
   enable-background="new 0 0 3839 1214.3"
   height="202"
   viewBox="0 0 640 202"
   width="640"
   version="1.1"
   id="svg23"
   sodipodi:docname="ps2.svg"
   inkscape:version="1.3.2 (091e20e, 2023-11-25)"
   xmlns:inkscape="http://www.inkscape.org/namespaces/inkscape"
   xmlns:sodipodi="http://sodipodi.sourceforge.net/DTD/sodipodi-0.dtd"
   xmlns:xlink="http://www.w3.org/1999/xlink"
   xmlns="http://www.w3.org/2000/svg"
   xmlns:svg="http://www.w3.org/2000/svg">
  <defs
     id="defs23" />
  <sodipodi:namedview
     id="namedview23"
     pagecolor="#ffffff"
     bordercolor="#000000"
     borderopacity="0.25"
     inkscape:showpageshadow="2"
     inkscape:pageopacity="0.0"
     inkscape:pagecheckerboard="0"
     inkscape:deskcolor="#d1d1d1"
     inkscape:zoom="1"
     inkscape:cx="278"
     inkscape:cy="103"
     inkscape:window-width="1312"
     inkscape:window-height="449"
     inkscape:window-x="0"
     inkscape:window-y="39"
     inkscape:window-maximized="0"
     inkscape:current-layer="svg23" />
  <linearGradient
     id="a">
    <stop
       offset="0"
       stop-color="#1be7f2"
       id="stop1" />
    <stop
       offset=".01123279"
       stop-color="#1ce5f1"
       id="stop2" />
    <stop
       offset=".1812"
       stop-color="#2db8e0"
       id="stop3" />
    <stop
       offset=".3516"
       stop-color="#3a93d2"
       id="stop4" />
    <stop
       offset=".5199"
       stop-color="#4677c8"
       id="stop5" />
    <stop
       offset=".6855"
       stop-color="#4e63c0"
       id="stop6" />
    <stop
       offset=".847"
       stop-color="#5257bc"
       id="stop7" />
    <stop
       offset="1"
       stop-color="#5353ba"
       id="stop8" />
  </linearGradient>
  <linearGradient
     id="b"
     gradientUnits="userSpaceOnUse"
     x1="597.97693"
     x2="597.97693"
     xlink:href="#a"
     y1="662.01093"
     y2="0" />
  <linearGradient
     id="c"
     gradientUnits="userSpaceOnUse"
     x1="3240.9927"
     x2="3240.9927"
     xlink:href="#a"
     y1="662.01093"
     y2="0" />
  <linearGradient
     id="d"
     gradientUnits="userSpaceOnUse"
     x1="1830.8784"
     x2="1830.8784"
     xlink:href="#a"
     y1="662.01093"
     y2="0" />
  <g
     transform="scale(0.16671008,0.16635098)"
     id="g23">
    <path
       d="M 0,0 H 1196 V 354.6 H 47.3 V 662 H 0 V 307.4 H 1148.7 V 47.3 H 0 Z"
       fill="url(#b)"
       id="path8"
       style="fill:url(#b)" />
    <path
       d="M 3839,612.3 V 662 H 2643 V 307.4 H 3791.7 V 47.3 H 2643 V 0 H 3839 V 354.6 H 2690.3 V 614.7 H 3839 V 662"
       fill="url(#c)"
       id="path9"
       style="fill:url(#c)" />
    <path
       d="M 1806,0 V 614.7 H 1196 V 662 h 659.7 V 47.3 h 610.1 V 0 Z"
       fill="url(#d)"
       id="path10"
       style="fill:url(#d)" />
    <path
       d="M 985.8,892.3 V 1125 h 36.3 V 914.6 h 33.6 c 0,0 24.4,0 32.8,10.9 7.1,9.3 8.4,26.1 8.4,37.5 0,12.2 -0.8,31 -4.9,37.9 -6.2,10.5 -16.4,12.6 -25.7,12.6 h -22.2 v 20.7 h 31.9 c 0,0 28.8,1.2 41.2,-11.4 15.2,-15.4 19.1,-36.2 19.1,-64 0,-25.2 -9.2,-50.7 -27.9,-59.4 -15.5,-7.1 -43.4,-7.1 -43.4,-7.1 z"
       id="path11" />
    <path
       d="m 1165,892.3 h 36.3 v 232.8 H 1165 Z"
       id="path12" />
    <path
       d="m 1394.6,946.6 66.5,174.2 -38.1,93.5 h 30.1 L 1563,946.6 h -33.6 l -47.9,130.4 -44.6,-130.4 z"
       id="path13" />
    <path
       d="m 1590.4,1123.7 v -22 c 0,0 38.4,1.5 46.4,1.5 17.7,0 26.6,-3.8 33.3,-10.9 3.9,-4.3 7.5,-23.3 7.5,-30 0,-6.7 -1.3,-21.3 -3.9,-27.3 -2.7,-5.9 -8.9,-11.3 -18.2,-12.1 -6.6,-0.6 -16.9,-1.9 -28.8,-2.5 -16.8,-0.8 -27.9,-9.5 -33.2,-15.8 -5.3,-6.3 -12.4,-15.8 -12.4,-44.8 0,-29.1 7.5,-45.4 15.1,-52.9 7.5,-7.6 18.6,-10.9 27,-12.4 9.7,-1.7 25.7,-1.8 25.7,-1.8 l 50.9,1.5 v 22 c 0,0 -37.1,-1.5 -45.1,-1.5 -17.7,0 -23.1,3.8 -29.7,10.9 -3.9,4.2 -7,16 -7,22.7 0,6.8 0.8,20.4 3.5,26.3 2.6,5.9 8.9,11.3 18.2,12.2 6.6,0.5 16.9,1.8 28.8,2.4 16.9,0.8 27.9,9.5 33.2,15.8 5.3,6.3 12.5,19.6 12.5,48.6 0,29.1 -7.6,49.8 -15.1,57.4 -7.6,7.6 -18.6,10.9 -27,12.4 -9.8,1.7 -25.7,1.8 -25.7,1.8 z"
       id="path14" />
    <path
       d="m 1788.7,914.6 h -36.3 v 170.9 c 0,0 0.9,15.6 1.8,21.1 0.9,5.5 8.9,18.5 29.7,18.5 l 37.6,-0.7 v -21.9 c 0,0 -10.2,0.7 -16.4,0.7 -6.2,0 -13.8,-0.4 -15.1,-10.9 -1.4,-10.5 -1.4,-23.1 -1.4,-23.1 V 968.5 h 41 v -21.9 h -41 v -32"
       id="path15" />
    <path
       d="m 2139.3,946.6 h 36.3 v 178.5 h -36.3 z"
       id="path16" />
    <path
       d="m 2139.3,892.3 h 36.3 v 32.4 h -36.3 z"
       id="path17" />
    <path
       d="m 2265.5,979.3 c -5,6.2 -11.1,19.1 -11.1,56.5 0,37.4 6.1,50.4 11.1,56.5 5,6.1 14.2,10.2 26,10.2 11.9,0 21,-4.1 26.1,-10.2 5,-6.1 11.1,-19.1 11.1,-56.5 0,-37.5 -6.1,-50.4 -11.1,-56.5 -5,-6.1 -14.2,-10.2 -26.1,-10.2 -11.8,0 -21,4.1 -26,10.2 m 24.9,-34.3 c 24.7,0 43.9,5.5 54.2,13.9 10.4,8.3 23.2,26 23.2,76.9 0,51 -12.8,68.6 -23.2,76.9 -10.3,8.3 -29.5,13.9 -54.2,13.9 -24.8,0 -43.9,-5.6 -54.3,-13.9 -10.4,-8.4 -23.1,-26 -23.1,-76.9 0,-51 12.7,-68.6 23.1,-76.9 10.5,-8.3 29.6,-13.9 54.3,-13.9 z"
       id="path18" />
    <path
       d="m 2443.1,971.6 35.6,-1.5 c 9.3,0 20.3,2.5 25.6,9.3 5,6.4 8.1,13.9 8.1,26.1 v 119.3 h 36.4 v -122.3 c 0,-23.1 -7.1,-36.6 -17.8,-45 -15.2,-12.1 -42.5,-10.9 -42.5,-10.9 L 2407,948 v 176.8 h 36 V 971.6"
       id="path19" />
    <path
       d="m 2067,914.6 h -36.3 v 170.9 c 0,0 0.9,15.6 1.7,21.1 0.9,5.5 8.8,18.5 29.7,18.5 l 37.6,-0.7 v -21.9 c 0,0 -10.2,0.7 -16.4,0.7 -6.2,0 -13.8,-0.4 -15.1,-10.9 -1.3,-10.5 -1.3,-23.1 -1.3,-23.1 V 968.5 h 40.9 V 946.6 H 2067 Z"
       id="path20" />
    <path
       d="m 1339.2,1005.5 c 0,-12.2 -3.1,-19.8 -8.1,-26.1 -5.3,-6.7 -16.2,-9.3 -25.6,-9.3 l -47.9,1.5 V 948 l 57.7,-1.5 c 0,0 27.3,-1.2 42.6,10.9 10.6,8.5 17.7,21.9 17.7,45 V 1123 l -69.6,1.5 c 0,0 -31.5,0.1 -47.4,-6.3 -15.5,-6.3 -23.9,-23.6 -23.9,-47.6 0,-23.2 7.1,-36.6 17.7,-45.1 15.3,-12.1 42.5,-10.9 42.5,-10.9 h 22.2 v 20.6 h -12.5 c -9.3,0 -19,1.7 -24.3,8.5 -5,6.3 -7.6,11.8 -7.6,24 0,16 3.1,23.2 10.6,28.6 6.7,4.9 18.6,5.9 31.9,5.9 l 24,-1.5 z"
       id="path21" />
    <path
       d="m 1951.9,1005.5 c 0,-12.2 -3,-19.8 -8,-26.1 -5.4,-6.7 -16.3,-9.3 -25.6,-9.3 l -47.9,1.5 V 948 l 57.6,-1.5 c 0,0 27.3,-1.2 42.5,10.9 10.6,8.5 17.8,21.9 17.8,45 V 1123 l -69.6,1.5 c 0,0 -31.6,0.1 -47.4,-6.3 -15.5,-6.3 -24,-23.6 -24,-47.6 0,-23.2 7.1,-36.6 17.7,-45.1 15.2,-12.1 42.6,-10.9 42.6,-10.9 h 22.2 v 20.6 h -12.5 c -9.3,0 -19,1.7 -24.2,8.5 -5,6.3 -7.7,11.8 -7.7,24 0,16 3.1,23.2 10.6,28.6 6.6,4.9 18.6,5.9 31.9,5.9 l 23.9,-1.5 v -95.2"
       id="path22" />
    <path
       d="m 2853.2,922.3 c 0.5,26.8 -0.8,40.9 -9.8,54.4 -8,11.8 -23.7,22.6 -58.5,22.6 l -43.1,-1.3 c -6.8,0.1 -24.5,2.1 -32.8,11.1 -7.2,7.6 -7.7,13.4 -8.4,34 v 60.2 h 146.7 v 29.6 H 2687 l -7.7,-0.1 c -10.9,0 -21.6,-7.4 -21.6,-22.2 v -44.9 c 0.7,-52.5 4.5,-60.1 15.9,-73.8 7.9,-9.5 26.4,-20.1 49,-21.3 4.4,-0.2 12.8,-0.8 24.4,-0.4 8.6,0.3 17.1,0.5 20.9,0.5 20,0.2 27.3,-3.4 32.7,-10.6 6.2,-8.1 9.5,-17.6 9.5,-33.1 0,-14.5 -2.9,-28.4 -8.5,-34.8 -6.8,-7.4 -13.2,-12.3 -32,-12.3 -47.4,-0.1 -102.8,1.1 -102.8,1.1 v -27.8 c 0,0 54.1,-2.4 109.3,-3.2 34.4,-0.5 53.3,8.6 62.9,21.1 10.1,13.2 13.8,25.6 14.2,51.2"
       id="path23" />
  </g>
</svg>
