<?xml version="1.0" encoding="UTF-8" standalone="no"?>
<svg
   height="63"
   viewBox="0 0 640 62.999998"
   width="640"
   version="1.1"
   id="svg9"
   sodipodi:docname="pspminis.svg"
   inkscape:version="1.3.2 (091e20e, 2023-11-25)"
   xmlns:inkscape="http://www.inkscape.org/namespaces/inkscape"
   xmlns:sodipodi="http://sodipodi.sourceforge.net/DTD/sodipodi-0.dtd"
   xmlns:xlink="http://www.w3.org/1999/xlink"
   xmlns="http://www.w3.org/2000/svg"
   xmlns:svg="http://www.w3.org/2000/svg">
  <defs
     id="defs9" />
  <sodipodi:namedview
     id="namedview9"
     pagecolor="#ffffff"
     bordercolor="#000000"
     borderopacity="0.25"
     inkscape:showpageshadow="2"
     inkscape:pageopacity="0.0"
     inkscape:pagecheckerboard="0"
     inkscape:deskcolor="#d1d1d1"
     inkscape:zoom="1"
     inkscape:cx="327.5"
     inkscape:cy="32"
     inkscape:window-width="1312"
     inkscape:window-height="449"
     inkscape:window-x="215"
     inkscape:window-y="39"
     inkscape:window-maximized="0"
     inkscape:current-layer="svg9" />
  <linearGradient
     id="a">
    <stop
       offset="0"
       stop-color="#48407d"
       id="stop1" />
    <stop
       offset="1"
       stop-color="#6a93c9"
       id="stop2" />
  </linearGradient>
  <linearGradient
     id="b"
     gradientTransform="matrix(1,0,0,-1,1523.5,7095.4399)"
     gradientUnits="userSpaceOnUse"
     x1="1469.998"
     x2="1469.998"
     xlink:href="#a"
     y1="6717.3281"
     y2="7020.4575" />
  <linearGradient
     id="c"
     gradientTransform="matrix(1,0,0,-1,1523.5,7095.4399)"
     gradientUnits="userSpaceOnUse"
     x1="711.3252"
     x2="711.3252"
     xlink:href="#a"
     y1="6717.3281"
     y2="7020.4575" />
  <linearGradient
     id="d"
     gradientTransform="matrix(1,0,0,-1,-3845.1924,-88.1115)"
     gradientUnits="userSpaceOnUse"
     x1="6533.0117"
     x2="6533.0117"
     xlink:href="#a"
     y1="-466.22311"
     y2="-163.0939" />
  <linearGradient
     id="e"
     gradientTransform="matrix(1,0,0,-1,-3845.1924,-88.1115)"
     gradientUnits="userSpaceOnUse"
     x1="7142.769"
     x2="7142.769"
     xlink:href="#a"
     y1="-466.22311"
     y2="-163.0939" />
  <linearGradient
     id="f"
     gradientTransform="matrix(1,0,0,-1,1523.5,7095.4399)"
     gradientUnits="userSpaceOnUse"
     x1="2104.0994"
     x2="2104.0994"
     xlink:href="#a"
     y1="6716.8281"
     y2="7095.4399" />
  <g
     id="g2">
    <g
       id="g1"
       transform="scale(0.16666666,0.16622691)">
      <g
         id="g11">
        <g
           id="g10"
           transform="scale(1,1.0026455)">
          <g
             transform="scale(1.0002605,0.99815157)"
             id="g9">
            <path
               d="M 1231.7,237.4 V 378.1 H 1210 V 215.7 h 526 V 96.7 H 1210 V 75 h 547.6 v 162.4 z"
               id="path2" />
            <path
               d="M 0,75 H 547.7 V 237.4 H 21.7 V 378.1 H 0 V 215.7 H 526 V 96.6 H 0 Z"
               id="path3" />
            <path
               d="M 827,75 V 356.5 H 547.7 v 21.6 H 849.8 V 96.6 h 279.3 V 75 Z"
               id="path4" />
            <path
               d="m 2993.5,75 c -124.1,0 -181.4,80.3 -181.4,155.4 v 49.5 98.3 h 64.3 v -98.3 -49.5 c 0,-54.3 29.1,-104.1 117.1,-104.1 88,0 117.1,49.8 117.1,104.1 v 49.5 98.3 h 64.3 V 279.9 230.4 C 3175,155.3 3117.7,75 2993.5,75 Z"
               fill="url(#b)"
               id="path5"
               style="fill:url(#b)" />
            <path
               d="m 2384.1,75 c -71.1,0 -120.2,26.4 -149.3,63.1 -29,-36.7 -78.1,-63.1 -149.3,-63.1 -124.1,0 -181.4,80.3 -181.4,155.4 v 49.5 98.3 h 64.3 v -98.3 -49.5 c 0,-54.3 29.1,-104.1 117.1,-104.1 88,0 117.1,49.8 117.1,104.1 v 49.5 98.3 h 64.3 v -98.3 -49.5 c 0,-54.3 29.1,-104.1 117.1,-104.1 88,0 117.1,49.8 117.1,104.1 v 49.5 98.3 h 64.3 V 279.9 230.4 C 2565.5,155.3 2508.2,75 2384.1,75 Z"
               fill="url(#c)"
               id="path6"
               style="fill:url(#c)" />
            <path
               d="M 2655.7,378.1 H 2720 V 180.4 h -64.3 z m 0,-303.1 v 51.2 H 2720 V 75 Z"
               fill="url(#d)"
               id="path7"
               style="fill:url(#d)" />
            <path
               d="m 3265.4,378.1 h 64.3 V 180.4 h -64.3 z m 0,-303.1 v 51.2 h 64.3 V 75 Z"
               fill="url(#e)"
               id="path8"
               style="fill:url(#e)" />
            <path
               d="m 3776.9,0 c -124.1,0 -181.4,80.3 -181.4,155.4 v 68 c 0,54.3 -29.1,104.1 -117.1,104.1 h -62.3 v 51.2 h 62.2 c 124.1,0 181.4,-80.3 181.4,-155.4 v -68 c 0,-54.3 29.1,-104.1 117.1,-104.1 H 3839 V 0 Z"
               fill="url(#f)"
               id="path9"
               style="fill:url(#f)" />
          </g>
        </g>
      </g>
    </g>
  </g>
</svg>
