<?xml version="1.0" encoding="UTF-8" standalone="no"?>
<svg
   enable-background="new 0 0 3839 948.2"
   height="158"
   viewBox="0 0 640 158"
   width="640"
   version="1.1"
   id="svg37"
   sodipodi:docname="sega32x.svg"
   inkscape:version="1.3.2 (091e20e, 2023-11-25)"
   xmlns:inkscape="http://www.inkscape.org/namespaces/inkscape"
   xmlns:sodipodi="http://sodipodi.sourceforge.net/DTD/sodipodi-0.dtd"
   xmlns="http://www.w3.org/2000/svg"
   xmlns:svg="http://www.w3.org/2000/svg">
  <defs
     id="defs37" />
  <sodipodi:namedview
     id="namedview37"
     pagecolor="#ffffff"
     bordercolor="#000000"
     borderopacity="0.25"
     inkscape:showpageshadow="2"
     inkscape:pageopacity="0.0"
     inkscape:pagecheckerboard="0"
     inkscape:deskcolor="#d1d1d1"
     inkscape:zoom="1"
     inkscape:cx="288"
     inkscape:cy="81"
     inkscape:window-width="1312"
     inkscape:window-height="449"
     inkscape:window-x="0"
     inkscape:window-y="39"
     inkscape:window-maximized="0"
     inkscape:current-layer="svg37" />
  <g
     transform="scale(0.16671008,0.16663151)"
     id="g37">
    <path
       d="m 2225.6,921.5 v -17 c 39.4,-2.4 50.4,-20.6 80.4,-50.9 L 2700,464.4 2328,83.7 c -9.5,-9.7 -23.7,-27.9 -63,-27.9 v -17 h 371.9 v 17 c -20.5,0 -33.2,4.9 -33.2,17 0,4.9 7.9,14.6 23.7,30.4 l 214.5,220.6 223.9,-222 c 12.6,-13.4 22.1,-23.1 22.1,-30.4 0,-9.7 -12.6,-15.8 -26.8,-15.8 v -17 h 349.8 v 17 c -52,1.2 -72.5,21.9 -102.4,50.9 l -343.6,340.8 397.2,406.2 c 31.6,32.8 42.5,49.7 85.1,50.9 v 17 h -368.9 v -17 c 23.7,0 30,-3.6 30,-15.8 0,-10.9 -26.8,-35.1 -56.7,-65.5 L 2821.4,589 l -279,276.6 c -7.9,8.5 -14.2,12.1 -14.2,23.1 0,9.7 12.6,15.8 33.1,15.8 v 17 z"
       id="path1" />
    <path
       d="m 411.4,357.7 h 22.1 c 6.3,20.6 31.6,30.4 119.8,30.4 216,0 274.3,-54.5 274.3,-106.7 0,-55.8 -75.7,-111.5 -241.1,-111.5 -212.8,0 -359.4,89.8 -359.4,129.7 0,8.5 3.2,15.8 6.3,21.9 L 214.5,333.6 47.3,164.9 69.4,155.2 c 6.3,3.6 14.2,7.3 23.7,7.3 45.7,0 141.9,-135.8 507.5,-135.8 256.9,0 450.8,106.7 450.8,246.1 0,82.5 -58.3,146.7 -159.2,169.7 v 2.4 c 132.4,36.3 223.9,105.4 223.9,220.7 0,156.5 -198.6,268 -504.3,268 -411.4,0 -501.3,-109.1 -554.9,-109.1 -12.6,0 -22.1,4.9 -31.6,10.9 L 0,828.2 126.1,619.6 l 23.7,10.9 c 0,3.6 -1.6,8.5 -1.6,14.6 0,47.3 174.9,145.5 436.6,145.5 198.6,0 307.3,-53.3 307.3,-129.7 0,-66.7 -82,-139.4 -310.5,-139.4 -118.2,0 -143.4,13.4 -148.2,35.1 H 411.3 V 357.7 Z"
       id="path2" />
    <path
       d="m 1165.5,206.1 22.1,-13.4 c 3.2,3.6 9.5,6.1 18.9,6.1 44.1,0 162.4,-172.1 498.1,-172.1 195.4,0 439.7,86.1 439.7,254.6 0,322.5 -602.1,288.6 -762.9,492.3 h 759.8 c 34.6,0 47.3,-9.7 47.3,-29.1 h 22.1 v 203.7 h -22.1 c 0,-17 -12.6,-26.7 -47.3,-26.7 h -1012 c 0,-442.5 791.3,-423.2 791.3,-631.8 0,-78.8 -118.2,-120 -225.4,-120 -181.2,0 -335.7,116.4 -335.7,169.7 0,10.9 6.3,18.2 12.6,24.3 l -20.5,14.6 z"
       id="path3" />
    <g
       fill="#e00000"
       id="g6">
      <path
         d="m 2250.1,894.9 v -17 c 39.4,-2.4 50.4,-20.6 80.4,-50.9 L 2724.5,437.8 2352.6,57 c -9.5,-9.7 -23.7,-27.9 -63,-27.9 v -17 h 371.9 v 17 c -20.5,0 -33.2,4.9 -33.2,17 0,4.9 7.9,14.6 23.7,30.4 l 214.4,220.7 223.9,-221.9 c 12.6,-13.4 22.1,-23.1 22.1,-30.4 0,-9.7 -12.6,-15.8 -26.8,-15.8 v -17 h 349.9 v 17 C 3383.5,30.3 3363,51 3333.1,80 L 2989.5,420.7 3386.7,827 c 31.6,32.8 42.5,49.7 85.1,50.9 v 17 h -368.9 v -17 c 23.7,0 30,-3.6 30,-15.8 0,-10.9 -26.8,-35.1 -56.7,-65.5 L 2846,562.5 2567,839 c -7.9,8.5 -14.2,12.1 -14.2,23.1 0,9.7 12.6,15.8 33.1,15.8 v 17 z"
         id="path4" />
      <path
         d="m 436,331 h 22 c 6.3,20.6 31.6,30.4 119.8,30.4 216,0 274.3,-54.5 274.3,-106.7 0,-55.8 -75.7,-111.5 -241.1,-111.5 -212.8,0 -359.4,89.8 -359.4,129.7 0,8.5 3.2,15.8 6.3,21.9 L 239,306.7 71.8,138.2 93.9,128.5 c 6.3,3.6 14.2,7.3 23.7,7.3 C 163.3,135.8 259.4,0 625.1,0 c 256.9,0 450.8,106.7 450.8,246.1 0,82.5 -58.3,146.7 -159.2,169.7 v 2.4 c 132.4,36.3 223.9,105.4 223.9,220.7 0,156.5 -198.6,268 -504.3,268 -411.4,0 -501.3,-109.1 -554.9,-109.1 -12.6,0 -22.1,4.9 -31.6,10.9 l -25.3,-7.3 126.1,-208.6 23.7,10.9 c 0,3.6 -1.6,8.5 -1.6,14.6 0,47.3 174.9,145.5 436.6,145.5 198.5,0.1 307.2,-53.2 307.2,-129.6 0,-66.7 -82,-139.4 -310.5,-139.4 -118.2,0 -143.4,13.4 -148.2,35.1 h -22.1 z"
         id="path5" />
      <path
         d="M 1189.9,179.4 1212,166 c 3.2,3.6 9.5,6.1 18.9,6.1 44.2,0 162.4,-172.1 498.1,-172.1 195.4,0 439.7,86.1 439.7,254.6 0,322.5 -602.1,288.6 -762.9,492.3 h 759.8 c 34.6,0 47.3,-9.7 47.3,-29.1 h 22.1 v 203.7 h -22 c 0,-17 -12.6,-26.7 -47.3,-26.7 h -1012 c 0,-442.5 791.3,-423.2 791.3,-631.8 0,-78.8 -118.2,-120 -225.4,-120 -181.2,0 -335.7,116.4 -335.7,169.7 0,10.9 6.3,18.2 12.6,24.3 l -20.5,14.6 z"
         id="path6" />
    </g>
    <g
       fill="#ffffff"
       id="g14">
      <path
         d="m 3732.6,241.6 v -54.4 c -4.4,7.5 -9.7,14.5 -16,20.7 -18.8,18.6 -43.7,28.8 -70.1,28.8 h -0.4 c -26.6,-0.1 -51.5,-10.6 -70.3,-29.4 -18.6,-18.9 -28.8,-43.8 -28.8,-70.1 v -125 l 106.2,0.5 v 54.7 c 17.6,-30.6 50.1,-49.8 86.2,-49.8 9.4,0 19,1.3 28.4,4 41.9,11.7 71.2,50.4 71.2,94.1 v 125.9 z"
         id="path7" />
      <path
         d="m 3740.2,173.5 v 60.6 h 91.2 V 115.6 c 0,-40.4 -26.7,-76 -65.7,-86.9 -49.2,-13.8 -95,12.7 -111.7,53.9 -2,4.2 -8.4,2.7 -8.4,-1.9 V 20.1 l -91.1,-0.4 v 117.4 c 0,24.4 9.5,47.4 26.6,64.8 17.3,17.4 40.3,27.1 65,27.2 24.6,0.1 47.8,-9.4 65.2,-26.6 9,-8.9 15.9,-19.3 20.5,-30.6 0,-0.1 0.1,-0.2 0.1,-0.3 2,-4.2 8.3,-2.8 8.3,1.9 z"
         id="path8" />
      <path
         d="m 3546.9,747.4 h 7.1 l -7.1,7.1 V 632.4 l 250.3,87 c 24.8,8.6 40.9,31.2 40.9,57.5 0,26.4 -16.1,48.9 -40.9,57.5 l -250.3,87 z"
         id="path9" />
      <path
         d="m 3794.8,827.4 c 21.8,-7.5 35.8,-27.4 35.8,-50.4 0,-23.1 -14.1,-42.9 -35.8,-50.4 L 3554.4,643 v 47 2.6 47 l 44,15.4 h -44 v 109 12.3 34.6 z"
         id="path10" />
      <path
         d="M 3547,656.9 V 548.2 c 0,-54.9 44.6,-99.5 99.5,-99.5 h 92.9 c 54.9,0 99.5,44.6 99.5,99.5 v 108.7 z"
         id="path11" />
      <path
         d="M 3831.4,649.4 V 548.2 c 0,-50.7 -41.3,-92 -92,-92 h -92.9 c -50.7,0 -92,41.3 -92,92 v 101.2 z"
         id="path12" />
      <path
         d="m 3732.6,456.9 v -31.5 h -79.5 v 31.5 H 3546.9 V 332.3 c 0,-54.9 44.6,-99.5 99.5,-99.5 h 92.9 c 54.9,0 99.5,44.6 99.5,99.5 v 124.6 z"
         id="path13" />
      <path
         d="m 3831.4,449.3 v -117 c 0,-50.7 -41.3,-92 -92,-92 h -92.9 c -50.7,0 -92,41.3 -92,92 v 117 h 46.8 44.3 v -31.5 h 94.5 v 31.5 z"
         id="path14" />
    </g>
    <g
       fill="#002f82"
       id="g36">
      <path
         d="M 3792.6,443.7 V 332.3 c 0,-29.3 -23.8,-53.2 -53.2,-53.2 h -92.9 c -29.3,0 -53.2,23.8 -53.2,53.2 v 111.4 h -33.4 V 332.3 c 0,-47.7 38.8,-86.5 86.5,-86.5 h 92.9 c 47.7,0 86.5,38.8 86.5,86.5 v 111.4 z"
         id="path15" />
      <path
         d="M 3561.3,442.5 V 332.3 c 0,-47 38.3,-85.2 85.2,-85.2 h 92.9 c 47,0 85.2,38.3 85.2,85.2 v 110.2 h -30.7 V 332.3 c 0,-30 -24.5,-54.4 -54.4,-54.4 h -92.9 c -30,0 -54.4,24.5 -54.4,54.4 v 110.2 z"
         id="path16" />
      <path
         d="M 3606.8,443.8 V 332.2 c 0,-10.6 4.2,-20.5 11.7,-28 7.4,-7.4 17.4,-11.5 28.1,-11.5 h 39.6 l -0.1,119.5 h -33.2 l 0.1,-86.3 h -6.5 c -1.8,0 -3.3,0.6 -4.6,1.9 -0.9,0.9 -1.9,2.3 -1.9,4.5 v 111.5 z"
         id="path17" />
      <path
         d="M 3608.1,442.5 V 332.2 c 0,-10.3 4.1,-20 11.4,-27.1 7.2,-7.2 16.9,-11.2 27.2,-11.2 h 38.4 l -0.1,117 h -30.7 l 0.1,-86.3 h -7.7 c -2.8,0 -4.6,1.4 -5.5,2.3 -0.9,0.9 -2.3,2.6 -2.3,5.4 v 110.3 z"
         id="path18" />
      <path
         d="M 3745.8,443.8 V 332.2 c 0,-2.3 -1.3,-3.8 -1.9,-4.4 -0.6,-0.5 -2.1,-1.9 -4.5,-1.9 h -6.5 l 0.1,86.3 h -33.2 l -0.2,-119.5 h 39.7 c 10.5,0 20.5,4.1 28,11.5 7.6,7.6 11.7,17.5 11.7,28 v 111.6 z"
         id="path19" />
      <path
         d="m 3700.8,293.9 h 38.5 c 10.2,0 19.8,3.9 27.1,11.2 7.2,7.2 11.4,16.8 11.4,27.1 v 110.4 h -30.7 V 332.2 c 0,-2.6 -1.5,-4.5 -2.3,-5.3 -0.9,-0.8 -2.6,-2.3 -5.4,-2.3 h -7.7 l 0.1,86.3 h -30.7 z"
         id="path20" />
      <path
         d="m 3560,760.4 h 33.2 V 870.7 H 3560 Z"
         id="path21" />
      <path
         d="m 3561.3,761.7 h 30.7 v 107.7 h -30.7 z"
         id="path22" />
      <path
         d="m 3560,643.9 v -95.8 c 0,-47.7 38.8,-86.5 86.5,-86.5 h 92.9 c 47.7,0 86.5,38.8 86.5,86.5 v 95.7 h -33.2 v -95.7 c 0,-29.3 -23.8,-53.2 -53.2,-53.2 h -92.9 c -29.3,0 -53.2,23.8 -53.2,53.2 v 62.5 h 106.3 l -0.1,-55.4 h 33.2 l 0.1,88.7 z"
         id="path23" />
      <path
         d="m 3561.3,642.5 v -94.4 c 0,-47 38.3,-85.2 85.2,-85.2 h 92.9 c 47,0 85.2,38.3 85.2,85.2 v 94.4 h -30.7 v -94.4 c 0,-30 -24.5,-54.4 -54.4,-54.4 h -92.9 c -30,0 -54.4,24.5 -54.4,54.4 v 63.7 H 3701 l -0.1,-55.4 h 30.7 l 0.1,86.2 z"
         id="path24" />
      <path
         d="m 3745.8,644 v -95.8 c 0,-2 -4.4,-6.3 -6.4,-6.3 h -92.9 c -1.8,0 -3.3,0.6 -4.6,1.9 -0.9,0.9 -1.9,2.3 -1.9,4.5 v 15.6 h 12.9 v -8.6 l 33.2,0.1 -0.1,41.7 h -79.2 v -49 c 0,-10.6 4.2,-20.5 11.7,-28 7.4,-7.4 17.4,-11.5 28.1,-11.5 h 92.7 c 10.5,0 20.5,4.1 28,11.5 7.6,7.6 11.7,17.5 11.7,28 V 644 Z"
         id="path25" />
      <path
         d="M 3608.1,595.7 V 548 c 0,-10.3 4.1,-20 11.4,-27.1 7.2,-7.2 16.9,-11.2 27.2,-11.2 h 92.7 c 10.2,0 19.8,3.9 27.1,11.2 7.2,7.2 11.4,16.8 11.4,27.1 v 94.6 h -30.7 v -94.5 c 0,-2.6 -4.9,-7.5 -7.6,-7.5 h -92.9 c -2.8,0 -4.6,1.4 -5.5,2.3 -0.9,0.9 -2.3,2.6 -2.3,5.4 v 16.8 h 15.4 v -8.6 l 30.7,0.1 -0.1,39.2 z"
         id="path26" />
      <path
         d="m 3606.8,760.4 h 33.2 v 54.7 h -33.2 z"
         id="path27" />
      <path
         d="m 3608.1,761.7 h 30.7 v 52.2 h -30.7 z"
         id="path28" />
      <path
         d="M 3606.8,802.1 3679,777 3560,735.6 v -35.2 l 220.3,76.6 -173.5,60.3 z"
         id="path29" />
      <path
         d="m 3561.3,734.7 121.5,42.3 -74.7,26 v 32.5 L 3776.5,777 3561.3,702.2 Z"
         id="path30" />
      <path
         d="m 3560,868.1 222,-77.2 c 9.1,-3.2 9.8,-11.4 9.8,-13.8 0,-2.4 -0.7,-10.6 -9.8,-13.8 l -222,-77.2 v -35.2 l 232.9,81.1 c 19.5,6.8 32.2,24.6 32.2,45.2 0,20.6 -12.6,38.4 -32.2,45.2 L 3560,903.3 Z"
         id="path31" />
      <path
         d="m 3561.3,685.2 221.2,76.9 c 9.9,3.4 10.7,12.3 10.7,15 0,2.6 -0.8,11.5 -10.7,15 L 3561.3,869 v 32.6 l 231.2,-80.3 c 19,-6.7 31.3,-23.9 31.3,-44 0,-20.2 -12.2,-37.4 -31.3,-44 l -231.2,-80.5 z"
         id="path32" />
      <path
         d="M 3792.5,228.5 V 117 c 0,-29.3 -23.9,-53.2 -53.2,-53.2 h -0.2 c -29.3,0 -53.2,23.8 -53.2,53.2 v 20.4 c -0.1,21.7 -17.9,39.4 -39.6,39.4 h -0.2 c -21.7,-0.1 -39.4,-17.9 -39.4,-39.6 l -0.1,-111.6 33.2,0.1 v 111.5 c 0,3.5 2.9,6.4 6.4,6.4 3.6,0 6.5,-2.9 6.5,-6.4 V 117 c 0,-47.7 38.8,-86.5 86.5,-86.5 47.7,0 86.5,38.8 86.5,86.5 v 111.4 z"
         id="path33" />
      <path
         d="m 3793.8,117 v 110.2 h 30.7 V 117 c 0,-47 -38.3,-85.2 -85.2,-85.2 -47,0 -85.2,38.3 -85.2,85.2 v 20.2 c 0,4.2 -3.5,7.6 -7.7,7.6 -4.2,0 -7.6,-3.4 -7.6,-7.6 V 26.9 l -30.7,-0.1 0.1,110.2 v 0.2 c 0,21 17.1,38.3 38.2,38.4 21.1,0.1 38.5,-17 38.6,-38.2 V 117 c 0,-30 24.5,-54.4 54.4,-54.4 30,-0.1 54.4,24.4 54.4,54.4 z"
         id="path34" />
      <path
         d="M 3745.8,228.5 V 117 c 0,-3.4 -2.9,-6.2 -6.5,-6.2 -3.5,0 -6.4,2.9 -6.4,6.4 v 20.6 c -0.1,23 -9.2,44.7 -25.6,61 -16.2,16.1 -37.9,25 -60.9,25 h -0.4 c -23,-0.1 -44.6,-9.2 -61,-25.6 -16.1,-16.3 -25,-38 -25,-60.9 V 25.4 l 33.2,0.1 v 111.7 c 0,14.1 5.5,27.4 15.4,37.4 10,10.1 23.3,15.7 37.6,15.8 h 0.4 c 14,0 27.3,-5.5 37.3,-15.4 10.1,-10 15.7,-23.3 15.8,-37.6 V 117 c 0,-21.8 17.8,-39.6 39.7,-39.6 21.8,0 39.6,17.8 39.6,39.6 v 111.4 z"
         id="path35" />
      <path
         d="m 3747,117 v 110.2 h 30.7 V 117 c 0,-21.1 -17.2,-38.4 -38.4,-38.4 -21.1,0 -38.5,17.2 -38.5,38.4 v 20.5 c -0.1,14.6 -5.8,28.2 -16.1,38.5 -10.4,10.3 -24.1,15.9 -38.6,15.8 -14.6,-0.1 -28.2,-5.8 -38.5,-16.1 -10.2,-10.3 -15.8,-23.9 -15.8,-38.3 0,-0.1 0,-0.2 0,-0.3 V 26.8 l -30.7,-0.1 v 110.2 0.4 c 0,22.6 8.7,43.8 24.7,60 16,16.1 37.4,25.1 60.1,25.2 22.8,0.1 44.2,-8.6 60.4,-24.7 16.1,-16 25.1,-37.4 25.2,-60.1 v -20.6 c 0,-4.2 3.4,-7.6 7.6,-7.6 4.4,0.1 7.9,3.3 7.9,7.5 z"
         id="path36" />
    </g>
  </g>
</svg>
