<?xml version="1.0" encoding="UTF-8" standalone="no"?>
<svg
   enable-background="new 0 0 3839 1015.3"
   height="169"
   viewBox="0 0 640 169"
   width="640"
   version="1.1"
   id="svg17"
   sodipodi:docname="sg-1000.svg"
   inkscape:version="1.3.2 (091e20e, 2023-11-25)"
   xmlns:inkscape="http://www.inkscape.org/namespaces/inkscape"
   xmlns:sodipodi="http://sodipodi.sourceforge.net/DTD/sodipodi-0.dtd"
   xmlns="http://www.w3.org/2000/svg"
   xmlns:svg="http://www.w3.org/2000/svg">
  <defs
     id="defs17" />
  <sodipodi:namedview
     id="namedview17"
     pagecolor="#ffffff"
     bordercolor="#000000"
     borderopacity="0.25"
     inkscape:showpageshadow="2"
     inkscape:pageopacity="0.0"
     inkscape:pagecheckerboard="0"
     inkscape:deskcolor="#d1d1d1"
     inkscape:zoom="1"
     inkscape:cx="301"
     inkscape:cy="86"
     inkscape:window-width="1312"
     inkscape:window-height="449"
     inkscape:window-x="0"
     inkscape:window-y="39"
     inkscape:window-maximized="0"
     inkscape:current-layer="svg17" />
  <g
     transform="scale(0.16671008,0.16643687)"
     id="g17">
    <path
       d="M 2529,88.5 C 2512.7,36.9 2464.1,0 2408,0 2351.9,0 2303.3,36.8 2287,88.5 l -42.8,126.8 V 7.3 H 2020 c -39.8,0 -76.7,16.3 -104.7,42.8 V 7.3 h -230 c -42.8,0 -81.1,17.7 -109.2,47.1 V 7.3 h -218.2 c -92.9,0 -169.6,76.7 -169.6,169.6 0,44.3 17.7,85.5 45.8,115 h -45.8 v 197.6 h 218.2 c 61.9,0 115,-32.5 146,-82.6 25.1,48.6 75.2,82.6 134.2,82.6 h 231.5 v -42.8 c 26.5,26.5 63.4,42.8 104.7,42.8 h 639.9 z"
       fill="#ffffff"
       id="path1" />
    <g
       fill="#034693"
       id="g9">
      <path
         d="m 1407,327.3 h -184.4 v 57.6 H 1407 c 35.4,0 64.9,-29.5 64.9,-64.9 0,-35.4 -29.5,-64.9 -64.9,-64.9 h -47.2 c -42.8,0 -78.2,-35.4 -78.2,-78.2 0,-42.8 35.4,-78.2 78.2,-78.2 h 182.9 V 41.3 h -184.4 c -75.2,0 -135.7,60.4 -135.7,135.7 0,75.3 60.4,135.6 135.6,135.6 h 47.1 c 4.5,0 7.3,3 7.3,7.3 0.2,4.4 -2.8,7.4 -5.6,7.4 z"
         id="path2" />
      <path
         d="m 1358.2,171.1 h 184.4 V 112 h -184.4 c -35.4,0 -64.9,29.5 -64.9,64.9 0,35.4 29.5,64.9 64.9,64.9 h 47.1 c 42.8,0 78.2,35.4 78.2,78.2 0,42.8 -35.4,78.2 -78.2,78.2 h -182.7 v 57.6 H 1407 c 75.2,0 135.7,-60.4 135.7,-135.7 0,-75.3 -60.4,-135.7 -135.7,-135.7 h -47.2 c -4.5,0 -7.3,-3 -7.3,-7.3 -0.1,-3 2.9,-6 5.7,-6 z"
         id="path3" />
      <path
         d="m 2020.3,112 c -25.1,0 -44.3,19.2 -44.3,44.3 v 184.4 c 0,25.1 19.2,44.3 44.3,44.3 h 119.5 V 255.1 h -91.4 v 57.6 h 33.9 V 326 h -33.9 c -7.3,0 -13.3,-6 -13.3,-13.3 V 182.9 c 0,-7.3 6,-13.3 13.3,-13.3 H 2212 V 112 Z"
         id="path4" />
      <path
         d="m 2383,384.9 h 134.2 l -91.4,-271.4 c -3,-7.3 -8.8,-13.3 -17.7,-13.3 -7.3,0 -14.8,6 -17.7,11.8 l -118,343.5 h 67.9 l 41.3,-122.4 v 51.6 h 1.5 z m 23.6,-123.9 19.2,59.1 H 2386 Z"
         id="path5" />
      <path
         d="m 2496.5,101.7 c -11.8,-38.3 -47.1,-67.9 -89.9,-67.9 -42.8,0 -78.2,28 -88.5,66.4 L 2210.4,415.8 V 184.4 H 2048.1 V 242 h 106.2 v 156.3 h -132.7 c -32.5,0 -57.6,-26.5 -57.6,-57.6 V 156.3 c 0,-32.5 26.5,-57.6 57.6,-57.6 h 190.2 V 41.3 h -191.7 c -63.4,0 -115,51.6 -115,115 v 184.4 c 0,63.4 51.6,115 115,115 h 237.5 l 119.5,-346.4 c 4.5,-13.3 16.3,-22.1 31,-22.1 14.7,0 26.5,8.8 31,22.1 l 97.4,289.1 H 2383.2 V 456 h 233 z"
         id="path6" />
      <path
         d="m 1685.5,398.1 c -32.5,0 -57.6,-26.5 -57.6,-57.6 V 156.3 c 0,-32.5 26.5,-57.6 57.6,-57.6 h 197.6 V 41.3 h -197.6 c -63.4,0 -115,51.6 -115,115 v 184.4 c 0,63.4 51.6,115 115,115 h 197.6 v -57.4 z"
         id="path7" />
      <path
         d="m 1698.8,314.1 h 143 V 256.5 H 1641.2 V 342 c 0,25.1 19.2,44.3 44.3,44.3 h 197.6 V 328.7 H 1712 c -7.3,-1.4 -13.2,-7.4 -13.2,-14.6 z"
         id="path8" />
      <path
         d="m 1841.8,184.4 h -143 c 0,-7.3 6,-13.3 13.3,-13.3 h 169.6 V 112 h -196.1 c -25.1,0 -44.3,19.2 -44.3,44.3 v 85.6 h 200.6 c -0.1,0 -0.1,-57.5 -0.1,-57.5 z"
         id="path9" />
    </g>
    <g
       fill="#ff0000"
       id="g16">
      <path
         d="m 1232,763.7 h 179.1 v 78.1 H 1232 Z"
         id="path10" />
      <path
         d="M 1713.1,937.3 V 662.9 584.8 h -197.9 v 78.1 h 101.2 v 274.4 h -129 v 78 h 343.2 v -78 z"
         id="path11" />
      <path
         d="M 716,937.3 V 662.9 h 468.4 V 584.8 H 685.8 c -36.8,0 -66.6,29.8 -66.6,66.6 v 297.4 c 0,36.8 29.8,66.6 66.6,66.6 h 498.6 V 763.7 H 881 v 78.1 h 206.7 v 95.5 z"
         id="path12" />
      <path
         d="m 1884.7,651.4 v 297.4 c 0,36.8 29.8,66.6 66.6,66.6 h 482.2 c 36.8,0 66.6,-29.8 66.6,-66.6 V 651.4 c 0,-36.8 -29.8,-66.6 -66.6,-66.6 h -482.2 c -36.8,0 -66.6,29.8 -66.6,66.6 z m 96.8,285.9 V 662.9 h 421.8 v 274.4 z"
         id="path13" />
      <path
         d="m 2554.1,651.4 v 297.4 c 0,36.8 29.8,66.6 66.6,66.6 h 482.2 c 36.8,0 66.6,-29.8 66.6,-66.6 V 651.4 c 0,-36.8 -29.8,-66.6 -66.6,-66.6 h -482.2 c -36.8,0 -66.6,29.8 -66.6,66.6 z m 96.8,285.9 V 662.9 h 421.8 v 274.4 z"
         id="path14" />
      <path
         d="m 3223.6,651.4 v 297.4 c 0,36.8 29.8,66.6 66.6,66.6 h 482.2 c 36.8,0 66.6,-29.8 66.6,-66.6 V 651.4 c 0,-36.8 -29.8,-66.6 -66.6,-66.6 h -482.2 c -36.8,0 -66.6,29.8 -66.6,66.6 z m 96.8,285.9 V 662.9 h 421.8 v 274.4 z"
         id="path15" />
      <path
         d="M 498.6,763.7 H 96.8 V 662.9 H 565.2 V 584.8 H 66.6 C 29.8,584.8 0,614.6 0,651.4 v 123.8 c 0,36.8 29.8,66.6 66.6,66.6 h 401.8 v 95.5 H 0 v 78.1 h 498.6 c 36.8,0 66.6,-29.8 66.6,-66.6 V 830.3 c 0,-36.7 -29.9,-66.6 -66.6,-66.6 z"
         id="path16" />
    </g>
  </g>
</svg>
