<?xml version="1.0" encoding="UTF-8" standalone="no"?>
<svg
   enable-background="new 0 0 3840 1212.8"
   height="202"
   viewBox="0 0 640 202"
   width="640"
   version="1.1"
   id="svg10"
   sodipodi:docname="steam.svg"
   inkscape:version="1.3.2 (091e20e, 2023-11-25)"
   xmlns:inkscape="http://www.inkscape.org/namespaces/inkscape"
   xmlns:sodipodi="http://sodipodi.sourceforge.net/DTD/sodipodi-0.dtd"
   xmlns="http://www.w3.org/2000/svg"
   xmlns:svg="http://www.w3.org/2000/svg">
  <defs
     id="defs10" />
  <sodipodi:namedview
     id="namedview10"
     pagecolor="#ffffff"
     bordercolor="#000000"
     borderopacity="0.25"
     inkscape:showpageshadow="2"
     inkscape:pageopacity="0.0"
     inkscape:pagecheckerboard="0"
     inkscape:deskcolor="#d1d1d1"
     inkscape:zoom="1"
     inkscape:cx="288"
     inkscape:cy="88"
     inkscape:window-width="1312"
     inkscape:window-height="449"
     inkscape:window-x="0"
     inkscape:window-y="39"
     inkscape:window-maximized="0"
     inkscape:current-layer="svg10" />
  <linearGradient
     id="a"
     gradientUnits="userSpaceOnUse"
     x1="607.45972"
     x2="607.45972"
     y1="-0.000103"
     y2="1212.8375">
    <stop
       offset=".2483"
       stop-color="#131e31"
       id="stop1" />
    <stop
       offset=".667"
       stop-color="#14437b"
       id="stop2" />
    <stop
       offset=".8383"
       stop-color="#136193"
       id="stop3" />
    <stop
       offset="1"
       stop-color="#0d7bc1"
       id="stop4" />
  </linearGradient>
  <g
     transform="scale(0.16666667,0.166543)"
     id="g10">
    <path
       d="m 23,771.7 232.4,96.1 c 15.7,78.5 85.2,137.8 168.3,137.8 94.7,0 171.7,-77 171.7,-171.7 0,-2.7 -0.1,-5.4 -0.2,-8.1 L 801.3,678.7 c 1.7,0 3.5,0.1 5.2,0.1 126.1,0 228.7,-102.6 228.7,-228.7 C 1035.2,324 932.6,221.4 806.5,221.4 680.4,221.4 577.8,324 577.8,450.1 v 3 L 433.3,662.6 c -3.2,-0.2 -6.4,-0.3 -9.6,-0.3 -35.8,0 -69.1,11 -96.6,29.9 L 2.1,557.8 c 0,-0.1 -2.1,27.8 -2.1,48.6 0,97.8 23.4,166.8 23,165.3 z"
       fill="#ffffff"
       id="path4" />
    <path
       d="M 606.4,0 C 287.9,0 26.9,245.6 2.1,557.8 l 325,134.4 c 27.5,-18.8 60.8,-29.9 96.6,-29.9 3.2,0 6.4,0.1 9.6,0.3 L 577.8,453.1 c 0,-1 0,-2 0,-3 0,-126.1 102.6,-228.7 228.7,-228.7 126.1,0 228.7,102.6 228.7,228.7 0,126.1 -102.6,228.7 -228.7,228.7 -1.7,0 -3.5,0 -5.2,-0.1 L 595.2,825.8 c 0.1,2.7 0.2,5.4 0.2,8.1 0,94.7 -77,171.7 -171.7,171.7 -83.1,0 -152.6,-59.3 -168.3,-137.8 L 23,771.7 c 72,254.5 305.8,441.2 583.4,441.2 334.9,0 606.4,-271.5 606.4,-606.4 C 1212.8,271.5 941.3,0 606.4,0 Z M 382.1,920.1 307.6,889.3 c 13.2,27.5 36,50.5 66.4,63.1 65.6,27.3 141.1,-3.8 168.5,-69.4 13.2,-31.7 13.3,-66.7 0.2,-98.6 -13.1,-31.8 -37.8,-56.6 -69.6,-69.9 -31.5,-13.1 -65.3,-12.6 -94.9,-1.4 l 76.9,31.8 c 48.4,20.2 71.2,75.7 51.1,124 -20.2,48.5 -75.8,71.4 -124.1,51.2 z m 576.8,-470 c 0,-84 -68.4,-152.4 -152.4,-152.4 -84,0 -152.4,68.4 -152.4,152.4 0,84 68.4,152.4 152.4,152.4 84,0 152.4,-68.4 152.4,-152.4 z m -266.6,-0.2 c 0,-63.2 51.3,-114.5 114.5,-114.5 63.2,0 114.5,51.2 114.5,114.5 0,63.2 -51.3,114.5 -114.5,114.5 -63.2,0 -114.5,-51.3 -114.5,-114.5 z"
       fill="url(#a)"
       id="path5"
       style="fill:url(#a)" />
    <path
       d="m 1860.5,414.9 -40.6,71.4 c -31.3,-21.9 -73.7,-35 -110.7,-35 -42.3,0 -68.5,17.5 -68.5,48.9 0,38.1 46.5,47 115.6,71.8 74.3,26.3 117,57.2 117,125.2 0,93.1 -73.2,145.4 -178.5,145.4 -51.3,0 -113.2,-13.2 -160.7,-42.2 l 29.6,-79.2 c 38.6,20.4 84.9,32.5 126.1,32.5 55.5,0 81.9,-20.5 81.9,-50.8 0,-34.7 -40.3,-45.1 -105.3,-66.6 -74.1,-24.7 -125.4,-57.2 -125.4,-132.5 0,-85 68,-133.7 165.9,-133.7 68.3,0.1 123.2,21.7 153.6,44.8"
       id="path6" />
    <path
       d="m 2178.1,460.1 v 374.7 h -95.7 V 460.1 H 1943.6 V 378 h 373 v 82.1 z"
       id="path7" />
    <path
       d="m 2518.2,459.8 v 103 h 183.1 v 82 H 2518.2 V 752 h 212.5 v 82.8 H 2422.6 V 378 h 308.1 v 81.8 z"
       id="path8" />
    <path
       d="M 2944.2,746.1 2914,834.8 H 2813.7 L 2985,378 h 96.3 l 176.1,456.8 h -103.7 l -30.9,-88.7 z m 88.4,-259.1 -62.4,182.9 h 126.1 z"
       id="path9" />
    <path
       d="m 3748.4,554.6 -125,266.9 h -54 L 3446.4,557 v 277.8 h -91.6 V 378 h 91.4 L 3599.7,707.8 3747.8,378 h 92.2 v 456.8 h -91.6 z"
       id="path10" />
  </g>
</svg>
