<?xml version="1.0" encoding="UTF-8" standalone="no"?>
<svg
   enable-background="new 0 0 3839 841.8"
   height="140"
   viewBox="0 0 640 140"
   width="640"
   version="1.1"
   id="svg3"
   sodipodi:docname="switch.svg"
   inkscape:version="1.3.2 (091e20e, 2023-11-25)"
   xmlns:inkscape="http://www.inkscape.org/namespaces/inkscape"
   xmlns:sodipodi="http://sodipodi.sourceforge.net/DTD/sodipodi-0.dtd"
   xmlns="http://www.w3.org/2000/svg"
   xmlns:svg="http://www.w3.org/2000/svg">
  <defs
     id="defs3" />
  <sodipodi:namedview
     id="namedview3"
     pagecolor="#ffffff"
     bordercolor="#000000"
     borderopacity="0.25"
     inkscape:showpageshadow="2"
     inkscape:pageopacity="0.0"
     inkscape:pagecheckerboard="0"
     inkscape:deskcolor="#d1d1d1"
     inkscape:zoom="1"
     inkscape:cx="296"
     inkscape:cy="58"
     inkscape:window-width="1312"
     inkscape:window-height="449"
     inkscape:window-x="0"
     inkscape:window-y="39"
     inkscape:window-maximized="0"
     inkscape:current-layer="svg3" />
  <mask
     id="a"
     height="841.8"
     maskUnits="userSpaceOnUse"
     width="841.8"
     x="0"
     y=".2">
    <path
       clip-rule="evenodd"
       d="M 841.8,841.9 H 0 V 0.2 h 841.8 z"
       fill="#ffffff"
       fill-rule="evenodd"
       id="path1" />
  </mask>
  <g
     clip-rule="evenodd"
     fill="#e60012"
     fill-rule="evenodd"
     transform="matrix(0.16671008,0,0,0.16633005,0,-0.00216229)"
     id="g3">
    <path
       d="m 131,252.7 c 0,43.7 35.4,79.2 79.2,79.2 43.8,0 79.2,-35.4 79.2,-79.2 0,-43.7 -35.4,-79.1 -79.1,-79.1 0,0 0,0 -0.1,0 -43.7,-0.1 -79.1,35.3 -79.2,79.1 z M 338.1,774.1 H 215.9 c -39.3,0.1 -77,-15.5 -104.6,-43.3 C 83.4,703.1 67.8,665.4 67.9,626.2 V 216 c 0,-39.5 15.4,-76.7 43.3,-104.6 C 138.9,83.5 176.6,67.9 215.9,68 H 338.2 V 774.1 Z M 399.8,0.2 h -184 C 96.6,0.2 0,96.8 0,216 v 410.1 c 0,119.2 96.6,215.8 215.9,215.8 h 184 c 3.4,0 6.2,-2.7 6.2,-6.1 0,0 0,0 0,-0.1 V 6.3 C 406,3 403.3,0.2 399.8,0.2 Z m 257,377.8 c 47,1 84.3,39.8 83.4,86.9 -0.9,45.7 -37.7,82.5 -83.4,83.4 -47,-1 -84.3,-39.8 -83.4,-86.9 0.9,-45.7 37.7,-82.5 83.4,-83.4 z M 496.4,841.9 H 626 c 119.2,0 215.9,-96.6 215.9,-215.8 V 216 C 841.9,96.8 745.2,0.2 626,0.2 H 495.7 c -3,0 -5.4,2.4 -5.5,5.3 v 0.1 830.1 c 0.1,3.5 2.8,6.2 6.2,6.2 z"
       mask="url(#a)"
       transform="translate(0,-0.187)"
       id="path2" />
    <path
       d="m 3318.7,203.6 h -51.2 V 67.5 h 51.2 c 37.6,0.1 68,30.5 68,68.1 0,37.5 -30.4,68 -68,68 z m -2.4,-185.4 h -97 V 253 h 97.1 c 66.6,0 120.8,-52.6 120.8,-117.4 C 3437.1,70.8 3382.9,18.2 3316.3,18.2 Z M 3136.5,457 c 50,0 96.7,26.7 121.6,68.8 l 72.1,-62.6 c -43.8,-65.5 -117.5,-104.7 -196.3,-104.6 -130.4,0 -236.5,106 -236.5,236.4 0,130.4 106.1,236.4 236.5,236.4 79.3,0 152.1,-39 196.3,-104.6 l -72.1,-62.7 c -24.9,42.1 -71.6,68.8 -121.6,68.8 C 3059,732.9 2996,671 2996,595 c 0,-76.1 63,-138 140.5,-138 z m -683.2,10 h 141.5 v 349 h 95.3 V 467 h 138.4 v -94 h -375.2 z m 1276.6,80.7 H 3523.1 V 373 h -91.6 v 443 h 91.6 V 639.3 h 206.8 V 816 h 91.7 V 373 h -91.7 z m -16,-339 c -40.3,-0.1 -72.9,-32.8 -72.9,-73.1 0,-40.2 32.8,-73.1 72.9,-73.1 40.3,0.1 72.9,32.8 73,73.1 0,40.3 -32.7,73 -73,73.1 z m 0,-198.4 c -68.9,0 -125,56.2 -125,125.3 0,69.2 56.1,125.4 125,125.4 69,0 125.1,-56.2 125.1,-125.4 0,-69.1 -56.1,-125.3 -125.1,-125.3 z M 2615.5,209.5 h -134.9 v -55 h 124.7 V 112 H 2480.6 V 61.3 h 134.9 V 18.2 L 2433,18.3 V 253 l 182.5,-0.1 z M 3020.7,253 V 18.2 H 2973 V 172.4 L 2857.5,18.2 h -47.4 V 253 h 47.6 V 96 l 116.6,157 z M 1455,253 h 52.2 V 18.2 H 1455 Z m -203.7,293.9 c -63.9,-10.5 -105.2,-22.4 -105.2,-52.2 0,-34.5 46,-47.7 107.7,-47.7 57.4,0 115.1,21.9 135.6,30.4 l 31.5,-76.6 c -22.4,-8.9 -93,-34.1 -171.6,-34.1 -95.7,0 -197.5,46.7 -197.5,133.2 0,70.1 49.4,106 176.5,127.8 89.5,15.5 138.8,23.9 137.4,62.4 -0.8,21.2 -17.2,56.7 -118.1,56.7 -81.3,0 -138.4,-29.4 -158.3,-41.4 l -41.9,75.7 c 22.4,11.8 97.3,47 193.8,47 141,0 215.4,-48.8 215.4,-141.2 0.1,-53.4 -17.9,-109.2 -205.3,-140 z M 1954.6,694.5 1860.8,373 h -78.6 L 1688.7,693.2 1603.6,373 h -96.4 l 125.4,443 H 1739 l 82.5,-291.8 82.1,291.8 h 106.9 l 126,-443 h -96.3 z M 1732,96 1848.6,253 H 1895 V 18.2 h -47.7 V 172.4 L 1731.8,18.2 h -47.4 V 253 h 47.6 z m 514.5,720 h 98.6 V 373 h -98.6 z M 2261.1,18.2 H 2062.2 V 68 h 75 v 185 h 50.6 V 68 h 73.3 z m -1146,77.8 116.7,157 h 46.3 V 18.2 h -47.6 V 172.4 L 1114.9,18.2 h -47.4 V 253 h 47.5 z"
       id="path3" />
  </g>
</svg>
