<?xml version="1.0" encoding="UTF-8" standalone="no"?>
<svg
   height="139"
   viewBox="0 0 640 139"
   width="640"
   version="1.1"
   id="svg14"
   sodipodi:docname="tg16.svg"
   inkscape:version="1.3.2 (091e20e, 2023-11-25)"
   xmlns:inkscape="http://www.inkscape.org/namespaces/inkscape"
   xmlns:sodipodi="http://sodipodi.sourceforge.net/DTD/sodipodi-0.dtd"
   xmlns="http://www.w3.org/2000/svg"
   xmlns:svg="http://www.w3.org/2000/svg">
  <defs
     id="defs14" />
  <sodipodi:namedview
     id="namedview14"
     pagecolor="#ffffff"
     bordercolor="#000000"
     borderopacity="0.25"
     inkscape:showpageshadow="2"
     inkscape:pageopacity="0.0"
     inkscape:pagecheckerboard="0"
     inkscape:deskcolor="#d1d1d1"
     inkscape:zoom="1"
     inkscape:cx="339.5"
     inkscape:cy="50"
     inkscape:window-width="1312"
     inkscape:window-height="449"
     inkscape:window-x="215"
     inkscape:window-y="39"
     inkscape:window-maximized="0"
     inkscape:current-layer="svg14" />
  <g
     id="g2">
    <g
       id="g1"
       transform="scale(0.16666666,0.16706731)">
      <g
         id="g16">
        <g
           id="g15">
          <path
             d="M 0,0 H 3840.0001 V 832 H 0 Z"
             stroke-linecap="square"
             stroke-linejoin="round"
             stroke-miterlimit="0"
             stroke-width="22.0029"
             id="path1" />
          <g
             transform="matrix(0.90046896,0,0,0.90023445,191.5498,103.93372)"
             id="g13">
            <g
               fill="#ead900"
               id="g6">
              <path
                 d="m 2115.7,99.4 h -128.3 v 35.1 21.8 198.5 56.9 270 h 56.9 v -270 h 24.1 l 47.3,270 h 56.9 l -47.4,-270.8 c 26.9,-4.5 47.4,-27.9 47.4,-56.1 V 156.3 c 0,-31.4 -25.5,-56.9 -56.9,-56.9 z m 0,255.4 h -71.4 V 156.3 h 71.4 z"
                 id="path2" />
              <path
                 d="M 2444.1,99.4 H 2373 c -31.4,0 -56.9,25.5 -56.9,56.9 v 198.5 56.9 270 h 56.9 v -270 h 71.1 v 270 h 56.9 v -270 -56.9 -198.5 c 0,-31.4 -25.5,-56.9 -56.9,-56.9 z m 0,255.4 H 2373 V 156.3 h 71.1 z"
                 id="path3" />
              <path
                 d="m 1763.4,0 h -71.1 c -31.4,0 -56.9,25.5 -56.9,56.9 v 567.9 c 0,31.4 25.5,56.9 56.9,56.9 h 71.1 56.9 V 624.8 345.3 288.4 h -92.4 v 56.9 h 35.5 v 279.5 h -71.1 V 56.9 h 71.1 v 77.6 h 56.9 V 56.9 C 1820.3,25.5 1794.8,0 1763.4,0 Z"
                 id="path4" />
              <path
                 d="m 2713.3,99.4 c -31.4,0 -56.9,25.5 -56.9,56.9 v 198.5 56.9 270 h 56.9 v -270 h 85.2 v -56.9 h -85.2 V 156.3 h 85.2 V 99.4 h -14.2 z"
                 id="path5" />
              <path
                 d="m 3053.9,390.5 c 29.5,-47 57.1,-94.5 57.1,-107.9 V 99.4 h -56.9 v 183.2 c 0,0 -15.4,22.5 -35.5,53.1 -20.1,-30.6 -35.5,-53.1 -35.5,-53.1 V 99.4 h -56.9 v 183.2 c 0,13.3 27.6,60.8 57.1,107.9 -29.6,47.1 -57.1,94.6 -57.1,107.9 v 183.2 h 56.9 V 498.5 c 0,0 15.4,-22.5 35.5,-53.1 20.1,30.6 35.5,53.1 35.5,53.1 V 681.7 H 3111 V 498.5 c 0.1,-13.4 -27.5,-60.9 -57.1,-108 z"
                 id="path6" />
            </g>
            <path
               d="M 120.9,681.7 V 56.9 h 64 V 0 H 0 v 56.9 h 64 v 624.8 z"
               fill="#ff6427"
               id="path7" />
            <path
               d="M 416.8,624.8 H 346.4 V 99.4 h -56.9 v 525.4 c 0,31.4 25.5,56.9 56.9,56.9 h 70.4 c 31.4,0 56.9,-25.5 56.9,-56.9 V 99.4 h -56.9 z"
               fill="#ff6427"
               id="path8" />
            <path
               d="M 758.9,99.4 H 630.6 v 35.1 21.8 198.5 56.9 270 h 56.9 v -270 h 24.1 l 47.3,270 h 56.9 L 768.4,410.9 c 26.9,-4.5 47.4,-27.9 47.4,-56.1 V 156.3 c 0,-31.4 -25.5,-56.9 -56.9,-56.9 z m 0,255.4 H 687.5 V 156.3 h 71.4 z"
               fill="#ff6427"
               id="path9" />
            <path
               d="m 1423.8,99.4 h -71.1 c -31.4,0 -56.9,25.5 -56.9,56.9 v 468.5 c 0,31.4 25.5,56.9 56.9,56.9 h 71.1 c 31.4,0 56.9,-25.5 56.9,-56.9 V 156.3 c 0.1,-31.4 -25.4,-56.9 -56.9,-56.9 z m 0,525.4 h -71.1 V 156.3 h 71.1 z"
               fill="#ff6427"
               id="path10" />
            <circle
               cx="3536.3"
               cy="390.60001"
               fill="#ff6427"
               r="302.70001"
               id="circle10" />
            <path
               d="M 3407,490.8 V 290.3 255.7 h -36.7 -32.3 v 34.6 h 32.3 V 490.8 H 3338 v 34.6 h 101.4 v -34.6 z"
               fill="#ffffff"
               id="path11" />
            <path
               d="m 3734.6,322.7 v -41.1 l -25.9,-25.9 h -210.8 l -25.9,25.9 v 91.7 34.6 91.7 l 25.9,25.9 h 210.8 l 25.9,-25.9 V 399.1 l -25.9,-25.9 H 3506.6 V 290.3 H 3700 v 32.4 z m -34.6,85.2 v 82.9 h -193.4 v -82.9 z"
               fill="#ffffff"
               id="path12" />
            <path
               d="m 1151.9,326.3 v -170 c 0,-31.4 -25.5,-56.9 -56.9,-56.9 H 967 v 45.7 11.2 198.5 56.9 213.1 56.9 h 56.9 71.1 c 31.4,0 56.9,-25.5 56.9,-56.9 V 440.1 c 0,-31.4 -3.1,-56.9 -34.5,-56.9 31.4,0 34.5,-25.5 34.5,-56.9 z m -128,-170 h 71 v 198.5 h -71 z m 0,468.5 V 411.7 h 71 v 213.1 z"
               fill="#ff6427"
               id="path13" />
          </g>
        </g>
      </g>
    </g>
  </g>
</svg>
