<?xml version="1.0" encoding="UTF-8" standalone="no"?>
<svg
   viewBox="0 0 639.99998 203"
   version="1.1"
   id="svg15"
   sodipodi:docname="apple2.svg"
   width="640"
   height="203"
   inkscape:version="1.3.2 (091e20e, 2023-11-25)"
   xmlns:inkscape="http://www.inkscape.org/namespaces/inkscape"
   xmlns:sodipodi="http://sodipodi.sourceforge.net/DTD/sodipodi-0.dtd"
   xmlns:xlink="http://www.w3.org/1999/xlink"
   xmlns="http://www.w3.org/2000/svg"
   xmlns:svg="http://www.w3.org/2000/svg">
  <sodipodi:namedview
     id="namedview15"
     pagecolor="#ffffff"
     bordercolor="#000000"
     borderopacity="0.25"
     inkscape:showpageshadow="2"
     inkscape:pageopacity="0.0"
     inkscape:pagecheckerboard="true"
     inkscape:deskcolor="#d1d1d1"
     inkscape:zoom="1"
     inkscape:cx="323.5"
     inkscape:cy="115"
     inkscape:window-width="1312"
     inkscape:window-height="449"
     inkscape:window-x="0"
     inkscape:window-y="39"
     inkscape:window-maximized="0"
     inkscape:current-layer="svg15" />
  <defs
     id="defs1">
    <path
       id="a"
       d="M 943.9,810.2 C 891,754.5 864.2,690.4 864.2,619.6 c 0,-71.2 25.7,-134.6 76.3,-188.3 15.6,-16.6 32.4,-30.6 50.3,-42.2 -19.3,-25 -96.1,-114 -210.9,-114 -109.3,0 -137.5,65.4 -213.3,65.4 -83.5,0 -111.2,-72.4 -219.6,-72.4 0,0 -321.9,9.6 -321.9,400.2 0,140.9 123.1,551.6 306.2,551.6 91.6,0 80.6,-56.3 200.1,-56.3 118.9,0 98.6,47.6 210.5,47.6 115.7,0 266.3,-159.8 280.2,-341.7 -27.9,-14.1 -54.1,-33.9 -78.2,-59.3 z" />
    <clipPath
       id="b">
      <use
         xlink:href="#a"
         id="use1" />
    </clipPath>
  </defs>
  <g
     id="g1"
     transform="scale(0.16666667,0.16639344)">
    <g
       id="g16"
       transform="matrix(1,0,0,1.000082,-25.1,0)">
      <g
         fill="#ffffff"
         id="g15">
        <path
           d="m 3424.9,396.1 h -98 V 264.5 h 251.6 V 847.3 H 3326.9 V 715.7 h 98 z"
           id="path1" />
        <path
           d="m 3767.1,715.7 h 98 V 847.3 H 3613.5 V 264.5 h 251.6 v 131.6 h -98 z"
           id="path2" />
        <path
           d="M 943.9,810.2 C 891,754.5 864.2,690.4 864.2,619.6 c 0,-71.2 25.7,-134.6 76.3,-188.3 15.6,-16.6 32.4,-30.6 50.3,-42.2 -19.3,-25 -96.1,-114 -210.9,-114 -109.3,0 -137.5,65.4 -213.3,65.4 -83.5,0 -111.2,-72.4 -219.6,-72.4 0,0 -321.9,9.6 -321.9,400.2 0,140.9 123.1,551.6 306.2,551.6 91.6,0 80.6,-56.3 200.1,-56.3 118.9,0 98.6,47.6 210.5,47.6 115.7,0 266.3,-159.8 280.2,-341.7 -27.9,-14.1 -54.1,-33.9 -78.2,-59.3 z"
           id="path3" />
        <path
           d="m 1130.7,396.9 h 284.5 V 847.4 H 1261.6 V 528.5 h -84.8 c -27.8,0 -50.8,8.6 -69.1,25.9 -18.3,17.2 -27.4,39.5 -27.4,66.6 0,26.7 9.4,49.2 28.2,67.4 18.8,18.2 42,27.3 69.8,27.3 h 48.3 v 131.6 h -94.3 c -58,0 -109.2,-23.4 -153.6,-70.1 C 934.2,730.5 912,678 912,619.5 c 0,-58.9 21.1,-110.7 63.3,-155.5 42.2,-44.7 94,-67.1 155.4,-67.1 z"
           id="path4" />
        <path
           d="M 1462.7,979 V 396.9 h 289.6 c 59,0 109.6,22.3 151.7,66.8 42.2,44.5 63.3,98.7 63.3,162.4 0,61.8 -21.2,114.1 -63.6,157 -42.4,42.8 -93.9,64.3 -154.3,64.3 h -98 V 715.7 h 43.9 c 29.3,0 53.9,-8.2 73.9,-24.8 20,-16.5 30,-37.9 30,-64.1 0,-25.3 -9.5,-47.6 -28.5,-67 -20.5,-20.9 -45.6,-31.3 -75.3,-31.3 h -79 V 979 Z"
           id="path5" />
        <path
           d="M 1998,979 V 396.9 h 289.6 c 59,0 109.6,22.3 151.7,66.8 42.2,44.5 63.3,98.7 63.3,162.4 0,61.8 -21.2,114.1 -63.6,157 -42.4,42.8 -93.9,64.3 -154.3,64.3 h -98 V 715.7 h 43.9 c 29.3,0 53.9,-8.2 73.9,-24.8 20,-16.5 30,-37.9 30,-64.1 0,-25.3 -9.5,-47.6 -28.5,-67 -20.5,-20.9 -45.6,-31.3 -75.3,-31.3 h -79 V 979 Z"
           id="path6" />
        <path
           d="m 2533.3,264.5 h 153.6 v 582.8 h -153.6 z"
           id="path7" />
        <path
           d="m 3232.4,715.7 v 131.6 h -259.6 c -69.2,0 -128,-20 -176.2,-59.9 -51.7,-42.8 -77.5,-98.6 -77.5,-167.2 0,-58.4 25.3,-110.2 76.1,-155.5 50.7,-45.3 110.2,-67.9 178.4,-67.9 h 258.9 V 528.1 L 3130,677.7 h -174 l 108.2,-149.2 h -79 c -29.3,0 -52.9,8.5 -70.9,25.5 -18,17 -27.1,38.6 -27.1,64.8 0,27.7 9.5,50.8 28.5,69.2 19,18.5 42.2,27.7 69.5,27.7 z"
           id="path8" />
        <path
           d="m 742,1211.2 c 71.9,0 157.2,-61.7 214.8,-152 H 140.5 c 50.6,91.4 115.7,160.7 190.9,160.7 91.6,0 80.6,-56.3 200.1,-56.3 118.8,0 98.6,47.6 210.5,47.6 z"
           id="path9" />
        <path
           d="m 140.5,1059.2 h 816.4 c 29.6,-46.4 52,-100.4 61.4,-157.5 H 72.7 c 18.1,54 40.9,108.8 67.8,157.5 z"
           id="path10" />
        <path
           d="m 72.7,901.6 h 945.5 c 1.8,-10.6 3.1,-21.4 3.9,-32.2 -28,-14.1 -54.1,-33.8 -78.3,-59.2 -19.8,-20.9 -36,-42.9 -48.4,-66.1 H 32.6 c 7.8,46.4 21.4,101.5 40.1,157.5 z"
           id="path11" />
        <path
           d="m 864.2,619.5 c 0,-11.2 0.7,-22.1 2,-32.9 H 30.3 c -3.4,25.2 -5.2,52.3 -5.2,81.7 0,20.3 2.6,46.3 7.5,75.8 H 895.4 C 874.7,705.5 864.2,663.8 864.2,619.5 Z"
           id="path12" />
        <path
           d="M 82.2,429.1 C 57.8,470.2 39,521.8 30.3,586.6 h 835.8 c 6.8,-57.9 31.6,-110.1 74.3,-155.4 0.7,-0.7 1.4,-1.4 2.1,-2.1 z"
           id="path13" />
        <use
           xlink:href="#a"
           id="use13" />
        <path
           clip-path="url(#b)"
           d="m 0,268.1 h 1131.7 v 161 H 0 Z"
           id="path14" />
        <path
           d="M 717.2,208.6 C 732.8,193.1 766.2,81.1 766.2,0 692.6,17.1 623.7,57.5 583.9,112.7 544.2,167.9 521.6,237.7 535,321.3 634.5,312.7 681.2,262.7 717.2,208.6 Z"
           id="path15" />
      </g>
    </g>
  </g>
</svg>
