<?xml version="1.0" encoding="UTF-8" standalone="no"?>
<svg
   height="98"
   viewBox="0 0 640 97.999997"
   width="640"
   version="1.1"
   id="svg6"
   sodipodi:docname="arcade.svg"
   inkscape:version="1.3.2 (091e20e, 2023-11-25)"
   xmlns:inkscape="http://www.inkscape.org/namespaces/inkscape"
   xmlns:sodipodi="http://sodipodi.sourceforge.net/DTD/sodipodi-0.dtd"
   xmlns="http://www.w3.org/2000/svg"
   xmlns:svg="http://www.w3.org/2000/svg">
  <defs
     id="defs6" />
  <sodipodi:namedview
     id="namedview6"
     pagecolor="#ffffff"
     bordercolor="#000000"
     borderopacity="0.25"
     inkscape:showpageshadow="2"
     inkscape:pageopacity="0.0"
     inkscape:pagecheckerboard="true"
     inkscape:deskcolor="#d1d1d1"
     inkscape:zoom="1"
     inkscape:cx="295.5"
     inkscape:cy="51"
     inkscape:window-width="1312"
     inkscape:window-height="449"
     inkscape:window-x="0"
     inkscape:window-y="39"
     inkscape:window-maximized="0"
     inkscape:current-layer="svg6" />
  <g
     id="g1"
     transform="scale(0.16666667,0.16752137)">
    <g
       id="g8"
       transform="scale(1,1.0017123)">
      <g
         id="g7">
        <g
           fill="#ffffff"
           transform="scale(1,0.99914457)"
           id="g6">
          <path
             d="M 3840,236.8 V 0 H 3276.1 V 584.4 H 3840 V 520 H 3491.1 V 388.9 h 122.5 V 368 H 3491.1 V 236.8 Z M 3331.1,55.1 v 190.3 c 0,5.7 -4.6,10.4 -10.4,10.4 -5.8,0 -10.4,-4.6 -10.4,-10.4 V 44.7 c 0,-5.7 4.6,-10.4 10.4,-10.4 h 264.4 c 5.7,0 10.4,4.6 10.4,10.4 0,5.7 -4.6,10.4 -10.4,10.4 z"
             id="path1" />
          <path
             d="m 1843.4,140.7 c -23,-37.8 -54.3,-70.1 -91.8,-94.2 C 1704.6,16.1 1649.9,0 1593.5,0 c -161.1,0 -292.2,131.1 -292.2,292.2 0,161.1 131.1,292.2 292.2,292.2 56.3,0 111,-16.1 158.1,-46.4 37.5,-24.2 68.8,-56.4 91.8,-94.2 L 1523.9,292.3 Z m -270,224.4 c 2.4,-5.2 8.6,-7.4 13.8,-4.9 l 192,91.1 c 3,1.4 5.1,4.2 5.7,7.4 0.6,3.2 -0.3,6.6 -2.6,9 -14.7,15.8 -31.3,29.7 -49.3,41.4 -1.7,1.1 -3.7,1.7 -5.6,1.7 -3.4,0 -6.7,-1.7 -8.7,-4.7 -3.1,-4.8 -1.7,-11.2 3.1,-14.3 12.6,-8.1 24.5,-17.5 35.4,-27.9 l -178.9,-84.8 c -5.2,-2.6 -7.4,-8.8 -4.9,-14 z"
             id="path2" />
          <path
             d="M 300.3,32.6 0,584.4 h 600.6 z m 0,376.5 c -17.3,0 -31.3,-14 -31.3,-31.3 0,-17.3 14,-31.3 31.3,-31.3 17.3,0 31.3,14 31.3,31.3 0,17.3 -14,31.3 -31.3,31.3 z M 525.4,550 H 393.2 c -5.7,0 -10.4,-4.6 -10.4,-10.4 0,-5.7 4.6,-10.4 10.4,-10.4 H 508 L 446.3,416 c -2.7,-5 -0.9,-11.3 4.1,-14 5,-2.7 11.3,-0.9 14,4.1 l 70,128.6 c 1.7,3.2 1.7,7.1 -0.2,10.2 -1.8,3.2 -5.2,5.1 -8.8,5.1 z"
             id="path3" />
          <path
             d="M 2165.7,32.6 1865.4,584.4 H 2466 Z m 0,376.5 c -17.3,0 -31.3,-14 -31.3,-31.3 0,-17.3 14,-31.3 31.3,-31.3 17.3,0 31.3,14 31.3,31.3 0,17.3 -14,31.3 -31.3,31.3 z m 225,140.9 h -132.2 c -5.7,0 -10.4,-4.6 -10.4,-10.4 0,-5.7 4.6,-10.4 10.4,-10.4 h 114.8 L 2311.7,416 c -2.7,-5 -0.9,-11.3 4.1,-14 5,-2.7 11.3,-0.9 14,4.1 l 70,128.6 c 1.7,3.2 1.7,7.1 -0.2,10.2 -1.8,3.2 -5.2,5.1 -8.9,5.1 z"
             id="path4" />
          <path
             d="m 2892.2,0 h -330.4 v 584.4 h 330.4 c 161.1,0 292.2,-131.1 292.2,-292.2 C 3184.4,131.1 3053.3,0 2892.2,0 Z m -2.7,405.9 c -17.3,0 -31.3,-14 -31.3,-31.3 0,-17.3 14,-31.3 31.3,-31.3 17.3,0 31.3,14 31.3,31.3 0,17.3 -14,31.3 -31.3,31.3 z m 189.3,64 c -43.5,45.7 -101.9,73.8 -164.4,79.2 -0.3,0 -0.6,0 -0.9,0 -5.3,0 -9.8,-4.1 -10.3,-9.5 -0.5,-5.7 3.7,-10.7 9.4,-11.2 119.4,-10.2 212.5,-108.3 216.5,-228.1 0.2,-5.7 4.9,-10.2 10.7,-10 5.7,0.2 10.2,5 10,10.7 -2.1,63.1 -27.3,123.1 -71,168.9 z"
             id="path5" />
          <path
             d="m 1022.7,367.6 c 4.8,-10.8 15.5,-17.7 27.3,-17.7 h 7.7 c 96.5,0 174.9,-78.5 174.9,-174.9 0,-96.5 -78.5,-174.9 -174.9,-174.9 H 696.4 v 584.4 h 498.8 L 1027.9,399.8 c -7.9,-8.8 -10,-21.4 -5.2,-32.2 z m 35,-72.8 c 59.4,0 110.5,-44.3 118.7,-103.1 0.8,-5.7 6,-9.6 11.7,-8.8 5.7,0.8 9.6,6 8.8,11.7 -4.7,33.2 -21.2,63.8 -46.6,86.1 -25.6,22.5 -58.5,34.9 -92.6,34.9 -5.7,0 -10.4,-4.6 -10.4,-10.4 0,-5.8 4.7,-10.4 10.4,-10.4 z M 976.3,147 c 17.3,0 31.3,14 31.3,31.3 0,17.3 -14,31.3 -31.3,31.3 -17.3,0 -31.3,-14 -31.3,-31.3 0,-17.3 14,-31.3 31.3,-31.3 z m 127.5,396.9 c -1.7,3.7 -5.4,6.2 -9.5,6.2 h -132 c -5.7,0 -10.4,-4.6 -10.4,-10.4 0,-5.7 4.6,-10.4 10.4,-10.4 H 1071 l -83.9,-92.6 c -5.8,-6.3 -10.5,-13.5 -14.1,-21.3 -2.4,-5.2 -0.1,-11.3 5,-13.7 5.2,-2.4 11.3,-0.1 13.7,5 2.7,5.9 6.3,11.3 10.7,16.1 l 99.6,109.9 c 2.7,3 3.4,7.4 1.8,11.2 z"
             id="path6" />
        </g>
      </g>
    </g>
  </g>
</svg>
