<?xml version="1.0" encoding="UTF-8" standalone="no"?>
<svg
   height="212"
   viewBox="0 0 640 212"
   width="640"
   version="1.1"
   id="svg19"
   sodipodi:docname="channelf.svg"
   inkscape:version="1.3.2 (091e20e, 2023-11-25)"
   xmlns:inkscape="http://www.inkscape.org/namespaces/inkscape"
   xmlns:sodipodi="http://sodipodi.sourceforge.net/DTD/sodipodi-0.dtd"
   xmlns="http://www.w3.org/2000/svg"
   xmlns:svg="http://www.w3.org/2000/svg">
  <defs
     id="defs19" />
  <sodipodi:namedview
     id="namedview19"
     pagecolor="#ffffff"
     bordercolor="#000000"
     borderopacity="0.25"
     inkscape:showpageshadow="2"
     inkscape:pageopacity="0.0"
     inkscape:pagecheckerboard="true"
     inkscape:deskcolor="#d1d1d1"
     inkscape:zoom="1"
     inkscape:cx="316.5"
     inkscape:cy="115"
     inkscape:window-width="1312"
     inkscape:window-height="449"
     inkscape:window-x="0"
     inkscape:window-y="39"
     inkscape:window-maximized="0"
     inkscape:current-layer="svg19" />
  <g
     id="g2">
    <g
       id="g1"
       transform="scale(0.16666666,0.16653574)">
      <g
         id="g21">
        <g
           id="g20"
           transform="scale(1,1.0007862)">
          <g
             fill="#ffffff"
             transform="scale(1.0002605,0.99984279)"
             id="g19">
            <path
               d="m 2345.7,176.3 h 50.4 v 160.2 h -50.4 z"
               id="path1" />
            <path
               d="m 1448.8,176.3 h 50.4 v 159.9 h -50.4 z"
               id="path2" />
            <path
               d="m 928.8,176.3 v 45.5 34.7 37.5 42.4 h 50.3 V 294 h 155.3 V 256.5 H 979.1 v -34.7 h 155.3 V 176.3 H 979.1 Z"
               id="path3" />
            <path
               d="m 2250.9,233.7 h -122 v -57.4 h -50.3 v 57.4 45.6 57.1 h 50.3 v -57.1 h 122 v 56.8 h 50.4 v -56.8 -45.6 -57.4 h -50.4 z"
               id="path4" />
            <path
               d="m 2843.8,176.3 h -145.9 -32.2 v 159.9 h 32.2 v 0.4 h 145.9 c 30.1,0 54.5,-21.4 54.5,-71.7 v -6.9 -3 -7 c -0.1,-50.3 -24.4,-71.7 -54.5,-71.7 z m 8.2,79.8 v 0.4 7.4 c 0,17.8 -10.7,27 -23.8,27 h -112.1 v -69 h 112.1 c 13.2,0 23.8,9.1 23.8,27 z"
               id="path5" />
            <path
               d="m 2490.9,176.3 h -50.5 v 114.2 45.6 0.3 h 50.5 v -0.3 h 155.2 v -45.6 h -155.2 z"
               id="path6" />
            <path
               d="m 1983.4,176.3 h -115.6 c -34.5,0 -62.5,28 -62.5,62.5 v 34.9 c 0,34.5 28,62.5 62.5,62.5 h 115.6 c 34.5,0 62.5,-28 62.5,-62.5 v -1.9 h -50.4 v 0.4 c 0,10.2 -8.2,18.4 -18.4,18.4 h -102.9 c -10.2,0 -18.4,-8.2 -18.4,-18.4 v -31.8 c 0,-10.2 8.2,-18.4 18.4,-18.4 h 102.9 c 10.2,0 18.4,8.2 18.4,18.4 v 0.4 h 50.4 v -1.9 c 0,-34.7 -28,-62.6 -62.5,-62.6 z"
               id="path7" />
            <path
               d="m 1773.9,254.2 v -29.5 c 0,-26.8 -21.7,-48.5 -48.5,-48.5 H 1556 1543.5 v 159.9 h 50.4 V 294 h 84 l 40.2,42.1 h 62.7 l -40.7,-42.5 c 19.1,-3 33.8,-19.5 33.8,-39.4 z m -63.6,2.3 h -116.4 v -34.7 h 116.4 c 9.6,0 17.4,7.8 17.4,17.4 0,9.6 -7.8,17.3 -17.4,17.3 z"
               id="path8" />
            <path
               d="m 1325.3,176.3 h -40.4 -4.8 -50.4 -0.4 l -92.9,160.2 h 60.8 l 22,-42.4 H 1346 l 22,42.4 h 60.8 l -93,-160.2 z m -86.8,80.2 18,-34.7 h 52.1 l 18,34.7 z"
               id="path9" />
            <path
               d="M 928.8,0 H 2898.3 V 134.4 H 928.8 Z"
               id="path10" />
            <path
               d="M 928.8,378.3 H 2898.3 V 512.7 H 928.8 Z"
               id="path11" />
            <path
               d="M 2053.3,948.5 1854.5,677.3 h -101.8 v 502.1 H 1880 V 927.5 l 184.7,251.9 h 115.8 V 677.3 h -127.2 z"
               id="path12" />
            <path
               d="M 1583.4,948.5 1384.5,677.3 h -101.7 v 502.1 H 1410 V 927.5 l 184.8,251.9 h 115.9 V 677.3 h -127.3 z"
               id="path13" />
            <path
               d="m 2248.6,677.3 h -26 v 502.1 h 26 254.2 V 1052 H 2350 v -56 h 152.8 V 868.7 H 2350 v -64.1 h 152.8 V 677.2 h -254.2 z"
               id="path14" />
            <path
               d="M 2672.2,1052.1 V 677.3 h -127.4 v 502.1 h 15.7 v 0.1 h 254.3 v -127.4 z"
               id="path15" />
            <path
               d="m 1113.4,677.3 h -99.8 l -202,425.8 V 677.3 H 684.3 V 860.7 H 541.7 V 677.3 H 414.3 v 502.1 H 541.7 V 987.9 h 142.7 v 191.5 h 91.1 36.2 106 l 87.1,-183.5 h 108.8 v 183.5 h 127.3 V 677.3 H 1156 Z m -48.4,191.4 48.4,-102 v 102 z"
               id="path16" />
            <path
               d="m 263.3,1060.8 c -78.8,0 -131.7,-55.5 -131.7,-132.3 0,-75.5 52.3,-134.9 129.7,-134.9 43.2,0 85.2,18.8 111,53.6 L 372.2,695.6 C 334.8,680.1 297.3,671.1 256.7,671.1 188.3,671.1 119.3,700.8 71.5,749.8 25.2,797.6 0,861.5 0,928 c 0,72.3 24.5,135.5 78.3,184 50.3,45.8 114.8,71.6 182.6,71.6 39.3,0 69.6,-9.7 111.6,-22.6 v -151.7 c -26.6,31.5 -67.9,51.5 -109.2,51.5 z"
               id="path17" />
            <path
               d="m 3367,1272.2 c -56.3,0 -249.4,-2.7 -372.7,-36.8 -31.7,-8.8 -56.7,-34.1 -65.4,-66.1 -12.6,-46.7 -33.9,-140.2 -33.9,-242 0,-101.8 21.2,-195.3 33.9,-241.9 8.7,-32 33.7,-57.3 65.4,-66 123.2,-34.2 316.4,-36.8 372.7,-36.8 56.3,0 249.5,2.7 372.7,36.8 31.7,8.8 56.7,34.1 65.4,66 12.7,46.7 33.9,140.2 33.9,241.9 0,101.9 -21.2,195.3 -33.9,242 -8.7,32 -33.7,57.3 -65.4,66.1 -123.1,34.1 -316.4,36.8 -372.7,36.8 z m 0,-665.7 c -55.5,0 -246,2.6 -366.3,35.9 -23.5,6.5 -42.1,25.4 -48.6,49.2 -12.3,45.5 -33.1,136.7 -33.1,235.7 0,99 20.7,190.2 33.1,235.7 6.5,23.8 25.1,42.7 48.6,49.2 120.3,33.3 310.7,35.9 366.3,35.9 55.6,0 245.9,-2.6 366.3,-35.9 23.5,-6.5 42.1,-25.4 48.6,-49.2 12.3,-45.5 33.1,-136.7 33.1,-235.7 0,-99 -20.7,-190.2 -33.1,-235.7 -6.4,-23.8 -25.1,-42.7 -48.6,-49.2 -120.2,-33.3 -310.7,-35.9 -366.3,-35.9 z"
               id="path18" />
            <path
               d="M 3526.4,777.4 V 649.7 H 3335.3 3207.7 V 777.4 1205 h 127.6 V 995.2 h 191.1 V 867.6 h -191.1 v -90.2 z"
               id="path19" />
          </g>
        </g>
      </g>
    </g>
  </g>
</svg>
