<?xml version="1.0" encoding="UTF-8" standalone="no"?>
<svg
   height="134"
   viewBox="0 0 640 134"
   width="640"
   version="1.1"
   id="svg21"
   sodipodi:docname="desktop.svg"
   inkscape:version="1.3.2 (091e20e, 2023-11-25)"
   xmlns:inkscape="http://www.inkscape.org/namespaces/inkscape"
   xmlns:sodipodi="http://sodipodi.sourceforge.net/DTD/sodipodi-0.dtd"
   xmlns="http://www.w3.org/2000/svg"
   xmlns:svg="http://www.w3.org/2000/svg">
  <defs
     id="defs21" />
  <sodipodi:namedview
     id="namedview21"
     pagecolor="#ffffff"
     bordercolor="#000000"
     borderopacity="0.25"
     inkscape:showpageshadow="2"
     inkscape:pageopacity="0.0"
     inkscape:pagecheckerboard="true"
     inkscape:deskcolor="#d1d1d1"
     inkscape:zoom="1"
     inkscape:cx="321.5"
     inkscape:cy="69"
     inkscape:window-width="1312"
     inkscape:window-height="449"
     inkscape:window-x="0"
     inkscape:window-y="39"
     inkscape:window-maximized="0"
     inkscape:current-layer="svg21" />
  <g
     id="g2">
    <g
       id="g1"
       transform="scale(0.16666667,0.16645963)">
      <g
         id="g23">
        <g
           id="g22"
           transform="scale(1,0.99875934)">
          <g
             stroke-width="6.19355"
             transform="matrix(1,0,0,1.0010416,4.7e-5,4e-6)"
             id="g21">
            <path
               d="m 3282.5806,61.935479 h -61.9355 V 185.80645 619.35483 743.22579 h 61.9355 v 61.93549 h 185.8064 v -61.93549 h 61.9355 v -61.93548 h 123.871 v -61.93548 h 61.9355 61.9355 v -61.93549 h 61.9354 V 433.54838 247.74193 123.87096 h -61.9354 V 61.935479 H 3716.129 V -3.9999999e-6 h -247.742 -61.9354 -123.871 z"
               fill="#120f26"
               id="path1" />
            <path
               d="m 3468.387,619.35483 h 185.8065 v -61.93549 h 123.871 V 247.74193 h -61.9355 v -61.93548 h -247.742 -61.9354 -123.871 v 557.41934 h 185.8064 z m 123.871,-309.67742 v 123.87097 h -61.9355 v 61.93548 H 3468.387 V 309.67741 Z"
               fill="#666666"
               id="path2" />
            <path
               d="m 3468.387,495.48386 h 185.8065 v -61.93548 h 123.871 V 123.87096 H 3716.129 V 61.935479 h -247.742 -61.9354 -123.871 V 619.35483 h 185.8064 z m 123.871,-309.67741 v 123.87096 h -61.9355 v 61.93548 H 3468.387 V 185.80645 Z"
               fill="#ffffff"
               id="path3" />
            <path
               d="M 619.35478,123.871 H 557.4193 V 61.935519 H 495.48382 V 3.6e-5 H 247.74189 123.87092 61.935436 V 61.935519 H -4.65e-5 V 185.80648 619.35487 743.22583 H 61.935436 v 61.93548 h 61.935484 123.87097 185.80644 v -61.93548 h 61.93549 61.93548 v -61.93548 h 61.93548 V 557.41938 247.74197 Z"
               fill="#120f26"
               id="path4" />
            <path
               d="M 495.48382,247.74197 V 185.80648 H 247.74189 123.87092 61.935436 V 743.22583 H 123.87092 247.74189 433.54833 V 681.29035 H 557.4193 V 247.74197 Z m -247.74193,61.93548 h 123.87096 v 247.74193 h -61.93548 v 61.93549 h -61.93548 z"
               fill="#666666"
               id="path5" />
            <path
               d="M 495.48382,123.871 V 61.935519 H 247.74189 123.87092 61.935436 V 619.35487 H 123.87092 247.74189 433.54833 V 557.41938 H 557.4193 V 123.871 Z m -247.74193,61.93548 h 123.87096 v 247.74194 h -61.93548 v 61.93548 h -61.93548 z"
               fill="#ffffff"
               id="path6" />
            <path
               d="m 1114.8386,495.4839 h -61.9354 v -61.93548 -61.93549 -61.93548 h 61.9354 V 185.80648 61.935519 h -61.9354 V 3.6e-5 H 805.16123 743.22575 619.35478 V 61.935519 H 557.4193 V 185.80648 619.35487 743.22583 h 61.93548 v 61.93548 h 123.87097 61.93548 247.74197 v -61.93548 h 61.9354 V 619.35487 Z"
               fill="#120f26"
               id="path7" />
            <path
               d="M 1052.9032,619.35487 H 805.16123 V 557.41938 H 990.96768 V 433.54842 H 805.16123 V 309.67745 H 1052.9032 V 185.80648 H 805.16123 743.22575 619.35478 v 557.41935 h 123.87097 61.93548 247.74197 z"
               fill="#666666"
               id="path8" />
            <path
               d="M 1052.9032,495.4839 H 805.16123 V 433.54842 H 990.96768 V 309.67745 H 805.16123 V 185.80648 H 1052.9032 V 61.935519 H 805.16123 743.22575 619.35478 V 619.35487 h 123.87097 61.93548 247.74197 z"
               fill="#ffffff"
               id="path9" />
            <path
               d="M 1610.3225,123.87096 V 61.935479 H 1548.387 V -4e-6 h -371.6129 v 61.935483 h -61.9355 v 61.935481 h -61.9354 v 123.87097 61.93548 123.87097 123.87096 123.87097 h 61.9354 v 61.93548 h 61.9355 v 61.93549 h 371.6129 v -61.93549 h 61.9355 v -61.93548 h 61.9355 V 557.41934 495.48386 371.61289 247.74193 123.87096 Z"
               fill="#120f26"
               id="path10" />
            <path
               d="m 1114.8386,557.41934 v 123.87097 h 61.9355 v 61.93548 h 371.6129 v -61.93548 h 61.9355 V 495.48386 h -61.9355 v -61.93548 h -123.8709 v -61.93549 h -123.871 v -61.93548 h 123.871 v 61.93548 h 185.8064 V 247.74193 h -61.9355 v -61.93548 h -371.6129 v 61.93548 h -61.9355 v 185.80645 h 61.9355 v 61.93548 h 123.871 v 61.93548 h 123.871 v 61.93549 h -123.871 v -61.93549 z"
               fill="#666666"
               id="path11" />
            <path
               d="m 1114.8386,433.54838 v 123.87096 h 61.9355 v 61.93549 h 371.6129 v -61.93549 h 61.9355 V 371.61289 h -61.9355 v -61.93548 h -123.8709 v -61.93548 h -123.871 v -61.93548 h 123.871 v 61.93548 h 185.8064 V 123.87096 H 1548.387 V 61.935479 h -371.6129 v 61.935481 h -61.9355 v 185.80645 h 61.9355 v 61.93548 h 123.871 v 61.93549 h 123.871 v 61.93548 h -123.871 v -61.93548 z"
               fill="#ffffff"
               id="path12" />
            <path
               d="m 2167.742,371.61293 v -61.93548 h 61.9354 V 185.80648 61.935519 H 2167.742 V 3.6e-5 h -123.871 v 61.935483 h -61.9355 V 123.871 H 1920 V 61.935519 h -61.9355 V 3.6e-5 h -185.8064 v 61.935483 h -61.9355 V 185.80648 619.35487 743.22583 h 61.9355 v 61.93548 h 185.8064 V 743.22583 H 1920 h 61.9355 v 61.93548 h 185.8065 v -61.93548 h 61.9354 V 619.35487 495.4839 h -61.9354 v -61.93548 h -61.9355 v -61.93549 z"
               fill="#120f26"
               id="path13" />
            <path
               d="M 1858.0645,371.61293 V 185.80648 h -185.8064 v 557.41935 h 185.8064 V 619.35487 H 1920 v 61.93548 h 61.9355 v 61.93548 H 2167.742 V 619.35487 h -61.9355 V 557.41938 H 2043.871 V 495.4839 h -61.9355 v -61.93548 h 61.9355 v -61.93549 h 61.9355 v -61.93548 h 61.9355 V 185.80648 h -123.871 v 61.93549 h -61.9355 v 61.93548 H 1920 v 61.93548 z"
               fill="#666666"
               id="path14" />
            <path
               d="M 1858.0645,247.74197 V 61.935519 H 1672.2581 V 619.35487 h 185.8064 V 495.4839 H 1920 v 61.93548 h 61.9355 v 61.93549 H 2167.742 V 495.4839 h -61.9355 v -61.93548 h -61.9355 v -61.93549 h -61.9355 v -61.93548 h 61.9355 v -61.93548 h 61.9355 v -61.93549 h 61.9355 V 61.935519 H 2043.871 V 123.871 h -61.9355 v 61.93548 H 1920 v 61.93549 z"
               fill="#ffffff"
               id="path15" />
            <path
               d="M 2167.7419,61.935479 V 185.80645 309.67741 h 61.9355 v 61.93548 h 61.9355 v 247.74194 123.87096 h 61.9355 v 61.93549 h 185.8064 v -61.93549 h 61.9355 V 619.35483 371.61289 h 61.9355 v -61.93548 h 61.9355 V 185.80645 61.935479 h -61.9355 V -4e-6 h -433.5484 v 61.935483 z"
               fill="#120f26"
               id="path16" />
            <path
               d="m 2663.2258,185.80645 h -433.5484 v 123.87096 h 123.871 v 433.54838 h 185.8064 V 309.67741 h 123.871 z"
               fill="#666666"
               id="path17" />
            <path
               d="M 2663.2258,61.935479 H 2229.6774 V 185.80645 h 123.871 v 433.54838 h 185.8064 V 185.80645 h 123.871 z"
               fill="#ffffff"
               id="path18" />
            <path
               d="M 3220.6451,123.87096 V 61.935479 h -61.9355 V -4e-6 h -371.6129 v 61.935483 h -61.9354 v 61.935481 h -61.9355 v 123.87097 309.67741 123.87097 h 61.9355 v 61.93548 h 61.9354 v 61.93549 h 371.6129 v -61.93549 h 61.9355 v -61.93548 h 61.9355 V 557.41934 247.74193 123.87096 Z"
               fill="#120f26"
               id="path19" />
            <path
               d="m 3158.7096,743.22579 v -61.93548 h 61.9355 V 247.74193 h -61.9355 v -61.93548 h -371.6129 v 61.93548 h -61.9354 v 433.54838 h 61.9354 v 61.93548 z M 2910.9677,619.35483 V 309.67741 h 123.871 v 309.67742 z"
               fill="#666666"
               id="path20" />
            <path
               d="m 3158.7096,619.35483 v -61.93549 h 61.9355 V 123.87096 h -61.9355 V 61.935479 h -371.6129 v 61.935481 h -61.9354 v 433.54838 h 61.9354 v 61.93549 z M 2910.9677,495.48386 V 185.80645 h 123.871 v 309.67741 z"
               fill="#ffffff"
               id="path21" />
          </g>
        </g>
      </g>
    </g>
  </g>
</svg>
