<?xml version="1.0" encoding="UTF-8" standalone="no"?>
<svg
   height="144"
   viewBox="0 0 640 144"
   width="640"
   version="1.1"
   id="svg21"
   sodipodi:docname="gc.svg"
   inkscape:version="1.3.2 (091e20e, 2023-11-25)"
   xmlns:inkscape="http://www.inkscape.org/namespaces/inkscape"
   xmlns:sodipodi="http://sodipodi.sourceforge.net/DTD/sodipodi-0.dtd"
   xmlns="http://www.w3.org/2000/svg"
   xmlns:svg="http://www.w3.org/2000/svg">
  <defs
     id="defs21" />
  <sodipodi:namedview
     id="namedview21"
     pagecolor="#ffffff"
     bordercolor="#000000"
     borderopacity="0.25"
     inkscape:showpageshadow="2"
     inkscape:pageopacity="0.0"
     inkscape:pagecheckerboard="true"
     inkscape:deskcolor="#d1d1d1"
     inkscape:zoom="1"
     inkscape:cx="317.5"
     inkscape:cy="71"
     inkscape:window-width="1312"
     inkscape:window-height="449"
     inkscape:window-x="0"
     inkscape:window-y="39"
     inkscape:window-maximized="0"
     inkscape:current-layer="svg21" />
  <g
     id="g2">
    <g
       id="g1"
       transform="scale(0.16666667,0.16628176)">
      <g
         id="g23">
        <g
           id="g22">
          <g
             fill="#ffffff"
             transform="scale(1,0.99988454)"
             id="g21">
            <path
               d="M 1461.3,424.5 1291.2,720.2 H 1504 V 653 h -94.9 l 87.8,-146.8 118.8,214 h 88.2 L 1532.3,424.5 Z"
               id="path1" />
            <path
               d="m 1896.8,720.2 91,-158.1 v 158.1 h 73.1 l 0.2,-295.7 h -73 L 1867.4,633.9 1746.6,424.5 h -72.8 l 0.1,295.7 h 73 V 562.1 l 91.2,158.1 z"
               id="path2" />
            <path
               d="M 1300.7,542.2 H 1116 v 62.4 h 107.1 V 653 H 1032 V 488.6 h 265.5 v -64.1 h -268 c -58,0 -76.8,17.8 -76.8,73.5 v 148.6 c 0,55.9 18.7,73.7 76.8,73.7 h 194.6 c 58,0 76.7,-17.8 76.7,-73.7 V 542.2"
               id="path3" />
            <path
               d="M 2708.8,424.5 H 2535 c -58.3,0 -76.8,17.8 -76.8,73.5 v 148.5 c 0,55.9 18.5,73.6 76.8,73.6 h 173.8 c 58,0 76.9,-17.7 76.9,-73.6 v -53.9 h -79.5 V 653 H 2537.5 V 488.6 h 168.7 v 53.5 h 79.5 V 498 c 0,-55.7 -18.9,-73.5 -76.9,-73.5"
               id="path4" />
            <path
               d="M 3069.7,653 H 2896.8 V 424.5 h -79.4 v 222 c 0,55.9 18.7,73.7 76.8,73.7 h 178 c 58.2,0 76.9,-17.8 76.9,-73.7 v -222 h -79.4 z"
               id="path5" />
            <path
               d="m 3430.8,637 c 0,14.3 -3.2,18.1 -24.7,18.1 h -142.6 v -57.2 h 142.6 c 21.5,0 24.7,4 24.7,18 z M 3263.5,483.9 h 142.3 c 22,0 23,4.7 23,13.3 v 26.9 c 0,8.5 -1,13.4 -23,13.4 h -142.3 z m 209.2,84.3 c 19.1,-9.1 29.6,-25.9 29.6,-47.8 v -34.6 c 0,-41.9 -22.4,-61.3 -70.4,-61.3 H 3184 v 295.7 h 230.6 c 60.1,0 90.3,-20.8 90.3,-62.5 v -35.9 c 0.1,-25.2 -11.3,-43.8 -32.2,-53.6 z"
               id="path6" />
            <path
               d="m 3614.3,597.8 h 130 v -62.1 h -130 v -49 h 223 V 424.5 H 3534.8 V 720.2 H 3840 V 653 h -225.7 z"
               id="path7" />
            <path
               d="m 2175.6,597.8 h 129.9 v -62.1 h -129.9 v -49 h 222.9 v -62.2 h -302.3 v 295.7 h 305 V 653 h -225.6 z"
               id="path8" />
            <path
               d="M 3016.9,342.8 V 115.6 h -43.3 v 144.8 l -73.4,-144.8 h -58.3 V 342.8 H 2885 V 165.7 l 89,177.1 z"
               id="path9" />
            <path
               d="m 1764.6,165.7 89.1,177.1 h 42.8 V 115.6 h -43.2 v 144.8 l -73.6,-144.8 h -58.3 v 227.2 h 43.2 z"
               id="path10" />
            <path
               d="m 1056.4,165.7 89,177.1 h 42.8 V 115.6 h -43.3 v 144.8 l -73.4,-144.8 h -58.3 v 227.2 h 43.2 z"
               id="path11" />
            <path
               d="m 1430.4,115.6 h 48.7 v 227.2 h -48.7 z"
               id="path12" />
            <path
               d="m 2163.5,342.8 h 46.3 v -191 h 72.9 v -36.1 h -192.3 v 36.1 h 73.1 z"
               id="path13" />
            <path
               d="m 3271.8,150.5 h 61 c 14.9,0 30.3,11.4 30.3,25.2 V 283 c 0,14.7 -15.8,24.9 -30.3,24.9 h -61 z m 62.3,192.3 c 39.8,0 71.9,-26.3 71.9,-58.6 V 174.3 c 0,-32.5 -32.1,-58.8 -71.9,-58.8 H 3229 v 227.2 h 105.1 z"
               id="path14" />
            <path
               d="m 3742.1,284.6 c 0,13.7 -15.5,25 -30.3,25 h -36 c -14.9,0 -30.3,-11.3 -30.3,-25 V 173.9 c 0,-14.1 15.4,-25.1 30.3,-25.1 h 36 c 14.8,0 30.3,11 30.3,25.1 z m 42.9,-112 c 0,-32.4 -32.4,-58.6 -71.8,-58.6 h -38.8 c -39.6,0 -71.8,26.3 -71.8,58.6 v 113.2 c 0,32.5 32.2,58.7 71.8,58.7 h 38.8 c 39.5,0 71.8,-26.2 71.8,-58.7 z"
               id="path15" />
            <path
               d="m 2461.4,284.4 c 0,31.6 30.5,57.1 68.6,58.4 h 100.1 v -36 h -95.8 c -15,0 -30.3,-9.8 -30.3,-23.6 v -41.1 h 126.1 V 205.7 H 2504 v -30.4 c 0,-13.7 15.3,-23.7 30.3,-23.7 h 95.8 v -35.9 h -98.5 c -38.8,0.8 -70.1,26.6 -70.1,58.5 z"
               id="path16" />
            <path
               d="m 192.4,546 169.8,98 0.1,-196.1 -169.9,-98 z"
               id="path17" />
            <path
               d="M 119.5,588.1 362.3,728.3 V 866.1 L 0,657 V 238.8 l 119.5,69 z"
               id="path18" />
            <path
               d="m 379.6,221.9 -169.7,98 169.7,98 169.8,-98 z"
               id="path19" />
            <path
               d="M 379.6,137.6 583.9,255.8 703.4,186.9 379.6,0 17.8,208.9 137,277.8 Z"
               id="path20" />
            <path
               d="M 639.7,588.1 V 445.6 l -73,42.1 V 546 l -169.8,98.1 v 0.2 -196.4 L 759.1,238.8 V 657 L 396.9,866.1 V 728.4 Z"
               id="path21" />
          </g>
        </g>
      </g>
    </g>
  </g>
</svg>
