<?xml version="1.0" encoding="UTF-8" standalone="no"?>
<svg
   height="185"
   viewBox="0 0 640 185"
   width="640"
   version="1.1"
   id="svg21"
   sodipodi:docname="mastersystem.svg"
   inkscape:version="1.3.2 (091e20e, 2023-11-25)"
   xmlns:inkscape="http://www.inkscape.org/namespaces/inkscape"
   xmlns:sodipodi="http://sodipodi.sourceforge.net/DTD/sodipodi-0.dtd"
   xmlns="http://www.w3.org/2000/svg"
   xmlns:svg="http://www.w3.org/2000/svg">
  <defs
     id="defs21" />
  <sodipodi:namedview
     id="namedview21"
     pagecolor="#ffffff"
     bordercolor="#000000"
     borderopacity="0.25"
     inkscape:showpageshadow="2"
     inkscape:pageopacity="0.0"
     inkscape:pagecheckerboard="true"
     inkscape:deskcolor="#d1d1d1"
     inkscape:zoom="1"
     inkscape:cx="310.5"
     inkscape:cy="85"
     inkscape:window-width="1312"
     inkscape:window-height="449"
     inkscape:window-x="0"
     inkscape:window-y="39"
     inkscape:window-maximized="0"
     inkscape:current-layer="svg21" />
  <g
     id="g2">
    <g
       id="g1"
       transform="scale(0.16666667,0.16681696)">
      <g
         id="g22"
         transform="scale(1,1.0009025)">
        <g
           fill="#ffffff"
           transform="scale(1.0002344,0.99945878)"
           id="g21">
          <path
             d="m 0,1036 h 3839 v 45.9 H 0 Z"
             id="path1" />
          <path
             d="m 1303.5,352.8 h -221.6 v 69.1 h 221.6 c 42.5,0 78,-35.5 78,-78 0,-42.5 -35.5,-78 -78,-78 h -56.7 c -51.4,0 -94,-42.5 -94,-94 0,-51.5 42.6,-93.9 94,-93.9 h 219.8 V 8.9 H 1245 c -90.4,0 -163.1,72.7 -163.1,163.1 0,90.4 72.7,163 163.1,163 h 56.7 c 5.3,0 8.9,3.6 8.9,8.9 0,5.3 -3.6,8.9 -7.1,8.9 z"
             id="path2" />
          <path
             d="m 1245,164.9 h 221.6 V 94 H 1245 c -42.5,0 -78,35.5 -78,78 0,42.5 35.5,78 78,78 h 56.7 c 51.4,0 94,42.5 94,94 0,51.5 -42.5,94 -94,94 h -219.8 v 69 h 221.6 c 90.4,0 163.1,-72.7 163.1,-163.1 0,-90.4 -72.7,-163.1 -163.1,-163.1 h -56.7 c -5.3,0 -8.9,-3.6 -8.9,-8.9 0,-3.5 3.6,-7 7.1,-7 z"
             id="path3" />
          <path
             d="m 2040.9,94 c -30.2,0 -53.2,23 -53.2,53.2 v 221.6 c 0,30.2 23,53.2 53.2,53.2 h 143.6 V 266 h -109.9 v 69 h 40.8 v 16 h -40.8 c -8.9,0 -16,-7.1 -16,-16 V 179 c 0,-8.9 7.1,-16 16,-16 h 196.8 V 94 Z"
             id="path4" />
          <path
             d="m 2477,421.9 h 161.3 L 2528.4,95.7 c -3.6,-8.9 -10.6,-16 -21.3,-16 -8.9,0 -17.7,7.1 -21.3,14.2 L 2344,507 h 81.5 l 49.6,-147.1 V 422 Z m 28.4,-148.9 23,70.9 h -47.9 z"
             id="path5" />
          <path
             d="M 2613.5,81.5 C 2599.3,35.5 2556.8,0 2505.4,0 2454,0 2411.4,33.7 2399.1,79.8 L 2269.7,459.1 V 180.8 h -195 v 69.1 h 127.6 v 187.9 h -159.6 c -39,0 -69.1,-31.9 -69.1,-69.1 V 147.2 c 0,-39 31.9,-69.1 69.1,-69.1 h 228.7 V 8.9 h -230.5 c -76.2,0 -138.2,62.1 -138.2,138.2 v 221.6 c 0,76.2 62.1,138.2 138.2,138.2 h 285.4 L 2469.9,90.3 c 5.3,-16 19.5,-26.6 37.2,-26.6 17.7,0 31.9,10.6 37.2,26.6 l 117,347.4 H 2477 v 69.1 h 280.1 z"
             id="path6" />
          <path
             d="m 1638.5,437.9 c -39,0 -69.1,-31.9 -69.1,-69.1 V 147.2 c 0,-39 31.9,-69.1 69.1,-69.1 H 1876 V 8.9 h -237.5 c -76.2,0 -138.2,62.1 -138.2,138.2 v 221.6 c 0,76.2 62.1,138.2 138.2,138.2 H 1876 v -69.1 z"
             id="path7" />
          <path
             d="m 1654.5,336.8 h 172 v -69.1 h -241.1 v 102.8 c 0,30.2 23,53.2 53.2,53.2 h 237.5 v -69.2 h -205.6 c -8.9,-1.7 -16,-8.8 -16,-17.7 z"
             id="path8" />
          <path
             d="m 1826.5,180.8 h -172 c 0,-8.9 7.1,-16 16,-16 h 203.9 V 94 h -235.8 c -30.2,0 -53.2,23 -53.2,53.2 V 250 h 241.1 c 0,-0.1 0,-69.2 0,-69.2 z"
             id="path9" />
          <path
             d="m 374,559.9 h 150.3 v 26.6 h -33.7 c -23.1,0 -33.1,6.5 -33.1,30.2 v 313.7 c 0,23.7 10.1,30.2 33.1,30.2 h 33.7 v 26.6 h -197 v -26.6 h 32.5 c 23.1,0 33.1,-6.5 33.1,-30.2 V 589.5 h -1.2 L 256.3,987.2 H 238.5 L 97.6,589.5 h -1.2 v 287.6 c 0,54.4 5.9,81.7 68.6,83.4 v 26.6 H 0 v -26.6 c 52.7,-4.7 66.9,-14.8 66.9,-97.6 V 616.7 C 66.9,593 56.8,586.5 33.8,586.5 H 0 v -26.6 h 151.5 l 113,320.8 h 1.2 z"
             id="path10" />
          <path
             d="m 736.2,785.4 c 0,-37.9 -16.6,-55 -63.9,-55 -39.7,0 -55,11.8 -55,20.1 0,6.5 13,20.1 13,33.7 0,20.7 -14.2,29 -33.1,29 -21.3,0 -31.4,-17.2 -31.4,-37.3 0,-36.7 43.8,-72.2 115.4,-72.2 76.3,0 109.5,27.2 109.5,90.5 0,29.6 -1.8,113.6 -1.8,136.1 0,10.7 8.3,27.2 21.9,27.2 16,0 20.1,-7.1 26,-7.1 5.9,0 7.7,3 7.7,10.1 0,8.9 -21.9,32.5 -52.7,32.5 -30.2,0 -45,-15.4 -52.7,-44.4 -26,31.4 -66.3,47.3 -106.5,47.3 -44.4,0 -82.9,-20.7 -82.9,-70.4 0,-55.6 71,-92.9 186.4,-108.3 v -31.8 z m 0,55.6 c -102.4,14.2 -129,35.5 -129,79.3 0,28.4 23.1,46.2 49.7,46.2 36.7,0 79.3,-29.6 79.3,-78.1 z"
             id="path11" />
          <path
             d="m 1042.2,706.7 h 20.7 v 98.2 h -20.7 c -12.4,-43.8 -39.7,-77.5 -88.2,-77.5 -26,0 -54.4,13.6 -54.4,43.2 0,20.7 15.4,33.7 53.3,42 l 58,12.4 c 43.8,9.5 71,36.7 71,80.5 0,58 -42.6,90.5 -96.5,90.5 -30.2,0 -60.4,-8.9 -84,-29 l -18.3,26 H 862.4 V 880.7 H 883 c 14.8,52.1 45.6,91.7 104.2,91.7 26,0 59.2,-15.4 59.2,-45.6 0,-29 -20.7,-39.7 -65.7,-50.3 L 935,865.9 c -52.6,-12.4 -68,-39.1 -68,-79.9 0,-50.9 36.1,-82.3 86.4,-82.3 26,0 52.1,7.7 72.2,23.7 z"
             id="path12" />
          <path
             d="m 1101.9,712.6 c 62.7,-4.1 75.2,-69.8 78.7,-119.5 h 23.7 v 119.5 h 88.2 v 26.6 h -88.2 V 915 c 0,29 9.5,45.6 36.7,45.6 37.9,0 46.2,-50.3 46.2,-79.9 h 23.7 c -0.6,74 -26.6,115.4 -90,115.4 -39.1,0 -71,-26.6 -71,-63.9 v -193 H 1102 v -26.6 z"
             id="path13" />
          <path
             d="m 1384.2,854.1 v 8.3 c 0,68.6 38.5,104.2 85.2,104.2 45,0 71,-24.9 90,-63.9 l 20.1,11.2 c -24.3,53.3 -61,82.3 -120.1,82.3 -81.7,0 -135.5,-56.2 -135.5,-136.7 0,-99.4 53.9,-155.6 138.5,-155.6 69.2,0 113,62.7 117.2,150.3 H 1384.2 Z M 1489,830.4 c 24.3,0 30.2,-3.6 30.2,-22.5 0,-50.3 -24.3,-80.5 -62.1,-80.5 -46.8,0 -67.5,38.5 -72.8,103 z"
             id="path14" />
          <path
             d="m 1592.5,718.5 110.1,-5.9 V 783 h 1.2 c 7.1,-31.4 35.5,-79.3 88.2,-79.3 26,0 46.8,18.9 46.8,46.2 0,22.5 -11.8,40.2 -35.5,40.2 -19.5,0 -32.5,-14.8 -32.5,-32 0,-10.7 3,-18.9 14.2,-26.6 v -1.2 h -1.2 c -61.5,4.7 -81.1,106.5 -81.1,155.1 v 59.2 c 0,15.4 10.1,18.9 34.3,18.9 h 21.3 v 23.7 h -161 v -23.7 h 19.5 c 22.5,0 31.4,-5.9 31.4,-29 V 758.8 c 0,-14.2 -8.9,-16.6 -28.4,-16.6 h -27.2 v -23.7 z"
             id="path15" />
          <path
             d="m 2235.8,555.2 h 20.7 l 7.1,153.3 H 2240 c -17.2,-65.7 -59.8,-130.8 -135.5,-130.8 -58,0 -84,35.5 -84,70.4 0,29.6 15.4,55.6 71,71 l 92.3,25.4 c 67.5,18.3 99.4,62.7 99.4,124.9 0,70.4 -52.1,126.6 -145,126.6 -48.5,0 -91.1,-17.2 -123.7,-45.6 l -26.6,42.6 h -19.5 l -2.4,-167.5 22.5,-2.4 c 17.2,95.3 75.8,146.2 149.7,146.2 59.2,0 97.6,-31.4 97.6,-86.4 0,-34.3 -16,-57.4 -56.8,-68.1 l -95.9,-24.9 c -69.2,-17.8 -110.1,-49.7 -110.1,-116 0,-79.3 53.3,-123.1 129.6,-123.1 42.6,0 76.9,12.4 108.9,41.4 z"
             id="path16" />
          <path
             d="m 2479,712.6 h 117.8 v 23.7 c -29,0.6 -38.5,11.8 -49.7,39.7 l -76.9,186.4 c -43.8,106.5 -82.3,146.2 -132,146.2 -28.4,0 -54.4,-14.2 -54.4,-46.2 0,-20.1 16.6,-33.7 36.1,-33.7 16.6,0 28.4,12.4 28.4,24.9 0,10.7 -4.1,16 -4.1,20.1 0,5.9 3.6,8.3 7.1,8.3 25.4,0 51.5,-34.3 81.7,-99.4 l -93,-210.8 c -13,-29 -18.3,-35.5 -42,-35.5 h -7.1 v -23.7 h 139.7 v 23.7 h -8.3 c -21.9,0 -32.5,1.8 -32.5,12.4 0,4.7 2.4,11.8 5.3,18.3 l 65.1,149.1 46.2,-114.2 c 11.2,-27.2 15.4,-37.9 15.4,-47.3 0,-13 -14.8,-18.3 -24.9,-18.3 H 2479 Z"
             id="path17" />
          <path
             d="m 2788.6,706.7 h 20.7 v 98.2 h -20.7 c -12.4,-43.8 -39.7,-77.5 -88.2,-77.5 -26,0 -54.4,13.6 -54.4,43.2 0,20.7 15.4,33.7 53.3,42 l 58,12.4 c 43.8,9.5 71,36.7 71,80.5 0,58 -42.6,90.5 -96.5,90.5 -30.2,0 -60.4,-8.9 -84,-29 l -18.3,26 h -20.7 V 880.7 h 20.7 c 14.8,52.1 45.6,91.7 104.2,91.7 26,0 59.2,-15.4 59.2,-45.6 0,-29 -20.7,-39.7 -65.7,-50.3 l -45.6,-10.7 c -52.7,-12.4 -68.1,-39.1 -68.1,-79.9 0,-50.9 36.1,-82.3 86.4,-82.3 26,0 52.1,7.7 72.2,23.7 z"
             id="path18" />
          <path
             d="m 2848.3,712.6 c 62.7,-4.1 75.2,-69.8 78.7,-119.5 h 23.7 v 119.5 h 88.2 v 26.6 h -88.2 V 915 c 0,29 9.5,45.6 36.7,45.6 37.9,0 46.2,-50.3 46.2,-79.9 h 23.7 c -0.6,74 -26.6,115.4 -90,115.4 -39.1,0 -71,-26.6 -71,-63.9 v -193 h -47.9 v -26.6 z"
             id="path19" />
          <path
             d="m 3130.6,854.1 v 8.3 c 0,68.6 38.5,104.2 85.2,104.2 45,0 71,-24.9 90,-63.9 l 20.1,11.2 c -24.3,53.3 -61,82.3 -120.1,82.3 -81.7,0 -135.5,-56.2 -135.5,-136.7 0,-99.4 53.9,-155.6 138.5,-155.6 69.2,0 113,62.7 117.2,150.3 h -195.4 z m 104.8,-23.7 c 24.3,0 30.2,-3.6 30.2,-22.5 0,-50.3 -24.3,-80.5 -62.1,-80.5 -46.8,0 -67.5,38.5 -72.8,103 z"
             id="path20" />
          <path
             d="m 3694,963.5 h 14.2 c 23.7,0 32,-7.1 32,-27.2 V 793.7 c 0,-32 -18.3,-54.4 -52.1,-54.4 -36.1,0 -66.3,27.8 -66.3,69.8 v 127.2 c 0,20.1 8.3,27.2 32,27.2 h 14.2 v 23.7 h -146.8 v -23.7 h 14.2 c 23.7,0 32,-7.1 32,-27.2 V 800.2 c 0,-38.5 -22.5,-61 -56.2,-61 -28.4,0 -62.1,34.3 -62.1,95.9 v 101.2 c 0,20.1 8.3,27.2 32,27.2 h 14.2 v 23.7 h -151.5 v -23.7 h 18.9 c 23.7,0 32,-7.1 32,-27.2 V 758.8 c 0,-14.2 -8.9,-16.6 -28.4,-16.6 h -22.5 v -23.7 l 105.3,-5.9 v 50.3 h 1.2 c 26.6,-49.1 62.1,-59.2 84.6,-59.2 42.6,0 72.8,26 81.1,60.4 26.6,-43.8 56.2,-60.4 92.3,-60.4 38.5,0 86.4,37.3 86.4,95.3 v 137.3 c 0,20.1 8.3,27.2 32,27.2 h 12.4 v 23.7 h -145 v -23.7 z"
             id="path21" />
        </g>
      </g>
    </g>
  </g>
</svg>
