<?xml version="1.0" encoding="UTF-8" standalone="no"?>
<svg
   height="199"
   viewBox="0 0 639.99998 199"
   width="640"
   version="1.1"
   id="svg2"
   sodipodi:docname="mess.svg"
   inkscape:version="1.3.2 (091e20e, 2023-11-25)"
   xmlns:inkscape="http://www.inkscape.org/namespaces/inkscape"
   xmlns:sodipodi="http://sodipodi.sourceforge.net/DTD/sodipodi-0.dtd"
   xmlns="http://www.w3.org/2000/svg"
   xmlns:svg="http://www.w3.org/2000/svg">
  <defs
     id="defs2" />
  <sodipodi:namedview
     id="namedview2"
     pagecolor="#ffffff"
     bordercolor="#000000"
     borderopacity="0.25"
     inkscape:showpageshadow="2"
     inkscape:pageopacity="0.0"
     inkscape:pagecheckerboard="true"
     inkscape:deskcolor="#d1d1d1"
     inkscape:zoom="1"
     inkscape:cx="318.5"
     inkscape:cy="104"
     inkscape:window-width="1312"
     inkscape:window-height="449"
     inkscape:window-x="0"
     inkscape:window-y="39"
     inkscape:window-maximized="0"
     inkscape:current-layer="svg2" />
  <g
     id="g5">
    <g
       id="g1"
       transform="scale(0.16666667,0.16694631)">
      <g
         id="g4">
        <g
           id="g3">
          <g
             fill="#ffffff"
             transform="scale(1,0.99985254)"
             id="g2">
            <path
               d="M 1052.5332,0 0,1120.2109 h 511.83203 l 14.05078,-13.6113 253.31055,-245.3203 v 330.8965 L 1090.2773,867.49609 v 252.71681 h 2297.5801 l 279.8242,-636.90235 h -360.8437 l 27.8633,-64.00977 h 378.7226 L 3840,128.05273 H 3115.9883 2389.1113 1661.584 L 1431.5723,638.91406 V 22.886719 L 1052.5332,445.7207 Z m -16.1914,45.439453 -0.01,447.326167 379.0508,-422.833979 V 722.97461 l 259.8476,-577.125 h 689.9512 l -114.4102,255.01367 -381.7851,-0.004 -43.6485,100.25195 h 208.3809 l -113.3496,262.93945 -173.9336,-0.01 -42.8867,95.72656 h 753.0625 l 42.8867,-95.7207 h -367.0117 l 270.4121,-618.20313 h 694.5859 l -110.8261,255.01367 -394.3204,-0.004 -43.6445,100.25195 h 365.6953 l -156.9941,358.66015 h 426.1015 l 42.8868,-95.72265 h -367.0235 l 270.418,-618.20117 h 684.5195 l -110.8222,255.01367 h -378.7207 l -43.6426,100.25781 h 360.7558 L 3377.9648,1101.7676 H 1110.3379 V 822.06055 L 799.25,1146.7422 V 818.17383 l -284.03906,275.08987 -8.79297,8.5078 H 43.820312 Z m -29.7852,75.708987 -886.89058,938.67966 h 372.5996 1.93165 6.02148 L 832.66797,740.74805 V 1054.2305 L 1146.5586,732.34961 v 333.07809 h 2212.1016 l 237.3652,-534.65036 h -360.582 l 69.9492,-160.66015 h 378.6972 l 84.5704,-194.60352 h -613.1114 l -238.3867,552.19336 h 367.459 l -75.5449,161.72852 H 2711.625 l 156.9902,-358.65821 h -365.5879 l 69.9454,-160.66015 h 394.3066 l 84.5664,-194.60352 H 2428.668 l -238.3907,552.19336 h 361.8711 l -75.5488,161.72852 h -819.2519 l 72.7461,-161.72852 h 173.625 l 84.5117,-196.92969 h -208.5606 l 69.9453,-160.66015 h 382.0254 l 87.3106,-194.60352 H 1700.7793 L 1427.4414,782.5957 h -41.8398 V 148.33203 l -379.045,422.84375 z m 1299.4922,196.77539 -203.2226,464.5625 h 366.7578 l -26.6465,59.47851 h -713.3418 l 26.6465,-59.47851 h 174.1113 l 128.9824,-299.17578 h -208.2773 l 27.8691,-64.00977 h 381.6407 z m 296.2344,101.37695 h 386.3066 l -158.875,363.18555 h 366.75 l -26.6445,59.48437 h -386.6465 l 156.9883,-358.66015 h -365.748 z"
               id="path1" />
            <path
               d="m 821.10064,763.919 -320.66841,309.8022 -2.64464,2.5523 H 91.622562 L 1016.3839,94.4599 v 449.21288 l 379.98,-422.84576 V 769.7124 h 21.3787 l 274.0099,-607.07536 h 645.1982 l -95.6766,212.72672 h -382.8912 l -62.199,142.53308 h 209.0158 l -95.3573,220.64746 h -174.1446 l -61.9773,138.0118 h 801.3529 l 61.9774,-138.0039 H 2168.8106 L 2421.352,162.63704 h 650.1127 l -92.673,212.72672 h -395.2698 l -62.207,142.53308 h 366.5114 L 2730.4574,876.5561 h 473.2759 l 61.9773,-138.0039 h -368.2322 l 252.5388,-575.91516 h 640.025 l -92.6809,212.72672 h -379.6237 l -62.2122,142.53308 h 361.5177 L 3371.108,1076.2735 H 1132.9536 V 765.083 l -311.85296,324.6802 z m -326.98439,303.2936 v -9.0662 z"
               stroke-width="2.63935"
               id="path2" />
          </g>
        </g>
      </g>
    </g>
  </g>
</svg>
