<?xml version="1.0" encoding="UTF-8" standalone="no"?>
<svg
   height="322"
   viewBox="0 0 640 322"
   width="640"
   version="1.1"
   id="svg10"
   sodipodi:docname="pcengine.svg"
   inkscape:version="1.3.2 (091e20e, 2023-11-25)"
   xmlns:inkscape="http://www.inkscape.org/namespaces/inkscape"
   xmlns:sodipodi="http://sodipodi.sourceforge.net/DTD/sodipodi-0.dtd"
   xmlns="http://www.w3.org/2000/svg"
   xmlns:svg="http://www.w3.org/2000/svg">
  <defs
     id="defs10" />
  <sodipodi:namedview
     id="namedview10"
     pagecolor="#ffffff"
     bordercolor="#000000"
     borderopacity="0.25"
     inkscape:showpageshadow="2"
     inkscape:pageopacity="0.0"
     inkscape:pagecheckerboard="true"
     inkscape:deskcolor="#d1d1d1"
     inkscape:zoom="1"
     inkscape:cx="315.5"
     inkscape:cy="172"
     inkscape:window-width="1312"
     inkscape:window-height="449"
     inkscape:window-x="0"
     inkscape:window-y="39"
     inkscape:window-maximized="0"
     inkscape:current-layer="svg10" />
  <g
     id="g2">
    <g
       id="g1"
       transform="scale(0.16666667,0.16675298)">
      <g
         id="g12">
        <g
           id="g11"
           transform="scale(1,0.99948237)">
          <g
             fill="#ffffff"
             transform="matrix(1.0002494,0,0,1.000585,0.021535,-0.183808)"
             id="g10">
            <path
               d="M 2865.3,357.3 2296.2,614.2 2114.7,448.8 2180.6,685.4 1695,1077.9 2264,821 2445.6,986.3 2379.7,749.8 Z"
               id="path1" />
            <path
               d="M 2865.3,357.3 2296.2,614.2 2114.7,448.8 2180.6,685.4 1695,1077.9 2264,821 2445.6,986.3 2379.7,749.8 Z"
               id="path2" />
            <path
               d="m 2302,585.7 5.1,-2.3 c 2.4,-9.5 4.3,-19.2 5.9,-29.1 l 9.4,-60.8 -99.7,19.8 z"
               id="path3" />
            <path
               d="m 1839.2,870.5 99.2,-19.7 214.1,-173 -39.7,-142.5 -28.9,5.8 -8.2,53.4 c -2.2,14.1 -12.9,25.4 -26.9,28.1 l -126.5,25.2 c -12.5,2.5 -23.6,-8.2 -21.7,-20.8 l 53.5,-347.9 C 1956.3,265 1967,253.7 1981,251 l 126.5,-25.2 c 12.5,-2.5 23.6,8.2 21.7,20.8 l -7.9,51.1 238.5,-47.4 11.4,-74.1 C 2387.3,71.4 2294.4,-17.5 2190.4,3.2 L 1979,45.1 c -136.4,27.1 -241.2,136.7 -262.4,274.1 l -58.2,378.3 c -16,104.8 76.9,193.7 180.8,173 z"
               id="path4" />
            <path
               d="M 177.8,1288.9 C 85.8,1215.4 38.6,1138.4 37.6,1060.2 34.7,840.4 404.2,622.9 982.3,502.2 l 6.1,-39.6 C 396.2,583.9 -3.4,808.7 0,1060.7 c 2,149.5 145.4,285.6 386.1,393.6 l 5.9,-38.5 c -85.7,-39.1 -157.5,-81.5 -214.2,-126.9 z"
               id="path5" />
            <path
               d="m 1984.9,367.7 -5.8,37.6 c 222,-0.3 437.4,12.7 638.9,37.8 l 64.7,-29.2 C 2467.5,384 2232.1,367.6 1984.9,367.7 Z"
               id="path6" />
            <path
               d="m 2808.7,433.3 -38.9,31.5 c 178.3,28.8 343.2,67.8 488.8,116.2 172.9,57.5 308.3,124.8 402.6,200.2 92,73.5 139.2,150.5 140.2,228.7 3,224.3 -381.7,446.1 -980.1,565.2 -224.1,44.6 -472.8,73.3 -727.5,84.5 -6.5,13.2 -13.6,26 -21.1,38.5 271.9,-10.7 527.8,-40.7 756,-86.1 C 3433,1491.8 3842.4,1264.6 3839,1009.4 3835.6,753.6 3418.3,537.1 2808.7,433.3 Z"
               id="path7" />
            <path
               d="m 3217.8,835.6 -196,39 c -11.6,2.3 -20.5,11.6 -22.3,23.3 l -6.1,39.7 235.4,-46.8 c 11.6,-2.3 20.5,-11.6 22.3,-23.3 3,-19.3 -14.1,-35.7 -33.3,-31.9 z"
               id="path8" />
            <path
               d="m 1720,1148.7 -30.1,195.6 c -2.4,15.4 11.3,28.5 26.6,25.5 l 223.2,-44.4 37.4,-242.8 -239.3,47.6 c -9.3,1.7 -16.4,9.2 -17.8,18.5 z m 80.3,59.1 70.3,-14 -8.8,57 -70.3,14 z"
               id="path9" />
            <path
               d="m 3421.9,699.8 c -35.2,-53.1 -98.1,-78.1 -158.3,-66.1 l -246.6,49 c -65.1,13 -121.1,50.7 -158.1,102.8 -1.2,-1.3 -2.4,-2.5 -3.7,-3.7 -36.2,-34.6 -87.2,-49.5 -136.3,-39.7 l -298.9,59.4 23.8,85.3 292.4,-58.2 c 44.5,-8.9 84.3,29.2 77.4,74.1 l -55.8,362.5 -98.8,19.8 48.8,-317.1 c 2.4,-15.4 -11.3,-28.5 -26.6,-25.5 l -223.2,44.4 -53.7,348.8 -98.8,19.7 62.5,-405.9 -109.7,-99.9 -294.4,132.9 29.6,-5.9 98.8,-19.7 -82.3,534.6 c -24.2,157.2 -144.1,282.4 -300,313.5 l -110,21.9 16.3,-106 77.1,-15.3 c 116.4,-23.2 205.9,-116.6 223.9,-233.9 l 6.2,-40.2 -261.9,52.1 c -44.5,8.9 -84.3,-29.2 -77.4,-74.1 l 38.1,-247.4 c 6.8,-44 30.6,-82.3 64.8,-107.8 l 0.1,-0.2 175,-141.4 -125.1,24.9 c -65.1,13 -121.1,50.7 -158.1,102.8 -1.2,-1.3 -2.4,-2.5 -3.7,-3.7 -36.2,-34.6 -87.2,-49.5 -136.3,-39.7 l -265,52.7 7.4,-48.1 30.6,-198.9 186.8,-37.2 C 1535.2,738.3 1640,628.7 1661.2,491.3 l 27.6,-179.4 C 1704.9,207.1 1612,118.2 1508,138.9 l -438.5,87.3 -81.7,531 -444.7,88.5 C 531.5,848 522.6,857.3 520.8,869 L 379,1790.5 c -3,19.3 14.1,35.6 33.2,31.8 l 597,-118.8 192.9,-38.4 53.7,-348.8 70.3,-14 -53.7,348.8 283.2,-56.4 7.3,-47.7 c 33.7,22.6 75.3,31.3 115.8,23.3 l 112.4,-22.4 c -28.1,35.9 -68.5,61.8 -115,71.1 l -118.4,23.6 c -11.6,2.3 -20.5,11.6 -22.3,23.3 l -35.8,232.8 c -3,19.3 14.1,35.6 33.2,31.8 l 194.4,-38.7 c 192.4,-38.3 340.3,-192.8 370.1,-386.7 l 2.9,-18.6 191,-38 191,-38 53.7,-348.8 70.3,-14 -53.7,348.8 283.2,-56.4 7.3,-47.7 c 33.7,22.6 75.3,31.3 115.8,23.2 l 402.2,-80 c 11.6,-2.3 20.5,-11.6 22.3,-23.3 l 41.9,-272.4 -11.2,2.2 c 10.4,-21.9 17.8,-45.6 21.6,-70.3 l 9.4,-60.9 c 6,-38.8 -1.6,-78.6 -23.1,-111.1 z M 1275,391.4 1424.9,361.6 c 12.5,-2.5 23.6,8.2 21.7,20.8 l -22.9,149 c -2.2,14.1 -12.9,25.4 -26.9,28.1 l -152.2,30.3 z m -343.6,1237.3 -42.9,8.5 -50.4,10 -281.2,56 -77.6,15.4 122.3,-794.6 32.7,-6.5 241.6,-48.1 109.4,-21.8 -16.3,106 -31.5,6.3 -253.4,50.4 -36,233.9 118.6,-23.6 21.3,-4.2 77.6,-15.4 -16.3,106 -41.6,8.3 -57.2,11.4 -118.6,23.6 -37.5,242.7 260,-51.7 14.4,-2.9 79.2,-15.8 z m -230.5,-147 8.8,-57 217.5,-43.3 44.9,-291.8 -217.5,43.3 7.4,-48.1 180.7,-36 82,-16.3 -11.7,76.1 -49.4,320.8 z m 776.7,38.3 -98.8,19.7 48.8,-317.1 c 2.4,-15.4 -11.3,-28.5 -26.6,-25.5 l -223.2,44.4 -53.7,348.8 -98.8,19.7 70,-454.8 360.8,-71.8 c 44.5,-8.9 84.3,29.2 77.4,74.1 z m 735.6,-146.4 -98.8,19.7 70,-454.8 98.8,-19.7 z m 1145,-579.2 -9.8,63.7 c -10.6,69.1 -63.4,124.2 -132,137.9 l -239.3,47.6 -7.1,46 c -2.4,15.4 11.3,28.5 26.6,25.5 l 223.2,-44.4 44.2,-8.8 54.6,-10.9 -16.3,106 -18.6,3.7 -342.2,68.1 c -44.5,8.9 -84.3,-29.2 -77.4,-74.1 l 38.1,-247.4 c 10.6,-69.1 63.4,-124.2 132,-137.9 l 246.5,-49.1 c 44.6,-8.8 84.4,29.3 77.5,74.1 z"
               id="path10" />
          </g>
        </g>
      </g>
    </g>
  </g>
</svg>
