<?xml version="1.0" encoding="UTF-8" standalone="no"?>
<svg
   height="174"
   viewBox="0 0 640 174"
   width="640"
   version="1.1"
   id="svg3"
   sodipodi:docname="scummvm.svg"
   inkscape:version="1.3.2 (091e20e, 2023-11-25)"
   xmlns:inkscape="http://www.inkscape.org/namespaces/inkscape"
   xmlns:sodipodi="http://sodipodi.sourceforge.net/DTD/sodipodi-0.dtd"
   xmlns="http://www.w3.org/2000/svg"
   xmlns:svg="http://www.w3.org/2000/svg">
  <defs
     id="defs3" />
  <sodipodi:namedview
     id="namedview3"
     pagecolor="#ffffff"
     bordercolor="#000000"
     borderopacity="0.25"
     inkscape:showpageshadow="2"
     inkscape:pageopacity="0.0"
     inkscape:pagecheckerboard="true"
     inkscape:deskcolor="#d1d1d1"
     inkscape:zoom="1"
     inkscape:cx="346.5"
     inkscape:cy="84"
     inkscape:window-width="1312"
     inkscape:window-height="449"
     inkscape:window-x="0"
     inkscape:window-y="39"
     inkscape:window-maximized="0"
     inkscape:current-layer="svg3" />
  <g
     id="g2">
    <g
       id="g1"
       transform="scale(0.16666667)">
      <g
         id="g5">
        <g
           id="g4">
          <g
             fill="#ffffff"
             transform="matrix(0.99996623,0,0,1.0002233,0.093125,-0.044335)"
             id="g3">
            <path
               d="m 3822.5,128.7 c -12.9,-15.4 -31.1,-24.9 -51.1,-26.6 L 3649.1,91.5 c -32.3,-2.8 -65.7,15.1 -81.3,43.5 0,0 -163.8,299.2 -241.8,441.5 C 3284,420.8 3197,98.3 3197,98.3 3188.2,65.8 3158.7,40.8 3125.2,37.4 L 2990.4,23.8 c -40.5,-4.1 -76.8,24.2 -82.8,64.5 l -117.3,787.4 c -3,20.2 2.5,41 15.1,56.9 12.6,16 31.5,26.1 51.9,27.9 l 108.8,9.5 c 40.4,3.5 76.4,-25.2 82,-65.3 0,0 15.3,-110.2 30.5,-219.2 36.6,125.9 73.3,251.8 73.3,251.8 9.2,31.7 38.6,56.3 71.4,59.8 l 72.5,7.7 c 32.1,3.4 65.9,-13.7 82,-41.7 0,0 64.7,-112.2 129.3,-224.1 -9,104.1 -18,209.4 -18,209.4 -0.2,2.2 -0.3,4.3 -0.3,6.4 0,38.1 29.2,71.1 67.7,75.1 l 130.2,13.5 c 20.1,2.1 39.8,-3.9 55.4,-16.7 15.6,-12.9 25.2,-31 27,-51.2 l 70.6,-791.7 c 1.9,-20.2 -4.3,-39.7 -17.2,-55.1 z m -203.6,34.2 c 4.5,-8.2 15.9,-14.3 25.2,-13.5 l 40.3,3.5 -41.3,123.7 h -86.5 z m -634.1,-81.3 134.8,13.6 c 9.4,0.9 19,9.1 21.5,18.2 l 37.2,138 h -156.3 -3.7 l -1.1,3.6 -20.2,63.5 h -64.6 l 33,-221.6 c 1.3,-9.4 10.1,-16.2 19.4,-15.3 z m -64.7,614.9 23.7,12.9 1.1,0.6 h 1.3 70.3 l -9.9,71 -140.8,-16.7 10.1,-68.1 z m 51.1,215.5 -108.7,-9.5 c -9.4,-0.8 -15.9,-9.1 -14.5,-18.4 l 16.3,-109.7 140.9,16.8 -14.6,105.4 c -1.3,9.3 -10,16.2 -19.4,15.4 z m 92,-487.3 c -2.6,-9 -5.8,-8.8 -7.1,0.5 l -38.2,274.5 h -70.4 l -23.7,-12.9 -1.1,-0.6 h -1.3 l -43.9,-0.3 53.2,-357.4 h 69.9 3.7 l 1.1,-3.6 20.2,-63.5 h 155.3 l 74.8,277.5 h -73 -5.1 v 5.1 187.2 h -25.2 z m 629.6,560.7 -63,-6.5 6.3,-90.1 32.6,-4.3 2.7,-0.4 1.2,-2.5 8.3,-16.8 h 39.7 l -9.4,105.3 c -0.7,9.4 -9.1,16.3 -18.4,15.3 z m 28.8,-130.8 h -43.8 -3.2 l -1.4,2.9 -8.5,17.2 -34,4.5 -4.1,0.5 -0.3,4.2 -6.6,93.9 -57.1,-5.9 c -9.3,-1 -16.3,-9.4 -15.5,-18.8 l 23.1,-268.4 h 70.6 5.1 v -5.1 l 0.4,-163.5 29.3,-105.7 85.7,0.3 z m 40.5,-454 -90.4,-0.4 h -3.9 l -1,3.8 -30.5,110.2 -0.2,0.7 v 0.7 l -0.4,159 h -64.6 l 15,-174.4 c 0.8,-9.4 -2.4,-10.4 -7.1,-2.2 l -251.4,435.9 c -4.7,8.1 -16.2,14 -25.5,13 l -72.5,-7.7 c -9.3,-1 -19.2,-9.2 -21.8,-18.2 l -52.2,-179.3 h 27.4 5.1 v -5.1 -187.3 h 70.6 l 44.6,165.3 c 2.4,9.1 8.1,9.8 12.7,1.5 l 235.1,-429.3 h 95.8 3.7 l 1.2,-3.5 43.2,-129.6 71.5,6.2 c 9.4,0.8 16.3,9.1 15.5,18.5 z"
               id="path1" />
            <path
               d="m 2916.1,16.4 c -13.7,-13.3 -33.2,-19 -51.9,-15.2 l -158.6,32 c -24.2,4.9 -42.7,24.6 -46.1,49 0,0 -29.8,216.7 -52.2,379.3 C 2526.6,317.9 2418.5,125.6 2418.5,125.6 2406.1,103.5 2380.8,92 2356.1,97.2 l -177.6,36.7 c -18.4,3.8 -33.8,16.3 -41.4,33.4 -7.6,17.2 -6.4,37 3.2,53.1 l 146.1,246.1 c 1.7,0.2 3.4,0.5 5,0.8 8.4,1.4 16.6,3.2 25,4.5 8.4,1.3 16.9,2.2 25.4,3 6,0.6 12,1.1 18.1,1.7 l -95.5,-160.9 h 54.1 v -68.2 h 48.4 l 1.5,-2.1 9.1,-12.4 h 34.7 l 155,275.7 -80,66.8 c 0,0.1 0.1,0.2 0.1,0.3 1.2,3.3 2.3,6.6 3.2,9.9 l 81.7,-68.1 60.7,107.9 c 4.6,8.2 9.4,7.3 10.7,-2 l 48,-348.9 h 50.3 l 1.4,-1.2 19.2,-16.1 1.8,-1.5 v -83 l 12.2,-13.1 1.4,-1.5 v -28.2 l 11.9,-10.5 1.7,-1.5 V 75.1 l 67.4,-13.6 c 9.3,-1.9 15.5,4.2 13.9,13.5 l -55.1,325.5 h -62.3 v 32.3 l -13.5,13.2 -1.5,1.5 v 2.1 l -0.3,108.1 v 5.1 h 50.2 l -18.7,110.5 -38.9,30.5 -36.3,-0.3 h -1.8 l -1.4,1.1 -29.1,22.3 -2,1.5 v 47.8 l -101.9,37.6 -69.6,-117.2 c -1.4,7.1 -3,14.2 -4.8,21.2 -2.1,8.6 -4.4,17.1 -6.4,25.6 -2,8.5 -3.8,17.1 -5.1,25.7 -0.6,4 -1,8 -1.2,12 l 102.7,173.1 c 12.5,21 36.8,32 60.8,27.4 l 106.5,-20.1 c 23.9,-4.5 42.5,-23.4 46.5,-47.4 L 2932.8,67.7 c 3.4,-18.8 -2.9,-38 -16.7,-51.3 z m -543.8,206 -1.5,2.1 -9.1,12.4 h -53.4 v 68.2 h -49.9 l -59.3,-100 c -4.9,-7.9 -1.3,-16.1 7.9,-18 l 144.1,-29.8 c 9.2,-1.9 20.5,3.2 25.1,11.4 l 30.2,53.7 z m 409,-109 -11.9,10.5 -1.7,1.5 v 28.8 l -12.2,13.1 -1.4,1.5 V 251 l -15.9,13.4 h -45.1 l 21.6,-157.5 c 1.3,-9.3 9.9,-18.4 19.1,-20.3 l 47.5,-9.6 z m -46,774.2 c -1.6,9.3 -10.4,18.3 -19.6,20 l -73,13.8 c -9.2,1.7 -20.7,-3.4 -25.5,-11.5 l -51.6,-86.9 103.4,-38.2 3.4,-1.2 v -50.1 l 25.7,-19.6 36.3,0.3 h 1.8 l 1.4,-1.1 31.4,-24.7 z m 56.6,-335.1 h -41.7 l 0.4,-100.7 13.5,-13.2 1.5,-1.5 v -26.5 h 50.3 z"
               id="path2" />
            <path
               d="m 2394.3,449.4 c -51.4,-20.5 -111.3,-22.8 -161.1,-8.1 -11.1,3.2 -23.8,13.5 -36.7,13.3 -9.7,-0.2 -23.5,-8.3 -36.7,-11.7 -13.1,-3.4 -27.1,-6.9 -41.7,-6.7 -15.4,0.3 -31.6,7.5 -46.7,6.7 -17.1,-0.9 -33.4,-11 -51.7,-11.7 -40.5,-1.6 -90.9,-3.3 -125,10 -12.3,4.8 -28.2,28.2 -41.7,28.3 -11.4,0 -30.9,-17.7 -41.7,-21.7 -48.1,-17.6 -100,-20.3 -146.7,-8.3 -13.5,3.5 -29.8,14.9 -45,15 -10.2,0 -22.6,-8.5 -35,-11.7 -13.1,-3.4 -28.4,-6.6 -41.7,-6.7 -16.6,-0.1 -34.8,7.6 -50,6.7 -16.4,-1 -32.7,-10.9 -50,-11.7 -24,-1.1 -51.9,0.6 -76.7,1.7 -13.4,0.6 -29.4,6.5 -41.7,5 -13,-1.5 -25.2,-15 -36.7,-18.3 -34.9,-10.1 -130.5,-6.2 -161.6,3.3 -10.1,3.1 -26.9,19.3 -40,20 -11.9,0.6 -27.8,-10.2 -43.3,-11.7 -38.9,-3.8 -126.2,-3.2 -153.3,8.3 -12.2,5.1 -28.4,31.9 -41.7,31.7 C 840.8,471 828,458.2 819.6,452.8 752.9,410 637,407.7 564.6,441.1 543.8,450.7 530.1,467.7 506.3,472.8 524.7,387 466.1,357 409.6,324.5 370,301.8 323.3,287.8 277.9,284.5 158.7,275.9 71.1,329.9 37.7,404.7 c -27.8,62.6 -18.6,145 10,195 6.3,11 30.8,33.3 30,48.3 -0.4,8.3 -11.1,16.6 -18.3,25 -19.4,22.9 -45.9,49.2 -55,75 -17.6,50.1 20.4,90.4 46.7,115 51.4,47.8 130.7,85 230,78.3 66,-4.5 119,-26.6 158.3,-56.7 9.9,-7.6 29,-33.1 40,-33.3 12.9,-0.2 27.8,25 38.3,33.3 73.9,58.1 216.5,74.2 300,18.3 18.7,-12.5 31.6,-30.3 51.7,-40 45.4,49.6 113.2,92.8 203.3,85 15.6,-1.4 33,-10.2 51.7,-10 13.8,0.1 27,7 40,8.3 36.5,3.6 79.6,3 118.3,-1.7 14.5,-1.7 29.7,-12.3 45,-13.3 8.8,-0.6 18.6,2.8 28.3,3.3 33.8,1.6 74.3,1.3 106.7,-1.7 12.7,-1.2 25.5,-7.5 36.7,-6.7 12.3,0.9 25.5,9.4 38.3,11.7 34.2,6.2 90.6,8.2 125,5 23.8,-2.2 42,-18.2 60,-20 38.6,-3.9 85.5,18.2 130,13.3 12.6,-1.4 25.3,-9.8 36.7,-10 11.5,-0.2 25.6,7.2 38.3,8.3 35.6,3 81.1,1.9 115,-1.7 12.6,-1.4 23.9,-7.5 35,-6.7 12.2,0.9 23.7,9.5 35,11.7 18.7,3.6 40.4,3.3 61.7,3.3 34.8,0 66.3,4.1 91.6,-3.3 11.4,-3.3 20.8,-13.5 33.3,-15 20.5,-2.5 44.2,5.8 65,8.3 23.1,2.8 48,8.1 70,5 64.7,-9.1 66.1,-92.1 73.3,-158.3 16.5,-152.6 -10.5,-287.2 -113.3,-328.3 z M 440,789.7 c -11.5,20.2 -26.6,36.9 -45,49.9 -18.5,13.1 -39.4,22.8 -62.7,29.2 -23.4,6.4 -46.8,9.6 -70.4,9.6 -47.2,0 -86.9,-8.7 -118.9,-26.1 -32.1,-17.4 -60.9,-43.8 -86.6,-79.1 l 54.7,-69 c 5.1,-6.4 13.7,-6.6 19.1,-0.6 0,0 6.3,7 17.1,15.5 10.8,8.5 22.4,15.9 35,22.3 12.6,6.4 25.4,11.7 38.5,15.7 13.1,4.1 25.3,6.1 36.6,6.1 11.3,0 19.9,-2 25.8,-6.1 5.9,-4.1 8.9,-11.8 8.9,-23 0,-9.7 -5.3,-18.9 -15.8,-27.7 C 265.8,697.7 252.7,688.6 237,679.1 221.3,669.6 204.4,659.4 186.2,648.4 168,637.4 151,624.5 135.4,609.6 119.7,594.8 106.6,577.7 96.1,558.5 85.6,539.3 80.3,517.2 80.3,492.1 c 0,-24.6 4.6,-46.1 13.9,-64.5 9.3,-18.4 21.7,-33.9 37.3,-46.5 15.6,-12.5 33.7,-22 54.3,-28.4 20.5,-6.4 42.3,-9.6 65.4,-9.6 41.1,0 77.9,7.6 110.5,22.7 32.6,15.1 63.5,37.5 92.8,67.2 l -44.3,68.2 c -4.4,6.8 -13.1,8.1 -19.3,2.7 0,0 -11.1,-9.6 -23.4,-17.6 -12.3,-7.9 -24.4,-14.7 -36.2,-20.3 -11.8,-5.6 -22.8,-9.9 -33.1,-12.7 -10.3,-2.8 -19.2,-4.2 -26.9,-4.2 -9.2,0 -16,2.3 -20.4,6.9 -4.4,4.6 -6.5,10.5 -6.5,17.7 0,9.2 5.3,17.8 15.8,25.7 10.5,7.9 23.7,16.1 39.6,24.6 15.9,8.5 33,17.9 51.2,28.4 18.2,10.5 35.3,23.2 51.2,38 15.6,14.9 28.8,32.7 39.3,53.4 10.5,20.7 15.8,45.5 15.8,74.1 0,27.7 -5.8,51.6 -17.3,71.8 z M 641.7,733 c 12.5,15.3 28.8,23 48.7,23 5.6,0 11.7,-1.4 18.4,-4.2 6.7,-2.8 13.2,-6.6 19.6,-11.5 6.4,-4.8 12.2,-10.6 17.3,-17.2 5.1,-6.6 8.5,-14 10,-22.2 l 90.1,26.1 c 7.8,2.2 12.3,10.4 9.9,18.2 0,0 -9.9,32.5 -21.4,50.9 -11.5,18.3 -25,33.5 -40.3,45.5 -15.3,12 -32.2,20.9 -50.6,26.8 -18.5,5.9 -37.4,8.8 -56.8,8.8 -34.3,0 -63.7,-5.4 -88.2,-16.1 -24.6,-10.7 -44.9,-25.1 -61,-43.2 -16.1,-18.1 -28,-39.1 -35.7,-63.1 -7.7,-24 -11.5,-49.3 -11.5,-75.8 0,-30.6 4.3,-58.2 12.7,-83 8.4,-24.7 20.8,-45.9 37.2,-63.5 16.4,-17.6 36.6,-31.2 60.6,-40.6 24.1,-9.5 51.4,-14.2 82.1,-14.2 50.1,0 89.9,13 119.6,39 29.7,26 49.4,60.2 59.1,102.5 l -93.1,23.2 c -7.9,1.9 -17,-2.5 -20.2,-10 0,0 -4.7,-11 -15.2,-21.7 -10.4,-10.7 -26.4,-16.1 -47.9,-16.1 -7.2,0 -14.5,1.7 -21.9,5 -7.4,3.3 -14,8.1 -19.9,14.5 -5.8,6.4 -10.7,14.4 -14.6,24 -3.9,9.7 -5.8,21.1 -5.8,34.4 0,25 6.3,45.2 18.8,60.5 z m 527.7,151.2 c -8.1,0.2 -14.8,-6.4 -14.8,-14.5 0,-4.5 3.4,-18 -2.6,-20.1 -4.6,-1.7 -10.3,6 -13.5,8.4 -7.2,5.4 -15,10.1 -23.5,14.2 -8.4,4.1 -17.3,7.3 -26.5,9.6 -9.2,2.4 -18.2,3.5 -26.9,3.5 -30.3,0 -56.3,-4.2 -78.1,-12.6 -21.8,-8.4 -39.7,-20.3 -53.5,-35.8 -13.9,-15.5 -24.1,-34.3 -30.8,-56.5 -6.7,-22.2 -10,-47.1 -10,-74.7 0,-19.4 0.9,-41.4 2.7,-66 1.8,-24.5 3.9,-47.8 6.5,-69.8 2.5,-25.5 5.6,-51.1 9.2,-76.7 l 131.3,-1.4 c 8.2,-0.1 13.7,6.4 12.4,14.4 0,0 -5.2,31.4 -8.3,56 -2.6,21.5 -5.1,45 -7.7,70.6 -2.6,26 -3.8,51 -3.8,77.5 0,14.9 4.4,27.5 13.1,38 8.7,10.5 21.8,15.7 39.2,15.7 16.4,0 30.5,-5.2 42.3,-15.7 11.8,-10.5 17.7,-24.7 17.7,-42.6 0,-23.5 -0.1,-44 -0.4,-61.4 -0.2,-17.4 -0.7,-34.3 -1.5,-50.7 -0.8,-16.3 -1.8,-33.5 -3.1,-51.4 -1.3,-17.9 -2.7,-39.1 -4.2,-63.7 l 126,-2.7 c 8.1,-0.2 15,6.4 15.2,14.5 0,0 1.7,58.5 3,91.5 1.2,33 2.5,65.4 3.8,97.1 1.2,31.8 2.5,64 3.9,96.9 1.3,32.8 2.5,68.1 3.5,105.7 z m 696.4,-99.6 c -3.8,29.6 -8.6,60.2 -14.2,91.8 l -126.5,-15.8 c -8.1,-1 -13.2,-8.3 -11.4,-16.2 0,0 15.2,-66.8 20.1,-97.7 4.9,-30.9 7.3,-56.3 7.3,-76.2 0,-20.9 -2.9,-35.9 -8.8,-44.8 -5.9,-8.9 -14.2,-13.4 -24.9,-13.4 -17.4,0 -28.1,12 -32.2,36 -4.1,24 -6.1,60.4 -6.1,109.4 0,6.6 0.1,15.3 0.4,26 0.3,10.7 0.5,22 0.8,33.7 0.2,11.7 0.7,23.2 1.5,34.4 0.8,11.2 1.7,20.6 2.7,28.3 l -125.6,-2.7 c -8.1,-0.2 -14.5,-7 -14.2,-15.1 0,0 0.5,-12.1 1,-23.1 0.5,-11 0.9,-22.7 1.2,-35.2 0.3,-12.5 0.4,-27.2 0.4,-44 0,-16.8 0,-38.5 0,-65 0,-10.7 -0.3,-21.1 -1.1,-31 -0.8,-10 -2.3,-18.7 -4.6,-26.4 -2.3,-7.7 -5.2,-13.8 -8.8,-18.4 -3.6,-4.6 -8.5,-6.9 -14.6,-6.9 -13.3,0 -21.7,3.7 -25.3,11.1 -3.6,7.4 -5.4,14.7 -5.4,21.8 l -4.3,210.2 c -0.2,8.1 -7,14.9 -15.1,15 l -107,1.8 c -8.1,0.2 -14.7,-6.4 -14.7,-14.5 0,0 0.1,-60.4 0.4,-93.1 0.2,-32.7 0.2,-63.7 0,-93 -0.2,-29.4 -0.7,-58.3 -1.5,-86.9 -0.7,-28.5 -1.9,-58.4 -3.4,-89.5 l 110.3,-2.7 c 8.1,-0.2 15.5,6.2 16.3,14.3 0.2,2.3 0.5,4.6 0.7,7 0.3,3.2 0.7,6.4 1,9.6 0.3,2.7 -0.3,7.7 3.7,8 3.9,0.2 5,-2.7 7.7,-4.9 5.5,-4.4 10.6,-9.3 16.4,-13.4 6.9,-4.9 14.7,-8.8 23.4,-11.9 8.7,-3.1 17.9,-4.6 27.6,-4.6 19.4,0 35.5,4.5 48.3,13.4 7.4,5.2 14,11.4 19.1,18.8 1.8,2.7 2.7,5.1 6.3,5.4 1.1,0.1 2.1,-0.1 3.1,-0.3 3.9,-0.7 6.2,-4.6 8.9,-7.1 3.6,-3.4 7.4,-6.6 11.4,-9.5 4.4,-3.3 9,-6.3 13.7,-9.2 17.7,-10.7 38.8,-16.1 63.3,-16.1 32.7,0 59.3,5.1 79.8,15.3 20.4,10.2 36.5,24.4 48.3,42.5 11.8,18.1 19.9,39.8 23.9,65.3 4.3,25.2 6.5,52.9 6.5,83 0,28.1 -2,56.9 -5.8,86.5 z m 585,-86.3 c 0,28.1 -1.9,56.9 -5.7,86.5 -1.1,8.5 -2.2,16.9 -3.4,25.4 -1.5,10.1 -2.8,20 -3.6,30.1 -0.5,6.6 -1.2,13.2 -2.3,19.7 -0.8,4.4 -0.6,10.8 -3.7,14.3 -3.4,3.6 -8.6,1.6 -12.7,1.1 -6.6,-0.7 -13.2,-2.2 -19.9,-3 -10.9,-1.3 -21.9,-2.4 -32.9,-3.8 -17.3,-2.2 -34.6,-4.3 -51.9,-6.5 -3.4,-0.4 -6.9,-0.9 -10.3,-1.3 -8.1,-1 -13.2,-8.3 -11.4,-16.2 0,0 15.2,-66.8 20.1,-97.7 4.9,-30.9 7.3,-56.3 7.3,-76.2 0,-20.9 -2.9,-35.9 -8.8,-44.8 -5.9,-8.9 -14.2,-13.4 -24.9,-13.4 -17.4,0 -28.1,12 -32.2,36 -4.1,24 -6.1,60.4 -6.1,109.4 0,6.6 0.1,15.3 0.4,26 0.3,10.7 0.5,22 0.8,33.7 0.2,11.7 0.7,23.2 1.5,34.4 0.5,6.2 1.6,12.3 1.8,18.5 0.1,4.1 1.2,8.2 -3.9,9.4 -6.1,1.4 -13.4,0 -19.6,-0.1 -10.1,-0.3 -20.3,-0.5 -30.4,-0.7 -10.8,-0.2 -21.5,-0.5 -32.2,-0.7 -8.8,-0.2 -17.5,-0.4 -26.3,-0.6 -4.1,-0.1 -8.1,-0.2 -12.2,-0.3 0,0 -0.1,0 -0.2,0 -8.1,-0.2 -14.5,-7 -14.2,-15.1 0,0 0.5,-12.1 1,-23.1 0.5,-11 0.8,-22.7 1.1,-35.2 0.3,-12.5 0.4,-27.2 0.4,-44 0,-16.8 0,-38.5 0,-65 0,-10.7 -0.3,-21.1 -1.1,-31 -0.8,-10 -2.3,-18.7 -4.6,-26.4 -2.3,-7.7 -5.2,-13.8 -8.8,-18.4 -3.6,-4.6 -8.5,-6.9 -14.6,-6.9 -13.3,0 -21.7,3.7 -25.3,11.1 -3.6,7.4 -5.4,14.7 -5.4,21.8 l -4.3,210.2 c -0.2,8.1 -7,14.9 -15.1,15 l -107,1.8 c -8.1,0.2 -14.7,-6.4 -14.7,-14.5 0,0 0.1,-60.4 0.4,-93.1 0.2,-32.7 0.2,-63.7 0,-93 -0.2,-29.4 -0.7,-58.3 -1.5,-86.9 -0.7,-28.5 -1.9,-58.4 -3.4,-89.5 l 110.3,-2.7 c 8.1,-0.2 15.5,6.2 16.3,14.3 0.4,4 0.8,8 1.2,12 0.3,3.1 0.4,6.3 1.2,9.3 0.4,1.7 1.5,4.6 3.5,5.1 1.7,0.4 3.4,-1.2 4.5,-2.3 0.8,-0.8 1.5,-1.6 2.2,-2.5 4.4,-5.3 10,-10.4 16.9,-15.3 6.9,-4.9 14.7,-8.8 23.4,-11.9 8.7,-3.1 17.9,-4.6 27.6,-4.6 19.4,0 35.5,4.5 48.3,13.4 6.8,4.7 13,10.3 17.9,17 1.9,2.8 4.9,6.5 8.3,7.5 4.7,1.3 8.6,-5.4 11.6,-8.2 3.6,-3.4 7.5,-6.6 11.5,-9.5 4.3,-3.2 8.7,-6.1 13.2,-8.8 17.7,-10.7 38.8,-16.1 63.3,-16.1 32.8,0 59.3,5.1 79.8,15.3 20.4,10.2 36.5,24.4 48.3,42.5 11.8,18.1 19.8,39.7 24.2,65 4.3,25.3 6.5,53 6.3,83.5 z"
               id="path3" />
          </g>
        </g>
      </g>
    </g>
  </g>
</svg>
