<?xml version="1.0" encoding="UTF-8" standalone="no"?>
<svg
   height="142"
   viewBox="0 0 640 142"
   width="640"
   version="1.1"
   id="svg61"
   sodipodi:docname="videopac.svg"
   inkscape:version="1.3.2 (091e20e, 2023-11-25)"
   xmlns:inkscape="http://www.inkscape.org/namespaces/inkscape"
   xmlns:sodipodi="http://sodipodi.sourceforge.net/DTD/sodipodi-0.dtd"
   xmlns="http://www.w3.org/2000/svg"
   xmlns:svg="http://www.w3.org/2000/svg">
  <defs
     id="defs61" />
  <sodipodi:namedview
     id="namedview61"
     pagecolor="#ffffff"
     bordercolor="#000000"
     borderopacity="0.25"
     inkscape:showpageshadow="2"
     inkscape:pageopacity="0.0"
     inkscape:pagecheckerboard="true"
     inkscape:deskcolor="#d1d1d1"
     inkscape:zoom="1"
     inkscape:cx="299.5"
     inkscape:cy="51"
     inkscape:window-width="1312"
     inkscape:window-height="449"
     inkscape:window-x="0"
     inkscape:window-y="39"
     inkscape:window-maximized="0"
     inkscape:current-layer="svg61" />
  <g
     id="g5">
    <g
       id="g4">
      <g
         id="g3"
         transform="scale(0.16666666,0.16705882)">
        <g
           id="g2">
          <g
             id="g1">
            <g
               id="g63">
              <g
                 id="g62">
                <g
                   fill="#ffffff"
                   transform="scale(1.0002605,0.99988237)"
                   id="g61">
                  <path
                     d="m 793.4,391.3 h 90.2 v 43.9 h -90.2 z"
                     transform="rotate(90,838.47665,413.30815)"
                     id="path1" />
                  <path
                     d="M 870.6,468.5 H 806.4 V 358.1 h 64.2 z m -44,-20.2 h 23.7 v -70 h -23.7 z"
                     id="path2" />
                  <path
                     d="m 1309.3,328.8 h 90.2 v 169.1 h -90.2 z"
                     transform="rotate(90,1354.3821,413.30815)"
                     id="path3" />
                  <path
                     d="M 1449.1,468.5 H 1259.8 V 358.1 h 189.3 z m -169.2,-20.2 h 148.9 v -70 h -148.9 z"
                     id="path4" />
                  <path
                     d="m 2107.5,386.8 h 90.2 v 53 h -90.2 z"
                     transform="rotate(90,2152.6233,413.30605)"
                     id="path5" />
                  <path
                     d="M 2189.2,468.5 H 2116 V 358.1 h 73.2 z m -53,-20.2 h 32.8 v -70 h -32.8 z"
                     id="path6" />
                  <path
                     d="m 2998.1,505.5 64.3,-64.3 C 3025.8,397 2973,366.8 2913,359.7 V 451 c 34.9,6.9 65,26.8 85.1,54.5 z"
                     id="path7" />
                  <path
                     d="m 2996.9,521 -7,-9.6 c -19.2,-26.3 -47.2,-44.3 -78.9,-50.6 l -8.1,-1.6 v -111 l 11.3,1.3 c 61.1,7.2 116.5,37.5 156,85.1 l 5.9,7.1 z m -73.7,-78.1 c 29.6,7.6 55.9,24.1 75.8,47.4 l 49.6,-49.6 c -33.1,-36.8 -77,-61 -125.4,-69.3 z"
                     id="path8" />
                  <path
                     d="m 793.4,741.4 h 90.2 v 43.9 h -90.2 z"
                     transform="rotate(90,838.47665,763.36115)"
                     id="path9" />
                  <path
                     d="M 870.6,818.6 H 806.4 V 708.1 h 64.2 z m -44,-20.2 h 23.7 v -70 h -23.7 z"
                     id="path10" />
                  <path
                     d="m 1309.3,678.8 h 90.2 v 169.1 h -90.2 z"
                     transform="rotate(90,1354.3821,763.36115)"
                     id="path11" />
                  <path
                     d="M 1449.1,818.6 H 1259.8 V 708.1 h 189.3 z m -169.2,-20.2 h 148.9 v -70 h -148.9 z"
                     id="path12" />
                  <path
                     d="m 518.6,368.2 h 90.2 v 440.3 h -90.2 z"
                     id="path13" />
                  <path
                     d="M 619,818.6 H 508.5 V 358.1 H 619 Z m -90.2,-20.2 h 70 v -420 h -70 z"
                     id="path14" />
                  <path
                     d="M 671.8,368.2 H 762 v 440.3 h -90.2 z"
                     id="path15" />
                  <path
                     d="M 772.1,818.6 H 661.7 V 358.1 h 110.5 v 460.5 z m -90.2,-20.2 h 70 v -420 h -70 z"
                     id="path16" />
                  <path
                     d="m 860.4,808.5 c 0,-30.1 0,-60.1 0,-90.2 173.2,0 173.2,-259.8 0,-259.8 0,-30.1 0,-60.1 0,-90.2 293.6,-0.1 293.6,440.2 0,440.2 z"
                     id="path17" />
                  <path
                     d="M 860.4,818.6 H 850.3 V 708.1 h 10.1 c 37.2,0 68.2,-12.9 89.9,-37.2 19.3,-21.7 29.9,-51 29.9,-82.6 0,-57.7 -37.5,-119.8 -119.8,-119.8 H 850.3 V 358.1 h 10.1 c 71,0 130.7,25 172.7,72.2 37.1,41.8 57.6,97.9 57.6,158.1 0,60.2 -20.5,116.3 -57.6,158.1 -42,47.1 -101.7,72.1 -172.7,72.1 z m 10.2,-90.5 v 70.1 C 931.2,796 982,773.5 1018,733 c 33.8,-38.1 52.5,-89.4 52.5,-144.6 0,-55.2 -18.6,-106.5 -52.5,-144.6 -36,-40.5 -86.8,-63 -147.4,-65.2 v 70.1 c 38.7,2.2 71.3,17.2 94.9,43.7 22.6,25.4 35,59.5 35,96 0,36.5 -12.4,70.6 -35,96 -23.6,26.5 -56.3,41.5 -94.9,43.7 z"
                     id="path18" />
                  <path
                     d="m 1125.1,368.2 h 90.2 v 440.3 h -90.2 z"
                     id="path19" />
                  <path
                     d="M 1225.4,818.6 H 1115 V 358.1 h 110.5 v 460.5 z m -90.2,-20.2 h 70 v -420 h -70 z"
                     id="path20" />
                  <path
                     d="m 1309.3,503.8 h 90.2 v 169.1 h -90.2 z"
                     transform="rotate(90,1354.3821,588.33465)"
                     id="path21" />
                  <path
                     d="M 1449.1,643.6 H 1259.8 V 533.1 h 189.3 z m -169.2,-20.3 h 148.9 v -70 h -148.9 z"
                     id="path22" />
                  <path
                     d="m 2107.5,561.8 h 90.2 v 53 h -90.2 z"
                     transform="rotate(90,2152.6233,588.3325)"
                     id="path23" />
                  <path
                     d="M 2189.2,643.6 H 2116 V 533.1 h 73.2 z m -53,-20.3 h 32.8 v -70 h -32.8 z"
                     id="path24" />
                  <path
                     d="m 1981.4,368.2 h 90.2 v 440.3 h -90.2 z"
                     id="path25" />
                  <path
                     d="M 2081.7,818.6 H 1971.2 V 358.1 h 110.5 z m -90.2,-20.2 h 70 v -420 h -70 z"
                     id="path26" />
                  <path
                     d="m 2179.1,633.4 c 0,-30.2 0,-60 0,-90.2 55.9,0 55.9,-84.8 0,-84.8 0,-30.2 0,-60 0,-90.2 176.3,0 176.3,265.2 0,265.2 z"
                     id="path27" />
                  <path
                     d="M 2179.1,643.6 H 2169 V 533.1 h 10.1 c 15.6,0 23.4,-7.9 27.3,-14.6 6.1,-10.6 6.1,-24.8 0,-35.4 -3.8,-6.6 -11.7,-14.6 -27.3,-14.6 H 2169 V 358.1 h 10.1 c 43.8,0 80.7,15.5 106.7,44.9 22.9,25.9 35.6,60.7 35.6,97.9 0,37.2 -12.6,72 -35.6,97.9 -26,29.3 -62.9,44.8 -106.7,44.8 z m 10.1,-91.1 V 623 c 76.8,-4.9 111.9,-65.6 111.9,-122.2 0,-56.6 -35.1,-117.3 -111.9,-122.2 v 70.5 c 14.9,2.6 27.2,11 34.7,23.8 9.8,16.9 9.8,38.8 0,55.7 -7.4,12.9 -19.7,21.3 -34.7,23.9 z"
                     id="path28" />
                  <path
                     d="m 1573,560 c 12.7,-63.7 68.9,-111.7 136.3,-111.7 67.4,0 123.6,48 136.3,111.7 h 91.3 C 1923.4,446.2 1826.6,358 1709.3,358 1592,358 1495.2,446.2 1481.7,559.9 h 91.3 z"
                     id="path29" />
                  <path
                     d="m 1948.2,570.1 h -111 l -1.6,-8.1 c -11.9,-60 -65.1,-103.6 -126.4,-103.6 -61.3,0 -114.4,43.6 -126.4,103.6 l -1.6,8.1 h -111 l 1.3,-11.3 c 14.2,-120.2 116.4,-210.9 237.6,-210.9 121.2,0 223.4,90.7 237.6,210.9 z m -94.6,-20.3 h 71.5 c -17.9,-104.4 -108.8,-181.7 -215.9,-181.7 -107.1,0 -198,77.3 -215.9,181.7 h 71.5 c 16.8,-65.2 76.3,-111.7 144.4,-111.7 68.2,0 127.6,46.5 144.4,111.7 z"
                     id="path30" />
                  <path
                     d="m 1845.6,614.5 c -12.7,63.7 -68.9,111.7 -136.3,111.7 -67.4,0 -123.6,-48 -136.3,-111.7 h -91.3 c 13.5,113.7 110.2,201.9 227.6,201.9 117.4,0 214.1,-88.2 227.6,-201.9 z"
                     id="path31" />
                  <path
                     d="m 1709.3,826.5 c -121.2,0 -223.4,-90.7 -237.6,-210.9 l -1.3,-11.3 h 111 l 1.6,8.1 c 11.9,60 65.1,103.6 126.4,103.6 61.3,0 114.4,-43.6 126.4,-103.6 l 1.6,-8.1 h 111 l -1.3,11.3 c -14.5,120.3 -116.6,210.9 -237.8,210.9 z M 1493.4,624.6 c 17.9,104.4 108.8,181.7 215.9,181.7 107.1,0 198,-77.3 215.9,-181.7 h -71.5 c -16.8,65.2 -76.2,111.7 -144.4,111.7 -68.1,0 -127.5,-46.5 -144.4,-111.7 z"
                     id="path32" />
                  <path
                     d="m 383,368.2 -102.1,200.5 50.7,99.5 152.6,-300 z"
                     id="path33" />
                  <path
                     d="M 331.6,690.5 269.6,568.7 376.8,358 h 123.9 z m -39.3,-121.8 39.3,77.2 136.2,-267.6 h -78.5 z"
                     id="path34" />
                  <path
                     d="M 250.4,628.8 117.7,368.2 H 16.5 L 250.4,827.8 301,728.3 Z"
                     id="path35" />
                  <path
                     d="M 250.4,850.1 0,358.1 h 123.9 l 127.6,250.8 60.8,119.5 z M 33,378.3 250.4,805.4 289.7,728.2 249.3,648.7 111.5,378.3 Z"
                     id="path36" />
                  <path
                     d="m 2858.5,723.5 c -63.7,-12.7 -111.7,-68.9 -111.7,-136.3 0,-67.4 48,-123.6 111.7,-136.3 v -91.3 c -113.7,13.5 -201.9,110.2 -201.9,227.6 0,117.4 88.2,214.1 201.9,227.6 z"
                     id="path37" />
                  <path
                     d="m 2868.7,826.2 -11.3,-1.3 c -120.2,-14.2 -210.9,-116.4 -210.9,-237.6 0,-121.2 90.7,-223.4 210.9,-237.6 l 11.3,-1.3 v 111 l -8.1,1.6 c -60,11.9 -103.6,65.1 -103.6,126.4 0,61.3 43.6,114.4 103.6,126.4 l 8.1,1.6 z m -20.3,-454.9 c -104.4,17.9 -181.7,108.8 -181.7,215.9 0,107.1 77.3,198 181.7,215.9 v -71.5 c -65.2,-16.8 -111.7,-76.3 -111.7,-144.4 0,-68.1 46.5,-127.5 111.7,-144.4 z"
                     id="path38" />
                  <path
                     d="m 2998.1,669 c -20.2,27.7 -50.3,47.6 -85.1,54.5 v 91.3 c 59.9,-7.1 112.8,-37.3 149.4,-81.5 z"
                     id="path39" />
                  <path
                     d="m 2902.9,826.2 v -111 l 8.1,-1.6 c 31.7,-6.3 59.7,-24.3 78.9,-50.6 l 7,-9.6 79.2,79.2 -5.9,7.1 c -39.4,47.6 -94.8,77.9 -156,85.1 z m 20.3,-94.6 v 71.5 c 48.4,-8.3 92.4,-32.6 125.4,-69.3 L 2999,684.2 c -19.9,23.3 -46.3,39.8 -75.8,47.4 z"
                     id="path40" />
                  <path
                     d="m 2470.2,643.1 -45.9,90.2 H 2605 l -18.5,-90.2 z"
                     id="path41" />
                  <path
                     d="M 2617.4,743.4 H 2407.8 L 2464,632.9 h 130.8 z m -176.6,-20.2 h 151.8 l -14.3,-70 h -101.9 z"
                     id="path42" />
                  <path
                     d="m 2324.8,808.5 102.1,-200.6 -50.6,-99.4 -152.7,300 z"
                     id="path43" />
                  <path
                     d="m 2331,818.6 h -123.9 l 169.2,-332.4 62,121.8 z m -90.9,-20.2 h 78.5 l 96.9,-190.4 -39.3,-77.2 z"
                     id="path44" />
                  <path
                     d="m 2457.5,547.8 132.6,260.7 h 101.2 l -233.8,-459.6 -50.6,99.5 z"
                     id="path45" />
                  <path
                     d="m 2707.8,818.6 h -123.9 l -127.6,-250.8 -60.8,-119.5 62,-121.8 z m -111.5,-20.2 h 78.5 l -217.4,-427.1 -39.3,77.2 z"
                     id="path46" />
                  <path
                     d="m 2234.1,0 c -26.1,0 -78.8,0.3 -78.8,0 v 229.3 h 64.1 l 0.4,-57.3 h 28.7 c 61.1,0 93.2,-29.5 93.2,-86 -0.1,-62.1 -40.2,-86 -107.6,-86 z m 0,129 h -14.3 V 43 c 3.8,-0.2 11,0 14.3,0 32.4,0 44.1,16.6 44.1,44.4 0,28.7 -9.9,41.6 -44.1,41.6 z"
                     id="path47" />
                  <path
                     d="m 1660.8,229.3 v -93.1 h -64.5 v 93.1 h -64.5 V 0 h 64.5 v 93.2 h 64.5 V 0 h 64.5 v 229.3 z"
                     id="path48" />
                  <path
                     d="M 1775.5,229.3 V 0 h 57.3 7.2 v 229.3 z"
                     id="path49" />
                  <path
                     d="M 2011.4,229.3 H 1890.1 V 0 h 64.5 v 186.3 h 64.5 z"
                     id="path50" />
                  <path
                     d="m 2040.6,0 h 64.5 v 229.3 h -64.5 z"
                     id="path51" />
                  <path
                     d="m 2427.6,57.3 v 7.2 c 0,35.2 107.5,19 107.5,93.2 0,55.6 -38.3,71.7 -93.2,71.7 -21.6,0 -56.4,-4 -78.8,-7.2 V 172 c 19.8,10.2 57.3,14.3 78.8,14.3 24.3,0 28.7,-7.6 28.7,-21.5 0,-39.5 -107.5,-22.5 -107.5,-100.3 0,-45.2 44.2,-64.5 97.2,-64.5 37.6,0 43.4,3.5 60.5,7.2 v 43 c -15.3,-6.5 -36.6,-7.2 -57.3,-7.2 -18.9,0 -35.9,2.3 -35.9,14.3 z"
                     id="path52" />
                  <path
                     d="m 1395.6,0 c -26.1,0 -78.8,0.3 -78.8,0 v 229.3 h 64.1 l 0.4,-57.3 h 28.7 c 61.1,0 93.2,-29.5 93.2,-86 -0.1,-62.1 -40.1,-86 -107.6,-86 z m 0,129 h -14.3 V 43 c 3.8,-0.2 11,0 14.3,0 32.4,0 44.1,16.6 44.1,44.4 0,28.7 -9.9,41.6 -44.1,41.6 z"
                     id="path53" />
                  <path
                     d="m 3664,812.1 h -84.6 V 633.4 h 7.1 v 171.5 h 70.3 v -175 h 175 v -83.1 h -175 v -175 h -70.3 v 171.4 h -7.1 V 364.6 h 84.6 v 175 h 175 V 637 h -175 z"
                     id="path54" />
                  <path
                     d="m 3431.7,812.1 h -97.4 V 637 h -175 v -97.4 h 175 v -175 h 97.4 v 175 h 175 V 637 h -175 z m -90.3,-7.2 h 83 v -175 h 175 v -83 h -175 v -175 h -83 v 175 h -175 v 83 h 175 z"
                     id="path55" />
                  <path
                     d="m 3502,633.4 h 7.2 v 175 h -7.2 z"
                     id="path56" />
                  <path
                     d="m 3502,368.2 h 7.2 v 175 h -7.2 z"
                     id="path57" />
                  <path
                     d="M 3428.1,364.6 H 3583 v 7.2 h -154.9 z"
                     id="path58" />
                  <path
                     d="M 3428.1,804.9 H 3583 v 7.2 h -154.9 z"
                     id="path59" />
                  <path
                     d="m 3684.1,637 h -84.6 v -97.4 h 84.6 z m -77.4,-7.1 h 70.3 v -83 h -70.3 z"
                     id="path60" />
                  <path
                     d="M 3761.6,637 H 3677 v -97.4 h 84.6 z m -77.5,-7.1 h 70.3 v -83 h -70.3 z"
                     id="path61" />
                </g>
              </g>
            </g>
          </g>
        </g>
      </g>
    </g>
  </g>
</svg>
