<?xml version="1.0" encoding="UTF-8" standalone="no"?>
<svg
   enable-background="new 0 0 3839 1254.1"
   viewBox="0 0 1920 627.00005"
   version="1.1"
   id="svg5"
   sodipodi:docname="3do.svg"
   width="1920"
   height="627"
   inkscape:version="1.3.2 (091e20e, 2023-11-25)"
   xmlns:inkscape="http://www.inkscape.org/namespaces/inkscape"
   xmlns:sodipodi="http://sodipodi.sourceforge.net/DTD/sodipodi-0.dtd"
   xmlns="http://www.w3.org/2000/svg"
   xmlns:svg="http://www.w3.org/2000/svg">
  <defs
     id="defs5" />
  <sodipodi:namedview
     id="namedview5"
     pagecolor="#ffffff"
     bordercolor="#000000"
     borderopacity="0.25"
     inkscape:showpageshadow="2"
     inkscape:pageopacity="0.0"
     inkscape:pagecheckerboard="0"
     inkscape:deskcolor="#d1d1d1"
     inkscape:zoom="0.18818276"
     inkscape:cx="1918.3479"
     inkscape:cy="627.05"
     inkscape:window-width="1312"
     inkscape:window-height="449"
     inkscape:window-x="0"
     inkscape:window-y="23"
     inkscape:window-maximized="0"
     inkscape:current-layer="svg5" />
  <g
     id="g2"
     transform="scale(0.49999999)">
    <g
       id="g1"
       transform="scale(1,0.99965985)">
      <g
         id="g6"
         transform="scale(1.0002605)">
        <g
           fill="#ffffff"
           id="g5">
          <path
             d="m 1545.2,607 v 1.9 c 82.9,1.5 144.1,18 183.5,49.4 39.5,31.4 59.3,69.4 59.3,113.9 0,49.7 -22.4,90.8 -67.5,123 -44.9,32.4 -104.8,48.6 -179.3,48.6 -64.5,0 -114.3,-12.9 -149.5,-38.7 -35.3,-25.7 -52.9,-55 -52.9,-88 0,-21.9 7.9,-39.6 23.7,-53 15.8,-13.4 34.8,-20 56.8,-20 20.7,0 38.5,5.9 53.3,17.5 14.8,11.8 22.2,27.3 22.2,46.4 0,25.6 -17.2,47.1 -51.6,64.5 -6.7,3.4 -10.2,7.2 -10.2,11.5 0,7.9 9.6,14.8 29,20.8 19.3,6 38.9,8.9 59.2,8.9 66.2,0 99.3,-48.7 99.3,-146 0,-96.4 -39.8,-144.5 -119.3,-144.5 l -66,2.7 c -13.3,0 -20,-4.9 -20,-14.7 0,-11.3 7,-16.9 21,-16.9 l 48.1,1.8 c 49.1,0 81.9,-10.9 98.6,-32.8 16.7,-21.8 25,-52.8 25,-93.1 0,-41.4 -6.3,-72 -18.9,-91.5 -12.6,-19.6 -34.3,-29.3 -64.9,-29.3 -16.7,0 -32.4,2.8 -47,8.5 -14.6,5.6 -22.1,11.1 -22.1,16.6 0,5.1 4.8,10.4 14.5,15.9 25.2,16.1 38,33.5 38,52.3 0,18.5 -7,33.1 -21.2,44.1 -14.2,10.9 -30.1,16.4 -47.8,16.4 -20.4,0 -38.6,-6.3 -54.6,-18.7 -16,-12.5 -24.1,-27.9 -24.1,-46.6 0,-31.6 17.8,-59 53.5,-82 35.7,-23.1 81.3,-34.7 137.2,-34.7 61.8,0 113.8,13.1 156.2,39.2 42.5,26.1 63.7,59.5 63.7,100.5 -0.2,80.8 -75.2,129.4 -225.2,146.1 z"
             id="path1" />
          <path
             d="m 2293,348.6 v 553.9 h 54.3 c 83,0 133.1,-21.8 150.3,-65.2 17.3,-43.5 25.8,-117.9 25.8,-223.1 0,-82.4 -5.3,-141.6 -15.9,-177.6 -10.5,-36 -26.6,-59.7 -48.1,-71 -21.5,-11.3 -48.8,-17 -81.9,-17 z M 2125.4,902.5 V 348.6 h -86.9 v -30 h 348.1 c 100.7,0 180.5,28.5 239.1,85.7 58.7,57.1 88.1,129.1 88.1,216 0,45.1 -8.9,87.6 -26.9,127.2 -17.9,39.7 -45.5,75.8 -82.7,108.3 -37.2,32.5 -75.4,53.4 -114.5,62.7 -39.1,9.3 -87.1,14 -144.2,14 h -307.2 v -30 z"
             id="path2" />
          <path
             d="m 3384.2,625.8 c 0,-94 -2,-156 -5.8,-185.9 -3.9,-30 -14,-54.1 -30.2,-72.4 -16.2,-18.3 -42.9,-27.4 -80,-27.4 -31.3,0 -56.3,7.4 -74.9,22.2 -18.6,14.8 -30.2,38.5 -34.8,71.2 -4.5,32.6 -6.8,96.5 -6.8,191.4 0,93.9 1.9,156.2 5.9,186.5 3.9,30.4 14.3,54.6 31.2,72.6 16.9,18 43.3,27 79.5,27 30,0 54.4,-7.2 73.3,-21.7 18.9,-14.6 30.7,-38.1 35.5,-70.7 4.8,-32.8 7.1,-97 7.1,-192.8 z m -422.9,-2.6 c 0,-91.8 30.2,-167 91,-225.4 60.6,-58.4 133.4,-87.6 218,-87.6 78.7,0 149.2,27.4 211.2,82.4 62.2,54.9 93.2,133.1 93.2,234.3 0,94.9 -29.3,171 -88.1,228.2 -58.8,57.2 -130.6,85.8 -215.3,85.8 -91.6,0 -166.3,-30.5 -223.7,-91.1 -57.5,-60.7 -86.3,-136.2 -86.3,-226.6 z"
             id="path3" />
          <path
             d="M 119.7,119.7 V 1134.5 H 1134.5 V 119.7 Z M 627,195.1 769.4,337.9 627,480.6 484.7,337.9 Z m 0.7,498.9 h -1.3 C 571,694 516.5,689.6 505.1,675.3 495.4,663 494.7,629.5 494.7,595.2 v -9.4 c 0,-34.3 0.7,-67.9 10.4,-80.1 11.3,-14.3 65.7,-18.7 121.3,-18.7 h 1.3 c 55.5,0 110,4.4 121.3,18.7 9.7,12.3 10.4,45.8 10.4,80.1 v 9.4 c 0,34.3 -0.7,67.9 -10.4,80.1 -11.3,14.3 -65.7,18.7 -121.3,18.7 z m 120.9,131.3 c 0,67.3 -54.4,121.9 -121.6,121.9 -67.2,0 -121.5,-54.6 -121.5,-121.9 0,-67.3 54.4,-121.9 121.6,-121.9 67.2,0 121.5,54.6 121.5,121.9 z M 627,1086.9 c -79,0 -143,-11.3 -143,-25.1 0,-13.9 64,-25.1 143,-25.1 79,0 143,11.2 143,25.1 0,13.9 -64,25.1 -143,25.1 z"
             id="path4" />
          <path
             d="M 0,0 V 1254.1 H 3839 V 0 Z M 3779.2,1194.2 H 59.8 V 59.8 h 3719.3 z"
             id="path5" />
        </g>
      </g>
    </g>
  </g>
</svg>
