<?xml version="1.0" encoding="UTF-8"?>
<svg width="1920" height="358" version="1.1" viewBox="0 0 1920 358" xmlns="http://www.w3.org/2000/svg">
 <g transform="matrix(.99966 0 0 1.0003 0 .00021)" fill="#fff" stroke-width="22.346" aria-label="ARCADE">
  <path d="m134.77-2.0996e-4h86.938l135.12 357.88h-88.334l-23.393-60.053h-132.33l-24.44 60.053h-88.334zm42.945 120.11-38.057 101.6h76.114z"/>
  <path d="m523.72-2.0996e-4q36.661 0 62.847 15.712 9.7761 5.2372 23.742 18.156 14.315 15.363 19.552 25.837 14.664 27.234 14.664 54.118v5.2372q0 37.01-26.186 70.877-12.569 14.315-22.345 20.949l-8.3796 5.5864 77.162 141.4h-99.856l-67.735-124.99h-36.661v124.99h-93.222v-357.88zm-63.196 75.765v81.002h49.23q28.979 0 40.152-27.234 2.444-7.6813 2.444-12.918 0-19.552-16.41-32.82-10.125-8.0304-28.63-8.0304z"/>
  <path d="m838.3-2.0996e-4q60.752 0 110.68 38.755l0.69829 0.6983-52.721 66.687q-27.234-20.6-58.657-20.6-39.803 0-69.48 30.725-24.44 27.932-24.44 62.847 0 39.454 31.074 69.131 27.583 24.44 62.847 24.44 32.122 0 58.657-20.949l52.721 67.036q-31.423 25.488-73.321 35.264-19.552 3.8406-35.962 3.8406h-4.5389q-63.196 0-116.27-44.691-20.6-19.901-25.488-27.932-34.915-48.182-34.915-106.14 0-70.877 50.626-124.99 54.816-54.118 128.49-54.118zm258.44 0h86.938l135.12 357.88h-88.334l-23.393-60.053h-132.33l-24.44 60.053h-88.334zm42.945 120.11-38.057 101.6h76.114z"/>
  <path d="m1413.5-2.0996e-4h43.294q63.894 0 115.22 41.549 16.061 13.966 25.139 25.488 39.104 50.626 39.104 112.08 0 60.752-38.755 111.03-19.203 22.345-32.122 31.074-16.061 12.569-34.915 20.949-33.867 15.712-77.86 15.712h-127.79v-357.88zm4.1898 87.287v183.3h37.359q48.881 0 78.209-40.85 15.362-24.091 15.362-50.976 0-35.264-25.837-63.545-27.234-27.932-69.131-27.932zm243.22-87.287h259.77v81.002h-166.54v61.101h129.88v81.002h-129.88v55.165h166.54v79.606h-259.77z"/>
 </g>
</svg>
