<?xml version="1.0" encoding="UTF-8" standalone="no"?>
<svg
   height="358.00009"
   viewBox="0 0 1920.0005 358.00008"
   width="1920.0005"
   version="1.1"
   id="svg4"
   xmlns="http://www.w3.org/2000/svg"
   xmlns:svg="http://www.w3.org/2000/svg">
  <defs
     id="defs4" />
  <g
     id="g4">
    <g
       id="text4"
       style="font-weight:bold;font-stretch:condensed;font-size:715.055px;font-family:'Helvetica Neue';fill:#ffffff;stroke-width:22.3456"
       transform="matrix(.9996552 0 0 1.0003449 0 .00021)"
       aria-label="ARCADE">
      <path
         style="font-stretch:normal;font-family:Basic_LAZER"
         d="m 134.77111,-2.0995736e-4 h 86.93784 L 356.8292,357.87643 H 268.49477 L 245.10186,297.82299 H 112.77479 L 88.33443,357.87643 H 0 Z M 177.7163,120.10668 139.65918,221.70874 h 76.11425 z"
         id="path4" />
      <path
         style="font-stretch:normal;font-family:Basic_LAZER;letter-spacing:-22.3456"
         d="m 523.72193,-2.0995736e-4 q 36.66053,0 62.84663,15.71165795736 9.77614,5.237219 23.74206,18.155693 14.31507,15.362509 19.55229,25.836948 14.66421,27.23354 14.66421,54.117931 v 5.23722 q 0,37.00968 -26.1861,70.87703 -12.56932,14.31507 -22.34547,20.94888 l -8.37955,5.58637 77.1617,141.40491 h -99.85631 l -67.7347,-124.99496 h -36.66054 v 124.99496 h -93.2225 V -2.0995736e-4 Z M 460.52615,75.764894 v 81.002326 h 49.22986 q 28.97928,0 40.15202,-27.23354 2.44403,-7.68126 2.44403,-12.91848 0,-19.552281 -16.40995,-32.819903 -10.12529,-8.030403 -28.63013,-8.030403 z"
         id="path5" />
      <path
         style="font-stretch:normal;font-family:Basic_LAZER;letter-spacing:-4.46911"
         d="m 838.30412,-2.0995736e-4 q 60.75174,0 110.6799,38.75542195736 l 0.69829,0.698296 -52.72134,66.687262 q -27.23354,-20.599733 -58.65685,-20.599733 -39.80287,0 -69.48044,30.725023 -24.44036,27.93183 -24.44036,62.84663 0,39.45371 31.07417,69.13129 27.58269,24.44036 62.84663,24.44036 32.12161,0 58.65685,-20.94888 l 52.72134,67.0364 q -31.42331,25.4878 -73.32106,35.26395 -19.55229,3.84062 -35.96224,3.84062 h -4.53893 q -63.19577,0 -116.26626,-44.69093 -20.59973,-19.90144 -25.4878,-27.93184 -34.9148,-48.18241 -34.9148,-106.14097 0,-70.87704 50.62646,-124.994968 Q 764.6339,-2.0995736e-4 838.30412,-2.0995736e-4 Z m 258.43928,0 h 86.9378 L 1318.8015,357.87643 h -88.3344 l -23.393,-60.05344 h -132.327 l -24.4404,60.05344 H 961.97229 Z M 1139.6886,120.10668 1101.6315,221.70874 h 76.1142 z"
         id="path6" />
      <path
         style="font-stretch:normal;font-family:Basic_LAZER;letter-spacing:-13.4073"
         d="m 1413.4903,-2.0995736e-4 h 43.2944 q 63.8941,0 115.2188,41.54860595736 16.0608,13.965917 25.1387,25.4878 39.1045,50.626454 39.1045,112.076494 0,60.75174 -38.7554,111.02904 -19.2031,22.34547 -32.1216,31.07417 -16.0608,12.56933 -34.9148,20.94888 -33.8673,15.71165 -77.86,15.71165 h -39.1046 -88.6835 V -2.0995736e-4 Z M 1417.6801,87.286776 V 270.58945 h 37.3588 q 48.8808,0 78.2092,-40.85031 15.3625,-24.09121 15.3625,-50.9756 0,-35.26394 -25.837,-63.54493 -27.2335,-27.931834 -69.1312,-27.931834 z M 1660.8966,-2.0995736e-4 h 259.7661 V 81.002113 H 1754.1191 V 142.103 h 129.883 v 81.00233 h -129.883 v 55.16537 h 166.5436 v 79.60573 h -259.7661 z"
         id="path7" />
    </g>
  </g>
</svg>
