<?xml version="1.0" encoding="UTF-8" standalone="no"?>
<svg
   enable-background="new 0 0 3840 818"
   viewBox="0 0 1920 409"
   version="1.1"
   id="svg19"
   sodipodi:docname="atarilynx.svg"
   width="1920"
   height="409"
   inkscape:version="1.3.2 (091e20e, 2023-11-25)"
   xmlns:inkscape="http://www.inkscape.org/namespaces/inkscape"
   xmlns:sodipodi="http://sodipodi.sourceforge.net/DTD/sodipodi-0.dtd"
   xmlns="http://www.w3.org/2000/svg"
   xmlns:svg="http://www.w3.org/2000/svg">
  <defs
     id="defs19" />
  <sodipodi:namedview
     id="namedview19"
     pagecolor="#ffffff"
     bordercolor="#000000"
     borderopacity="0.25"
     inkscape:showpageshadow="2"
     inkscape:pageopacity="0.0"
     inkscape:pagecheckerboard="0"
     inkscape:deskcolor="#d1d1d1"
     inkscape:zoom="0.20755208"
     inkscape:cx="1917.591"
     inkscape:cy="409.53577"
     inkscape:window-width="1312"
     inkscape:window-height="449"
     inkscape:window-x="0"
     inkscape:window-y="23"
     inkscape:window-maximized="0"
     inkscape:current-layer="svg19" />
  <g
     id="g1"
     transform="scale(0.5)">
    <g
       id="g20"
       transform="matrix(1,0,0,1.0000045,0,-0.00365369)">
      <g
         fill="#ffffff"
         id="g19">
        <path
           d="M 1.1,387.3 H 246.3 V 691 H 1.1 Z"
           id="path1" />
        <path
           d="m 0,725.7 h 620.7 v 92.2 H 0 Z"
           id="path2" />
        <g
           clip-rule="evenodd"
           fill-rule="evenodd"
           id="g11">
          <path
             d="m 550.6,387.3 h 344 l 219.6,165.5 -168.7,108.4 z"
             id="path3" />
          <path
             d="M 1752.1,387.3 2422.4,818 h 138.7 V 387.3 H 2438.5 V 687.8 L 1986.1,387.3 Z"
             id="path4" />
          <path
             d="m 1749.1,433.4 265.8,170.8 V 818 H 1748 Z"
             id="path5" />
          <path
             d="M 1446.8,387.3 972.1,692.2 V 818 h 247.4 V 681.2 l 424.4,-294 h -197.1 z"
             id="path6" />
          <path
             d="m 1760.4,392.6 265.8,170.8"
             id="path7" />
          <path
             d="m 3432,818 -518,-226.3 115.3,-42.2 190.8,83.3 88.8,-32.5 498.4,217.7 h -371.7 z"
             id="path8" />
          <path
             d="m 3204,753.8 -153.8,-67.2 -361,131.4 h 339.6 z"
             id="path9" />
          <path
             d="m 3097.2,387.2 518,226.3 -115.3,42.2 -190.8,-83.3 -88.8,32.5 -498.4,-217.8 h 371.7 z"
             id="path10" />
          <path
             d="M 3325.2,451.4 3479,518.6 3840,387.2 H 3500.4 Z"
             id="path11" />
        </g>
        <path
           d="m 1476.7,0.6 h 20.2 V 48 c 0.1,13.2 -0.3,26.4 -0.8,39.6 -0.9,19 -2.1,38.1 -5.2,56.9 -2.2,13 -6.7,25.5 -12.2,37.4 -9.1,19.1 -23.3,35.3 -39.4,48.9 -14.3,12.6 -31.5,21.8 -49.5,28 -10.2,3.5 -20.7,6.2 -31.3,7.7 0,-13.2 0,-26.5 0,-39.8 12.8,-1.9 25.2,-6.5 36.7,-12.5 13.6,-7.2 25.9,-16.9 36.2,-28.3 10.7,-11.8 19.2,-25.4 25.6,-39.9 7.6,-16.7 11.7,-34.7 14.4,-52.7 3.5,-22.9 4.9,-46.1 5.4,-69.2 -0.1,-7.8 -0.2,-15.7 -0.1,-23.5 z"
           id="path12" />
        <path
           d="m 1504.9,0.6 c 12.4,-0.1 24.8,0 37.1,0 v 265.9 c -12.3,0 -24.7,-0.1 -37,0 -0.2,-28.3 0,-56.5 -0.1,-84.8 0,-60.3 0.1,-120.7 0,-181.1 z"
           id="path13" />
        <path
           d="m 1550.3,0.6 h 20.1 c -0.2,27 0.7,54.1 3.9,80.9 2.6,20.9 6.3,41.9 14.7,61.3 7.9,18.8 19.2,36.3 34,50.4 14.1,13.5 31.2,23.8 49.8,29.8 5.2,1.7 10.5,3 15.9,3.8 v 39.7 c -10.6,-1.4 -21,-4.2 -31.1,-7.6 -12.1,-4.2 -23.7,-9.6 -34.4,-16.6 -7.8,-5 -14.9,-11 -21.7,-17.3 -11.2,-10.4 -21.3,-22.2 -28.9,-35.5 -5.9,-10.4 -10.2,-21.6 -13.6,-33.1 -3.1,-11.5 -4.4,-23.4 -5.6,-35.2 -2.3,-25.6 -3.2,-51.3 -3,-77 -0.1,-14.6 -0.1,-29.1 -0.1,-43.6 z"
           id="path14" />
        <path
           d="m 1810.7,11.6 c 10.3,-13.2 31.8,-15.5 44.4,-4.4 5.2,4.4 8.8,10.4 10.7,16.9 23.5,80.8 47.1,161.6 70.6,242.5 -13.9,0 -27.7,0 -41.6,0 -6.5,-22.3 -12.9,-44.6 -19.4,-66.9 -26.8,-0.1 -53.6,0 -80.4,0 -6.6,22.3 -13.1,44.6 -19.5,67 -13.8,0 -27.6,0 -41.4,0 22.3,-77.1 44.7,-154.2 67.1,-231.3 2.7,-8.2 3.7,-17.3 9.5,-23.8 m 24.5,49.5 c -9.8,33.5 -19.5,67 -29.2,100.6 19.5,0.1 39,0 58.4,0 -9.8,-33.6 -19.5,-67.1 -29.2,-100.6 z"
           id="path15" />
        <path
           d="M 2102.8,13.3 C 2110,2.8 2124,-2.3 2136.3,1 c 11.3,2.6 19.9,12.3 22.9,23.2 23.5,80.8 47,161.5 70.5,242.3 -13.9,0.1 -27.8,0 -41.6,0 -6.5,-22.3 -12.8,-44.6 -19.4,-66.9 -26.8,0 -53.5,-0.1 -80.3,0 -6.4,22.3 -13,44.6 -19.4,66.9 -13.8,0 -27.5,0 -41.3,0 22.3,-77.5 44.9,-155 67.4,-232.5 2.2,-6.9 3.1,-14.7 7.7,-20.7 m -3.4,148.4 h 58.2 c -9.7,-33.6 -19.5,-67.2 -29.1,-100.8 -9.7,33.6 -19.5,67.2 -29.1,100.8 z"
           id="path16" />
        <path
           d="m 1905.3,0.6 h 150.5 v 40.6 c -18.5,0 -36.9,0 -55.4,0 v 225.4 c -13.2,0 -26.5,0 -39.7,0 0,-75.1 0,-150.3 0,-225.4 -18.5,0 -36.9,0 -55.4,0 0,-13.6 0,-27.1 0,-40.6 z"
           id="path17" />
        <path
           d="m 2273.7,2.2 c 3.8,-1.3 7.9,-1.8 11.9,-1.7 15.8,0.1 31.6,0 47.4,0 26.6,0.5 52.1,17 63.6,41 8,15.6 8.8,33.7 6.8,50.7 -1.4,17.9 -8.9,35.8 -22.6,47.6 -7.2,6.5 -16.3,10.4 -24.1,16.1 -4.3,3.2 -4.5,9.6 -2.3,14.1 21,32.4 42.8,64.3 64.2,96.4 -15.7,0 -31.3,0 -47,0 -20.5,-30.8 -40.8,-61.8 -61.2,-92.6 -6,-8.8 -7.6,-20.4 -4.1,-30.4 2.8,-7.7 9.5,-13.3 17,-16.2 14.3,-5.4 28.4,-14 36.3,-27.5 6,-10.1 5.7,-22.6 3,-33.7 -3.2,-14.4 -17.2,-25.7 -32,-25.2 -10.2,0.1 -20.5,0 -30.7,0 -4.6,-0.1 -9,3.9 -8.9,8.6 -0.1,72.4 0,144.7 0,217.1 -13.3,0 -26.6,0 -40,0 0,-77.9 0,-155.8 0,-233.7 0,-13.6 9.7,-26.4 22.7,-30.6 z"
           id="path18" />
        <path
           d="m 2439.6,0.6 h 42.1 v 266 c -14,0 -28,0 -42,0 -0.1,-88.7 -0.1,-177.4 -0.1,-266 z"
           id="path19" />
      </g>
    </g>
  </g>
</svg>
