<?xml version="1.0" encoding="UTF-8" standalone="no"?>
<svg
   height="274"
   viewBox="0 0 1920 274"
   width="1920"
   version="1.1"
   id="svg30"
   sodipodi:docname="auto-lastplayed.svg"
   inkscape:version="1.3.2 (091e20e, 2023-11-25)"
   xmlns:inkscape="http://www.inkscape.org/namespaces/inkscape"
   xmlns:sodipodi="http://sodipodi.sourceforge.net/DTD/sodipodi-0.dtd"
   xmlns="http://www.w3.org/2000/svg"
   xmlns:svg="http://www.w3.org/2000/svg">
  <defs
     id="defs30" />
  <sodipodi:namedview
     id="namedview30"
     pagecolor="#ffffff"
     bordercolor="#000000"
     borderopacity="0.25"
     inkscape:showpageshadow="2"
     inkscape:pageopacity="0.0"
     inkscape:pagecheckerboard="0"
     inkscape:deskcolor="#d1d1d1"
     inkscape:zoom="0.24557292"
     inkscape:cx="1922.036"
     inkscape:cy="272.83139"
     inkscape:window-width="1312"
     inkscape:window-height="449"
     inkscape:window-x="0"
     inkscape:window-y="23"
     inkscape:window-maximized="0"
     inkscape:current-layer="svg30" />
  <g
     id="g2"
     transform="scale(0.49999999)">
    <g
       id="g1"
       transform="translate(4.7e-5,-2.3974998e-5)">
      <g
         id="g31"
         transform="scale(1,0.99895823)">
        <g
           stroke-width="4.21978"
           id="g30">
          <path
             d="M 210.98896,126.59349 V 42.197886 h -42.1978 V 8.4e-5 H 42.197755 V 42.197886 H -4.7e-5 v 84.395604 295.38461 84.39561 h 42.197802 v 42.1978 h 84.395605 42.1978 168.79121 v -42.1978 h 42.1978 V 421.9781 337.5825 h -42.1978 V 295.3847 H 210.98896 Z"
             id="path1" />
          <path
             d="m 42.197755,506.37371 h 84.395605 42.1978 168.79121 V 421.9781 H 168.79116 V 126.59349 H 42.197755 Z"
             fill="#666666"
             id="path2" />
          <path
             d="m 42.197755,421.9781 h 84.395605 42.1978 168.79121 V 337.5825 H 168.79116 V 42.19789 H 42.197755 Z"
             fill="#ffffff"
             id="path3" />
          <path
             d="m 717.36281,506.37371 h 42.1978 V 421.9781 168.79129 84.395688 h -42.1978 V 42.197886 H 675.165 V 8.4e-5 H 421.97819 v 42.197802 h -42.1978 v 42.197802 h -42.1978 v 84.395602 253.18681 84.39561 h 42.1978 v 42.1978 H 506.3738 v -42.1978 h 42.1978 42.1978 v 42.1978 h 126.59341 z"
             id="path4" />
          <path
             d="m 675.165,168.79125 v -42.1978 H 421.97819 v 42.1978 h -42.1978 V 506.37367 H 506.3738 v -84.39561 h 84.3956 v 84.39561 H 717.36281 V 168.79125 Z M 506.3738,337.58246 V 210.98905 h 84.3956 v 126.59341 z"
             fill="#666666"
             id="path5" />
          <path
             d="M 675.165,84.39565 V 42.19785 H 421.97819 v 42.1978 h -42.1978 V 421.97806 H 506.3738 v -84.3956 h 84.3956 v 84.3956 H 717.36281 V 84.39565 Z M 506.3738,253.18686 V 126.59345 h 84.3956 v 126.59341 z"
             fill="#ffffff"
             id="path6" />
          <path
             d="m 717.36277,464.17585 h 42.19781 v 42.1978 h 42.1978 v 42.1978 h 253.18682 v -42.1978 h 42.1978 v -42.1978 h 42.1978 v -84.39561 -42.1978 -84.3956 -84.39561 -84.395602 H 1097.143 V 42.197826 h -42.1978 V 2.4e-5 H 801.75838 v 42.197802 h -42.1978 v 42.197802 h -42.19781 v 84.395602 42.1978 84.39561 84.3956 z"
             id="path7" />
          <path
             d="m 801.75838,168.79123 h -42.1978 v 126.59341 h 42.1978 v 42.1978 h 84.3956 v 42.1978 h 84.39561 v 42.1978 h -84.39561 v -42.1978 h -126.5934 v 84.39561 h 42.1978 v 42.1978 h 253.18682 v -42.1978 h 42.1978 V 337.58244 h -42.1978 v -42.1978 h -84.39561 v -42.1978 h -84.39561 v -42.19781 h 84.39561 v 42.19781 H 1097.143 v -84.39561 h -42.1978 v -42.1978 H 801.75838 Z"
             fill="#666666"
             id="path8" />
          <path
             d="m 801.75838,84.39563 h -42.1978 v 126.5934 h 42.1978 v 42.19781 h 84.3956 v 42.1978 h 84.39561 v 42.1978 h -84.39561 v -42.1978 h -126.5934 v 84.3956 h 42.1978 v 42.1978 h 253.18682 v -42.1978 h 42.1978 v -126.5934 h -42.1978 v -42.19781 h -84.39561 v -42.1978 h -84.39561 v -42.1978 h 84.39561 v 42.1978 H 1097.143 v -84.3956 h -42.1978 V 42.19783 H 801.75838 Z"
             fill="#ffffff"
             id="path9" />
          <path
             d="m 1350.3298,506.37365 h 42.1978 v -84.39561 -168.7912 h 42.1978 v -42.19781 h 42.1978 v -84.3956 -84.395604 h -42.1978 V 2.4e-5 h -295.3846 v 42.197802 h -42.1978 v 84.395604 84.3956 h 42.1978 v 42.19781 h 42.1978 v 168.7912 84.39561 h 42.1978 v 42.1978 h 126.5934 z"
             id="path10" />
          <path
             d="m 1223.7364,210.98903 v 295.38462 h 126.5934 V 210.98903 h 84.3956 v -84.3956 h -295.3846 v 84.3956 z"
             fill="#666666"
             id="path11" />
          <path
             d="m 1223.7364,126.59343 v 295.38461 h 126.5934 V 126.59343 h 84.3956 v -84.3956 h -295.3846 v 84.3956 z"
             fill="#ffffff"
             id="path12" />
          <path
             d="m 1898.9011,2.4e-5 h -168.7912 -42.1978 -84.3956 v 42.197802 h -42.1978 v 84.395604 295.38461 84.39561 h 42.1978 v 42.1978 h 126.5934 v -42.1978 h 42.1978 v -42.1978 h 84.3956 v -42.19781 h 42.1978 42.1978 v -42.1978 h 42.1978 V 295.38464 168.79123 84.395628 h -42.1978 V 42.197826 h -42.1978 z"
             id="path13" />
          <path
             d="m 1730.1099,421.978 h 126.5934 v -42.1978 h 84.3956 V 168.79119 h -42.1978 v -42.1978 h -168.7912 -42.1978 -84.3956 v 379.78022 h 126.5934 z m 84.3956,-210.98901 v 84.39561 h -42.1978 v 42.1978 h -42.1978 V 210.98899 Z"
             fill="#666666"
             id="path14" />
          <path
             d="m 1730.1099,337.5824 h 126.5934 v -42.1978 h 84.3956 V 84.39559 h -42.1978 v -42.1978 h -168.7912 -42.1978 -84.3956 V 421.978 h 126.5934 z m 84.3956,-210.98901 v 84.3956 h -42.1978 v 42.19781 h -42.1978 V 126.59339 Z"
             fill="#ffffff"
             id="path15" />
          <path
             d="m 2109.8901,548.57151 h 168.7912 v -42.1978 h 42.1978 V 421.9781 337.5825 h -42.1978 V 295.3847 H 2152.0879 V 126.59349 42.197886 h -42.1978 V 8.4e-5 h -126.5934 v 42.197802 h -42.1978 v 84.395604 295.38461 84.39561 h 42.1978 v 42.1978 h 84.3956 z"
             id="path16" />
          <path
             d="m 2067.6923,506.37371 h 42.1978 168.7912 V 421.9781 H 2109.8901 V 126.59349 h -126.5934 v 379.78022 z"
             fill="#666666"
             id="path17" />
          <path
             d="m 2067.6923,421.9781 h 42.1978 168.7912 V 337.5825 H 2109.8901 V 42.19789 H 1983.2967 V 421.9781 Z"
             fill="#ffffff"
             id="path18" />
          <path
             d="m 2363.0769,42.197886 h -42.1978 v 42.197802 h -42.1978 v 84.395602 253.18681 84.39561 h 42.1978 v 42.1978 h 126.5934 v -42.1978 h 42.1978 42.1979 v 42.1978 h 126.5934 v -42.1978 h 42.1978 V 421.9781 168.79129 84.395688 h -42.1978 V 42.197886 h -42.1978 V 8.4e-5 h -253.1869 z"
             id="path19" />
          <path
             d="m 2616.2638,168.79125 v -42.1978 h -253.1869 v 42.1978 h -42.1978 v 337.58242 h 126.5934 v -84.39561 h 84.3957 v 84.39561 h 126.5934 V 168.79125 Z M 2447.4725,337.58246 V 210.98905 h 84.3957 v 126.59341 z"
             fill="#666666"
             id="path20" />
          <path
             d="m 2616.2638,84.39565 v -42.1978 h -253.1869 v 42.1978 h -42.1978 v 337.58241 h 126.5934 v -84.3956 h 84.3957 v 84.3956 h 126.5934 V 84.39565 Z M 2447.4725,253.18686 V 126.59345 h 84.3957 v 126.59341 z"
             fill="#ffffff"
             id="path21" />
          <path
             d="m 2785.055,379.78024 v 42.1978 84.39561 h 42.1978 v 42.1978 h 126.5934 v -42.1978 h 42.1978 v -84.39561 -42.1978 -42.1978 h 42.1978 v -42.1978 h 42.1978 v -42.1978 h 42.1978 v -84.39561 -42.1978 -84.395604 h -42.1978 V 2.4e-5 h -126.5934 v 42.197802 h -42.1978 v 84.395604 h -42.1978 V 42.197826 h -42.1978 V 2.4e-5 h -126.5934 v 42.197802 h -42.1978 v 84.395604 42.1978 84.39561 h 42.1978 v 42.1978 h 42.1978 v 42.1978 h 42.1978 z"
             id="path22" />
          <path
             d="M 3080.4396,253.18684 V 126.59343 h -126.5934 v 126.59341 h -84.3956 -42.1978 V 126.59343 h -126.5934 v 126.59341 h 42.1978 v 42.1978 h 42.1978 v 42.1978 h 42.1978 v 168.79121 h 126.5934 V 337.58244 h 42.1978 v -42.1978 h 42.1978 v -42.1978 z"
             fill="#666666"
             id="path23" />
          <path
             d="M 3080.4396,168.79123 V 42.19783 h -126.5934 v 126.5934 h -84.3956 -42.1978 V 42.19783 h -126.5934 v 126.5934 h 42.1978 v 42.1978 h 42.1978 v 42.19781 h 42.1978 v 168.7912 h 126.5934 v -168.7912 h 42.1978 v -42.19781 h 42.1978 v -42.1978 z"
             fill="#ffffff"
             id="path24" />
          <path
             d="m 3249.2308,8.4e-5 h -42.1978 -84.3956 v 42.197802 h -42.1979 v 84.395604 295.38461 84.39561 h 42.1979 v 42.1978 h 84.3956 42.1978 168.7912 v -42.1978 h 42.1978 V 421.9781 337.5825 h -42.1978 v -42.1978 -42.1978 -42.19781 h 42.1978 V 126.59349 42.197886 H 3418.022 V 8.4e-5 Z"
             id="path25" />
          <path
             d="m 3249.2308,379.7803 h 126.5934 v -84.3956 h -126.5934 v -84.39561 h 168.7912 v -84.3956 h -168.7912 -42.1978 -84.3956 v 379.78022 h 84.3956 42.1978 168.7912 V 421.9781 h -168.7912 z"
             fill="#666666"
             id="path26" />
          <path
             d="m 3249.2308,295.3847 h 126.5934 v -84.39561 h -126.5934 v -84.3956 h 168.7912 v -84.3956 h -168.7912 -42.1978 -84.3956 V 421.9781 h 84.3956 42.1978 168.7912 v -84.3956 h -168.7912 z"
             fill="#ffffff"
             id="path27" />
          <path
             d="M 3840,168.79129 V 84.395688 h -42.1978 V 42.197886 h -42.1978 V 8.4e-5 h -168.7912 -84.3956 -42.1978 v 42.197802 h -42.1978 v 84.395604 295.38461 84.39561 h 42.1978 v 42.1978 h 42.1978 84.3956 126.5934 v -42.1978 h 42.1978 42.1978 v -42.1978 H 3840 V 379.7803 Z"
             id="path28" />
          <path
             d="m 3755.6044,168.79125 v -42.1978 h -168.7912 -84.3956 -42.1978 v 379.78022 h 42.1978 84.3956 126.5934 v -42.1978 h 84.3956 V 168.79125 Z m -168.7912,42.1978 h 84.3956 v 168.79121 h -42.1978 v 42.1978 h -42.1978 z"
             fill="#666666"
             id="path29" />
          <path
             d="m 3755.6044,84.39565 v -42.1978 h -168.7912 -84.3956 -42.1978 v 379.78021 h 42.1978 84.3956 126.5934 v -42.1978 h 84.3956 V 84.39565 Z m -168.7912,42.1978 h 84.3956 v 168.79121 h -42.1978 v 42.1978 h -42.1978 z"
             fill="#ffffff"
             id="path30" />
        </g>
      </g>
    </g>
  </g>
</svg>
