<svg height="274" viewBox="0 0 1920 274" width="1920" xmlns="http://www.w3.org/2000/svg"><g stroke-width="4.21978" transform="matrix(.49999999 0 0 .49947910501 .0000235 -.000012)"><path d="m210.98896 126.59349v-84.395604h-42.1978v-42.197802h-126.593405v42.197802h-42.197802v84.395604 295.38461 84.39561h42.197802v42.1978h84.395605 42.1978 168.79121v-42.1978h42.1978v-84.39561-84.3956h-42.1978v-42.1978h-126.59341z"/><path d="m42.197755 506.37371h84.395605 42.1978 168.79121v-84.39561h-168.79121v-295.38461h-126.593405z" fill="#666"/><path d="m42.197755 421.9781h84.395605 42.1978 168.79121v-84.3956h-168.79121v-295.38461h-126.593405z" fill="#fff"/><path d="m717.36281 506.37371h42.1978v-84.39561-253.18681-84.395602h-42.1978v-42.197802h-42.19781v-42.197802h-253.18681v42.197802h-42.1978v42.197802h-42.1978v84.395602 253.18681 84.39561h42.1978v42.1978h126.59341v-42.1978h42.1978 42.1978v42.1978h126.59341z"/><path d="m675.165 168.79125v-42.1978h-253.18681v42.1978h-42.1978v337.58242h126.59341v-84.39561h84.3956v84.39561h126.59341v-337.58242zm-168.7912 168.79121v-126.59341h84.3956v126.59341z" fill="#666"/><path d="m675.165 84.39565v-42.1978h-253.18681v42.1978h-42.1978v337.58241h126.59341v-84.3956h84.3956v84.3956h126.59341v-337.58241zm-168.7912 168.79121v-126.59341h84.3956v126.59341z" fill="#fff"/><path d="m717.36277 464.17585h42.19781v42.1978h42.1978v42.1978h253.18682v-42.1978h42.1978v-42.1978h42.1978v-84.39561-42.1978-84.3956-84.39561-84.395602h-42.1978v-42.197802h-42.1978v-42.197802h-253.18682v42.197802h-42.1978v42.197802h-42.19781v84.395602 42.1978 84.39561 84.3956z"/><path d="m801.75838 168.79123h-42.1978v126.59341h42.1978v42.1978h84.3956v42.1978h84.39561v42.1978h-84.39561v-42.1978h-126.5934v84.39561h42.1978v42.1978h253.18682v-42.1978h42.1978v-126.59341h-42.1978v-42.1978h-84.39561v-42.1978h-84.39561v-42.19781h84.39561v42.19781h126.59341v-84.39561h-42.1978v-42.1978h-253.18682z" fill="#666"/><path d="m801.75838 84.39563h-42.1978v126.5934h42.1978v42.19781h84.3956v42.1978h84.39561v42.1978h-84.39561v-42.1978h-126.5934v84.3956h42.1978v42.1978h253.18682v-42.1978h42.1978v-126.5934h-42.1978v-42.19781h-84.39561v-42.1978h-84.39561v-42.1978h84.39561v42.1978h126.59341v-84.3956h-42.1978v-42.1978h-253.18682z" fill="#fff"/><path d="m1350.3298 506.37365h42.1978v-84.39561-168.7912h42.1978v-42.19781h42.1978v-84.3956-84.395604h-42.1978v-42.197802h-295.3846v42.197802h-42.1978v84.395604 84.3956h42.1978v42.19781h42.1978v168.7912 84.39561h42.1978v42.1978h126.5934z"/><path d="m1223.7364 210.98903v295.38462h126.5934v-295.38462h84.3956v-84.3956h-295.3846v84.3956z" fill="#666"/><path d="m1223.7364 126.59343v295.38461h126.5934v-295.38461h84.3956v-84.3956h-295.3846v84.3956z" fill="#fff"/><path d="m1898.9011.000024h-168.7912-42.1978-84.3956v42.197802h-42.1978v84.395604 295.38461 84.39561h42.1978v42.1978h126.5934v-42.1978h42.1978v-42.1978h84.3956v-42.19781h42.1978 42.1978v-42.1978h42.1978v-84.3956-126.59341-84.395602h-42.1978v-42.197802h-42.1978z"/><path d="m1730.1099 421.978h126.5934v-42.1978h84.3956v-210.98901h-42.1978v-42.1978h-168.7912-42.1978-84.3956v379.78022h126.5934zm84.3956-210.98901v84.39561h-42.1978v42.1978h-42.1978v-126.59341z" fill="#666"/><path d="m1730.1099 337.5824h126.5934v-42.1978h84.3956v-210.98901h-42.1978v-42.1978h-168.7912-42.1978-84.3956v379.78021h126.5934zm84.3956-210.98901v84.3956h-42.1978v42.19781h-42.1978v-126.59341z" fill="#fff"/><path d="m2109.8901 548.57151h168.7912v-42.1978h42.1978v-84.39561-84.3956h-42.1978v-42.1978h-126.5934v-168.79121-84.395604h-42.1978v-42.197802h-126.5934v42.197802h-42.1978v84.395604 295.38461 84.39561h42.1978v42.1978h84.3956z"/><path d="m2067.6923 506.37371h42.1978 168.7912v-84.39561h-168.7912v-295.38461h-126.5934v379.78022z" fill="#666"/><path d="m2067.6923 421.9781h42.1978 168.7912v-84.3956h-168.7912v-295.38461h-126.5934v379.78021z" fill="#fff"/><path d="m2363.0769 42.197886h-42.1978v42.197802h-42.1978v84.395602 253.18681 84.39561h42.1978v42.1978h126.5934v-42.1978h42.1978 42.1979v42.1978h126.5934v-42.1978h42.1978v-84.39561-253.18681-84.395602h-42.1978v-42.197802h-42.1978v-42.197802h-253.1869z"/><path d="m2616.2638 168.79125v-42.1978h-253.1869v42.1978h-42.1978v337.58242h126.5934v-84.39561h84.3957v84.39561h126.5934v-337.58242zm-168.7913 168.79121v-126.59341h84.3957v126.59341z" fill="#666"/><path d="m2616.2638 84.39565v-42.1978h-253.1869v42.1978h-42.1978v337.58241h126.5934v-84.3956h84.3957v84.3956h126.5934v-337.58241zm-168.7913 168.79121v-126.59341h84.3957v126.59341z" fill="#fff"/><path d="m2785.055 379.78024v42.1978 84.39561h42.1978v42.1978h126.5934v-42.1978h42.1978v-84.39561-42.1978-42.1978h42.1978v-42.1978h42.1978v-42.1978h42.1978v-84.39561-42.1978-84.395604h-42.1978v-42.197802h-126.5934v42.197802h-42.1978v84.395604h-42.1978v-84.395604h-42.1978v-42.197802h-126.5934v42.197802h-42.1978v84.395604 42.1978 84.39561h42.1978v42.1978h42.1978v42.1978h42.1978z"/><path d="m3080.4396 253.18684v-126.59341h-126.5934v126.59341h-84.3956-42.1978v-126.59341h-126.5934v126.59341h42.1978v42.1978h42.1978v42.1978h42.1978v168.79121h126.5934v-168.79121h42.1978v-42.1978h42.1978v-42.1978z" fill="#666"/><path d="m3080.4396 168.79123v-126.5934h-126.5934v126.5934h-84.3956-42.1978v-126.5934h-126.5934v126.5934h42.1978v42.1978h42.1978v42.19781h42.1978v168.7912h126.5934v-168.7912h42.1978v-42.19781h42.1978v-42.1978z" fill="#fff"/><path d="m3249.2308.000084h-42.1978-84.3956v42.197802h-42.1979v84.395604 295.38461 84.39561h42.1979v42.1978h84.3956 42.1978 168.7912v-42.1978h42.1978v-84.39561-84.3956h-42.1978v-42.1978-42.1978-42.19781h42.1978v-84.3956-84.395604h-42.1978v-42.197802z"/><path d="m3249.2308 379.7803h126.5934v-84.3956h-126.5934v-84.39561h168.7912v-84.3956h-168.7912-42.1978-84.3956v379.78022h84.3956 42.1978 168.7912v-84.39561h-168.7912z" fill="#666"/><path d="m3249.2308 295.3847h126.5934v-84.39561h-126.5934v-84.3956h168.7912v-84.3956h-168.7912-42.1978-84.3956v379.78021h84.3956 42.1978 168.7912v-84.3956h-168.7912z" fill="#fff"/><path d="m3840 168.79129v-84.395602h-42.1978v-42.197802h-42.1978v-42.197802h-168.7912-84.3956-42.1978v42.197802h-42.1978v84.395604 295.38461 84.39561h42.1978v42.1978h42.1978 84.3956 126.5934v-42.1978h42.1978 42.1978v-42.1978h42.1978v-84.39561z"/><path d="m3755.6044 168.79125v-42.1978h-168.7912-84.3956-42.1978v379.78022h42.1978 84.3956 126.5934v-42.1978h84.3956v-295.38462zm-168.7912 42.1978h84.3956v168.79121h-42.1978v42.1978h-42.1978z" fill="#666"/><path d="m3755.6044 84.39565v-42.1978h-168.7912-84.3956-42.1978v379.78021h42.1978 84.3956 126.5934v-42.1978h84.3956v-295.38461zm-168.7912 42.1978h84.3956v168.79121h-42.1978v42.1978h-42.1978z" fill="#fff"/></g></svg>