<svg enable-background="new 0 0 3839 1272.2" height="636" viewBox="0 0 1920 636" width="1920" xmlns="http://www.w3.org/2000/svg"><g fill="#fff" transform="scale(.50013024 .499921385)"><path d="m2345.7 176.3h50.4v160.2h-50.4z"/><path d="m1448.8 176.3h50.4v159.9h-50.4z"/><path d="m928.8 176.3v45.5 34.7 37.5 42.4h50.3v-42.4h155.3v-37.5h-155.3v-34.7h155.3v-45.5h-155.3z"/><path d="m2250.9 233.7h-122v-57.4h-50.3v57.4 45.6 57.1h50.3v-57.1h122v56.8h50.4v-56.8-45.6-57.4h-50.4z"/><path d="m2843.8 176.3h-145.9-32.2v159.9h32.2v.4h145.9c30.1 0 54.5-21.4 54.5-71.7v-6.9-3-7c-.1-50.3-24.4-71.7-54.5-71.7zm8.2 79.8v.4 7.4c0 17.8-10.7 27-23.8 27h-112.1v-69h112.1c13.2 0 23.8 9.1 23.8 27z"/><path d="m2490.9 176.3h-50.5v114.2 45.6.3h50.5v-.3h155.2v-45.6h-155.2z"/><path d="m1983.4 176.3h-115.6c-34.5 0-62.5 28-62.5 62.5v34.9c0 34.5 28 62.5 62.5 62.5h115.6c34.5 0 62.5-28 62.5-62.5v-1.9h-50.4v.4c0 10.2-8.2 18.4-18.4 18.4h-102.9c-10.2 0-18.4-8.2-18.4-18.4v-31.8c0-10.2 8.2-18.4 18.4-18.4h102.9c10.2 0 18.4 8.2 18.4 18.4v.4h50.4v-1.9c0-34.7-28-62.6-62.5-62.6z"/><path d="m1773.9 254.2v-29.5c0-26.8-21.7-48.5-48.5-48.5h-169.4-12.5v159.9h50.4v-42.1h84l40.2 42.1h62.7l-40.7-42.5c19.1-3 33.8-19.5 33.8-39.4zm-63.6 2.3h-116.4v-34.7h116.4c9.6 0 17.4 7.8 17.4 17.4s-7.8 17.3-17.4 17.3z"/><path d="m1325.3 176.3h-40.4-4.8-50.4-.4l-92.9 160.2h60.8l22-42.4h126.8l22 42.4h60.8l-93-160.2zm-86.8 80.2 18-34.7h52.1l18 34.7z"/><path d="m928.8 0h1969.5v134.4h-1969.5z"/><path d="m928.8 378.3h1969.5v134.4h-1969.5z"/><path d="m2053.3 948.5-198.8-271.2h-101.8v502.1h127.3v-251.9l184.7 251.9h115.8v-502.1h-127.2z"/><path d="m1583.4 948.5-198.9-271.2h-101.7v502.1h127.2v-251.9l184.8 251.9h115.9v-502.1h-127.3z"/><path d="m2248.6 677.3h-26v502.1h26 254.2v-127.4h-152.8v-56h152.8v-127.3h-152.8v-64.1h152.8v-127.4h-254.2z"/><path d="m2672.2 1052.1v-374.8h-127.4v502.1h15.7v.1h254.3v-127.4z"/><path d="m1113.4 677.3h-99.8l-202 425.8v-425.8h-127.3v183.4h-142.6v-183.4h-127.4v502.1h127.4v-191.5h142.7v191.5h91.1 36.2 106l87.1-183.5h108.8v183.5h127.3v-502.1h-84.9zm-48.4 191.4 48.4-102v102z"/><path d="m263.3 1060.8c-78.8 0-131.7-55.5-131.7-132.3 0-75.5 52.3-134.9 129.7-134.9 43.2 0 85.2 18.8 111 53.6l-.1-151.6c-37.4-15.5-74.9-24.5-115.5-24.5-68.4 0-137.4 29.7-185.2 78.7-46.3 47.8-71.5 111.7-71.5 178.2 0 72.3 24.5 135.5 78.3 184 50.3 45.8 114.8 71.6 182.6 71.6 39.3 0 69.6-9.7 111.6-22.6v-151.7c-26.6 31.5-67.9 51.5-109.2 51.5z"/><path d="m3367 1272.2c-56.3 0-249.4-2.7-372.7-36.8-31.7-8.8-56.7-34.1-65.4-66.1-12.6-46.7-33.9-140.2-33.9-242s21.2-195.3 33.9-241.9c8.7-32 33.7-57.3 65.4-66 123.2-34.2 316.4-36.8 372.7-36.8s249.5 2.7 372.7 36.8c31.7 8.8 56.7 34.1 65.4 66 12.7 46.7 33.9 140.2 33.9 241.9 0 101.9-21.2 195.3-33.9 242-8.7 32-33.7 57.3-65.4 66.1-123.1 34.1-316.4 36.8-372.7 36.8zm0-665.7c-55.5 0-246 2.6-366.3 35.9-23.5 6.5-42.1 25.4-48.6 49.2-12.3 45.5-33.1 136.7-33.1 235.7s20.7 190.2 33.1 235.7c6.5 23.8 25.1 42.7 48.6 49.2 120.3 33.3 310.7 35.9 366.3 35.9s245.9-2.6 366.3-35.9c23.5-6.5 42.1-25.4 48.6-49.2 12.3-45.5 33.1-136.7 33.1-235.7s-20.7-190.2-33.1-235.7c-6.4-23.8-25.1-42.7-48.6-49.2-120.2-33.3-310.7-35.9-366.3-35.9z"/><path d="m3526.4 777.4v-127.7h-191.1-127.6v127.7 427.6h127.6v-209.8h191.1v-127.6h-191.1v-90.2z"/></g></svg>