<?xml version="1.0" encoding="UTF-8" standalone="no"?>
<svg
   enable-background="new 0 0 3840 1163"
   viewBox="0 0 1920 582"
   version="1.1"
   id="svg16"
   sodipodi:docname="coco.svg"
   width="1920"
   height="582"
   inkscape:version="1.3.2 (091e20e, 2023-11-25)"
   xmlns:inkscape="http://www.inkscape.org/namespaces/inkscape"
   xmlns:sodipodi="http://sodipodi.sourceforge.net/DTD/sodipodi-0.dtd"
   xmlns="http://www.w3.org/2000/svg"
   xmlns:svg="http://www.w3.org/2000/svg">
  <defs
     id="defs16" />
  <sodipodi:namedview
     id="namedview16"
     pagecolor="#ffffff"
     bordercolor="#000000"
     borderopacity="0.25"
     inkscape:showpageshadow="2"
     inkscape:pageopacity="0.0"
     inkscape:pagecheckerboard="0"
     inkscape:deskcolor="#d1d1d1"
     inkscape:zoom="0.20292347"
     inkscape:cx="1921.9068"
     inkscape:cy="581.50001"
     inkscape:window-width="1312"
     inkscape:window-height="449"
     inkscape:window-x="0"
     inkscape:window-y="23"
     inkscape:window-maximized="0"
     inkscape:current-layer="svg16" />
  <g
     id="g1"
     transform="scale(0.5)">
    <g
       id="g17"
       transform="scale(1,1.0008335)">
      <g
         fill="#ffffff"
         id="g16">
        <path
           d="M 1187.4,113.9 H 1343 v 390.6 h -155.6 z"
           id="path1" />
        <path
           d="m 2009.9,170.5 v 125.1 c 0,29.4 -23.8,53.2 -53.2,53.2 h -43 v 155.6 h 81.3 c 94.2,0 170.5,-76.4 170.5,-170.5 v -125 c 0,-29.4 23.8,-53.2 53.2,-53.2 h 43 V 0 h -81.3 c -94.2,0 -170.5,76.4 -170.5,170.5 z"
           id="path2" />
        <path
           d="M 2431.3,113.9 V 0 h -155.6 v 504.5 h 155.6 V 258.2 c 0,-11.5 9.3,-20.9 20.9,-20.9 11.5,0 20.9,9.3 20.9,20.9 v 246.3 h 155.6 V 225.4 c 0,-61.6 -49.9,-111.5 -111.5,-111.5 z"
           id="path3" />
        <path
           d="m 3840,504.5 -85.9,-225.4 75.9,-116 H 3665.7 L 3596.3,269 V 0 h -123.4 v 504.5 h 123.4 V 398.3 c 0,-19.7 27.3,-24.7 34.3,-6.3 l 42.9,112.5 z"
           id="path4" />
        <path
           d="m 1003.6,0 v 113.9 h -58.3 c -107.9,0 -195.3,87.4 -195.3,195.3 0,107.9 87.4,195.3 195.3,195.3 h 58.3 58.1 83.9 V 0 Z m -55.8,428.9 c -34.4,0 -62.3,-27.9 -62.3,-62.3 0,-34.4 27.9,-62.3 62.3,-62.3 34.4,0 62.3,27.9 62.3,62.3 0,34.4 -27.9,62.3 -62.3,62.3 z"
           id="path5" />
        <path
           d="M 616.1,113.9 H 410.2 v 123.4 h 123.9 c 8.9,0 16.1,7.2 16.1,16.1 0,8.9 -7.2,16.1 -16.1,16.1 H 488 c -64,0 -118.1,50.2 -119.9,114.2 -1.8,66.4 51.5,120.8 117.4,120.8 h 64.8 21.7 113.9 20 21.7 V 225.4 c 0,-61.6 -49.9,-111.5 -111.5,-111.5 z m -83.8,315 c -34.4,0 -62.3,-27.9 -62.3,-62.3 0,-34.4 27.9,-62.3 62.3,-62.3 34.4,0 62.3,27.9 62.3,62.3 0,34.4 -27.9,62.3 -62.3,62.3 z"
           id="path6" />
        <path
           d="m 2899.4,113.9 h -205.9 v 123.4 h 123.9 c 8.9,0 16.1,7.2 16.1,16.1 0,8.9 -7.2,16.1 -16.1,16.1 h -46.2 c -64,0 -118.1,50.2 -119.9,114.2 -1.8,66.4 51.5,120.8 117.4,120.8 h 64.8 21.7 113.9 20 21.7 V 225.4 c 0.1,-61.6 -49.8,-111.5 -111.4,-111.5 z m -83.8,315 c -34.4,0 -62.3,-27.9 -62.3,-62.3 0,-34.4 27.9,-62.3 62.3,-62.3 34.4,0 62.3,27.9 62.3,62.3 0,34.4 -27.9,62.3 -62.3,62.3 z"
           id="path7" />
        <path
           d="M 279.4,290.4 C 337.3,269.8 378.7,214.5 378.7,149.5 378.7,66.9 311.8,0 229.2,0 226.1,0 0,0 0,0 v 504.5 h 142 v -97.3 c 0,-17.9 24.4,-23.4 32,-7.1 l 49,104.4 h 157 z m -113.3,36.8 c -34.4,0 -62.3,-27.9 -62.3,-62.3 0,-34.4 27.9,-62.3 62.3,-62.3 34.4,0 62.3,27.9 62.3,62.3 0,34.4 -27.9,62.3 -62.3,62.3 z"
           id="path8" />
        <path
           d="m 1577.9,98.7 c -116.3,0 -210.6,94.3 -210.6,210.6 0,116.3 94.3,210.6 210.6,210.6 116.3,0 210.6,-94.3 210.6,-210.6 0,-116.3 -94.3,-210.6 -210.6,-210.6 z m 0,330.2 c -34.4,0 -62.3,-27.9 -62.3,-62.3 0,-34.4 27.9,-62.3 62.3,-62.3 34.4,0 62.3,27.9 62.3,62.3 0,34.4 -27.8,62.3 -62.3,62.3 z"
           id="path9" />
        <path
           d="m 3302.1,389 c -9,23.3 -31.6,39.9 -58.1,39.9 -34.4,0 -62.3,-27.9 -62.3,-62.3 0,-34.4 27.9,-62.3 62.3,-62.3 26.5,0 49.1,16.6 58.1,39.9 h 149.5 c 1.9,-11.4 3,-23.1 3,-35 0,-116.3 -94.3,-210.6 -210.6,-210.6 -116.3,0 -210.6,94.3 -210.6,210.6 0,116.3 94.3,210.6 210.6,210.6 88,0 163.4,-54.1 194.9,-130.8 z"
           id="path10" />
        <path
           d="m 394.5,770.8 v 384.4 H 229.7 V 770.8 H 0 V 639.3 h 624.2 v 131.5 z"
           id="path11" />
        <path
           d="m 1328.9,913.8 c -17,29.4 -47.2,36.4 -78.9,41.8 78.1,5.4 90.5,43.3 90.5,115.3 v 84.3 h -154.7 c 0,-30.9 1.6,-63.4 -4.6,-93.6 -7,-34 -30.9,-37.1 -61.9,-37.1 H 860.9 v 130.7 h -157 V 639.3 h 379.8 c 27.8,0 56.5,0.8 84.3,0.8 58.8,0.8 124.5,-5.4 159.3,52.6 20.1,33.3 18.6,79.7 18.6,116.8 0,34 0.8,74.2 -17,104.3 z m -205,-145.4 h -263 v 126.9 h 221.2 c 11.6,0 23.2,-0.8 34.8,-0.8 56.5,-1.5 71.9,-3.1 71.9,-65 0.1,-52.6 -13.1,-61.1 -64.9,-61.1 z"
           id="path12" />
        <path
           d="m 2018.9,1121.9 c -37.1,40.2 -118.3,38.7 -168.6,39.4 -40.2,1.6 -80.4,1.6 -120.7,1.6 -67.3,0 -148.5,2.3 -214.2,-12.4 -24.8,-5.4 -46.4,-15.5 -64.2,-33.3 -26.3,-25.5 -29.4,-58.8 -29.4,-93.6 0,-13.2 0.8,-26.3 1.6,-39.5 H 1575 c 0,11.6 0,22.4 3.9,33.3 2.3,7 5.4,11.6 11.6,16.2 14.7,11.6 58.8,10.1 75.8,10.1 22.4,0 44.1,0.8 66.5,0.8 27.8,0 54.9,-0.8 82.8,-0.8 19.3,0 68.1,2.3 81.2,-16.2 5.4,-8.5 5.4,-20.1 5.4,-29.4 0,-39.4 -30.9,-37.9 -62.6,-38.7 -82.8,-2.3 -165.5,-7 -248.3,-10.1 -44.9,-1.5 -102.1,-3.1 -134.6,-39.4 -27.1,-30.2 -29.4,-73.5 -29.4,-112.2 0,-92 24,-150 123,-160.1 66.5,-7 135.4,-6.2 202.6,-6.2 65,0 133.8,-1.5 197.2,13.9 70.4,17.8 85.1,64.2 85.1,131.5 v 24.8 H 1882.8 V 794 c 0,-14.7 -1.6,-25.5 -14.7,-34 -14.7,-10.1 -49.5,-9.3 -66.5,-9.3 h -133.8 c -16.2,0 -61.9,-0.8 -75.8,9.3 -10.1,7 -12.4,19.3 -12.4,30.9 0,9.3 2.3,21.7 10.1,27.8 5.4,4.6 13.2,6.2 20.1,7 17.8,3.1 36.3,3.1 54.1,3.9 34.8,1.6 69.6,3.1 104.4,3.9 59.6,1.6 144.6,0.8 202.7,16.2 18.6,5.4 34.8,13.2 49.5,26.3 31.7,27.8 33.3,81.2 33.3,119.9 -0.1,43.3 -3.9,92.8 -34.9,126 z"
           id="path13" />
        <path
           d="m 3057.9,1129.6 c -51,37.1 -174,31.7 -235.1,31.7 h -70.4 c -63.4,0 -167.8,4.6 -222,-31.7 -36.4,-24.7 -39.5,-74.2 -39.5,-114.5 0,-34 3.1,-70.4 27.8,-95.9 18.6,-19.3 47.2,-23.2 72.7,-27.8 -11.6,-0.8 -24,-1.5 -35.6,-4.6 -51.8,-13.9 -58.8,-65 -58.8,-111.4 0,-75 22.4,-119.1 100.5,-131.5 64.2,-10.1 131.5,-10.8 196.5,-10.8 35.6,0 71.2,0.8 106.7,2.3 45.6,2.3 110.6,3.9 149.3,30.2 35.6,24 41,72.7 41,112.1 0,30.2 -3.9,65 -24,88.2 -18.6,21.7 -43.3,24 -70.4,25.5 27.8,4.6 51.8,7.7 72.7,27.8 27.1,25.5 27.8,70.4 27.8,105.2 0.3,38.7 -5.1,81.3 -39.2,105.2 z M 2938,961.8 c -11.6,-11.6 -54.1,-10.8 -68.8,-10.8 -27.8,-0.8 -55.7,-1.6 -83.5,-1.6 -25.5,0 -116,-2.3 -133,10.1 -11.6,8.5 -11.6,27.8 -11.6,41 0,11.6 0.8,24.7 10.1,33.3 17.8,15.5 112.9,11.6 135.4,11.6 27.1,0 54.1,-0.8 81.2,-1.5 19.3,0 65.7,2.3 75.8,-20.1 3.9,-8.5 3.9,-20.1 3.9,-29.4 -0.2,-10.9 -0.9,-24.9 -9.5,-32.6 z m -68.8,-211.2 c -30.9,-0.8 -61.1,-1.5 -92,-1.5 -31.7,0 -65,-0.8 -96.7,3.9 -26.3,3.9 -33.3,17.8 -33.3,43.3 0,27.1 9.3,36.3 35.6,39.4 54.9,5.4 113.7,3.1 168.6,3.1 17.8,0 69.6,0 82,-12.4 7.7,-7.7 7.7,-22.4 7.7,-32.5 0,-44.8 -36.3,-42.5 -71.9,-43.3 z"
           id="path14" />
        <path
           d="m 3724.7,1152.1 c -61.9,10.1 -145.4,9.3 -208.1,9.3 -38.7,0 -76.6,-0.8 -115.3,-1.5 -85.1,-1.6 -184.1,-4.6 -202.6,-107.5 -8.5,-48 -6.2,-106 -6.2,-154.7 0,-30.9 0,-61.1 0.8,-92 0.8,-43.3 3.9,-92.8 35.6,-126.1 20.9,-21.7 50.3,-32.5 79.7,-37.1 61.9,-10.1 144.6,-9.3 208.1,-9.3 37.9,0 76.6,1.5 114.5,2.3 132.3,3.1 208.8,17 208.8,170.2 v 184.1 c 0,85.7 -21.7,146.8 -115.3,162.3 z m -75,-375.2 c -17.8,-7.7 -44.1,-8.5 -63.4,-8.5 -30.9,0 -61.9,-0.8 -93.6,-0.8 -31.7,0 -66.5,-0.8 -97.5,6.2 -9.3,2.3 -18.6,5.4 -25.5,13.2 -20.9,21.7 -19.3,82.8 -19.3,110.6 0,25.5 -1.6,85.9 16.2,106.7 7.7,9.3 17,13.2 28.6,16.2 33.3,7.7 88.2,7.7 123,7 l 68.1,-1.5 c 19.3,-0.8 45.6,-0.8 63.4,-9.3 38.7,-17 33.3,-85.1 33.3,-119.1 0,-34 5.4,-102.9 -33.3,-120.7 z"
           id="path15" />
        <path
           d="m 2162.7,903.5 h 205.2 v 136.8 h -205.2 z"
           id="path16" />
      </g>
    </g>
  </g>
</svg>
