<?xml version="1.0" encoding="UTF-8" standalone="no"?>
<svg
   enable-background="new 0 0 3840 1363.8"
   viewBox="0 0 1920 681.9999"
   version="1.1"
   id="svg24"
   sodipodi:docname="dragon32.svg"
   width="1920"
   height="681.99994"
   inkscape:version="1.3.2 (091e20e, 2023-11-25)"
   xmlns:inkscape="http://www.inkscape.org/namespaces/inkscape"
   xmlns:sodipodi="http://sodipodi.sourceforge.net/DTD/sodipodi-0.dtd"
   xmlns="http://www.w3.org/2000/svg"
   xmlns:svg="http://www.w3.org/2000/svg">
  <defs
     id="defs24" />
  <sodipodi:namedview
     id="namedview24"
     pagecolor="#ffffff"
     bordercolor="#000000"
     borderopacity="0.25"
     inkscape:showpageshadow="2"
     inkscape:pageopacity="0.0"
     inkscape:pagecheckerboard="0"
     inkscape:deskcolor="#d1d1d1"
     inkscape:zoom="0.17304589"
     inkscape:cx="1918.5662"
     inkscape:cy="681.90004"
     inkscape:window-width="1312"
     inkscape:window-height="449"
     inkscape:window-x="0"
     inkscape:window-y="23"
     inkscape:window-maximized="0"
     inkscape:current-layer="svg24" />
  <g
     id="g1"
     transform="scale(0.5)">
    <g
       id="g25"
       transform="scale(0.99997396,1.0001466)">
      <g
         fill="#ffffff"
         id="g24">
        <path
           d="M 299.8,36.3 H 0 v 592.9 h 264.1 c 206.8,0 303.1,-115.4 303.1,-297.3 0,-149.4 -69.7,-295.6 -267.4,-295.6 z m -45.7,441 h -71.4 v -289 h 58.1 c 132,0 143.7,103.8 143.7,141.2 0,55.6 -16.6,147.8 -130.4,147.8 z m 820.5,-122.9 c 60.6,-22.4 88.9,-87.2 88.9,-148.7 C 1163.5,93.6 1073.8,36.3 970,36.3 H 622 V 629.2 H 804.7 V 422.5 h 97.2 c 72.2,0 77.2,59 82.2,115.4 2.5,30.7 5.8,61.5 14.9,91.4 h 182.7 c -16.6,-27.4 -17.4,-98 -19.9,-127.1 -6.7,-73.9 -37.4,-128.7 -87.2,-147.8 z m -174.4,-59 H 804.7 V 177.5 h 85.5 c 69.8,0 90.5,21.6 90.5,59 0,53.1 -46.5,58.9 -80.5,58.9 z M 1427.5,36.3 1209.1,629.2 h 183.5 l 26.6,-84.7 h 188.5 l 24.9,84.7 H 1822 L 1606.1,36.3 Z m 31.6,381.2 57.3,-182.7 h 1.7 l 53.2,182.7 z M 2135,430 h 80.5 c -9.1,44 -52.3,65.6 -94.7,65.6 -111.3,0 -133.7,-97.2 -133.7,-152.8 0,-40.7 -4.2,-172.7 121.2,-172.7 43.2,0 79.7,30.7 86.4,73.9 H 2370 C 2343.5,104.4 2248,22.2 2096.8,22.2 c -133.7,0 -292.3,90.5 -292.3,316.4 0,168.6 108,304.8 283.2,304.8 64.8,0 127.9,-22.4 168.6,-74.7 l 5.8,60.6 h 115.4 V 302.9 H 2135 Z M 2727.1,22.2 c -180.2,0 -300.6,129.5 -300.6,310.6 0,181.1 120.4,310.6 300.6,310.6 180.2,0 300.6,-129.6 300.6,-310.6 0,-181 -120.4,-310.6 -300.6,-310.6 z m 0,473.4 c -46.5,0 -117.9,-30.7 -117.9,-162.8 0,-132.1 71.4,-162.8 117.9,-162.8 46.5,0 117.9,30.7 117.9,162.8 0,132.1 -71.4,162.8 -117.9,162.8 z M 3442.9,36.3 v 317.2 h -1.7 L 3268.5,36.3 h -186.8 v 592.9 h 172.7 V 305.4 h 1.7 L 3438,629.3 h 177.7 v -593 z"
           id="path1" />
        <path
           d="m 514.5,1269.5 -50.1,86.8 h -26.9 l 50.1,-86.8 z"
           id="path2" />
        <path
           d="M 617.1,1091.8 733.8,889.6 c 12.1,-20.9 34.3,-33.7 58.4,-33.7 h 248 l 13.4,-23.3 h -170 -90.8 c -32.7,0 -63.1,17.6 -79.5,45.9 l -44.1,76.3 -1.2,2.2 -77.8,134.7 h 26.9 z"
           id="path3" />
        <path
           d="m 1092.6,765 h -209 -90.8 c -56.9,0 -109.5,30.4 -137.9,79.6 l -44,76.4 -1.3,2.3 -97.3,168.4 h 60.5 L 700.4,870.8 c 19,-33 54.5,-53.4 92.6,-53.4 h 269.6 z"
           id="path4" />
        <path
           d="m 755.4,987.3 h 209 L 1031.6,871 H 792.3 c -18.7,0 -36,10 -45.3,26.2 L 634.6,1091.8 H 695 Z"
           id="path5" />
        <path
           d="m 592.4,1269.5 -50.1,86.8 h -60.5 l 50.1,-86.8 z"
           id="path6" />
        <path
           d="m 409.6,1269.5 -50.1,86.8 H 420 l 50.1,-86.8 z"
           id="path7" />
        <path
           d="m 153.9,987.3 h 142.9 l -19.4,33.6 c -61.3,106.2 15.3,238.9 137.9,238.9 H 1015 l -55.7,96.5 h 60.5 l 40.6,-70.4 c 9.4,-16.2 9.4,-36.2 0,-52.4 -9.4,-16.2 -26.6,-26.2 -45.3,-26.2 H 415.3 c -38.6,0 -73.3,-20 -92.6,-53.5 -19.3,-33.5 -19.3,-73.4 0,-106.9 l 19.4,-33.6 c 9.4,-16.2 9.4,-36.2 0,-52.4 -9.4,-16.2 -26.6,-26.2 -45.3,-26.2 H 123.7 Z"
           id="path8" />
        <path
           d="M 92.7,881.4 H 295 c 38.6,0 73.3,20 92.6,53.5 19.3,33.5 19.3,73.4 0,106.9 l -19.4,33.6 c -9.4,16.2 -9.4,36.2 0,52.4 9.4,16.2 26.6,26.2 45.3,26.2 h 599.7 c 38.6,0 73.3,20 92.6,53.5 17,29.5 19.1,64.1 6,94.8 l -31.3,54.2 h 61.4 l 9.2,-15.9 c 61.3,-106.2 -15.3,-238.9 -137.9,-238.9 H 689.3 506.6 413.5 l 19.4,-33.6 C 494.3,961.7 417.6,829 295,829 h -1.5 L 258.8,863.7 224.1,829 H 62.5 Z"
           id="path9" />
        <path
           d="m 233.9,819.3 24.9,-25 25,25 h 26.4 l -51.4,-51.4 -51.3,51.4 z"
           id="path10" />
        <path
           d="M 79.9,935 0,905.9 46.2,876.8 57.6,896.5 H 295 c 33.2,0 62.9,17.2 79.5,45.9 16.6,28.7 16.6,63 0,91.8 l -19.4,33.6 c -12.1,20.9 -12.1,46.6 0,67.5 12.1,20.9 34.3,33.7 58.4,33.7 h 599.7 c 33.2,0 62.9,17.2 79.5,45.9 16.6,28.7 16.6,63 0,91.8 l -28.7,49.7 h -26.9 l 36.3,-62.8 c 12.1,-20.9 12.1,-46.6 0,-67.5 -12.1,-20.9 -34.3,-33.7 -58.4,-33.7 H 598 415.3 c -33.2,0 -62.9,-17.2 -79.5,-45.9 -16.6,-28.7 -16.6,-63 0,-91.8 l 19.4,-33.6 c 12.1,-20.9 12.1,-46.6 0,-67.5 -12.1,-20.9 -34.3,-33.7 -58.4,-33.7 H 71.3 Z"
           id="path11" />
        <path
           d="m 1900.7,1015 c -9.1,-158.6 89.7,-250 245,-250 140.4,0 235.8,59 235.8,181.9 0,147.8 -144.5,194.3 -253.3,260.8 v 0.8 h 261.6 v 141.2 H 1889 c -3.3,-55.6 13.3,-103.8 41.5,-142.8 48.2,-67.3 131.2,-111.3 205.1,-156.1 29.9,-18.3 78.1,-41.5 78.1,-83.9 0,-52.3 -30.7,-70.6 -69.8,-70.6 -66.4,0 -88.9,48.2 -87.2,118.8 h -156 z"
           id="path12" />
        <path
           d="m 1407.4,964.3 c 0.8,-68.1 28.2,-117.9 72.2,-151.1 44,-32.4 103.8,-48.2 168.6,-48.2 167.8,0 223.4,99.7 223.4,148.7 0,121.2 -76.4,121.2 -76.4,123.7 v 1.7 c 0,6.6 94.7,6.6 94.7,135.4 0,70.6 -53.1,181.9 -242.5,181.9 -259.9,0 -260.8,-182.7 -256.6,-225.9 h 157.8 c -0.8,30.7 6.6,54 22.4,68.9 15.8,19.1 39.9,25.8 68.9,25.8 47.3,0 77.2,-17.4 77.2,-64.8 0,-50.7 -39,-59.8 -77.2,-59.8 -24.1,0 -35.7,2.5 -48.2,4.2 v -113 c 12.5,0.8 25.8,3.3 48.2,3.3 34.9,0 78.9,-7.5 78.9,-52.3 0,-36.5 -41.5,-50.7 -75.6,-50.7 -44.8,0 -81.4,24.1 -79.7,72.2 z"
           id="path13" />
        <path
           d="m 2692.7,742.6 h 126.2 l -232.5,621.2 h -126.2 z"
           id="path14" />
        <path
           d="m 3136.8,926.2 c -3.3,-10.8 -11.6,-22.4 -24.1,-31.6 -11.6,-7.5 -26.6,-10 -44.8,-10 -63.1,0 -94.7,61.5 -100.5,118.8 39,-35.7 81.4,-44.8 133.7,-44.8 111.3,0 193.5,71.4 193.5,184.4 0,142 -99.7,213.4 -237.5,213.4 -175.2,0 -246.6,-132.9 -246.6,-274.9 0,-181.9 83.9,-316.4 260.8,-316.4 124.6,0 199.3,48.2 217.6,161.1 z m -158.6,219.2 c 0,45.7 33.2,79.7 78.9,79.7 49.8,0 84.7,-35.7 84.7,-79.7 0,-40.7 -33.2,-76.4 -84.7,-76.4 -44.8,0 -78.9,33.2 -78.9,76.4 z"
           id="path15" />
        <path
           d="M 3586.9,1235.1 H 3330.3 V 1079 l 264.1,-307.3 h 165.3 v 322.2 h 78.1 v 141.2 h -78.1 v 114.6 H 3587 v -114.6 z m -141.2,-141.2 h 141.2 V 932 Z"
           id="path16" />
        <path
           d="m 3721.5,629.3 v -48.2 c 0,-35.8 26,-51.3 58.1,-51.3 32.1,0 58.1,15.5 58.1,51.3 v 48.2 z m 99.6,-20.4 v -20 c 0,-31.9 -18.2,-38.7 -41.5,-38.7 -23.3,0 -41.5,6.8 -41.5,38.7 v 20 z"
           id="path17" />
        <path
           d="m 3819,443.9 c 4.6,0 6.4,-1 6.4,-4.4 0,-1.1 0,-2.6 -0.3,-4.6 h 12.9 c 1,2.8 2.1,8.6 2.1,11.7 0,7.5 -2.6,12.9 -10.3,14.3 7.2,7.3 10.3,19.2 10.3,29.1 0,15.1 -8.1,28.8 -24.6,28.8 -21,0 -24.4,-16.8 -26.2,-32.4 -2.4,-13.4 -1,-25.2 -11.9,-25.2 -9.6,0 -11.4,9.9 -11.4,17.4 0,10.4 4.2,17.7 13.3,18.6 v 18.5 c -21.6,-1.3 -28,-19.7 -28,-38.2 0,-16.4 6.7,-33.7 24.4,-33.7 h 43.3 z m -23.4,18.6 c 3.7,5.7 3.6,14.7 5,22.8 1.3,8 4.2,15.1 14,15.1 8.3,0 10.7,-10.6 10.7,-17.1 0,-8.1 -4.2,-20.8 -16,-20.8 z"
           id="path18" />
        <path
           d="m 3753.6,432.3 v -14 h -25.2 v -18.6 h 25.2 V 383 h 13.8 v 16.8 h 44.9 c 7.7,0 11.6,-0.7 11.6,-8.9 0,-2.6 0,-5.2 -0.7,-7.8 h 14.3 c 0.3,4.1 1,8 1,12 0,19.4 -7.5,23 -21.5,23.3 h -49.6 v 14 h -13.8 z"
           id="path19" />
        <path
           d="m 3819,299.2 c 4.6,0 6.4,-1 6.4,-4.4 0,-1.1 0,-2.6 -0.3,-4.6 h 12.9 c 1,2.8 2.1,8.6 2.1,11.7 0,7.5 -2.6,12.9 -10.3,14.3 7.2,7.3 10.3,19.2 10.3,29.1 0,15.1 -8.1,28.8 -24.6,28.8 -21,0 -24.4,-16.8 -26.2,-32.4 -2.4,-13.3 -1,-25.2 -11.9,-25.2 -9.6,0 -11.4,9.9 -11.4,17.4 0,10.4 4.2,17.7 13.3,18.5 V 371 c -21.6,-1.3 -28,-19.7 -28,-38.2 0,-16.4 6.7,-33.7 24.4,-33.7 h 43.3 z m -23.4,18.6 c 3.7,5.7 3.6,14.6 5,22.8 1.3,8 4.2,15.1 14,15.1 8.3,0 10.7,-10.6 10.7,-17.1 0,-8.1 -4.2,-20.8 -16,-20.8 z"
           id="path20" />
        <path
           d="m 3721.5,257.7 v -20.3 h 98.6 v -59.1 h 17.6 v 79.4 z"
           id="path21" />
        <path
           d="m 3753.6,178.3 v -14 h -25.2 v -18.6 h 25.2 v -16.8 h 13.8 v 16.8 h 44.9 c 7.7,0 11.6,-0.7 11.6,-8.9 0,-2.6 0,-5.2 -0.7,-7.8 h 14.3 c 0.3,4.1 1,8 1,12 0,19.4 -7.5,23 -21.5,23.3 h -49.6 v 14 z"
           id="path22" />
        <path
           d="m 3837.7,36.3 v 17.6 h -11.4 v 0.3 c 9.6,4.9 13.7,15.5 13.7,26 0,26.5 -19.7,39.4 -44.9,39.4 -30.4,0 -43.8,-18.1 -43.8,-36.5 0,-10.6 3.9,-22.3 13.2,-28 v -0.3 h -43 V 36.3 Z m -12.3,41.5 c 0,-16.6 -15.1,-23.6 -29.8,-23.6 -18.5,0 -29.6,8.9 -29.6,23.3 0,17.4 15.5,23.6 30.6,23.6 14.4,0 28.8,-7.1 28.8,-23.3 z"
           id="path23" />
        <path
           d="M 3815.7,22.6 V 0 h 22 v 22.6 z"
           id="path24" />
      </g>
    </g>
  </g>
</svg>
