<svg enable-background="new 0 0 3839 885.1" height="443" viewBox="0 0 1920 443.00001" width="1920" xmlns="http://www.w3.org/2000/svg"><g fill="#fff" transform="scale(.50013024 .50045188999)"><path d="m837.8 0h-837.8v112.9l681.6 239.7h388.4v-120.4c0-128.2-103.9-232.2-232.2-232.2zm-187.4 372.8-293.6-103.2v421.5l-130.6 46.8v147.3h518.8v-247.8h-94.6zm31.2 233.4h388.4v-222.4h-388.4z"/><path d="m650.4 372.8-293.6-103.2v421.5l-130.6 46.8v147.3h518.8v-247.8h-94.6z"/><path d="m1070 383.8h-388.5v222.4h388.5z"/><path d="m1202.8 606.2h49v-86.2h106.1v-44.4h-106.1v-47.4h120.4v-44.5h-169.4z"/><path d="m1397.6 383.7h48.9v222.4h-48.9z"/><path d="m1534.6 464.8 107.7 141.4h41.6v-222.5h-48.3v137l-104.2-137h-45.1v222.5h48.3z"/><path d="m1752.2 606.2 20.3-49.9h94.1l20.3 49.9h51.2l-95.3-224h-45.1l-95.3 224zm67.4-165.3 29.6 72.1h-59.2z"/><path d="m2116.4 561.7h-110.9v-178h-49v222.5h159.9z"/><path d="m2405.8 545.2v-.6c0-29.9-15.9-44.8-41.6-54.7 15.9-8.9 29.2-22.9 29.2-48v-.6c0-35-28-57.5-73.4-57.5h-103.3v222.4h105.8c50.3 0 83.3-20.4 83.3-61zm-141.4-118.6h48.3c20.7 0 32.1 8.3 32.1 22.9v.6c0 16.5-13.7 23.5-35.3 23.5h-45.1zm0 87.7h56.6c25.1 0 36.2 9.2 36.2 24.1v.6c0 16.5-13 24.1-34.6 24.1h-58.2z"/><path d="m2620.6 383.7h-48.9v127.4c0 35.3-18.1 53.4-48 53.4s-48-18.7-48-55v-125.8h-48.9v127.1c0 65.5 36.5 98.8 96.3 98.8 59.7 0 97.6-33 97.6-100.4v-125.5z"/><path d="m2703.6 535h38.4l47.7 71.2h57.2l-54.3-79.4c28.3-10.5 47.7-33 47.7-69v-.6c0-45.8-31.5-73.4-83.9-73.4h-101.7v222.4h48.9zm0-107.1h48.6c23.8 0 38.4 10.8 38.4 31.8v.6c0 18.7-13.7 31.5-37.5 31.5h-49.6v-63.9z"/><path d="m2916.8 464.8 107.7 141.4h41.6v-222.5h-48.3v137l-104.2-137h-45.1v222.5h48.3z"/><path d="m3183 383.7v222.5h48.3v-141.4l107.8 141.4h41.6v-222.5h-48.3v137l-104.2-137z"/><path d="m3585.9 427.3v-43.6h-167.7v222.5h169.3v-43.6h-120.7v-46.7h104.8v-43.5h-104.8v-45.1z"/><path d="m3723.8 382.6c-67 0-115.8 50.6-115.8 112.4v.6c0 61.8 48.1 111.7 115.2 111.7 67 0 115.8-50.6 115.8-112.4v-.6c0-61.7-48.1-111.7-115.2-111.7zm65.2 113c0 37.3-26.7 67.7-65.2 67.7s-65.8-31-65.8-68.3v-.6c0-37.2 26.7-67.7 65.2-67.7s65.8 31 65.8 68.3z"/></g></svg>