<?xml version="1.0" encoding="UTF-8" standalone="no"?>
<svg
   enable-background="new 0 0 3839 885.1"
   viewBox="0 0 1920 443.00001"
   version="1.1"
   id="svg15"
   sodipodi:docname="fba.svg"
   width="1920"
   height="443"
   inkscape:version="1.3.2 (091e20e, 2023-11-25)"
   xmlns:inkscape="http://www.inkscape.org/namespaces/inkscape"
   xmlns:sodipodi="http://sodipodi.sourceforge.net/DTD/sodipodi-0.dtd"
   xmlns="http://www.w3.org/2000/svg"
   xmlns:svg="http://www.w3.org/2000/svg">
  <defs
     id="defs15" />
  <sodipodi:namedview
     id="namedview15"
     pagecolor="#ffffff"
     bordercolor="#000000"
     borderopacity="0.25"
     inkscape:showpageshadow="2"
     inkscape:pageopacity="0.0"
     inkscape:pagecheckerboard="0"
     inkscape:deskcolor="#d1d1d1"
     inkscape:zoom="0.24563688"
     inkscape:cx="1917.4645"
     inkscape:cy="443.74444"
     inkscape:window-width="1312"
     inkscape:window-height="449"
     inkscape:window-x="0"
     inkscape:window-y="23"
     inkscape:window-maximized="0"
     inkscape:current-layer="svg15" />
  <g
     id="g1"
     transform="scale(0.49999999)">
    <g
       id="g16"
       transform="scale(1.0002605,1.0009038)">
      <g
         fill="#ffffff"
         id="g15">
        <path
           d="M 837.8,0 H 0 V 112.9 L 681.6,352.6 H 1070 V 232.2 C 1070,104 966.1,0 837.8,0 Z M 650.4,372.8 356.8,269.6 V 691.1 L 226.2,737.9 V 885.2 H 745 V 637.4 h -94.6 z m 31.2,233.4 H 1070 V 383.8 H 681.6 Z"
           id="path1" />
        <path
           d="M 650.4,372.8 356.8,269.6 V 691.1 L 226.2,737.9 V 885.2 H 745 V 637.4 h -94.6 z"
           id="path2" />
        <path
           d="M 1070,383.8 H 681.5 V 606.2 H 1070 Z"
           id="path3" />
        <path
           d="m 1202.8,606.2 h 49 V 520 h 106.1 v -44.4 h -106.1 v -47.4 h 120.4 v -44.5 h -169.4 z"
           id="path4" />
        <path
           d="m 1397.6,383.7 h 48.9 v 222.4 h -48.9 z"
           id="path5" />
        <path
           d="m 1534.6,464.8 107.7,141.4 h 41.6 V 383.7 h -48.3 v 137 l -104.2,-137 h -45.1 v 222.5 h 48.3 z"
           id="path6" />
        <path
           d="m 1752.2,606.2 20.3,-49.9 h 94.1 l 20.3,49.9 h 51.2 l -95.3,-224 h -45.1 l -95.3,224 z m 67.4,-165.3 29.6,72.1 H 1790 Z"
           id="path7" />
        <path
           d="m 2116.4,561.7 h -110.9 v -178 h -49 v 222.5 h 159.9 z"
           id="path8" />
        <path
           d="m 2405.8,545.2 v -0.6 c 0,-29.9 -15.9,-44.8 -41.6,-54.7 15.9,-8.9 29.2,-22.9 29.2,-48 v -0.6 c 0,-35 -28,-57.5 -73.4,-57.5 h -103.3 v 222.4 h 105.8 c 50.3,0 83.3,-20.4 83.3,-61 z M 2264.4,426.6 h 48.3 c 20.7,0 32.1,8.3 32.1,22.9 v 0.6 c 0,16.5 -13.7,23.5 -35.3,23.5 h -45.1 z m 0,87.7 h 56.6 c 25.1,0 36.2,9.2 36.2,24.1 v 0.6 c 0,16.5 -13,24.1 -34.6,24.1 h -58.2 z"
           id="path9" />
        <path
           d="m 2620.6,383.7 h -48.9 v 127.4 c 0,35.3 -18.1,53.4 -48,53.4 -29.9,0 -48,-18.7 -48,-55 V 383.7 h -48.9 v 127.1 c 0,65.5 36.5,98.8 96.3,98.8 59.7,0 97.6,-33 97.6,-100.4 V 383.7 Z"
           id="path10" />
        <path
           d="m 2703.6,535 h 38.4 l 47.7,71.2 h 57.2 l -54.3,-79.4 c 28.3,-10.5 47.7,-33 47.7,-69 v -0.6 c 0,-45.8 -31.5,-73.4 -83.9,-73.4 h -101.7 v 222.4 h 48.9 z m 0,-107.1 h 48.6 c 23.8,0 38.4,10.8 38.4,31.8 v 0.6 c 0,18.7 -13.7,31.5 -37.5,31.5 h -49.6 v -63.9 z"
           id="path11" />
        <path
           d="m 2916.8,464.8 107.7,141.4 h 41.6 V 383.7 h -48.3 v 137 l -104.2,-137 h -45.1 v 222.5 h 48.3 z"
           id="path12" />
        <path
           d="m 3183,383.7 v 222.5 h 48.3 V 464.8 l 107.8,141.4 h 41.6 V 383.7 h -48.3 v 137 l -104.2,-137 z"
           id="path13" />
        <path
           d="m 3585.9,427.3 v -43.6 h -167.7 v 222.5 h 169.3 v -43.6 h -120.7 v -46.7 h 104.8 v -43.5 h -104.8 v -45.1 z"
           id="path14" />
        <path
           d="m 3723.8,382.6 c -67,0 -115.8,50.6 -115.8,112.4 v 0.6 c 0,61.8 48.1,111.7 115.2,111.7 67,0 115.8,-50.6 115.8,-112.4 v -0.6 c 0,-61.7 -48.1,-111.7 -115.2,-111.7 z m 65.2,113 c 0,37.3 -26.7,67.7 -65.2,67.7 -38.5,0 -65.8,-31 -65.8,-68.3 v -0.6 c 0,-37.2 26.7,-67.7 65.2,-67.7 38.5,0 65.8,31 65.8,68.3 z"
           id="path15" />
      </g>
    </g>
  </g>
</svg>
