<?xml version="1.0" encoding="UTF-8" standalone="no"?>
<svg
   enable-background="new 0 0 3839 488.9"
   viewBox="0 0 1920 244.99999"
   version="1.1"
   id="svg11"
   sodipodi:docname="gamegear.svg"
   width="1920"
   height="244.99998"
   inkscape:version="1.3.2 (091e20e, 2023-11-25)"
   xmlns:inkscape="http://www.inkscape.org/namespaces/inkscape"
   xmlns:sodipodi="http://sodipodi.sourceforge.net/DTD/sodipodi-0.dtd"
   xmlns="http://www.w3.org/2000/svg"
   xmlns:svg="http://www.w3.org/2000/svg">
  <defs
     id="defs11" />
  <sodipodi:namedview
     id="namedview11"
     pagecolor="#ffffff"
     bordercolor="#000000"
     borderopacity="0.25"
     inkscape:showpageshadow="2"
     inkscape:pageopacity="0.0"
     inkscape:pagecheckerboard="0"
     inkscape:deskcolor="#d1d1d1"
     inkscape:zoom="0.24563688"
     inkscape:cx="1917.4645"
     inkscape:cy="244.263"
     inkscape:window-width="1312"
     inkscape:window-height="449"
     inkscape:window-x="0"
     inkscape:window-y="23"
     inkscape:window-maximized="0"
     inkscape:current-layer="svg11" />
  <g
     id="g1"
     transform="scale(0.5)">
    <g
       id="g12"
       transform="matrix(1.0002618,0,0,1.0022499,-0.02974444,0)">
      <g
         fill="#ffffff"
         id="g11">
        <path
           d="m 65.4,488.9 c -12,0 -22.8,-2.9 -32.1,-8.5 C 4.7,462.9 -6,421.4 3.3,363.4 12.1,308.5 37.7,244.2 75.4,182.4 107.5,129.8 144.9,84.5 183.5,51.3 222.5,17.7 259,0 289,0 c 12,0 22.8,2.9 32.1,8.5 28.6,17.5 39.3,59 30,117 -8.8,54.9 -34.4,119.2 -72.1,181 -32.1,52.6 -69.5,97.9 -108.1,131.1 -39,33.6 -75.5,51.3 -105.5,51.3 z"
           id="path1" />
        <path
           d="m 396.4,488.9 c -12,0 -22.8,-2.9 -32.1,-8.5 -28.6,-17.5 -39.3,-59 -30,-117 8.8,-54.9 34.4,-119.2 72.1,-181 C 438.5,129.8 475.9,84.5 514.5,51.3 553.5,17.7 590,0 620,0 c 12,0 22.8,2.9 32.1,8.5 28.6,17.5 39.3,59 30,117 -8.8,54.9 -34.4,119.2 -72.1,181 -32.1,52.6 -69.5,97.9 -108.1,131.1 -39,33.6 -75.5,51.3 -105.5,51.3 z"
           id="path2" />
        <path
           d="m 727.4,488.9 c -12,0 -22.8,-2.9 -32.1,-8.5 -28.6,-17.5 -39.3,-59 -30,-117 8.8,-54.9 34.4,-119.2 72.1,-181 C 769.5,129.8 806.9,84.5 845.5,51.3 884.5,17.7 921,0 951,0 c 12,0 22.8,2.9 32.1,8.5 14.6,8.9 24.5,23.9 29.6,44.6 14.3,59.1 -13.8,158.5 -71.7,253.4 -32.1,52.6 -69.5,97.9 -108.1,131.1 -39,33.6 -75.5,51.3 -105.5,51.3 z"
           id="path3" />
        <path
           d="m 2429.4,51.9 h -169.8 c -23.2,0 -42.9,16.9 -46.3,39.8 l -45.8,304.7 c -4.2,28.2 17.7,53.7 46.3,53.7 h 26.9 128.9 l 12,-80.4 h -128.7 l 11.4,-76.1 h 108.2 l 11.8,-80.4 h -108 l 12.2,-81.2 h 129 z"
           id="path4" />
        <path
           d="m 3215.1,51.9 h -169.8 c -23.2,0 -42.9,16.9 -46.3,39.8 l -45.8,304.7 c -4.2,28.2 17.7,53.7 46.3,53.7 h 26.9 128.9 l 12,-80.4 h -128.7 l 11.4,-76.1 h 108.2 l 11.8,-80.4 h -108 l 12.2,-81.2 h 129 z"
           id="path5" />
        <path
           d="m 1622.7,50.5 c -22.5,0 -45,11.9 -55.7,37.5 l -149.8,362.1 h 86.9 l 31,-74.9 h 91.7 l 6.7,74.9 h 80.6 l -30.6,-344.2 c -3,-35.6 -31.8,-55.4 -60.8,-55.4 z m -54.3,244.4 42.3,-102 9.1,102 z"
           id="path6" />
        <path
           d="m 2044.3,83.4 -93.8,196.9 -31.7,-181.8 c -5.4,-31.1 -30.4,-46.6 -55.4,-46.6 -25.5,0 -50.9,16 -55.7,47.9 L 1755,450.1 h 81.1 L 1865,258.5 1892.7,417 c 3.8,21.7 21.9,33.6 40.2,33.6 14.4,0 28.9,-7.3 36.4,-23.1 l 73.8,-154.9 -26.7,177.5 h 81.2 l 50.4,-335 c 5.8,-38.4 -24.7,-63.2 -55.3,-63.2 -18.9,0 -38,9.6 -48.4,31.5 z"
           id="path7" />
        <path
           d="m 1430.1,133.3 c 0,0 -53.7,-102.8 -154.6,-102.8 -125.2,0 -208,125.5 -212.4,219 -7.6,160.2 118.8,209.1 173.9,209.1 110.7,0 171.6,-101.1 195.3,-180.2 7.5,-25 -11.3,-50.1 -37.4,-50.1 h -33.5 -92 l -33.3,80.3 h 93.7 c -20.6,36.9 -57.4,64.1 -100.7,64.1 -21.9,0 -87.8,-19.9 -83.2,-116.8 3.1,-65 54.5,-144.7 129.6,-144.7 49.9,0 83,59.5 83,59.5 z"
           id="path8" />
        <path
           d="m 2918.8,133.3 c 0,0 -53.7,-102.8 -154.6,-102.8 -125.2,0 -208,125.5 -212.4,219 -7.6,160.2 118.8,209.1 173.9,209.1 110.7,0 171.6,-101.1 195.3,-180.2 7.5,-25 -11.3,-50.1 -37.4,-50.1 h -33.5 -92 l -33.3,80.3 h 93.7 c -20.6,36.9 -57.4,64.1 -100.7,64.1 -21.9,0 -87.8,-19.9 -83.2,-116.8 3.1,-65 54.5,-144.7 129.6,-144.7 49.9,0 83,59.5 83,59.5 z"
           id="path9" />
        <path
           d="m 3803.9,338.2 c 0,0 0,0 -1.1,-4.9 v -0.2 c -0.7,-3.4 -2,-9.1 -4,-18.7 -5.1,-23.8 -23.1,-29.2 -23.1,-29.2 C 3842.2,248 3839,179.2 3839,174.6 3839,106.5 3775.4,52 3722.8,52 h -29.4 -41.6 c -23,0 -42.5,16.6 -46.2,39.3 l -58,358.9 h 81.3 l 23,-142 h 36.5 c 15.3,0 28.5,10.7 31.7,25.6 l 25.2,116.5 H 3828 Z M 3700.5,227.7 H 3665 l 15.3,-95.5 h 33.5 c 15.9,0 31.6,15.9 35.1,34.9 5.2,28.2 -16.6,60.6 -48.4,60.6 z"
           id="path10" />
        <path
           d="m 3409.6,50.5 c -22.4,0 -45,11.9 -55.7,37.5 l -149.8,362.1 h 86.9 l 31,-74.9 h 91.7 l 6.7,74.9 h 80.6 l -30.6,-344.2 c -3.1,-35.6 -31.9,-55.4 -60.8,-55.4 z m -54.2,244.4 42.3,-102 9.1,102 z"
           id="path11" />
      </g>
    </g>
  </g>
</svg>
