<svg enable-background="new 0 0 3839 488.9" height="244.99998" viewBox="0 0 1920 244.99999" width="1920" xmlns="http://www.w3.org/2000/svg"><g fill="#fff" transform="matrix(.5001309 0 0 .50112495 -.014872 0)"><path d="m65.4 488.9c-12 0-22.8-2.9-32.1-8.5-28.6-17.5-39.3-59-30-117 8.8-54.9 34.4-119.2 72.1-181 32.1-52.6 69.5-97.9 108.1-131.1 39-33.6 75.5-51.3 105.5-51.3 12 0 22.8 2.9 32.1 8.5 28.6 17.5 39.3 59 30 117-8.8 54.9-34.4 119.2-72.1 181-32.1 52.6-69.5 97.9-108.1 131.1-39 33.6-75.5 51.3-105.5 51.3z"/><path d="m396.4 488.9c-12 0-22.8-2.9-32.1-8.5-28.6-17.5-39.3-59-30-117 8.8-54.9 34.4-119.2 72.1-181 32.1-52.6 69.5-97.9 108.1-131.1 39-33.6 75.5-51.3 105.5-51.3 12 0 22.8 2.9 32.1 8.5 28.6 17.5 39.3 59 30 117-8.8 54.9-34.4 119.2-72.1 181-32.1 52.6-69.5 97.9-108.1 131.1-39 33.6-75.5 51.3-105.5 51.3z"/><path d="m727.4 488.9c-12 0-22.8-2.9-32.1-8.5-28.6-17.5-39.3-59-30-117 8.8-54.9 34.4-119.2 72.1-181 32.1-52.6 69.5-97.9 108.1-131.1 39-33.6 75.5-51.3 105.5-51.3 12 0 22.8 2.9 32.1 8.5 14.6 8.9 24.5 23.9 29.6 44.6 14.3 59.1-13.8 158.5-71.7 253.4-32.1 52.6-69.5 97.9-108.1 131.1-39 33.6-75.5 51.3-105.5 51.3z"/><path d="m2429.4 51.9h-169.8c-23.2 0-42.9 16.9-46.3 39.8l-45.8 304.7c-4.2 28.2 17.7 53.7 46.3 53.7h26.9 128.9l12-80.4h-128.7l11.4-76.1h108.2l11.8-80.4h-108l12.2-81.2h129z"/><path d="m3215.1 51.9h-169.8c-23.2 0-42.9 16.9-46.3 39.8l-45.8 304.7c-4.2 28.2 17.7 53.7 46.3 53.7h26.9 128.9l12-80.4h-128.7l11.4-76.1h108.2l11.8-80.4h-108l12.2-81.2h129z"/><path d="m1622.7 50.5c-22.5 0-45 11.9-55.7 37.5l-149.8 362.1h86.9l31-74.9h91.7l6.7 74.9h80.6l-30.6-344.2c-3-35.6-31.8-55.4-60.8-55.4zm-54.3 244.4 42.3-102 9.1 102z"/><path d="m2044.3 83.4-93.8 196.9-31.7-181.8c-5.4-31.1-30.4-46.6-55.4-46.6-25.5 0-50.9 16-55.7 47.9l-52.7 350.3h81.1l28.9-191.6 27.7 158.5c3.8 21.7 21.9 33.6 40.2 33.6 14.4 0 28.9-7.3 36.4-23.1l73.8-154.9-26.7 177.5h81.2l50.4-335c5.8-38.4-24.7-63.2-55.3-63.2-18.9 0-38 9.6-48.4 31.5z"/><path d="m1430.1 133.3s-53.7-102.8-154.6-102.8c-125.2 0-208 125.5-212.4 219-7.6 160.2 118.8 209.1 173.9 209.1 110.7 0 171.6-101.1 195.3-180.2 7.5-25-11.3-50.1-37.4-50.1h-33.5-92l-33.3 80.3h93.7c-20.6 36.9-57.4 64.1-100.7 64.1-21.9 0-87.8-19.9-83.2-116.8 3.1-65 54.5-144.7 129.6-144.7 49.9 0 83 59.5 83 59.5z"/><path d="m2918.8 133.3s-53.7-102.8-154.6-102.8c-125.2 0-208 125.5-212.4 219-7.6 160.2 118.8 209.1 173.9 209.1 110.7 0 171.6-101.1 195.3-180.2 7.5-25-11.3-50.1-37.4-50.1h-33.5-92l-33.3 80.3h93.7c-20.6 36.9-57.4 64.1-100.7 64.1-21.9 0-87.8-19.9-83.2-116.8 3.1-65 54.5-144.7 129.6-144.7 49.9 0 83 59.5 83 59.5z"/><path d="m3803.9 338.2s0 0-1.1-4.9v-.2c-.7-3.4-2-9.1-4-18.7-5.1-23.8-23.1-29.2-23.1-29.2 66.5-37.2 63.3-106 63.3-110.6 0-68.1-63.6-122.6-116.2-122.6h-29.4-41.6c-23 0-42.5 16.6-46.2 39.3l-58 358.9h81.3l23-142h36.5c15.3 0 28.5 10.7 31.7 25.6l25.2 116.5h82.7zm-103.4-110.5h-35.5l15.3-95.5h33.5c15.9 0 31.6 15.9 35.1 34.9 5.2 28.2-16.6 60.6-48.4 60.6z"/><path d="m3409.6 50.5c-22.4 0-45 11.9-55.7 37.5l-149.8 362.1h86.9l31-74.9h91.7l6.7 74.9h80.6l-30.6-344.2c-3.1-35.6-31.9-55.4-60.8-55.4zm-54.2 244.4 42.3-102 9.1 102z"/></g></svg>