<?xml version="1.0" encoding="UTF-8" standalone="no"?>
<svg
   enable-background="new 0 0 3839 343.2"
   viewBox="0 0 1920 172"
   version="1.1"
   id="svg9"
   sodipodi:docname="gba.svg"
   width="1920"
   height="172"
   inkscape:version="1.3.2 (091e20e, 2023-11-25)"
   xmlns:inkscape="http://www.inkscape.org/namespaces/inkscape"
   xmlns:sodipodi="http://sodipodi.sourceforge.net/DTD/sodipodi-0.dtd"
   xmlns="http://www.w3.org/2000/svg"
   xmlns:svg="http://www.w3.org/2000/svg">
  <defs
     id="defs9" />
  <sodipodi:namedview
     id="namedview9"
     pagecolor="#ffffff"
     bordercolor="#000000"
     borderopacity="0.25"
     inkscape:showpageshadow="2"
     inkscape:pageopacity="0.0"
     inkscape:pagecheckerboard="0"
     inkscape:deskcolor="#d1d1d1"
     inkscape:zoom="0.24563688"
     inkscape:cx="1917.4645"
     inkscape:cy="170.9841"
     inkscape:window-width="1312"
     inkscape:window-height="449"
     inkscape:window-x="0"
     inkscape:window-y="23"
     inkscape:window-maximized="0"
     inkscape:current-layer="svg9" />
  <g
     id="g1"
     transform="scale(0.49999999)">
    <g
       id="g10"
       transform="matrix(1.0002614,0,0,1.0026976,-0.00346456,-0.11719799)">
      <g
         fill="#ffffff"
         id="g9">
        <path
           d="m 2794,58.1 h -70.5 l -1.9,3.5 -80.8,146.7 -85.7,-146.8 -1.9,-3.4 h -75.8 l 6.2,10.2 14.6,24 C 2474.8,70.1 2439,58 2392.5,58 H 2240 v 190.7 l -112.9,-187.2 -2,-3.3 h -58.3 l -2,3.3 -128.3,216.5 -6,10.2 h 50.5 v 0.1 h 112.2 v -50.8 h -66 l 66.1,-119.2 93.3,166.5 1.9,3.4 h 75.2 l -0.1,-0.2 h 115.5 c 99.6,0 150.2,-38.9 150.2,-115.7 0,-13.3 -1.7,-25.6 -5,-36.8 l 90.4,149.2 2,3.2 h 44 l 1.9,-3.4 125.5,-216.4 z m -426.1,176.2 h -61.3 V 110.2 h 86.4 c 46.7,0 68.5,18.9 68.5,59.5 0,48.3 -23.6,64.6 -93.6,64.6 z"
           id="path1" />
        <path
           d="m 3234,58.1 h -6.8 v 136.7 l -172.8,-135.3 -1.8,-1.4 h -45.4 V 249 l -113,-187.6 -2,-3.2 h -58.3 l -2,3.3 -128.4,216.3 -6,10.2 h 68.5 l 0.1,-0.2 h 94.3 V 237 h -66.1 l 66,-118.9 93.3,166.5 2,3.4 h 75.2 l -0.1,-0.1 h 38 V 149.3 l 172.2,137.1 1.9,1.5 H 3288 V 58.1 Z"
           id="path2" />
        <path
           d="m 3505.9,58.1 h -134.8 c -47.3,0 -63.2,14.6 -63.2,58 V 230 c 0,43.2 15.9,57.9 63.2,57.9 h 134.8 c 47.3,0 63.3,-14.6 63.3,-57.9 v -32.3 h -6.7 l -53,-0.1 h -6.8 V 233 H 3374.3 V 111.6 h 128.4 v 31.9 h 6.8 l 53,0.2 h 6.8 V 116 c -0.1,-43.8 -15.5,-57.9 -63.4,-57.9"
           id="path3" />
        <path
           d="M 3832.2,234.3 H 3657.3 V 194 h 104.4 v -50.7 h -104.4 v -33.2 h 179.1 v -52 H 3590.8 V 287.9 H 3839 v -53.6 z"
           id="path4" />
        <path
           d="M 765.8,9 689.4,188.7 656.5,9 H 589.9 L 503.8,274.1 459.6,9 H 376.5 L 250.6,294.7 269.4,175.3 h -125 l -9.6,61.5 H 187 l -6,32.9 C 151,281.6 100.1,277.2 78.4,238.2 64.7,213.5 51.9,158.5 109.8,107.9 157,66.7 238.6,59.2 285.8,81 c 0,0 6,-34.5 10.5,-66.6 C 205.7,-17.1 135.3,9.2 88.2,38.4 24,78 -6.9,138.6 1.3,220.9 c 9.5,95.6 133.3,155.8 238.1,95.1 1,-0.6 1.7,-1 2.4,-1.4 l -9.9,22.4 h 70.4 l 44.2,-98.1 h 77.9 L 441.6,337 H 556.2 L 614.6,153.6 652,337 h 44.9 l 87.6,-202.9 8.9,202.9 h 67.4 L 846.7,9 Z m -392.4,166.3 28.5,-63.6 12.3,63.6 z"
           id="path5" />
        <path
           d="m 866.1,337 h 188 l 11.2,-70.4 H 947.7 l 9.4,-58.4 h 102.2 l 11.3,-70.4 H 967.2 l 9,-58.4 h 117.6 L 1105,9 H 918.5 Z"
           id="path6" />
        <path
           d="M 1784.1,116.1 1742.2,9 h -77.1 l 79.3,173 -24.4,155 h 67.4 L 1808.1,200 1929.4,9 h -78.6 z"
           id="path7" />
        <path
           d="m 1600.4,11.9 c -74.7,-17.2 -152.2,42.3 -173.1,132.9 -21,90.6 22.6,178.1 97.3,195.4 74.7,17.3 152.2,-42.2 173.1,-132.9 20.9,-90.7 -22.7,-178.2 -97.3,-195.4 m 26.3,192.8 c -18.2,54.6 -61.8,85.9 -97.5,69.9 -35.6,-16 -49.8,-73.1 -31.6,-127.6 18.2,-54.6 61.8,-85.8 97.4,-69.9 35.8,15.8 49.9,73 31.7,127.6 z"
           id="path8" />
        <path
           d="m 1333.1,10.9 c -36.4,-0.6 -126.3,0 -126.3,0 h 0.7 l -52,325.4 h 151.6 c 62.4,0 153.7,-92 70.6,-167.1 85.5,-88.5 0.8,-157.5 -44.6,-158.3 m -39.4,262.3 c -37.2,0 -59.4,0 -59.4,0 l 10.4,-65.4 h 56.5 c 53.5,0 52,65.4 -7.5,65.4 z m 8.2,-132.3 c -37.2,0 -46.8,0 -46.8,0 L 1265.5,80 h 43.8 c 47.6,0 38,60.9 -7.4,60.9 z"
           id="path9" />
      </g>
    </g>
  </g>
</svg>
