<svg enable-background="new 0 0 3840 866.1" height="433" viewBox="0 0 1920 433.00001" width="1920" xmlns="http://www.w3.org/2000/svg"><g fill="#fff" transform="scale(.5 .49994227)"><path d="m1461.3 424.5-170.1 295.7h212.8v-67.2h-94.9l87.8-146.8 118.8 214h88.2l-171.6-295.7z"/><path d="m1896.8 720.2 91-158.1v158.1h73.1l.2-295.7h-73l-120.7 209.4-120.8-209.4h-72.8l.1 295.7h73v-158.1l91.2 158.1z"/><path d="m1300.7 542.2h-184.7v62.4h107.1v48.4h-191.1v-164.4h265.5v-64.1h-268c-58 0-76.8 17.8-76.8 73.5v148.6c0 55.9 18.7 73.7 76.8 73.7h194.6c58 0 76.7-17.8 76.7-73.7v-104.4"/><path d="m2708.8 424.5h-173.8c-58.3 0-76.8 17.8-76.8 73.5v148.5c0 55.9 18.5 73.6 76.8 73.6h173.8c58 0 76.9-17.7 76.9-73.6v-53.9h-79.5v60.4h-168.7v-164.4h168.7v53.5h79.5v-44.1c0-55.7-18.9-73.5-76.9-73.5"/><path d="m3069.7 653h-172.9v-228.5h-79.4v222c0 55.9 18.7 73.7 76.8 73.7h178c58.2 0 76.9-17.8 76.9-73.7v-222h-79.4z"/><path d="m3430.8 637c0 14.3-3.2 18.1-24.7 18.1h-142.6v-57.2h142.6c21.5 0 24.7 4 24.7 18zm-167.3-153.1h142.3c22 0 23 4.7 23 13.3v26.9c0 8.5-1 13.4-23 13.4h-142.3zm209.2 84.3c19.1-9.1 29.6-25.9 29.6-47.8v-34.6c0-41.9-22.4-61.3-70.4-61.3h-247.9v295.7h230.6c60.1 0 90.3-20.8 90.3-62.5v-35.9c.1-25.2-11.3-43.8-32.2-53.6z"/><path d="m3614.3 597.8h130v-62.1h-130v-49h223v-62.2h-302.5v295.7h305.2v-67.2h-225.7z"/><path d="m2175.6 597.8h129.9v-62.1h-129.9v-49h222.9v-62.2h-302.3v295.7h305v-67.2h-225.6z"/><path d="m3016.9 342.8v-227.2h-43.3v144.8l-73.4-144.8h-58.3v227.2h43.1v-177.1l89 177.1z"/><path d="m1764.6 165.7 89.1 177.1h42.8v-227.2h-43.2v144.8l-73.6-144.8h-58.3v227.2h43.2z"/><path d="m1056.4 165.7 89 177.1h42.8v-227.2h-43.3v144.8l-73.4-144.8h-58.3v227.2h43.2z"/><path d="m1430.4 115.6h48.7v227.2h-48.7z"/><path d="m2163.5 342.8h46.3v-191h72.9v-36.1h-192.3v36.1h73.1z"/><path d="m3271.8 150.5h61c14.9 0 30.3 11.4 30.3 25.2v107.3c0 14.7-15.8 24.9-30.3 24.9h-61zm62.3 192.3c39.8 0 71.9-26.3 71.9-58.6v-109.9c0-32.5-32.1-58.8-71.9-58.8h-105.1v227.2h105.1z"/><path d="m3742.1 284.6c0 13.7-15.5 25-30.3 25h-36c-14.9 0-30.3-11.3-30.3-25v-110.7c0-14.1 15.4-25.1 30.3-25.1h36c14.8 0 30.3 11 30.3 25.1zm42.9-112c0-32.4-32.4-58.6-71.8-58.6h-38.8c-39.6 0-71.8 26.3-71.8 58.6v113.2c0 32.5 32.2 58.7 71.8 58.7h38.8c39.5 0 71.8-26.2 71.8-58.7z"/><path d="m2461.4 284.4c0 31.6 30.5 57.1 68.6 58.4h100.1v-36h-95.8c-15 0-30.3-9.8-30.3-23.6v-41.1h126.1v-36.4h-126.1v-30.4c0-13.7 15.3-23.7 30.3-23.7h95.8v-35.9h-98.5c-38.8.8-70.1 26.6-70.1 58.5z"/><path d="m192.4 546 169.8 98 .1-196.1-169.9-98z"/><path d="m119.5 588.1 242.8 140.2v137.8l-362.3-209.1v-418.2l119.5 69z"/><path d="m379.6 221.9-169.7 98 169.7 98 169.8-98z"/><path d="m379.6 137.6 204.3 118.2 119.5-68.9-323.8-186.9-361.8 208.9 119.2 68.9z"/><path d="m639.7 588.1v-142.5l-73 42.1v58.3l-169.8 98.1v.2-196.4l362.2-209.1v418.2l-362.2 209.1v-137.7z"/></g></svg>