<?xml version="1.0" encoding="UTF-8" standalone="no"?>
<svg
   height="403"
   viewBox="0 0 1920 403.00002"
   width="1920"
   version="1.1"
   id="svg16"
   sodipodi:docname="genesis.svg"
   inkscape:version="1.3.2 (091e20e, 2023-11-25)"
   xmlns:inkscape="http://www.inkscape.org/namespaces/inkscape"
   xmlns:sodipodi="http://sodipodi.sourceforge.net/DTD/sodipodi-0.dtd"
   xmlns="http://www.w3.org/2000/svg"
   xmlns:svg="http://www.w3.org/2000/svg">
  <defs
     id="defs16" />
  <sodipodi:namedview
     id="namedview16"
     pagecolor="#ffffff"
     bordercolor="#000000"
     borderopacity="0.25"
     inkscape:showpageshadow="2"
     inkscape:pageopacity="0.0"
     inkscape:pagecheckerboard="0"
     inkscape:deskcolor="#d1d1d1"
     inkscape:zoom="0.24557292"
     inkscape:cx="1922.036"
     inkscape:cy="403.13891"
     inkscape:window-width="1312"
     inkscape:window-height="449"
     inkscape:window-x="0"
     inkscape:window-y="23"
     inkscape:window-maximized="0"
     inkscape:current-layer="svg16" />
  <g
     id="g1"
     transform="scale(0.5)">
    <g
       id="g17"
       transform="scale(1,0.99913227)">
      <g
         fill="#ffffff"
         id="g16">
        <path
           d="m 1926.5,142.3 c 0,-36.7 29.9,-66.6 66.7,-66.6 h 111.1 V 109 H 1994 c -17.9,0 -33.3,14.5 -33.3,33.3 v 106.8 c 0,17.9 14.5,33.3 33.3,33.3 h 76.9 v -90.6 h -61.5 v -33.3 h 94 v 134.2 l 62.4,-182.9 c 6,-22.2 26.5,-38.5 51.3,-38.5 24.8,0 45.3,17.1 52.1,39.3 l 69.2,205.1 h -135 v -33.3 h 88.9 l -56.4,-167.5 c -2.6,-7.7 -9.4,-12.8 -17.9,-12.8 -8.5,0 -15.4,5.1 -17.9,12.8 l -69.2,200.8 h -137.6 c -36.7,0 -66.7,-29.9 -66.7,-66.6 V 142.3 Z"
           id="path1" />
        <path
           d="m 2009.4,240.5 h 19.7 v -7.7 h -19.7 v -33.3 h 53 v 75.2 h -69.2 c -14.5,0 -25.6,-11.1 -25.6,-25.6 V 142.3 c 0,-14.5 11.1,-25.6 25.6,-25.6 h 111.1 V 150 h -94.8 c -4.3,0 -7.7,3.4 -7.7,7.7 v 75.2 c -0.1,4.2 3.4,7.6 7.6,7.6 z"
           id="path2" />
        <path
           d="m 1530.9,241.4 h 106.8 c 1.7,0 3.4,-1.7 3.4,-4.3 0,-2.6 -1.7,-4.3 -4.3,-4.3 h -27.3 c -43.6,0 -78.6,-35 -78.6,-78.6 0,-43.6 35,-78.6 78.6,-78.6 h 106.8 v 33.3 h -106 c -24.8,0 -45.3,20.5 -45.3,45.3 0,24.8 20.5,45.3 45.3,45.3 h 27.3 c 20.5,0 37.6,17.1 37.6,37.6 0,20.5 -17.1,37.6 -37.6,37.6 h -106.8 v -33.3 z"
           id="path3" />
        <path
           d="m 1530.9,282.4 h 106 c 24.8,0 45.3,-20.5 45.3,-45.3 0,-24.8 -20.5,-45.3 -45.3,-45.3 h -27.3 c -20.5,0 -37.6,-17.1 -37.6,-37.6 0,-20.5 17.1,-37.6 37.6,-37.6 h 106.8 v 34.2 h -106.8 c -1.7,0 -3.4,1.7 -3.4,3.4 0,2.6 1.7,4.3 4.3,4.3 h 27.3 c 43.6,0 78.6,35 78.6,78.6 0,43.6 -35,78.6 -78.6,78.6 H 1531 v -33.3 z"
           id="path4" />
        <path
           d="m 1040.2,569.2 91.1,-46.9 H 903.4 v -78.2 h 202 l 46.2,-23.8 11,-5.7 3.7,-1.8 30.3,-15.6 H 903.4 L 786,457.6 v 241.9 h 319.4 l 91.2,-46.8 H 903.4 v -83.5 z"
           id="path5" />
        <path
           d="m 1306.4,397.2 v 302.4 h 117.5 V 453.8 L 1655.5,573 v 126.5 h 117.4 V 397.2 h -117.4 v 111.6 l -217,-111.6 z"
           id="path6" />
        <path
           d="M 1732.6,249.1 V 142.3 c 0,-36.7 29.9,-66.6 66.6,-66.6 h 114.5 V 109 h -114.5 c -17.9,0 -33.3,14.5 -33.3,33.3 v 106.8 c 0,17.9 14.5,33.3 33.3,33.3 h 114.5 v 33.3 h -114.5 c -36.7,0 -66.6,-29.9 -66.6,-66.6 z"
           id="path7" />
        <path
           d="m 1889.8,158.5 v 33.3 h -116.2 v -49.6 c 0,-14.5 11.1,-25.6 25.6,-25.6 h 113.7 v 34.2 h -98.3 c -4.3,0 -7.7,3.4 -7.7,7.7 z"
           id="path8" />
        <path
           d="m 1889.8,200.4 v 33.3 h -82.9 c 0,4.3 3.4,7.7 7.7,8.5 h 99.1 v 33.3 h -114.5 c -14.5,0 -25.6,-11.1 -25.6,-25.6 v -49.6 h 116.2 z"
           id="path9" />
        <path
           d="m 2446.5,444.1 h 257.9 l 91.1,-46.9 0.4,-0.1 c -0.2,0.1 -0.5,0.1 -0.8,0.1 H 2446.4 L 2329,457.6 v 21 90.6 h 349.1 v 83.5 h -257.9 l -90.8,46.7 c -0.2,0.1 -0.5,0.2 -0.7,0.3 l 0.4,-0.1 h 349.1 l 117.4,-60.4 V 522.3 h -349 v -78.2 z"
           id="path10" />
        <path
           d="m 2888.3,397.20001 h 117.4 V 699.6 h -117.4 z"
           id="path11" />
        <path
           d="m 581.3,557.1 v 95.6 H 349.7 V 530.3 444.1 h 257.9 l 91.2,-46.9 H 349.7 l -117.4,60.4 v 242 h 117.4 v -0.1 H 581.3 L 698.8,639.1 V 510.2 H 552 l -91.2,46.9 z"
           id="path12" />
        <path
           d="m 2271.3,652.6 c -0.2,0.1 -0.5,0.1 -0.8,0.1 h -292.8 v -83.5 h 136.8 l 91.1,-46.9 H 1977.7 V 483.8 477.4 444 h 202 l 91.1,-46.9 h -293.2 l -117.4,60.4 v 242 h 319.5 l 91.1,-46.9 z"
           id="path13" />
        <path
           d="m 3216,444.1 h 258 l 91.1,-46.9 H 3216 l -117.4,60.4 v 111.6 h 349.1 v 83.5 h -257.9 l -90.8,46.7 c -0.2,0.1 -0.5,0.2 -0.7,0.3 0.2,-0.1 0.5,-0.1 0.8,-0.1 h 348.7 l 117.4,-60.4 V 522.4 h -349 v -78.3 z"
           id="path14" />
        <path
           d="M 3607.6,290.1 H 2507 L 2329.3,0 H 1510.8 L 1333,290.1 H 232.4 L 0,418.6 V 678.2 L 232.4,806.7 H 3607.6 L 3840,678.2 V 418.6 Z M 3809,659.9 3599.6,775.7 H 240.4 L 31,659.9 v -223 L 240.4,321.1 h 1110 L 1528.1,31 h 783.8 l 177.7,290.1 h 1110 L 3809,436.9 Z"
           id="path15" />
        <path
           d="m 2228.2,117.5 c -1.7,-4.3 -5.1,-7.7 -10.2,-7.7 -4.3,0 -8.5,3.4 -10.3,6.8 l -68.4,199.1 h 39.3 l 23.9,-70.9 v 29.9 h 0.9 77.8 z m -23.1,119.6 12,-34.2 11.1,34.2 z"
           id="path16" />
      </g>
    </g>
  </g>
</svg>
