<?xml version="1.0" encoding="UTF-8" standalone="no"?>
<svg
   enable-background="new 1.735 -0.002 565.195 186.787"
   height="635"
   viewBox="1.735 -0.002 1920 634.99995"
   width="1920"
   version="1.1"
   id="svg16"
   sodipodi:docname="mame-libretro.svg"
   inkscape:version="1.3.2 (091e20e, 2023-11-25)"
   xmlns:inkscape="http://www.inkscape.org/namespaces/inkscape"
   xmlns:sodipodi="http://sodipodi.sourceforge.net/DTD/sodipodi-0.dtd"
   xmlns="http://www.w3.org/2000/svg"
   xmlns:svg="http://www.w3.org/2000/svg">
  <defs
     id="defs16" />
  <sodipodi:namedview
     id="namedview16"
     pagecolor="#ffffff"
     bordercolor="#000000"
     borderopacity="0.25"
     inkscape:showpageshadow="2"
     inkscape:pageopacity="0.0"
     inkscape:pagecheckerboard="0"
     inkscape:deskcolor="#d1d1d1"
     inkscape:zoom="0.13149703"
     inkscape:cx="1923.9978"
     inkscape:cy="631.19296"
     inkscape:window-width="1312"
     inkscape:window-height="449"
     inkscape:window-x="0"
     inkscape:window-y="23"
     inkscape:window-maximized="0"
     inkscape:current-layer="svg16" />
  <g
     id="g1"
     transform="matrix(0.5,0,0,0.5,0.8675,-0.001)">
    <g
       id="g17"
       transform="matrix(1,0,0,1.000743,1e-7,1.5760669e-6)">
      <path
         d="m 1342.1624,1226.245 c 21.979,0 39.7932,19.8457 39.7932,41.8247 H 1259.8584 V 872.10133 h 40.4794 V 1226.245 Z"
         id="path1"
         style="fill:#ffffff;fill-opacity:1;stroke-width:6.79412" />
      <path
         d="m 1455.4884,1268.0765 c -21.979,0 -41.152,-19.8593 -41.152,-41.8247 V 951.36837 h 41.152 z"
         id="path2"
         style="fill:#ffffff;fill-opacity:1;stroke-width:6.79412" />
      <path
         d="m 1577.5856,951.36158 h -41.8314 v -79.26025 h -41.1384 v 395.96837 h 82.9698 c 21.979,0 39.7932,-19.8593 39.7932,-41.8247 V 990.14923 c 0,-21.97899 -17.8142,-38.78765 -39.7932,-38.78765 z m -0.6794,274.88342 h -41.152 V 990.82865 h 41.152 z"
         id="path3"
         style="fill:#ffffff;fill-opacity:1;stroke-width:6.79412" />
      <path
         d="m 1661.8939,869.68941 h 329.3588 c 0,0 18.7178,3.03018 24.7849,14.16575 6.0672,11.14237 53.6329,109.27669 58.1781,120.40544 4.5521,11.1424 0.5028,19.2274 -6.0807,27.8424 -6.5835,8.6013 -74.8781,86.5027 -74.8781,86.5027 l 83.4727,147.0589 h -125.9699 c 0,0 -98.6575,-168.8204 -104.2151,-176.9054 -5.5712,-8.0851 -5.5712,-21.2521 6.5699,-21.2521 h 43.0069 c 5.5575,0 8.0918,-1.0055 14.6685,-6.5699 6.5767,-5.5712 40.4726,-46.5601 40.4726,-46.5601 0,0 -16.1904,-43.5028 -19.7302,-51.60139 -3.5397,-8.0986 -11.1355,-10.61922 -18.2082,-10.61922 -7.0795,0 -126.9754,0 -126.9754,0 v 313.50131 h -124.4616 z"
         fill="#f9f9f9"
         id="path4"
         style="fill:#ffffff;fill-opacity:1;stroke-width:6.79412" />
      <path
         d="m 1948.8166,1269.0548 -0.9852,-1.6849 c -0.054,-0.082 -24.6558,-42.2119 -49.9979,-85.4157 -25.3217,-43.1359 -51.5267,-87.6103 -54.0745,-91.2791 -2.6293,-3.8591 -4.1716,-8.4859 -4.1851,-13.0175 0,-3.336 0.8764,-6.733 3.2136,-9.4031 2.3372,-2.6769 6.0264,-4.2056 10.3406,-4.1648 12.1547,0 37.4425,0 43.0068,0.014 5.0685,-0.1699 5.7886,-0.3261 12.4808,-5.775 2.7449,-2.2829 13.1059,-14.1318 22.2984,-24.9752 7.1542,-8.4112 13.7988,-16.4146 16.4893,-19.6486 -3.1253,-8.3772 -15.973,-42.72828 -18.976,-49.58356 -2.8603,-6.50877 -8.6693,-8.50624 -15.0829,-8.58777 -3.5398,0 -35.2955,0 -66.1544,0 -24.6695,0 -48.7411,0 -57.4308,0 v 313.50803 h -131.2692 v -399.35858 -3.41065 h 3.4106 329.3452 c 14.0299,-0.38727 21.8159,4.19877 27.7744,15.9526 6.2302,11.46848 53.6192,109.20196 58.3547,120.73843 1.4743,3.6348 2.1741,7.1202 2.1605,10.4425 0,8.0103 -3.9677,14.5055 -8.6897,20.7493 -6.2098,8.1054 -63.1378,73.1183 -73.4309,84.8586 l 85.1712,150.0346 z m 122.0836,-6.8077 -81.7673,-144.0898 1.5762,-1.8004 c 0.082,-0.1019 68.4033,-78.0509 74.7286,-86.3194 4.5181,-5.9312 7.3309,-11.0404 7.3173,-16.6252 -0.014,-2.3779 -0.4824,-4.9393 -1.685,-7.8676 -4.3822,-10.7279 -52.1177,-109.26308 -58.0218,-120.05895 -6.1826,-10.53089 -8.5062,-12.00522 -21.8023,-12.39927 -12.8273,0 -291.896,0 -325.9481,0 v 389.16062 h 117.6538 V 948.74584 h 3.4107 126.9754 c 7.7521,-0.0883 17.1076,2.97583 21.3199,12.65066 3.6553,8.36357 19.7709,51.7305 19.7981,51.778 l 0.6862,1.8412 -1.2501,1.5219 c -0.1563,0.1427 -33.6105,40.7308 -40.9006,46.9814 -6.4545,5.6663 -10.8095,7.5211 -16.8631,7.3784 -5.5643,-0.014 -30.8521,-0.014 -43.0068,-0.014 -5.5168,0.3057 -6.3796,2.4051 -6.7669,6.7738 -0.014,2.901 1.121,6.468 2.9962,9.1584 5.4897,8.0239 93.0727,157.8343 103.3658,175.4311 z"
         fill="#ffffff"
         id="path5"
         style="fill:#ffffff;fill-opacity:1;stroke-width:6.79412" />
      <path
         d="m 2930.683,869.68941 h 329.3452 c 13.6698,0 18.7246,3.03018 24.7849,14.16575 6.0672,11.14237 53.6397,109.27669 58.1781,120.40544 4.5657,11.1424 0.5028,19.2274 -6.0671,27.8424 -6.5835,8.6013 -74.8781,86.5027 -74.8781,86.5027 l 83.4794,147.0589 H 3219.542 c 0,0 -98.6507,-168.8204 -104.2219,-176.9054 -5.5576,-8.0851 -5.5576,-21.2521 6.5835,-21.2521 h 42.9933 c 5.5711,0 8.0918,-1.0055 14.6753,-6.5699 6.5835,-5.5712 40.4726,-46.5601 40.4726,-46.5601 0,0 -16.1904,-43.5028 -19.7302,-51.60139 -3.5329,-8.0918 -11.122,-10.61922 -18.2082,-10.61922 -7.0863,0 -126.9754,0 -126.9754,0 V 1265.6578 H 2930.6762 V 869.68941 Z"
         fill="#f9f9f9"
         id="path6"
         style="fill:#ffffff;fill-opacity:1;stroke-width:6.79412" />
      <path
         d="m 3217.5921,1269.048 -0.9716,-1.6849 c -0.068,-0.088 -24.6694,-42.1983 -50.0115,-85.4089 -25.3217,-43.1291 -51.5267,-87.5967 -54.0745,-91.2791 -2.6293,-3.8523 -4.1648,-8.4859 -4.1783,-13.0243 -0.027,-3.3224 0.8764,-6.7194 3.2136,-9.3963 2.3236,-2.6837 6.0128,-4.192 10.3474,-4.158 h 42.9932 c 5.0685,-0.1495 5.7886,-0.3193 12.4876,-5.7682 2.7449,-2.2964 13.1127,-14.1318 22.3051,-24.9752 7.1407,-8.4112 13.7989,-16.4146 16.4826,-19.6486 -3.1185,-8.35 -15.9662,-42.72149 -18.976,-49.56997 -2.8671,-6.52915 -8.6761,-8.51983 -15.0897,-8.60136 -3.5398,0 -35.2955,0 -66.1476,0 -24.6967,0 -48.7683,0 -57.4308,0 v 313.50123 h -131.2624 v -399.34499 -3.41065 h 3.4106 329.3588 c 14.023,-0.39406 21.8023,4.19198 27.7608,15.93222 6.2505,11.46849 53.6124,109.21555 58.3479,120.73842 1.5015,3.6552 2.1741,7.1406 2.1741,10.4629 -0.014,7.9967 -3.9678,14.4987 -8.6897,20.7357 -6.2098,8.0918 -63.1378,73.1183 -73.4377,84.8586 l 85.1644,150.0346 h -133.7763 z m 122.0972,-6.8009 -81.7809,-144.083 1.6034,-1.8072 c 0.054,-0.1087 68.3897,-78.0509 74.7082,-86.3194 4.4977,-5.9312 7.3241,-11.054 7.3105,-16.6184 0,-2.3983 -0.4756,-4.9461 -1.685,-7.8812 -4.3686,-10.71431 -52.0973,-109.24949 -58.015,-120.05215 -6.169,-10.53089 -8.5198,-12.00522 -21.8023,-12.39248 -12.8341,-0.0136 -291.896,-0.0136 -325.9481,0 v 389.15383 h 117.6334 V 948.74584 h 3.4107 126.9754 c 7.7521,-0.0883 17.1212,2.97583 21.3267,12.65066 3.6485,8.37716 19.7709,51.7237 19.7981,51.778 l 0.693,1.8412 -1.2501,1.5287 c -0.1427,0.1427 -33.6241,40.7104 -40.9006,46.9746 -6.4612,5.6799 -10.8027,7.5347 -16.8631,7.3648 -5.5575,0 -30.8657,0 -42.9932,0 -5.5304,0.3057 -6.3932,2.3983 -6.7805,6.767 -0.027,2.9214 1.1142,6.4748 2.9962,9.172 5.4964,8.0171 93.0591,157.8071 103.3726,175.4243 z"
         fill="#ffffff"
         id="path7"
         style="fill:#ffffff;fill-opacity:1;stroke-width:6.79412" />
      <path
         d="m 2099.5238,1265.6578 c 0,0 0,-253.2986 0,-261.9067 0,-8.60139 2.0179,-12.13434 6.0672,-20.74249 4.0629,-8.60816 50.5958,-94.10541 55.6643,-102.19042 5.0548,-8.0918 12.1411,-11.13557 25.7972,-11.13557 h 327.7486 v 81.95752 c 0,0 -237.1965,0 -246.3006,0 -9.1041,0 -13.1534,0.51635 -19.2274,13.66978 -6.0739,13.15342 -25.2945,59.69998 -25.2945,59.69998 h 249.4191 v 82.4671 h -249.4191 v 74.878 h 290.8225 v 83.3096 h -415.2773 z"
         fill="#f9f9f9"
         id="path8"
         style="fill:#ffffff;fill-opacity:1;stroke-width:6.79412" />
      <path
         d="m 2099.5238,1269.0548 v -3.397 h 3.3971 -3.3971 v 3.397 h -3.397 v -3.397 c 0,-0.014 0,-253.3054 0,-261.9067 -0.054,-9.21286 2.4119,-13.83287 6.3729,-22.18964 4.2735,-8.99542 50.5686,-94.07824 55.868,-102.5573 5.5848,-9.21283 14.7025,-12.88846 28.6916,-12.73219 h 327.7486 3.3835 v 88.75164 h -3.3835 c -0.014,0 -237.1965,0 -246.3006,0 -9.1177,0.55712 -9.6477,-0.89003 -16.1496,11.69948 -4.8307,10.45616 -18.2626,42.72141 -23.3039,54.87611 h 247.7478 v 89.268 l -249.4191,-0.014 v 68.084 h 290.8224 v 90.1104 z m 411.8666,-6.8077 v -76.5018 H 2220.568 v -81.679 h 249.4326 v -75.6661 H 2218.883 l 1.9363,-4.6948 c 0.014,-0.034 19.2138,-46.50577 25.3557,-59.82225 5.6527,-13.71734 13.2146,-16.19719 22.3187,-15.64007 h 242.9035 v -75.1634 c -33.9842,0 -311.5445,0 -324.365,0 -13.3369,0.16306 -18.3917,2.56818 -22.9166,9.52536 -4.8306,7.71133 -51.6354,93.63662 -55.4673,101.83713 -4.124,8.85274 -5.6798,11.31901 -5.7478,19.30893 v 258.4892 z"
         fill="#ffffff"
         id="path9"
         style="fill:#ffffff;fill-opacity:1;stroke-width:6.79412" />
      <path
         d="m 2639.5885,869.69527 v 124.45507 h -124.7871 v 145.44336 h 124.7871 v 126.0645 h 148.4863 v -126.0645 h 121.92 V 994.15034 h -121.92 V 869.69527 Z m 74.1113,41.99609 42,41.98047 h -85.496 z m -0.4902,111.55864 c 24.1667,0 43.7481,19.594 43.7481,43.7539 0,24.1663 -19.5882,43.7617 -43.7481,43.7617 -24.1803,0 -43.7598,-19.5954 -43.7598,-43.7617 0,-24.1667 19.5863,-43.7539 43.7598,-43.7539 z m -113.0879,0.5039 v 85.4824 l -41.9883,-43.502 z m 225.6406,0 42,43.4961 -42,41.9863 z m -155.5585,155.5644 h 85.496 l -43.5156,41.9883 z"
         fill="#ffffff"
         id="path10"
         style="fill:#ffffff;fill-opacity:1;stroke-width:6.79412" />
      <path
         d="m 2636.1849,1269.0548 v -126.065 H 2511.3972 V 990.74032 h 124.7877 V 866.28556 h 155.2865 v 124.45476 h 121.9138 v 152.24948 l -121.9274,-0.02 v 126.0853 z m -118.0003,-132.8659 h 124.8012 v 126.0582 h 141.6847 v -126.0582 h 121.9138 V 997.54124 h -118.51 v -3.39706 h 3.3971 -3.3971 v 3.39706 h -3.4038 V 873.07968 h -141.6847 v 124.46156 l -124.8012,-0.0136 z m 195.0253,-22.0401 v -3.3835 -3.4106 c 22.2779,-0.041 40.3027,-18.0588 40.3435,-40.3503 -0.041,-22.2916 -18.0588,-40.33 -40.3435,-40.3639 -22.3051,0.041 -40.3299,18.0723 -40.3639,40.3639 0.041,22.2915 18.0588,40.3163 40.3639,40.3639 v 3.397 3.3835 c -26.0623,0 -47.158,-21.1094 -47.1784,-47.1444 0.02,-26.0487 21.1161,-47.1513 47.1784,-47.1648 26.0351,0.014 47.1376,21.1161 47.1376,47.1648 0,26.035 -21.1025,47.1444 -47.1376,47.1648 z"
         fill="#ffffff"
         id="path11"
         style="fill:#ffffff;fill-opacity:1;stroke-width:6.79412" />
      <path
         d="m 3680.5233,869.68941 h -238.1272 c -44.1347,0 -79.9397,35.79145 -79.9397,79.93967 v 236.09582 c 0,44.1482 35.805,79.9397 79.9397,79.9397 h 238.1272 c 44.1482,0 79.9397,-35.7915 79.9397,-79.9397 V 949.62908 c -0.02,-44.15501 -35.7915,-79.93967 -79.9397,-79.93967 z m -119.0738,317.03419 c -65.937,0 -119.3999,-53.4561 -119.3999,-119.3931 0,-65.937 53.4629,-119.38637 119.3999,-119.38637 65.937,0 119.3999,53.44937 119.3999,119.38637 0,65.937 -53.4629,119.3931 -119.3999,119.3931 z"
         fill="#f9f9f9"
         id="path12"
         style="fill:#ffffff;fill-opacity:1;stroke-width:6.79412" />
      <path
         d="m 3442.3893,1269.048 c -46.0098,0 -83.3368,-37.3065 -83.3368,-83.3367 V 949.62228 c 0,-46.03698 37.3202,-83.33672 83.3368,-83.35031 h 238.134 v 3.40386 3.39026 h -238.134 c -42.2595,0.0951 -76.4679,34.28315 -76.5426,76.55619 v 236.08902 c 0.075,42.273 34.2831,76.4611 76.5426,76.5358 h 238.134 c 42.2663,-0.075 76.4543,-34.2628 76.5426,-76.5358 V 949.62228 c -0.014,-42.28662 -34.2763,-76.55619 -76.5426,-76.55619 v -3.39026 -3.40386 c 46.0234,0.0136 83.3096,37.32012 83.3232,83.35031 l 0.014,236.08902 c -0.014,46.0234 -37.3201,83.3367 -83.3367,83.3367 z m -3.7436,-201.7243 c 0,-67.81216 54.9916,-122.77663 122.7902,-122.79022 67.819,0.0136 122.797,54.97806 122.8106,122.79022 -0.014,67.8189 -54.9916,122.7902 -122.8106,122.7902 v -3.3903 -3.4038 c 64.0686,-0.1223 115.901,-51.9479 116.0097,-115.9961 -0.1155,-64.055 -51.9479,-115.88059 -116.0097,-115.9893 -64.0686,0.1155 -115.8806,51.9411 -115.9893,115.9893 0.1155,64.055 51.9275,115.8806 115.9893,115.9961 v 3.4038 3.3903 c -67.7986,0 -122.7902,-54.9713 -122.7902,-122.7902 z"
         fill="#ffffff"
         id="path13"
         style="fill:#ffffff;fill-opacity:1;stroke-width:6.79412" />
      <path
         d="m 1414.3364,872.10133 h 41.152 v 42.59236 h -41.152 z"
         fill="#ffffff"
         id="path14"
         style="fill:#ffffff;fill-opacity:1;stroke-width:6.79412" />
      <path
         d="m 2680.6646,628.08383 c -12.6151,12.61504 -25.2301,25.23008 -37.8451,37.84512 0,-187.60639 0,-375.21277 0,-562.81916 -116.9647,116.96401 -233.9294,233.92799 -350.894,350.89202 0,-116.96401 0,-233.92801 0,-350.89202 -197.1461,197.16242 -394.2945,394.32258 -591.4392,591.48643 0.032,-197.16215 0.068,-394.32429 0.1024,-591.48643 -187.6064,187.60639 -375.2129,375.21277 -562.8192,562.81916 0,-187.60639 0,-375.21277 0,-562.81916 -116.9647,116.96401 -233.92935,233.92799 -350.89399,350.89202 0,-116.96401 0,-233.92801 0,-350.89202 C 559.22025,330.76505 331.56498,558.42032 103.90972,786.07558 H 318.00191 C 446.41233,657.69897 574.82397,529.32359 703.23363,400.94621 V 751.83823 L 986.40674,468.66512 V 817.28974 C 910.98615,892.71032 835.56557,968.1309 760.14499,1043.5515 H 974.23915 C 1165.8678,851.95606 1357.4973,660.36143 1549.1255,468.7655 v 317.31008 h 274.0288 c 128.3764,-128.37646 256.7528,-256.75291 385.1293,-385.12937 v 350.89202 c 94.3911,-94.39104 188.782,-188.78207 283.1731,-283.17311 v 317.41046 h 761.1675 c 45.2292,-45.24697 90.4585,-90.49394 135.6878,-135.74091 -171.9019,0 -343.8038,0 -515.7057,0 51.0585,-51.0585 102.1171,-102.11699 153.1755,-153.17549 h 144.7121 c 45.2313,-45.21352 90.4625,-90.42703 135.6937,-135.64054 -48.2544,0 -96.5088,0 -144.7633,0 51.0585,-51.0585 102.117,-102.11699 153.1755,-153.17549 h 289.2196 c 45.2469,-45.24763 90.4939,-90.49526 135.7409,-135.742885 -167.8047,0 -335.6095,0 -503.4141,0 -185.1606,185.161185 -370.321,370.322385 -555.4816,555.483565 z"
         id="path15"
         style="fill:#ffffff;fill-opacity:1;stroke-width:1.00773" />
      <path
         d="M 1.7349999,827.46333 H 335.52704 C 443.95417,719.03684 552.38134,610.61039 660.80845,502.18389 v 350.892 C 755.1995,758.68486 849.59053,664.29382 943.98157,569.90278 V 798.82755 C 848.61101,894.19812 753.24045,989.56868 657.86988,1084.9392 h 333.8944 C 1163.4429,913.29377 1335.1225,741.6492 1506.8007,570.00316 v 257.46017 h 333.7763 c 108.4272,-108.42649 216.8544,-216.85294 325.2814,-325.27944 v 350.892 c 94.3911,-94.39103 188.7821,-188.78207 283.1732,-283.17311 v 229.02713 c -9.5118,9.51118 -19.0236,19.02227 -28.5354,28.53342 h 849.5507 c 73.4642,-73.46351 146.9284,-146.92702 220.3926,-220.39053 -171.9196,0 -343.8392,0 -515.7588,0 22.842,-22.84196 45.6839,-45.68392 68.5258,-68.52588 h 144.8126 c 73.4634,-73.46416 146.927,-146.92833 220.3905,-220.39249 -48.2702,0 -96.5404,0 -144.8105,0 22.842,-22.84197 45.6839,-45.68392 68.5258,-68.52588 h 289.2196 c 73.4634,-73.46351 146.927,-146.92702 220.3905,-220.390533 -207.7047,0 -415.4092,0 -623.1139,0 -177.8256,177.826253 -355.6512,355.652523 -533.4768,533.478763 0,-187.57293 0,-375.14585 0,-562.71878009 C 2568.1796,116.962 2451.2149,233.92599 2334.2503,350.89001 c 0,-116.964 0,-233.92801 0,-350.89201009 C 2137.1043,197.14668 1939.9556,394.29278 1742.8111,591.44308 c 0.032,-197.14835 0.069,-394.29672 0.1024,-591.44508009 C 1555.3071,187.60438 1367.7007,375.21077 1180.0943,562.81716 c 0,-187.60639 0,-375.21278 0,-562.81916009 C 1063.1296,116.962 946.16497,233.92599 829.20033,350.89001 c 0,-116.964 0,-233.92801 0,-350.89201009 C 553.37855,275.81977 277.55677,551.64155 1.7349999,827.46333 Z M 1723.5638,51.750626 c -0.038,195.525884 -0.072,391.051764 -0.1008,586.577664 197.1465,-197.1464 394.2928,-394.29279 591.4392,-591.439191 V 397.78111 C 2431.8328,280.85057 2548.7633,163.92003 2665.6938,46.989479 V 609.80863 C 2852.7006,422.80191 3039.7073,235.79518 3226.714,48.788441 h 568.0291 c -60.464,60.464009 -120.928,120.928019 -181.392,181.392029 -96.44,0 -192.88,0 -289.3199,0 -35.8421,35.84146 -71.6843,71.68292 -107.5263,107.52438 h 144.8125 c -60.464,60.46401 -120.928,120.92802 -181.3921,181.39203 -48.2708,0 -96.5416,0 -144.8125,0 -35.8414,35.84212 -71.6829,71.68422 -107.5243,107.52634 h 515.7568 c -60.464,60.46401 -120.9281,120.92802 -181.3921,181.39203 -264.4906,0 -528.9813,0 -793.472,0 0,-95.03465 0,-190.0693 0,-285.10394 -94.4251,94.4245 -188.8504,188.84897 -283.2755,283.27349 0,-116.99813 0,-233.99625 0,-350.99437 -117.6076,117.60827 -235.2152,235.21656 -352.8228,352.82482 -102.1117,0 -204.2235,0 -306.3353,0 0,-95.00118 0,-190.00238 0,-285.00356 -180.8599,180.85995 -361.7199,361.7199 -542.57982,542.57991 -92.83679,0 -185.67358,0 -278.51037,0 86.22581,-86.18892 172.45002,-172.379 258.67496,-258.56833 0,-94.67119 0,-189.34237 0,-284.01355 -94.39764,94.38314 -188.8471,188.71442 -283.27349,283.0688 0,-116.9627 0,-233.92539 0,-350.88809 -117.60762,117.60827 -235.21523,235.21656 -352.82285,352.82482 -92.93652,0 -185.87304,0 -278.809551,0 C 302.40174,554.34 556.077,300.66474 809.75225,46.989479 V 397.88347 C 926.74972,280.88535 1043.7472,163.88721 1160.7446,46.889099 V 609.70825 C 1348.3508,422.09958 1535.9594,234.49349 1723.5638,46.883195 Z"
         id="path16"
         style="fill:#ffffff;fill-opacity:1;stroke-width:1.00773" />
    </g>
  </g>
</svg>
