<?xml version="1.0" encoding="UTF-8" standalone="no"?>
<svg
   enable-background="new -54.704 -17.335 641.883 266.225"
   height="796"
   viewBox="-54.704 -17.335 1920 795.99995"
   width="1920"
   version="1.1"
   id="svg11"
   sodipodi:docname="mame-mame4all.svg"
   inkscape:version="1.3.2 (091e20e, 2023-11-25)"
   xmlns:inkscape="http://www.inkscape.org/namespaces/inkscape"
   xmlns:sodipodi="http://sodipodi.sourceforge.net/DTD/sodipodi-0.dtd"
   xmlns:xlink="http://www.w3.org/1999/xlink"
   xmlns="http://www.w3.org/2000/svg"
   xmlns:svg="http://www.w3.org/2000/svg">
  <defs
     id="defs11" />
  <sodipodi:namedview
     id="namedview11"
     pagecolor="#ffffff"
     bordercolor="#000000"
     borderopacity="0.25"
     inkscape:showpageshadow="2"
     inkscape:pageopacity="0.0"
     inkscape:pagecheckerboard="0"
     inkscape:deskcolor="#d1d1d1"
     inkscape:zoom="0.14817986"
     inkscape:cx="1923.3383"
     inkscape:cy="796.32954"
     inkscape:window-width="1312"
     inkscape:window-height="613"
     inkscape:window-x="0"
     inkscape:window-y="23"
     inkscape:window-maximized="0"
     inkscape:current-layer="svg11" />
  <linearGradient
     id="a">
    <stop
       offset="0"
       stop-color="#2a76a0"
       id="stop1" />
    <stop
       offset="1"
       stop-color="#223756"
       id="stop2" />
  </linearGradient>
  <linearGradient
     id="b"
     gradientUnits="userSpaceOnUse"
     x1="1865.2917"
     x2="1865.2917"
     xlink:href="#a"
     y1="-19.6436"
     y2="1065.1617" />
  <linearGradient
     id="c"
     gradientUnits="userSpaceOnUse"
     x1="1299.0249"
     x2="1299.0249"
     y1="725.16272"
     y2="1265.5714">
    <stop
       offset=".0051"
       stop-color="#9ca3a6"
       id="stop3" />
    <stop
       offset="1"
       stop-color="#454547"
       id="stop4" />
  </linearGradient>
  <linearGradient
     id="d"
     gradientUnits="userSpaceOnUse"
     x1="1607.7778"
     x2="1607.7778"
     xlink:href="#a"
     y1="817.88959"
     y2="1400.1749" />
  <linearGradient
     id="e"
     gradientUnits="userSpaceOnUse"
     x1="2419.5676"
     x2="2419.5676"
     xlink:href="#a"
     y1="817.88959"
     y2="1400.1749" />
  <g
     id="g1"
     transform="matrix(0.5,0,0,0.5,-27.352,-8.6675)">
    <g
       id="g11"
       transform="matrix(1,0,0,0.99958616,-4e-6,-0.00717392)">
      <path
         d="m 2671.7598,564.71484 c -12.5821,12.88277 -25.1641,25.76565 -37.7461,38.64844 0,-181.60417 0,-363.20833 0,-544.812499 -113.4355,115.755249 -226.8713,231.510199 -340.3067,347.265629 0,-115.97722 0,-231.95443 0,-347.931644 -209.5929,210.143364 -419.187,420.285654 -628.7793,630.429684 0,-210.15755 0,-420.3151 0,-630.472653 -195.8411,196.184223 -391.6821,392.368613 -587.5234,588.552733 0,-196.55664 0,-393.11328 0,-589.669921 C 957.59122,173.14396 837.77754,289.56268 717.96484,405.98242 c 0,-116.27604 0,-232.55208 0,-348.828123 C 485.63411,285.67513 253.30339,514.19596 20.972656,742.7168 H 241.08008 C 367.51384,611.93701 493.94628,481.15594 620.38086,350.37695 V 711.60742 C 723.90951,608.07878 827.43815,504.55013 930.9668,401.02148 V 773.82617 C 844.20703,860.58658 757.44727,947.34701 670.6875,1034.1074 H 903.3457 C 1107.5189,829.93424 1311.6921,625.76107 1515.8652,421.58789 V 742.7168 h 284.8379 C 1928.3952,615.02668 2056.0873,487.33664 2183.7793,359.64648 V 711.60742 C 2284.6484,610.73893 2385.5176,509.87046 2486.3867,409.00195 V 742.7168 h 700.2363 c 49.1452,-49.14519 98.2904,-98.29037 147.4356,-147.43555 -183.4421,0 -366.8841,0 -550.3262,0 56.2973,-53.553 112.5955,-107.10504 168.8946,-160.65625 h 184.1386 c 45.987,-45.98893 91.974,-91.97786 137.961,-137.9668 -57.3529,0 -114.7058,0 -172.0586,0 57.5278,-51.97208 115.0549,-103.945 172.582,-155.91797 h 325.9473 c 36.9375,-38.02408 73.875,-76.048173 110.8125,-114.072261 -171.5482,0 -343.0964,0 -514.6446,0 C 3022.1634,206.01693 2846.9616,385.36589 2671.7598,564.71484 Z"
         fill="#ffffff"
         id="path4"
         style="fill:#ffffff;stroke-width:5.98238" />
      <path
         d="M 595.89179,1065.0809 899.99412,760.99657 V 475.79258 L 589.40689,786.36186 589.39493,426.97038 254.21414,773.6852 H -54.703996 L 748.93902,-16.760692 V 332.68209 L 1108.3784,-16.569256 V 571.51066 L 1695.9019,-17.023917 1695.89,613.38134 2324.668,-17.047846 V 329.94216 L 2664.9877,-17.335 V 527.31284 L 3184.324,-4.3173414 h 579.7405 v 8.9855347 -8.9855347 h 21.2315 L 3614.3076,171.70223 h -327.1405 l -104.0036,93.97122 h 166.352 l -199.9252,199.91918 -184.5863,-0.012 -103.7943,98.7332 h 547.6091 L 3199.4475,773.6852 H 2455.401 V 483.77308 L 2152.7942,786.37981 V 434.41844 L 1813.5215,773.6852 h -328.6361 l -0.012,-277.31323 -568.70303,568.70893 z M 917.94126,768.42668 639.25208,1047.1218 H 908.73437 L 1502.8385,452.99972 v 302.72039 h 303.2469 l 364.6679,-364.64999 v 351.96136 l 302.6008,-302.57682 v 315.2834 h 718.6573 l 173.4771,-173.48902 h -549.1526 l 141.4833,-134.60355 h 184.335 l 164.013,-164.01892 H 3136.5248 L 3280.2515,153.76705 H 3606.698 L 3742.8091,13.647746 3191.8678,13.629799 2647.0285,571.3611 V 26.65344 L 2306.7089,373.9306 V 26.366286 L 1677.9428,656.80744 V 26.366286 L 1090.4252,614.92479 V 25.893678 L 730.99188,375.13306 V 26.073149 L -10.835203,755.72011 H 246.60456 L 607.36002,382.56317 V 743.04344 L 917.94724,432.47417 Z"
         fill="url(#b)"
         id="path5"
         style="fill:#ffffff;stroke-width:5.98238" />
      <path
         d="m 1036.5566,1107.6465 h 266.7989 v 133.6113 h 64.707 c 0,-44.5371 0,-89.0742 0,-133.6113 h 123.5645 c 22.7252,-21.2363 45.4505,-42.4727 68.1757,-63.709 -63.9134,0 -127.8268,0 -191.7402,0 0,-86.1849 0,-172.36979 0,-258.55469 -110.502,107.42123 -221.0039,214.84249 -331.5059,322.26369 z m 266.7989,-188.89845 v 125.18945 c -39.5039,0 -79.0078,0 -118.5117,0 39.5033,-43.4549 79.0075,-86.90913 118.5117,-130.36328 z"
         fill="#ffffff"
         id="path6"
         style="fill:#ffffff;stroke-width:5.98238" />
      <path
         d="M 1279.3667,1265.2394 V 1131.6289 H 977.47192 L 1392.0449,728.60796 v 291.34194 h 228.5329 l -119.4981,111.679 -109.0348,-0.012 v 133.6224 z m -272.4076,-145.5872 h 284.3784 v 133.6165 h 88.7366 v -133.6165 h 116.2855 l 93.8755,-87.7376 h -204.1786 v -5.9764 h 5.9884 -5.9884 v 5.9764 h -5.9824 V 756.92855 Z m 205.046,-87.7376 79.3384,-87.25897 v 81.28257 5.9764 z m 73.35,-5.9764 v -5.9883 z m -46.2916,-5.9883 h 40.3032 v -44.34742 z"
         fill="url(#c)"
         id="path7"
         style="fill:#ffffff;stroke-width:5.98238" />
      <path
         d="m 1297.8125,1546.3496 h 170.0449 c 133.6134,-137.3696 267.2257,-274.7404 400.8399,-412.1094 v 232.6387 h 90.8652 c 0,-157.1491 0,-314.2982 0,-471.44726 -220.5833,216.97266 -441.1667,433.94536 -661.75,650.91796 z"
         fill="#ffffff"
         id="path8"
         style="fill:#ffffff;stroke-width:5.98238" />
      <path
         d="m 1248.9703,1575.3241 v -8.9736 l 6.2815,6.3892 -6.2815,-6.3892 v 8.9736 h -21.9374 l 761.4912,-749.0478 v 569.5704 h -148.7998 v -190.2815 l -359.6487,369.7589 z m 21.9015,-17.9471 201.6122,-0.012 385.1695,-395.9977 v 216.5323 h 112.9294 V 869.1221 Z"
         fill="url(#d)"
         id="path9"
         style="fill:#ffffff;stroke-width:5.98238" />
      <path
         d="m 2256.0508,974.72266 v 330.45504 c -40.7507,0 -81.5013,0 -122.252,0 0,-135.5338 0,-271.0677 0,-406.60153 -23.5579,25.31055 -47.1159,50.6211 -70.6738,75.93164 v 392.37109 h 667.4902 c -22.3795,-20.5671 -44.7591,-41.1341 -67.1386,-61.7012 -110.7552,0 -221.5105,0 -332.2657,0 0,-136.0221 0,-272.0442 0,-408.06637 -25.0533,25.87044 -50.1067,51.74088 -75.1601,77.61133 z"
         fill="#ffffff"
         id="path10"
         style="fill:#ffffff;stroke-width:5.98238" />
      <path
         d="M 2034.1517,1395.8467 V 963.0694 l 113.061,-121.48419 15.5542,-16.68486 v 451.29285 h 64.3105 V 962.97368 l 133.096,-137.41527 v 450.64669 h 314.5895 l 130.2244,119.6416 z m 17.9351,-425.70613 v 407.75903 h 706.8182 l -91.1355,-83.7593 h -325.5253 l -0.012,-424.26442 -97.2017,100.36639 V 1294.1403 H 2144.8257 V 870.51002 Z"
         fill="url(#e)"
         id="path11"
         style="fill:#ffffff;stroke-width:5.98238" />
    </g>
  </g>
</svg>
