<?xml version="1.0" encoding="UTF-8" standalone="no"?>
<svg
   enable-background="new 0 0 3840 567.1"
   viewBox="0 0 1920 284.00001"
   version="1.1"
   id="svg28"
   sodipodi:docname="megadrive.svg"
   width="1920"
   height="284"
   inkscape:version="1.3.2 (091e20e, 2023-11-25)"
   xmlns:inkscape="http://www.inkscape.org/namespaces/inkscape"
   xmlns:sodipodi="http://sodipodi.sourceforge.net/DTD/sodipodi-0.dtd"
   xmlns="http://www.w3.org/2000/svg"
   xmlns:svg="http://www.w3.org/2000/svg">
  <defs
     id="defs28" />
  <sodipodi:namedview
     id="namedview28"
     pagecolor="#ffffff"
     bordercolor="#000000"
     borderopacity="0.25"
     inkscape:showpageshadow="2"
     inkscape:pageopacity="0.0"
     inkscape:pagecheckerboard="0"
     inkscape:deskcolor="#d1d1d1"
     inkscape:zoom="0.24557292"
     inkscape:cx="1922.036"
     inkscape:cy="285.04772"
     inkscape:window-width="1312"
     inkscape:window-height="449"
     inkscape:window-x="0"
     inkscape:window-y="23"
     inkscape:window-maximized="0"
     inkscape:current-layer="svg28" />
  <g
     id="g1"
     transform="scale(0.50000002)">
    <g
       id="g29"
       transform="scale(1.000026,1.0014104)">
      <g
         fill="#ffffff"
         id="g28">
        <path
           d="m 3442.2,238.2 h -471.8 c -196.1,0 -423.3,-56.6 -532.3,-107.6 -5.4,-2.5 -11.8,-1.3 -15.8,3.1 -98.4,107.8 -360,120.3 -502.3,120.3 -142.3,0 -403.9,-12.5 -502.3,-120.2 -4,-4.4 -10.4,-5.6 -15.8,-3.1 -109,51 -336.2,107.6 -532.3,107.6 H 397.8 C 178.1,238.2 0,311.9 0,402.7 0,493.5 178.1,567.2 397.8,567.2 h 3044.3 c 219.7,0 397.8,-73.6 397.8,-164.5 0.1,-90.8 -178,-164.5 -397.7,-164.5 z m -70.5,292.3 H 468.3 c -209.7,0 -379.7,-57.2 -379.7,-127.8 0,-70.6 170,-127.8 379.7,-127.8 h 2903.5 c 209.7,0 379.7,57.2 379.7,127.8 0,70.6 -170.1,127.8 -379.8,127.8 z"
           id="path1" />
        <path
           d="m 2082,122.8 c -2.3,7 -4.5,14 -6.8,21 4.5,-0.1 9,-0.1 13.6,-0.2 -2.3,-6.9 -4.5,-13.9 -6.8,-20.8 z"
           id="path2" />
        <path
           d="m 1920,0 c -236.1,0 -427.5,52.7 -427.5,117.7 0,65 191.4,117.7 427.5,117.7 236.1,0 427.5,-52.7 427.5,-117.7 C 2347.5,52.7 2156.1,0 1920,0 Z m 38,141.8 c 0,2.6 2,4.8 4.5,4.8 h 11.3 c 0,-1.6 0,-3.2 0,-4.8 -3.8,0 -7.6,0 -11.3,0 0,-6.9 0,-13.8 0,-20.6 h 30.6 v 45.9 c -13.2,0.1 -26.3,0.2 -39.5,0.3 -8.1,0 -14.7,-7.1 -14.7,-15.8 0,-21.9 0,-43.7 0,-65.6 0,-8.7 6.6,-15.8 14.7,-15.7 21.1,0.1 42.2,0.3 63.3,0.5 v 20.3 c -18.1,-0.1 -36.2,-0.2 -54.3,-0.3 -4.5,0.1 -4.5,4.9 -4.5,4.9 -0.2,15.4 -0.1,30.8 -0.1,46.1 z M 1733.8,48.1 c 20.4,-0.7 40.7,-1.4 61.1,-1.9 v 20.3 c -20.4,0.4 -40.7,0.8 -61.1,1.4 -14.3,0.4 -25.9,12.5 -25.9,26.9 0,14.4 11.6,26.2 25.9,26.3 5.3,0.1 10.7,0.1 16,0.2 11.8,0 21.4,10 21.4,22.4 0,12.4 -9.6,22.2 -21.4,21.9 -20.4,-0.5 -40.8,-1 -61.2,-1.6 0,-6.4 0,-12.7 0,-19.1 20.3,0.4 40.7,0.7 61.1,0.9 1.2,0 2.2,-1 2.2,-2.2 0,-1.3 -1,-2.3 -2.2,-2.3 -5.3,-0.1 -10.5,-0.1 -15.8,-0.2 -25,-0.4 -45.3,-21 -45.3,-45.8 -0.1,-25 20.2,-46.2 45.2,-47.2 z m 15.9,142 c -20.4,-0.7 -40.8,-1.5 -61.1,-2.4 0,-6.5 0,-12.9 0,-19.4 20.4,0.7 40.8,1.3 61.2,1.8 14.3,0.4 25.9,-11.5 25.9,-26.5 0,-15 -11.6,-27.1 -25.9,-27 -5.3,-0.1 -10.6,-0.1 -16,-0.2 -11.8,0 -21.4,-9.7 -21.4,-21.7 0,-11.9 9.6,-21.9 21.4,-22.3 20.4,-0.5 40.7,-0.9 61.1,-1.2 v 20.2 c -20.4,0.2 -40.7,0.4 -61.1,0.7 -1.2,0 -2.3,1.1 -2.3,2.4 0,1.3 1,2.3 2.3,2.3 5.3,-0.1 10.6,-0.2 15.9,-0.3 25,-0.3 45.3,20.9 45.3,47.3 0,26.4 -20.3,47.2 -45.3,46.3 z m 158,-99.2 c -18.8,0 -37.5,0.1 -56.3,0.2 -4.5,0 -4.6,4.8 -4.6,4.8 15.6,-0.1 31.3,-0.1 46.9,-0.1 v 20.6 c -22,0 -44,0 -66.1,0 0,-10 0,-20 0,-30 0,-8.6 6.5,-15.7 14.6,-15.8 21.8,-0.2 43.5,-0.3 65.3,-0.4 0.2,6.9 0.2,13.8 0.2,20.7 z m -56.2,55.7 c 18.7,0.1 37.3,0.2 56,0.2 v 20.5 c -21.7,0 -43.3,-0.1 -65,-0.4 -8.1,-0.1 -14.7,-7.1 -14.7,-15.7 0,-10 0,-20 0,-30 h 66.1 v 20.6 c -15.6,0 -31.3,-0.1 -46.9,-0.2 0,4.9 4.5,5 4.5,5 z m 56.2,-81.3 c -21.8,0 -43.5,0.2 -65.3,0.4 -10.6,0.1 -19.3,9.3 -19.3,20.4 v 65 c 0,11.5 8.7,20.6 19.3,20.7 21.7,0.2 43.3,0.4 65,0.4 v 20.6 c -21.7,-0.1 -43.4,-0.3 -65,-0.6 -21.2,-0.4 -38.5,-19 -38.5,-41.3 0,-21.5 0,-43 0,-64.5 0,-22.4 17.2,-40.9 38.5,-41.3 21.8,-0.3 43.5,-0.5 65.3,-0.6 z M 2060,191 c -7.6,0.2 -15.1,0.4 -22.7,0.6 12.9,-40.6 25.9,-80.7 38.8,-120.1 1.1,-3.4 4.7,-5.1 8,-3.8 1.8,0.7 3.3,2.2 3.8,4.1 10.2,31.6 20.5,62.7 30.7,93.3 -15,0.4 -30,0.8 -44.9,1.1 0,-5.9 0,-11.9 0,-17.8 -4.5,14 -9.1,28.2 -13.7,42.6 z m 13.8,-0.4 c 0,-6.7 0,-13.3 0,-20 17,-0.4 34,-0.8 51.1,-1.4 -11,-32.6 -22,-65.9 -33,-99.6 -1.7,-4.1 -5.6,-6.9 -9.9,-7 -4.3,-0.1 -8.2,2.5 -9.9,6.6 -13.2,40.2 -26.4,81.1 -39.6,122.5 -5.3,0.1 -10.6,0.2 -15.8,0.3 -21.1,0.4 -42.2,0.7 -63.3,0.8 -21.3,0.1 -38.6,-18.4 -38.6,-41.2 0,-21.9 0,-43.8 0,-65.6 0,-22.8 17.2,-41.3 38.5,-41.2 21.1,0.1 42.3,0.4 63.4,0.8 V 66 c -21.1,-0.3 -42.2,-0.5 -63.3,-0.6 -10.5,-0.1 -19.2,9.1 -19.2,20.6 v 65.6 c 0,11.4 8.6,20.7 19.2,20.6 14.7,-0.1 29.3,-0.2 44,-0.4 0,-18.5 0,-37 0,-55.5 -11.7,0 -23.4,0 -35.1,0 0,-6.9 0,-13.7 0,-20.6 18.1,0 36.2,0.1 54.4,0.2 v 81.9 c 12.1,-37.9 24.2,-75.5 36.3,-112.6 3.6,-12.2 15.2,-20.9 29,-20.4 13.8,0.5 25.5,9.8 29,21.8 13.5,41.2 26.9,81.6 40.4,120.8 -25.8,1.3 -51.7,2.3 -77.6,3.2 z"
           id="path3" />
        <path
           d="M 358.7,365.9 H 437 v 129.9 h -78.3 z"
           id="path4" />
        <path
           d="m 530.9,365.9 h 78.3 v 129.9 h -78.3 z"
           id="path5" />
        <path
           d="m 703.1,365.9 h 78.3 v 129.9 h -78.3 z"
           id="path6" />
        <path
           d="m 1504.9,365.9 h 78.3 v 129.9 h -78.3 z"
           id="path7" />
        <path
           d="m 2736.4,365.9 h 78.3 v 129.9 h -78.3 z"
           id="path8" />
        <path
           d="m 2372.4,365.9 h 78.3 v 129.9 h -78.3 z"
           id="path9" />
        <path
           d="M 2715.6,495.8 H 2613 l -38.9,-38.9 47.3,-55.3 z"
           id="path10" />
        <path
           d="m 1998.1,365.9 h 78.3 v 129.9 h -78.3 z"
           id="path11" />
        <path
           d="m 1738.7,365.9 h 78.3 v 129.9 h -78.3 z"
           id="path12" />
        <path
           d="M 779.5,354.3 H 358.7 v -44.7 h 376.1 c 24.7,0 44.7,20 44.7,44.7 z"
           id="path13" />
        <path
           d="m 824.9,309.6 h 279.2 v 44.7 H 824.9 Z"
           id="path14" />
        <path
           d="m 903.2,439.5 v -11.6 h 185 V 383.2 H 914.8 c -6.4,0 -11.6,-5.2 -11.6,-11.6 v -5.7 h -78.3 v 17.3 44.7 13.4 c 0,30.1 24.4,54.4 54.4,54.4 h 224.8 V 451 H 914.8 c -6.4,0.1 -11.6,-5.1 -11.6,-11.5 z"
           id="path15" />
        <path
           d="m 3220,309.6 h 279.2 v 44.7 H 3220 Z"
           id="path16" />
        <path
           d="m 3298.3,439.5 v -11.6 h 185 v -44.7 h -173.4 c -6.4,0 -11.6,-5.2 -11.6,-11.6 v -5.7 H 3220 v 17.3 44.7 13.4 c 0,30.1 24.4,54.4 54.4,54.4 h 224.8 V 451 h -189.3 c -6.4,0.1 -11.6,-5.1 -11.6,-11.5 z"
           id="path17" />
        <path
           d="m 1451.9,354.3 h -310.2 c 0,-24.7 20,-44.7 44.7,-44.7 H 1452 v 44.7 z"
           id="path18" />
        <path
           d="m 1279.5,383.2 v 44.7 h 98 c 6.4,0 11.6,5.2 11.6,11.6 0,6.4 -5.2,11.6 -11.6,11.6 h -145.9 c -6.4,0 -11.6,-5.2 -11.6,-11.6 v -73.6 h -78.3 v 75.4 c 0,30.1 24.4,54.5 54.5,54.5 h 23.8 191.2 c 31.1,0 56.3,-25.2 56.3,-56.3 0,-31.1 -25.2,-56.3 -56.3,-56.3 z"
           id="path19" />
        <path
           d="m 2245.5,365.9 v 73.6 c 0,6.4 -5.2,11.6 -11.6,11.6 h -145.8 v 44.7 h 181.3 c 30.1,0 54.5,-24.4 54.5,-54.5 v -75.4 z"
           id="path20" />
        <path
           d="m 1817,354.3 h -312.1 c 0,-24.7 20,-44.7 44.7,-44.7 h 222.7 c 24.7,0 44.7,20 44.7,44.7 z"
           id="path21" />
        <path
           d="m 2323.8,354.3 h -325.7 v -44.7 h 281.1 c 24.7,0 44.6,20 44.6,44.7 z"
           id="path22" />
        <path
           d="m 2736.4,309.6 h 78.3 v 44.7 h -78.3 z"
           id="path23" />
        <path
           d="m 1594.9,405.6 h 199.6 v 52.8 h -199.6 z"
           id="path24" />
        <path
           d="m 2372.4,354.3 h 233.8 V 394 c 0,6.4 -5.2,11.6 -11.6,11.6 h -132.2 v 52.8 h 162.9 c 35.8,0 65.1,-29.3 65.1,-65.1 v -18.6 c 0,-35.9 -29.1,-65.1 -65.1,-65.1 H 2417 c -24.6,0 -44.6,20 -44.6,44.7 z"
           id="path25" />
        <circle
           cx="182.5"
           cy="397.29999"
           r="50"
           id="circle25" />
        <circle
           cx="3652.1001"
           cy="397.29999"
           r="50"
           id="circle26" />
        <path
           d="m 3161.8,354.3 28.7,-44.7 h -93.1 l -28.7,44.7 z"
           id="path26" />
        <path
           d="m 2962.1,354.3 -28.7,-44.7 h -93.1 l 28.7,44.7 z"
           id="path27" />
        <path
           d="m 3061.2,365.9 -45.8,71.2 -45.7,-71.2 h -93.2 l 83.6,129.9 h 110.6 l 83.6,-129.9 z"
           id="path28" />
      </g>
    </g>
  </g>
</svg>
