<svg enable-background="new 0 0 3840 567.1" height="284" viewBox="0 0 1920 284.00001" width="1920" xmlns="http://www.w3.org/2000/svg"><g fill="#fff" transform="scale(.50001302 .50070522003)"><path d="m3442.2 238.2h-471.8c-196.1 0-423.3-56.6-532.3-107.6-5.4-2.5-11.8-1.3-15.8 3.1-98.4 107.8-360 120.3-502.3 120.3s-403.9-12.5-502.3-120.2c-4-4.4-10.4-5.6-15.8-3.1-109 51-336.2 107.6-532.3 107.6h-471.8c-219.7-.1-397.8 73.6-397.8 164.4s178.1 164.5 397.8 164.5h3044.3c219.7 0 397.8-73.6 397.8-164.5.1-90.8-178-164.5-397.7-164.5zm-70.5 292.3h-2903.4c-209.7 0-379.7-57.2-379.7-127.8s170-127.8 379.7-127.8h2903.5c209.7 0 379.7 57.2 379.7 127.8s-170.1 127.8-379.8 127.8z"/><path d="m2082 122.8c-2.3 7-4.5 14-6.8 21 4.5-.1 9-.1 13.6-.2-2.3-6.9-4.5-13.9-6.8-20.8z"/><path d="m1920 0c-236.1 0-427.5 52.7-427.5 117.7s191.4 117.7 427.5 117.7 427.5-52.7 427.5-117.7-191.4-117.7-427.5-117.7zm38 141.8c0 2.6 2 4.8 4.5 4.8h11.3c0-1.6 0-3.2 0-4.8-3.8 0-7.6 0-11.3 0 0-6.9 0-13.8 0-20.6h30.6v45.9c-13.2.1-26.3.2-39.5.3-8.1 0-14.7-7.1-14.7-15.8 0-21.9 0-43.7 0-65.6 0-8.7 6.6-15.8 14.7-15.7 21.1.1 42.2.3 63.3.5v20.3c-18.1-.1-36.2-.2-54.3-.3-4.5.1-4.5 4.9-4.5 4.9-.2 15.4-.1 30.8-.1 46.1zm-224.2-93.7c20.4-.7 40.7-1.4 61.1-1.9v20.3c-20.4.4-40.7.8-61.1 1.4-14.3.4-25.9 12.5-25.9 26.9s11.6 26.2 25.9 26.3c5.3.1 10.7.1 16 .2 11.8 0 21.4 10 21.4 22.4s-9.6 22.2-21.4 21.9c-20.4-.5-40.8-1-61.2-1.6 0-6.4 0-12.7 0-19.1 20.3.4 40.7.7 61.1.9 1.2 0 2.2-1 2.2-2.2 0-1.3-1-2.3-2.2-2.3-5.3-.1-10.5-.1-15.8-.2-25-.4-45.3-21-45.3-45.8-.1-25 20.2-46.2 45.2-47.2zm15.9 142c-20.4-.7-40.8-1.5-61.1-2.4 0-6.5 0-12.9 0-19.4 20.4.7 40.8 1.3 61.2 1.8 14.3.4 25.9-11.5 25.9-26.5s-11.6-27.1-25.9-27c-5.3-.1-10.6-.1-16-.2-11.8 0-21.4-9.7-21.4-21.7 0-11.9 9.6-21.9 21.4-22.3 20.4-.5 40.7-.9 61.1-1.2v20.2c-20.4.2-40.7.4-61.1.7-1.2 0-2.3 1.1-2.3 2.4s1 2.3 2.3 2.3c5.3-.1 10.6-.2 15.9-.3 25-.3 45.3 20.9 45.3 47.3s-20.3 47.2-45.3 46.3zm158-99.2c-18.8 0-37.5.1-56.3.2-4.5 0-4.6 4.8-4.6 4.8 15.6-.1 31.3-.1 46.9-.1v20.6c-22 0-44 0-66.1 0 0-10 0-20 0-30 0-8.6 6.5-15.7 14.6-15.8 21.8-.2 43.5-.3 65.3-.4.2 6.9.2 13.8.2 20.7zm-56.2 55.7c18.7.1 37.3.2 56 .2v20.5c-21.7 0-43.3-.1-65-.4-8.1-.1-14.7-7.1-14.7-15.7 0-10 0-20 0-30h66.1v20.6c-15.6 0-31.3-.1-46.9-.2 0 4.9 4.5 5 4.5 5zm56.2-81.3c-21.8 0-43.5.2-65.3.4-10.6.1-19.3 9.3-19.3 20.4v65c0 11.5 8.7 20.6 19.3 20.7 21.7.2 43.3.4 65 .4v20.6c-21.7-.1-43.4-.3-65-.6-21.2-.4-38.5-19-38.5-41.3 0-21.5 0-43 0-64.5 0-22.4 17.2-40.9 38.5-41.3 21.8-.3 43.5-.5 65.3-.6zm152.3 125.7c-7.6.2-15.1.4-22.7.6 12.9-40.6 25.9-80.7 38.8-120.1 1.1-3.4 4.7-5.1 8-3.8 1.8.7 3.3 2.2 3.8 4.1 10.2 31.6 20.5 62.7 30.7 93.3-15 .4-30 .8-44.9 1.1 0-5.9 0-11.9 0-17.8-4.5 14-9.1 28.2-13.7 42.6zm13.8-.4c0-6.7 0-13.3 0-20 17-.4 34-.8 51.1-1.4-11-32.6-22-65.9-33-99.6-1.7-4.1-5.6-6.9-9.9-7s-8.2 2.5-9.9 6.6c-13.2 40.2-26.4 81.1-39.6 122.5-5.3.1-10.6.2-15.8.3-21.1.4-42.2.7-63.3.8-21.3.1-38.6-18.4-38.6-41.2 0-21.9 0-43.8 0-65.6 0-22.8 17.2-41.3 38.5-41.2 21.1.1 42.3.4 63.4.8v20.4c-21.1-.3-42.2-.5-63.3-.6-10.5-.1-19.2 9.1-19.2 20.6v65.6c0 11.4 8.6 20.7 19.2 20.6 14.7-.1 29.3-.2 44-.4 0-18.5 0-37 0-55.5-11.7 0-23.4 0-35.1 0 0-6.9 0-13.7 0-20.6 18.1 0 36.2.1 54.4.2v81.9c12.1-37.9 24.2-75.5 36.3-112.6 3.6-12.2 15.2-20.9 29-20.4s25.5 9.8 29 21.8c13.5 41.2 26.9 81.6 40.4 120.8-25.8 1.3-51.7 2.3-77.6 3.2z"/><path d="m358.7 365.9h78.3v129.9h-78.3z"/><path d="m530.9 365.9h78.3v129.9h-78.3z"/><path d="m703.1 365.9h78.3v129.9h-78.3z"/><path d="m1504.9 365.9h78.3v129.9h-78.3z"/><path d="m2736.4 365.9h78.3v129.9h-78.3z"/><path d="m2372.4 365.9h78.3v129.9h-78.3z"/><path d="m2715.6 495.8h-102.6l-38.9-38.9 47.3-55.3z"/><path d="m1998.1 365.9h78.3v129.9h-78.3z"/><path d="m1738.7 365.9h78.3v129.9h-78.3z"/><path d="m779.5 354.3h-420.8v-44.7h376.1c24.7 0 44.7 20 44.7 44.7z"/><path d="m824.9 309.6h279.2v44.7h-279.2z"/><path d="m903.2 439.5v-11.6h185v-44.7h-173.4c-6.4 0-11.6-5.2-11.6-11.6v-5.7h-78.3v17.3 44.7 13.4c0 30.1 24.4 54.4 54.4 54.4h224.8v-44.7h-189.3c-6.4.1-11.6-5.1-11.6-11.5z"/><path d="m3220 309.6h279.2v44.7h-279.2z"/><path d="m3298.3 439.5v-11.6h185v-44.7h-173.4c-6.4 0-11.6-5.2-11.6-11.6v-5.7h-78.3v17.3 44.7 13.4c0 30.1 24.4 54.4 54.4 54.4h224.8v-44.7h-189.3c-6.4.1-11.6-5.1-11.6-11.5z"/><path d="m1451.9 354.3h-310.2c0-24.7 20-44.7 44.7-44.7h265.6v44.7z"/><path d="m1279.5 383.2v44.7h98c6.4 0 11.6 5.2 11.6 11.6s-5.2 11.6-11.6 11.6h-145.9c-6.4 0-11.6-5.2-11.6-11.6v-73.6h-78.3v75.4c0 30.1 24.4 54.5 54.5 54.5h23.8 191.2c31.1 0 56.3-25.2 56.3-56.3s-25.2-56.3-56.3-56.3z"/><path d="m2245.5 365.9v73.6c0 6.4-5.2 11.6-11.6 11.6h-145.8v44.7h181.3c30.1 0 54.5-24.4 54.5-54.5v-75.4z"/><path d="m1817 354.3h-312.1c0-24.7 20-44.7 44.7-44.7h222.7c24.7 0 44.7 20 44.7 44.7z"/><path d="m2323.8 354.3h-325.7v-44.7h281.1c24.7 0 44.6 20 44.6 44.7z"/><path d="m2736.4 309.6h78.3v44.7h-78.3z"/><path d="m1594.9 405.6h199.6v52.8h-199.6z"/><path d="m2372.4 354.3h233.8v39.7c0 6.4-5.2 11.6-11.6 11.6h-132.2v52.8h162.9c35.8 0 65.1-29.3 65.1-65.1v-18.6c0-35.9-29.1-65.1-65.1-65.1h-208.3c-24.6 0-44.6 20-44.6 44.7z"/><circle cx="182.5" cy="397.29999" r="50"/><circle cx="3652.1001" cy="397.29999" r="50"/><path d="m3161.8 354.3 28.7-44.7h-93.1l-28.7 44.7z"/><path d="m2962.1 354.3-28.7-44.7h-93.1l28.7 44.7z"/><path d="m3061.2 365.9-45.8 71.2-45.7-71.2h-93.2l83.6 129.9h110.6l83.6-129.9z"/></g></svg>