<?xml version="1.0" encoding="UTF-8" standalone="no"?>
<svg
   enable-background="new 0 0 3839.1 1254.4"
   viewBox="0 0 1919.9999 589"
   version="1.1"
   id="svg20"
   sodipodi:docname="odyssey2.svg"
   width="1920"
   height="589"
   inkscape:version="1.3.2 (091e20e, 2023-11-25)"
   xmlns:inkscape="http://www.inkscape.org/namespaces/inkscape"
   xmlns:sodipodi="http://sodipodi.sourceforge.net/DTD/sodipodi-0.dtd"
   xmlns="http://www.w3.org/2000/svg"
   xmlns:svg="http://www.w3.org/2000/svg">
  <defs
     id="defs20" />
  <sodipodi:namedview
     id="namedview20"
     pagecolor="#ffffff"
     bordercolor="#000000"
     borderopacity="0.25"
     inkscape:showpageshadow="2"
     inkscape:pageopacity="0.0"
     inkscape:pagecheckerboard="0"
     inkscape:deskcolor="#d1d1d1"
     inkscape:zoom="0.13303348"
     inkscape:cx="1916.8107"
     inkscape:cy="623.9031"
     inkscape:window-width="1312"
     inkscape:window-height="449"
     inkscape:window-x="0"
     inkscape:window-y="23"
     inkscape:window-maximized="0"
     inkscape:current-layer="svg20" />
  <clipPath
     id="a">
    <path
       d="m 0,56.6 h 3839 v 1121 H 0 Z"
       id="path1" />
  </clipPath>
  <linearGradient
     id="b"
     gradientUnits="userSpaceOnUse"
     x1="1775.0551"
     x2="1775.0551"
     y1="1665.2292"
     y2="203.6604">
    <stop
       offset=".3103"
       stop-color="#fff"
       stop-opacity="0"
       id="stop1" />
    <stop
       offset=".4646"
       stop-color="#fff"
       stop-opacity=".8587"
       id="stop2" />
    <stop
       offset=".49"
       stop-color="#fff"
       id="stop3" />
  </linearGradient>
  <g
     id="g1"
     transform="scale(0.49999999)">
    <g
       id="g22"
       transform="scale(1.0002605,1.0003397)">
      <g
         id="g21">
        <g
           fill="#ffffff"
           id="g10">
          <path
             d="M 1472.3,109.3 1429.7,3.2 1429.5,2.6 h -32.1 V 144 h 22.5 l -0.5,-113.9 44.7,113.9 h 15.8 l 44.7,-113.9 -0.5,113.1 v 0.8 h 22.3 V 2.6 h -31.9 z"
             id="path3" />
          <path
             d="m 1736.4,91.8 h 60 c -2.2,9 -7.8,17.3 -15.9,23.3 -8.6,6.7 -19.6,10.2 -31.7,10.2 -32.7,0 -50.3,-27 -50.3,-52.3 0,-33.5 25.9,-51.6 50.3,-51.6 10.7,0 20.4,3.1 28.9,9.3 4.8,3.5 9,7.8 12.6,13 l 0.3,0.4 h 26.9 L 1817,42.9 C 1806.5,17.6 1778.6,0 1749.1,0 c -41.8,0 -74.5,32 -74.5,73 0,41.3 32.6,73.7 74.3,73.7 30,0 57.1,-16.6 68.9,-42.2 5.7,-12.5 6.3,-26.3 6.3,-31.7 v -0.9 h -87.8 v 19.9 z"
             id="path4" />
          <path
             d="M 1926,106.9 1855.2,3 1854.9,2.6 h -22.3 V 144 h 23.3 l -0.4,-104.4 71.4,104.1 0.3,0.3 h 21.7 V 2.6 h -23.2 z"
             id="path5" />
          <path
             d="m 2166,2.6 -40,110.8 -39.5,-110.2 -0.3,-0.6 h -24.8 l 52.9,141.4 h 23.3 L 2190.9,2.6 Z"
             id="path6" />
          <path
             d="m 2253.8,0 c -42.1,0 -73.9,31.9 -73.9,74.1 v 0.2 c 0,40.6 32.4,72.4 73.7,72.4 41.7,0 74.3,-32.2 74.3,-73.3 0,-41.1 -32.6,-73.4 -74.1,-73.4 z m 50.1,73.5 c 0,32.4 -25.3,51.8 -49.7,51.8 -28.8,0 -50.5,-22.3 -50.5,-52 v -0.2 c 0,-29 22.1,-51.8 50.3,-51.8 31.2,0.1 49.9,26.6 49.9,52.2 z"
             id="path7" />
          <path
             d="m 2393,70.7 44.5,-68.1 h -27.2 l -31.4,49.7 -31.6,-49.7 h -27.4 l 45.1,67.7 -48.9,73.7 h 26.9 l 35.2,-56 36.1,56 h 27.4 z"
             id="path8" />
          <path
             d="M 1629.3,2.6 H 1608 L 1549.9,144 h 26.1 l 12.8,-33 3.7,-10.9 h 51 l 3.7,10.9 13.2,33 h 26 z m -11.5,29.2 18.5,48.6 h -36.8 z"
             id="path9" />
          <path
             d="m 2031.9,2.6 h -21.4 L 1952.4,144 h 26.1 l 12.8,-33 3.7,-10.9 h 51 l 3.7,10.9 13.2,33 h 26 z m -11.6,29.2 18.5,48.6 H 2002 Z"
             id="path10" />
        </g>
        <g
           clip-path="url(#a)"
           id="g20">
          <path
             d="M 360,203.7 H 29.7 c -26,0 -39.3,31 -21.5,49.9 l 1289.6,1366 h 149.8 L 463.9,256.8 C 439.8,223.4 401.2,203.7 360,203.7 Z m 165,407.7 c -18.9,0 -36.9,-8.3 -49.2,-22.6 l -149.3,-174 c -16.6,-19.4 -2.9,-49.4 22.7,-49.4 H 360 c 19.7,0 38.4,9 50.7,24.4 l 137.7,173 c 15.6,19.7 1.7,48.6 -23.4,48.6 z M 841.7,203.7 H 485.4 l 111.8,161.8 h 229.5 c 10.8,0 20.8,5.9 26.1,15.3 L 956.9,567 c 11.1,19.9 -3.3,44.5 -26.1,44.5 H 904.2 L 786.9,418.9 H 634.1 l 829.3,1200.6 h 128.7 L 935.3,262.4 c -17.4,-35.9 -53.7,-58.7 -93.6,-58.7 z m 999.7,215.2 h -154.9 c -15.2,0 -27.9,-11.3 -29.7,-26.4 l -3.2,-27.1 h 268.5 l 4.6,-161.8 h -364.4 c -55.1,0 -96.2,50.7 -84.9,104.6 l 41.3,196.1 c 6.6,31.3 34.2,53.7 66.1,53.7 h 191.7 l 1.2,21.8 c 1,17.2 -12.7,31.6 -29.8,31.6 h -206.7 l 212.3,1008.1 h 133.1 L 1918.3,498 c 1.3,-43.3 -33.5,-79.1 -76.9,-79.1 z m 465.2,0 H 2182 c -18.4,0 -32.4,-16.4 -29.5,-34.6 l 3,-18.8 h 233 l 47,-161.8 h -357.7 c -45.7,0 -83.6,35.4 -86.7,81 l -14.3,212.7 c -2.2,32.8 23.8,60.6 56.7,60.6 h 133 l -5.4,29 c -2.6,14.2 -15,24.5 -29.4,24.5 h -162.6 l -67.9,1008.1 h 123.1 L 2354.4,482.7 c 9.3,-32 -14.6,-63.8 -47.8,-63.8 z m 306.8,192.5 c -21.8,0 -36.2,-22.5 -27.2,-42.3 l 5.1,-11.1 h 187.9 l 80.2,-139.1 h -158.1 c -21.8,0 -36.2,-22.5 -27.2,-42.3 l 5.1,-11.1 h 214.2 l 90.2,-161.8 H 2499 l -458,1415.8 h 126 L 2748.3,611.4 Z m 732.8,-407.7 -165.9,214.8 c -5.7,7.3 -14.4,11.6 -23.7,11.6 -24.5,0 -38.6,-27.8 -24.1,-47.6 l 130.9,-178.9 h -223.3 l -184.5,302.3 c -16.9,27.7 3,63.3 35.5,63.3 h 49.4 l -726,1050.3 h 60.4 L 3143.4,569.2 h 65.7 c 11.9,0 23.3,-5.1 31.2,-14.1 L 3550.1,203.7 Z M 1389.1,558 h 40.2 c 4.7,0 9.2,-0.7 13.4,-1.9 0.8,-0.3 1.7,-0.5 2.5,-0.8 1.6,-0.6 3.2,-1.3 4.8,-2.1 3.1,-1.5 6,-3.4 8.6,-5.6 13.2,-10.8 20.2,-28.5 15.9,-46.8 l -70.2,-297.2 h -178.5 l 57.3,176.1 c 1.4,4.2 1.8,8.5 1.3,12.5 -0.1,0.6 -0.1,1.2 -0.2,1.7 -2,11.4 -10.6,21.1 -22.2,24 -1.7,0.4 -3.6,0.7 -5.4,0.8 -0.6,0 -1.3,0.1 -1.9,0.1 h -4.7 c -0.8,0 -1.6,0 -2.3,-0.1 -6.9,-0.5 -13.3,-3.5 -18.2,-8.1 -0.5,-0.5 -1.1,-1.1 -1.6,-1.6 -2.5,-2.8 -4.6,-6.1 -5.9,-9.7 l -36.2,-97.9 -36.2,-97.9 H 961 l 138.1,301 c 6.1,13.2 15,24.5 25.9,33.2 0.8,0.7 1.7,1.3 2.5,2 15.5,11.5 34.6,18.1 54.7,18.1 h 35.3 l 18.9,47.7 50.9,128.7 350,885.1 h 63.6 L 1416.7,651.5 Z"
             fill="url(#b)"
             id="path11"
             style="fill:url(#b)" />
          <g
             fill="#ffffff"
             id="g19">
            <path
               d="M 3769.6,109.8 H 3664 l -46,52.2 h 151.6 c 23.1,0 23.1,34.6 0,34.6 h -136.2 l -46,52.2 -39.1,44.3 -54.9,62.2 h 219.2 l 54.9,-62.2 h -148.2 l 39.1,-44.3 h 111.2 c 92.7,0.1 92.7,-139 0,-139 z"
               id="path12" />
            <path
               d="M 1287.3,734.4 1217.5,558 h -35.3 c -35.7,0 -68.2,-20.8 -83.1,-53.3 L 961,203.7 h 188.6 l 72.4,195.7 c 4.3,11.7 15.5,19.5 28,19.5 h 4.7 c 20.3,0 34.7,-19.8 28.4,-39.2 l -57.3,-176.1 h 178.5 l 70.2,297.2 c 6.9,29.2 -15.2,57.2 -45.2,57.2 h -40.2 l 51.8,176.4"
               id="path13" />
            <path
               d="m 3180.2,418.5 c -5.7,7.3 -14.4,11.6 -23.7,11.6 -24.5,0 -38.6,-27.8 -24.1,-47.6 L 3263.3,203.6 H 3040 l -184.5,302.3 c -16.9,27.7 3,63.3 35.5,63.3 h 49.4 l -114.2,165.2 h 180.5 l 136.6,-165.2 h 65.7 c 11.9,0 23.3,-5.1 31.2,-14.1 L 3550,203.7 h -203.9 z"
               id="path14" />
            <path
               d="m 2327.3,734.4 h 350.2 l 70.9,-123 h -134.9 c -21.8,0 -36.2,-22.5 -27.2,-42.3 l 5.1,-11.1 h 187.9 l 80.2,-139.1 h -158.1 c -21.8,0 -36.2,-22.5 -27.2,-42.3 l 5.1,-11.1 h 214.2 l 90.2,-161.8 h -484.6 z"
               id="path15" />
            <path
               d="m 1991.1,284.7 -14.3,212.7 c -2.2,32.8 23.8,60.6 56.7,60.6 h 133 l -5.4,29 c -2.6,14.2 -15,24.5 -29.4,24.5 h -162.6 l -8.3,123 H 2250 c 18.5,0 34.8,-12.2 39.9,-30 l 64.4,-221.8 c 9.3,-31.9 -14.7,-63.7 -47.8,-63.7 H 2182 c -18.4,0 -32.4,-16.4 -29.5,-34.6 l 3,-18.8 h 233 l 47,-161.8 h -357.7 c -45.8,-0.1 -83.6,35.3 -86.7,80.9 z"
               id="path16" />
            <path
               d="m 1477.4,308.2 41.3,196.1 c 6.6,31.3 34.2,53.7 66.1,53.7 h 191.7 l 1.2,21.8 c 1,17.2 -12.7,31.6 -29.8,31.6 h -206.7 l 25.9,123 h 304.1 c 22.5,0 40.9,-17.9 41.6,-40.4 l 5.5,-196 c 1.2,-43.3 -33.6,-79.1 -76.9,-79.1 h -154.9 c -15.2,0 -27.9,-11.3 -29.7,-26.4 l -3.2,-27.1 h 268.5 l 4.6,-161.8 h -364.4 c -55.1,0.1 -96.2,50.7 -84.9,104.6 z"
               id="path17" />
            <path
               d="M 935.3,262.4 C 917.9,226.5 881.6,203.7 841.7,203.7 H 485.4 l 111.8,161.8 h 229.5 c 10.8,0 20.8,5.9 26.1,15.3 L 956.9,567 c 11.1,19.9 -3.3,44.5 -26.1,44.5 H 904.2 L 786.9,418.9 H 634.1 L 852,734.4 h 245.4 c 30.7,0 50.8,-32.1 37.4,-59.7 z"
               id="path18" />
            <path
               d="M 463.8,256.8 C 439.7,223.5 401.1,203.7 360,203.7 H 29.6 c -26,0 -39.3,31 -21.5,49.9 l 423.2,448.3 c 19.6,20.8 46.9,32.5 75.4,32.5 h 98.9 c 84.6,0 133.7,-95.9 84.1,-164.5 z M 525,611.4 c -18.9,0 -36.9,-8.3 -49.2,-22.6 l -149.3,-174 c -16.6,-19.4 -2.9,-49.4 22.7,-49.4 H 360 c 19.7,0 38.4,9 50.7,24.4 l 137.7,173 c 15.6,19.7 1.7,48.6 -23.4,48.6 z"
               id="path19" />
          </g>
        </g>
      </g>
    </g>
  </g>
</svg>
