<?xml version="1.0" encoding="UTF-8" standalone="no"?>
<svg
   enable-background="new 0 0 3840 1850"
   viewBox="0 0 1920 925"
   version="1.1"
   id="svg16"
   sodipodi:docname="oric.svg"
   width="1920"
   height="925"
   inkscape:version="1.3.2 (091e20e, 2023-11-25)"
   xmlns:inkscape="http://www.inkscape.org/namespaces/inkscape"
   xmlns:sodipodi="http://sodipodi.sourceforge.net/DTD/sodipodi-0.dtd"
   xmlns="http://www.w3.org/2000/svg"
   xmlns:svg="http://www.w3.org/2000/svg">
  <defs
     id="defs16" />
  <sodipodi:namedview
     id="namedview16"
     pagecolor="#ffffff"
     bordercolor="#000000"
     borderopacity="0.25"
     inkscape:showpageshadow="2"
     inkscape:pageopacity="0.0"
     inkscape:pagecheckerboard="0"
     inkscape:deskcolor="#d1d1d1"
     inkscape:zoom="0.12756757"
     inkscape:cx="1920.5508"
     inkscape:cy="925"
     inkscape:window-width="1312"
     inkscape:window-height="449"
     inkscape:window-x="0"
     inkscape:window-y="23"
     inkscape:window-maximized="0"
     inkscape:current-layer="svg16" />
  <g
     id="g17"
     transform="scale(0.5)">
    <g
       fill="#ffffff"
       id="g16">
      <path
         d="m 1511.6,37.1 v 1172.5 h 233.8 V 689.8 l 299.4,519.8 286,-0.1 L 2063.9,742 c 116.4,-63.7 191.8,-187.6 191.8,-329.6 0,-207.2 -168,-375.2 -375.2,-375.2 -2.6,0 -5.1,0.1 -7.7,0.2 v -0.2 h -361.2 z m 233.8,230.1 h 119.3 c 192.1,0 192.1,297.7 0,297.8 h -119.3 z"
         id="path1" />
      <path
         d="m 3239.2,5.5 c -339.9,0 -615.6,275.7 -615.6,615.6 0,339.9 275.7,615.4 615.6,615.4 205.9,0 388.3,-101.1 500,-256.3 l -190,-135.3 c -69.5,96 -182.5,158.6 -310.1,158.6 -211.2,0 -382.3,-171.1 -382.3,-382.3 0,-211.2 171.1,-382.5 382.3,-382.5 125.5,0 237,60.4 306.7,153.8 L 3733.4,254.3 C 3621.3,103.3 3441.6,5.5 3239.2,5.5 Z"
         id="path2" />
      <path
         d="m 2330.8,37.1 h 235.1 v 1172.5 h -235.1 z"
         id="path3" />
      <path
         d="m 1219.7,621.1 c 0,213.1 -172.8,385.9 -385.9,385.9 -40.1,0 -78.8,-6.1 -115.2,-17.5 l -147.1,194.6 c 59.8,27.9 124.7,46.5 192.9,54.1 h 138.7 c 310.3,-34.5 551.6,-297.5 551.6,-617 0,-155.2 -56.9,-297 -150.9,-405.9 l -147,194.6 c 39.7,60.6 62.9,133.2 62.9,211.2 z"
         id="path4" />
      <path
         d="m 1141.6,388.3 145.1,-192 C 1229.6,135.4 1160.3,85.9 1082.7,51.9 L 934.2,248.4 c 83.8,22.5 156.4,72.6 207.4,139.9 z"
         id="path5" />
      <path
         d="M 489.4,795.4 C 462.9,743.1 447.9,683.8 447.9,621.1 447.9,408 620.7,235.2 833.8,235.2 c 25.2,0 49.9,2.4 73.7,7 L 1058.8,42 C 989,14.9 913.1,0 833.8,0 490.8,0 212.7,278.1 212.7,621.1 c 0,140.6 46.7,270.2 125.5,374.3 z"
         id="path6" />
      <path
         d="m 548.6,1172.8 145.1,-192 C 613.5,949.6 546.3,892.3 502.6,819.3 l -148.4,196.4 c 53.3,64.6 119.4,118.3 194.4,157.1 z"
         id="path7" />
      <path
         d="M 389.4,1791.6 H 288 l -22.2,52.8 H 212.7 L 320.9,1593 h 38.4 l 105.2,251.4 h -52.8 z m -14.3,-40 -35.8,-90.5 -35.8,90.5 z"
         id="path8" />
      <path
         d="m 899.3,1635.2 v 209.2 h -49 V 1635.2 H 793.8 V 1593 h 162.1 v 42.2 z"
         id="path9" />
      <path
         d="m 1351.9,1592.9 h 35.4 l 66.7,159.8 69.7,-159.8 h 35.4 l 42.2,251.4 h -49.7 l -22.6,-154.9 -67.5,154.9 H 1445 l -64.4,-154.9 -25.6,154.9 h -49.7 z"
         id="path10" />
      <path
         d="m 2241.2,1718.8 c 0,76.5 -55,131.2 -134.2,131.2 -79.1,0 -134.2,-54.6 -134.2,-131.2 0,-76.6 55,-131.5 134.2,-131.5 79.2,0 134.2,55 134.2,131.5 z m -50.5,0 c 0,-50.9 -34.7,-87.1 -83.7,-87.1 -49,0 -83.7,36.2 -83.7,87.1 0,50.9 34.7,86.7 83.7,86.7 49.1,0 83.7,-35.8 83.7,-86.7 z"
         id="path11" />
      <path
         d="m 2749.2,1650.2 c -14.7,-19.6 -32,-21.5 -41.1,-21.5 -26.4,0 -34.7,16.6 -34.7,29.4 0,6 1.9,11.7 7.9,17 6,5.7 14.3,8.7 30.2,14.3 19.6,6.8 38.1,13.6 50.9,25.3 11.3,10.2 21.5,27.1 21.5,52.8 0,49 -35.4,82.5 -87.4,82.5 -46.4,0 -73.5,-28.3 -86.7,-47.5 l 32,-30.5 c 12.1,24.5 35.1,33.5 52.8,33.5 22.2,0 38.8,-13.6 38.8,-34.7 0,-9 -3,-16.2 -9.8,-22.6 -9.4,-8.7 -24.5,-13.6 -38.8,-18.5 -13.2,-4.5 -29,-10.5 -41.8,-21.9 -8.3,-7.2 -20,-21.1 -20,-46.7 0,-36.9 24.9,-73.9 80.7,-73.9 15.8,0 45.6,3 71.2,29.4 z"
         id="path12" />
      <path
         d="m 3270.4,1757.7 h 29.4 v 39.2 h -29.4 v 47.5 h -46 v -47.5 H 3101.5 V 1775 l 124.8,-182 h 44.1 z m -46,0 V 1662 l -64.8,95.7 z"
         id="path13" />
      <path
         d="m 3492,1775.7 c 0,41.5 -33.2,74.2 -87.4,74.2 -54.3,0 -87.4,-32.8 -87.4,-74.2 0,-29 17,-53.5 44.8,-62.6 -19.2,-9.4 -36.2,-27.9 -36.2,-55.8 0,-36.6 26.4,-70.1 78.8,-70.1 52.4,0 78.8,33.5 78.8,70.1 0,27.9 -17,46.4 -36.2,55.8 27.8,9.1 44.8,33.6 44.8,62.6 z m -49,-3.3 c 0,-23 -16.6,-39.2 -38.4,-39.2 -21.9,0 -38.4,16.2 -38.4,39.2 0,23 16.6,39.2 38.4,39.2 21.8,0 38.4,-16.3 38.4,-39.2 z m -3.4,-114.6 c 0,-20.7 -14.3,-35.1 -35.1,-35.1 -20.7,0 -35.1,14.3 -35.1,35.1 0,20.7 14.3,35.1 35.1,35.1 20.8,-0.1 35.1,-14.4 35.1,-35.1 z"
         id="path14" />
      <path
         d="m 3579.4,1699.2 92.3,-106.3 h 61.8 l -106.2,116.1 111.9,135.3 h -64.8 l -89.3,-112.7 -5.7,5.7 v 107 h -49 v -251.4 h 49 z"
         id="path15" />
      <path
         d="M 480.4,1263.1 1407,37.1 H 1093.9 L 0,1484.3 h 3840 v -221.2 z"
         id="path16" />
    </g>
  </g>
</svg>
