<svg enable-background="new 0 0 3840 1751.3" height="876" viewBox="0 0 1920 876" width="1920" xmlns="http://www.w3.org/2000/svg"><g fill="#fff" transform="scale(.49998698 .5001713)"><path d="m18.9 1712v-348.7l467.9-113.6v-2.2l-467.9-113.7v-348.7h795.4v231.7h-510.2v2.2l510.2 138.1v182.7l-510.2 138.2v2.2h510.2v231.8z"/><path d="m547 512.2c20.1 0 37.9-3.3 52.4-8.9 47.9-17.8 57.9-71.3 57.9-117 0-40.1-13.4-101.4-72.4-101.4-41.2 0-52.4 34.5-91.4 171.6-35.7 125.9-70.2 269.6-230.6 269.6-183.8 0-262.9-157.1-262.9-320.9 0-172.7 65.7-325.3 259.6-332v231.7c-30.1-4.5-50.1 8.9-63.5 29-14.5 20.1-20.1 47.9-20.1 72.4 0 33.4 8.9 88 53.5 88 56.8-4.5 69.1-118.1 100.3-230.6s83.5-223.9 229.5-223.9c207.2 0 274.1 190.5 274.1 367.6 0 90.2-32.3 347.6-286.3 349.8v-245z"/><path d="m3311.1 905c-.1 3.2-.2 6.4-.2 9.5-.1 4-.2 8-.4 12-.2 4.3-.3 8.5-.5 12.7-.1 2.1-.2 4.3-.3 6.4-2.1 40.3-6.3 79.9-12.5 118.7 110.2 39.3 187 93.2 187 193 0 170.9-196.7 208.4-325.5 208.4-196.7 0-369.9-86.6-369.9-309.1h-355.9c-4.7 412.1 341.8 594.7 711.8 594.7 454.2 0 695.4-229.5 695.4-536.2 0-379.3-374.6-456.6-496.4-487-14.9-3.8-29.4-7.5-43.5-11.2.4 2.6.7 5.3 1 7.9.1.7.2 1.4.3 2.1.8 5.9 1.5 11.8 2.2 17.7 0 .4.1.8.1 1.1 1.9 16.6 3.4 33.4 4.6 50.3.2 3.2.5 6.3.6 9.5.2 3.6.4 7.3.6 10.9.2 4 .4 8 .6 12 .1 3.2.3 6.4.4 9.6.2 4.8.3 9.7.4 14.5.1 2.5.1 5 .2 7.5.1 7.5.2 15 .2 22.5v1c-.1 7.4-.1 14.5-.3 21.5z"/><path d="m2429.7 1442.2c-1 0-2 .1-3 .1-39.1 0-75.3-4-108.7-11.4-17.8 28.2-37.2 55-58.2 80.1-56.1 67.2-122.9 122-199 163.9 105.7 49.2 228.2 76.5 365.8 76.5 97.4 0 187.2-13.8 268.9-39.2-60.2-31.9-113-70.8-157.9-116.2-44.7-45.3-80.8-96.9-107.9-153.8z"/><path d="m2399.5 866.3c0-191.3-38.7-348.9-107.2-473.4-67.5 23.4-122.5 66.3-164.5 128.4-59.7 88.2-95.9 218-95.9 362.9 0 1-.1 1.9-.2 2.8.1 4.9.2 9.7.2 14.4 0 369.9-203.7 501.1-416.8 501.1h-327.8v-1053.6h262.2c44.3 0 84.8 3.2 122 9.4 29.7-52.3 64.1-100.7 103.2-144.7 44.2-49.8 93.4-93.1 147-129.8-86-29.3-180.5-43.9-280.8-43.9h-721.1v1671.7h721.1c510.4-.1 758.6-360.6 758.6-845.3z"/><path d="m1604.9 882.7c0 163.9 35.2 316.6 101.9 446.9 51.3-11.8 105.9-36.1 151.9-82.9 73.3-74.7 110.5-190.9 110.5-345.3 0-18.3 1.9-44.7 4.8-73.1 14.8-272.1 143.1-519.3 452.8-519.3 12 0 23.6.4 35.1 1.1 36.4-93.2 100.5-173.4 190.3-236.8 16.1-11.3 32.8-22 50.1-32-83.5-26.8-175.6-41.3-275.6-41.3-517.4 0-821.8 386.3-821.8 882.7z"/><path d="m2489 505.7c0 240 146.6 352.6 326.6 421.6 3.3-91.3-7-184.1-14.6-252.7-2-18.4-4-35.7-5.4-50.9-7.1-75.4 9.1-182.1 76.1-255.6 26.6-29.2 62.1-52 99.6-66 6.6-2.5 13.2-4.3 19.9-5.6 46.8-12.3 69.8-10.7 106.6-10.7 175.6 0 318.4 51.5 330.1 252.9h355.9c0-386.5-320.8-538.7-669.6-538.7-302.1 0-625.2 163.9-625.2 505.7z"/><path d="m3173.6 484.5c-19.6-47.3-43.3-93.1-71.1-136 0 0 0 0-.1 0-221.4-16.5-252.7 179-244.2 269.3 3.3 34.9 9.2 81.3 13.9 133.6 12.3 89.9 12.2 185.2-2.8 274.9-4.5 27-10.4 53.5-17.8 79.3-2.8 120.1 6.5 268 254.2 295.1 168.6-259.8 184.4-631.2 67.9-916.2z"/></g></svg>