<?xml version="1.0" encoding="UTF-8" standalone="no"?>
<svg
   enable-background="new 0 0 3832.8 1303.6"
   viewBox="0 0 1920 653"
   version="1.1"
   id="svg17"
   sodipodi:docname="pcfx.svg"
   width="1920"
   height="653"
   inkscape:version="1.3.2 (091e20e, 2023-11-25)"
   xmlns:inkscape="http://www.inkscape.org/namespaces/inkscape"
   xmlns:sodipodi="http://sodipodi.sourceforge.net/DTD/sodipodi-0.dtd"
   xmlns="http://www.w3.org/2000/svg"
   xmlns:svg="http://www.w3.org/2000/svg">
  <defs
     id="defs17" />
  <sodipodi:namedview
     id="namedview17"
     pagecolor="#ffffff"
     bordercolor="#000000"
     borderopacity="0.25"
     inkscape:showpageshadow="2"
     inkscape:pageopacity="0.0"
     inkscape:pagecheckerboard="0"
     inkscape:deskcolor="#d1d1d1"
     inkscape:zoom="0.18103713"
     inkscape:cx="1916.7339"
     inkscape:cy="651.79999"
     inkscape:window-width="1312"
     inkscape:window-height="449"
     inkscape:window-x="0"
     inkscape:window-y="23"
     inkscape:window-maximized="0"
     inkscape:current-layer="svg17" />
  <g
     id="g1"
     transform="scale(0.50000001)">
    <g
       id="g18"
       transform="matrix(1.0018785,0,0,1.0018781,0,-0.04830028)">
      <g
         fill="#ffffff"
         id="g17">
        <path
           d="m 1433.8,8.2 h 78.2 c 17.9,0 39,16.7 48.4,25.9 l 137.1,152.1 V 8.2 h 46.6 V 251 h -81.6 c -17.2,0.1 -33.7,-7.1 -45.3,-19.8 L 1480.2,78.8 V 251 h -46.4 z"
           id="path1" />
        <path
           d="m 2405.2,252.5 c -56,7.4 -112.6,8.6 -168.8,3.7 -33.1,-2 -65.5,-10.6 -95.3,-25.3 -37.6,-19.4 -49.5,-63.1 -49,-102.8 0.4,-36.6 11.2,-75.6 43.9,-96.9 21.4,-14 44.3,-18.7 68.5,-23.1 66.3,-11.7 132.6,-9.1 197.3,-2 V 40.7 C 2325.5,25.9 2245,29.6 2217.6,64.6 c -13.6,17.6 -20.5,39.5 -19.5,61.8 0,33 11.2,82.8 78.2,92.5 43.6,6.4 86.7,1.6 128.6,-6.1 z"
           id="path2" />
        <path
           d="m 1927.7,214.9 c 6.8,0 111.7,0.5 147.9,0 v 36.3 c -72.7,2.8 -142.5,4.1 -216,1 -62.2,-2.6 -72.9,-33.8 -74.4,-64 V 8.2 h 286.6 v 34.5 h -185.2 v 61.8 h 169.2 v 33.8 h -169.2 c 0,18.3 0.6,39 0.8,42.8 1,23.5 11.9,32.2 40.6,33.8"
           id="path3" />
        <path
           d="M 1126.3,360.8 H 952.3 883 v 936 h 95.3 v -258.7 h 148.1 c 451.5,0 451.5,-677.3 -0.1,-677.3 z m 0,582.1 H 978.2 V 456.1 h 148.1 c 324.5,0 324.5,486.8 0,486.8 z"
           id="path4" />
        <path
           d="m 1990.6,1208.3 c -217.3,0 -393.3,-176.1 -393.3,-393.3 0,-217.2 176.1,-393.3 393.3,-393.3 147.3,0 275.6,81 342.9,200.8 h 106.2 C 2365,448.4 2192,326.4 1990.6,326.4 1720.7,326.4 1502,545.2 1502,815 c 0,269.8 218.8,488.6 488.6,488.6 201.5,0 374.4,-122 449.2,-296.2 h -106.2 c -67.5,119.9 -195.7,200.9 -343,200.9 z"
           id="path5" />
        <path
           d="m 2379,723.6 h 133.7 V 906.4 H 2379 Z"
           id="path6" />
        <path
           d="M 3055.6,878.2 V 694.4 H 2779.2 V 528.1 h 276.4 V 344.3 h -276.4 -142.9 -40.9 v 936.5 h 183.8 V 878.2 Z"
           id="path7" />
        <path
           d="m 3543.1,779.2 251.1,-434.9 h -212.3 l -144.8,251 -144.9,-251 h -212.3 l 251.1,434.9 -289.7,501.6 h 212.2 l 183.6,-317.9 183.5,317.9 h 212.2 z"
           id="path8" />
        <path
           d="m 365.4,1121.2 -19,11.2 -208,-122.1 17.5,-10.2"
           id="path9" />
        <circle
           cx="383"
           cy="392"
           r="31.1"
           id="circle9" />
        <path
           d="m 290.4,894.6 c 11,-5.5 25.4,-10.4 42.8,-13.8 l 46.4,-27.2 v -30.3 c -52.3,-0.4 -98.5,-8.7 -135.5,-21.7 27,-19.4 75,-34.2 135.5,-35.5 v -40.8 c -79.5,1.4 -143.9,23.6 -176.8,57.9 -33.8,-19.1 -53.1,-42.5 -53.1,-64.8 0,-48.6 94.3,-102.7 229.9,-103.6 V 574 c -152.1,1 -270.7,64 -270.7,144.4 0,39 27.4,74 72.8,99.9 -1.9,6.5 -2.9,13.3 -2.9,20.3 0,28.6 17.1,53.4 46.9,72.1 -0.6,3.2 -0.9,6.5 -0.9,9.8 0,7.4 1.7,14.5 4.6,21.3 l 74.5,-43.7 c -4.7,-1.1 -9.3,-2.3 -13.5,-3.5 z m -44,-18.8 c -17.5,-11.2 -26.9,-24.3 -26.9,-37.3 0,-0.8 0,-1.6 0.1,-2.3 18.8,7.3 39.4,13.3 61.5,17.9 -13.9,6 -25.6,13.3 -34.7,21.7 z"
           id="path10" />
        <path
           d="m 245.9,867.9 c 5,-4.1 10.6,-8 16.8,-11.5 -12.4,-3.1 -24.3,-6.7 -35.6,-10.7 2.4,7.5 8.9,15.1 18.8,22.2 z"
           id="path11" />
        <path
           d="m 379.5,817 v -44.6 c -47.9,1 -91.6,10.9 -120.9,27.4 36.2,11 77.5,16.9 120.9,17.2 z"
           id="path12" />
        <path
           d="m 155.9,718.4 c 0,18.9 16.6,39.5 45.8,57 35.8,-34.2 101.4,-55 177.9,-56.3 v -97.9 c -61.4,0.4 -118.9,12 -162.1,32.7 -38.6,18.4 -61.6,42.6 -61.6,64.5 z"
           id="path13" />
        <path
           d="m 416.6,1032.3 c 2.8,8.6 10.8,14.1 19.4,14.1 2.1,0 4.2,-0.3 6.3,-1 43.4,-14 75.2,-40.2 89.6,-73.6 2.1,-4.9 3.8,-9.8 5.1,-14.8 12.4,-10.8 23.1,-23.1 31.7,-36.7 9.6,-15.3 16,-31.2 18.8,-46.7 6.3,-4.7 10.2,-8.1 11.5,-9.2 5.1,-4.2 44.8,-38.1 52.9,-95.9 61.2,-49.6 94.4,-110.8 94.4,-175.1 0,-111 -149.5,-195.8 -294.1,-213.7 -0.9,-0.1 -1.7,-0.2 -2.6,-0.2 -10.1,0 -18.9,7.6 -20.2,17.9 -1.4,11.2 6.6,21.4 17.7,22.7 124.2,15.4 258.3,86 258.3,173.2 0,44.4 -21.5,85.8 -55.7,120.9 0,-0.2 -0.1,-0.4 -0.1,-0.6 -18.2,-85.5 -170.2,-140 -266.8,-140 -153.8,0 -274.2,63.5 -274.2,144.5 0,39 27.4,74 72.8,99.9 -1.9,6.5 -2.9,13.3 -2.9,20.3 0,28.6 17.1,53.4 46.9,72.1 -0.6,3.2 -0.9,6.5 -0.9,9.8 0,50 69.5,87.7 161.7,87.7 18.9,0 37.2,-1.8 54.5,-5.4 -3.5,1.4 -7.1,2.7 -11.1,4 -10.6,3.6 -16.5,15.1 -13,25.8 z M 507.9,875 c -10.6,-8.3 -23.1,-15.4 -36.4,-21.1 23.8,-5.3 47.5,-12.7 70.4,-21.8 1.1,1.8 2.1,3.6 3,5.5 1.9,4.1 3.1,8.7 3.4,13.8 -10.6,7.1 -24.4,15.5 -40.4,23.6 z m -125,-51.6 c -53.8,0 -101.2,-8.5 -139,-21.7 28.3,-20.3 79.1,-35.7 143.5,-35.7 40.2,0 88.5,12.6 122.1,34.6 -41.4,14.6 -85.2,22.8 -126.6,22.8 z m 78.5,70.8 c -23,7.4 -48.3,12.4 -74.6,12.4 -38.1,0 -70.6,-4.6 -96.6,-12 20.8,-10.5 53.8,-18.7 96.1,-18.7 22.9,0 52.1,7.3 75.1,18.3 z m 121.7,-70.9 c -0.5,-1.1 -1,-2.2 -1.5,-3.3 -0.8,-1.6 -1.6,-3.1 -2.4,-4.7 5.5,-2.8 10.9,-5.6 16.2,-8.6 -4.2,6.8 -8.5,12.4 -12.3,16.6 z M 202.7,783.2 c -33.8,-19.1 -53.1,-42.5 -53.1,-64.8 0,-49 95.9,-103.7 233.4,-103.7 89.9,0 214.8,50.7 226.9,107.7 1.8,8.6 2.7,16.7 2.7,24.4 -18.3,13.4 -38.4,25.4 -59.7,35.7 -41.6,-37.5 -109.6,-57.4 -165.3,-57.4 -83.3,0 -150.8,22.6 -184.9,58.1 z m 16.8,55.3 c 0,-0.8 0,-1.6 0.1,-2.3 18.8,7.3 39.4,13.3 61.5,17.9 -13.9,6 -25.6,13.3 -34.8,21.7 -17.5,-11.2 -26.8,-24.4 -26.8,-37.3 z m 166.8,128.7 c -61.4,0 -104.4,-19.3 -117.1,-36.8 32.6,10.8 72.6,16.8 117.6,16.8 40.6,0 78.4,-9.9 110.6,-22.8 1,2.7 1.6,6.2 1.6,10.5 -29.3,20.8 -68.7,32.3 -112.7,32.3 z"
           id="path14" />
        <path
           d="m 382.6,1095.7 v 201.1 L 759,1076.1 V 875 Z"
           id="path15" />
        <path
           d="M 232.9,1011.5 0,875 v 201.1 l 376.3,220.7 v -201.1 z"
           id="path16" />
        <path
           d="M 0,648.7 V 867.8 L 177.7,972 223.9,944.9 c -3.5,-7.8 -5.5,-15.9 -5.5,-24.5 0,-2.3 0.1,-4.5 0.4,-6.7 -30.3,-20.1 -46.4,-46 -46.4,-75.1 0,-5.8 0.6,-11.6 1.9,-17.2 -46.3,-27.7 -71.8,-64.1 -71.8,-102.9 0,-83.9 121.4,-149.7 277,-150.7 V 426.1 Z"
           id="path17" />
      </g>
    </g>
  </g>
</svg>
