<svg enable-background="new 0 0 3839 987.2" height="494" viewBox="0 0 1920 494" width="1920" xmlns="http://www.w3.org/2000/svg"><g fill="#fff" transform="scale(.50013024 .50040518999)"><path d="m109.7 438.7h109.7v109.7h-109.7z"/><path d="m219.4 438.7h109.7v109.7h-109.7z"/><path d="m329.1 438.7h109.7v109.7h-109.7z"/><path d="m438.7 438.7h109.7v109.7h-109.7z"/><path d="m658.1 438.7h109.7v109.7h-109.7z"/><path d="m767.8 438.7h109.7v109.7h-109.7z"/><path d="m877.5 438.7h109.7v109.7h-109.7z"/><path d="m987.2 438.7h109.7v109.7h-109.7z"/><path d="m1316.2 438.7h109.7v109.7h-109.7z"/><path d="m1425.9 438.7h109.7v109.7h-109.7z"/><path d="m1535.6 438.7h109.7v109.7h-109.7z"/><path d="m1864.7 438.7h109.7v109.7h-109.7z"/><path d="m1974.3 438.7h109.7v109.7h-109.7z"/><path d="m2084 438.7h109.7v109.7h-109.7z"/><path d="m2193.7 438.7h109.7v109.7h-109.7z"/><path d="m2851.8 438.7h109.7v109.7h-109.7z"/><path d="m2961.5 438.7h109.7v109.7h-109.7z"/><path d="m0 548.4h109.7v109.7h-109.7z"/><path d="m109.7 548.4h109.7v109.7h-109.7z"/><path d="m329.1 548.4h109.7v109.7h-109.7z"/><path d="m438.7 548.4h109.7v109.7h-109.7z"/><path d="m767.8 548.4h109.7v109.7h-109.7z"/><path d="m877.5 548.4h109.7v109.7h-109.7z"/><path d="m1206.5 548.4h109.7v109.7h-109.7z"/><path d="m1316.2 548.4h109.7v109.7h-109.7z"/><path d="m1755 548.4h109.7v109.7h-109.7z"/><path d="m1864.7 548.4h109.7v109.7h-109.7z"/><path d="m2084 548.4h109.7v109.7h-109.7z"/><path d="m2193.7 548.4h109.7v109.7h-109.7z"/><path d="m2742.1 548.4h109.7v109.7h-109.7z"/><path d="m2851.8 548.4h109.7v109.7h-109.7z"/><path d="m0 658.1h109.7v109.7h-109.7z"/><path d="m109.7 658.1h109.7v109.7h-109.7z"/><path d="m219.4 658.1h109.7v109.7h-109.7z"/><path d="m329.1 658.1h109.7v109.7h-109.7z"/><path d="m438.7 658.1h109.7v109.7h-109.7z"/><path d="m767.8 658.1h109.7v109.7h-109.7z"/><path d="m877.5 658.1h109.7v109.7h-109.7z"/><path d="m1206.5 658.1h109.7v109.7h-109.7z"/><path d="m1316.2 658.1h109.7v109.7h-109.7z"/><path d="m1755 658.1h109.7v109.7h-109.7z"/><path d="m1864.7 658.1h109.7v109.7h-109.7z"/><path d="m2084 658.1h109.7v109.7h-109.7z"/><path d="m2193.7 658.1h109.7v109.7h-109.7z"/><path d="m2413.1 658.1h109.7v109.7h-109.7z"/><path d="m2522.8 658.1h109.7v109.7h-109.7z"/><path d="m2742.1 658.1h109.7v109.7h-109.7z"/><path d="m2851.8 658.1h109.7v109.7h-109.7z"/><path d="m2961.5 658.1h109.7v109.7h-109.7z"/><path d="m0 767.8h109.7v109.7h-109.7z"/><path d="m109.7 767.8h109.7v109.7h-109.7z"/><path d="m767.8 767.8h109.7v109.7h-109.7z"/><path d="m877.5 767.8h109.7v109.7h-109.7z"/><path d="m1206.5 767.8h109.7v109.7h-109.7z"/><path d="m1316.2 767.8h109.7v109.7h-109.7z"/><path d="m1755 767.8h109.7v109.7h-109.7z"/><path d="m1864.7 767.8h109.7v109.7h-109.7z"/><path d="m2084 767.8h109.7v109.7h-109.7z"/><path d="m2193.7 767.8h109.7v109.7h-109.7z"/><path d="m2742.1 767.8h109.7v109.7h-109.7z"/><path d="m2851.8 767.8h109.7v109.7h-109.7z"/><path d="m0 877.5h109.7v109.7h-109.7z"/><path d="m109.7 877.5h109.7v109.7h-109.7z"/><path d="m658.1 877.5h109.7v109.7h-109.7z"/><path d="m767.8 877.5h109.7v109.7h-109.7z"/><path d="m877.5 877.5h109.7v109.7h-109.7z"/><path d="m987.2 877.5h109.7v109.7h-109.7z"/><path d="m1206.5 877.5h109.7v109.7h-109.7z"/><path d="m1316.2 877.5h109.7v109.7h-109.7z"/><path d="m1425.9 877.5h109.7v109.7h-109.7z"/><path d="m1535.6 877.5h109.7v109.7h-109.7z"/><path d="m1755 877.5h109.7v109.7h-109.7z"/><path d="m1864.7 877.5h109.7v109.7h-109.7z"/><path d="m1974.3 877.5h109.7v109.7h-109.7z"/><path d="m2084 877.5h109.7v109.7h-109.7z"/><path d="m2742.1 877.5h109.7v109.7h-109.7z"/><path d="m2851.8 877.5h109.7v109.7h-109.7z"/><path d="m2961.5 877.5h109.7v109.7h-109.7z"/><path d="m3400.3 329.1h109.7v109.7h-109.7z"/><path d="m3509.9 329.1h109.7v109.7h-109.7z"/><path d="m3619.6 329.1h109.7v109.7h-109.7z"/><path d="m3071.2 438.7h109.7v109.7h-109.7z"/><path d="m3180.9 438.7h109.7v109.7h-109.7z"/><path d="m3509.9 438.7h109.7v109.7h-109.7z"/><path d="m3180.9 548.4h109.7v109.7h-109.7z"/><path d="m3071.2 658.1h109.7v109.7h-109.7z"/><path d="m3180.9 658.1h109.7v109.7h-109.7z"/><path d="m3180.9 767.8h109.7v109.7h-109.7z"/><path d="m3071.2 877.5h109.7v109.7h-109.7z"/><path d="m3180.9 877.5h109.7v109.7h-109.7z"/><path d="m3509.9 0h109.7v109.7h-109.7z"/><path d="m3400.3 109.7h109.7v109.7h-109.7z"/><path d="m3509.9 109.7h109.7v109.7h-109.7z"/><path d="m3619.6 109.7h109.7v109.7h-109.7z"/><path d="m3290.6 219.4h109.7v109.7h-109.7z"/><path d="m3400.3 219.4h109.7v109.7h-109.7z"/><path d="m3509.9 219.4h109.7v109.7h-109.7z"/><path d="m3619.6 219.4h109.7v109.7h-109.7z"/><path d="m3729.3 219.4h109.7v109.7h-109.7z"/></g></svg>