<?xml version="1.0" encoding="UTF-8" standalone="no"?>
<svg
   enable-background="new 0 0 3840 472.3"
   viewBox="0 0 1920 236"
   version="1.1"
   id="svg14"
   sodipodi:docname="pokemini.svg"
   width="1920"
   height="236"
   inkscape:version="1.3.2 (091e20e, 2023-11-25)"
   xmlns:inkscape="http://www.inkscape.org/namespaces/inkscape"
   xmlns:sodipodi="http://sodipodi.sourceforge.net/DTD/sodipodi-0.dtd"
   xmlns="http://www.w3.org/2000/svg"
   xmlns:svg="http://www.w3.org/2000/svg">
  <defs
     id="defs14" />
  <sodipodi:namedview
     id="namedview14"
     pagecolor="#ffffff"
     bordercolor="#000000"
     borderopacity="0.25"
     inkscape:showpageshadow="2"
     inkscape:pageopacity="0.0"
     inkscape:pagecheckerboard="0"
     inkscape:deskcolor="#d1d1d1"
     inkscape:zoom="0.24557292"
     inkscape:cx="1922.036"
     inkscape:cy="236.18239"
     inkscape:window-width="1312"
     inkscape:window-height="449"
     inkscape:window-x="0"
     inkscape:window-y="23"
     inkscape:window-maximized="0"
     inkscape:current-layer="svg14" />
  <g
     id="g1"
     transform="scale(0.5)">
    <g
       id="g15"
       transform="scale(1,0.99936481)">
      <g
         fill="#ffffff"
         id="g14">
        <path
           d="m 3063.1,171.5 h -229.7 -33.7 -117.3 c -25.7,0 -46.5,20.8 -46.5,46.5 v 28 18.5 156.9 c 0,25.7 20.8,46.5 46.5,46.5 25.7,0 46.5,-20.8 46.5,-46.5 V 264.5 h 70.8 26.5 v 156.9 c 0,25.7 20.8,46.5 46.5,46.5 25.7,0 46.5,-20.8 46.5,-46.5 V 264.5 h 97.3 v 156.9 c 0,25.7 20.8,46.5 46.5,46.5 25.7,0 46.5,-20.8 46.5,-46.5 V 264.5 250 218 c 0.2,-25.7 -20.7,-46.5 -46.4,-46.5 z"
           id="path1" />
        <path
           d="m 3613.9,171.5 h -190.3 c -25.7,0 -46.5,20.8 -46.5,46.5 v 28 18.5 156.9 c 0,25.7 20.8,46.5 46.5,46.5 25.7,0 46.5,-20.8 46.5,-46.5 V 264.5 h 97.3 v 156.9 c 0,25.7 20.8,46.5 46.5,46.5 25.7,0 46.5,-20.8 46.5,-46.5 V 264.5 250 218 c 0,-25.7 -20.9,-46.5 -46.5,-46.5 z"
           id="path2" />
        <path
           d="m 3243.3,174.1 c -25.7,0 -46.5,20.8 -46.5,46.5 0,25.7 20.8,46.5 46.5,46.5 25.7,0 46.5,-20.8 46.5,-46.5 0,-25.7 -20.8,-46.5 -46.5,-46.5 z"
           id="path3" />
        <path
           d="m 3793.5,267.1 c 25.7,0 46.5,-20.8 46.5,-46.5 0,-25.7 -20.8,-46.5 -46.5,-46.5 -25.7,0 -46.5,20.8 -46.5,46.5 0,25.7 20.8,46.5 46.5,46.5 z"
           id="path4" />
        <path
           d="m 3243.3,297.9 c -25.7,0 -46.5,20.8 -46.5,46.5 v 77 c 0,25.7 20.8,46.5 46.5,46.5 25.7,0 46.5,-20.8 46.5,-46.5 v -77 c 0,-25.7 -20.8,-46.5 -46.5,-46.5 z"
           id="path5" />
        <path
           d="m 3793.5,297.9 c -25.7,0 -46.5,20.8 -46.5,46.5 v 77 c 0,25.7 20.8,46.5 46.5,46.5 25.7,0 46.5,-20.8 46.5,-46.5 v -77 c 0,-25.7 -20.8,-46.5 -46.5,-46.5 z"
           id="path6" />
        <path
           d="m 0,73.4 h 124.7 c 119.7,0 175.8,40.4 175.8,128.6 0,79.2 -57.9,126.4 -155.6,126.4 H 104.5 V 465.5 H 0 Z m 104.5,180.9 h 27 c 36,0 64.6,-12.9 64.6,-53.9 0,-39.9 -28.6,-52.8 -64.6,-52.8 h -27 z"
           id="path7" />
        <path
           d="m 333.6,319.5 c 0,-97.2 66.2,-153.4 153.1,-153.4 86.9,0 153.2,56.2 153.2,153.4 0,96.6 -66.2,152.8 -153.2,152.8 -86.9,0 -153.1,-56.2 -153.1,-152.8 z m 212.2,0 c 0,-43.8 -17.2,-82.6 -59.1,-82.6 -41.9,0 -59.1,38.8 -59.1,82.6 0,43.3 17.2,82 59.1,82 41.9,0 59.1,-38.8 59.1,-82 z"
           id="path8" />
        <path
           d="m 689,44.2 h 91 v 251.7 h 1 l 75.8,-123 h 99.6 L 864.9,307.2 964,465.6 H 853.8 L 781,320.6 h -1 v 144.9 h -91 z"
           id="path9" />
        <path
           d="m 1316.8,172.9 h 82.9 v 53.9 h 1 c 18.2,-42.1 54.6,-60.7 96,-60.7 37.4,0 68.2,18 82.4,56.2 21.2,-39.3 56.1,-56.2 93.5,-56.2 75.8,0 93,47.7 93,127 v 172.5 h -91 V 308.3 c 0,-33.1 -10.6,-57.9 -36.4,-57.9 -32.3,0 -51.6,28.6 -51.6,91.6 v 123.6 h -91 V 308.3 c 0,-33.1 -10.6,-57.9 -36.4,-57.9 -32.3,0 -51.6,28.6 -51.6,91.6 v 123.6 h -91 V 172.9 Z"
           id="path10" />
        <path
           d="m 1814.8,319.5 c 0,-97.2 66.2,-153.4 153.1,-153.4 86.9,0 153.2,56.2 153.2,153.4 0,96.6 -66.2,152.8 -153.2,152.8 -86.9,0 -153.1,-56.2 -153.1,-152.8 z m 212.3,0 c 0,-43.8 -17.2,-82.6 -59.1,-82.6 -41.9,0 -59.1,38.8 -59.1,82.6 0,43.3 17.2,82 59.1,82 41.9,0 59.1,-38.8 59.1,-82 z"
           id="path11" />
        <path
           d="m 2170.2,172.9 h 82.9 v 53.9 h 1 c 18.2,-42.1 54.6,-60.7 96,-60.7 71.8,0 100.6,56.2 100.6,116.8 v 182.6 h -91 V 324 c 0,-55 -17.2,-73.6 -42,-73.6 -37.4,0 -56.6,28.6 -56.6,91.6 v 123.6 h -91 V 172.9 Z"
           id="path12" />
        <path
           d="m 1082.3,348.7 c 5.1,40.4 32.9,56.2 77.3,56.2 24.8,0 53.1,-6.2 80.4,-22.5 v 71.3 c -29.3,12.9 -62.7,18.5 -96.6,18.5 -86.9,0 -153.1,-56.7 -153.1,-153.4 0,-96.7 59.1,-152.8 141,-152.8 97.5,0 132.9,77 132.9,164 v 18.5 h -181.9 z m 100,-57.3 c 0,-33.7 -14.2,-61.2 -50.6,-61.2 -32.8,0 -48.5,27.5 -50.5,61.2 z"
           id="path13" />
        <path
           d="m 1026.6,84.5 22.3,57.6 c 4.6,-1.1 163.2,-70.2 163.2,-70.2 L 1180.7,0 Z"
           id="path14" />
      </g>
    </g>
  </g>
</svg>
