<?xml version="1.0" encoding="UTF-8" standalone="no"?>
<svg
   enable-background="new 0 0 3839 1109.04"
   viewBox="0 0 1920 555"
   version="1.1"
   id="svg15"
   sodipodi:docname="ports.svg"
   width="1920"
   height="555"
   inkscape:version="1.3.2 (091e20e, 2023-11-25)"
   xmlns:inkscape="http://www.inkscape.org/namespaces/inkscape"
   xmlns:sodipodi="http://sodipodi.sourceforge.net/DTD/sodipodi-0.dtd"
   xmlns="http://www.w3.org/2000/svg"
   xmlns:svg="http://www.w3.org/2000/svg">
  <defs
     id="defs15" />
  <sodipodi:namedview
     id="namedview15"
     pagecolor="#ffffff"
     bordercolor="#000000"
     borderopacity="0.25"
     inkscape:showpageshadow="2"
     inkscape:pageopacity="0.0"
     inkscape:pagecheckerboard="0"
     inkscape:deskcolor="#d1d1d1"
     inkscape:zoom="0.15046995"
     inkscape:cx="1920.6493"
     inkscape:cy="551.60515"
     inkscape:window-width="1312"
     inkscape:window-height="449"
     inkscape:window-x="0"
     inkscape:window-y="23"
     inkscape:window-maximized="0"
     inkscape:current-layer="svg15" />
  <g
     id="g1"
     transform="scale(0.49999999)">
    <g
       id="g15"
       transform="scale(1.0002605,1.0008656)">
      <path
         d="m 1450.29,1109.04 v -85.31 h 85.31 v -85.31 h 85.31 V 767.8 341.24 170.62 H 1535.6 V 85.31 h -85.31 V 0 H 938.42 v 85.31 h -85.31 v 85.31 H 767.8 V 341.24 767.8 938.42 h 85.31 v 85.31 h 85.31 v 85.31 z"
         fill="#120f26"
         id="path1" />
      <path
         d="m 1450.29,1023.73 v -85.31 h 85.31 V 341.24 h -85.31 V 255.93 H 938.42 v 85.31 h -85.31 v 597.18 h 85.31 v 85.31 z M 1109.04,853.11 V 426.56 h 170.62 v 426.56 h -170.62 z"
         fill="#666666"
         id="path2" />
      <path
         d="M 1450.29,853.11 V 767.8 h 85.31 V 170.62 h -85.31 V 85.31 H 938.42 v 85.31 H 853.11 V 767.8 h 85.31 v 85.31 z M 1109.04,682.49 V 255.93 h 170.62 v 426.56 z"
         fill="#ffffff"
         id="path3" />
      <path
         d="m 341.24,1109.04 v -85.31 h 85.32 v -85.31 h 170.62 v -85.31 h 85.31 85.31 V 767.8 h 85.31 V 597.18 341.24 170.62 H 767.8 V 85.31 H 682.49 V 0 H 341.24 255.93 85.31 V 85.31 H 0 v 170.62 597.18 170.62 h 85.31 v 85.31 z"
         fill="#120f26"
         id="path4" />
      <path
         d="M 341.24,853.11 H 597.17 V 767.8 H 767.8 V 341.24 H 682.49 V 255.93 H 341.24 255.93 85.31 v 767.8 H 341.24 Z M 511.87,426.56 v 170.62 h -85.31 v 85.31 H 341.25 V 426.56 Z"
         fill="#666666"
         id="path5" />
      <path
         d="M 341.24,682.49 H 597.17 V 597.18 H 767.8 V 170.62 H 682.49 V 85.31 H 341.24 255.93 85.31 v 767.8 H 341.24 Z M 511.87,255.93 v 170.62 h -85.31 v 85.31 H 341.25 V 255.93 Z"
         fill="#ffffff"
         id="path6" />
      <path
         d="m 1876.84,1109.04 v -85.31 h 85.32 85.31 v 85.31 h 255.93 v -85.31 h 85.31 V 853.11 767.8 597.18 426.56 341.24 170.62 H 2303.4 V 85.31 h -85.31 V 0 h -341.25 -85.31 -170.62 v 85.31 h -85.31 v 170.62 597.18 170.62 h 85.31 v 85.31 z"
         fill="#120f26"
         id="path7" />
      <path
         d="m 1876.84,767.8 h 170.62 v 85.31 170.62 h 255.93 V 767.8 h -85.31 v -85.31 h -85.31 v -85.31 h 170.62 V 341.24 h -85.31 v -85.31 h -341.24 -85.31 -170.62 v 767.8 h 255.93 z m 170.63,-341.24 v 85.31 h -85.31 v 85.31 h -85.31 V 426.56 Z"
         fill="#666666"
         id="path8" />
      <path
         d="m 1876.84,597.18 h 170.62 v 85.31 170.62 h 255.93 V 597.18 h -85.31 v -85.31 h -85.31 v -85.31 h 170.62 V 170.62 h -85.31 V 85.31 h -341.24 -85.31 -170.62 v 767.8 h 255.93 z m 170.63,-341.25 v 85.31 h -85.31 v 85.31 h -85.31 V 255.93 Z"
         fill="#ffffff"
         id="path9" />
      <path
         d="m 3156.51,1023.73 v 85.31 h 511.87 v -85.31 h 85.31 V 938.42 H 3839 V 767.8 682.49 511.87 341.24 170.62 h -85.31 V 85.31 h -85.31 V 0 h -511.87 v 85.31 h -85.31 v 85.31 h -85.31 v 170.62 85.32 170.62 170.62 170.62 h 85.31 v 85.31 z"
         fill="#120f26"
         id="path10" />
      <path
         d="m 3668.38,1023.73 v -85.31 h 85.31 V 682.49 h -85.31 v -85.31 h -170.62 v -85.31 h -170.63 v -85.31 h 170.63 v 85.31 h 255.93 V 341.24 h -85.31 v -85.31 h -511.87 v 85.31 h -85.31 v 255.94 h 85.31 v 85.31 h 170.62 v 85.31 h 170.63 v 85.31 H 3327.13 V 767.8 H 3071.2 v 170.62 h 85.31 v 85.31 z"
         fill="#666666"
         id="path11" />
      <path
         d="M 3668.38,853.11 V 767.8 h 85.31 V 511.87 h -85.31 v -85.31 h -170.62 v -85.32 h -170.63 v -85.31 h 170.63 v 85.31 h 255.93 V 170.62 h -85.31 V 85.31 h -511.87 v 85.31 h -85.31 v 255.94 h 85.31 v 85.31 h 170.62 v 85.31 h 170.63 v 85.31 H 3327.13 V 597.18 H 3071.2 V 767.8 h 85.31 v 85.31 z"
         fill="#ffffff"
         id="path12" />
      <path
         d="m 2474.02,511.87 v 341.24 170.62 h 85.31 v 85.31 h 255.94 v -85.31 h 85.31 V 853.11 511.87 h 85.31 v -85.31 h 85.31 V 255.93 85.31 h -85.31 V 0 h -597.18 v 85.31 h -85.31 v 170.62 170.63 h 85.31 v 85.31 z"
         fill="#120f26"
         id="path13" />
      <path
         d="M 2815.27,1023.73 V 426.56 h 170.62 V 255.93 h -597.18 v 170.63 h 170.62 v 597.17 z"
         fill="#666666"
         id="path14" />
      <path
         d="M 2815.27,853.11 V 255.93 h 170.62 V 85.31 h -597.18 v 170.62 h 170.62 v 597.18 z"
         fill="#ffffff"
         id="path15" />
    </g>
  </g>
</svg>
