<svg enable-background="new 0 0 3839 1109.04" height="555" viewBox="0 0 1920 555" width="1920" xmlns="http://www.w3.org/2000/svg"><g transform="scale(.50013024 .50043278999)"><path d="m1450.29 1109.04v-85.31h85.31v-85.31h85.31v-170.62-426.56-170.62h-85.31v-85.31h-85.31v-85.31h-511.87v85.31h-85.31v85.31h-85.31v170.62 426.56 170.62h85.31v85.31h85.31v85.31z" fill="#120f26"/><path d="m1450.29 1023.73v-85.31h85.31v-597.18h-85.31v-85.31h-511.87v85.31h-85.31v597.18h85.31v85.31zm-341.25-170.62v-426.55h170.62v426.56h-170.62z" fill="#666"/><path d="m1450.29 853.11v-85.31h85.31v-597.18h-85.31v-85.31h-511.87v85.31h-85.31v597.18h85.31v85.31zm-341.25-170.62v-426.56h170.62v426.56z" fill="#fff"/><path d="m341.24 1109.04v-85.31h85.32v-85.31h170.62v-85.31h85.31 85.31v-85.31h85.31v-170.62-255.94-170.62h-85.31v-85.31h-85.31v-85.31h-341.25-85.31-170.62v85.31h-85.31v170.62 597.18 170.62h85.31v85.31z" fill="#120f26"/><path d="m341.24 853.11h255.93v-85.31h170.63v-426.56h-85.31v-85.31h-341.25-85.31-170.62v767.8h255.93zm170.63-426.55v170.62h-85.31v85.31h-85.31v-255.93z" fill="#666"/><path d="m341.24 682.49h255.93v-85.31h170.63v-426.56h-85.31v-85.31h-341.25-85.31-170.62v767.8h255.93zm170.63-426.56v170.62h-85.31v85.31h-85.31v-255.93z" fill="#fff"/><path d="m1876.84 1109.04v-85.31h85.32 85.31v85.31h255.93v-85.31h85.31v-170.62-85.31-170.62-170.62-85.32-170.62h-85.31v-85.31h-85.31v-85.31h-341.25-85.31-170.62v85.31h-85.31v170.62 597.18 170.62h85.31v85.31z" fill="#120f26"/><path d="m1876.84 767.8h170.62v85.31 170.62h255.93v-255.93h-85.31v-85.31h-85.31v-85.31h170.62v-255.94h-85.31v-85.31h-341.24-85.31-170.62v767.8h255.93zm170.63-341.24v85.31h-85.31v85.31h-85.31v-170.62z" fill="#666"/><path d="m1876.84 597.18h170.62v85.31 170.62h255.93v-255.93h-85.31v-85.31h-85.31v-85.31h170.62v-255.94h-85.31v-85.31h-341.24-85.31-170.62v767.8h255.93zm170.63-341.25v85.31h-85.31v85.31h-85.31v-170.62z" fill="#fff"/><path d="m3156.51 1023.73v85.31h511.87v-85.31h85.31v-85.31h85.31v-170.62-85.31-170.62-170.63-170.62h-85.31v-85.31h-85.31v-85.31h-511.87v85.31h-85.31v85.31h-85.31v170.62 85.32 170.62 170.62 170.62h85.31v85.31z" fill="#120f26"/><path d="m3668.38 1023.73v-85.31h85.31v-255.93h-85.31v-85.31h-170.62v-85.31h-170.63v-85.31h170.63v85.31h255.93v-170.63h-85.31v-85.31h-511.87v85.31h-85.31v255.94h85.31v85.31h170.62v85.31h170.63v85.31h-170.63v-85.31h-255.93v170.62h85.31v85.31z" fill="#666"/><path d="m3668.38 853.11v-85.31h85.31v-255.93h-85.31v-85.31h-170.62v-85.32h-170.63v-85.31h170.63v85.31h255.93v-170.62h-85.31v-85.31h-511.87v85.31h-85.31v255.94h85.31v85.31h170.62v85.31h170.63v85.31h-170.63v-85.31h-255.93v170.62h85.31v85.31z" fill="#fff"/><path d="m2474.02 511.87v341.24 170.62h85.31v85.31h255.94v-85.31h85.31v-170.62-341.24h85.31v-85.31h85.31v-170.63-170.62h-85.31v-85.31h-597.18v85.31h-85.31v170.62 170.63h85.31v85.31z" fill="#120f26"/><path d="m2815.27 1023.73v-597.17h170.62v-170.63h-597.18v170.63h170.62v597.17z" fill="#666"/><path d="m2815.27 853.11v-597.18h170.62v-170.62h-597.18v170.62h170.62v597.18z" fill="#fff"/></g></svg>