<svg enable-background="new 0 0 3839 556.7" height="278" viewBox="0 0 1920 278" width="1920" xmlns="http://www.w3.org/2000/svg"><g fill="#fff" transform="scale(.50013024 .49937128501)"><path d="m534.7 195.8-10.8-5c.7-2.2 1.4-5 1.4-7.7 0-7.2-63.7-45.7-174.2-45.7-105.7 0-151.2 26.4-151.2 60.5 0 90.3 399.3-41.8 399.3 157.4 0 72.7-86.8 128.8-260.3 128.8-165.4 0-212.9-42.9-228.4-42.9-4.1 0-6.1 2.8-9.5 4.4l-9-1.6 56.3-93.6 10.8 4.4c0 2.2-1.4 4.4-1.4 8.8 0 32.5 87.4 55.6 174.2 55.6 123.4 0 165.4-28.6 165.4-58.9 0-107.9-393.8 25.9-393.8-156.9 0-92.5 120-131 251.5-131 117.9 0 200.6 41.8 208.8 41.8 8.8 0 10.2-2.2 12.2-3.9l10.8 2.8z"/><path d="m651.3 471c14.9 0 17.6-4.4 17.6-16.5v-352.3c0-12.1-2.7-16.5-17.6-16.5v-7.7h439.9c16.3 0 23-4.4 23-12.1h9.5v91.4h-9.5c0-9.9-6.8-14.3-23-14.3h-326v98h212.8c16.3 0 23-4.4 23-14.3h9.5v92.5h-9.5c0-8.8-6.8-13.2-23-13.2h-212.8v107.9h332.2c16.3 0 23-4.4 23-13.2h9.5v90.3h-9.5c0-7.7-6.8-12.1-23-12.1h-446v-7.9z"/><path d="m1717.6 267.3v7.7c-6.8 1.1-12.9 5.5-12.9 17.6v108.4c0 8.8 3.4 12.1 12.2 13.8v7.7c-42.7 19.8-147.1 61.7-264.4 61.7-155.9 0-292.8-62.8-292.8-205.9s160-205.9 301-205.9c55.6 0 108.5 10.5 147.1 20.4 35.9 12.7 62.4 22.6 67.1 22.6 6.1 0 12.2-2.8 14.9-6.1l9.5 3.3-65.8 90.3-9.5-5c.7-2.2 1.4-5.5 1.4-9.4 0-17.1-73.2-51.2-163.4-51.2-113.9 0-206.1 45.7-206.1 138.7 0 97.4 92.2 143.1 196.6 143.1 85.4 0 135.6-23.7 155.9-35.8v-45.7h-116.6c-13.6 0-21.7 5.5-21.7 13.2h-9.5v-96.9h9.5c0 7.7 8.1 13.2 21.7 13.2h225.8z"/><path d="m1751.5 478.7v-7.7c12.2-.6 16.3-3.3 25.8-20.9l185.1-338c3.4-5.5 7.5-11.6 7.5-16.5 0-6.1-5.4-8.8-14.2-9.9v-7.7h147.8v7.7c-10.2 1.1-14.2 4.4-14.2 8.3 0 4.4 2.7 8.8 6.1 14.3l196.6 341.8c9.5 17.1 12.2 20.9 26.4 20.9v7.7h-134.9v-7.7c8.8 0 12.2-2.7 12.2-5.5 0-6.1-6.1-13.8-51.5-92.5h-232.5c-39.3 71.6-49.5 82.6-49.5 89.7 0 5 4.1 7.7 10.2 8.3v7.7zm353.2-168.4-81.4-144.3-80 144.2h161.4z"/><path d="m0 0v556.7h3839v-556.7zm3788.5 506.2h-3738v-455.7h3738.1v455.7z"/><path d="m2442 78v400.7h1319v-400.7zm629 345.9c-100.8 12.4-194.5 18.3-275.9 18.3-175 0-292.6-27.5-299.6-77-10.4-73 231.4-169 550.4-218.6 1.4-.2 2.7.7 2.9 2.1s-.7 2.7-2.1 2.9c-193.7 33.6-337.7 113.5-328 181.9 9.5 67.2 160.8 103.8 351.8 85.3 1.4-.2 2.6.9 2.8 2.2.1 1.5-.9 2.7-2.3 2.9zm64.6-8.1c-.2 0-.3 0-.5 0-.8 0-1.5-.3-2.1-.8-.7-.6-1.1-1.5-1.1-2.4v-185.3c0-1.9 1.5-3.5 3.4-3.7 1.9-.1 3.6 1.2 3.9 3.1 10.6 64.1 27 141.7 39.1 154 194.4-35.5 309.8-94.9 301.2-155.1-9.6-67.6-168.7-104.2-362.2-83.4-1.8.2-3.3-1.1-3.5-2.8s1-3.3 2.8-3.5c326.6-42.1 580.9-17.5 591.5 57.3 10.9 76-240.6 173.8-572.5 222.6z"/></g></svg>