<?xml version="1.0" encoding="UTF-8" standalone="no"?>
<svg
   enable-background="new 0 0 450 120"
   height="508"
   viewBox="0 0 1920 508"
   width="1920"
   version="1.1"
   id="svg1"
   sodipodi:docname="solarus.svg"
   inkscape:version="1.3.2 (091e20e, 2023-11-25)"
   xmlns:inkscape="http://www.inkscape.org/namespaces/inkscape"
   xmlns:sodipodi="http://sodipodi.sourceforge.net/DTD/sodipodi-0.dtd"
   xmlns="http://www.w3.org/2000/svg"
   xmlns:svg="http://www.w3.org/2000/svg">
  <defs
     id="defs1" />
  <sodipodi:namedview
     id="namedview1"
     pagecolor="#ffffff"
     bordercolor="#000000"
     borderopacity="0.25"
     inkscape:showpageshadow="2"
     inkscape:pageopacity="0.0"
     inkscape:pagecheckerboard="0"
     inkscape:deskcolor="#d1d1d1"
     inkscape:zoom="0.23231886"
     inkscape:cx="1919.7753"
     inkscape:cy="507.9226"
     inkscape:window-width="1312"
     inkscape:window-height="449"
     inkscape:window-x="0"
     inkscape:window-y="23"
     inkscape:window-maximized="0"
     inkscape:current-layer="svg1" />
  <g
     id="g2"
     transform="scale(0.5)">
    <g
       id="g1"
       transform="scale(1,1.000152)">
      <path
         d="M 933.89648,0 C 715.2509,0 531.46587,151.5047 481.625,355 450.89411,322.8057 404.84039,296.9802 341.22656,276.0625 c -20.83159,-7.0586 -36.32692,-12.9123 -47.60351,-17.4746 -4.82053,-1.9799 -2.75391,-4.1309 -2.75391,-4.1309 0,0 2.49558,-2.6699 11.01758,-2.6699 19.97078,0 38.39254,2.8415 54.83398,6.543 16.95795,3.7875 32.88362,8.2633 48.8086,15.4941 L 486.01562,310.582 508.6543,64.3887 462.60156,48.2051 C 441.85605,40.8021 417.49424,34.7763 388.14062,29.5254 359.21743,24.4466 328.83108,21.8652 297.75586,21.8652 211.33059,21.8652 140.82803,41.5779 88.146484,80.4004 30.472256,123.0965 0,186.0214 0,262.2891 c 0,66.1962 20.487415,118.7929 60.859375,156.3242 34.346295,31.8499 82.552145,57.5021 147.371095,78.5058 32.02209,10.6741 51.21895,19.1959 49.92773,22.3809 -1.2912,3.2711 -13.51601,5.0801 -26.16992,5.0801 -23.67225,0 -57.07206,-4.9081 -88.83594,-16.7012 C 111.38849,496.0858 28.666016,433.6777 28.666016,433.6777 L 3.0996094,711.2891 52.595703,725.9238 c 15.408488,4.5623 33.400399,9.0375 54.490237,13.5137 L 1.4628906,1012.0586 H 155.37695 l 17.9043,-47.9473 h 21.08984 l 17.47461,47.9473 H 564.7793 V 729.625 h 109.49609 l -0.0859,0.1719 -109.23828,282.2617 h 153.91406 l 17.81836,-47.9473 h 21.17578 l 17.56055,47.9473 h 410.43554 v -81.3477 c 15.8387,-1.9798 30.2147,-6.1127 43.1269,-12.3105 9.8993,25.9964 24.8779,44.0739 38.3926,55.9531 30.9891,27.4598 72.5672,41.4063 123.6992,41.4063 17.1302,0 34.5183,-1.6355 51.6485,-4.7344 16.4413,-3.0129 28.5794,-5.8543 38.3066,-8.8672 l 33.2266,-10.2441 v -246.795 l 73.1699,-0.086 c -20.8317,21.0899 -42.0938,56.1253 -42.0938,111.045 0,61.8922 26.7713,98.5627 49.2383,118.3613 30.9893,27.4598 72.5652,41.4062 123.6973,41.4062 14.978,0 30.1295,-1.2909 45.0215,-3.7012 h 139.4511 l 17.8184,-47.9472 h 21.0898 l 17.5625,47.9472 h 608.6797 V 699.7539 h -5.7676 V 532.584 l 60.5157,167.084 h -18.7657 v 312.3906 h 470.0899 v -30.3008 c 29.956,22.4672 68.2629,34.002 114.4023,34.002 17.3023,0 34.6905,-1.6355 51.6485,-4.7344 7.8334,-1.4634 14.7202,-2.8415 20.832,-4.2188 v 5.3379 H 3832.166 V 699.668 h -87.6308 c 2.2381,-1.5495 4.4769,-3.099 6.6289,-4.6485 C 3809.2686,651.893 3840,588.7091 3840,512.4414 c 0,-61.8922 -16.5274,-112.5071 -49.2383,-150.4687 -30.5587,-35.4654 -78.5933,-63.5292 -146.7695,-85.9102 -20.5734,-6.9726 -35.8953,-12.7404 -47.1719,-17.3027 -5.0788,-2.066 -0.6881,-6.8868 7.834,-6.8868 19.8847,0 38.3064,2.7556 54.834,6.4571 16.6996,3.7875 33.0542,8.4353 48.6347,15.5801 l 80.4864,36.8437 8.1777,-88.1484 10.1582,-109.4942 4.4766,-48.6367 -46.0547,-16.2695 c -20.6595,-7.3169 -45.0213,-13.4288 -74.4609,-18.6797 -28.9233,-5.0788 -59.3094,-7.6602 -90.4708,-7.6602 -83.8428,0 -152.7081,18.5934 -204.7871,55.1778 V 31.9356 H 3131.9805 V 433.248 c 0,48.1193 -9.9841,69.6382 -16.0098,78.1602 -2.7546,4.0458 -8.6078,12.3105 -34.0879,12.3105 -25.4798,0 -31.6788,-8.3506 -34.6055,-12.3964 -9.8992,-13.5148 -15.4082,-39.5107 -15.4082,-72.9961 V 31.9356 H 2768.2012 V 73.7715 C 2721.8897,45.7091 2662.1502,31.9356 2586.0547,31.9356 h -287.6836 v 319.707 L 2172.1758,31.9356 H 1924.002 L 1736.7754,515.2832 H 1609.2031 V 31.9356 h -263.666 V 248.1719 C 1267.2897,100.7152 1112.1701,0 933.89648,0 Z m 0,47.0859 c 231.30002,0 418.69782,187.3996 418.35352,418.5274 0,79.4528 -22.467,152.6228 -60.9453,215.9785 H 843.85547 c 79.10854,-79.1085 164.07023,-163.2968 195.74803,-194.9746 -29.0954,-29.0093 10.0725,-68.8654 22.8125,-80.4863 6.2839,6.2839 12.9981,12.9981 19.9707,19.9707 27.546,27.5459 -14.5488,51.3047 -14.5488,51.3047 l 60.5156,60.6015 c 0,0 43.2128,-94.4318 -8.2637,-145.8223 -18.2492,-18.2492 -30.2152,-30.213 -38.2207,-38.3046 l 70.5,-70.4161 c 18.2493,6.6283 39.5985,2.6691 54.3184,-12.0507 20.4874,-20.4013 20.4874,-53.4564 0,-73.7715 -20.3151,-20.4013 -53.3703,-20.4013 -73.7715,0 -14.806,14.892 -18.6792,36.3265 -11.9648,54.834 l -70.3282,70.3281 c -8.0055,-8.0056 -20.0571,-20.0572 -38.4785,-38.4785 -51.30428,-51.3044 -145.7363,-8.2637 -145.7363,-8.2637 l 60.51563,60.6016 c 0,0 23.75859,-42.1808 51.39062,-14.6348 6.97258,6.9726 13.68679,13.7729 19.97071,19.9707 -11.53487,12.74 -51.39092,51.9079 -80.48633,22.8125 C 867.3553,415.3421 681.59094,600.3309 600.1582,681.7637 H 576.14258 C 537.66433,618.408 515.19727,545.238 515.19727,465.7852 c 0,-231.3 187.48535,-418.6993 418.69921,-418.6993 z M 297.75586,84.6172 c 27.45976,0 54.05915,2.2386 79.53906,6.7148 25.56599,4.5623 47.00036,9.8139 64.38867,16.0117 l -10.07226,109.4942 c -19.62642,-9.0385 -39.94146,-15.9238 -61.03125,-20.6582 -21.08979,-4.7345 -43.98818,-7.1445 -68.69336,-7.1445 -29.78395,0 -53.3695,5.5091 -70.75781,16.4414 -17.4744,10.9322 -26.08399,27.3737 -26.08399,49.2382 0,15.1503 6.54254,28.0624 19.71289,38.7364 13.17037,10.674 45.36607,24.7054 96.49805,42.0937 56.64115,18.5935 96.41139,40.9756 119.13672,67.4024 22.8114,26.4267 34.17397,62.8385 34.08789,109.4082 0,56.7272 -21.26349,100.8012 -63.61524,132.2207 -42.35173,31.5055 -99.50941,47.1738 -171.30078,47.1738 -33.14109,0 -64.9066,-3.0137 -95.20703,-8.8672 -30.38651,-5.9396 -55.091383,-11.7075 -74.115233,-17.3027 L 81.173828,547.6484 c 9.554965,6.8004 29.527692,15.0657 59.828122,24.8789 30.30043,9.8133 60.59982,14.7188 90.98633,14.7188 29.69787,0 53.97449,-5.8534 72.82617,-17.6465 18.76562,-11.7931 28.23438,-27.8044 28.23438,-47.9473 0,-15.7527 -7.05867,-30.2144 -21.08985,-43.3847 -14.03116,-13.1704 -42.094,-26.7716 -84.1875,-40.8028 C 172.16332,419.5601 130.75817,397.8682 103.55664,372.6465 76.355119,347.3387 62.753906,310.5804 62.753906,262.2891 c 0,-56.7273 20.830765,-100.4564 62.666014,-131.3594 41.83526,-30.903 99.25337,-46.3125 172.33594,-46.3125 z m 3302.85154,0 c 27.4598,0 54.0592,2.2386 79.5391,6.7148 25.4798,4.5623 47.0003,9.8139 64.3887,16.0117 l -10.1563,109.4942 c -19.6264,-9.0385 -39.9434,-15.9238 -61.0332,-20.6582 -21.0898,-4.7345 -43.9863,-7.1445 -68.6914,-7.1445 -29.7839,0 -53.3714,5.5091 -70.7598,16.4414 -17.4743,10.9322 -26.082,27.3738 -26.082,49.2382 0,15.1502 6.5425,28.0624 19.7129,38.7364 13.1704,10.674 45.3642,24.7054 96.4961,42.0937 56.6411,18.5935 96.4114,40.9756 119.1367,67.4024 22.8114,26.4267 34.0017,62.8385 34.1738,109.4082 0,56.7271 -21.0897,100.8012 -63.4414,132.2207 -42.3517,31.5055 -99.5094,47.1738 -171.3008,47.1738 -33.2271,0 -64.9926,-3.0137 -95.2929,-8.8672 -30.3005,-5.9396 -55.0056,-11.7075 -74.0293,-17.3027 l 10.8457,-117.9317 c 9.641,6.8004 29.6117,15.0658 59.9121,24.8789 30.3004,9.8132 60.602,14.7188 90.9023,14.7188 29.6979,0 53.9724,-5.8534 72.9102,-17.6465 18.7656,-11.793 28.2363,-27.8044 28.2363,-47.9473 0,-15.7527 -7.1448,-30.2144 -21.0898,-43.3847 -14.0312,-13.1704 -42.0941,-26.7716 -84.1875,-40.8028 -55.6082,-17.9047 -97.0151,-39.5967 -124.3028,-64.8183 -27.2014,-25.3077 -40.8886,-62.0662 -40.8886,-110.3574 0,-56.7272 20.9187,-100.4565 62.7539,-131.3594 41.7491,-30.903 99.1656,-46.3125 172.248,-46.3125 z M 1408.375,94.7754 h 138.1621 v 483.3457 h 233.2793 L 1967.043,94.7754 h 162.4355 L 2361.123,681.5469 V 94.7754 h 224.9317 c 68.9507,0 121.7184,12.7406 158.3027,38.3066 36.4122,25.566 54.6621,64.9912 54.6621,118.3614 0,32.022 -9.6421,61.204 -28.666,87.6308 -19.0238,26.3408 -49.0665,43.7301 -90.041,52.166 24.7053,6.7143 42.7835,22.4667 54.3184,47.1719 11.5347,24.7052 21.5192,48.5496 29.8691,71.5332 l 3.4434,7.5762 63.0117,164.2422 h -148.1465 l -58.9648,-162.5215 c -7.2309,-21.8646 -17.1299,-40.027 -29.4395,-54.3164 -12.3096,-14.3755 -29.9577,-21.5215 -53.0273,-21.5215 h -42.0938 v 238.3594 h -138.0742 -0.086 -151.5019 L 2162.4473,552.9004 H 1929.082 l -47.9472,128.8633 H 1408.375 Z m 1422.5801,0 h 138.1601 v 343.7227 c 0,48.205 9.2114,85.0479 27.7188,110.2695 18.6794,25.2216 46.9149,37.8769 85.1348,37.8769 38.8222,0 67.3153,-13.0855 85.5644,-39.1679 18.2491,-26.1685 27.2871,-64.1298 27.2871,-114.1426 V 94.7754 h 138.0742 v 357.0644 c 0,80.3132 -20.9168,140.4006 -62.7519,180.2559 -41.8351,39.7692 -104.3328,59.7402 -187.4004,59.7402 -81.4321,0 -143.6702,-19.1978 -186.9688,-57.6757 -43.1263,-38.392 -64.8183,-94.9482 -64.8183,-169.6661 z m -331.6719,100.9727 v 146.5976 h 58.1055 c 31.4194,0 56.0383,-6.0266 74.0293,-18.1641 17.9908,-12.0513 27.0312,-30.3864 27.0312,-55.1777 0,-25.8242 -8.953,-44.5042 -26.5996,-56.0391 -17.6466,-11.4487 -43.9029,-17.2167 -78.6797,-17.2167 z m -451.4961,16.873 -82.4648,238.3594 h 161.6601 z m -653.5293,530.3457 c 14.3754,0 27.1162,0.7763 38.3067,2.584 11.1903,1.8077 20.8325,4.2174 28.7519,7.4023 v 2.1524 l -3.4434,40.0273 c -8.2635,-4.3901 -17.1301,-7.6603 -27.0292,-9.8984 -9.7271,-2.152 -19.7995,-3.2715 -30.043,-3.2715 -25.4797,0 -45.5378,6.7145 -60.4297,19.8848 -14.7197,13.3423 -22.2949,31.4191 -22.2949,54.3164 0,22.2086 6.8876,39.8566 20.4883,53.2851 13.5144,13.3424 31.4204,20.0567 53.5429,20.0567 6.0256,0 11.0166,-0.3443 15.1485,-1.2051 4.0457,-0.7747 7.4891,-1.7228 10.5019,-2.8418 v -48.2051 h -39.3379 v -37.7891 h 88.9219 v 117.586 c -8.0055,2.4963 -19.0236,4.9938 -33.0547,7.5762 -14.1171,2.5824 -28.4934,3.9589 -43.1269,3.9589 -39.4248,0 -70.2424,-9.899 -92.5372,-29.6113 -22.2085,-19.6262 -33.3144,-47.4312 -33.3144,-83.0683 0,-35.8954 11.4485,-63.7 34.2598,-83.3262 22.8111,-19.7123 54.404,-29.6133 94.6894,-29.6133 z m 327.0235,0 c 14.3752,0 27.1162,0.7763 38.3066,2.584 11.1904,1.8077 20.7447,4.2174 28.6641,7.4023 v 2.1524 l -3.4434,40.0273 c -8.1776,-4.3901 -17.1303,-7.6604 -26.9434,-9.8984 -9.813,-2.152 -19.7975,-3.2715 -30.041,-3.2715 -25.4795,0 -45.5378,6.7145 -60.4297,19.8848 -14.8056,13.3423 -22.209,31.4192 -22.209,54.3164 0,22.2085 6.7139,39.8567 20.3145,53.2851 13.5145,13.3424 31.4204,20.0567 53.6289,20.0567 5.9395,0 11.0186,-0.3443 15.1504,-1.2051 4.0458,-0.7747 7.4893,-1.7228 10.416,-2.8418 v -48.2051 h -39.3398 v -37.7891 h 88.8359 v 117.586 c -8.0054,2.4963 -18.9376,4.9938 -33.0547,7.5762 -14.031,2.5824 -28.4074,3.9589 -43.041,3.9589 -39.4245,0 -70.2425,-9.899 -92.5371,-29.6113 -22.2086,-19.6262 -33.3125,-47.4313 -33.3125,-83.0683 0,-35.8953 11.5345,-63.7 34.3457,-83.3262 22.8973,-19.7123 54.4041,-29.6133 94.6895,-29.6133 z m 1470.2675,0 c 14.3754,0 27.1161,0.7763 38.3926,2.584 11.1043,1.8077 20.661,4.2174 28.4941,7.4023 v 2.1524 l -3.2714,40.0273 c -8.2637,-4.3901 -17.1302,-7.6603 -27.0293,-9.8984 -9.7271,-2.152 -19.7995,-3.2715 -30.043,-3.2715 -25.4797,0 -45.6239,6.7145 -60.4297,19.8848 -14.8058,13.3423 -22.209,31.4191 -22.209,54.3164 0,22.2086 6.8017,39.8567 20.4024,53.2851 13.4284,13.3424 31.4205,20.0567 53.457,20.0567 6.0256,0 11.1045,-0.3443 15.2363,-1.2051 4.1319,-0.7747 7.4874,-1.7228 10.4141,-2.8418 v -48.2051 h -39.3379 v -37.7891 h 88.9219 v 117.586 c -8.0055,2.4963 -18.9376,4.9938 -33.0547,7.5762 -13.945,2.5824 -28.4936,3.9589 -43.041,3.9589 -39.3385,0 -70.1564,-9.899 -92.5371,-29.6113 -22.2087,-19.6262 -33.3145,-47.4313 -33.3145,-83.0683 0,-35.8954 11.3625,-63.7 34.2598,-83.3262 22.8972,-19.7123 54.4041,-29.6133 94.6894,-29.6133 z m -3036.8613,3.7891 h 60.34375 l 86.08203,218.2148 h -56.29883 l -17.47461,-47.9473 h -86.76953 l -17.90429,47.9473 H 70.15625 Z m 171.2168,0 h 63.78515 l 79.88477,155.5488 V 746.7559 h 48.11914 v 218.2148 h -62.23633 l -1.80859,-3.4434 -79.53907,-150.9004 V 964.9707 H 325.9043 Z m 392.18554,0 h 60.42969 l 86.08008,218.2148 h -56.29688 l -17.56054,-47.9473 h -86.76953 l -17.81836,47.9473 h -52.50977 z m 168.63282,0 h 83.58593 c 25.65189,0 45.27821,4.8202 58.87891,14.289 13.6007,9.4688 20.3164,24.1018 20.3164,43.9863 0,11.8791 -3.6174,22.7261 -10.5898,32.4532 -7.1447,9.8992 -18.248,16.2701 -33.5704,19.455 9.2106,2.4964 16.0106,8.35 20.2286,17.5606 4.304,9.2106 8.0065,18.0777 11.1054,26.5996 l 1.2911,2.8398 23.3281,61.0313 H 1006.291 L 984.33984,904.543 c -2.75456,-8.0916 -6.45728,-14.9798 -11.01953,-20.1446 -4.47617,-5.3369 -11.18899,-8.0918 -19.71094,-8.0918 h -15.58203 v 88.6641 h -51.30468 z m 200.65624,0 h 67.0566 c 29.4396,0 51.8221,5.5948 67.2305,16.6992 15.4945,11.2765 23.2423,28.3212 23.1563,51.3047 0,22.467 -7.3175,39.8547 -21.9512,52.0781 -14.5476,12.2234 -34.9488,18.25 -61.0313,18.25 h -23.1562 v 79.8828 h -51.3047 z m 814.4141,0 h 60.5156 l 86.082,218.2148 h -56.2968 l -17.5606,-47.9473 h -86.7715 l -17.8183,47.9473 h -52.5957 z m 170.959,0 h 79.539 l 50.7012,152.1914 51.9062,-152.1914 h 77.3028 v 218.2148 h -49.3262 l 0.6035,-173.1094 -58.5351,169.666 h -45.709 l -57.416,-169.9238 0.6875,173.3672 h -49.7539 z m 303.3496,0 h 142.8086 v 37.6172 h -91.418 v 49.7539 h 84.7031 v 37.5312 h -84.7031 v 55.3516 h 93.2266 v 37.9609 h -144.6172 z m 274.8574,0 h 142.6367 v 37.6172 h -91.2461 v 49.7539 h 84.791 v 37.5312 h -84.791 v 55.3516 h 93.2266 v 37.9609 H 2650.959 Z m 184.043,0 h 63.871 l 79.7969,155.5488 V 746.7559 h 48.2071 v 218.2148 h -62.2383 l -1.9785,-3.4434 -79.5391,-150.9004 v 154.3438 h -48.1191 z m 472.9296,0 h 51.3907 v 218.2148 h -51.3907 z m 96.1524,0 h 63.7871 l 79.7969,155.5488 V 746.7559 h 48.205 v 218.2148 h -62.2363 l -1.8945,-3.4434 -79.5391,-150.9004 v 154.3438 h -48.1191 z m 236.3789,0 h 142.8086 v 37.6172 h -91.418 v 49.7539 h 84.7051 v 37.5312 h -84.7051 v 55.3516 h 93.1406 v 37.9609 h -144.5312 z m -2501.6934,37.5312 v 62.666 l 17.5606,0.5176 c 11.4487,0 20.4871,-2.7544 27.0293,-8.3496 6.6282,-5.5952 9.8984,-13.5161 9.8984,-23.8457 0,-9.7271 -3.2701,-17.3874 -9.9844,-22.8965 -6.7141,-5.337 -15.6668,-8.0918 -26.9433,-8.0918 z m -200.65622,0.086 v 54.4023 h 21.52149 c 11.70689,0 20.91674,-2.1506 27.54492,-6.7128 6.71424,-4.3901 10.1582,-11.2779 10.1582,-20.4024 0,-9.5549 -3.2704,-16.6141 -9.8125,-20.832 -6.71426,-4.304 -16.44329,-6.4551 -29.44141,-6.4551 z m -753.38281,6.1973 -30.64453,88.5781 h 60.08398 z m 563.40234,0 -30.73047,88.5781 h 60.16993 z m 1183.87499,0 -30.7305,88.5781 h 60.084 z"
         fill="#ffffff"
         stroke-width="8.60813"
         id="path1" />
    </g>
  </g>
</svg>
