<svg enable-background="new 0 0 3839 850.1" height="425" viewBox="0 0 1920 425.00001" width="1920" xmlns="http://www.w3.org/2000/svg"><g fill="#fff" transform="scale(.50013024 .499941175)"><path d="m793.4 391.3h90.2v43.9h-90.2z" transform="matrix(0 1 -1 0 1251.7848 -425.1685)"/><path d="m870.6 468.5h-64.2v-110.4h64.2zm-44-20.2h23.7v-70h-23.7z"/><path d="m1309.3 328.8h90.2v169.1h-90.2z" transform="matrix(0 1 -1 0 1767.69025 -941.07395)"/><path d="m1449.1 468.5h-189.3v-110.4h189.3zm-169.2-20.2h148.9v-70h-148.9z"/><path d="m2107.5 386.8h90.2v53h-90.2z" transform="matrix(0 1 -1 0 2565.92935 -1739.31725)"/><path d="m2189.2 468.5h-73.2v-110.4h73.2zm-53-20.2h32.8v-70h-32.8z"/><path d="m2998.1 505.5 64.3-64.3c-36.6-44.2-89.4-74.4-149.4-81.5v91.3c34.9 6.9 65 26.8 85.1 54.5z"/><path d="m2996.9 521-7-9.6c-19.2-26.3-47.2-44.3-78.9-50.6l-8.1-1.6v-111l11.3 1.3c61.1 7.2 116.5 37.5 156 85.1l5.9 7.1zm-73.7-78.1c29.6 7.6 55.9 24.1 75.8 47.4l49.6-49.6c-33.1-36.8-77-61-125.4-69.3z"/><path d="m793.4 741.4h90.2v43.9h-90.2z" transform="matrix(0 1 -1 0 1601.8378 -75.1155)"/><path d="m870.6 818.6h-64.2v-110.5h64.2zm-44-20.2h23.7v-70h-23.7z"/><path d="m1309.3 678.8h90.2v169.1h-90.2z" transform="matrix(0 1 -1 0 2117.74325 -591.02095)"/><path d="m1449.1 818.6h-189.3v-110.5h189.3zm-169.2-20.2h148.9v-70h-148.9z"/><path d="m518.6 368.2h90.2v440.3h-90.2z"/><path d="m619 818.6h-110.5v-460.5h110.5zm-90.2-20.2h70v-420h-70z"/><path d="m671.8 368.2h90.2v440.3h-90.2z"/><path d="m772.1 818.6h-110.4v-460.5h110.5v460.5zm-90.2-20.2h70v-420h-70z"/><path d="m860.4 808.5c0-30.1 0-60.1 0-90.2 173.2 0 173.2-259.8 0-259.8 0-30.1 0-60.1 0-90.2 293.6-.1 293.6 440.2 0 440.2z"/><path d="m860.4 818.6h-10.1v-110.5h10.1c37.2 0 68.2-12.9 89.9-37.2 19.3-21.7 29.9-51 29.9-82.6 0-57.7-37.5-119.8-119.8-119.8h-10.1v-110.4h10.1c71 0 130.7 25 172.7 72.2 37.1 41.8 57.6 97.9 57.6 158.1s-20.5 116.3-57.6 158.1c-42 47.1-101.7 72.1-172.7 72.1zm10.2-90.5v70.1c60.6-2.2 111.4-24.7 147.4-65.2 33.8-38.1 52.5-89.4 52.5-144.6s-18.6-106.5-52.5-144.6c-36-40.5-86.8-63-147.4-65.2v70.1c38.7 2.2 71.3 17.2 94.9 43.7 22.6 25.4 35 59.5 35 96s-12.4 70.6-35 96c-23.6 26.5-56.3 41.5-94.9 43.7z"/><path d="m1125.1 368.2h90.2v440.3h-90.2z"/><path d="m1225.4 818.6h-110.4v-460.5h110.5v460.5zm-90.2-20.2h70v-420h-70z"/><path d="m1309.3 503.8h90.2v169.1h-90.2z" transform="matrix(0 1 -1 0 1942.71675 -766.04745)"/><path d="m1449.1 643.6h-189.3v-110.5h189.3zm-169.2-20.3h148.9v-70h-148.9z"/><path d="m2107.5 561.8h90.2v53h-90.2z" transform="matrix(0 1 -1 0 2740.9558 -1564.2908)"/><path d="m2189.2 643.6h-73.2v-110.5h73.2zm-53-20.3h32.8v-70h-32.8z"/><path d="m1981.4 368.2h90.2v440.3h-90.2z"/><path d="m2081.7 818.6h-110.5v-460.5h110.5zm-90.2-20.2h70v-420h-70z"/><path d="m2179.1 633.4c0-30.2 0-60 0-90.2 55.9 0 55.9-84.8 0-84.8 0-30.2 0-60 0-90.2 176.3 0 176.3 265.2 0 265.2z"/><path d="m2179.1 643.6h-10.1v-110.5h10.1c15.6 0 23.4-7.9 27.3-14.6 6.1-10.6 6.1-24.8 0-35.4-3.8-6.6-11.7-14.6-27.3-14.6h-10.1v-110.4h10.1c43.8 0 80.7 15.5 106.7 44.9 22.9 25.9 35.6 60.7 35.6 97.9s-12.6 72-35.6 97.9c-26 29.3-62.9 44.8-106.7 44.8zm10.1-91.1v70.5c76.8-4.9 111.9-65.6 111.9-122.2s-35.1-117.3-111.9-122.2v70.5c14.9 2.6 27.2 11 34.7 23.8 9.8 16.9 9.8 38.8 0 55.7-7.4 12.9-19.7 21.3-34.7 23.9z"/><path d="m1573 560c12.7-63.7 68.9-111.7 136.3-111.7s123.6 48 136.3 111.7h91.3c-13.5-113.8-110.3-202-227.6-202s-214.1 88.2-227.6 201.9h91.3z"/><path d="m1948.2 570.1h-111l-1.6-8.1c-11.9-60-65.1-103.6-126.4-103.6s-114.4 43.6-126.4 103.6l-1.6 8.1h-111l1.3-11.3c14.2-120.2 116.4-210.9 237.6-210.9s223.4 90.7 237.6 210.9zm-94.6-20.3h71.5c-17.9-104.4-108.8-181.7-215.9-181.7s-198 77.3-215.9 181.7h71.5c16.8-65.2 76.3-111.7 144.4-111.7 68.2 0 127.6 46.5 144.4 111.7z"/><path d="m1845.6 614.5c-12.7 63.7-68.9 111.7-136.3 111.7s-123.6-48-136.3-111.7h-91.3c13.5 113.7 110.2 201.9 227.6 201.9s214.1-88.2 227.6-201.9z"/><path d="m1709.3 826.5c-121.2 0-223.4-90.7-237.6-210.9l-1.3-11.3h111l1.6 8.1c11.9 60 65.1 103.6 126.4 103.6s114.4-43.6 126.4-103.6l1.6-8.1h111l-1.3 11.3c-14.5 120.3-116.6 210.9-237.8 210.9zm-215.9-201.9c17.9 104.4 108.8 181.7 215.9 181.7s198-77.3 215.9-181.7h-71.5c-16.8 65.2-76.2 111.7-144.4 111.7-68.1 0-127.5-46.5-144.4-111.7z"/><path d="m383 368.2-102.1 200.5 50.7 99.5 152.6-300z"/><path d="m331.6 690.5-62-121.8 107.2-210.7h123.9zm-39.3-121.8 39.3 77.2 136.2-267.6h-78.5z"/><path d="m250.4 628.8-132.7-260.6h-101.2l233.9 459.6 50.6-99.5z"/><path d="m250.4 850.1-250.4-492h123.9l127.6 250.8 60.8 119.5zm-217.4-471.8 217.4 427.1 39.3-77.2-40.4-79.5-137.8-270.4z"/><path d="m2858.5 723.5c-63.7-12.7-111.7-68.9-111.7-136.3s48-123.6 111.7-136.3v-91.3c-113.7 13.5-201.9 110.2-201.9 227.6s88.2 214.1 201.9 227.6z"/><path d="m2868.7 826.2-11.3-1.3c-120.2-14.2-210.9-116.4-210.9-237.6s90.7-223.4 210.9-237.6l11.3-1.3v111l-8.1 1.6c-60 11.9-103.6 65.1-103.6 126.4s43.6 114.4 103.6 126.4l8.1 1.6zm-20.3-454.9c-104.4 17.9-181.7 108.8-181.7 215.9s77.3 198 181.7 215.9v-71.5c-65.2-16.8-111.7-76.3-111.7-144.4s46.5-127.5 111.7-144.4z"/><path d="m2998.1 669c-20.2 27.7-50.3 47.6-85.1 54.5v91.3c59.9-7.1 112.8-37.3 149.4-81.5z"/><path d="m2902.9 826.2v-111l8.1-1.6c31.7-6.3 59.7-24.3 78.9-50.6l7-9.6 79.2 79.2-5.9 7.1c-39.4 47.6-94.8 77.9-156 85.1zm20.3-94.6v71.5c48.4-8.3 92.4-32.6 125.4-69.3l-49.6-49.6c-19.9 23.3-46.3 39.8-75.8 47.4z"/><path d="m2470.2 643.1-45.9 90.2h180.7l-18.5-90.2z"/><path d="m2617.4 743.4h-209.6l56.2-110.5h130.8zm-176.6-20.2h151.8l-14.3-70h-101.9z"/><path d="m2324.8 808.5 102.1-200.6-50.6-99.4-152.7 300z"/><path d="m2331 818.6h-123.9l169.2-332.4 62 121.8zm-90.9-20.2h78.5l96.9-190.4-39.3-77.2z"/><path d="m2457.5 547.8 132.6 260.7h101.2l-233.8-459.6-50.6 99.5z"/><path d="m2707.8 818.6h-123.9l-127.6-250.8-60.8-119.5 62-121.8zm-111.5-20.2h78.5l-217.4-427.1-39.3 77.2z"/><path d="m2234.1 0c-26.1 0-78.8.3-78.8 0v229.3h64.1l.4-57.3h28.7c61.1 0 93.2-29.5 93.2-86-.1-62.1-40.2-86-107.6-86zm0 129h-14.3v-86c3.8-.2 11 0 14.3 0 32.4 0 44.1 16.6 44.1 44.4 0 28.7-9.9 41.6-44.1 41.6z"/><path d="m1660.8 229.3v-93.1h-64.5v93.1h-64.5v-229.3h64.5v93.2h64.5v-93.2h64.5v229.3z"/><path d="m1775.5 229.3v-229.3h57.3 7.2v229.3z"/><path d="m2011.4 229.3h-121.3v-229.3h64.5v186.3h64.5z"/><path d="m2040.6 0h64.5v229.3h-64.5z"/><path d="m2427.6 57.3v7.2c0 35.2 107.5 19 107.5 93.2 0 55.6-38.3 71.7-93.2 71.7-21.6 0-56.4-4-78.8-7.2v-50.2c19.8 10.2 57.3 14.3 78.8 14.3 24.3 0 28.7-7.6 28.7-21.5 0-39.5-107.5-22.5-107.5-100.3 0-45.2 44.2-64.5 97.2-64.5 37.6 0 43.4 3.5 60.5 7.2v43c-15.3-6.5-36.6-7.2-57.3-7.2-18.9 0-35.9 2.3-35.9 14.3z"/><path d="m1395.6 0c-26.1 0-78.8.3-78.8 0v229.3h64.1l.4-57.3h28.7c61.1 0 93.2-29.5 93.2-86-.1-62.1-40.1-86-107.6-86zm0 129h-14.3v-86c3.8-.2 11 0 14.3 0 32.4 0 44.1 16.6 44.1 44.4 0 28.7-9.9 41.6-44.1 41.6z"/><path d="m3664 812.1h-84.6v-178.7h7.1v171.5h70.3v-175h175v-83.1h-175v-175h-70.3v171.4h-7.1v-178.6h84.6v175h175v97.4h-175z"/><path d="m3431.7 812.1h-97.4v-175.1h-175v-97.4h175v-175h97.4v175h175v97.4h-175zm-90.3-7.2h83v-175h175v-83h-175v-175h-83v175h-175v83h175z"/><path d="m3502 633.4h7.2v175h-7.2z"/><path d="m3502 368.2h7.2v175h-7.2z"/><path d="m3428.1 364.6h154.9v7.2h-154.9z"/><path d="m3428.1 804.9h154.9v7.2h-154.9z"/><path d="m3684.1 637h-84.6v-97.4h84.6zm-77.4-7.1h70.3v-83h-70.3z"/><path d="m3761.6 637h-84.6v-97.4h84.6zm-77.5-7.1h70.3v-83h-70.3z"/></g></svg>