<?xml version="1.0" encoding="UTF-8" standalone="no"?>
<svg
   enable-background="new 0 0 3840 1138"
   viewBox="0 0 1920 569"
   version="1.1"
   id="svg13"
   sodipodi:docname="x68000.svg"
   width="1920"
   height="569"
   inkscape:version="1.3.2 (091e20e, 2023-11-25)"
   xmlns:inkscape="http://www.inkscape.org/namespaces/inkscape"
   xmlns:sodipodi="http://sodipodi.sourceforge.net/DTD/sodipodi-0.dtd"
   xmlns="http://www.w3.org/2000/svg"
   xmlns:svg="http://www.w3.org/2000/svg">
  <defs
     id="defs13" />
  <sodipodi:namedview
     id="namedview13"
     pagecolor="#ffffff"
     bordercolor="#000000"
     borderopacity="0.25"
     inkscape:showpageshadow="2"
     inkscape:pageopacity="0.0"
     inkscape:pagecheckerboard="0"
     inkscape:deskcolor="#d1d1d1"
     showgrid="false"
     inkscape:zoom="0.20738137"
     inkscape:cx="1919.1695"
     inkscape:cy="569"
     inkscape:window-width="1312"
     inkscape:window-height="449"
     inkscape:window-x="0"
     inkscape:window-y="23"
     inkscape:window-maximized="0"
     inkscape:current-layer="svg13" />
  <g
     id="g1"
     transform="scale(0.5)">
    <g
       id="g15"
       transform="matrix(0.99999191,0,0,1.0000353,0,-0.04011679)">
      <g
         id="g14">
        <g
           fill="#ffffff"
           id="g13">
          <path
             d="M 2683.7,525.8 H 2434 c -62.5,0 -122.2,50.7 -133.2,113.2 l -61.5,347.5 c -11.1,62.6 30.7,113.3 93.3,113.3 h 250.2 c 62.6,0 122.3,-50.8 133.3,-113.4 l 61,-347.5 C 2788,576.5 2746.2,525.8 2683.7,525.8 Z M 2566.2,1017 h -187.3 c -34.3,0 -57.2,-27.8 -51.2,-62.1 l 50.2,-284.6 c 6,-34.3 38.8,-62.1 73.1,-62.1 h 187.3 c 34.3,0 57.2,27.8 51.2,62.1 l -50.2,284.6 c -6.1,34.3 -38.8,62.1 -73.1,62.1 z"
             id="path1" />
          <path
             d="m 3214.3,525.8 h -249.7 c -62.5,0 -122.2,50.7 -133.2,113.2 l -61.5,347.5 c -11.1,62.6 30.7,113.3 93.3,113.3 h 250.2 c 62.6,0 122.3,-50.8 133.3,-113.4 l 61,-347.5 c 10.9,-62.4 -30.9,-113.1 -93.4,-113.1 z M 3096.8,1017 h -187.3 c -34.3,0 -57.2,-27.8 -51.2,-62.1 l 50.2,-284.6 c 6,-34.3 38.8,-62.1 73.1,-62.1 h 187.3 c 34.3,0 57.2,27.8 51.2,62.1 l -50.2,284.6 c -6.1,34.3 -38.8,62.1 -73.1,62.1 z"
             id="path2" />
          <path
             d="m 3744.9,525.8 h -249.7 c -62.5,0 -122.2,50.7 -133.2,113.2 l -61.5,347.5 c -11.1,62.6 30.7,113.3 93.3,113.3 H 3644 c 62.6,0 122.3,-50.8 133.3,-113.4 l 61,-347.5 c 10.9,-62.4 -30.8,-113.1 -93.4,-113.1 z M 3627.4,1017 h -187.3 c -34.3,0 -57.2,-27.8 -51.2,-62.1 l 50.2,-284.6 c 6,-34.3 38.8,-62.1 73.1,-62.1 h 187.3 c 34.3,0 57.2,27.8 51.2,62.1 l -50.2,284.6 c -6.1,34.3 -38.8,62.1 -73.1,62.1 z"
             id="path3" />
          <path
             d="m 2189.2,812.7 c 19.9,-19.7 34.6,-44.7 39.5,-72.3 l 17.7,-101.9 c 11,-62.5 -30.8,-113.2 -93.3,-113.2 h -249.7 c -62.5,0 -122.2,50.7 -133.2,113.2 L 1752,740.4 c -4.9,27.6 1,52.6 13.9,72.3 -19.7,19.6 -34.3,44.5 -39.2,71.9 l -18.2,101.9 c -11.1,62.6 30.7,113.4 93.3,113.4 H 2052 c 62.6,0 122.3,-50.8 133.3,-113.4 L 2203,884.6 c 4.8,-27.5 -1,-52.3 -13.8,-71.9 z m -341.9,-143 c 6,-34.3 38.8,-62.1 73.1,-62.1 h 187.3 c 34.3,0 57.2,27.8 51.2,62.1 l -6.9,39 c -6,34.3 -38.8,62.1 -73.1,62.1 h -187.3 c -34.3,0 -57.2,-27.8 -51.2,-62.1 z m 261.3,285.2 c -6,34.3 -38.8,62.1 -73.1,62.1 h -187.3 c -34.3,0 -57.2,-27.8 -51.2,-62.1 l 6.9,-39 c 6,-34.3 38.8,-62.1 73.1,-62.1 h 187.3 c 34.3,0 57.2,27.8 51.2,62.1 z"
             id="path4" />
          <path
             d="m 1579,771.4 h -249.7 c -10.6,0 -21,1.9 -31.2,4.7 l 18.7,-105.8 c 6.1,-34.3 38.8,-62.1 73.1,-62.1 h 187.3 c 34.3,0 57.2,27.8 51.2,62.1 l -8.5,48.3 h 82.1 l 14,-79.6 c 11,-62.5 -30.8,-113.2 -93.3,-113.2 H 1373 c -62.5,0 -122.2,50.7 -133.2,113.2 l -43.3,244.5 c -0.1,0.4 -0.2,0.7 -0.3,1.1 L 1178,986.5 c -11.1,62.6 30.7,113.4 93.3,113.4 h 250.2 c 62.6,0 122.3,-50.8 133.3,-113.4 l 17.7,-101.9 c 10.8,-62.5 -31,-113.2 -93.5,-113.2 z m -1.1,183.5 c -6,34.3 -38.8,62.1 -73.1,62.1 h -187.3 c -29.5,0 -49.3,-21 -50.8,-48.6 0.1,-0.1 0.2,-0.2 0.3,-0.3 -0.2,-4.4 -1.2,-8.6 -0.3,-13.3 l 7.1,-40.3 c 6.7,-33.7 38.7,-60.8 72.6,-60.8 h 187.3 c 34.3,0 57.2,27.8 51.2,62.1 z"
             id="path5" />
          <path
             d="M 305.8,832.2 0,1138 h 482.4 z m -11.8,89.5 93.1,161.4 H 132.7 Z"
             id="path6" />
          <path
             d="M 673.5,487.7 H 157 L 532.5,1138 H 1049 Z m -421.3,54.9 h 389.6 l 312,540.5 H 564.2 Z"
             id="path7" />
          <path
             d="M 723.6,487.7 900.2,793.5 1206,487.7 Z m 95.2,54.9 h 254.5 L 911.9,704 Z"
             id="path8" />
          <path
             d="M -331.1,719.7 V 578.6 h -82.1 v -72.9 h 214.7 v 72.9 h -86.3 v 141.1 h 86.3 v 72.9 h -214.7 v -72.9 z"
             transform="matrix(0,1.5459704,1.5459704,0,415.67057,649.33146)"
             id="path9" />
          <path
             d="m -290.3,890.9 -83.4,50.8 83.4,49.2 z M -418.7,913.4 -204,782.6 v 55.7 l -43.9,26.7 v 150.8 l 43.9,26 v 89 l -214.7,-130.7 z"
             transform="matrix(0,1.5459704,1.5459704,0,451.89266,657.95179)"
             id="path10" />
          <path
             d="m -321.4,1356.5 c -22.8,17.4 -56.1,15 -75.2,-18.3 -17.8,-31.1 -24.4,-90.4 -24.4,-127.5 0,-59.3 4,-97.5 9.6,-129.9 h 211.6 v 72.9 h -179.5 c -5.2,26.3 -5.3,52.9 -4.9,62.9 1.3,28.9 5.8,45.2 15,58.2 9.6,13.5 30.8,17.1 45.5,-0.3 11,-13.1 19.6,-39.6 10.6,-98.9 l 13.8,-8.4 99.5,112.1 v 99.3 l -86.3,-99.7 c -3,23.9 -12.6,60.2 -35.3,77.6"
             transform="matrix(0,1.5459704,1.5459704,0,550.35088,651.36905)"
             id="path11" />
          <path
             d="m -338,390.8 c -8.2,-42.1 -13.3,-77.9 -26.9,-77.9 -15.1,0 -19,28.9 -14.7,69.9 4.1,38.8 14.3,75.3 28.8,109.4 l -42.5,25.9 c -10.5,-27.6 -23.9,-84.4 -25.5,-135.9 -1.6,-56.5 3.4,-151.9 60.6,-156 52.3,-3.8 64.8,70.8 76.2,119.6 11.1,47.7 15.1,92.3 31.6,92.3 11.6,0 20.7,-15.7 17.5,-57.4 -3.7,-50.1 -17.4,-92.8 -38.6,-135.4 l 46.4,-28.3 c 18.4,47.2 33.3,109.1 34.2,164.9 1.1,66.3 -9.6,141.2 -66.4,142.9 -47.4,1.5 -63.9,-47.6 -80.7,-134"
             transform="matrix(0,1.5459704,1.5459704,0,346.11736,647.86124)"
             id="path12" />
          <path
             d="m -323,1563.7 c 10.3,-12.6 14,-31 13.9,-60.1 -0.1,-21.4 -4,-43.6 -8.1,-61.7 h -61.9 c -5.2,26.2 -5.3,53.4 -4.9,63.3 1.2,29.1 6.2,46.1 15,58.7 9.3,13.3 31.4,17.7 46,-0.2 m -73.4,63.8 c -17.6,-29.7 -24.4,-85.3 -24.4,-127.9 0,-59.3 4,-97.9 9.6,-130.4 h 211.6 v 72.9 h -77.5 c 3.8,22.5 5.9,50.8 5.8,75.2 -0.5,59.7 -14.5,104 -36.5,124.2 -31.3,28.7 -69.1,19 -88.6,-14"
             transform="matrix(0,1.5459704,1.5459704,0,594.18532,651.0413)"
             id="path13" />
        </g>
      </g>
    </g>
  </g>
</svg>
