<?xml version="1.0" encoding="UTF-8" standalone="no"?>
<svg
   enable-background="new 0 0 3840 987.9"
   viewBox="0 0 3840 987.99998"
   version="1.1"
   id="svg11"
   sodipodi:docname="amstradcpc.svg"
   width="3840"
   height="988"
   inkscape:version="1.3.2 (091e20e, 2023-11-25)"
   xmlns:inkscape="http://www.inkscape.org/namespaces/inkscape"
   xmlns:sodipodi="http://sodipodi.sourceforge.net/DTD/sodipodi-0.dtd"
   xmlns="http://www.w3.org/2000/svg"
   xmlns:svg="http://www.w3.org/2000/svg">
  <defs
     id="defs11" />
  <sodipodi:namedview
     id="namedview11"
     pagecolor="#ffffff"
     bordercolor="#000000"
     borderopacity="0.25"
     inkscape:showpageshadow="2"
     inkscape:pageopacity="0.0"
     inkscape:pagecheckerboard="0"
     inkscape:deskcolor="#d1d1d1"
     inkscape:zoom="0.20755208"
     inkscape:cx="1917.591"
     inkscape:cy="496.26098"
     inkscape:window-width="1312"
     inkscape:window-height="449"
     inkscape:window-x="0"
     inkscape:window-y="23"
     inkscape:window-maximized="0"
     inkscape:current-layer="svg11" />
  <g
     id="g12"
     transform="scale(1,1.0001012)">
    <g
       fill="#ffffff"
       id="g11">
      <path
         d="m 2588.6,726.4 v -461 c 0,-67.2 34.6,-102.8 98,-102.8 h 277.6 v 169 h -70.1 V 229 h -190.2 c -28.8,0 -40.3,18.2 -40.3,54.7 v 424.5 c 0,36.5 11.5,54.7 40.3,54.7 h 190.2 V 653.4 h 70.1 v 175.8 h -277.6 c -63.4,0 -98,-35.5 -98,-102.8 z"
         id="path1" />
      <path
         d="m 3003.5,762.9 h 58.6 V 229 h -58.6 v -66.3 h 317.9 c 63.4,0 98,35.5 98,102.8 v 152.7 c 0,67.2 -34.6,102.8 -98,102.8 H 3137 v 242 h 60.5 v 66.3 h -194 z m 300.6,-308.3 c 28.8,0 40.3,-18.2 40.3,-54.7 V 283.7 c 0,-36.5 -11.5,-54.7 -40.3,-54.7 H 3137 v 225.7 h 167.1 z"
         id="path2" />
      <path
         d="m 3464.5,726.4 v -461 c 0,-67.2 34.6,-102.8 98,-102.8 H 3840 v 169 h -70.1 V 229 h -190.2 c -28.8,0 -40.3,18.2 -40.3,54.7 v 424.5 c 0,36.5 11.5,54.7 40.3,54.7 h 190.2 V 653.4 h 70.1 v 175.8 h -277.6 c -63.3,0 -97.9,-35.5 -97.9,-102.8 z"
         id="path3" />
      <path
         d="m 1564.3,0 -489.2,987.9 h 541.1 L 2090.8,0 Z"
         opacity="0.4"
         id="path4" />
      <path
         d="M 338.7,827.2 H 206.2 l -11,-131.5 h -53.8 l -10,131.5 H 0 L 83.7,162.7 H 256 Z m -170.3,-499.1 -18.9,258 h 37.9 z"
         id="path5" />
      <path
         d="M 785,827.2 H 658.5 V 450.6 L 608.7,827.2 H 527 L 474.2,448.6 V 827.2 H 347.7 V 162.7 H 533 l 32.9,293.9 34.9,-293.9 H 785 Z"
         id="path6" />
      <path
         d="m 992.2,390.8 v -78.7 c 0,-20.9 -1,-27.9 -3,-32.9 -4,-7 -10,-12 -16.9,-12 -7,0 -14.9,5 -17.9,12 -2,6 -3,11 -3,32.9 v 48.8 c 0,21.9 6,29.9 31.9,43.8 l 59.8,32.9 c 78.7,43.8 89.7,61.8 89.7,151.4 v 106.6 c 0,57.8 -4,76.7 -19.9,97.6 -21.9,29.9 -45.8,35.9 -149.4,35.9 -82.7,0 -105.6,-5 -127.5,-29.9 -13,-13.9 -18.9,-29.9 -21.9,-54.8 -2,-13 -2,-27.9 -2,-72.7 V 552.2 h 139.5 v 111.6 16.9 c 0,26.9 6,37.9 20.9,37.9 13,0 19.9,-11 19.9,-29.9 v -16.9 -73.7 l -1,-13.9 c -1,-24.9 -4,-29.9 -27.9,-42.8 -9,-5 -15.9,-8 -16.9,-9 L 887.8,499.5 C 823,462.6 812.1,441.7 812.1,359 v -77.7 c 0,-54.8 6,-78.7 26.9,-97.6 21.9,-19.9 47.8,-24.9 144.5,-24.9 84.7,0 107.6,6 128.5,33.9 16.9,21.9 20.9,42.8 20.9,104.6 V 391 H 992.2 Z"
         id="path7" />
      <path
         d="M 1352.6,827.2 H 1212.1 V 270.3 h -70.7 V 162.7 h 280 v 107.6 h -68.7 v 556.9 z"
         id="path8" />
      <path
         d="m 1579.5,162.7 49.8,1 c 97.6,2 121.5,27.9 121.5,128.5 v 69.7 c 0,92.7 -13.9,124.5 -62.8,137.5 23.9,8 37.9,18.9 47.8,36.9 13,22.9 14.9,40.8 14.9,118.6 V 827.3 H 1611.2 V 627.9 c 0,-65.8 0,-64.8 -34.9,-65.8 -2,0 -3,0 -6,0 v 265 H 1430 V 162.7 Z m 0.9,277.9 c 26.9,0 30.9,-6 30.9,-48.8 v -71.7 l -1,-17.9 c 0,-23.9 -6,-30.9 -24.9,-30.9 h -9 -6 v 169.4 c 5.1,-0.1 8.1,-0.1 10,-0.1 z"
         id="path9" />
      <path
         d="M 2093.5,827.2 H 1961 l -11,-131.5 h -53.8 l -10,131.5 h -131.5 l 83.7,-664.5 h 172.4 z m -170.4,-499.1 -18.9,258 h 37.9 z"
         id="path10" />
      <path
         d="m 2238.9,162.7 c 120.6,0 137.5,3 160.4,29.9 20.9,23.9 25.9,49.8 25.9,141.5 v 327.8 c 0,81.7 -3,103.6 -18.9,127.5 -18.9,27.9 -46.8,36.9 -115.6,36.9 l -70.7,1 H 2102.4 V 162.7 Z m 16.9,555.9 c 21.9,0 26.9,-7 26.9,-34.9 0,-4 0,-7 0,-13.9 0,-11 0,-22.9 0,-32.9 V 325.1 308.2 c 0,-29.9 -5,-36.9 -26.9,-36.9 -3,0 -8,1 -13,1 v 446.3 z"
         id="path11" />
    </g>
  </g>
</svg>
