<svg enable-background="new 0 0 3865.1 1219.9" height="1212" viewBox="0 0 3839.9999 1212" width="3840" xmlns="http://www.w3.org/2000/svg"><g transform="scale(.99350599 .99352407181)"><g fill="#fff"><path d="m3424.9 396.1h-98v-131.6h251.6v582.8h-251.6v-131.6h98z"/><path d="m3767.1 715.7h98v131.6h-251.6v-582.8h251.6v131.6h-98z"/><path d="m918.8 810.2c-52.9-55.7-79.7-119.8-79.7-190.6 0-71.2 25.7-134.6 76.3-188.3 15.6-16.6 32.4-30.6 50.3-42.2-19.3-25-96.1-114-210.9-114-109.3 0-137.5 65.4-213.3 65.4-83.5 0-111.2-72.4-219.6-72.4 0 0-321.9 9.6-321.9 400.2 0 140.9 123.1 551.6 306.2 551.6 91.6 0 80.6-56.3 200.1-56.3 118.9 0 98.6 47.6 210.5 47.6 115.7 0 266.3-159.8 280.2-341.7-27.9-14.1-54.1-33.9-78.2-59.3z"/><path d="m1130.7 396.9h284.5v450.5h-153.6v-318.9h-84.8c-27.8 0-50.8 8.6-69.1 25.9-18.3 17.2-27.4 39.5-27.4 66.6 0 26.7 9.4 49.2 28.2 67.4s42 27.3 69.8 27.3h48.3v131.6h-94.3c-58 0-109.2-23.4-153.6-70.1-44.5-46.7-66.7-99.2-66.7-157.7 0-58.9 21.1-110.7 63.3-155.5 42.2-44.7 94-67.1 155.4-67.1z"/><path d="m1462.7 979v-582.1h289.6c59 0 109.6 22.3 151.7 66.8 42.2 44.5 63.3 98.7 63.3 162.4 0 61.8-21.2 114.1-63.6 157-42.4 42.8-93.9 64.3-154.3 64.3h-98v-131.7h43.9c29.3 0 53.9-8.2 73.9-24.8 20-16.5 30-37.9 30-64.1 0-25.3-9.5-47.6-28.5-67-20.5-20.9-45.6-31.3-75.3-31.3h-79v450.5z"/><path d="m1998 979v-582.1h289.6c59 0 109.6 22.3 151.7 66.8 42.2 44.5 63.3 98.7 63.3 162.4 0 61.8-21.2 114.1-63.6 157-42.4 42.8-93.9 64.3-154.3 64.3h-98v-131.7h43.9c29.3 0 53.9-8.2 73.9-24.8 20-16.5 30-37.9 30-64.1 0-25.3-9.5-47.6-28.5-67-20.5-20.9-45.6-31.3-75.3-31.3h-79v450.5z"/><path d="m2533.3 264.5h153.6v582.8h-153.6z"/><path d="m3232.4 715.7v131.6h-259.6c-69.2 0-128-20-176.2-59.9-51.7-42.8-77.5-98.6-77.5-167.2 0-58.4 25.3-110.2 76.1-155.5 50.7-45.3 110.2-67.9 178.4-67.9h258.9v131.3l-102.5 149.6h-174l108.2-149.2h-79c-29.3 0-52.9 8.5-70.9 25.5s-27.1 38.6-27.1 64.8c0 27.7 9.5 50.8 28.5 69.2 19 18.5 42.2 27.7 69.5 27.7z"/></g><path d="m82.353605 429.1h-82.353605v-161h347.00024" fill="none"/><path d="m347.00024 268.1h784.69976v161l-189.00597.00001" fill="none"/><path d="m717.2 208.6c15.6-15.5 49-127.5 49-208.6-73.6 17.1-142.5 57.5-182.3 112.7-39.7 55.2-62.3 125-48.9 208.6 99.5-8.6 146.2-58.6 182.2-112.7z" fill="#fff"/></g></svg>