<?xml version="1.0" encoding="UTF-8" standalone="no"?>
<svg
   enable-background="new 0 0 3865.1 1219.9"
   viewBox="0 0 3839.9999 1212"
   version="1.1"
   id="svg11"
   sodipodi:docname="apple2.svg"
   width="3840"
   height="1212"
   inkscape:version="1.3.2 (091e20e, 2023-11-25)"
   xmlns:inkscape="http://www.inkscape.org/namespaces/inkscape"
   xmlns:sodipodi="http://sodipodi.sourceforge.net/DTD/sodipodi-0.dtd"
   xmlns="http://www.w3.org/2000/svg"
   xmlns:svg="http://www.w3.org/2000/svg">
  <defs
     id="defs11" />
  <sodipodi:namedview
     id="namedview11"
     pagecolor="#ffffff"
     bordercolor="#000000"
     borderopacity="0.25"
     inkscape:showpageshadow="2"
     inkscape:pageopacity="0.0"
     inkscape:pagecheckerboard="0"
     inkscape:deskcolor="#d1d1d1"
     inkscape:zoom="0.19345848"
     inkscape:cx="1933.2314"
     inkscape:cy="609.95"
     inkscape:window-width="1312"
     inkscape:window-height="449"
     inkscape:window-x="0"
     inkscape:window-y="23"
     inkscape:window-maximized="0"
     inkscape:current-layer="svg11" />
  <g
     id="g1"
     transform="scale(1,1.0000182)">
    <g
       id="g11"
       transform="scale(0.99350599)">
      <g
         fill="#ffffff"
         id="g8">
        <path
           d="m 3424.9,396.1 h -98 V 264.5 h 251.6 V 847.3 H 3326.9 V 715.7 h 98 z"
           id="path1" />
        <path
           d="m 3767.1,715.7 h 98 V 847.3 H 3613.5 V 264.5 h 251.6 v 131.6 h -98 z"
           id="path2" />
        <path
           d="m 918.8,810.2 c -52.9,-55.7 -79.7,-119.8 -79.7,-190.6 0,-71.2 25.7,-134.6 76.3,-188.3 15.6,-16.6 32.4,-30.6 50.3,-42.2 -19.3,-25 -96.1,-114 -210.9,-114 -109.3,0 -137.5,65.4 -213.3,65.4 -83.5,0 -111.2,-72.4 -219.6,-72.4 0,0 -321.9,9.6 -321.9,400.2 0,140.9 123.1,551.6 306.2,551.6 91.6,0 80.6,-56.3 200.1,-56.3 118.9,0 98.6,47.6 210.5,47.6 115.7,0 266.3,-159.8 280.2,-341.7 -27.9,-14.1 -54.1,-33.9 -78.2,-59.3 z"
           id="path3" />
        <path
           d="m 1130.7,396.9 h 284.5 V 847.4 H 1261.6 V 528.5 h -84.8 c -27.8,0 -50.8,8.6 -69.1,25.9 -18.3,17.2 -27.4,39.5 -27.4,66.6 0,26.7 9.4,49.2 28.2,67.4 18.8,18.2 42,27.3 69.8,27.3 h 48.3 v 131.6 h -94.3 c -58,0 -109.2,-23.4 -153.6,-70.1 C 934.2,730.5 912,678 912,619.5 c 0,-58.9 21.1,-110.7 63.3,-155.5 42.2,-44.7 94,-67.1 155.4,-67.1 z"
           id="path4" />
        <path
           d="M 1462.7,979 V 396.9 h 289.6 c 59,0 109.6,22.3 151.7,66.8 42.2,44.5 63.3,98.7 63.3,162.4 0,61.8 -21.2,114.1 -63.6,157 -42.4,42.8 -93.9,64.3 -154.3,64.3 h -98 V 715.7 h 43.9 c 29.3,0 53.9,-8.2 73.9,-24.8 20,-16.5 30,-37.9 30,-64.1 0,-25.3 -9.5,-47.6 -28.5,-67 -20.5,-20.9 -45.6,-31.3 -75.3,-31.3 h -79 V 979 Z"
           id="path5" />
        <path
           d="M 1998,979 V 396.9 h 289.6 c 59,0 109.6,22.3 151.7,66.8 42.2,44.5 63.3,98.7 63.3,162.4 0,61.8 -21.2,114.1 -63.6,157 -42.4,42.8 -93.9,64.3 -154.3,64.3 h -98 V 715.7 h 43.9 c 29.3,0 53.9,-8.2 73.9,-24.8 20,-16.5 30,-37.9 30,-64.1 0,-25.3 -9.5,-47.6 -28.5,-67 -20.5,-20.9 -45.6,-31.3 -75.3,-31.3 h -79 V 979 Z"
           id="path6" />
        <path
           d="m 2533.3,264.5 h 153.6 v 582.8 h -153.6 z"
           id="path7" />
        <path
           d="m 3232.4,715.7 v 131.6 h -259.6 c -69.2,0 -128,-20 -176.2,-59.9 -51.7,-42.8 -77.5,-98.6 -77.5,-167.2 0,-58.4 25.3,-110.2 76.1,-155.5 50.7,-45.3 110.2,-67.9 178.4,-67.9 h 258.9 V 528.1 L 3130,677.7 h -174 l 108.2,-149.2 h -79 c -29.3,0 -52.9,8.5 -70.9,25.5 -18,17 -27.1,38.6 -27.1,64.8 0,27.7 9.5,50.8 28.5,69.2 19,18.5 42.2,27.7 69.5,27.7 z"
           id="path8" />
      </g>
      <path
         d="M 82.353605,429.1 H 0 v -161 h 347.00024"
         fill="none"
         id="path9" />
      <path
         d="M 347.00024,268.1 H 1131.7 v 161 l -189.00597,10e-6"
         fill="none"
         id="path10" />
      <path
         d="M 717.2,208.6 C 732.8,193.1 766.2,81.1 766.2,0 692.6,17.1 623.7,57.5 583.9,112.7 544.2,167.9 521.6,237.7 535,321.3 634.5,312.7 681.2,262.7 717.2,208.6 Z"
         fill="#ffffff"
         id="path11" />
    </g>
  </g>
</svg>
