<svg enable-background="new 0 0 3840 584.4" viewBox="0 0 3840 584.4" xmlns="http://www.w3.org/2000/svg"><g fill="#fff"><path d="m3840 236.8v-236.8h-563.9v584.4h563.9v-64.4h-348.9v-131.1h122.5v-20.9h-122.5v-131.2zm-508.9-181.7v190.3c0 5.7-4.6 10.4-10.4 10.4s-10.4-4.6-10.4-10.4v-200.7c0-5.7 4.6-10.4 10.4-10.4h264.4c5.7 0 10.4 4.6 10.4 10.4 0 5.7-4.6 10.4-10.4 10.4z"/><path d="m1843.4 140.7c-23-37.8-54.3-70.1-91.8-94.2-47-30.4-101.7-46.5-158.1-46.5-161.1 0-292.2 131.1-292.2 292.2s131.1 292.2 292.2 292.2c56.3 0 111-16.1 158.1-46.4 37.5-24.2 68.8-56.4 91.8-94.2l-319.5-151.5zm-270 224.4c2.4-5.2 8.6-7.4 13.8-4.9l192 91.1c3 1.4 5.1 4.2 5.7 7.4s-.3 6.6-2.6 9c-14.7 15.8-31.3 29.7-49.3 41.4-1.7 1.1-3.7 1.7-5.6 1.7-3.4 0-6.7-1.7-8.7-4.7-3.1-4.8-1.7-11.2 3.1-14.3 12.6-8.1 24.5-17.5 35.4-27.9l-178.9-84.8c-5.2-2.6-7.4-8.8-4.9-14z"/><path d="m300.3 32.6-300.3 551.8h600.6zm0 376.5c-17.3 0-31.3-14-31.3-31.3s14-31.3 31.3-31.3 31.3 14 31.3 31.3-14 31.3-31.3 31.3zm225.1 140.9h-132.2c-5.7 0-10.4-4.6-10.4-10.4 0-5.7 4.6-10.4 10.4-10.4h114.8l-61.7-113.2c-2.7-5-.9-11.3 4.1-14s11.3-.9 14 4.1l70 128.6c1.7 3.2 1.7 7.1-.2 10.2-1.8 3.2-5.2 5.1-8.8 5.1z"/><path d="m2165.7 32.6-300.3 551.8h600.6zm0 376.5c-17.3 0-31.3-14-31.3-31.3s14-31.3 31.3-31.3 31.3 14 31.3 31.3-14 31.3-31.3 31.3zm225 140.9h-132.2c-5.7 0-10.4-4.6-10.4-10.4 0-5.7 4.6-10.4 10.4-10.4h114.8l-61.6-113.2c-2.7-5-.9-11.3 4.1-14s11.3-.9 14 4.1l70 128.6c1.7 3.2 1.7 7.1-.2 10.2-1.8 3.2-5.2 5.1-8.9 5.1z"/><path d="m2892.2 0h-330.4v584.4h330.4c161.1 0 292.2-131.1 292.2-292.2s-131.1-292.2-292.2-292.2zm-2.7 405.9c-17.3 0-31.3-14-31.3-31.3s14-31.3 31.3-31.3 31.3 14 31.3 31.3-14 31.3-31.3 31.3zm189.3 64c-43.5 45.7-101.9 73.8-164.4 79.2-.3 0-.6 0-.9 0-5.3 0-9.8-4.1-10.3-9.5-.5-5.7 3.7-10.7 9.4-11.2 119.4-10.2 212.5-108.3 216.5-228.1.2-5.7 4.9-10.2 10.7-10 5.7.2 10.2 5 10 10.7-2.1 63.1-27.3 123.1-71 168.9z"/><path d="m1022.7 367.6c4.8-10.8 15.5-17.7 27.3-17.7h7.7c96.5 0 174.9-78.5 174.9-174.9 0-96.5-78.5-174.9-174.9-174.9h-361.3v584.4h498.8l-167.3-184.7c-7.9-8.8-10-21.4-5.2-32.2zm35-72.8c59.4 0 110.5-44.3 118.7-103.1.8-5.7 6-9.6 11.7-8.8s9.6 6 8.8 11.7c-4.7 33.2-21.2 63.8-46.6 86.1-25.6 22.5-58.5 34.9-92.6 34.9-5.7 0-10.4-4.6-10.4-10.4s4.7-10.4 10.4-10.4zm-81.4-147.8c17.3 0 31.3 14 31.3 31.3s-14 31.3-31.3 31.3-31.3-14-31.3-31.3 14-31.3 31.3-31.3zm127.5 396.9c-1.7 3.7-5.4 6.2-9.5 6.2h-132c-5.7 0-10.4-4.6-10.4-10.4 0-5.7 4.6-10.4 10.4-10.4h108.7l-83.9-92.6c-5.8-6.3-10.5-13.5-14.1-21.3-2.4-5.2-.1-11.3 5-13.7 5.2-2.4 11.3-.1 13.7 5 2.7 5.9 6.3 11.3 10.7 16.1l99.6 109.9c2.7 3 3.4 7.4 1.8 11.2z"/></g></svg>