<svg enable-background="new 0 0 3839 924.2" viewBox="0 0 3839 924.2" xmlns="http://www.w3.org/2000/svg"><path d="m1350.76 853.11h71.09v71.09h426.56v-71.09h71.09v-71.09h71.09v-142.19-142.18h-71.09v-71.09h71.09v-142.19-142.18h-71.09v-71.1h-71.09v-71.09h-426.56v71.09h-71.09v71.09h-71.09v142.19 355.46 142.19h71.09zm355.46-355.46h-71.09v-71.09h71.09z" fill="#120f26"/><path d="m1919.5 426.56v-142.19h-71.09v-71.09h-426.56v71.09h-71.09v497.65h71.09v71.09h426.56v-71.09h71.09v-142.19h-213.28v71.1h-142.18v-355.47h142.18v71.1z" fill="#666"/><path d="m1919.5 284.37v-142.18h-71.09v-71.1h-426.56v71.1h-71.09v497.64h71.09v71.1h426.56v-71.1h71.09v-142.18h-213.28v71.09h-142.18v-355.46h142.18v71.09z" fill="#fff"/><path d="m3270.26 924.2h142.18 71.1 284.37v-71.09h71.09v-142.18-142.19h-71.09v-71.09-71.09-71.1h71.09v-142.18-142.19h-71.09v-71.09h-284.37-71.1-142.18v71.09h-71.09v142.19 497.65 142.18h71.09z" fill="#120f26"/><path d="m3767.91 355.46v-142.18h-284.37-71.1-142.18v639.83h142.18 71.1 284.37v-142.18h-284.37v-71.1h213.27v-142.18h-213.27v-142.19z" fill="#666"/><path d="m3767.91 213.28v-142.19h-284.37-71.1-142.18v639.84h142.18 71.1 284.37v-142.19h-284.37v-71.09h213.27v-142.19h-213.27v-142.18z" fill="#fff"/><path d="m2559.33 924.2v-71.09h71.1v-142.18-426.56-142.18h-71.1v-71.1h-71.09v-71.09h-426.55v71.09h-71.1v71.1h-71.09v142.18 426.56 142.18h71.09v71.09h213.28v-71.09h71.09 71.1v71.09z" fill="#120f26"/><path d="m2488.24 284.37v-71.09h-426.56v71.09h-71.09v568.74h213.28v-142.18h142.19v142.19h213.28v-568.75zm-284.37 284.37v-213.28h142.19v213.28z" fill="#666"/><path d="m2488.24 142.19v-71.1h-426.56v71.09h-71.09v568.74h213.28v-142.18h142.19v142.19h213.28v-568.74zm-284.37 284.37v-213.28h142.19v213.28z" fill="#fff"/><path d="m639.83 924.2v-71.09h71.1v-142.18-426.56-142.18h-71.1v-71.1h-71.09v-71.09h-426.55v71.09h-71.1v71.1h-71.09v142.18 426.56 142.18h71.09v71.09h213.28v-71.09h71.09 71.1v71.09z" fill="#120f26"/><path d="m568.74 284.37v-71.09h-426.55v71.09h-71.1v568.74h213.28v-142.18h142.19v142.19h213.28v-568.75zm-284.37 284.37v-213.28h142.19v213.28z" fill="#666"/><path d="m568.74 142.19v-71.1h-426.55v71.09h-71.1v568.74h213.28v-142.18h142.19v142.19h213.28v-568.74zm-284.37 284.37v-213.28h142.19v213.28z" fill="#fff"/><path d="m3199.17 853.11v-71.09h71.09v-142.19-355.46-142.18h-71.09v-71.1h-71.1v-71.09h-284.37-142.18-71.09v71.09h-71.1v142.19 497.65 142.18h71.1v71.09h71.09 142.18 213.28v-71.09h71.09z" fill="#120f26"/><path d="m3128.07 284.37v-71.09h-284.37-142.19-71.09v639.83h71.09 142.19 213.28v-71.09h142.19v-497.65zm-284.37 71.09h142.19v284.37h-71.09v71.09h-71.09v-355.46z" fill="#666"/><path d="m3128.07 142.19v-71.1h-284.37-142.19-71.09v639.83h71.09 142.19 213.28v-71.09h142.19v-497.64zm-284.37 71.09h142.19v284.37h-71.09v71.09h-71.09v-355.46z" fill="#fff"/><path d="m924.2 924.2v-71.09h71.1 71.09v71.09h213.28v-71.09h71.09v-142.18-71.1-142.18-142.19-71.09-142.18h-71.09v-71.1h-71.1v-71.09h-284.37-71.09-142.18v71.09h-71.1v142.19 497.65 142.18h71.1v71.09z" fill="#120f26"/><path d="m924.2 639.83h142.19v71.09 142.19h213.28v-213.28h-71.09v-71.09h-71.09v-71.09h142.19v-213.28h-71.09v-71.09h-284.39-71.09-142.18v639.83h213.27zm142.19-284.37v71.09h-71.09v71.09h-71.1v-142.18z" fill="#666"/><path d="m924.2 497.65h142.19v71.09 142.19h213.28v-213.28h-71.09v-71.09h-71.09v-71.09h142.19v-213.28h-71.09v-71.1h-284.39-71.09-142.18v639.83h213.27zm142.19-284.37v71.09h-71.09v71.09h-71.1v-142.18z" fill="#fff"/></svg>