<svg enable-background="new 0 0 3840 363.1" viewBox="0 0 3840 363.1" xmlns="http://www.w3.org/2000/svg"><g fill="#fff"><path d="m604 0h206.7v256h-206.7z"/><path d="m603.1 285.3h523.2v77.8h-523.2z"/><g clip-rule="evenodd" fill-rule="evenodd"><path d="m1067.2 0h290l185.1 139.5-142.2 91.4z"/><path d="m2080 0 565 363h117v-363h-103.4v253.3l-381.3-253.3z"/><path d="m2077.5 38.9 224 143.9v180.3h-225z"/><path d="m1822.6 0-400.1 257v106h208.6v-115.2l357.8-247.8z"/><path d="m2087 4.5 224 143.9"/><path d="m3496.1 363.1-436.7-190.8 97.2-35.6 160.8 70.2 74.9-27.4 420.1 183.6h-313.4z"/><path d="m3303.9 309-129.7-56.7-304.3 110.7h286.3z"/><path d="m3213.9 0 436.7 190.8-97.2 35.6-160.8-70.2-74.9 27.4-420.2-183.6h313.4z"/><path d="m3406.1 54 129.7 56.7 304.2-110.7h-286.3z"/></g><path d="m161.2.8h27.5v64.6c.1 18-.4 35.9-1.2 53.9-1.2 25.9-2.9 51.9-7.1 77.5-2.9 17.7-9.1 34.7-16.6 50.9-12.4 26.1-31.8 48.1-53.6 66.7-19.5 17.2-42.9 29.7-67.4 38.2-14 4.6-28.3 8.3-42.8 10.4 0-18 0-36.1 0-54.2 17.5-2.6 34.3-8.8 50-17 18.5-9.8 35.2-23 49.3-38.5 14.5-16.1 26.1-34.6 34.8-54.4 10.3-22.7 15.9-47.2 19.6-71.7 4.7-31.2 6.7-62.7 7.4-94.3.1-10.7 0-21.4.1-32.1z"/><path d="m199.7.9c16.9-.1 33.7 0 50.6-.1v362.1c-16.8 0-33.6-.1-50.4.1-.2-38.5 0-77-.1-115.5-.1-82.2-.1-164.4-.1-246.6z"/><path d="m261.5.8h27.3c-.3 36.8 1 73.7 5.4 110.2 3.6 28.4 8.6 57 20 83.5 10.7 25.6 26.2 49.4 46.3 68.6 19.2 18.3 42.5 32.5 67.9 40.6 7.1 2.3 14.3 4 21.6 5.1v54.1c-14.4-2-28.6-5.7-42.4-10.4-16.4-5.7-32.3-13.1-46.8-22.6-10.6-6.9-20.3-15-29.6-23.6-15.3-14.1-29-30.2-39.3-48.4-8.1-14.2-13.9-29.4-18.5-45.1-4.2-15.7-6-31.9-7.6-48-3.2-34.8-4.4-69.8-4.1-104.8-.2-19.6-.2-39.4-.2-59.2z"/></g></svg>