<svg enable-background="new 0 0 3840 818" viewBox="0 0 3840 818" xmlns="http://www.w3.org/2000/svg"><g fill="#fff"><path d="m1.1 387.3h245.2v303.7h-245.2z"/><path d="m0 725.7h620.7v92.2h-620.7z"/><g clip-rule="evenodd" fill-rule="evenodd"><path d="m550.6 387.3h344l219.6 165.5-168.7 108.4z"/><path d="m1752.1 387.3 670.3 430.7h138.7v-430.7h-122.6v300.5l-452.4-300.5z"/><path d="m1749.1 433.4 265.8 170.8v213.8h-266.9z"/><path d="m1446.8 387.3-474.7 304.9v125.8h247.4v-136.8l424.4-294h-197.1z"/><path d="m1760.4 392.6 265.8 170.8"/><path d="m3432 818-518-226.3 115.3-42.2 190.8 83.3 88.8-32.5 498.4 217.7h-371.7z"/><path d="m3204 753.8-153.8-67.2-361 131.4h339.6z"/><path d="m3097.2 387.2 518 226.3-115.3 42.2-190.8-83.3-88.8 32.5-498.4-217.8h371.7z"/><path d="m3325.2 451.4 153.8 67.2 361-131.4h-339.6z"/></g><path d="m1476.7.6h20.2v47.4c.1 13.2-.3 26.4-.8 39.6-.9 19-2.1 38.1-5.2 56.9-2.2 13-6.7 25.5-12.2 37.4-9.1 19.1-23.3 35.3-39.4 48.9-14.3 12.6-31.5 21.8-49.5 28-10.2 3.5-20.7 6.2-31.3 7.7 0-13.2 0-26.5 0-39.8 12.8-1.9 25.2-6.5 36.7-12.5 13.6-7.2 25.9-16.9 36.2-28.3 10.7-11.8 19.2-25.4 25.6-39.9 7.6-16.7 11.7-34.7 14.4-52.7 3.5-22.9 4.9-46.1 5.4-69.2-.1-7.8-.2-15.7-.1-23.5z"/><path d="m1504.9.6c12.4-.1 24.8 0 37.1 0v265.9c-12.3 0-24.7-.1-37 0-.2-28.3 0-56.5-.1-84.8 0-60.3.1-120.7 0-181.1z"/><path d="m1550.3.6h20.1c-.2 27 .7 54.1 3.9 80.9 2.6 20.9 6.3 41.9 14.7 61.3 7.9 18.8 19.2 36.3 34 50.4 14.1 13.5 31.2 23.8 49.8 29.8 5.2 1.7 10.5 3 15.9 3.8v39.7c-10.6-1.4-21-4.2-31.1-7.6-12.1-4.2-23.7-9.6-34.4-16.6-7.8-5-14.9-11-21.7-17.3-11.2-10.4-21.3-22.2-28.9-35.5-5.9-10.4-10.2-21.6-13.6-33.1-3.1-11.5-4.4-23.4-5.6-35.2-2.3-25.6-3.2-51.3-3-77-.1-14.6-.1-29.1-.1-43.6z"/><path d="m1810.7 11.6c10.3-13.2 31.8-15.5 44.4-4.4 5.2 4.4 8.8 10.4 10.7 16.9 23.5 80.8 47.1 161.6 70.6 242.5-13.9 0-27.7 0-41.6 0-6.5-22.3-12.9-44.6-19.4-66.9-26.8-.1-53.6 0-80.4 0-6.6 22.3-13.1 44.6-19.5 67-13.8 0-27.6 0-41.4 0 22.3-77.1 44.7-154.2 67.1-231.3 2.7-8.2 3.7-17.3 9.5-23.8m24.5 49.5c-9.8 33.5-19.5 67-29.2 100.6 19.5.1 39 0 58.4 0-9.8-33.6-19.5-67.1-29.2-100.6z"/><path d="m2102.8 13.3c7.2-10.5 21.2-15.6 33.5-12.3 11.3 2.6 19.9 12.3 22.9 23.2 23.5 80.8 47 161.5 70.5 242.3-13.9.1-27.8 0-41.6 0-6.5-22.3-12.8-44.6-19.4-66.9-26.8 0-53.5-.1-80.3 0-6.4 22.3-13 44.6-19.4 66.9-13.8 0-27.5 0-41.3 0 22.3-77.5 44.9-155 67.4-232.5 2.2-6.9 3.1-14.7 7.7-20.7m-3.4 148.4h58.2c-9.7-33.6-19.5-67.2-29.1-100.8-9.7 33.6-19.5 67.2-29.1 100.8z"/><path d="m1905.3.6h150.5v40.6c-18.5 0-36.9 0-55.4 0v225.4c-13.2 0-26.5 0-39.7 0 0-75.1 0-150.3 0-225.4-18.5 0-36.9 0-55.4 0 0-13.6 0-27.1 0-40.6z"/><path d="m2273.7 2.2c3.8-1.3 7.9-1.8 11.9-1.7 15.8.1 31.6 0 47.4 0 26.6.5 52.1 17 63.6 41 8 15.6 8.8 33.7 6.8 50.7-1.4 17.9-8.9 35.8-22.6 47.6-7.2 6.5-16.3 10.4-24.1 16.1-4.3 3.2-4.5 9.6-2.3 14.1 21 32.4 42.8 64.3 64.2 96.4-15.7 0-31.3 0-47 0-20.5-30.8-40.8-61.8-61.2-92.6-6-8.8-7.6-20.4-4.1-30.4 2.8-7.7 9.5-13.3 17-16.2 14.3-5.4 28.4-14 36.3-27.5 6-10.1 5.7-22.6 3-33.7-3.2-14.4-17.2-25.7-32-25.2-10.2.1-20.5 0-30.7 0-4.6-.1-9 3.9-8.9 8.6-.1 72.4 0 144.7 0 217.1-13.3 0-26.6 0-40 0 0-77.9 0-155.8 0-233.7 0-13.6 9.7-26.4 22.7-30.6z"/><path d="m2439.6.6h42.1v266c-14 0-28 0-42 0-.1-88.7-.1-177.4-.1-266z"/></g></svg>