<svg height="548.57141" viewBox="0 0 3840 548.57141" width="3840" xmlns="http://www.w3.org/2000/svg"><g transform="translate(0 .00006)"><g transform="matrix(4.2197802 0 0 4.2197802 -7447.9121 -3882.1978)"><path d="m1815 950v-20h-10v-10h-30v10h-10v20 70 20h10v10h20 10 40v-10h10v-20-20h-10v-10h-30z" fill="#fff"/><path d="m1775 1040h20 10 40v-20h-40v-70h-30z"/><path d="m1775 1020h20 10 40v-20h-40v-70h-30z" fill="#808080"/></g><path d="m285 1040h10v-20-60-20h-10v-10h-10v-10h-60v10h-10v10h-10v20 60 20h10v10h30v-10h10 10v10h30z" fill="#fff" transform="matrix(4.2197802 0 0 4.2197802 -485.27455 -3882.1978)"/><path d="m675.165 168.79119v-42.1978h-253.18681v42.1978h-42.1978v337.58242h126.59341v-84.39561h84.3956v84.39561h126.59341v-337.58242zm-168.7912 168.79121v-126.59341h84.3956v126.59341z" stroke-width="4.21978"/><path d="m675.165 84.395588v-42.197802h-253.18681v42.197802h-42.1978v337.582412h126.59341v-84.3956h84.3956v84.3956h126.59341v-337.582412zm-168.7912 168.791212v-126.59341h84.3956v126.59341z" fill="#808080" stroke-width="4.21978"/><path d="m875 1230h10v10h10v10h60v-10h10v-10h10v-20-10-20-20-20h-10v-10h-10v-10h-60v10h-10v10h-10v20 10 20 20z" fill="#fff" transform="matrix(4.2197802 0 0 4.2197802 -2974.9449 -4726.1539)"/><path d="m895 1160h-10v30h10v10h20v10h20v10h-20v-10h-30v20h10v10h60v-10h10v-30h-10v-10h-20v-10h-20v-10h20v10h30v-20h-10v-10h-60z" transform="matrix(4.2197802 0 0 4.2197802 -2974.9449 -4726.1539)"/><path d="m895 1140h-10v30h10v10h20v10h20v10h-20v-10h-30v20h10v10h60v-10h10v-30h-10v-10h-20v-10h-20v-10h20v10h30v-20h-10v-10h-60z" fill="#808080" transform="matrix(4.2197802 0 0 4.2197802 -2974.9449 -4726.1539)"/><path d="m1085 1240h10v-20-40h10v-10h10v-20-20h-10v-10h-70v10h-10v20 20h10v10h10v40 20h10v10h30z" fill="#fff" transform="matrix(4.2197802 0 0 4.2197802 -3228.1317 -4726.1539)"/><path d="m1055 1170v70h30v-70h20v-20h-70v20z" transform="matrix(4.2197802 0 0 4.2197802 -3228.1317 -4726.1539)"/><path d="m1055 1150v70h30v-70h20v-20h-70v20z" fill="#808080" transform="matrix(4.2197802 0 0 4.2197802 -3228.1317 -4726.1539)"/><path d="m505 1120h-40-10-20v10h-10v20 70 20h10v10h30v-10h10v-10h20v-10h10 10v-10h10v-20-30-20h-10v-10h-10z" fill="#fff" transform="matrix(4.2197802 0 0 4.2197802 -232.08791 -4726.1539)"/><path d="m1730.1099 421.97794h126.5934v-42.1978h84.3956v-210.98901h-42.1978v-42.1978h-168.7912-42.1978-84.3956v379.78022h126.5934zm84.3956-210.98901v84.39561h-42.1978v42.1978h-42.1978v-126.59341z" stroke-width="4.21978"/><path d="m1730.1099 337.58234h126.5934v-42.1978h84.3956v-210.989012h-42.1978v-42.197802h-168.7912-42.1978-84.3956v379.780214h126.5934zm84.3956-210.98901v84.3956h-42.1978v42.19781h-42.1978v-126.59341z" fill="#808080" stroke-width="4.21978"/><path d="m1805 1050h40v-10h10v-20-20h-10v-10h-30v-40-20h-10v-10h-30v10h-10v20 70 20h10v10h20z" fill="#fff" transform="matrix(4.2197802 0 0 4.2197802 -5506.8132 -3882.1978)"/><path d="m1795 1040h10 40v-20h-40v-70h-30v90z" transform="matrix(4.2197802 0 0 4.2197802 -5506.8132 -3882.1978)"/><path d="m1795 1020h10 40v-20h-40v-70h-30v90z" fill="#808080" transform="matrix(4.2197802 0 0 4.2197802 -5506.8132 -3882.1978)"/><path d="m215 930h-10v10h-10v20 60 20h10v10h30v-10h10 10v10h30v-10h10v-20-60-20h-10v-10h-10v-10h-60z" fill="#fff" transform="matrix(4.2197802 0 0 4.2197802 1455.8242 -3882.1978)"/><path d="m2616.2638 168.79119v-42.1978h-253.1869v42.1978h-42.1978v337.58242h126.5934v-84.39561h84.3957v84.39561h126.5934v-337.58242zm-168.7913 168.79121v-126.59341h84.3957v126.59341z" stroke-width="4.21978"/><path d="m2616.2638 84.395588v-42.197802h-253.1869v42.197802h-42.1978v337.582412h126.5934v-84.3956h84.3957v84.3956h126.5934v-337.582412zm-168.7913 168.791212v-126.59341h84.3957v126.59341z" fill="#808080" stroke-width="4.21978"/><path d="m1865 1210v10 20h10v10h30v-10h10v-20-10-10h10v-10h10v-10h10v-20-10-20h-10v-10h-30v10h-10v20h-10v-20h-10v-10h-30v10h-10v20 10 20h10v10h10v10h10z" fill="#fff" transform="matrix(4.2197802 0 0 4.2197802 -5084.8351 -4726.1539)"/><path d="m1935 1180v-30h-30v30h-20-10v-30h-30v30h10v10h10v10h10v40h30v-40h10v-10h10v-10z" transform="matrix(4.2197802 0 0 4.2197802 -5084.8351 -4726.1539)"/><path d="m1935 1160v-30h-30v30h-20-10v-30h-30v30h10v10h10v10h10v40h30v-40h10v-10h10v-10z" fill="#808080" transform="matrix(4.2197802 0 0 4.2197802 -5084.8351 -4726.1539)"/><path d="m835 920h-10-20v10h-10v20 70 20h10v10h20 10 40v-10h10v-20-20h-10v-10-10-10h10v-20-20h-10v-10z" fill="#fff" transform="matrix(4.2197802 0 0 4.2197802 -274.28571 -3882.1978)"/><path d="m835 1010h30v-20h-30v-20h40v-20h-40-10-20v90h20 10 40v-20h-40z" transform="matrix(4.2197802 0 0 4.2197802 -274.28571 -3882.1978)"/><path d="m835 990h30v-20h-30v-20h40v-20h-40-10-20v90h20 10 40v-20h-40z" fill="#808080" transform="matrix(4.2197802 0 0 4.2197802 -274.28571 -3882.1978)"/><path d="m745 960v-20h-10v-10h-10v-10h-40-20-10v10h-10v20 70 20h10v10h10 20 30v-10h10 10v-10h10v-20z" fill="#fff" transform="matrix(4.2197802 0 0 4.2197802 696.26373 -3882.1978)"/><path d="m3755.6044 168.79119v-42.1978h-168.7912-84.3956-42.1978v379.78022h42.1978 84.3956 126.5934v-42.1978h84.3956v-295.38462zm-168.7912 42.1978h84.3956v168.79121h-42.1978v42.1978h-42.1978z" stroke-width="4.21978"/><path d="m3755.6044 84.395588v-42.197802h-168.7912-84.3956-42.1978v379.780214h42.1978 84.3956 126.5934v-42.1978h84.3956v-295.384612zm-168.7912 42.197802h84.3956v168.79121h-42.1978v42.1978h-42.1978z" fill="#808080" stroke-width="4.21978"/></g></svg>