<?xml version="1.0" encoding="UTF-8" standalone="no"?>
<svg
   height="696"
   viewBox="0 0 3840 696.00001"
   width="3840"
   version="1.1"
   id="svg137"
   sodipodi:docname="bbcmicro.svg"
   inkscape:version="1.3.2 (091e20e, 2023-11-25)"
   xmlns:inkscape="http://www.inkscape.org/namespaces/inkscape"
   xmlns:sodipodi="http://sodipodi.sourceforge.net/DTD/sodipodi-0.dtd"
   xmlns="http://www.w3.org/2000/svg"
   xmlns:svg="http://www.w3.org/2000/svg">
  <defs
     id="defs137" />
  <sodipodi:namedview
     id="namedview137"
     pagecolor="#ffffff"
     bordercolor="#000000"
     borderopacity="0.25"
     inkscape:showpageshadow="2"
     inkscape:pageopacity="0.0"
     inkscape:pagecheckerboard="true"
     inkscape:deskcolor="#d1d1d1"
     inkscape:zoom="0.21510417"
     inkscape:cx="1917.6755"
     inkscape:cy="348.66828"
     inkscape:window-width="1312"
     inkscape:window-height="449"
     inkscape:window-x="0"
     inkscape:window-y="39"
     inkscape:window-maximized="0"
     inkscape:current-layer="svg137" />
  <g
     id="g138">
    <g
       fill="#ffffff"
       transform="scale(1.0002864,1.0004312)"
       id="g137">
      <circle
         cx="23"
         cy="30.299999"
         r="23"
         id="circle1" />
      <circle
         cx="23"
         cy="98.599998"
         r="23"
         id="circle2" />
      <circle
         cx="23"
         cy="166.8"
         r="23"
         id="circle3" />
      <circle
         cx="23"
         cy="235"
         r="23"
         id="circle4" />
      <circle
         cx="23"
         cy="303.20001"
         r="23"
         id="circle5" />
      <circle
         cx="53.799999"
         cy="64.5"
         r="23"
         id="circle6" />
      <circle
         cx="53.799999"
         cy="200.89999"
         r="23"
         id="circle7" />
      <circle
         cx="53.799999"
         cy="269.10001"
         r="23"
         id="circle8" />
      <circle
         cx="53.799999"
         cy="337.29999"
         r="23"
         id="circle9" />
      <circle
         cx="53.799999"
         cy="610.20001"
         r="23"
         id="circle10" />
      <circle
         cx="84.699997"
         cy="30.299999"
         r="23"
         id="circle11" />
      <circle
         cx="84.699997"
         cy="235"
         r="23"
         id="circle12" />
      <circle
         cx="84.699997"
         cy="303.20001"
         r="23"
         id="circle13" />
      <circle
         cx="84.699997"
         cy="371.39999"
         r="23"
         id="circle14" />
      <circle
         cx="115.5"
         cy="132.7"
         r="23"
         id="circle15" />
      <circle
         cx="115.5"
         cy="269.10001"
         r="23"
         id="circle16" />
      <circle
         cx="115.5"
         cy="337.29999"
         r="23"
         id="circle17" />
      <circle
         cx="115.5"
         cy="405.5"
         r="23"
         id="circle18" />
      <circle
         cx="115.5"
         cy="610.20001"
         r="23"
         id="circle19" />
      <circle
         cx="146.3"
         cy="30.299999"
         r="23"
         id="circle20" />
      <circle
         cx="146.3"
         cy="98.599998"
         r="23"
         id="circle21" />
      <circle
         cx="146.3"
         cy="166.8"
         r="23"
         id="circle22" />
      <circle
         cx="146.3"
         cy="303.20001"
         r="23"
         id="circle23" />
      <circle
         cx="146.3"
         cy="371.39999"
         r="23"
         id="circle24" />
      <circle
         cx="146.3"
         cy="439.70001"
         r="23"
         id="circle25" />
      <circle
         cx="177.2"
         cy="132.7"
         r="23"
         id="circle26" />
      <circle
         cx="177.2"
         cy="269.10001"
         r="23"
         id="circle27" />
      <circle
         cx="177.2"
         cy="337.29999"
         r="23"
         id="circle28" />
      <circle
         cx="177.2"
         cy="405.5"
         r="23"
         id="circle29" />
      <circle
         cx="177.2"
         cy="473.79999"
         r="23"
         id="circle30" />
      <circle
         cx="177.2"
         cy="610.20001"
         r="23"
         id="circle31" />
      <circle
         cx="208"
         cy="30.299999"
         r="23"
         id="circle32" />
      <circle
         cx="208"
         cy="303.20001"
         r="23"
         id="circle33" />
      <circle
         cx="208"
         cy="371.39999"
         r="23"
         id="circle34" />
      <circle
         cx="208"
         cy="439.70001"
         r="23"
         id="circle35" />
      <circle
         cx="208"
         cy="507.89999"
         r="23"
         id="circle36" />
      <circle
         cx="208"
         cy="576.09998"
         r="23"
         id="circle37" />
      <circle
         cx="238.89999"
         cy="64.5"
         r="23"
         id="circle38" />
      <circle
         cx="238.89999"
         cy="200.89999"
         r="23"
         id="circle39" />
      <circle
         cx="238.89999"
         cy="269.10001"
         r="23"
         id="circle40" />
      <circle
         cx="238.89999"
         cy="337.29999"
         r="23"
         id="circle41" />
      <circle
         cx="238.89999"
         cy="405.5"
         r="23"
         id="circle42" />
      <circle
         cx="238.89999"
         cy="473.79999"
         r="23"
         id="circle43" />
      <circle
         cx="238.89999"
         cy="542"
         r="23"
         id="circle44" />
      <circle
         cx="238.89999"
         cy="610.20001"
         r="23"
         id="circle45" />
      <circle
         cx="269.70001"
         cy="30.299999"
         r="23"
         id="circle46" />
      <circle
         cx="269.70001"
         cy="98.599998"
         r="23"
         id="circle47" />
      <circle
         cx="269.70001"
         cy="235"
         r="23"
         id="circle48" />
      <circle
         cx="269.70001"
         cy="303.20001"
         r="23"
         id="circle49" />
      <circle
         cx="269.70001"
         cy="371.39999"
         r="23"
         id="circle50" />
      <circle
         cx="269.70001"
         cy="439.70001"
         r="23"
         id="circle51" />
      <circle
         cx="269.70001"
         cy="507.89999"
         r="23"
         id="circle52" />
      <circle
         cx="300.5"
         cy="64.5"
         r="23"
         id="circle53" />
      <circle
         cx="300.5"
         cy="200.89999"
         r="23"
         id="circle54" />
      <circle
         cx="300.5"
         cy="269.10001"
         r="23"
         id="circle55" />
      <circle
         cx="300.5"
         cy="337.29999"
         r="23"
         id="circle56" />
      <circle
         cx="300.5"
         cy="405.5"
         r="23"
         id="circle57" />
      <circle
         cx="300.5"
         cy="473.79999"
         r="23"
         id="circle58" />
      <circle
         cx="300.5"
         cy="610.20001"
         r="23"
         id="circle59" />
      <circle
         cx="331.39999"
         cy="30.299999"
         r="23"
         id="circle60" />
      <circle
         cx="331.39999"
         cy="439.70001"
         r="23"
         id="circle61" />
      <circle
         cx="331.39999"
         cy="507.89999"
         r="23"
         id="circle62" />
      <circle
         cx="331.39999"
         cy="576.09998"
         r="23"
         id="circle63" />
      <circle
         cx="362.20001"
         cy="132.7"
         r="23"
         id="circle64" />
      <circle
         cx="362.20001"
         cy="269.10001"
         r="23"
         id="circle65" />
      <circle
         cx="362.20001"
         cy="473.79999"
         r="23"
         id="circle66" />
      <circle
         cx="362.20001"
         cy="542"
         r="23"
         id="circle67" />
      <circle
         cx="362.20001"
         cy="610.20001"
         r="23"
         id="circle68" />
      <circle
         cx="393.10001"
         cy="30.299999"
         r="23"
         id="circle69" />
      <circle
         cx="393.10001"
         cy="98.599998"
         r="23"
         id="circle70" />
      <circle
         cx="393.10001"
         cy="166.8"
         r="23"
         id="circle71" />
      <circle
         cx="393.10001"
         cy="507.89999"
         r="23"
         id="circle72" />
      <circle
         cx="423.89999"
         cy="132.7"
         r="23"
         id="circle73" />
      <circle
         cx="423.89999"
         cy="269.10001"
         r="23"
         id="circle74" />
      <circle
         cx="423.89999"
         cy="542"
         r="23"
         id="circle75" />
      <circle
         cx="454.70001"
         cy="30.299999"
         r="23"
         id="circle76" />
      <circle
         cx="454.70001"
         cy="235"
         r="23"
         id="circle77" />
      <circle
         cx="454.70001"
         cy="576.09998"
         r="23"
         id="circle78" />
      <circle
         cx="485.60001"
         cy="64.5"
         r="23"
         id="circle79" />
      <circle
         cx="485.60001"
         cy="200.89999"
         r="23"
         id="circle80" />
      <circle
         cx="485.60001"
         cy="610.20001"
         r="23"
         id="circle81" />
      <circle
         cx="516.40002"
         cy="30.299999"
         r="23"
         id="circle82" />
      <circle
         cx="516.40002"
         cy="98.599998"
         r="23"
         id="circle83" />
      <circle
         cx="516.40002"
         cy="166.8"
         r="23"
         id="circle84" />
      <circle
         cx="516.40002"
         cy="235"
         r="23"
         id="circle85" />
      <circle
         cx="516.40002"
         cy="303.20001"
         r="23"
         id="circle86" />
      <circle
         cx="516.40002"
         cy="371.39999"
         r="23"
         id="circle87" />
      <circle
         cx="516.40002"
         cy="439.70001"
         r="23"
         id="circle88" />
      <circle
         cx="516.40002"
         cy="507.89999"
         r="23"
         id="circle89" />
      <circle
         cx="516.40002"
         cy="576.09998"
         r="23"
         id="circle90" />
      <circle
         cx="516.40002"
         cy="644.29999"
         r="23"
         id="circle91" />
      <path
         d="m 913.9,19.7 c 16.7,8.2 29.6,18.6 38.8,31.1 9.2,12.5 15.2,25.7 18,39.8 2.9,14 4.3,26.8 4.3,38.4 0,14.3 -2.1,27.4 -6.3,39.4 -4.2,12 -10.4,22.7 -18.4,32.1 -8,9.4 -17.6,17 -28.7,23.1 -11.1,6 -23.4,9.9 -36.8,11.7 32.5,2.2 57.7,14 75.5,35.4 17.8,21.4 26.7,49.5 26.7,84.2 0,14.7 -2.6,29.9 -7.7,45.5 -5.1,15.6 -13.5,29.7 -25.1,42.4 -11.6,12.7 -26.5,23.1 -44.8,31.1 -18.3,8 -40.8,12 -67.5,12 H 606.7 v -44.1 h 67.5 V 51.5 H 607.4 V 7.4 H 848 c 27.2,0 49.1,4.1 65.9,12.3 z m -48.5,191.2 c 12.9,-5.6 23.2,-12.7 30.7,-21.4 7.6,-8.7 12.8,-18.4 15.7,-29.1 2.9,-10.7 4.3,-21.2 4.3,-31.4 0,-9.8 -1.1,-19.4 -3.3,-28.7 C 910.6,91 906.2,82.7 899.8,75.6 893.3,68.5 884.5,62.7 873.4,58.2 862.3,53.7 847.8,51.5 830,51.5 h -97.6 v 167.8 h 84.2 c 19.6,-0.1 35.9,-2.9 48.8,-8.4 z m 9.4,220.5 c 13.8,-6.9 24.6,-15.1 32.4,-24.7 7.8,-9.6 13,-19.3 15.7,-29.1 2.7,-9.8 4,-17.8 4,-24.1 0,-12.9 -1.4,-25 -4.3,-36.1 -2.9,-11.1 -7.7,-20.7 -14.4,-28.7 -6.7,-8 -15.5,-14.4 -26.4,-19 -10.9,-4.7 -24.4,-7 -40.4,-7 h -109 v 179.1 h 88.2 c 22.3,0 40.3,-3.4 54.2,-10.4 z"
         id="path91" />
      <path
         d="m 1359.7,19.7 c 16.7,8.2 29.6,18.6 38.8,31.1 9.1,12.5 15.2,25.7 18,39.8 2.9,14 4.3,26.8 4.3,38.4 0,14.3 -2.1,27.4 -6.3,39.4 -4.2,12 -10.4,22.7 -18.4,32.1 -8,9.4 -17.6,17 -28.7,23.1 -11.1,6 -23.4,9.9 -36.8,11.7 32.5,2.2 57.7,14 75.5,35.4 17.8,21.4 26.7,49.5 26.7,84.2 0,14.7 -2.6,29.9 -7.7,45.5 -5.1,15.6 -13.5,29.7 -25.1,42.4 -11.6,12.7 -26.5,23.1 -44.8,31.1 -18.3,8 -40.8,12 -67.5,12 h -235.3 v -44.1 h 67.5 V 51.5 h -66.8 V 7.4 h 240.6 c 27.3,0 49.3,4.1 66,12.3 z m -48.5,191.2 c 12.9,-5.6 23.2,-12.7 30.7,-21.4 7.6,-8.7 12.8,-18.4 15.7,-29.1 2.9,-10.7 4.3,-21.2 4.3,-31.4 0,-9.8 -1.1,-19.4 -3.3,-28.7 -2.2,-9.3 -6.6,-17.6 -13,-24.7 -6.5,-7.1 -15.3,-12.9 -26.4,-17.4 -11.1,-4.5 -25.6,-6.7 -43.4,-6.7 h -97.6 v 167.8 h 84.2 c 19.6,-0.1 35.9,-2.9 48.8,-8.4 z m 9.4,220.5 c 13.8,-6.9 24.6,-15.1 32.4,-24.7 7.8,-9.6 13,-19.3 15.7,-29.1 2.7,-9.8 4,-17.8 4,-24.1 0,-12.9 -1.4,-25 -4.3,-36.1 -2.9,-11.1 -7.7,-20.7 -14.4,-28.7 -6.7,-8 -15.5,-14.4 -26.4,-19 -10.9,-4.7 -24.4,-7 -40.4,-7 h -108.9 v 179.1 h 88.2 c 22.2,0 40.2,-3.4 54.1,-10.4 z"
         id="path92" />
      <path
         d="M 1920.1,7.4 V 177.2 H 1868 c -2.2,-38.8 -14,-70.2 -35.4,-94.2 -21.4,-24.1 -52.4,-36.1 -92.9,-36.1 -51.2,0 -90.1,16.9 -116.6,50.8 -26.5,33.9 -39.8,81.8 -39.8,143.7 0,65.9 12.9,116.5 38.8,151.7 25.8,35.2 63.7,52.8 113.6,52.8 37.9,0 67.6,-11 89.2,-33.1 21.6,-22.1 33.5,-51.4 35.8,-87.9 h 61.5 c -1.3,27.2 -6.7,51.2 -16,72.2 -9.4,20.9 -22.2,38.7 -38.4,53.1 -16.3,14.5 -35.6,25.4 -58.1,32.8 -22.5,7.4 -47.3,11 -74.5,11 -40.5,0 -74.6,-7.1 -102.3,-21.4 -27.6,-14.3 -49.9,-33.1 -66.8,-56.5 -16.9,-23.4 -29.1,-49.8 -36.4,-79.2 -7.4,-29.4 -11,-59.5 -11,-90.2 0,-32.5 4.2,-63.7 12.7,-93.6 8.5,-29.9 21.4,-56.1 38.8,-78.9 17.4,-22.7 39.5,-40.8 66.5,-54.1 27,-13.4 59.2,-20.1 96.6,-20.1 34.8,0 63.9,6.7 87.6,20.1 23.7,13.4 40.8,32.3 51.5,56.8 V 7.4 Z"
         id="path93" />
      <path
         d="m 2381.3,416.4 127.6,-409 h 168.4 v 44.1 h -68.2 v 390.3 h 68.2 v 44.1 H 2491.5 V 441.8 H 2553 V 51.5 h -4.7 L 2406,485.9 h -52.1 L 2211.5,51.5 h -4.7 v 390.3 h 62.2 v 44.1 H 2087.2 V 441.8 H 2156 V 51.5 h -68.8 V 7.4 h 170.4 z"
         id="path94" />
      <path
         d="m 2831.1,443.8 h 54.1 v 42.1 h -164.4 v -42.1 h 56.1 V 176.5 h -55.5 V 137 H 2831 v 306.8 z m 4,-380.3 h -62.2 V 7.4 h 62.2 z"
         id="path95" />
      <path
         d="m 3211.4,137 v 128.3 h -42.1 v -6 c -0.4,-11.1 -2.8,-21.9 -7,-32.4 -4.2,-10.5 -10.1,-19.9 -17.7,-28.4 -7.6,-8.5 -16.5,-15.3 -26.7,-20.4 -10.2,-5.1 -21.6,-7.7 -34.1,-7.7 -18.7,0 -34.6,4.1 -47.8,12.4 -13.1,8.2 -23.8,18.8 -32.1,31.7 -8.2,12.9 -14.3,27.6 -18,44.1 -3.8,16.5 -5.7,33 -5.7,49.5 0,16.9 2.1,33.6 6.4,50.1 4.2,16.5 10.6,31.3 19,44.4 8.5,13.1 19.2,23.8 32.1,32.1 12.9,8.2 28.1,12.4 45.5,12.4 19.6,0 36.7,-6.2 51.1,-18.7 14.5,-12.5 24.2,-30.1 29.1,-52.8 l 1.3,-8 h 50.8 l -0.7,12 c -2.2,17.4 -7.2,33 -15,46.8 -7.8,13.8 -17.8,25.4 -30.1,34.8 -12.3,9.4 -26.3,16.6 -42.1,21.7 -15.8,5.1 -32.4,7.7 -49.8,7.7 -25,0 -47.1,-4.6 -66.5,-13.7 -19.4,-9.1 -35.8,-21.7 -49.1,-37.8 -13.4,-16 -23.6,-34.8 -30.7,-56.1 -7.1,-21.4 -10.7,-44.1 -10.7,-68.2 0,-31.2 4.1,-58.6 12.4,-82.2 8.2,-23.6 19.2,-43.2 32.8,-58.8 13.6,-15.6 29.4,-27.4 47.5,-35.4 18,-8 36.9,-12 56.5,-12 22.7,0 42.1,4.2 58.1,12.7 16,8.5 29.9,22.3 41.4,41.4 V 137 Z"
         id="path96" />
      <path
         d="m 3468.4,179.1 c -3.8,-0.4 -7.5,-0.7 -11,-0.7 -64.6,0 -96.9,43 -96.9,129 v 136.4 h 66.2 v 42.1 h -175.8 v -42.1 h 55.5 V 176.5 h -55.5 V 137 h 109.6 v 69.5 c 5.3,-15.1 10.9,-27.5 16.7,-37.1 5.8,-9.6 12.5,-17.2 20.1,-22.7 7.6,-5.6 16.2,-9.5 25.7,-11.7 9.6,-2.2 21.1,-3.6 34.4,-4 h 22.7 v 50.1 c -4,-0.9 -7.9,-1.5 -11.7,-2 z"
         id="path97" />
      <path
         d="m 3794.9,441.1 c -29.4,33 -68.4,49.5 -117,49.5 -54.4,0 -95.4,-18.5 -123,-55.5 -26.7,-36.5 -40.1,-79.3 -40.1,-128.3 0,-28.1 4,-53.2 12,-75.5 8,-22.3 19.3,-41.2 33.8,-56.8 14.5,-15.6 31.9,-27.5 52.1,-35.8 20.3,-8.2 42.9,-12.4 67.8,-12.4 25.8,0 48.7,4.6 68.5,13.7 19.8,9.1 36.4,21.9 49.8,38.4 13.4,16.5 23.4,35.9 30.1,58.1 6.7,22.3 10,46.6 10,72.9 0.1,54.4 -14.6,98.3 -44,131.7 z m -80.6,0 c 12.3,-5.8 23.5,-14.5 33.8,-26.1 10.7,-11.6 18.7,-26.7 24.1,-45.5 5.3,-18.7 8,-40.1 8,-64.2 0,-44.1 -8.9,-78.1 -26.7,-101.9 -17.8,-23.8 -43.4,-35.8 -76.9,-35.8 -16,0 -30.5,3.2 -43.4,9.7 -12.9,6.5 -23.8,15.6 -32.8,27.4 -8.9,11.8 -15.8,26.1 -20.7,42.8 -4.9,16.7 -7.4,35.1 -7.4,55.1 0,30.3 3,54 9,71.2 6,17.2 14.1,31.3 24.4,42.4 20.5,22.3 44.3,33.4 71.5,33.4 12.5,0.2 24.9,-2.7 37.1,-8.5 z"
         id="path98" />
      <path
         d="m 674.8,563.9 c 3.7,1.8 6.6,4.1 8.6,6.9 2,2.8 3.4,5.7 4,8.8 0.6,3.1 1,6 1,8.5 0,3.2 -0.5,6.1 -1.4,8.7 -0.9,2.7 -2.3,5 -4.1,7.1 -1.8,2.1 -3.9,3.8 -6.4,5.1 -2.5,1.3 -5.2,2.2 -8.2,2.6 7.2,0.5 12.8,3.1 16.7,7.9 4,4.7 5.9,11 5.9,18.7 0,3.3 -0.6,6.6 -1.7,10.1 -1.1,3.5 -3,6.6 -5.6,9.4 -2.6,2.8 -5.9,5.1 -9.9,6.9 -4.1,1.8 -9,2.7 -15,2.7 h -52.2 v -9.8 h 15 V 571 h -14.8 v -9.8 h 53.4 c 6.1,0 11,0.9 14.7,2.7 z m -10.7,42.4 c 2.9,-1.2 5.1,-2.8 6.8,-4.7 1.7,-1.9 2.8,-4.1 3.5,-6.4 0.6,-2.4 1,-4.7 1,-7 0,-2.2 -0.2,-4.3 -0.7,-6.4 -0.5,-2.1 -1.5,-3.9 -2.9,-5.5 -1.4,-1.6 -3.4,-2.9 -5.9,-3.9 -2.5,-1 -5.7,-1.5 -9.6,-1.5 h -21.6 v 37.2 h 18.7 c 4.2,0.1 7.8,-0.5 10.7,-1.8 z m 2,48.9 c 3.1,-1.5 5.5,-3.4 7.2,-5.5 1.7,-2.1 2.9,-4.3 3.5,-6.4 0.6,-2.2 0.9,-4 0.9,-5.3 0,-2.9 -0.3,-5.5 -1,-8 -0.6,-2.5 -1.7,-4.6 -3.2,-6.4 -1.5,-1.8 -3.4,-3.2 -5.9,-4.2 -2.4,-1 -5.4,-1.6 -9,-1.6 h -24.2 v 39.7 H 654 c 5.1,0 9.1,-0.7 12.1,-2.3 z"
         id="path99" />
      <path
         d="m 754.1,599.3 c -0.8,-0.1 -1.7,-0.1 -2.4,-0.1 -14.3,0 -21.5,9.5 -21.5,28.6 V 658 h 14.7 v 9.3 h -39 V 658 h 12.3 V 598.7 H 705.9 V 590 h 24.3 v 15.4 c 1.2,-3.4 2.4,-6.1 3.7,-8.2 1.3,-2.1 2.8,-3.8 4.4,-5 1.7,-1.2 3.6,-2.1 5.7,-2.6 2.1,-0.5 4.7,-0.8 7.6,-0.9 h 5 v 11.1 c -0.8,-0.3 -1.7,-0.4 -2.5,-0.5 z"
         id="path100" />
      <path
         d="m 788.4,658 h 12 v 9.3 H 764 V 658 h 12.4 V 598.7 H 764.1 V 590 h 24.3 z m 0.9,-84.4 h -13.8 v -12.4 h 13.8 z"
         id="path101" />
      <path
         d="m 851.4,589.9 v 8.7 h -22.2 v 50.5 c 0,3.2 0.6,5.7 1.9,7.5 1.3,1.8 3.2,2.7 5.6,2.7 2.6,0 4.5,-1.1 5.9,-3.3 1.3,-2.2 2,-6.1 2,-11.6 v -0.9 h 9.6 v 1.8 c 0,3.2 -0.3,6.2 -0.8,9 -0.5,2.8 -1.5,5.3 -3,7.3 -1.4,2.1 -3.3,3.7 -5.7,4.9 -2.4,1.2 -5.3,1.8 -8.9,1.8 -6.7,0 -11.5,-1.8 -14.4,-5.3 -2.9,-3.5 -4.3,-8.8 -4.3,-15.8 v -48.6 h -13.3 v -8.7 h 13.3 v -15.1 l 12,-4.4 V 590 h 22.3 z"
         id="path102" />
      <path
         d="m 887.1,658 h 12 v 9.3 H 862.6 V 658 H 875 V 598.7 H 862.7 V 590 H 887 v 68 z M 888,573.6 H 874.2 V 561.2 H 888 Z"
         id="path103" />
      <path
         d="m 966.4,589.9 v 24.9 h -9.3 c 0,-0.3 0,-0.6 -0.1,-1 0,-0.4 -0.1,-0.7 -0.1,-1 -0.2,-2.9 -0.8,-5.4 -1.9,-7.6 -1,-2.2 -2.3,-3.8 -3.9,-4.9 -2.4,-1.7 -4.8,-2.7 -7.3,-3.1 -2.5,-0.4 -4.4,-0.6 -5.7,-0.6 -4.4,0 -8.2,1.2 -11.3,3.5 -3.1,2.3 -4.6,5.7 -4.6,10.2 0,1.8 0.3,3.3 1,4.4 0.7,1.2 1.6,2.2 2.8,3 1.2,0.8 2.5,1.4 4.1,1.9 1.5,0.5 3.1,0.9 4.7,1.2 1.6,0.3 3.5,0.6 5.6,1 2.2,0.3 4.4,0.8 6.6,1.3 2.2,0.5 4.3,1.1 6.3,1.8 2,0.6 3.7,1.4 5,2.3 1.2,0.8 2.3,1.6 3.3,2.5 1,0.9 2,2 2.8,3.3 0.8,1.3 1.5,3 2,4.9 0.5,1.9 0.7,4.2 0.7,6.9 0,3.4 -0.7,6.5 -2,9.3 -1.3,2.8 -3.1,5.4 -5.4,7.5 -2.3,2.1 -4.9,3.8 -8,5 -3.1,1.2 -6.4,1.8 -9.9,1.8 -3.1,0 -5.8,-0.2 -8.1,-0.7 -2.3,-0.5 -4.4,-1.2 -6.2,-2.2 -1.8,-1 -3.5,-2.4 -4.9,-4.1 -1.4,-1.7 -2.8,-3.8 -4.2,-6.3 v 12.3 h -9.3 v -26.7 h 9.3 c 0.4,3.5 1.2,6.4 2.4,8.7 1.2,2.4 2.8,4.3 4.7,5.8 1.9,1.5 4,2.5 6.3,3.2 2.3,0.6 4.8,1 7.3,1 4.4,0 8.2,-1.2 11.1,-3.7 3,-2.5 4.4,-5.9 4.4,-10.4 0,-2.9 -0.7,-5.1 -2,-6.7 -1.3,-1.6 -3.1,-2.8 -5.4,-3.6 -1.5,-0.6 -3.3,-1 -5.4,-1.3 -2.1,-0.3 -4.3,-0.6 -6.6,-1 -2.3,-0.3 -4.6,-0.8 -7,-1.3 -2.4,-0.5 -4.6,-1.3 -6.7,-2.1 -3.4,-1.5 -6.1,-3.6 -8.3,-6.3 -2.2,-2.7 -3.3,-6.7 -3.3,-11.9 0,-3.9 0.7,-7.2 2.1,-10.1 1.4,-2.9 3.4,-5.3 5.8,-7.3 2.4,-2 5.3,-3.5 8.5,-4.4 3.3,-1 6.8,-1.5 10.5,-1.5 4,0 7.7,0.8 11.3,2.4 3.6,1.6 6.4,4.1 8.5,7.7 v -7.7 h 9.8 z"
         id="path104" />
      <path
         d="m 1004.3,600.2 c 6,-8.4 14,-12.6 24,-12.6 3.6,0 6.8,0.5 9.7,1.6 2.9,1 5.5,2.5 7.6,4.5 2.2,2 3.9,4.5 5,7.5 1.2,3 1.8,6.5 1.8,10.4 V 658 h 12.7 v 9.3 h -37.5 V 658 h 12.7 v -44 c 0,-5.3 -1.2,-9.6 -3.6,-12.7 -2.4,-3.2 -6.1,-4.7 -11.2,-4.7 -2.4,0 -4.8,0.4 -7.3,1.1 -2.5,0.7 -4.8,2.1 -6.9,4 -2.1,1.9 -3.8,4.5 -5.1,7.9 -1.3,3.3 -2,7.5 -2,12.5 v 36 h 12.7 v 9.3 H 979.7 V 658 h 12.4 v -88 h -12.4 v -8.7 h 24.5 v 38.9 z"
         id="path105" />
      <path
         d="m 1179.7,563.9 c 3.7,1.8 6.6,4.1 8.6,6.9 2,2.8 3.4,5.7 4,8.8 0.6,3.1 1,6 1,8.5 0,3.2 -0.5,6.1 -1.4,8.7 -0.9,2.7 -2.3,5 -4.1,7.1 -1.8,2.1 -3.9,3.8 -6.4,5.1 -2.5,1.3 -5.2,2.2 -8.2,2.6 7.2,0.5 12.8,3.1 16.7,7.9 4,4.7 5.9,11 5.9,18.7 0,3.3 -0.6,6.6 -1.7,10.1 -1.1,3.5 -3,6.6 -5.6,9.4 -2.6,2.8 -5.9,5.1 -9.9,6.9 -4.1,1.8 -9,2.7 -15,2.7 h -52.2 v -9.8 h 15 V 571 h -14.8 v -9.8 h 53.4 c 6.2,0 11,0.9 14.7,2.7 z m -10.7,42.4 c 2.9,-1.2 5.1,-2.8 6.8,-4.7 1.7,-1.9 2.8,-4.1 3.5,-6.4 0.6,-2.4 1,-4.7 1,-7 0,-2.2 -0.2,-4.3 -0.7,-6.4 -0.5,-2.1 -1.5,-3.9 -2.9,-5.5 -1.4,-1.6 -3.4,-2.9 -5.9,-3.9 -2.5,-1 -5.7,-1.5 -9.6,-1.5 h -21.6 v 37.2 h 18.7 c 4.2,0.1 7.8,-0.5 10.7,-1.8 z m 2.1,48.9 c 3.1,-1.5 5.5,-3.4 7.2,-5.5 1.7,-2.1 2.9,-4.3 3.5,-6.4 0.6,-2.2 0.9,-4 0.9,-5.3 0,-2.9 -0.3,-5.5 -1,-8 -0.6,-2.5 -1.7,-4.6 -3.2,-6.4 -1.5,-1.8 -3.4,-3.2 -5.9,-4.2 -2.4,-1 -5.4,-1.6 -9,-1.6 h -24.2 v 39.7 h 19.6 c 5,0 9,-0.7 12.1,-2.3 z"
         id="path106" />
      <path
         d="m 1259,599.3 c -0.8,-0.1 -1.7,-0.1 -2.4,-0.1 -14.3,0 -21.5,9.5 -21.5,28.6 V 658 h 14.7 v 9.3 h -39 V 658 h 12.3 v -59.3 h -12.3 V 590 h 24.3 v 15.4 c 1.2,-3.4 2.4,-6.1 3.7,-8.2 1.3,-2.1 2.8,-3.8 4.4,-5 1.7,-1.2 3.6,-2.1 5.7,-2.6 2.1,-0.5 4.7,-0.8 7.6,-0.9 h 5 v 11.1 c -0.8,-0.3 -1.6,-0.4 -2.5,-0.5 z"
         id="path107" />
      <path
         d="m 1331.4,657.4 c -6.5,7.3 -15.2,11 -25.9,11 -12.1,0 -21.1,-4.1 -27.3,-12.3 -5.9,-8.1 -8.9,-17.6 -8.9,-28.5 0,-6.2 0.9,-11.8 2.7,-16.7 1.8,-4.9 4.3,-9.1 7.5,-12.6 3.2,-3.5 7.1,-6.1 11.6,-7.9 4.5,-1.8 9.5,-2.7 15,-2.7 5.7,0 10.8,1 15.2,3 4.4,2 8.1,4.9 11,8.5 3,3.7 5.2,8 6.7,12.9 1.5,4.9 2.2,10.3 2.2,16.2 0,11.9 -3.3,21.7 -9.8,29.1 z m -17.8,0 c 2.7,-1.3 5.2,-3.2 7.5,-5.8 2.4,-2.6 4.1,-5.9 5.3,-10.1 1.2,-4.2 1.8,-8.9 1.8,-14.2 0,-9.8 -2,-17.3 -5.9,-22.6 -4,-5.3 -9.6,-7.9 -17,-7.9 -3.6,0 -6.8,0.7 -9.6,2.2 -2.9,1.4 -5.3,3.5 -7.3,6.1 -2,2.6 -3.5,5.8 -4.6,9.5 -1.1,3.7 -1.6,7.8 -1.6,12.2 0,6.7 0.7,12 2,15.8 1.3,3.8 3.1,6.9 5.4,9.4 4.5,4.9 9.8,7.4 15.9,7.4 2.6,-0.1 5.3,-0.7 8.1,-2 z"
         id="path108" />
      <path
         d="m 1426.4,658 v 9.3 H 1403 V 652 c -2.6,5.8 -5.9,10 -9.9,12.5 -4,2.5 -9.2,3.8 -15.5,3.8 -7.9,0 -14,-2.1 -18.3,-6.2 -4.3,-4.2 -6.4,-9.7 -6.4,-16.6 0,-3.9 0.5,-7.1 1.6,-9.9 1.1,-2.7 2.5,-5 4.4,-6.9 1.8,-1.9 4,-3.4 6.4,-4.5 2.4,-1.1 5,-2 7.8,-2.6 2.2,-0.5 4,-0.7 5.4,-0.7 1.4,0 3.4,0 5.9,-0.1 3.1,-0.1 5.9,-0.1 8.6,-0.1 h 10.1 V 614 c 0,-5.6 -1.6,-10 -4.7,-13 -3.2,-3 -7.2,-4.5 -12,-4.5 -3.9,0 -6.7,0.4 -8.5,1.1 -1.8,0.7 -3.5,1.8 -5,3.2 -1.4,1.2 -2.5,2.6 -3.3,4.4 -0.8,1.7 -1.3,4 -1.5,6.7 h -12.4 c 0.3,-4.6 1.3,-8.5 3,-11.6 1.7,-3.1 4.1,-5.7 7.1,-7.8 2.5,-1.7 5.2,-2.9 8.3,-3.7 3.1,-0.8 6.9,-1.2 11.4,-1.2 4.2,0 7.5,0.3 10.1,1 2.6,0.6 5,1.7 7.4,3 3.5,2 6.2,4.5 8.2,7.6 2,3.1 3,7.7 3,13.7 V 658 Z m -29.9,-6 c 4.1,-5.1 6.2,-12.5 6.5,-22.2 -1.8,-0.3 -3.6,-0.5 -5.6,-0.5 -1.9,0 -4.1,-0.1 -6.4,-0.1 -2.1,0 -4.1,0 -6,0.1 -1.9,0.1 -3.9,0.3 -5.9,0.7 -4.1,0.8 -7.4,2.3 -9.9,4.5 -2.4,2.2 -3.6,5.8 -3.6,10.6 0,4.2 1.1,7.7 3.4,10.4 2.3,2.7 5.6,4.1 10.1,4.1 7.6,0 13.3,-2.5 17.4,-7.6 z"
         id="path109" />
      <path
         d="m 1504.7,658 h 12.4 v 9.3 h -24.5 v -15.4 c -2.1,5.6 -5.4,9.8 -9.9,12.4 -4.5,2.7 -9.7,4 -15.6,4 -8.7,0 -16.2,-3.4 -22.4,-10.1 -3.2,-3.5 -5.6,-7.7 -7.2,-12.6 -1.6,-4.9 -2.4,-11 -2.4,-18.2 0,-4.8 0.6,-9.6 1.8,-14.4 1.2,-4.8 3.1,-9 5.6,-12.8 2.6,-3.8 5.9,-6.9 10,-9.2 4.1,-2.3 9.1,-3.5 14.9,-3.5 5.9,0 11,1.3 15.2,3.9 4.2,2.6 7.5,6.3 10,11.1 v -32.6 h -12.7 v -8.7 h 24.7 V 658 Z m -26,-0.4 c 2.7,-1.1 4.8,-2.6 6.5,-4.4 2.5,-2.7 4.3,-5.9 5.6,-9.7 1.2,-3.8 1.9,-9.1 1.9,-15.8 0,-4.6 -0.5,-8.9 -1.5,-12.7 -1,-3.8 -2.4,-7.1 -4.2,-9.8 -1.8,-2.7 -4.1,-4.8 -6.8,-6.3 -2.7,-1.5 -5.8,-2.2 -9.3,-2.2 -4,0 -7.5,0.9 -10.4,2.7 -2.9,1.8 -5.3,4.1 -7.2,6.9 -1.9,2.8 -3.3,6 -4.2,9.5 -0.9,3.5 -1.3,7 -1.3,10.4 0,5.3 0.4,9.8 1.3,13.4 0.8,3.6 2.2,6.9 4.1,10 1.9,3 4.2,5.3 7,7 2.8,1.7 6.2,2.6 10.4,2.6 2.7,0.1 5.5,-0.5 8.1,-1.6 z"
         id="path110" />
      <path
         d="m 1589.1,589.9 v 28.5 h -9.3 v -1.3 c -0.1,-2.5 -0.6,-4.9 -1.6,-7.2 -0.9,-2.3 -2.2,-4.4 -3.9,-6.3 -1.7,-1.9 -3.7,-3.4 -5.9,-4.5 -2.3,-1.1 -4.8,-1.7 -7.6,-1.7 -4.1,0 -7.7,0.9 -10.6,2.7 -2.9,1.8 -5.3,4.2 -7.1,7 -1.8,2.9 -3.2,6.1 -4,9.8 -0.8,3.7 -1.3,7.3 -1.3,11 0,3.8 0.5,7.5 1.4,11.1 0.9,3.7 2.3,6.9 4.2,9.9 1.9,2.9 4.2,5.3 7.1,7.1 2.9,1.8 6.2,2.7 10.1,2.7 4.3,0 8.1,-1.4 11.3,-4.1 3.2,-2.7 5.4,-6.7 6.4,-11.7 l 0.3,-1.8 h 11.3 l -0.1,2.7 c -0.5,3.9 -1.6,7.3 -3.3,10.4 -1.7,3.1 -4,5.6 -6.7,7.7 -2.7,2.1 -5.8,3.7 -9.3,4.8 -3.5,1.1 -7.2,1.7 -11,1.7 -5.5,0 -10.4,-1 -14.7,-3 -4.3,-2 -7.9,-4.8 -10.9,-8.4 -3,-3.6 -5.2,-7.7 -6.8,-12.4 -1.6,-4.7 -2.4,-9.8 -2.4,-15.1 0,-6.9 0.9,-13 2.7,-18.2 1.8,-5.2 4.2,-9.6 7.3,-13 3,-3.5 6.5,-6.1 10.5,-7.9 4,-1.8 8.2,-2.7 12.5,-2.7 5,0 9.3,0.9 12.9,2.8 3.6,1.9 6.6,4.9 9.2,9.2 v -9.6 h 9.3 z"
         id="path111" />
      <path
         d="m 1673.5,658 v 9.3 h -23.4 V 652 c -2.6,5.8 -5.9,10 -9.9,12.5 -4,2.5 -9.2,3.8 -15.5,3.8 -7.9,0 -14,-2.1 -18.3,-6.2 -4.3,-4.2 -6.4,-9.7 -6.4,-16.6 0,-3.9 0.5,-7.1 1.6,-9.9 1.1,-2.7 2.5,-5 4.4,-6.9 1.8,-1.9 4,-3.4 6.4,-4.5 2.4,-1.1 5,-2 7.8,-2.6 2.2,-0.5 4,-0.7 5.4,-0.7 1.4,0 3.4,0 5.9,-0.1 3.1,-0.1 5.9,-0.1 8.6,-0.1 h 10.1 V 614 c 0,-5.6 -1.6,-10 -4.7,-13 -3.2,-3 -7.2,-4.5 -12,-4.5 -3.9,0 -6.7,0.4 -8.5,1.1 -1.8,0.7 -3.5,1.8 -5,3.2 -1.4,1.2 -2.5,2.6 -3.3,4.4 -0.8,1.7 -1.3,4 -1.5,6.7 h -12.4 c 0.3,-4.6 1.3,-8.5 3,-11.6 1.7,-3.1 4.1,-5.7 7.1,-7.8 2.5,-1.7 5.2,-2.9 8.3,-3.7 3.1,-0.8 6.9,-1.2 11.4,-1.2 4.2,0 7.5,0.3 10.1,1 2.6,0.6 5,1.7 7.4,3 3.5,2 6.2,4.5 8.2,7.6 2,3.1 3,7.7 3,13.7 V 658 Z m -30,-6 c 4.1,-5.1 6.2,-12.5 6.5,-22.2 -1.8,-0.3 -3.6,-0.5 -5.6,-0.5 -1.9,0 -4.1,-0.1 -6.4,-0.1 -2.1,0 -4.1,0 -6,0.1 -1.9,0.1 -3.9,0.3 -5.9,0.7 -4.1,0.8 -7.4,2.3 -9.9,4.5 -2.4,2.2 -3.6,5.8 -3.6,10.6 0,4.2 1.1,7.7 3.4,10.4 2.3,2.7 5.6,4.1 10.1,4.1 7.6,0 13.4,-2.5 17.4,-7.6 z"
         id="path112" />
      <path
         d="m 1740.6,589.9 v 24.9 h -9.3 c 0,-0.3 0,-0.6 -0.1,-1 0,-0.4 -0.1,-0.7 -0.1,-1 -0.2,-2.9 -0.8,-5.4 -1.9,-7.6 -1,-2.2 -2.3,-3.8 -3.9,-4.9 -2.4,-1.7 -4.8,-2.7 -7.3,-3.1 -2.5,-0.4 -4.4,-0.6 -5.7,-0.6 -4.4,0 -8.2,1.2 -11.3,3.5 -3.1,2.3 -4.6,5.7 -4.6,10.2 0,1.8 0.3,3.3 1,4.4 0.7,1.2 1.6,2.2 2.8,3 1.2,0.8 2.5,1.4 4.1,1.9 1.5,0.5 3.1,0.9 4.7,1.2 1.6,0.3 3.5,0.6 5.6,1 2.2,0.3 4.4,0.8 6.6,1.3 2.2,0.5 4.3,1.1 6.3,1.8 2,0.6 3.7,1.4 5,2.3 1.2,0.8 2.3,1.6 3.3,2.5 1,0.9 2,2 2.8,3.3 0.8,1.3 1.5,3 2,4.9 0.5,1.9 0.7,4.2 0.7,6.9 0,3.4 -0.7,6.5 -2,9.3 -1.3,2.9 -3.1,5.4 -5.4,7.5 -2.3,2.1 -4.9,3.8 -8,5 -3.1,1.2 -6.4,1.8 -9.9,1.8 -3.1,0 -5.8,-0.2 -8.1,-0.7 -2.3,-0.4 -4.4,-1.2 -6.2,-2.2 -1.8,-1 -3.5,-2.4 -4.9,-4.1 -1.4,-1.7 -2.8,-3.8 -4.2,-6.3 v 12.3 h -9.3 v -26.7 h 9.3 c 0.4,3.5 1.2,6.4 2.4,8.7 1.2,2.4 2.8,4.3 4.7,5.8 1.9,1.5 4,2.5 6.3,3.2 2.3,0.6 4.8,1 7.3,1 4.4,0 8.2,-1.2 11.1,-3.7 3,-2.5 4.4,-5.9 4.4,-10.4 0,-2.9 -0.7,-5.1 -2,-6.7 -1.3,-1.6 -3.1,-2.8 -5.4,-3.6 -1.5,-0.6 -3.3,-1 -5.4,-1.3 -2.1,-0.3 -4.3,-0.6 -6.6,-1 -2.3,-0.3 -4.6,-0.8 -7,-1.3 -2.4,-0.5 -4.6,-1.3 -6.7,-2.1 -3.4,-1.5 -6.1,-3.6 -8.3,-6.3 -2.2,-2.7 -3.3,-6.7 -3.3,-11.9 0,-3.9 0.7,-7.2 2.1,-10.1 1.4,-2.9 3.4,-5.3 5.8,-7.3 2.4,-2 5.3,-3.5 8.5,-4.4 3.3,-1 6.8,-1.5 10.5,-1.5 4,0 7.7,0.8 11.3,2.4 3.6,1.6 6.4,4.1 8.5,7.7 v -7.7 h 9.8 z"
         id="path113" />
      <path
         d="m 1798.4,589.9 v 8.7 h -22.2 v 50.5 c 0,3.2 0.6,5.7 1.9,7.5 1.3,1.8 3.2,2.7 5.6,2.7 2.6,0 4.5,-1.1 5.9,-3.3 1.3,-2.2 2,-6.1 2,-11.6 v -0.9 h 9.6 v 1.8 c 0,3.2 -0.3,6.2 -0.8,9 -0.5,2.8 -1.5,5.3 -3,7.3 -1.4,2.1 -3.3,3.7 -5.7,4.9 -2.4,1.2 -5.3,1.8 -8.9,1.8 -6.7,0 -11.5,-1.8 -14.4,-5.3 -2.9,-3.5 -4.3,-8.8 -4.3,-15.8 v -48.6 h -13.3 v -8.7 h 13.3 v -15.1 l 12,-4.4 V 590 h 22.3 z"
         id="path114" />
      <path
         d="m 1834.1,658 h 12 v 9.3 h -36.5 V 658 h 12.4 v -59.3 h -12.3 V 590 h 24.3 v 68 z m 0.9,-84.4 h -13.8 v -12.4 h 13.8 z"
         id="path115" />
      <path
         d="m 1936.7,658 v 9.3 h -36.3 V 658 h 12.2 v -40.6 c 0,-6.6 -1.2,-11.7 -3.6,-15.2 -2.4,-3.5 -6.3,-5.3 -11.8,-5.3 -4.4,0 -8.1,1 -10.9,3 -2.8,2 -5.1,4.9 -6.7,8.9 -1.6,3.5 -2.4,9.2 -2.4,17.2 v 32 h 12.2 v 9.3 h -37 V 658 h 12.9 v -59.3 h -12.6 V 590 h 24.6 v 13.9 c 2,-5.6 4.8,-9.8 8.5,-12.4 3.7,-2.6 8.7,-3.9 14.9,-3.9 2.4,0 4.7,0.2 7.1,0.7 2.4,0.5 4.4,1.2 6.1,2.3 3.5,2.1 6.1,4.7 8,8 1.9,3.3 2.8,7.7 2.8,13.3 V 658 Z"
         id="path116" />
      <path
         d="m 2028.1,589.9 v 8.7 h -12.7 v 62.1 c 0,3.5 -0.2,6.7 -0.6,9.7 -0.4,3 -1.1,5.8 -2.2,8.4 -2.6,5.9 -6.7,10.2 -12.4,12.9 -5.7,2.7 -12.2,4 -19.4,4 -10.4,0 -18.1,-1.8 -23,-5.5 -5,-3.7 -7.9,-8.8 -8.7,-15.4 h 13.3 c 0.5,3.6 2.3,6.4 5.3,8.6 3.1,2.2 7.6,3.3 13.5,3.3 2.5,0 5,-0.3 7.5,-0.9 2.5,-0.6 4.8,-1.6 6.8,-3.1 2,-1.5 3.7,-3.5 5.1,-6 1.4,-2.5 2.2,-5.7 2.4,-9.4 0.2,-2.4 0.3,-4.4 0.4,-6.2 0,-1.7 0.1,-3.3 0.1,-4.8 v -2.7 c -3,4.7 -6.4,8.4 -10.4,10.9 -4,2.5 -9.3,3.8 -15.8,3.8 -5.2,0 -9.9,-1 -13.9,-3.1 -4.1,-2.1 -7.5,-4.9 -10.2,-8.4 -2.8,-3.6 -4.9,-7.7 -6.3,-12.5 -1.4,-4.8 -2.1,-9.9 -2.1,-15.2 0,-15.2 3.3,-25.9 9.9,-32.2 3.4,-3.2 7,-5.5 10.9,-7 3.9,-1.5 7.9,-2.3 11.9,-2.3 5.6,0 10.7,1.2 15.3,3.6 4.6,2.4 8.2,6.1 10.9,11.1 V 590 h 24.4 z m -32,61.7 c 2.5,-2.6 4.3,-5.7 5.5,-9.5 1.2,-3.8 1.8,-8.6 1.8,-14.5 0,-4.7 -0.6,-9 -1.9,-12.7 -1.2,-3.7 -2.9,-6.8 -5,-9.3 -2.1,-2.5 -4.5,-4.4 -7.3,-5.8 -2.8,-1.3 -5.7,-2 -8.7,-2 -7.1,0 -12.7,2.7 -16.9,8.2 -4.2,5.5 -6.2,13.1 -6.2,22.9 0,4.7 0.6,9 1.8,12.7 1.2,3.8 2.8,6.9 4.7,9.5 2,2.6 4.3,4.5 7,5.9 2.7,1.4 5.6,2.1 8.7,2.1 6.1,0.1 11.6,-2.5 16.5,-7.5 z"
         id="path117" />
      <path
         d="m 2168.6,561.2 v 37.6 H 2157 c -0.5,-8.6 -3.1,-15.6 -7.9,-20.9 -4.7,-5.3 -11.6,-8 -20.6,-8 -11.4,0 -20,3.8 -25.9,11.3 -5.9,7.5 -8.8,18.1 -8.8,31.9 0,14.6 2.9,25.8 8.6,33.6 5.7,7.8 14.1,11.7 25.2,11.7 8.4,0 15,-2.4 19.8,-7.3 4.8,-4.9 7.4,-11.4 7.9,-19.5 h 13.6 c -0.3,6 -1.5,11.4 -3.6,16 -2.1,4.6 -4.9,8.6 -8.5,11.8 -3.6,3.2 -7.9,5.6 -12.9,7.3 -5,1.6 -10.5,2.4 -16.5,2.4 -9,0 -16.5,-1.6 -22.7,-4.7 -6.1,-3.2 -11.1,-7.3 -14.8,-12.5 -3.8,-5.2 -6.4,-11 -8.1,-17.6 -1.6,-6.5 -2.4,-13.2 -2.4,-20 0,-7.2 0.9,-14.1 2.8,-20.7 1.9,-6.6 4.7,-12.4 8.6,-17.5 3.9,-5 8.8,-9 14.7,-12 6,-3 13.1,-4.4 21.4,-4.4 7.7,0 14.2,1.5 19.4,4.4 5.2,3 9,7.2 11.4,12.6 v -15.4 h 10.9 z"
         id="path118" />
      <path
         d="m 2245.4,657.4 c -6.5,7.3 -15.2,11 -25.9,11 -12.1,0 -21.1,-4.1 -27.3,-12.3 -5.9,-8.1 -8.9,-17.6 -8.9,-28.5 0,-6.2 0.9,-11.8 2.7,-16.7 1.8,-4.9 4.3,-9.1 7.5,-12.6 3.2,-3.5 7.1,-6.1 11.6,-7.9 4.5,-1.8 9.5,-2.7 15,-2.7 5.7,0 10.8,1 15.2,3 4.4,2 8.1,4.9 11,8.5 3,3.7 5.2,8 6.7,12.9 1.5,4.9 2.2,10.3 2.2,16.2 0,11.9 -3.3,21.7 -9.8,29.1 z m -17.9,0 c 2.7,-1.3 5.2,-3.2 7.5,-5.8 2.4,-2.6 4.1,-5.9 5.3,-10.1 1.2,-4.2 1.8,-8.9 1.8,-14.2 0,-9.8 -2,-17.3 -5.9,-22.6 -4,-5.3 -9.6,-7.9 -17,-7.9 -3.6,0 -6.8,0.7 -9.6,2.2 -2.9,1.4 -5.3,3.5 -7.3,6.1 -2,2.6 -3.5,5.8 -4.6,9.5 -1.1,3.7 -1.6,7.8 -1.6,12.2 0,6.7 0.7,12 2,15.8 1.3,3.8 3.1,6.9 5.4,9.4 4.5,4.9 9.8,7.4 15.9,7.4 2.7,-0.1 5.4,-0.7 8.1,-2 z"
         id="path119" />
      <path
         d="m 2335.9,597.1 c 1.4,-2 3,-3.8 5,-5.2 1.9,-1.4 4.1,-2.5 6.4,-3.3 2.4,-0.7 4.8,-1.1 7.4,-1.1 6.6,0 12.3,1.9 17,5.8 2.5,2 4.3,4.6 5.5,7.9 1.2,3.3 1.8,8 1.8,14.1 V 658 h 11.3 v 9.3 h -35.4 V 658 h 12.2 v -39.7 c 0,-2.7 -0.1,-5.3 -0.4,-7.9 -0.2,-2.6 -0.8,-4.9 -1.8,-6.9 -0.9,-2 -2.4,-3.6 -4.4,-4.8 -2,-1.2 -4.7,-1.8 -8.3,-1.8 -2.2,0 -4.3,0.4 -6.5,1.3 -2.2,0.8 -4.1,2.2 -5.8,4.1 -1.7,1.9 -3.1,4.3 -4.1,7.4 -1.1,3.1 -1.6,6.8 -1.6,11.1 V 658 h 12 v 9.3 h -36 V 658 h 12 v -39.7 c 0,-2.7 -0.1,-5.3 -0.4,-7.9 -0.2,-2.6 -0.8,-4.8 -1.8,-6.8 -0.9,-2 -2.4,-3.6 -4.4,-4.8 -2,-1.2 -4.7,-1.9 -8.3,-1.9 -2.3,0 -4.5,0.5 -6.7,1.4 -2.2,0.9 -4.1,2.4 -5.8,4.3 -1.7,1.9 -3,4.4 -4.1,7.5 -1,3.1 -1.6,6.7 -1.6,11 V 658 h 12.2 v 9.3 h -36.8 V 658 h 12.6 v -59.3 h -12.6 V 590 h 24.6 v 13.9 c 1.2,-5 3.8,-9 7.8,-11.9 4,-2.9 8.6,-4.4 13.9,-4.4 5.9,0 10.7,1.5 14.4,4.4 3.7,2.9 6.2,6.9 7.6,11.9 0.8,-2.5 1.7,-4.7 3.1,-6.8 z"
         id="path120" />
      <path
         d="m 2475,645.1 c -1.4,4.9 -3.7,9.1 -6.9,12.5 -3.1,3.5 -6.3,6.1 -9.8,7.9 -3.5,1.8 -7.6,2.7 -12.3,2.7 -5.6,0 -10.8,-1.1 -15.4,-3.4 -4.6,-2.3 -8.4,-6.3 -11.3,-12 v 29.5 h 12.4 v 8.9 h -36.9 v -8.9 h 12.4 V 598.6 H 2395 v -8.7 h 24.2 V 605 c 2.9,-5.9 6.4,-10.3 10.5,-13.2 4.1,-2.9 9.6,-4.3 16.3,-4.3 3.7,0 6.9,0.4 9.6,1.3 2.8,0.9 5.2,2.1 7.4,3.8 2.2,1.6 4.1,3.6 5.7,5.9 1.6,2.3 3.2,4.9 4.7,7.6 2.4,4.6 3.6,11.8 3.6,21.3 0.2,7 -0.6,12.9 -2,17.7 z m -22.8,11.8 c 2.9,-1.7 5.3,-4 7.2,-6.9 1.9,-2.9 3.3,-6.1 4.2,-9.7 0.9,-3.6 1.3,-7.3 1.3,-11.2 0,-10.6 -2,-18.6 -6.1,-24.2 -4.1,-5.5 -9.4,-8.3 -16,-8.3 -3.6,0 -6.9,0.8 -10.2,2.4 -3.2,1.6 -6,4.2 -8.2,7.9 -1.5,2.4 -2.7,5.1 -3.6,8.3 -0.9,3.2 -1.4,7.3 -1.4,12.4 0,6.9 0.8,12.5 2.5,16.7 1.7,4.2 3.7,7.4 6.1,9.6 2.4,2.2 4.8,3.7 7.4,4.4 2.6,0.7 4.7,1.1 6.5,1.1 3.9,0 7.4,-0.8 10.3,-2.5 z"
         id="path121" />
      <path
         d="m 2562.7,658 v 9.3 h -23.4 V 652 c -2.6,5.8 -5.9,10 -9.9,12.5 -4,2.5 -9.2,3.8 -15.5,3.8 -7.9,0 -14,-2.1 -18.3,-6.2 -4.3,-4.2 -6.4,-9.7 -6.4,-16.6 0,-3.9 0.5,-7.1 1.6,-9.9 1.1,-2.7 2.5,-5 4.4,-6.9 1.8,-1.9 4,-3.4 6.4,-4.5 2.4,-1.1 5,-2 7.8,-2.6 2.2,-0.5 4,-0.7 5.4,-0.7 1.4,0 3.4,0 5.9,-0.1 3.1,-0.1 5.9,-0.1 8.6,-0.1 h 10.1 V 614 c 0,-5.6 -1.6,-10 -4.7,-13 -3.2,-3 -7.2,-4.5 -12,-4.5 -3.9,0 -6.7,0.4 -8.5,1.1 -1.8,0.7 -3.5,1.8 -5,3.2 -1.4,1.2 -2.5,2.6 -3.3,4.4 -0.8,1.7 -1.3,4 -1.5,6.7 H 2492 c 0.3,-4.6 1.3,-8.5 3,-11.6 1.7,-3.1 4.1,-5.7 7.1,-7.8 2.5,-1.7 5.2,-2.9 8.3,-3.7 3.1,-0.8 6.9,-1.2 11.4,-1.2 4.2,0 7.5,0.3 10.1,1 2.6,0.6 5,1.7 7.4,3 3.5,2 6.2,4.5 8.2,7.6 2,3.1 3,7.7 3,13.7 V 658 Z m -30,-6 c 4.1,-5.1 6.2,-12.5 6.5,-22.2 -1.8,-0.3 -3.6,-0.5 -5.6,-0.5 -1.9,0 -4.1,-0.1 -6.4,-0.1 -2.1,0 -4.1,0 -6,0.1 -1.9,0.1 -3.9,0.3 -5.9,0.7 -4.1,0.8 -7.4,2.3 -9.9,4.5 -2.4,2.2 -3.6,5.8 -3.6,10.6 0,4.2 1.1,7.7 3.4,10.4 2.3,2.7 5.6,4.1 10.1,4.1 7.6,0 13.4,-2.5 17.4,-7.6 z"
         id="path122" />
      <path
         d="m 2653.1,658 v 9.3 h -36.3 V 658 h 12.2 v -40.6 c 0,-6.6 -1.2,-11.7 -3.6,-15.2 -2.4,-3.5 -6.3,-5.3 -11.8,-5.3 -4.4,0 -8.1,1 -10.9,3 -2.8,2 -5.1,4.9 -6.7,8.9 -1.6,3.5 -2.4,9.2 -2.4,17.2 v 32 h 12.2 v 9.3 h -37 V 658 h 12.9 v -59.3 h -12.6 V 590 h 24.6 v 13.9 c 2,-5.6 4.8,-9.8 8.5,-12.4 3.7,-2.6 8.7,-3.9 14.9,-3.9 2.4,0 4.7,0.2 7.1,0.7 2.4,0.5 4.4,1.2 6.1,2.3 3.5,2.1 6.1,4.7 8,8 1.9,3.3 2.8,7.7 2.8,13.3 V 658 Z"
         id="path123" />
      <path
         d="m 2691,598.7 h -12 l 19,54.2 18.4,-54.2 h -12.2 V 590 h 31.7 v 8.7 h -6.8 c -3.7,10.1 -6.9,19 -9.9,26.9 -2.9,7.9 -5.5,14.8 -7.7,20.8 -2.2,6 -4.1,11.2 -5.7,15.6 -1.6,4.4 -3,8.1 -4.3,11.2 -1.1,2.6 -2.1,4.8 -2.9,6.7 -0.8,1.9 -1.7,3.5 -2.7,5 -0.9,1.4 -2,2.7 -3.3,3.7 -1.3,1 -2.9,2 -4.7,2.7 -2.7,1.2 -5.9,1.8 -9.6,1.8 -1.4,0 -2.8,-0.1 -4.3,-0.4 -1.5,-0.2 -2.9,-0.5 -4.3,-0.7 v -9.8 c 2.8,0.7 5.7,1 8.7,1 1.2,0 2.3,-0.2 3.5,-0.6 1.1,-0.4 2.2,-1.2 3.3,-2.4 1.1,-1.2 2.1,-2.8 3.1,-4.9 1,-2.1 2,-4.7 3,-8 l -25.9,-68.8 h -7.4 v -8.7 h 33 z"
         id="path124" />
      <path
         d="m 2848.7,651.9 28.3,-90.7 h 37.3 v 9.8 h -15.1 v 86.5 h 15.1 v 9.8 h -41.2 v -9.8 h 13.6 V 571 h -1 l -31.6,96.3 h -11.6 L 2810.9,571 h -1 v 86.5 h 13.8 v 9.8 h -40.3 v -9.8 h 15.3 V 571 h -15.3 v -9.8 h 37.8 z"
         id="path125" />
      <path
         d="m 2948.4,658 h 12 v 9.3 H 2924 V 658 h 12.4 v -59.3 h -12.3 V 590 h 24.3 z m 0.9,-84.4 h -13.8 v -12.4 h 13.8 z"
         id="path126" />
      <path
         d="m 3032.8,589.9 v 28.5 h -9.3 v -1.3 c -0.1,-2.5 -0.6,-4.9 -1.6,-7.2 -0.9,-2.3 -2.2,-4.4 -3.9,-6.3 -1.7,-1.9 -3.7,-3.4 -5.9,-4.5 -2.3,-1.1 -4.8,-1.7 -7.6,-1.7 -4.1,0 -7.7,0.9 -10.6,2.7 -2.9,1.8 -5.3,4.2 -7.1,7 -1.8,2.9 -3.2,6.1 -4,9.8 -0.8,3.7 -1.3,7.3 -1.3,11 0,3.8 0.5,7.5 1.4,11.1 0.9,3.7 2.3,6.9 4.2,9.9 1.9,2.9 4.2,5.3 7.1,7.1 2.9,1.8 6.2,2.7 10.1,2.7 4.3,0 8.1,-1.4 11.3,-4.1 3.2,-2.7 5.4,-6.7 6.4,-11.7 l 0.3,-1.8 h 11.3 l -0.1,2.7 c -0.5,3.9 -1.6,7.3 -3.3,10.4 -1.7,3.1 -4,5.6 -6.7,7.7 -2.7,2.1 -5.8,3.7 -9.3,4.8 -3.5,1.1 -7.2,1.7 -11,1.7 -5.5,0 -10.4,-1 -14.7,-3 -4.3,-2 -7.9,-4.8 -10.9,-8.4 -3,-3.6 -5.2,-7.7 -6.8,-12.4 -1.6,-4.7 -2.4,-9.8 -2.4,-15.1 0,-6.9 0.9,-13 2.7,-18.2 1.8,-5.2 4.2,-9.6 7.3,-13 3,-3.5 6.5,-6.1 10.5,-7.9 4,-1.8 8.2,-2.7 12.5,-2.7 5,0 9.3,0.9 12.9,2.8 3.6,1.9 6.6,4.9 9.2,9.2 v -9.6 h 9.3 z"
         id="path127" />
      <path
         d="m 3089.8,599.3 c -0.8,-0.1 -1.7,-0.1 -2.4,-0.1 -14.3,0 -21.5,9.5 -21.5,28.6 V 658 h 14.7 v 9.3 h -39 V 658 h 12.3 v -59.3 h -12.3 V 590 h 24.3 v 15.4 c 1.2,-3.4 2.4,-6.1 3.7,-8.2 1.3,-2.1 2.8,-3.8 4.4,-5 1.7,-1.2 3.6,-2.1 5.7,-2.6 2.1,-0.5 4.7,-0.8 7.6,-0.9 h 5 v 11.1 c -0.8,-0.3 -1.7,-0.4 -2.5,-0.5 z"
         id="path128" />
      <path
         d="m 3162.2,657.4 c -6.5,7.3 -15.2,11 -25.9,11 -12.1,0 -21.1,-4.1 -27.3,-12.3 -5.9,-8.1 -8.9,-17.6 -8.9,-28.5 0,-6.2 0.9,-11.8 2.7,-16.7 1.8,-4.9 4.3,-9.1 7.5,-12.6 3.2,-3.5 7.1,-6.1 11.6,-7.9 4.5,-1.8 9.5,-2.7 15,-2.7 5.7,0 10.8,1 15.2,3 4.4,2 8.1,4.9 11,8.5 3,3.7 5.2,8 6.7,12.9 1.5,4.9 2.2,10.3 2.2,16.2 -0.1,11.9 -3.3,21.7 -9.8,29.1 z m -17.9,0 c 2.7,-1.3 5.2,-3.2 7.5,-5.8 2.4,-2.6 4.1,-5.9 5.3,-10.1 1.2,-4.2 1.8,-8.9 1.8,-14.2 0,-9.8 -2,-17.3 -5.9,-22.6 -4,-5.3 -9.6,-7.9 -17,-7.9 -3.6,0 -6.8,0.7 -9.6,2.2 -2.9,1.4 -5.3,3.5 -7.3,6.1 -2,2.6 -3.5,5.8 -4.6,9.5 -1.1,3.7 -1.6,7.8 -1.6,12.2 0,6.7 0.7,12 2,15.8 1.3,3.8 3.1,6.9 5.4,9.4 4.5,4.9 9.8,7.4 15.9,7.4 2.6,-0.1 5.4,-0.7 8.1,-2 z"
         id="path129" />
      <path
         d="m 3246.9,589.9 v 28.5 h -9.3 v -1.3 c -0.1,-2.5 -0.6,-4.9 -1.6,-7.2 -0.9,-2.3 -2.2,-4.4 -3.9,-6.3 -1.7,-1.9 -3.7,-3.4 -5.9,-4.5 -2.3,-1.1 -4.8,-1.7 -7.6,-1.7 -4.1,0 -7.7,0.9 -10.6,2.7 -2.9,1.8 -5.3,4.2 -7.1,7 -1.8,2.9 -3.2,6.1 -4,9.8 -0.8,3.7 -1.3,7.3 -1.3,11 0,3.8 0.5,7.5 1.4,11.1 0.9,3.7 2.3,6.9 4.2,9.9 1.9,2.9 4.2,5.3 7.1,7.1 2.9,1.8 6.2,2.7 10.1,2.7 4.3,0 8.1,-1.4 11.3,-4.1 3.2,-2.7 5.4,-6.7 6.4,-11.7 l 0.3,-1.8 h 11.3 l -0.1,2.7 c -0.5,3.9 -1.6,7.3 -3.3,10.4 -1.7,3.1 -4,5.6 -6.7,7.7 -2.7,2.1 -5.8,3.7 -9.3,4.8 -3.5,1.1 -7.2,1.7 -11,1.7 -5.5,0 -10.4,-1 -14.7,-3 -4.3,-2 -7.9,-4.8 -10.9,-8.4 -3,-3.6 -5.2,-7.7 -6.8,-12.4 -1.6,-4.7 -2.4,-9.8 -2.4,-15.1 0,-6.9 0.9,-13 2.7,-18.2 1.8,-5.2 4.2,-9.6 7.3,-13 3,-3.5 6.5,-6.1 10.5,-7.9 4,-1.8 8.2,-2.7 12.5,-2.7 5,0 9.3,0.9 12.9,2.8 3.6,1.9 6.6,4.9 9.2,9.2 v -9.6 h 9.3 z"
         id="path130" />
      <path
         d="m 3318.7,657.4 c -6.5,7.3 -15.2,11 -25.9,11 -12.1,0 -21.1,-4.1 -27.3,-12.3 -5.9,-8.1 -8.9,-17.6 -8.9,-28.5 0,-6.2 0.9,-11.8 2.7,-16.7 1.8,-4.9 4.3,-9.1 7.5,-12.6 3.2,-3.5 7.1,-6.1 11.6,-7.9 4.5,-1.8 9.5,-2.7 15,-2.7 5.7,0 10.8,1 15.2,3 4.4,2 8.1,4.9 11,8.5 3,3.7 5.2,8 6.7,12.9 1.5,4.9 2.2,10.3 2.2,16.2 -0.1,11.9 -3.3,21.7 -9.8,29.1 z m -17.9,0 c 2.7,-1.3 5.2,-3.2 7.5,-5.8 2.4,-2.6 4.1,-5.9 5.3,-10.1 1.2,-4.2 1.8,-8.9 1.8,-14.2 0,-9.8 -2,-17.3 -5.9,-22.6 -4,-5.3 -9.6,-7.9 -17,-7.9 -3.6,0 -6.8,0.7 -9.6,2.2 -2.9,1.4 -5.3,3.5 -7.3,6.1 -2,2.6 -3.5,5.8 -4.6,9.5 -1.1,3.7 -1.6,7.8 -1.6,12.2 0,6.7 0.7,12 2,15.8 1.3,3.8 3.1,6.9 5.4,9.4 4.5,4.9 9.8,7.4 15.9,7.4 2.6,-0.1 5.4,-0.7 8.1,-2 z"
         id="path131" />
      <path
         d="m 3409.2,597.1 c 1.4,-2 3,-3.8 5,-5.2 1.9,-1.4 4.1,-2.5 6.4,-3.3 2.4,-0.7 4.8,-1.1 7.4,-1.1 6.6,0 12.3,1.9 17,5.8 2.5,2 4.3,4.6 5.5,7.9 1.2,3.3 1.8,8 1.8,14.1 V 658 h 11.3 v 9.3 h -35.4 V 658 h 12.2 v -39.7 c 0,-2.7 -0.1,-5.3 -0.4,-7.9 -0.2,-2.6 -0.8,-4.9 -1.8,-6.9 -0.9,-2 -2.4,-3.6 -4.4,-4.8 -2,-1.2 -4.7,-1.8 -8.3,-1.8 -2.2,0 -4.3,0.4 -6.5,1.3 -2.2,0.8 -4.1,2.2 -5.8,4.1 -1.7,1.9 -3.1,4.3 -4.1,7.4 -1.1,3.1 -1.6,6.8 -1.6,11.1 V 658 h 12 v 9.3 h -36 V 658 h 12 v -39.7 c 0,-2.7 -0.1,-5.3 -0.4,-7.9 -0.2,-2.6 -0.8,-4.8 -1.8,-6.8 -0.9,-2 -2.4,-3.6 -4.4,-4.8 -2,-1.2 -4.7,-1.9 -8.3,-1.9 -2.3,0 -4.5,0.5 -6.7,1.4 -2.2,0.9 -4.1,2.4 -5.8,4.3 -1.7,1.9 -3,4.4 -4.1,7.5 -1,3.1 -1.6,6.7 -1.6,11 V 658 h 12.2 v 9.3 h -36.8 V 658 h 12.6 v -59.3 h -12.6 V 590 h 24.6 v 13.9 c 1.2,-5 3.8,-9 7.8,-11.9 4,-2.9 8.6,-4.4 13.9,-4.4 5.9,0 10.7,1.5 14.4,4.4 3.7,2.9 6.2,6.9 7.6,11.9 0.7,-2.5 1.7,-4.7 3.1,-6.8 z"
         id="path132" />
      <path
         d="m 3548.3,645.1 c -1.4,4.9 -3.7,9.1 -6.9,12.5 -3.1,3.5 -6.3,6.1 -9.8,7.9 -3.5,1.8 -7.6,2.7 -12.3,2.7 -5.6,0 -10.8,-1.1 -15.4,-3.4 -4.6,-2.3 -8.4,-6.3 -11.3,-12 v 29.5 h 12.4 v 8.9 h -36.9 v -8.9 h 12.4 v -83.7 h -12.2 v -8.7 h 24.2 V 605 c 2.9,-5.9 6.4,-10.3 10.5,-13.2 4.1,-2.9 9.6,-4.3 16.3,-4.3 3.7,0 6.9,0.4 9.6,1.3 2.8,0.9 5.2,2.1 7.4,3.8 2.2,1.6 4.1,3.6 5.7,5.9 1.6,2.3 3.2,4.9 4.7,7.6 2.4,4.6 3.6,11.8 3.6,21.3 0.1,7 -0.6,12.9 -2,17.7 z m -22.8,11.8 c 2.9,-1.7 5.3,-4 7.2,-6.9 1.9,-2.9 3.3,-6.1 4.2,-9.7 0.9,-3.6 1.3,-7.3 1.3,-11.2 0,-10.6 -2,-18.6 -6.1,-24.2 -4.1,-5.5 -9.4,-8.3 -16,-8.3 -3.6,0 -6.9,0.8 -10.2,2.4 -3.2,1.6 -6,4.2 -8.2,7.9 -1.5,2.4 -2.7,5.1 -3.6,8.3 -0.9,3.2 -1.4,7.3 -1.4,12.4 0,6.9 0.8,12.5 2.5,16.7 1.7,4.2 3.7,7.4 6.1,9.6 2.4,2.2 4.8,3.7 7.4,4.4 2.6,0.7 4.7,1.1 6.5,1.1 3.9,0 7.4,-0.8 10.3,-2.5 z"
         id="path133" />
      <path
         d="m 3582.9,638.1 c 0,7.5 1.2,12.9 3.7,16.3 2.5,3.4 6.2,5 11.3,5 3.4,0 6.6,-0.9 9.8,-2.7 3.2,-1.8 5.7,-4.8 7.6,-9 1.8,-4.2 2.7,-9.6 2.7,-16.3 v -32.8 h -13 v -8.7 h 25 v 68 h 12.3 v 9.3 H 3618 v -14.8 c -1.9,5.7 -4.6,9.8 -8.1,12.2 -3.5,2.4 -8.4,3.6 -14.6,3.6 -4.7,0 -9.1,-0.9 -13,-2.7 -3.9,-1.8 -6.9,-4.8 -9,-9.2 -0.4,-0.9 -0.7,-1.8 -1,-2.7 -0.3,-0.9 -0.5,-2 -0.7,-3.3 -0.2,-1.3 -0.3,-2.9 -0.4,-4.7 -0.1,-1.8 -0.1,-4.1 -0.1,-6.9 v -40.2 h -12.2 v -8.7 h 24.2 v 48.3 z"
         id="path134" />
      <path
         d="m 3694.9,589.9 v 8.7 h -22.2 v 50.5 c 0,3.2 0.6,5.7 1.9,7.5 1.3,1.8 3.2,2.7 5.6,2.7 2.6,0 4.5,-1.1 5.9,-3.3 1.3,-2.2 2,-6.1 2,-11.6 v -0.9 h 9.6 v 1.8 c 0,3.2 -0.3,6.2 -0.8,9 -0.5,2.8 -1.5,5.3 -3,7.3 -1.4,2.1 -3.3,3.7 -5.7,4.9 -2.4,1.2 -5.3,1.8 -8.9,1.8 -6.7,0 -11.5,-1.8 -14.4,-5.3 -2.9,-3.5 -4.3,-8.8 -4.3,-15.8 v -48.6 h -13.3 v -8.7 h 13.3 v -15.1 l 12,-4.4 V 590 h 22.3 z"
         id="path135" />
      <path
         d="m 3723.4,643.5 c 1.2,3 2.7,5.7 4.4,8.1 2,2.6 4.3,4.5 7,5.8 2.7,1.3 6.5,1.9 11.3,1.9 2.2,0 4.3,-0.3 6.4,-1 2.1,-0.7 4.1,-1.7 5.8,-3 1.7,-1.3 3.2,-2.9 4.5,-4.7 1.3,-1.8 2.2,-3.9 2.7,-6.1 l 0.1,-1.2 h 11.4 l -0.3,1.3 c -1.5,7.4 -5.1,13.2 -10.7,17.5 -5.7,4.2 -13,6.4 -21.9,6.4 -11.7,0 -20.5,-3.4 -26.5,-10.2 -6,-6.8 -9,-16.7 -9,-29.6 0,-6.2 0.8,-12 2.5,-17.2 1.7,-5.2 4.2,-9.6 7.7,-13 3.5,-3.6 7.4,-6.2 11.9,-8 4.4,-1.8 9,-2.7 13.8,-2.7 4.2,0 8.4,0.7 12.4,2.1 4,1.4 7.1,3.2 9.4,5.3 4.6,4.2 7.8,9 9.4,14.4 1.6,5.3 2.4,11 2.4,16.9 v 4.7 H 3721 c 0.5,5.1 1.2,9.3 2.4,12.3 z m 40.7,-30.4 c -0.9,-3.1 -2.2,-5.8 -4,-8.3 -1.8,-2.5 -4,-4.5 -6.7,-6 -2.7,-1.5 -5.8,-2.3 -9.3,-2.3 -6,0 -11.1,2.3 -15.2,7 -4.1,4.6 -6.5,10.9 -7.2,18.7 h 43.7 c 0.1,-3.1 -0.4,-6.1 -1.3,-9.1 z"
         id="path136" />
      <path
         d="m 3836.4,599.3 c -0.8,-0.1 -1.7,-0.1 -2.4,-0.1 -14.3,0 -21.5,9.5 -21.5,28.6 V 658 h 14.7 v 9.3 h -39 V 658 h 12.3 v -59.3 h -12.3 V 590 h 24.3 v 15.4 c 1.2,-3.4 2.4,-6.1 3.7,-8.2 1.3,-2.1 2.8,-3.8 4.4,-5 1.7,-1.2 3.6,-2.1 5.7,-2.6 2.1,-0.5 4.7,-0.8 7.6,-0.9 h 5 v 11.1 c -0.8,-0.3 -1.7,-0.4 -2.5,-0.5 z"
         id="path137" />
    </g>
  </g>
</svg>
