<svg enable-background="new 0 0 3840 1220.2" viewBox="0 0 3840 1220.2" xmlns="http://www.w3.org/2000/svg"><g fill="#999"><path d="m1129.3 369.5v-91.9h-219.9v91.9z"/><path d="m3539.3 370.8v-91.9h-219.9v91.9z"/><path d="m2598.8 940.2v-91.9h-219.9v91.9z"/></g><g fill="#fff"><path d="m2626.1 762.2h-274.6c-32.5 0-58.8 26.3-58.8 58.8v146.5c0 32.5 26.3 58.8 58.8 58.8h274.6c32.5 0 58.8-26.3 58.8-58.8v-146.5c0-32.5-26.4-58.8-58.8-58.8z"/><path d="m1156.6 191.5h-274.6c-32.5 0-58.8 26.3-58.8 58.8v146.5c0 32.5 26.3 58.8 58.8 58.8h274.6c32.5 0 58.8-26.3 58.8-58.8v-146.5c0-32.4-26.3-58.8-58.8-58.8z"/><path d="m3627.7 1.7-396.5-.4c-44.6 0-86 13.8-120.2 37.4-6.3-21.4-26-37.2-49.5-37.2l-438.8-.2c-44.6 0-85.9 13.8-120.1 37.3-6.4-21.4-26-37.1-49.4-37.1l-651.4-.4v393.8h-190.9v-341.2c0-28.6-23.2-51.8-51.8-51.8h-223.8v34.3c-33.7-22.5-74.1-35.7-117.5-35.7l-396.6-.5c-44.8 0-86.4 14-120.7 37.7-6.7-20.9-26-36.2-49.2-36.2l-438.7-.2c-117.3 0-212.6 95.3-212.6 212.5v224.4c0 113.2 88.5 205.7 200 212.1l328.2 568.4h256.1l244.2-422.9v371.2c0 28.6 23.2 51.8 51.8 51.8h139.9 84.6 451.9c49.3 0 94.7-16.7 131-44.8 3.5 25.3 24.9 44.8 51.1 44.8h223.8v-41.6c35.6 27 80 43 128 43h396.3c48.4 0 93.1-16.3 128.9-43.7 4.5 24.1 25.5 42.3 50.9 42.3h223.8v-395.6h270.2v341.9c0 28.4 22.8 51.5 51.2 51.8l224.3 2.6v-435.9c0-50.3-17.5-96.4-46.7-132.8h37.9c117.2 0 212.5-95.3 212.5-212.5v-224c.1-117.2-95.2-212.5-212.2-212.6zm-2231.5 61.1h153.6v334.3c0 32.5 26.3 58.8 58.8 58.8h227v132.9h-287.8c-83.7 0-151.6-67.9-151.6-151.6zm-1335.2 375.4v-224.4c0-83.8 67.9-151.6 151.7-151.5l429.5.2v130.4h-368.8c-32.5 0-58.8 26.3-58.8 58.8v146.5c0 32.5 26.3 58.8 58.8 58.8h368.8v132.9h-429.7c-83.7-.1-151.5-68-151.5-151.7zm733.1 212.6-137.8 238.6-137.8-238.6zm-45 507h-185.7l-303-524.8h177.4l218.5 378.4 218.4-378.4h177.4zm72.1-569.3c-83.7 0-151.6-67.9-151.6-151.6v-224.4c0-83.8 67.9-151.6 151.7-151.6l396.3.4c83.6.1 151.4 67.9 151.4 151.6v224c0 83.7-67.9 151.6-151.6 151.6zm422.7 569.3h-154.4v-524.8h154.4zm666.5-153.6c0 84.8-68.8 153.6-153.6 153.6h-475.5v-130.7h442.3c18.3 0 33.2-14.8 33.2-33.2 0-18.3-14.8-33.2-33.2-33.2h-288.7c-84.8 0-153.6-68.8-153.6-153.6v-20.5c0-84.8 68.8-153.6 153.6-153.6h458.6v130.7h-425.4c-18.3 0-33.2 14.9-33.2 33.2s14.8 33.2 33.2 33.2h288.7c84.8 0 153.6 68.8 153.6 153.6zm-47.7-566v-376.1l581.2.4v130.4h-387.2c-22.3 0-40.4 18.1-40.4 40.4s18.1 40.4 40.4 40.4h350.5v104.7h-351.6c-21.7 0-39.3 17.6-39.3 39.3s17.6 39.3 39.3 39.3h388.3v132.9h-429.7c-83.6-.1-151.5-68-151.5-151.7zm239 719.6h-153.7v-524.8h153.6v524.8zm736.8-150.2c0 83.7-67.9 151.6-151.6 151.6h-396.3c-83.7 0-151.6-67.9-151.6-151.6v-224.4c0-83.8 67.9-151.6 151.7-151.6l396.3.4c83.6.1 151.4 67.9 151.4 151.6v224zm-215.8-417.8c-83.7 0-151.6-67.9-151.6-151.6v-224.4c0-83.8 67.9-151.6 151.7-151.6l429.5.2v130.4h-368.8c-32.5 0-58.8 26.3-58.8 58.8v146.5c0 32.5 26.3 58.8 58.8 58.8h368.8v132.9zm952.5 568-153.6-1.7v-335.1c0-32.5-26.3-58.8-58.8-58.8h-274.6c-32.5 0-58.8 26.3-58.8 58.8v336.8h-153.6v-348-26.6-151.6h148.3v.2c1.2 0 2.3-.2 3.4-.2l396.3.4c83.6.1 151.4 67.9 151.4 151.6zm203.8-719.6c0 83.7-67.9 151.6-151.6 151.6h-396.3c-83.7 0-151.6-67.9-151.6-151.6v-224.4c0-83.8 67.9-151.6 151.7-151.6l396.3.4c83.6.1 151.4 67.9 151.4 151.6v224z"/><path d="m3566.6 192.8h-274.6c-32.5 0-58.8 26.3-58.8 58.8v146.5c0 32.5 26.3 58.8 58.8 58.8h274.6c32.5 0 58.8-26.3 58.8-58.8v-146.5c0-32.5-26.3-58.8-58.8-58.8z"/></g></svg>