<svg height="548" viewBox="0 0 3840 547.99999" width="3840" xmlns="http://www.w3.org/2000/svg"><g stroke-width="4.21978" transform="matrix(1 0 0 .99895827 .000001 .000016)"><path d="m42.197801 506.37361h42.197802v42.1978h253.186807v-42.1978h42.19781v-42.1978h42.1978v-84.39561-84.3956h-42.1978v-42.1978h42.1978v-84.39561-84.395602h-42.1978v-42.197802h-42.19781v-42.197802h-253.186807v42.197802h-42.197802v42.197802h-42.197802v84.395602 210.98901 84.39561h42.197802zm210.989009-210.98901h-42.1978v-42.1978h42.1978z" fill="#120f26"/><path d="m379.78022 379.7802h-126.59341v42.1978h-84.3956v-210.98901h84.3956v42.19781h126.59341v-84.39561h-42.19781v-42.1978h-253.186807v42.1978h-42.197802v295.38462h42.197802v42.1978h253.186807v-42.1978h42.19781z" fill="#666"/><path d="m379.78022 295.3846h-126.59341v42.1978h-84.3956v-210.98901h84.3956v42.1978h126.59341v-84.395602h-42.19781v-42.197802h-253.186807v42.197802h-42.197802v295.384612h42.197802v42.1978h253.186807v-42.1978h42.19781z" fill="#fff"/><path d="m464.17582 42.197826h-42.1978v42.197802h-42.19781v84.395602 210.98901 84.39561h42.19781v42.1978h42.1978v42.1978h253.18681v-42.1978h42.1978v-42.1978h42.1978v-84.39561-210.98901-84.395602h-42.1978v-42.197802h-42.1978v-42.197802h-253.18681z" fill="#120f26"/><path d="m717.36263 506.37365v-42.1978h42.1978v-295.38462h-42.1978v-42.1978h-253.18681v42.1978h-42.1978v295.38462h42.1978v42.1978zm-168.79121-84.39561v-210.98901h84.39561v210.98901z" fill="#666"/><path d="m717.36263 421.97804v-42.1978h42.1978v-295.384612h-42.1978v-42.197802h-253.18681v42.197802h-42.1978v295.384612h42.1978v42.1978zm-168.79121-84.3956v-210.98901h84.39561v210.98901z" fill="#fff"/><path d="m759.56045 126.59339v295.38461 84.39561h42.1978v42.1978h84.39561 42.1978 168.79124v-42.1978h42.1978v-84.39561-84.3956h-42.1978v-42.1978h-126.59344v-168.79121-84.395604h-42.1978v-42.197802h-126.59341v42.197802h-42.1978z" fill="#120f26"/><path d="m928.35166 421.978v-295.38461h-126.59341v379.78022h84.39561 42.1978 168.79124v-84.39561z" fill="#666"/><path d="m928.35166 337.5824v-295.384614h-126.59341v379.780214h84.39561 42.1978 168.79124v-84.3956z" fill="#fff"/><path d="m1139.3407 506.37361v42.1978h84.3956 42.1978 168.7912v-42.1978h42.1978v-84.39561-84.3956h-42.1978v-42.1978h-126.5934v-168.79121-84.395604h-42.1978v-42.197802h-126.5934v42.197802h-42.1978v84.395604 295.38461 84.39561z" fill="#120f26"/><path d="m1139.3407 506.37361h84.3956 42.1978 168.7912v-84.39561h-168.7912v-295.38461h-126.5934z" fill="#666"/><path d="m1139.3407 421.978h84.3956 42.1978 168.7912v-84.3956h-168.7912v-295.384614h-126.5934z" fill="#fff"/><path d="m1476.9231 506.37361v42.1978h84.3956 42.1978 168.7912v-42.1978h42.1978v-84.39561-84.3956h-42.1978v-42.1978-42.1978-42.19781h42.1978v-84.3956-84.395604h-42.1978v-42.197802h-168.7912-42.1978-84.3956v42.197802h-42.1978v84.395604 295.38461 84.39561z" fill="#120f26"/><path d="m1603.5165 506.37361h168.7912v-84.39561h-168.7912v-42.1978h126.5934v-84.3956h-126.5934v-84.39561h168.7912v-84.3956h-168.7912-42.1978-84.3956v379.78022h84.3956z" fill="#666"/><path d="m1603.5165 421.978h168.7912v-84.3956h-168.7912v-42.1978h126.5934v-84.39561h-126.5934v-84.3956h168.7912v-84.395604h-168.7912-42.1978-84.3956v379.780214h84.3956z" fill="#fff"/><path d="m1814.5055 506.37361h42.1978v42.1978h253.1868v-42.1978h42.1978v-42.1978h42.1978v-84.39561-84.3956h-42.1978v-42.1978h42.1978v-84.39561-84.395602h-42.1978v-42.197802h-42.1978v-42.197802h-253.1868v42.197802h-42.1978v42.197802h-42.1978v84.395602 210.98901 84.39561h42.1978zm210.989-210.98901h-42.1978v-42.1978h42.1978z" fill="#120f26"/><path d="m2109.8901 126.59339h-253.1868v42.1978h-42.1978v295.38462h42.1978v42.1978h253.1868v-42.1978h42.1978v-84.39561h-126.5934v42.1978h-84.3956v-210.98901h84.3956v42.19781h126.5934v-84.39561h-42.1978z" fill="#666"/><path d="m2109.8901 42.197786h-253.1868v42.197802h-42.1978v295.384612h42.1978v42.1978h253.1868v-42.1978h42.1978v-84.3956h-126.5934v42.1978h-84.3956v-210.98901h84.3956v42.1978h126.5934v-84.395602h-42.1978z" fill="#fff"/><path d="m2236.4835 421.97804v84.39561h42.1978v42.1978h126.5934v-42.1978h42.1978v-84.39561-168.7912h42.1978v-42.19781h42.1978v-84.3956-84.395604h-42.1978v-42.197802h-295.3846v42.197802h-42.1978v84.395604 84.3956h42.1978v42.19781h42.1978z" fill="#120f26"/><path d="m2405.2747 210.98903h84.3956v-84.3956h-295.3846v84.3956h84.3956v295.38462h126.5934z" fill="#666"/><path d="m2405.2747 126.59343h84.3956v-84.395604h-295.3846v84.395604h84.3956v295.38461h126.5934z" fill="#fff"/><path d="m2700.6593 126.59339v-84.395604h-42.1978v-42.197802h-126.5934v42.197802h-42.1978v84.395604 295.38461 84.39561h42.1978v42.1978h126.5934v-42.1978h42.1978v-84.39561z" fill="#120f26"/><path d="m2531.8681 126.59339h126.5934v379.78022h-126.5934z" fill="#666"/><path d="m2531.8681 42.197786h126.5934v379.780214h-126.5934z" fill="#fff"/><path d="m2996.044 42.197826v-42.197802h-253.1868v42.197802h-42.1978v42.197802h-42.1978v84.395602 210.98901 84.39561h42.1978v42.1978h42.1978v42.1978h253.1868v-42.1978h42.1978v-42.1978h42.1978v-84.39561-210.98901-84.395602h-42.1978v-42.197802z" fill="#120f26"/><path d="m2996.044 506.37365v-42.1978h42.1978v-295.38462h-42.1978v-42.1978h-253.1868v42.1978h-42.1978v295.38462h42.1978v42.1978zm-168.7912-84.39561v-210.98901h84.3956v210.98901z" fill="#666"/><path d="m2996.044 421.97804v-42.1978h42.1978v-295.384612h-42.1978v-42.197802h-253.1868v42.197802h-42.1978v295.384612h42.1978v42.1978zm-168.7912-84.3956v-210.98901h84.3956v210.98901z" fill="#fff"/><path d="m3038.2417 506.37361h42.1978v42.1978h126.5934v-42.1978h42.1978 42.1978v42.1978h126.5934v-42.1978h42.1978v-84.39561-295.38461-84.395604h-42.1978v-42.197802h-126.5934v42.197802h-42.1978-42.1978v-42.197802h-126.5934v42.197802h-42.1978v84.395604 295.38461z" fill="#120f26"/><path d="m3418.0219 506.37361v-379.78022h-126.5934v168.79121h-42.1978v-84.39561h-42.1978v-84.3956h-126.5934v379.78022h126.5934v-126.59341h42.1978v84.39561h42.1978v42.1978z" fill="#666"/><path d="m3418.0219 421.978v-379.780214h-126.5934v168.791204h-42.1978v-84.3956h-42.1978v-84.395604h-126.5934v379.780214h126.5934v-126.5934h42.1978v84.3956h42.1978v42.1978z" fill="#fff"/><path d="m3755.6044 548.57145v-42.1978h42.1978v-42.1978h42.1978v-84.39561-42.1978-84.3956-84.39561-84.395602h-42.1978v-42.197802h-42.1978v-42.197802h-253.1868v42.197802h-42.1978v42.197802h-42.1978v84.395602 42.1978 84.39561 84.3956 84.39561h42.1978v42.1978h42.1978v42.1978z" fill="#120f26"/><path d="m3586.8132 337.58244v42.1978h84.3956v42.1978h-84.3956v-42.1978h-126.5934v84.39561h42.1978v42.1978h253.1868v-42.1978h42.1978v-126.59341h-42.1978v-42.1978h-84.3956v-42.1978h-84.3956v-42.19781h84.3956v42.19781h126.5934v-84.39561h-42.1978v-42.1978h-253.1868v42.1978h-42.1978v126.59341h42.1978v42.1978z" fill="#666"/><path d="m3586.8132 253.18684v42.1978h84.3956v42.1978h-84.3956v-42.1978h-126.5934v84.3956h42.1978v42.1978h253.1868v-42.1978h42.1978v-126.5934h-42.1978v-42.19781h-84.3956v-42.1978h-84.3956v-42.1978h84.3956v42.1978h126.5934v-84.395602h-42.1978v-42.197802h-253.1868v42.197802h-42.1978v126.593402h42.1978v42.19781z" fill="#fff"/></g></svg>