<svg height="805.16132" viewBox="0 0 3840 805.16131" width="3840" xmlns="http://www.w3.org/2000/svg"><g stroke-width="6.19355"><path d="m3282.5806 61.935479h-61.9355v123.870971 433.54838 123.87096h61.9355v61.93549h185.8064v-61.93549h61.9355v-61.93548h123.871v-61.93548h61.9355 61.9355v-61.93549h61.9354v-123.87096-185.80645-123.87097h-61.9354v-61.935481h-61.9355v-61.935483h-247.742-61.9354-123.871z" fill="#120f26"/><path d="m3468.387 619.35483h185.8065v-61.93549h123.871v-309.67741h-61.9355v-61.93548h-247.742-61.9354-123.871v557.41934h185.8064zm123.871-309.67742v123.87097h-61.9355v61.93548h-61.9355v-185.80645z" fill="#666"/><path d="m3468.387 495.48386h185.8065v-61.93548h123.871v-309.67742h-61.9355v-61.935481h-247.742-61.9354-123.871v557.419351h185.8064zm123.871-309.67741v123.87096h-61.9355v61.93548h-61.9355v-185.80644z" fill="#fff"/><path d="m619.35478 123.871h-61.93548v-61.935481h-61.93548v-61.935483h-247.74193-123.87097-61.935484v61.935483h-61.9354825v123.870961 433.54839 123.87096h61.9354825v61.93548h61.935484 123.87097 185.80644v-61.93548h61.93549 61.93548v-61.93548h61.93548v-123.87097-309.67741z" fill="#120f26"/><path d="m495.48382 247.74197v-61.93549h-247.74193-123.87097-61.935484v557.41935h61.935484 123.87097 185.80644v-61.93548h123.87097v-433.54838zm-247.74193 61.93548h123.87096v247.74193h-61.93548v61.93549h-61.93548z" fill="#666"/><path d="m495.48382 123.871v-61.935481h-247.74193-123.87097-61.935484v557.419351h61.935484 123.87097 185.80644v-61.93549h123.87097v-433.54838zm-247.74193 61.93548h123.87096v247.74194h-61.93548v61.93548h-61.93548z" fill="#fff"/><path d="m1114.8386 495.4839h-61.9354v-61.93548-61.93549-61.93548h61.9354v-123.87097-123.870961h-61.9354v-61.935483h-247.74197-61.93548-123.87097v61.935483h-61.93548v123.870961 433.54839 123.87096h61.93548v61.93548h123.87097 61.93548 247.74197v-61.93548h61.9354v-123.87096z" fill="#120f26"/><path d="m1052.9032 619.35487h-247.74197v-61.93549h185.80645v-123.87096h-185.80645v-123.87097h247.74197v-123.87097h-247.74197-61.93548-123.87097v557.41935h123.87097 61.93548 247.74197z" fill="#666"/><path d="m1052.9032 495.4839h-247.74197v-61.93548h185.80645v-123.87097h-185.80645v-123.87097h247.74197v-123.870961h-247.74197-61.93548-123.87097v557.419351h123.87097 61.93548 247.74197z" fill="#fff"/><path d="m1610.3225 123.87096v-61.935481h-61.9355v-61.935483h-371.6129v61.935483h-61.9355v61.935481h-61.9354v123.87097 61.93548 123.87097 123.87096 123.87097h61.9354v61.93548h61.9355v61.93549h371.6129v-61.93549h61.9355v-61.93548h61.9355v-123.87097-61.93548-123.87097-123.87096-123.87097z" fill="#120f26"/><path d="m1114.8386 557.41934v123.87097h61.9355v61.93548h371.6129v-61.93548h61.9355v-185.80645h-61.9355v-61.93548h-123.8709v-61.93549h-123.871v-61.93548h123.871v61.93548h185.8064v-123.87096h-61.9355v-61.93548h-371.6129v61.93548h-61.9355v185.80645h61.9355v61.93548h123.871v61.93548h123.871v61.93549h-123.871v-61.93549z" fill="#666"/><path d="m1114.8386 433.54838v123.87096h61.9355v61.93549h371.6129v-61.93549h61.9355v-185.80645h-61.9355v-61.93548h-123.8709v-61.93548h-123.871v-61.93548h123.871v61.93548h185.8064v-123.87097h-61.9355v-61.935481h-371.6129v61.935481h-61.9355v185.80645h61.9355v61.93548h123.871v61.93549h123.871v61.93548h-123.871v-61.93548z" fill="#fff"/><path d="m2167.742 371.61293v-61.93548h61.9354v-123.87097-123.870961h-61.9354v-61.935483h-123.871v61.935483h-61.9355v61.935481h-61.9355v-61.935481h-61.9355v-61.935483h-185.8064v61.935483h-61.9355v123.870961 433.54839 123.87096h61.9355v61.93548h185.8064v-61.93548h61.9355 61.9355v61.93548h185.8065v-61.93548h61.9354v-123.87096-123.87097h-61.9354v-61.93548h-61.9355v-61.93549z" fill="#120f26"/><path d="m1858.0645 371.61293v-185.80645h-185.8064v557.41935h185.8064v-123.87096h61.9355v61.93548h61.9355v61.93548h185.8065v-123.87096h-61.9355v-61.93549h-61.9355v-61.93548h-61.9355v-61.93548h61.9355v-61.93549h61.9355v-61.93548h61.9355v-123.87097h-123.871v61.93549h-61.9355v61.93548h-61.9355v61.93548z" fill="#666"/><path d="m1858.0645 247.74197v-185.806451h-185.8064v557.419351h185.8064v-123.87097h61.9355v61.93548h61.9355v61.93549h185.8065v-123.87097h-61.9355v-61.93548h-61.9355v-61.93549h-61.9355v-61.93548h61.9355v-61.93548h61.9355v-61.93549h61.9355v-123.870961h-123.871v61.935481h-61.9355v61.93548h-61.9355v61.93549z" fill="#fff"/><path d="m2167.7419 61.935479v123.870971 123.87096h61.9355v61.93548h61.9355v247.74194 123.87096h61.9355v61.93549h185.8064v-61.93549h61.9355v-123.87096-247.74194h61.9355v-61.93548h61.9355v-123.87096-123.870971h-61.9355v-61.935483h-433.5484v61.935483z" fill="#120f26"/><path d="m2663.2258 185.80645h-433.5484v123.87096h123.871v433.54838h185.8064v-433.54838h123.871z" fill="#666"/><path d="m2663.2258 61.935479h-433.5484v123.870971h123.871v433.54838h185.8064v-433.54838h123.871z" fill="#fff"/><path d="m3220.6451 123.87096v-61.935481h-61.9355v-61.935483h-371.6129v61.935483h-61.9354v61.935481h-61.9355v123.87097 309.67741 123.87097h61.9355v61.93548h61.9354v61.93549h371.6129v-61.93549h61.9355v-61.93548h61.9355v-123.87097-309.67741-123.87097z" fill="#120f26"/><path d="m3158.7096 743.22579v-61.93548h61.9355v-433.54838h-61.9355v-61.93548h-371.6129v61.93548h-61.9354v433.54838h61.9354v61.93548zm-247.7419-123.87096v-309.67742h123.871v309.67742z" fill="#666"/><path d="m3158.7096 619.35483v-61.93549h61.9355v-433.54838h-61.9355v-61.935481h-371.6129v61.935481h-61.9354v433.54838h61.9354v61.93549zm-247.7419-123.87097v-309.67741h123.871v309.67741z" fill="#fff"/></g></svg>