<svg enable-background="new 0 0 3838.7 694.4" height="694" viewBox="0 0 3840.0003 693.99998" width="3840.0002" xmlns="http://www.w3.org/2000/svg"><g fill="#fff" transform="scale(1.0003382 .99942396)"><path d="m627.8 9.9c36.6 0 66.3 29.7 66.1 66.4v212.8c36.4 23.2 60.6 63.7 60.6 110s-24.3 86.7-60.6 110v46.4c33.8 2.1 60.6 29.8 60.6 64.1 0 35.7-28.8 64.6-64.5 64.6h-239c0-38-30.8-68.8-68.8-68.8s-68.8 30.8-68.8 68.8h-238.9c-35.6 0-64.5-28.9-64.5-64.6 0-34.3 26.8-62.1 60.6-64.2v-46.4c-36.3-23.2-60.6-63.7-60.6-110 0-46.2 24.3-86.7 60.5-110v-212.6c0-36.7 29.7-66.4 66.4-66.4h490.9m-553.3 650.9h218.5c10.3-39.6 46.5-68.8 89.3-68.8s78.9 29.2 89.3 68.8h218.5c22.6 0 41-18.4 41-41.1 0-21.5-16.9-39.3-38.5-40.7l-22.1-1.4v-22-46.4-12.9l10.8-7c31.1-20 49.7-53.6 49.7-90.2s-18.6-70.3-49.7-90.2l-10.8-7v-12.9-212.7c0-23.7-19.2-42.9-42.8-42.9h-490.8c-23.7 0-42.9 19.3-42.9 42.9v212.5 12.9l-10.8 7c-31 20-49.6 53.6-49.6 90.2s18.5 70.3 49.6 90.2l10.8 7v12.9 46.4 22.2l-22.1 1.4c-21.5 1.4-38.4 19.2-38.4 40.7 0 22.7 18.3 41.1 41 41.1m553.3-660.9h-490.9c-42.2 0-76.4 34.3-76.4 76.4v207.4c-38 26.5-60.5 69.2-60.5 115.3 0 46.2 22.5 89 60.6 115.3v32.4c-15.3 2.9-29.4 10.5-40.2 22-13.2 13.8-20.4 31.9-20.4 51 0 41.1 33.4 74.6 74.5 74.6h238.9 9.9v-9.9c0-32.5 26.4-58.9 58.9-58.9s58.9 26.4 58.9 58.9v9.9h9.9 238.9c19.9 0 38.6-7.8 52.7-21.9s21.8-32.8 21.8-52.7c0-19.1-7.2-37.2-20.3-51-10.9-11.4-24.9-19-40.2-21.9v-32.4c38-26.5 60.6-69.2 60.6-115.3 0-46.3-22.5-89-60.6-115.3v-207.5c.1-20.4-7.7-39.5-22.1-54-14.5-14.4-33.6-22.4-54-22.4zm-553.3 650.9c-17.1 0-31-14-31-31.1 0-16.2 12.8-29.7 29.1-30.8l22.1-1.4 9.3-.6v-9.3-22.2-46.4-12.9-5.4l-4.6-2.9-10.8-7c-28.2-18-45.1-48.6-45.1-81.8 0-33.1 16.8-63.7 45.1-81.8l10.8-7 4.6-2.9v-5.4-12.9-212.7c0-18.2 14.8-32.9 32.9-32.9h490.9c18.1 0 32.8 14.8 32.8 32.9v212.7 12.9 5.4l4.6 2.9 10.8 7c28.3 18.1 45.2 48.7 45.2 81.8s-16.9 63.7-45.2 81.8l-10.8 7-4.6 2.9v5.4 12.9 46.4 22 9.3l9.3.6 22.1 1.4c16.3 1.1 29.2 14.6 29.2 30.7 0 17.2-13.9 31.1-31 31.1h-211.2c-14.2-40.9-52.9-68.8-96.7-68.8-23 0-44.8 7.5-62.9 21.7-15.6 12.2-27.3 28.7-33.7 47.1h-211.2z"/><path d="m326.7 236.7c5.4 0 10.5 1.4 15 3.8-4.8-18-14.2-34.4-27.8-48-20.2-20.3-47.2-31.4-75.8-31.4s-55.6 11.2-75.8 31.4c-20.3 20.3-31.4 47.3-31.4 75.9s11.1 55.5 31.4 75.8c20.2 20.3 47.2 31.4 75.8 31.4s55.5-11.1 75.8-31.4c13.6-13.5 23-30.1 27.8-48.1-4.5 2.4-9.6 3.8-15 3.8-17.5 0-31.6-14.1-31.6-31.6s14.1-31.6 31.6-31.6z"/><path d="m526.5 161.1c-28.6 0-55.6 11.2-75.8 31.4-13.5 13.5-22.9 30-27.7 48 4.4-2.4 9.5-3.8 14.9-3.8 17.5 0 31.6 14.1 31.6 31.6s-14.1 31.6-31.6 31.6c-5.4 0-10.5-1.4-15-3.8 4.8 18 14.2 34.5 27.8 48.1 20.2 20.3 47.3 31.4 75.8 31.4 28.6 0 55.5-11.1 75.8-31.4 20.3-20.2 31.4-47.2 31.4-75.8 0-28.8-11.1-55.6-31.4-75.9-20.2-20.3-47.2-31.4-75.8-31.4z"/><path d="m692.4 579.1-22.1-1.4v-22.2l.2-46.3v-12.9l10.8-7c31.1-19.9 49.7-53.6 49.7-90.2s-18.6-70.2-49.7-90.2l-10.8-7v-12.9-212.6c0-23.6-19.2-42.9-42.8-42.9h-490.8c-23.6 0-42.9 19.2-42.9 42.9v212.7 12.9l-10.8 7c-31.1 19.9-49.6 53.6-49.6 90.2s18.6 70.2 49.6 90.2l10.8 7v12.9 46.4 22l-22.1 1.4c-21.6 1.4-38.4 19.2-38.4 40.7 0 22.7 18.4 41.1 41 41.1h218.4c10.4-39.6 46.5-68.8 89.3-68.8s79 29.2 89.3 68.8h218.4c22.7 0 41-18.4 41-41.1 0-21.5-16.9-39.3-38.5-40.7zm-454.3-180c-72.2 0-130.8-58.6-130.8-130.8s58.6-130.8 130.8-130.8 130.8 58.6 130.8 130.8-58.6 130.8-130.8 130.8zm288.4 0c-72.2 0-130.8-58.6-130.8-130.8s58.6-130.8 130.8-130.8c72.3 0 130.9 58.6 130.9 130.8s-58.7 130.8-130.9 130.8z"/><path d="m1032.6 229.7c37.9 0 68.6 30.7 68.7 68.6v317.4c0 37.9-30.7 68.6-68.6 68.6h-199.6v-454.6zm-176 431.1h176c24.9 0 45.1-20.2 45.1-45.1h-.1v-317.4c0-24.9-20.2-45.1-45.1-45.1h-175.9zm176-441h-199.5-9.9v9.9 454.6 9.9h9.9 199.5c43.3 0 78.6-35.2 78.6-78.6v-317.2c-.1-43.4-35.4-78.6-78.6-78.6zm-166 43.4h166c19.4 0 35.1 15.7 35.1 35.1v317.5 2.7c-1.4 18.1-16.5 32.4-35 32.4h-166.1z"/><path d="m1478.8 229.6c37.9 0 68.6 30.7 68.6 68.6v160.8l-122.3-82.2v-7.1-17.9c0-5.9-4-11.2-9.7-12.2-.7-.1-1.4-.2-2.1-.2-6.4 0-11.6 5.3-11.6 11.7v30.5l115.3 77.4c19 12.7 30.4 34.1 30.4 57.1v32.4-22 89.2c0 37.9-30.7 68.6-68.6 68.6h-130.9c-37.9 0-68.6-30.7-68.6-68.6v-160.7l122.3 82.2v7.1 17.9c0 5.9 4 11.3 9.7 12.2.7.1 1.3.2 2 .2 6.5 0 11.7-5.2 11.7-11.7v-30.5l-115.3-77.4c-19-12.7-30.4-34.1-30.4-57v-99.8c0-37.9 30.7-68.6 68.6-68.6zm-65.3 368.6c-2 0-3.9-.2-5.8-.5-17.1-2.8-29.5-17.7-29.5-35.4v-12.5l-75.3-50.5v116.5c0 24.9 20.2 45.1 45.1 45.1h130.9c24.9 0 45.1-20.2 45.1-45.1v-89.2-10.6c0-15.1-7.5-29.1-20-37.5l-115.4-77.3-10.4-7v-12.5-30.5c0-10.3 4.6-20.1 12.4-26.9 6.5-5.4 14.5-8.4 22.9-8.4 2 0 3.9.2 5.8.5 17.1 2.8 29.5 17.6 29.5 35.4v12.5l75.3 50.5v-116.4c0-24.9-20.2-45.1-45.1-45.1h-131c-24.9 0-45.1 20.2-45.1 45.1v99.9c0 15.1 7.5 29.1 20 37.5l115.4 77.3 10.4 7v12.5 30.4c0 10.3-4.6 20.1-12.4 26.9-6.4 5.3-14.5 8.3-22.8 8.3m65.3-378.5h-130.9c-43.3 0-78.6 35.2-78.6 78.6v99.7c0 18.9 6.8 36.9 18.7 50.9l-3.2-2.2-15.5-10.4v18.7 160.7c0 43.3 35.2 78.6 78.6 78.6h130.9c43.3 0 78.6-35.2 78.6-78.6v-67.2-32.4c0-19-6.8-37-18.7-51l3.2 2.2 15.5 10.4v-18.7-160.7c0-43.4-35.3-78.6-78.6-78.6zm-65.3 388.5c10.6 0 21-3.8 29.2-10.7l.1-.1.1-.1c10.1-8.7 15.9-21.2 15.9-34.4v-30.5-12.4-5.3l-4.4-3-10.4-7-115.4-77.3c-9.8-6.5-15.6-17.4-15.6-29.2v-99.9c0-19.4 15.7-35.1 35.1-35.1h130.9c19.4 0 35.1 15.7 35.1 35.1v97.9l-55.4-37.2v-7.2c0-22.6-15.9-41.7-37.9-45.2-2.7-.4-5-.6-7.4-.6-10.6 0-21 3.8-29.2 10.7l-.1.1-.1.1c-10.1 8.7-15.9 21.2-15.9 34.4v30.5 12.5 5.3l4.4 3 10.4 7 115.4 77.3c9.8 6.5 15.6 17.4 15.6 29.2v10.5 89.2c0 19.4-15.7 35.1-35.1 35.1h-130.9c-19.4 0-35.1-15.7-35.1-35.1v-97.8l55.4 37.2v7.2c0 22.6 15.9 41.7 37.9 45.2 2.7.4 5.1.6 7.4.6zm-1.9-231.8v-25.2c0-1 .8-1.8 1.7-1.8h.4c.8.1 1.5 1.3 1.5 2.4v17.9 7.1 2zm1.8 188.2c-.1 0-.3 0-.4 0-.5-.1-1.3-1.1-1.3-2.4v-17.9-7.1-2l3.6 2.4v25.2c-.1 1-.9 1.8-1.9 1.8z"/><path d="m2820.6 229.6c37.9 0 68.6 30.7 68.6 68.6v160.8l-122.3-82.2v-7.1-17.9c0-5.9-4-11.2-9.7-12.2-.7-.1-1.4-.2-2.1-.2-6.4 0-11.6 5.3-11.6 11.7v30.5l115.4 77.3c19 12.7 30.3 34.1 30.4 57.1v32.4-22 89.2c0 37.9-30.7 68.6-68.6 68.6h-130.9c-37.9 0-68.6-30.7-68.6-68.6v-160.6l122.3 82.2v7.1 17.9c0 5.9 4 11.3 9.7 12.2.7.1 1.3.2 2 .2 6.5 0 11.7-5.2 11.7-11.7v-30.5l-115.4-77.4c-19-12.7-30.4-34.1-30.4-57v-99.8c0-37.9 30.7-68.6 68.6-68.6zm-65.4 368.6c-1.9 0-3.9-.2-5.8-.5-17.1-2.8-29.5-17.7-29.5-35.4v-12.5l-75.3-50.5v116.5c0 24.9 20.2 45.1 45.1 45.1h130.9c24.9 0 45.1-20.2 45.1-45.1v-89.2l.1-10.5c0-15.1-7.5-29.1-20-37.5l-115.4-77.3-10.4-7v-12.5-30.5c0-10.3 4.6-20.1 12.4-26.9 6.5-5.4 14.5-8.4 22.9-8.4 1.9 0 3.9.2 5.8.5 17.1 2.8 29.5 17.6 29.5 35.4v12.5l75.2 50.5v-116.5c0-24.9-20.2-45.1-45.1-45.1h-130.9c-24.9 0-45.1 20.2-45.1 45.1v99.9c0 15.1 7.5 29.1 20 37.5l115.4 77.3 10.4 7v12.5 30.4c0 10.3-4.6 20.1-12.4 26.9-6.5 5.3-14.5 8.3-22.9 8.3m65.4-378.5h-130.9c-43.3 0-78.6 35.2-78.6 78.6v99.7c0 18.9 6.8 36.9 18.7 50.9l-3.2-2.2-15.5-10.4v18.7 160.7c0 43.3 35.2 78.6 78.6 78.6h130.9c43.3 0 78.6-35.2 78.6-78.6v-67.2-32.4c-.1-19-6.9-37-18.8-51l3.3 2.2 15.5 10.4v-18.7-160.7c-.1-43.4-35.3-78.6-78.6-78.6zm-65.4 388.5c10.6 0 21-3.8 29.2-10.7l.1-.1.1-.1c10.1-8.7 15.9-21.2 15.9-34.4v-30.5-12.4-5.3l-4.4-3-10.4-7-115.4-77.3c-9.8-6.5-15.6-17.4-15.6-29.2v-99.9c0-19.4 15.7-35.1 35.1-35.1h130.9c19.4 0 35.1 15.7 35.1 35.1v97.9l-55.3-37.2v-7.2c0-22.6-15.9-41.7-37.9-45.2-2.6-.4-5.1-.6-7.4-.6-10.6 0-21 3.8-29.2 10.7l-.1.1-.1.1c-10.1 8.7-15.9 21.2-15.9 34.4v30.5 12.5 5.3l4.4 3 10.4 7 115.4 77.3c9.7 6.5 15.6 17.4 15.6 29.2l-.1 10.5v89.2c0 19.4-15.7 35.1-35.1 35.1h-130.9c-19.4 0-35.1-15.7-35.1-35.1v-97.8l55.4 37.2v7.2c0 22.6 15.9 41.7 37.9 45.2 2.7.4 5.2.6 7.4.6zm-1.9-231.8v-25.2c0-1 .8-1.8 1.7-1.8h.4c.8.1 1.5 1.3 1.5 2.4v17.9 7.1 2zm1.8 188.2c-.1 0-.3 0-.4 0-.5-.1-1.3-1.1-1.3-2.4v-17.9-7.1-2l3.6 2.4v25.2c-.1 1-.9 1.8-1.9 1.8z"/><path d="m2237.4 229.6c37.9 0 68.6 30.7 68.6 68.6v160.8l-122.3-82.2v-7.1-17.9c0-5.9-4-11.2-9.7-12.2-.7-.1-1.4-.2-2.1-.2-6.4 0-11.6 5.3-11.6 11.7v30.5l115.4 77.3c19 12.7 30.4 34.1 30.4 57.1v32.4-22 89.2c0 37.9-30.7 68.6-68.6 68.6h-130.9c-37.9 0-68.6-30.7-68.6-68.6v-160.6l122.3 82.2v7.1 17.9c0 5.9 4 11.3 9.7 12.2.7.1 1.3.2 2 .2 6.5 0 11.7-5.2 11.7-11.7v-30.5l-115.4-77.4c-19-12.7-30.4-34.1-30.4-57v-99.8c0-37.9 30.7-68.6 68.6-68.6zm-65.4 368.6c-1.9 0-3.9-.2-5.8-.5-17.1-2.8-29.5-17.7-29.5-35.4v-12.5l-75.3-50.5v116.5c0 24.9 20.2 45.1 45.1 45.1h131c24.9 0 45.1-20.2 45.1-45.1v-89.2-10.6c0-15.1-7.5-29.1-20-37.5l-115.4-77.3-10.4-7v-12.5-30.5c0-10.3 4.6-20.1 12.4-26.9 6.5-5.4 14.5-8.4 22.9-8.4 1.9 0 3.9.2 5.8.5 17.1 2.8 29.5 17.6 29.5 35.4v12.5l75.2 50.5v-116.4c0-24.9-20.2-45.1-45.1-45.1h-130.9c-24.9 0-45.1 20.2-45.1 45.1v99.9c0 15.1 7.5 29.1 20 37.5l115.4 77.3 10.4 7v12.5 30.4c0 10.3-4.6 20.1-12.4 26.9-6.5 5.3-14.5 8.3-22.9 8.3m65.4-378.5h-130.9c-43.3 0-78.6 35.2-78.6 78.6v99.7c0 18.9 6.8 36.9 18.7 50.9l-3.2-2.2-15.5-10.4v18.7 160.7c0 43.3 35.2 78.6 78.6 78.6h130.9c43.3 0 78.6-35.2 78.6-78.6v-67.2-32.4c0-19-6.8-37-18.7-51l3.2 2.2 15.5 10.4v-18.7-160.7c-.1-43.4-35.3-78.6-78.6-78.6zm-65.4 388.5c10.6 0 21-3.8 29.2-10.7l.1-.1.1-.1c10.1-8.7 15.9-21.2 15.9-34.4v-30.5-12.4-5.3l-4.4-3-10.4-7-115.5-77.2c-9.8-6.5-15.6-17.4-15.6-29.2v-99.9c0-19.4 15.7-35.1 35.1-35.1h130.9c19.4 0 35.1 15.7 35.1 35.1v97.9l-55.3-37.2v-7.2c0-22.6-15.9-41.7-37.9-45.2-2.6-.4-5.1-.6-7.4-.6-10.6 0-21 3.8-29.2 10.7l-.1.1-.1.1c-10.1 8.7-15.9 21.2-15.9 34.4v30.5 12.5 5.3l4.4 3 10.4 7 115.4 77.3c9.8 6.5 15.6 17.4 15.6 29.2v10.5 89.2c0 19.4-15.7 35.1-35.1 35.1h-131c-19.4 0-35.1-15.7-35.1-35.1v-97.8l55.4 37.2v7.2c0 22.6 15.9 41.7 37.9 45.2 2.8.3 5.3.5 7.5.5zm-1.9-231.8v-25.2c0-1 .8-1.8 1.7-1.8h.4c.8.1 1.5 1.3 1.5 2.4v17.9 7.1 2zm1.8 188.2c-.1 0-.3 0-.4 0-.5-.1-1.3-1.1-1.3-2.4v-17.9-7.1-2l3.6 2.4v25.2c-.1 1-.9 1.8-1.9 1.8z"/><path d="m1254.3 229.7v454.6h-122.3v-454.6zm-98.7 431.2h75.3v-407.7h-75.3zm108.7-441.1h-9.9-122.4-9.9v9.9 454.6 9.9h9.9 122.3 9.9v-9.9-454.6zm-98.8 43.4h55.4v387.8h-55.4z"/><path d="m3151.5 229.7v109.9h-59.6v344.7h-122.3v-344.7h-59.6v-109.9h59.6 122.3zm-218.1 86.4h59.6v344.8h75.3v-344.8h59.6l-.1-62.9h-194.3v62.9m227.9-96.3h-9.9-59.6-122.3-59.6-9.9v9.9 109.9 9.9h9.9 49.6v334.8 9.9h9.9 122.3 9.9v-9.9-334.7h49.6 9.9v-9.9-110-9.9zm-218.1 43.4h174.5l.1 43h-49.6-9.9v9.9 334.9h-55.4v-334.9-9.9h-9.9-49.6v-43z"/><path d="m964.2 316.1c21.1 0 38.2 17.2 38.2 38.2v205.7c0 21.1-17.1 38.2-38.2 38.2h-32.3v-282.1zm-8.7 258.6h8.8c8.2 0 14.7-6.6 14.7-14.7v-205.6c0-8.2-6.6-14.7-14.7-14.7h-8.8zm8.7-268.6h-32.3-9.9v9.9 282.1 9.9h9.9 32.3c26.5 0 48.1-21.6 48.1-48.1v-205.6c.1-26.6-21.5-48.2-48.1-48.2zm1.2 258.5v-214.9c2.1.5 3.6 2.4 3.6 4.6v205.6c0 2.3-1.5 4.1-3.6 4.7z"/><path d="m1835.7 229.7v169.5l-57.9 57.9 57.9 57.9v169.4h-122.3v-118.7l-23.5-23.5v142.1h-122.3v-454.6h122.3v142.1l23.5-23.5v-118.6zm-169.3 198.9v-175.4h-75.3v407.6h75.3v-175.4l70.5 70.5v104.8h75.3v-136.1l-67.6-67.6 67.6-67.6v-136.2h-75.3v104.8zm179.2-208.8h-9.9-122.3-9.9v9.9 114.5l-3.6 3.6v-118.1-9.9h-9.9-122.3-9.9v9.9 454.6 9.9h9.9 122.3 9.9v-9.9-118l3.6 3.6v114.5 9.9h9.9 122.3 9.9v-9.9-169.4-4.1l-2.9-2.9-50.8-50.8 50.8-50.8 2.9-2.9v-4.1-169.7zm-98.8 43.4h55.4v122.1l-64.7 64.7-7 7 7 7 64.7 64.7v122.1h-55.4v-94.8-4.1l-2.9-2.9-70.5-70.5-17-17v24 165.4h-55.4v-387.7h55.4v165.4 24l17-17 70.5-70.5 2.9-2.9v-4.2z"/><path d="m2596.2 229.7v385.9c0 37.9-30.7 68.6-68.6 68.6h-175.9v-109.6h122.3v-23.5h-77.2c-37.9 0-68.6-30.7-68.6-68.6v-23-65.9-163.9h122.3v199.1h23.5v-199.1zm-169.2 222.7v-23.6-175.6h-75.3v140.3 65.9 23c0 24.9 20.2 45.1 45.1 45.1h77.2 23.6v23.6 23.5 23.6h-23.6-98.8v62.7h152.5c24.9 0 45.1-20.2 45.1-45.1l.2-362.5h-75.3v175.6 23.6h-23.6-23.5-23.6m179.1-232.7h-9.9-122.2-9.9v9.9 189.2h-3.6v-189.2-9.9h-9.9-122.3-9.9v9.9 163.8 65.9 23c0 43.3 35.2 78.6 78.6 78.6h67.2v3.6h-112.4-9.9v9.9 109.7 9.9h9.9 175.9c43.3 0 78.6-35.2 78.6-78.6v-385.8-9.9zm-98.5 43.4h55.4l-.2 352.6c0 19.4-15.7 35.1-35.1 35.1h-142.5v-42.8h88.8 23.6 9.9v-9.9-23.6-23.5-23.6-9.9h-9.9-23.6-77.2c-19.4 0-35.1-15.7-35.1-35.1v-23-65.9-130.4h55.4v165.7 23.6 9.9h9.9 23.6 23.5 23.6 9.9v-9.9-23.6z"/><path d="m3383.6 229.7v109.9h-89.7v62.5h89.7v109.9h-89.7v62.7h89.7v109.7h-211.9v-454.7zm-188.5 431.2h164.9v-62.7h-89.7v-109.7h89.7v-62.9h-89.7v-109.5h89.7v-62.9h-164.9zm198.4-441.1h-9.9-211.9-9.9v9.9 454.6 9.9h9.9 211.9 9.9v-9.9-109.6-9.9h-9.9-79.8v-42.8h79.8 9.9v-10-109.9-9.9h-9.9-79.8v-42.6h79.8 9.9v-9.9-110zm-188.4 43.4h145v43h-79.8-9.9v9.9 109.6 9.9h9.9 79.8v43h-79.8-9.9v9.9 109.7 9.9h9.9 79.8v42.8h-145z"/><path d="m3760.4 229.7c37.9 0 68.6 30.7 68.6 68.6v386h-122.3v-333c0-6.6-5.3-11.8-11.8-11.8-6.6 0-11.8 5.3-11.8 11.8v333.1h-122.3v-333c0-6.6-5.3-11.8-11.8-11.8-6.6 0-11.8 5.3-11.8 11.8v332.9h-122.3v-454.6h162c17.3 0 33.1 6.5 45.2 17 12.1-10.5 27.8-17 45.2-17zm-138.5 65.8c-.4 0-.9-.3-1-.8-2.1-7.6-7.1-23.6-13.8-29.7-8-7.3-18.6-11.7-30.2-11.7h-138.4v407.6h75.3v-309.5c0-19.5 15.8-35.3 35.3-35.3 1.5 0 3.1.1 4.7.3 17.9 2.3 30.7 18.3 30.7 36.3v308.1h75.1v-309.4c0-19.5 15.8-35.3 35.3-35.3 1.5 0 3.1.1 4.7.3 17.9 2.3 30.7 18.3 30.7 36.3v308.2h75.3-.1v-362.6c0-24.9-20.2-45.1-45.1-45.1h-93.4c-11.6 0-22.2 4.5-30.2 11.7-6.8 6.3-11.6 22.2-13.7 29.7-.3.6-.7.9-1.2.9m138.5-75.7h-93.4c-16.1 0-31.9 5-45.1 14.3-13.2-9.3-28.9-14.3-45.2-14.3h-162-9.9v9.9 454.6 9.9h9.9 122.3 9.9v-9.9-332.8c0-1.1.8-1.9 1.9-1.9s1.9.8 1.9 1.9v333 9.9h9.9 122.3 9.9v-9.9-333.1c0-1.1.8-1.9 1.9-1.9s1.9.8 1.9 1.9v333 9.9h9.9 122.3 9.9v-9.9-386c.3-43.4-34.9-78.6-78.3-78.6zm-117 52.5c6.6-5.9 14.9-9.1 23.5-9.1h93.4c19.4 0 35.1 15.7 35.1 35.1v352.7h-55.3v-298.3c0-23.4-16.9-43.3-39.4-46.2-2-.3-4-.4-5.9-.4-12.1 0-23.4 4.7-32 13.3-8.5 8.6-13.2 19.9-13.2 32v299.5h-55.2v-298.2c0-23.4-16.9-43.3-39.4-46.2-2-.3-4-.4-5.9-.4-12.1 0-23.4 4.7-32 13.3-8.5 8.6-13.2 19.9-13.2 32v299.5h-55.4v-387.7h128.5c8.7 0 17.1 3.2 23.5 9.1 2.5 2.3 6.8 10.2 10.9 25 1.3 4.8 5.7 8.1 10.6 8.1 5 0 9.3-3.4 10.6-8.2 4.1-14.6 8.2-22.5 10.8-24.9z"/><path d="m2820.5 660.9c24.9 0 45.1-20.2 45.1-45.1v-89.2-10.4c0-15-7.5-29-20-37.5l-115.4-77.3-10.4-7v-12.5-30.5c0-10.3 4.6-20.2 12.4-26.9 6.5-5.5 14.5-8.4 22.9-8.4 1.9 0 3.8.1 5.8.5 17.1 2.8 29.5 17.7 29.5 35.4v12.5l75.2 50.5v-116.4c0-24.9-20.2-45.1-45.1-45.1h-130.9c-24.9 0-45.1 20.2-45.1 45.1v99.8c0 15 7.5 29 20 37.5l115.4 77.3 10.4 7v12.5 30.5c0 10.3-4.6 20.2-12.4 26.9-6.5 5.5-14.5 8.4-22.9 8.4-1.9 0-3.8-.2-5.8-.5-17.1-2.8-29.5-17.7-29.5-35.4v-12.5l-75.3-50.5v116.6c0 24.9 20.2 45.1 45.1 45.1z"/><path d="m2237.4 660.9c24.9 0 45.1-20.2 45.1-45.1v-89.2-10.4c0-15-7.5-29-20-37.5l-115.4-77.3-10.4-7v-12.5-30.5c0-10.3 4.6-20.2 12.4-26.9 6.5-5.5 14.5-8.4 22.9-8.4 1.9 0 3.8.1 5.8.5 17.1 2.8 29.5 17.7 29.5 35.4v12.5l75.2 50.5v-116.4c0-24.9-20.2-45.1-45.1-45.1h-130.9c-24.9 0-45.1 20.2-45.1 45.1v99.8c0 15 7.5 29 20 37.5l115.4 77.3 10.4 7v12.5 30.5c0 10.3-4.6 20.2-12.4 26.9-6.5 5.5-14.5 8.4-22.9 8.4-1.9 0-3.8-.2-5.8-.5-17.1-2.8-29.5-17.7-29.5-35.4v-12.5l-75.3-50.5v116.6c0 24.9 20.2 45.1 45.1 45.1z"/><path d="m2572.7 615.7v-362.5h-75.3v175.6 23.6h-23.6-23.5-23.6v-23.6-175.6h-75.3v140.3 65.9 23c0 24.9 20.2 45.1 45.1 45.1h77.2 23.6v23.6 23.5 23.6h-23.6-98.7v62.7h152.5c25 0 45.2-20.3 45.2-45.2z"/><path d="m1736.9 660.9h75.3v-136.2l-67.6-67.6 67.6-67.7v-136.2h-75.3v104.8l-70.5 70.7v-175.5h-75.3v407.7h75.3v-175.5l70.5 70.7z"/><path d="m1155.6 253.2h75.3v407.6h-75.3z"/><path d="m1478.7 660.9c24.9 0 45.1-20.2 45.1-45.1v-89.2-10.4c0-15-7.5-29-20-37.5l-115.4-77.3-10.4-7v-12.5-30.5c0-10.3 4.6-20.2 12.4-26.9 6.5-5.5 14.5-8.4 22.9-8.4 1.9 0 3.8.1 5.8.5 17.1 2.8 29.5 17.7 29.5 35.4v12.5l75.3 50.5v-116.4c0-24.9-20.2-45.1-45.1-45.1h-130.9c-24.9 0-45.1 20.2-45.1 45.1v99.8c0 15 7.5 29 20 37.5l115.4 77.3 10.4 7v12.5 30.5c0 10.3-4.6 20.2-12.4 26.9-6.5 5.5-14.5 8.4-22.9 8.4-1.9 0-3.8-.2-5.8-.5-17.1-2.8-29.5-17.7-29.5-35.4v-12.5l-75.3-50.5v116.6c0 24.9 20.2 45.1 45.1 45.1z"/><path d="m1077.7 615.7v-317.3c0-24.9-20.2-45.1-45.1-45.1h-176v407.6h175.9c24.9 0 45.2-20.3 45.2-45.2zm-75.3-55.8c0 21.1-17.1 38.2-38.2 38.2h-32.3v-282h32.3c21.1 0 38.2 17.1 38.2 38.2z"/><path d="m3730.3 352.7v308.2h75.3v-362.5c0-24.9-20.2-45.1-45.1-45.1h-93.4c-11.6 0-22.3 4.5-30.2 11.7-6.9 6.2-11.7 22.1-13.7 29.7-.3 1.1-1.8 1.1-2.1 0-2.1-7.6-7.1-23.6-13.8-29.7-8.1-7.3-18.6-11.7-30.2-11.7h-138.4v407.6h75.3v-309.5c0-21 18.4-37.8 40-35 17.8 2.3 30.7 18.3 30.7 36.3v308.2h75.3v-309.5c0-21 18.4-37.8 40-35 17.4 2.3 30.3 18.3 30.3 36.3z"/><path d="m2993 660.9h75.3v-344.8h59.5v-62.9h-194.2v62.9h59.4z"/><path d="m3360 598.1h-89.7v-109.7h89.7v-62.7h-89.7v-109.6h89.7v-62.9h-164.9v407.7h164.9z"/><path d="m1443.5 92.8c-.4 45.8 36.4 83.4 82.3 83.9 30.7-.1 58.8-17.5 72.7-44.9l.3-.7h-36.2c-9.8 9.7-23 15.2-36.8 15.3-29.6-.8-53.1-25.5-52.3-55.1.8-28.5 23.8-51.6 52.3-52.3 13.6 0 26.8 5.5 36.4 15.1l36.6.1-.3-.7c-13.9-27.4-42-44.7-72.7-44.8-45.8.7-82.6 38.1-82.3 84.1zm157 .4c.9 45.5 38.5 81.6 83.9 80.7 45.5-.9 81.6-38.5 80.7-83.9-.9-44.9-37.5-80.7-82.2-80.8-46 .5-82.8 38.1-82.4 84zm29.7 0c.6-29 24.7-52.1 53.7-51.5s52.1 24.7 51.5 53.7c-.6 28.6-24 51.5-52.6 51.5-29.3-.3-52.8-24.4-52.6-53.7zm728.1-83.3h-82.9v165.3h83.3v-31.8h-52.1v-33.1h52.1v-31.8h-52.1v-36.8h52.1v-31.9zm-1333.5 0h-24.6l-113.8 165.4h35.3s17.6-25.7 17.8-26h55.8v26h30v-165.4zm-63.2 107 33.6-49.1v52h-35.5c.6-.9 1.9-2.9 1.9-2.9zm981.7-107h-34.8s-48.5 112.2-49.3 114c-.8-1.8-49.5-114-49.5-114h-35.1v165.4h31.1v-82.3c.5-.1 3-.7 3.5-.8l36.1 83.1h27.7s35.8-82.3 36-83c.5.1 3 .7 3.5.8v82.2h31.1v-165.4zm228.7 0h-30.8v111.6c.2 11.8-9.3 21.6-21.1 21.8-11.7.2-21.6-9.2-21.8-21.1 0-.2 0-.4 0-.6v-111.7h-31.2v111.6c-.5 29.1 22.7 53 51.8 53.5s53-22.7 53.5-51.8c0-.6 0-1.1 0-1.7v-111.5zm196.6.1h-.5v165.9h31.2v-87.3c1.6 2.6 51.5 86.7 51.5 86.7h35.1s-35.2-59.4-35.7-60.3c.7-.2 2.1-.8 2.1-.8 27.8-10.4 42-41.5 31.6-69.3-7.7-20.5-27-34.3-48.8-35zm66.6 31.8c11.8.4 21.1 10.1 21 22 .2 11.8-9.1 21.6-21 21.9h-35.8v-43.8zm-481.5-31.8h-.4v165.3h31.2v-58.9h22.3c29.4-.6 52.8-24.9 52.2-54.2-.5-28.6-23.6-51.7-52.2-52.2zm53 31.8c11.8.2 21.3 10 21.1 21.9-.2 11.5-9.5 20.8-21.1 21h-22.3v-42.9zm259.4-31.8h-84.7v31.7h27v133.6h31.2v-133.5h27.1v-31.8zm-840.9 0h-32.3s-33.2 64.6-33.9 66.2c-.8-1.5-33.9-66.2-33.9-66.2h-33l51.3 101.6-.1 63.8h31.3l.1-63.9c.1 0 50.9-100.7 50.9-100.7l.3-.7zm-141.7 0h-30.7v165.3h73.4v-31.8h-42.2v-133.5zm-40.7 0h-29.2v165.3h29.6v-165.3zm-39.2 0h-34.8s-48.5 112.1-49.3 113.9l-49.6-113.9h-35.1v165.3h31.1v-82.3c.5-.1 3-.7 3.5-.8.3.7 36.1 83 36.1 83h27.7l36.1-83c.5.1 3 .7 3.5.8v82.2h31.1v-165.2zm-280.4 0h-85.2v165.3h31.7v-65.1h53.9v-31.6h-53.9v-38.1h53.9v-30.5z"/></g></svg>