<?xml version="1.0" encoding="UTF-8" standalone="no"?>
<svg
   enable-background="new 0 0 3838.7 694.4"
   height="695"
   viewBox="0 0 3840.0003 694.99998"
   width="3840.0002"
   version="1.1"
   id="svg26"
   sodipodi:docname="fds.svg"
   inkscape:version="1.3.2 (091e20e, 2023-11-25)"
   xmlns:inkscape="http://www.inkscape.org/namespaces/inkscape"
   xmlns:sodipodi="http://sodipodi.sourceforge.net/DTD/sodipodi-0.dtd"
   xmlns="http://www.w3.org/2000/svg"
   xmlns:svg="http://www.w3.org/2000/svg">
  <defs
     id="defs26" />
  <sodipodi:namedview
     id="namedview26"
     pagecolor="#ffffff"
     bordercolor="#000000"
     borderopacity="0.25"
     inkscape:showpageshadow="2"
     inkscape:pageopacity="0.0"
     inkscape:pagecheckerboard="true"
     inkscape:deskcolor="#d1d1d1"
     inkscape:zoom="0.21510415"
     inkscape:cx="1922.3246"
     inkscape:cy="348.6683"
     inkscape:window-width="1312"
     inkscape:window-height="449"
     inkscape:window-x="0"
     inkscape:window-y="39"
     inkscape:window-maximized="0"
     inkscape:current-layer="svg26" />
  <g
     id="g28">
    <g
       id="g27"
       transform="scale(1,1.0014409)">
      <g
         fill="#ffffff"
         transform="scale(1.0003382,0.99942396)"
         id="g26">
        <path
           d="m 627.8,9.9 c 36.6,0 66.3,29.7 66.1,66.4 v 212.8 c 36.4,23.2 60.6,63.7 60.6,110 0,46.3 -24.3,86.7 -60.6,110 v 46.4 c 33.8,2.1 60.6,29.8 60.6,64.1 0,35.7 -28.8,64.6 -64.5,64.6 H 451 c 0,-38 -30.8,-68.8 -68.8,-68.8 -38,0 -68.8,30.8 -68.8,68.8 H 74.5 C 38.9,684.2 10,655.3 10,619.6 10,585.3 36.8,557.5 70.6,555.4 V 509 C 34.3,485.8 10,445.3 10,399 10,352.8 34.3,312.3 70.5,289 V 76.4 C 70.5,39.7 100.2,10 136.9,10 H 627.8 M 74.5,660.9 H 293 c 10.3,-39.6 46.5,-68.8 89.3,-68.8 42.8,0 78.9,29.2 89.3,68.8 h 218.5 c 22.6,0 41,-18.4 41,-41.1 0,-21.5 -16.9,-39.3 -38.5,-40.7 l -22.1,-1.4 v -22 -46.4 -12.9 l 10.8,-7 c 31.1,-20 49.7,-53.6 49.7,-90.2 0,-36.6 -18.6,-70.3 -49.7,-90.2 l -10.8,-7 V 289.1 76.4 c 0,-23.7 -19.2,-42.9 -42.8,-42.9 H 136.9 C 113.2,33.5 94,52.8 94,76.4 v 212.5 12.9 l -10.8,7 c -31,20 -49.6,53.6 -49.6,90.2 0,36.6 18.5,70.3 49.6,90.2 l 10.8,7 v 12.9 46.4 22.2 l -22.1,1.4 c -21.5,1.4 -38.4,19.2 -38.4,40.7 0,22.7 18.3,41.1 41,41.1 M 627.8,0 H 136.9 C 94.7,0 60.5,34.3 60.5,76.4 V 283.8 C 22.5,310.3 0,353 0,399.1 c 0,46.2 22.5,89 60.6,115.3 v 32.4 c -15.3,2.9 -29.4,10.5 -40.2,22 C 7.2,582.6 0,600.7 0,619.8 c 0,41.1 33.4,74.6 74.5,74.6 h 238.9 9.9 v -9.9 c 0,-32.5 26.4,-58.9 58.9,-58.9 32.5,0 58.9,26.4 58.9,58.9 v 9.9 h 9.9 238.9 c 19.9,0 38.6,-7.8 52.7,-21.9 14.1,-14.1 21.8,-32.8 21.8,-52.7 0,-19.1 -7.2,-37.2 -20.3,-51 -10.9,-11.4 -24.9,-19 -40.2,-21.9 v -32.4 c 38,-26.5 60.6,-69.2 60.6,-115.3 0,-46.3 -22.5,-89 -60.6,-115.3 V 76.4 C 704,56 696.2,36.9 681.8,22.4 667.3,8 648.2,0 627.8,0 Z M 74.5,650.9 c -17.1,0 -31,-14 -31,-31.1 0,-16.2 12.8,-29.7 29.1,-30.8 l 22.1,-1.4 9.3,-0.6 v -9.3 -22.2 -46.4 -12.9 -5.4 l -4.6,-2.9 -10.8,-7 c -28.2,-18 -45.1,-48.6 -45.1,-81.8 0,-33.1 16.8,-63.7 45.1,-81.8 l 10.8,-7 4.6,-2.9 V 302 289.1 76.4 c 0,-18.2 14.8,-32.9 32.9,-32.9 h 490.9 c 18.1,0 32.8,14.8 32.8,32.9 v 212.7 12.9 5.4 l 4.6,2.9 10.8,7 c 28.3,18.1 45.2,48.7 45.2,81.8 0,33.1 -16.9,63.7 -45.2,81.8 l -10.8,7 -4.6,2.9 v 5.4 12.9 46.4 22 9.3 l 9.3,0.6 22.1,1.4 c 16.3,1.1 29.2,14.6 29.2,30.7 0,17.2 -13.9,31.1 -31,31.1 H 479 c -14.2,-40.9 -52.9,-68.8 -96.7,-68.8 -23,0 -44.8,7.5 -62.9,21.7 -15.6,12.2 -27.3,28.7 -33.7,47.1 H 74.5 Z"
           id="path1" />
        <path
           d="m 326.7,236.7 c 5.4,0 10.5,1.4 15,3.8 -4.8,-18 -14.2,-34.4 -27.8,-48 -20.2,-20.3 -47.2,-31.4 -75.8,-31.4 -28.6,0 -55.6,11.2 -75.8,31.4 -20.3,20.3 -31.4,47.3 -31.4,75.9 0,28.6 11.1,55.5 31.4,75.8 20.2,20.3 47.2,31.4 75.8,31.4 28.6,0 55.5,-11.1 75.8,-31.4 13.6,-13.5 23,-30.1 27.8,-48.1 -4.5,2.4 -9.6,3.8 -15,3.8 -17.5,0 -31.6,-14.1 -31.6,-31.6 0,-17.5 14.1,-31.6 31.6,-31.6 z"
           id="path2" />
        <path
           d="m 526.5,161.1 c -28.6,0 -55.6,11.2 -75.8,31.4 -13.5,13.5 -22.9,30 -27.7,48 4.4,-2.4 9.5,-3.8 14.9,-3.8 17.5,0 31.6,14.1 31.6,31.6 0,17.5 -14.1,31.6 -31.6,31.6 -5.4,0 -10.5,-1.4 -15,-3.8 4.8,18 14.2,34.5 27.8,48.1 20.2,20.3 47.3,31.4 75.8,31.4 28.6,0 55.5,-11.1 75.8,-31.4 20.3,-20.2 31.4,-47.2 31.4,-75.8 0,-28.8 -11.1,-55.6 -31.4,-75.9 -20.2,-20.3 -47.2,-31.4 -75.8,-31.4 z"
           id="path3" />
        <path
           d="m 692.4,579.1 -22.1,-1.4 v -22.2 l 0.2,-46.3 v -12.9 l 10.8,-7 c 31.1,-19.9 49.7,-53.6 49.7,-90.2 0,-36.6 -18.6,-70.2 -49.7,-90.2 l -10.8,-7 V 289 76.4 c 0,-23.6 -19.2,-42.9 -42.8,-42.9 H 136.9 C 113.3,33.5 94,52.7 94,76.4 V 289.1 302 l -10.8,7 c -31.1,19.9 -49.6,53.6 -49.6,90.2 0,36.6 18.6,70.2 49.6,90.2 l 10.8,7 v 12.9 46.4 22 l -22.1,1.4 c -21.6,1.4 -38.4,19.2 -38.4,40.7 0,22.7 18.4,41.1 41,41.1 h 218.4 c 10.4,-39.6 46.5,-68.8 89.3,-68.8 42.8,0 79,29.2 89.3,68.8 h 218.4 c 22.7,0 41,-18.4 41,-41.1 0,-21.5 -16.9,-39.3 -38.5,-40.7 z m -454.3,-180 c -72.2,0 -130.8,-58.6 -130.8,-130.8 0,-72.2 58.6,-130.8 130.8,-130.8 72.2,0 130.8,58.6 130.8,130.8 0,72.2 -58.6,130.8 -130.8,130.8 z m 288.4,0 c -72.2,0 -130.8,-58.6 -130.8,-130.8 0,-72.2 58.6,-130.8 130.8,-130.8 72.3,0 130.9,58.6 130.9,130.8 0,72.2 -58.7,130.8 -130.9,130.8 z"
           id="path4" />
        <path
           d="m 1032.6,229.7 c 37.9,0 68.6,30.7 68.7,68.6 v 317.4 c 0,37.9 -30.7,68.6 -68.6,68.6 H 833.1 V 229.7 Z m -176,431.1 h 176 c 24.9,0 45.1,-20.2 45.1,-45.1 h -0.1 V 298.3 c 0,-24.9 -20.2,-45.1 -45.1,-45.1 H 856.6 Z m 176,-441 h -199.5 -9.9 v 9.9 454.6 9.9 h 9.9 199.5 c 43.3,0 78.6,-35.2 78.6,-78.6 V 298.4 c -0.1,-43.4 -35.4,-78.6 -78.6,-78.6 z m -166,43.4 h 166 c 19.4,0 35.1,15.7 35.1,35.1 v 317.5 2.7 c -1.4,18.1 -16.5,32.4 -35,32.4 H 866.6 Z"
           id="path5" />
        <path
           d="m 1478.8,229.6 c 37.9,0 68.6,30.7 68.6,68.6 V 459 l -122.3,-82.2 v -7.1 -17.9 c 0,-5.9 -4,-11.2 -9.7,-12.2 -0.7,-0.1 -1.4,-0.2 -2.1,-0.2 -6.4,0 -11.6,5.3 -11.6,11.7 v 30.5 L 1517,459 c 19,12.7 30.4,34.1 30.4,57.1 v 32.4 -22 89.2 c 0,37.9 -30.7,68.6 -68.6,68.6 h -130.9 c -37.9,0 -68.6,-30.7 -68.6,-68.6 V 455 l 122.3,82.2 v 7.1 17.9 c 0,5.9 4,11.3 9.7,12.2 0.7,0.1 1.3,0.2 2,0.2 6.5,0 11.7,-5.2 11.7,-11.7 V 532.4 L 1309.7,455 c -19,-12.7 -30.4,-34.1 -30.4,-57 v -99.8 c 0,-37.9 30.7,-68.6 68.6,-68.6 z m -65.3,368.6 c -2,0 -3.9,-0.2 -5.8,-0.5 -17.1,-2.8 -29.5,-17.7 -29.5,-35.4 v -12.5 l -75.3,-50.5 v 116.5 c 0,24.9 20.2,45.1 45.1,45.1 h 130.9 c 24.9,0 45.1,-20.2 45.1,-45.1 V 526.6 516 c 0,-15.1 -7.5,-29.1 -20,-37.5 l -115.4,-77.3 -10.4,-7 v -12.5 -30.5 c 0,-10.3 4.6,-20.1 12.4,-26.9 6.5,-5.4 14.5,-8.4 22.9,-8.4 2,0 3.9,0.2 5.8,0.5 17.1,2.8 29.5,17.6 29.5,35.4 v 12.5 l 75.3,50.5 V 298.4 c 0,-24.9 -20.2,-45.1 -45.1,-45.1 h -131 c -24.9,0 -45.1,20.2 -45.1,45.1 v 99.9 c 0,15.1 7.5,29.1 20,37.5 l 115.4,77.3 10.4,7 v 12.5 30.4 c 0,10.3 -4.6,20.1 -12.4,26.9 -6.4,5.3 -14.5,8.3 -22.8,8.3 m 65.3,-378.5 h -130.9 c -43.3,0 -78.6,35.2 -78.6,78.6 V 398 c 0,18.9 6.8,36.9 18.7,50.9 l -3.2,-2.2 -15.5,-10.4 V 455 615.7 c 0,43.3 35.2,78.6 78.6,78.6 h 130.9 c 43.3,0 78.6,-35.2 78.6,-78.6 v -67.2 -32.4 c 0,-19 -6.8,-37 -18.7,-51 l 3.2,2.2 15.5,10.4 V 459 298.3 c 0,-43.4 -35.3,-78.6 -78.6,-78.6 z m -65.3,388.5 c 10.6,0 21,-3.8 29.2,-10.7 l 0.1,-0.1 0.1,-0.1 c 10.1,-8.7 15.9,-21.2 15.9,-34.4 V 532.4 520 514.7 l -4.4,-3 -10.4,-7 -115.4,-77.3 C 1318.8,420.9 1313,410 1313,398.2 v -99.9 c 0,-19.4 15.7,-35.1 35.1,-35.1 H 1479 c 19.4,0 35.1,15.7 35.1,35.1 v 97.9 L 1458.7,359 v -7.2 c 0,-22.6 -15.9,-41.7 -37.9,-45.2 -2.7,-0.4 -5,-0.6 -7.4,-0.6 -10.6,0 -21,3.8 -29.2,10.7 l -0.1,0.1 -0.1,0.1 c -10.1,8.7 -15.9,21.2 -15.9,34.4 v 30.5 12.5 5.3 l 4.4,3 10.4,7 115.4,77.3 c 9.8,6.5 15.6,17.4 15.6,29.2 v 10.5 89.2 c 0,19.4 -15.7,35.1 -35.1,35.1 h -130.9 c -19.4,0 -35.1,-15.7 -35.1,-35.1 V 518 l 55.4,37.2 v 7.2 c 0,22.6 15.9,41.7 37.9,45.2 2.7,0.4 5.1,0.6 7.4,0.6 z m -1.9,-231.8 v -25.2 c 0,-1 0.8,-1.8 1.7,-1.8 h 0.4 c 0.8,0.1 1.5,1.3 1.5,2.4 v 17.9 7.1 2 z m 1.8,188.2 c -0.1,0 -0.3,0 -0.4,0 -0.5,-0.1 -1.3,-1.1 -1.3,-2.4 v -17.9 -7.1 -2 l 3.6,2.4 v 25.2 c -0.1,1 -0.9,1.8 -1.9,1.8 z"
           id="path6" />
        <path
           d="m 2820.6,229.6 c 37.9,0 68.6,30.7 68.6,68.6 V 459 l -122.3,-82.2 v -7.1 -17.9 c 0,-5.9 -4,-11.2 -9.7,-12.2 -0.7,-0.1 -1.4,-0.2 -2.1,-0.2 -6.4,0 -11.6,5.3 -11.6,11.7 v 30.5 l 115.4,77.3 c 19,12.7 30.3,34.1 30.4,57.1 v 32.4 -22 89.2 c 0,37.9 -30.7,68.6 -68.6,68.6 h -130.9 c -37.9,0 -68.6,-30.7 -68.6,-68.6 V 455 l 122.3,82.2 v 7.1 17.9 c 0,5.9 4,11.3 9.7,12.2 0.7,0.1 1.3,0.2 2,0.2 6.5,0 11.7,-5.2 11.7,-11.7 V 532.4 L 2651.5,455 c -19,-12.7 -30.4,-34.1 -30.4,-57 v -99.8 c 0,-37.9 30.7,-68.6 68.6,-68.6 z m -65.4,368.6 c -1.9,0 -3.9,-0.2 -5.8,-0.5 -17.1,-2.8 -29.5,-17.7 -29.5,-35.4 v -12.5 l -75.3,-50.5 v 116.5 c 0,24.9 20.2,45.1 45.1,45.1 h 130.9 c 24.9,0 45.1,-20.2 45.1,-45.1 v -89.2 l 0.1,-10.5 c 0,-15.1 -7.5,-29.1 -20,-37.5 l -115.4,-77.3 -10.4,-7 v -12.5 -30.5 c 0,-10.3 4.6,-20.1 12.4,-26.9 6.5,-5.4 14.5,-8.4 22.9,-8.4 1.9,0 3.9,0.2 5.8,0.5 17.1,2.8 29.5,17.6 29.5,35.4 v 12.5 l 75.2,50.5 V 298.4 c 0,-24.9 -20.2,-45.1 -45.1,-45.1 h -130.9 c -24.9,0 -45.1,20.2 -45.1,45.1 v 99.9 c 0,15.1 7.5,29.1 20,37.5 l 115.4,77.3 10.4,7 v 12.5 30.4 c 0,10.3 -4.6,20.1 -12.4,26.9 -6.5,5.3 -14.5,8.3 -22.9,8.3 m 65.4,-378.5 h -130.9 c -43.3,0 -78.6,35.2 -78.6,78.6 V 398 c 0,18.9 6.8,36.9 18.7,50.9 l -3.2,-2.2 -15.5,-10.4 V 455 615.7 c 0,43.3 35.2,78.6 78.6,78.6 h 130.9 c 43.3,0 78.6,-35.2 78.6,-78.6 v -67.2 -32.4 c -0.1,-19 -6.9,-37 -18.8,-51 l 3.3,2.2 15.5,10.4 V 459 298.3 c -0.1,-43.4 -35.3,-78.6 -78.6,-78.6 z m -65.4,388.5 c 10.6,0 21,-3.8 29.2,-10.7 l 0.1,-0.1 0.1,-0.1 c 10.1,-8.7 15.9,-21.2 15.9,-34.4 V 532.4 520 514.7 l -4.4,-3 -10.4,-7 -115.4,-77.3 c -9.8,-6.5 -15.6,-17.4 -15.6,-29.2 v -99.9 c 0,-19.4 15.7,-35.1 35.1,-35.1 h 130.9 c 19.4,0 35.1,15.7 35.1,35.1 v 97.9 L 2800.5,359 v -7.2 c 0,-22.6 -15.9,-41.7 -37.9,-45.2 -2.6,-0.4 -5.1,-0.6 -7.4,-0.6 -10.6,0 -21,3.8 -29.2,10.7 l -0.1,0.1 -0.1,0.1 c -10.1,8.7 -15.9,21.2 -15.9,34.4 v 30.5 12.5 5.3 l 4.4,3 10.4,7 115.4,77.3 c 9.7,6.5 15.6,17.4 15.6,29.2 l -0.1,10.5 v 89.2 c 0,19.4 -15.7,35.1 -35.1,35.1 h -130.9 c -19.4,0 -35.1,-15.7 -35.1,-35.1 V 518 l 55.4,37.2 v 7.2 c 0,22.6 15.9,41.7 37.9,45.2 2.7,0.4 5.2,0.6 7.4,0.6 z m -1.9,-231.8 v -25.2 c 0,-1 0.8,-1.8 1.7,-1.8 h 0.4 c 0.8,0.1 1.5,1.3 1.5,2.4 v 17.9 7.1 2 z m 1.8,188.2 c -0.1,0 -0.3,0 -0.4,0 -0.5,-0.1 -1.3,-1.1 -1.3,-2.4 v -17.9 -7.1 -2 l 3.6,2.4 v 25.2 c -0.1,1 -0.9,1.8 -1.9,1.8 z"
           id="path7" />
        <path
           d="m 2237.4,229.6 c 37.9,0 68.6,30.7 68.6,68.6 V 459 l -122.3,-82.2 v -7.1 -17.9 c 0,-5.9 -4,-11.2 -9.7,-12.2 -0.7,-0.1 -1.4,-0.2 -2.1,-0.2 -6.4,0 -11.6,5.3 -11.6,11.7 v 30.5 l 115.4,77.3 c 19,12.7 30.4,34.1 30.4,57.1 v 32.4 -22 89.2 c 0,37.9 -30.7,68.6 -68.6,68.6 h -130.9 c -37.9,0 -68.6,-30.7 -68.6,-68.6 V 455 l 122.3,82.2 v 7.1 17.9 c 0,5.9 4,11.3 9.7,12.2 0.7,0.1 1.3,0.2 2,0.2 6.5,0 11.7,-5.2 11.7,-11.7 V 532.4 L 2068.3,455 c -19,-12.7 -30.4,-34.1 -30.4,-57 v -99.8 c 0,-37.9 30.7,-68.6 68.6,-68.6 z M 2172,598.2 c -1.9,0 -3.9,-0.2 -5.8,-0.5 -17.1,-2.8 -29.5,-17.7 -29.5,-35.4 v -12.5 l -75.3,-50.5 v 116.5 c 0,24.9 20.2,45.1 45.1,45.1 h 131 c 24.9,0 45.1,-20.2 45.1,-45.1 V 526.6 516 c 0,-15.1 -7.5,-29.1 -20,-37.5 l -115.4,-77.3 -10.4,-7 v -12.5 -30.5 c 0,-10.3 4.6,-20.1 12.4,-26.9 6.5,-5.4 14.5,-8.4 22.9,-8.4 1.9,0 3.9,0.2 5.8,0.5 17.1,2.8 29.5,17.6 29.5,35.4 v 12.5 l 75.2,50.5 V 298.4 c 0,-24.9 -20.2,-45.1 -45.1,-45.1 h -130.9 c -24.9,0 -45.1,20.2 -45.1,45.1 v 99.9 c 0,15.1 7.5,29.1 20,37.5 l 115.4,77.3 10.4,7 v 12.5 30.4 c 0,10.3 -4.6,20.1 -12.4,26.9 -6.5,5.3 -14.5,8.3 -22.9,8.3 m 65.4,-378.5 h -130.9 c -43.3,0 -78.6,35.2 -78.6,78.6 V 398 c 0,18.9 6.8,36.9 18.7,50.9 l -3.2,-2.2 -15.5,-10.4 V 455 615.7 c 0,43.3 35.2,78.6 78.6,78.6 h 130.9 c 43.3,0 78.6,-35.2 78.6,-78.6 v -67.2 -32.4 c 0,-19 -6.8,-37 -18.7,-51 l 3.2,2.2 15.5,10.4 V 459 298.3 c -0.1,-43.4 -35.3,-78.6 -78.6,-78.6 z M 2172,608.2 c 10.6,0 21,-3.8 29.2,-10.7 l 0.1,-0.1 0.1,-0.1 c 10.1,-8.7 15.9,-21.2 15.9,-34.4 V 532.4 520 514.7 l -4.4,-3 -10.4,-7 -115.5,-77.2 c -9.8,-6.5 -15.6,-17.4 -15.6,-29.2 v -99.9 c 0,-19.4 15.7,-35.1 35.1,-35.1 h 130.9 c 19.4,0 35.1,15.7 35.1,35.1 v 97.9 l -55.3,-37.2 v -7.2 c 0,-22.6 -15.9,-41.7 -37.9,-45.2 -2.6,-0.4 -5.1,-0.6 -7.4,-0.6 -10.6,0 -21,3.8 -29.2,10.7 l -0.1,0.1 -0.1,0.1 c -10.1,8.7 -15.9,21.2 -15.9,34.4 v 30.5 12.5 5.3 l 4.4,3 10.4,7 115.4,77.3 c 9.8,6.5 15.6,17.4 15.6,29.2 v 10.5 89.2 c 0,19.4 -15.7,35.1 -35.1,35.1 h -131 c -19.4,0 -35.1,-15.7 -35.1,-35.1 v -97.8 l 55.4,37.2 v 7.2 c 0,22.6 15.9,41.7 37.9,45.2 2.8,0.3 5.3,0.5 7.5,0.5 z m -1.9,-231.8 v -25.2 c 0,-1 0.8,-1.8 1.7,-1.8 h 0.4 c 0.8,0.1 1.5,1.3 1.5,2.4 v 17.9 7.1 2 z m 1.8,188.2 c -0.1,0 -0.3,0 -0.4,0 -0.5,-0.1 -1.3,-1.1 -1.3,-2.4 v -17.9 -7.1 -2 l 3.6,2.4 v 25.2 c -0.1,1 -0.9,1.8 -1.9,1.8 z"
           id="path8" />
        <path
           d="M 1254.3,229.7 V 684.3 H 1132 V 229.7 Z m -98.7,431.2 h 75.3 V 253.2 h -75.3 z m 108.7,-441.1 h -9.9 -122.4 -9.9 v 9.9 454.6 9.9 h 9.9 122.3 9.9 v -9.9 -454.6 z m -98.8,43.4 h 55.4 V 651 h -55.4 z"
           id="path9" />
        <path
           d="m 3151.5,229.7 v 109.9 h -59.6 V 684.3 H 2969.6 V 339.6 H 2910 V 229.7 h 59.6 122.3 z m -218.1,86.4 h 59.6 v 344.8 h 75.3 V 316.1 h 59.6 l -0.1,-62.9 h -194.3 v 62.9 m 227.9,-96.3 h -9.9 -59.6 -122.3 -59.6 -9.9 v 9.9 109.9 9.9 h 9.9 49.6 v 334.8 9.9 h 9.9 122.3 9.9 v -9.9 -334.7 h 49.6 9.9 v -9.9 -110 -9.9 z m -218.1,43.4 h 174.5 l 0.1,43 h -49.6 -9.9 V 316.1 651 H 3003 v -334.9 -9.9 h -9.9 -49.6 v -43 z"
           id="path10" />
        <path
           d="m 964.2,316.1 c 21.1,0 38.2,17.2 38.2,38.2 V 560 c 0,21.1 -17.1,38.2 -38.2,38.2 H 931.9 V 316.1 Z m -8.7,258.6 h 8.8 c 8.2,0 14.7,-6.6 14.7,-14.7 V 354.4 c 0,-8.2 -6.6,-14.7 -14.7,-14.7 h -8.8 z m 8.7,-268.6 H 931.9 922 v 9.9 282.1 9.9 h 9.9 32.3 c 26.5,0 48.1,-21.6 48.1,-48.1 V 354.3 c 0.1,-26.6 -21.5,-48.2 -48.1,-48.2 z m 1.2,258.5 V 349.7 c 2.1,0.5 3.6,2.4 3.6,4.6 v 205.6 c 0,2.3 -1.5,4.1 -3.6,4.7 z"
           id="path11" />
        <path
           d="m 1835.7,229.7 v 169.5 l -57.9,57.9 57.9,57.9 V 684.4 H 1713.4 V 565.7 l -23.5,-23.5 V 684.3 H 1567.6 V 229.7 h 122.3 v 142.1 l 23.5,-23.5 V 229.7 Z M 1666.4,428.6 V 253.2 h -75.3 v 407.6 h 75.3 V 485.4 l 70.5,70.5 v 104.8 h 75.3 V 524.6 l -67.6,-67.6 67.6,-67.6 V 253.2 h -75.3 V 358 Z m 179.2,-208.8 h -9.9 -122.3 -9.9 v 9.9 114.5 l -3.6,3.6 v -118.1 -9.9 h -9.9 -122.3 -9.9 v 9.9 454.6 9.9 h 9.9 122.3 9.9 v -9.9 -118 l 3.6,3.6 v 114.5 9.9 h 9.9 122.3 9.9 V 684.4 515 510.9 l -2.9,-2.9 -50.8,-50.8 50.8,-50.8 2.9,-2.9 v -4.1 -169.7 z m -98.8,43.4 h 55.4 v 122.1 l -64.7,64.7 -7,7 7,7 64.7,64.7 v 122.1 h -55.4 V 556 551.9 l -2.9,-2.9 -70.5,-70.5 -17,-17 v 24 165.4 H 1601 V 263.2 h 55.4 v 165.4 24 l 17,-17 70.5,-70.5 2.9,-2.9 V 358 Z"
           id="path12" />
        <path
           d="m 2596.2,229.7 v 385.9 c 0,37.9 -30.7,68.6 -68.6,68.6 H 2351.7 V 574.6 H 2474 v -23.5 h -77.2 c -37.9,0 -68.6,-30.7 -68.6,-68.6 v -23 -65.9 -163.9 h 122.3 V 428.8 H 2474 V 229.7 Z M 2427,452.4 V 428.8 253.2 h -75.3 v 140.3 65.9 23 c 0,24.9 20.2,45.1 45.1,45.1 h 77.2 23.6 v 23.6 23.5 23.6 h -23.6 -98.8 v 62.7 h 152.5 c 24.9,0 45.1,-20.2 45.1,-45.1 l 0.2,-362.5 h -75.3 v 175.6 23.6 h -23.6 -23.5 -23.6 m 179.1,-232.7 h -9.9 -122.2 -9.9 v 9.9 189.2 h -3.6 v -189.2 -9.9 h -9.9 -122.3 -9.9 v 9.9 163.8 65.9 23 c 0,43.3 35.2,78.6 78.6,78.6 h 67.2 v 3.6 h -112.4 -9.9 v 9.9 109.7 9.9 h 9.9 175.9 c 43.3,0 78.6,-35.2 78.6,-78.6 v -385.8 -9.9 z m -98.5,43.4 h 55.4 l -0.2,352.6 c 0,19.4 -15.7,35.1 -35.1,35.1 h -142.5 v -42.8 h 88.8 23.6 9.9 v -9.9 -23.6 -23.5 -23.6 -9.9 h -9.9 -23.6 -77.2 c -19.4,0 -35.1,-15.7 -35.1,-35.1 v -23 -65.9 -130.4 h 55.4 v 165.7 23.6 9.9 h 9.9 23.6 23.5 23.6 9.9 v -9.9 -23.6 z"
           id="path13" />
        <path
           d="m 3383.6,229.7 v 109.9 h -89.7 v 62.5 h 89.7 V 512 h -89.7 v 62.7 h 89.7 V 684.4 H 3171.7 V 229.7 Z M 3195.1,660.9 H 3360 v -62.7 h -89.7 V 488.5 h 89.7 v -62.9 h -89.7 V 316.1 h 89.7 v -62.9 h -164.9 z m 198.4,-441.1 h -9.9 -211.9 -9.9 v 9.9 454.6 9.9 h 9.9 211.9 9.9 v -9.9 -109.6 -9.9 h -9.9 -79.8 V 522 h 79.8 9.9 v -10 -109.9 -9.9 h -9.9 -79.8 v -42.6 h 79.8 9.9 v -9.9 -110 z m -188.4,43.4 h 145 v 43 h -79.8 -9.9 v 9.9 109.6 9.9 h 9.9 79.8 v 43 h -79.8 -9.9 v 9.9 109.7 9.9 h 9.9 79.8 v 42.8 h -145 z"
           id="path14" />
        <path
           d="m 3760.4,229.7 c 37.9,0 68.6,30.7 68.6,68.6 v 386 h -122.3 v -333 c 0,-6.6 -5.3,-11.8 -11.8,-11.8 -6.6,0 -11.8,5.3 -11.8,11.8 v 333.1 h -122.3 v -333 c 0,-6.6 -5.3,-11.8 -11.8,-11.8 -6.6,0 -11.8,5.3 -11.8,11.8 V 684.3 H 3414.9 V 229.7 h 162 c 17.3,0 33.1,6.5 45.2,17 12.1,-10.5 27.8,-17 45.2,-17 z m -138.5,65.8 c -0.4,0 -0.9,-0.3 -1,-0.8 -2.1,-7.6 -7.1,-23.6 -13.8,-29.7 -8,-7.3 -18.6,-11.7 -30.2,-11.7 h -138.4 v 407.6 h 75.3 V 351.4 c 0,-19.5 15.8,-35.3 35.3,-35.3 1.5,0 3.1,0.1 4.7,0.3 17.9,2.3 30.7,18.3 30.7,36.3 v 308.1 h 75.1 V 351.4 c 0,-19.5 15.8,-35.3 35.3,-35.3 1.5,0 3.1,0.1 4.7,0.3 17.9,2.3 30.7,18.3 30.7,36.3 v 308.2 h 75.3 -0.1 V 298.3 c 0,-24.9 -20.2,-45.1 -45.1,-45.1 H 3667 c -11.6,0 -22.2,4.5 -30.2,11.7 -6.8,6.3 -11.6,22.2 -13.7,29.7 -0.3,0.6 -0.7,0.9 -1.2,0.9 m 138.5,-75.7 H 3667 c -16.1,0 -31.9,5 -45.1,14.3 -13.2,-9.3 -28.9,-14.3 -45.2,-14.3 h -162 -9.9 v 9.9 454.6 9.9 h 9.9 122.3 9.9 v -9.9 -332.8 c 0,-1.1 0.8,-1.9 1.9,-1.9 1.1,0 1.9,0.8 1.9,1.9 v 333 9.9 h 9.9 122.3 9.9 v -9.9 -333.1 c 0,-1.1 0.8,-1.9 1.9,-1.9 1.1,0 1.9,0.8 1.9,1.9 v 333 9.9 h 9.9 122.3 9.9 v -9.9 -386 c 0.3,-43.4 -34.9,-78.6 -78.3,-78.6 z m -117,52.5 c 6.6,-5.9 14.9,-9.1 23.5,-9.1 h 93.4 c 19.4,0 35.1,15.7 35.1,35.1 V 651 h -55.3 V 352.7 c 0,-23.4 -16.9,-43.3 -39.4,-46.2 -2,-0.3 -4,-0.4 -5.9,-0.4 -12.1,0 -23.4,4.7 -32,13.3 -8.5,8.6 -13.2,19.9 -13.2,32 v 299.5 h -55.2 V 352.7 c 0,-23.4 -16.9,-43.3 -39.4,-46.2 -2,-0.3 -4,-0.4 -5.9,-0.4 -12.1,0 -23.4,4.7 -32,13.3 -8.5,8.6 -13.2,19.9 -13.2,32 v 299.5 h -55.4 V 263.2 H 3577 c 8.7,0 17.1,3.2 23.5,9.1 2.5,2.3 6.8,10.2 10.9,25 1.3,4.8 5.7,8.1 10.6,8.1 5,0 9.3,-3.4 10.6,-8.2 4.1,-14.6 8.2,-22.5 10.8,-24.9 z"
           id="path15" />
        <path
           d="m 2820.5,660.9 c 24.9,0 45.1,-20.2 45.1,-45.1 v -89.2 -10.4 c 0,-15 -7.5,-29 -20,-37.5 l -115.4,-77.3 -10.4,-7 v -12.5 -30.5 c 0,-10.3 4.6,-20.2 12.4,-26.9 6.5,-5.5 14.5,-8.4 22.9,-8.4 1.9,0 3.8,0.1 5.8,0.5 17.1,2.8 29.5,17.7 29.5,35.4 v 12.5 l 75.2,50.5 V 298.6 c 0,-24.9 -20.2,-45.1 -45.1,-45.1 h -130.9 c -24.9,0 -45.1,20.2 -45.1,45.1 v 99.8 c 0,15 7.5,29 20,37.5 l 115.4,77.3 10.4,7 v 12.5 30.5 c 0,10.3 -4.6,20.2 -12.4,26.9 -6.5,5.5 -14.5,8.4 -22.9,8.4 -1.9,0 -3.8,-0.2 -5.8,-0.5 -17.1,-2.8 -29.5,-17.7 -29.5,-35.4 v -12.5 l -75.3,-50.5 v 116.6 c 0,24.9 20.2,45.1 45.1,45.1 z"
           id="path16" />
        <path
           d="m 2237.4,660.9 c 24.9,0 45.1,-20.2 45.1,-45.1 v -89.2 -10.4 c 0,-15 -7.5,-29 -20,-37.5 l -115.4,-77.3 -10.4,-7 v -12.5 -30.5 c 0,-10.3 4.6,-20.2 12.4,-26.9 6.5,-5.5 14.5,-8.4 22.9,-8.4 1.9,0 3.8,0.1 5.8,0.5 17.1,2.8 29.5,17.7 29.5,35.4 v 12.5 l 75.2,50.5 V 298.6 c 0,-24.9 -20.2,-45.1 -45.1,-45.1 h -130.9 c -24.9,0 -45.1,20.2 -45.1,45.1 v 99.8 c 0,15 7.5,29 20,37.5 l 115.4,77.3 10.4,7 v 12.5 30.5 c 0,10.3 -4.6,20.2 -12.4,26.9 -6.5,5.5 -14.5,8.4 -22.9,8.4 -1.9,0 -3.8,-0.2 -5.8,-0.5 -17.1,-2.8 -29.5,-17.7 -29.5,-35.4 v -12.5 l -75.3,-50.5 v 116.6 c 0,24.9 20.2,45.1 45.1,45.1 z"
           id="path17" />
        <path
           d="M 2572.7,615.7 V 253.2 h -75.3 v 175.6 23.6 h -23.6 -23.5 -23.6 V 428.8 253.2 h -75.3 v 140.3 65.9 23 c 0,24.9 20.2,45.1 45.1,45.1 h 77.2 23.6 v 23.6 23.5 23.6 h -23.6 -98.7 v 62.7 h 152.5 c 25,0 45.2,-20.3 45.2,-45.2 z"
           id="path18" />
        <path
           d="m 1736.9,660.9 h 75.3 V 524.7 l -67.6,-67.6 67.6,-67.7 V 253.2 h -75.3 V 358 l -70.5,70.7 V 253.2 h -75.3 v 407.7 h 75.3 V 485.4 l 70.5,70.7 z"
           id="path19" />
        <path
           d="m 1155.6,253.2 h 75.3 v 407.6 h -75.3 z"
           id="path20" />
        <path
           d="m 1478.7,660.9 c 24.9,0 45.1,-20.2 45.1,-45.1 v -89.2 -10.4 c 0,-15 -7.5,-29 -20,-37.5 l -115.4,-77.3 -10.4,-7 v -12.5 -30.5 c 0,-10.3 4.6,-20.2 12.4,-26.9 6.5,-5.5 14.5,-8.4 22.9,-8.4 1.9,0 3.8,0.1 5.8,0.5 17.1,2.8 29.5,17.7 29.5,35.4 v 12.5 l 75.3,50.5 V 298.6 c 0,-24.9 -20.2,-45.1 -45.1,-45.1 h -130.9 c -24.9,0 -45.1,20.2 -45.1,45.1 v 99.8 c 0,15 7.5,29 20,37.5 l 115.4,77.3 10.4,7 v 12.5 30.5 c 0,10.3 -4.6,20.2 -12.4,26.9 -6.5,5.5 -14.5,8.4 -22.9,8.4 -1.9,0 -3.8,-0.2 -5.8,-0.5 -17.1,-2.8 -29.5,-17.7 -29.5,-35.4 v -12.5 l -75.3,-50.5 v 116.6 c 0,24.9 20.2,45.1 45.1,45.1 z"
           id="path21" />
        <path
           d="M 1077.7,615.7 V 298.4 c 0,-24.9 -20.2,-45.1 -45.1,-45.1 h -176 v 407.6 h 175.9 c 24.9,0 45.2,-20.3 45.2,-45.2 z m -75.3,-55.8 c 0,21.1 -17.1,38.2 -38.2,38.2 h -32.3 v -282 h 32.3 c 21.1,0 38.2,17.1 38.2,38.2 z"
           id="path22" />
        <path
           d="m 3730.3,352.7 v 308.2 h 75.3 V 298.4 c 0,-24.9 -20.2,-45.1 -45.1,-45.1 h -93.4 c -11.6,0 -22.3,4.5 -30.2,11.7 -6.9,6.2 -11.7,22.1 -13.7,29.7 -0.3,1.1 -1.8,1.1 -2.1,0 -2.1,-7.6 -7.1,-23.6 -13.8,-29.7 -8.1,-7.3 -18.6,-11.7 -30.2,-11.7 H 3438.7 V 660.9 H 3514 V 351.4 c 0,-21 18.4,-37.8 40,-35 17.8,2.3 30.7,18.3 30.7,36.3 V 660.9 H 3660 V 351.4 c 0,-21 18.4,-37.8 40,-35 17.4,2.3 30.3,18.3 30.3,36.3 z"
           id="path23" />
        <path
           d="m 2993,660.9 h 75.3 V 316.1 h 59.5 v -62.9 h -194.2 v 62.9 h 59.4 z"
           id="path24" />
        <path
           d="m 3360,598.1 h -89.7 V 488.4 h 89.7 v -62.7 h -89.7 V 316.1 H 3360 V 253.2 H 3195.1 V 660.9 H 3360 Z"
           id="path25" />
        <path
           d="m 1443.5,92.8 c -0.4,45.8 36.4,83.4 82.3,83.9 30.7,-0.1 58.8,-17.5 72.7,-44.9 l 0.3,-0.7 h -36.2 c -9.8,9.7 -23,15.2 -36.8,15.3 -29.6,-0.8 -53.1,-25.5 -52.3,-55.1 0.8,-28.5 23.8,-51.6 52.3,-52.3 13.6,0 26.8,5.5 36.4,15.1 l 36.6,0.1 -0.3,-0.7 c -13.9,-27.4 -42,-44.7 -72.7,-44.8 -45.8,0.7 -82.6,38.1 -82.3,84.1 z m 157,0.4 c 0.9,45.5 38.5,81.6 83.9,80.7 45.5,-0.9 81.6,-38.5 80.7,-83.9 -0.9,-44.9 -37.5,-80.7 -82.2,-80.8 -46,0.5 -82.8,38.1 -82.4,84 z m 29.7,0 c 0.6,-29 24.7,-52.1 53.7,-51.5 29,0.6 52.1,24.7 51.5,53.7 -0.6,28.6 -24,51.5 -52.6,51.5 -29.3,-0.3 -52.8,-24.4 -52.6,-53.7 z M 2358.3,9.9 h -82.9 v 165.3 h 83.3 v -31.8 h -52.1 v -33.1 h 52.1 V 78.5 h -52.1 V 41.7 h 52.1 V 9.8 Z m -1333.5,0 h -24.6 L 886.4,175.3 h 35.3 c 0,0 17.6,-25.7 17.8,-26 h 55.8 v 26 h 30 V 9.9 Z m -63.2,107 33.6,-49.1 v 52 h -35.5 c 0.6,-0.9 1.9,-2.9 1.9,-2.9 z m 981.7,-107 h -34.8 c 0,0 -48.5,112.2 -49.3,114 -0.8,-1.8 -49.5,-114 -49.5,-114 h -35.1 v 165.4 h 31.1 V 93 c 0.5,-0.1 3,-0.7 3.5,-0.8 l 36.1,83.1 h 27.7 c 0,0 35.8,-82.3 36,-83 0.5,0.1 3,0.7 3.5,0.8 v 82.2 h 31.1 V 9.9 Z m 228.7,0 h -30.8 v 111.6 c 0.2,11.8 -9.3,21.6 -21.1,21.8 -11.7,0.2 -21.6,-9.2 -21.8,-21.1 0,-0.2 0,-0.4 0,-0.6 V 9.9 h -31.2 v 111.6 c -0.5,29.1 22.7,53 51.8,53.5 29.1,0.5 53,-22.7 53.5,-51.8 0,-0.6 0,-1.1 0,-1.7 V 10 Z m 196.6,0.1 h -0.5 v 165.9 h 31.2 V 88.6 c 1.6,2.6 51.5,86.7 51.5,86.7 h 35.1 c 0,0 -35.2,-59.4 -35.7,-60.3 0.7,-0.2 2.1,-0.8 2.1,-0.8 27.8,-10.4 42,-41.5 31.6,-69.3 -7.7,-20.5 -27,-34.3 -48.8,-35 z m 66.6,31.8 c 11.8,0.4 21.1,10.1 21,22 0.2,11.8 -9.1,21.6 -21,21.9 h -35.8 V 41.9 Z M 1953.7,10 h -0.4 v 165.3 h 31.2 v -58.9 h 22.3 c 29.4,-0.6 52.8,-24.9 52.2,-54.2 -0.5,-28.6 -23.6,-51.7 -52.2,-52.2 z m 53,31.8 c 11.8,0.2 21.3,10 21.1,21.9 -0.2,11.5 -9.5,20.8 -21.1,21 h -22.3 V 41.8 Z M 2266.1,10 h -84.7 v 31.7 h 27 v 133.6 h 31.2 V 41.8 h 27.1 V 10 Z m -840.9,0 h -32.3 c 0,0 -33.2,64.6 -33.9,66.2 -0.8,-1.5 -33.9,-66.2 -33.9,-66.2 h -33 l 51.3,101.6 -0.1,63.8 h 31.3 l 0.1,-63.9 c 0.1,0 50.9,-100.7 50.9,-100.7 l 0.3,-0.7 z m -141.7,0 h -30.7 v 165.3 h 73.4 V 143.5 H 1284 V 10 Z m -40.7,0 h -29.2 v 165.3 h 29.6 V 10 Z m -39.2,0 h -34.8 c 0,0 -48.5,112.1 -49.3,113.9 L 1069.9,10 h -35.1 v 165.3 h 31.1 V 93 c 0.5,-0.1 3,-0.7 3.5,-0.8 0.3,0.7 36.1,83 36.1,83 h 27.7 l 36.1,-83 c 0.5,0.1 3,0.7 3.5,0.8 v 82.2 h 31.1 V 10 Z M 923.2,10 H 838 v 165.3 h 31.7 v -65.1 h 53.9 V 78.6 H 869.7 V 40.5 h 53.9 V 10 Z"
           id="path26" />
      </g>
    </g>
  </g>
</svg>
