<?xml version="1.0" encoding="UTF-8" standalone="no"?>
<svg
   height="683"
   viewBox="0 0 3840 682.99999"
   width="3840"
   version="1.1"
   id="svg6"
   sodipodi:docname="gb.svg"
   inkscape:version="1.3.2 (091e20e, 2023-11-25)"
   xmlns:inkscape="http://www.inkscape.org/namespaces/inkscape"
   xmlns:sodipodi="http://sodipodi.sourceforge.net/DTD/sodipodi-0.dtd"
   xmlns="http://www.w3.org/2000/svg"
   xmlns:svg="http://www.w3.org/2000/svg">
  <defs
     id="defs6" />
  <sodipodi:namedview
     id="namedview6"
     pagecolor="#ffffff"
     bordercolor="#000000"
     borderopacity="0.25"
     inkscape:showpageshadow="2"
     inkscape:pageopacity="0.0"
     inkscape:pagecheckerboard="true"
     inkscape:deskcolor="#d1d1d1"
     inkscape:zoom="0.21510417"
     inkscape:cx="1917.6755"
     inkscape:cy="339.37046"
     inkscape:window-width="1312"
     inkscape:window-height="449"
     inkscape:window-x="0"
     inkscape:window-y="39"
     inkscape:window-maximized="0"
     inkscape:current-layer="svg6" />
  <g
     id="g8">
    <g
       id="g7"
       transform="scale(1,1.0014663)">
      <g
         fill="#ffffff"
         transform="matrix(1.0002596,0,0,0.99895536,0.003405,0.02299698)"
         id="g6">
        <path
           d="M 824.2,348.7 799.6,222.1 743,348.8 h 81.2 M 1713,670.5 h -134 l -18,-403.7 -174.4,403.7 h -89.4 l -74.6,-365 -116.3,365 H 878.6 L 844.3,475.3 h -155 l -87.9,195.2 h -140 L 749,17.9 h 165.4 l 88,527.5 171.4,-527.5 h 132.6 l 65.5,357.5 151.8,-357.5 h 161 z"
           id="path1" />
        <path
           d="m 2097.5,670.5 22.3,-140 h -234.1 l 18.7,-116.3 h 203.5 l 22.4,-140.1 H 1924.6 L 1942.4,158 h 233.9 l 22.3,-140.1 h -371 l -104.1,652.6 z"
           id="path2" />
        <path
           d="M 3839,17.9 H 3682.7 L 3550.1,231 3466.5,17.9 H 3313.1 L 3471,362 3422.4,670.5 h 134.1 l 41.2,-272.7 z"
           id="path3" />
        <path
           d="m 3042.9,546.3 c 71,31.8 157.8,-30.5 194,-139.1 36.2,-108.5 8,-222.3 -63,-254 -70.9,-31.8 -157.7,30.6 -194,139.1 -36,108.5 -7.9,222.3 63,254 M 2840,288.1 C 2881.7,107.7 3035.9,-10.6 3184.4,23.6 3333.1,58 3419.7,232 3378.1,412.3 3336.4,592.8 3182.2,711 3033.7,676.8 2885.2,642.6 2798.3,468.6 2840,288.1"
           id="path4" />
        <path
           d="M 175.3,76 C 47.7,155.2 -13.8,275.6 2.6,439.6 c 19,190.2 265.2,309.9 473.9,189.4 18.2,-10.5 11.1,-9 17.9,-15 l 41.8,-265.1 h -249 L 268.1,471 h 104 l -11.9,65.6 c -59.6,23.8 -160.9,14.9 -204,-62.7 -27.3,-49.1 -52.7,-158.7 62.7,-259.2 93.9,-82 256.2,-96.8 350.1,-53.6 0,0 11.9,-68.6 20.9,-132.7 C 409.3,-34.2 269.2,17.9 175.3,76"
           id="path5" />
        <path
           d="m 2402.7,21.6 -103.6,647.6 h 301.6 c 124.3,0 305.8,-183.1 140.5,-332.7 170.1,-176 1.5,-313.4 -88.7,-314.9 -72.5,-1.3 -251.4,0 -251.4,0 z m 74,391.8 H 2589 c 106.4,0 103.6,130.2 -14.8,130.2 -73.9,0 -118.4,0 -118.4,0 z m 41.5,-254.2 h 87.2 c 94.6,0 75.4,121.3 -14.8,121.3 -73.9,0 -93.1,0 -93.1,0 z"
           id="path6" />
      </g>
    </g>
  </g>
</svg>
