<svg enable-background="new 0 0 3839 343.2" height="344" viewBox="0 0 3840 343.99999" width="3840" xmlns="http://www.w3.org/2000/svg"><g fill="#fff" transform="matrix(1.0002614 0 0 1.0026976 -.003465 -.117198)"><path d="m2794 58.1h-70.5l-1.9 3.5-80.8 146.7-85.7-146.8-1.9-3.4h-75.8l6.2 10.2 14.6 24c-23.4-22.2-59.2-34.3-105.7-34.3h-152.5v190.7l-112.9-187.2-2-3.3h-58.3l-2 3.3-128.3 216.5-6 10.2h50.5v.1h112.2v-50.8h-66l66.1-119.2 93.3 166.5 1.9 3.4h75.2l-.1-.2h115.5c99.6 0 150.2-38.9 150.2-115.7 0-13.3-1.7-25.6-5-36.8l90.4 149.2 2 3.2h44l1.9-3.4 125.5-216.4zm-426.1 176.2h-61.3v-124.1h86.4c46.7 0 68.5 18.9 68.5 59.5 0 48.3-23.6 64.6-93.6 64.6z"/><path d="m3234 58.1h-6.8v136.7l-172.8-135.3-1.8-1.4h-45.4v190.9l-113-187.6-2-3.2h-58.3l-2 3.3-128.4 216.3-6 10.2h68.5l.1-.2h94.3v-50.8h-66.1l66-118.9 93.3 166.5 2 3.4h75.2l-.1-.1h38v-138.6l172.2 137.1 1.9 1.5h45.2v-229.8z"/><path d="m3505.9 58.1h-134.8c-47.3 0-63.2 14.6-63.2 58v113.9c0 43.2 15.9 57.9 63.2 57.9h134.8c47.3 0 63.3-14.6 63.3-57.9v-32.3h-6.7l-53-.1h-6.8v35.4h-128.4v-121.4h128.4v31.9h6.8l53 .2h6.8v-27.7c-.1-43.8-15.5-57.9-63.4-57.9"/><path d="m3832.2 234.3h-174.9v-40.3h104.4v-50.7h-104.4v-33.2h179.1v-52h-245.6v229.8h248.2v-53.6z"/><path d="m765.8 9-76.4 179.7-32.9-179.7h-66.6l-86.1 265.1-44.2-265.1h-83.1l-125.9 285.7 18.8-119.4h-125l-9.6 61.5h52.2l-6 32.9c-30 11.9-80.9 7.5-102.6-31.5-13.7-24.7-26.5-79.7 31.4-130.3 47.2-41.2 128.8-48.7 176-26.9 0 0 6-34.5 10.5-66.6-90.6-31.5-161-5.2-208.1 24-64.2 39.6-95.1 100.2-86.9 182.5 9.5 95.6 133.3 155.8 238.1 95.1 1-.6 1.7-1 2.4-1.4l-9.9 22.4h70.4l44.2-98.1h77.9l17.2 98.1h114.6l58.4-183.4 37.4 183.4h44.9l87.6-202.9 8.9 202.9h67.4l-14.1-328zm-392.4 166.3 28.5-63.6 12.3 63.6z"/><path d="m866.1 337h188l11.2-70.4h-117.6l9.4-58.4h102.2l11.3-70.4h-103.4l9-58.4h117.6l11.2-70.4h-186.5z"/><path d="m1784.1 116.1-41.9-107.1h-77.1l79.3 173-24.4 155h67.4l20.7-137 121.3-191h-78.6z"/><path d="m1600.4 11.9c-74.7-17.2-152.2 42.3-173.1 132.9-21 90.6 22.6 178.1 97.3 195.4s152.2-42.2 173.1-132.9-22.7-178.2-97.3-195.4m26.3 192.8c-18.2 54.6-61.8 85.9-97.5 69.9-35.6-16-49.8-73.1-31.6-127.6 18.2-54.6 61.8-85.8 97.4-69.9 35.8 15.8 49.9 73 31.7 127.6z"/><path d="m1333.1 10.9c-36.4-.6-126.3 0-126.3 0h.7l-52 325.4h151.6c62.4 0 153.7-92 70.6-167.1 85.5-88.5.8-157.5-44.6-158.3m-39.4 262.3c-37.2 0-59.4 0-59.4 0l10.4-65.4h56.5c53.5 0 52 65.4-7.5 65.4zm8.2-132.3c-37.2 0-46.8 0-46.8 0l10.4-60.9h43.8c47.6 0 38 60.9-7.4 60.9z"/></g></svg>