<svg enable-background="new 0 0 3840 462.2" height="462" viewBox="0 0 3840 461.99999" width="3840" xmlns="http://www.w3.org/2000/svg"><g fill="#fff" transform="matrix(.99998578 0 0 .99961887 .035276 .081515)"><path d="m3827.5 378.7c-2.6-3.7-5.7-7-9.1-9.9-16-13.7-76.9-65.7-122.5-103.1 35.6-19.4 52.7-32.8 52.7-32.8s49.5-32.8 60.1-83c8.1-48.2-1-73.4-70.6-107.5-55.3-27.1-170.6-51.3-231.9 34.3-14.2 19.8-14.2 50.3-8.3 65.9 13.8 36.4 25.7 65.2 23.2 204.5-.3 16.9-12 24.1-13.4 40.7-1.5 17.9 4.9 65.4 55.2 67.4 43.3 1.8 50.9-35.5 50.9-50.9 0-25.5 0-71.5 0-71.5s117.4 98.6 137.6 115.8c10.9 9.3 25 14.6 39.3 13.3 10.9-1 23.3-5.5 35.6-17.5 24.9-24.5 10-53.1 1.2-65.7zm-213.9-185.6.2-80.8h61.1c28.1 0 43.4 33.2 24.7 54.2-13 14.7-38.3 26.6-86 26.6z"/><path d="m489.9 228.5-14.6-75.3-33.6 75.3zm528.3 191.2h-79.7l-10.6-240-103.6 240h-53.1l-44.3-217-69.1 217h-135.5l-20.4-116h-92.1l-52.2 116h-83.2l170.8-387.8h98.3l52.3 313.5 101.8-313.5h78.8l39 212.5 90.3-212.5h95.6z"/><path d="m1246.7 419.7 13.3-83.2h-139.1l11.1-69.1h120.9l13.3-83.2h-122.3l10.7-69.1h139l13.3-83.2h-220.5l-62 387.8z"/><path d="m2281.9 31.9h-93l-78.8 126.6-49.6-126.6h-91.2l93.9 204.5-28.9 183.3h79.7l24.4-162z"/><path d="m1808.7 345.9c42.2 18.9 93.8-18.1 115.3-82.7 21.5-64.5 4.8-132.1-37.4-151-42.1-18.9-93.7 18.2-115.3 82.7-21.5 64.5-4.8 132.1 37.4 151m-120.6-153.5c24.7-107.2 116.4-177.6 204.7-157.2s139.9 123.9 115.1 231.1c-24.7 107.2-116.4 177.6-204.7 157.2-88.4-20.4-139.9-123.8-115.1-231.1"/><path d="m104.3 66.4c-76 47-112.5 118.7-102.8 216.1 11.3 113 157.6 184.2 281.6 112.5 10.8-6.3 6.6-5.3 10.6-8.9l24.8-157.6h-147.8l-11.3 72.6h61.8l-7.1 39c-35.4 14.2-95.6 8.9-121.3-37.2-16.2-29.1-31.3-94.2 37.2-154.1 55.8-48.7 152.3-57.5 208.1-31.8 0 0 7.1-40.8 12.4-78.9-107.2-37.2-190.4-6.2-246.2 28.3"/><path d="m1428.2 34.1-61.5 384.9h179.3c73.8 0 181.8-108.8 83.5-197.8 101.1-104.6.9-186.3-52.7-187.2-43.1-.7-149.4 0-149.4 0h.8m43.9 232.9h66.8c63.3 0 61.5 77.3-8.8 77.3-43.9 0-70.3 0-70.3 0zm24.6-151.1h51.9c56.2 0 44.8 72.1-8.8 72.1-43.9 0-55.4 0-55.4 0z"/><path d="m3354.2 88.4c-113.4-.6-204.7 64.3-204.2 184.8.4 101.4 56.4 175.8 163.9 172.6 80.2-2.4 209.6-72.7 209.6-184.1 0-93.5-60.5-172.7-169.3-173.3zm74.3 173.2c-4.7 44.6-50.1 80.8-101.4 80.9-51.3 0-89-36.1-84.3-80.7s50.1-80.8 101.4-80.9c51.3 0 89 36.1 84.3 80.7z"/><path d="m2792.4 77.4c-101.3-3.3-199.6 85.9-211.3 187.3-13.6 117.8 62.5 179.5 164.7 181.6 116 2.4 196.8-72.1 206-173.7 9-100.6-58.1-191.9-159.4-195.2zm-36.1 275.1c-45.5 0-76-40.4-68.1-90.2s51.2-90.2 96.7-90.2 66.3 44.7 65.1 95.1c-1.6 70-48.2 85.3-93.7 85.3z"/><path d="m2505 97.7c7.5-1.8 14.9 2.7 17.4 10 11.1 32.6 55.8 49.3 85.4 21.7 10.7-10 14-23 16.7-50.6 6.9-71.3-126-106.3-196.5-53.3-48.7 36.6-148.4 143.8-146 271.2-1 35.1 9.3 60.6 9.3 60.6s18.2 63 81.2 87.7c38.4 15.9 96.2 13 96.2 13h109c43 0 81.8-105.6-27.3-96.5-45.9 3.8-180 38.6-177.3-77.4 2.1-93.2 91.3-176.5 131.9-186.4z"/><path d="m3039.4 339.2-4.9-188.1c-.3-9.1-1-18.1-2.1-27.1-3.2-24.3-10.8-70.5-23.9-88.6-21.9-30.2-67.8-31.6-82.5-2.3-10 19.9-8.7 53.9 7 94.1 8 20.4 12.1 42.1 13.2 64 0 0 8.8 141.7 11.8 188.9 1.3 20.6-6.5 68 20.5 77.9 41.2 15.1 108.7-41.9 190.2-44.3 47-1.4 75.9-130.7-70.9-95.7-32.6 7.8-58.4 21.2-58.4 21.2z"/></g></svg>