<svg height="806.70001" viewBox="0 0 3840 806.70004" width="3840" xmlns="http://www.w3.org/2000/svg"><g fill="#fff"><path d="m1926.5 142.3c0-36.7 29.9-66.6 66.7-66.6h111.1v33.3h-110.3c-17.9 0-33.3 14.5-33.3 33.3v106.8c0 17.9 14.5 33.3 33.3 33.3h76.9v-90.6h-61.5v-33.3h94v134.2l62.4-182.9c6-22.2 26.5-38.5 51.3-38.5s45.3 17.1 52.1 39.3l69.2 205.1h-135v-33.3h88.9l-56.4-167.5c-2.6-7.7-9.4-12.8-17.9-12.8s-15.4 5.1-17.9 12.8l-69.2 200.8h-137.6c-36.7 0-66.7-29.9-66.7-66.6v-106.8z"/><path d="m2009.4 240.5h19.7v-7.7h-19.7v-33.3h53v75.2h-69.2c-14.5 0-25.6-11.1-25.6-25.6v-106.8c0-14.5 11.1-25.6 25.6-25.6h111.1v33.3h-94.8c-4.3 0-7.7 3.4-7.7 7.7v75.2c-.1 4.2 3.4 7.6 7.6 7.6z"/><path d="m1530.9 241.4h106.8c1.7 0 3.4-1.7 3.4-4.3s-1.7-4.3-4.3-4.3h-27.3c-43.6 0-78.6-35-78.6-78.6s35-78.6 78.6-78.6h106.8v33.3h-106c-24.8 0-45.3 20.5-45.3 45.3s20.5 45.3 45.3 45.3h27.3c20.5 0 37.6 17.1 37.6 37.6s-17.1 37.6-37.6 37.6h-106.8v-33.3z"/><path d="m1530.9 282.4h106c24.8 0 45.3-20.5 45.3-45.3s-20.5-45.3-45.3-45.3h-27.3c-20.5 0-37.6-17.1-37.6-37.6s17.1-37.6 37.6-37.6h106.8v34.2h-106.8c-1.7 0-3.4 1.7-3.4 3.4 0 2.6 1.7 4.3 4.3 4.3h27.3c43.6 0 78.6 35 78.6 78.6s-35 78.6-78.6 78.6h-106.8v-33.3z"/><path d="m1040.2 569.2 91.1-46.9h-227.9v-78.2h202l46.2-23.8 11-5.7 3.7-1.8 30.3-15.6h-293.2l-117.4 60.4v241.9h319.4l91.2-46.8h-293.2v-83.5z"/><path d="m1306.4 397.2v302.4h117.5v-245.8l231.6 119.2v126.5h117.4v-302.3h-117.4v111.6l-217-111.6z"/><path d="m1732.6 249.1v-106.8c0-36.7 29.9-66.6 66.6-66.6h114.5v33.3h-114.5c-17.9 0-33.3 14.5-33.3 33.3v106.8c0 17.9 14.5 33.3 33.3 33.3h114.5v33.3h-114.5c-36.7 0-66.6-29.9-66.6-66.6z"/><path d="m1889.8 158.5v33.3h-116.2v-49.6c0-14.5 11.1-25.6 25.6-25.6h113.7v34.2h-98.3c-4.3 0-7.7 3.4-7.7 7.7z"/><path d="m1889.8 200.4v33.3h-82.9c0 4.3 3.4 7.7 7.7 8.5h99.1v33.3h-114.5c-14.5 0-25.6-11.1-25.6-25.6v-49.6h116.2z"/><path d="m2446.5 444.1h257.9l91.1-46.9.4-.1c-.2.1-.5.1-.8.1h-348.7l-117.4 60.4v21 90.6h349.1v83.5h-257.9l-90.8 46.7c-.2.1-.5.2-.7.3l.4-.1h349.1l117.4-60.4v-116.9h-349v-78.2z"/><path d="m2888.3 397.20001h117.4v302.39999h-117.4z"/><path d="m581.3 557.1v95.6h-231.6v-122.4-86.2h257.9l91.2-46.9h-349.1l-117.4 60.4v242h117.4v-.1h231.6l117.5-60.4v-128.9h-146.8l-91.2 46.9z"/><path d="m2271.3 652.6c-.2.1-.5.1-.8.1h-292.8v-83.5h136.8l91.1-46.9h-227.9v-38.5-6.4-33.4h202l91.1-46.9h-293.2l-117.4 60.4v242h319.5l91.1-46.9z"/><path d="m3216 444.1h258l91.1-46.9h-349.1l-117.4 60.4v111.6h349.1v83.5h-257.9l-90.8 46.7c-.2.1-.5.2-.7.3.2-.1.5-.1.8-.1h348.7l117.4-60.4v-116.8h-349v-78.3z"/><path d="m3607.6 290.1h-1100.6l-177.7-290.1h-818.5l-177.8 290.1h-1100.6l-232.4 128.5v259.6l232.4 128.5h3375.2l232.4-128.5v-259.6zm201.4 369.8-209.4 115.8h-3359.2l-209.4-115.8v-223l209.4-115.8h1110l177.7-290.1h783.8l177.7 290.1h1110l209.4 115.8z"/><path d="m2228.2 117.5c-1.7-4.3-5.1-7.7-10.2-7.7-4.3 0-8.5 3.4-10.3 6.8l-68.4 199.1h39.3l23.9-70.9v29.9h.9 77.8zm-23.1 119.6 12-34.2 11.1 34.2z"/></g></svg>