<svg enable-background="new 0 0 3840 939.6" viewBox="0 0 3840 939.6" xmlns="http://www.w3.org/2000/svg"><g fill="#fff"><path d="m3581.1 778 4.4 16.5 251.4-142.4-16.6-9.6z"/><path d="m518.1 923-4.4 16.6h2812.6l-4.4-16.6z"/><path d="m254.5 794.5 4.4-16.5-239.2-135.5-16.6 9.6z"/><path d="m16.6 637.1v-263.7l-16.6-9.6v282.9z"/><path d="m1508.4 248.9 130.3-229.2-9.7-16.6-130.2 229.3z"/><path d="m222.4 235.5 4.4 16.5h1276.2l-9.6-16.5z"/><path d="m3.1 358.4 16.6 9.6 201.1-114.4-4.4-16.5z"/><path d="m3840 646.7v-282.9l-16.6 9.6v263.7z"/><path d="m3820.3 368 16.6-9.6-213.3-121.3-4.4 16.5z"/><path d="m2346.6 235.5-9.6 16.5h1276.2l4.4-16.5z"/><path d="m2201.3 19.7 130.3 229.2 9.6-16.5-130.2-229.3z"/><path d="m2196 16.6 9.6-16.6h-571.2l9.6 16.6z"/><path d="m2188.6 29.2 3.8-6.4h-544.8l3.8 6.4z"/><path d="m3817.2 633.5v-256.5l-6.4 3.7v249z"/><path d="m3807.7 635.1-229.9 130.2 1.7 6.5 234.6-133z"/><path d="m260.5 771.8 1.7-6.5-229.9-130.2-6.4 3.7z"/><path d="m29.2 629.7v-249l-6.4-3.7v256.5z"/><path d="m1515.8 261.6 130.2-229.3-3.7-6.4-130.3 229.2z"/><path d="m228.4 258.2 1.7 6.5h1280.3l-3.8-6.5z"/><path d="m32.3 375.4 191.8-109.1-1.7-6.5-196.5 111.8z"/><path d="m3807.7 375.4 6.4-3.8-196.5-111.8-1.7 6.5z"/><path d="m3609.9 264.7 1.7-6.5h-1278.2l-3.8 6.5z"/><path d="m2194 32.3 130.2 229.3 3.8-6.5-130.3-229.2z"/><path d="m263.8 759.1 1.1-3.9-222.5-126-3.9 2.3z"/><path d="m39.3 623.8v-237.2l-3.9-2.2v241.7z"/><path d="m42.4 381.3 184.4-104.9-1-3.9-187.3 106.5z"/><path d="m1521.6 271.7 130.3-229.3-2.3-3.9-130.2 229.3z"/><path d="m3575.1 755.2 1.1 3.9 225.3-127.6-3.9-2.3z"/><path d="m3804.6 626.1v-241.7l-3.9 2.2v237.2z"/><path d="m3797.6 381.3 3.9-2.3-187.3-106.5-1 3.9z"/><path d="m2323.7 274.8h1283.5l1-3.9h-1282.2z"/><path d="m2188.1 42.4 130.3 229.3 2.2-3.9-130.2-229.3z"/><path d="m1655 35.4 2.3 3.9h525.4l2.3-3.9z"/><path d="m231.8 270.9 1 3.9h1283.5l-2.3-3.9z"/><path d="m264.9 779.5-4.4 16.6h3319l-4.4-16.6z"/><path d="m266.5 773.3h3307l-1.7-6.4h-3303.6z"/><path d="m269.8 760.7h3300.4l-1-3.9h-3298.4z"/><path d="m280.4 802.3 62.8 16.6h3153.6l62.8-16.6z"/><path d="m2762.7 882.3c0 1.5 0 2.7.5 3.8.7 2.1 2.7 3 6.9 3.3 4.2.2 8.2.4 12.4.5 4.4.1 8.9-.1 13.4-.2.6 0 3.5.3 5.5-.6 2-.7 3.8-2.8 3.8-5 0-.6-.1-1.7-.9-2.9-1.6-2.2-3.6-2.1-8.2-2.8-9.6-.2-19.2-.3-28.7-.8-3.1-.2-6.1-.5-9.2-.6-.9-.2-1.9-.3-2.9-.5-1.3-.2-5.8-.9-9-4.3-2-2.2-3.9-6.2-3.9-12.8 0-.5 0-7.6 1.7-11.7.6-1.6 1.6-3 2.7-4.2 3.8-4.1 8.8-4.7 14.2-5.4 7.1-.3 14.2-.6 21.4-.6 7.9 0 15.7.5 23.6.8l3.6.6c1.4.2 5.9 1 9.4 4.3 4.5 4.2 4.5 10 4.3 15.7l-19.8-.1c-1.2-5-2.1-5.6-7.4-6.2-4.8-.3-9.7-.5-14.5-.5-3.8 0-7.5.2-11.3.3-2.5.1-4.8.2-6.4 2.2-.3.4-1.1 1.6-1.1 3s.7 2.5 1.1 2.9c1.8 2.2 4 2.3 6.5 2.5l39.2 1.4c5.4.6 7.4 1.3 9.7 3 3.3 2.4 6.3 6.7 6.3 16.2 0 7.4-1.3 10.9-3.3 13.8-.8 1.1-1.6 1.9-2.7 2.8-3 2.2-7 2.9-11.1 3.5-8 .5-16 .8-24 .8-8.7 0-17.4-.6-26.2-1-4.3-.6-9.2-1.5-12.5-5-3.7-4-3.6-11.3-3.6-16.2z"/><path d="m2881.5 865 22-26.6h26.1l-37.7 42.4v22.8h-20.4v-22.8l-37.1-42.4h25.2z"/><path d="m2957.2 882.3c0 1.5 0 2.7.5 3.8.7 2.1 2.7 3 6.9 3.3 4.2.2 8.2.4 12.4.5 4.4.1 8.9-.1 13.4-.2.6 0 3.5.3 5.5-.6 2-.7 3.8-2.8 3.8-5 0-.6-.1-1.7-.9-2.9-1.6-2.2-3.6-2.1-8.2-2.8-9.6-.2-19.2-.3-28.7-.8-3.1-.2-6.1-.5-9.2-.6-.9-.2-1.9-.3-2.9-.5-1.3-.2-5.8-.9-9-4.3-2-2.2-3.9-6.2-3.9-12.8 0-.5 0-7.6 1.7-11.7.6-1.6 1.6-3 2.7-4.2 3.8-4.1 8.8-4.7 14.2-5.4 7.1-.3 14.2-.6 21.4-.6 7.9 0 15.7.5 23.6.8l3.6.6c1.4.2 5.9 1 9.4 4.3 4.5 4.2 4.5 10 4.3 15.7l-19.8-.1c-1.2-5-2.1-5.6-7.4-6.2-4.8-.3-9.7-.5-14.5-.5-3.8 0-7.5.2-11.3.3-2.5.1-4.8.2-6.4 2.2-.3.4-1.1 1.6-1.1 3s.7 2.5 1.1 2.9c1.8 2.2 4 2.3 6.5 2.5l39.2 1.4c5.4.6 7.4 1.3 9.7 3 3.3 2.4 6.3 6.7 6.3 16.2 0 7.4-1.3 10.9-3.3 13.8-.8 1.1-1.6 1.9-2.7 2.8-3 2.2-7 2.9-11.1 3.5-8 .5-16 .8-24 .8-8.7 0-17.4-.6-26.2-1-4.3-.6-9.2-1.5-12.5-5-3.7-4-3.6-11.3-3.6-16.2z"/><path d="m3109 838.4v15.1h-29.4v50.2h-20.5v-50.1h-28.8v-15.2z"/><path d="m3192.5 838.4v14.4h-53.1v10.9h50.2v13.7h-50.2v11.5h53.1v14.8h-72.9v-65.3z"/><path d="m3240.4 838.4 23.7 42.8 23.8-42.8h31.9v65.3h-19.4v-49.4l-28.6 49.4h-16l-28.5-49.6v49.6h-19.1v-65.3z"/><path d="m1558.4 838.4v14.4h-53.1v10.9h50.2v13.7h-50.2v11.5h53.1v14.8h-72.9v-65.3z"/><path d="m1607 838.4c7.1 8.7 14.2 17.3 21.2 26.1 6.3 7.9 12.5 16.1 18.7 24.2l-.4-29.9v-20.3h18.9v65.3h-32.1c-7.7-9.3-15.3-18.7-22.8-28.3-5.5-7.1-11-14.4-16.4-21.6v49.9h-19v-65.3h31.9z"/><path d="m1756 838.4v15.1h-29.4v50.2h-20.6v-50.1h-28.8v-15.2z"/><path d="m1840.3 838.4v14.4h-53.1v10.9h50.2v13.7h-50.2v11.5h53.1v14.8h-72.9v-65.3z"/><path d="m1916.1 838.4c6.7-.4 13.1-.6 18.3 3.5 1.8 1.4 2.9 3.1 3.2 3.7 2.8 4.8 2.7 12.1 2.7 13 0 .6 0 6.7-1.3 10.8-.2.5-.7 1.8-1.6 3-3.1 4.5-9.4 5.6-14.2 6.5 5.4 0 10.6.1 13.8 4.2 2.3 2.9 2.3 5.8 2.3 9.2v11.4h-20.2v-8.8c0-1.8-.1-3.5-1.1-5.2-1.5-2.1-3.9-2.4-6.5-2.7h-34.2v16.6h-20.4v-65.3h59.2zm-38.7 32.4h32c3.8 0 6.3-.2 7.9-1 3-1.7 3-6.4 3-6.8 0-.5 0-4.6-1.8-6.7-1.6-1.8-4.4-2-7.4-2.2h-33.7z"/><path d="m2030.2 838.4v15.1h-29.4v50.2h-20.5v-50.1h-28.8v-15.2z"/><path d="m2097.2 838.4 36.8 65.3h-22.6l-6.1-11.6h-42.1l-6.2 11.6h-22l36.2-65.3zm-26.7 39.8h27.5l-13.5-25.4z"/><path d="m2165.5 838.4v65.3h-20.7v-65.3z"/><path d="m2214.2 838.4c7.1 8.7 14.2 17.3 21.2 26.1 6.3 7.9 12.5 16.1 18.7 24.2l-.4-29.9v-20.3h18.9v65.3h-32.1c-7.7-9.3-15.3-18.7-22.8-28.3-5.5-7.1-11-14.4-16.4-21.6v49.9h-19v-65.3h31.9z"/><path d="m2321.2 838.4 23.7 42.8 23.8-42.8h31.9v65.3h-19.4v-49.4l-28.6 49.4h-16l-28.5-49.6v49.6h-19.1v-65.3z"/><path d="m2489.9 838.4v14.4h-53.1v10.9h50.2v13.7h-50.2v11.5h53.1v14.8h-72.9v-65.3z"/><path d="m2538.5 838.4c7.1 8.7 14.2 17.3 21.2 26.1 6.3 7.9 12.5 16.1 18.7 24.2l-.4-29.9v-20.3h18.9v65.3h-32.1c-7.7-9.3-15.3-18.7-22.8-28.3-5.5-7.1-11-14.4-16.4-21.6v49.9h-19v-65.3h31.9z"/><path d="m2687.5 838.4v15.1h-29.4v50.2h-20.5v-50.1h-28.8v-15.2z"/><path d="m1036.9 888.5 27.4-50.2h22.4l-36.8 65.3h-26.5l-34.8-65.3h21.8z"/><path d="m1120.3 838.4v65.3h-20.7v-65.3z"/><path d="m1199.7 838.4c1.8 0 3.5.1 5.3.3 10.4.9 14.9 4.9 17.3 9.1 3.1 5.2 3.4 11.4 3.6 17.1v10.5c0 1.6 0 3.1-.1 4.6-.6 11.8-3.8 17-8.8 20.2-4.9 3-9.7 3.3-15.3 3.5h-62.9v-65.3zm-40.5 49.5h33.3c.7 0 2.6.1 4.7-.3 7.9-1.3 8.3-7.3 8.4-14v-8.1c-.2-3.1-.5-5.7-2.8-8.1-2.7-2.8-6.7-3-10.9-3.1h-32.7z"/><path d="m1316.6 838.4v14.4h-53.1v10.9h50.2v13.7h-50.2v11.5h53.1v14.8h-72.9v-65.3z"/><path d="m1333.7 856.7c.1-1 .3-2 .5-3.1 1-5.1 3.4-9.4 8-12.1 3.4-2 6.6-2.6 10.4-3.1 7.9-.5 15.9-.8 23.9-.8 9.4 0 18.9.4 28.4.8 1 .1 2 .3 3 .5 2.7.5 9.4 1.8 13.4 8.8 2.3 4.3 2.7 8.4 3 13.1.2 4.7.4 9.3.2 14-.1 3.1-.4 6.1-.6 9.2-.6 4.8-1.3 8.6-4.5 12.6-5 6.1-12.7 6.9-19.9 7.5-6.5.1-13 .3-19.6.3-7.5 0-14.9-.2-22.4-.4-5.8-.4-11.5-.7-16.5-4.3-7.9-5.5-8-15.6-8-23.9zm58.9 31.5c4.3-.4 8.1-.7 10.2-4.3.8-1.4 1.2-2.8 1.6-5.9v-14.1c-.1-1.5-.2-2.6-.6-4-1.6-5.2-5.4-5.6-10.5-6h-27.9c-4.5.3-6.3.8-8.1 2.2-1.3.9-1.8 1.8-2.1 2.4-.7 1.4-1 3.1-1.1 3.6-.3 2.3-.4 5.8-.5 10.9.2 5.5.6 9.5 2 11.6 1.7 2.3 5 3.1 10.5 3.5h26.5z"/><path d="m725.3 903.6v-65.3h60.3c5.9 0 12.6.1 17.3 4.3 2.4 1.9 4.7 5.6 4.7 12.4 0 7.2-1.7 10.3-4.3 12.4-2 1.7-4.5 2.3-6.8 3 3.2.5 6.3.9 9 3 3 2.1 4.7 5.3 4.7 13 0 6.3-1.9 9.5-3.9 11.7-.5.6-1.5 1.7-3.1 2.8-4 2.8-8.9 3.1-18.3 2.8h-59.6zm19.6-14.7h39.1c2.6-.5 4.5-1 5.5-3.5.1-.4.4-1.1.4-2.2 0-1.5-.5-2.5-1.2-3.6-2-2.7-4.7-2.6-7.8-2.5h-36zm.1-24.8h34c3 .1 5.5.2 7.2-2.2.4-.5 1.2-1.7 1.2-3.4 0-1.2-.5-2.4-1.2-3.3-1.8-2.4-4-2.4-6.7-2.5h-34.5z"/><path d="m847.3 838.4v65.3h-20.7v-65.3z"/><path d="m940 838.4v15.1h-29.4v50.2h-20.6v-50.1h-28.8v-15.2z"/><path d="m572.3 838.4v65.3h-19.3l.6-50.3-24.2 16.7-9-13.6 27.6-18.1z"/><path d="m649 856.8c-.2-.9-.5-2.6-2.6-3.7-2.3-1.2-4.3-1.1-9.1-1.3-1.4-.1-2.8-.2-4.2-.2l-13.9.5c-2.4.3-4.8.6-6.8 2.3-1.5 1.3-2.1 2.8-2.1 6.7v8.2c1.8-3.1 2.8-4.3 6.2-5.5 3.4-1.1 8-1.3 16-1.4l18.7.6c1.1.1 2.3.2 3.4.3 1.3.2 8.2.9 11.3 5.8 1.6 2.6 2.5 6.7 2.5 13.6 0 5.4-.7 9.3-1.6 11.4-1.1 2.6-3.1 4.8-5.4 6.3-3.9 2.5-8.4 3.1-13.1 3.5-5.5.2-11 .4-16.5.4-7.5 0-14.9-.4-22.4-.8-1-.2-2.1-.4-3.1-.6-2.9-.6-10.3-2.2-13.3-10.4-.9-2.5-1.1-4.7-1.4-7.3v-14.6l.6-14.2c.5-4.7.9-7.9 4.2-11.6 5.3-5.9 13.2-6.5 15.3-6.7 6.1-.3 12.1-.6 18.1-.6 7.7 0 15.4.5 23.1 1 2.9.6 4.8 1 5.8 1.3 3.3 1.1 7.5 3 8.5 11.2.2 1.9.2 3.9.3 5.8zm-7.9 33.4c3.5-.3 6.3-.6 8-3.6.3-.6.9-1.9.9-3.8 0-1.7-.5-2.8-.7-3.3-1.5-3.1-4.2-3.4-7.6-3.7h-22.8c-2.5.2-4.9.3-6.7 1.8-1.4 1-1.8 2.3-2.1 3.9 0 .8-.5 3.5 1.2 5.9 1.4 1.9 3 2.5 7.9 2.8z"/><path d="m685.6 874.5h23.1v17.6h-23.1z"/><path d="m3010.1 344.3 15.3-15.3h-146.8l15.3 15.3z"/><path d="m2893.9 687.3-15.3 15.3h146.8l-15.3-15.3z"/><path d="m2889.5 682.9v-334.2l-15.3-15.3v364.8z"/><path d="m3029.8 698.2v-364.8l-15.3 15.3v334.2z"/><path d="m2895.7 350.5h112.5v330.6h-112.5z"/><path d="m1643.1 460.2v-111.5l-15.3-15.3v100.6z"/><path d="m1763.7 344.3 15.3-15.3h-146.8l15.3 15.3z"/><path d="m1783.4 698.2v-364.8l-15.3 15.3v334.2z"/><path d="m1647.5 687.3-15.3 15.3h146.8l-15.3-15.3z"/><path d="m1430.5 698.2v-250l-15.3-26.2v260.9z"/><path d="m1294.6 687.3-15.3 15.3h146.8l-15.3-15.3z"/><path d="m1290.3 682.9v-334.2l-15.3-15.3v364.8z"/><path d="m1624.7 552.1 15.3-8.9-219.5-124.3 15.3 26.2z"/><path d="m1643.1 682.9v-134.3l-15.3 8.9v140.7z"/><path d="m1434.5 330.6-4 15.3 207.3 117.4-15.3-26.2z"/><path d="m1279.3 329 15.3 15.3h129.9l4-15.3z"/><path d="m1761.9 681.1v-330.6h-112.5v121.2c0 1.1-.6 2.1-1.5 2.7-1 .6-2.1.6-3.1 0l-218.6-123.9h-129.6v330.6h112.4v-270.6c0-1.1.6-2.1 1.5-2.7 1-.6 2.1-.6 3.1 0l234.2 132.7c1 .6 1.6 1.6 1.6 2.7v137.9z"/><path d="m3573.7 489.9h-349.8c-1.7 0-3.1-1.4-3.1-3.1v-87.2c0-1.7 1.4-3.1 3.1-3.1h259.9l81.2-46h-340.3l-116.4 66v119.4h349.8c1.7 0 3.1 1.4 3.1 3.1v93c0 1.7-1.4 3.1-3.1 3.1h-259.9l-81.2 46h340.3l116.4-66z"/><path d="m3089.9 402.2 15.3 8.9 115.1-65.2-4-15.3z"/><path d="m3575.5 483.7 15.3-15.3h-344.1l-15.3 15.3z"/><path d="m3595.2 624v-151.3l-15.3 15.3v127.1z"/><path d="m3461.7 685.7 4 15.3 126.4-71.6-15.3-8.9z"/><path d="m3435.3 557.4 15.3-15.3h-344.1l-15.3 15.3z"/><path d="m3102.1 537.7v-121.2l-15.3-9v145.5z"/><path d="m3455 624.5v-78.1l-15.3 15.3v47.5z"/><path d="m3195.7 613.6 4 15.3h250.9l-15.3-15.3z"/><path d="m3242.3 464v-41.6l-15.3-15.3v72.2z"/><path d="m3486.3 418-4-15.3h-250.9l15.3 15.3z"/><path d="m3222.3 329 4 15.3h350.1l58.5-15.4z"/><path d="m3488.3 401.1 4 15.3 144.1-81.7-58.4 15.6z"/><path d="m3105.6 687.3-58.5 15.4 412.6-.1-4-15.3z"/><path d="m3045.6 696.8 58.4-15.5 89.7-50.9-4-15.3z"/><path d="m2795.7 489.9h-349.8c-1.7 0-3.1-1.4-3.1-3.1v-87.2c0-1.7 1.4-3.1 3.1-3.1h259.9l81.2-46h-340.3l-116.4 66v119.4h349.8c1.7 0 3.1 1.4 3.1 3.1v93c0 1.7-1.4 3.1-3.1 3.1h-259.9l-81.2 46h340.3l116.4-66z"/><path d="m2311.9 402.2 15.3 8.9 115.1-65.2-4-15.3z"/><path d="m2797.5 483.7 15.3-15.3h-344.1l-15.3 15.3z"/><path d="m2817.2 624v-151.3l-15.3 15.3v127.1z"/><path d="m2683.7 685.7 4 15.3 126.4-71.6-15.3-8.9z"/><path d="m2657.3 557.4 15.3-15.3h-344.1l-15.3 15.3z"/><path d="m2324.1 537.7v-121.2l-15.3-9v145.5z"/><path d="m2677 624.5v-78.1l-15.3 15.3v47.5z"/><path d="m2417.7 613.6 4 15.3h250.9l-15.3-15.3z"/><path d="m2464.3 464v-41.6l-15.3-15.3v72.2z"/><path d="m2453.4 402.7 15.3 15.3h239.6l-4-15.3z"/><path d="m2710.3 401.1 4 15.3 144.1-81.6-58.4 15.5z"/><path d="m2798.4 344.3 58.5-15.4-412.6.1 4 15.3z"/><path d="m2327.6 687.3-58.5 15.4 412.6-.1-4-15.3z"/><path d="m2267.6 696.8 58.4-15.5 89.7-50.9-4-15.3z"/><path d="m1979.5 402.7 15.3 15.3h183.1l-4-15.3z"/><path d="m1990.4 609.2v-47.5l-15.3-15.3v78.1z"/><path d="m1979.5 542.1 15.3 15.3h117.1l-4-15.3z"/><path d="m1990.4 464v-41.6l-15.3-15.3v72.2z"/><path d="m1854.6 687.3-15.3 15.3h338.6l-4-15.3z"/><path d="m1850.2 682.9v-266.5l-15.3-8.9v290.7z"/><path d="m1838 402.2 15.3 8.9 115.1-65.2-4-15.3z"/><path d="m1972 635.1c-1.7 0-3.1-1.4-3.1-3.1v-93c0-1.7 1.4-3.1 3.1-3.1h137.4l81.2-46h-218.6c-1.7 0-3.1-1.4-3.1-3.1v-87.2c0-1.7 1.4-3.1 3.1-3.1h203.4l81.2-46h-283.8l-116.4 66v264.6h319.1l81.2-46z"/><path d="m2268 344.3 58.5-15.4-356.1.1 4 15.3z"/><path d="m2179.9 401.1 4 15.3 144.1-81.6-58.4 15.5z"/><path d="m1994.8 468.4-15.3 15.3h222.5l58.5-15.5z"/><path d="m2113.9 540.5 4 15.3 144.1-81.7-58.4 15.6z"/><path d="m2179.9 685.7 4 15.3 144.1-81.7-58.4 15.6z"/><path d="m2268 628.9 58.5-15.5-331.7.2-15.3 15.3z"/><path d="m764.1 682.9v-266.5l-15.3-8.9v290.7z"/><path d="m904.3 609.2v-47.5l-15.3-15.3v78.1z"/><path d="m904.3 464v-41.6l-15.3-15.3v72.2z"/><path d="m893.4 402.7 15.3 15.3h183.1l-4-15.3z"/><path d="m893.4 542.1 15.3 15.3h117.1l-4-15.3z"/><path d="m768.5 687.3-15.3 15.3h338.6l-4-15.3z"/><path d="m751.9 402.2 15.3 8.9 115.1-65.2-4-15.3z"/><path d="m1170.5 635.1h-284.6c-1.7 0-3.1-1.4-3.1-3.1v-93c0-1.7 1.4-3.1 3.1-3.1h137.4l81.2-46h-218.6c-1.7 0-3.1-1.4-3.1-3.1v-87.2c0-1.7 1.4-3.1 3.1-3.1h203.4l81.2-46h-283.8l-116.4 66v264.6h319.1z"/><path d="m908.7 468.4-15.3 15.3h222.5l58.5-15.5z"/><path d="m1027.8 540.5 4 15.3 144.2-81.7-58.5 15.6z"/><path d="m1181.9 344.3 58.5-15.4-356.1.1 4 15.3z"/><path d="m1241.5 335-58 15.3-89.7 50.8 4 15.3z"/><path d="m1181.9 628.9 58.5-15.5-331.7.2-15.3 15.3z"/><path d="m1093.8 685.7 4 15.3 144.1-81.7-58.4 15.6z"/><path d="m204.3 682.9v-266.5l-15.3-8.9v290.7z"/><path d="m193.4 702.6h368.5l-4-15.3h-349.2z"/><path d="m563.9 685.7 4 15.3 126.4-71.6-15.3-8.9z"/><path d="m697.4 624v-164.7l-15.3 15.3v140.5z"/><path d="m677.7 470.2 15.3-15.3h-164.1l4.1 15.3z"/><path d="m557.2 624.5v-91.5l-15.3 15.3v60.9z"/><path d="m348.9 613.6-15.3 15.3h219.2l-15.3-15.3z"/><path d="m333.6 402.7 15.3 15.3h239.6l-4-15.3z"/><path d="m344.5 609.2v-186.8l-15.3-15.3v217.4z"/><path d="m192.2 402.2 15.2 8.9 115.1-65.2-4-15.3z"/><path d="m675.9 476.4h-144.5l-81.2 46h110.1c1.7 0 3.1 1.4 3.1 3.1v106.5c0 1.7-1.4 3.1-3.1 3.1h-234.2c-1.7 0-3.1-1.4-3.1-3.1v-232.4c0-1.7 1.4-3.1 3.1-3.1h259.9l81.2-46h-340.2l-116.4 66v264.6h349l116.4-66v-138.7z"/><path d="m678.6 344.3 58.5-15.4-412.6.1 4 15.3z"/><path d="m590.5 401.1 4 15.3 144.2-81.6-58.5 15.5z"/><path d="m378.8 538.2 58.5-15.6 89.7-50.8-4-15.3z"/><path d="m537.5 543.9 15.3-15.3h-114l-58.5 15.5z"/><path d="m1829.7 116.8c-5.1 5.1-7.8 11.9-7.8 19v27l82.1-.1v-21.6l-60.5.1v-5.4c0-1.9 1-3.2 1.6-3.8s1.8-1.6 3.7-1.6h77.3v-21.6h-77.4c-7.2.1-13.9 2.9-19 8z"/><path d="m1789.1 135.8v65.1c0 32.9 26.8 59.7 59.7 59.7h77.3v-21.6h-77.3c-21 0-38.2-17.1-38.2-38.2v-65.1c0-21 17.1-38.2 38.2-38.2h77.3v-21.5h-77.3c-32.9 0-59.7 26.8-59.7 59.8z"/><path d="m1638.1 135.8c0 32.9 26.8 59.7 59.7 59.7h14.1c2.9 0 5.4 2.5 5.3 5.4 0 2.9-2.4 5.4-5.3 5.4h-77.3l-.1 21.6 77.3-.1h.1c14.8 0 26.8-12 26.9-26.8s-11.9-27-26.8-27.1h-14.3c-21 0-38.2-17.1-38.2-38.2 0-21 17.1-38.2 38.2-38.2h77.3v-21.5h-77.3c-32.8 0-59.6 26.8-59.6 59.8z"/><path d="m1981 116.8c-5.1 5.1-7.8 11.9-7.8 19v65c0 7.2 2.7 13.9 7.8 19s11.8 7.9 19 8h33.4v-53.8l-27.5-.1-.1 21.6h6.1v10.8h-11.8c-1.9 0-3.2-1-3.8-1.6s-1.6-1.9-1.6-3.8v-65.1c0-1.9 3.4-5.4 5.3-5.4h66.3v-21.6h-66.3c-7.2.1-13.9 2.9-19 8z"/><path d="m1845 204.7c-.6-.6-1.6-1.9-1.6-3.8v-5.4l60.5.1v-21.6l-82.1-.1v26.9c0 7.2 2.7 13.9 7.8 19s11.8 7.9 19 8h77.3v-21.6h-77.3c-1.7.1-3-.9-3.6-1.5z"/><path d="m2160.6 76.5c-14.1 0-26.2 8.6-30.8 21.9l-56.4 162.1h22.8l53.9-155c2.4-6.9 8.6-7.5 10.5-7.5s8.1.5 10.5 7.5l46.4 133.5h-67.6v21.6h75.1.4 22.4l-56.4-162.1c-4.6-13.4-16.7-22-30.8-22z"/><path d="m1940.4 135.8v65.1c0 32.9 26.8 59.7 59.7 59.7h66.2v-119.5l-60.4.1v21.6h38.8v76.2h-44.6c-21 0-38.2-17.1-38.2-38.2v-65.1c0-21 17.1-38.2 38.2-38.2h66.2v-21.5h-66.2c-32.9 0-59.7 26.8-59.7 59.8z"/><path d="m2171.3 206.3h-21.4v21.5h28.9 7.7 15.1l-41-118.1-52.5 150.9h22.8l29.7-85.2z"/><path d="m1670.9 135.8c0 14.8 12.1 26.9 26.9 26.9h14.3c10.2 0 19.8 4.1 26.9 11.3 7.2 7.2 11.1 16.8 11.1 27s-4.1 19.8-11.3 26.9-16.7 11.1-26.9 11.1c-.1 0-.1 0-.2 0h-77.3l-.1 21.6h77.3.3c15.8 0 30.8-6.1 42-17.3 11.3-11.2 17.6-26.2 17.7-42.2s-6.1-31-17.3-42.3-26.2-17.7-42.2-17.7h-14.4c-2.9 0-5.3-2.4-5.3-5.3s2.4-5.3 5.3-5.3h77.3v-21.6h-77.3c-14.7 0-26.8 12-26.8 26.9z"/><path d="m3332.3 938 228.9-129.7-62.8 16.5-170.5 96.6z"/><path d="m507.7 938 4.4-16.6-170.5-96.6-62.8-16.5z"/></g></svg>