<svg enable-background="new 0 0 685 182" height="936" viewBox="0 0 3840 936" width="3840" xmlns="http://www.w3.org/2000/svg"><g fill="#fff" stroke-width="5.82334" transform="scale(1 .99936834)"><g><path d="m2851.4816 441.61325c-25.1394-.099-45.1018-21.24356-45.1367-46.10341v-342.604765c.1805-24.59198 19.1763-49.5682994 45.1367-49.9875801v5.8233434 5.8233437c-8.7816-.01165-17.1031 4.571324-23.3749 11.89709-6.2542 7.290826-10.1442 17.167217-10.1209 26.443803v342.604765c.035 18.56482 15.2047 34.40431 33.49 34.44507h444.0241v-107.73767h-355.2239v-201.8662h355.2239v-105.786858h-444.0241v-5.8233437-5.8233434h455.6708v129.0802251h-355.224v178.57865h355.224v131.0427z"/><path d="m1476.6892 936.59161v-309.62717h-49.5042v309.62717h-146.6143l3.9482-388.70817h-.012c.1805-24.5978 19.1821-49.57412 45.1425-49.9934h492.5559v438.68993h-148.5065v-309.60388h-47.5534v309.61552zm208.6737-321.26221-.012 309.6097h125.2081v-415.39073h-480.9034c-8.7874-.0233-17.1031 4.5655-23.3749 11.89709-6.26 7.285-10.15 17.16139-10.1093 26.43798h-5.8233l5.8117.0641-3.8201 376.9916h123.2044v-309.60974h72.7918v309.6097h126.1686v-309.6097z"/><path d="m2623.8821 936.59161v-309.62717h-49.4926v309.62717h-146.6143l3.9424-388.77223c.2096-24.56868 19.1995-49.51006 45.1309-49.92934h492.5616v438.68993h-148.4952v-309.60388h-47.5593v309.61552zm208.6737-321.26221v309.6097h125.2077v-415.39073h-480.915c-8.7758-.0233-17.0974 4.5655-23.3749 11.89709-6.2485 7.285-10.1385 17.16139-10.1094 26.43798h-5.8233l5.8233.0641-3.8201 376.9916h123.1987v-309.60974h72.7918l-.012 309.6097h126.1802v-309.6097z"/><path d="m4.350038 159.18109v-156.2635951h152.379422v150.4402551 5.82334zm146.556082-5.82334v-5.82335zm-134.909396-5.82335h129.091876v-132.976042h-129.091876z"/><path d="m2077.4603 159.18109v-156.2635951h152.3794v150.4402551 5.82334zm146.5561-5.82334v-5.82335zm-134.9036-5.82335h129.0802v-132.976042h-129.0802z"/><path d="m1856.1732 654.16528v-156.26942h152.3795v150.44608 5.82334zm146.5678-5.82334v-5.83499zm-134.9269-5.83499h129.1035v-132.95858h-129.1035z"/><path d="m228.37406 441.6016 95.32813-124.23521h67.90018v-147.37717l-216.5352 271.61238h-162.954616v-5.81752l4.548032 3.62794-4.548032-3.62794v5.81752h-12.11255392l350.95543992-438.6899284h192.05386v438.6899284zm-58.92641-11.64086 233.80141-293.24611v192.3101l-73.81088-.0175-77.43882 100.94183h279.36326v-415.390702h-174.81677l-332.320741 415.402382z"/><path d="m2083.1089 936.58579 95.334-124.23521h67.8827v-147.37135l-216.5294 271.60656h-162.9429v-5.82334l4.548 3.63376-4.548-3.63376v5.82334h-12.1184l350.9438-438.68993h192.0597v438.68993zm-58.9206-11.64086 233.7956-293.24028v192.30426l-73.805-.0116-77.4505 100.93019h279.3633v-415.38495h-174.811l-332.3207 415.40238z"/><path d="m2060.0893 441.6016-216.5411-271.60074v147.36553h67.9002l95.3281 124.23521h-314.6352v-438.6899284h192.0539l343.3851 429.2269984-4.5481 3.64541v-5.82334 5.82334l4.5481-3.64541 7.582 9.46293zm5.6078-11.64086h145.2226l-332.3208-415.402382h-174.8167v415.390732h279.3632l-77.433-100.92436h-73.8109v-192.32174z"/><path d="m577.95519 444.51327v-126.15691l349.39478-.0116v-181.49619h-199.93285v152.37943h-149.46193v-289.22800014h450.81991v5.81752004l.058-5.81752004c27.9113.58815768 47.7572 26.93296314 47.9727 52.90507514v342.616405c-.035 26.40304-21.197 48.88697-48.0368 48.99179zm11.64668-11.64669h439.16163c20.0265-.0233 36.4192-17.20215 36.4075-37.3451v-342.593112c.035-20.370055-16.7188-41.316621-36.4424-41.281681h-439.12673v265.934623h126.16856v-152.37943h223.22622v204.78952h-349.39478z"/><path d="m1115.6361 441.61325v-432.8724117-5.8233434h146.5678v268.1591451l221.4442-268.1591451h173.8443l-341.9817 438.6957551zm11.6467-11.65834h182.5385l323.8129-415.390728h-144.4946l-238.5941 288.919358v-288.919358h-123.2569zm-5.8175-415.390728v-5.8233437z"/></g><path d="m1500.9493 441.61325v-158.21442h152.3794v152.37943 5.83499zm146.5561-5.83499v-5.82335zm-134.9094-5.82335h129.086v-134.90357h-129.086z"/><path d="m2610.4651 441.61325-196.2176-238.0641v238.0641h-140.7327v-5.83499h5.8233-5.8233v5.83499h-5.8234v-438.6957551h170.6531l178.7476 217.6299851v-217.6299851h149.4677v438.6957551zm-331.127-11.65834 123.2627-.0175v-258.84758l213.3615 258.84761h138.9392v-415.373258h-126.1628v238.529968l-195.8914-238.529968h-153.5092z"/><path d="m3341.1316 441.61325v-432.8724117-5.8233434h498.8684v130.0527251h-351.3514v21.3542h351.3514v129.08606h-350.3789v32.02256h350.3789v126.18021zm11.6467-11.67581h475.5692v-102.85771h-350.3673v-55.32759h350.3673v-105.78103h-351.3398v-44.64757h351.3398v-106.759358h-475.5692zm-5.8233-415.373258v-5.8233437z"/><path d="m3003.3661 936.59161v-432.86658-5.83499h498.88v130.0702l-351.3456-.0117v21.3542h351.3456v129.08605l-350.3848-.0175v32.04004h350.3848v126.1802zm11.6467-11.65251h475.5808v-102.88101h-350.3731v-55.31593h350.3731v-105.79268h-351.3398v-44.64758h351.3339v-106.75353h-475.5808zm-5.8234-415.39073v-5.82334z"/><path d="m360.86328 25.48828c-105.1499 131.42802-210.2986 262.86344-315.447264 394.29492h119.140624c82.95896-104.05484 165.91656-208.11076 248.875-312.16601v231.58398c-26.32747 0-52.65495 0-78.98242 0-20.60478 26.86171-41.21127 53.7221-61.81836 80.58203h248.56055c0-131.68099 0-263.36198 0-395.04297-53.24219 0-106.48438 0-159.72657 0-.20052.24935-.40104.4987-.60156.74805z"/><path d="m1027.4863 21.81641c-142.56768.003-285.13539.005-427.7031.008v245.58008h105.81055c0-50.79102 0-101.58203 0-152.37305h243.58008v225.13672c-116.46485.004-232.92969.008-349.39453.0117v82.51562c143.455-.01 286.91063-.0161 430.3652-.0586 10.2741-.54129 19.6325-7.90287 23.0645-17.52431 1.7886-4.67239 1.9725-9.75137 1.8118-14.69483-.042-49.44686-.014-98.89375-.031-148.34063-.013-63.17821.0004-126.35661-.061-189.53469-.2685-10.96077-6.1704-21.74795-15.5446-27.53054-3.5562-2.19745-7.721-3.30855-11.8985-3.19532z"/><path d="m1137.4648 26.74023v393.04297h167.3672c102.6582-131.67952 205.3132-263.36144 307.9688-395.04297-39.6179 0-79.2357 0-118.8535 0-84.526 102.34874-169.0479 204.70078-253.5723 307.05079 0-102.35026 0-204.70053 0-307.05079-34.3034 0-68.6068 0-102.9102 0z"/><path d="m26.179688 26.74023c0 36.8724-.000001 73.7448 0 110.61719h108.732422c0-37.53906 0-75.07812 0-112.61719-36.244141 0-72.488282 0-108.732422 0 0 .66667-.000001 1.33334 0 2z"/><path d="m1522.7793 419.7832h108.7324c0-38.18294 0-76.36588 0-114.54882-36.2441-.00001-72.4883 0-108.7324 0z"/><path d="m1713.9766 419.7832h248.5527c-20.6068-26.86067-41.2135-53.72135-61.8203-80.58203-26.3242 0-52.6485 0-78.9727 0 0-77.19466 0-154.38932 0-231.58398 82.9567 104.05508 165.9127 208.11072 248.8692 312.16601h119.1406c-105.3457-131.68099-210.6914-263.36198-316.0371-395.04297-53.2442 0-106.4883 0-159.7324 0z"/><path d="m2099.2891 137.35742h108.7324c0-37.53906 0-75.07812 0-112.61719-36.2442 0-72.4883 0-108.7324 0z"/><path d="m2289.5156 419.7832h102.9082c0-92.33984 0-184.67968 0-277.01953 76.1115 92.34022 152.2241 184.67963 228.336 277.01953h123.9765c0-131.68099 0-263.36198 0-395.04297-35.2734 0-70.5468 0-105.8203 0v256.77149c-70.2923-85.59048-140.5846-171.18099-210.8769-256.77149-46.1745 0-92.349 0-138.5235 0z"/><path d="m2851.4668 24.74609c-5.512.0311-10.5874 3.0402-14.3181 6.92564-6.2211 6.36975-9.5521 15.42328-8.9827 24.30561.01 113.54926.017 227.0989.058 340.6479.3915 10.19367 7.8111 19.85958 17.7567 22.43412 4.5887 1.17503 9.3627.5936 14.0414.71798h425.3195c0-29.12565 0-58.2513 0-87.37695-118.4076 0-236.8151 0-355.2227 0 0-74.07357 0-148.14713 0-222.2207h355.2227c0-28.47982 0-56.95964 0-85.43946-144.625.002-289.25.004-433.875.006z"/><path d="m3362.9551 419.7832h455.2148c0-27.50716 0-55.01432 0-82.52148-116.789 0-233.5781 0-350.3672 0 0-25.22461 0-50.44922 0-75.67383h350.3672c0-28.47982 0-56.95963 0-85.43945-117.1133 0-234.2265 0-351.3398 0 0-21.66732 0-43.33464 0-65.00196h351.3398c0-28.80208 0-57.60416 0-86.40625-151.7383 0-303.4765 0-455.2148 0z"/><path d="m1329.6387 519.73047c-5.518.0324-10.6027 3.04123-14.3345 6.93579-3.8497 3.96691-6.6079 8.95946-8.0112 14.30054-.093.34134-.2656 1.05786-.3636 1.55547-.9197 4.27513-.5693 8.6653-.675 13.00182-.3587 38.07461-.7711 76.14875-1.149 114.2232-.8294 81.67343-1.6588 163.34681-2.4882 245.02031h102.75c0-103.2032 0-206.40627 0-309.6094h93.1445v309.6094h105.8223c0-103.2032 0-206.40627 0-309.6094h91.2051v309.6094h104.8496c0-131.681 0-263.362 0-395.04299-156.9167.002-313.8334.004-470.75.006z"/><path d="m1877.9961 632.3418h108.7383c0-37.53907 0-75.07813 0-112.61719-36.2461 0-72.4922 0-108.7383 0z"/><path d="m1900.1504 914.7676h119.1426c82.9557-104.0534 165.9112-208.10701 248.8672-312.16018v231.57808c-26.3236 0-52.6472 0-78.9707 0-20.6075 26.8607-41.2149 53.7214-61.8223 80.5821h248.5527c0-131.681 0-263.362 0-395.04299-53.2435 0-106.487 0-159.7304 0-105.3464 131.68099-210.6928 263.36199-316.0391 395.04299z"/><path d="m2476.8301 519.73047c-5.5813.0374-10.7141 3.10385-14.4558 7.07305-5.8741 6.10877-9.168 14.61506-8.8843 23.09099-.2433 30.8594-.6137 61.71761-.9072 92.57655-.9215 90.76551-1.843 181.53104-2.7644 272.29654h102.748c0-103.2032 0-206.40627 0-309.6094h93.1445v309.6094h105.8223c0-103.2032 0-206.40627 0-309.6094h91.2051v309.6094h104.8476c0-131.681 0-263.362 0-395.04299-156.9186.002-313.8372.004-470.7558.006z"/><path d="m3025.1953 914.7676h455.2266c0-27.5072 0-55.0143 0-82.5215-116.793 0-233.586 0-350.3789 0 0-25.2246 0-50.4492 0-75.67383h350.3789c0-28.47982 0-56.95964 0-85.43946-117.1153 0-234.2305 0-351.3457 0 0-21.66536 0-43.33073 0-64.99609h351.3457c0-28.80404 0-57.60807 0-86.41211-151.7422 0-303.4844 0-455.2266 0z"/></g></svg>