<?xml version="1.0" encoding="UTF-8" standalone="no"?>
<svg
   height="1269"
   viewBox="0 0 3840 1268.9999"
   width="3840"
   version="1.1"
   id="svg59"
   sodipodi:docname="mame-libretro.svg"
   inkscape:version="1.3.2 (091e20e, 2023-11-25)"
   xmlns:inkscape="http://www.inkscape.org/namespaces/inkscape"
   xmlns:sodipodi="http://sodipodi.sourceforge.net/DTD/sodipodi-0.dtd"
   xmlns:xlink="http://www.w3.org/1999/xlink"
   xmlns="http://www.w3.org/2000/svg"
   xmlns:svg="http://www.w3.org/2000/svg">
  <defs
     id="defs59" />
  <sodipodi:namedview
     id="namedview59"
     pagecolor="#ffffff"
     bordercolor="#000000"
     borderopacity="0.25"
     inkscape:showpageshadow="2"
     inkscape:pageopacity="0.0"
     inkscape:pagecheckerboard="true"
     inkscape:deskcolor="#d1d1d1"
     showgrid="false"
     showguides="false"
     inkscape:zoom="0.13149703"
     inkscape:cx="2665.4594"
     inkscape:cy="1136.9078"
     inkscape:window-width="1312"
     inkscape:window-height="664"
     inkscape:window-x="0"
     inkscape:window-y="39"
     inkscape:window-maximized="0"
     inkscape:current-layer="svg59">
    <inkscape:grid
       id="grid60"
       units="px"
       originx="-1.40625e-08"
       originy="-9.404231e-08"
       spacingx="1"
       spacingy="0.99999995"
       empcolor="#0099e5"
       empopacity="0.30196078"
       color="#0099e5"
       opacity="0.14901961"
       empspacing="5"
       dotted="false"
       gridanglex="30"
       gridanglez="30"
       visible="false" />
  </sodipodi:namedview>
  <linearGradient
     id="a"
     gradientUnits="userSpaceOnUse"
     x1="557.94873"
     x2="11.5908"
     y1="80.186501"
     y2="80.186501"
     gradientTransform="matrix(6.7941241,0,0,6.7941241,-4110.0517,0.0076)">
    <stop
       offset="0"
       stop-color="#013a67"
       id="stop1" />
    <stop
       offset="1"
       stop-color="#6cd1ff"
       id="stop2" />
  </linearGradient>
  <linearGradient
     id="b">
    <stop
       offset="0"
       stop-color="#08406f"
       id="stop3" />
    <stop
       offset="1"
       stop-color="#60c5f5"
       id="stop4" />
  </linearGradient>
  <linearGradient
     id="c"
     gradientUnits="userSpaceOnUse"
     x1="64.5298"
     x2="60.584599"
     xlink:href="#b"
     y1="63.379902"
     y2="59.435001"
     gradientTransform="matrix(6.7941241,0,0,6.7941241,-10.051693,0.007558)" />
  <linearGradient
     id="d"
     gradientUnits="userSpaceOnUse"
     x1="123.1157"
     x2="119.4905"
     xlink:href="#b"
     y1="138.49899"
     y2="134.87379"
     gradientTransform="matrix(6.7941241,0,0,6.7941241,-10.051693,0.007558)" />
  <linearGradient
     id="e"
     gradientUnits="userSpaceOnUse"
     x1="25.5439"
     x2="25.5439"
     xlink:href="#b"
     y1="118.6416"
     y2="114.3281"
     gradientTransform="matrix(6.7941241,0,0,6.7941241,-10.051693,0.007558)" />
  <linearGradient
     id="f"
     gradientUnits="userSpaceOnUse"
     x1="121.0058"
     x2="121.0058"
     xlink:href="#b"
     y1="157.77049"
     y2="153.31351"
     gradientTransform="matrix(6.7941241,0,0,6.7941241,-10.051693,0.007558)" />
  <linearGradient
     id="g"
     gradientUnits="userSpaceOnUse"
     x1="427.5141"
     x2="427.5141"
     xlink:href="#b"
     y1="118.6123"
     y2="114.1455"
     gradientTransform="matrix(6.7941241,0,0,6.7941241,-10.051693,0.007558)" />
  <linearGradient
     id="h"
     gradientUnits="userSpaceOnUse"
     x1="250.88429"
     x2="250.88429"
     xlink:href="#b"
     y1="119.4834"
     y2="115.0058"
     gradientTransform="matrix(6.7941241,0,0,6.7941241,-10.051693,0.007558)" />
  <linearGradient
     id="i"
     gradientUnits="userSpaceOnUse"
     x1="522.10107"
     x2="522.10107"
     xlink:href="#b"
     y1="6.7764001"
     y2="1.9131"
     gradientTransform="matrix(6.7941241,0,0,6.7941241,-10.051693,0.007558)" />
  <linearGradient
     id="j"
     gradientUnits="userSpaceOnUse"
     x1="514.8335"
     x2="514.8335"
     xlink:href="#b"
     y1="31.304701"
     y2="27.0937"
     gradientTransform="matrix(6.7941241,0,0,6.7941241,-10.051693,0.007558)" />
  <linearGradient
     id="k"
     gradientUnits="userSpaceOnUse"
     x1="459.18991"
     x2="459.18991"
     xlink:href="#b"
     y1="74.820297"
     y2="71.100601"
     gradientTransform="matrix(6.7941241,0,0,6.7941241,-10.051693,0.007558)" />
  <linearGradient
     id="l"
     gradientUnits="userSpaceOnUse"
     x1="489.9809"
     x2="489.9809"
     xlink:href="#b"
     y1="49.700199"
     y2="44.1455"
     gradientTransform="matrix(6.7941241,0,0,6.7941241,-10.051693,0.007558)" />
  <linearGradient
     id="m"
     gradientUnits="userSpaceOnUse"
     x1="74.210899"
     x2="70.667801"
     xlink:href="#b"
     y1="93.416"
     y2="89.872803"
     gradientTransform="matrix(6.7941241,0,0,6.7941241,-10.051693,0.007558)" />
  <linearGradient
     id="n"
     gradientUnits="userSpaceOnUse"
     x1="120.0762"
     x2="114.7099"
     xlink:href="#b"
     y1="28.959"
     y2="28.959"
     gradientTransform="matrix(6.7941241,0,0,6.7941241,-10.051693,0.007558)" />
  <linearGradient
     id="o"
     gradientUnits="userSpaceOnUse"
     x1="172.90179"
     x2="166.2417"
     xlink:href="#b"
     y1="44.548801"
     y2="44.548801"
     gradientTransform="matrix(6.7941241,0,0,6.7941241,-10.051693,0.007558)" />
  <linearGradient
     id="p"
     gradientUnits="userSpaceOnUse"
     x1="255.8091"
     x2="249.8159"
     xlink:href="#b"
     y1="49.805599"
     y2="49.805599"
     gradientTransform="matrix(6.7941241,0,0,6.7941241,-10.051693,0.007558)" />
  <linearGradient
     id="q"
     gradientUnits="userSpaceOnUse"
     x1="349.0972"
     x2="343.396"
     xlink:href="#b"
     y1="29.2139"
     y2="29.2139"
     gradientTransform="matrix(6.7941241,0,0,6.7941241,-10.051693,0.007558)" />
  <linearGradient
     id="r"
     gradientUnits="userSpaceOnUse"
     x1="400.7807"
     x2="394.98389"
     xlink:href="#b"
     y1="43.034199"
     y2="43.034199"
     gradientTransform="matrix(6.7941241,0,0,6.7941241,-10.051693,0.007558)" />
  <linearGradient
     id="s"
     gradientUnits="userSpaceOnUse"
     x1="101.5859"
     x2="96.475098"
     xlink:href="#b"
     y1="93.527298"
     y2="93.527298"
     gradientTransform="matrix(6.7941241,0,0,6.7941241,-10.051693,0.007558)" />
  <linearGradient
     id="t"
     gradientUnits="userSpaceOnUse"
     x1="121.0703"
     x2="117.5167"
     xlink:href="#b"
     y1="98.426697"
     y2="94.873299"
     gradientTransform="matrix(6.7941241,0,0,6.7941241,-10.051693,0.007558)" />
  <linearGradient
     id="u"
     gradientUnits="userSpaceOnUse"
     x1="553.25732"
     x2="549.58789"
     xlink:href="#b"
     y1="17.090799"
     y2="13.4212"
     gradientTransform="matrix(6.7941241,0,0,6.7941241,-10.051693,0.007558)" />
  <linearGradient
     id="v"
     gradientUnits="userSpaceOnUse"
     x1="145.8149"
     x2="140.4165"
     xlink:href="#b"
     y1="94.467796"
     y2="94.467796"
     gradientTransform="matrix(6.7941241,0,0,6.7941241,-10.051693,0.007558)" />
  <linearGradient
     id="w"
     gradientUnits="userSpaceOnUse"
     x1="148.5976"
     x2="144.10989"
     xlink:href="#b"
     y1="31.5996"
     y2="27.111799"
     gradientTransform="matrix(6.7941241,0,0,6.7941241,-10.051693,0.007558)" />
  <linearGradient
     id="x"
     gradientUnits="userSpaceOnUse"
     x1="215.6665"
     x2="211.508"
     xlink:href="#b"
     y1="46.911098"
     y2="42.7528"
     gradientTransform="matrix(6.7941241,0,0,6.7941241,-10.051693,0.007558)" />
  <linearGradient
     id="y"
     gradientUnits="userSpaceOnUse"
     x1="304.1362"
     x2="299.75211"
     xlink:href="#b"
     y1="52.399399"
     y2="48.015099"
     gradientTransform="matrix(6.7941241,0,0,6.7941241,-10.051693,0.007558)" />
  <linearGradient
     id="z"
     gradientUnits="userSpaceOnUse"
     x1="376.7915"
     x2="372.58429"
     xlink:href="#b"
     y1="31.450199"
     y2="27.2425"
     gradientTransform="matrix(6.7941241,0,0,6.7941241,-10.051693,0.007558)" />
  <linearGradient
     id="A"
     gradientUnits="userSpaceOnUse"
     x1="488.55859"
     x2="485.10172"
     xlink:href="#b"
     y1="59.8545"
     y2="56.3978"
     gradientTransform="matrix(6.7941241,0,0,6.7941241,-10.051693,0.007558)" />
  <linearGradient
     id="B"
     gradientUnits="userSpaceOnUse"
     x1="499.62991"
     x2="495.66959"
     xlink:href="#b"
     y1="103.9658"
     y2="100.0056"
     gradientTransform="matrix(6.7941241,0,0,6.7941241,-10.051693,0.007558)" />
  <linearGradient
     id="C"
     gradientUnits="userSpaceOnUse"
     x1="441.6572"
     x2="437.37241"
     xlink:href="#b"
     y1="46.205101"
     y2="41.920399"
     gradientTransform="matrix(6.7941241,0,0,6.7941241,-10.051693,0.007558)" />
  <linearGradient
     id="D"
     gradientUnits="userSpaceOnUse"
     x1="486.67969"
     x2="481.56689"
     xlink:href="#b"
     y1="41.239201"
     y2="36.126598"
     gradientTransform="matrix(6.7941241,0,0,6.7941241,-10.051693,0.007558)" />
  <linearGradient
     id="E"
     gradientUnits="userSpaceOnUse"
     x1="185.79829"
     x2="182.15511"
     xlink:href="#b"
     y1="116.9199"
     y2="113.2766"
     gradientTransform="matrix(6.7941241,0,0,6.7941241,-10.051693,0.007558)" />
  <linearGradient
     id="F"
     gradientUnits="userSpaceOnUse"
     x1="302.84909"
     x2="299.20789"
     xlink:href="#b"
     y1="93.7285"
     y2="90.087303"
     gradientTransform="matrix(6.7941241,0,0,6.7941241,-10.051693,0.007558)" />
  <linearGradient
     id="G"
     gradientUnits="userSpaceOnUse"
     x1="349.7099"
     x2="346.20001"
     xlink:href="#b"
     y1="97.674797"
     y2="94.164803"
     gradientTransform="matrix(6.7941241,0,0,6.7941241,-10.051693,0.007558)" />
  <linearGradient
     id="H"
     gradientUnits="userSpaceOnUse"
     x1="370.62689"
     x2="366.20251"
     xlink:href="#b"
     y1="118.2324"
     y2="113.8083"
     gradientTransform="matrix(6.7941241,0,0,6.7941241,-10.051693,0.007558)" />
  <linearGradient
     id="I"
     gradientUnits="userSpaceOnUse"
     x1="229.2778"
     x2="223.2402"
     xlink:href="#b"
     y1="96.358398"
     y2="96.358398"
     gradientTransform="matrix(6.7941241,0,0,6.7941241,-10.051693,0.007558)" />
  <linearGradient
     id="J"
     gradientUnits="userSpaceOnUse"
     x1="330.12451"
     x2="324.9126"
     xlink:href="#b"
     y1="93.108398"
     y2="93.108398"
     gradientTransform="matrix(6.7941241,0,0,6.7941241,-10.051693,0.007558)" />
  <linearGradient
     id="K"
     gradientUnits="userSpaceOnUse"
     x1="374.7905"
     x2="368.54541"
     xlink:href="#b"
     y1="92.3955"
     y2="92.3955"
     gradientTransform="matrix(6.7941241,0,0,6.7941241,-10.051693,0.007558)" />
  <linearGradient
     id="L"
     gradientUnits="userSpaceOnUse"
     x1="440.4585"
     x2="436.0397"
     xlink:href="#b"
     y1="84.265602"
     y2="79.846901"
     gradientTransform="matrix(6.7941241,0,0,6.7941241,-10.051693,0.007558)" />
  <linearGradient
     id="M"
     gradientUnits="userSpaceOnUse"
     x1="472.74069"
     x2="472.74069"
     xlink:href="#b"
     y1="94.098602"
     y2="88.295898"
     gradientTransform="matrix(6.7941241,0,0,6.7941241,-10.051693,0.007558)" />
  <g
     id="g5"
     style="fill:#ffffff"
     transform="translate(-1.735,0.00199991)">
    <g
       id="g4"
       transform="scale(1,0.99995501)"
       style="fill:#ffffff">
      <g
         id="g1"
         style="fill:#ffffff" />
      <g
         id="g3"
         style="fill:#ffffff">
        <g
           fill="#c0392b"
           id="g44"
           transform="matrix(6.7941241,0,0,6.7941241,-10.051693,0.007558)"
           style="fill:#ffffff">
          <path
             d="m 199.027,180.485 c 3.235,0 5.857,2.921 5.857,6.156 H 186.913 V 128.36 h 5.958 v 52.125 z"
             id="path42"
             style="fill:#ffffff" />
          <path
             d="m 215.707,186.642 c -3.235,0 -6.057,-2.923 -6.057,-6.156 v -40.459 h 6.057 z"
             id="path43"
             style="fill:#ffffff" />
          <path
             d="m 233.678,140.026 h -6.157 V 128.36 h -6.055 v 58.281 h 12.212 c 3.235,0 5.857,-2.923 5.857,-6.156 v -34.75 c 0,-3.235 -2.622,-5.709 -5.857,-5.709 z m -0.1,40.459 h -6.057 v -34.65 h 6.057 z"
             id="path44"
             style="fill:#ffffff" />
        </g>
        <path
           d="m 1661.8939,869.68941 h 329.3588 c 0,0 18.7178,3.03018 24.7849,14.16575 6.0672,11.14237 53.6329,109.27669 58.1781,120.40544 4.5521,11.1424 0.5028,19.2274 -6.0807,27.8424 -6.5835,8.6013 -74.8781,86.5027 -74.8781,86.5027 l 83.4727,147.0589 h -125.9699 c 0,0 -98.6575,-168.8204 -104.2151,-176.9054 -5.5712,-8.0851 -5.5712,-21.2521 6.5699,-21.2521 h 43.0069 c 5.5575,0 8.0918,-1.0055 14.6685,-6.5699 6.5767,-5.5712 40.4726,-46.5601 40.4726,-46.5601 0,0 -16.1904,-43.5028 -19.7302,-51.60139 -3.5397,-8.0986 -11.1355,-10.61922 -18.2082,-10.61922 -7.0795,0 -126.9754,0 -126.9754,0 v 313.50131 h -124.4616 z"
           fill="#231f20"
           id="path45"
           style="fill:#ffffff;stroke-width:6.79412" />
        <path
           d="m 1948.8166,1269.0548 -0.9852,-1.6849 c -0.054,-0.082 -24.6558,-42.2119 -49.9979,-85.4157 -25.3217,-43.1359 -51.5267,-87.6103 -54.0745,-91.2791 -2.6293,-3.8591 -4.1716,-8.4859 -4.1851,-13.0175 0,-3.336 0.8764,-6.733 3.2136,-9.4031 2.3372,-2.6769 6.0264,-4.2056 10.3406,-4.1648 12.1547,0 37.4425,0 43.0068,0.014 5.0685,-0.1699 5.7886,-0.3261 12.4808,-5.775 2.7449,-2.2829 13.1059,-14.1318 22.2984,-24.9752 7.1542,-8.4112 13.7988,-16.4146 16.4893,-19.6486 -3.1253,-8.3772 -15.973,-42.72828 -18.976,-49.58356 -2.8603,-6.50877 -8.6693,-8.50624 -15.0829,-8.58777 -3.5398,0 -35.2955,0 -66.1544,0 -24.6695,0 -48.7411,0 -57.4308,0 v 313.50803 h -131.2692 v -399.35858 -3.41065 h 3.4106 329.3452 c 14.0299,-0.38727 21.8159,4.19877 27.7744,15.9526 6.2302,11.46848 53.6192,109.20196 58.3547,120.73843 1.4743,3.6348 2.1741,7.1202 2.1605,10.4425 0,8.0103 -3.9677,14.5055 -8.6897,20.7493 -6.2098,8.1054 -63.1378,73.1183 -73.4309,84.8586 l 85.1712,150.0346 z m 122.0836,-6.8077 -81.7673,-144.0898 1.5762,-1.8004 c 0.082,-0.1019 68.4033,-78.0509 74.7286,-86.3194 4.5181,-5.9312 7.3309,-11.0404 7.3173,-16.6252 -0.014,-2.3779 -0.4824,-4.9393 -1.685,-7.8676 -4.3822,-10.7279 -52.1177,-109.26308 -58.0218,-120.05895 -6.1826,-10.53089 -8.5062,-12.00522 -21.8023,-12.39927 -12.8273,0 -291.896,0 -325.9481,0 v 389.16062 h 117.6538 V 948.74584 h 3.4107 126.9754 c 7.7521,-0.0883 17.1076,2.97583 21.3199,12.65066 3.6553,8.36357 19.7709,51.7305 19.7981,51.778 l 0.6862,1.8412 -1.2501,1.5219 c -0.1563,0.1427 -33.6105,40.7308 -40.9006,46.9814 -6.4545,5.6663 -10.8095,7.5211 -16.8631,7.3784 -5.5643,-0.014 -30.8521,-0.014 -43.0068,-0.014 -5.5168,0.3057 -6.3796,2.4051 -6.7669,6.7738 -0.014,2.901 1.121,6.468 2.9962,9.1584 5.4897,8.0239 93.0727,157.8343 103.3658,175.4311 z"
           fill="#ffffff"
           id="path46"
           style="fill:#ffffff;stroke-width:6.79412" />
        <path
           d="m 2930.683,869.68941 h 329.3452 c 13.6698,0 18.7246,3.03018 24.7849,14.16575 6.0672,11.14237 53.6397,109.27669 58.1781,120.40544 4.5657,11.1424 0.5028,19.2274 -6.0671,27.8424 -6.5835,8.6013 -74.8781,86.5027 -74.8781,86.5027 l 83.4794,147.0589 H 3219.542 c 0,0 -98.6507,-168.8204 -104.2219,-176.9054 -5.5576,-8.0851 -5.5576,-21.2521 6.5835,-21.2521 h 42.9933 c 5.5711,0 8.0918,-1.0055 14.6753,-6.5699 6.5835,-5.5712 40.4726,-46.5601 40.4726,-46.5601 0,0 -16.1904,-43.5028 -19.7302,-51.60139 -3.5329,-8.0918 -11.122,-10.61922 -18.2082,-10.61922 -7.0863,0 -126.9754,0 -126.9754,0 V 1265.6578 H 2930.6762 V 869.68941 Z"
           fill="#231f20"
           id="path47"
           style="fill:#ffffff;stroke-width:6.79412" />
        <path
           d="m 3217.5921,1269.048 -0.9716,-1.6849 c -0.068,-0.088 -24.6694,-42.1983 -50.0115,-85.4089 -25.3217,-43.1291 -51.5267,-87.5967 -54.0745,-91.2791 -2.6293,-3.8523 -4.1648,-8.4859 -4.1783,-13.0243 -0.027,-3.3224 0.8764,-6.7194 3.2136,-9.3963 2.3236,-2.6837 6.0128,-4.192 10.3474,-4.158 h 42.9932 c 5.0685,-0.1495 5.7886,-0.3193 12.4876,-5.7682 2.7449,-2.2964 13.1127,-14.1318 22.3051,-24.9752 7.1407,-8.4112 13.7989,-16.4146 16.4826,-19.6486 -3.1185,-8.35 -15.9662,-42.72149 -18.976,-49.56997 -2.8671,-6.52915 -8.6761,-8.51983 -15.0897,-8.60136 -3.5398,0 -35.2955,0 -66.1476,0 -24.6967,0 -48.7683,0 -57.4308,0 v 313.50123 h -131.2624 v -399.34499 -3.41065 h 3.4106 329.3588 c 14.023,-0.39406 21.8023,4.19198 27.7608,15.93222 6.2505,11.46849 53.6124,109.21555 58.3479,120.73842 1.5015,3.6552 2.1741,7.1406 2.1741,10.4629 -0.014,7.9967 -3.9678,14.4987 -8.6897,20.7357 -6.2098,8.0918 -63.1378,73.1183 -73.4377,84.8586 l 85.1644,150.0346 h -133.7763 z m 122.0972,-6.8009 -81.7809,-144.083 1.6034,-1.8072 c 0.054,-0.1087 68.3897,-78.0509 74.7082,-86.3194 4.4977,-5.9312 7.3241,-11.054 7.3105,-16.6184 0,-2.3983 -0.4756,-4.9461 -1.685,-7.8812 -4.3686,-10.71431 -52.0973,-109.24949 -58.015,-120.05215 -6.169,-10.53089 -8.5198,-12.00522 -21.8023,-12.39248 -12.8341,-0.0136 -291.896,-0.0136 -325.9481,0 v 389.15383 h 117.6334 V 948.74584 h 3.4107 126.9754 c 7.7521,-0.0883 17.1212,2.97583 21.3267,12.65066 3.6485,8.37716 19.7709,51.7237 19.7981,51.778 l 0.693,1.8412 -1.2501,1.5287 c -0.1427,0.1427 -33.6241,40.7104 -40.9006,46.9746 -6.4612,5.6799 -10.8027,7.5347 -16.8631,7.3648 -5.5575,0 -30.8657,0 -42.9932,0 -5.5304,0.3057 -6.3932,2.3983 -6.7805,6.767 -0.027,2.9214 1.1142,6.4748 2.9962,9.172 5.4964,8.0171 93.0591,157.8071 103.3726,175.4243 z"
           fill="#ffffff"
           id="path48"
           style="fill:#ffffff;stroke-width:6.79412" />
        <path
           d="m 2099.5238,1265.6578 c 0,0 0,-253.2986 0,-261.9067 0,-8.60139 2.0179,-12.13434 6.0672,-20.74249 4.0629,-8.60816 50.5958,-94.10541 55.6643,-102.19042 5.0548,-8.0918 12.1411,-11.13557 25.7972,-11.13557 h 327.7486 v 81.95752 c 0,0 -237.1965,0 -246.3006,0 -9.1041,0 -13.1534,0.51635 -19.2274,13.66978 -6.0739,13.15342 -25.2945,59.69998 -25.2945,59.69998 h 249.4191 v 82.4671 h -249.4191 v 74.878 h 290.8225 v 83.3096 h -415.2773 z"
           fill="#231f20"
           id="path49"
           style="fill:#ffffff;stroke-width:6.79412" />
        <path
           d="m 2099.5238,1269.0548 v -3.397 h 3.3971 -3.3971 v 3.397 h -3.397 v -3.397 c 0,-0.014 0,-253.3054 0,-261.9067 -0.054,-9.21286 2.4119,-13.83287 6.3729,-22.18964 4.2735,-8.99542 50.5686,-94.07824 55.868,-102.5573 5.5848,-9.21283 14.7025,-12.88846 28.6916,-12.73219 h 327.7486 3.3835 v 88.75164 h -3.3835 c -0.014,0 -237.1965,0 -246.3006,0 -9.1177,0.55712 -9.6477,-0.89003 -16.1496,11.69948 -4.8307,10.45616 -18.2626,42.72141 -23.3039,54.87611 h 247.7478 v 89.268 l -249.4191,-0.014 v 68.084 h 290.8224 v 90.1104 z m 411.8666,-6.8077 v -76.5018 H 2220.568 v -81.679 h 249.4326 v -75.6661 H 2218.883 l 1.9363,-4.6948 c 0.014,-0.034 19.2138,-46.50577 25.3557,-59.82225 5.6527,-13.71734 13.2146,-16.19719 22.3187,-15.64007 h 242.9035 v -75.1634 c -33.9842,0 -311.5445,0 -324.365,0 -13.3369,0.16306 -18.3917,2.56818 -22.9166,9.52536 -4.8306,7.71133 -51.6354,93.63662 -55.4673,101.83713 -4.124,8.85274 -5.6798,11.31901 -5.7478,19.30893 v 258.4892 z"
           fill="#ffffff"
           id="path50"
           style="fill:#ffffff;stroke-width:6.79412" />
        <path
           id="path51"
           style="fill:#ffffff;stroke-width:6.79412"
           d="m 2639.5885,869.69527 v 124.45507 h -124.7871 v 145.44336 h 124.7871 v 126.0645 h 148.4863 v -126.0645 h 121.92 V 994.15034 h -121.92 V 869.69527 Z m 74.1113,41.99609 42,41.98047 h -85.496 z m -0.4902,111.55864 c 24.1667,0 43.7481,19.594 43.7481,43.7539 0,24.1663 -19.5882,43.7617 -43.7481,43.7617 -24.1803,0 -43.7598,-19.5954 -43.7598,-43.7617 0,-24.1667 19.5863,-43.7539 43.7598,-43.7539 z m -113.0879,0.5039 v 85.4824 l -41.9883,-43.502 z m 225.6406,0 42,43.4961 -42,41.9863 z m -155.5585,155.5644 h 85.496 l -43.5156,41.9883 z" />
        <path
           d="m 2636.1849,1269.0548 v -126.065 H 2511.3972 V 990.74032 h 124.7877 V 866.28556 h 155.2865 v 124.45476 h 121.9138 v 152.24948 l -121.9274,-0.02 v 126.0853 z m -118.0003,-132.8659 h 124.8012 v 126.0582 h 141.6847 v -126.0582 h 121.9138 V 997.54124 h -118.51 v -3.39706 h 3.3971 -3.3971 v 3.39706 h -3.4038 V 873.07968 h -141.6847 v 124.46156 l -124.8012,-0.0136 z m 195.0253,-22.0401 v -3.3835 -3.4106 c 22.2779,-0.041 40.3027,-18.0588 40.3435,-40.3503 -0.041,-22.2916 -18.0588,-40.33 -40.3435,-40.3639 -22.3051,0.041 -40.3299,18.0723 -40.3639,40.3639 0.041,22.2915 18.0588,40.3163 40.3639,40.3639 v 3.397 3.3835 c -26.0623,0 -47.158,-21.1094 -47.1784,-47.1444 0.02,-26.0487 21.1161,-47.1513 47.1784,-47.1648 26.0351,0.014 47.1376,21.1161 47.1376,47.1648 0,26.035 -21.1025,47.1444 -47.1376,47.1648 z"
           id="path52"
           style="fill:#ffffff;stroke-width:6.79412" />
        <path
           d="m 3680.5233,869.68941 h -238.1272 c -44.1347,0 -79.9397,35.79145 -79.9397,79.93967 v 236.09582 c 0,44.1482 35.805,79.9397 79.9397,79.9397 h 238.1272 c 44.1482,0 79.9397,-35.7915 79.9397,-79.9397 V 949.62908 c -0.02,-44.15501 -35.7915,-79.93967 -79.9397,-79.93967 z m -119.0738,317.03419 c -65.937,0 -119.3999,-53.4561 -119.3999,-119.3931 0,-65.937 53.4629,-119.38637 119.3999,-119.38637 65.937,0 119.3999,53.44937 119.3999,119.38637 0,65.937 -53.4629,119.3931 -119.3999,119.3931 z"
           fill="#231f20"
           id="path56"
           style="fill:#ffffff;stroke-width:6.79412" />
        <path
           d="m 3442.3893,1269.048 c -46.0098,0 -83.3368,-37.3065 -83.3368,-83.3367 V 949.62228 c 0,-46.03698 37.3202,-83.33672 83.3368,-83.35031 h 238.134 v 3.40386 3.39026 h -238.134 c -42.2595,0.0951 -76.4679,34.28315 -76.5426,76.55619 v 236.08902 c 0.075,42.273 34.2831,76.4611 76.5426,76.5358 h 238.134 c 42.2663,-0.075 76.4543,-34.2628 76.5426,-76.5358 V 949.62228 c -0.014,-42.28662 -34.2763,-76.55619 -76.5426,-76.55619 v -3.39026 -3.40386 c 46.0234,0.0136 83.3096,37.32012 83.3232,83.35031 l 0.014,236.08902 c -0.014,46.0234 -37.3201,83.3367 -83.3367,83.3367 z m -3.7436,-201.7243 c 0,-67.81216 54.9916,-122.77663 122.7902,-122.79022 67.819,0.0136 122.797,54.97806 122.8106,122.79022 -0.014,67.8189 -54.9916,122.7902 -122.8106,122.7902 v -3.3903 -3.4038 c 64.0686,-0.1223 115.901,-51.9479 116.0097,-115.9961 -0.1155,-64.055 -51.9479,-115.88059 -116.0097,-115.9893 -64.0686,0.1155 -115.8806,51.9411 -115.9893,115.9893 0.1155,64.055 51.9275,115.8806 115.9893,115.9961 v 3.4038 3.3903 c -67.7986,0 -122.7902,-54.9713 -122.7902,-122.7902 z"
           fill="#ffffff"
           id="path57"
           style="fill:#ffffff;stroke-width:6.79412" />
        <path
           d="m 1414.3364,872.10133 h 41.152 v 42.59236 h -41.152 z"
           fill="#c0392b"
           id="path58"
           style="fill:#ffffff;stroke-width:6.79412" />
        <g
           fill="#ffffff"
           id="g2"
           transform="translate(1.7350001,-0.00199991)"
           style="fill:#ffffff">
          <path
             d="m 2672.8555,636.82031 c -12.5183,12.51823 -25.0365,25.03646 -37.5547,37.55469 0,-186.16667 0,-372.33333 0,-558.5 -116.0671,116.06641 -232.1342,232.13279 -348.2012,348.19922 0,-116.06641 0,-232.13281 0,-348.19922 -195.6332,195.64937 -391.2686,391.29649 -586.9004,586.94727 0.032,-195.64909 0.068,-391.29818 0.1016,-586.94727 -186.1667,186.16667 -372.3334,372.33333 -558.5,558.5 0,-186.16667 0,-372.33333 0,-558.5 -116.0671,116.06641 -232.13415,232.13279 -348.20119,348.19922 0,-116.06641 0,-232.13281 0,-348.19922 C 567.69141,341.7832 341.7832,567.69141 115.875,793.59961 H 328.32422 C 455.7492,666.20818 583.17539,538.81797 710.59961,411.42578 V 759.625 l 281,-281 v 345.94922 c -74.8418,74.8418 -149.68359,149.68359 -224.52539,224.52538 H 979.52539 C 1169.6835,858.97451 1359.8424,668.85021 1550,478.72461 v 314.875 h 271.9258 C 1949.3171,666.20833 2076.7083,538.81706 2204.0996,411.42578 V 759.625 c 93.6667,-93.66667 187.3333,-187.33333 281,-281 v 314.97461 h 755.3262 c 44.8821,-44.89974 89.7643,-89.79948 134.6465,-134.69922 -170.5827,0 -341.1654,0 -511.7481,0 50.6667,-50.66667 101.3334,-101.33333 152,-152 h 143.6016 c 44.8841,-44.86654 89.7682,-89.73307 134.6523,-134.59961 -47.8841,0 -95.7682,0 -143.6523,0 50.6666,-50.66667 101.3333,-101.33333 152,-152 h 287 c 44.8997,-44.90039 89.7995,-89.80078 134.6992,-134.701171 -166.5169,0 -333.0339,0 -499.5508,0 C 3040.3346,269.33984 2856.5951,453.08008 2672.8555,636.82031 Z"
             transform="matrix(1.0077335,0,0,1.0077335,-14.596403,-13.659329)"
             id="path1"
             style="fill:#ffffff" />
          <path
             d="M 14.484375,835.59961 H 345.71484 C 453.30989,728.0052 560.90497,620.41083 668.5,512.81641 v 348.19921 c 93.66667,-93.66666 187.33333,-187.33333 281,-281 V 807.18359 C 854.86133,901.82227 760.22266,996.46094 665.58398,1091.0996 H 996.91602 C 1167.2772,920.77137 1337.6393,750.44403 1508,580.11523 v 255.48438 h 331.2148 C 1946.8099,728.0052 2054.405,620.41083 2162,512.81641 v 348.19921 c 93.6667,-93.66666 187.3333,-187.33333 281,-281 v 227.26954 c -9.4388,9.43819 -18.8776,18.87629 -28.3164,28.31445 h 843.0312 c 72.9004,-72.89974 145.8008,-145.79948 218.7012,-218.69922 -170.6002,0 -341.2005,0 -511.8008,0 22.6667,-22.66667 45.3334,-45.33333 68,-68 h 143.7012 C 3249.2161,476 3322.1159,403.09961 3395.0156,330.19922 c -47.8997,0 -95.7995,0 -143.6992,0 22.6667,-22.66667 45.3333,-45.33333 68,-68 h 287 C 3679.2161,189.29948 3752.1159,116.39974 3825.0156,43.5 c -206.1107,0 -412.2213,0 -618.332,0 -176.4609,176.46159 -352.9219,352.92319 -529.3828,529.38477 0,-186.13347 0,-372.26693 0,-558.400395 -116.0671,116.066405 -232.1342,232.132795 -348.2012,348.199215 0,-116.0664 0,-232.13281 0,-348.199215 -195.6331,195.635735 -391.2688,391.268905 -586.9004,586.906245 0.032,-195.63541 0.068,-391.27083 0.1016,-586.906245 -186.1667,186.166665 -372.3334,372.333335 -558.5,558.500005 0,-186.16667 0,-372.33334 0,-558.500005 C 1067.7337,130.55078 951.66665,246.61717 835.59961,362.68359 c 0,-116.0664 0,-232.13281 0,-348.199215 C 561.89453,288.18945 288.18945,561.89453 14.484375,835.59961 Z M 1723.0996,65.839844 c -0.038,194.025386 -0.071,388.050776 -0.1,582.076176 C 1918.6331,452.28255 2114.2665,256.64909 2309.9,61.015625 V 409.21484 c 116.0332,-116.0332 232.0664,-232.0664 348.0996,-348.099606 V 619.61523 C 2843.5712,434.04362 3029.1428,248.47201 3214.7144,62.900391 h 563.67 c -60,59.999999 -120,119.999999 -180,179.999999 -95.6999,0 -191.3998,0 -287.0996,0 -35.5671,35.56641 -71.1342,71.13281 -106.7012,106.69922 h 143.7012 c -60,60 -120,120 -180,180 -47.9004,0 -95.8008,0 -143.7012,0 -35.5664,35.56706 -71.1328,71.13411 -106.6992,106.70117 h 511.7988 c -60,60 -120,120 -180,180 -262.4609,0 -524.9219,0 -787.3828,0 0,-94.30534 0,-188.61068 0,-282.91601 -93.7005,93.69987 -187.4011,187.39971 -281.1016,281.09961 0,-116.10027 0,-232.20053 0,-348.30079 -116.7051,116.70573 -233.4101,233.41147 -350.1152,350.11719 -101.3281,0 -202.6563,0 -303.9844,0 0,-94.27213 0,-188.54427 0,-282.8164 -179.472,179.472 -358.944,358.94401 -538.41601,538.41602 -92.12435,0 -184.24869,0 -276.37304,0 C 797.87425,986.37295 883.43676,900.84431 969,815.31641 c 0,-93.94467 0,-187.88933 0,-281.83399 -93.67322,93.65883 -187.39786,187.2662 -281.09961,280.89649 0,-116.06511 0,-232.13021 0,-348.19532 -116.70508,116.70573 -233.41015,233.41147 -350.11523,350.11719 -92.22331,0 -184.44662,0 -276.669926,0 C 312.84375,564.57227 564.57227,312.84375 816.30078,61.115234 V 409.31641 C 932.40039,293.21615 1048.5,177.11587 1164.5996,61.015625 V 619.51562 c 186.1664,-186.16894 372.3353,-372.33531 558.5,-558.505854 z"
             transform="matrix(1.0077335,0,0,1.0077335,-14.59639,-14.59639)"
             id="path2"
             style="fill:#ffffff" />
        </g>
      </g>
    </g>
  </g>
</svg>
