<svg height="1084.9413" viewBox="0 0 3840 1084.9413" width="3840" xmlns="http://www.w3.org/2000/svg"><g fill="#fff"><path d="m2672.8555 636.82031c-12.5183 12.51823-25.0365 25.03646-37.5547 37.55469 0-186.16667 0-372.33333 0-558.5-116.0671 116.06641-232.1342 232.13279-348.2012 348.19922 0-116.06641 0-232.13281 0-348.19922-195.6332 195.64937-391.2686 391.29649-586.9004 586.94727.032-195.64909.068-391.29818.1016-586.94727-186.1667 186.16667-372.3334 372.33333-558.5 558.5 0-186.16667 0-372.33333 0-558.5-116.0671 116.06641-232.13415 232.13279-348.20119 348.19922 0-116.06641 0-232.13281 0-348.19922-225.9082 225.9082-451.81641 451.81641-677.72461 677.72461h212.44922c127.42498-127.39143 254.85117-254.78164 382.27539-382.17383v348.19922l281-281v345.94922c-74.8418 74.8418-149.68359 149.68359-224.52539 224.52538h212.45117c190.15811-190.12509 380.31701-380.24939 570.47461-570.37499v314.875h271.9258c127.3913-127.39128 254.7825-254.78255 382.1738-382.17383v348.19922c93.6667-93.66667 187.3333-187.33333 281-281v314.97461h755.3262c44.8821-44.89974 89.7643-89.79948 134.6465-134.69922-170.5827 0-341.1654 0-511.7481 0 50.6667-50.66667 101.3334-101.33333 152-152h143.6016c44.8841-44.86654 89.7682-89.73307 134.6523-134.59961-47.8841 0-95.7682 0-143.6523 0 50.6666-50.66667 101.3333-101.33333 152-152h287c44.8997-44.90039 89.7995-89.80078 134.6992-134.701171-166.5169 0-333.0339 0-499.5508 0-183.7396 183.740231-367.4791 367.480471-551.2187 551.220701z" transform="matrix(1.0077335 0 0 1.0077335 -14.596403 -13.659329)"/><path d="m14.484375 835.59961h331.230465c107.59505-107.59441 215.19013-215.18878 322.78516-322.7832v348.19921c93.66667-93.66666 187.33333-187.33333 281-281v227.16797c-94.63867 94.63868-189.27734 189.27735-283.91602 283.91601h331.33204c170.36118-170.32823 340.72328-340.65557 511.08398-510.98437v255.48438h331.2148c107.5951-107.59441 215.1902-215.18878 322.7852-322.7832v348.19921c93.6667-93.66666 187.3333-187.33333 281-281v227.26954c-9.4388 9.43819-18.8776 18.87629-28.3164 28.31445h843.0312c72.9004-72.89974 145.8008-145.79948 218.7012-218.69922-170.6002 0-341.2005 0-511.8008 0 22.6667-22.66667 45.3334-45.33333 68-68h143.7012c72.8997-72.90039 145.7995-145.80078 218.6992-218.70117-47.8997 0-95.7995 0-143.6992 0 22.6667-22.66667 45.3333-45.33333 68-68h287c72.8997-72.89974 145.7995-145.79948 218.6992-218.69922-206.1107 0-412.2213 0-618.332 0-176.4609 176.46159-352.9219 352.92319-529.3828 529.38477 0-186.13347 0-372.26693 0-558.400395-116.0671 116.066405-232.1342 232.132795-348.2012 348.199215 0-116.0664 0-232.13281 0-348.199215-195.6331 195.635735-391.2688 391.268905-586.9004 586.906245.032-195.63541.068-391.27083.1016-586.906245-186.1667 186.166665-372.3334 372.333335-558.5 558.500005 0-186.16667 0-372.33334 0-558.500005-116.0671 116.066405-232.13415 232.132795-348.20119 348.199215 0-116.0664 0-232.13281 0-348.199215-273.70508 273.705075-547.41016 547.410155-821.115235 821.115235zm1708.615225-769.759766c-.038 194.025386-.071 388.050776-.1 582.076176 195.6335-195.63347 391.2669-391.26693 586.9004-586.900395v348.199215c116.0332-116.0332 232.0664-232.0664 348.0996-348.099606v558.499996c185.5716-185.57161 371.1432-371.14322 556.7148-556.714839h563.67c-60 59.999999-120 119.999999-180 179.999999-95.6999 0-191.3998 0-287.0996 0-35.5671 35.56641-71.1342 71.13281-106.7012 106.69922h143.7012c-60 60-120 120-180 180-47.9004 0-95.8008 0-143.7012 0-35.5664 35.56706-71.1328 71.13411-106.6992 106.70117h511.7988c-60 60-120 120-180 180-262.4609 0-524.9219 0-787.3828 0 0-94.30534 0-188.61068 0-282.91601-93.7005 93.69987-187.4011 187.39971-281.1016 281.09961 0-116.10027 0-232.20053 0-348.30079-116.7051 116.70573-233.4101 233.41147-350.1152 350.11719-101.3281 0-202.6563 0-303.9844 0 0-94.27213 0-188.54427 0-282.8164-179.472 179.472-358.944 358.94401-538.41601 538.41602-92.12435 0-184.24869 0-276.37304 0 85.5641-85.52745 171.12661-171.05609 256.68985-256.58399 0-93.94467 0-187.88933 0-281.83399-93.67322 93.65883-187.39786 187.2662-281.09961 280.89649 0-116.06511 0-232.13021 0-348.19532-116.70508 116.70573-233.41015 233.41147-350.11523 350.11719-92.22331 0-184.44662 0-276.669926 0 251.728516-251.72851 503.457036-503.45703 755.185546-755.185546v348.201176c116.09961-116.10026 232.19922-232.20054 348.29882-348.300785v558.499995c186.1664-186.16894 372.3353-372.33531 558.5-558.505854z" transform="matrix(1.0077335 0 0 1.0077335 -14.59639 -14.59639)"/></g></svg>