<?xml version="1.0" encoding="UTF-8" standalone="no"?>
<svg
   height="1084"
   viewBox="0 0 3840 1084"
   width="3840"
   version="1.1"
   id="svg2"
   sodipodi:docname="mame.svg"
   inkscape:version="1.3.2 (091e20e, 2023-11-25)"
   xmlns:inkscape="http://www.inkscape.org/namespaces/inkscape"
   xmlns:sodipodi="http://sodipodi.sourceforge.net/DTD/sodipodi-0.dtd"
   xmlns="http://www.w3.org/2000/svg"
   xmlns:svg="http://www.w3.org/2000/svg">
  <defs
     id="defs2" />
  <sodipodi:namedview
     id="namedview2"
     pagecolor="#ffffff"
     bordercolor="#000000"
     borderopacity="0.25"
     inkscape:showpageshadow="2"
     inkscape:pageopacity="0.0"
     inkscape:pagecheckerboard="0"
     inkscape:deskcolor="#d1d1d1"
     inkscape:zoom="0.1538122"
     inkscape:cx="1921.1741"
     inkscape:cy="539.61911"
     inkscape:window-width="1312"
     inkscape:window-height="449"
     inkscape:window-x="0"
     inkscape:window-y="23"
     inkscape:window-maximized="0"
     inkscape:current-layer="svg2" />
  <g
     id="g3"
     transform="scale(1,0.99913246)">
    <g
       fill="#ffffff"
       id="g2">
      <path
         d="m 2672.8555,636.82031 c -12.5183,12.51823 -25.0365,25.03646 -37.5547,37.55469 0,-186.16667 0,-372.33333 0,-558.5 -116.0671,116.06641 -232.1342,232.13279 -348.2012,348.19922 0,-116.06641 0,-232.13281 0,-348.19922 -195.6332,195.64937 -391.2686,391.29649 -586.9004,586.94727 0.032,-195.64909 0.068,-391.29818 0.1016,-586.94727 -186.1667,186.16667 -372.3334,372.33333 -558.5,558.5 0,-186.16667 0,-372.33333 0,-558.5 -116.0671,116.06641 -232.13415,232.13279 -348.20119,348.19922 0,-116.06641 0,-232.13281 0,-348.19922 C 567.69141,341.7832 341.7832,567.69141 115.875,793.59961 H 328.32422 C 455.7492,666.20818 583.17539,538.81797 710.59961,411.42578 V 759.625 l 281,-281 v 345.94922 c -74.8418,74.8418 -149.68359,149.68359 -224.52539,224.52538 H 979.52539 C 1169.6835,858.97451 1359.8424,668.85021 1550,478.72461 v 314.875 h 271.9258 C 1949.3171,666.20833 2076.7083,538.81706 2204.0996,411.42578 V 759.625 c 93.6667,-93.66667 187.3333,-187.33333 281,-281 v 314.97461 h 755.3262 c 44.8821,-44.89974 89.7643,-89.79948 134.6465,-134.69922 -170.5827,0 -341.1654,0 -511.7481,0 50.6667,-50.66667 101.3334,-101.33333 152,-152 h 143.6016 c 44.8841,-44.86654 89.7682,-89.73307 134.6523,-134.59961 -47.8841,0 -95.7682,0 -143.6523,0 50.6666,-50.66667 101.3333,-101.33333 152,-152 h 287 c 44.8997,-44.90039 89.7995,-89.80078 134.6992,-134.701171 -166.5169,0 -333.0339,0 -499.5508,0 C 3040.3346,269.33984 2856.5951,453.08008 2672.8555,636.82031 Z"
         transform="matrix(1.0077335,0,0,1.0077335,-14.596403,-13.659329)"
         id="path1" />
      <path
         d="M 14.484375,835.59961 H 345.71484 C 453.30989,728.0052 560.90497,620.41083 668.5,512.81641 v 348.19921 c 93.66667,-93.66666 187.33333,-187.33333 281,-281 V 807.18359 C 854.86133,901.82227 760.22266,996.46094 665.58398,1091.0996 H 996.91602 C 1167.2772,920.77137 1337.6393,750.44403 1508,580.11523 v 255.48438 h 331.2148 C 1946.8099,728.0052 2054.405,620.41083 2162,512.81641 v 348.19921 c 93.6667,-93.66666 187.3333,-187.33333 281,-281 v 227.26954 c -9.4388,9.43819 -18.8776,18.87629 -28.3164,28.31445 h 843.0312 c 72.9004,-72.89974 145.8008,-145.79948 218.7012,-218.69922 -170.6002,0 -341.2005,0 -511.8008,0 22.6667,-22.66667 45.3334,-45.33333 68,-68 h 143.7012 C 3249.2161,476 3322.1159,403.09961 3395.0156,330.19922 c -47.8997,0 -95.7995,0 -143.6992,0 22.6667,-22.66667 45.3333,-45.33333 68,-68 h 287 C 3679.2161,189.29948 3752.1159,116.39974 3825.0156,43.5 c -206.1107,0 -412.2213,0 -618.332,0 -176.4609,176.46159 -352.9219,352.92319 -529.3828,529.38477 0,-186.13347 0,-372.26693 0,-558.400395 -116.0671,116.066405 -232.1342,232.132795 -348.2012,348.199215 0,-116.0664 0,-232.13281 0,-348.199215 -195.6331,195.635735 -391.2688,391.268905 -586.9004,586.906245 0.032,-195.63541 0.068,-391.27083 0.1016,-586.906245 -186.1667,186.166665 -372.3334,372.333335 -558.5,558.500005 0,-186.16667 0,-372.33334 0,-558.500005 C 1067.7337,130.55078 951.66665,246.61717 835.59961,362.68359 c 0,-116.0664 0,-232.13281 0,-348.199215 C 561.89453,288.18945 288.18945,561.89453 14.484375,835.59961 Z M 1723.0996,65.839844 c -0.038,194.025386 -0.071,388.050776 -0.1,582.076176 C 1918.6331,452.28255 2114.2665,256.64909 2309.9,61.015625 V 409.21484 c 116.0332,-116.0332 232.0664,-232.0664 348.0996,-348.099606 V 619.61523 C 2843.5712,434.04362 3029.1428,248.47201 3214.7144,62.900391 h 563.67 c -60,59.999999 -120,119.999999 -180,179.999999 -95.6999,0 -191.3998,0 -287.0996,0 -35.5671,35.56641 -71.1342,71.13281 -106.7012,106.69922 h 143.7012 c -60,60 -120,120 -180,180 -47.9004,0 -95.8008,0 -143.7012,0 -35.5664,35.56706 -71.1328,71.13411 -106.6992,106.70117 h 511.7988 c -60,60 -120,120 -180,180 -262.4609,0 -524.9219,0 -787.3828,0 0,-94.30534 0,-188.61068 0,-282.91601 -93.7005,93.69987 -187.4011,187.39971 -281.1016,281.09961 0,-116.10027 0,-232.20053 0,-348.30079 -116.7051,116.70573 -233.4101,233.41147 -350.1152,350.11719 -101.3281,0 -202.6563,0 -303.9844,0 0,-94.27213 0,-188.54427 0,-282.8164 -179.472,179.472 -358.944,358.94401 -538.41601,538.41602 -92.12435,0 -184.24869,0 -276.37304,0 C 797.87425,986.37295 883.43676,900.84431 969,815.31641 c 0,-93.94467 0,-187.88933 0,-281.83399 -93.67322,93.65883 -187.39786,187.2662 -281.09961,280.89649 0,-116.06511 0,-232.13021 0,-348.19532 -116.70508,116.70573 -233.41015,233.41147 -350.11523,350.11719 -92.22331,0 -184.44662,0 -276.669926,0 C 312.84375,564.57227 564.57227,312.84375 816.30078,61.115234 V 409.31641 C 932.40039,293.21615 1048.5,177.11587 1164.5996,61.015625 V 619.51562 c 186.1664,-186.16894 372.3353,-372.33531 558.5,-558.505854 z"
         transform="matrix(1.0077335,0,0,1.0077335,-14.59639,-14.59639)"
         id="path2" />
    </g>
  </g>
</svg>
