<svg enable-background="new 1.735 -0.002 565.195 186.787" height="1270" viewBox="1.735 -.002 3840 1269.9999" width="3840" xmlns="http://www.w3.org/2000/svg"><g fill="#fff" transform="matrix(1 0 0 1.000743 0 .000002)"><g stroke-width="6.79412"><path d="m1342.1624 1226.245c21.979 0 39.7932 19.8457 39.7932 41.8247h-122.0972v-395.96837h40.4794v354.14367z"/><path d="m1455.4884 1268.0765c-21.979 0-41.152-19.8593-41.152-41.8247v-274.88343h41.152z"/><path d="m1577.5856 951.36158h-41.8314v-79.26025h-41.1384v395.96837h82.9698c21.979 0 39.7932-19.8593 39.7932-41.8247v-236.09577c0-21.97899-17.8142-38.78765-39.7932-38.78765zm-.6794 274.88342h-41.152v-235.41635h41.152z"/><path d="m1661.8939 869.68941h329.3588s18.7178 3.03018 24.7849 14.16575c6.0672 11.14237 53.6329 109.27669 58.1781 120.40544 4.5521 11.1424.5028 19.2274-6.0807 27.8424-6.5835 8.6013-74.8781 86.5027-74.8781 86.5027l83.4727 147.0589h-125.9699s-98.6575-168.8204-104.2151-176.9054c-5.5712-8.0851-5.5712-21.2521 6.5699-21.2521h43.0069c5.5575 0 8.0918-1.0055 14.6685-6.5699 6.5767-5.5712 40.4726-46.5601 40.4726-46.5601s-16.1904-43.5028-19.7302-51.60139c-3.5397-8.0986-11.1355-10.61922-18.2082-10.61922-7.0795 0-126.9754 0-126.9754 0v313.50131h-124.4616z"/><path d="m1948.8166 1269.0548-.9852-1.6849c-.054-.082-24.6558-42.2119-49.9979-85.4157-25.3217-43.1359-51.5267-87.6103-54.0745-91.2791-2.6293-3.8591-4.1716-8.4859-4.1851-13.0175 0-3.336.8764-6.733 3.2136-9.4031 2.3372-2.6769 6.0264-4.2056 10.3406-4.1648 12.1547 0 37.4425 0 43.0068.014 5.0685-.1699 5.7886-.3261 12.4808-5.775 2.7449-2.2829 13.1059-14.1318 22.2984-24.9752 7.1542-8.4112 13.7988-16.4146 16.4893-19.6486-3.1253-8.3772-15.973-42.72828-18.976-49.58356-2.8603-6.50877-8.6693-8.50624-15.0829-8.58777-3.5398 0-35.2955 0-66.1544 0-24.6695 0-48.7411 0-57.4308 0v313.50803h-131.2692v-399.35858-3.41065h3.4106 329.3452c14.0299-.38727 21.8159 4.19877 27.7744 15.9526 6.2302 11.46848 53.6192 109.20196 58.3547 120.73843 1.4743 3.6348 2.1741 7.1202 2.1605 10.4425 0 8.0103-3.9677 14.5055-8.6897 20.7493-6.2098 8.1054-63.1378 73.1183-73.4309 84.8586l85.1712 150.0346zm122.0836-6.8077-81.7673-144.0898 1.5762-1.8004c.082-.1019 68.4033-78.0509 74.7286-86.3194 4.5181-5.9312 7.3309-11.0404 7.3173-16.6252-.014-2.3779-.4824-4.9393-1.685-7.8676-4.3822-10.7279-52.1177-109.26308-58.0218-120.05895-6.1826-10.53089-8.5062-12.00522-21.8023-12.39927-12.8273 0-291.896 0-325.9481 0v389.16062h117.6538v-313.50126h3.4107 126.9754c7.7521-.0883 17.1076 2.97583 21.3199 12.65066 3.6553 8.36357 19.7709 51.7305 19.7981 51.778l.6862 1.8412-1.2501 1.5219c-.1563.1427-33.6105 40.7308-40.9006 46.9814-6.4545 5.6663-10.8095 7.5211-16.8631 7.3784-5.5643-.014-30.8521-.014-43.0068-.014-5.5168.3057-6.3796 2.4051-6.7669 6.7738-.014 2.901 1.121 6.468 2.9962 9.1584 5.4897 8.0239 93.0727 157.8343 103.3658 175.4311z"/><path d="m2930.683 869.68941h329.3452c13.6698 0 18.7246 3.03018 24.7849 14.16575 6.0672 11.14237 53.6397 109.27669 58.1781 120.40544 4.5657 11.1424.5028 19.2274-6.0671 27.8424-6.5835 8.6013-74.8781 86.5027-74.8781 86.5027l83.4794 147.0589h-125.9834s-98.6507-168.8204-104.2219-176.9054c-5.5576-8.0851-5.5576-21.2521 6.5835-21.2521h42.9933c5.5711 0 8.0918-1.0055 14.6753-6.5699 6.5835-5.5712 40.4726-46.5601 40.4726-46.5601s-16.1904-43.5028-19.7302-51.60139c-3.5329-8.0918-11.122-10.61922-18.2082-10.61922-7.0863 0-126.9754 0-126.9754 0v313.50131h-124.4548v-395.96839z"/><path d="m3217.5921 1269.048-.9716-1.6849c-.068-.088-24.6694-42.1983-50.0115-85.4089-25.3217-43.1291-51.5267-87.5967-54.0745-91.2791-2.6293-3.8523-4.1648-8.4859-4.1783-13.0243-.027-3.3224.8764-6.7194 3.2136-9.3963 2.3236-2.6837 6.0128-4.192 10.3474-4.158h42.9932c5.0685-.1495 5.7886-.3193 12.4876-5.7682 2.7449-2.2964 13.1127-14.1318 22.3051-24.9752 7.1407-8.4112 13.7989-16.4146 16.4826-19.6486-3.1185-8.35-15.9662-42.72149-18.976-49.56997-2.8671-6.52915-8.6761-8.51983-15.0897-8.60136-3.5398 0-35.2955 0-66.1476 0-24.6967 0-48.7683 0-57.4308 0v313.50123h-131.2624v-399.34499-3.41065h3.4106 329.3588c14.023-.39406 21.8023 4.19198 27.7608 15.93222 6.2505 11.46849 53.6124 109.21555 58.3479 120.73842 1.5015 3.6552 2.1741 7.1406 2.1741 10.4629-.014 7.9967-3.9678 14.4987-8.6897 20.7357-6.2098 8.0918-63.1378 73.1183-73.4377 84.8586l85.1644 150.0346h-133.7763zm122.0972-6.8009-81.7809-144.083 1.6034-1.8072c.054-.1087 68.3897-78.0509 74.7082-86.3194 4.4977-5.9312 7.3241-11.054 7.3105-16.6184 0-2.3983-.4756-4.9461-1.685-7.8812-4.3686-10.71431-52.0973-109.24949-58.015-120.05215-6.169-10.53089-8.5198-12.00522-21.8023-12.39248-12.8341-.0136-291.896-.0136-325.9481 0v389.15383h117.6334v-313.50126h3.4107 126.9754c7.7521-.0883 17.1212 2.97583 21.3267 12.65066 3.6485 8.37716 19.7709 51.7237 19.7981 51.778l.693 1.8412-1.2501 1.5287c-.1427.1427-33.6241 40.7104-40.9006 46.9746-6.4612 5.6799-10.8027 7.5347-16.8631 7.3648-5.5575 0-30.8657 0-42.9932 0-5.5304.3057-6.3932 2.3983-6.7805 6.767-.027 2.9214 1.1142 6.4748 2.9962 9.172 5.4964 8.0171 93.0591 157.8071 103.3726 175.4243z"/><path d="m2099.5238 1265.6578s0-253.2986 0-261.9067c0-8.60139 2.0179-12.13434 6.0672-20.74249 4.0629-8.60816 50.5958-94.10541 55.6643-102.19042 5.0548-8.0918 12.1411-11.13557 25.7972-11.13557h327.7486v81.95752s-237.1965 0-246.3006 0-13.1534.51635-19.2274 13.66978c-6.0739 13.15342-25.2945 59.69998-25.2945 59.69998h249.4191v82.4671h-249.4191v74.878h290.8225v83.3096h-415.2773z"/><path d="m2099.5238 1269.0548v-3.397h3.3971-3.3971v3.397h-3.397v-3.397c0-.014 0-253.3054 0-261.9067-.054-9.21286 2.4119-13.83287 6.3729-22.18964 4.2735-8.99542 50.5686-94.07824 55.868-102.5573 5.5848-9.21283 14.7025-12.88846 28.6916-12.73219h327.7486 3.3835v88.75164h-3.3835c-.014 0-237.1965 0-246.3006 0-9.1177.55712-9.6477-.89003-16.1496 11.69948-4.8307 10.45616-18.2626 42.72141-23.3039 54.87611h247.7478v89.268l-249.4191-.014v68.084h290.8224v90.1104zm411.8666-6.8077v-76.5018h-290.8224v-81.679h249.4326v-75.6661h-251.1176l1.9363-4.6948c.014-.034 19.2138-46.50577 25.3557-59.82225 5.6527-13.71734 13.2146-16.19719 22.3187-15.64007h242.9035v-75.1634c-33.9842 0-311.5445 0-324.365 0-13.3369.16306-18.3917 2.56818-22.9166 9.52536-4.8306 7.71133-51.6354 93.63662-55.4673 101.83713-4.124 8.85274-5.6798 11.31901-5.7478 19.30893v258.4892z"/><path d="m2639.5885 869.69527v124.45507h-124.7871v145.44336h124.7871v126.0645h148.4863v-126.0645h121.92v-145.44336h-121.92v-124.45507zm74.1113 41.99609 42 41.98047h-85.496zm-.4902 111.55864c24.1667 0 43.7481 19.594 43.7481 43.7539 0 24.1663-19.5882 43.7617-43.7481 43.7617-24.1803 0-43.7598-19.5954-43.7598-43.7617 0-24.1667 19.5863-43.7539 43.7598-43.7539zm-113.0879.5039v85.4824l-41.9883-43.502zm225.6406 0 42 43.4961-42 41.9863zm-155.5585 155.5644h85.496l-43.5156 41.9883z"/><path d="m2636.1849 1269.0548v-126.065h-124.7877v-152.24948h124.7877v-124.45476h155.2865v124.45476h121.9138v152.24948l-121.9274-.02v126.0853zm-118.0003-132.8659h124.8012v126.0582h141.6847v-126.0582h121.9138v-138.64766h-118.51v-3.39706h3.3971-3.3971v3.39706h-3.4038v-124.46156h-141.6847v124.46156l-124.8012-.0136zm195.0253-22.0401v-3.3835-3.4106c22.2779-.041 40.3027-18.0588 40.3435-40.3503-.041-22.2916-18.0588-40.33-40.3435-40.3639-22.3051.041-40.3299 18.0723-40.3639 40.3639.041 22.2915 18.0588 40.3163 40.3639 40.3639v3.397 3.3835c-26.0623 0-47.158-21.1094-47.1784-47.1444.02-26.0487 21.1161-47.1513 47.1784-47.1648 26.0351.014 47.1376 21.1161 47.1376 47.1648 0 26.035-21.1025 47.1444-47.1376 47.1648z"/><path d="m3680.5233 869.68941h-238.1272c-44.1347 0-79.9397 35.79145-79.9397 79.93967v236.09582c0 44.1482 35.805 79.9397 79.9397 79.9397h238.1272c44.1482 0 79.9397-35.7915 79.9397-79.9397v-236.09582c-.02-44.15501-35.7915-79.93967-79.9397-79.93967zm-119.0738 317.03419c-65.937 0-119.3999-53.4561-119.3999-119.3931s53.4629-119.38637 119.3999-119.38637 119.3999 53.44937 119.3999 119.38637-53.4629 119.3931-119.3999 119.3931z"/><path d="m3442.3893 1269.048c-46.0098 0-83.3368-37.3065-83.3368-83.3367v-236.08902c0-46.03698 37.3202-83.33672 83.3368-83.35031h238.134v3.40386 3.39026h-238.134c-42.2595.0951-76.4679 34.28315-76.5426 76.55619v236.08902c.075 42.273 34.2831 76.4611 76.5426 76.5358h238.134c42.2663-.075 76.4543-34.2628 76.5426-76.5358v-236.08902c-.014-42.28662-34.2763-76.55619-76.5426-76.55619v-3.39026-3.40386c46.0234.0136 83.3096 37.32012 83.3232 83.35031l.014 236.08902c-.014 46.0234-37.3201 83.3367-83.3367 83.3367zm-3.7436-201.7243c0-67.81216 54.9916-122.77663 122.7902-122.79022 67.819.0136 122.797 54.97806 122.8106 122.79022-.014 67.8189-54.9916 122.7902-122.8106 122.7902v-3.3903-3.4038c64.0686-.1223 115.901-51.9479 116.0097-115.9961-.1155-64.055-51.9479-115.88059-116.0097-115.9893-64.0686.1155-115.8806 51.9411-115.9893 115.9893.1155 64.055 51.9275 115.8806 115.9893 115.9961v3.4038 3.3903c-67.7986 0-122.7902-54.9713-122.7902-122.7902z"/><path d="m1414.3364 872.10133h41.152v42.59236h-41.152z"/></g><path d="m2680.6646 628.08383c-12.6151 12.61504-25.2301 25.23008-37.8451 37.84512 0-187.60639 0-375.21277 0-562.81916-116.9647 116.96401-233.9294 233.92799-350.894 350.89202 0-116.96401 0-233.92801 0-350.89202-197.1461 197.16242-394.2945 394.32258-591.4392 591.48643.032-197.16215.068-394.32429.1024-591.48643-187.6064 187.60639-375.2129 375.21277-562.8192 562.81916 0-187.60639 0-375.21277 0-562.81916-116.9647 116.96401-233.92935 233.92799-350.89399 350.89202 0-116.96401 0-233.92801 0-350.89202-227.65526 227.65526-455.31053 455.31053-682.96579 682.96579h214.09219c128.41042-128.37661 256.82206-256.75199 385.23172-385.12937v350.89202l283.17311-283.17311v348.62462c-75.42059 75.42058-150.84117 150.84116-226.26175 226.26176h214.09416c191.62865-191.59544 383.25815-383.19007 574.88635-574.786v317.31008h274.0288c128.3764-128.37646 256.7528-256.75291 385.1293-385.12937v350.89202c94.3911-94.39104 188.782-188.78207 283.1731-283.17311v317.41046h761.1675c45.2292-45.24697 90.4585-90.49394 135.6878-135.74091-171.9019 0-343.8038 0-515.7057 0 51.0585-51.0585 102.1171-102.11699 153.1755-153.17549h144.7121c45.2313-45.21352 90.4625-90.42703 135.6937-135.64054-48.2544 0-96.5088 0-144.7633 0 51.0585-51.0585 102.117-102.11699 153.1755-153.17549h289.2196c45.2469-45.24763 90.4939-90.49526 135.7409-135.742885-167.8047 0-335.6095 0-503.4141 0-185.1606 185.161185-370.321 370.322385-555.4816 555.483565z" stroke-width="1.00773"/><path d="m1.7349999 827.46333h333.7920401c108.42713-108.42649 216.8543-216.85294 325.28141-325.27944v350.892c94.39105-94.39103 188.78208-188.78207 283.17312-283.17311v228.92477c-95.37056 95.37057-190.74112 190.74113-286.11169 286.11165h333.8944c171.67862-171.64543 343.35822-343.29 515.03642-514.93604v257.46017h333.7763c108.4272-108.42649 216.8544-216.85294 325.2814-325.27944v350.892c94.3911-94.39103 188.7821-188.78207 283.1732-283.17311v229.02713c-9.5118 9.51118-19.0236 19.02227-28.5354 28.53342h849.5507c73.4642-73.46351 146.9284-146.92702 220.3926-220.39053-171.9196 0-343.8392 0-515.7588 0 22.842-22.84196 45.6839-45.68392 68.5258-68.52588h144.8126c73.4634-73.46416 146.927-146.92833 220.3905-220.39249-48.2702 0-96.5404 0-144.8105 0 22.842-22.84197 45.6839-45.68392 68.5258-68.52588h289.2196c73.4634-73.46351 146.927-146.92702 220.3905-220.390533-207.7047 0-415.4092 0-623.1139 0-177.8256 177.826253-355.6512 355.652523-533.4768 533.478763 0-187.57293 0-375.14585 0-562.71878009-116.9647 116.96400009-233.9294 233.92799009-350.894 350.89201009 0-116.964 0-233.92801 0-350.89201009-197.146 197.14868009-394.2947 394.29478009-591.4392 591.44508009.032-197.14835.069-394.29672.1024-591.44508009-187.6064 187.60638009-375.2128 375.21277009-562.8192 562.81916009 0-187.60639 0-375.21278 0-562.81916009-116.9647 116.96400009-233.92933 233.92799009-350.89397 350.89201009 0-116.964 0-233.92801 0-350.89201009-275.82178 275.82177009-551.64356 551.64355009-827.4653301 827.46533009zm1721.8288001-775.712704c-.038 195.525884-.072 391.051764-.1008 586.577664 197.1465-197.1464 394.2928-394.29279 591.4392-591.439191v350.892011c116.9306-116.93054 233.8611-233.86108 350.7916-350.791631v562.819151c187.0068-187.00672 374.0135-374.01345 561.0202-561.020189h568.0291c-60.464 60.464009-120.928 120.928019-181.392 181.392029-96.44 0-192.88 0-289.3199 0-35.8421 35.84146-71.6843 71.68292-107.5263 107.52438h144.8125c-60.464 60.46401-120.928 120.92802-181.3921 181.39203-48.2708 0-96.5416 0-144.8125 0-35.8414 35.84212-71.6829 71.68422-107.5243 107.52634h515.7568c-60.464 60.46401-120.9281 120.92802-181.3921 181.39203-264.4906 0-528.9813 0-793.472 0 0-95.03465 0-190.0693 0-285.10394-94.4251 94.4245-188.8504 188.84897-283.2755 283.27349 0-116.99813 0-233.99625 0-350.99437-117.6076 117.60827-235.2152 235.21656-352.8228 352.82482-102.1117 0-204.2235 0-306.3353 0 0-95.00118 0-190.00238 0-285.00356-180.8599 180.85995-361.7199 361.7199-542.57982 542.57991-92.83679 0-185.67358 0-278.51037 0 86.22581-86.18892 172.45002-172.379 258.67496-258.56833 0-94.67119 0-189.34237 0-284.01355-94.39764 94.38314-188.8471 188.71442-283.27349 283.0688 0-116.9627 0-233.92539 0-350.88809-117.60762 117.60827-235.21523 235.21656-352.82285 352.82482-92.93652 0-185.87304 0-278.809551 0 253.675261-253.67525 507.350521-507.35051 761.025771-761.025771v350.893991c116.99747-116.99812 233.99495-233.99626 350.99235-350.994371v562.819151c187.6062-187.60867 375.2148-375.21476 562.8192-562.825055z" stroke-width="1.00773"/></g></svg>