<svg enable-background="new 0 0 3839.5 1097.1" viewBox="0 0 3839.5 1097.1" xmlns="http://www.w3.org/2000/svg"><path d="m3763.9 68.9-168 168h-274.1-13l-9.2 9.2-56 56-53.5 53.5h75.6 68.1l-168 168h-130.7-13l-9.2 9.2-56 56-53.5 53.5h75.6 436.2l-168 168h-778.9v-5.5-210.3-75.6l-53.5 53.5-227.6 227.6v-272.7-75.6l-53.5 53.5-305.1 305.1h-229.7-65.8v-215.7-75.6l-53.5 53.5-493.4 493.4h-259.4l239-238.9 9.2-9.2v-13-210.2-75.6l-53.5 53.5-227.6 227.4v-272.6-75.6l-53.5 53.5-305.1 305.1h-259.7l734.7-734.7v272.6 75.6l53.5-53.5 294.8-294.8v482.9 75.6l53.5-53.5 505-505-.1 511.3v75.6l53.5-53.5 533.4-533.4v272.6 75.6l53.5-53.5 294.6-294.6v482.9 75.6l53.5-53.5 511.7-511.7zm-2015.6-68.9-558.5 558.5v-558.5l-348.2 348.2v-348.2l-841.6 841.6h348.2l314.3-314.3v348.2l281-281v210.2l-292.4 292.4h348.3l502.6-502.5v247h97.1 242.6l314.3-314.3v348.2l281-281v210.3l-36.8 36.8h860l230.7-230.7h-511.8l56-56h143.7l230.7-230.7h-143.7l56-56h287l230.7-230.7h-628.5-6.8l-520.9 520.9v-558.4l-348.2 348.2v-348.2l-586.9 586.9z" fill="#fff"/></svg>