<svg enable-background="new 1.735 -0.002 565.195 186.787" height="1269.0568" viewBox="1.735 -.002 3840 1269.0567" width="3840" xmlns="http://www.w3.org/2000/svg"><g fill="#fff" transform="matrix(6.7941241 0 0 6.7941241 -10.051693 .007558)"><path d="m199.027 180.485c3.235 0 5.857 2.921 5.857 6.156h-17.971v-58.281h5.958v52.125z"/><path d="m215.707 186.642c-3.235 0-6.057-2.923-6.057-6.156v-40.459h6.057z"/><path d="m233.678 140.026h-6.157v-11.666h-6.055v58.281h12.212c3.235 0 5.857-2.923 5.857-6.156v-34.75c0-3.235-2.622-5.709-5.857-5.709zm-.1 40.459h-6.057v-34.65h6.057z"/></g><g stroke-width="6.79412"><path d="m1661.8939 869.68941h329.3588s18.7178 3.03018 24.7849 14.16575c6.0672 11.14237 53.6329 109.27669 58.1781 120.40544 4.5521 11.1424.5028 19.2274-6.0807 27.8424-6.5835 8.6013-74.8781 86.5027-74.8781 86.5027l83.4727 147.0589h-125.9699s-98.6575-168.8204-104.2151-176.9054c-5.5712-8.0851-5.5712-21.2521 6.5699-21.2521h43.0069c5.5575 0 8.0918-1.0055 14.6685-6.5699 6.5767-5.5712 40.4726-46.5601 40.4726-46.5601s-16.1904-43.5028-19.7302-51.60139c-3.5397-8.0986-11.1355-10.61922-18.2082-10.61922-7.0795 0-126.9754 0-126.9754 0v313.50131h-124.4616z" fill="#f9f9f9"/><path d="m1948.8166 1269.0548-.9852-1.6849c-.054-.082-24.6558-42.2119-49.9979-85.4157-25.3217-43.1359-51.5267-87.6103-54.0745-91.2791-2.6293-3.8591-4.1716-8.4859-4.1851-13.0175 0-3.336.8764-6.733 3.2136-9.4031 2.3372-2.6769 6.0264-4.2056 10.3406-4.1648 12.1547 0 37.4425 0 43.0068.014 5.0685-.1699 5.7886-.3261 12.4808-5.775 2.7449-2.2829 13.1059-14.1318 22.2984-24.9752 7.1542-8.4112 13.7988-16.4146 16.4893-19.6486-3.1253-8.3772-15.973-42.72828-18.976-49.58356-2.8603-6.50877-8.6693-8.50624-15.0829-8.58777-3.5398 0-35.2955 0-66.1544 0-24.6695 0-48.7411 0-57.4308 0v313.50803h-131.2692v-399.35858-3.41065h3.4106 329.3452c14.0299-.38727 21.8159 4.19877 27.7744 15.9526 6.2302 11.46848 53.6192 109.20196 58.3547 120.73843 1.4743 3.6348 2.1741 7.1202 2.1605 10.4425 0 8.0103-3.9677 14.5055-8.6897 20.7493-6.2098 8.1054-63.1378 73.1183-73.4309 84.8586l85.1712 150.0346zm122.0836-6.8077-81.7673-144.0898 1.5762-1.8004c.082-.1019 68.4033-78.0509 74.7286-86.3194 4.5181-5.9312 7.3309-11.0404 7.3173-16.6252-.014-2.3779-.4824-4.9393-1.685-7.8676-4.3822-10.7279-52.1177-109.26308-58.0218-120.05895-6.1826-10.53089-8.5062-12.00522-21.8023-12.39927-12.8273 0-291.896 0-325.9481 0v389.16062h117.6538v-313.50126h3.4107 126.9754c7.7521-.0883 17.1076 2.97583 21.3199 12.65066 3.6553 8.36357 19.7709 51.7305 19.7981 51.778l.6862 1.8412-1.2501 1.5219c-.1563.1427-33.6105 40.7308-40.9006 46.9814-6.4545 5.6663-10.8095 7.5211-16.8631 7.3784-5.5643-.014-30.8521-.014-43.0068-.014-5.5168.3057-6.3796 2.4051-6.7669 6.7738-.014 2.901 1.121 6.468 2.9962 9.1584 5.4897 8.0239 93.0727 157.8343 103.3658 175.4311z" fill="#fff"/><path d="m2930.683 869.68941h329.3452c13.6698 0 18.7246 3.03018 24.7849 14.16575 6.0672 11.14237 53.6397 109.27669 58.1781 120.40544 4.5657 11.1424.5028 19.2274-6.0671 27.8424-6.5835 8.6013-74.8781 86.5027-74.8781 86.5027l83.4794 147.0589h-125.9834s-98.6507-168.8204-104.2219-176.9054c-5.5576-8.0851-5.5576-21.2521 6.5835-21.2521h42.9933c5.5711 0 8.0918-1.0055 14.6753-6.5699 6.5835-5.5712 40.4726-46.5601 40.4726-46.5601s-16.1904-43.5028-19.7302-51.60139c-3.5329-8.0918-11.122-10.61922-18.2082-10.61922-7.0863 0-126.9754 0-126.9754 0v313.50131h-124.4548v-395.96839z" fill="#f9f9f9"/><path d="m3217.5921 1269.048-.9716-1.6849c-.068-.088-24.6694-42.1983-50.0115-85.4089-25.3217-43.1291-51.5267-87.5967-54.0745-91.2791-2.6293-3.8523-4.1648-8.4859-4.1783-13.0243-.027-3.3224.8764-6.7194 3.2136-9.3963 2.3236-2.6837 6.0128-4.192 10.3474-4.158h42.9932c5.0685-.1495 5.7886-.3193 12.4876-5.7682 2.7449-2.2964 13.1127-14.1318 22.3051-24.9752 7.1407-8.4112 13.7989-16.4146 16.4826-19.6486-3.1185-8.35-15.9662-42.72149-18.976-49.56997-2.8671-6.52915-8.6761-8.51983-15.0897-8.60136-3.5398 0-35.2955 0-66.1476 0-24.6967 0-48.7683 0-57.4308 0v313.50123h-131.2624v-399.34499-3.41065h3.4106 329.3588c14.023-.39406 21.8023 4.19198 27.7608 15.93222 6.2505 11.46849 53.6124 109.21555 58.3479 120.73842 1.5015 3.6552 2.1741 7.1406 2.1741 10.4629-.014 7.9967-3.9678 14.4987-8.6897 20.7357-6.2098 8.0918-63.1378 73.1183-73.4377 84.8586l85.1644 150.0346h-133.7763zm122.0972-6.8009-81.7809-144.083 1.6034-1.8072c.054-.1087 68.3897-78.0509 74.7082-86.3194 4.4977-5.9312 7.3241-11.054 7.3105-16.6184 0-2.3983-.4756-4.9461-1.685-7.8812-4.3686-10.71431-52.0973-109.24949-58.015-120.05215-6.169-10.53089-8.5198-12.00522-21.8023-12.39248-12.8341-.0136-291.896-.0136-325.9481 0v389.15383h117.6334v-313.50126h3.4107 126.9754c7.7521-.0883 17.1212 2.97583 21.3267 12.65066 3.6485 8.37716 19.7709 51.7237 19.7981 51.778l.693 1.8412-1.2501 1.5287c-.1427.1427-33.6241 40.7104-40.9006 46.9746-6.4612 5.6799-10.8027 7.5347-16.8631 7.3648-5.5575 0-30.8657 0-42.9932 0-5.5304.3057-6.3932 2.3983-6.7805 6.767-.027 2.9214 1.1142 6.4748 2.9962 9.172 5.4964 8.0171 93.0591 157.8071 103.3726 175.4243z" fill="#fff"/><path d="m2099.5238 1265.6578s0-253.2986 0-261.9067c0-8.60139 2.0179-12.13434 6.0672-20.74249 4.0629-8.60816 50.5958-94.10541 55.6643-102.19042 5.0548-8.0918 12.1411-11.13557 25.7972-11.13557h327.7486v81.95752s-237.1965 0-246.3006 0-13.1534.51635-19.2274 13.66978c-6.0739 13.15342-25.2945 59.69998-25.2945 59.69998h249.4191v82.4671h-249.4191v74.878h290.8225v83.3096h-415.2773z" fill="#f9f9f9"/><path d="m2099.5238 1269.0548v-3.397h3.3971-3.3971v3.397h-3.397v-3.397c0-.014 0-253.3054 0-261.9067-.054-9.21286 2.4119-13.83287 6.3729-22.18964 4.2735-8.99542 50.5686-94.07824 55.868-102.5573 5.5848-9.21283 14.7025-12.88846 28.6916-12.73219h327.7486 3.3835v88.75164h-3.3835c-.014 0-237.1965 0-246.3006 0-9.1177.55712-9.6477-.89003-16.1496 11.69948-4.8307 10.45616-18.2626 42.72141-23.3039 54.87611h247.7478v89.268l-249.4191-.014v68.084h290.8224v90.1104zm411.8666-6.8077v-76.5018h-290.8224v-81.679h249.4326v-75.6661h-251.1176l1.9363-4.6948c.014-.034 19.2138-46.50577 25.3557-59.82225 5.6527-13.71734 13.2146-16.19719 22.3187-15.64007h242.9035v-75.1634c-33.9842 0-311.5445 0-324.365 0-13.3369.16306-18.3917 2.56818-22.9166 9.52536-4.8306 7.71133-51.6354 93.63662-55.4673 101.83713-4.124 8.85274-5.6798 11.31901-5.7478 19.30893v258.4892z" fill="#fff"/><path d="m2639.5885 869.69527v124.45507h-124.7871v145.44336h124.7871v126.0645h148.4863v-126.0645h121.92v-145.44336h-121.92v-124.45507zm74.1113 41.99609 42 41.98047h-85.496zm-.4902 111.55864c24.1667 0 43.7481 19.594 43.7481 43.7539 0 24.1663-19.5882 43.7617-43.7481 43.7617-24.1803 0-43.7598-19.5954-43.7598-43.7617 0-24.1667 19.5863-43.7539 43.7598-43.7539zm-113.0879.5039v85.4824l-41.9883-43.502zm225.6406 0 42 43.4961-42 41.9863zm-155.5585 155.5644h85.496l-43.5156 41.9883z" fill="#fff"/><path d="m2636.1849 1269.0548v-126.065h-124.7877v-152.24948h124.7877v-124.45476h155.2865v124.45476h121.9138v152.24948l-121.9274-.02v126.0853zm-118.0003-132.8659h124.8012v126.0582h141.6847v-126.0582h121.9138v-138.64766h-118.51v-3.39706h3.3971-3.3971v3.39706h-3.4038v-124.46156h-141.6847v124.46156l-124.8012-.0136zm195.0253-22.0401v-3.3835-3.4106c22.2779-.041 40.3027-18.0588 40.3435-40.3503-.041-22.2916-18.0588-40.33-40.3435-40.3639-22.3051.041-40.3299 18.0723-40.3639 40.3639.041 22.2915 18.0588 40.3163 40.3639 40.3639v3.397 3.3835c-26.0623 0-47.158-21.1094-47.1784-47.1444.02-26.0487 21.1161-47.1513 47.1784-47.1648 26.0351.014 47.1376 21.1161 47.1376 47.1648 0 26.035-21.1025 47.1444-47.1376 47.1648z" fill="#fff"/><path d="m3680.5233 869.68941h-238.1272c-44.1347 0-79.9397 35.79145-79.9397 79.93967v236.09582c0 44.1482 35.805 79.9397 79.9397 79.9397h238.1272c44.1482 0 79.9397-35.7915 79.9397-79.9397v-236.09582c-.02-44.15501-35.7915-79.93967-79.9397-79.93967zm-119.0738 317.03419c-65.937 0-119.3999-53.4561-119.3999-119.3931s53.4629-119.38637 119.3999-119.38637 119.3999 53.44937 119.3999 119.38637-53.4629 119.3931-119.3999 119.3931z" fill="#f9f9f9"/><path d="m3442.3893 1269.048c-46.0098 0-83.3368-37.3065-83.3368-83.3367v-236.08902c0-46.03698 37.3202-83.33672 83.3368-83.35031h238.134v3.40386 3.39026h-238.134c-42.2595.0951-76.4679 34.28315-76.5426 76.55619v236.08902c.075 42.273 34.2831 76.4611 76.5426 76.5358h238.134c42.2663-.075 76.4543-34.2628 76.5426-76.5358v-236.08902c-.014-42.28662-34.2763-76.55619-76.5426-76.55619v-3.39026-3.40386c46.0234.0136 83.3096 37.32012 83.3232 83.35031l.014 236.08902c-.014 46.0234-37.3201 83.3367-83.3367 83.3367zm-3.7436-201.7243c0-67.81216 54.9916-122.77663 122.7902-122.79022 67.819.0136 122.797 54.97806 122.8106 122.79022-.014 67.8189-54.9916 122.7902-122.8106 122.7902v-3.3903-3.4038c64.0686-.1223 115.901-51.9479 116.0097-115.9961-.1155-64.055-51.9479-115.88059-116.0097-115.9893-64.0686.1155-115.8806 51.9411-115.9893 115.9893.1155 64.055 51.9275 115.8806 115.9893 115.9961v3.4038 3.3903c-67.7986 0-122.7902-54.9713-122.7902-122.7902z" fill="#fff"/><path d="m1414.3364 872.10133h41.152v42.59236h-41.152z" fill="#fff"/></g><g fill="#fff" transform="translate(1.735 -.002)"><path d="m2672.8555 636.82031c-12.5183 12.51823-25.0365 25.03646-37.5547 37.55469 0-186.16667 0-372.33333 0-558.5-116.0671 116.06641-232.1342 232.13279-348.2012 348.19922 0-116.06641 0-232.13281 0-348.19922-195.6332 195.64937-391.2686 391.29649-586.9004 586.94727.032-195.64909.068-391.29818.1016-586.94727-186.1667 186.16667-372.3334 372.33333-558.5 558.5 0-186.16667 0-372.33333 0-558.5-116.0671 116.06641-232.13415 232.13279-348.20119 348.19922 0-116.06641 0-232.13281 0-348.19922-225.9082 225.9082-451.81641 451.81641-677.72461 677.72461h212.44922c127.42498-127.39143 254.85117-254.78164 382.27539-382.17383v348.19922l281-281v345.94922c-74.8418 74.8418-149.68359 149.68359-224.52539 224.52538h212.45117c190.15811-190.12509 380.31701-380.24939 570.47461-570.37499v314.875h271.9258c127.3913-127.39128 254.7825-254.78255 382.1738-382.17383v348.19922c93.6667-93.66667 187.3333-187.33333 281-281v314.97461h755.3262c44.8821-44.89974 89.7643-89.79948 134.6465-134.69922-170.5827 0-341.1654 0-511.7481 0 50.6667-50.66667 101.3334-101.33333 152-152h143.6016c44.8841-44.86654 89.7682-89.73307 134.6523-134.59961-47.8841 0-95.7682 0-143.6523 0 50.6666-50.66667 101.3333-101.33333 152-152h287c44.8997-44.90039 89.7995-89.80078 134.6992-134.701171-166.5169 0-333.0339 0-499.5508 0-183.7396 183.740231-367.4791 367.480471-551.2187 551.220701z" transform="matrix(1.0077335 0 0 1.0077335 -14.596403 -13.659329)"/><path d="m14.484375 835.59961h331.230465c107.59505-107.59441 215.19013-215.18878 322.78516-322.7832v348.19921c93.66667-93.66666 187.33333-187.33333 281-281v227.16797c-94.63867 94.63868-189.27734 189.27735-283.91602 283.91601h331.33204c170.36118-170.32823 340.72328-340.65557 511.08398-510.98437v255.48438h331.2148c107.5951-107.59441 215.1902-215.18878 322.7852-322.7832v348.19921c93.6667-93.66666 187.3333-187.33333 281-281v227.26954c-9.4388 9.43819-18.8776 18.87629-28.3164 28.31445h843.0312c72.9004-72.89974 145.8008-145.79948 218.7012-218.69922-170.6002 0-341.2005 0-511.8008 0 22.6667-22.66667 45.3334-45.33333 68-68h143.7012c72.8997-72.90039 145.7995-145.80078 218.6992-218.70117-47.8997 0-95.7995 0-143.6992 0 22.6667-22.66667 45.3333-45.33333 68-68h287c72.8997-72.89974 145.7995-145.79948 218.6992-218.69922-206.1107 0-412.2213 0-618.332 0-176.4609 176.46159-352.9219 352.92319-529.3828 529.38477 0-186.13347 0-372.26693 0-558.400395-116.0671 116.066405-232.1342 232.132795-348.2012 348.199215 0-116.0664 0-232.13281 0-348.199215-195.6331 195.635735-391.2688 391.268905-586.9004 586.906245.032-195.63541.068-391.27083.1016-586.906245-186.1667 186.166665-372.3334 372.333335-558.5 558.500005 0-186.16667 0-372.33334 0-558.500005-116.0671 116.066405-232.13415 232.132795-348.20119 348.199215 0-116.0664 0-232.13281 0-348.199215-273.70508 273.705075-547.41016 547.410155-821.115235 821.115235zm1708.615225-769.759766c-.038 194.025386-.071 388.050776-.1 582.076176 195.6335-195.63347 391.2669-391.26693 586.9004-586.900395v348.199215c116.0332-116.0332 232.0664-232.0664 348.0996-348.099606v558.499996c185.5716-185.57161 371.1432-371.14322 556.7148-556.714839h563.67c-60 59.999999-120 119.999999-180 179.999999-95.6999 0-191.3998 0-287.0996 0-35.5671 35.56641-71.1342 71.13281-106.7012 106.69922h143.7012c-60 60-120 120-180 180-47.9004 0-95.8008 0-143.7012 0-35.5664 35.56706-71.1328 71.13411-106.6992 106.70117h511.7988c-60 60-120 120-180 180-262.4609 0-524.9219 0-787.3828 0 0-94.30534 0-188.61068 0-282.91601-93.7005 93.69987-187.4011 187.39971-281.1016 281.09961 0-116.10027 0-232.20053 0-348.30079-116.7051 116.70573-233.4101 233.41147-350.1152 350.11719-101.3281 0-202.6563 0-303.9844 0 0-94.27213 0-188.54427 0-282.8164-179.472 179.472-358.944 358.94401-538.41601 538.41602-92.12435 0-184.24869 0-276.37304 0 85.5641-85.52745 171.12661-171.05609 256.68985-256.58399 0-93.94467 0-187.88933 0-281.83399-93.67322 93.65883-187.39786 187.2662-281.09961 280.89649 0-116.06511 0-232.13021 0-348.19532-116.70508 116.70573-233.41015 233.41147-350.11523 350.11719-92.22331 0-184.44662 0-276.669926 0 251.728516-251.72851 503.457036-503.45703 755.185546-755.185546v348.201176c116.09961-116.10026 232.19922-232.20054 348.29882-348.300785v558.499995c186.1664-186.16894 372.3353-372.33531 558.5-558.505854z" transform="matrix(1.0077335 0 0 1.0077335 -14.59639 -14.59639)"/></g></svg>