<svg enable-background="new 0 0 3839 1108.5" viewBox="0 0 3839 1108.5" xmlns="http://www.w3.org/2000/svg"><g fill="#fff"><path d="m0 1036h3839v45.9h-3839z"/><path d="m1303.5 352.8h-221.6v69.1h221.6c42.5 0 78-35.5 78-78s-35.5-78-78-78h-56.7c-51.4 0-94-42.5-94-94s42.6-93.9 94-93.9h219.8v-69.1h-221.6c-90.4 0-163.1 72.7-163.1 163.1s72.7 163 163.1 163h56.7c5.3 0 8.9 3.6 8.9 8.9s-3.6 8.9-7.1 8.9z"/><path d="m1245 164.9h221.6v-70.9h-221.6c-42.5 0-78 35.5-78 78s35.5 78 78 78h56.7c51.4 0 94 42.5 94 94s-42.5 94-94 94h-219.8v69h221.6c90.4 0 163.1-72.7 163.1-163.1s-72.7-163.1-163.1-163.1h-56.7c-5.3 0-8.9-3.6-8.9-8.9 0-3.5 3.6-7 7.1-7z"/><path d="m2040.9 94c-30.2 0-53.2 23-53.2 53.2v221.6c0 30.2 23 53.2 53.2 53.2h143.6v-156h-109.9v69h40.8v16h-40.8c-8.9 0-16-7.1-16-16v-156c0-8.9 7.1-16 16-16h196.8v-69z"/><path d="m2477 421.9h161.3l-109.9-326.2c-3.6-8.9-10.6-16-21.3-16-8.9 0-17.7 7.1-21.3 14.2l-141.8 413.1h81.5l49.6-147.1v62.1zm28.4-148.9 23 70.9h-47.9z"/><path d="m2613.5 81.5c-14.2-46-56.7-81.5-108.1-81.5s-94 33.7-106.3 79.8l-129.4 379.3v-278.3h-195v69.1h127.6v187.9h-159.6c-39 0-69.1-31.9-69.1-69.1v-221.5c0-39 31.9-69.1 69.1-69.1h228.7v-69.2h-230.5c-76.2 0-138.2 62.1-138.2 138.2v221.6c0 76.2 62.1 138.2 138.2 138.2h285.4l143.6-416.6c5.3-16 19.5-26.6 37.2-26.6s31.9 10.6 37.2 26.6l117 347.4h-184.3v69.1h280.1z"/><path d="m1638.5 437.9c-39 0-69.1-31.9-69.1-69.1v-221.6c0-39 31.9-69.1 69.1-69.1h237.5v-69.2h-237.5c-76.2 0-138.2 62.1-138.2 138.2v221.6c0 76.2 62.1 138.2 138.2 138.2h237.5v-69.1z"/><path d="m1654.5 336.8h172v-69.1h-241.1v102.8c0 30.2 23 53.2 53.2 53.2h237.5v-69.2h-205.6c-8.9-1.7-16-8.8-16-17.7z"/><path d="m1826.5 180.8h-172c0-8.9 7.1-16 16-16h203.9v-70.8h-235.8c-30.2 0-53.2 23-53.2 53.2v102.8h241.1c0-.1 0-69.2 0-69.2z"/><path d="m374 559.9h150.3v26.6h-33.7c-23.1 0-33.1 6.5-33.1 30.2v313.7c0 23.7 10.1 30.2 33.1 30.2h33.7v26.6h-197v-26.6h32.5c23.1 0 33.1-6.5 33.1-30.2v-340.9h-1.2l-135.4 397.7h-17.8l-140.9-397.7h-1.2v287.6c0 54.4 5.9 81.7 68.6 83.4v26.6h-165v-26.6c52.7-4.7 66.9-14.8 66.9-97.6v-246.2c0-23.7-10.1-30.2-33.1-30.2h-33.8v-26.6h151.5l113 320.8h1.2z"/><path d="m736.2 785.4c0-37.9-16.6-55-63.9-55-39.7 0-55 11.8-55 20.1 0 6.5 13 20.1 13 33.7 0 20.7-14.2 29-33.1 29-21.3 0-31.4-17.2-31.4-37.3 0-36.7 43.8-72.2 115.4-72.2 76.3 0 109.5 27.2 109.5 90.5 0 29.6-1.8 113.6-1.8 136.1 0 10.7 8.3 27.2 21.9 27.2 16 0 20.1-7.1 26-7.1s7.7 3 7.7 10.1c0 8.9-21.9 32.5-52.7 32.5-30.2 0-45-15.4-52.7-44.4-26 31.4-66.3 47.3-106.5 47.3-44.4 0-82.9-20.7-82.9-70.4 0-55.6 71-92.9 186.4-108.3v-31.8zm0 55.6c-102.4 14.2-129 35.5-129 79.3 0 28.4 23.1 46.2 49.7 46.2 36.7 0 79.3-29.6 79.3-78.1z"/><path d="m1042.2 706.7h20.7v98.2h-20.7c-12.4-43.8-39.7-77.5-88.2-77.5-26 0-54.4 13.6-54.4 43.2 0 20.7 15.4 33.7 53.3 42l58 12.4c43.8 9.5 71 36.7 71 80.5 0 58-42.6 90.5-96.5 90.5-30.2 0-60.4-8.9-84-29l-18.3 26h-20.7v-112.3h20.6c14.8 52.1 45.6 91.7 104.2 91.7 26 0 59.2-15.4 59.2-45.6 0-29-20.7-39.7-65.7-50.3l-45.7-10.6c-52.6-12.4-68-39.1-68-79.9 0-50.9 36.1-82.3 86.4-82.3 26 0 52.1 7.7 72.2 23.7z"/><path d="m1101.9 712.6c62.7-4.1 75.2-69.8 78.7-119.5h23.7v119.5h88.2v26.6h-88.2v175.8c0 29 9.5 45.6 36.7 45.6 37.9 0 46.2-50.3 46.2-79.9h23.7c-.6 74-26.6 115.4-90 115.4-39.1 0-71-26.6-71-63.9v-193h-47.9v-26.6z"/><path d="m1384.2 854.1v8.3c0 68.6 38.5 104.2 85.2 104.2 45 0 71-24.9 90-63.9l20.1 11.2c-24.3 53.3-61 82.3-120.1 82.3-81.7 0-135.5-56.2-135.5-136.7 0-99.4 53.9-155.6 138.5-155.6 69.2 0 113 62.7 117.2 150.3h-195.4zm104.8-23.7c24.3 0 30.2-3.6 30.2-22.5 0-50.3-24.3-80.5-62.1-80.5-46.8 0-67.5 38.5-72.8 103z"/><path d="m1592.5 718.5 110.1-5.9v70.4h1.2c7.1-31.4 35.5-79.3 88.2-79.3 26 0 46.8 18.9 46.8 46.2 0 22.5-11.8 40.2-35.5 40.2-19.5 0-32.5-14.8-32.5-32 0-10.7 3-18.9 14.2-26.6v-1.2h-1.2c-61.5 4.7-81.1 106.5-81.1 155.1v59.2c0 15.4 10.1 18.9 34.3 18.9h21.3v23.7h-161v-23.7h19.5c22.5 0 31.4-5.9 31.4-29v-175.7c0-14.2-8.9-16.6-28.4-16.6h-27.2v-23.7z"/><path d="m2235.8 555.2h20.7l7.1 153.3h-23.6c-17.2-65.7-59.8-130.8-135.5-130.8-58 0-84 35.5-84 70.4 0 29.6 15.4 55.6 71 71l92.3 25.4c67.5 18.3 99.4 62.7 99.4 124.9 0 70.4-52.1 126.6-145 126.6-48.5 0-91.1-17.2-123.7-45.6l-26.6 42.6h-19.5l-2.4-167.5 22.5-2.4c17.2 95.3 75.8 146.2 149.7 146.2 59.2 0 97.6-31.4 97.6-86.4 0-34.3-16-57.4-56.8-68.1l-95.9-24.9c-69.2-17.8-110.1-49.7-110.1-116 0-79.3 53.3-123.1 129.6-123.1 42.6 0 76.9 12.4 108.9 41.4z"/><path d="m2479 712.6h117.8v23.7c-29 .6-38.5 11.8-49.7 39.7l-76.9 186.4c-43.8 106.5-82.3 146.2-132 146.2-28.4 0-54.4-14.2-54.4-46.2 0-20.1 16.6-33.7 36.1-33.7 16.6 0 28.4 12.4 28.4 24.9 0 10.7-4.1 16-4.1 20.1 0 5.9 3.6 8.3 7.1 8.3 25.4 0 51.5-34.3 81.7-99.4l-93-210.8c-13-29-18.3-35.5-42-35.5h-7.1v-23.7h139.7v23.7h-8.3c-21.9 0-32.5 1.8-32.5 12.4 0 4.7 2.4 11.8 5.3 18.3l65.1 149.1 46.2-114.2c11.2-27.2 15.4-37.9 15.4-47.3 0-13-14.8-18.3-24.9-18.3h-17.9z"/><path d="m2788.6 706.7h20.7v98.2h-20.7c-12.4-43.8-39.7-77.5-88.2-77.5-26 0-54.4 13.6-54.4 43.2 0 20.7 15.4 33.7 53.3 42l58 12.4c43.8 9.5 71 36.7 71 80.5 0 58-42.6 90.5-96.5 90.5-30.2 0-60.4-8.9-84-29l-18.3 26h-20.7v-112.3h20.7c14.8 52.1 45.6 91.7 104.2 91.7 26 0 59.2-15.4 59.2-45.6 0-29-20.7-39.7-65.7-50.3l-45.6-10.7c-52.7-12.4-68.1-39.1-68.1-79.9 0-50.9 36.1-82.3 86.4-82.3 26 0 52.1 7.7 72.2 23.7z"/><path d="m2848.3 712.6c62.7-4.1 75.2-69.8 78.7-119.5h23.7v119.5h88.2v26.6h-88.2v175.8c0 29 9.5 45.6 36.7 45.6 37.9 0 46.2-50.3 46.2-79.9h23.7c-.6 74-26.6 115.4-90 115.4-39.1 0-71-26.6-71-63.9v-193h-47.9v-26.6z"/><path d="m3130.6 854.1v8.3c0 68.6 38.5 104.2 85.2 104.2 45 0 71-24.9 90-63.9l20.1 11.2c-24.3 53.3-61 82.3-120.1 82.3-81.7 0-135.5-56.2-135.5-136.7 0-99.4 53.9-155.6 138.5-155.6 69.2 0 113 62.7 117.2 150.3h-195.4zm104.8-23.7c24.3 0 30.2-3.6 30.2-22.5 0-50.3-24.3-80.5-62.1-80.5-46.8 0-67.5 38.5-72.8 103z"/><path d="m3694 963.5h14.2c23.7 0 32-7.1 32-27.2v-142.6c0-32-18.3-54.4-52.1-54.4-36.1 0-66.3 27.8-66.3 69.8v127.2c0 20.1 8.3 27.2 32 27.2h14.2v23.7h-146.8v-23.7h14.2c23.7 0 32-7.1 32-27.2v-136.1c0-38.5-22.5-61-56.2-61-28.4 0-62.1 34.3-62.1 95.9v101.2c0 20.1 8.3 27.2 32 27.2h14.2v23.7h-151.5v-23.7h18.9c23.7 0 32-7.1 32-27.2v-177.5c0-14.2-8.9-16.6-28.4-16.6h-22.5v-23.7l105.3-5.9v50.3h1.2c26.6-49.1 62.1-59.2 84.6-59.2 42.6 0 72.8 26 81.1 60.4 26.6-43.8 56.2-60.4 92.3-60.4 38.5 0 86.4 37.3 86.4 95.3v137.3c0 20.1 8.3 27.2 32 27.2h12.4v23.7h-145v-23.7z"/></g></svg>