<svg enable-background="new 0 0 1897.3 456.5" height="1192.1754" viewBox="0 0 3839.9999 1192.1754" width="3840" xmlns="http://www.w3.org/2000/svg"><g fill="#fff"><path d="m1052.5332 0-1052.5332 1120.2109h511.83203l14.05078-13.6113 253.31055-245.3203v330.8965l311.08394-324.67971v252.71681h2297.5801l279.8242-636.90235h-360.8437l27.8633-64.00977h378.7226l126.5762-291.24805h-724.0117-726.877-727.5273l-230.0117 510.86133v-616.027341l-379.0391 422.833981zm-16.1914 45.439453-.0078 447.326167 379.0508-422.833979v653.042969l259.8476-577.125h689.9512l-114.4102 255.01367-381.7851-.0039-43.6485 100.25195h208.3809l-113.3496 262.93945-173.9336-.00976-42.8867 95.72656h753.0625l42.8867-95.7207h-367.0117l270.4121-618.20313h694.5859l-110.8261 255.01367-394.3204-.0039-43.6445 100.25195h365.6953l-156.9941 358.66015h426.1015l42.8868-95.72265h-367.0235l270.418-618.20117h684.5195l-110.8222 255.01367h-378.7207l-43.6426 100.25781h360.7558l-263.9043 600.65432h-2267.6269v-279.70705l-311.0879 324.68165v-328.56837l-284.03906 275.08987-8.79297 8.5078h-462.597658zm-29.7852 75.708987-886.89058 938.67966h372.5996 1.93165 6.02148l332.44922-319.08005v313.48245l313.89063-321.88089v333.07809h2212.1016l237.3652-534.65036h-360.582l69.9492-160.66015h378.6972l84.5704-194.60352h-613.1114l-238.3867 552.19336h367.459l-75.5449 161.72852h-497.4512l156.9902-358.65821h-365.5879l69.9454-160.66015h394.3066l84.5664-194.60352h-623.1777l-238.3907 552.19336h361.8711l-75.5488 161.72852h-819.2519l72.7461-161.72852h173.625l84.5117-196.92969h-208.5606l69.9453-160.66015h382.0254l87.3106-194.60352h-618.1719l-273.3379 607.08203h-41.8398v-634.26367l-379.045 422.84375zm1299.4922 196.77539-203.2226 464.5625h366.7578l-26.6465 59.47851h-713.3418l26.6465-59.47851h174.1113l128.9824-299.17578h-208.2773l27.8691-64.00977h381.6407zm296.2344 101.37695h386.3066l-158.875 363.18555h366.75l-26.6445 59.48437h-386.6465l156.9883-358.66015h-365.748z"/><path d="m821.10064 763.919-320.66841 309.8022-2.64464 2.5523h-406.165028l924.761338-981.8136v449.21288l379.98-422.84576v648.88538h21.3787l274.0099-607.07536h645.1982l-95.6766 212.72672h-382.8912l-62.199 142.53308h209.0158l-95.3573 220.64746h-174.1446l-61.9773 138.0118h801.3529l61.9774-138.0039h-368.2402l252.5414-575.91516h650.1127l-92.673 212.72672h-395.2698l-62.207 142.53308h366.5114l-157.3689 358.65926h473.2759l61.9773-138.0039h-368.2322l252.5388-575.91516h640.025l-92.6809 212.72672h-379.6237l-62.2122 142.53308h361.5177l-245.9351 558.37666h-2238.1544v-311.1905l-311.85296 324.6802zm-326.98439 303.2936v-9.0662z" stroke-width="2.63935"/></g></svg>