<?xml version="1.0" encoding="UTF-8" standalone="no"?>
<svg
   height="974.00006"
   viewBox="0 0 3840 974.00007"
   width="3840"
   version="1.1"
   id="svg24"
   sodipodi:docname="moto.svg"
   inkscape:version="1.3.2 (091e20e, 2023-11-25)"
   xmlns:inkscape="http://www.inkscape.org/namespaces/inkscape"
   xmlns:sodipodi="http://sodipodi.sourceforge.net/DTD/sodipodi-0.dtd"
   xmlns="http://www.w3.org/2000/svg"
   xmlns:svg="http://www.w3.org/2000/svg">
  <defs
     id="defs24" />
  <sodipodi:namedview
     id="namedview24"
     pagecolor="#ffffff"
     bordercolor="#000000"
     borderopacity="0.25"
     inkscape:showpageshadow="2"
     inkscape:pageopacity="0.0"
     inkscape:pagecheckerboard="0"
     inkscape:deskcolor="#d1d1d1"
     inkscape:zoom="0.12126231"
     inkscape:cx="1921.4545"
     inkscape:cy="486.54855"
     inkscape:window-width="1312"
     inkscape:window-height="449"
     inkscape:window-x="0"
     inkscape:window-y="23"
     inkscape:window-maximized="0"
     inkscape:current-layer="svg24" />
  <g
     id="g25"
     transform="scale(1,1.0009279)">
    <g
       fill="#ffffff"
       transform="matrix(0.47685501,0,0,0.47685501,0,207.17016)"
       id="g3">
      <path
         d="m 1481.2,1520.3 h -309.7 l 6.2,-663.5 -311.1,663.5 H 617.2 l -313.7,-669 6.3,669 H 0 V 561.9 h 511.1 l 230.2,540 231.4,-540 h 508.6 v 958.4 z m -251.4,-57.8 h 193.7 V 619.7 H 1010.8 L 741.2,1248.9 473,619.7 H 57.7 v 842.8 H 251.4 L 245.1,788.8 H 338 l 315.9,673.7 h 176 l 315.9,-673.7 h 90.3 z"
         id="path1" />
      <path
         d="m 2240.5,1534.1 c -18.9,0 -37.8,-0.1 -56.6,-0.2 -18.6,-0.1 -37.1,-0.2 -55.5,-0.2 -65.1,0 -132.5,0 -198.2,-1.4 l -8.5,-0.1 c -89.7,-1.3 -225.1,-3.3 -304.7,-67 -80.9,-62.6 -86.6,-188.9 -90.1,-264.3 -3.8,-52.9 -3.8,-107 -3.8,-159.3 0,-52.3 0,-106.4 3.8,-160 4.8,-79 12.2,-198.9 89.6,-263.2 35.3,-28.4 78.9,-46.3 133.5,-54.9 100.2,-17.2 209.8,-16.3 315.8,-15.5 89.4,0.7 170.4,1.2 257.9,2.9 l 12.5,0.2 c 94.5,1.4 223.9,3.3 303.5,67 77.7,61.8 84.8,178.1 90,263 3.9,54.2 3.9,108.3 3.9,160.6 0,52.2 0,106.1 -3.8,159.7 -3.3,74.2 -9.1,197.9 -89.9,263.7 -42,35.4 -89,46.6 -133.4,53.4 -87.3,13.6 -177.4,15.6 -266,15.6 z M 1998.4,605.5 c -81.9,0 -163.9,2.3 -238.9,15.1 -45.4,7.2 -79.1,20.7 -106.3,42.6 -57.9,48.1 -64.1,148.8 -68.6,222.3 -3.7,51.9 -3.7,104.9 -3.7,156.2 0,51.3 0,104.3 3.7,155.9 3,66.2 8.1,175.7 68.2,222.3 64.5,51.6 188.1,53.4 269.9,54.6 l 8.7,0.1 c 65.3,1.3 132.3,1.3 197.2,1.3 18.5,0 37.1,0.1 55.8,0.2 104.3,0.5 212.1,1 313.6,-14.7 41.8,-6.4 75.7,-15.8 105.4,-40.8 56.6,-46.1 65.1,-135.1 69.1,-222.3 v -0.8 c 3.7,-51.6 3.7,-104.6 3.7,-155.9 0,-51.3 0,-104.3 -3.7,-155.9 C 2667.7,806.3 2661.7,709 2604,663.2 2539.8,611.8 2416.9,610 2335.6,608.8 l -12.9,-0.2 c -66.4,-1.3 -129.1,-2.6 -194.2,-2.6 -20.6,0 -41.6,-0.2 -63,-0.3 -22.2,0 -44.7,-0.2 -67.1,-0.2 z m 60.1,695.3 c -95.4,0 -190.5,-5.9 -230.7,-39.8 -49.2,-41.9 -48.5,-126 -48.1,-181.7 l 0.1,-14.6 v -11.2 c 0,-105.6 -0.1,-169.3 30.3,-212.2 34.3,-48.5 98.8,-58 198.7,-58 H 2192 c 52.5,-0.1 106.8,-0.3 160.6,7.1 43.5,6.7 91.1,19.5 110.6,88.1 15,51.2 15,135.8 15,186.3 v 11.4 c 0.3,57.8 0.8,145.1 -48.5,185.1 -47.1,37.5 -126.7,37.5 -179.3,37.5 -20,0 -40.3,0.3 -60.6,0.7 -20.6,0.3 -41.2,0.7 -61.5,0.7 -6.9,0 -15.6,0.1 -25.6,0.3 -14.5,0.1 -29.3,0.3 -44.2,0.3 z m -49.6,-459.7 c -92,0 -134.5,9.4 -151.6,33.6 -19.7,27.9 -19.7,87.9 -19.7,178.8 v 11.2 l -0.1,15 c -0.4,44.9 -0.9,112.8 27.7,137.2 33.7,28.5 181.3,26.5 236.9,25.8 10.3,-0.1 19.2,-0.3 26.3,-0.3 20,0 40.3,-0.3 60.6,-0.7 20.6,-0.3 41.2,-0.7 61.5,-0.7 39.1,0 112,0 143.1,-24.8 27.5,-22.4 27.1,-98.8 26.9,-139.8 v -11.8 c 0,-44.3 0,-126.8 -12.7,-170.1 l -0.1,-0.2 c -9.4,-33 -24.8,-41 -63.4,-46.9 -49.3,-6.8 -101.6,-6.6 -152.1,-6.5 z"
         id="path2" />
      <path
         d="m 3229.1,1531.1 c -97.9,0 -198.3,-1.9 -295.8,-26.6 -145.5,-37.3 -157.7,-151.8 -157.7,-256.2 0,-12.6 0,-24.4 1.4,-38.1 l 2.7,-25.9 h 297.8 v 28.9 c 0,10.5 0,34.5 7.7,46.5 9.8,5.5 49.6,16.3 210.6,15.1 l 129.2,-0.1 c 46.6,0 80.3,0 93.3,-9.9 11.2,-8.5 16.2,-35.3 16.2,-86.8 0,-17.2 0,-40.9 -6.1,-54 -10.3,-21.4 -72.9,-22.9 -99.6,-23.5 -4.5,-0.1 -8.7,-0.2 -12.5,-0.3 -57.4,-2.7 -115.4,-4 -172.6,-4 -6.7,0 -13.9,-0.1 -21.4,-0.1 -36,-0.4 -80.9,-0.8 -110.9,7.3 -19.4,5.2 -21.4,5.7 -21.4,32.9 v 28.9 H 2808.2 V 561.9 H 3800 v 252.2 h -633 c -25.2,0 -51.1,0 -76.7,-2.4 v 7.2 c 0.1,20.1 0.2,40.6 0.1,61.1 57.3,-30.4 172.8,-34.5 289.3,-34.5 h 7.5 c 72.1,0 206.4,0 298,28.3 135.1,41.2 153.8,167.4 153.8,297.6 0,131.1 -20.3,218.9 -62.2,268.4 l -0.1,0.1 c -32.2,37.9 -75.3,54.5 -113.2,65.7 -88,25.6 -177.2,25.6 -263.6,25.5 H 3284 3256.6 c -9.1,0 -18.3,0 -27.5,0 z m -395.7,-289 v 6.2 c 0,113.4 17.7,175.4 114.2,200.2 99.5,25.2 205.9,25 308.9,24.8 h 130.7 12.8 c 82.3,0.1 167.3,0.1 247.3,-23.2 29.6,-8.8 63,-21.3 85.5,-47.7 22.1,-26.2 48.5,-87.6 48.5,-231.1 0,-128.4 -18.9,-213.7 -113,-242.4 -83.4,-25.7 -212,-25.7 -281.1,-25.7 h -7.6 c -58.6,0 -214.5,-0.1 -263.6,28.5 -11.1,7 -23.1,17.2 -35,29.9 l -53.6,57.5 3.7,-78.5 c 1.9,-39.8 1.6,-81.2 1.4,-121.3 -0.1,-13.6 -0.2,-27.2 -0.2,-40.8 v -35.2 l 34.5,6.9 c 31.2,6.2 66.2,6.2 100.1,6.2 h 575.3 V 619.7 H 2866 v 487.7 h 168.6 c 5.4,-28.2 21.4,-48.9 61.9,-59.8 37.6,-10.1 86.9,-9.6 126.4,-9.2 7.3,0.1 14.2,0.1 20.8,0.1 58.1,0 117,1.4 175,4.1 3.2,0.1 7.2,0.2 11.4,0.3 46.6,1.1 124.7,2.9 150.5,56.5 11.7,25 11.7,56 11.7,78.7 0,148.5 -48.3,154.4 -167.3,154.4 l -128.7,0.1 c -186.5,1.4 -235.7,-12.2 -254.6,-34.6 -13,-16.4 -18.4,-36.2 -20.6,-55.9 z m 250.7,17"
         id="path3" />
    </g>
    <g
       fill="#ffffff"
       transform="matrix(1.0009384,0,0,1.0009384,0,5e-6)"
       id="g10">
      <path
         d="M 257.7,109.1 V 378.5 H 150.1 V 109.1 H 0 V 16.9 h 407.8 v 92.2 z"
         id="path4" />
      <path
         d="M 728.7,378.5 V 247.3 h -232 V 378.5 H 389.1 V 16.9 h 107.6 v 129.6 h 232 V 16.9 h 107.6 v 361.6 z"
         id="path5" />
      <path
         d="m 1306.5,261.4 c -1.5,33.6 -4.5,75.4 -31.8,97.6 -14.2,11.9 -30.3,16.3 -48,19 -49,7.6 -100.6,6 -150.1,6 -26.3,0 -53.1,0 -79.3,-0.5 C 961.9,383 908.4,383 878.5,359.1 851.2,338 848.2,294.6 846.7,261.5 c -1.5,-21.1 -1.5,-42.3 -1.5,-63.4 0,-21.1 0,-42.3 1.5,-63.4 2,-33.1 5.1,-75.4 31.8,-97.6 14.2,-11.4 30.8,-16.8 48,-19.5 47.5,-8.1 102.1,-6 150.1,-6 26.8,0 53.1,0.5 79.8,1.1 35.4,0.5 88.4,0.5 118.3,24.4 27.3,21.7 29.8,64.5 31.8,97.6 1.5,21.1 1.5,42.3 1.5,63.4 0,21 0,42.2 -1.5,63.3 z M 1199.9,135.6 c -5.6,-19.5 -17.2,-24.4 -34.9,-27.1 -23.8,-3.3 -48,-2.7 -71.8,-2.7 h -64.7 c -81.9,0 -80.4,17.3 -80.4,101.4 0,20.6 -2,55.3 15.2,69.9 19.2,16.3 90,13 113.2,13 16.2,0 32.8,-0.5 49,-0.5 18.7,0 49,0 64.7,-12.5 16.7,-13.6 15.2,-49.9 15.2,-69.9 0,-19.5 0,-52.6 -5.5,-71.6 z"
         id="path6" />
      <path
         d="m 1787.2,378.5 2.5,-270.5 h -17.2 l -126.8,270.5 h -85.4 L 1433.4,108 h -18.2 l 2.5,270.5 H 1316.6 V 16.9 h 186 l 100.1,234.7 100.6,-234.7 h 185 v 361.6 z"
         id="path7" />
      <path
         d="m 2287.1,355.2 c -24.3,28.2 -77.3,27.1 -110.2,27.6 -26.3,1.1 -52.6,1.1 -78.8,1.1 -44,0 -97,1.6 -140,-8.7 -16.2,-3.8 -30.3,-10.8 -41.9,-23.3 C 1899,334 1897,310.7 1897,286.3 c 0,-9.2 0.5,-18.4 1,-27.6 h 99.1 c 0,8.1 0,15.7 2.5,23.3 1.5,4.9 3.5,8.1 7.6,11.4 9.6,8.1 38.4,7 49.5,7 14.7,0 28.8,0.5 43.5,0.5 18.2,0 35.9,-0.5 54.1,-0.5 12.6,0 44.5,1.6 53.1,-11.4 3.5,-6 3.5,-14.1 3.5,-20.6 0,-27.6 -20.2,-26.6 -40.9,-27.1 -54.1,-1.6 -108.1,-4.9 -162.2,-7 -29.3,-1.1 -66.7,-2.2 -87.9,-27.6 -17.7,-21.1 -19.2,-51.5 -19.2,-78.6 0,-64.5 15.7,-105.2 80.4,-112.2 43.5,-4.9 88.4,-4.3 132.4,-4.3 42.4,0 87.4,-1.1 128.9,9.8 46,12.5 55.6,45 55.6,92.2 v 17.3 h -99.6 v -5.4 c 0,-10.3 -1,-17.9 -9.6,-23.9 -9.6,-7 -32.3,-6.5 -43.5,-6.5 h -87.4 c -10.6,0 -40.4,-0.5 -49.5,6.5 -6.6,4.9 -8.1,13.6 -8.1,21.7 0,6.5 1.5,15.2 6.6,19.5 3.5,3.3 8.6,4.3 13.1,4.9 11.6,2.2 23.8,2.2 35.4,2.7 22.7,1.1 45.5,2.2 68.2,2.7 38.9,1.1 94.5,0.5 132.4,11.4 12.1,3.8 22.7,9.2 32.3,18.4 20.7,19.5 21.7,56.9 21.7,84 -0.1,30.3 -2.7,65 -22.9,88.3 z"
         id="path8" />
      <path
         d="m 2779.9,261.4 c -1.5,33.6 -4.5,75.4 -31.8,97.6 -14.2,11.9 -30.3,16.3 -48,19 -49,7.6 -100.6,6 -150.1,6 -26.3,0 -53.1,0 -79.3,-0.5 -35.4,-0.5 -88.9,-0.5 -118.8,-24.4 -27.3,-21.1 -30.3,-64.5 -31.8,-97.6 -1.5,-21.1 -1.5,-42.3 -1.5,-63.4 0,-21.1 0,-42.3 1.5,-63.4 2,-33.1 5.1,-75.4 31.8,-97.6 14.2,-11.4 30.8,-16.8 48,-19.5 47.5,-8.1 102.1,-6 150.1,-6 26.8,0 53.1,0.5 79.8,1.1 35.4,0.5 88.4,0.5 118.3,24.4 27.3,21.7 29.8,64.5 31.8,97.6 1.5,21.1 1.5,42.3 1.5,63.4 0.1,21 0.1,42.2 -1.5,63.3 z M 2673.3,135.6 c -5.6,-19.5 -17.2,-24.4 -34.9,-27.1 -23.8,-3.3 -48,-2.7 -71.8,-2.7 H 2502 c -81.9,0 -80.4,17.3 -80.4,101.4 0,20.6 -2,55.3 15.2,69.9 19.2,16.3 90,13 113.2,13 16.2,0 32.8,-0.5 49,-0.5 18.7,0 49,0 64.7,-12.5 16.7,-13.6 15.2,-49.9 15.2,-69.9 0,-19.5 0,-52.6 -5.6,-71.6 z"
         id="path9" />
      <path
         d="M 3080.7,378.5 2903.3,109.1 h -11.1 l 2.5,269.4 H 2790.1 V 16.9 H 2970 l 176.4,269.4 h 10.6 l -2.5,-269.4 h 104.6 v 361.6 z"
         id="path10" />
    </g>
    <g
       fill="none"
       id="g14">
      <path
         d="M 1423.5,1462.5 V 619.7 H 1010.7 L 741.2,1248.9 473,619.7 H 57.7 v 842.8 H 251.4 L 245.2,788.8 H 338 l 315.9,673.7 h 176 l 315.9,-673.7 h 90.3 l -6.3,673.7 z"
         transform="matrix(0.47685501,0,0,0.47685501,0,207.17016)"
         id="path11" />
      <g
         stroke-width="0.476855"
         id="g13">
        <path
           d="m 1241.6351,523.51577 c -30.6141,-24.51034 -89.2196,-25.36868 -127.9879,-25.94091 l -6.1514,-0.0954 c -31.6632,-0.61991 -61.562,-1.23982 -92.6053,-1.23982 -9.8232,0 -19.83715,-0.0954 -30.04185,-0.14306 -10.58618,-0.0954 -21.26773,-0.14306 -31.99697,-0.14306 -39.05442,0 -78.15654,1.09677 -113.92066,7.20051 -21.64922,3.43336 -37.71923,9.8709 -50.68969,20.31403 -27.6099,22.93672 -30.5664,70.95602 -32.71225,106.00487 -1.76437,24.74877 -1.76437,50.02209 -1.76437,74.48475 0,24.46266 0,49.73598 1.76437,74.3417 1.43056,31.5678 3.86252,83.78342 32.52151,106.00486 30.75715,24.60572 89.69643,25.46406 128.70317,26.03629 l 4.14864,0.0477 c 31.13863,0.61991 63.08791,0.61991 94.0358,0.61991 8.8218,0 17.6913,0.0477 26.6085,0.0954 49.736,0.23842 101.141,0.47685 149.5417,-7.00977 19.9326,-3.05187 36.098,-7.53431 50.2606,-19.45569 26.99,-21.98301 31.0432,-64.42311 32.9506,-106.00487 v -0.38148 c 1.7644,-24.60572 1.7644,-49.87903 1.7644,-74.3417 0,-24.46266 0,-49.73597 -1.7644,-74.34169 -2.2889,-37.8146 -5.15,-84.2126 -32.6645,-106.05256 z m -82.9728,285.11161 c -22.4599,17.88207 -60.4175,17.88207 -85.5001,17.88207 -9.5371,0 -19.2173,0.14305 -28.8974,0.3338 -9.8232,0.14305 -19.6464,0.33379 -29.3266,0.33379 -3.2903,0 -7.4389,0.0477 -12.2075,0.14306 -7.00975,0.0954 -14.06721,0.14306 -21.17235,0.14306 -45.49197,0 -90.84088,-2.81345 -110.01045,-18.97883 -23.46126,-19.98023 -23.12747,-60.08373 -22.93672,-86.64456 l 0.0477,-6.96208 v -5.34078 c 0,-50.35589 -0.0477,-80.73155 14.44871,-101.18863 16.35612,-23.12747 47.11327,-27.65759 94.75109,-27.65759 h 87.35982 c 25.0349,-0.0477 50.9281,-0.14306 76.5829,3.38567 20.7432,3.19493 43.4415,9.29867 52.7402,42.01093 7.1528,24.41497 7.1528,64.75691 7.1528,88.83808 v 5.43615 c 0.2384,27.56222 0.4292,69.19166 -23.0321,88.26586 z"
           id="path12" />
        <path
           d="m 1405.5778,897.94233 c 47.4471,12.01674 98.1845,11.92137 147.3005,11.826 h 62.325 6.1037 c 39.2452,0.0477 79.7779,0.0477 117.9263,-11.06303 14.1149,-4.19633 30.0418,-10.15702 40.7711,-22.74599 10.5385,-12.4936 23.1274,-41.7725 23.1274,-110.20119 0,-61.22818 -9.0125,-101.90392 -53.8846,-115.58966 -39.7697,-12.25517 -101.0932,-12.25517 -134.0439,-12.25517 h -3.6241 c -27.9437,0 -102.2854,-0.0477 -125.699,13.59037 -5.2931,3.33798 -11.0153,8.2019 -16.6899,14.25796 l -25.5594,27.41917 1.7643,-37.43312 c 0.906,-18.97883 0.763,-38.72063 0.6676,-57.84251 -0.048,-6.48523 -0.095,-12.97046 -0.095,-19.45569 v -16.7853 l 16.4515,3.2903 c 14.8779,2.95651 31.5678,2.95651 47.7332,2.95651 h 274.3347 V 502.67721 H 1366.6665 V 735.2394 h 80.3977 c 2.575,-13.44731 10.2047,-23.31821 29.5173,-28.51593 17.9298,-4.81624 41.4387,-4.57781 60.2745,-4.38707 3.4811,0.0477 6.7714,0.0477 9.9186,0.0477 27.7053,0 55.792,0.66759 83.4496,1.9551 1.526,0.0477 3.4334,0.0954 5.4362,0.14306 22.2214,0.52454 59.4638,1.38288 71.7666,26.94231 5.5793,11.92137 5.5793,26.70388 5.5793,37.52849 0,70.81297 -23.0321,73.62641 -79.7779,73.62641 l -61.3712,0.0477 c -88.9335,0.66759 -112.3948,-5.81763 -121.4073,-16.49919 -6.1991,-7.82042 -8.7741,-17.26215 -9.8232,-26.65619 h -89.5534 v 2.9565 c 0.048,54.07536 8.488,83.68805 54.5045,95.51406 z"
           id="path13" />
      </g>
    </g>
    <g
       fill="#ffffff"
       id="g24">
      <g
         stroke-width="0.421426"
         id="g16">
        <path
           d="M 2547.2326,590.39311 V 930.27344 H 2411.449 V 590.39311 H 2222.1443 V 474.16373 h 514.4351 v 116.22938 z"
           id="path14" />
        <path
           d="m 3337.7019,782.56351 c -1.8964,42.39549 -5.7314,95.03164 -40.1619,123.09863 -17.8685,15.04492 -38.2655,20.52346 -60.559,23.93701 -61.8232,9.56638 -126.8493,7.50139 -189.3047,7.50139 -33.1662,0 -66.9225,0 -100.0887,-0.67428 -44.6291,-0.67428 -112.1837,-0.67428 -149.8171,-30.76412 -34.4305,-26.67629 -38.2655,-81.37742 -40.1619,-123.09863 -1.8964,-26.67629 -1.8964,-53.35257 -1.8964,-80.02886 0,-26.67628 0,-53.35257 1.8964,-80.02886 2.5285,-41.7212 6.3635,-95.03163 40.1619,-123.09862 17.8685,-14.37064 38.8977,-21.19775 60.559,-24.6113 59.9268,-10.24066 128.7457,-7.54353 189.3047,-7.54353 33.7984,0 66.9225,0.67428 100.7209,1.3907 44.629,0.67429 111.5515,0.67429 149.1427,30.76413 34.4306,27.35056 37.5913,81.37742 40.162,123.09862 1.8964,26.67629 1.8964,53.35258 1.8964,80.02886 0.042,26.67629 0.042,53.35257 -1.8543,80.02886 z M 3203.1826,623.8965 c -6.9956,-24.6113 -21.6613,-30.76412 -43.9969,-34.17767 -29.9634,-4.08784 -60.5589,-3.41356 -90.5224,-3.41356 h -81.5881 c -103.2494,0 -101.353,21.87203 -101.353,127.86075 0,26.002 -2.5286,69.74605 19.1327,88.20453 24.2321,20.52346 113.448,16.39348 142.7793,16.39348 20.397,0 41.4262,-0.67428 61.8232,-0.67428 23.5999,0 61.8233,0 81.5882,-15.7192 21.0291,-17.10991 19.1327,-62.91895 19.1327,-88.20453 0,-24.6113 0,-66.3325 -6.9957,-90.26952 z"
           id="path15" />
        <path
           d="m 3354.3066,474.16406 v 115.55469 h 321.252 l -239.707,340.55469 h 163.1777 L 3840,580.82617 V 474.16406 Z m 155.5489,23.00977 c 4.6357,0 9.3975,0.21063 14.0332,0.29492 16.2249,0.42143 25.623,2.23362 25.623,22.41992 v 24.23242 c -0.042,11.29422 -2.6974,19.34239 -14.1601,21.36524 -7.5857,1.30642 -17.8262,1.22265 -25.4961,1.22265 -4.7621,0 -9.3992,-0.0845 -14.1192,-0.21093 -10.4513,-0.21072 -22.5876,-0.63239 -24.8633,-14.16016 -1.0535,-6.32139 -0.7597,-13.94784 -0.7597,-20.35351 0,-4.08784 0,-8.05002 0.086,-12.09571 0.084,-5.68925 0.4636,-12.22068 4.3828,-16.60351 2.5707,-2.8657 6.1512,-4.25654 9.7754,-4.88868 7.5857,-1.30642 17.7438,-1.22265 25.4981,-1.22265 z m -114.8399,0.84179 h 72.2754 v 15.84571 l -35.8633,52.04687 h -24.2754 l 35.6524,-50.69726 h -47.7891 z m 111.8477,16.85743 c -3.8771,0 -8.1759,-0.0842 -11.9688,0.80078 -1.1378,0.295 -2.2763,0.71709 -3.1191,1.72851 -2.5707,2.8657 -2.3594,10.91563 -2.3594,14.58204 0,3.3714 -0.2109,11.29393 1.9805,14.0332 0.9693,1.22213 2.1073,1.72701 3.498,2.14844 4.0879,1.01142 10.8296,1.01202 15.086,0.92773 l 8.3457,-0.21094 c 2.36,-0.0843 5.6035,-0.0848 7.7949,-1.22265 4.7621,-2.23356 4.0879,-11.20867 4.0879,-15.67578 0,-4.46712 0.6742,-13.52869 -4.0879,-15.88868 -2.1914,-1.01142 -5.3928,-1.13867 -7.7949,-1.13867 -3.7929,0 -7.5858,-0.084 -11.4629,-0.084 z"
           id="path16" />
      </g>
      <path
         d="m 2344.1665,511.64746 h 116.1698 v 605.03224 h -116.1698 z"
         stroke-linecap="round"
         stroke-linejoin="round"
         stroke-miterlimit="0"
         stroke-width="3.38936"
         transform="matrix(1,0,-0.49053752,0.87142007,0,0)"
         id="path17" />
      <g
         transform="translate(-44.7903,-10.065637)"
         id="g23">
        <path
           d="m 3844.3963,303.46564 h -94.2 v -171.3 l 94.2,34.3 z"
           id="path18" />
        <path
           d="m 3598.9963,283.26564 -94.2,-34.3 v -136.9 h 94.2 z"
           id="path19" />
        <path
           d="m 3674.5963,310.76564 v 94.6 l 209.8,-76.4 v -94.6 z"
           id="path20" />
        <path
           d="m 3477.6963,252.76564 184.1,67 v 67.2 l -184.1,-67 z m -12.9,-18.4 v 94.6 l 209.8,76.4 v -94.6 z"
           id="path21" />
        <path
           d="m 3464.7963,86.465636 v 94.500004 l 209.8,-76.3 V 10.065637 Z"
           id="path22" />
        <path
           d="m 3687.4963,28.465636 184.1,67 v 67.200004 l -184.1,-67.000004 z m -12.9,-18.399999 v 94.600003 l 209.8,76.4 V 86.465636 Z"
           id="path23" />
      </g>
    </g>
  </g>
</svg>
