<svg enable-background="new 0 0 3839 1299.2" viewBox="0 0 3839 1299.2" xmlns="http://www.w3.org/2000/svg"><g fill="#fff"><path d="m2872.8 334.3h-339.6v-334.3h382.9z"/><path d="m3839 1299.2-922.9-1299.2-291 167.5 803.8 1131.7z"/><path d="m2477.7 1299.2 922.8-1299.2h410l-922.8 1299.2z"/><path d="m1899.2 0h692.9v334.3h-692.9zm293.5 482.4c544.5 0 544.5 816.7 0 816.7 0-111.5 0-222.8 0-334.3 98.7 0 98.7-148.1 0-148.1 0-111.4 0-222.9 0-334.3zm-293.5 334.3c-544.5 0-544.5-816.7 0-816.7v334.3c-98.7 0-98.7 148.1 0 148.1zm0-334.3h293.5v334.3h-293.5zm-383.7 482.4h677.3v334.3h-677.3z"/><path d="m346.5 1299.2 159.7-585.2 159.5 585.2h301.6l159.6-585.2 159.7 585.2h346.5l-354.4-1299.2h-303.6l-158.6 581.5-158.6-581.5h-303.5l-354.4 1299.2z"/></g></svg>