<?xml version="1.0" encoding="UTF-8" standalone="no"?>
<svg
   height="1300"
   viewBox="0 0 3840 1300"
   width="3840"
   version="1.1"
   id="svg5"
   sodipodi:docname="msx.svg"
   inkscape:version="1.3.2 (091e20e, 2023-11-25)"
   xmlns:inkscape="http://www.inkscape.org/namespaces/inkscape"
   xmlns:sodipodi="http://sodipodi.sourceforge.net/DTD/sodipodi-0.dtd"
   xmlns="http://www.w3.org/2000/svg"
   xmlns:svg="http://www.w3.org/2000/svg">
  <defs
     id="defs5" />
  <sodipodi:namedview
     id="namedview5"
     pagecolor="#ffffff"
     bordercolor="#000000"
     borderopacity="0.25"
     inkscape:showpageshadow="2"
     inkscape:pageopacity="0.0"
     inkscape:pagecheckerboard="true"
     inkscape:deskcolor="#d1d1d1"
     inkscape:zoom="0.18153846"
     inkscape:cx="1919.7034"
     inkscape:cy="650"
     inkscape:window-width="1312"
     inkscape:window-height="449"
     inkscape:window-x="0"
     inkscape:window-y="39"
     inkscape:window-maximized="0"
     inkscape:current-layer="svg5" />
  <g
     id="g7">
    <g
       id="g6">
      <g
         fill="#fff"
         transform="scale(1.0002605 1.0006158)"
         id="g5">
        <path
           d="m2872.8 334.3h-339.6v-334.3h382.9z"
           id="path1" />
        <path
           d="m3839 1299.2-922.9-1299.2-291 167.5 803.8 1131.7z"
           id="path2" />
        <path
           d="m2477.7 1299.2 922.8-1299.2h410l-922.8 1299.2z"
           id="path3" />
        <path
           d="m1899.2 0h692.9v334.3h-692.9zm293.5 482.4c544.5 0 544.5 816.7 0 816.7 0-111.5 0-222.8 0-334.3 98.7 0 98.7-148.1 0-148.1 0-111.4 0-222.9 0-334.3zm-293.5 334.3c-544.5 0-544.5-816.7 0-816.7v334.3c-98.7 0-98.7 148.1 0 148.1zm0-334.3h293.5v334.3h-293.5zm-383.7 482.4h677.3v334.3h-677.3z"
           id="path4" />
        <path
           d="m346.5 1299.2 159.7-585.2 159.5 585.2h301.6l159.6-585.2 159.7 585.2h346.5l-354.4-1299.2h-303.6l-158.6 581.5-158.6-581.5h-303.5l-354.4 1299.2z"
           id="path5" />
      </g>
    </g>
  </g>
</svg>
