<svg enable-background="new 0 0 3840 857.9" viewBox="0 0 3840 857.9" xmlns="http://www.w3.org/2000/svg"><g fill="#fff"><path d="m1145.7 626.9h139.4v-310h-94.3v177.8h-.8l-62.2-177.8h-139.5v310h94.3v-178.9h.8z"/><path d="m1672 626.9h139.5v-310h-94.4v177.8h-.8l-62.2-177.8h-139.5v310h94.4v-178.9h.7z"/><path d="m2578.2 626.9h139.5v-310h-94.3v177.8h-.9l-62.2-177.8h-139.5v310h94.4v-178.9h.7z"/><path d="m1342.2 316.89999h116.3v310h-116.3z"/><path d="m1919.2 401.2h-74v-84.3h264.5v84.3h-74.2v225.7h-116.3z"/><path d="m2881.7 556.5h11.4c18.7 0 31.3-5.7 38.6-18.2 7.8-12.9 8.6-36.3 8.6-66.3 0-30.1-.8-53.5-8.6-66.4-7.3-12.4-19.8-18.2-38.6-18.2h-11.4zm-113.9-239.6h137.9c117.6 0 155 66.5 155 158.4 0 93.6-57.8 151.6-148.1 151.6h-144.8z"/><path d="m3243 556.5c17.9 0 31.3-8.8 31.3-84.6 0-74.1-12.6-84.6-31.3-84.6s-31.4 10.5-31.4 84.6c.1 75.9 13.6 84.6 31.4 84.6m0-247.8c101.3 0 151.7 66.5 151.7 163.2 0 96.6-50.4 163.2-151.7 163.2s-151.8-66.5-151.8-163.2c.1-96.6 50.6-163.2 151.8-163.2z"/><path d="m3537.4 428.8c16 0 25.6-16.2 25.6-37-.1-17.6-8.1-36.6-29.5-36.6-13 0-23.2 8.2-27 18.2-1.5 3.1-2 7.5-2 14.8 1.4 19.8 10.9 40.6 32.6 40.6zm65.4-153.1c-6.2-.4-12.2-.3-20.6.1-49.1 2.3-68.9 23.2-75.6 46.8h1.2c12.2-10.7 27.3-15.6 47.6-15.6 38.9 0 74.5 28.2 74.5 81.3 0 50.8-39.1 90.4-91.4 90.4-69.1 0-99.2-52.7-99.2-109.3 0-46 16.3-84.9 43-110 25.5-23.6 58.3-35.5 98.5-36.4 10.7-.6 17 0 22.1.5v52.2z"/><path d="m3751.5 368v-42.7c0-15.7.9-32.1 1.7-49.4h-1.3c-7.8 16.8-14.5 32.7-23.1 49.9l-20.4 41.3-.3.8h43.4m0 106.7v-55.6h-103.4v-44.4l83-148h82.6v141.4h26.3v51h-26.3v55.6z"/><path d="m2144 316.9h230.2v81.9h-115.6v32.4h106.4v79.5h-106.4v34.8h119.2v81.3h-233.8z"/><path d="m330.5 269.6 99-176.8-119.9-46.6-66.2 118.5 57.3 116.3z"/><path d="m737.4 211.6v325.2l-179-255.8-34.3-13.1 91.6-103.2z"/><path d="m0 677 121.7 51.2v-272.3l179 347.5 128.8 54.5v-527.5l-128.8-49.4v267.8l-179-337.2-121.7-46.9z"/><path d="m558.4 622.2 36.6 51.3 142.4 54.7-179-233.6z"/><path d="m300.7 281 128.8-49.3 128.9 49.3-128.9 49.4z"/><path d="m859.1 164.7-121.7 46.9-121.7-46.9 121.7-46.8z"/><path d="m243.4 164.7-121.7 46.9-121.7-46.9 121.7-46.8z"/><path d="m309.6 46.2 119.9 46.6 119.9-46.5-119.9-46.3z"/></g></svg>