<svg enable-background="new 0 0 3840 549.1" viewBox="0 0 3840 549.1" xmlns="http://www.w3.org/2000/svg"><g fill="#fff"><path d="m47.7 69.5v190.9c-2.6 0-45.1 0-47.7 0 0-2.9 0-254.9 0-257.7h40.7l193.3 187.7s0-184.9 0-187.7h38.2s6.8 0 8.9 0v257.7c-2.6 0-36 0-37.3 0z"/><path d="m526 69.5v190.9c-2.6 0-45.1 0-47.7 0 0-2.9 0-254.9 0-257.7h40.7l193.3 187.7s0-184.9 0-187.7h38.2s6.8 0 8.9 0v257.7c-2.6 0-36 0-37.3 0z"/><path d="m1517.4 69.5v190.9c-2.6 0-45.1 0-47.7 0 0-2.9 0-254.9 0-257.7h40.7l193.2 187.7s0-184.9 0-187.7h38.2s6.8 0 8.9 0v257.7c-2.6 0-36 0-37.2 0z"/><path d="m394.7 2.7h8.9v257.7c-2.5 0-45.1 0-47.7 0 0-2.9 0-254.9 0-257.7h38.8z"/><path d="m1084.3 2.7h8.8v44.4c-2.8 0-115 0-115 0s0 210.5 0 213.3c-2.6 0-47 0-49.6 0 0-2.9 0-213.3 0-213.3s-112.2 0-115 0c0-2.5 0-41.7 0-44.4h270.8z"/><path d="m1390 2.7h8.9v44.4c-2.7 0-204.5 0-204.5 0v57.8h158.2v44.3c-2.7 0-158.2 0-158.2 0v66.8h204.5v44.4c-2.7 0-249 0-251.7 0 0-2.9 0-254.9 0-257.7h242.8z"/><path d="m2094.3 40.4c-18.7-24.6-46.3-37.7-79.7-37.7 0 0-188.4 0-191.2 0v257.7h191.2c33.4 0 61-13.1 79.7-37.7 17.4-22.9 26.7-54.4 26.7-91.3 0-36.6-9.3-68.2-26.7-91zm-78.3 175.6h-146.6v-169h1.4 145.2c45.8 0 62.1 45.6 62.1 84.5.1 39-16.3 84.5-62.1 84.5z"/><path d="m2432.9 2.7h-207.9c-30.1 0-54.6 24.7-54.6 54.7v148.4c0 30 24.5 54.6 54.6 54.6h207.9c30.1 0 54.7-24.6 54.7-54.6v-148.4c0-30-24.6-54.7-54.7-54.7zm8.9 202.8c0 5.8-4.8 10.6-10.7 10.6h-204.3c-5.9 0-10.7-4.8-10.7-10.6v-147.8c0-5.8 4.8-10.6 10.7-10.6h204.3c5.9 0 10.7 4.8 10.7 10.6z"/><path d="m2432.9 291.5h-207.9c-30.1 0-54.6 24.6-54.6 54.7v148.4c0 30 24.5 54.6 54.6 54.6h207.9c30.1 0 54.7-24.6 54.7-54.6v-148.5c0-30-24.6-54.6-54.7-54.6zm8.9 202.7c0 5.9-4.8 10.7-10.7 10.7h-204.3c-5.9 0-10.7-4.8-10.7-10.7v-147.8c0-5.9 4.8-10.6 10.7-10.6h204.3c5.9 0 10.7 4.7 10.7 10.6z"/><path d="m3299.1 440.4c49.5 19.6 153.9 35.4 235.4 35.4 89.2 0 126.2-30.7 126.2-69.1 0-34.5-34.3-54.8-132.9-90.9-131.7-48.7-228.3-87-228.3-173.5 0-89.6 116.3-142.3 293.5-142.3 95.1 0 127.9 6.1 188.3 17.1l.4 85c-59.3-11.2-111.9-30.7-193.7-30.7-87.6 0-124.9 27.8-124.9 56.5 0 41.6 57.4 61.5 158.4 97.5 140.3 50.2 218.5 89 218.5 173.7 0 87.2-97.8 150.1-318.4 150.1-90.6 0-153-6-222.5-17.1z"/><path d="m3111.4 509.6c-51.9 23.5-150.2 38.4-236 38.4h-328.2v-546.8h328.2c85.9 0 184.1 15.1 236.1 38.6 126.3 57 167.6 148.3 167.6 234.9-.1 86.5-40.9 177.7-167.7 234.9zm-281.8-434.4h-105v397.4h105c161.2 0 262.8-68.9 262.8-197.9s-101.7-199.5-262.8-199.5z"/></g></svg>