<?xml version="1.0" encoding="UTF-8" standalone="no"?>
<svg
   height="1225"
   viewBox="0 0 3840 1225"
   width="3840"
   version="1.1"
   id="svg36"
   sodipodi:docname="neogeo.svg"
   inkscape:version="1.3.2 (091e20e, 2023-11-25)"
   xmlns:inkscape="http://www.inkscape.org/namespaces/inkscape"
   xmlns:sodipodi="http://sodipodi.sourceforge.net/DTD/sodipodi-0.dtd"
   xmlns="http://www.w3.org/2000/svg"
   xmlns:svg="http://www.w3.org/2000/svg">
  <defs
     id="defs36" />
  <sodipodi:namedview
     id="namedview36"
     pagecolor="#ffffff"
     bordercolor="#000000"
     borderopacity="0.25"
     inkscape:showpageshadow="2"
     inkscape:pageopacity="0.0"
     inkscape:pagecheckerboard="true"
     inkscape:deskcolor="#d1d1d1"
     inkscape:zoom="0.19281046"
     inkscape:cx="1921.5763"
     inkscape:cy="612"
     inkscape:window-width="1312"
     inkscape:window-height="449"
     inkscape:window-x="0"
     inkscape:window-y="39"
     inkscape:window-maximized="0"
     inkscape:current-layer="svg36" />
  <g
     id="g38">
    <g
       id="g37"
       transform="scale(1,1.000817)">
      <g
         fill="#ffffff"
         transform="scale(1.0002605,0.99951004)"
         id="g36">
        <path
           d="m 643.3,290.2 h -195 v 25.6 h 25.4 c 34.1,0 61.7,31.8 61.7,65.7 V 697.9 L 202.9,290.2 H 0 v 25.6 c 45.3,0 81.1,40.9 81.1,86.3 v 443.4 c 0,45.3 -47.8,60.4 -81.1,60.4 v 25.6 H 220.4 V 905.9 C 179.1,905.7 157.3,900 143.2,886.7 129.1,873.3 125.3,855.6 125.3,831.3 V 415.7 l 430.5,524.9 h 23.5 V 382.2 c 0,-33.1 25.9,-61.2 64,-62.6 z"
           id="path1" />
        <circle
           cx="1943.7"
           cy="608.79999"
           r="74.400002"
           id="circle1" />
        <path
           d="m 2362.6,631.5 v 31 h 24.2 c 39.3,0 50.5,19 50.5,52.9 V 867 c -9,11 -39.7,24.8 -83,24.8 -8.8,0 -59,-1 -96.5,-31.8 -39.2,-32.2 -65.6,-97.4 -65.6,-252.4 0,-201.8 71,-287.3 173.9,-287.3 33.5,0 147,22.6 195.3,168.6 h 30.3 V 278.3 h -28.6 c -3.6,28.3 -26,44 -68.3,26.4 -63.9,-26.5 -121,-30.5 -162.8,-30.5 -164.6,0 -304.9,152.5 -304.9,334.6 0,209.8 158.4,332.7 328.5,332.7 80.6,0 166.1,-18.6 233.8,-52.9 V 715.4 c 0,-40.6 28.3,-52.9 66.5,-52.9 v -31 z"
           id="path2" />
        <path
           d="m 1185.2,733.6 c -15.9,87.9 -91.7,156.5 -176.7,154.3 h -73.4 c -23,0 -41.7,-18.7 -41.7,-41.7 V 621.4 h 20.1 c 60,0 98.3,50.2 98.3,136.6 h 26.3 V 604.9 597.1 446.9 h -26.3 c 0,76 -32.1,130.9 -98.4,130.9 H 893.3 V 328.7 h 105.5 c 142,0 146.8,126.5 146.8,142.8 h 28.3 V 334.1 290.2 H 662.2 v 25.5 h 36.1 c 27.6,0 50,26.1 50,53.6 v 472.1 c 0,49.7 -32.6,61 -60.2,61 h -25.9 v 29.2 h 86.1 433 l 29.2,-198 z"
           id="path3" />
        <path
           d="m 1533.5,283.5 c -184.6,0 -326.7,135.9 -326.7,331.3 0,195.4 142.2,331.3 326.7,331.3 184.6,0 326.8,-135.9 326.8,-331.3 0,-195.4 -142.2,-331.3 -326.8,-331.3 z m 0,619.7 c -88.7,0 -160.4,-81.2 -160.4,-288.5 0,-207.3 71.9,-288.4 160.4,-288.4 88.7,0 160.4,81.2 160.4,288.5 0.2,207.2 -71.7,288.4 -160.4,288.4 z"
           id="path4" />
        <path
           d="m 3163.9,733.6 c -15.9,87.9 -91.7,156.5 -176.7,154.3 h -73.4 c -23,0 -41.7,-18.7 -41.7,-41.7 V 621.4 h 20.1 c 60,0 98.3,50.2 98.3,136.6 h 26.3 V 604.9 597.1 446.9 h -26.3 c 0,76 -32.1,130.9 -98.4,130.9 H 2872 V 328.7 h 105.5 c 142,0 146.8,126.5 146.8,142.8 h 28.3 V 334.1 290.2 h -511.7 v 25.5 h 36.1 c 27.6,0 50,26.1 50,53.6 v 472.1 c 0,49.7 -32.6,61 -60.2,61 h -25.9 v 29.2 h 86.1 433 l 29.2,-198 z"
           id="path5" />
        <path
           d="m 3512.2,283.5 c -184.6,0 -326.7,135.9 -326.7,331.3 0,195.4 142.2,331.3 326.7,331.3 184.6,0 326.8,-135.9 326.8,-331.3 0,-195.4 -142.2,-331.3 -326.8,-331.3 z m 0,619.7 c -88.7,0 -160.4,-81.2 -160.4,-288.5 0,-207.3 71.9,-288.5 160.4,-288.5 88.7,0 160.4,81.2 160.4,288.5 0.2,207.3 -71.7,288.5 -160.4,288.5 z"
           id="path6" />
        <path
           d="m 162.9,1053.9 h 49.2 l 41.7,167.4 H 213 l -6.1,-31.9 h -40.1 l -5.9,31.9 h -40.8 z m 23.9,30.5 h -0.5 l -13.8,74.5 h 28.6 z"
           id="path7" />
        <path
           d="m 264.7,1053.9 h 58.4 c 38.9,0 55.6,20.2 55.6,78.3 0,60.7 -7.7,89.1 -59.5,89.1 h -54.4 v -167.4 z m 39.4,138.3 h 10.5 c 18.3,0 24.6,-7.3 24.6,-57.4 0,-40.8 -3.3,-51.8 -24.1,-51.8 h -11 z"
           id="path8" />
        <path
           d="m 381.9,1053.9 h 42.2 l 19.9,129.4 h 0.5 l 20.2,-129.4 h 42.2 l -38,167.4 h -50.2 z"
           id="path9" />
        <path
           d="m 537.6,1053.9 h 49.2 l 41.7,167.4 h -40.8 l -6.1,-31.9 h -40.1 l -5.9,31.9 h -40.8 z m 23.9,30.5 H 561 l -13.8,74.5 h 28.6 z"
           id="path10" />
        <path
           d="m 639.4,1053.9 h 45.2 l 32.4,108.8 h 0.5 v -108.8 h 36.6 v 167.4 H 709.6 L 675.1,1106 h -0.5 v 115.3 h -35.2 z"
           id="path11" />
        <path
           d="m 844.5,1112.1 c 0,-24.4 -2.8,-35.2 -15.9,-35.2 -15.7,0 -17.1,15 -17.1,58.8 0,49.7 1.6,62.6 18,62.6 14.5,0 16.2,-16.6 16.4,-42.7 h 38 v 5.9 c 0,36.1 -10.1,63.1 -58.8,63.1 -50.4,0 -54.4,-37.7 -54.4,-88.1 0,-42.9 2.3,-85.8 58.1,-85.8 34.7,0 53.7,15 53.7,54.4 v 7 z"
           id="path12" />
        <path
           d="m 897.6,1053.9 h 96.8 v 31.9 H 937 v 33.5 h 53.9 v 31.9 H 937 v 38.2 h 60 v 31.9 h -99.4 z"
           id="path13" />
        <path
           d="m 1011.4,1053.9 h 58.4 c 38.9,0 55.6,20.2 55.6,78.3 0,60.7 -7.7,89.1 -59.5,89.1 h -54.4 z m 39.4,138.3 h 10.6 c 18.3,0 24.6,-7.3 24.6,-57.4 0,-40.8 -3.3,-51.8 -24.1,-51.8 h -11 z"
           id="path14" />
        <path
           d="m 1261.5,1053.9 h 96.8 v 31.9 h -57.4 v 33.5 h 53.9 v 31.9 h -53.9 v 38.2 h 60 v 31.9 h -99.4 z"
           id="path15" />
        <path
           d="m 1375.2,1053.9 h 45.2 l 32.4,108.8 h 0.5 v -108.8 h 36.6 v 167.4 h -44.5 L 1410.9,1106 h -0.5 v 115.3 h -35.2 z"
           id="path16" />
        <path
           d="m 1536.3,1085.8 h -35.2 v -31.9 h 109.7 v 31.9 h -35.2 v 135.5 h -39.4 z"
           id="path17" />
        <path
           d="m 1622,1053.9 h 96.8 v 31.9 h -57.4 v 33.5 h 53.9 v 31.9 h -53.9 v 38.2 h 60 v 31.9 H 1622 Z"
           id="path18" />
        <path
           d="m 1735.8,1053.9 h 66.1 c 33.5,0 45,20.6 45,43.6 0,24.4 -9.8,36.3 -28.1,40.8 v 0.5 c 25.1,3.5 26.5,19.2 27,41.7 0.7,33.1 1.9,36.3 7.5,38.7 v 2.1 h -42.4 c -3,-5.6 -4.2,-15 -4.2,-34 0,-29.1 -4,-35.2 -16.4,-35.2 h -15 v 69.2 h -39.4 z m 39.4,70.6 h 12.2 c 15.9,0 20.2,-12 20.2,-21.8 0,-12.7 -4.7,-21.1 -20.4,-21.1 h -12 z"
           id="path19" />
        <path
           d="m 1892.6,1085.8 h -35.2 v -31.9 h 109.7 v 31.9 H 1932 v 135.5 h -39.4 z"
           id="path20" />
        <path
           d="m 1997.6,1053.9 h 49.2 l 41.7,167.4 h -40.8 l -6.1,-31.9 h -40.1 l -5.9,31.9 H 1955 Z m 24,30.5 h -0.5 l -13.8,74.5 h 28.6 z"
           id="path21" />
        <path
           d="m 2099.8,1053.9 h 39.4 v 167.4 h -39.4 z"
           id="path22" />
        <path
           d="m 2159.2,1053.9 h 45.2 l 32.4,108.8 h 0.5 v -108.8 h 36.6 v 167.4 h -44.5 L 2194.9,1106 h -0.5 v 115.3 h -35.2 z"
           id="path23" />
        <path
           d="m 2294.3,1053.9 h 57.7 l 20.6,110 h 0.5 l 19.9,-110 h 57 v 167.4 h -36.6 V 1091 h -0.5 l -25.6,130.3 h -30.5 l -27,-130.3 h -0.5 v 130.3 h -35.2 v -167.4 z"
           id="path24" />
        <path
           d="m 2470.6,1053.9 h 96.8 v 31.9 H 2510 v 33.5 h 53.9 v 31.9 H 2510 v 38.2 h 60 v 31.9 h -99.4 z"
           id="path25" />
        <path
           d="m 2584.4,1053.9 h 45.2 l 32.4,108.8 h 0.5 v -108.8 h 36.6 v 167.4 h -44.5 L 2620,1106 h -0.5 v 115.3 h -35.2 z"
           id="path26" />
        <path
           d="m 2745.4,1085.8 h -35.2 v -31.9 h 109.7 v 31.9 h -35.2 v 135.5 h -39.4 z"
           id="path27" />
        <path
           d="m 2981.7,1170.2 v 5.9 c 0,12.7 3.5,22.3 17.1,22.3 13.8,0 17.8,-10.3 17.8,-19.9 0,-36.1 -72,-15.9 -72,-78.5 0,-26.7 14.3,-49.2 54.9,-49.2 39.4,0 53.5,19.9 53.5,45.7 v 4 h -38 c 0,-8 -0.9,-13.8 -3.3,-17.6 -2.3,-4 -6.1,-5.9 -12,-5.9 -9.8,0 -15.7,5.9 -15.7,18 0,34.9 72,17.3 72,76.4 0,38 -21.1,53.2 -57.2,53.2 -28.6,0 -55.1,-8.7 -55.1,-43.6 v -10.8 z"
           id="path28" />
        <path
           d="m 3099.3,1155.4 -42.4,-101.5 h 43.6 l 18.8,62.1 h 0.5 l 19.2,-62.1 h 42.2 l -42.4,101.5 v 65.9 h -39.4 v -65.9 z"
           id="path29" />
        <path
           d="m 3220.7,1170.2 v 5.9 c 0,12.7 3.5,22.3 17.1,22.3 13.8,0 17.8,-10.3 17.8,-19.9 0,-36.1 -72,-15.9 -72,-78.5 0,-26.7 14.3,-49.2 54.9,-49.2 39.4,0 53.4,19.9 53.4,45.7 v 4 h -38 c 0,-8 -0.9,-13.8 -3.3,-17.6 -2.3,-4 -6.1,-5.9 -12,-5.9 -9.8,0 -15.7,5.9 -15.7,18 0,34.9 72,17.3 72,76.4 0,38 -21.1,53.2 -57.2,53.2 -28.6,0 -55.1,-8.7 -55.1,-43.6 v -10.8 z"
           id="path30" />
        <path
           d="m 3337,1085.8 h -35.2 v -31.9 h 109.7 v 31.9 h -35.2 v 135.5 H 3337 Z"
           id="path31" />
        <path
           d="m 3422.7,1053.9 h 96.8 v 31.9 h -57.4 v 33.5 h 53.9 v 31.9 h -53.9 v 38.2 h 60 v 31.9 h -99.4 z"
           id="path32" />
        <path
           d="m 3537,1053.9 h 57.7 l 20.6,110 h 0.5 l 19.9,-110 h 57 v 167.4 h -36.6 V 1091 h -0.5 l -25.6,130.3 h -30.5 l -27,-130.3 h -0.5 v 130.3 h -35 z"
           id="path33" />
        <path
           d="m 1551.7,54.8 c 0,30.2 20.3,54.6 45.2,54.6 h 125.4 c 3.1,0 5.6,3.1 5.6,6.8 0,3.8 -2.5,6.8 -5.6,6.8 h -170.6 v 48 h 191 c 25,0 45.2,-24.5 45.2,-54.7 0,-30.2 -20.2,-54.6 -45.2,-54.6 h -125.4 c -3.1,0 -5.6,-3 -5.6,-6.8 0,-3.7 2.5,-6.9 5.6,-6.9 h 170.6 V 0 h -191 c -25,0 -45.2,24.6 -45.2,54.8 z"
           id="path34" />
        <path
           d="M 1977.7,0 V 107 L 1863.5,0 h -62.2 v 170.9 h 60 V 63.8 l 114.3,107.1 h 62.1 V 0 Z"
           id="path35" />
        <path
           d="m 2287.3,0 h -78.6 l -97.6,75.3 V 0 h -59.9 v 170.9 h 59.9 V 95.5 l 97.6,75.4 h 78.6 L 2176.5,85.5 Z"
           id="path36" />
      </g>
    </g>
  </g>
</svg>
