<svg enable-background="new 0 0 3840 1088.4" viewBox="0 0 3840 1088.4" xmlns="http://www.w3.org/2000/svg"><g fill="#fff"><path d="m486.3 806.3h-142.3v-110.1h133v-.3-35.9h-133v-101.2h142.3v-36.2h-142.3-36.3v36.2 101.2 36.2 110.1 36.3h.7 35.6 142.3z"/><path d="m1433.8 806.3h-142.4v-110.1h133v-.3-35.9h-133v-101.2h142.4v-36.2h-142.4-36.2v36.2 101.2 36.2 110.1 36.3h.7 35.5 142.4z"/><path d="m42.5 522.6h-42.5v320h36.3v-265.5l184.7 265.5h35.4v-320h-36.3v255.2z"/><path d="m677.6 513.5c-93.4 0-169.1 75.7-169.1 169.1s75.7 169.1 169.1 169.1 169.1-75.7 169.1-169.1-75.7-169.1-169.1-169.1zm0 302.6c-73.7 0-133.5-59.8-133.5-133.5s59.8-133.5 133.5-133.5 133.5 59.8 133.5 133.5-59.8 133.5-133.5 133.5z"/><path d="m1626.5 513.5c-93.4 0-169.1 75.7-169.1 169.1s75.7 169.1 169.1 169.1 169.1-75.7 169.1-169.1-75.7-169.1-169.1-169.1zm0 302.6c-73.7 0-133.5-59.8-133.5-133.5s59.8-133.5 133.5-133.5 133.5 59.8 133.5 133.5-59.8 133.5-133.5 133.5z"/><path d="m1180.4 688.5h-185.5v36.3h178.8c-17.7 53-67.6 91.3-126.6 91.3-73.7 0-133.5-59.8-133.5-133.5s59.8-133.5 133.5-133.5c45.9 0 86.3 23.1 110.3 58.4h41.2c-27.7-55.7-85.1-94-151.5-94-93.4 0-169.1 75.7-169.1 169.1s75.7 169.1 169.1 169.1c91.4 0 165.8-72.5 169-163.2z"/><path d="m3508.7 806.3h-142.3v-110.1h133v-.3-35.9h-133v-101.2h142.3v-36.2h-142.3-36.3v36.2 101.2 36.2 110.1 36.3h.7 35.6 142.3z"/><path d="m3840 522.6h-112.4-36.3-112.4v36.2h112.4v283.8h36.3v-283.8h112.4z"/><path d="m3208.6 842.6h51.3l-160-160 160-160h-51.3l-177.3 177.3v-177.3h-36.3v320h36.3v-91.4l42.9-43z"/><path d="m2364.3 513.5c-93.4 0-169.1 75.7-169.1 169.1s75.7 169.1 169.1 169.1 169.1-75.7 169.1-169.1-75.7-169.1-169.1-169.1zm0 302.6c-73.7 0-133.5-59.8-133.5-133.5s59.8-133.5 133.5-133.5 133.5 59.8 133.5 133.5-59.8 133.5-133.5 133.5z"/><path d="m2883.8 756.7c-23.9 35.8-64.7 59.4-111.1 59.4-73.7 0-133.5-59.8-133.5-133.5s59.8-133.5 133.5-133.5c46.3 0 87.1 23.6 111.1 59.4h41c-27.5-56.3-85.2-95.1-152.1-95.1-93.4 0-169.1 75.7-169.1 169.1s75.7 169.1 169.1 169.1c66.8 0 124.6-38.8 152.1-95.1h-41z"/><path d="m2188.7 224.4-39-24.4 79.1-153.3 63.1 39.5z"/><path d="m2249.7 293.3-27.8-36.8 128.6-114.9 44.9 59.4z"/><path d="m2103.4 180.8-45-9.9 23.1-170.9 72.7 16z"/><path d="m1938 271.7-133 66.6-50.6 25.3-10 5 243.3 486.2 60.6-30.3-213-425.6 133.1-66.6c57-28.6 126.5-5.3 155.1 51.8 28.6 57 5.4 126.4-51.6 155 0 0-9.5 4.3-14.3 6l-78.2-67.4 15.1-47.8 84.7-.9-.7-67.7-133.8 1.5-43.4 137.2 3 2.6 147 127c14-7 57.4-32.9 57.4-32.9 85.9-47.3 119.8-154.4 75.5-242.8-45.3-90.8-155.5-127.5-246.2-82.2z"/><path d="m1525.8 1026.3c-10.7 36.3-44.8 62.1-85.8 62.1-53.6 0-91.9-42.4-91.9-91.2 0-46.7 36.3-90.8 91.7-90.8 50.5.3 79.1 37.4 86 63h-37.2c-5.4-12.1-21.1-31.7-49-32-34.1 0-56.2 28.7-56.2 59.7 0 32 23 60.2 56.4 60.2 31.3 0 45.5-24.7 48.8-31.1z"/><path d="m1620.3 998.8c0-56.2 43.1-92.4 91.9-92.4 53.1 0 92.2 41.2 92.2 91s-38.9 91-92.4 91c-53.8 0-91.7-42.4-91.7-89.3zm35.3-1.4c0 32 23 59.9 57.1 59.9 35.6 0 56.4-30.8 56.4-59.7 0-29.4-20.8-60.2-56.6-60.2-35.1 0-56.9 28.9-56.9 59.7z"/><path d="m1908.7 909.7h35.3v144.3h57.6v31h-92.9z"/><path d="m2088.4 998.8c0-56.2 43.1-92.4 91.9-92.4 53.1 0 92.2 41.2 92.2 91s-38.9 91-92.4 91c-53.8 0-91.7-42.4-91.7-89.3zm35.3-1.4c0 32 23 59.9 57.1 59.9 35.6 0 56.4-30.8 56.4-59.7 0-29.4-20.9-60.2-56.6-60.2-35.1 0-56.9 28.9-56.9 59.7z"/><path d="m2416.6 909.7c19.7.5 37.1 1.5 52.8 14.7 4 3.3 7.8 7.6 10.6 11.9 8.1 12.4 8.8 26.3 8.8 31.1 0 4.3-.5 16.2-7.1 27.1-1.8 2.8-4 6.6-9.4 11.4-5.8 5.1-11.9 7.8-14.2 8.8-4.3 1.8-8.6 3-17.9 5.1l51.6 68.5h-39.7l-49.6-67.5v67.5h-35.6v-178.6zm-13.9 84.7h17.7c2 0 3.8 0 5.8-.3 3.8 0 16.4-.5 24.8-10.6 2-2.5 5.6-7.8 5.6-16.4 0-2.8-.2-9.6-4.8-15.9-7.8-10.6-20-11.6-32.1-11.9h-16.9z"/></g></svg>