<?xml version="1.0" encoding="UTF-8" standalone="no"?>
<svg
   height="1088"
   viewBox="0 0 3840 1088"
   width="3840"
   version="1.1"
   id="svg20"
   sodipodi:docname="ngpc.svg"
   inkscape:version="1.3.2 (091e20e, 2023-11-25)"
   xmlns:inkscape="http://www.inkscape.org/namespaces/inkscape"
   xmlns:sodipodi="http://sodipodi.sourceforge.net/DTD/sodipodi-0.dtd"
   xmlns="http://www.w3.org/2000/svg"
   xmlns:svg="http://www.w3.org/2000/svg">
  <defs
     id="defs20" />
  <sodipodi:namedview
     id="namedview20"
     pagecolor="#ffffff"
     bordercolor="#000000"
     borderopacity="0.25"
     inkscape:showpageshadow="2"
     inkscape:pageopacity="0.0"
     inkscape:pagecheckerboard="true"
     inkscape:deskcolor="#d1d1d1"
     inkscape:zoom="0.21510417"
     inkscape:cx="1917.6755"
     inkscape:cy="543.92252"
     inkscape:window-width="1312"
     inkscape:window-height="449"
     inkscape:window-x="0"
     inkscape:window-y="39"
     inkscape:window-maximized="0"
     inkscape:current-layer="svg20" />
  <g
     id="g22">
    <g
       id="g21">
      <g
         fill="#ffffff"
         transform="scale(1,0.99963249)"
         id="g20">
        <path
           d="M 486.3,806.3 H 344 V 696.2 H 477 V 695.9 660 H 344 V 558.8 H 486.3 V 522.6 H 344 307.7 v 36.2 101.2 36.2 110.1 36.3 h 0.7 35.6 142.3 z"
           id="path1" />
        <path
           d="M 1433.8,806.3 H 1291.4 V 696.2 h 133 V 695.9 660 h -133 V 558.8 h 142.4 v -36.2 h -142.4 -36.2 v 36.2 101.2 36.2 110.1 36.3 h 0.7 35.5 142.4 z"
           id="path2" />
        <path
           d="M 42.5,522.6 H 0 v 320 H 36.3 V 577.1 L 221,842.6 h 35.4 v -320 h -36.3 v 255.2 z"
           id="path3" />
        <path
           d="m 677.6,513.5 c -93.4,0 -169.1,75.7 -169.1,169.1 0,93.4 75.7,169.1 169.1,169.1 93.4,0 169.1,-75.7 169.1,-169.1 0,-93.4 -75.7,-169.1 -169.1,-169.1 z m 0,302.6 c -73.7,0 -133.5,-59.8 -133.5,-133.5 0,-73.7 59.8,-133.5 133.5,-133.5 73.7,0 133.5,59.8 133.5,133.5 0,73.7 -59.8,133.5 -133.5,133.5 z"
           id="path4" />
        <path
           d="m 1626.5,513.5 c -93.4,0 -169.1,75.7 -169.1,169.1 0,93.4 75.7,169.1 169.1,169.1 93.4,0 169.1,-75.7 169.1,-169.1 0,-93.4 -75.7,-169.1 -169.1,-169.1 z m 0,302.6 c -73.7,0 -133.5,-59.8 -133.5,-133.5 0,-73.7 59.8,-133.5 133.5,-133.5 73.7,0 133.5,59.8 133.5,133.5 0,73.7 -59.8,133.5 -133.5,133.5 z"
           id="path5" />
        <path
           d="M 1180.4,688.5 H 994.9 v 36.3 h 178.8 c -17.7,53 -67.6,91.3 -126.6,91.3 -73.7,0 -133.5,-59.8 -133.5,-133.5 0,-73.7 59.8,-133.5 133.5,-133.5 45.9,0 86.3,23.1 110.3,58.4 h 41.2 c -27.7,-55.7 -85.1,-94 -151.5,-94 -93.4,0 -169.1,75.7 -169.1,169.1 0,93.4 75.7,169.1 169.1,169.1 91.4,0 165.8,-72.5 169,-163.2 z"
           id="path6" />
        <path
           d="M 3508.7,806.3 H 3366.4 V 696.2 h 133 V 695.9 660 h -133 V 558.8 h 142.3 v -36.2 h -142.3 -36.3 v 36.2 101.2 36.2 110.1 36.3 h 0.7 35.6 142.3 z"
           id="path7" />
        <path
           d="m 3840,522.6 h -112.4 -36.3 -112.4 v 36.2 h 112.4 v 283.8 h 36.3 V 558.8 H 3840 Z"
           id="path8" />
        <path
           d="m 3208.6,842.6 h 51.3 l -160,-160 160,-160 h -51.3 L 3031.3,699.9 V 522.6 H 2995 v 320 h 36.3 v -91.4 l 42.9,-43 z"
           id="path9" />
        <path
           d="m 2364.3,513.5 c -93.4,0 -169.1,75.7 -169.1,169.1 0,93.4 75.7,169.1 169.1,169.1 93.4,0 169.1,-75.7 169.1,-169.1 0,-93.4 -75.7,-169.1 -169.1,-169.1 z m 0,302.6 c -73.7,0 -133.5,-59.8 -133.5,-133.5 0,-73.7 59.8,-133.5 133.5,-133.5 73.7,0 133.5,59.8 133.5,133.5 0,73.7 -59.8,133.5 -133.5,133.5 z"
           id="path10" />
        <path
           d="m 2883.8,756.7 c -23.9,35.8 -64.7,59.4 -111.1,59.4 -73.7,0 -133.5,-59.8 -133.5,-133.5 0,-73.7 59.8,-133.5 133.5,-133.5 46.3,0 87.1,23.6 111.1,59.4 h 41 c -27.5,-56.3 -85.2,-95.1 -152.1,-95.1 -93.4,0 -169.1,75.7 -169.1,169.1 0,93.4 75.7,169.1 169.1,169.1 66.8,0 124.6,-38.8 152.1,-95.1 h -41 z"
           id="path11" />
        <path
           d="m 2188.7,224.4 -39,-24.4 79.1,-153.3 63.1,39.5 z"
           id="path12" />
        <path
           d="m 2249.7,293.3 -27.8,-36.8 128.6,-114.9 44.9,59.4 z"
           id="path13" />
        <path
           d="m 2103.4,180.8 -45,-9.9 23.1,-170.9 72.7,16 z"
           id="path14" />
        <path
           d="m 1938,271.7 -133,66.6 -50.6,25.3 -10,5 243.3,486.2 60.6,-30.3 -213,-425.6 133.1,-66.6 c 57,-28.6 126.5,-5.3 155.1,51.8 28.6,57 5.4,126.4 -51.6,155 0,0 -9.5,4.3 -14.3,6 l -78.2,-67.4 15.1,-47.8 84.7,-0.9 -0.7,-67.7 -133.8,1.5 -43.4,137.2 3,2.6 147,127 c 14,-7 57.4,-32.9 57.4,-32.9 85.9,-47.3 119.8,-154.4 75.5,-242.8 -45.3,-90.8 -155.5,-127.5 -246.2,-82.2 z"
           id="path15" />
        <path
           d="m 1525.8,1026.3 c -10.7,36.3 -44.8,62.1 -85.8,62.1 -53.6,0 -91.9,-42.4 -91.9,-91.2 0,-46.7 36.3,-90.8 91.7,-90.8 50.5,0.3 79.1,37.4 86,63 h -37.2 c -5.4,-12.1 -21.1,-31.7 -49,-32 -34.1,0 -56.2,28.7 -56.2,59.7 0,32 23,60.2 56.4,60.2 31.3,0 45.5,-24.7 48.8,-31.1 z"
           id="path16" />
        <path
           d="m 1620.3,998.8 c 0,-56.2 43.1,-92.4 91.9,-92.4 53.1,0 92.2,41.2 92.2,91 0,49.8 -38.9,91 -92.4,91 -53.8,0 -91.7,-42.4 -91.7,-89.3 z m 35.3,-1.4 c 0,32 23,59.9 57.1,59.9 35.6,0 56.4,-30.8 56.4,-59.7 0,-29.4 -20.8,-60.2 -56.6,-60.2 -35.1,0 -56.9,28.9 -56.9,59.7 z"
           id="path17" />
        <path
           d="M 1908.7,909.7 H 1944 V 1054 h 57.6 v 31 h -92.9 z"
           id="path18" />
        <path
           d="m 2088.4,998.8 c 0,-56.2 43.1,-92.4 91.9,-92.4 53.1,0 92.2,41.2 92.2,91 0,49.8 -38.9,91 -92.4,91 -53.8,0 -91.7,-42.4 -91.7,-89.3 z m 35.3,-1.4 c 0,32 23,59.9 57.1,59.9 35.6,0 56.4,-30.8 56.4,-59.7 0,-29.4 -20.9,-60.2 -56.6,-60.2 -35.1,0 -56.9,28.9 -56.9,59.7 z"
           id="path19" />
        <path
           d="m 2416.6,909.7 c 19.7,0.5 37.1,1.5 52.8,14.7 4,3.3 7.8,7.6 10.6,11.9 8.1,12.4 8.8,26.3 8.8,31.1 0,4.3 -0.5,16.2 -7.1,27.1 -1.8,2.8 -4,6.6 -9.4,11.4 -5.8,5.1 -11.9,7.8 -14.2,8.8 -4.3,1.8 -8.6,3 -17.9,5.1 l 51.6,68.5 h -39.7 l -49.6,-67.5 v 67.5 h -35.6 V 909.7 Z m -13.9,84.7 h 17.7 c 2,0 3.8,0 5.8,-0.3 3.8,0 16.4,-0.5 24.8,-10.6 2,-2.5 5.6,-7.8 5.6,-16.4 0,-2.8 -0.2,-9.6 -4.8,-15.9 -7.8,-10.6 -20,-11.6 -32.1,-11.9 h -16.9 z"
           id="path20" />
      </g>
    </g>
  </g>
</svg>
