<svg enable-background="new 0 0 3839.1 1254.4" height="1178" viewBox="0 0 3839.9999 1178" width="3840" xmlns="http://www.w3.org/2000/svg" xmlns:xlink="http://www.w3.org/1999/xlink"><clipPath id="a"><path d="m0 56.6h3839v1121h-3839z"/></clipPath><linearGradient id="b" gradientUnits="userSpaceOnUse" x1="1775.0551" x2="1775.0551" y1="1665.2292" y2="203.6604"><stop offset=".3103" stop-color="#fff" stop-opacity="0"/><stop offset=".4646" stop-color="#fff" stop-opacity=".8587"/><stop offset=".49" stop-color="#fff"/></linearGradient><g transform="scale(1.0002605 1.0003397)"><g fill="#fff"><path d="m1472.3 109.3-42.6-106.1-.2-.6h-32.1v141.4h22.5l-.5-113.9 44.7 113.9h15.8l44.7-113.9-.5 113.1v.8h22.3v-141.4h-31.9z"/><path d="m1736.4 91.8h60c-2.2 9-7.8 17.3-15.9 23.3-8.6 6.7-19.6 10.2-31.7 10.2-32.7 0-50.3-27-50.3-52.3 0-33.5 25.9-51.6 50.3-51.6 10.7 0 20.4 3.1 28.9 9.3 4.8 3.5 9 7.8 12.6 13l.3.4h26.9l-.5-1.2c-10.5-25.3-38.4-42.9-67.9-42.9-41.8 0-74.5 32-74.5 73 0 41.3 32.6 73.7 74.3 73.7 30 0 57.1-16.6 68.9-42.2 5.7-12.5 6.3-26.3 6.3-31.7v-.9h-87.8v19.9z"/><path d="m1926 106.9-70.8-103.9-.3-.4h-22.3v141.4h23.3l-.4-104.4 71.4 104.1.3.3h21.7v-141.4h-23.2z"/><path d="m2166 2.6-40 110.8-39.5-110.2-.3-.6h-24.8l52.9 141.4h23.3l53.3-141.4z"/><path d="m2253.8 0c-42.1 0-73.9 31.9-73.9 74.1v.2c0 40.6 32.4 72.4 73.7 72.4 41.7 0 74.3-32.2 74.3-73.3s-32.6-73.4-74.1-73.4zm50.1 73.5c0 32.4-25.3 51.8-49.7 51.8-28.8 0-50.5-22.3-50.5-52v-.2c0-29 22.1-51.8 50.3-51.8 31.2.1 49.9 26.6 49.9 52.2z"/><path d="m2393 70.7 44.5-68.1h-27.2l-31.4 49.7-31.6-49.7h-27.4l45.1 67.7-48.9 73.7h26.9l35.2-56 36.1 56h27.4z"/><path d="m1629.3 2.6h-21.3l-58.1 141.4h26.1l12.8-33 3.7-10.9h51l3.7 10.9 13.2 33h26zm-11.5 29.2 18.5 48.6h-36.8z"/><path d="m2031.9 2.6h-21.4l-58.1 141.4h26.1l12.8-33 3.7-10.9h51l3.7 10.9 13.2 33h26zm-11.6 29.2 18.5 48.6h-36.8z"/></g><g clip-path="url(#a)"><path d="m360 203.7h-330.3c-26 0-39.3 31-21.5 49.9l1289.6 1366h149.8l-983.7-1362.8c-24.1-33.4-62.7-53.1-103.9-53.1zm165 407.7c-18.9 0-36.9-8.3-49.2-22.6l-149.3-174c-16.6-19.4-2.9-49.4 22.7-49.4h10.8c19.7 0 38.4 9 50.7 24.4l137.7 173c15.6 19.7 1.7 48.6-23.4 48.6zm316.7-407.7h-356.3l111.8 161.8h229.5c10.8 0 20.8 5.9 26.1 15.3l104.1 186.2c11.1 19.9-3.3 44.5-26.1 44.5h-26.6l-117.3-192.6h-152.8l829.3 1200.6h128.7l-656.8-1357.1c-17.4-35.9-53.7-58.7-93.6-58.7zm999.7 215.2h-154.9c-15.2 0-27.9-11.3-29.7-26.4l-3.2-27.1h268.5l4.6-161.8h-364.4c-55.1 0-96.2 50.7-84.9 104.6l41.3 196.1c6.6 31.3 34.2 53.7 66.1 53.7h191.7l1.2 21.8c1 17.2-12.7 31.6-29.8 31.6h-206.7l212.3 1008.1h133.1l31.7-1121.5c1.3-43.3-33.5-79.1-76.9-79.1zm465.2 0h-124.6c-18.4 0-32.4-16.4-29.5-34.6l3-18.8h233l47-161.8h-357.7c-45.7 0-83.6 35.4-86.7 81l-14.3 212.7c-2.2 32.8 23.8 60.6 56.7 60.6h133l-5.4 29c-2.6 14.2-15 24.5-29.4 24.5h-162.6l-67.9 1008.1h123.1l330.1-1136.9c9.3-32-14.6-63.8-47.8-63.8zm306.8 192.5c-21.8 0-36.2-22.5-27.2-42.3l5.1-11.1h187.9l80.2-139.1h-158.1c-21.8 0-36.2-22.5-27.2-42.3l5.1-11.1h214.2l90.2-161.8h-484.6l-458 1415.8h126l581.3-1008.1zm732.8-407.7-165.9 214.8c-5.7 7.3-14.4 11.6-23.7 11.6-24.5 0-38.6-27.8-24.1-47.6l130.9-178.9h-223.3l-184.5 302.3c-16.9 27.7 3 63.3 35.5 63.3h49.4l-726 1050.3h60.4l868.5-1050.3h65.7c11.9 0 23.3-5.1 31.2-14.1l309.8-351.4zm-1957.1 354.3h40.2c4.7 0 9.2-.7 13.4-1.9.8-.3 1.7-.5 2.5-.8 1.6-.6 3.2-1.3 4.8-2.1 3.1-1.5 6-3.4 8.6-5.6 13.2-10.8 20.2-28.5 15.9-46.8l-70.2-297.2h-178.5l57.3 176.1c1.4 4.2 1.8 8.5 1.3 12.5-.1.6-.1 1.2-.2 1.7-2 11.4-10.6 21.1-22.2 24-1.7.4-3.6.7-5.4.8-.6 0-1.3.1-1.9.1h-4.7c-.8 0-1.6 0-2.3-.1-6.9-.5-13.3-3.5-18.2-8.1-.5-.5-1.1-1.1-1.6-1.6-2.5-2.8-4.6-6.1-5.9-9.7l-36.2-97.9-36.2-97.9h-188.6l138.1 301c6.1 13.2 15 24.5 25.9 33.2.8.7 1.7 1.3 2.5 2 15.5 11.5 34.6 18.1 54.7 18.1h35.3l18.9 47.7 50.9 128.7 350 885.1h63.6l-284.2-967.8z" fill="url(#b)"/><g fill="#fff"><path d="m3769.6 109.8h-105.6l-46 52.2h151.6c23.1 0 23.1 34.6 0 34.6h-136.2l-46 52.2-39.1 44.3-54.9 62.2h219.2l54.9-62.2h-148.2l39.1-44.3h111.2c92.7.1 92.7-139 0-139z"/><path d="m1287.3 734.4-69.8-176.4h-35.3c-35.7 0-68.2-20.8-83.1-53.3l-138.1-301h188.6l72.4 195.7c4.3 11.7 15.5 19.5 28 19.5h4.7c20.3 0 34.7-19.8 28.4-39.2l-57.3-176.1h178.5l70.2 297.2c6.9 29.2-15.2 57.2-45.2 57.2h-40.2l51.8 176.4"/><path d="m3180.2 418.5c-5.7 7.3-14.4 11.6-23.7 11.6-24.5 0-38.6-27.8-24.1-47.6l130.9-178.9h-223.3l-184.5 302.3c-16.9 27.7 3 63.3 35.5 63.3h49.4l-114.2 165.2h180.5l136.6-165.2h65.7c11.9 0 23.3-5.1 31.2-14.1l309.8-351.4h-203.9z"/><path d="m2327.3 734.4h350.2l70.9-123h-134.9c-21.8 0-36.2-22.5-27.2-42.3l5.1-11.1h187.9l80.2-139.1h-158.1c-21.8 0-36.2-22.5-27.2-42.3l5.1-11.1h214.2l90.2-161.8h-484.6z"/><path d="m1991.1 284.7-14.3 212.7c-2.2 32.8 23.8 60.6 56.7 60.6h133l-5.4 29c-2.6 14.2-15 24.5-29.4 24.5h-162.6l-8.3 123h289.2c18.5 0 34.8-12.2 39.9-30l64.4-221.8c9.3-31.9-14.7-63.7-47.8-63.7h-124.5c-18.4 0-32.4-16.4-29.5-34.6l3-18.8h233l47-161.8h-357.7c-45.8-.1-83.6 35.3-86.7 80.9z"/><path d="m1477.4 308.2 41.3 196.1c6.6 31.3 34.2 53.7 66.1 53.7h191.7l1.2 21.8c1 17.2-12.7 31.6-29.8 31.6h-206.7l25.9 123h304.1c22.5 0 40.9-17.9 41.6-40.4l5.5-196c1.2-43.3-33.6-79.1-76.9-79.1h-154.9c-15.2 0-27.9-11.3-29.7-26.4l-3.2-27.1h268.5l4.6-161.8h-364.4c-55.1.1-96.2 50.7-84.9 104.6z"/><path d="m935.3 262.4c-17.4-35.9-53.7-58.7-93.6-58.7h-356.3l111.8 161.8h229.5c10.8 0 20.8 5.9 26.1 15.3l104.1 186.2c11.1 19.9-3.3 44.5-26.1 44.5h-26.6l-117.3-192.6h-152.8l217.9 315.5h245.4c30.7 0 50.8-32.1 37.4-59.7z"/><path d="m463.8 256.8c-24.1-33.3-62.7-53.1-103.8-53.1h-330.4c-26 0-39.3 31-21.5 49.9l423.2 448.3c19.6 20.8 46.9 32.5 75.4 32.5h98.9c84.6 0 133.7-95.9 84.1-164.5zm61.2 354.6c-18.9 0-36.9-8.3-49.2-22.6l-149.3-174c-16.6-19.4-2.9-49.4 22.7-49.4h10.8c19.7 0 38.4 9 50.7 24.4l137.7 173c15.6 19.7 1.7 48.6-23.4 48.6z"/></g></g></g></svg>