<?xml version="1.0" encoding="UTF-8" standalone="no"?>
<svg
   viewBox="0 0 3840 1850"
   version="1.1"
   id="svg16"
   sodipodi:docname="oric.svg"
   inkscape:version="1.3.2 (091e20e, 2023-11-25)"
   xmlns:inkscape="http://www.inkscape.org/namespaces/inkscape"
   xmlns:sodipodi="http://sodipodi.sourceforge.net/DTD/sodipodi-0.dtd"
   xmlns="http://www.w3.org/2000/svg"
   xmlns:svg="http://www.w3.org/2000/svg">
  <defs
     id="defs16" />
  <sodipodi:namedview
     id="namedview16"
     pagecolor="#ffffff"
     bordercolor="#000000"
     borderopacity="0.25"
     inkscape:showpageshadow="2"
     inkscape:pageopacity="0.0"
     inkscape:pagecheckerboard="true"
     inkscape:deskcolor="#d1d1d1"
     inkscape:zoom="0.12756757"
     inkscape:cx="1916.6314"
     inkscape:cy="925"
     inkscape:window-width="1312"
     inkscape:window-height="449"
     inkscape:window-x="0"
     inkscape:window-y="39"
     inkscape:window-maximized="0"
     inkscape:current-layer="svg16" />
  <g
     id="g18">
    <g
       id="g17">
      <g
         fill="#fff"
         id="g16">
        <path
           d="m1511.6 37.1v1172.5h233.8v-519.8l299.4 519.8 286-.1-266.9-467.5c116.4-63.7 191.8-187.6 191.8-329.6 0-207.2-168-375.2-375.2-375.2-2.6 0-5.1.1-7.7.2v-.2h-361.2zm233.8 230.1h119.3c192.1 0 192.1 297.7 0 297.8h-119.3z"
           id="path1" />
        <path
           d="m3239.2 5.5c-339.9 0-615.6 275.7-615.6 615.6s275.7 615.4 615.6 615.4c205.9 0 388.3-101.1 500-256.3l-190-135.3c-69.5 96-182.5 158.6-310.1 158.6-211.2 0-382.3-171.1-382.3-382.3s171.1-382.5 382.3-382.5c125.5 0 237 60.4 306.7 153.8l187.6-138.2c-112.1-151-291.8-248.8-494.2-248.8z"
           id="path2" />
        <path
           d="m2330.8 37.1h235.1v1172.5h-235.1z"
           id="path3" />
        <path
           d="m1219.7 621.1c0 213.1-172.8 385.9-385.9 385.9-40.1 0-78.8-6.1-115.2-17.5l-147.1 194.6c59.8 27.9 124.7 46.5 192.9 54.1h138.7c310.3-34.5 551.6-297.5 551.6-617 0-155.2-56.9-297-150.9-405.9l-147 194.6c39.7 60.6 62.9 133.2 62.9 211.2z"
           id="path4" />
        <path
           d="m1141.6 388.3 145.1-192c-57.1-60.9-126.4-110.4-204-144.4l-148.5 196.5c83.8 22.5 156.4 72.6 207.4 139.9z"
           id="path5" />
        <path
           d="m489.4 795.4c-26.5-52.3-41.5-111.6-41.5-174.3 0-213.1 172.8-385.9 385.9-385.9 25.2 0 49.9 2.4 73.7 7l151.3-200.2c-69.8-27.1-145.7-42-225-42-343 0-621.1 278.1-621.1 621.1 0 140.6 46.7 270.2 125.5 374.3z"
           id="path6" />
        <path
           d="m548.6 1172.8 145.1-192c-80.2-31.2-147.4-88.5-191.1-161.5l-148.4 196.4c53.3 64.6 119.4 118.3 194.4 157.1z"
           id="path7" />
        <path
           d="m389.4 1791.6h-101.4l-22.2 52.8h-53.1l108.2-251.4h38.4l105.2 251.4h-52.8zm-14.3-40-35.8-90.5-35.8 90.5z"
           id="path8" />
        <path
           d="m899.3 1635.2v209.2h-49v-209.2h-56.5v-42.2h162.1v42.2z"
           id="path9" />
        <path
           d="m1351.9 1592.9h35.4l66.7 159.8 69.7-159.8h35.4l42.2 251.4h-49.7l-22.6-154.9-67.5 154.9h-16.5l-64.4-154.9-25.6 154.9h-49.7z"
           id="path10" />
        <path
           d="m2241.2 1718.8c0 76.5-55 131.2-134.2 131.2-79.1 0-134.2-54.6-134.2-131.2s55-131.5 134.2-131.5 134.2 55 134.2 131.5zm-50.5 0c0-50.9-34.7-87.1-83.7-87.1s-83.7 36.2-83.7 87.1 34.7 86.7 83.7 86.7c49.1 0 83.7-35.8 83.7-86.7z"
           id="path11" />
        <path
           d="m2749.2 1650.2c-14.7-19.6-32-21.5-41.1-21.5-26.4 0-34.7 16.6-34.7 29.4 0 6 1.9 11.7 7.9 17 6 5.7 14.3 8.7 30.2 14.3 19.6 6.8 38.1 13.6 50.9 25.3 11.3 10.2 21.5 27.1 21.5 52.8 0 49-35.4 82.5-87.4 82.5-46.4 0-73.5-28.3-86.7-47.5l32-30.5c12.1 24.5 35.1 33.5 52.8 33.5 22.2 0 38.8-13.6 38.8-34.7 0-9-3-16.2-9.8-22.6-9.4-8.7-24.5-13.6-38.8-18.5-13.2-4.5-29-10.5-41.8-21.9-8.3-7.2-20-21.1-20-46.7 0-36.9 24.9-73.9 80.7-73.9 15.8 0 45.6 3 71.2 29.4z"
           id="path12" />
        <path
           d="m3270.4 1757.7h29.4v39.2h-29.4v47.5h-46v-47.5h-122.9v-21.9l124.8-182h44.1zm-46 0v-95.7l-64.8 95.7z"
           id="path13" />
        <path
           d="m3492 1775.7c0 41.5-33.2 74.2-87.4 74.2-54.3 0-87.4-32.8-87.4-74.2 0-29 17-53.5 44.8-62.6-19.2-9.4-36.2-27.9-36.2-55.8 0-36.6 26.4-70.1 78.8-70.1s78.8 33.5 78.8 70.1c0 27.9-17 46.4-36.2 55.8 27.8 9.1 44.8 33.6 44.8 62.6zm-49-3.3c0-23-16.6-39.2-38.4-39.2-21.9 0-38.4 16.2-38.4 39.2s16.6 39.2 38.4 39.2 38.4-16.3 38.4-39.2zm-3.4-114.6c0-20.7-14.3-35.1-35.1-35.1-20.7 0-35.1 14.3-35.1 35.1 0 20.7 14.3 35.1 35.1 35.1 20.8-.1 35.1-14.4 35.1-35.1z"
           id="path14" />
        <path
           d="m3579.4 1699.2 92.3-106.3h61.8l-106.2 116.1 111.9 135.3h-64.8l-89.3-112.7-5.7 5.7v107h-49v-251.4h49z"
           id="path15" />
        <path
           d="m480.4 1263.1 926.6-1226h-313.1l-1093.9 1447.2h3840v-221.2z"
           id="path16" />
      </g>
    </g>
  </g>
</svg>
