<svg enable-background="new 0 0 3839 1930.8" height="1932" viewBox="0 0 3840 1932" width="3840" xmlns="http://www.w3.org/2000/svg"><g fill="#fff" transform="matrix(1.0002494 0 0 1.000585 .021535 -.183808)"><path d="m2865.3 357.3-569.1 256.9-181.5-165.4 65.9 236.6-485.6 392.5 569-256.9 181.6 165.3-65.9-236.5z"/><path d="m2865.3 357.3-569.1 256.9-181.5-165.4 65.9 236.6-485.6 392.5 569-256.9 181.6 165.3-65.9-236.5z"/><path d="m2302 585.7 5.1-2.3c2.4-9.5 4.3-19.2 5.9-29.1l9.4-60.8-99.7 19.8z"/><path d="m1839.2 870.5 99.2-19.7 214.1-173-39.7-142.5-28.9 5.8-8.2 53.4c-2.2 14.1-12.9 25.4-26.9 28.1l-126.5 25.2c-12.5 2.5-23.6-8.2-21.7-20.8l53.5-347.9c2.2-14.1 12.9-25.4 26.9-28.1l126.5-25.2c12.5-2.5 23.6 8.2 21.7 20.8l-7.9 51.1 238.5-47.4 11.4-74.1c16.1-104.8-76.8-193.7-180.8-173l-211.4 41.9c-136.4 27.1-241.2 136.7-262.4 274.1l-58.2 378.3c-16 104.8 76.9 193.7 180.8 173z"/><path d="m177.8 1288.9c-92-73.5-139.2-150.5-140.2-228.7-2.9-219.8 366.6-437.3 944.7-558l6.1-39.6c-592.2 121.3-991.8 346.1-988.4 598.1 2 149.5 145.4 285.6 386.1 393.6l5.9-38.5c-85.7-39.1-157.5-81.5-214.2-126.9z"/><path d="m1984.9 367.7-5.8 37.6c222-.3 437.4 12.7 638.9 37.8l64.7-29.2c-215.2-29.9-450.6-46.3-697.8-46.2z"/><path d="m2808.7 433.3-38.9 31.5c178.3 28.8 343.2 67.8 488.8 116.2 172.9 57.5 308.3 124.8 402.6 200.2 92 73.5 139.2 150.5 140.2 228.7 3 224.3-381.7 446.1-980.1 565.2-224.1 44.6-472.8 73.3-727.5 84.5-6.5 13.2-13.6 26-21.1 38.5 271.9-10.7 527.8-40.7 756-86.1 604.3-120.2 1013.7-347.4 1010.3-602.6-3.4-255.8-420.7-472.3-1030.3-576.1z"/><path d="m3217.8 835.6-196 39c-11.6 2.3-20.5 11.6-22.3 23.3l-6.1 39.7 235.4-46.8c11.6-2.3 20.5-11.6 22.3-23.3 3-19.3-14.1-35.7-33.3-31.9z"/><path d="m1720 1148.7-30.1 195.6c-2.4 15.4 11.3 28.5 26.6 25.5l223.2-44.4 37.4-242.8-239.3 47.6c-9.3 1.7-16.4 9.2-17.8 18.5zm80.3 59.1 70.3-14-8.8 57-70.3 14z"/><path d="m3421.9 699.8c-35.2-53.1-98.1-78.1-158.3-66.1l-246.6 49c-65.1 13-121.1 50.7-158.1 102.8-1.2-1.3-2.4-2.5-3.7-3.7-36.2-34.6-87.2-49.5-136.3-39.7l-298.9 59.4 23.8 85.3 292.4-58.2c44.5-8.9 84.3 29.2 77.4 74.1l-55.8 362.5-98.8 19.8 48.8-317.1c2.4-15.4-11.3-28.5-26.6-25.5l-223.2 44.4-53.7 348.8-98.8 19.7 62.5-405.9-109.7-99.9-294.4 132.9 29.6-5.9 98.8-19.7-82.3 534.6c-24.2 157.2-144.1 282.4-300 313.5l-110 21.9 16.3-106 77.1-15.3c116.4-23.2 205.9-116.6 223.9-233.9l6.2-40.2-261.9 52.1c-44.5 8.9-84.3-29.2-77.4-74.1l38.1-247.4c6.8-44 30.6-82.3 64.8-107.8l.1-.2 175-141.4-125.1 24.9c-65.1 13-121.1 50.7-158.1 102.8-1.2-1.3-2.4-2.5-3.7-3.7-36.2-34.6-87.2-49.5-136.3-39.7l-265 52.7 7.4-48.1 30.6-198.9 186.8-37.2c136.4-27.1 241.2-136.7 262.4-274.1l27.6-179.4c16.1-104.8-76.8-193.7-180.8-173l-438.5 87.3-81.7 531-444.7 88.5c-11.6 2.3-20.5 11.6-22.3 23.3l-141.8 921.5c-3 19.3 14.1 35.6 33.2 31.8l597-118.8 192.9-38.4 53.7-348.8 70.3-14-53.7 348.8 283.2-56.4 7.3-47.7c33.7 22.6 75.3 31.3 115.8 23.3l112.4-22.4c-28.1 35.9-68.5 61.8-115 71.1l-118.4 23.6c-11.6 2.3-20.5 11.6-22.3 23.3l-35.8 232.8c-3 19.3 14.1 35.6 33.2 31.8l194.4-38.7c192.4-38.3 340.3-192.8 370.1-386.7l2.9-18.6 191-38 191-38 53.7-348.8 70.3-14-53.7 348.8 283.2-56.4 7.3-47.7c33.7 22.6 75.3 31.3 115.8 23.2l402.2-80c11.6-2.3 20.5-11.6 22.3-23.3l41.9-272.4-11.2 2.2c10.4-21.9 17.8-45.6 21.6-70.3l9.4-60.9c6-38.8-1.6-78.6-23.1-111.1zm-2146.9-308.4 149.9-29.8c12.5-2.5 23.6 8.2 21.7 20.8l-22.9 149c-2.2 14.1-12.9 25.4-26.9 28.1l-152.2 30.3zm-343.6 1237.3-42.9 8.5-50.4 10-281.2 56-77.6 15.4 122.3-794.6 32.7-6.5 241.6-48.1 109.4-21.8-16.3 106-31.5 6.3-253.4 50.4-36 233.9 118.6-23.6 21.3-4.2 77.6-15.4-16.3 106-41.6 8.3-57.2 11.4-118.6 23.6-37.5 242.7 260-51.7 14.4-2.9 79.2-15.8zm-230.5-147 8.8-57 217.5-43.3 44.9-291.8-217.5 43.3 7.4-48.1 180.7-36 82-16.3-11.7 76.1-49.4 320.8zm776.7 38.3-98.8 19.7 48.8-317.1c2.4-15.4-11.3-28.5-26.6-25.5l-223.2 44.4-53.7 348.8-98.8 19.7 70-454.8 360.8-71.8c44.5-8.9 84.3 29.2 77.4 74.1zm735.6-146.4-98.8 19.7 70-454.8 98.8-19.7zm1145-579.2-9.8 63.7c-10.6 69.1-63.4 124.2-132 137.9l-239.3 47.6-7.1 46c-2.4 15.4 11.3 28.5 26.6 25.5l223.2-44.4 44.2-8.8 54.6-10.9-16.3 106-18.6 3.7-342.2 68.1c-44.5 8.9-84.3-29.2-77.4-74.1l38.1-247.4c10.6-69.1 63.4-124.2 132-137.9l246.5-49.1c44.6-8.8 84.4 29.3 77.5 74.1z"/></g></svg>