<?xml version="1.0" encoding="UTF-8" standalone="no"?>
<svg
   enable-background="new 0 0 3839 987.2"
   viewBox="0 0 3840 987.99999"
   version="1.1"
   id="svg99"
   sodipodi:docname="pico8.svg"
   width="3840"
   height="988"
   inkscape:version="1.3.2 (091e20e, 2023-11-25)"
   xmlns:inkscape="http://www.inkscape.org/namespaces/inkscape"
   xmlns:sodipodi="http://sodipodi.sourceforge.net/DTD/sodipodi-0.dtd"
   xmlns="http://www.w3.org/2000/svg"
   xmlns:svg="http://www.w3.org/2000/svg">
  <defs
     id="defs99" />
  <sodipodi:namedview
     id="namedview99"
     pagecolor="#ffffff"
     bordercolor="#000000"
     borderopacity="0.25"
     inkscape:showpageshadow="2"
     inkscape:pageopacity="0.0"
     inkscape:pagecheckerboard="0"
     inkscape:deskcolor="#d1d1d1"
     inkscape:zoom="0.16904092"
     inkscape:cx="1916.6956"
     inkscape:cy="491.00537"
     inkscape:window-width="1312"
     inkscape:window-height="449"
     inkscape:window-x="0"
     inkscape:window-y="23"
     inkscape:window-maximized="0"
     inkscape:current-layer="svg99" />
  <g
     id="g100"
     transform="scale(1.0002605,1.0008104)">
    <g
       fill="#ffffff"
       id="g99">
      <path
         d="M 109.7,438.7 H 219.4 V 548.4 H 109.7 Z"
         id="path1" />
      <path
         d="M 219.4,438.7 H 329.1 V 548.4 H 219.4 Z"
         id="path2" />
      <path
         d="M 329.1,438.7 H 438.8 V 548.4 H 329.1 Z"
         id="path3" />
      <path
         d="M 438.7,438.7 H 548.4 V 548.4 H 438.7 Z"
         id="path4" />
      <path
         d="M 658.1,438.7 H 767.8 V 548.4 H 658.1 Z"
         id="path5" />
      <path
         d="M 767.8,438.7 H 877.5 V 548.4 H 767.8 Z"
         id="path6" />
      <path
         d="M 877.5,438.7 H 987.2 V 548.4 H 877.5 Z"
         id="path7" />
      <path
         d="m 987.2,438.7 h 109.7 V 548.4 H 987.2 Z"
         id="path8" />
      <path
         d="m 1316.2,438.7 h 109.7 v 109.7 h -109.7 z"
         id="path9" />
      <path
         d="m 1425.9,438.7 h 109.7 v 109.7 h -109.7 z"
         id="path10" />
      <path
         d="m 1535.6,438.7 h 109.7 v 109.7 h -109.7 z"
         id="path11" />
      <path
         d="m 1864.7,438.7 h 109.7 v 109.7 h -109.7 z"
         id="path12" />
      <path
         d="M 1974.3,438.7 H 2084 v 109.7 h -109.7 z"
         id="path13" />
      <path
         d="m 2084,438.7 h 109.7 V 548.4 H 2084 Z"
         id="path14" />
      <path
         d="m 2193.7,438.7 h 109.7 v 109.7 h -109.7 z"
         id="path15" />
      <path
         d="m 2851.8,438.7 h 109.7 v 109.7 h -109.7 z"
         id="path16" />
      <path
         d="m 2961.5,438.7 h 109.7 v 109.7 h -109.7 z"
         id="path17" />
      <path
         d="M 0,548.4 H 109.7 V 658.1 H 0 Z"
         id="path18" />
      <path
         d="M 109.7,548.4 H 219.4 V 658.1 H 109.7 Z"
         id="path19" />
      <path
         d="M 329.1,548.4 H 438.8 V 658.1 H 329.1 Z"
         id="path20" />
      <path
         d="M 438.7,548.4 H 548.4 V 658.1 H 438.7 Z"
         id="path21" />
      <path
         d="M 767.8,548.4 H 877.5 V 658.1 H 767.8 Z"
         id="path22" />
      <path
         d="M 877.5,548.4 H 987.2 V 658.1 H 877.5 Z"
         id="path23" />
      <path
         d="m 1206.5,548.4 h 109.7 v 109.7 h -109.7 z"
         id="path24" />
      <path
         d="m 1316.2,548.4 h 109.7 v 109.7 h -109.7 z"
         id="path25" />
      <path
         d="m 1755,548.4 h 109.7 V 658.1 H 1755 Z"
         id="path26" />
      <path
         d="m 1864.7,548.4 h 109.7 v 109.7 h -109.7 z"
         id="path27" />
      <path
         d="m 2084,548.4 h 109.7 V 658.1 H 2084 Z"
         id="path28" />
      <path
         d="m 2193.7,548.4 h 109.7 v 109.7 h -109.7 z"
         id="path29" />
      <path
         d="m 2742.1,548.4 h 109.7 v 109.7 h -109.7 z"
         id="path30" />
      <path
         d="m 2851.8,548.4 h 109.7 v 109.7 h -109.7 z"
         id="path31" />
      <path
         d="M 0,658.1 H 109.7 V 767.8 H 0 Z"
         id="path32" />
      <path
         d="M 109.7,658.1 H 219.4 V 767.8 H 109.7 Z"
         id="path33" />
      <path
         d="M 219.4,658.1 H 329.1 V 767.8 H 219.4 Z"
         id="path34" />
      <path
         d="M 329.1,658.1 H 438.8 V 767.8 H 329.1 Z"
         id="path35" />
      <path
         d="M 438.7,658.1 H 548.4 V 767.8 H 438.7 Z"
         id="path36" />
      <path
         d="M 767.8,658.1 H 877.5 V 767.8 H 767.8 Z"
         id="path37" />
      <path
         d="M 877.5,658.1 H 987.2 V 767.8 H 877.5 Z"
         id="path38" />
      <path
         d="m 1206.5,658.1 h 109.7 v 109.7 h -109.7 z"
         id="path39" />
      <path
         d="m 1316.2,658.1 h 109.7 v 109.7 h -109.7 z"
         id="path40" />
      <path
         d="m 1755,658.1 h 109.7 V 767.8 H 1755 Z"
         id="path41" />
      <path
         d="m 1864.7,658.1 h 109.7 v 109.7 h -109.7 z"
         id="path42" />
      <path
         d="m 2084,658.1 h 109.7 V 767.8 H 2084 Z"
         id="path43" />
      <path
         d="m 2193.7,658.1 h 109.7 v 109.7 h -109.7 z"
         id="path44" />
      <path
         d="m 2413.1,658.1 h 109.7 v 109.7 h -109.7 z"
         id="path45" />
      <path
         d="m 2522.8,658.1 h 109.7 v 109.7 h -109.7 z"
         id="path46" />
      <path
         d="m 2742.1,658.1 h 109.7 v 109.7 h -109.7 z"
         id="path47" />
      <path
         d="m 2851.8,658.1 h 109.7 v 109.7 h -109.7 z"
         id="path48" />
      <path
         d="m 2961.5,658.1 h 109.7 v 109.7 h -109.7 z"
         id="path49" />
      <path
         d="M 0,767.8 H 109.7 V 877.5 H 0 Z"
         id="path50" />
      <path
         d="M 109.7,767.8 H 219.4 V 877.5 H 109.7 Z"
         id="path51" />
      <path
         d="M 767.8,767.8 H 877.5 V 877.5 H 767.8 Z"
         id="path52" />
      <path
         d="M 877.5,767.8 H 987.2 V 877.5 H 877.5 Z"
         id="path53" />
      <path
         d="m 1206.5,767.8 h 109.7 v 109.7 h -109.7 z"
         id="path54" />
      <path
         d="m 1316.2,767.8 h 109.7 v 109.7 h -109.7 z"
         id="path55" />
      <path
         d="m 1755,767.8 h 109.7 V 877.5 H 1755 Z"
         id="path56" />
      <path
         d="m 1864.7,767.8 h 109.7 v 109.7 h -109.7 z"
         id="path57" />
      <path
         d="m 2084,767.8 h 109.7 V 877.5 H 2084 Z"
         id="path58" />
      <path
         d="m 2193.7,767.8 h 109.7 v 109.7 h -109.7 z"
         id="path59" />
      <path
         d="m 2742.1,767.8 h 109.7 v 109.7 h -109.7 z"
         id="path60" />
      <path
         d="m 2851.8,767.8 h 109.7 v 109.7 h -109.7 z"
         id="path61" />
      <path
         d="M 0,877.5 H 109.7 V 987.2 H 0 Z"
         id="path62" />
      <path
         d="M 109.7,877.5 H 219.4 V 987.2 H 109.7 Z"
         id="path63" />
      <path
         d="M 658.1,877.5 H 767.8 V 987.2 H 658.1 Z"
         id="path64" />
      <path
         d="M 767.8,877.5 H 877.5 V 987.2 H 767.8 Z"
         id="path65" />
      <path
         d="M 877.5,877.5 H 987.2 V 987.2 H 877.5 Z"
         id="path66" />
      <path
         d="m 987.2,877.5 h 109.7 V 987.2 H 987.2 Z"
         id="path67" />
      <path
         d="m 1206.5,877.5 h 109.7 v 109.7 h -109.7 z"
         id="path68" />
      <path
         d="m 1316.2,877.5 h 109.7 v 109.7 h -109.7 z"
         id="path69" />
      <path
         d="m 1425.9,877.5 h 109.7 v 109.7 h -109.7 z"
         id="path70" />
      <path
         d="m 1535.6,877.5 h 109.7 v 109.7 h -109.7 z"
         id="path71" />
      <path
         d="m 1755,877.5 h 109.7 V 987.2 H 1755 Z"
         id="path72" />
      <path
         d="m 1864.7,877.5 h 109.7 v 109.7 h -109.7 z"
         id="path73" />
      <path
         d="M 1974.3,877.5 H 2084 v 109.7 h -109.7 z"
         id="path74" />
      <path
         d="m 2084,877.5 h 109.7 V 987.2 H 2084 Z"
         id="path75" />
      <path
         d="m 2742.1,877.5 h 109.7 v 109.7 h -109.7 z"
         id="path76" />
      <path
         d="m 2851.8,877.5 h 109.7 v 109.7 h -109.7 z"
         id="path77" />
      <path
         d="m 2961.5,877.5 h 109.7 v 109.7 h -109.7 z"
         id="path78" />
      <path
         d="M 3400.3,329.1 H 3510 v 109.7 h -109.7 z"
         id="path79" />
      <path
         d="m 3509.9,329.1 h 109.7 v 109.7 h -109.7 z"
         id="path80" />
      <path
         d="m 3619.6,329.1 h 109.7 v 109.7 h -109.7 z"
         id="path81" />
      <path
         d="m 3071.2,438.7 h 109.7 v 109.7 h -109.7 z"
         id="path82" />
      <path
         d="m 3180.9,438.7 h 109.7 v 109.7 h -109.7 z"
         id="path83" />
      <path
         d="m 3509.9,438.7 h 109.7 v 109.7 h -109.7 z"
         id="path84" />
      <path
         d="m 3180.9,548.4 h 109.7 v 109.7 h -109.7 z"
         id="path85" />
      <path
         d="m 3071.2,658.1 h 109.7 v 109.7 h -109.7 z"
         id="path86" />
      <path
         d="m 3180.9,658.1 h 109.7 v 109.7 h -109.7 z"
         id="path87" />
      <path
         d="m 3180.9,767.8 h 109.7 v 109.7 h -109.7 z"
         id="path88" />
      <path
         d="m 3071.2,877.5 h 109.7 v 109.7 h -109.7 z"
         id="path89" />
      <path
         d="m 3180.9,877.5 h 109.7 v 109.7 h -109.7 z"
         id="path90" />
      <path
         d="m 3509.9,0 h 109.7 v 109.7 h -109.7 z"
         id="path91" />
      <path
         d="M 3400.3,109.7 H 3510 v 109.7 h -109.7 z"
         id="path92" />
      <path
         d="m 3509.9,109.7 h 109.7 v 109.7 h -109.7 z"
         id="path93" />
      <path
         d="m 3619.6,109.7 h 109.7 v 109.7 h -109.7 z"
         id="path94" />
      <path
         d="m 3290.6,219.4 h 109.7 v 109.7 h -109.7 z"
         id="path95" />
      <path
         d="M 3400.3,219.4 H 3510 v 109.7 h -109.7 z"
         id="path96" />
      <path
         d="m 3509.9,219.4 h 109.7 v 109.7 h -109.7 z"
         id="path97" />
      <path
         d="m 3619.6,219.4 h 109.7 v 109.7 h -109.7 z"
         id="path98" />
      <path
         d="M 3729.3,219.4 H 3839 v 109.7 h -109.7 z"
         id="path99" />
    </g>
  </g>
</svg>
