<?xml version="1.0" encoding="UTF-8" standalone="no"?>
<svg
   height="472"
   viewBox="0 0 3840 472.00001"
   width="3840"
   version="1.1"
   id="svg14"
   sodipodi:docname="pokemini.svg"
   inkscape:version="1.3.2 (091e20e, 2023-11-25)"
   xmlns:inkscape="http://www.inkscape.org/namespaces/inkscape"
   xmlns:sodipodi="http://sodipodi.sourceforge.net/DTD/sodipodi-0.dtd"
   xmlns="http://www.w3.org/2000/svg"
   xmlns:svg="http://www.w3.org/2000/svg">
  <defs
     id="defs14" />
  <sodipodi:namedview
     id="namedview14"
     pagecolor="#ffffff"
     bordercolor="#000000"
     borderopacity="0.25"
     inkscape:showpageshadow="2"
     inkscape:pageopacity="0.0"
     inkscape:pagecheckerboard="true"
     inkscape:deskcolor="#d1d1d1"
     inkscape:zoom="0.21510417"
     inkscape:cx="1917.6755"
     inkscape:cy="237.09443"
     inkscape:window-width="1312"
     inkscape:window-height="449"
     inkscape:window-x="0"
     inkscape:window-y="39"
     inkscape:window-maximized="0"
     inkscape:current-layer="svg14" />
  <g
     id="g16">
    <g
       id="g15">
      <g
         fill="#fff"
         transform="scale(1 .99936481)"
         id="g14">
        <path
           d="m3063.1 171.5h-229.7-33.7-117.3c-25.7 0-46.5 20.8-46.5 46.5v28 18.5 156.9c0 25.7 20.8 46.5 46.5 46.5s46.5-20.8 46.5-46.5v-156.9h70.8 26.5v156.9c0 25.7 20.8 46.5 46.5 46.5s46.5-20.8 46.5-46.5v-156.9h97.3v156.9c0 25.7 20.8 46.5 46.5 46.5s46.5-20.8 46.5-46.5v-156.9-14.5-32c.2-25.7-20.7-46.5-46.4-46.5z"
           id="path1" />
        <path
           d="m3613.9 171.5h-190.3c-25.7 0-46.5 20.8-46.5 46.5v28 18.5 156.9c0 25.7 20.8 46.5 46.5 46.5s46.5-20.8 46.5-46.5v-156.9h97.3v156.9c0 25.7 20.8 46.5 46.5 46.5s46.5-20.8 46.5-46.5v-156.9-14.5-32c0-25.7-20.9-46.5-46.5-46.5z"
           id="path2" />
        <path
           d="m3243.3 174.1c-25.7 0-46.5 20.8-46.5 46.5s20.8 46.5 46.5 46.5 46.5-20.8 46.5-46.5-20.8-46.5-46.5-46.5z"
           id="path3" />
        <path
           d="m3793.5 267.1c25.7 0 46.5-20.8 46.5-46.5s-20.8-46.5-46.5-46.5-46.5 20.8-46.5 46.5 20.8 46.5 46.5 46.5z"
           id="path4" />
        <path
           d="m3243.3 297.9c-25.7 0-46.5 20.8-46.5 46.5v77c0 25.7 20.8 46.5 46.5 46.5s46.5-20.8 46.5-46.5v-77c0-25.7-20.8-46.5-46.5-46.5z"
           id="path5" />
        <path
           d="m3793.5 297.9c-25.7 0-46.5 20.8-46.5 46.5v77c0 25.7 20.8 46.5 46.5 46.5s46.5-20.8 46.5-46.5v-77c0-25.7-20.8-46.5-46.5-46.5z"
           id="path6" />
        <path
           d="m0 73.4h124.7c119.7 0 175.8 40.4 175.8 128.6 0 79.2-57.9 126.4-155.6 126.4h-40.4v137.1h-104.5zm104.5 180.9h27c36 0 64.6-12.9 64.6-53.9 0-39.9-28.6-52.8-64.6-52.8h-27z"
           id="path7" />
        <path
           d="m333.6 319.5c0-97.2 66.2-153.4 153.1-153.4s153.2 56.2 153.2 153.4c0 96.6-66.2 152.8-153.2 152.8-86.9 0-153.1-56.2-153.1-152.8zm212.2 0c0-43.8-17.2-82.6-59.1-82.6s-59.1 38.8-59.1 82.6c0 43.3 17.2 82 59.1 82s59.1-38.8 59.1-82z"
           id="path8" />
        <path
           d="m689 44.2h91v251.7h1l75.8-123h99.6l-91.5 134.3 99.1 158.4h-110.2l-72.8-145h-1v144.9h-91z"
           id="path9" />
        <path
           d="m1316.8 172.9h82.9v53.9h1c18.2-42.1 54.6-60.7 96-60.7 37.4 0 68.2 18 82.4 56.2 21.2-39.3 56.1-56.2 93.5-56.2 75.8 0 93 47.7 93 127v172.5h-91v-157.3c0-33.1-10.6-57.9-36.4-57.9-32.3 0-51.6 28.6-51.6 91.6v123.6h-91v-157.3c0-33.1-10.6-57.9-36.4-57.9-32.3 0-51.6 28.6-51.6 91.6v123.6h-91v-292.7z"
           id="path10" />
        <path
           d="m1814.8 319.5c0-97.2 66.2-153.4 153.1-153.4s153.2 56.2 153.2 153.4c0 96.6-66.2 152.8-153.2 152.8-86.9 0-153.1-56.2-153.1-152.8zm212.3 0c0-43.8-17.2-82.6-59.1-82.6s-59.1 38.8-59.1 82.6c0 43.3 17.2 82 59.1 82s59.1-38.8 59.1-82z"
           id="path11" />
        <path
           d="m2170.2 172.9h82.9v53.9h1c18.2-42.1 54.6-60.7 96-60.7 71.8 0 100.6 56.2 100.6 116.8v182.6h-91v-141.5c0-55-17.2-73.6-42-73.6-37.4 0-56.6 28.6-56.6 91.6v123.6h-91v-292.7z"
           id="path12" />
        <path
           d="m1082.3 348.7c5.1 40.4 32.9 56.2 77.3 56.2 24.8 0 53.1-6.2 80.4-22.5v71.3c-29.3 12.9-62.7 18.5-96.6 18.5-86.9 0-153.1-56.7-153.1-153.4s59.1-152.8 141-152.8c97.5 0 132.9 77 132.9 164v18.5h-181.9zm100-57.3c0-33.7-14.2-61.2-50.6-61.2-32.8 0-48.5 27.5-50.5 61.2z"
           id="path13" />
        <path
           d="m1026.6 84.5 22.3 57.6c4.6-1.1 163.2-70.2 163.2-70.2l-31.4-71.9z"
           id="path14" />
      </g>
    </g>
  </g>
</svg>
