<?xml version="1.0" encoding="UTF-8" standalone="no"?>
<svg
   enable-background="new 0 0 3839 1253.6"
   viewBox="0 0 3840 1254"
   version="1.1"
   id="svg22"
   sodipodi:docname="psp.svg"
   width="3840"
   height="1254"
   inkscape:version="1.3.2 (091e20e, 2023-11-25)"
   xmlns:inkscape="http://www.inkscape.org/namespaces/inkscape"
   xmlns:sodipodi="http://sodipodi.sourceforge.net/DTD/sodipodi-0.dtd"
   xmlns="http://www.w3.org/2000/svg"
   xmlns:svg="http://www.w3.org/2000/svg">
  <defs
     id="defs22" />
  <sodipodi:namedview
     id="namedview22"
     pagecolor="#ffffff"
     bordercolor="#000000"
     borderopacity="0.25"
     inkscape:showpageshadow="2"
     inkscape:pageopacity="0.0"
     inkscape:pagecheckerboard="0"
     inkscape:deskcolor="#d1d1d1"
     inkscape:zoom="0.18825782"
     inkscape:cx="1917.583"
     inkscape:cy="626.79999"
     inkscape:window-width="1312"
     inkscape:window-height="449"
     inkscape:window-x="0"
     inkscape:window-y="23"
     inkscape:window-maximized="0"
     inkscape:current-layer="svg22" />
  <g
     id="g23"
     transform="scale(1.0002605,1.0002393)">
    <g
       fill="#ffffff"
       id="g22">
      <path
         d="M 683.7,1196.6 V 995.4 h 73.5 c 52.2,0 65.6,26 65.6,56.2 0,45 -40,56.2 -77.1,56.2 h -43 v 88.8 z m 62.6,-105.1 c 35.5,0 57.6,-7.3 57.6,-41.4 0,-25.1 -16.2,-38.6 -52,-38.6 h -49.2 v 80 z"
         id="path1" />
      <path
         d="m 848.3,995.4 h 16.8 v 201.1 h -16.8 z"
         id="path2" />
      <path
         d="m 972.9,1112.2 c 6.1,-0.6 16.5,-2.2 22.1,-4.8 5.5,-2.5 6.1,-10.1 6.1,-15.1 0,-17.1 -10,-29.4 -36,-29.4 -23.2,0 -39.1,7.6 -42.2,32.7 h -17 c 2.5,-34.1 27.9,-47.8 59.5,-47.8 29.3,0 52.5,11.5 52.5,45 v 78.8 c 0,13.1 3.3,16.2 17.6,11.2 v 13.1 c -2.5,0.9 -8.4,2.8 -13.1,2.8 -2.8,0 -5.1,-0.3 -7.5,-0.8 -11.2,-1.7 -13.2,-11.4 -13.4,-21.6 -14,15.7 -33,24 -54,24 -25.4,0 -48.3,-13.7 -48.3,-41.6 0,-24.3 16.8,-39.1 50.6,-43.6 z m 28.2,8.4 c -14.2,5.9 -28.7,7 -43.3,8.1 -25.5,1.9 -40.8,11.2 -40.8,30.7 0,17.6 15.4,26 31.3,26 26.5,0 52.8,-12.9 52.8,-42.2 z"
         id="path3" />
      <path
         d="m 1059.2,1236 c 4.5,0.9 9.2,1.7 14,1.7 19,0 21.8,-27.3 28.2,-39.9 l -56.2,-145.9 h 18.7 l 46.4,124.3 46.4,-124.3 h 18.2 l -54,142.8 c -13.7,36.4 -22.6,59 -45.8,59 -5.9,0 -11.5,-0.9 -15.9,-2 z"
         id="path4" />
      <path
         d="m 1214.5,1136.5 c 3.1,36 27.2,49.1 57.9,49.1 36,0 51.1,-19.5 51.1,-41.6 0,-62.3 -122.6,-21 -122.6,-100.1 0,-27.9 23.2,-53.9 68.2,-53.9 45.2,0 67.9,27.4 67.6,60.1 h -18.2 c 0,-30.7 -23.8,-43.9 -49.4,-43.9 -38.6,0 -52.6,23.8 -49.2,44.5 8.7,52 122.7,14.5 122.7,92.5 0,36.9 -27.2,58.7 -73.5,58.7 -41.9,0 -72.9,-21.8 -72.9,-65.4 z"
         id="path5" />
      <path
         d="m 1430,1197.1 c -3.9,0.8 -11.1,3.3 -19.2,3.3 -16.5,0 -25.7,-7.2 -25.7,-28.7 v -105.9 h -20.4 v -13.9 h 20.4 v -40.3 h 16.7 v 40.3 h 27.2 v 13.9 h -27.2 v 99.3 c 0,14.2 0.6,20.4 14.6,20.4 4.5,0 9.2,-0.8 13.7,-1.9 v 13.5"
         id="path6" />
      <path
         d="m 1527.5,1112.2 c 6.1,-0.6 16.5,-2.2 22.1,-4.8 5.5,-2.5 6.2,-10.1 6.2,-15.1 0,-17.1 -10.1,-29.4 -36,-29.4 -23.2,0 -39.1,7.6 -42.2,32.7 h -17.1 c 2.6,-34.1 28,-47.8 59.5,-47.8 29.3,0 52.5,11.5 52.5,45 v 78.8 c 0,13.1 3.4,16.2 17.6,11.2 v 13.1 c -2.5,0.9 -8.4,2.8 -13.1,2.8 -2.8,0 -5,-0.2 -7.6,-0.8 -11.2,-1.6 -13.1,-11.4 -13.4,-21.5 -14,15.6 -33,24 -53.9,24 -25.5,0 -48.4,-13.7 -48.4,-41.6 0,-24.3 16.8,-39.1 50.6,-43.6 z m 28.3,8.4 c -14.3,5.9 -28.8,7 -43.3,8.1 -25.5,2 -40.8,11.2 -40.8,30.7 0,17.6 15.3,26 31.3,26 26.5,0 52.8,-12.9 52.8,-42.2 z"
         id="path7" />
      <path
         d="m 1671.4,1197.1 c -3.9,0.8 -11.2,3.3 -19.3,3.3 -16.5,0 -25.7,-7.2 -25.7,-28.7 V 1065.8 H 1606 v -13.9 h 20.4 v -40.3 h 16.8 v 40.3 h 27.1 v 13.9 h -27.1 v 99.3 c 0,14.2 0.5,20.4 14.5,20.4 4.5,0 9.2,-0.8 13.7,-1.9 z"
         id="path8" />
      <path
         d="m 1704.1,995.4 h 18.4 v 24.9 h -18.4 z m 0.8,56.4 h 16.8 v 144.7 h -16.8 z"
         id="path9" />
      <path
         d="m 1753.6,1124.2 c 0,-42.2 22.3,-76.3 67,-76.3 45.3,0 67.1,33.8 67.1,76.3 0,45.9 -26.6,76.3 -67.1,76.3 -36.9,-0.6 -67,-25.7 -67,-76.3 m 67,-61.2 c -35.2,0 -49.2,29.9 -49.2,61.2 0,36.1 17,61.2 49.2,61.2 35.2,0 49.2,-30.2 49.2,-61.2 -0.3,-34.1 -13.7,-61.2 -49.2,-61.2 z"
         id="path10" />
      <path
         d="m 1928.2,1196.6 h -16.7 v -144.7 h 16.7 v 20.1 c 13.4,-14.2 26.6,-24 46.7,-24 17.6,0 33.8,5.6 44.1,20.7 7,10.3 7.3,21.3 7.3,33.3 v 94.7 h -16.8 v -94.5 c 0,-26 -10.6,-39.1 -37.4,-39.1 -20.7,0 -34.9,13.4 -40.2,28.2 -3.4,9.2 -3.7,17.3 -3.7,27.4 z"
         id="path11" />
      <path
         d="M 2137.9,1196.6 V 995.4 h 73.4 c 52.3,0 65.7,26 65.7,56.2 0,45 -39.9,56.2 -77.1,56.2 h -43 v 88.8 z m 62.6,-105.1 c 35.5,0 57.6,-7.3 57.6,-41.4 0,-25.1 -16.2,-38.6 -52,-38.6 h -49.2 v 80 z"
         id="path12" />
      <path
         d="m 2284.8,1124.2 c 0,-42.2 22.3,-76.3 67.1,-76.3 45.3,0 67,33.8 67,76.3 0,45.9 -26.6,76.3 -67,76.3 -36.9,-0.6 -67.1,-25.7 -67.1,-76.3 m 67.1,-61.2 c -35.2,0 -49.2,29.9 -49.2,61.2 0,36.1 17,61.2 49.2,61.2 35.2,0 49.2,-30.2 49.2,-61.2 -0.3,-34.1 -13.7,-61.2 -49.2,-61.2 z"
         id="path13" />
      <path
         d="m 2460.3,1196.6 h -16.8 v -144.7 h 16.8 v 27.1 h 0.5 c 9.2,-23.2 22.9,-31 47.2,-31 v 18.2 c -37.7,-0.8 -47.8,27.1 -47.8,59.6 v 70.8"
         id="path14" />
      <path
         d="m 2601.9,1197.1 c -3.9,0.8 -11.2,3.3 -19.2,3.3 -16.5,0 -25.7,-7.2 -25.7,-28.7 v -105.9 h -20.4 v -13.9 h 20.4 v -40.3 h 16.8 v 40.3 h 27.1 v 13.9 h -27.1 v 99.3 c 0,14.2 0.5,20.4 14.5,20.4 4.4,0 9.2,-0.8 13.6,-1.9 z"
         id="path15" />
      <path
         d="m 2693.9,1112.2 c 6.1,-0.6 16.5,-2.2 22.1,-4.8 5.6,-2.5 6.2,-10.1 6.2,-15.1 0,-17.1 -10.1,-29.4 -36,-29.4 -23.2,0 -39.1,7.6 -42.2,32.7 h -17 c 2.5,-34.1 27.9,-47.8 59.5,-47.8 29.3,0 52.6,11.5 52.6,45 v 78.8 c 0,13.1 3.4,16.2 17.6,11.2 v 13.1 c -2.5,0.9 -8.4,2.8 -13.1,2.8 -2.8,0 -5.1,-0.2 -7.6,-0.8 -11.2,-1.6 -13.1,-11.4 -13.4,-21.5 -14,15.6 -33,24 -53.9,24 -25.4,0 -48.3,-13.7 -48.3,-41.6 0,-24.3 16.7,-39.1 50.5,-43.6 z m 28.2,8.4 c -14.3,5.9 -28.8,7 -43.3,8.1 -25.4,2 -40.8,11.2 -40.8,30.7 0,17.6 15.3,26 31.3,26 26.6,0 52.8,-12.9 52.8,-42.2 z"
         id="path16" />
      <path
         d="m 2805.7,1196.6 h -16.8 V 995.4 h 16.8 v 79.6 c 10.6,-17.6 31.3,-27.1 51.7,-27.1 44.1,0 64.5,36.1 64.5,76.6 0,42.8 -18.7,76 -65.4,76 -18.5,0 -40.5,-10.3 -50.3,-29.3 h -0.6 v 25.4 m 49,-11.2 c 28.2,0 49.2,-20.4 49.5,-56.7 1.4,-36.3 -14.8,-65.7 -49.5,-65.7 -30.5,0 -48.9,28 -48.9,60.6 0,35 17.3,61.8 48.9,61.8 z"
         id="path17" />
      <path
         d="m 2958.8,995.4 h 16.7 v 201.1 h -16.7 z"
         id="path18" />
      <path
         d="m 3027.2,1128.1 c -0.3,31.3 16.5,57.3 48.6,57.3 21.8,0 38.8,-12 43.9,-33.2 h 18.7 c -8.4,27.3 -25.7,48.3 -62.6,48.3 -46.4,0 -66.5,-33 -66.5,-75.7 0,-42.2 25.2,-76.9 66.5,-76.9 39.7,0 64,28.2 63.7,80.2 z m 94.5,-13.9 c 0,-28.3 -15.7,-51.2 -45.8,-51.2 -29.6,0 -45.3,23.8 -48.6,51.2 z"
         id="path19" />
      <path
         d="M 2690.3,354.7 V 662.1 H 2643 V 307.4 H 3791.7 V 47.4 H 2643 V 0.1 h 1196 v 354.6 z"
         id="path20" />
      <path
         d="M 0,0 H 1196.2 V 354.7 H 47.3 V 662.1 H 0 V 307.4 H 1148.9 V 47.3 H 0 Z"
         id="path21" />
      <path
         d="m 1806.4,0 v 614.8 h -610.2 v 47.3 h 659.9 V 47.3 h 610.2 V 0 Z"
         id="path22" />
    </g>
  </g>
</svg>
