<svg enable-background="new 0 0 3839 378.6" height="378" viewBox="0 0 3840 377.99999" width="3840" xmlns="http://www.w3.org/2000/svg"><g fill="#fff" transform="scale(1.0002605 .99815157)"><path d="m1231.7 237.4v140.7h-21.7v-162.4h526v-119h-526v-21.7h547.6v162.4z"/><path d="m0 75h547.7v162.4h-526v140.7h-21.7v-162.4h526v-119.1h-526z"/><path d="m827 75v281.5h-279.3v21.6h302.1v-281.5h279.3v-21.6z"/><path d="m2993.5 75c-124.1 0-181.4 80.3-181.4 155.4v49.5 98.3h64.3v-98.3-49.5c0-54.3 29.1-104.1 117.1-104.1s117.1 49.8 117.1 104.1v49.5 98.3h64.3v-98.3-49.5c.1-75.1-57.2-155.4-181.4-155.4z"/><path d="m2384.1 75c-71.1 0-120.2 26.4-149.3 63.1-29-36.7-78.1-63.1-149.3-63.1-124.1 0-181.4 80.3-181.4 155.4v49.5 98.3h64.3v-98.3-49.5c0-54.3 29.1-104.1 117.1-104.1s117.1 49.8 117.1 104.1v49.5 98.3h64.3v-98.3-49.5c0-54.3 29.1-104.1 117.1-104.1s117.1 49.8 117.1 104.1v49.5 98.3h64.3v-98.3-49.5c.1-75.1-57.2-155.4-181.3-155.4z"/><path d="m2655.7 378.1h64.3v-197.7h-64.3zm0-303.1v51.2h64.3v-51.2z"/><path d="m3265.4 378.1h64.3v-197.7h-64.3zm0-303.1v51.2h64.3v-51.2z"/><path d="m3776.9 0c-124.1 0-181.4 80.3-181.4 155.4v68c0 54.3-29.1 104.1-117.1 104.1h-62.3v51.2h62.2c124.1 0 181.4-80.3 181.4-155.4v-68c0-54.3 29.1-104.1 117.1-104.1h62.2v-51.2z"/></g></svg>