<?xml version="1.0" encoding="UTF-8" standalone="no"?>
<svg
   enable-background="new 0 0 3839 378.6"
   height="378"
   viewBox="0 0 3840 377.99999"
   width="3840"
   version="1.1"
   id="svg8"
   sodipodi:docname="pspminis.svg"
   inkscape:version="1.3.2 (091e20e, 2023-11-25)"
   xmlns:inkscape="http://www.inkscape.org/namespaces/inkscape"
   xmlns:sodipodi="http://sodipodi.sourceforge.net/DTD/sodipodi-0.dtd"
   xmlns="http://www.w3.org/2000/svg"
   xmlns:svg="http://www.w3.org/2000/svg">
  <defs
     id="defs8" />
  <sodipodi:namedview
     id="namedview8"
     pagecolor="#ffffff"
     bordercolor="#000000"
     borderopacity="0.25"
     inkscape:showpageshadow="2"
     inkscape:pageopacity="0.0"
     inkscape:pagecheckerboard="true"
     inkscape:deskcolor="#d1d1d1"
     inkscape:zoom="0.21510417"
     inkscape:cx="1917.6755"
     inkscape:cy="190.60533"
     inkscape:window-width="1312"
     inkscape:window-height="449"
     inkscape:window-x="0"
     inkscape:window-y="39"
     inkscape:window-maximized="0"
     inkscape:current-layer="svg8" />
  <g
     id="g10">
    <g
       id="g9"
       transform="scale(1,1.0026455)">
      <g
         fill="#ffffff"
         transform="scale(1.0002605,0.99815157)"
         id="g8">
        <path
           d="M 1231.7,237.4 V 378.1 H 1210 V 215.7 h 526 V 96.7 H 1210 V 75 h 547.6 v 162.4 z"
           id="path1" />
        <path
           d="M 0,75 H 547.7 V 237.4 H 21.7 V 378.1 H 0 V 215.7 H 526 V 96.6 H 0 Z"
           id="path2" />
        <path
           d="M 827,75 V 356.5 H 547.7 v 21.6 H 849.8 V 96.6 h 279.3 V 75 Z"
           id="path3" />
        <path
           d="m 2993.5,75 c -124.1,0 -181.4,80.3 -181.4,155.4 v 49.5 98.3 h 64.3 v -98.3 -49.5 c 0,-54.3 29.1,-104.1 117.1,-104.1 88,0 117.1,49.8 117.1,104.1 v 49.5 98.3 h 64.3 V 279.9 230.4 C 3175,155.3 3117.7,75 2993.5,75 Z"
           id="path4" />
        <path
           d="m 2384.1,75 c -71.1,0 -120.2,26.4 -149.3,63.1 -29,-36.7 -78.1,-63.1 -149.3,-63.1 -124.1,0 -181.4,80.3 -181.4,155.4 v 49.5 98.3 h 64.3 v -98.3 -49.5 c 0,-54.3 29.1,-104.1 117.1,-104.1 88,0 117.1,49.8 117.1,104.1 v 49.5 98.3 h 64.3 v -98.3 -49.5 c 0,-54.3 29.1,-104.1 117.1,-104.1 88,0 117.1,49.8 117.1,104.1 v 49.5 98.3 h 64.3 V 279.9 230.4 C 2565.5,155.3 2508.2,75 2384.1,75 Z"
           id="path5" />
        <path
           d="M 2655.7,378.1 H 2720 V 180.4 h -64.3 z m 0,-303.1 v 51.2 H 2720 V 75 Z"
           id="path6" />
        <path
           d="m 3265.4,378.1 h 64.3 V 180.4 h -64.3 z m 0,-303.1 v 51.2 h 64.3 V 75 Z"
           id="path7" />
        <path
           d="m 3776.9,0 c -124.1,0 -181.4,80.3 -181.4,155.4 v 68 c 0,54.3 -29.1,104.1 -117.1,104.1 h -62.3 v 51.2 h 62.2 c 124.1,0 181.4,-80.3 181.4,-155.4 v -68 c 0,-54.3 29.1,-104.1 117.1,-104.1 H 3839 V 0 Z"
           id="path8" />
      </g>
    </g>
  </g>
</svg>
