<?xml version="1.0" encoding="UTF-8" standalone="no"?>
<svg
   enable-background="new 0 0 3839 763.1"
   viewBox="0 0 3839.9998 764.00002"
   version="1.1"
   id="svg16"
   sodipodi:docname="psx.svg"
   width="3839.9998"
   height="764"
   inkscape:version="1.3.2 (091e20e, 2023-11-25)"
   xmlns:inkscape="http://www.inkscape.org/namespaces/inkscape"
   xmlns:sodipodi="http://sodipodi.sourceforge.net/DTD/sodipodi-0.dtd"
   xmlns="http://www.w3.org/2000/svg"
   xmlns:svg="http://www.w3.org/2000/svg">
  <defs
     id="defs16" />
  <sodipodi:namedview
     id="namedview16"
     pagecolor="#ffffff"
     bordercolor="#000000"
     borderopacity="0.25"
     inkscape:showpageshadow="2"
     inkscape:pageopacity="0.0"
     inkscape:pagecheckerboard="0"
     inkscape:deskcolor="#d1d1d1"
     inkscape:zoom="0.24563688"
     inkscape:cx="1917.4645"
     inkscape:cy="382.67869"
     inkscape:window-width="1312"
     inkscape:window-height="449"
     inkscape:window-x="0"
     inkscape:window-y="23"
     inkscape:window-maximized="0"
     inkscape:current-layer="svg16" />
  <g
     id="g17"
     transform="matrix(1.0002553,0,0,1.0010482,0.01972137,0)">
    <g
       fill="#ffffff"
       id="g16">
      <path
         d="m 1252,225.1 v 385.3 h 60.1 V 262.1 h 55.7 c 0,0 40.4,0 54.3,18.1 11.7,15.3 14,43.2 14,62 0,20.2 -1.3,51.2 -8.1,62.7 -10.3,17.3 -27.2,20.8 -42.6,20.8 h -36.6 V 460 h 52.8 c 0,0 47.7,2.1 68.3,-18.8 25,-25.6 31.5,-59.9 31.5,-105.9 0,-41.9 -15.2,-83.9 -46.2,-98.2 -25.7,-11.9 -71.9,-11.9 -71.9,-11.9 H 1252 Z"
         id="path1" />
      <path
         d="m 1548.6,225.1 h 60.2 v 385.3 h -60.2 z"
         id="path2" />
      <path
         d="m 1928.8,315 110,288.5 -63.1,154.7 h 49.9 L 2207.5,315 h -55.8 l -79.2,216 -73.7,-216 z"
         id="path3" />
      <path
         d="m 2252.8,608.2 v -36.4 c 0,0 63.6,2.5 76.8,2.5 29.4,0 44,-6.3 55,-18.1 6.6,-7 12.4,-38.6 12.4,-49.8 0,-11.1 -2.1,-35.3 -6.6,-45.1 -4.4,-9.8 -14.6,-18.8 -30,-20.1 -11,-0.9 -27.9,-3.1 -47.7,-4.1 -27.8,-1.3 -46.1,-15.8 -54.9,-26.2 -8.8,-10.5 -20.6,-26.2 -20.6,-74.2 0,-48.2 12.5,-75.1 25,-87.7 12.5,-12.5 30.7,-18.1 44.8,-20.6 16.1,-2.7 42.5,-2.9 42.5,-2.9 l 84.1,2.5 v 36.4 c 0,0 -61.3,-2.4 -74.5,-2.4 -29.4,0 -38.2,6.3 -49.3,18.1 -6.5,7 -11.5,26.4 -11.5,37.6 0,11.2 1.3,33.7 5.7,43.5 4.4,9.8 14.7,18.8 30.1,20.1 11,0.9 27.8,3.1 47.6,4.1 27.8,1.3 46.2,15.8 55,26.2 8.8,10.5 20.6,32.4 20.6,80.5 0,48.1 -12.5,82.5 -25,95.1 -12.5,12.5 -30.7,18.1 -44.7,20.5 -16.1,2.8 -42.6,3 -42.6,3 z"
         id="path4" />
      <path
         d="m 2581,262.1 h -60.1 V 545 c 0,0 1.4,25.8 2.9,34.8 1.5,9.1 14.6,30.7 49.2,30.7 l 62.3,-1.2 v -36.4 c 0,0 -16.9,1.3 -27.1,1.3 -10.3,0 -22.8,-0.7 -25,-18.1 -2.2,-17.4 -2.2,-38.2 -2.2,-38.2 V 351.2 h 67.8 V 315 H 2581 Z"
         id="path5" />
      <path
         d="m 3161.4,315 h 60.2 v 295.4 h -60.2 z"
         id="path6" />
      <path
         d="m 3161.4,225.1 h 60.2 v 53.6 h -60.2 z"
         id="path7" />
      <path
         d="m 3411.6,312.5 c 40.9,0 72.5,9.2 89.7,23 17.2,13.8 38.3,42.9 38.3,127.3 0,84.3 -21.2,113.5 -38.3,127.2 -17.1,13.9 -48.8,23 -89.7,23 -41,0 -72.6,-9.2 -89.9,-23 -17.1,-13.8 -38.3,-42.9 -38.3,-127.2 0,-84.3 21.2,-113.5 38.3,-127.3 17.3,-13.8 48.9,-23 89.9,-23 m -41.4,56.7 c -8.2,10.1 -18.3,31.5 -18.3,93.5 0,61.9 10.1,83.4 18.3,93.5 8.3,10.2 23.5,17 43.2,17 19.6,0 34.8,-6.7 43.1,-17 8.3,-10.1 18.4,-31.6 18.4,-93.5 0,-62 -10.1,-83.4 -18.4,-93.5 -8.3,-10.2 -23.4,-16.9 -43.1,-16.9 -19.7,0 -34.9,6.7 -43.2,16.9"
         id="path8" />
      <path
         d="m 3664.2,356.5 59,-2.5 c 15.3,0 33.5,4.2 42.3,15.3 8.3,10.5 13.4,23 13.4,43.2 V 610 H 3839 V 407.7 c 0,-38.3 -11.7,-60.6 -29.3,-74.5 -25.3,-20 -70.4,-18.1 -70.4,-18.1 l -134.8,2.4 v 292.7 h 59.6 V 356.5 Z"
         id="path9" />
      <path
         d="m 3041.6,262.1 h -60.2 V 545 c 0,0 1.6,25.8 3,34.8 1.4,9.1 14.7,30.7 49.1,30.7 l 62.3,-1.2 v -36.4 c 0,0 -16.8,1.3 -27.1,1.3 -10.3,0 -22.7,-0.7 -24.9,-18.1 -2.3,-17.4 -2.3,-38.2 -2.3,-38.2 V 351.2 h 67.8 V 315 h -67.8 v -52.9 z"
         id="path10" />
      <path
         d="m 1837,412.6 c 0,-20.2 -5.1,-32.8 -13.3,-43.2 -8.8,-11.1 -27,-15.3 -42.4,-15.3 l -79.3,2.5 v -39.1 l 95.4,-2.4 c 0,0 45.2,-1.9 70.4,18.1 17.6,14 29.3,36.2 29.3,74.5 v 199.6 l -115.2,2.5 c 0,0 -52.3,0.2 -78.5,-10.5 -25.8,-10.5 -39.6,-39.1 -39.6,-78.7 0,-38.3 11.7,-60.6 29.2,-74.6 25.3,-20 70.4,-18.1 70.4,-18.1 h 36.8 V 462 h -20.5 c -15.4,0 -31.5,2.8 -40.3,13.9 -8.2,10.5 -12.7,19.5 -12.7,39.7 0,26.5 5.2,38.3 17.6,47.4 11,8 30.8,9.8 52.8,9.8 l 39.7,-2.5 V 412.6 Z"
         id="path11" />
      <path
         d="m 2851.3,412.6 c 0,-20.2 -5.2,-32.8 -13.5,-43.2 -8.8,-11.1 -26.9,-15.3 -42.3,-15.3 l -79.3,2.5 v -39.1 l 95.4,-2.4 c 0,0 45.1,-1.9 70.4,18.1 17.6,14 29.4,36.2 29.4,74.5 v 199.6 l -115.2,2.5 c 0,0 -52.3,0.2 -78.5,-10.5 -25.7,-10.5 -39.7,-39.1 -39.7,-78.7 0,-38.3 11.8,-60.6 29.4,-74.6 25.2,-20 70.4,-18.1 70.4,-18.1 h 36.7 V 462 h -20.6 c -15.4,0 -31.3,2.8 -40.1,13.9 -8.2,10.5 -12.6,19.5 -12.6,39.7 0,26.5 5.1,38.3 17.6,47.4 11,8 30.8,9.8 52.8,9.8 l 39.8,-2.5 V 412.6 Z"
         id="path12" />
      <g
         clip-rule="evenodd"
         fill-rule="evenodd"
         id="g15">
        <path
           d="m 73.1,649.4 c -76.8,-22 -89.6,-67.7 -54.7,-94.1 32.4,-24.4 87.5,-42.7 87.5,-42.7 l 227.5,-82 v 93.5 l -163.8,59.5 c -28.9,10.5 -33.5,25.4 -9.9,33.2 23.5,7.7 66.1,5.6 95.1,-5 l 78.5,-28.9 v 83.7 c -5,0.9 -10.4,1.9 -15.7,2.7 -78.2,13.1 -162,7.6 -244.5,-19.9 z"
           id="path13" />
        <path
           d="m 553.2,659.2 255.3,-92.3 c 29,-10.5 33.5,-25.4 9.9,-33.2 -23.5,-7.8 -66.1,-5.6 -95.1,5 l -170.1,60.8 v -96.9 l 9.9,-3.4 c 0,0 49.1,-17.7 118.2,-25.4 69.1,-7.7 153.7,1 220.1,26.6 74.9,24.1 83.3,59.5 64.3,83.8 -19,24.3 -65.5,41.8 -65.5,41.8 l -347,126.4 z"
           id="path14" />
        <path
           d="m 583,60.8 c 134.4,46.8 180,105.1 180,236.6 0,127.9 -78,176.5 -176.9,128 V 186.8 c 0,-28 -5,-53.8 -31,-61 C 535.3,119.3 523,138.1 523,166 V 763.2 L 364.3,712 V 0 C 431.8,12.7 530.1,42.7 583,60.8 Z"
           id="path15" />
      </g>
    </g>
  </g>
</svg>
