<?xml version="1.0" encoding="UTF-8" standalone="no"?>
<svg
   height="924"
   viewBox="0 0 3840 924"
   width="3840"
   version="1.1"
   id="svg23"
   sodipodi:docname="retropie.svg"
   inkscape:version="1.3.2 (091e20e, 2023-11-25)"
   xmlns:inkscape="http://www.inkscape.org/namespaces/inkscape"
   xmlns:sodipodi="http://sodipodi.sourceforge.net/DTD/sodipodi-0.dtd"
   xmlns="http://www.w3.org/2000/svg"
   xmlns:svg="http://www.w3.org/2000/svg">
  <defs
     id="defs23" />
  <sodipodi:namedview
     id="namedview23"
     pagecolor="#ffffff"
     bordercolor="#000000"
     borderopacity="0.25"
     inkscape:showpageshadow="2"
     inkscape:pageopacity="0.0"
     inkscape:pagecheckerboard="0"
     inkscape:deskcolor="#d1d1d1"
     showgrid="false"
     inkscape:zoom="0.5"
     inkscape:cx="758"
     inkscape:cy="689"
     inkscape:window-width="1312"
     inkscape:window-height="766"
     inkscape:window-x="0"
     inkscape:window-y="23"
     inkscape:window-maximized="0"
     inkscape:current-layer="svg23" />
  <g
     id="g23"
     transform="matrix(2.0241792,0,0,2.0238911,-0.00158291,0.03500726)">
    <path
       d="m 1873.1,447.11 c 0,-0.005 -36,-44.438 -56.767,-70.271 -6.948,-8.647 -12.102,-15.091 -13.915,-17.459 -2.52,-3.319 -4.314,-5.711 -5.493,-6.885 -1.24,-1.194 -1.428,-1.258 -2.363,-1.588 -0.648,-0.195 -1.811,-0.406 -3.803,-0.406 h -85.001 c -2.765,0 -5.47,-1.118 -7.423,-3.074 -1.955,-1.955 -3.076,-4.66 -3.076,-7.425 v -12.501 h -73.999 c -2.767,0 -5.47,-1.121 -7.425,-3.074 -1.955,-1.955 -3.076,-4.66 -3.076,-7.425 v -57.001 c 0,-2.765 1.121,-5.47 3.076,-7.425 1.955,-1.955 4.658,-3.074 7.425,-3.074 l 74.999,-0.002 v -1.999 h -77 c -2.765,0 -5.47,-1.119 -7.425,-3.074 -1.953,-1.955 -3.074,-4.66 -3.074,-7.425 v -54 c 0,-2.765 1.121,-5.47 3.074,-7.425 1.955,-1.956 4.66,-3.074 7.425,-3.074 l 74.998,-0.002 v -1.999 h -90 v 169.5 c 0,2.765 -1.118,5.467 -3.074,7.423 -1.955,1.955 -4.658,3.076 -7.423,3.076 h -64.501 c -2.765,0 -5.47,-1.118 -7.425,-3.074 -1.953,-1.955 -3.074,-4.66 -3.074,-7.425 v -189.5 h -4.5 v 189.5 c 0,2.765 -1.118,5.467 -3.074,7.423 -1.955,1.955 -4.658,3.076 -7.423,3.076 h -157.5 c -2.767,0 -5.47,-1.118 -7.425,-3.074 -1.955,-1.955 -3.076,-4.66 -3.076,-7.425 v -135.5 c 0,-2.765 1.121,-5.47 3.076,-7.425 1.955,-1.956 4.658,-3.076 7.425,-3.076 h 81.998 v -99.5 h -101.5 v 246.5 c 0,2.765 -1.121,5.47 -3.076,7.426 -1.953,1.953 -4.658,3.074 -7.423,3.074 h -122.5 c -2.767,0 -5.47,-1.119 -7.425,-3.074 -1.956,-1.956 -3.076,-4.661 -3.076,-7.426 v -36 c 0,-2.765 1.12,-5.47 3.076,-7.425 1.955,-1.955 4.658,-3.074 7.425,-3.074 l 47.499,-0.002 V 169 h -124 v 125.5 h 45.502 c 2.765,0 5.47,1.119 7.425,3.074 1.956,1.955 3.074,4.66 3.074,7.425 v 36 c 0,2.765 -1.121,5.47 -3.076,7.426 -1.956,1.953 -4.658,3.074 -7.423,3.074 h -111.5 c -3.131,-0.015 -6.659,-0.019 -10.691,-0.915 -4.014,-0.871 -8.395,-2.879 -12.111,-6.086 -0.648,-0.564 -0.848,-0.787 -1.191,-1.128 -0.312,-0.321 -0.642,-0.668 -1.022,-1.073 -0.752,-0.805 -1.694,-1.829 -2.824,-3.076 -2.258,-2.49 -5.264,-5.846 -8.773,-9.793 -7.02,-7.889 -16.051,-18.124 -24.98,-28.272 -17.86,-20.297 -35.305,-40.239 -35.308,-40.243 -2.712,-3.098 -3.36,-7.504 -1.659,-11.252 1.7,-3.75 5.444,-6.161 9.562,-6.161 h 68.999 V 170 h -87.999 v 170 c 0,2.765 -1.121,5.467 -3.076,7.423 -1.953,1.955 -4.658,3.076 -7.423,3.076 h -64 c -2.767,0 -5.47,-1.121 -7.425,-3.076 -1.956,-1.956 -3.076,-4.658 -3.076,-7.423 V 107.96 c 0,-2.765 1.121,-5.47 3.076,-7.425 1.956,-1.953 4.658,-3.074 7.425,-3.074 h 85.497 v -4.5 h -195.42 v 4.5 h 84.001 c 2.765,0 5.47,1.121 7.423,3.074 1.955,1.956 3.076,4.661 3.076,7.425 v 232 c 0,2.765 -1.121,5.467 -3.076,7.423 -1.953,1.958 -4.658,3.076 -7.423,3.076 H 778.34 c -2.765,0 -5.467,-1.118 -7.422,-3.074 -1.956,-1.955 -3.077,-4.66 -3.077,-7.425 v -13.503 h -76 c -2.765,0 -5.469,-1.118 -7.422,-3.073 -1.956,-1.953 -3.077,-4.658 -3.077,-7.423 V 258.96 c 0,-2.768 1.121,-5.47 3.074,-7.425 1.956,-1.956 4.66,-3.074 7.425,-3.074 l 76,-0.003 v -2.498 h -76.5 c -2.765,0 -5.47,-1.121 -7.425,-3.074 -1.955,-1.956 -3.074,-4.661 -3.074,-7.426 v -53.5 c 0,-2.765 1.119,-5.47 3.074,-7.425 1.956,-1.956 4.661,-3.076 7.425,-3.076 h 77 v -3.001 h -91.5 v 171.5 c 0,2.765 -1.121,5.467 -3.076,7.423 -1.956,1.958 -4.658,3.076 -7.423,3.076 h -67 c -1.116,-0.005 -2.322,-0.027 -3.769,-0.247 -1.435,-0.209 -3.058,-0.686 -4.372,-1.282 -2.675,-1.247 -3.996,-2.313 -6.185,-3.734 -1.142,-0.783 -1.568,-1.258 -1.983,-1.666 -0.39,-0.403 -0.665,-0.729 -0.929,-1.046 -0.513,-0.628 -0.951,-1.222 -1.435,-1.897 -0.951,-1.335 -2.036,-2.962 -3.314,-4.942 -2.549,-3.95 -5.839,-9.267 -9.653,-15.548 -7.623,-12.553 -17.31,-28.923 -26.856,-45.199 -19.089,-32.545 -37.595,-64.685 -37.604,-64.696 -1.873,-3.253 -1.868,-7.249 0.009,-10.497 1.877,-3.246 5.339,-5.243 9.089,-5.243 l 81.5,-0.002 v -100 h -99.58 l -1.438,245.56 c -0.034,5.735 -4.702,10.403 -10.437,10.439 -0.03,0 -82.435,0.5 -86.062,0.5 -6.281,0.014 -11.354,-2.072 -14.664,-4.182 -3.172,-2.012 -4.93,-4.003 -5.549,-4.748 l -0.001,0.001 -76.876,-92.877 v 0.002 c -3.698,-4.468 -3.074,-11.089 1.394,-14.784 4.468,-3.697 11.086,-3.074 14.784,1.395 l 76.744,92.714 c 0.099,0.093 0.351,0.313 0.708,0.536 0.752,0.452 1.74,0.931 3.461,0.944 1.632,0 23.213,-0.126 44.249,-0.25 11.746,-0.07 23.342,-0.14 31.311,-0.188 l 1.44,-245.62 c 0.032,-5.768 4.731,-10.438 10.499,-10.438 h 120.5 c 2.765,0 5.469,1.119 7.422,3.074 1.956,1.956 3.077,4.661 3.077,7.425 v 121 c 0,2.765 -1.121,5.47 -3.077,7.425 -1.953,1.953 -4.658,3.074 -7.422,3.074 h -73.809 c 3.11,5.373 6.855,11.833 10.976,18.918 11.49,19.761 25.895,44.396 37.511,63.808 7.721,12.91 14.289,23.618 17.663,28.632 0.464,0.697 0.882,1.293 1.182,1.709 0.615,0.409 1.095,0.723 1.425,0.934 0.017,10e-4 0.034,10e-4 0.052,10e-4 2.599,-0.002 38.303,-0.003 56.499,-0.002 v -171.5 c 0,-2.765 1.121,-5.47 3.077,-7.423 1.956,-1.956 4.658,-3.077 7.425,-3.077 h 112.5 c 2.765,0 5.467,1.121 7.423,3.077 1.955,1.953 3.076,4.658 3.076,7.423 v 24.001 c 0,2.765 -1.121,5.47 -3.076,7.423 -1.956,1.955 -4.658,3.076 -7.423,3.076 h -77.002 v 32.5 h 76.5 c 2.765,0 5.47,1.121 7.425,3.076 1.956,1.955 3.077,4.658 3.077,7.425 v 23.5 c 0,2.765 -1.121,5.467 -3.077,7.423 -1.956,1.958 -4.661,3.076 -7.425,3.076 l -76,-0.002 v 36.002 h 76 c 2.765,0 5.47,1.121 7.425,3.076 1.956,1.956 3.077,4.658 3.077,7.426 v 13.497 h 43.498 v -211 h -83.998 c -2.765,0 -5.47,-1.119 -7.425,-3.074 -1.956,-1.956 -3.077,-4.661 -3.077,-7.425 V 82.445 c 0,-2.767 1.121,-5.47 3.077,-7.425 1.956,-1.956 4.661,-3.077 7.425,-3.077 h 216.5 c 2.765,0 5.47,1.121 7.425,3.077 1.956,1.955 3.074,4.658 3.074,7.425 v 25.499 c 0,2.765 -1.118,5.47 -3.074,7.425 -1.955,1.955 -4.66,3.076 -7.425,3.076 h -85.5 v 211 h 43.001 v -170 c 0,-2.765 1.121,-5.47 3.076,-7.425 1.956,-1.956 4.661,-3.076 7.425,-3.076 h 109 c 2.765,0 5.47,1.121 7.425,3.076 1.955,1.956 3.074,4.661 3.074,7.425 v 94.5 c 0,2.765 -1.121,5.468 -3.076,7.423 -1.953,1.955 -4.658,3.076 -7.423,3.076 h -56.342 c 4.75,5.417 10.236,11.667 15.898,18.108 16.278,18.516 34.146,38.746 39.771,44.816 0.504,0.547 0.932,0.995 1.141,1.211 1.172,0.931 1.792,1.164 2.972,1.467 1.218,0.291 3.188,0.41 6.059,0.398 4.831,-0.002 74.167,-0.002 101,-0.001 v -15 h -45.502 c -2.765,0 -5.47,-1.121 -7.423,-3.074 -1.956,-1.956 -3.077,-4.661 -3.077,-7.426 v -146.5 c 0,-2.767 1.121,-5.47 3.077,-7.425 1.953,-1.956 4.658,-3.076 7.423,-3.076 h 145 c 2.765,0 5.47,1.121 7.423,3.076 1.956,1.956 3.077,4.658 3.077,7.425 v 146.5 c 0,2.765 -1.121,5.47 -3.077,7.426 -1.955,1.953 -4.658,3.074 -7.423,3.074 h -47.503 v 14.999 h 101.5 v -246.5 c 0,-2.765 1.119,-5.47 3.074,-7.425 1.956,-1.956 4.661,-3.074 7.426,-3.074 h 122.5 c 2.765,0 5.47,1.119 7.425,3.074 1.956,1.956 3.074,4.661 3.074,7.425 v 120.5 c 0,2.765 -1.118,5.47 -3.074,7.423 -1.955,1.955 -4.66,3.076 -7.425,3.076 h -82.002 v 114.5 h 136.5 v -189.5 c 0,-2.765 1.121,-5.47 3.076,-7.423 1.955,-1.956 4.658,-3.077 7.425,-3.077 h 25.499 c 2.765,0 5.47,1.121 7.425,3.077 1.956,1.955 3.074,4.658 3.074,7.423 v 189.5 h 43.501 v -169.5 c 0,-2.765 1.121,-5.47 3.076,-7.425 1.956,-1.955 4.658,-3.074 7.425,-3.074 h 111 c 2.765,0 5.47,1.119 7.425,3.074 1.956,1.956 3.074,4.661 3.074,7.425 v 23 c 0,2.765 -1.118,5.47 -3.074,7.425 -1.955,1.953 -4.66,3.074 -7.425,3.074 h -75.001 v 33.001 h 77.002 c 2.765,0 5.47,1.119 7.426,3.074 1.953,1.956 3.073,4.661 3.073,7.426 v 22.999 c 0,2.765 -1.12,5.47 -3.076,7.426 -1.955,1.953 -4.658,3.074 -7.423,3.074 h -75.003 v 36 h 74.001 c 2.765,0 5.47,1.12 7.426,3.076 1.955,1.955 3.074,4.658 3.074,7.425 v 12.499 c 21.961,-10e-4 71.016,-10e-4 74.501,-10e-4 3.425,0.003 6.657,0.351 9.761,1.268 3.093,0.901 5.967,2.431 8.28,4.234 4.663,3.705 7.15,7.597 10.3,11.62 1.059,1.39 4.34,5.514 8.773,11.043 4.449,5.552 10.125,12.605 16.223,20.166 12.196,15.123 26.074,32.282 35.224,43.588 6.1,7.537 10.089,12.459 10.1,12.473 3.649,4.507 2.955,11.118 -1.55,14.769 -1.945,1.575 -4.282,2.341 -6.604,2.341 -3.2,0 -6.2,-1.32 -8.3,-3.89 z"
       fill="#ffffff"
       id="path1" />
    <path
       d="m 1881.3,456.5 c -4.638,0.008 -9.288,-2.034 -12.439,-5.928 v -0.002 c -0.194,-0.238 -36.054,-44.505 -56.78,-70.286 -6.963,-8.667 -12.089,-15.072 -14.009,-17.579 -2.411,-3.199 -4.271,-5.596 -4.935,-6.256 -0.133,-0.127 -0.245,-0.232 -0.335,-0.315 -0.081,-0.015 -0.188,-0.031 -0.322,-0.048 -0.353,-0.044 -0.898,-0.087 -1.686,-0.085 h -85.002 c -4.248,-0.009 -8.301,-1.684 -11.312,-4.686 -3,-3.012 -4.677,-7.062 -4.688,-11.313 v -7 h -68.498 c -4.253,-0.012 -8.301,-1.69 -11.314,-4.686 -0.063,-0.063 -0.125,-0.128 -0.188,-0.192 v 11.878 c -0.01,4.247 -1.686,8.3 -4.686,11.312 -3.012,2.997 -7.06,4.679 -11.312,4.688 h -64.501 c -4.248,-0.009 -8.301,-1.684 -11.316,-4.688 -0.519,-0.521 -0.997,-1.074 -1.435,-1.652 -0.438,0.579 -0.918,1.131 -1.437,1.652 -3.012,2.997 -7.06,4.679 -11.312,4.688 h -157.5 c -4.248,-0.009 -8.301,-1.684 -11.314,-4.686 -1.523,-1.53 -2.706,-3.328 -3.503,-5.285 -0.776,2.344 -2.091,4.497 -3.87,6.285 -3.012,2.997 -7.06,4.676 -11.312,4.686 h -122.5 c -4.249,-0.01 -8.302,-1.686 -11.313,-4.686 -2.05,-2.06 -3.482,-4.603 -4.188,-7.362 -0.705,2.761 -2.139,5.304 -4.19,7.367 -3.009,2.99 -7.057,4.671 -11.309,4.681 h -111.53 c -3.114,-0.019 -7.164,-0.002 -11.831,-1.041 -4.904,-1.071 -10.051,-3.438 -14.557,-7.312 -0.76,-0.654 -1.236,-1.156 -1.452,-1.369 l -0.039,-0.039 -0.037,-0.039 c -0.337,-0.347 -0.688,-0.716 -1.091,-1.147 -0.778,-0.83 -1.739,-1.873 -2.884,-3.137 -2.277,-2.512 -5.291,-5.876 -8.807,-9.832 -7.031,-7.901 -16.067,-18.142 -25.001,-28.295 -17.866,-20.304 -35.312,-40.248 -35.317,-40.252 -0.54,-0.618 -1.026,-1.27 -1.458,-1.949 v 77.413 c -0.009,4.252 -1.69,8.3 -4.686,11.312 -3.011,2.999 -7.062,4.679 -11.311,4.688 h -64.001 c -4.252,-0.009 -8.303,-1.69 -11.314,-4.688 -0.62,-0.623 -1.183,-1.29 -1.687,-1.993 -0.502,0.702 -1.064,1.367 -1.682,1.988 -3.016,3.009 -7.07,4.684 -11.316,4.692 h -64.74 c -4.248,-0.009 -8.3,-1.686 -11.312,-4.686 -2.998,-3.012 -4.679,-7.062 -4.688,-11.313 v -8.002 h -70.499 c -3.447,-0.008 -6.764,-1.111 -9.5,-3.129 v 11.131 c -0.009,4.252 -1.69,8.3 -4.686,11.309 -3.014,3.005 -7.066,4.682 -11.313,4.69 h -67.024 c -1.172,-0.005 -2.731,-0.03 -4.539,-0.305 -2.023,-0.303 -3.991,-0.884 -5.901,-1.739 -3.181,-1.481 -4.949,-2.876 -6.857,-4.107 l -0.06,-0.036 -0.057,-0.042 c -1.434,-0.956 -2.479,-2.024 -2.727,-2.279 l -0.05,-0.048 -0.048,-0.051 c -0.521,-0.537 -0.922,-1.014 -1.231,-1.388 -0.619,-0.759 -1.14,-1.466 -1.656,-2.186 -1.029,-1.447 -2.153,-3.133 -3.456,-5.153 -2.599,-4.025 -5.906,-9.369 -9.733,-15.674 -7.649,-12.598 -17.346,-28.982 -26.9,-45.272 -17.089,-29.136 -33.719,-57.958 -37.024,-63.69 l -0.738,126.06 c -0.066,8.758 -7.131,15.83 -15.919,15.907 h -0.046 c -0.039,0 -0.098,0 -0.176,0.002 -0.158,0 -0.39,0.003 -0.693,0.003 -0.605,0.004 -1.495,0.009 -2.626,0.016 -2.264,0.014 -5.5,0.034 -9.392,0.058 -7.786,0.046 -18.203,0.11 -28.732,0.172 -21.072,0.124 -42.539,0.25 -44.413,0.25 h -0.062 c -7.495,-0.009 -13.52,-2.477 -17.547,-5.036 -0.919,-0.583 -1.746,-1.169 -2.483,-1.738 L 374.46995,348.2556 304.466,264.466 294.73,252.705 c -2.46,-2.971 -3.681,-6.617 -3.676,-10.199 -0.004,-2.942 0.816,-5.892 2.413,-8.46 v -0.12 l 0.043,0.052 c 0.884,-1.404 2.001,-2.693 3.345,-3.802 2.968,-2.461 6.614,-3.681 10.197,-3.676 4.58,-0.008 9.176,1.985 12.332,5.8 l 76.291,92.168 c 0.047,0.004 0.149,0.009 0.384,0.034 1.571,0 23.194,-0.127 44.216,-0.25 9.292,-0.057 18.491,-0.111 25.875,-0.156 l 1.409,-240.19 c 0.06,-8.802 7.199,-15.898 15.999,-15.907 h 120.5 c 4.25,0.011 8.302,1.686 11.311,4.686 3,3.014 4.679,7.064 4.688,11.316 v 121 c -0.009,4.252 -1.688,8.302 -4.688,11.316 -3.011,2.998 -7.059,4.674 -11.311,4.686 h -64.264 c 1.931,3.33 4.006,6.904 6.187,10.653 11.483,19.749 25.882,44.374 37.475,63.749 7.692,12.861 14.277,23.591 17.522,28.407 0.042,0.063 0.085,0.127 0.127,0.189 5.819,-0.002 22.178,-0.004 37.027,-0.004 4.185,0 8.25,0 11.926,10e-4 v -165.95 c 0.009,-4.252 1.688,-8.302 4.688,-11.312 3.009,-3 7.06,-4.679 11.314,-4.688 h 112.5 c 4.252,0.009 8.302,1.69 11.311,4.686 3,3.011 4.679,7.062 4.688,11.313 v 24.001 c -0.009,4.252 -1.688,8.302 -4.688,11.312 -3.009,2.998 -7.059,4.679 -11.311,4.688 h -71.501 v 21.499 h 70.999 c 4.252,0.009 8.302,1.688 11.313,4.688 3,3.009 4.679,7.06 4.688,11.313 l 0.002,23.502 c -0.012,4.249 -1.693,8.3 -4.686,11.307 -3.016,3.007 -7.071,4.681 -11.318,4.689 h -70.5 v 25.003 h 70.499 c 4.252,0.01 8.302,1.688 11.316,4.688 2.995,3.009 4.679,7.06 4.688,11.313 v 8 h 32.496 v -200 H 748.06 c -4.25,-0.012 -8.3,-1.686 -11.316,-4.686 -2.998,-3.014 -4.679,-7.062 -4.688,-11.314 V 82.545 c 0.009,-4.254 1.69,-8.305 4.688,-11.313 3.013,-3 7.062,-4.679 11.316,-4.688 h 216.5 c 4.253,0.009 8.303,1.688 11.314,4.686 2.999,3.014 4.676,7.066 4.686,11.316 v 25.499 c -0.01,4.248 -1.684,8.3 -4.686,11.314 -3.014,3 -7.062,4.676 -11.314,4.688 h -80.002 v 200 h 32.001 v -164.49 c 0.011,-4.252 1.688,-8.302 4.688,-11.316 3.014,-3 7.064,-4.676 11.316,-4.686 l 109,-0.002 c 4.25,0.011 8.3,1.688 11.313,4.688 3,3.016 4.675,7.066 4.686,11.316 v 94.497 c -0.011,4.253 -1.69,8.303 -4.686,11.312 -3.014,3 -7.063,4.679 -11.313,4.688 h -44.201 c 2.55,2.903 5.198,5.919 7.887,8.977 16.256,18.489 34.173,38.773 39.686,44.723 0.298,0.322 0.57,0.611 0.773,0.825 0.069,0.05 0.116,0.081 0.142,0.097 l 0.01,0.009 c 0,-0.002 0,0 0.053,0.017 0.066,0.022 0.218,0.066 0.461,0.128 0.448,0.094 2.034,0.239 4.312,0.228 0.063,0 0.237,-0.005 0.499,-10e-4 3.367,-0.002 28.007,-0.004 53.264,-0.004 15.365,0 30.956,0 42.117,10e-4 v -3.999 h -40 c -4.254,-0.009 -8.302,-1.688 -11.313,-4.686 -2.998,-3.011 -4.679,-7.062 -4.688,-11.313 v -146.52 c 0.01,-4.254 1.689,-8.305 4.686,-11.314 3.014,-3.002 7.063,-4.679 11.315,-4.688 h 145 c 4.252,0.009 8.302,1.686 11.312,4.686 2.999,3.012 4.679,7.062 4.689,11.316 v 146.5 c -0.011,4.252 -1.69,8.303 -4.689,11.316 -3.012,2.995 -7.06,4.674 -11.312,4.683 h -42.003 v 4 h 90.503 v -241 c 0.01,-4.25 1.686,-8.3 4.686,-11.316 3.016,-3 7.065,-4.674 11.315,-4.684 l 122.5,-0.002 c 4.247,0.011 8.3,1.686 11.311,4.686 3.005,3.016 4.679,7.066 4.686,11.316 v 120.5 c -0.01,4.245 -1.684,8.3 -4.686,11.311 -3.014,2.998 -7.062,4.676 -11.313,4.686 h -76.504 v 103.5 h 125.5 v -184 c 0.01,-4.252 1.688,-8.302 4.686,-11.314 3.012,-2.998 7.062,-4.679 11.316,-4.688 h 25.499 c 4.252,0.009 8.302,1.69 11.311,4.688 3.003,3.014 4.679,7.064 4.688,11.314 v 184 h 32.5 v -164 c 0.01,-4.252 1.688,-8.3 4.688,-11.314 3.011,-3 7.063,-4.676 11.313,-4.686 h 111 c 4.247,0.012 8.298,1.686 11.312,4.686 3.004,3.014 4.676,7.066 4.686,11.314 v 23.001 c -0.012,4.248 -1.684,8.3 -4.688,11.316 -3.014,2.995 -7.06,4.672 -11.312,4.683 h -69.503 v 22.001 h 71.503 c 4.25,0.009 8.3,1.683 11.318,4.688 2.995,3.013 4.669,7.062 4.681,11.311 v 22.999 c -0.01,4.25 -1.688,8.3 -4.69,11.316 -3.009,2.995 -7.057,4.674 -11.309,4.683 h -69.504 v 25.001 h 68.502 c 4.249,0.01 8.302,1.687 11.315,4.686 2.998,3.014 4.674,7.064 4.686,11.316 v 6.997 h 69.004 c 3.791,0.003 7.572,0.388 11.295,1.486 3.818,1.119 7.257,2.949 10.165,5.209 5.417,4.313 8.274,8.82 11.251,12.596 0.964,1.264 4.275,5.428 8.69,10.935 4.444,5.544 10.119,12.596 16.212,20.153 12.194,15.118 26.07,32.275 35.219,43.58 6.055,7.481 10.016,12.368 10.105,12.479 v -0.005 c 0,-0.004 -0.01,-0.009 0,-0.002 2.39,2.947 3.568,6.539 3.566,10.063 0.01,4.64 -2.042,9.282 -5.929,12.44 -2.944,2.385 -6.527,3.566 -10.046,3.565 h -0.3 z M 1746.6,345 h 44.188 c 2.379,0.002 4.048,0.24 5.388,0.64 l 0.128,0.039 0.115,0.039 c 0.392,0.14 1.282,0.426 2.227,1.041 0.911,0.601 1.443,1.128 2.122,1.772 l 0.066,0.064 c 1.75,1.779 3.44,4.117 5.979,7.438 1.721,2.248 6.903,8.729 13.835,17.357 20.756,25.817 56.754,70.255 56.754,70.255 l -4.273,3.464 4.273,-3.464 c 0.997,1.229 2.412,1.847 3.892,1.854 1.119,-0.005 2.202,-0.355 3.135,-1.11 1.234,-1.004 1.852,-2.424 1.858,-3.896 -0.01,-1.121 -0.355,-2.199 -1.163,-3.204 -0.031,-0.036 -0.077,-0.093 -0.135,-0.167 -0.124,-0.151 -0.303,-0.374 -0.539,-0.663 -0.471,-0.582 -1.161,-1.434 -2.042,-2.522 -1.764,-2.174 -4.284,-5.289 -7.334,-9.06 -9.151,-11.307 -23.031,-28.466 -35.229,-43.594 -6.102,-7.563 -11.779,-14.621 -16.233,-20.178 -4.452,-5.553 -7.701,-9.635 -8.814,-11.094 -3.364,-4.332 -5.48,-7.607 -9.35,-10.674 -1.76,-1.378 -4.069,-2.607 -6.456,-3.296 -2.466,-0.729 -5.146,-1.041 -8.202,-1.043 -3.485,0 -52.541,0 -74.501,0.002 h -5.502 v -17.999 c 0.01,-1.284 -0.553,-2.64 -1.463,-3.536 -0.899,-0.913 -2.257,-1.476 -3.536,-1.466 h -79.501 v -47 h 80.503 c 1.277,0.009 2.635,-0.553 3.534,-1.463 0.91,-0.899 1.475,-2.257 1.466,-3.537 V 237 c 0.01,-1.279 -0.556,-2.642 -1.461,-3.536 -0.899,-0.91 -2.26,-1.473 -3.539,-1.463 h -82.503 v -44.002 h 80.503 c 1.275,0.011 2.64,-0.553 3.536,-1.463 0.908,-0.895 1.471,-2.252 1.461,-3.534 v -23.001 c 0.01,-1.28 -0.553,-2.64 -1.463,-3.537 -0.895,-0.908 -2.255,-1.473 -3.534,-1.461 h -111 c -1.284,-0.009 -2.638,0.55 -3.536,1.461 -0.911,0.899 -1.475,2.259 -1.466,3.537 v 175 h -54.502 v -195 c 0.01,-1.282 -0.551,-2.638 -1.463,-3.537 -0.897,-0.911 -2.26,-1.475 -3.534,-1.463 h -25.499 c -1.28,-0.011 -2.638,0.551 -3.539,1.466 -0.908,0.894 -1.473,2.254 -1.463,3.534 v 195 h -147.5 v -125.51 h 87.503 c 1.274,0.012 2.637,-0.553 3.538,-1.468 0.906,-0.892 1.468,-2.25 1.461,-3.529 v -120.5 c 0.01,-1.282 -0.553,-2.64 -1.463,-3.539 -0.897,-0.908 -2.255,-1.47 -3.534,-1.461 h -122.5 c -1.282,-0.009 -2.642,0.553 -3.539,1.461 -0.908,0.899 -1.472,2.259 -1.463,3.539 v 252 h -112.5 v -25.999 h 53.005 c 1.277,0.009 2.638,-0.553 3.534,-1.463 0.913,-0.899 1.475,-2.26 1.465,-3.537 v -146.5 c 0.01,-1.282 -0.552,-2.635 -1.468,-3.539 -0.894,-0.911 -2.254,-1.472 -3.531,-1.463 h -145 c -1.279,-0.009 -2.638,0.553 -3.536,1.466 -0.913,0.901 -1.475,2.254 -1.464,3.537 v 146.5 c -0.011,1.277 0.553,2.638 1.466,3.537 0.895,0.908 2.257,1.472 3.534,1.463 h 51 v 26.001 h -5.5 c -11.116,-0.002 -29.523,-0.002 -47.617,-0.002 -25.59,0 -50.557,0 -53.38,0.002 h -0.066 l -0.063,-0.002 h -0.254 c -2.855,-0.014 -4.896,-0.081 -6.956,-0.546 l -0.051,-0.014 -0.039,-0.01 c -1.325,-0.254 -3.585,-1.223 -5.024,-2.486 l -0.278,-0.22 -0.254,-0.262 c -0.243,-0.252 -0.693,-0.723 -1.223,-1.298 -5.747,-6.204 -23.567,-26.384 -39.869,-44.925 -5.663,-6.442 -11.151,-12.694 -15.903,-18.113 l -8.002,-9.126 h 68.48 c 1.277,0.01 2.636,-0.555 3.532,-1.465 0.913,-0.899 1.475,-2.257 1.466,-3.535 v -94.497 c 0.01,-1.282 -0.553,-2.642 -1.464,-3.539 -0.896,-0.911 -2.257,-1.473 -3.534,-1.463 h -108.92 c -1.28,-0.009 -2.64,0.553 -3.537,1.466 -0.913,0.896 -1.475,2.257 -1.466,3.536 v 175.5 h -54 v -222.03 h 91.002 c 1.277,0.011 2.638,-0.553 3.537,-1.466 0.908,-0.894 1.473,-2.254 1.461,-3.534 V 82.463 c 0.012,-1.284 -0.551,-2.638 -1.464,-3.537 -0.896,-0.913 -2.257,-1.475 -3.534,-1.465 h -216.51 c -1.278,-0.009 -2.64,0.553 -3.539,1.465 -0.913,0.901 -1.472,2.254 -1.463,3.537 v 25.499 c -0.011,1.278 0.553,2.638 1.463,3.534 0.897,0.911 2.257,1.475 3.539,1.463 h 89.495 v 222 h -54.497 v -18.997 c 0.009,-1.282 -0.55,-2.635 -1.465,-3.536 -0.899,-0.911 -2.259,-1.475 -3.537,-1.466 h -81.5 v -47.002 l 81.5,0.002 c 1.282,0.009 2.637,-0.553 3.537,-1.463 0.915,-0.904 1.475,-2.26 1.465,-3.534 v -23.502 c 0.009,-1.279 -0.553,-2.637 -1.465,-3.536 -0.899,-0.91 -2.259,-1.475 -3.537,-1.466 h -82 v -43.497 h 82.503 c 1.277,0.009 2.635,-0.553 3.536,-1.468 0.908,-0.895 1.473,-2.255 1.463,-3.532 v -24.001 c 0.009,-1.277 -0.555,-2.638 -1.465,-3.534 -0.899,-0.913 -2.257,-1.475 -3.534,-1.466 h -112.51 c -1.28,-0.009 -2.635,0.553 -3.539,1.468 -0.911,0.895 -1.472,2.255 -1.463,3.532 v 177 l -5.504,-0.004 h -17.421 c -17.526,0 -37.175,0 -39.074,0.002 -0.016,0 -0.138,0.002 -0.365,-0.009 l -1.438,-0.083 -1.211,-0.772 c -0.372,-0.239 -0.874,-0.566 -1.511,-0.991 l -0.828,-0.553 -0.583,-0.808 c -0.342,-0.47 -0.796,-1.116 -1.287,-1.855 -3.521,-5.235 -10.07,-15.923 -17.82,-28.879 -11.637,-19.451 -26.049,-44.097 -37.544,-63.866 -4.124,-7.089 -7.871,-13.554 -10.983,-18.927 l -4.777,-8.257 h 83.347 c 1.277,0.012 2.64,-0.555 3.534,-1.463 0.913,-0.899 1.475,-2.259 1.465,-3.537 V 83.979 c 0.009,-1.277 -0.553,-2.64 -1.468,-3.539 -0.895,-0.908 -2.25,-1.47 -3.532,-1.461 h -120.5 c -2.734,-0.009 -4.993,2.236 -5,4.97 l -1.47,251.06 -5.436,0.031 c -7.97,0.049 -19.566,0.117 -31.313,0.188 -21.049,0.124 -42.587,0.25 -44.323,0.25 -2.704,0.044 -5.151,-1.007 -6.252,-1.731 l -0.037,-0.023 -0.051,-0.029 c -0.745,-0.471 -1.222,-0.881 -1.555,-1.19 l -0.25,-0.234 -76.962,-92.979 c -1.002,-1.207 -2.399,-1.806 -3.857,-1.813 -1.135,0.003 -2.234,0.365 -3.188,1.151 -1.202,0.996 -1.8,2.39 -1.81,3.854 0.004,1.112 0.353,2.19 1.103,3.127 l 76.378,92.274 0.538,0.646 c 0.399,0.475 1.697,1.986 4.275,3.623 2.562,1.636 6.64,3.331 11.648,3.323 h 0.062 c 3.578,0 85.975,-0.499 86.028,-0.499 2.708,-0.003 4.97,-2.264 4.97,-4.973 l 1.47,-251.03 h 110.54 v 111 l -86.998,0.002 c -1.792,0 -3.434,0.947 -4.33,2.5 -0.45,0.773 -0.672,1.63 -0.672,2.498 0,0.835 0.207,1.664 0.626,2.424 0.014,0.022 0.018,0.03 0.023,0.037 0.007,0.011 0.009,0.016 0.011,0.023 0.007,0.009 0.012,0.018 0.016,0.027 0.012,0.019 0.025,0.042 0.043,0.073 0.037,0.064 0.09,0.158 0.161,0.28 0.142,0.243 0.351,0.605 0.622,1.076 0.543,0.945 1.342,2.328 2.358,4.087 2.034,3.523 4.944,8.555 8.449,14.605 7.011,12.098 16.405,28.262 25.941,44.522 9.539,16.264 19.217,32.618 26.813,45.126 3.8,6.26 7.073,11.546 9.573,15.419 1.255,1.943 2.3,3.512 3.167,4.725 0.458,0.641 0.814,1.122 1.188,1.578 0.236,0.281 0.382,0.457 0.615,0.701 0.515,0.5 0.362,0.406 1.183,0.996 v 0.001 c 2.381,1.56 3.261,2.288 5.349,3.263 0.764,0.357 2.041,0.734 2.922,0.851 1.053,0.161 1.906,0.182 2.942,0.187 h 67.001 c 1.282,0.009 2.633,-0.553 3.532,-1.466 0.915,-0.901 1.477,-2.257 1.468,-3.534 v -177.02 h 102.51 v 14.001 h -82.498 c -1.28,-0.009 -2.637,0.555 -3.537,1.465 -0.91,0.897 -1.472,2.254 -1.463,3.537 v 53.499 c -0.009,1.28 0.553,2.641 1.461,3.534 0.899,0.911 2.261,1.476 3.539,1.466 h 81.998 v 13.499 l -81.498,0.003 c -1.282,-0.01 -2.64,0.55 -3.534,1.461 -0.913,0.898 -1.475,2.254 -1.465,3.539 v 56.999 c -0.009,1.277 0.553,2.638 1.468,3.536 0.892,0.906 2.25,1.468 3.532,1.459 h 81.5 v 19.004 c -0.011,1.277 0.553,2.638 1.465,3.536 0.897,0.911 2.25,1.473 3.532,1.464 h 64.503 c 1.28,0.009 2.635,-0.553 3.532,-1.466 0.913,-0.901 1.475,-2.257 1.465,-3.534 v -232 c 0.009,-1.277 -0.553,-2.637 -1.465,-3.536 -0.895,-0.908 -2.254,-1.473 -3.532,-1.463 h -89.502 v -15.5 h 206.51 v 15.5 h -90.997 c -1.28,-0.009 -2.638,0.553 -3.537,1.463 -0.911,0.899 -1.475,2.256 -1.463,3.536 v 232 c -0.009,1.277 0.55,2.633 1.463,3.534 0.901,0.913 2.257,1.475 3.537,1.466 h 64.001 c 1.277,0.009 2.635,-0.556 3.532,-1.466 0.913,-0.901 1.475,-2.257 1.465,-3.534 v -175.5 h 99 v 84.5 l -74.499,-0.003 c -1.958,0 -3.749,1.154 -4.559,2.945 -0.296,0.651 -0.443,1.346 -0.443,2.053 0.003,1.178 0.413,2.333 1.244,3.304 l 0.002,-0.001 0.007,0.009 c 0.007,0.009 0.021,0.023 0.036,0.044 0.034,0.039 0.085,0.094 0.149,0.169 0.133,0.151 0.328,0.377 0.585,0.668 0.512,0.585 1.264,1.444 2.22,2.539 1.915,2.186 4.653,5.312 7.949,9.072 6.592,7.521 15.417,17.58 24.343,27.724 8.926,10.145 17.953,20.375 24.962,28.251 3.502,3.938 6.5,7.284 8.738,9.754 1.114,1.229 2.041,2.236 2.757,3.002 0.361,0.384 0.667,0.705 0.949,0.997 0.402,0.4 0.354,0.371 0.852,0.809 2.944,2.555 6.559,4.203 9.71,4.88 3.369,0.748 6.376,0.773 9.5,0.784 h 111.5 c 1.277,0.01 2.635,-0.553 3.534,-1.463 0.912,-0.899 1.475,-2.262 1.465,-3.536 v -36.001 c 0.01,-1.282 -0.553,-2.64 -1.463,-3.536 -0.896,-0.911 -2.257,-1.473 -3.536,-1.464 h -51.002 v -136.48 h 135 v 136.5 h -53 c -1.281,-0.009 -2.637,0.553 -3.536,1.466 -0.91,0.896 -1.475,2.255 -1.466,3.534 v 36.001 c -0.012,1.277 0.553,2.637 1.463,3.536 0.899,0.91 2.255,1.473 3.536,1.463 h 122.5 c 1.275,0.01 2.638,-0.555 3.532,-1.463 0.913,-0.899 1.475,-2.262 1.466,-3.536 v -252 h 112.5 v 110.5 h -87.497 c -1.28,-0.009 -2.636,0.553 -3.534,1.463 -0.913,0.899 -1.476,2.261 -1.466,3.539 v 135.5 c -0.012,1.277 0.553,2.638 1.466,3.536 0.896,0.911 2.249,1.473 3.534,1.464 h 157.5 c 1.275,0.009 2.633,-0.553 3.532,-1.466 0.912,-0.899 1.472,-2.252 1.463,-3.534 v -195 h 15.502 v 195 c -0.01,1.277 0.555,2.64 1.466,3.536 0.894,0.911 2.252,1.473 3.534,1.464 h 64.501 c 1.275,0.009 2.633,-0.553 3.532,-1.466 0.912,-0.899 1.472,-2.252 1.463,-3.534 v -175 h 101 v 13 l -80.496,0.002 c -1.282,-0.009 -2.64,0.553 -3.534,1.461 -0.911,0.899 -1.475,2.261 -1.466,3.539 v 53.999 c -0.01,1.277 0.555,2.64 1.463,3.534 0.897,0.911 2.257,1.475 3.537,1.466 h 82.498 v 12.999 h -80.498 c -1.282,-0.009 -2.638,0.553 -3.534,1.464 -0.913,0.898 -1.478,2.259 -1.466,3.536 v 57.002 c -0.012,1.275 0.553,2.638 1.463,3.532 0.899,0.912 2.257,1.475 3.537,1.465 h 79.5 v 18.002 c -0.012,1.277 0.553,2.638 1.468,3.539 0.89,0.908 2.248,1.47 3.53,1.461 h 40.8 z m -623.8,-56 h 40.003 c 4.249,0.009 8.3,1.686 11.313,4.684 2.051,2.06 3.481,4.604 4.186,7.363 0.705,-2.761 2.138,-5.304 4.188,-7.361 3.012,-3 7.064,-4.677 11.313,-4.686 l 41.998,-0.002 v -114.49 h -113 v 114.5 -0.004 z M 958.56,257.34 c -0.01,-0.014 -0.017,-0.019 -0.019,-0.022 l -0.012,-0.014 -0.004,-0.005 -10e-4,0.001 c 0.01,0.02 0.02,0.03 0.03,0.04 z m -9.78,-11.92 c 2.908,-4.575 7.979,-7.409 13.501,-7.413 h 63.497 V 175.51 H 948.78 v 69.905 l -0.02,0.005 z m 383.52,-48.65 c 0.718,-1.299 1.618,-2.503 2.687,-3.577 3.012,-2.998 7.062,-4.678 11.314,-4.686 l 76.498,-0.002 v -88.498 h -90.5 v 96.77 z M 499.12,195.9 c 2.97,-4.296 7.878,-6.896 13.157,-6.896 l 75.999,-0.002 v -89 h -88.594 l -0.57,95.9 z M 855.78,98.683 c 0.042,-0.06 0.086,-0.119 0.129,-0.178 h -0.259 c 0.05,0.058 0.09,0.118 0.13,0.178 z"
       id="path2"
       sodipodi:nodetypes="ccccccccccccccsccccccccccccccccccccccccccccsccccccccccccccccccccccccccccccccccccsccscssscccccccccccccccccccccccccccccsccccccccccccccccccccccccccccccccccccccccccccccccccccccccccccsccccccccccccccccccccccccccccccccccccccccccccccccccccccccccccccccccccscccscccccccccccccccccccccccccccccccccccccccccccccccccccccccccccccccccccccccccccccccccccccccccccssccccccccccccccccccccccccccccccccccccccccccccccccccccccccccccccccssccccccccccccccccccccccccccccccccccccsscccccccsccccccccccccsccccccccccccccccccccccccccccccccccccccccccccccccccccccccccsccccccccccccccccccccccccccccccccccccccccccccccccccccccccccccccccccccccccccccccccccccccccccccccccccccccccccccccccccccccccc" />
    <path
       d="m 1507.4,102.43 -35.499,-35.501 c -1.986,-1.983 -3.097,-4.694 -3.075,-7.5 0.021,-2.805 1.169,-5.5 3.182,-7.456 l 35.501,-34.5 c 4.135,-4.019 10.746,-3.948 14.793,0.159 l 34.501,35.002 c 4.026,4.083 4.026,10.656 0,14.741 l -34.501,35 c -1.968,2 -4.634,3.119 -7.439,3.13 h -0.033 c -2.9,-0.01 -5.6,-1.11 -7.5,-3.08 z m -13.2,-42.82 20.49,20.491 19.809,-20.098 -19.914,-20.203 -20.4,19.81 z"
       fill="#ffffff"
       id="path3" />
    <path
       d="m 1514.8,111 c -4.241,0.002 -8.318,-1.684 -11.318,-4.686 l 3.888,-3.89 -3.888,3.888 -35.5,-35.49 c -2.999,-3 -4.683,-7.06 -4.689,-11.296 0,-0.013 0,-0.051 0,-0.106 0,-0.051 0,-0.118 0.01,-0.202 0.077,-4.219 1.813,-8.238 4.844,-11.187 l 35.502,-34.5 c 3.094,-3.01 7.146,-4.531 11.147,-4.524 4.115,-0.006 8.277,1.6 11.396,4.765 l 34.501,35.002 c 3.061,3.101 4.607,7.192 4.602,11.232 0.01,4.04 -1.543,8.129 -4.602,11.232 l -34.498,34.996 c -2.99,3.043 -7.082,4.761 -11.358,4.774 h 0.1 z m 0,-11 h 0.012 c 1.353,-0.011 2.595,-0.533 3.542,-1.492 l 34.501,-34.998 c 0.966,-0.986 1.432,-2.226 1.437,-3.512 0,-1.291 -0.471,-2.528 -1.437,-3.51 l -34.498,-35 c -0.992,-1.003 -2.252,-1.483 -3.563,-1.49 -1.272,0.004 -2.499,0.46 -3.48,1.412 l -35.502,34.5 c -0.952,0.921 -1.507,2.224 -1.516,3.552 l -10e-4,0.141 c 0.026,1.275 0.556,2.524 1.466,3.428 l 35.497,35.5 c 1,0.955 2.2,1.469 3.6,1.469 z m -24.5,-36.502 -3.945,-3.945 28.301,-27.503 27.555,27.952 -27.503,27.905 -24.5,-24.409 z m 24.4,8.796 12.115,-12.292 -12.274,-12.452 -12.468,12.116 12.7,12.628 z"
       id="path4" />
    <g
       stroke-width="0.416133"
       id="g7">
      <path
         d="m 140.21225,379.02152 c -21.68261,0 -42.786785,-4.11223 -59.419617,-11.57932 -18.153798,-8.15121 -30.562049,-19.98811 -35.882308,-34.22943 -2.371541,-6.35143 -19.035583,-50.95963 -27.561314,-73.78868 0.395326,0.092 0.814788,0.17394 1.258386,0.2451 0.544301,0.0861 1.082361,0.15938 1.615844,0.23262 2.026567,0.27756 3.776822,0.51559 5.413473,1.39363 2.194685,1.17599 2.866739,2.95912 3.86629,6.00979 l 2.807649,8.47538 c 0.61879,1.87093 2.811394,2.59875 7.822882,2.59875 0.554289,0 0.991645,-0.01 1.217605,-0.0187 0.434859,-0.0129 0.867221,-0.0291 1.29667,-0.0458 1.01911,-0.0391 1.980377,-0.0741 2.942892,-0.0741 1.667861,0 3.024454,0.11901 4.267859,0.37618 2.89795,0.59757 5.289466,1.71488 6.914048,3.22961 0.903841,0.841 1.235499,1.76066 1.693661,3.03402 0.265077,0.73448 0.565109,1.56841 1.012868,2.43854 2.144333,4.16008 7.142921,6.54702 13.715324,6.54702 1.148111,0 2.298718,-0.0732 3.421861,-0.21972 1.543437,-0.20016 3.021957,-0.53514 4.452206,-0.85848 1.864691,-0.42362 3.626598,-0.8202 5.429702,-0.91591 0.518918,-0.0275 1.039916,-0.0429 1.560914,-0.0429 2.44811,0 4.822565,0.30586 7.059279,0.90342 2.939147,0.78816 5.285716,1.95791 6.974806,3.48345 0.43444,0.38493 0.83018,0.76486 1.21885,1.13563 1.27462,1.21594 2.59126,2.47183 4.5088,3.40938 2.83886,1.38863 6.15086,2.12103 9.5773,2.12103 3.57042,0 7.13418,-0.77817 10.30553,-2.25503 l 0.61421,-0.28505 c 2.81639,-1.31456 5.2491,-2.45102 8.1483,-2.96079 1.7128,-0.29961 3.47721,-0.45316 5.24328,-0.45316 1.24423,0 2.50387,0.077 3.74186,0.22762 2.86633,0.34664 5.50336,1.44523 8.29478,2.60541 3.06107,1.27337 6.22701,2.59001 9.83738,2.93457 0.80064,0.0753 1.61044,0.11443 2.40442,0.11443 2.73566,0 5.33732,-0.44234 7.73091,-1.31747 3.02529,-1.10151 4.90954,-2.87881 6.90448,-4.76264 l 0.521,-0.49021 c 4.16299,-3.90332 10.48821,-4.48716 13.88885,-4.48716 0.58217,0 1.1735,0.0167 1.7565,0.0508 2.03822,0.11444 4.00569,0.49728 6.09052,0.90218 2.48431,0.48229 5.05352,0.98332 7.72967,0.98332 1.94126,0 3.73146,-0.26092 5.47589,-0.79606 3.93246,-1.20096 6.70806,-3.55877 7.81331,-6.63566 l 0.03,-0.0861 0.0233,-0.0878 c 0.70035,-2.62913 1.59046,-4.04606 3.28037,-5.22538 1.9679,-1.37907 4.49757,-2.25877 7.52161,-2.62123 0.63085,-0.0741 1.32247,-0.11152 2.11312,-0.11152 0.82602,0 1.6508,0.0391 2.52509,0.0791 0.8822,0.0412 1.79603,0.0832 2.7211,0.0832 0.64708,0 1.23383,-0.0216 1.79644,-0.0637 l 0.36037,-0.0233 c 1.75525,-0.11818 5.02314,-0.33582 5.95528,-3.07522 l 1.60045,-4.71479 c 0.2476,-0.72948 0.47106,-1.51472 0.6862,-2.27458 0.583,-2.05278 1.1864,-4.17756 2.30163,-5.43261 1.68243,-1.89632 4.48259,-2.57337 6.53495,-2.80973 l 0.45109,-0.0499 c 0.92049,-0.10362 1.92545,-0.21389 2.93915,-0.42862 l -27.99784,73.57646 c -5.42055,14.2459 -18.02064,26.12316 -36.43493,34.34262 -16.90831,7.54865 -38.24719,11.70165 -60.08543,11.70165"
         fill="#ffffff"
         id="path5" />
      <path
         d="m 268.19392,255.4134 c -0.0146,0.0129 -0.0275,0.0275 -0.0416,0.0412 -0.037,0.037 -0.0682,0.0695 -0.0732,0.0741 l 0.11652,-0.11652 m 0.004,-0.004 -0.003,0.005 0.004,-0.004 z m 0.004,-0.004 c -0.002,8.3e-4 -0.004,0.003 -0.006,0.005 l 0.004,-0.004 z m 0.0208,-0.0208 c -0.0171,0.0166 -0.0487,0.0499 -0.0891,0.0891 l 0.0187,-0.0175 c 0.025,-0.025 0.0499,-0.0499 0.0707,-0.0708 m 0.0125,-0.0166 c -0.005,0.007 -0.009,0.01 -0.0137,0.0158 0.003,-0.004 0.008,-0.008 0.0104,-0.01 v -0.008 m 0.004,-0.004 -0.008,0.01 c -0.0108,0.01 -0.0208,0.0204 -0.03,0.0304 0.0291,-0.0208 0.0374,-0.0375 0.0374,-0.0375 M 13.052855,254.05681 c 7.347658,19.66893 27.240892,72.92313 29.849213,79.91 11.787796,31.55577 54.475958,47.20611 97.312682,47.20611 43.19043,0 86.52651,-15.89669 98.52778,-47.42666 2.79766,-7.34974 23.01007,-60.44331 30.31903,-79.63952 -0.18268,0.47647 -0.47023,0.90426 -0.82186,1.26838 0.0395,-0.0383 0.0707,-0.0703 0.0707,-0.0703 0,0 -0.0304,0.032 -0.11319,0.1161 -0.0845,0.0849 -0.11568,0.1161 -0.11568,0.1161 0,0 0,-8.3e-4 8.3e-4,-8.3e-4 -0.46565,0.47065 -0.62586,0.63294 -0.62586,0.63294 -0.002,0 0.46482,-0.47065 0.68079,-0.68954 -1.8493,1.81351 -4.60451,2.01367 -7.03057,2.29206 -2.853,0.32709 -5.93031,1.30375 -7.89404,3.51466 -1.92753,2.16972 -2.50262,5.75471 -3.41562,8.44334 -0.53389,1.57132 -1.06779,3.14347 -1.60003,4.71395 -0.51226,1.5089 -2.98617,1.54011 -4.44471,1.64955 -0.54555,0.0412 -1.09152,0.0574 -1.63624,0.0574 -1.75067,0 -3.49468,-0.16104 -5.24619,-0.16104 -0.78649,0 -1.57547,0.0312 -2.36738,0.12484 -2.98408,0.35746 -6.01228,1.25381 -8.49493,2.99116 -2.37362,1.65704 -3.40022,3.71274 -4.12596,6.43466 -1.00454,2.79975 -3.69568,4.47759 -6.42176,5.30944 -1.65538,0.50769 -3.26332,0.70119 -4.84753,0.70119 -4.58163,0 -8.96059,-1.61335 -13.69827,-1.88176 -0.61504,-0.0362 -1.24299,-0.0545 -1.87759,-0.0545 -5.42138,0 -11.37416,1.33495 -15.35655,5.06725 -2.13976,2.00701 -3.8459,3.76767 -6.69183,4.80384 -2.23089,0.81437 -4.61866,1.18764 -6.99728,1.18764 -0.73531,0 -1.47186,-0.037 -2.20051,-0.10528 -6.44132,-0.61338 -11.62218,-4.75016 -18.07681,-5.53498 -1.32705,-0.16021 -2.66325,-0.24136 -4.00029,-0.24136 -1.88175,0 -3.76267,0.16021 -5.61446,0.48438 -3.40522,0.59965 -6.20621,1.97871 -9.29641,3.41603 -2.87298,1.33704 -6.14545,2.0557 -9.40128,2.0557 -2.99907,0 -5.98482,-0.61047 -8.63476,-1.9063 -2.16472,-1.05865 -3.48594,-2.65701 -5.23203,-4.21002 -2.19386,-1.97955 -5.031051,-3.20589 -7.857842,-3.96283 -2.476407,-0.6629 -5.048524,-0.97376 -7.612735,-0.97376 -0.557618,0 -1.117317,0.0146 -1.673271,0.0429 -3.45307,0.18185 -6.64689,1.3466 -10.045448,1.7902 -0.979993,0.12609 -2.045709,0.20099 -3.146797,0.20099 -4.545836,0 -9.688406,-1.27336 -11.806938,-5.38476 -1.132298,-2.19635 -1.209283,-4.24913 -3.150959,-6.06139 -2.168884,-2.01949 -5.075989,-3.16594 -7.943977,-3.75685 -1.587547,-0.32916 -3.142636,-0.42279 -4.701053,-0.42279 -1.42151,0 -2.847182,0.077 -4.30864,0.12401 -0.21306,0.007 -0.62628,0.0166 -1.149775,0.0166 -1.958322,0 -5.46008,-0.14148 -5.786745,-1.12896 -0.868469,-2.62289 -1.740267,-5.24994 -2.609569,-7.87698 -1.064468,-3.2138 -1.824743,-6.07638 -5.086809,-7.82538 -2.459761,-1.31748 -5.019395,-1.42859 -7.706365,-1.85346 -2.201343,-0.34955 -5.056014,-1.21095 -5.913248,-3.49968 m -0.0083,-0.0166 c 0.0021,0.005 0.0029,0.009 0.005,0.0137 0,0 0,-0.008 -0.0042,-0.0125 m 248.398051,8.00639 -10.6322,27.92876 -16.0827,42.23749 c -5.21373,13.70035 -17.42224,25.16231 -35.30472,33.1454 -16.63865,7.42881 -37.66751,11.51648 -59.21155,11.51648 -21.38673,0 -42.179226,-4.04606 -58.541572,-11.39164 C 64.03288,357.57652 52.01621,346.15659 46.900689,332.46332 44.644,326.42024 29.442665,285.72327 20.629386,262.12854 c 1.564244,0.22055 2.846349,0.45317 3.973653,1.05656 1.418598,0.76069 1.88217,1.85761 2.842604,4.78719 l 0.19808,0.60839 1.569653,4.73351 1.039916,3.14055 c 1.347022,4.07145 6.885335,4.07145 9.859853,4.07145 0.586331,0 1.048239,-0.0116 1.286267,-0.0187 0.439436,-0.0146 0.876376,-0.0304 1.311651,-0.0487 0.997886,-0.0362 1.940011,-0.0724 2.860913,-0.0724 1.539692,0 2.721509,0.10237 3.833833,0.3329 2.51261,0.51642 4.548332,1.45106 5.886616,2.69738 0.479385,0.44734 0.682458,0.92964 1.136875,2.19135 0.287132,0.79773 0.612131,1.69824 1.123975,2.69446 2.523846,4.90038 8.218208,7.71011 15.621629,7.71011 1.240908,0 2.484729,-0.0811 3.70067,-0.23844 1.641228,-0.21181 3.169268,-0.55845 4.647372,-0.89344 1.77231,-0.40157 3.447245,-0.77941 5.068499,-0.86514 0.482714,-0.0275 0.970005,-0.037 1.449391,-0.037 2.259601,0 4.448044,0.27714 6.503741,0.8281 2.607905,0.69619 4.656943,1.70698 6.117983,3.02529 0.38326,0.34289 0.7557,0.69744 1.14978,1.07029 1.32705,1.26962 2.8322,2.70403 5.04478,3.78515 3.13223,1.53303 6.76965,2.34199 10.52067,2.34199 3.88127,0 7.75713,-0.84849 11.21104,-2.45393 l 0.61754,-0.28922 c 2.67823,-1.25089 4.99151,-2.33117 7.61315,-2.79183 1.58879,-0.2784 3.22752,-0.42071 4.87,-0.42071 1.15935,0 2.33076,0.0712 3.48303,0.21181 2.57379,0.31251 5.07807,1.35534 7.73009,2.45685 3.20838,1.33578 6.52538,2.71568 10.45783,3.0877 0.86723,0.0857 1.74443,0.12609 2.60708,0.12609 2.98783,0 5.83626,-0.48729 8.46539,-1.44523 3.44142,-1.25381 5.57743,-3.27163 7.64311,-5.21955 l 0.51517,-0.48646 c 2.64786,-2.48223 7.17622,-3.90707 12.42157,-3.90707 0.54305,0 1.09277,0.0175 1.63415,0.0479 1.89424,0.10653 3.79181,0.47647 5.80339,0.86722 2.58419,0.50311 5.25701,1.02161 8.13873,1.02161 2.15807,0 4.15426,-0.29088 6.10176,-0.88761 4.59827,-1.40612 7.86824,-4.23457 9.20694,-7.96687 l 0.0603,-0.16811 0.0462,-0.17478 c 0.56844,-2.13102 1.1839,-3.14472 2.43854,-4.02234 1.6508,-1.15519 3.91373,-1.93169 6.54452,-2.24629 0.54597,-0.0645 1.15435,-0.0965 1.85928,-0.0965 0.77734,0 1.57798,0.037 2.42564,0.0761 0.908,0.042 1.84638,0.0849 2.82013,0.0849 0.70119,0 1.34162,-0.0225 1.95541,-0.0674 l 0.34414,-0.0254 c 1.93003,-0.12776 6.45131,-0.42779 7.84411,-4.52628 l 0.74321,-2.18928 0.8564,-2.52343 c 0.26508,-0.78108 0.49562,-1.5917 0.71908,-2.37778 0.49229,-1.73735 1.05157,-3.70525 1.84264,-4.59577 0.94462,-1.05282 2.72567,-1.79353 5.03104,-2.0765"
         fill="#010101"
         id="path6" />
      <path
         d="m 130.45809,168.53317 c -4.14551,0 -7.8932,1.59171 -11.95716,1.85596 -3.96158,0.25675 -7.91609,-0.42155 -11.88434,-0.11652 -5.06101,0.38867 -9.362988,3.13431 -14.505975,3.13431 -4.733511,0 -9.657612,-0.0849 -13.99122,2.16847 -7.07634,3.67861 -17.553734,1.36034 -23.403314,7.40925 -4.725189,4.88748 -13.63834,2.42772 -19.036416,7.53575 -1.39779,1.3233 -1.612515,3.5313 -3.387738,4.14094 -1.994109,0.68911 -4.074357,1.11273 -6.07554,1.78521 -3.924966,1.32039 -8.112927,3.59538 -9.63847,7.7176 -0.979161,2.64286 0.342477,2.99282 -2.329929,4.09141 -1.845133,0.75986 -3.644075,1.65372 -5.2278772,2.88214 -2.9016947,2.25086 -3.6761181,5.34606 -4.09558,9.02842 -0.032042,0.27506 0.039116,4.99318 0.04411,4.98819 -1.3969582,1.13396 -2.627047,2.50012 -3.519236,4.07019 -2.11187444,3.72356 -1.70115127,7.68847 -0.1344109,11.55851 1.700319,4.19628 3.1384743,5.78217 3.309505,10.10246 -0.1822663,2.07026 0.8164527,4.22375 1.5713178,6.07512 3.2154589,7.89654 5.0464433,13.92464 14.6358103,14.12813 1.937931,0.0412 2.849678,7.65352 3.570836,9.57022 1.778969,4.73227 6.041002,7.98809 10.842759,9.27353 6.494586,1.74234 16.740195,-2.10564 19.641889,5.47256 3.290363,8.5919 13.502264,11.76949 21.932285,11.0812 6.810015,-0.55762 16.815098,-4.87 22.37713,1.45314 6.430084,7.30771 17.352744,9.15243 26.451484,6.75675 8.34139,-2.19427 14.46229,-7.25778 23.47864,-3.78723 9.95307,3.833 19.15626,7.217 29.42351,1.63166 7.2249,-3.93079 9.90188,-9.40419 19.29899,-7.81539 8.28812,1.40902 16.20963,3.16011 23.87105,-1.65038 5.59033,-3.50592 5.74055,-11.60054 12.43364,-12.39161 5.89244,-0.69536 11.61884,0.70202 17.20584,-2.20883 6.75384,-3.51466 8.32516,-11.15237 9.82656,-17.98735 5.9453,-0.88262 11.09369,-2.49596 13.2684,-8.8449 1.36034,-3.00282 2.75189,-6.242 3.19632,-9.53819 0.19808,-1.31331 0.13857,-2.65534 -0.15272,-3.9491 0.97791,-1.26754 1.9604,-2.39651 2.65534,-3.86046 3.35195,-7.06635 2.57462,-15.31328 -4.25371,-19.84746 1.80602,-6.47087 -0.22263,-11.04625 -6.11882,-14.4627 -2.97992,-1.72612 -4.61907,-1.44356 -5.51209,-4.69772 -0.84101,-3.01572 -2.22215,-5.38102 -4.87125,-6.93486 -3.41437,-2.00201 -7.28275,-2.37487 -10.87356,-3.85838 -1.47519,-3.84091 -5.22954,-6.11508 -8.96683,-7.34766 -3.09228,-1.01953 -6.31939,-1.15435 -9.44205,-1.98787 -3.21005,-0.86098 -5.02356,-3.85589 -8.31642,-5.0531 -3.56792,-1.29667 -7.35557,-1.41485 -11.08869,-1.80768 -4.01985,-0.42279 -6.81293,-2.86258 -10.61722,-3.84881 -4.01818,-1.05615 -7.9652,-0.78358 -12.03789,-1.02993 -4.09392,-0.24552 -7.55947,-2.38611 -11.59513,-2.9017 -3.20256,-0.40906 -6.40928,-0.13732 -9.61766,-0.009 -4.38521,0.17228 -8.33847,-1.21053 -12.63879,-1.74651 -4.05355,-0.50477 -8.01555,0.25384 -12.03997,0.64875 -3.99072,0.41613 -7.71927,-0.87388 -11.70166,-0.87388"
         fill="#010101"
         id="path7" />
    </g>
    <path
       d="m 117.9533,310.35127 c -5.36187,0 -11.02627,-1.7744 -14.71321,-6.04974 -2.88671,-3.34779 -7.258606,-4.75599 -11.435332,-5.19709 -5.99273,-0.63294 -11.396632,1.95999 -17.308632,1.95999 -5.237865,0 -11.331715,-1.78438 -14.12147,-6.85662 -1.061555,-1.94335 -1.054481,-4.23541 -2.690716,-5.81921 -2.145165,-2.10147 -5.24369,-3.049 -8.093368,-3.40438 -5.618211,-0.69619 -11.139046,1.08486 -16.344868,-2.21591 -2.077752,-1.31539 -3.663218,-3.39065 -4.195868,-5.9199 -0.356626,-1.32123 -2.553392,-8.91524 -2.859666,-10.52733 -0.450672,-2.37488 -7.676403,-0.75487 -10.104123,-2.14059 -2.204256,-1.25797 -3.309088,-4.60659 -4.015266,-6.17084 -0.706594,-1.56341 -2.8750621,-6.43175 -3.0152989,-7.95979 0.3612033,-0.72573 8.2922799,-2.3653 8.2922799,-2.3653 0,0 -1.386138,-0.3895 -3.810112,-1.22468 -2.424807,-0.83393 -5.2574235,-3.25582 -5.9648495,-4.61616 -0.7086743,-1.36242 -4.0610409,-7.21366 -3.0227893,-10.18152 1.5351142,-1.92004 9.2822608,-1.71863 10.9913178,-3.1493 -0.397823,-0.48437 -4.719363,-3.69526 -5.206238,-4.36024 -1.6674448,-2.27624 -1.2808573,-7.30937 0.444846,-9.36507 1.816004,-2.16389 9.736261,-1.07487 12.530178,-2.71818 1.080697,-0.63668 -3.879607,-0.33332 -2.906273,-1.15726 1.255057,-1.06114 0.75653,-4.60243 0.946287,-6.11965 0.778168,-6.23034 11.24183,-4.2612 15.232544,-5.84334 1.190557,-0.47314 2.322438,0.57052 3.321157,-0.27007 0.606306,-0.51351 0.549296,-2.32244 1.081113,-3.16011 1.391965,-2.1976 6.742186,-5.06101 9.057549,-5.76761 2.589179,-0.7894 2.580856,0.8202 5.161296,-0.0112 1.235915,-0.39824 2.568373,-0.87679 3.613282,-1.70407 0.864308,-0.6708 1.277945,-1.98037 2.280825,-2.69529 2.482233,-1.77023 5.177941,-3.02529 7.99641,-3.61619 2.8709,-0.60173 5.868722,-0.52183 8.958093,-0.52059 2.088987,0 3.285369,-2.37403 5.298204,-3.09478 2.891291,-1.41069 4.847948,-1.86635 7.685974,-2.19926 2.54923,0.14065 6.114241,0.92007 8.577748,0.21181 2.200506,-0.63002 4.036906,-1.94375 6.328136,-2.39193 5.08264,-0.99123 10.12493,0.54014 15.22255,-0.34248 2.23006,-0.38658 4.26329,-1.37615 6.51997,-1.66078 2.66991,-0.33582 5.46882,-0.25717 8.07881,0.43985 5.28572,1.43316 10.19609,-0.64875 15.44768,-0.58633 3.91581,0.0462 7.31729,1.74984 11.1557,2.11728 4.69481,0.44485 9.27185,-0.8281 13.94835,0.27049 2.13477,0.5031 3.8896,1.78022 5.9815,2.34532 2.61331,0.70077 5.29196,-0.23636 7.96936,-0.30044 2.33118,0.20598 3.90707,1.10774 6.99769,2.48389 2.72109,1.13563 4.38479,2.21341 6.8354,3.05067 2.83012,0.96585 3.37692,-0.43985 6.46712,-0.10237 3.27996,0.35788 8.2619,2.5767 10.51901,4.5371 0.91008,0.78941 1.2484,1.98454 2.25794,2.59667 1.04699,0.63835 2.2209,1.0757 3.38024,1.43358 2.0195,0.61962 0.46815,-1.24133 2.54008,-0.88262 3.17426,0.64293 8.43792,3.60454 10.27682,5.29196 0.97416,0.89219 1.72736,2.08275 1.87467,3.4564 0.12942,1.2484 1.25839,1.58755 2.40525,1.36284 0.43653,-0.0853 0.89094,-0.22638 1.56258,-0.062 2.47558,0.80148 8.54113,-0.47314 11.12115,1.77481 1.82766,1.59379 3.30243,1.63291 3.67196,4.33902 0.16687,1.22426 0.61338,7.06427 1.55717,6.954 2.43521,1.09359 7.0289,0.13607 9.23524,2.78226 0.96667,1.16101 1.74359,2.18345 1.2201,4.16507 -0.52474,1.98163 -2.31328,8.09504 -1.83307,8.46415 2.30538,1.76066 5.9532,1.19638 6.97314,3.74395 1.09318,2.73649 -0.40864,8.88277 -2.02116,10.69128 -0.48104,0.53723 -3.02445,3.81927 -3.10268,4.45013 1.19638,1.64164 1.1402,2.02948 1.08527,3.19715 -0.0562,1.16891 -0.90509,4.36814 -2.93831,8.90316 -1.89299,6.13671 -9.11706,4.87292 -13.71824,6.47087 -0.44485,2.44727 -2.61082,12.87598 -4.50797,15.32409 -3.76475,4.85461 -10.05793,4.48258 -15.38651,4.30947 -2.70278,-0.087 -5.48047,0.30752 -7.98726,1.39863 -1.15809,0.5031 -2.27499,1.16891 -3.19673,2.06443 -1.22717,1.18931 -1.43233,2.46101 -1.91463,4.04398 -1.70864,5.59199 -7.47416,8.1329 -12.62256,8.61603 -4.30905,0.40032 -8.08254,-0.90051 -12.2601,-1.62292 -4.06021,-0.70326 -8.36802,-0.45608 -12.28008,0.92382 -1.8468,0.65125 -3.66614,1.5838 -5.11761,2.96495 -1.36283,1.29999 -2.44228,2.74814 -4.01235,3.8201 -3.43143,2.34782 -7.60192,3.34945 -11.66587,3.34945 -4.15592,0 -8.34263,-1.05157 -11.97464,-3.18758 -3.57583,-2.0919 -7.80915,-2.88963 -11.86603,-2.88963 -4.05646,0.005 -8.29935,0.79315 -11.86686,2.90336 -3.637,2.1306 -7.83995,3.19174 -12.0096,3.19174"
       fill="#ffffff"
       stroke-width="0.416002"
       id="path8" />
    <path
       d="m 117.41649,296.93514 c -5.48671,0 -11.28303,-1.61251 -15.05486,-5.49212 -2.955373,-3.03819 -7.428385,-4.31738 -11.700822,-4.7177 -6.133799,-0.57343 -11.662956,1.78022 -17.713945,1.78022 -5.356879,0 -11.593046,-1.62126 -14.44855,-6.22577 -1.08694,-1.76357 -1.078201,-3.8459 -2.753968,-5.28322 -2.193436,-1.90839 -5.364785,-2.7677 -8.280212,-3.08771 -5.748876,-0.63585 -11.397464,0.98332 -16.722717,-2.01575 -2.128104,-1.19346 -3.809281,-3.06648 -4.295324,-5.3731 -0.230121,-1.11524 -0.174776,-2.2596 0.115685,-3.3582 0.291709,-1.08485 0.912579,-2.06818 0.405313,-3.18924 -0.920485,-2.03697 -3.832167,-2.88588 -5.953613,-3.21879 -2.71818,-0.42986 -5.347308,-0.47356 -7.831621,-1.73319 -2.255024,-1.1427 -3.9973727,-3.13847 -4.1097286,-5.60073 -0.1256721,-2.77353 1.6503826,-4.61242 3.4114576,-6.60153 1.784378,-2.01284 0.602144,-3.40522 -1.816836,-3.9953 -2.5654597,-0.62503 -5.1821033,-2.01075 -5.9839914,-4.52919 -0.8410046,-2.6258 0.7523682,-5.14465 2.8014066,-6.84455 1.7677326,-1.46396 4.5029738,-2.31162 5.6581588,-4.34068 0.394078,-0.69328 -1.945837,-1.72529 -2.444364,-2.32868 -1.7061453,-2.06735 -1.1818178,-4.72852 0.583418,-6.5928 1.857617,-1.96498 4.430151,-2.93831 6.948587,-3.9362 1.172246,-0.46191 2.326183,-1.02701 3.322405,-1.77605 1.282522,-0.96418 0.347471,-1.12398 0.08989,-2.49222 -1.131049,-6.00647 8.337223,-7.279 12.420319,-8.71591 1.218853,-0.42778 2.467252,-0.94712 3.489274,-1.71114 0.622119,-0.46523 0.565108,-2.10812 1.107746,-2.86882 1.424423,-1.99577 4.120548,-3.00281 6.490425,-3.64532 2.647437,-0.71492 5.418882,-0.84433 8.057165,-1.60003 1.266708,-0.36287 2.62996,-0.79648 3.698589,-1.54718 0.884282,-0.61005 1.307073,-1.79853 2.333673,-2.44728 5.126341,-3.24334 11.749929,-1.84305 17.348165,-3.75477 1.996605,-0.68162 3.360689,-2.15473 5.420131,-2.80973 2.795997,-0.88594 5.869138,-1.16683 8.80662,-1.02784 2.607905,0.12858 5.317347,-0.13275 7.83828,-0.77651 2.250444,-0.57177 4.130534,-1.7644 6.474194,-2.17138 5.20124,-0.90051 10.36046,0.49104 15.57627,-0.31002 2.28082,-0.35122 4.36024,-1.25006 6.67227,-1.50931 2.73108,-0.30336 5.59574,-0.23304 8.26399,0.40032 5.40931,1.30124 10.43411,-0.588 15.80597,-0.53224 4.00819,0.0416 7.48748,1.58797 11.41536,1.92046 4.80467,0.40448 9.48866,-0.74946 14.27377,0.24801 2.18304,0.45525 3.97948,1.6146 6.12215,2.12727 2.67157,0.63627 5.37977,0.75362 8.11917,0.69494 2.46475,-0.052 4.97695,0.18851 7.34974,0.82478 2.59958,0.68787 4.33069,2.47225 6.83789,3.23335 5.57868,1.68909 12.58095,0.32459 17.38104,4.02526 0.93173,0.71574 1.27753,1.80144 2.31121,2.35531 1.07195,0.58009 2.27167,0.97749 3.45764,1.30333 2.06735,0.56261 4.20461,0.72448 6.29485,1.17391 2.39401,0.51517 4.93949,1.29708 6.82041,2.82928 0.99706,0.81063 1.76899,1.89008 1.91838,3.13848 0.1315,1.13188 1.39071,1.57173 2.45893,2.04446 3.41395,1.50307 7.2095,1.76399 10.44661,3.69942 2.05653,1.23175 3.91413,3.26332 3.38857,5.69977 -0.21348,0.98374 -1.03243,1.33163 -0.14898,2.06735 1.0653,0.8872 2.37653,1.52471 3.68694,2.04363 3.89001,1.54052 11.15319,4.95989 7.92399,10.03213 -0.59757,0.93838 -1.51513,1.65621 -2.54257,2.16389 -0.7303,0.36121 0.12151,1.0291 0.52849,1.44024 1.82724,1.84097 4.47218,2.69238 6.23825,4.63572 1.70032,1.85346 2.50179,4.42391 1.21927,6.68476 -1.4419,2.54382 -4.10432,2.81639 -6.629,3.89958 -2.75355,1.18348 -0.90592,3.11143 0.46856,4.53918 1.88966,1.96206 3.14056,4.64154 2.22257,7.27733 -1.93668,5.5741 -8.68469,4.65528 -13.39199,6.10633 -2.21174,0.68163 -4.86126,2.30746 -3.78431,4.81341 1.13271,2.63204 0.81437,5.58118 -1.12647,7.80458 -3.85006,4.40643 -10.2918,4.06728 -15.74397,3.91123 -2.76562,-0.077 -5.60906,0.27922 -8.17369,1.26962 -1.18348,0.45816 -2.32618,1.06156 -3.26997,1.87302 -1.25506,1.08111 -1.46396,2.23546 -1.95915,3.67278 -1.74776,5.07599 -7.64811,7.3847 -12.91718,7.82122 -4.40852,0.36329 -8.26898,-0.81728 -12.54142,-1.47477 -4.15758,-0.63585 -8.56443,-0.41489 -12.56888,0.83892 -1.88924,0.59174 -3.75102,1.4394 -5.23578,2.69238 -1.39613,1.18057 -2.49971,2.49513 -4.10557,3.46888 -3.51216,2.13102 -7.78043,3.0411 -11.93635,3.0411 -4.25205,0 -8.53697,-0.95585 -12.25429,-2.89628 -3.65822,-1.89549 -7.99016,-2.62122 -12.14026,-2.62122 -4.15217,0.003 -8.49369,0.71866 -12.14317,2.6387 -3.7323,1.95499 -8.0322,2.91792 -12.30089,2.91792"
       fill="#ffffff"
       stroke="#000000"
       stroke-width="4.00002"
       id="path9" />
    <g
       stroke-width="0.416133"
       id="g22">
      <path
         d="m 174.29728,209.83852 c 0,8.77375 -15.6079,15.88671 -34.8607,15.88671 -19.25322,0 -34.86237,-7.11296 -34.86237,-15.88671 0,-8.77457 15.60873,-15.8892 34.86237,-15.88878 19.25114,0 34.85903,7.11587 34.85903,15.87963"
         fill="#010101"
         id="path10" />
      <path
         d="m 177.61885,267.31064 c -3.88834,0 -7.76254,-0.70118 -11.20521,-2.02823 -4.20211,-1.62126 -7.28232,-4.03899 -8.91065,-6.99312 -0.17977,-0.32416 -0.32375,-0.56552 -0.43985,-0.76069 -0.67248,-1.12314 -0.78608,-1.54968 -0.86931,-3.25957 l -0.15729,-3.19132 -0.23387,-5.02522 3.78806,3.30951 c 1.0782,0.94129 2.32576,1.78021 3.70982,2.49305 4.12513,2.12394 9.03633,3.24334 14.20262,3.24334 4.87583,0 9.56648,-1.00288 13.56593,-2.90544 1.57881,-0.75112 3.00781,-1.67868 4.24705,-2.75896 l 3.83217,-3.33614 -0.28089,5.07224 c -0.0533,0.94712 -0.10903,1.35243 -0.15855,1.70906 -0.0429,0.3146 -0.0811,0.58592 -0.12317,1.36616 -0.26425,5.15922 -4.63864,8.31642 -7.22199,9.73835 -3.95534,2.18053 -8.708,3.32906 -13.74695,3.32906"
         fill="#ffffff"
         id="path11" />
      <path
         d="m 153.42447,241.12756 0.46815,10.05002 c 0.0304,0.64376 0.0616,1.28502 0.0936,1.92587 l 0.0624,1.26837 c 0.0953,1.94043 0.26133,2.73524 1.17141,4.2587 0.10695,0.17769 0.23928,0.39741 0.40532,0.70035 1.87176,3.39648 5.33607,6.14754 10.01257,7.95314 3.6886,1.42109 7.83037,2.17179 11.9788,2.17179 5.39974,0 10.51069,-1.24215 14.77979,-3.59289 5.13633,-2.82512 8.09462,-6.91613 8.33057,-11.51356 0.0362,-0.67871 0.0658,-0.8976 0.10486,-1.17391 0.0641,-0.46566 0.12193,-0.92756 0.1752,-1.88592 l 0.56261,-10.14657 -7.66392,6.67186 c -1.09277,0.95295 -2.3574,1.77356 -3.75893,2.43854 -3.71274,1.76773 -8.08588,2.70029 -12.64545,2.70029 -4.82631,0 -9.39878,-1.04117 -13.22179,-3.00573 -1.22884,-0.63294 -2.33284,-1.37407 -3.27996,-2.20134 l -7.56737,-6.62068 z m 4.75473,9.84986 c 1.17516,1.02535 2.5509,1.96498 4.14011,2.7831 4.42557,2.2775 9.67426,3.48345 15.18427,3.48345 5.19251,0 10.2015,-1.0782 14.48725,-3.11517 1.84098,-0.87513 3.40813,-1.9217 4.73435,-3.07814 -0.0953,1.72862 -0.18809,1.34869 -0.28089,3.07814 -0.18601,3.61994 -3.13972,6.33895 -6.11591,7.97643 -3.76642,2.07318 -8.24359,3.06066 -12.70994,3.06066 -3.61287,0 -7.21991,-0.64667 -10.43412,-1.88675 -3.05317,-1.17682 -6.17833,-3.07896 -7.80291,-6.02643 -0.91716,-1.65704 -0.9571,-1.27046 -1.04574,-3.08979 -0.052,-1.06114 -0.1057,-2.12644 -0.15647,-3.18758"
         id="path12" />
      <path
         d="m 177.49984,254.80168 c -5.07766,0 -9.91312,-0.9804 -13.98332,-2.83511 -5.68812,-2.5871 -8.66472,-6.60653 -8.16327,-11.03335 0.4386,-3.89458 3.54794,-7.24404 8.75377,-9.43082 3.94202,-1.65413 8.55194,-2.52842 13.33206,-2.52842 4.813,0 9.43831,0.88761 13.38409,2.56754 0.35204,0.12401 0.83684,0.31917 1.32579,0.60464 4.84462,2.41024 7.50621,5.8837 7.49622,9.79202 -0.004,4.21793 -3.21254,7.98518 -8.80412,10.33217 -3.95118,1.65621 -8.56443,2.53009 -13.3433,2.53009"
         fill="#ffffff"
         id="path13" />
      <path
         d="m 177.43991,226.82923 c -5.06267,0 -9.96014,0.93255 -14.16266,2.69737 -5.95403,2.50013 -9.5257,6.46796 -10.05502,11.17192 -0.60381,5.32526 2.91376,10.2685 9.40876,13.22346 4.34485,1.97871 9.48825,3.02653 14.8701,3.02653 5.061,0 9.9618,-0.93255 14.16932,-2.69737 6.42759,-2.69821 10.11619,-7.18537 10.12119,-12.31171 0.0121,-4.74599 -3.04901,-8.88984 -8.62436,-11.68085 -0.57759,-0.33207 -1.13979,-0.56552 -1.56466,-0.71783 -4.19379,-1.77272 -9.08709,-2.70902 -14.161,-2.70902 m 0,4.29033 c 4.55998,0 8.90732,0.83601 12.61299,2.42397 0.34747,0.11902 0.73572,0.28713 1.07196,0.49021 2.61373,1.28793 6.3868,3.84465 6.37682,7.90028 -0.004,3.31533 -2.73358,6.3635 -7.48873,8.36053 -3.68819,1.54593 -8.0143,2.36238 -12.51187,2.36238 -4.76597,0 -9.29724,-0.91008 -13.09529,-2.64161 -4.78428,-2.17596 -7.31062,-5.3935 -6.91945,-8.83866 0.34664,-3.08979 2.99865,-5.82503 7.4521,-7.69347 3.68819,-1.54385 8.01264,-2.35947 12.50147,-2.35947"
         id="path14" />
      <path
         d="m 220.66655,245.34298 c -3.88834,0 -7.76212,-0.70035 -11.20646,-2.02948 -4.20003,-1.62 -7.28066,-4.03607 -8.90982,-6.9902 -0.17977,-0.32333 -0.32333,-0.56427 -0.43902,-0.75861 -0.67247,-1.12397 -0.78566,-1.55176 -0.87138,-3.25873 l -0.40864,-8.22737 3.80304,3.31658 c 1.08194,0.94337 2.33242,1.78313 3.71481,2.4943 4.12138,2.12103 9.03258,3.24334 14.20179,3.24334 4.87333,0 9.56398,-1.00496 13.56635,-2.9071 1.57423,-0.74821 3.00156,-1.6766 4.24372,-2.75772 l 3.82384,-3.33197 -0.27256,5.06434 c -0.0516,0.9571 -0.10778,1.36242 -0.1573,1.71862 -0.0433,0.31751 -0.0807,0.58675 -0.12359,1.36242 -0.26092,5.15215 -4.63447,8.31143 -7.21741,9.7371 -3.95243,2.1847 -8.70509,3.33322 -13.74404,3.33322"
         fill="#ffffff"
         id="path15" />
      <path
         d="m 196.43597,219.14742 0.50352,10.07874 c 0.0533,1.05864 0.10486,2.1152 0.15605,3.17675 0.0982,1.94543 0.26382,2.73816 1.17266,4.26287 0.10736,0.17686 0.23969,0.39824 0.40531,0.6991 1.87385,3.39731 5.33691,6.14837 10.01424,7.95314 3.68694,1.42109 7.82996,2.17096 11.97839,2.17096 5.39932,0 10.51026,-1.24132 14.7802,-3.58998 5.138,-2.83511 8.09421,-6.92278 8.32724,-11.51939 0.0362,-0.66706 0.067,-0.88761 0.10528,-1.16517 0.0666,-0.48438 0.12276,-0.92964 0.17478,-1.89757 l 0.54596,-10.13117 -7.64894,6.66437 c -1.09484,0.95294 -2.35697,1.77231 -3.75435,2.43771 -3.71565,1.76565 -8.09004,2.69903 -12.64586,2.69903 -4.82922,0 -9.40044,-1.04116 -13.21971,-3.00572 -1.22967,-0.63169 -2.33534,-1.37324 -3.28703,-2.20301 l -7.60733,-6.629 z m 4.78927,9.86235 c 1.17433,1.02327 2.54923,1.96373 4.14177,2.78434 4.42266,2.27625 9.67301,3.48054 15.18427,3.48054 5.19293,0 10.20067,-1.07695 14.48684,-3.11434 1.84139,-0.87513 3.40563,-1.92378 4.73226,-3.07897 -0.0936,1.73028 -0.18684,1.34952 -0.28089,3.07897 -0.18351,3.61827 -3.13764,6.33687 -6.11133,7.97768 -3.76766,2.07318 -8.24525,3.05775 -12.71161,3.05775 -3.61328,0 -7.22032,-0.64542 -10.43495,-1.88467 -3.05358,-1.17599 -6.17999,-3.08188 -7.80374,-6.02519 -0.91549,-1.65621 -0.95502,-1.27128 -1.04574,-3.08978 -0.0537,-1.06114 -0.10611,-2.12228 -0.15855,-3.18342"
         id="path16" />
      <path
         d="m 220.54671,232.83403 c -5.07766,0 -9.91229,-0.97958 -13.98373,-2.83303 -5.68438,-2.58585 -8.65973,-6.60528 -8.1637,-11.03044 0.4411,-3.89958 3.55086,-7.24945 8.75669,-9.43415 3.94494,-1.65537 8.55361,-2.52925 13.32956,-2.52925 4.80842,0 9.4354,0.88678 13.38658,2.5667 0.34747,0.12193 0.82852,0.31793 1.32081,0.60465 4.84628,2.40816 7.50787,5.8837 7.49955,9.79285 -0.005,4.21668 -3.21255,7.98351 -8.80163,10.33216 -3.95368,1.66037 -8.56693,2.53425 -13.34497,2.53425"
         fill="#ffffff"
         id="path17" />
      <path
         d="m 220.48595,204.86157 c -5.05768,0 -9.9539,0.93297 -14.16017,2.69613 -5.95403,2.49971 -9.5257,6.46587 -10.05668,11.17234 -0.59882,5.33066 2.9175,10.27182 9.40668,13.22512 4.34651,1.97871 9.48991,3.02445 14.87093,3.02445 5.05976,0 9.96014,-0.93255 14.16974,-2.69529 6.42925,-2.70112 10.11619,-7.18745 10.12118,-12.31254 0.01,-4.74642 -3.05275,-8.8936 -8.62935,-11.68377 -0.57925,-0.33041 -1.1377,-0.56344 -1.55675,-0.7145 -4.19961,-1.75192 -9.09417,-2.70902 -14.16433,-2.70902 m 0,4.29033 c 4.5604,0 8.90774,0.83559 12.61424,2.4248 0.3483,0.11819 0.73447,0.28714 1.07029,0.49021 2.6129,1.28627 6.38556,3.84423 6.37724,7.89945 -0.003,3.31367 -2.73649,6.36309 -7.4879,8.36053 -3.69027,1.5451 -8.01763,2.3603 -12.51312,2.3603 -4.7668,0 -9.29557,-0.908 -13.09403,-2.6387 -4.7847,-2.17471 -7.3073,-5.39641 -6.91988,-8.83824 0.34914,-3.09229 2.99866,-5.82586 7.45294,-7.69597 3.68985,-1.54801 8.01306,-2.36363 12.50188,-2.36363"
         id="path18" />
      <path
         d="m 139.61718,215.89742 c -4.93783,0 -13.37243,-1.94542 -13.6579,-9.23565 -0.56053,-14.35867 -6.59779,-86.34758 -7.96229,-102.53099 l 43.55247,0.16729 c -2.36904,30.62114 -7.84285,100.82068 -8.27646,103.70031 -0.36495,2.24712 -2.15973,4.4106 -4.92535,5.93323 -2.30954,1.28169 -5.40973,1.98079 -8.73047,1.98079"
         fill="#ffffff"
         id="path19" />
      <path
         d="m 114.88224,101.24448 c 0,0 7.59443,89.54348 8.21862,105.51466 0.32376,8.27897 8.52698,11.9838 16.51549,11.9838 3.79055,0 7.38219,-0.82436 10.11078,-2.32369 3.54087,-1.94833 5.86248,-4.85835 6.37058,-7.98476 0.52308,-3.20131 8.54071,-107.00025 8.54071,-107.00025 l -49.75701,-0.20807 z m 6.22951,5.74264 37.35126,0.14398 c -3.14971,40.69988 -7.56905,96.97561 -8.01514,100.42119 -0.23262,1.32705 -1.5605,2.80266 -3.47055,3.85506 -1.8726,1.02743 -4.55416,1.61626 -7.35723,1.61626 -0.4307,0 -10.54938,-0.0732 -10.79865,-6.48752 -0.53681,-13.59506 -5.9715,-78.76147 -7.71094,-99.5265"
         fill="#010101"
         id="path20" />
      <path
         d="m 196.84211,57.009556 c 0,31.493354 -25.53558,57.026854 -57.02269,57.026854 -31.49793,0 -57.031014,-25.534749 -57.031014,-57.026854 0,-31.492938 25.532664,-57.02685301 57.031014,-57.02685301 31.48545,0 57.02269,25.55056001 57.02269,57.01020701"
         id="path21" />
      <path
         d="M 177.44699,91.132453 C 157.13887,111.44265 124.40669,111.64073 104.34076,91.578132 84.274417,71.508874 84.471664,38.775028 104.78061,18.467743 125.08998,-1.8424559 157.82507,-2.0397029 177.891,18.02789 c 20.0626,20.057606 19.86411,52.807265 -0.44609,73.114551"
         fill="#ffffff"
         id="path22" />
    </g>
    <path
       d="m 170.92369,21.346966 c 8.2386,9.109982 9.38421,19.971882 5.27532,22.1932 -4.14219,2.300383 -11.76907,-2.307041 -18.84625,-8.40422 -6.95399,-6.171251 -11.45697,-13.714908 -8.51199,-18.954021 2.86715,-5.201662 13.83184,-3.994876 22.085,5.160047"
       fill="#ffffff"
       stroke="#000000"
       stroke-width="4.00002"
       id="path23" />
  </g>
</svg>
