<?xml version="1.0" encoding="UTF-8" standalone="no"?>
<svg
   height="709"
   viewBox="0 0 3840 709.00001"
   width="3840"
   version="1.1"
   id="svg15"
   sodipodi:docname="satellaview.svg"
   inkscape:version="1.3.2 (091e20e, 2023-11-25)"
   xmlns:inkscape="http://www.inkscape.org/namespaces/inkscape"
   xmlns:sodipodi="http://sodipodi.sourceforge.net/DTD/sodipodi-0.dtd"
   xmlns="http://www.w3.org/2000/svg"
   xmlns:svg="http://www.w3.org/2000/svg">
  <defs
     id="defs15" />
  <sodipodi:namedview
     id="namedview15"
     pagecolor="#ffffff"
     bordercolor="#000000"
     borderopacity="0.25"
     inkscape:showpageshadow="2"
     inkscape:pageopacity="0.0"
     inkscape:pagecheckerboard="true"
     inkscape:deskcolor="#d1d1d1"
     inkscape:zoom="0.21510417"
     inkscape:cx="1917.6755"
     inkscape:cy="353.31719"
     inkscape:window-width="1312"
     inkscape:window-height="449"
     inkscape:window-x="0"
     inkscape:window-y="39"
     inkscape:window-maximized="0"
     inkscape:current-layer="svg15" />
  <g
     id="g17">
    <g
       id="g16"
       transform="scale(1,1.0014124)">
      <g
         fill="#ffffff"
         transform="matrix(1.000272,0,0,0.99943372,-0.044326,0.001156)"
         id="g15">
        <path
           d="m 586.4,468.9 c -2.7,-15 -6.4,-30.1 -11.1,-45.3 6.4,-7.1 10.1,-16.5 10.1,-26.2 v -21.9 c 0,-3.5 -0.5,-6.9 -1.4,-10.3 -3,-11 -7,-22.8 -11.8,-35.1 0.1,-0.1 0.2,-0.2 0.3,-0.3 8.2,-7.4 12.9,-17.9 12.9,-29 v -32.9 c 0,-3.8 -0.6,-7.6 -1.7,-11.2 -3.1,-10.4 -7,-21.6 -11.6,-33.2 0.1,-0.1 0.2,-0.2 0.4,-0.3 8.2,-7.4 12.9,-17.9 12.9,-29 V 39 c 0,-21.5 -17.5,-39 -39,-39 H 471.2 C 458.7,0 447.1,5.9 439.9,15.8 437.9,13.9 436,12 434,10.2 426.8,3.6 417.4,0 407.7,0 H 360.6 C 347.4,0 335.4,6.6 328.3,17.1 323,13.4 317.6,9.7 312,6.2 305.7,2.1 298.4,0 290.9,0 H 180.7 c -19.5,0 -35.7,14 -38.5,33.3 -2.4,16.2 5.4,31.6 19,39.4 -40.1,1.8 -75.6,15 -103,38.6 -25.6,22 -43.1,51.4 -51.9,87.4 -7.9,32.5 -8.3,68.9 -1.3,108.4 8.4,47.2 27.2,96.1 54.5,143.3 -7,3.5 -13,8.8 -17.3,15.4 -7.9,12.4 -9,27.8 -2.8,41.3 20.3,44.6 28.6,64.9 28.6,87.1 0,5.6 0,20.4 -33.7,32.6 -18.4,6.6 -29.4,25.5 -26,44.8 3.4,19.3 20,33.3 39.6,33.3 h 260.4 c 12.5,0 24,-5.5 31.7,-14.5 27.6,8.6 54.8,13.2 80.6,13.2 44.1,0 83,-13.4 112.6,-38.8 25.6,-22 43.1,-51.4 51.9,-87.4 7.9,-32.5 8.4,-69 1.3,-108.5 z M 471.3,35.8 h 75.2 c 1.8,0 3.2,1.4 3.2,3.2 v 155.4 c 0,3.6 -5,4.5 -6.2,1.1 -16.8,-47.3 -45.1,-112.2 -74.8,-154.7 -1.5,-2.1 0,-5 2.6,-5 z m -110.8,0 h 47.1 c 0.8,0 1.6,0.3 2.2,0.8 66,60.4 121,168.5 139.7,230.5 0.1,0.3 0.1,0.6 0.1,0.9 v 32.9 c 0,3.6 -5,4.5 -6.2,1.1 -27,-75.5 -97.1,-192.6 -184.9,-260.5 -2.4,-1.9 -1,-5.7 2,-5.7 z m -179.8,0 h 110.2 c 0.6,0 1.2,0.2 1.7,0.5 132.2,85 232.9,250.2 256.9,338.4 0.1,0.3 0.1,0.6 0.1,0.9 v 21.9 c 0,3.6 -4.9,4.5 -6.2,1.1 C 495.8,274.9 374.2,100.7 179.8,42.1 176.3,41 177,35.8 180.7,35.8 Z M 308.4,669.1 H 48 c -5,0 -6.2,-7 -1.5,-8.7 28.1,-10.1 57.3,-29.5 57.3,-66.2 0,-30.3 -10.9,-55.9 -31.9,-102 -3.7,-8.1 7.2,-14.8 12.7,-7.9 69.6,86.9 160.7,148 226,172.8 6.4,2.5 4.6,12 -2.2,12 z M 510,637.6 C 428.8,707.3 267,652.1 148.6,514.3 30.2,376.5 0.2,208.2 81.4,138.4 162.6,68.7 324.4,123.9 442.8,261.7 561.1,399.6 591.2,567.9 510,637.6 Z"
           id="path1" />
        <ellipse
           cx="405.20001"
           cy="491.5"
           rx="76.5"
           ry="56.5"
           transform="matrix(0.9821,-0.1885,0.1885,0.9821,-85.384,85.1996)"
           id="ellipse1" />
        <ellipse
           cx="226.8"
           cy="459"
           rx="76.5"
           ry="56.5"
           transform="matrix(0.9821,-0.1885,0.1885,0.9821,-82.4586,50.9873)"
           id="ellipse2" />
        <path
           d="m 165.3,343.5 c -12.7,-8.8 -56.7,-110.8 23.2,-108.8 108.5,2.7 148.3,165 95.4,168.5 0,0 -16.8,-38.5 -64.2,-56.2 -37.1,-13.8 -54.4,-3.5 -54.4,-3.5 z"
           id="path2" />
        <path
           d="m 343.4,376.9 c -12.7,-8.8 -56.7,-110.8 23.2,-108.8 108.5,2.7 148.3,165 95.4,168.5 0,0 -16.8,-38.5 -64.2,-56.2 -37.1,-13.8 -54.4,-3.5 -54.4,-3.5 z"
           id="path3" />
        <path
           d="m 1311.1,537 v -11 c 0,-5.7 -4.6,-10.3 -10.3,-10.3 H 1279.6 1120 V 452 h 196.9 c 47,0 85.1,38.1 85.1,85.1 v 82.6 c 0,47 -38.1,85.1 -85.1,85.1 h -128 c -27.4,0 -48.6,-5.4 -63.8,-16.2 -15.1,-10.8 -22.7,-25.9 -22.7,-45.1 v -20.8 c 0,-17.7 11.8,-33.1 28.9,-37.6 z m -131.2,95.4 v 11.1 h 115.6 c 8.6,0 15.7,-7 15.7,-15.7 V 599 Z"
           id="path4" />
        <path
           d="m 2362.9,537 v -11 c 0,-5.7 -4.6,-10.3 -10.3,-10.3 h -21.1 -159.6 V 452 h 196.9 c 47,0 85.1,38.1 85.1,85.1 v 82.6 c 0,47 -38.1,85.1 -85.1,85.1 h -128 c -27.4,0 -48.6,-5.4 -63.8,-16.2 -15.1,-10.8 -22.7,-25.9 -22.7,-45.1 v -20.8 c 0,-17.7 11.8,-33.1 28.9,-37.6 z m -131.2,95.4 v 11.1 h 115.6 c 8.6,0 15.7,-7 15.7,-15.7 V 599 Z"
           id="path5" />
        <path
           d="m 1690.1,619.8 v 11 c 0,5.7 4.6,10.3 10.3,10.3 h 21.1 159.6 v 63.7 h -196.9 c -47,0 -85.1,-38.1 -85.1,-85.1 v -82.6 c 0,-47 38.1,-85.1 85.1,-85.1 h 128 c 27.4,0 48.6,5.4 63.8,16.2 15.1,10.8 22.7,25.9 22.7,45.1 v 20.8 c 0,17.7 -11.8,33.1 -28.9,37.6 z m 131.2,-95.4 v -11.1 h -115.6 c -8.6,0 -15.7,7 -15.7,15.7 v 28.8 z"
           id="path6" />
        <path
           d="m 3044.6,619.8 v 11 c 0,5.7 4.6,10.3 10.3,10.3 h 21.1 159.6 v 63.7 h -196.9 c -47,0 -85.1,-38.1 -85.1,-85.1 v -82.6 c 0,-47 38.1,-85.1 85.1,-85.1 h 128 c 27.4,0 48.6,5.4 63.8,16.2 15.1,10.8 22.7,25.9 22.7,45.1 v 20.8 c 0,17.7 -11.8,33.1 -28.9,37.6 z m 131.2,-95.4 v -11.1 h -115.6 c -8.6,0 -15.7,7 -15.7,15.7 v 28.8 z"
           id="path7" />
        <path
           d="m 1924.4,347.5 h 90.8 v 357.2 h -90.8 z"
           id="path8" />
        <path
           d="m 2038.7,347.5 h 90.8 v 357.2 h -90.8 z"
           id="path9" />
        <path
           d="m 2544.5,452 87.9,171.4 90.1,-171.4 h 93 l -121,229.1 c -4.4,8.5 -12,15.1 -23.1,20 -11.1,4.8 -23.6,7.3 -37.5,7.3 -14,0 -26.5,-2.5 -37.9,-7.3 -11.3,-4.8 -19.1,-11.5 -23.4,-20 l -121.1,-229 z"
           id="path10" />
        <path
           d="M 3746,452 3658.1,623.4 3592.6,452 h -93 L 3434.1,623.4 3346.2,452 h -93 l 121.1,229 c 4.4,8.5 12.2,15.1 23.4,20 11.3,4.8 23.9,7.3 37.9,7.3 13.9,0 26.4,-2.5 37.5,-7.3 11.1,-4.8 18.7,-11.5 23.1,-20 l 50,-118.6 50,118.6 c 4.4,8.5 12,15.1 23.1,20 11,4.8 23.5,7.3 37.5,7.3 14,0 26.6,-2.5 37.9,-7.3 11.3,-4.8 19.1,-11.5 23.4,-20 L 3839,452 Z"
           id="path11" />
        <path
           d="m 2839.2,452 h 90.8 v 252.7 h -90.8 z"
           id="path12" />
        <path
           d="M 1588.7,515.7 V 452 h -47.6 v -94.6 h -90.7 V 452 h -34.5 v 63.7 h 34.5 v 155.6 c 0,18.5 15,33.4 33.4,33.4 h 91.4 V 641 h -34.1 V 515.7 Z"
           id="path13" />
        <path
           d="m 982.4,487.8 h -178 c -15.9,0 -28.8,-12.9 -28.8,-28.8 v -15 c 0,-15.9 12.9,-28.8 28.8,-28.8 h 247.2 V 343.3 H 793.2 c -59.9,0.1 -108.5,48.6 -108.5,108.5 0,59.9 48.6,108.5 108.5,108.5 h 177.9 c 15.9,0 28.8,12.9 28.8,28.8 v 15 c 0,15.9 -12.9,28.8 -28.8,28.8 H 690.5 v 71.9 h 291.8 c 59.9,0 108.5,-48.6 108.5,-108.5 0.1,-59.9 -48.5,-108.5 -108.4,-108.5 z"
           id="path14" />
        <circle
           cx="2884.8"
           cy="385.39999"
           r="45.200001"
           id="circle14" />
        <path
           d="M 876.7,151 825,67.2 h -37.5 v 119.9 h 37.1 v -83.8 l 52,83.8 h 37.1 V 67.2 H 876.6 V 151 Z m 293.8,-43.6 V 95.6 h -19.6 V 79.4 h -36.1 v 16.2 h -19.6 v 11.8 h 19.6 v 79.7 h 36.1 v -79.7 z m -236.1,79.7 h 36.1 v -79.7 h -36.1 z m 0,-95.5 h 36.1 V 66.9 h -36.1 z m 631.7,10.4 c -29,0 -52.7,19.9 -52.7,44.9 0,24.6 23.6,44.9 52.7,44.9 29,0 52.7,-19.9 52.7,-44.9 0,-24.9 -23,-44.9 -52.7,-44.9 z m 14.5,61.5 c 0,12.8 -7.4,17.9 -14.9,17.9 -7.1,0 -14.9,-5.4 -14.9,-17.9 0,-4.7 0,-17.2 0,-17.2 0,0 0,-11.8 0,-16.5 0,-12.5 7.4,-17.9 14.9,-17.9 7.1,0 14.9,5.1 14.9,17.9 v 16.9 z m -114.2,-52 c -5.7,-3.4 -11.8,-6.4 -20.3,-7.1 -26,-2.4 -45.9,20.6 -45.9,41.9 0,27.7 21.3,38.2 24.6,39.5 12.2,5.7 27.7,5.7 41.5,-3 v 4.7 h 35.5 V 67.6 h -35.5 c 0.1,-0.4 0.1,25.3 0.1,43.9 z m 0,35.5 v 14.2 c 0,12.2 -8.4,15.5 -14.2,15.5 -5.8,0 -14.2,-3.4 -14.2,-15.5 0,-4.4 0,-14.2 0,-14.2 0,0 0,-10.1 0,-14.2 0,-12.5 8.4,-15.5 14.2,-15.5 5.8,0 14.2,3 14.2,15.5 z M 1055,103.7 c -11.8,0.3 -21.9,5.4 -28.7,12.2 0,-2 0,-8.4 0,-8.4 h -35.8 v 79.7 h 35.8 c 0,0 0,-49 0,-52.4 0,-7.1 7.4,-14.5 17.2,-14.5 9.8,0 16.5,7.8 16.5,14.5 v 52.4 h 35.8 c 0,0 0,-37.8 0,-43.2 0.1,-31.8 -27.3,-40.6 -40.8,-40.3 z m 293.2,0 c -11.8,0.3 -21.9,5.4 -28.7,12.2 0,-2 0,-8.4 0,-8.4 h -35.8 v 79.7 h 35.8 c 0,0 0,-49 0,-52.4 0,-7.1 7.4,-14.5 17.2,-14.5 9.8,0 16.5,7.8 16.5,14.5 v 52.4 h 35.8 c 0,0 0,-37.8 0,-43.2 -0.2,-31.8 -27.6,-40.6 -40.8,-40.3 z m -76,43.9 c 0,-24.6 -24,-45.3 -53.4,-45.3 -29.4,0 -53,19.9 -53,44.9 0,24.6 23.6,44.9 53,44.9 24.3,0 44.9,-13.8 51.3,-32.8 h -35.8 v 4.7 c 0,14.5 -9.5,17.9 -14.9,17.9 -5.4,0 -15.2,-3.4 -15.2,-17.9 0,-4.4 0,-16.5 0,-16.5 h 68 z m -65.2,-28 c 2.7,-5.1 8.1,-7.1 12.8,-7.4 4.7,0 9.8,2.4 12.8,7.4 2.4,4.1 2.4,8.8 2.4,15.5 h -30 c -0.7,-7.1 -0.7,-11.4 2,-15.5 z m 426.7,-37.5 c 0,-4.1 -3,-5.7 -8.8,-5.7 h -8.1 V 97 h 5.1 v -8.4 h 2.4 l 4.1,8.4 h 5.4 l -4.4,-9.1 c 2.6,-1.1 4.3,-3.1 4.3,-5.8 z m -9.5,3 h -2.4 V 79 h 2 c 3,0 4.4,1 4.4,3 0.4,2.5 -1.3,3.1 -4,3.1 z m 0,-16.9 c -10.1,0 -18.6,8.1 -18.6,18.6 0,10.1 8.4,18.6 18.6,18.6 10.1,0 18.6,-8.4 18.6,-18.6 0,-10.5 -8.5,-18.6 -18.6,-18.6 z m 0,33.5 c -8.1,0 -14.9,-6.8 -14.9,-14.9 0,-8.1 6.8,-14.9 14.9,-14.9 8.1,0 14.9,6.8 14.9,14.9 -0.1,8.1 -6.5,14.9 -14.9,14.9 z M 1584,0 H 819.9 c -80.7,-0.3 -135.1,58.1 -135.1,127.7 0,69.6 54,127 135.5,127 H 1584 c 81.1,0 135.5,-57.4 135.5,-127 C 1719.1,57.8 1664.7,-0.3 1584,0 Z m -0.3,223.6 H 820.2 c -64.5,0.3 -103.7,-42.9 -103.7,-96.3 0,-53.4 39.5,-95.9 103.7,-96.2 h 763.4 c 64.2,0 103.7,42.9 103.7,96.3 0,53.4 -39.4,96.2 -103.6,96.2 z M 1584,0 H 819.9 c -80.7,-0.3 -135.1,58.1 -135.1,127.7 0,69.6 54,127 135.5,127 H 1584 c 81.1,0 135.5,-57.4 135.5,-127 C 1719.1,57.8 1664.7,-0.3 1584,0 Z m -0.3,223.6 H 820.2 c -64.5,0.3 -103.7,-42.9 -103.7,-96.3 0,-53.4 39.5,-95.9 103.7,-96.2 h 763.4 c 64.2,0 103.7,42.9 103.7,96.3 0,53.4 -39.4,96.2 -103.6,96.2 z M 1584,0 H 819.9 c -80.7,-0.3 -135.1,58.1 -135.1,127.7 0,69.6 54,127 135.5,127 H 1584 c 81.1,0 135.5,-57.4 135.5,-127 C 1719.1,57.8 1664.7,-0.3 1584,0 Z m -0.3,223.6 H 820.2 c -64.5,0.3 -103.7,-42.9 -103.7,-96.3 0,-53.4 39.5,-95.9 103.7,-96.2 h 763.4 c 64.2,0 103.7,42.9 103.7,96.3 0,53.4 -39.4,96.2 -103.6,96.2 z"
           id="path15" />
      </g>
    </g>
  </g>
</svg>
