<svg enable-background="new 0 0 3839 708.3" viewBox="0 0 3839 708.3" xmlns="http://www.w3.org/2000/svg"><g fill="#fff"><path d="m586.4 468.9c-2.7-15-6.4-30.1-11.1-45.3 6.4-7.1 10.1-16.5 10.1-26.2v-21.9c0-3.5-.5-6.9-1.4-10.3-3-11-7-22.8-11.8-35.1.1-.1.2-.2.3-.3 8.2-7.4 12.9-17.9 12.9-29v-32.9c0-3.8-.6-7.6-1.7-11.2-3.1-10.4-7-21.6-11.6-33.2.1-.1.2-.2.4-.3 8.2-7.4 12.9-17.9 12.9-29v-155.2c0-21.5-17.5-39-39-39h-75.2c-12.5 0-24.1 5.9-31.3 15.8-2-1.9-3.9-3.8-5.9-5.6-7.2-6.6-16.6-10.2-26.3-10.2h-47.1c-13.2 0-25.2 6.6-32.3 17.1-5.3-3.7-10.7-7.4-16.3-10.9-6.3-4.1-13.6-6.2-21.1-6.2h-110.2c-19.5 0-35.7 14-38.5 33.3-2.4 16.2 5.4 31.6 19 39.4-40.1 1.8-75.6 15-103 38.6-25.6 22-43.1 51.4-51.9 87.4-7.9 32.5-8.3 68.9-1.3 108.4 8.4 47.2 27.2 96.1 54.5 143.3-7 3.5-13 8.8-17.3 15.4-7.9 12.4-9 27.8-2.8 41.3 20.3 44.6 28.6 64.9 28.6 87.1 0 5.6 0 20.4-33.7 32.6-18.4 6.6-29.4 25.5-26 44.8s20 33.3 39.6 33.3h260.4c12.5 0 24-5.5 31.7-14.5 27.6 8.6 54.8 13.2 80.6 13.2 44.1 0 83-13.4 112.6-38.8 25.6-22 43.1-51.4 51.9-87.4 7.9-32.5 8.4-69 1.3-108.5zm-115.1-433.1h75.2c1.8 0 3.2 1.4 3.2 3.2v155.4c0 3.6-5 4.5-6.2 1.1-16.8-47.3-45.1-112.2-74.8-154.7-1.5-2.1 0-5 2.6-5zm-110.8 0h47.1c.8 0 1.6.3 2.2.8 66 60.4 121 168.5 139.7 230.5.1.3.1.6.1.9v32.9c0 3.6-5 4.5-6.2 1.1-27-75.5-97.1-192.6-184.9-260.5-2.4-1.9-1-5.7 2-5.7zm-179.8 0h110.2c.6 0 1.2.2 1.7.5 132.2 85 232.9 250.2 256.9 338.4.1.3.1.6.1.9v21.9c0 3.6-4.9 4.5-6.2 1.1-47.6-123.7-169.2-297.9-363.6-356.5-3.5-1.1-2.8-6.3.9-6.3zm127.7 633.3h-260.4c-5 0-6.2-7-1.5-8.7 28.1-10.1 57.3-29.5 57.3-66.2 0-30.3-10.9-55.9-31.9-102-3.7-8.1 7.2-14.8 12.7-7.9 69.6 86.9 160.7 148 226 172.8 6.4 2.5 4.6 12-2.2 12zm201.6-31.5c-81.2 69.7-243 14.5-361.4-123.3s-148.4-306.1-67.2-375.9c81.2-69.7 243-14.5 361.4 123.3 118.3 137.9 148.4 306.2 67.2 375.9z"/><ellipse cx="405.2" cy="491.5" rx="76.5" ry="56.5" transform="matrix(.9821 -.1885 .1885 .9821 -85.384 85.1996)"/><ellipse cx="226.8" cy="459" rx="76.5" ry="56.5" transform="matrix(.9821 -.1885 .1885 .9821 -82.4586 50.9873)"/><path d="m165.3 343.5c-12.7-8.8-56.7-110.8 23.2-108.8 108.5 2.7 148.3 165 95.4 168.5 0 0-16.8-38.5-64.2-56.2-37.1-13.8-54.4-3.5-54.4-3.5z"/><path d="m343.4 376.9c-12.7-8.8-56.7-110.8 23.2-108.8 108.5 2.7 148.3 165 95.4 168.5 0 0-16.8-38.5-64.2-56.2-37.1-13.8-54.4-3.5-54.4-3.5z"/><path d="m1311.1 537v-11c0-5.7-4.6-10.3-10.3-10.3h-21.2-159.6v-63.7h196.9c47 0 85.1 38.1 85.1 85.1v82.6c0 47-38.1 85.1-85.1 85.1h-128c-27.4 0-48.6-5.4-63.8-16.2-15.1-10.8-22.7-25.9-22.7-45.1v-20.8c0-17.7 11.8-33.1 28.9-37.6zm-131.2 95.4v11.1h115.6c8.6 0 15.7-7 15.7-15.7v-28.8z"/><path d="m2362.9 537v-11c0-5.7-4.6-10.3-10.3-10.3h-21.1-159.6v-63.7h196.9c47 0 85.1 38.1 85.1 85.1v82.6c0 47-38.1 85.1-85.1 85.1h-128c-27.4 0-48.6-5.4-63.8-16.2-15.1-10.8-22.7-25.9-22.7-45.1v-20.8c0-17.7 11.8-33.1 28.9-37.6zm-131.2 95.4v11.1h115.6c8.6 0 15.7-7 15.7-15.7v-28.8z"/><path d="m1690.1 619.8v11c0 5.7 4.6 10.3 10.3 10.3h21.1 159.6v63.7h-196.9c-47 0-85.1-38.1-85.1-85.1v-82.6c0-47 38.1-85.1 85.1-85.1h128c27.4 0 48.6 5.4 63.8 16.2 15.1 10.8 22.7 25.9 22.7 45.1v20.8c0 17.7-11.8 33.1-28.9 37.6zm131.2-95.4v-11.1h-115.6c-8.6 0-15.7 7-15.7 15.7v28.8z"/><path d="m3044.6 619.8v11c0 5.7 4.6 10.3 10.3 10.3h21.1 159.6v63.7h-196.9c-47 0-85.1-38.1-85.1-85.1v-82.6c0-47 38.1-85.1 85.1-85.1h128c27.4 0 48.6 5.4 63.8 16.2 15.1 10.8 22.7 25.9 22.7 45.1v20.8c0 17.7-11.8 33.1-28.9 37.6zm131.2-95.4v-11.1h-115.6c-8.6 0-15.7 7-15.7 15.7v28.8z"/><path d="m1924.4 347.5h90.8v357.2h-90.8z"/><path d="m2038.7 347.5h90.8v357.2h-90.8z"/><path d="m2544.5 452 87.9 171.4 90.1-171.4h93l-121 229.1c-4.4 8.5-12 15.1-23.1 20-11.1 4.8-23.6 7.3-37.5 7.3-14 0-26.5-2.5-37.9-7.3-11.3-4.8-19.1-11.5-23.4-20l-121.1-229z"/><path d="m3746 452-87.9 171.4-65.5-171.4h-93l-65.5 171.4-87.9-171.4h-93l121.1 229c4.4 8.5 12.2 15.1 23.4 20 11.3 4.8 23.9 7.3 37.9 7.3 13.9 0 26.4-2.5 37.5-7.3s18.7-11.5 23.1-20l50-118.6 50 118.6c4.4 8.5 12 15.1 23.1 20 11 4.8 23.5 7.3 37.5 7.3s26.6-2.5 37.9-7.3 19.1-11.5 23.4-20l120.9-229z"/><path d="m2839.2 452h90.8v252.7h-90.8z"/><path d="m1588.7 515.7v-63.7h-47.6v-94.6h-90.7v94.6h-34.5v63.7h34.5v155.6c0 18.5 15 33.4 33.4 33.4h91.4v-63.7h-34.1v-125.3z"/><path d="m982.4 487.8h-178c-15.9 0-28.8-12.9-28.8-28.8v-15c0-15.9 12.9-28.8 28.8-28.8h247.2v-71.9h-258.4c-59.9.1-108.5 48.6-108.5 108.5s48.6 108.5 108.5 108.5h177.9c15.9 0 28.8 12.9 28.8 28.8v15c0 15.9-12.9 28.8-28.8 28.8h-280.6v71.9h291.8c59.9 0 108.5-48.6 108.5-108.5.1-59.9-48.5-108.5-108.4-108.5z"/><circle cx="2884.8" cy="385.4" r="45.2"/><path d="m876.7 151-51.7-83.8h-37.5v119.9h37.1v-83.8l52 83.8h37.1v-119.9h-37.1v83.8zm293.8-43.6v-11.8h-19.6v-16.2h-36.1v16.2h-19.6v11.8h19.6v79.7h36.1v-79.7zm-236.1 79.7h36.1v-79.7h-36.1zm0-95.5h36.1v-24.7h-36.1zm631.7 10.4c-29 0-52.7 19.9-52.7 44.9 0 24.6 23.6 44.9 52.7 44.9 29 0 52.7-19.9 52.7-44.9 0-24.9-23-44.9-52.7-44.9zm14.5 61.5c0 12.8-7.4 17.9-14.9 17.9-7.1 0-14.9-5.4-14.9-17.9 0-4.7 0-17.2 0-17.2s0-11.8 0-16.5c0-12.5 7.4-17.9 14.9-17.9 7.1 0 14.9 5.1 14.9 17.9v16.9zm-114.2-52c-5.7-3.4-11.8-6.4-20.3-7.1-26-2.4-45.9 20.6-45.9 41.9 0 27.7 21.3 38.2 24.6 39.5 12.2 5.7 27.7 5.7 41.5-3v4.7h35.5v-119.9h-35.5c.1-.4.1 25.3.1 43.9zm0 35.5v14.2c0 12.2-8.4 15.5-14.2 15.5s-14.2-3.4-14.2-15.5c0-4.4 0-14.2 0-14.2s0-10.1 0-14.2c0-12.5 8.4-15.5 14.2-15.5s14.2 3 14.2 15.5zm-411.4-43.3c-11.8.3-21.9 5.4-28.7 12.2 0-2 0-8.4 0-8.4h-35.8v79.7h35.8s0-49 0-52.4c0-7.1 7.4-14.5 17.2-14.5s16.5 7.8 16.5 14.5v52.4h35.8s0-37.8 0-43.2c.1-31.8-27.3-40.6-40.8-40.3zm293.2 0c-11.8.3-21.9 5.4-28.7 12.2 0-2 0-8.4 0-8.4h-35.8v79.7h35.8s0-49 0-52.4c0-7.1 7.4-14.5 17.2-14.5s16.5 7.8 16.5 14.5v52.4h35.8s0-37.8 0-43.2c-.2-31.8-27.6-40.6-40.8-40.3zm-76 43.9c0-24.6-24-45.3-53.4-45.3s-53 19.9-53 44.9c0 24.6 23.6 44.9 53 44.9 24.3 0 44.9-13.8 51.3-32.8h-35.8v4.7c0 14.5-9.5 17.9-14.9 17.9s-15.2-3.4-15.2-17.9c0-4.4 0-16.5 0-16.5h68zm-65.2-28c2.7-5.1 8.1-7.1 12.8-7.4 4.7 0 9.8 2.4 12.8 7.4 2.4 4.1 2.4 8.8 2.4 15.5h-30c-.7-7.1-.7-11.4 2-15.5zm426.7-37.5c0-4.1-3-5.7-8.8-5.7h-8.1v20.6h5.1v-8.4h2.4l4.1 8.4h5.4l-4.4-9.1c2.6-1.1 4.3-3.1 4.3-5.8zm-9.5 3h-2.4v-6.1h2c3 0 4.4 1 4.4 3 .4 2.5-1.3 3.1-4 3.1zm0-16.9c-10.1 0-18.6 8.1-18.6 18.6 0 10.1 8.4 18.6 18.6 18.6 10.1 0 18.6-8.4 18.6-18.6 0-10.5-8.5-18.6-18.6-18.6zm0 33.5c-8.1 0-14.9-6.8-14.9-14.9s6.8-14.9 14.9-14.9 14.9 6.8 14.9 14.9c-.1 8.1-6.5 14.9-14.9 14.9zm-40.2-101.7h-764.1c-80.7-.3-135.1 58.1-135.1 127.7s54 127 135.5 127h763.7c81.1 0 135.5-57.4 135.5-127-.4-69.9-54.8-128-135.5-127.7zm-.3 223.6h-763.5c-64.5.3-103.7-42.9-103.7-96.3s39.5-95.9 103.7-96.2h763.4c64.2 0 103.7 42.9 103.7 96.3s-39.4 96.2-103.6 96.2zm.3-223.6h-764.1c-80.7-.3-135.1 58.1-135.1 127.7s54 127 135.5 127h763.7c81.1 0 135.5-57.4 135.5-127-.4-69.9-54.8-128-135.5-127.7zm-.3 223.6h-763.5c-64.5.3-103.7-42.9-103.7-96.3s39.5-95.9 103.7-96.2h763.4c64.2 0 103.7 42.9 103.7 96.3s-39.4 96.2-103.6 96.2zm.3-223.6h-764.1c-80.7-.3-135.1 58.1-135.1 127.7s54 127 135.5 127h763.7c81.1 0 135.5-57.4 135.5-127-.4-69.9-54.8-128-135.5-127.7zm-.3 223.6h-763.5c-64.5.3-103.7-42.9-103.7-96.3s39.5-95.9 103.7-96.2h763.4c64.2 0 103.7 42.9 103.7 96.3s-39.4 96.2-103.6 96.2z"/></g></svg>