<?xml version="1.0" encoding="UTF-8" standalone="no"?>
<svg
   enable-background="new 0 0 3839 793.5"
   viewBox="0 0 3840 794"
   version="1.1"
   id="svg31"
   sodipodi:docname="saturn.svg"
   width="3840"
   height="794"
   inkscape:version="1.3.2 (091e20e, 2023-11-25)"
   xmlns:inkscape="http://www.inkscape.org/namespaces/inkscape"
   xmlns:sodipodi="http://sodipodi.sourceforge.net/DTD/sodipodi-0.dtd"
   xmlns="http://www.w3.org/2000/svg"
   xmlns:svg="http://www.w3.org/2000/svg">
  <defs
     id="defs31" />
  <sodipodi:namedview
     id="namedview31"
     pagecolor="#ffffff"
     bordercolor="#000000"
     borderopacity="0.25"
     inkscape:showpageshadow="2"
     inkscape:pageopacity="0.0"
     inkscape:pagecheckerboard="0"
     inkscape:deskcolor="#d1d1d1"
     inkscape:zoom="0.24563688"
     inkscape:cx="1917.4645"
     inkscape:cy="394.89183"
     inkscape:window-width="1312"
     inkscape:window-height="449"
     inkscape:window-x="0"
     inkscape:window-y="23"
     inkscape:window-maximized="0"
     inkscape:current-layer="svg31" />
  <clipPath
     id="a">
    <circle
       cx="303.89999"
       cy="402.89999"
       r="190"
       id="circle1" />
  </clipPath>
  <clipPath
     id="b">
    <path
       d="m 212,475 c 25.5,-5.7 51.1,-11.3 76.4,-17.9 25.5,-6.6 50.5,-14.8 75.2,-23.8 24.6,-9 49,-18.6 73.4,-28.4 11.5,-4.6 23.1,-8.8 34.9,-12.9 7.1,-2.5 14.2,-5 21.1,-7.9 -2.9,-29.4 -12.5,-56.8 -27.3,-80.7 -21.8,7.8 -44.4,13.3 -66.6,19.8 -24.8,7.3 -49.5,14.7 -74.1,22.8 -24.6,8.1 -49,16.5 -73.7,24.2 -24.9,7.8 -49.9,15.1 -74.6,23.2 -20.7,6.8 -41.2,14.6 -62.4,19.9 1.5,28.2 9.2,54.8 21.7,78.4 25.7,-3.4 50.7,-11 76,-16.7 z"
       id="path1" />
  </clipPath>
  <clipPath
     id="c">
    <circle
       cx="303.89999"
       cy="402.89999"
       r="190"
       id="circle2" />
  </clipPath>
  <g
     id="g32"
     transform="matrix(1.000226,0,0,1.0005984,0.11932526,-0.05231721)">
    <g
       clip-path="url(#a)"
       id="g2">
      <path
         d="m 255.9,592.4 -153.4,-154.6 28.6,59.4 94.1,91.5 z"
         fill="#ffffff"
         id="path2" />
    </g>
    <g
       fill="#ffffff"
       id="g7">
      <path
         clip-path="url(#b)"
         d="m 99.4,574.1 c -9.2,0 -18.1,-0.2 -26.9,-0.6 -13.2,-0.6 -23.7,-11.6 -23.2,-24.9 0.5,-13.4 11.8,-23.8 25.2,-23.1 74.9,3.8 176.4,-11 271.5,-39.5 92.9,-28 166.2,-64.5 196,-97.9 3.5,-3.9 8.6,-10.3 10.9,-16.8 1.5,-4.4 -1.2,-9.2 -5.9,-10 -10,-1.6 -32.3,-1.9 -80.4,9.7 -51,12.2 -114.5,33.3 -175.9,53.8 C 227.1,446 167.1,466 119.1,477.1 71,488.3 19.7,494.7 4.7,458.4 -1.3,444.1 -4.5,421.5 13.9,395 53.5,338.1 174.8,295 243.6,274.4 346.7,243.3 456.7,225 523.7,227.6 c 13.3,0.5 23.6,11.6 23.1,24.9 -0.5,13.3 -11.6,23.6 -24.9,23.1 -62.2,-2.4 -166,15.1 -264.7,44.7 -103.8,31 -182,70.1 -204.2,101.9 -1.1,1.6 -2.1,3.2 -2.8,4.6 -2.1,3.9 -0.4,10.4 6.6,11 10.5,0.9 30.5,-1.5 66.8,-11.3 43.6,-11.6 96.2,-28.7 152,-47.3 159.3,-53.1 259.2,-83.4 303.3,-56.7 12.3,7.4 20.1,18.8 22.3,33 3.5,21.5 -4.4,43.2 -23.6,64.5 -36,40.2 -115.5,81 -218,111.8 -90.4,27.3 -183.5,42.3 -260.2,42.3 z"
         id="path3" />
      <path
         d="m 448.2,279.4 c 27.9,-3.3 53,-4.7 73.5,-3.9 13.3,0.5 24.4,-9.8 24.9,-23.1 0.5,-13.3 -9.8,-24.4 -23.1,-24.9 -33.2,-1.3 -76.9,2.6 -125.1,10.6 19,10.9 35.8,24.9 49.8,41.3 z"
         id="path4" />
      <path
         d="m 56.8,437.8 c -7,-0.6 -8.6,-7.1 -6.6,-11 0.7,-1.4 1.6,-3 2.8,-4.6 10.2,-14.6 32.1,-30.7 62.9,-46.9 3.3,-22.4 10.4,-43.5 20.8,-62.7 -51,21.9 -100.3,49.9 -123,82.4 -18.3,26.4 -15.1,49.1 -9.2,63.4 15,36.3 66.4,29.8 114.6,18.7 2.9,-0.7 5.8,-1.4 8.8,-2.1 -6,-14.7 -10.2,-30.2 -12.4,-46.4 -31.2,8 -49,10.1 -58.7,9.2 z"
         id="path5" />
      <path
         d="m 601.2,355.5 c -2.3,-14.2 -10,-25.6 -22.3,-33 -21.4,-12.9 -55.9,-12.5 -104,-2.5 7,14.4 12.2,29.8 15.4,45.9 32.2,-6.3 48.7,-5.9 56.9,-4.5 4.6,0.8 7.4,5.6 5.9,10 -2.3,6.5 -7.4,12.9 -10.9,16.8 -11,12.3 -28,25.1 -49.6,37.6 -2.7,22.7 -9.4,44.2 -19.4,63.7 47.1,-21.9 83.4,-45.8 104.6,-69.4 19,-21.4 26.9,-43.1 23.4,-64.6 z"
         id="path6" />
      <path
         d="m 156.9,523.3 c -29.6,2.7 -57.4,3.5 -82.3,2.2 -13.4,-0.7 -24.7,9.7 -25.2,23.1 -0.5,13.3 10,24.3 23.2,24.9 8.7,0.4 17.7,0.6 26.9,0.6 33.1,0 69.2,-2.8 106.8,-8.2 -18.8,-11.3 -35.5,-25.7 -49.4,-42.6 z"
         id="path7" />
    </g>
    <g
       fill="none"
       id="g11">
      <path
         d="m 398.5,238.2 c -27.8,-16 -60.1,-25.2 -94.6,-25.2 -72.2,0 -135,40.3 -167.1,99.6 38.2,-16.4 77.3,-29.4 106.7,-38.2 52.1,-15.7 105.9,-28.1 155,-36.2 z"
         id="path8" />
      <path
         d="m 116,375.3 c -1.3,9 -2,18.3 -2,27.7 0,8.7 0.6,17.3 1.7,25.7 2.6,-0.7 5.2,-1.4 8,-2.1 43.6,-11.6 96.2,-28.7 152,-47.3 82,-27.3 148.2,-48.6 199.2,-59.2 -7.1,-14.7 -16.1,-28.3 -26.6,-40.6 -56.6,6.6 -125,21 -191.1,40.8 C 201,337 152.3,356.2 116,375.3 Z"
         id="path9" />
      <path
         d="m 206.3,565.9 c 28.5,17.1 61.9,27 97.7,27 73.8,0 137.7,-42 169.2,-103.4 -32.9,15.3 -71.2,29.7 -113.4,42.3 -51.6,15.5 -103.9,27 -153.5,34.1 z"
         id="path10" />
      <path
         d="m 492.5,425.8 c 0.9,-7.5 1.4,-15.1 1.4,-22.8 0,-12.7 -1.2,-25.1 -3.6,-37 -7,1.4 -14.8,3.1 -23.5,5.1 -51,12.2 -114.5,33.3 -175.9,53.8 -59.8,19.9 -116.4,38.8 -162.8,50.2 7.2,17.6 17,33.8 28.8,48.3 59.4,-5.4 125.7,-18.3 189.2,-37.3 58.6,-17.8 109.4,-38.8 146.4,-60.3 z"
         id="path11" />
    </g>
    <g
       clip-path="url(#c)"
       fill="#ffffff"
       id="g26">
      <path
         d="m 324.6,136.8 c 0,0 104,124.7 128.6,148.5 23.7,22.9 170.8,148 170.8,148 l -4.3,19.9 -319.9,-310.9"
         id="path12" />
      <path
         d="m 304.5,152.3 c 0,0 105.3,124.6 129.9,148.4 23.7,22.9 169.4,148.4 169.4,148.4 l -5.1,19.4 -318.3,-310.3"
         id="path13" />
      <path
         d="m 284.5,167.8 c 0,0 106.5,124.5 131.1,148.3 23.7,22.9 168,148.9 168,148.9 l -5.9,18.9 -316.8,-309.8"
         id="path14" />
      <path
         d="m 264.4,183.2 c 0,0 107.8,124.5 132.4,148.2 23.7,22.9 166.5,149.3 166.5,149.3 L 556.6,499.1 241.5,190"
         id="path15" />
      <path
         d="m 244.3,198.7 c 0,0 109.1,124.4 133.6,148.1 C 401.6,369.7 543,496.6 543,496.6 L 535.5,514.5 222,205.9"
         id="path16" />
      <path
         d="m 224.2,214.1 c 0,0 110.3,124.3 134.9,148 23.7,22.9 163.7,150.2 163.7,150.2 l -8.3,17.4 -312,-308"
         id="path17" />
      <path
         d="m 204.2,229.6 c 0,0 111.6,124.2 136.2,148 23.7,22.9 162.2,150.7 162.2,150.7 l -9.1,16.9 -310.4,-307.5"
         id="path18" />
      <path
         d="m 184.1,245 c 0,0 112.8,124.1 137.4,147.9 23.7,23 160.8,151.1 160.8,151.1 l -9.9,16.4 -308.7,-306.8"
         id="path19" />
      <path
         d="m 164,260.5 c 0,0 114.1,124 138.7,147.8 23.7,22.9 159.4,151.6 159.4,151.6 L 451.4,575.8 144.2,269.5"
         id="path20" />
      <path
         d="m 144,276 c 0,0 115.3,123.9 139.9,147.7 23.7,22.9 157.9,152 157.9,152 L 430.3,591 124.8,285.4"
         id="path21" />
      <path
         d="m 123.9,291.4 c 0,0 116.6,123.8 141.2,147.6 23.7,22.9 156.5,152.5 156.5,152.5 l -12.3,14.9 -304,-305.1"
         id="path22" />
      <path
         d="m 103.8,306.9 c 0,0 117.8,123.7 142.4,147.5 23.7,22.9 155.1,152.9 155.1,152.9 L 388.2,621.7 85.9,317.2"
         id="path23" />
      <path
         d="m 83.8,322.3 c 0,0 119.1,123.7 143.7,147.4 23.7,22.9 153.6,153.4 153.6,153.4 L 367.2,637 66.4,333.1"
         id="path24" />
      <path
         d="m 63.7,337.8 c 0,0 120.3,123.6 144.9,147.3 23.7,22.9 152.2,153.8 152.2,153.8 L 346.2,652.3 47,349"
         id="path25" />
      <path
         d="m 43.6,353.3 c 0,0 121.6,123.5 146.2,147.2 23.7,22.9 150.8,154.3 150.8,154.3 L 325.2,667.7 27.5,364.9"
         id="path26" />
    </g>
    <g
       clip-path="url(#c)"
       id="g27">
      <path
         d="M 166.1,503.6 H 181 v 63.9 h -14.9 z"
         fill="#ffffff"
         transform="matrix(0.7482,-0.6634,0.6634,0.7482,-311.622,249.9627)"
         id="path27" />
    </g>
    <g
       clip-path="url(#c)"
       id="g28">
      <path
         d="m 438.7,248.7 h 13.6 v 44 h -13.6 z"
         fill="#ffffff"
         transform="matrix(0.7071,-0.7071,0.7071,0.7071,-60.9272,394.3088)"
         id="path28" />
    </g>
    <g
       fill="#ffffff"
       id="g31">
      <path
         d="m 2044.6,6.3 c 3,-1.5 6.5,-3.2 10.5,-5 13.2,-6.2 23.7,12.3 11.6,20.5 -4.2,2.9 -8,5.5 -11.1,7.6 -38.8,27.2 -72.7,59.2 -72.7,167.4 0,135.9 112.5,268.4 112.5,366.9 0,76.4 -21.6,146.5 -191.1,228.7 -5.6,2.7 -12.2,0.6 -15.3,-4.7 -3.3,-5.7 -1.1,-13 4.6,-16.1 67.7,-36.2 87.6,-111.2 84.7,-175.6 -6,-134 -114.5,-249.2 -112.5,-359.1 C 1867,171.3 1893,82.6 2044.6,6.3 Z"
         id="path29" />
      <path
         d="m 1938.7,552.3 c -9.6,-3.6 -29.1,-13.9 -41.4,-41.1 L 1763,213.4 c -5.7,-12.7 -23.5,-13.2 -29.9,-0.9 l -99.4,188.7 c -5.1,9.8 -15.3,15.9 -26.3,15.9 h -119.2 -4 c -4,0 -8,3.2 -8.6,7.1 -0.8,5.1 2.9,9.5 7.8,9.9 33.1,3 53,25.1 52.7,60.8 -0.2,32.9 -27.7,59.9 -60.7,59.9 h -8.6 c -88.3,0 -92.1,-101.4 -92.1,-123.6 0,-25.8 0,-77.6 0,-77.6 0,-38.1 15.3,-104.9 89.7,-104.9 69.5,0 108.5,32 140.3,74.4 5.2,7 16.3,1.2 13.6,-7.1 l -27.9,-87.4 c -2.7,-8.4 -12.6,-12.1 -20.2,-7.5 -20.5,12.6 -32.5,10.5 -32.5,10.5 -10.1,0.3 -42.2,-8.8 -81.2,-8.8 -62.2,0 -112.5,24.7 -146.9,57.9 -3.4,3.3 -9.1,2.2 -10.8,-2.3 l -15.4,-37.5 c -3.2,-7.8 -7.3,-12.8 -15.7,-12.8 H 1090.5 V 228 h -92.2 c -5.9,0 -11.6,-0.2 -17.5,-0.5 -31.6,-1.7 -142.6,-7.5 -199.4,-7.5 -71.2,0 -127,22.3 -132.6,74.8 -4.2,39.5 23.2,60.1 38.9,74.5 8.5,7.8 48.5,33.1 69,42.6 21.4,9.9 106.8,52.7 98,86.6 -8.8,33.6 -37.7,41.9 -71,41.9 -52.3,0 -108.4,-43.3 -150,-82.1 -7.2,-6.8 -18.4,1.6 -13.9,10.5 17.2,33.6 39.2,74.5 53.6,96.1 4.1,6.1 11.5,9.1 18.7,7.2 15.5,-3.9 35.6,-6 47.8,-5.4 15.7,0.7 48.6,5 63,5 119.8,0 157.3,-31.5 161.2,-86.1 5.4,-75.1 -84.3,-125.1 -138.9,-147 -48.8,-19.7 -67.7,-49.3 -65.6,-64 3.4,-25.5 27.7,-29.8 48,-29 63,2.4 181.8,33.1 181.8,76.3 v 200.5 c 0,11.2 -12.2,31.4 -27.7,31.4 h -0.3 c -2.8,0 -5.6,1 -7.6,3 -5.4,5.4 -1.6,11.7 3.5,11.7 h 66.9 66.3 189.1 c 6.1,0 11.4,-3.6 13.8,-9.3 l 10.3,-25.1 c 2,-4.8 8.1,-6.3 12,-2.8 33.7,30.5 83.1,49.6 150.6,49.6 15.7,0 48.4,-4.3 63.6,-9.9 4.8,-1.7 10,-2.7 15.1,-2.7 h 126.5 20.4 c 7.5,0 11.1,-9.4 5.5,-14.4 -2.5,-2.2 -4.7,-4.2 -6.3,-5.7 -12,-10.9 -11.5,-18.3 -11.8,-24.6 -0.3,-6.2 1,-12.3 3.9,-17.9 l 89.6,-170.2 76.5,169.9 c 2.6,5.7 3.8,11.9 3.3,18.1 -0.1,0.8 -0.1,1.5 -0.2,2.1 -1.4,8 -8.6,24.2 -22.1,24.2 h -2.2 c -3.3,0 -6.6,1.1 -9.1,3.3 -7.5,6.7 -2.9,15.1 3.7,15.1 H 1936 c 5.2,0 9.4,-4.7 8.3,-10.1 -0.5,-2.4 -2.7,-4.8 -5.6,-5.8 z M 1280.8,315.8 c -15.4,24.3 -23.8,50 -23.8,72.6 0,30.1 5.6,59.6 17.3,86 2.6,5.8 1.4,12.6 -3,17.1 -21.7,22 -69.1,52.7 -136.9,52.7 h -16.6 c -15.1,0 -27.4,-12.2 -27.4,-27.4 v -92.3 -4.9 c 0,-5.1 7.7,-11.5 16.4,-9.8 13.3,2.6 36.6,10.9 55.3,21.7 13.1,7.6 24.9,15.5 38.5,26.8 6,4.9 15,0.6 15,-7.1 v -29 -57.3 -29 c 0,-7.7 -9.1,-12 -15,-7.1 -13.6,11.2 -25.4,19.1 -38.5,26.8 -18.6,10.7 -42.7,22 -55.9,25.1 -10.2,2.4 -13.8,-1.6 -15.7,-5.5 V 369.6 279 c 0,-14.4 11.7,-26.1 26.1,-26.1 h 33.5 c 54.9,0 105,31.5 129.1,52.3 3.1,2.5 3.8,7.2 1.6,10.6 z"
         id="path30" />
      <path
         d="m 3838.7,232.1 c -0.8,-2.4 -3.2,-3.9 -5.8,-3.9 h -26.3 -49.5 -26.3 c -2.6,0 -4.9,1.5 -5.8,3.9 -1.1,3.3 0.7,6.6 3.7,7.6 9.5,3.1 32.2,13.1 32.2,36.9 v 143.1 c 0,5.5 -6.4,8.4 -10.6,4.9 L 3599.9,299.8 c -46.9,-39 -113.4,-64.9 -157.3,-79.1 -9.7,-3.1 -16.4,9.7 -8.2,15.8 1.4,1.1 2.9,2.2 4.4,3.3 50.1,37.7 55.5,91.7 55.5,97.8 v 192.4 9.3 c 0,7.2 -5.9,13.1 -13.1,13.1 -16.8,0 -54.3,-27.3 -73.5,-47.3 -18,-18.8 -26.6,-44.8 -46.8,-68.5 -16.1,-18.8 -29.7,-25.8 -29.7,-25.8 101.1,0 104.1,-82 104.1,-91.2 0,-13.7 0,-91.6 -126.6,-91.6 h -292.1 -49.7 c -2.6,0 -4.9,1.5 -5.8,3.9 -1.1,3.3 0.7,6.7 3.7,7.6 9.5,3.1 32.2,13.1 32.2,36.9 v 180.1 c 0,62.2 -43.5,83 -78.4,83 -63.6,0 -88,-37.5 -88,-84.6 V 427.6 276.4 c 0,-23.9 22.7,-33.9 32.2,-36.9 2.5,-0.8 4.1,-3 4.1,-5.6 v -0.1 c 0,-3.2 -2.6,-5.9 -5.9,-5.9 h -114 -17.5 -229.9 -117.1 c -7.1,0 -13.7,4.1 -16.8,10.5 l -18.8,39 c -3.2,6.7 4.4,13.3 10.6,9.2 25.2,-17.1 67.6,-36.7 129.6,-39.1 6.8,-0.2 12.4,5.2 12.4,12 v 246.9 c 0,11.7 -4.3,20.8 -10.2,27.7 -4.5,5.4 -11.3,8.4 -18.4,8.4 h -15.2 c -4.9,0 -9.9,-1.3 -14.1,-4.1 -9.7,-6.3 -18.8,-15.1 -24.4,-27.5 L 2282.9,213.1 c -5.8,-12.7 -23.5,-13.2 -29.9,-0.9 l -139.7,265.1 -40.3,76.4 2.8,14.6 h 40.5 7.2 88 c 7.5,0 11.1,-9.4 5.5,-14.4 0,0 -0.1,0 -0.1,-0.1 -2.5,-2.2 -4.6,-4.1 -6.2,-5.6 -11.9,-10.7 -11.5,-18.1 -11.8,-24.4 -0.3,-6.3 1,-12.6 3.9,-18.1 l 89.7,-170.2 76.5,169.9 c 2.6,5.7 3.8,11.9 3.3,18.1 -0.1,0.8 -0.1,1.5 -0.2,2.1 -1.4,8 -8.6,24.2 -22.1,24.2 h -0.2 c -2.7,0 -5.4,0.8 -7.5,2.5 -8.8,6.8 -4.1,15.9 2.7,15.9 h 112.9 6.6 89.2 26.3 53.9 c 4.6,0 8.6,-3.5 8.8,-8.1 0.2,-3.7 -2.1,-7.2 -5.5,-8.4 -11.3,-4.3 -36.3,-17.2 -36.3,-45.4 V 259.5 c 0,-7 5.7,-12.3 12.7,-12 47.9,1.9 84.2,14 109.7,27.4 4.1,2.2 6.7,6.4 6.7,11 V 445 h 0.4 c 4.1,73.1 38.8,129.2 165.9,129.2 73.7,0 142.7,-38.6 142.7,-109.7 0,-8.7 0,-182.3 0,-182.3 0,-10.8 3.4,-18.4 7.7,-23.7 6.3,-7.7 15.9,-11.8 25.9,-11.8 h 15 c 10,0 19.7,4.1 25.9,11.8 4.3,5.4 7.7,13 7.7,23.7 v 220.7 c 0,32.8 -26,45.2 -38.2,49.2 -2.9,0.9 -5.2,3.3 -5.9,6.4 -1,5.4 3,10.1 8.2,10.1 h 54.3 61.3 56.8 c 3.5,0 6.8,-2.1 8,-5.4 1.7,-4.7 -0.8,-9.6 -5.1,-11 -11.9,-3.9 -38.5,-16.3 -38.5,-49.3 V 293.6 268.7 c 0,-18.7 16.1,-25.5 27.1,-25.5 h 31.6 c 29.4,0 58.6,24.8 58.6,66.2 0,60.7 -39.5,75.4 -55.7,75.4 -10.8,0 -19.2,0.2 -28.2,-3.1 0,0 -0.1,0 -0.1,-0.1 -5.7,-2.7 -11.7,2.6 -9.9,8.5 0.1,0.3 0.1,0.5 0.2,0.5 9.5,32.1 26.5,81.2 49.8,112.5 36.1,48.7 104.6,87.5 219.6,87.5 h 49.4 c 3.1,0 6,-1.9 6.9,-4.7 1.3,-4 -0.9,-8 -4.6,-9.2 -9.9,-3 -30.9,-11.9 -30.9,-34.3 V 380.9 c 0,-5.5 6.4,-8.4 10.6,-4.9 l 238.7,198.2 c 6.9,5.7 17.2,0.8 17.2,-8.1 V 276.7 c 0,-23.9 22.7,-33.9 32.2,-36.9 3.3,-1 5.2,-4.3 4.1,-7.7 z"
         id="path31" />
    </g>
  </g>
</svg>
