<?xml version="1.0" encoding="UTF-8" standalone="no"?>
<svg
   enable-background="new 0 0 3839 556.7"
   height="557"
   viewBox="0 0 3840 556.99999"
   width="3840"
   version="1.1"
   id="svg6"
   sodipodi:docname="segacd.svg"
   inkscape:version="1.3.2 (091e20e, 2023-11-25)"
   xmlns:inkscape="http://www.inkscape.org/namespaces/inkscape"
   xmlns:sodipodi="http://sodipodi.sourceforge.net/DTD/sodipodi-0.dtd"
   xmlns="http://www.w3.org/2000/svg"
   xmlns:svg="http://www.w3.org/2000/svg">
  <defs
     id="defs6" />
  <sodipodi:namedview
     id="namedview6"
     pagecolor="#ffffff"
     bordercolor="#000000"
     borderopacity="0.25"
     inkscape:showpageshadow="2"
     inkscape:pageopacity="0.0"
     inkscape:pagecheckerboard="true"
     inkscape:deskcolor="#d1d1d1"
     inkscape:zoom="0.21510417"
     inkscape:cx="1917.6755"
     inkscape:cy="278.93462"
     inkscape:window-width="1312"
     inkscape:window-height="449"
     inkscape:window-x="0"
     inkscape:window-y="39"
     inkscape:window-maximized="0"
     inkscape:current-layer="svg6" />
  <g
     id="g8">
    <g
       id="g7"
       transform="scale(1,1.0017986)">
      <g
         fill="#ffffff"
         transform="scale(1.0002605,0.99874259)"
         id="g6">
        <path
           d="m 534.7,195.8 -10.8,-5 c 0.7,-2.2 1.4,-5 1.4,-7.7 0,-7.2 -63.7,-45.7 -174.2,-45.7 -105.7,0 -151.2,26.4 -151.2,60.5 0,90.3 399.3,-41.8 399.3,157.4 0,72.7 -86.8,128.8 -260.3,128.8 -165.4,0 -212.9,-42.9 -228.4,-42.9 -4.1,0 -6.1,2.8 -9.5,4.4 l -9,-1.6 56.3,-93.6 10.8,4.4 c 0,2.2 -1.4,4.4 -1.4,8.8 0,32.5 87.4,55.6 174.2,55.6 123.4,0 165.4,-28.6 165.4,-58.9 0,-107.9 -393.8,25.9 -393.8,-156.9 0,-92.5 120,-131 251.5,-131 117.9,0 200.6,41.8 208.8,41.8 8.8,0 10.2,-2.2 12.2,-3.9 l 10.8,2.8 z"
           id="path1" />
        <path
           d="m 651.3,471 c 14.9,0 17.6,-4.4 17.6,-16.5 V 102.2 c 0,-12.1 -2.7,-16.5 -17.6,-16.5 V 78 h 439.9 c 16.3,0 23,-4.4 23,-12.1 h 9.5 v 91.4 h -9.5 c 0,-9.9 -6.8,-14.3 -23,-14.3 h -326 v 98 H 978 c 16.3,0 23,-4.4 23,-14.3 h 9.5 v 92.5 h -9.5 c 0,-8.8 -6.8,-13.2 -23,-13.2 H 765.2 v 107.9 h 332.2 c 16.3,0 23,-4.4 23,-13.2 h 9.5 V 491 h -9.5 c 0,-7.7 -6.8,-12.1 -23,-12.1 h -446 V 471 Z"
           id="path2" />
        <path
           d="m 1717.6,267.3 v 7.7 c -6.8,1.1 -12.9,5.5 -12.9,17.6 V 401 c 0,8.8 3.4,12.1 12.2,13.8 v 7.7 c -42.7,19.8 -147.1,61.7 -264.4,61.7 -155.9,0 -292.8,-62.8 -292.8,-205.9 0,-143.1 160,-205.9 301,-205.9 55.6,0 108.5,10.5 147.1,20.4 35.9,12.7 62.4,22.6 67.1,22.6 6.1,0 12.2,-2.8 14.9,-6.1 l 9.5,3.3 -65.8,90.3 -9.5,-5 c 0.7,-2.2 1.4,-5.5 1.4,-9.4 0,-17.1 -73.2,-51.2 -163.4,-51.2 -113.9,0 -206.1,45.7 -206.1,138.7 0,97.4 92.2,143.1 196.6,143.1 85.4,0 135.6,-23.7 155.9,-35.8 v -45.7 h -116.6 c -13.6,0 -21.7,5.5 -21.7,13.2 h -9.5 v -96.9 h 9.5 c 0,7.7 8.1,13.2 21.7,13.2 h 225.8 z"
           id="path3" />
        <path
           d="M 1751.5,478.7 V 471 c 12.2,-0.6 16.3,-3.3 25.8,-20.9 l 185.1,-338 c 3.4,-5.5 7.5,-11.6 7.5,-16.5 0,-6.1 -5.4,-8.8 -14.2,-9.9 V 78 h 147.8 v 7.7 c -10.2,1.1 -14.2,4.4 -14.2,8.3 0,4.4 2.7,8.8 6.1,14.3 L 2292,450.1 c 9.5,17.1 12.2,20.9 26.4,20.9 v 7.7 H 2183.5 V 471 c 8.8,0 12.2,-2.7 12.2,-5.5 0,-6.1 -6.1,-13.8 -51.5,-92.5 h -232.5 c -39.3,71.6 -49.5,82.6 -49.5,89.7 0,5 4.1,7.7 10.2,8.3 v 7.7 z m 353.2,-168.4 -81.4,-144.3 -80,144.2 h 161.4 z"
           id="path4" />
        <path
           d="M 0,0 V 556.7 H 3839 V 0 Z M 3788.5,506.2 H 50.5 V 50.5 h 3738.1 v 455.7 z"
           id="path5" />
        <path
           d="M 2442,78 V 478.7 H 3761 V 78 Z m 629,345.9 c -100.8,12.4 -194.5,18.3 -275.9,18.3 -175,0 -292.6,-27.5 -299.6,-77 -10.4,-73 231.4,-169 550.4,-218.6 1.4,-0.2 2.7,0.7 2.9,2.1 0.2,1.4 -0.7,2.7 -2.1,2.9 -193.7,33.6 -337.7,113.5 -328,181.9 9.5,67.2 160.8,103.8 351.8,85.3 1.4,-0.2 2.6,0.9 2.8,2.2 0.1,1.5 -0.9,2.7 -2.3,2.9 z m 64.6,-8.1 c -0.2,0 -0.3,0 -0.5,0 -0.8,0 -1.5,-0.3 -2.1,-0.8 -0.7,-0.6 -1.1,-1.5 -1.1,-2.4 V 227.3 c 0,-1.9 1.5,-3.5 3.4,-3.7 1.9,-0.1 3.6,1.2 3.9,3.1 10.6,64.1 27,141.7 39.1,154 194.4,-35.5 309.8,-94.9 301.2,-155.1 -9.6,-67.6 -168.7,-104.2 -362.2,-83.4 -1.8,0.2 -3.3,-1.1 -3.5,-2.8 -0.2,-1.7 1,-3.3 2.8,-3.5 326.6,-42.1 580.9,-17.5 591.5,57.3 10.9,76 -240.6,173.8 -572.5,222.6 z"
           id="path6" />
      </g>
    </g>
  </g>
</svg>
