<svg enable-background="new 0 0 3839 930.5" viewBox="0 0 3839 930.5" xmlns="http://www.w3.org/2000/svg"><g fill="#fff"><path d="m2247.3 903.5v-17.1c39.8-2.4 50.9-20.8 81.2-51.4l397.8-393-375.6-384.4c-9.6-9.8-23.9-28.1-63.6-28.1v-17.2h375.6v17.1c-20.7 0-33.5 4.9-33.5 17.1 0 4.9 8 14.7 23.9 30.6l216.4 222.9 226-224c12.7-13.5 22.3-23.3 22.3-30.6 0-9.8-12.7-15.9-27-15.9v-17.2h353.3v17.1c-52.5 1.2-73.2 22.1-103.4 51.4l-346.9 344 401 410.2c31.9 33.1 42.9 50.2 85.9 51.4v17.1h-372.4v-17.1c23.9 0 30.2-3.6 30.2-15.9 0-11-27-35.5-57.3-66.1l-232.3-236.4-281.7 279.2c-8 8.6-14.3 12.2-14.3 23.3 0 9.8 12.7 15.9 33.4 15.9v17.1z"/><path d="m415.4 334.2h22.3c6.4 20.8 31.9 30.6 121 30.6 218.1 0 277-55 277-107.8 0-56.4-76.4-112.6-243.5-112.6-214.8 0-362.8 90.6-362.8 131 0 8.6 3.2 15.9 6.4 22.1l-19.1 12.2-169-170.2 22.3-9.8c6.4 3.6 14.3 7.4 23.9 7.4 46.1 0 143.2-137.1 512.4-137.1 259.4 0 455.2 107.8 455.2 248.5 0 83.3-58.9 148.1-160.7 171.4v2.4c133.7 36.7 226 106.5 226 222.8 0 158-200.5 270.6-509.2 270.6-415.4 0-506.1-110.2-560.3-110.2-12.7 0-22.3 4.9-31.9 11l-25.4-7.3 127.3-210.6 23.9 11c0 3.6-1.6 8.6-1.6 14.7 0 47.8 176.6 146.9 440.9 146.9 200.4.1 310.2-53.7 310.2-130.9 0-67.3-82.8-140.7-313.5-140.7-119.4 0-144.8 13.5-149.6 35.5h-22.3v-200.9z"/><path d="m1176.7 181.2 22.3-13.5c3.2 3.6 9.6 6.1 19.1 6.1 44.7 0 164-173.8 503-173.8 197.3 0 444 86.9 444 257.1 0 325.6-607.9 291.4-770.3 497h767.1c35 0 47.8-9.8 47.8-29.3h22.3v205.7h-22.3c0-17.1-12.7-26.9-47.8-26.9h-1021.8c0-446.8 799-427.3 799-637.9 0-79.5-119.4-121.2-227.5-121.2-183 0-339 117.6-339 171.4 0 11 6.4 18.3 12.7 24.5l-20.7 14.7z"/><path d="m3805.3 437v-113.2c0-29.8-24.2-54-54-54h-94.3c-29.8 0-54 24.2-54 54v113.2h-33.9v-113.2c0-48.4 39.4-87.8 87.8-87.8h94.3c48.4 0 87.8 39.4 87.8 87.8v113.2z"/><path d="m3570.4 435.7v-111.9c0-47.7 38.8-86.5 86.5-86.5h94.3c47.7 0 86.5 38.8 86.5 86.5v111.9h-31.2v-111.9c0-30.5-24.8-55.2-55.2-55.2h-94.3c-30.5 0-55.2 24.8-55.2 55.2v111.9z"/><path d="m3616.6 437.1v-113.4c0-10.8 4.2-20.9 11.9-28.4 7.5-7.5 17.7-11.7 28.5-11.7h40.2l-.1 121.4h-33.7l.1-87.6h-6.6c-1.8 0-3.4.6-4.7 1.9-.9.9-1.9 2.4-1.9 4.6v113.2z"/><path d="m3617.9 435.7v-112c0-10.4 4.2-20.3 11.5-27.5 7.4-7.4 17.2-11.3 27.6-11.3h38.9l-.1 118.8h-31.2l.1-87.6h-7.8c-2.9 0-4.7 1.4-5.6 2.3s-2.3 2.7-2.3 5.5v112z"/><path d="m3757.7 437.1v-113.4c0-2.3-1.3-3.9-1.9-4.5-.6-.5-2.2-1.9-4.6-1.9h-6.6l.1 87.6h-33.7l-.2-121.4h40.3c10.7 0 20.8 4.2 28.4 11.7 7.7 7.7 11.9 17.8 11.9 28.4v113.3h-33.7z"/><path d="m3712.1 284.9h39c10.3 0 20.1 4 27.5 11.3 7.4 7.4 11.5 17.1 11.5 27.5v112.1h-31.2v-112.1c0-2.7-1.5-4.6-2.3-5.4-.9-.8-2.7-2.3-5.5-2.3h-7.8l.1 87.6h-31.2z"/><path d="m3569.1 758.5h33.7v111.9h-33.7z"/><path d="m3570.4 759.8h31.2v109.4h-31.2z"/><path d="m3569.1 640.2v-97.2c0-48.4 39.4-87.8 87.8-87.8h94.3c48.4 0 87.8 39.4 87.8 87.8v97.1h-33.7v-97.1c0-29.8-24.2-54-54-54h-94.3c-29.8 0-54 24.2-54 54v63.4h108l-.1-56.2h33.7l.1 90.1h-175.6z"/><path d="m3570.4 638.8v-95.9c0-47.7 38.8-86.5 86.5-86.5h94.3c47.7 0 86.5 38.8 86.5 86.5v95.9h-31.2v-95.9c0-30.5-24.8-55.2-55.2-55.2h-94.3c-30.5 0-55.2 24.8-55.2 55.2v64.7h110.5l-.1-56.2h31.2l.1 87.5z"/><path d="m3757.7 640.2v-97.2c0-2-4.4-6.4-6.5-6.4h-94.3c-1.8 0-3.4.6-4.7 1.9-.9.9-1.9 2.4-1.9 4.6v15.8h13v-8.7l33.7.1-.1 42.4h-80.4v-49.8c0-10.8 4.2-20.9 11.9-28.4 7.5-7.5 17.7-11.7 28.5-11.7h94.1c10.7 0 20.8 4.2 28.4 11.7 7.7 7.7 11.9 17.8 11.9 28.4v97.3z"/><path d="m3617.9 591.3v-48.4c0-10.4 4.2-20.3 11.5-27.5 7.4-7.4 17.2-11.3 27.6-11.3h94.1c10.3 0 20.1 4 27.5 11.3 7.4 7.4 11.5 17.1 11.5 27.5v96.1h-31.2v-96c0-2.7-5-7.6-7.7-7.6h-94.3c-2.9 0-4.7 1.4-5.6 2.3s-2.3 2.7-2.3 5.5v17.1h15.6v-8.7l31.2.1-.1 39.8z"/><path d="m3616.6 758.5h33.7v55.5h-33.7z"/><path d="m3617.9 759.8h31.2v53h-31.2z"/><path d="m3616.6 800.8 73.3-25.5-120.8-42v-35.7l223.6 77.7-176.1 61.2z"/><path d="m3570.4 732.4 123.4 42.9-75.9 26.4v33l170.9-59.4-218.4-75.9z"/><path d="m3569.1 867.8 225.4-78.4c9.3-3.2 10-11.5 10-14s-.7-10.8-10-14l-225.4-78.4v-35.8l236.5 82.4c19.8 6.9 32.6 24.9 32.6 45.9 0 20.9-12.8 39-32.6 45.9l-236.5 82.2z"/><path d="m3570.4 682.1 224.5 78.1c10 3.5 10.8 12.5 10.8 15.2s-.8 11.7-10.8 15.2l-224.5 78.1v33.1l234.8-81.6c19.3-6.8 31.8-24.2 31.8-44.7s-12.4-38-31.8-44.7l-234.8-81.8z"/><path d="m3805.2 218.4v-113.1c0-29.8-24.2-54-54-54h-.2c-29.8 0-54 24.2-54 54v20.7c-.1 22.1-18.1 40-40.2 40h-.2c-22.1-.1-40-18.1-40-40.2l-.1-113.3 33.7.1v113.2c0 3.6 2.9 6.5 6.5 6.5s6.6-2.9 6.6-6.5v-20.5c0-48.4 39.4-87.8 87.8-87.8s87.8 39.4 87.8 87.8v113.1z"/><path d="m3806.4 105.3v111.9h31.2v-111.9c0-47.7-38.8-86.5-86.5-86.5s-86.5 38.8-86.5 86.5v20.5c0 4.3-3.6 7.7-7.8 7.7s-7.7-3.5-7.7-7.7v-112l-31.2-.1.1 111.9v.2c0 21.4 17.4 38.8 38.7 38.9 21.5.1 39-17.3 39.1-38.7v-20.7c0-30.5 24.8-55.2 55.2-55.2 30.7-.2 55.4 24.7 55.4 55.2z"/><path d="m3757.7 218.4v-113.1c0-3.5-2.9-6.3-6.6-6.3-3.6 0-6.5 2.9-6.5 6.5v20.9c-.1 23.4-9.3 45.3-26 61.9-16.5 16.4-38.4 25.4-61.8 25.4h-.4c-23.3-.1-45.3-9.3-61.9-26-16.4-16.6-25.4-38.5-25.4-61.8v-113.6l33.7.1v113.4c0 14.3 5.5 27.8 15.6 37.9 10.1 10.2 23.7 15.9 38.1 16h.4c14.2 0 27.7-5.5 37.9-15.6s15.9-23.7 16-38.1v-20.8c0-22.2 18.1-40.2 40.3-40.2s40.2 18 40.2 40.2v113.1h-33.6z"/><path d="m3758.9 105.3v111.9h31.2v-111.9c0-21.5-17.5-38.9-38.9-38.9-21.5 0-39 17.5-39 38.9v20.7c-.1 14.8-5.9 28.6-16.4 39s-24.4 16.1-39.1 16c-14.8-.1-28.6-5.9-39-16.4-10.3-10.4-16-24.2-16-38.8 0-.1 0-.2 0-.3v-111.8l-31.2-.1v111.9.4c0 22.9 8.8 44.5 25 60.9 16.3 16.4 38 25.5 61 25.6 23.1.1 44.9-8.7 61.3-25s25.5-38 25.6-61v-20.9c0-4.3 3.5-7.7 7.7-7.7 4.3-.1 7.8 3.2 7.8 7.5z"/></g></svg>