<?xml version="1.0" encoding="UTF-8" standalone="no"?>
<svg
   enable-background="new 0 0 3839 930.5"
   viewBox="0 0 3840 930"
   version="1.1"
   id="svg25"
   sodipodi:docname="sega32x.svg"
   width="3840"
   height="930"
   inkscape:version="1.3.2 (091e20e, 2023-11-25)"
   xmlns:inkscape="http://www.inkscape.org/namespaces/inkscape"
   xmlns:sodipodi="http://sodipodi.sourceforge.net/DTD/sodipodi-0.dtd"
   xmlns="http://www.w3.org/2000/svg"
   xmlns:svg="http://www.w3.org/2000/svg">
  <defs
     id="defs25" />
  <sodipodi:namedview
     id="namedview25"
     pagecolor="#ffffff"
     bordercolor="#000000"
     borderopacity="0.25"
     inkscape:showpageshadow="2"
     inkscape:pageopacity="0.0"
     inkscape:pagecheckerboard="0"
     inkscape:deskcolor="#d1d1d1"
     inkscape:zoom="0.17369151"
     inkscape:cx="1922.9495"
     inkscape:cy="466.34405"
     inkscape:window-width="1312"
     inkscape:window-height="449"
     inkscape:window-x="0"
     inkscape:window-y="23"
     inkscape:window-maximized="0"
     inkscape:current-layer="svg25" />
  <g
     id="g26"
     transform="scale(1.0002605,0.99946265)">
    <g
       fill="#ffffff"
       id="g25">
      <path
         d="m 2247.3,903.5 v -17.1 c 39.8,-2.4 50.9,-20.8 81.2,-51.4 L 2726.3,442 2350.7,57.6 c -9.6,-9.8 -23.9,-28.1 -63.6,-28.1 V 12.3 h 375.6 v 17.1 c -20.7,0 -33.5,4.9 -33.5,17.1 0,4.9 8,14.7 23.9,30.6 l 216.4,222.9 226,-224 c 12.7,-13.5 22.3,-23.3 22.3,-30.6 0,-9.8 -12.7,-15.9 -27,-15.9 V 12.3 h 353.3 v 17.1 c -52.5,1.2 -73.2,22.1 -103.4,51.4 l -346.9,344 401,410.2 c 31.9,33.1 42.9,50.2 85.9,51.4 v 17.1 h -372.4 v -17.1 c 23.9,0 30.2,-3.6 30.2,-15.9 0,-11 -27,-35.5 -57.3,-66.1 L 2848.9,568 2567.2,847.2 c -8,8.6 -14.3,12.2 -14.3,23.3 0,9.8 12.7,15.9 33.4,15.9 v 17.1 z"
         id="path1" />
      <path
         d="m 415.4,334.2 h 22.3 c 6.4,20.8 31.9,30.6 121,30.6 218.1,0 277,-55 277,-107.8 0,-56.4 -76.4,-112.6 -243.5,-112.6 -214.8,0 -362.8,90.6 -362.8,131 0,8.6 3.2,15.9 6.4,22.1 L 216.7,309.7 47.7,139.5 70,129.7 c 6.4,3.6 14.3,7.4 23.9,7.4 C 140,137.1 237.1,0 606.3,0 c 259.4,0 455.2,107.8 455.2,248.5 0,83.3 -58.9,148.1 -160.7,171.4 v 2.4 c 133.7,36.7 226,106.5 226,222.8 0,158 -200.5,270.6 -509.2,270.6 -415.4,0 -506.1,-110.2 -560.3,-110.2 -12.7,0 -22.3,4.9 -31.9,11 L 0,809.2 127.3,598.6 l 23.9,11 c 0,3.6 -1.6,8.6 -1.6,14.7 0,47.8 176.6,146.9 440.9,146.9 200.4,0.1 310.2,-53.7 310.2,-130.9 0,-67.3 -82.8,-140.7 -313.5,-140.7 -119.4,0 -144.8,13.5 -149.6,35.5 H 415.3 V 334.2 Z"
         id="path2" />
      <path
         d="m 1176.7,181.2 22.3,-13.5 c 3.2,3.6 9.6,6.1 19.1,6.1 44.7,0 164,-173.8 503,-173.8 197.3,0 444,86.9 444,257.1 0,325.6 -607.9,291.4 -770.3,497 h 767.1 c 35,0 47.8,-9.8 47.8,-29.3 h 22.3 v 205.7 h -22.3 c 0,-17.1 -12.7,-26.9 -47.8,-26.9 H 1140.1 c 0,-446.8 799,-427.3 799,-637.9 0,-79.5 -119.4,-121.2 -227.5,-121.2 -183,0 -339,117.6 -339,171.4 0,11 6.4,18.3 12.7,24.5 l -20.7,14.7 z"
         id="path3" />
      <path
         d="M 3805.3,437 V 323.8 c 0,-29.8 -24.2,-54 -54,-54 H 3657 c -29.8,0 -54,24.2 -54,54 V 437 h -33.9 V 323.8 c 0,-48.4 39.4,-87.8 87.8,-87.8 h 94.3 c 48.4,0 87.8,39.4 87.8,87.8 V 437 Z"
         id="path4" />
      <path
         d="M 3570.4,435.7 V 323.8 c 0,-47.7 38.8,-86.5 86.5,-86.5 h 94.3 c 47.7,0 86.5,38.8 86.5,86.5 v 111.9 h -31.2 V 323.8 c 0,-30.5 -24.8,-55.2 -55.2,-55.2 H 3657 c -30.5,0 -55.2,24.8 -55.2,55.2 v 111.9 z"
         id="path5" />
      <path
         d="M 3616.6,437.1 V 323.7 c 0,-10.8 4.2,-20.9 11.9,-28.4 7.5,-7.5 17.7,-11.7 28.5,-11.7 h 40.2 l -0.1,121.4 h -33.7 l 0.1,-87.6 h -6.6 c -1.8,0 -3.4,0.6 -4.7,1.9 -0.9,0.9 -1.9,2.4 -1.9,4.6 v 113.2 z"
         id="path6" />
      <path
         d="m 3617.9,435.7 v -112 c 0,-10.4 4.2,-20.3 11.5,-27.5 7.4,-7.4 17.2,-11.3 27.6,-11.3 h 38.9 l -0.1,118.8 h -31.2 l 0.1,-87.6 h -7.8 c -2.9,0 -4.7,1.4 -5.6,2.3 -0.9,0.9 -2.3,2.7 -2.3,5.5 v 112 z"
         id="path7" />
      <path
         d="M 3757.7,437.1 V 323.7 c 0,-2.3 -1.3,-3.9 -1.9,-4.5 -0.6,-0.5 -2.2,-1.9 -4.6,-1.9 h -6.6 l 0.1,87.6 H 3711 l -0.2,-121.4 h 40.3 c 10.7,0 20.8,4.2 28.4,11.7 7.7,7.7 11.9,17.8 11.9,28.4 v 113.3 h -33.7 z"
         id="path8" />
      <path
         d="m 3712.1,284.9 h 39 c 10.3,0 20.1,4 27.5,11.3 7.4,7.4 11.5,17.1 11.5,27.5 v 112.1 h -31.2 V 323.7 c 0,-2.7 -1.5,-4.6 -2.3,-5.4 -0.9,-0.8 -2.7,-2.3 -5.5,-2.3 h -7.8 l 0.1,87.6 h -31.2 z"
         id="path9" />
      <path
         d="m 3569.1,758.5 h 33.7 v 111.9 h -33.7 z"
         id="path10" />
      <path
         d="m 3570.4,759.8 h 31.2 v 109.4 h -31.2 z"
         id="path11" />
      <path
         d="M 3569.1,640.2 V 543 c 0,-48.4 39.4,-87.8 87.8,-87.8 h 94.3 c 48.4,0 87.8,39.4 87.8,87.8 v 97.1 h -33.7 V 543 c 0,-29.8 -24.2,-54 -54,-54 H 3657 c -29.8,0 -54,24.2 -54,54 v 63.4 h 108 l -0.1,-56.2 h 33.7 l 0.1,90.1 h -175.6 z"
         id="path12" />
      <path
         d="m 3570.4,638.8 v -95.9 c 0,-47.7 38.8,-86.5 86.5,-86.5 h 94.3 c 47.7,0 86.5,38.8 86.5,86.5 v 95.9 h -31.2 v -95.9 c 0,-30.5 -24.8,-55.2 -55.2,-55.2 H 3657 c -30.5,0 -55.2,24.8 -55.2,55.2 v 64.7 h 110.5 l -0.1,-56.2 h 31.2 l 0.1,87.5 z"
         id="path13" />
      <path
         d="M 3757.7,640.2 V 543 c 0,-2 -4.4,-6.4 -6.5,-6.4 h -94.3 c -1.8,0 -3.4,0.6 -4.7,1.9 -0.9,0.9 -1.9,2.4 -1.9,4.6 v 15.8 h 13 v -8.7 l 33.7,0.1 -0.1,42.4 h -80.4 v -49.8 c 0,-10.8 4.2,-20.9 11.9,-28.4 7.5,-7.5 17.7,-11.7 28.5,-11.7 h 94.1 c 10.7,0 20.8,4.2 28.4,11.7 7.7,7.7 11.9,17.8 11.9,28.4 v 97.3 z"
         id="path14" />
      <path
         d="m 3617.9,591.3 v -48.4 c 0,-10.4 4.2,-20.3 11.5,-27.5 7.4,-7.4 17.2,-11.3 27.6,-11.3 h 94.1 c 10.3,0 20.1,4 27.5,11.3 7.4,7.4 11.5,17.1 11.5,27.5 V 639 h -31.2 v -96 c 0,-2.7 -5,-7.6 -7.7,-7.6 h -94.3 c -2.9,0 -4.7,1.4 -5.6,2.3 -0.9,0.9 -2.3,2.7 -2.3,5.5 v 17.1 h 15.6 v -8.7 l 31.2,0.1 -0.1,39.8 z"
         id="path15" />
      <path
         d="m 3616.6,758.5 h 33.7 V 814 h -33.7 z"
         id="path16" />
      <path
         d="m 3617.9,759.8 h 31.2 v 53 h -31.2 z"
         id="path17" />
      <path
         d="m 3616.6,800.8 73.3,-25.5 -120.8,-42 v -35.7 l 223.6,77.7 -176.1,61.2 z"
         id="path18" />
      <path
         d="m 3570.4,732.4 123.4,42.9 -75.9,26.4 v 33 l 170.9,-59.4 -218.4,-75.9 z"
         id="path19" />
      <path
         d="m 3569.1,867.8 225.4,-78.4 c 9.3,-3.2 10,-11.5 10,-14 0,-2.5 -0.7,-10.8 -10,-14 L 3569.1,683 v -35.8 l 236.5,82.4 c 19.8,6.9 32.6,24.9 32.6,45.9 0,20.9 -12.8,39 -32.6,45.9 l -236.5,82.2 z"
         id="path20" />
      <path
         d="m 3570.4,682.1 224.5,78.1 c 10,3.5 10.8,12.5 10.8,15.2 0,2.7 -0.8,11.7 -10.8,15.2 l -224.5,78.1 v 33.1 l 234.8,-81.6 c 19.3,-6.8 31.8,-24.2 31.8,-44.7 0,-20.5 -12.4,-38 -31.8,-44.7 L 3570.4,649 Z"
         id="path21" />
      <path
         d="M 3805.2,218.4 V 105.3 c 0,-29.8 -24.2,-54 -54,-54 h -0.2 c -29.8,0 -54,24.2 -54,54 V 126 c -0.1,22.1 -18.1,40 -40.2,40 h -0.2 c -22.1,-0.1 -40,-18.1 -40,-40.2 l -0.1,-113.3 33.7,0.1 v 113.2 c 0,3.6 2.9,6.5 6.5,6.5 3.6,0 6.6,-2.9 6.6,-6.5 v -20.5 c 0,-48.4 39.4,-87.8 87.8,-87.8 48.4,0 87.8,39.4 87.8,87.8 v 113.1 z"
         id="path22" />
      <path
         d="m 3806.4,105.3 v 111.9 h 31.2 V 105.3 c 0,-47.7 -38.8,-86.5 -86.5,-86.5 -47.7,0 -86.5,38.8 -86.5,86.5 v 20.5 c 0,4.3 -3.6,7.7 -7.8,7.7 -4.2,0 -7.7,-3.5 -7.7,-7.7 v -112 l -31.2,-0.1 0.1,111.9 v 0.2 c 0,21.4 17.4,38.8 38.7,38.9 21.5,0.1 39,-17.3 39.1,-38.7 v -20.7 c 0,-30.5 24.8,-55.2 55.2,-55.2 30.7,-0.2 55.4,24.7 55.4,55.2 z"
         id="path23" />
      <path
         d="M 3757.7,218.4 V 105.3 c 0,-3.5 -2.9,-6.3 -6.6,-6.3 -3.6,0 -6.5,2.9 -6.5,6.5 v 20.9 c -0.1,23.4 -9.3,45.3 -26,61.9 -16.5,16.4 -38.4,25.4 -61.8,25.4 h -0.4 c -23.3,-0.1 -45.3,-9.3 -61.9,-26 -16.4,-16.6 -25.4,-38.5 -25.4,-61.8 V 12.3 l 33.7,0.1 v 113.4 c 0,14.3 5.5,27.8 15.6,37.9 10.1,10.2 23.7,15.9 38.1,16 h 0.4 c 14.2,0 27.7,-5.5 37.9,-15.6 10.2,-10.1 15.9,-23.7 16,-38.1 v -20.8 c 0,-22.2 18.1,-40.2 40.3,-40.2 22.2,0 40.2,18 40.2,40.2 v 113.1 h -33.6 z"
         id="path24" />
      <path
         d="m 3758.9,105.3 v 111.9 h 31.2 V 105.3 c 0,-21.5 -17.5,-38.9 -38.9,-38.9 -21.5,0 -39,17.5 -39,38.9 V 126 c -0.1,14.8 -5.9,28.6 -16.4,39 -10.5,10.4 -24.4,16.1 -39.1,16 -14.8,-0.1 -28.6,-5.9 -39,-16.4 -10.3,-10.4 -16,-24.2 -16,-38.8 0,-0.1 0,-0.2 0,-0.3 V 13.7 l -31.2,-0.1 v 111.9 0.4 c 0,22.9 8.8,44.5 25,60.9 16.3,16.4 38,25.5 61,25.6 23.1,0.1 44.9,-8.7 61.3,-25 16.4,-16.3 25.5,-38 25.6,-61 v -20.9 c 0,-4.3 3.5,-7.7 7.7,-7.7 4.3,-0.1 7.8,3.2 7.8,7.5 z"
         id="path25" />
    </g>
  </g>
</svg>
