<svg enable-background="new 0 0 3839.5 980.6" viewBox="0 0 3839.5 980.6" xmlns="http://www.w3.org/2000/svg"><g fill="#fff"><path d="m1359.4 278.5 47.6.1c3.6 0 6.7 2.9 6.7 6.7 0 3.7-3.1 6.6-6.7 6.6l-183.9.1.1 57.5h184.2c35.7 0 64.5-28.8 64.5-64.3s-28.8-64.3-64.5-64.3l-48-.5c-43.1 0-78-34.9-78-77.9 0-42.9 35-77.8 78-77.8h183.9l-.1-57.9h-183.8c-75.3 0-136.4 60.8-136.4 135.9 0 75 61.1 135.8 136.4 135.8z"/><path d="m1713.6 135.8h169.3v-57.8h-196.5c-24.4 0-44 19.8-44 44.1l-.1 84.8h198.8v-57.6h-141.3s.2-13.5 13.8-13.5z"/><path d="m1359.4 135.7h183.8l.1-57.7h-183.9c-35.6 0-64.5 28.9-64.5 64.4s28.9 64.3 64.5 64.3l48 .6c43.2 0 78.1 34.8 78.1 77.8s-34.9 77.9-78.1 77.9h-184.2l-.1 58.3 184.1-.2c75.3 0 136.4-60.9 136.4-135.9 0-75.1-61.1-136-136.4-136l-47.8.3c-3.8 0-6.8-3.1-6.8-6.9s3-6.9 6.8-6.9z"/><path d="m1841.1 220.6h-198.8v84.8c0 24.3 19.8 43.9 44.1 43.9l195.7-.1v-57.4h-168.5s-13.6-.1-13.8-13.6h141.3z"/><path d="m2517.7 350.1-92.4-273c-1.9-5.4-6.1-9.7-11.6-11.6-9.8-3.4-20.6 1.7-24 11.6l-116.9 343.8h68.2l41.4-122.1-.1 51.3zm-110.3-124.7 20.4 60.5h-40.9z"/><path d="m2047.5 135.5h163.4l-.1-57.6h-190.4c-24.4 0-44.1 19.8-44.1 44.1v183.3c0 24.4 19.8 44.3 44.1 44.3h118.9v-129.1h-92v57.8h34.1l.1 13.6h-34c-7.4 0-13.5-6.1-13.5-13.6l-.3-129c.1-.1.1-13.5 13.8-13.8z"/><path d="m2020.5 420.9 190.4.1h47.6l119.2-350c5-12 16.7-19.8 29.7-19.8s24.6 7.8 29.7 19.7l99.3 292.4h-153.7v57.7h233.9l-121.8-360.1c-10.6-35.1-45.8-60.9-87.4-60.9-41.7 0-76.7 25.7-87.4 60.8l-109.2 320.2v-231.7h-163.6v57.6h105.8v156.4h-132.4c-31.8 0-57.8-25.9-57.8-57.8v-183.4c0-31.9 25.8-57.6 57.7-57.6h190.4v-57.8h-190.9c-63.9 0-115.7 51.6-115.7 115.4v183.3c0 63.8 52.2 115.5 116.2 115.5z"/><path d="m1686.3 420.9 195.7.1v-57.6l-195.7.1c-31.9 0-58.1-25.5-58.1-58v-184c0-31.3 26.2-57 58.1-57h196.5v-57.8h-196.5c-64 0-115.8 51.6-115.8 115.4v183.3c.1 63.8 51.9 115.5 115.8 115.5z"/><path d="m1232.2 728.9h179.1v78.1h-179.1z"/><path d="m1713.4 902.5v-274.4-78.1h-198v78.1h101.3v274.4h-129.1v78.1h343.3v-78.1z"/><path d="m716.1 902.5v-274.4h468.5v-78.1h-498.7c-36.8 0-66.6 29.8-66.6 66.6v297.4c0 36.8 29.8 66.6 66.6 66.6h498.7v-251.7h-303.5v78.1h206.7v95.5z"/><path d="m1885 616.6v297.4c0 36.8 29.8 66.6 66.6 66.6h482.3c36.8 0 66.6-29.8 66.6-66.6v-297.4c0-36.8-29.8-66.6-66.6-66.6h-482.3c-36.8 0-66.6 29.8-66.6 66.6zm96.8 285.9v-274.4h421.9v274.4z"/><path d="m2554.5 616.6v297.4c0 36.8 29.8 66.6 66.6 66.6h482.3c36.8 0 66.6-29.8 66.6-66.6v-297.4c0-36.8-29.8-66.6-66.6-66.6h-482.3c-36.8 0-66.6 29.8-66.6 66.6zm96.8 285.9v-274.4h421.9v274.4z"/><path d="m3224.1 616.6v297.4c0 36.8 29.8 66.6 66.6 66.6h482.3c36.8 0 66.6-29.8 66.6-66.6v-297.4c0-36.8-29.8-66.6-66.6-66.6h-482.3c-36.8 0-66.6 29.8-66.6 66.6zm96.8 285.9v-274.4h421.9v274.4z"/><path d="m498.7 728.9h-401.9v-100.8h468.5v-78.1h-498.7c-36.8 0-66.6 29.8-66.6 66.6v123.8c0 36.8 29.8 66.6 66.6 66.6h401.9v95.5h-468.5v78.1h498.7c36.8 0 66.6-29.8 66.6-66.6v-118.5c0-36.7-29.9-66.6-66.6-66.6z"/></g></svg>