<?xml version="1.0" encoding="UTF-8" standalone="no"?>
<svg
   enable-background="new 0 0 3839.5 980.6"
   viewBox="0 0 3840 980.00002"
   version="1.1"
   id="svg15"
   sodipodi:docname="sg-1000.svg"
   width="3840"
   height="980"
   inkscape:version="1.3.2 (091e20e, 2023-11-25)"
   xmlns:inkscape="http://www.inkscape.org/namespaces/inkscape"
   xmlns:sodipodi="http://sodipodi.sourceforge.net/DTD/sodipodi-0.dtd"
   xmlns="http://www.w3.org/2000/svg"
   xmlns:svg="http://www.w3.org/2000/svg">
  <defs
     id="defs15" />
  <sodipodi:namedview
     id="namedview15"
     pagecolor="#ffffff"
     bordercolor="#000000"
     borderopacity="0.25"
     inkscape:showpageshadow="2"
     inkscape:pageopacity="0.0"
     inkscape:pagecheckerboard="0"
     inkscape:deskcolor="#d1d1d1"
     inkscape:zoom="0.24066898"
     inkscape:cx="1919.6491"
     inkscape:cy="490.29999"
     inkscape:window-width="1312"
     inkscape:window-height="449"
     inkscape:window-x="0"
     inkscape:window-y="23"
     inkscape:window-maximized="0"
     inkscape:current-layer="svg15" />
  <g
     id="g16"
     transform="scale(1.0001042,0.99938813)">
    <g
       fill="#ffffff"
       id="g15">
      <path
         d="m 1359.4,278.5 47.6,0.1 c 3.6,0 6.7,2.9 6.7,6.7 0,3.7 -3.1,6.6 -6.7,6.6 l -183.9,0.1 0.1,57.5 h 184.2 c 35.7,0 64.5,-28.8 64.5,-64.3 0,-35.5 -28.8,-64.3 -64.5,-64.3 l -48,-0.5 c -43.1,0 -78,-34.9 -78,-77.9 0,-42.9 35,-77.8 78,-77.8 h 183.9 l -0.1,-57.9 h -183.8 c -75.3,0 -136.4,60.8 -136.4,135.9 0,75 61.1,135.8 136.4,135.8 z"
         id="path1" />
      <path
         d="m 1713.6,135.8 h 169.3 V 78 h -196.5 c -24.4,0 -44,19.8 -44,44.1 l -0.1,84.8 h 198.8 v -57.6 h -141.3 c 0,0 0.2,-13.5 13.8,-13.5 z"
         id="path2" />
      <path
         d="m 1359.4,135.7 h 183.8 l 0.1,-57.7 h -183.9 c -35.6,0 -64.5,28.9 -64.5,64.4 0,35.5 28.9,64.3 64.5,64.3 l 48,0.6 c 43.2,0 78.1,34.8 78.1,77.8 0,43 -34.9,77.9 -78.1,77.9 h -184.2 l -0.1,58.3 184.1,-0.2 c 75.3,0 136.4,-60.9 136.4,-135.9 0,-75.1 -61.1,-136 -136.4,-136 l -47.8,0.3 c -3.8,0 -6.8,-3.1 -6.8,-6.9 0,-3.8 3,-6.9 6.8,-6.9 z"
         id="path3" />
      <path
         d="m 1841.1,220.6 h -198.8 v 84.8 c 0,24.3 19.8,43.9 44.1,43.9 l 195.7,-0.1 v -57.4 h -168.5 c 0,0 -13.6,-0.1 -13.8,-13.6 h 141.3 z"
         id="path4" />
      <path
         d="m 2517.7,350.1 -92.4,-273 c -1.9,-5.4 -6.1,-9.7 -11.6,-11.6 -9.8,-3.4 -20.6,1.7 -24,11.6 l -116.9,343.8 h 68.2 l 41.4,-122.1 -0.1,51.3 z m -110.3,-124.7 20.4,60.5 h -40.9 z"
         id="path5" />
      <path
         d="m 2047.5,135.5 h 163.4 l -0.1,-57.6 h -190.4 c -24.4,0 -44.1,19.8 -44.1,44.1 v 183.3 c 0,24.4 19.8,44.3 44.1,44.3 h 118.9 V 220.5 h -92 v 57.8 h 34.1 l 0.1,13.6 h -34 c -7.4,0 -13.5,-6.1 -13.5,-13.6 l -0.3,-129 c 0.1,-0.1 0.1,-13.5 13.8,-13.8 z"
         id="path6" />
      <path
         d="m 2020.5,420.9 190.4,0.1 h 47.6 L 2377.7,71 c 5,-12 16.7,-19.8 29.7,-19.8 13,0 24.6,7.8 29.7,19.7 l 99.3,292.4 H 2382.7 V 421 h 233.9 L 2494.8,60.9 C 2484.2,25.8 2449,0 2407.4,0 2365.7,0 2330.7,25.7 2320,60.8 L 2210.8,381 V 149.3 h -163.6 v 57.6 H 2153 v 156.4 h -132.4 c -31.8,0 -57.8,-25.9 -57.8,-57.8 V 122.1 c 0,-31.9 25.8,-57.6 57.7,-57.6 h 190.4 V 6.7 H 2020 c -63.9,0 -115.7,51.6 -115.7,115.4 v 183.3 c 0,63.8 52.2,115.5 116.2,115.5 z"
         id="path7" />
      <path
         d="M 1686.3,420.9 1882,421 v -57.6 l -195.7,0.1 c -31.9,0 -58.1,-25.5 -58.1,-58 v -184 c 0,-31.3 26.2,-57 58.1,-57 h 196.5 V 6.7 h -196.5 c -64,0 -115.8,51.6 -115.8,115.4 v 183.3 c 0.1,63.8 51.9,115.5 115.8,115.5 z"
         id="path8" />
      <path
         d="m 1232.2,728.9 h 179.1 V 807 h -179.1 z"
         id="path9" />
      <path
         d="M 1713.4,902.5 V 628.1 550 h -198 v 78.1 h 101.3 v 274.4 h -129.1 v 78.1 h 343.3 v -78.1 z"
         id="path10" />
      <path
         d="M 716.1,902.5 V 628.1 h 468.5 V 550 H 685.9 c -36.8,0 -66.6,29.8 -66.6,66.6 V 914 c 0,36.8 29.8,66.6 66.6,66.6 h 498.7 V 728.9 H 881.1 V 807 h 206.7 v 95.5 z"
         id="path11" />
      <path
         d="M 1885,616.6 V 914 c 0,36.8 29.8,66.6 66.6,66.6 h 482.3 c 36.8,0 66.6,-29.8 66.6,-66.6 V 616.6 c 0,-36.8 -29.8,-66.6 -66.6,-66.6 h -482.3 c -36.8,0 -66.6,29.8 -66.6,66.6 z m 96.8,285.9 V 628.1 h 421.9 v 274.4 z"
         id="path12" />
      <path
         d="M 2554.5,616.6 V 914 c 0,36.8 29.8,66.6 66.6,66.6 h 482.3 c 36.8,0 66.6,-29.8 66.6,-66.6 V 616.6 c 0,-36.8 -29.8,-66.6 -66.6,-66.6 h -482.3 c -36.8,0 -66.6,29.8 -66.6,66.6 z m 96.8,285.9 V 628.1 h 421.9 v 274.4 z"
         id="path13" />
      <path
         d="M 3224.1,616.6 V 914 c 0,36.8 29.8,66.6 66.6,66.6 H 3773 c 36.8,0 66.6,-29.8 66.6,-66.6 V 616.6 c 0,-36.8 -29.8,-66.6 -66.6,-66.6 h -482.3 c -36.8,0 -66.6,29.8 -66.6,66.6 z m 96.8,285.9 V 628.1 h 421.9 v 274.4 z"
         id="path14" />
      <path
         d="M 498.7,728.9 H 96.8 V 628.1 H 565.3 V 550 H 66.6 C 29.8,550 0,579.8 0,616.6 V 740.4 C 0,777.2 29.8,807 66.6,807 h 401.9 v 95.5 H 0 v 78.1 h 498.7 c 36.8,0 66.6,-29.8 66.6,-66.6 V 795.5 c 0,-36.7 -29.9,-66.6 -66.6,-66.6 z"
         id="path15" />
    </g>
  </g>
</svg>
