<svg enable-background="new 0 0 450 120" height="1015.8452" viewBox="0 0 3840 1015.8452" width="3840" xmlns="http://www.w3.org/2000/svg"><path d="m933.89648 0c-218.64558 0-402.43061 151.5047-452.27148 355-30.73089-32.1943-76.78461-58.0198-140.39844-78.9375-20.83159-7.0586-36.32692-12.9123-47.60351-17.4746-4.82053-1.9799-2.75391-4.1309-2.75391-4.1309s2.49558-2.6699 11.01758-2.6699c19.97078 0 38.39254 2.8415 54.83398 6.543 16.95795 3.7875 32.88362 8.2633 48.8086 15.4941l80.48632 36.7578 22.63868-246.1933-46.05274-16.1836c-20.74551-7.403-45.10732-13.4288-74.46094-18.6797-28.92319-5.0788-59.30954-7.6602-90.38476-7.6602-86.42527 0-156.92783 19.7127-209.609376 58.5352-57.674228 42.6961-88.146484 105.621-88.146484 181.8887 0 66.1962 20.487415 118.7929 60.859375 156.3242 34.346295 31.8499 82.552145 57.5021 147.371095 78.5058 32.02209 10.6741 51.21895 19.1959 49.92773 22.3809-1.2912 3.2711-13.51601 5.0801-26.16992 5.0801-23.67225 0-57.07206-4.9081-88.83594-16.7012-31.76385-11.7931-114.486324-74.2012-114.486324-74.2012l-25.5664066 277.6114 49.4960936 14.6347c15.408488 4.5623 33.400399 9.0375 54.490237 13.5137l-105.6230494 272.6211h153.9140594l17.9043-47.9473h21.08984l17.47461 47.9473h352.9336v-282.4336h109.49609l-.0859.1719-109.23828 282.2617h153.91406l17.81836-47.9473h21.17578l17.56055 47.9473h410.43554v-81.3477c15.8387-1.9798 30.2147-6.1127 43.1269-12.3105 9.8993 25.9964 24.8779 44.0739 38.3926 55.9531 30.9891 27.4598 72.5672 41.4063 123.6992 41.4063 17.1302 0 34.5183-1.6355 51.6485-4.7344 16.4413-3.0129 28.5794-5.8543 38.3066-8.8672l33.2266-10.2441v-246.795l73.1699-.086c-20.8317 21.0899-42.0938 56.1253-42.0938 111.045 0 61.8922 26.7713 98.5627 49.2383 118.3613 30.9893 27.4598 72.5652 41.4062 123.6973 41.4062 14.978 0 30.1295-1.2909 45.0215-3.7012h139.4511l17.8184-47.9472h21.0898l17.5625 47.9472h608.6797v-312.3905h-5.7676v-167.1699l60.5157 167.084h-18.7657v312.3906h470.0899v-30.3008c29.956 22.4672 68.2629 34.002 114.4023 34.002 17.3023 0 34.6905-1.6355 51.6485-4.7344 7.8334-1.4634 14.7202-2.8415 20.832-4.2188v5.3379h571.3203v-312.4765h-87.6308c2.2381-1.5495 4.4769-3.099 6.6289-4.6485 58.1045-43.1265 88.8359-106.3104 88.8359-182.5781 0-61.8922-16.5274-112.5071-49.2383-150.4687-30.5587-35.4654-78.5933-63.5292-146.7695-85.9102-20.5734-6.9726-35.8953-12.7404-47.1719-17.3027-5.0788-2.066-.6881-6.8868 7.834-6.8868 19.8847 0 38.3064 2.7556 54.834 6.4571 16.6996 3.7875 33.0542 8.4353 48.6347 15.5801l80.4864 36.8437 8.1777-88.1484 10.1582-109.4942 4.4766-48.6367-46.0547-16.2695c-20.6595-7.3169-45.0213-13.4288-74.4609-18.6797-28.9233-5.0788-59.3094-7.6602-90.4708-7.6602-83.8428 0-152.7081 18.5934-204.7871 55.1778v-45.1074h-263.6679v401.3124c0 48.1193-9.9841 69.6382-16.0098 78.1602-2.7546 4.0458-8.6078 12.3105-34.0879 12.3105-25.4798 0-31.6788-8.3506-34.6055-12.3964-9.8992-13.5148-15.4082-39.5107-15.4082-72.9961v-406.3906h-263.6679v41.8359c-46.3115-28.0624-106.051-41.8359-182.1465-41.8359h-287.6836v319.707l-126.1953-319.707h-248.1738l-187.2266 483.3476h-127.5723v-483.3476h-263.666v216.2363c-78.2474-147.4567-233.367-248.1719-411.64062-248.1719zm0 47.0859c231.30002 0 418.69782 187.3996 418.35352 418.5274 0 79.4528-22.467 152.6228-60.9453 215.9785h-447.44923c79.10854-79.1085 164.07023-163.2968 195.74803-194.9746-29.0954-29.0093 10.0725-68.8654 22.8125-80.4863 6.2839 6.2839 12.9981 12.9981 19.9707 19.9707 27.546 27.5459-14.5488 51.3047-14.5488 51.3047l60.5156 60.6015s43.2128-94.4318-8.2637-145.8223c-18.2492-18.2492-30.2152-30.213-38.2207-38.3046l70.5-70.4161c18.2493 6.6283 39.5985 2.6691 54.3184-12.0507 20.4874-20.4013 20.4874-53.4564 0-73.7715-20.3151-20.4013-53.3703-20.4013-73.7715 0-14.806 14.892-18.6792 36.3265-11.9648 54.834l-70.3282 70.3281c-8.0055-8.0056-20.0571-20.0572-38.4785-38.4785-51.30428-51.3044-145.7363-8.2637-145.7363-8.2637l60.51563 60.6016s23.75859-42.1808 51.39062-14.6348c6.97258 6.9726 13.68679 13.7729 19.97071 19.9707-11.53487 12.74-51.39092 51.9079-80.48633 22.8125-50.44353 50.5296-236.20789 235.5184-317.64063 316.9512h-24.01562c-38.47825-63.3557-60.94531-136.5257-60.94531-215.9785 0-231.3 187.48535-418.6993 418.69921-418.6993zm-636.14062 37.5313c27.45976 0 54.05915 2.2386 79.53906 6.7148 25.56599 4.5623 47.00036 9.8139 64.38867 16.0117l-10.07226 109.4942c-19.62642-9.0385-39.94146-15.9238-61.03125-20.6582-21.08979-4.7345-43.98818-7.1445-68.69336-7.1445-29.78395 0-53.3695 5.5091-70.75781 16.4414-17.4744 10.9322-26.08399 27.3737-26.08399 49.2382 0 15.1503 6.54254 28.0624 19.71289 38.7364 13.17037 10.674 45.36607 24.7054 96.49805 42.0937 56.64115 18.5935 96.41139 40.9756 119.13672 67.4024 22.8114 26.4267 34.17397 62.8385 34.08789 109.4082 0 56.7272-21.26349 100.8012-63.61524 132.2207-42.35173 31.5055-99.50941 47.1738-171.30078 47.1738-33.14109 0-64.9066-3.0137-95.20703-8.8672-30.38651-5.9396-55.091383-11.7075-74.115233-17.3027l10.931641-117.9317c9.554965 6.8004 29.527692 15.0657 59.828122 24.8789 30.30043 9.8133 60.59982 14.7188 90.98633 14.7188 29.69787 0 53.97449-5.8534 72.82617-17.6465 18.76562-11.7931 28.23438-27.8044 28.23438-47.9473 0-15.7527-7.05867-30.2144-21.08985-43.3847-14.03116-13.1704-42.094-26.7716-84.1875-40.8028-55.60816-17.9047-97.01331-39.5966-124.21484-64.8183-27.201521-25.3078-40.802734-62.0661-40.802734-110.3574 0-56.7273 20.830765-100.4564 62.666014-131.3594 41.83526-30.903 99.25337-46.3125 172.33594-46.3125zm3302.85154 0c27.4598 0 54.0592 2.2386 79.5391 6.7148 25.4798 4.5623 47.0003 9.8139 64.3887 16.0117l-10.1563 109.4942c-19.6264-9.0385-39.9434-15.9238-61.0332-20.6582-21.0898-4.7345-43.9863-7.1445-68.6914-7.1445-29.7839 0-53.3714 5.5091-70.7598 16.4414-17.4743 10.9322-26.082 27.3738-26.082 49.2382 0 15.1502 6.5425 28.0624 19.7129 38.7364s45.3642 24.7054 96.4961 42.0937c56.6411 18.5935 96.4114 40.9756 119.1367 67.4024 22.8114 26.4267 34.0017 62.8385 34.1738 109.4082 0 56.7271-21.0897 100.8012-63.4414 132.2207-42.3517 31.5055-99.5094 47.1738-171.3008 47.1738-33.2271 0-64.9926-3.0137-95.2929-8.8672-30.3005-5.9396-55.0056-11.7075-74.0293-17.3027l10.8457-117.9317c9.641 6.8004 29.6117 15.0658 59.9121 24.8789 30.3004 9.8132 60.602 14.7188 90.9023 14.7188 29.6979 0 53.9724-5.8534 72.9102-17.6465 18.7656-11.793 28.2363-27.8044 28.2363-47.9473 0-15.7527-7.1448-30.2144-21.0898-43.3847-14.0312-13.1704-42.0941-26.7716-84.1875-40.8028-55.6082-17.9047-97.0151-39.5967-124.3028-64.8183-27.2014-25.3077-40.8886-62.0662-40.8886-110.3574 0-56.7272 20.9187-100.4565 62.7539-131.3594 41.7491-30.903 99.1656-46.3125 172.248-46.3125zm-2192.2324 10.1582h138.1621v483.3457h233.2793l187.2266-483.3457h162.4355l231.6445 586.7715v-586.7715h224.9317c68.9507 0 121.7184 12.7406 158.3027 38.3066 36.4122 25.566 54.6621 64.9912 54.6621 118.3614 0 32.022-9.6421 61.204-28.666 87.6308-19.0238 26.3408-49.0665 43.7301-90.041 52.166 24.7053 6.7143 42.7835 22.4667 54.3184 47.1719 11.5347 24.7052 21.5192 48.5496 29.8691 71.5332l3.4434 7.5762 63.0117 164.2422h-148.1465l-58.9648-162.5215c-7.2309-21.8646-17.1299-40.027-29.4395-54.3164-12.3096-14.3755-29.9577-21.5215-53.0273-21.5215h-42.0938v238.3594h-138.0742-.086-151.5019l-47.1738-128.8633h-233.3653l-47.9472 128.8633h-472.7598zm1422.5801 0h138.1601v343.7227c0 48.205 9.2114 85.0479 27.7188 110.2695 18.6794 25.2216 46.9149 37.8769 85.1348 37.8769 38.8222 0 67.3153-13.0855 85.5644-39.1679 18.2491-26.1685 27.2871-64.1298 27.2871-114.1426v-338.5586h138.0742v357.0644c0 80.3132-20.9168 140.4006-62.7519 180.2559-41.8351 39.7692-104.3328 59.7402-187.4004 59.7402-81.4321 0-143.6702-19.1978-186.9688-57.6757-43.1263-38.392-64.8183-94.9482-64.8183-169.6661zm-331.6719 100.9727v146.5976h58.1055c31.4194 0 56.0383-6.0266 74.0293-18.1641 17.9908-12.0513 27.0312-30.3864 27.0312-55.1777 0-25.8242-8.953-44.5042-26.5996-56.0391-17.6466-11.4487-43.9029-17.2167-78.6797-17.2167zm-451.4961 16.873-82.4648 238.3594h161.6601zm-653.5293 530.3457c14.3754 0 27.1162.7763 38.3067 2.584 11.1903 1.8077 20.8325 4.2174 28.7519 7.4023v2.1524l-3.4434 40.0273c-8.2635-4.3901-17.1301-7.6603-27.0292-9.8984-9.7271-2.152-19.7995-3.2715-30.043-3.2715-25.4797 0-45.5378 6.7145-60.4297 19.8848-14.7197 13.3423-22.2949 31.4191-22.2949 54.3164 0 22.2086 6.8876 39.8566 20.4883 53.2851 13.5144 13.3424 31.4204 20.0567 53.5429 20.0567 6.0256 0 11.0166-.3443 15.1485-1.2051 4.0457-.7747 7.4891-1.7228 10.5019-2.8418v-48.2051h-39.3379v-37.7891h88.9219v117.586c-8.0055 2.4963-19.0236 4.9938-33.0547 7.5762-14.1171 2.5824-28.4934 3.9589-43.1269 3.9589-39.4248 0-70.2424-9.899-92.5372-29.6113-22.2085-19.6262-33.3144-47.4312-33.3144-83.0683 0-35.8954 11.4485-63.7 34.2598-83.3262 22.8111-19.7123 54.404-29.6133 94.6894-29.6133zm327.0235 0c14.3752 0 27.1162.7763 38.3066 2.584s20.7447 4.2174 28.6641 7.4023v2.1524l-3.4434 40.0273c-8.1776-4.3901-17.1303-7.6604-26.9434-9.8984-9.813-2.152-19.7975-3.2715-30.041-3.2715-25.4795 0-45.5378 6.7145-60.4297 19.8848-14.8056 13.3423-22.209 31.4192-22.209 54.3164 0 22.2085 6.7139 39.8567 20.3145 53.2851 13.5145 13.3424 31.4204 20.0567 53.6289 20.0567 5.9395 0 11.0186-.3443 15.1504-1.2051 4.0458-.7747 7.4893-1.7228 10.416-2.8418v-48.2051h-39.3398v-37.7891h88.8359v117.586c-8.0054 2.4963-18.9376 4.9938-33.0547 7.5762-14.031 2.5824-28.4074 3.9589-43.041 3.9589-39.4245 0-70.2425-9.899-92.5371-29.6113-22.2086-19.6262-33.3125-47.4313-33.3125-83.0683 0-35.8953 11.5345-63.7 34.3457-83.3262 22.8973-19.7123 54.4041-29.6133 94.6895-29.6133zm1470.2675 0c14.3754 0 27.1161.7763 38.3926 2.584 11.1043 1.8077 20.661 4.2174 28.4941 7.4023v2.1524l-3.2714 40.0273c-8.2637-4.3901-17.1302-7.6603-27.0293-9.8984-9.7271-2.152-19.7995-3.2715-30.043-3.2715-25.4797 0-45.6239 6.7145-60.4297 19.8848-14.8058 13.3423-22.209 31.4191-22.209 54.3164 0 22.2086 6.8017 39.8567 20.4024 53.2851 13.4284 13.3424 31.4205 20.0567 53.457 20.0567 6.0256 0 11.1045-.3443 15.2363-1.2051 4.1319-.7747 7.4874-1.7228 10.4141-2.8418v-48.2051h-39.3379v-37.7891h88.9219v117.586c-8.0055 2.4963-18.9376 4.9938-33.0547 7.5762-13.945 2.5824-28.4936 3.9589-43.041 3.9589-39.3385 0-70.1564-9.899-92.5371-29.6113-22.2087-19.6262-33.3145-47.4313-33.3145-83.0683 0-35.8954 11.3625-63.7 34.2598-83.3262 22.8972-19.7123 54.4041-29.6133 94.6894-29.6133zm-3036.8613 3.7891h60.34375l86.08203 218.2148h-56.29883l-17.47461-47.9473h-86.76953l-17.90429 47.9473h-52.50977zm171.2168 0h63.78515l79.88477 155.5488v-155.5488h48.11914v218.2148h-62.23633l-1.80859-3.4434-79.53907-150.9004v154.3438h-48.20507zm392.18554 0h60.42969l86.08008 218.2148h-56.29688l-17.56054-47.9473h-86.76953l-17.81836 47.9473h-52.50977zm168.63282 0h83.58593c25.65189 0 45.27821 4.8202 58.87891 14.289s20.3164 24.1018 20.3164 43.9863c0 11.8791-3.6174 22.7261-10.5898 32.4532-7.1447 9.8992-18.248 16.2701-33.5704 19.455 9.2106 2.4964 16.0106 8.35 20.2286 17.5606 4.304 9.2106 8.0065 18.0777 11.1054 26.5996l1.2911 2.8398 23.3281 61.0313h-55.0059l-21.95116-60.4277c-2.75456-8.0916-6.45728-14.9798-11.01953-20.1446-4.47617-5.3369-11.18899-8.0918-19.71094-8.0918h-15.58203v88.6641h-51.30468zm200.65624 0h67.0566c29.4396 0 51.8221 5.5948 67.2305 16.6992 15.4945 11.2765 23.2423 28.3212 23.1563 51.3047 0 22.467-7.3175 39.8547-21.9512 52.0781-14.5476 12.2234-34.9488 18.25-61.0313 18.25h-23.1562v79.8828h-51.3047zm814.4141 0h60.5156l86.082 218.2148h-56.2968l-17.5606-47.9473h-86.7715l-17.8183 47.9473h-52.5957zm170.959 0h79.539l50.7012 152.1914 51.9062-152.1914h77.3028v218.2148h-49.3262l.6035-173.1094-58.5351 169.666h-45.709l-57.416-169.9238.6875 173.3672h-49.7539zm303.3496 0h142.8086v37.6172h-91.418v49.7539h84.7031v37.5312h-84.7031v55.3516h93.2266v37.9609h-144.6172zm274.8574 0h142.6367v37.6172h-91.2461v49.7539h84.791v37.5312h-84.791v55.3516h93.2266v37.9609h-144.6172zm184.043 0h63.871l79.7969 155.5488v-155.5488h48.2071v218.2148h-62.2383l-1.9785-3.4434-79.5391-150.9004v154.3438h-48.1191zm472.9296 0h51.3907v218.2148h-51.3907zm96.1524 0h63.7871l79.7969 155.5488v-155.5488h48.205v218.2148h-62.2363l-1.8945-3.4434-79.5391-150.9004v154.3438h-48.1191zm236.3789 0h142.8086v37.6172h-91.418v49.7539h84.7051v37.5312h-84.7051v55.3516h93.1406v37.9609h-144.5312zm-2501.6934 37.5312v62.666l17.5606.5176c11.4487 0 20.4871-2.7544 27.0293-8.3496 6.6282-5.5952 9.8984-13.5161 9.8984-23.8457 0-9.7271-3.2701-17.3874-9.9844-22.8965-6.7141-5.337-15.6668-8.0918-26.9433-8.0918zm-200.65622.086v54.4023h21.52149c11.70689 0 20.91674-2.1506 27.54492-6.7128 6.71424-4.3901 10.1582-11.2779 10.1582-20.4024 0-9.5549-3.2704-16.6141-9.8125-20.832-6.71426-4.304-16.44329-6.4551-29.44141-6.4551zm-753.38281 6.1973-30.64453 88.5781h60.08398zm563.40234 0-30.73047 88.5781h60.16993zm1183.87499 0-30.7305 88.5781h60.084z" fill="#fff" stroke-width="8.60813"/></svg>