<?xml version="1.0" encoding="UTF-8" standalone="no"?>
<svg
   enable-background="new 0 0 3840 1213.5"
   viewBox="0 0 3840 1214"
   version="1.1"
   id="svg8"
   sodipodi:docname="steam.svg"
   width="3840"
   height="1214"
   inkscape:version="1.3.2 (091e20e, 2023-11-25)"
   xmlns:inkscape="http://www.inkscape.org/namespaces/inkscape"
   xmlns:sodipodi="http://sodipodi.sourceforge.net/DTD/sodipodi-0.dtd"
   xmlns="http://www.w3.org/2000/svg"
   xmlns:svg="http://www.w3.org/2000/svg">
  <defs
     id="defs8" />
  <sodipodi:namedview
     id="namedview8"
     pagecolor="#ffffff"
     bordercolor="#000000"
     borderopacity="0.25"
     inkscape:showpageshadow="2"
     inkscape:pageopacity="0.0"
     inkscape:pagecheckerboard="0"
     inkscape:deskcolor="#d1d1d1"
     inkscape:zoom="0.19447878"
     inkscape:cx="1917.947"
     inkscape:cy="606.75"
     inkscape:window-width="1312"
     inkscape:window-height="449"
     inkscape:window-x="0"
     inkscape:window-y="23"
     inkscape:window-maximized="0"
     inkscape:current-layer="svg8" />
  <g
     id="g9"
     transform="scale(1,1.000412)">
    <g
       fill="#ffffff"
       id="g8">
      <path
         d="M 604.7,0 C 285.9,0 24.8,245.8 0,558.1 l 325.2,134.5 c 27.6,-18.8 60.8,-29.9 96.7,-29.9 3.2,0 6.4,0.1 9.6,0.3 L 576.1,453.4 c 0,-1 0,-2 0,-3 0,-126.2 102.6,-228.8 228.8,-228.8 126.2,0 228.8,102.7 228.8,228.8 0,126.1 -102.7,228.8 -228.8,228.8 -1.7,0 -3.5,0 -5.2,-0.1 L 593.4,826.3 c 0.1,2.7 0.2,5.4 0.2,8.1 0,94.7 -77,171.8 -171.8,171.8 -83.1,0 -152.6,-59.3 -168.4,-137.9 L 20.9,772.1 c 72,254.7 306,441.4 583.8,441.4 335.1,0 606.8,-271.7 606.8,-606.7 C 1211.4,271.6 939.8,0 604.7,0"
         id="path1" />
      <path
         d="m 380.2,920.6 -74.5,-30.8 c 13.2,27.5 36.1,50.5 66.4,63.2 65.6,27.3 141.2,-3.8 168.5,-69.4 13.2,-31.7 13.3,-66.8 0.2,-98.6 -13.1,-31.8 -37.8,-56.7 -69.6,-69.9 -31.5,-13.1 -65.3,-12.6 -95,-1.4 l 77,31.8 c 48.4,20.2 71.3,75.7 51.1,124.1 -20.1,48.3 -75.7,71.2 -124.1,51"
         id="path2" />
      <path
         d="m 957.3,450.4 c 0,-84.1 -68.4,-152.5 -152.5,-152.5 -84.1,0 -152.5,68.4 -152.5,152.5 0,84.1 68.4,152.5 152.5,152.5 84.1,-0.1 152.5,-68.5 152.5,-152.5 m -266.7,-0.3 c 0,-63.3 51.3,-114.5 114.5,-114.5 63.2,0 114.5,51.3 114.5,114.5 0,63.2 -51.3,114.5 -114.5,114.5 -63.2,0 -114.5,-51.3 -114.5,-114.5"
         id="path3" />
      <path
         d="m 1859.4,415.1 -40.7,71.5 c -31.3,-21.9 -73.8,-35 -110.8,-35 -42.3,0 -68.5,17.5 -68.5,48.9 0,38.1 46.5,47 115.7,71.8 74.4,26.3 117.1,57.2 117.1,125.3 0,93.2 -73.3,145.5 -178.6,145.5 -51.3,0 -113.2,-13.2 -160.8,-42.2 l 29.7,-79.2 c 38.7,20.4 84.9,32.5 126.1,32.5 55.6,0 82,-20.5 82,-50.8 0,-34.7 -40.3,-45.1 -105.3,-66.6 -74.1,-24.7 -125.5,-57.2 -125.5,-132.6 0,-85 68.1,-133.8 166,-133.8 68.3,0 123.2,21.6 153.6,44.7"
         id="path4" />
      <path
         d="m 2177.2,460.3 v 375 h -95.7 v -375 h -139 v -82.1 h 373.2 v 82.1 z"
         id="path5" />
      <path
         d="m 2517.5,460.1 v 103 h 183.2 v 82.1 h -183.2 v 107.2 h 212.6 v 82.9 H 2421.8 V 378.2 h 308.3 v 81.9 z"
         id="path6" />
      <path
         d="m 2943.7,746.5 -30.3,88.8 h -100.3 l 171.4,-457.1 h 96.4 l 176.2,457.1 h -103.7 l -30.9,-88.8 z m 88.4,-259.3 -62.4,183 h 126.1 z"
         id="path7" />
      <path
         d="M 3748.3,554.9 3623.2,822 h -54 l -123,-264.7 v 278 h -91.7 V 378.2 h 91.5 l 153.6,330 148.1,-330 h 92.3 v 457.1 h -91.6 z"
         id="path8" />
    </g>
  </g>
</svg>
