<svg enable-background="new -0.003 -0.001 566.931 154.093" height="1014.167" viewBox="-.003 -.001 3839.9999 1014.167" width="3840" xmlns="http://www.w3.org/2000/svg"><g transform="matrix(1.99639277946 0 0 1.9963917 .003028 .00103992062)"><path d="m-2847.2025 1179.2075c-.6868-.4057-2.3567-1.8086-3.7099-3.12-2.9446-2.8535-3.8764-3.1689-5.5315-1.8707-1.0299.8071-1.1934 1.1901-1.1085 2.5864.054.9012-.058 1.6385-.2443 1.6385-.7351 0-2.9603-2.6788-3.9521-4.7586-2.0263-4.2484-2.3567-8.3066-.7799-9.5745.4409-.3561 1.612-.5058 3.4877-.4508 3.974.1159 6.0388 1.3081 10.6347 6.1383 3.8321 4.0274 4.4021 4.3283 6.6396 3.5042 1.4691-.5411 1.6078-1.6915.6942-5.7641-.8851-3.9451-1.7329-6.1598-2.6365-6.8863-.4877-.3932-.7448-.2442-1.4274.8246-.4574.7166-1.386 1.817-2.0632 2.4445l-1.2311 1.1413-4.2072-2.5194c-2.3141-1.3855-5.6597-3.0869-7.4348-3.7807-1.7746-.6934-3.3903-1.4195-3.5907-1.6133-.5266-.5104-.4897-1.7436.2071-6.861.8456-6.2322.8646-22.932.041-25.1814-.3229-.8723-.5925-1.7126-.5962-1.8674-.041-.4537 1.9225-2.129 7.1512-6.2008 4.5615-3.5518 9.7295-8.2229 11.3319-10.2431 1.0949-1.3789 2.2371-.7629 3.6297 1.9564 1.7779 3.4728 3.7782 6.0348 8.2672 10.5884 2.194 2.2262 3.9898 4.3698 3.9898 4.7626 0 .3933-.4889 1.025-1.0866 1.4046l-1.0871.6901.2773 8.3774c.1532 4.6074.4513 10.1616.6628 12.3427.6226 6.4247.5108 14.0094-.2401 16.4841-2.3223 7.6301-8.2371 14.783-13.3578 16.1528-1.1939.3188-1.6944.2567-2.7131-.3435zm3.426-40.2232c0-14.1278-.041-14.2955-.9489-16.1421-.9164-1.8028-3.3485-4.2804-4.2017-4.2804-.2277 0-.7194.6689-1.0895 1.4869-.5725 1.2635-.6972 3.5759-.8297 15.3664l-.1572 13.8794 1.0697 1.3851c1.3258 1.7172 3.3125 2.7942 4.9278 2.6729l1.2278-.095zm-226.8205 30.1204c-.4967-.3352-1.4948-1.4522-2.2184-2.4783-1.9261-2.7302-6.3452-6.9323-8.9288-8.4909-3.6188-2.1824-9.4565-3.8611-11.6083-3.3378-2.3485.5713-3.2249 2.6932-2.3431 5.6738.4624 1.5615-.2028 1.9373-1.7171.9737-3.4243-2.1767-7.2482-9.6537-7.2489-14.1734 0-3.9011.5265-4.8383 3.4408-6.1188 4.718-2.0727 8.3302-2.343 15.9591-1.1925 3.4252.5162 4.0541.3518 5.134-1.341 1.5392-2.4142 1.3045-2.7172-3.5609-4.5929-13.2328-5.102-21.6159-11.6066-23.5868-18.3021-.9074-3.0824-.8342-4.3388.4314-7.4058 2.6452-6.4103 7.7394-13.4568 22.123-30.6023l2.8278-3.3705 2.7078-.1201c2.2064-.095 3.4897.1366 6.9288 1.249 2.322.7509 5.0533 1.7158 6.0696 2.1443 5.9755 2.5202 11.4208 3.5505 13.3834 2.5331.4819-.2485 3.4538-4.3872 3.9347-5.0422 1.1993-1.6318 3.0626-2.0338 4.7118-.2152 2.9781 4.5229-3.6176 19.597-8.7267 26.5967-1.2754 1.6754-1.3052 2.5675-.1119 3.3759 8.053 5.4578 10.3686 7.1877 13.0031 9.7137 1.7117 1.6414 3.89 4.2547 4.8397 5.807 2.3633 3.862 2.8132 6.3842 2.1679 12.1578-.895 8.0081-2.8808 13.0552-6.2806 15.9629-9.6214 8.2279-22.7304 17.8083-27.6334 20.1948-2.435 1.1848-2.5223 1.1943-3.6975.3974zm18.8338-17.054c1.7022-1.2105 3.2015-2.4711 3.332-2.801.3104-.7873-.7791-2.7933-2.1465-3.9479-.5985-.505-2.1964-1.4456-3.5509-2.0901-2.3481-1.1169-4.2436-1.718-13.4435-4.2613l-4.0382-1.1165-1.5884 1.6501c-1.6223 1.6852-2.0359 3.2111-1.0776 3.9744.2816.2236 1.487.7149 2.6793 1.0912 3.1741 1.0022 10.7303 6.0166 13.3445 8.8555 1.3474 1.463 3.0182 1.1144 6.4893-1.3544zm11.1054-13.6994c.6383-3.868-1.0337-7.2659-5.8406-11.8695-3.9903-3.8218-8.8543-6.8491-12.1536-7.5648-2.6639-.5775-3.1498-.4016-4.4551 1.6004-1.472 2.2602-1.3702 3.2967.4057 4.1172.7956.3684 1.7858.6686 2.2006.6686 1.6546 0 9.5741 3.7149 12.5216 5.8737 1.5888 1.1633 2.4581 2.2785 4.0088 5.1423 1.0887 2.011 2.2192 3.6561 2.512 3.6561.3063 0 .6461-.6884.8006-1.624zm-30.6507-16.9208c1.2207-.8676 3.0687-3.4185 3.0687-4.2352 0-1.2324-2.5794-2.4705-6.6421-3.1888-3.948-.6971-6.0232-1.3698-9.8449-3.1895-3.9476-1.8803-9.6068-6.2282-10.6716-8.1986-1.0605-1.9626-2.0838-1.4961-2.4539 1.1185-.3478 2.4499.7086 4.2163 4.7312 7.9183 2.6709 2.4586 8.9784 6.5096 10.1355 6.5096.24 0 .7534.1698 1.1446.3767 2.2589 1.1996 7.6326 2.9362 9.7132 3.1395.2236.041.594-.091.8193-.2525zm11.1389-20.0201c1.1802-1.2439 2.5699-3.8892 2.5699-4.8922 0-.7907-.2691-.8532-4.6042-1.0812-5.3661-.2815-6.3886-.5622-13.9625-3.8243-6.7207-2.8944-8.9346-3.298-11.0715-2.0185-2.6055 1.5607-2.4921 3.9828.2608 5.6216 3.1035 1.8468 9.2707 3.6218 20.5173 5.9048 1.9928.4058 3.7269.8363 3.8532.9592.503.4868 1.6318.178 2.4353-.6694zm140.3048 65.3041c-.3353-.3229-2.1489-2.5028-4.0311-4.8409-6.4099-7.9606-7.2378-9.5692-5.647-10.9643.8371-.7339.8512-1.0279.8512-18.1593 0-11.2449-.149-17.6846-.4239-18.18-.2733-.4939-.8566-.7672-1.6369-.7672-2.4713 0-1.5437-1.5469 7.1703-11.954 1.5785-1.8856 3.4049-4.1827 4.0581-5.105l1.1881-1.6765.7103.9123c.9062 1.1641 1.2104 3.3701 1.2104 8.7719 0 4.7755.05 4.872 3.2741 6.8126 2.0491 1.232 2.8729 3.159 3.1552 7.3773.2815 4.2208.05 4.3897-3.2268 2.3517-3.3486-2.0826-3.2492-2.545-3.1138 14.4151l.1159 14.6473 1.1483.9566c.6313.5262 1.5983.9567 2.1481.9567.6188 0 1.0005.2276 1.0005.5982 0 .5253-1.5958 4.1413-5.1977 11.7752-1.1678 2.4763-1.8256 2.9714-2.7533 2.0723zm-98.6857-1.2601c-.6338-.818-1.2592-1.576-1.39-1.6852-.5428-.453-5.6486-7.047-6.4517-8.3323-1.7283-2.7649-1.8438-3.4848-.7133-4.4373l1.0163-.8565v-16.6831c0-10.3409-.1655-17.2483-.4285-18.1702-.3891-1.3516-.5546-1.487-1.8392-1.487-.7775 0-1.4129-.1117-1.4129-.2483 0-.8143 2.9711-4.9742 6.6322-9.286 2.3227-2.736 4.8541-5.9268 5.6249-7.0908l1.4021-2.1167.9455 1.0656c.8962 1.0097.9463 1.3743.9463 6.9227 0 6.5506-.087 6.3329 3.4281 8.3741 2.047 1.1881 2.9478 3.2144 3.3071 7.4381.3436 4.0461-.054 4.3582-3.1631 2.4854-3.5096-2.1145-3.3672-2.6949-3.3672 13.7557 0 11.3952.1159 14.4787.5659 15.2967.5104.924 1.186 1.3222 3.4226 2.0186.6719.2069.664.3559-.1241 2.4055-.4633 1.2005-1.5362 3.5704-2.384 5.2669-.8479 1.6964-1.8956 3.9313-2.3282 4.9667-.998 2.3902-2.0511 2.5037-3.683.3974zm244.9615-.8548c-2.9325-2.9595-4.7515-3.5796-7.0671-2.4098-.8561.4327-1.7279.7861-1.937.7861-.6123 0-2.0984-1.6777-2.7118-3.0612-.5523-1.2451-.4774-1.4484 3.0459-8.3277 1.9866-3.878 3.7203-7.4583 3.8528-7.956.3146-1.1769-.7175-1.8367-4.196-2.6845-3.8275-.9331-3.8685-1.0006-2.9971-4.975.7903-3.6044 1.0499-14.168.4057-16.4654-.4057-1.4411-.3684-1.4825 3.416-3.816 3.1805-1.9605 8.1928-6.7318 8.9615-8.5305.7195-1.6832 1.3346-1.6244 2.8883.2731.8962 1.0975 1.965 1.8132 3.5824 2.3998 2.7934 1.0126 4.27.9194 4.8243-.3064.6438-1.4223 1.5077-.88 2.9744 1.865 1.0494 1.9647 1.2969 2.8199 1.0879 3.7637-.2029.9212-4.5818 10.1898-5.7728 12.2202-.095.1615.4372.6504 1.1794 1.0892 1.0242.6048 2.0666.7981 4.3172.799h2.9665l-.041 1.2887c-.041.7087-.2815 1.6352-.6139 2.0586-.4566.5853-.6011 2.0057-.6011 5.9218 0 2.8332-.207 6.736-.4657 8.6725-.3478 2.6333-.3478 3.635 0 3.9728 1.391 1.3479-.2608 3.6971-4.8239 6.8636-1.9022 1.3197-4.4179 3.6022-6.1342 5.5661-1.6003 1.831-3.1208 3.3287-3.3783 3.3287-.2567 0-1.513-1.054-2.7897-2.3422zm5.5521-12.9394c.4559-1.0559.5767-2.7333.491-6.798-.095-4.6335-.2153-5.4581-.83-5.8336-.5025-.3064-.9182-.3146-1.3947-.041-.6325.3849-3.0178 4.4289-3.5484 6.0148-.1283.385-.8884 1.8641-1.6857 3.2819-.7973 1.4175-1.4505 2.9711-1.4517 3.4526 0 .8093.2193.8849 2.9652 1.0116 1.6318.075 3.3904.1698 3.9086.2153.7257.062 1.0804-.2442 1.5457-1.323zm-2.6013-21.3013c1.1119-.8399 4.8198-7.5354 4.8198-8.7036 0-.9757-.3147-1.241-2.716-2.2967-2.7844-1.2232-3.6441-1.4174-3.9683-.8961-.099.1614-.3146 2.7184-.4785 5.6779-.2609 4.7535-.2153 5.4581.3932 6.0475.8234.7977 1.0883.8209 1.9485.1698zm-190.5361 33.9943c-1.2506-.9868-2.4187-2.0404-2.5951-2.3405-.178-.3022-1.2953-1.5582-2.4858-2.7947-2.7467-2.8526-2.95-3.8208-2.9532-14.0421-.0009-4.2779-.1947-8.4407-.4244-9.2504-.2773-.9769-1.037-1.9609-2.2482-2.923-1.8194-1.4447-2.4755-3.1896-1.3148-3.498.2815-.075 1.5238-.3602 2.7624-.6342 4.4257-.9798 4.6493-1.8756.7559-3.034-1.8186-.541-2.6088-1.005-3.029-1.7808-.5191-.9583-.4636-1.2523.6417-3.3709 3.1975-6.1354 12.5419-16.0026 15.1539-16.0026 1.5446 0 5.5207 2.7098 8.7807 5.9834 2.9979 3.0108 7.0216 5.8207 8.8485 6.1785 1.5266.298 3.0024 2.9226 2.5988 4.6202-.1656.6938-.4297 7.061-.5887 14.1492-.1572 7.0888-.4326 13.29-.6085 13.7805-.2774.7708-.1821.8921.7075.8921 2.483 0 1.5672 2.4043-3.3242 8.7243-3.6623 4.7329-5.5082 6.5622-6.202 6.1466-.2607-.1573-1.1114-1.2473-1.8873-2.423-.8151-1.2341-1.7083-2.1352-2.1149-2.1331-.385 0-2.2486 1.2514-4.1371 2.776-1.8885 1.5242-3.5754 2.7715-3.7476 2.7715-.1739 0-1.3376-.8076-2.5886-1.795zm9.7278-10.6335 1.2696-1.5229.1201-12.5187c.066-6.885-.041-12.6673-.2236-12.8494-.4715-.4571-5.5724 1.5068-6.5038 2.5036-.6826.7294-.7725 1.7167-.8962 9.7857-.1781 11.4332-.041 12.5865 1.8487 14.7136 1.7743 2.0093 2.6362 1.9869 4.3852-.1119zm-4.8135-31.3656c2.2577-1.037 3.8324-1.9973 3.8324-2.3385-1.5491-3.1647-8.0189-6.0215-10.6286-4.2378-1.5598 1.076-1.8843 2.3158-1.2261 4.6837.6304 2.2714 1.8339 3.6515 3.1829 3.6515.5535 0 2.7314-.7914 4.8394-1.7589zm63.165 42.8097c-.7857-.5419-2.9747-2.6104-4.8653-4.5963-2.7168-2.855-3.5055-3.957-3.7666-5.2611-.1822-.9073-.3396-5.2184-.3478-9.5807-.041-4.3619-.2111-8.598-.445-9.4131-.2608-.9087-1.2207-2.2416-2.4817-3.4442-1.7966-1.7138-1.9995-2.0662-1.6049-2.781.2483-.4504.832-.8188 1.2957-.8188.464 0 1.8388-.2815 3.055-.6231 3.142-.8851 3.0427-1.826-.2939-2.7951-1.6174-.4693-2.7281-1.0543-3.13-1.6488-.5717-.8453-.5423-1.0887.3602-2.9722 1.9556-4.0888 9.1229-12.6545 12.7439-15.2306 1.6376-1.1644 2.2072-1.3652 3.2835-1.1566 1.9336.3767 4.1624 1.9754 8.3704 6.0116 3.4677 3.3262 7.6575 6.1217 9.1751 6.1217.9016 0 2.5566 3.3862 2.1745 4.4501-.178.4968-.4566 6.7029-.6189 13.7912-.1614 7.0888-.4255 13.364-.5857 13.9461-.2484.9077-.1532 1.0763.6698 1.1897 1.7925.2483 1.4795 1.9679-1.0172 5.598-2.8563 4.1533-7.5569 9.4955-8.1811 9.2985-.2608-.083-1.1778-1.1199-2.0317-2.303-.8541-1.1834-1.8199-2.2088-2.146-2.2788-.6835-.149-2.0781.7613-5.4039 3.52-1.2961 1.0746-2.4502 1.9559-2.5658 1.9576-.1159 0-.8519-.4397-1.638-.9811zm8.071-10.6149c2.1176-2.2437 2.1655-2.5889 2.1655-15.5215 0-6.6504-.1532-12.1859-.3519-12.301-.4057-.2443-5.237 1.5221-6.2946 2.2987-1.0665.7829-1.7007 7.4626-1.398 14.7182.298 7.1901.6267 8.6232 2.3624 10.3586 1.5698 1.5693 2.3613 1.6703 3.5151.447zm-7.3432-30.7939c.3891-.1987 2.0396-.9451 3.664-1.6621 1.624-.7165 3.0372-1.5164 3.1403-1.7767-1.0478-3.6483-8.4221-6.2166-10.7689-4.2969-1.4083 1.1487-1.6152 2.5445-.7289 4.9216.9678 2.5959 1.4707 3.1721 2.764 3.1721.6706 0 1.5387-.1614 1.9295-.3602zm-102.5 41.1045c-1.121-1.1889-8.7144-12.2268-8.7144-12.6669 0-.1904.3933-1.4551.8743-2.8112.8052-2.2714.8901-3.5158 1.0776-15.7799l.2028-13.3135-1.0772-.8213c-.5923-.4516-1.077-1.0374-1.077-1.3019 0-.4491 3.4499-5.449 7.0365-10.1976.89-1.1786 1.7887-1.9846 2.0876-1.8732.2898.1076.8864 1.1069 1.3276 2.2214.9629 2.4328 3.4624 5.3276 4.3234 5.0077.8313-.3105 2.7943-3.1366 3.4384-4.9523.294-.8291.7477-1.5081 1.0072-1.5081.5055 0 7.342 12.306 7.3653 13.2577.041.3104-1.0395 1.8996-2.3265 3.5282-3.6234 4.5842-3.9049 4.7605-4.7047 2.9432-.2608-.5998-1.3905-2.3061-2.5032-3.7915-1.4448-1.9273-2.1502-2.5781-2.4644-2.2739-.298.2898-.445 5.5981-.455 16.5801l-.041 16.1537 1.1257 1.5793c1.5631 2.1936 1.4476 3.0261-.6525 4.6935-1.3321 1.0578-2.0048 2.0144-2.6821 3.8152-1.0039 2.6675-1.7663 3.028-3.1954 1.5113zm181.1685-2.2263c-1.6882-1.6654-4.7002-4.4555-6.693-6.2007l-3.6239-3.1723.063-15.069c.041-8.288.2318-15.7833.4355-16.6555.3146-1.3251.2484-1.7076-.3809-2.324-.6354-.621-.6904-.9679-.3435-2.1816 1.28-4.4977 6.5025-12.0191 7.8375-11.2871.8677.4756 4.1442 3.0377 5.6768 4.4385 1.8602 1.7006 1.9423 2.7582.4056 5.2077l-1.1206 1.7841-.1159 15.7576c-.087 11.0297.041 16.0051.3353 16.583.5485.9927 3.9492 3.1515 4.9647 3.1515.3974 0 .9149-.3436 1.1479-.7671.2733-.4959.4198-6.9024.414-18.1424l-.041-17.3757-1.2167-1.1566c-1.9522-1.8566-1.6662-2.7574 2.0256-6.3775 1.7792-1.7453 3.4255-3.1726 3.6573-3.1726.4173 0 5.0321 5.3785 7.7246 9.0033 1.0701 1.4401 1.2957 2.0271.9922 2.5772-.7699 1.3951-1.2927 9.5345-1.2927 20.1291 0 9.8424.066 10.8797.7902 12.2549.7803 1.4825.7803 1.5259 0 3.2782-1.032 2.3332-3.8333 6.9381-5.8687 9.6471l-1.6261 2.1646-1.3516-2.7595c-.7439-1.518-1.7242-3.0058-2.1791-3.3068-.7497-.4951-.9522-.4181-2.153.8173-.7291.75-1.8782 2.4588-2.5534 3.7972-.9091 1.8016-1.4402 2.4267-2.0462 2.4089-.4583-.041-2.1708-1.3579-3.8884-3.0518z" fill="#fff" fill-rule="evenodd" transform="matrix(4.7904671 0 0 4.7904671 15120.094 -5143.5171)"/><path d="m216.68187 233.63973-87.30497 1.92375c-15.35371 21.16483-109.35058 7.616-65.60664 172.61734 8.32859 31.41578-15.85258 28.34089-20.78629 55.85051-.85223 4.75121-13.84526 8.33543-22.2103.4622-3.1576 9.1239-3.05623 21.69967 6.5707 29.21196l18.67504-15.83954c15.88201 1.69242-1.67377 22.16663-1.67377 22.16663l251.9087 1.19921c6.58734-101.85697-51.90816-172.56681-79.57247-267.59212z" stroke="#fff" stroke-width="6"/><path d="m112.18688 282.788c-11.21602 3.77638-39.44619 15.04664-45.35604 24.57163-8.29442 38.30151 12.85213 79.13745 9.54768 119.88339-1.35839 9.67291-8.1832 17.00724-14.27266 24.10283 5.50303-2.76555 11.92961-8.76764 17.59838-13.02626 7.29687-5.56547 10.5096-15.46036 7.46312-24.19455-1.40742-9.26056 6.70714-16.28878 12.31511-22.512 13.91542-13.25342 29.69784-24.73255 46.94173-33.2654-11.79736-22.3361-16.4934-47.7896-28.87552-69.86904-1.42386-2.15688-2.82951-4.70014-5.3618-5.6905zm-56.4781 164.26654c-4.68025 11.90276-14.01964 22.64343-26.55455 26.86305-8.02299 1.41481.42895 14.69729 6.54414 8.16208 12.89137-6.30641 18.7728-21.74308 20.01041-35.02513z" fill="#fff" stroke="#fff" stroke-width="5.07636"/><path d="m318.56687 312.20929c-1.87839-.064-4.62731.55969-5.05654 2.38946l-41.67176 169.78048c-.2751 1.16885 10.65239 12.20672 15.27869 16.8452h26.46252l3.80122-16.00755-2.11701-8.91953 4.85685-4.72863 4.00222-18.14515-6.37697-6.59938 7.62099-3.32436 26.3449-125.42119c.57298-2.42106-1.2117-4.7545-3.69821-4.8384z" fill="#fff" stroke-width="5.07636"/><path d="m322.56247 316.1455-42.20716 178.13871 6.77176 6.94035h18.24318l4.60793-19.29678-2.33116-7.19874 4.93662-5.65872 3.34817-14.92476-6.70958-9.34416 9.57453-5.13505 26.89667-117.97848z" stroke-width="5.07636"/><path d="m348.9478 228.94144c-10.26838-.002-18.67795 8.4073-18.67574 18.67573.003 5.62602 2.97172 10.49682 7.22808 14.00439l-12.47688 39.60987c-12.5509-1.90098-23.58034-3.73257-35.94782-5.5461-1.5974-.23671-3.17448.54031-3.96007 1.95118l-12.56315 23.89619c-1.39205 2.51229.33214 5.61381 3.20074 5.75751l39.41833 2.11451c-1.96827 10.14648-9.73609 74.43482-4.69123 84.20349 9.2671-3.96524 29.81222-73.11592 32.96711-79.93382l5.20018 2.00708 1.16565.4498 31.55586 11.05519c2.78459 1.02342 5.64127-1.32884 5.17115-4.25806l-2.42185-25.69308c-.24015-1.48735-1.31923-2.70142-2.7682-3.11422 0 0-19.89423-6.45637-32.81471-9.26606l7.11208-40.11932c7.03286-2.76677 11.96301-9.37925 11.97635-17.10905v-.01c.002-10.26842-8.40736-18.67794-18.67578-18.67573z" fill="#fff" stroke-width="4.92125"/><path d="m348.9478 232.82922c-8.17045-.002-14.7944 6.62213-14.79258 14.79257.002 5.35909 2.90371 10.29761 7.58369 12.90868l-10.89017 46.62683c-13.72245-2.16855-27.12428-3.73001-40.75407-5.72863l-10.65193 19.1373 41.89033 3.55619c-5.15722 24.10214-11.52354 90.31813-10.34707 87.1021.31299 3.31328 27.98806-76.173 29.91049-84.54453l40.54693 14.32348-3.69507-22.83468s-24.65288-7.51838-36.39389-9.67236l14.53736-48.96324c6.68871-1.55615 7.83674-5.04408 7.84855-11.91143.002-8.17045-6.62213-14.79435-14.79257-14.79258z" stroke-width="4.92125"/><path d="m316.32679 326.63849-39.63755 163.87938 5.76322 6.14416c4.97469-21.99008 26.01585-90.57204 26.01585-90.57204 3.5027-53.3297 7.85848-79.45156 7.85848-79.45156z" fill="#fff" fill-rule="evenodd" stroke-width="3.11795"/><path d="m337.52884 284.93905c-2.13206.0362-3.5052.52176-3.64301 1.28799-.23385 1.24126 2.79274 2.83915 6.75721 3.566 3.96229.72801 7.35961.31024 7.58379-.93239.23385-1.24122-2.79275-2.83914-6.75722-3.56597-1.37377-.25255-2.74192-.37605-3.94077-.35582zm-2.60505 9.57338c-2.13174.0362-3.50489.52176-3.6427 1.28799-.21826 1.24042 2.80491 2.83151 6.75722 3.5564 3.95668.72533 7.34713.30805 7.57381-.93236.21825-1.24042-2.80491-2.83147-6.75691-3.55636-1.37002-.25194-2.73444-.37531-3.93142-.35579zm-43.44549 5.76715-1.23035 3.69093 88.27536 14.7638c-12.06802-4.88895-24.44627-8.02754-36.948-10.4577 1.2266-.19549 1.96431-.60201 2.07624-1.14385.23697-1.24019-2.78495-2.83777-6.74755-3.56593-1.37377-.25256-2.74192-.37606-3.94109-.35582-2.13174.0362-3.50488.52176-3.6427 1.28799-.0966.57545.51322 1.25638 1.70116 1.90317-13.1565-2.18313-26.39437-3.89523-39.54307-6.12275z" fill="#fff" stroke-width="3.11795"/><path d="m359.1674 208.00679c-13.81407.50386-28.43101 3.6841-28.43101 3.6841l-59.12847-1.60091c-10.05912 36.64026 5.23628 54.80138 17.00218 85.45331 1.12651-1.35653 28.47372-28.05892 37.91082-37.99002 0 0 5.43895 16.74014 7.85505 18.55238 3.92643 2.01351 16.62926 7.45533 27.11555-2.93343l1.95807-3.67534 29.30653-9.97547c4.13877-23.82147-12.91641-48.27551-12.91641-48.27551-4.3854-2.8802-12.38324-3.54143-20.67231-3.23917z" fill="#fff" stroke-width="3.11795"/><path d="m197.96946 214.95358c-5.77506.10258-11.98227 1.86394-19.05628 1.86394-13.61234 0-26.25281 7.24698-36.70449 19.58174-16.14068-1.28303-30.64413-7.11902-42.20642-2.17084-59.860867 19.88475-76.782909 60.59609-80.469259 84.179 21.915124-1.49387 33.139739-3.9863 60.304242-7.91058l33.550997-17.92954c8.82286 40.58852-4.75331 104.63056-11.09647 133.36307-3.746525 8.21455-6.907189 13.24137-5.383759 16.42879 5.776939 6.7246 14.154549 3.92369 25.342369 4.13446-2.6091 8.88612-4.3723 19.27154-3.29193 27.67217-15.36462 4.12239-29.470221 15.27411-32.42136 29.01609h196.60037c-16.91923-16.45039-42.60178-28.67087-63.64294-30.94947 7.33809-9.54532 10.75381-18.89284 12.9981-29.5758 16.59092-2.3755 35.88416-4.87239 39.12589-10.49941-1.18263-41.48212-11.14885-103.95365-15.10521-130.68881-.2432-1.64906-2.30416-16.27741-2.5536-17.65037l3.79236 12.39862 31.73012-14.26412c6.04289 3.13429-4.22794-56.02049-12.15034-55.80286-8.47302 2.34854-38.40907 5.18041-46.50482 7.41411-4.64201 1.28073-12.06054-11.78139-16.39885-10.53941-5.34136-6.61754-10.68365-8.17336-16.45872-8.07063zm-5.66126 231.05432v.009c-2.01856 8.78644-2.08996 17.27724-.2089 23.78555-13.89046-.90901-26.98304 1.68478-39.83772 1.12037-.2962-.009-.57775-.0187-.8724-.0312 3.61308-7.725 5.89355-16.16849 6.5636-24.12269 11.11455-.0527 22.81278-.28093 34.3548-.76346z" stroke="#fff" stroke-width="6"/><path d="m187.64905 81.496029c-16.34428-.06579-38.92073 3.213763-57.45942 8.53529-9.26748 2.660234-17.49388 5.789064-23.59726 9.583015-3.04499 1.892996-5.63975 3.958886-7.497109 6.545606-1.675585 2.33378-2.470038 5.304-2.133924 8.31429 4.642623 39.64783 9.918193 79.54479 14.962413 119.25404.2089 1.63016 1.25653 3.04312 2.75845 3.71018 19.12643 8.47714 37.62366 12.95105 53.44195 14.29277 15.81018 1.34106 28.91679-.26721 37.79359-4.93085 1.89353-.99235 2.88846-3.15649 2.403-5.23844l-.0312-.14405 8.42002 2.31645c.3595.0982.74394.0387 1.0573-.16338l24.4815-15.83073c1.15177-.6548 1.70864-1.82007 1.96057-2.94119.25255-1.12115.22137-2.2732-.0998-3.30649-.46396-1.51289-2.98575-11.22879-6.19007-23.97188-3.20463-12.74455-7.2327-28.94928-11.17847-44.87757-7.89184-31.8567-15.44631-62.640518-15.44631-62.640518-.0405-.145608-.0811-.295894-.13408-.441938-.74456-2.112442-2.17352-3.632223-3.85409-4.652104-1.68432-1.022064-3.6137-1.607521-5.54621-2.07618-3.91832-.95035-8.66478-1.31409-14.10996-1.336041zm15.33095 67.503901 1.59546 7.83365-7.82387 4.67138c-1.73514 1.03522-2.61502 3.07267-2.18194 5.04621l-.0312-.0767 8.00658 50.2314-11.28417-48.60695c-.52475-2.2539-2.6331-3.80078-4.9407-3.62368l-21.26129 1.62442-2.22996-9.46768c10.6768.51764 20.30845-.57548 27.85513-2.72974 5.27931-1.50702 9.08321-3.22037 12.28378-4.90206z" fill="#fff" stroke-width="3.11795"/><path d="m135.54813 139.72372 17.98246 104.44036 26.68683 1.55913c9.3816-5.68811 19.18817-7.28777 29.75988-9.11813l7.90556-3.31821-5.88419-110.12875z" fill-rule="evenodd" stroke-width="3.11795"/><path d="m187.64905 86.194777c-31.36407-.126277-89.6485 12.954983-86.10277 28.364603l15.06375 118.57371c37.31654 16.53938 72.1275 17.38571 87.14853 9.49425l-16.06897-72.27-26.24908.74354-10.68801-19.27531c25.67007 3.13565 57.14825-10.37357 61.9845-14.16593l-.34827 2.21558.60238 18.6602-13.81282 7.00569 16.94948 72.68281c3.98006-3.2842 23.51151-15.34863 23.51151-15.34863-2.6384-8.6004-32.89186-131.74954-32.89186-131.74954-1.18607-3.37864-8.64389-4.888693-19.09868-4.93091z" stroke-width="3.11795"/><path d="m212.4991 139.77672-3.5264 2.19971-.35233 14.51119-13.47078 6.36423 14.27085 73.75912 6.93775 1.5379-14.01924-72.21979 11.19843-6.99631zm-28.07806 25.49893-23.59601 3.17254 1.06228 4.79672 25.70125-2.72918z" fill="#fff" stroke-width="3.11795"/><path d="m207.9469 88.408521c1.06821 5.277252-21.43808 17.455589-49.1158 22.546289-27.6774 5.09074-56.90474 4.33632-57.97264-.94065-1.06821-5.27719 23.95988-15.77096 51.63728-20.861635 27.67772-5.09083 54.38326-6.020976 55.45116-.743755z" stroke="#fff" stroke-width="6"/><path d="m124.32352 235.14229c-11.73471-114.1035 15.28044-139.241027 33.22985-147.06396-18.78159 1.226476-46.07861 8.05681-57.26643 23.10936 1.12995 5.08494 17.60176 120.0485 17.60176 120.0485z" fill="#fff" stroke-width="3.11795"/><path d="m279.53499 217.44482c7.27012 9.12492 17.936 39.42802 15.58788 64.33388 10.18135-13.43727 16.93888-19.35133 30.67188-32.28137 7.21057 2.16532 12.69005 19.60282 12.69005 19.60282 6.00891 3.3855 15.42137 5.43876 20.37174-4.94067 0 0-8.87119-15.70099-10.81991-22.7281 6.82052 4.38303 25.42157-4.68715 25.42157-4.68715.60052.57006-10.98484 7.16165-11.81951 8.93031-.15902.32966 9.04984-.36845 8.95225.12253-.11848.59516-8.6626 3.13697-8.73587 3.83951-.47954 4.59978 3.62586 9.22149 4.63047 8.8194l19.53176-7.81826c3.24267-4.14905-9.34511-35.02641-9.34511-35.02641-.51509-2.57539-25.88552-2.96982-44.23995 2.98606-14.43205.2934-51.32798-3.03585-52.89725-1.15274z" stroke-width="3.11795"/><path d="m138.36623 7.8791079c-32.94661-2.4149006-76.180781 3.0962191-84.9501 25.3011641-.059739.250503 10.090735-1.082403 17.162584-1.37317-9.145373.742151-46.313897 10.870124-47.510958 33.489624-1.620308 1.257875 16.903618-2.786544 16.903618-2.786544-34.444944 19.642829-44.758106 30.63243-38.036724 53.781118.07965 1.97792 4.754093-3.76214 14.594325-10.37579-31.643007 40.58676 23.982435 91.68243 63.12243 110.4924 4.927036 2.8824-7.299452-12.74511 3.264313-38.71127 1.379263-3.39017-12.789922-11.35351-13.586137-14.47037-1.459711-7.86284 19.125194-8.81521 3.783341-27.40495 8.284342-10.97955 25.434281-8.29679 37.404288-16.05931 6.35141-4.22236 9.66908-9.46179 11.90102-13.37895 2.23203-3.91716 3.41843-6.21036 6.22276-8.225716 2.80443-2.015359 7.9273-4.123054 18.45443-5.153225 5.06065-.495233 7.76063-2.774806 10.0537-3.850339 2.29296-1.075532 2.52833-.818418 2.17797-1.011204 2.07701 1.138318 4.60255 1.086485 6.63107-.136104 47.50638-18.175849 9.20024-75.614058-27.59193-80.1273043z" fill="#fff" fill-rule="evenodd" stroke-width="9.95642"/><path d="m162.53358 82.315561c24.89936-.145742 24.52442-40.983866-4.24775-60.408214-17.46959-11.794016-56.62531-10.085211-95.73107 7.810594-1.02855.47068 35.18234-7.061171 51.50326 2.958778-25.15379-7.227573-72.69048 9.157912-83.42546 26.99077 17.57645-4.887548 45.46025-12.927111 49.91786-14.242346-33.34105 15.134466-66.19476 35.096807-71.06401 56.466927-1.29249 2.45345 27.47516-13.10575 50.74566-23.690728-28.03208 20.416016-45.85469 17.840624-45.45386 53.568828.95065 42.49591 62.6606 80.74971 62.6606 80.74971s-10.42888-21.0634-4.90354-31.68382c4.52976-8.70682-9.03385-10.07653-10.55696-17.56457-.60505-5.32881 4.24278-9.73514 4.24278-9.73514-3.2462 2.88899-18.56492 2.05345-18.06526.74851.55669-1.19628 9.6325-2.56073 14.35185-18.82188-3.99747 5.72548-11.52314 4.10053-11.52314 4.10053-.60888-9.03933 8.41036-9.40965 20.65744-16.90546 58.49494 35.5349 74.59208-19.8201 76.82975-36.710579 4.59016-.756048 8.95891-6.438098 14.06216-3.631331z" fill-rule="evenodd" stroke-width="5.07636"/><g fill="#fff"><path d="m132.79878 23.836876c3.20999 5.107938 9.90572 9.326751 16.21066 14.723433-9.54463-5.781014-57.82993 2.081765-66.874994-1.011313 11.689443 10.640209 80.111104 1.372039 76.819594 42.722774l1.279-.456365c2.17974-16.32863.63983-25.907474-3.07358-32.738583 5.83081 8.056442 9.89799 15.268177 3.61889 32.43126l1.28892-.70399c30.38193-52.726154-11.17647-45.590971-29.26843-54.967369zm-14.71353 30.894441c-22.099845-.75252-49.84745 5.839189-74.658073 18.461261 15.33813 3.820573 97.744863-30.654837 114.465903 7.307222l.96173-.168535c-2.21809-16.754892-18.6697-24.847428-40.76954-25.599897z" fill-rule="evenodd" stroke-width="5.07636"/><path d="m73.70129 119.74866c.41524-.53958 43.04954 19.57822 70.75841-23.157604-1.66865 5.784924-22.34697 57.267464-70.75841 23.157604z" fill-rule="evenodd" stroke-width="5.07636"/><g transform="matrix(5.0763632 0 0 5.0763632 -485.15596 377.70765)"><path d="m124.828-55.6393.0459-3.11532 2.66074-.553212 1.63416 2.9071c-1.24721.913486-2.82311 1.33703-4.34078.761436z"/><path d="m127.783-60.1028c1.00017.421313.6989 1.42337.4011 1.71273-1.27771 1.06833-2.90082.869151-3.66007.468359l-.20697-1.1004c.46218-.570182 2.34976.30469 3.46594-1.080689z"/></g><ellipse cx="224.85092" cy="-82.513206" rx="4.124547" ry="3.490001" stroke-width="3.11795" transform="matrix(.5038054 .86381718 -.86381718 .5038054 0 0)"/><ellipse cx="172.27026" cy="-175.84537" rx="4.12455" ry="3.490004" stroke-width="3.11795" transform="matrix(.11978108 .99280033 -.99280033 .11978108 0 0)"/><path d="m80.435231 272.09394c-27.894508-2.99686-59.982589 25.98134-78.086763 42.9209 19.263959 8.06449 18.091674 35.45723 61.505519 26.89675 0 0 .833974 1.02532 1.994468 2.85278-3.873409-1.78771-12.734848 10.01714-12.734848 10.01714-2.374601 11.55733 13.927634 20.79824 13.927634 20.79824 4.405651 9.06668 15.98733 11.29969 18.146346 10.95691 6.762448-1.07362 16.595183-3.65146 24.485633-7.27197.82452-.37837.65956-3.39934 1.48619-3.75344 4.25774-1.82375 9.31627-2.05966 13.02172-4.23186.92912-.54467.13233-3.10002 1.01852-3.6573 5.20122-3.27109 9.63083-4.54984 12.95885-7.81268l.15962-29.52884c-10.76331-10.54328-38.429382-20.05694-38.429382-20.05694z" stroke-width="2.71778"/></g><path d="m12.870776 314.33081c5.897275-6.40883 19.893912-29.70456 65.587766-36.54554 0 0 11.496758 30.06718 20.240728 36.19014 21.18466 10.71992 31.12016 16.04973 34.9119 18.19378l-.51903 24.24359c-.0716 3.34354-3.79509 5.25504-8.32621 6.86359l-.16516-13.92316c-1.01548 5.11503-3.84891 12.68761-4.68546 17.24794-3.12984 3.55298-8.30372 4.48775-10.77324 4.77607-.74095.38521 3.60419-10.19125-.61689-14.8554-.84262 2.58654-3.68112 16.24522-4.86566 17.00712-12.1919 7.43789-29.699317 6.92567-32.361434-3.38207-6.338537-3.14693-11.696015-9.01217-11.038077-12.93972 0 0 4.933342-6.16797 10.493798-5.88078.832353-.56461 2.213048 9.23955 8.049234 12.95123 3.337859-19.29916-11.769173-14.41754-14.635892-37.28186l-.595511 9.79554c-41.49183.57543-35.915283-16.03551-50.700847-22.46033z" stroke-width="2.71778"/><path d="m184.45512 267.14852-2.36172.29556-2.04498 3.25203c-10.49742 16.44024-14.1003 23.11957-15.6269 29.05778-.72923 2.84161-.62243 3.99001.55797 6.6796 2.56106 5.84214 10.72209 11.00969 22.97078 14.5692 4.50245 1.30852 4.72757 1.57401 3.67562 3.8518-.73706 1.59736-1.26833 1.79555-4.3381 1.59395-6.83884-.44886-9.97444.0474-13.85769 2.26711-2.39946 1.3674-2.73922 2.24423-2.25537 5.73602.56442 4.04484 4.84727 10.45503 8.12283 12.14243 1.45017.74719 1.97039.36093 1.37053-1.00163-1.14357-2.60028-.62381-4.5733 1.36546-5.26313 1.824-.63186 7.16387.41618 10.61114 2.09374 2.46208 1.19821 6.84943 4.63494 8.87876 6.93206.76376.86348 1.78026 1.79334 2.25721 2.05714 1.13021.62468 1.21769.60253 3.20788-.64301 4.00755-2.50912 14.30195-12.08337 21.72593-20.1799 2.62274-2.86104 3.73731-7.53097 3.52876-14.76633-.14732-5.21653-.84433-7.4493-3.39756-10.72564-1.02709-1.3174-3.27325-3.46568-4.97985-4.8044-2.62505-2.06017-4.84543-3.43439-12.59029-7.70614-1.14725-.63283-1.24162-1.44953-.33147-3.04615 2.14857-3.76291 4.14428-12.44564 3.88509-16.86725-.15652-2.66519-.17954-2.7278-1.49851-3.91888-1.67438-1.50371-2.77605-1.48102-3.62544.0709-.34528.62275-.95712 1.34843-1.34797 1.60859-1.59704 1.06047-6.50646.56341-12.06362-1.23721-.94561-.30614-3.46385-.96765-5.59491-1.46311-3.15724-.73392-4.3183-.83806-6.24312-.58536zm-2.89575 13.55449c1.55376-.0755 3.82017.46548 7.73104 1.76516 7.05292 2.34339 7.96814 2.52409 12.71367 2.36807 3.83445-.12522 4.08397-.0958 4.18203.61156.13351.89795-.76146 3.38392-1.64399 4.58711-.59987.81854-1.54548 1.18435-2.04682.78641-.13351-.10036-1.73147-.36554-3.53107-.57703-10.15398-1.18772-15.77146-2.31771-18.72521-3.73437-2.62229-1.25741-3.03432-3.40736-.941-5.00236.64498-.4892 1.32909-.757 2.26089-.80492zm-9.10296 12.11407c.34528-.0709.79276.24952 1.30654.98262 1.17856 1.68257 6.69567 5.14472 10.39338 6.52667 3.58125 1.33812 5.48765 1.75416 9.03851 2.07798 3.65536.33423 6.05759 1.25065 6.21043 2.35352.10128.73135-1.1896 3.15333-2.15316 4.02256-.18415.16067-.49859.30707-.69701.30384-1.85162-.023-6.78406-1.18675-8.91512-2.08853-.3683-.15652-.84203-.26195-1.0515-.24399-1.01512.0884-7.05015-3.06798-9.69914-5.06498-3.98913-3.00748-5.15019-4.48859-5.15019-6.70732 0-1.33209.28083-2.06877.71726-2.16269zm33.58238 12.67472c.46912-.0884 1.0828-.0184 1.98559.10128 2.9846.38902 7.64633 2.72481 11.62442 5.84181 4.78926 3.7543 6.66666 6.66501 6.58656 10.17517-.0598.84907-.23479 1.4813-.49859 1.50459-.25781.023-1.44096-1.37173-2.64668-3.08878-1.71627-2.44481-2.63103-3.37587-4.1696-4.29629-2.85431-1.70762-10.2631-4.40711-11.71558-4.28111-.36829.0322-1.25728-.16665-2.00124-.43505-1.66056-.59931-1.89029-1.53364-.87747-3.6683.55843-1.1827.92949-1.70729 1.71443-1.85355zm-7.0253 17.99198 3.67286.71648c8.39076 1.57641 10.13834 1.94503 12.33754 2.76606 1.26879.47372 2.77973 1.21939 3.36809 1.62585 1.34383.92913 2.55139 2.62749 2.37507 3.35594-.0691.30614-1.23242 1.53695-2.57671 2.74999-2.74014 2.47391-4.15809 2.93386-5.52126 1.72704-2.64668-2.34196-9.91137-6.26987-12.82139-6.92516-1.09339-.2463-2.20334-.58058-2.47773-.75939-.93594-.6099-.76698-2.02987.44656-3.66144l1.19559-1.59537z" fill="#fff" stroke-width="4.60373"/></g></svg>