<?xml version="1.0" encoding="UTF-8" standalone="no"?>
<svg
   enable-background="new -0.003 -0.001 566.931 154.093"
   height="1014"
   viewBox="-.003 -.001 3839.9999 1014"
   width="3840"
   version="1.1"
   id="svg27"
   sodipodi:docname="stratagus.svg"
   inkscape:version="1.3.2 (091e20e, 2023-11-25)"
   xmlns:inkscape="http://www.inkscape.org/namespaces/inkscape"
   xmlns:sodipodi="http://sodipodi.sourceforge.net/DTD/sodipodi-0.dtd"
   xmlns="http://www.w3.org/2000/svg"
   xmlns:svg="http://www.w3.org/2000/svg">
  <defs
     id="defs27" />
  <sodipodi:namedview
     id="namedview27"
     pagecolor="#ffffff"
     bordercolor="#000000"
     borderopacity="0.25"
     inkscape:showpageshadow="2"
     inkscape:pageopacity="0.0"
     inkscape:pagecheckerboard="0"
     inkscape:deskcolor="#d1d1d1"
     inkscape:zoom="0.11637081"
     inkscape:cx="1916.2881"
     inkscape:cy="507"
     inkscape:window-width="1312"
     inkscape:window-height="449"
     inkscape:window-x="0"
     inkscape:window-y="39"
     inkscape:window-maximized="0"
     inkscape:current-layer="svg27" />
  <g
     id="g27">
    <path
       d="m2955.9904 1008.8865c-6.5683-3.8793-22.5386-17.29397-35.4802-29.83368-28.1611-27.28538-37.0725-30.30125-52.9013-17.88777-9.8496 7.71755-11.4133 11.37983-10.6013 24.73135.5164 8.61734-.5547 15.6675-2.3364 15.6675-7.0303 0-28.3113-25.61493-37.7966-45.50213-19.3788-40.62351-22.5386-79.42832-7.4587-91.55208 4.2167-3.40505 15.4167-4.83649 33.3552-4.31058 38.006 1.10825 57.753 12.50815 101.7066 58.69488 36.6489 38.5103 42.1002 41.38753 63.4988 33.50742 14.05-5.17404 15.3765-16.17425 6.6391-55.11675-8.4648-37.72334-16.5728-58.90047-25.2146-65.84731-4.6641-3.75981-7.123-2.33506-13.6511 7.88488-4.3744 6.85219-13.2552 17.37429-19.7317 23.37449l-11.7739 10.9132-40.2362-24.09069c-22.1312-13.24825-54.1274-29.51717-71.1038-36.15133-16.9717-6.63035-32.4237-13.57337-34.3402-15.4265-5.0363-4.88048-4.6834-16.67243 1.9806-65.60539 8.087-59.59276 8.2687-219.27748.3921-240.78641-3.0881-8.341-5.6665-16.37601-5.7018-17.85622-.3921-4.33831 18.3861-20.35765 68.3916-59.29251 43.6246-33.96257 93.0495-78.62798 108.3743-97.94528 10.4713-13.18514 21.3949-7.2949 34.7132 18.70724 17.0033 33.20717 36.1334 57.70521 79.0647 101.24707 20.9826 21.28709 38.157 41.78435 38.157 45.54033 0 3.76077-4.6756 9.80113-10.3918 13.43089l-10.3967 6.59879 2.652 80.10532c1.4652 44.0563 4.3161 97.16597 6.3388 118.02181 5.9543 61.43346 4.8851 133.95892-2.2962 157.62219-22.2097 72.95958-78.7768 141.35614-127.7494 154.45427-11.418 3.0484-16.2047 2.4546-25.9471-3.2846zm32.7651-384.61722c0-135.09108-.3921-136.69463-9.075-154.35196-8.7641-17.23851-32.0238-40.9295-40.1836-40.9295-2.1776 0-6.88 6.39607-10.4196 14.21785-5.4751 12.08168-6.6677 34.19302-7.9349 146.93465l-1.5034 132.71585 10.2302 13.24443c12.6795 16.41999 31.6796 26.71835 47.1278 25.55847l11.7422-.9084zm-2169.23278 288.01349c-4.75027-3.20521-14.29575-13.88604-21.21601-23.69769-18.42056-26.10637-60.6833-66.28716-85.39196-81.19061-34.60895-20.86827-90.43869-36.92013-111.01776-31.91629-22.46024 5.46281-30.84183 25.75258-22.4086 54.25329 4.42224 14.93118-1.93951 18.52461-16.42175 9.3106-32.74882-20.81377-69.31927-92.3094-69.32597-135.52711 0-37.3026 5.03526-46.26418 32.90662-58.50841 45.12132-19.81932 79.66715-22.40394 152.62731-11.40278 32.75743 4.93594 38.77201 3.36394 49.0998-12.82274 14.72038-23.08476 12.47579-25.98207-34.05521-43.91765-126.55392-48.7857-206.72699-110.98317-225.576-175.00604-8.67806-29.47413-7.978-41.48792 4.12576-70.8148 25.29778-61.29577 74.01695-128.67492 211.57672-292.621464l27.0441-32.2289712 25.89646-1.1484051c21.10125-.908397 33.37429 1.3061794 66.26465 11.9430303 22.2068 7.180162 48.32801 16.406607 58.04755 20.503956 57.14762 24.098339 109.22458 33.950144 127.99421 24.22169 4.60872-2.376176 33.03096-41.950732 37.63006-48.21389 11.4697-15.6033929 29.2897-19.4473467 45.0621-2.057759 28.4815 43.248305-34.5975 187.387963-83.45917 254.319613-12.19748 16.0203-12.48248 24.55063-1.07017 32.28061 77.01614 52.18789 99.16174 68.72932 124.35714 92.88312 16.3701 15.69519 37.2026 40.68376 46.2852 55.52696 22.6018 36.92873 26.9045 61.0462 20.7331 116.25379-8.5595 76.57404-27.551 124.83479-60.0655 152.63843-92.0158 78.67579-217.38569 170.28428-264.27629 193.10417-23.2875 11.32915-24.1224 11.41999-35.36161 3.79997zm180.11995-163.07161c16.27923-11.57489 30.61803-23.62884 31.86613-26.78337 2.9685-7.52822-7.4511-26.70974-20.5284-37.75011-5.7239-4.82885-21.00563-13.82294-33.9596-19.98569-22.45642-10.67988-40.58432-16.42765-128.56898-40.74687l-38.61995-10.67605-15.19091 15.77837c-15.51512 16.11401-19.47064 30.70478-10.30579 38.00351 2.69312 2.13808 14.22115 6.83593 25.62389 10.43414 30.356 9.58311 102.62088 57.53117 127.62219 84.67694 12.88606 13.98932 28.86502 10.65598 62.06142-12.95087zm106.20823-130.99468c6.1044-36.9861-9.886-69.47707-55.8575-113.49704-38.1619-36.54433-84.67947-65.4916-116.23283-72.33517-25.47662-5.5221-30.1236-3.84013-42.60704 15.30314-14.0777 21.6122-13.10412 31.52329 3.87998 39.36897 7.60884 3.52267 17.07877 6.3932 21.04577 6.3932 15.82402 0 91.56342 35.52215 119.75222 56.16476 15.1948 11.12356 23.5084 21.78718 38.3388 49.17105 10.412 19.22933 21.2237 34.9599 24.0239 34.9599 2.9294 0 6.1791-6.58253 7.6567-15.52881zm-293.13272-161.79794c11.67435-8.29606 29.34798-32.68795 29.34798-40.4973 0-11.7843-24.66849-23.6231-63.52274-30.49154-37.75731-6.66572-57.6038-13.09813-94.15322-30.49823-37.75348-17.97957-91.87611-59.55451-102.05949-78.39563-10.14225-18.76652-19.92874-14.30581-23.46825 10.69518-3.32624 23.42613 6.7768 40.31658 45.24756 75.71538 25.54356 23.50931 85.86631 62.24527 96.93241 62.24527 2.29528 0 7.20526 1.62364 10.94656 3.60204 21.60334 11.47066 72.99555 28.07616 92.89369 30.02013 2.13843.39204 5.68081-.87015 7.8355-2.41443zm106.52858-191.43368c11.28703-11.89426 24.57764-37.18882 24.57764-46.77958 0-7.56073-2.57358-8.15836-44.03298-10.33851-51.31952-2.69173-61.09836-5.3758-133.53252-36.56824-64.27445-27.67647-85.44742-31.53572-105.88399-19.30105-24.9181 14.92353-23.83358 38.08383 2.4942 53.75416 29.6808 17.65923 88.66177 34.63192 196.22036 56.46213 19.05845 3.88029 35.64278 7.99676 36.85067 9.17194 4.81052 4.65482 15.60597 1.70205 23.29037-6.40085zm1341.82654 624.44264c-3.2067-3.08759-20.5513-23.93196-38.552-46.28904-61.3021-76.11985-69.2198-91.5014-54.006-104.84145 8.0058-7.01761 8.1406-9.82886 8.1406-173.64057 0-107.52457-1.425-169.10146-4.054-173.83851-2.6138-4.72271-8.1923-7.33602-15.6548-7.33602-23.6346 0-14.7634-14.79158 68.5743-114.30504 15.0962-18.03024 32.5633-39.99528 38.8103-48.81439l11.3625-16.03081 6.7931 8.72348c8.6666 11.13121 11.5759 32.22514 11.5759 83.87756 0 45.66368.4781 46.58642 31.3123 65.14258 19.5969 11.78048 27.4754 30.20659 30.1753 70.54229 2.6921 40.3596.4781 41.97464-30.86 22.48713-32.0249-19.91398-31.0743-24.33548-29.7794 137.83825l1.1085 140.05857 10.9819 9.14708c6.0376 5.03157 15.2856 9.14804 20.5437 9.14804 5.918 0 9.5684 2.17633 9.5684 5.72003 0 5.02296-15.2616 39.59942-49.709 112.59534-11.1684 23.67856-17.4594 28.41274-26.3316 19.81548zm-943.7959-12.04917c-6.0614-7.82177-12.0425-15.06983-13.2934-16.114-5.1912-4.33162-54.0213-67.38394-61.7019-79.67407-16.5288-26.43818-17.6334-33.32192-6.8217-42.4298l9.7195-8.18991v-159.52504c0-98.88045-1.5828-164.92952-4.098-173.7448-3.7212-12.9241-5.304-14.2188-17.5895-14.2188-7.4357 0-13.5125-1.06809-13.5125-2.37427 0-7.78639 28.4146-47.56367 63.4281-88.79342 22.2135-26.16183 46.4229-56.6725 53.7946-67.80275l13.4092-20.24004 9.0424 10.18934c8.571 9.65483 9.0501 13.14116 9.0501 66.19537 0 62.63733-.832 60.55566 32.7852 80.07377 19.5768 11.3607 28.1917 30.73633 31.6279 71.12366 3.2861 38.68911-.5164 41.67343-30.2508 23.76558-33.5646-20.21901-32.2027-25.76883-32.2027 131.53302 0 108.96175 1.1084 138.4464 5.4121 146.26818 4.8813 8.83536 11.3425 12.64298 32.7325 19.302 6.4259 1.9784 6.3503 3.40315-1.1868 23.00157-4.4308 11.47927-14.6917 34.14043-22.7998 50.36249-8.109 16.2211-18.1288 37.59138-22.2661 47.49195-9.5445 22.85527-19.616 23.94057-35.2229 3.79997zm2342.7271-8.17366c-28.0454-28.29896-45.4417-34.2284-67.5873-23.04268-8.1875 4.13751-16.5251 7.51674-18.5248 7.51674-5.8559 0-20.0684-16.04229-25.9347-29.27142-5.2821-11.90574-4.5657-13.84971 29.1299-79.63008 18.9991-37.08173 35.5796-71.31682 36.8468-76.07586 3.0088-11.25361-6.8619-17.56267-40.1291-25.66939-36.6048-8.92237-36.997-9.56781-28.6632-47.57132 7.5582-34.46554 10.0409-135.47547 3.88-157.44338-3.88-13.7799-3.5233-14.17577 32.6694-36.48887 30.4172-18.74645 78.3531-64.36997 85.7047-81.56927 6.8811-16.09489 12.7637-15.53264 27.6227 2.6114 8.571 10.49437 18.7926 17.33795 34.2608 22.94706 26.7152 9.68256 40.8369 8.79137 46.138-2.92982 6.1571-13.60013 14.4191-8.41462 28.4461 17.83327 10.0361 18.78661 12.4031 26.9641 10.4043 35.98878-1.9404 8.80858-43.8187 97.43562-55.209 116.85046-.9086 1.54427 4.1812 6.21917 11.2793 10.41501 9.7951 5.78314 19.7643 7.63149 41.2882 7.6401h28.3706l-.3921 12.32264c-.3921 6.77664-2.6922 15.63591-5.8711 19.68449-4.3668 5.59668-5.7487 19.17865-5.7487 56.62469 0 27.09127-1.9797 64.41013-4.4538 82.92709-3.3263 25.17981-3.3263 34.75813 0 37.9882 13.303 12.88872-2.4942 35.35195-46.1341 65.63026-18.192 12.61906-42.2513 34.4445-58.6654 53.22346-15.3047 17.50815-29.8463 31.82927-32.3089 31.82927-2.455 0-14.4698-10.07842-26.6797-22.39629zm53.0983-123.7275c4.3601-10.09659 5.5154-26.13602 4.6958-65.00298-.9086-44.30587-2.0591-52.19076-7.9378-55.78131-4.8058-2.92982-8.7814-3.00823-13.3385-.39205-6.049 3.68044-28.8612 42.34947-33.9356 57.51396-1.2271 3.6814-8.4964 17.82467-16.1215 31.38177-7.6251 13.55424-13.8721 28.40988-13.8836 33.01402 0 7.73859 2.0974 8.46148 28.3582 9.673 15.606.71715 32.4246 1.62364 37.3805 2.05871 6.9403.59285 10.3326-2.33506 14.7825-12.65062zm-24.8779-203.68461c10.6338-8.03118 46.0949-72.05405 46.0949-83.22447 0-9.32971-3.0097-11.86653-25.9749-21.96121-26.629-11.69633-34.8509-13.55329-37.9514-8.56858-.9468 1.54332-3.0088 25.99355-4.5762 54.2925-2.4952 45.45332-2.0591 52.19076 3.7604 57.82665 7.8747 7.62766 10.4081 7.8495 18.6348 1.62364zm-1822.2213 325.05602c-11.9603-9.43586-23.1316-19.51046-24.8187-22.38004-1.7023-2.88966-12.3878-14.89962-23.7733-26.72313-26.2685-27.27677-28.2128-36.53477-28.2434-134.2716-.01-40.90559-1.862-80.7106-4.0588-88.45301-2.652-9.34119-9.9175-18.75027-21.501-27.94994-17.4001-13.81433-23.6748-30.49919-12.5743-33.44813 2.6922-.71716 14.5731-3.44426 26.4186-6.06427 42.3259-9.36892 44.4643-17.93463 7.2292-29.01133-17.3925-5.17309-24.9497-9.60989-28.9683-17.02815-4.9645-9.16333-4.4337-11.97458 6.137-32.23279 30.5798-58.66715 119.9464-153.01805 144.9266-153.01805 14.7721 0 52.7981 25.91131 83.9756 57.21372 28.6709 28.78949 67.1522 55.65796 84.624 59.07927 14.5999 2.8495 28.7139 27.94612 24.854 44.17869-1.5837 6.63417-4.1095 67.51781-5.6301 135.2957-1.5034 67.78363-4.1372 127.07997-5.8195 131.77017-2.6529 7.37044-1.7415 8.53032 6.7663 8.53032 23.7466 0 14.9882 22.9901-31.7915 83.42241-35.025 45.25634-52.6785 62.74824-59.3138 58.77424-2.4932-1.50411-10.629-11.92678-18.0494-23.16891-7.7954-11.80055-16.3376-20.41694-20.2262-20.39686-3.682 0-21.5049 11.96598-39.5658 26.54432-18.061 14.57451-34.1939 26.50129-35.8408 26.50129-1.6631 0-12.7923-7.72233-24.7564-17.16392zm93.0333-101.67832 12.142-14.56208 1.1486-119.70474c.6312-65.83488-.3921-121.12566-2.1384-122.86691-4.5093-4.37083-53.2926 14.40813-62.2001 23.93961-6.5282 6.97457-7.388 16.41521-8.571 93.57158-1.7033 109.32511-.3921 120.35305 17.6803 140.69254 16.9688 19.21307 25.2117 18.99888 41.9386-1.07zm-46.0347-299.92019c21.5919-9.91587 36.6518-19.09833 36.6518-22.36091-14.8151-30.2611-76.69-57.57803-101.6483-40.52216-14.9174 10.28879-18.0208 22.14385-11.726 44.78589 6.029 21.71929 17.5388 34.91591 30.4402 34.91591 5.2935 0 26.1221-7.56742 46.2823-16.81873zm604.0882 409.34952c-7.5141-5.18168-28.449-24.96083-46.53-43.95016-25.9826-27.29972-33.5254-37.83712-36.0225-50.30702-1.7425-8.67567-3.2478-49.89873-3.3262-91.61137-.3921-41.70881-2.0189-82.21471-4.2558-90.00876-2.4942-8.68905-11.6744-21.43434-23.7342-32.93369-17.182-16.38749-19.1225-19.75716-15.3487-26.59213 2.3747-4.30676 7.957-7.82943 12.3917-7.82943 4.4375 0 17.5856-2.69172 29.2169-5.95813 30.049-8.46339 29.0994-17.46034-2.8107-26.72695-15.4683-4.48748-26.0906-10.08129-29.9343-15.76595-5.4675-8.08282-5.1863-10.41023 3.4449-28.42039 18.7026-39.09741 87.2482-121.00327 121.8782-145.63613 15.6614-11.13408 21.1089-13.05414 31.4023-11.05949 18.4922 3.60203 39.8077 18.88892 80.0516 57.48336 33.1639 31.80537 73.2337 58.53615 87.7475 58.53615 8.6225 0 24.4504 32.37909 20.7961 42.55218-1.7023 4.75044-4.3667 64.09363-5.9189 131.87248-1.5436 67.78363-4.0694 127.78756-5.6015 133.35364-2.3756 8.6795-1.4651 10.29166 6.4058 11.376 17.1428 2.37427 14.1494 18.81721-9.7282 53.52849-27.3166 39.71417-72.2715 90.79668-78.2412 88.91295-2.4942-.79365-11.2641-10.70857-19.4305-22.02146-8.1683-11.31576-17.4049-21.12071-20.5236-21.79005-6.5367-1.42475-19.8742 7.27961-51.681 33.6585-12.3954 10.2754-23.4329 18.70246-24.5384 18.71872-1.1084 0-8.1473-4.20445-15.6653-9.38136zm77.1883-101.50046c20.252-21.45442 20.7101-24.75525 20.7101-148.41773 0-63.59162-1.4652-116.52248-3.3655-117.62307-3.8799-2.33602-50.0848 14.55443-60.1994 21.98034-10.1996 7.48614-16.2649 71.35793-13.3699 140.73652 2.8499 68.75226 5.9935 82.45567 22.5931 99.0497 15.0131 15.00576 22.5827 15.97153 33.6172 4.27424zm-70.2278-294.45355c3.7212-1.89998 19.506-9.03712 35.0412-15.89312 15.5314-6.85123 29.0467-14.49993 30.0327-16.98894-10.0208-34.88532-80.546-59.44359-102.99-41.08728-13.4685 10.98396-15.4472 24.3307-6.971 47.06071 9.2558 24.82219 14.0653 30.33185 26.434 30.33185 6.4134 0 14.7156-1.54332 18.4531-3.44426zm-980.2746 393.04428c-10.7208-11.36835-83.3415-116.91357-83.3415-121.12184 0-1.82062 3.7614-13.91378 8.3615-26.8809 7.7007-21.7193 8.5126-33.61834 10.3058-150.88858l1.9395-127.30467-10.3019-7.85333c-5.6646-4.31823-10.3001-9.9197-10.3001-12.44887 0-4.29432 32.9936-52.10374 67.2947-97.5102 8.5116-11.26986 17.1065-18.9769 19.965-17.91168 2.7716 1.02888 8.4773 10.58426 12.6967 21.24119 9.2089 23.26261 33.1132 50.94291 41.3475 47.884 7.9503-2.96902 26.7238-29.9924 32.8837-47.35426 2.8117-7.92792 7.1508-14.42056 9.6325-14.42056 4.8345 0 70.2164 117.67088 70.4392 126.77111.3921 2.96806-9.9414 18.16411-22.2498 33.73691-34.653 43.83446-37.3451 45.52025-44.9942 28.14309-2.4942-5.73533-13.2982-22.0511-23.9397-36.2546-13.8176-18.42899-20.5638-24.65199-23.5687-21.7432-2.8499 2.77109-4.2558 53.52944-4.3514 158.54014l-.3921 154.46288 10.7658 15.10138c14.9489 20.97537 13.8443 28.9358-6.2403 44.8796-12.7398 10.11476-19.1732 19.26184-25.6507 36.48122-9.6009 25.50684-16.8923 28.95396-30.5597 14.45117zm1732.6329-21.28805c-16.1454-15.92468-44.9511-42.60382-64.0096-59.29155l-34.6577-30.33377.6025-144.0909c.3921-79.25047 2.2169-150.92108 4.165-159.26112 3.0087-12.67071 2.3756-16.3282-3.6428-22.22226-6.0767-5.93805-6.6028-9.25513-3.2851-20.86062 12.2415-43.00734 62.1876-114.92753 74.9551-107.92809 8.2984 4.54772 39.6337 29.04671 54.291 42.44127 17.7903 16.26126 18.5755 26.37411 3.879 49.79641l-10.717 17.0597-1.1085 150.67534c-.832 105.4668.3921 153.04195 3.2067 158.56787 5.2457 9.49227 37.7688 30.13488 47.4807 30.13488 3.8006 0 8.7498-3.28553 10.9781-7.33507 2.6138-4.74183 4.0148-66.00126 3.9594-173.47897l-.3921-166.14773-11.6361-11.0595c-18.6702-17.75295-15.935-26.36646 19.3721-60.98213 17.0157-16.68868 32.7603-30.33663 34.9771-30.33663 3.991 0 48.1253 51.42961 73.8755 86.09022 10.234 13.77034 12.3916 19.38328 9.489 24.64338-7.363 13.34005-12.3629 91.16959-12.3629 192.47594 0 94.11376.6312 104.0325 7.5572 117.18226 7.4625 14.17578 7.4625 14.59077 0 31.3464-9.8697 22.31023-36.6604 66.34262-56.1262 92.24628l-15.5515 20.69807-12.9262-26.38655c-7.1144-14.51523-16.4897-28.74168-20.8402-31.61986-7.1699-4.73419-9.1065-3.99791-20.5905 7.81508-6.9729 7.17155-17.9625 23.51123-24.4199 36.30911-8.6943 17.22703-13.7736 23.20428-19.5691 23.03408-4.383-.39205-20.7608-12.98434-37.1873-29.18154z"
       fill="#fff"
       fill-rule="evenodd"
       stroke-width="9.56286"
       id="path1" />
    <path
       d="m432.58515 466.36066-174.29501 3.83993c-30.65204 42.24633-218.306711 15.20201-130.97662 344.55508 16.62713 62.70788-31.647981 56.5702-41.497604 111.48114-1.701386 9.48371-27.640578 16.63804-44.340483.92258-6.30381 18.21188-6.101436 43.31391 13.117698 58.30891l37.282715-31.61672c31.706734 3.37818-3.341502 44.24599-3.341502 44.24599l502.908716 2.39373c13.15092-203.31296-103.62908-344.45425-158.85791-534.13076z"
       fill="#fff"
       stroke="#000"
       stroke-width="11.9774"
       id="path2" />
    <path
       d="m223.97211 564.4637c-22.39158 7.5379-78.75009 30.03405-90.54847 49.04653-16.55892 76.45222 25.6579 157.96333 19.06092 239.29479-2.71189 19.30774-16.33689 33.94753-28.49384 48.11077 10.98621-5.52021 23.81619-17.50076 35.13328-26.00123 14.56742-11.10903 20.98129-30.85986 14.89932-48.29385-2.80977-18.48466 13.39008-32.51343 24.58579-44.93537 27.78065-26.45466 59.28856-49.36773 93.71414-66.39983-23.55217-44.58427-32.92731-95.39106-57.64688-139.46301-2.84259-4.30527-5.64882-9.38178-10.70426-11.3586zm-112.75248 327.88637c-9.34361 23.75866-27.9887 45.19771-53.013308 53.62034-16.017039 2.82405.856353 29.33671 13.064674 16.29202 25.736234-12.58799 37.477884-43.40055 39.948634-69.91236z"
       stroke="#fff"
       stroke-width="10.1336"
       id="path3" />
    <path
       d="m635.98763 623.19045c-3.75-.12775-9.23793 1.11718-10.09484 4.76951l-83.1932 338.89254c-.54921 2.3331 21.26636 24.36538 30.50227 33.6241h52.82958l7.58873-31.9521-4.22638-17.80394 9.69618-9.43865 7.99-36.21886-12.73094-13.17278 15.21449-6.63563 52.59477-250.3486c1.1439-4.83258-2.41903-9.49028-7.38308-9.65775z"
       stroke-width="10.1336"
       id="path4" />
    <path
       d="m643.96442 631.04738-84.26207 355.57608 13.51909 13.85334h36.42056l9.19923-38.51755-4.65391-14.36914 9.85544-11.29516 6.68426-29.79076-13.39496-18.65153 19.11452-10.24989 53.69632-235.49247z"
       fill="#fff"
       stroke-width="10.1336"
       id="path5" />
    <path
       d="m696.6399 456.98258c-20.49972-.004-37.28852 16.7815-37.28411 37.27793.006 11.22989 5.93272 20.95232 14.43009 27.95365l-24.90876 79.06379c-25.05652-3.79447-47.07562-7.45044-71.76597-11.07036-3.18903-.47249-6.3375 1.07849-7.90585 3.89468l-25.08098 47.6983c-2.77908 5.01469.66308 11.20551 6.38993 11.49235l78.69447 4.22069c-3.92944 20.25302-19.43706 148.57659-9.36554 168.07547 18.50078-7.91486 59.51691-145.94398 65.8153-159.55294l10.38161 4.00626 2.32709.89783 62.99789 22.06686c5.55914 2.04281 11.26219-2.65245 10.32365-8.49936l-4.83496-51.28501c-.47944-2.96884-2.6337-5.3922-5.52642-6.21617 0 0-39.7167-12.88733-65.51105-18.49564l14.19851-80.08069c14.04035-5.52265 23.88286-18.72158 23.9095-34.15075v-.02c.004-20.49641-16.7844-37.28234-37.2842-37.27793z"
       stroke-width="9.82394"
       id="path6" />
    <path
       d="m696.6399 464.74283c-16.31142-.004-29.53543 13.21819-29.5318 29.5269.004 10.69708 5.79695 20.55468 15.14003 25.76654l-21.74106 93.07009c-27.3954-4.32856-54.15072-7.44533-81.36113-11.4347l-21.26544 38.19925 83.62955 7.09838c-10.29583 48.10939-23.00551 180.28068-20.65681 173.86128.62485 6.61352 55.87516-152.04611 59.71309-168.75621l80.94759 28.59057-7.37681-45.57946s-49.21683-15.00716-72.6565-19.30664l29.02228-97.73371c13.3533-3.10617 15.64522-10.0683 15.66879-23.77597.004-16.30873-13.22037-29.53045-29.53178-29.52692z"
       fill="#fff"
       stroke-width="9.82394"
       id="path7" />
    <path
       d="m631.51555 651.99204-79.13212 327.11357 11.50566 12.26413c9.93143-43.89358 51.93785-180.7875 51.93785-180.7875 6.99277-106.44944 15.68861-158.59032 15.68861-158.59032z"
       fill="#666"
       fill-rule="evenodd"
       stroke-width="6.22414"
       id="path8" />
    <path
       d="m673.84317 568.75734c-4.25643.0723-6.99775 1.04146-7.27288 2.5709-.46685 2.47764 5.57541 5.66713 13.49005 7.11797 7.91029 1.45315 14.69267.61925 15.14022-1.86111.46686-2.47756-5.57542-5.66711-13.49006-7.1179-2.74259-.50411-5.47395-.75062-7.86733-.71024zm-5.2007 19.10906c-4.25579.0723-6.99714 1.04147-7.27226 2.57091-.43573 2.47596 5.5997 5.65188 13.49007 7.0988 7.89908 1.44781 14.66775.61489 15.1203-1.86105.43571-2.47595-5.59971-5.65179-13.48945-7.09872-2.7351-.50288-5.45902-.74914-7.84866-.71017zm-86.73426 11.5116-2.45626 7.36733 176.23229 29.46947c-24.09251-9.75865-48.80436-16.02347-73.76272-20.87422 2.44877-.39022 3.92153-1.20165 4.14499-2.2832.47308-2.4755-5.55986-5.66437-13.47076-7.11782-2.74259-.50413-5.47395-.75064-7.86797-.71024-4.25579.0723-6.99711 1.04146-7.27226 2.57091-.19285 1.14863 1.02459 2.50781 3.39619 3.79884-26.26554-4.35766-52.69353-7.77512-78.9435-12.22139z"
       stroke-width="6.22414"
       id="path9" />
    <path
       d="m717.04224 415.1957c-27.57831 1.00573-56.75946 7.35369-56.75946 7.35369l-118.04366-3.19551c-20.08195 73.13626 10.45368 109.387 33.94303 170.57019 2.24896-2.70772 56.84473-56.00738 75.68489-75.83048 0 0 10.85828 33.41438 15.68177 37.03172 7.83869 4.0191 33.19853 14.88131 54.13329-5.85531l3.90907-7.33621 58.50735-19.91167c8.26261-47.54915-25.78623-96.36095-25.78623-96.36095-8.75498-5.74907-24.72181-7.06892-41.27005-6.46559z"
       stroke-width="6.22414"
       id="path10" />
    <path
       d="m395.22783 429.06193c-11.52929.20475-23.92132 3.72054-38.04382 3.72054-27.17558 0-52.41092 14.46543-73.27658 39.08639-32.22313-2.56101-61.17772-14.21002-84.26059-4.33314-119.505804 39.69122-153.288847 120.95362-160.64825 168.02659 43.751196-2.98186 66.15994-7.95691 120.39095-15.79002l66.98097-35.78849c17.6139 81.01725-9.48947 208.84919-22.15291 266.20109-7.47953 16.39676-13.78946 26.43061-10.7481 32.7929 11.53304 13.42273 28.25804 7.83193 50.59333 8.25264-5.20879 17.73726-8.72883 38.46721-6.57199 55.2354-30.67382 8.22855-58.83414 30.48809-64.72577 57.91797h392.49156c-33.77742-32.83604-85.04988-57.22889-127.0563-61.77712 14.64971-19.05306 21.46883-37.7113 25.94931-59.03516 33.12199-4.74165 71.63888-9.7256 78.11065-20.95748-2.361-82.80093-22.25749-207.49804-30.15594-260.8631-.48552-3.29163-4.60001-32.49074-5.09799-35.23125l7.57104 24.74843 63.34579-28.47209c12.06398 6.25624-8.44063-111.82042-24.25685-111.38602-16.91548 4.68783-76.67959 10.34042-92.84189 14.79903-9.26728 2.55642-24.07758-23.5164-32.73855-21.03733-10.66345-13.20902-21.32876-16.31454-32.85807-16.10948zm-11.3021 461.19898v.018c-4.02984 17.53829-4.17238 34.48646-.41704 47.47746-27.73082-1.81444-53.86875 3.36292-79.53174 2.23633-.59133-.018-1.15342-.0373-1.74165-.0623 7.21312-15.41959 11.76584-32.27332 13.10352-48.15041 22.18901-.10519 45.54327-.56075 68.58568-1.52391z"
       fill="#fff"
       stroke="#000"
       stroke-width="11.9774"
       id="path11" />
    <path
       d="m374.62424 162.67225c-32.6296-.13132-77.70107 6.41487-114.71157 17.03697-18.50153 5.31-34.92466 11.55534-47.1094 19.12831-6.079 3.77854-11.25916 7.90218-14.96718 13.06544-3.34512 4.65837-4.93116 10.58712-4.26015 16.59585 9.2685 79.13956 19.80061 158.77641 29.87086 238.03857.41704 3.2539 2.50852 6.07426 5.50695 7.40576 38.18386 16.9209 75.1116 25.85111 106.69112 28.52926 31.56333 2.67684 57.72927-.53336 75.45085-9.84228 3.78023-1.9808 5.7665-6.30056 4.79733-10.45626l-.0623-.28753 16.80966 4.62378c.71771.19601 1.4852.0773 2.11079-.32612l48.87469-31.59913c2.29938-1.30703 3.41112-3.63298 3.91407-5.8708.50419-2.23789.44194-4.53745-.19924-6.59997-.92625-3.01982-5.96073-22.41337-12.35781-47.84938-6.3977-25.43892-14.43931-57.78459-22.31662-89.57846-15.75521-63.58798-30.8369-125.03442-30.8369-125.03442-.0809-.29064-.16191-.59062-.26768-.88213-1.48643-4.21657-4.3392-7.25015-7.69428-9.28589-3.36256-2.04011-7.21436-3.20872-11.07241-4.14419-7.82251-1.89696-17.29831-2.62301-28.16902-2.66682zm30.6066 134.74204 3.18516 15.63646-15.61951 9.32437c-3.46403 2.06636-5.22061 6.13324-4.35601 10.07255l-.0623-.1531 15.98428 100.26504-22.52764-97.02254c-1.04761-4.49892-5.2567-7.58659-9.86358-7.23309l-42.44588 3.24245-4.45188-18.89809c21.31509 1.03324 40.54364-1.14869 55.60978-5.44873 10.53958-3.00811 18.13366-6.42806 24.52325-9.78482z"
       stroke-width="6.22414"
       id="path12" />
    <path
       d="m270.61034 278.89839 35.90005 208.46954 53.2774 3.11212c18.72936-11.35383 38.30712-14.54685 59.41241-18.20036l15.7826-6.62336-11.74715-219.82392z"
       fill-rule="evenodd"
       stroke-width="6.22414"
       id="path13" />
    <path
       d="m374.62424 172.05125c-62.615-.25206-178.97362 25.85896-171.89495 56.61753l30.07316 236.6806c74.49847 33.01364 143.99482 34.70297 173.9827 18.95112l-32.07998-144.25548-52.40347 1.48416-21.33747-38.47474c51.24755 6.25896 114.09036-20.7063 123.74541-28.27609l-.69528 4.42244 1.20259 37.24694-27.57582 13.98379 33.83782 145.07947c7.94576-6.55547 46.93821-30.63683 46.93821-30.63683-5.26728-17.16694-65.66507-262.98038-65.66507-262.98038-2.36786-6.74398-17.2566-9.75814-38.12847-9.84241z"
       fill="#fff"
       stroke-width="6.22414"
       id="path14" />
    <path
       d="m424.2347 279.00418-7.04008 4.39076-.70339 28.96525-26.89297 12.7034 28.49023 147.22785 13.85047 3.06975-27.98791-144.15525 22.35647-13.96508zm-56.05484 50.89747-47.1069 6.33259 2.12073 9.57455 51.30979-5.44761z"
       fill="#666"
       stroke-width="6.22414"
       id="path15" />
    <path
       d="m415.14672 176.47002c2.13257 10.53373-42.79883 34.84245-98.05443 45.00381-55.25496 10.16144-113.60421 8.65557-115.73616-1.8776-2.13257-10.5336 47.83333-31.47983 103.08829-41.64113 55.25561-10.16162 108.57035-12.01825 110.7023-1.48459z"
       fill="#fff"
       stroke="#000"
       stroke-width="11.9774"
       id="path16" />
    <path
       d="m248.20161 469.35987c-23.42709-227.75778 30.50576-277.93387 66.33983-293.54893-37.49543 2.44812-91.991 16.0819-114.32629 46.12773 2.25583 10.14986 35.14003 239.62437 35.14003 239.62437z"
       fill="#666"
       stroke-width="6.22414"
       id="path17" />
    <path
       d="m558.06467 434.0346c14.51401 18.21392 35.8073 78.70081 31.11953 128.41448 20.32597-26.82164 33.81666-38.62648 61.23312-64.43565 14.39513 4.32211 25.33433 39.12846 25.33433 39.12846 11.99614 6.75767 30.78711 10.85611 40.66999-9.86189 0 0-17.71038-31.34016-21.60079-45.36672 13.61644 8.74881 50.75144-9.35584 50.75144-9.35584 1.19887 1.13787-21.93006 14.2951-23.59639 17.82546-.31746.65802 18.06704-.73545 17.87221.24458-.23653 1.18797-17.29395 6.26159-17.44023 7.6639-.95735 9.18145 7.23864 18.40668 9.24424 17.60408l38.99307-15.60574c6.47364-8.28177-18.65651-69.91492-18.65651-69.91492-1.02833-5.14064-51.67767-5.92795-88.32032 5.96036-28.81204.58565-102.47081-6.05975-105.60369-2.30094z"
       fill="#fff"
       stroke-width="6.22414"
       id="path18" />
    <g
       fill-rule="evenodd"
       id="g22">
      <path
         d="m276.23637 15.728236c-65.77437-4.820294-152.08676 6.180248-169.59377 50.502717-.11926.50002 20.14508-2.160544 34.26326-2.740933-18.25775 1.48138-92.460726 21.697452-94.85053 66.8474-3.234772 2.5108 33.746261-5.56212 33.746261-5.56212-68.765638 39.20833-89.3547607 61.14426-75.9362421 107.3505.1590127 3.94805 9.4910371-7.50947 29.1360051-20.71073-63.171871 81.01373 47.878361 183.00391 126.017166 220.54979 9.8363 5.75345-14.57257-25.44004 6.51685-77.27013 2.75355-6.76699-25.53371-22.66232-27.12327-28.88377-2.91415-15.69473 38.1814-17.59572 7.55304-54.70201 16.5388-21.91587 50.77681-16.56091 74.67365-32.05539 12.67991-8.4281 19.30328-18.88633 23.75911-26.70523 4.45601-7.8189 6.82453-12.39627 12.42307-16.41905 5.59875-4.02278 15.82601-8.22987 36.8423-10.28616 10.10304-.98852 15.49326-5.53869 20.07113-7.68552 4.57765-2.14683 5.04754-1.63361 4.34808-2.01843 4.14653 2.27216 9.1885 2.1687 13.23822-.27167 94.8414-36.28014 18.3673-150.930421-55.08433-159.939145z"
         stroke-width="19.8753"
         id="path19" />
      <path
         d="m324.4839 164.30809c49.7089-.29091 48.96037-81.806383-8.48018-120.578605-34.87616-23.541599-113.04636-20.130717-191.11682 15.590438-2.05339.939507 70.23777-14.094543 102.82074 5.905907-50.21685-14.426691-145.118753 18.279769-166.54999 53.87528 35.089498-9.75586 90.75652-25.803331 99.65566-28.428623-66.561836 30.209353-132.150746 70.055443-141.871682 112.711543-2.580317 4.89724 54.851212-26.1599 101.308272-47.28818-55.963044 40.75165-91.543974 35.611-90.74376 106.92675 1.89787 84.82451 125.09517 161.18151 125.09517 161.18151s-20.82014-42.04387-9.78939-63.2429c9.04318-17.37936-18.03511-20.11339-21.07584-35.05999-1.20792-10.63664 8.47025-19.43195 8.47025-19.43195-6.48069 5.7666-37.062868 4.09881-36.06535 1.49407 1.111372-2.38785 19.23025-5.11138 28.65193-37.56966-7.98052 11.42842-23.00471 8.18492-23.00471 8.18492-1.21557-18.04307 16.79038-18.78226 41.24036-33.74436 116.77888 70.92989 148.91509-39.56217 153.38236-73.27663 9.16376-1.50912 17.8855-12.85085 28.0736-7.24837z"
         fill="#fff"
         stroke-width="10.1336"
         id="path20" />
      <path
         d="m265.12156 47.580946c6.4084 10.195766 19.7757 18.616783 32.36284 29.3889-19.05483-11.539268-115.45125 4.155334-133.50876-2.018644 23.33672 21.238527 159.93324 2.738676 153.36209 85.277348l2.55339-.91093c4.35161-32.59298 1.27735-51.71295-6.13608-65.348277 11.64059 16.081167 19.76028 30.476247 7.22473 64.734837l2.57319-1.40521c60.65427-105.244723-22.31263-91.002448-58.43128-109.718329zm-29.37399 61.667254c-44.11997-1.50208-99.51509 11.65539-149.046839 36.84984 30.620929 7.6261 195.137139-61.188989 228.518909 14.58567l1.91999-.3364c-4.42818-33.44382-37.27206-49.59704-81.39202-51.09901z"
         stroke-width="10.1336"
         id="path21" />
      <path
         d="m147.13975 239.02691c.82898-1.07704 85.94379 39.07936 141.26158-46.22404-3.33128 11.54708-44.61333 114.30947-141.26158 46.22404z"
         stroke-width="10.1336"
         id="path22" />
    </g>
    <g
       fill="#fff"
       transform="matrix(10.134415 0 0 10.132741 -968.55884 753.92931)"
       id="g24">
      <path
         d="m124.828-55.6393.0459-3.11532 2.66074-.553212 1.63416 2.9071c-1.24721.913486-2.82311 1.33703-4.34078.761436z"
         id="path23" />
      <path
         d="m127.783-60.1028c1.00017.421313.6989 1.42337.4011 1.71273-1.27771 1.06833-2.90082.869151-3.66007.468359l-.20697-1.1004c.46218-.570182 2.34976.30469 3.46594-1.080689z"
         id="path24" />
    </g>
    <ellipse
       cx="448.83786"
       cy="-164.72395"
       fill="#fff"
       rx="8.233201"
       ry="6.967121"
       stroke-width="6.22414"
       transform="matrix(.50386752 .86378094 -.8638534 .50374329 0 0)"
       id="ellipse24" />
    <ellipse
       cx="343.8645"
       cy="-351.05847"
       fill="#fff"
       rx="8.232881"
       ry="6.967403"
       transform="matrix(.11980058 .99279798 -.99280268 .11976157 0 0)"
       id="ellipse25" />
    <path
       d="m160.58334 543.11769c-55.68839-5.98193-119.748805 51.86039-155.8918474 85.67282 38.4584294 16.09723 36.1180874 70.77486 122.7891774 53.6876 0 0 1.66494 2.04661 3.98174 5.69433-7.73285-3.56838-25.42376 19.99485-25.42376 19.99485-4.74064 23.06915 27.80503 41.51459 27.80503 41.51459 8.79541 18.09767 31.91699 22.5549 36.22723 21.87069 13.50051-2.14302 33.13051-7.28855 48.88294-14.51531 1.64607-.75526 1.31675-6.7853 2.96702-7.49211 8.50013-3.64032 18.59894-4.11121 25.99647-8.44706 1.85489-1.08719.26418-6.18783 2.03337-7.3002 10.38368-6.5293 19.22692-9.08177 25.87095-15.5946l.31867-58.94142c-21.4878-21.04506-76.72014-40.03492-76.72014-40.03492z"
       stroke-width="5.42531"
       id="path25" />
    <path
       d="m25.698152 627.42514c11.773277-12.79243 39.716063-59.29217 130.938948-72.9472 0 0 22.95204 60.01599 40.40844 72.2378 42.2929 21.39763 62.12806 32.03627 69.69787 36.31593l-1.03619 48.39173c-.14294 6.67392-7.57649 10.48939-16.62239 13.70016l-.32972-27.7915c-2.0273 10.20992-7.68394 25.32527-9.35402 34.42797-6.24839 7.09197-16.57749 8.95783-21.50762 9.53334-1.47923.7689 7.19538-20.34238-1.23155-29.65232-1.6822 5.1629-7.34897 32.42649-9.71377 33.94729-24.33982 14.84649-59.29151 13.82407-64.60614-6.75083-12.65421-6.28147-23.34984-17.98886-22.03633-25.82849 0 0 9.84888-12.31166 20.94974-11.73841 1.6617-1.127 4.41811 18.44272 16.06943 25.85147 6.66368-38.52234-23.49589-28.77832-29.21899-74.41694l-1.18887 19.55251c-82.833993 1.1486-71.701014-32.00789-101.218808-44.83223z"
       fill="#fff"
       stroke-width="5.42531"
       id="path26" />
    <path
       d="m368.2479 533.24632-4.71492.58995-4.08258 6.49126c-20.95698 32.81575-28.14974 46.14812-31.19743 58.00116-1.45583 5.67203-1.24262 7.96431 1.11392 13.3329 5.11289 11.66128 21.40551 21.97604 45.8587 29.08104 8.98866 2.61189 9.43809 3.14183 7.33798 7.68844-1.47146 3.18843-2.53208 3.58403-8.66055 3.18162-13.65301-.89595-19.9129.0946-27.66539 4.5253-4.79026 2.72941-5.46856 4.47962-4.5026 11.44945 1.1268 8.07376 9.67705 20.8689 16.21636 24.23706 2.8951 1.49144 3.93367.72044 2.73611-1.99932-2.28301-5.19032-1.24537-9.12859 2.726-10.50554 3.64142-1.26123 14.30189.83073 21.184 4.17924 4.91528 2.3917 13.67415 9.25163 17.72549 13.83683 1.52477 1.72356 3.5541 3.57962 4.50628 4.10618 2.25634 1.2469 2.43099 1.20269 6.40419-1.28349 8.00064-5.00836 28.55231-24.11917 43.37349-40.28035 5.23602-5.71082 7.46114-15.03229 7.04479-29.47452-.29411-10.41253-1.68561-14.86928-6.78286-21.40906-2.05048-2.62961-6.5347-6.91771-9.94174-9.58988-5.24063-4.11223-9.67338-6.85526-25.13517-15.38194-2.29036-1.26317-2.47876-2.89336-.66174-6.08031 4.28939-7.51101 8.27361-24.84228 7.75617-33.66809-.31248-5.31989-.35844-5.44487-2.99162-7.82234-3.34272-3.0015-5.54208-2.95621-7.2378.14152-.68932 1.24305-1.91079 2.69156-2.69108 3.21085-3.18832 2.11677-12.98945 1.1246-24.08372-2.46955-1.88781-.61107-6.91521-1.93149-11.16964-2.92046-6.30309-1.46495-8.62102-1.67282-12.46372-1.16841zm-5.78105 27.05561c3.10191-.1507 7.62656.92913 15.43419 3.52337 14.0804 4.67756 15.90754 5.03825 25.38148 4.72682 7.65507-.24995 8.15321-.19122 8.34897 1.22071.26654 1.79237-1.52017 6.75452-3.28205 9.15616-1.19757 1.63386-3.08538 2.36404-4.08625 1.56973-.26654-.20033-3.4567-.72964-7.04941-1.15179-20.27133-2.37077-31.48603-4.6263-37.38287-7.45404-5.23512-2.50987-6.0577-6.8013-1.87861-9.98503 1.28764-.97647 2.65339-1.51101 4.51363-1.60667zm-18.17309 24.18045c.68932-.14152 1.58266.49806 2.60837 1.96137 2.35287 3.35852 13.36719 10.26919 20.74927 13.02765 7.14958 2.67097 10.9555 3.50141 18.04442 4.14777 7.29753.66715 12.09332 2.49638 12.39845 4.69778.2022 1.45982-2.37491 6.29424-4.29855 8.02928-.36764.32071-.99538.61293-1.39151.60649-3.69656-.0459-13.54364-2.36883-17.79808-4.16884-.73527-.31243-1.68102-.52287-2.0992-.48702-2.02658.17645-14.07487-6.12388-19.3633-10.11002-7.96387-6.00312-10.2818-8.95951-10.2818-13.38823 0-2.65894.56065-4.1294 1.43193-4.31687zm67.04362 25.29954c.93655-.17645 2.1617-.0367 3.96402.20216 5.95844.77651 15.26508 5.43889 23.20691 11.66062 9.56124 7.49382 13.30927 13.30378 13.14936 20.31028-.11938 1.6948-.46873 2.95677-.99538 3.00326-.51469.0459-2.87672-2.73806-5.28381-6.1654-3.42635-4.88-5.25257-6.73845-8.32416-8.57567-5.69833-3.40851-20.48918-8.79687-23.3889-8.54536-.73525.0643-2.51003-.33265-3.99526-.86839-3.31513-1.19626-3.77376-3.06124-1.75178-7.32216 1.11485-2.36074 1.85563-3.40786 3.42268-3.6998zm-14.02525 35.91312 7.33247 1.43014c16.75125 3.14662 20.24011 3.88241 24.63057 5.52123 2.53301.94558 5.54944 2.43398 6.72403 3.2453 2.68282 1.8546 5.09358 5.24464 4.74158 6.69867-.13795.61108-2.4604 3.06785-5.14413 5.48915-5.47039 4.93808-8.30118 5.85617-11.0226 3.44728-5.28382-4.6747-19.78699-12.51505-25.59653-13.82305-2.18284-.49163-4.39874-1.15888-4.94653-1.51579-1.8685-1.2174-1.53119-4.05175.89151-7.30847l2.38687-3.18446z"
       id="path27" />
  </g>
</svg>
