<?xml version="1.0" encoding="UTF-8" standalone="no"?>
<svg
   height="1426"
   viewBox="0 0 3840 1426"
   width="3840"
   version="1.1"
   id="svg29"
   sodipodi:docname="supergrafx.svg"
   inkscape:version="1.3.2 (091e20e, 2023-11-25)"
   xmlns:inkscape="http://www.inkscape.org/namespaces/inkscape"
   xmlns:sodipodi="http://sodipodi.sourceforge.net/DTD/sodipodi-0.dtd"
   xmlns="http://www.w3.org/2000/svg"
   xmlns:svg="http://www.w3.org/2000/svg">
  <defs
     id="defs29" />
  <sodipodi:namedview
     id="namedview29"
     pagecolor="#ffffff"
     bordercolor="#000000"
     borderopacity="0.25"
     inkscape:showpageshadow="2"
     inkscape:pageopacity="0.0"
     inkscape:pagecheckerboard="true"
     inkscape:deskcolor="#d1d1d1"
     inkscape:zoom="0.1654979"
     inkscape:cx="1918.4534"
     inkscape:cy="713"
     inkscape:window-width="1312"
     inkscape:window-height="449"
     inkscape:window-x="0"
     inkscape:window-y="39"
     inkscape:window-maximized="0"
     inkscape:current-layer="svg29" />
  <g
     id="g31">
    <g
       id="g30">
      <g
         fill="#fff"
         transform="matrix(1.0002605 0 0 .99993583 0 -.108482)"
         id="g29">
        <path
           d="m285.1 673.4h-161.1l-124 124v205.9l124 124 67.6-.1v-154.8h-36.7v-144.1h99.4v84.3h154.8v-115.2z"
           id="path1" />
        <path
           d="m217.6 972.4v154.8h36.7v144.1h-99.4v-92.9h-154.9v123.8l124 124h161.1l124-124v-205.9l-124-123.9z"
           id="path2" />
        <path
           d="m641.8 1271.3h-36.7v-597.9h-154.9v628.8l124 124h67.6z"
           id="path3" />
        <path
           d="m704.5 673.4v597.9h-36.7v154.9h67.5l124-124v-628.8z"
           id="path4" />
        <path
           d="m1866.3 972.4v-144.1-154.9h-154.9v752.8h154.9v-29.5-269.5z"
           id="path5" />
        <path
           d="m1996.6 673.4h-29.1-21.2-53.9v154.9h73.3v67.6 54.7 21.8h-73.3v154.8h73.3v24.6 52.9 216.4h154.9v-218.1-51.2-17.6l-84.4-84.4 84.4-84.4v-14.8-54.1-65.3-21-12.8z"
           id="path6" />
        <path
           d="m1520.7 972.4h121.6v154.9h-121.6z"
           id="path7" />
        <path
           d="m1668.3 673.4h-173.7-154.8v752.8h122.2 206.3v-154.9h-173.7v-58.6-85.5-154.8-29.1-115h173.7z"
           id="path8" />
        <path
           d="m1183.4 673.4h-104.3v154.9h73.4v193.2h-73.4v154.9h104.3l124-124v-255z"
           id="path9" />
        <path
           d="m1053.1 1176.4v-154.9-193.2-154.9h-154.9v752.8h154.9z"
           id="path10" />
        <path
           d="m2916.9 1025.8v-32.9c0-26.1-21.2-47.3-47.3-47.3h-222.6c-.2 0-.4.2-.4.4v207.5c0 .2.2.4.4.4h45.6c.2 0 .4-.2.4-.4v-79.9c0-.2.2-.4.4-.4h91c.1 0 .2.1.3.2l67.6 80.5c.1.1.2.2.3.2h59.5c.3 0 .6-.4.3-.7l-66.7-79.5c-.2-.3-.1-.7.3-.7h23.6c26.2-.1 47.3-21.3 47.3-47.4zm-223.9 9.6v-52c0-.2.2-.4.4-.4h177.2v52.9h-177.2c-.3-.1-.4-.3-.4-.5z"
           id="path11" />
        <path
           d="m2602.9 982.9v-37.3h-229.6c-26.1 0-47.3 21.2-47.3 47.3v113.7c0 26.1 21.2 47.3 47.3 47.3h229.6v-118.2h-138.5v37.3h92.1v43.5h-184.2v-133.6z"
           id="path12" />
        <path
           d="m3524.9 982.9v-37.3h-196.4-46.4v37.3 171.1h46.4v-80.9h165.9v-37.3h-165.9v-52.9z"
           id="path13" />
        <path
           d="m3839 945.6h-65.6l-78.8 78.8-78.9-78.8h-65.6l104.2 104.2-104.2 104.2h65.6l78.9-78.9 78.8 78.9h65.6l-104.2-104.2z"
           id="path14" />
        <path
           d="m3193.8 1154h52.2l-106.9-208.4h-90.4l-106.9 208.4h52.2l87.6-171.1h24.5z"
           id="path15" />
        <path
           d="m2325.9 791h1513.1v37.3h-1513.1z"
           id="path16" />
        <path
           d="m2325.9 673.4h1513.1v37.3h-1513.1z"
           id="path17" />
        <path
           d="m2325.9 1383.8h1513.1v37.3h-1513.1z"
           id="path18" />
        <path
           d="m2325.9 1266.3h1513.1v37.3h-1513.1z"
           id="path19" />
        <path
           d="m2197.9 105.2-167.5 75.6-53.5-48.7 19.4 69.7-142.9 115.5 167.4-75.6 53.5 48.7-19.3-69.6z"
           id="path20" />
        <path
           d="m2197.9 105.2-167.5 75.6-53.5-48.7 19.4 69.7-142.9 115.5 167.4-75.6 53.5 48.7-19.3-69.6z"
           id="path21" />
        <path
           d="m2032 172.4 1.5-.7c.7-2.8 1.2-5.6 1.8-8.6l2.7-17.9-29.4 5.8z"
           id="path22" />
        <path
           d="m1895.8 256.2 29.2-5.8 63-50.9-11.6-41.9-8.5 1.7-2.4 15.7c-.6 4.1-3.8 7.5-7.9 8.3l-37.2 7.4c-3.7.7-7-2.4-6.4-6.1l15.8-102.4c.6-4.1 3.8-7.5 7.9-8.3l37.2-7.4c3.7-.7 7 2.4 6.4 6.1l-2.3 15 70.2-13.9 3.4-21.8c4.8-30.9-22.6-57-53.2-50.9l-62.2 12.4c-40.1 7.9-71 40.2-77.3 80.7l-17.1 111.3c-5 30.8 22.4 56.9 53 50.8z"
           id="path23" />
        <path
           d="m1406.8 379.4c-27.1-21.6-40.9-44.3-41.3-67.3-.9-64.7 107.9-128.7 278.1-164.3l1.8-11.6c-174.4 35.7-292 101.8-291 176 .6 44 42.8 84.1 113.6 115.8l1.8-11.3c-25.2-11.5-46.4-23.9-63-37.3z"
           id="path24" />
        <path
           d="m1938.7 108.3-1.7 11c65.4-.1 128.7 3.7 188.1 11.1l19.1-8.6c-63.5-8.8-132.7-13.6-205.5-13.5z"
           id="path25" />
        <path
           d="m2181.2 127.6-11.5 9.3c52.5 8.5 101 19.9 143.9 34.2 50.9 16.9 90.8 36.7 118.5 58.9 27.1 21.6 40.9 44.3 41.3 67.3.9 66-112.4 131.3-288.5 166.4-66 13.1-139.2 21.6-214.1 24.9-1.9 3.9-4 7.7-6.2 11.3 80-3.2 155.4-12 222.5-25.3 177.9-35.4 298.4-102.3 297.4-177.4-1-75.4-123.8-139.1-303.3-169.6z"
           id="path26" />
        <path
           d="m2301.7 246-57.7 11.5c-3.4.7-6 3.4-6.5 6.9l-1.8 11.6 69.3-13.8c3.4-.7 6-3.4 6.5-6.9.8-5.6-4.2-10.5-9.8-9.3z"
           id="path27" />
        <path
           d="m1860.7 338.2-8.8 57.6c-.7 4.5 3.4 8.4 7.9 7.5l65.7-13.1 11-71.5-70.5 13.9c-2.7.6-4.9 2.8-5.3 5.6zm23.6 17.4 20.7-4.1-2.6 16.8-20.7 4.1z"
           id="path28" />
        <path
           d="m2361.7 206c-10.3-15.6-28.9-23-46.6-19.5l-72.6 14.4c-19.1 3.8-35.6 14.9-46.6 30.3-.4-.4-.7-.7-1.1-1.1-10.7-10.1-25.7-14.6-40.1-11.6l-88 17.5 7 25.1 86.1-17.1c13.1-2.6 24.8 8.6 22.8 21.8l-16.4 106.7-29.1 5.8 14.4-93.3c.7-4.5-3.4-8.4-7.9-7.5l-65.7 13.1-15.8 102.7-29.1 5.7 18.4-119.5-32.3-29.4-86.6 39.1 8.7-1.8 29.1-5.8-24.2 157.4c-7.1 46.3-42.4 83.1-88.3 92.3l-32.4 6.4 4.8-31.2 22.7-4.5c34.2-6.8 60.6-34.3 65.9-68.8l1.9-11.8-77.1 15.4c-13.1 2.6-24.8-8.6-22.8-21.8l11.2-72.8c2-13 9-24.3 19.1-31.8v-.1l51.5-41.6-36.8 7.3c-19.1 3.8-35.6 14.9-46.6 30.3-.4-.4-.7-.7-1.1-1.1-10.7-10.1-25.7-14.6-40.1-11.6l-78 15.5 2.2-14.1 9-58.6 55-10.9c40.1-7.9 71-40.2 77.3-80.7l8.1-52.8c4.8-30.9-22.6-57-53.2-50.9l-129.1 25.7-24.1 156.2-130.9 26c-3.4.7-6 3.4-6.5 6.9l-41.8 271.2c-.9 5.6 4.1 10.5 9.8 9.4l175.8-34.9 56.8-11.3 15.8-102.7 20.7-4.1-15.9 102.6 83.4-16.6 2.1-14c9.9 6.6 22.1 9.2 34.1 6.9l33.1-6.6c-8.3 10.6-20.2 18.2-33.9 20.9l-34.9 7c-3.4.7-6 3.4-6.5 6.9l-10.5 68.6c-.9 5.6 4.1 10.5 9.8 9.4l57.3-11.4c56.6-11.3 100.1-56.7 109-113.8l.9-5.5 56.2-11.2 56.2-11.2 15.8-102.7 20.7-4.1-15.8 102.7 83.4-16.6 2.1-14c9.9 6.6 22.1 9.2 34.1 6.8l118.4-23.6c3.4-.7 6-3.4 6.5-6.9l12.4-80.2-3.3.6c3.1-6.4 5.2-13.4 6.4-20.7l2.7-17.9c1.6-11.6-.6-23.4-7-32.9zm-631.9-90.8 44.1-8.7c3.7-.7 7 2.4 6.4 6.1l-6.7 43.8c-.6 4.1-3.8 7.5-7.9 8.3l-44.8 8.9zm-101.2 364.2-12.6 2.6-14.8 2.9-82.8 16.5-22.9 4.5 36-233.9 9.6-1.9 71.1-14.1 32.2-6.4-4.8 31.2-9.3 1.9-74.6 14.8-10.6 68.8 34.9-6.9 6.3-1.2 22.9-4.5-4.8 31.2-12.3 2.5-16.9 3.4-34.9 7-11 71.5 76.6-15.2 4.2-.9 23.3-4.7zm-67.9-43.2 2.6-16.8 64.1-12.7 13.2-85.9-64.1 12.7 2.2-14.1 53.2-10.6 24.2-4.8-3.4 22.4-14.6 94.4zm228.7 11.2-29.1 5.8 14.4-93.3c.7-4.5-3.4-8.4-7.9-7.5l-65.7 13.1-15.8 102.7-29.1 5.8 20.6-133.8 106.2-21.2c13.1-2.6 24.8 8.6 22.8 21.8zm216.5-43-29.1 5.8 20.6-133.9 29.1-5.8zm337.1-170.5-2.9 18.8c-3.1 20.4-18.7 36.5-38.8 40.6l-70.4 14-2.1 13.5c-.7 4.5 3.4 8.4 7.9 7.5l65.7-13.1 13-2.6 16.1-3.2-4.8 31.2-5.5 1.1-100.8 20c-13.1 2.6-24.8-8.6-22.8-21.8l11.2-72.8c3.1-20.4 18.7-36.5 38.8-40.6l72.5-14.5c13.2-2.5 24.9 8.7 22.9 21.9z"
           id="path29" />
      </g>
    </g>
  </g>
</svg>
