<svg enable-background="new 0 0 3839 693.3" height="694" viewBox="0 0 3840 694.00001" width="3840" xmlns="http://www.w3.org/2000/svg"><g fill="#fff" transform="scale(1.0002605 1.0011541)"><path d="m2115.7 99.4h-128.3v35.1 21.8 198.5 56.9 270h56.9v-270h24.1l47.3 270h56.9l-47.4-270.8c26.9-4.5 47.4-27.9 47.4-56.1v-198.5c0-31.4-25.5-56.9-56.9-56.9zm0 255.4h-71.4v-198.5h71.4z"/><path d="m2444.1 99.4h-71.1c-31.4 0-56.9 25.5-56.9 56.9v198.5 56.9 270h56.9v-270h71.1v270h56.9v-270-56.9-198.5c0-31.4-25.5-56.9-56.9-56.9zm0 255.4h-71.1v-198.5h71.1z"/><path d="m1763.4 0h-71.1c-31.4 0-56.9 25.5-56.9 56.9v567.9c0 31.4 25.5 56.9 56.9 56.9h71.1 56.9v-56.9-279.5-56.9h-92.4v56.9h35.5v279.5h-71.1v-567.9h71.1v77.6h56.9v-77.6c0-31.4-25.5-56.9-56.9-56.9z"/><path d="m2713.3 99.4c-31.4 0-56.9 25.5-56.9 56.9v198.5 56.9 270h56.9v-270h85.2v-56.9h-85.2v-198.5h85.2v-56.9h-14.2z"/><path d="m3053.9 390.5c29.5-47 57.1-94.5 57.1-107.9v-183.2h-56.9v183.2s-15.4 22.5-35.5 53.1c-20.1-30.6-35.5-53.1-35.5-53.1v-183.2h-56.9v183.2c0 13.3 27.6 60.8 57.1 107.9-29.6 47.1-57.1 94.6-57.1 107.9v183.2h56.9v-183.1s15.4-22.5 35.5-53.1c20.1 30.6 35.5 53.1 35.5 53.1v183.2h56.9v-183.2c.1-13.4-27.5-60.9-57.1-108z"/><path d="m0 56.9h64v624.8h56.9v-624.8h64v-56.9h-184.9z"/><path d="m416.8 624.8h-70.4v-525.4h-56.9v525.4c0 31.4 25.5 56.9 56.9 56.9h70.4c31.4 0 56.9-25.5 56.9-56.9v-525.4h-56.9z"/><path d="m758.9 99.4h-128.3v35.1 21.8 198.5 56.9 270h56.9v-270h24.1l47.3 270h56.9l-47.4-270.8c26.9-4.5 47.4-27.9 47.4-56.1v-198.5c0-31.4-25.5-56.9-56.9-56.9zm0 255.4h-71.4v-198.5h71.4z"/><path d="m1423.8 99.4h-71.1c-31.4 0-56.9 25.5-56.9 56.9v468.5c0 31.4 25.5 56.9 56.9 56.9h71.1c31.4 0 56.9-25.5 56.9-56.9v-468.5c.1-31.4-25.4-56.9-56.9-56.9zm0 525.4h-71.1v-468.5h71.1z"/><path d="m3536.3 87.8c-167.2 0-302.7 135.5-302.7 302.7s135.5 302.7 302.7 302.7 302.7-135.5 302.7-302.7c0-167.1-135.5-302.7-302.7-302.7zm-96.9 437.6h-101.4v-34.6h32.4v-200.5h-32.4v-34.6h32.4 36.7v34.6 200.5h32.4v34.6zm295.2-202.7h-34.6v-32.4h-193.4v82.9h202.1l25.9 25.9v100.4l-25.9 25.9h-210.8l-25.9-25.9v-91.7-34.6-91.7l25.9-25.9h210.8l25.9 25.9z"/><path d="m3506.6 407.9h193.4v82.9h-193.4z"/><path d="m1151.9 326.3v-170c0-31.4-25.5-56.9-56.9-56.9h-128v45.7 11.2 198.5 56.9 213.1 56.9h56.9 71.1c31.4 0 56.9-25.5 56.9-56.9v-184.7c0-31.4-3.1-56.9-34.5-56.9 31.4 0 34.5-25.5 34.5-56.9zm-128-170h71v198.5h-71zm0 468.5v-213.1h71v213.1z"/></g></svg>