<svg enable-background="new 0 0 3839 1236.5" viewBox="0 0 3839 1236.5" xmlns="http://www.w3.org/2000/svg"><g fill="#fff"><path d="m752.4 131.8v186.9c0 19.8-10.1 22.9-19.8 26v6.6h86.3v-6.6c-9.7-3.1-19.8-6.1-19.8-26v-186.9c0-11.3 3.5-14 18.3-14 40.4 0 60.2.8 74.6 23.2l5-3.1-16.3-47.9h-210.3l-16.3 48 5.1 3.1c17.5-22.1 31.1-23.2 75-23.2 14.7 0 18.2 2.7 18.2 13.9zm98.3 26.8c12.8 3.5 19.4 6.6 19.4 26v134.1c0 19.8-6.6 22.9-19.4 26v6.6h162.8l18.6-46.7-5.1-3.5c-16.3 21.5-33.4 26.4-55.9 26.4h-42c-13.2 0-16.3-.3-16.3-13.2v-55.9h50.9c19.8 0 22.9 4.7 26.1 16.4h7.7v-55.9h-7.7c-3.1 11.7-6.2 16.7-26.1 16.7h-50.9v-47c0-9.7 3.1-12.9 16.3-12.9h35.7c22.9 0 35 5.9 52.4 24.4l5-3.5-16.3-44.7h-155.2zm209.3 23 49.8 70.3-47 66.8c-14.4 20.2-22.9 22.9-36.1 26v6.6h75.4v-6.6c-14.4-2.7-20.6-8.2-10.9-23.3l32.9-51.4 34.7 49.9c12.8 18.3-.8 23.2-12.5 24.8v6.6h136.3v-6.6c-13.6-2.3-19.8-7-12.8-25.6l8.9-23.2h81.6l8.6 23.2c5.5 15.2 3.5 23.3-12.4 25.6v6.6h83.9v-6.6c-9.7-3.1-18.6-11.2-22.9-22.5l-64.9-170.2h-44.3l-62.2 158.6c-6.6 16.4-12.6 24.2-19.2 28.7-5.1-3.2-9.8-8.3-16.1-17l-54.6-77.6 44.2-62.4c11.7-16.7 21.4-20.2 33-23.7v-6.6h-71.1v6.6c14.7 1.2 19 9.4 10.5 22.1l-30.8 45.6-27.8-41.8c-11.7-17.1-3.1-24.1 9.7-26.1v-6.6h-94.4v6.6c13.1 3.7 19.6 7.6 30.5 23.2zm260.2 5 31.9 87h-65.1zm138.3 164.6c0-3.2 3.1-9.8 7-9.8 8.9 4.3 24.1 13.2 52 13.2 47 0 80-23.3 80-62.9 0-37.3-20.6-52.5-60.2-61.4l-36.1-8.2c-20.6-4.7-27.2-10.6-27.2-23.3 0-14.8 11.6-24.5 37.3-24.5 28.7 0 51.3 13.6 67.6 32.4l5.1-3.5-14.8-51.3h-9.3c0 4.3-1.9 8.9-5.8 8.9-8.6-4.7-21.8-12-44.3-12-40.4 0-71.9 20.9-71.9 59 0 29.1 17.5 47.3 55.6 55.9l34.2 7.8c22.9 4.9 31.1 13.2 31.1 27.6 0 19.8-15.9 30.3-41.9 30.3-36.5 0-59.8-19.2-78.9-41.2l-5.1 3.5 15.9 59.5z"/><path d="m1723.3 96.9c12.1 3.5 21.7 6.6 21.7 26v195.9c0 19.8-9.7 22.9-21.7 26v6.6h90.1v-6.6c-12-3.1-21.8-6.2-21.8-26v-195.9c0-19.5 9.7-22.6 21.8-26v-6.6h-90.1zm247.4 61.8c11.6 3.5 18.3 6.6 18.3 26v81.6h-1.2l-100.2-114.3h-58.6v6.6c11.7 4.9 19.4 8.9 19.4 26v134.1c0 18.6-6.6 22.9-19.4 26v6.6h66.4v-6.6c-10.5-3.1-20.6-7.3-20.6-26v-115.7h1.2l132.5 151h7v-169.3c0-19.4 9.7-22.6 17.5-26v-6.7h-62.2zm173.6 71.8-36.1-8.1c-20.6-4.7-27.2-10.6-27.2-23.3 0-14.7 11.7-24.5 37.3-24.5 28.8 0 51.3 13.6 67.6 32.4l5.1-3.5-14.7-51.3h-9.4c0 4.3-1.9 9-5.8 9-8.6-4.7-21.7-12-44.3-12-40.5 0-72 20.9-72 59 0 29 17.5 47.3 55.6 55.9l34.1 7.8c22.9 4.9 31.1 13.2 31.1 27.6 0 19.8-15.9 30.2-42 30.2-36.4 0-59.9-19-78.9-41.1l-5.1 3.5 15.9 59.4h9.7c0-3.1 3.1-9.7 7-9.7 8.9 4.3 24.1 13.2 52 13.2 47 0 80-23.2 80-62.9.4-37.6-20.2-52.7-59.9-61.6zm71.9-78.4-16 51.3 5.1 3.5c21.4-28.4 27.2-31.1 55.5-31.1 9.7 0 12.8.8 12.8 12.8v130.2c0 19.8-5.8 22.9-21.7 26v6.6h85.5v-6.6c-15.6-3.1-21.8-6.1-21.8-26v-130.2c0-12 3.1-12.8 12.9-12.8 28.4 0 35.9 2.6 57.1 31.1l5.1-3.5-15.9-51.3zm346 140.1c-12-19.4-24.4-28-38.8-31.5v-1.2c34.2-5.5 53.6-23.3 53.6-52.5 0-38.7-31.1-55.2-81.2-55.2h-102.2v6.6c12.9 3.5 19.5 6.6 19.5 26v134.1c0 19.8-6.6 22.9-19.5 26v6.6h83.5v-6.6c-12-3.1-20.2-6.2-20.2-26v-49.6h20.6c24.1 0 27.6 9.7 43.1 42.4 12.8 26.8 29.9 43.5 62.1 43.5 16.4 0 22.9-3.2 29.5-6.6v-5.5c-25.9-3.9-34.4-25.2-50-50.5zm-71-46.6h-34.2v-52.9c0-12.8 3.2-16.3 12.9-16.3h22.1c24.1 0 38.1 9.3 38.1 32.6-.1 24.6-16 36.6-38.9 36.6zm247.7-86.9c10.1 2.4 19.8 6.6 19.8 26v98.3c0 32.7-12.4 47-49.3 47-39.2 0-53.2-14.4-53.2-47v-98.3c0-19.4 7.4-23.7 19.5-26v-6.6h-81.6v6.6c12 1.9 19.8 6.6 19.8 26v101.3c0 53.2 46.2 68.8 89.8 68.8 48.6 0 83.1-16.4 83.1-72v-98.3c0-19.4 5.9-23.2 17.9-26v-6.5h-65.7zm206.7 122.7-57.5-129.4h-71.4v6.6c12.8 3.5 19.4 6.6 19.4 26v134.1c0 17.4-7.4 22.1-19.4 26v6.6h63.3v-6.6c-13.2-3.5-19-8.6-19-26v-125l71.8 160.8h5.5l69.9-160.8v125.1c0 19.8-8.5 23.2-18.2 26v6.6h81.6v-6.6c-12.8-3.1-19.4-6.2-19.4-26v-134.1c0-19.4 6.6-22.6 19.4-26v-6.6h-70.3zm261.8 46.2h-42c-13.2 0-16.3-.3-16.3-13.2v-55.9h50.9c19.8 0 22.9 4.6 26 16.3h7.8v-55.9h-7.8c-3.1 11.6-6.2 16.7-26 16.7h-50.9v-47c0-9.7 3.1-12.9 16.3-12.9h35.7c22.9 0 34.9 5.9 52.5 24.4l5-3.5-16.4-44.7h-155.4v6.6c12.9 3.5 19.4 6.6 19.4 26v134.1c0 19.8-6.6 22.9-19.4 26v6.6h162.8l18.7-46.7-5.1-3.5c-16.2 21.5-33.3 26.6-55.8 26.6zm207.4-168.9c11.6 3.5 18.3 6.6 18.3 26v81.6h-1.2l-100.2-114.3h-58.7v6.6c11.7 4.9 19.5 8.9 19.5 26v134.1c0 18.6-6.6 22.9-19.5 26v6.6h66.4v-6.6c-10.6-3.1-20.6-7.3-20.6-26v-115.7h1.1l132.5 151h7.1v-169.3c0-19.4 9.7-22.6 17.5-26v-6.7h-62.1zm80.4-6.6-15.9 51.3 5.1 3.5c21.4-28.4 27.2-31.1 55.6-31.1 9.7 0 12.8.8 12.8 12.8v130.2c0 19.8-5.8 22.9-21.7 26v6.6h85.5v-6.6c-15.6-3.1-21.8-6.1-21.8-26v-130.2c0-12 3.2-12.8 12.9-12.8 28.4 0 35.8 2.6 57.1 31.1l5.1-3.5-15.9-51.3zm284.3 78.4-36.1-8.1c-20.6-4.7-27.2-10.6-27.2-23.3 0-14.7 11.6-24.5 37.2-24.5 28.7 0 51.3 13.6 67.6 32.4l4.9-3.5-14.6-51.3h-9.4c0 4.3-2 9-5.8 9-8.6-4.7-21.8-12-44.4-12-40.5 0-72 20.9-72 59 0 29 17.5 47.3 55.5 55.9l34.1 7.8c22.8 4.9 31.1 13.2 31.1 27.6 0 19.8-15.8 30.2-42 30.2-36.5 0-59.9-19-78.9-41.1l-5.1 3.5 15.8 59.4h9.8c0-3.1 3.1-9.7 7-9.7 8.9 4.3 24.2 13.2 52 13.2 46.8 0 80-23.2 80-62.9.7-37.6-19.9-52.7-59.5-61.6z"/><path d="m464.2 149.9v-59.4h-95.3l-12 59.9h34.3l-11 55.2h-34.3l-11.9 59.7c-.9 4.1-1.6 7-2 9.8-2.8 18.3 5.2 17.4 30.8 17.4l-11.7 58.8h-44.9c-42.4 0-77-.4-68-43.9 1.4-6.6 3.1-13.4 4.3-19.8l16-82.1h-33l11-55.2h33l12-59.9h-30.8v-90.4h-114.1v184h-136.6c3.4 47.7 45.6 54.7 61 88.6 10.6 23.4 19.9 64.5 50.8 64.8 23.7.3 23.7-30.7 54.3-30.7 30.5 0 44 57.9 71.2 105.7 20.3 37.5 54.1 62.6 84.7 64.8 25.1 1.7 37.3-6.8 37.3-6.8-6.8-13.6-10.2-27.3-10.2-47.7 0-30.7 23.7-61.3 50.9-81.8 37.3-27.2 78-37.6 91.5-40.9v-95.5c-.1 0-27.3-14.5-27.3-54.6zm-155.5 142.6 40.1-202.1h-46.2l-40.1 202.1zm52.5-265.9h-46.2l-8.8 44.6h46.2z"/><path d="m628.7 535.2h198.9v688.6h-198.9z"/><path d="m591.4 535.2h-591.4v183h196.3v505.6h198.9v-505.6h196.2z"/><path d="m1996.4 529.1c-155 0-280.6 86.5-280.6 243.2 0 173.5 128 235.9 249.5 235.9 37.9 0 91.9-20 127.4-47.5 17.2 167.1-171.1 176.4-189.1 77.6h-173.5c28.9 155.6 164.9 198.6 271.2 198.3 141-.4 275.6-112.7 275.6-385 0-225.9-125.5-322.5-280.5-322.5zm-6.7 343.4c-58.4 0-105.8-47.3-105.8-105.8 0-58.4 47.3-105.8 105.8-105.8s105.8 47.4 105.8 105.8-47.4 105.8-105.8 105.8z"/><path d="m1383.8 529.1c-155 0-280.6 86.5-280.6 243.2 0 173.5 128 235.9 249.5 235.9 37.9 0 91.9-20 127.4-47.5 17.2 167.1-171.1 176.4-189.1 77.6h-173.6c28.9 155.6 164.9 198.6 271.2 198.3 141-.4 275.6-112.7 275.6-385 0-225.9-125.5-322.5-280.4-322.5zm-6.8 343.4c-58.4 0-105.8-47.3-105.8-105.8 0-58.4 47.3-105.8 105.8-105.8s105.8 47.4 105.8 105.8c.1 58.4-47.3 105.8-105.8 105.8z"/><path d="m886.3 792.7h158.2v130.3h-158.2z"/><path d="m3051.2 1236.5h-199.4c-10.1 0-18.2-8.2-18.2-18.2v-134.6h-278.2c-10.1 0-18.2-8.2-18.2-18.2v-150.6c0-4.4 1.6-8.6 4.5-11.9l319-367.5c3.5-4 8.5-6.3 13.8-6.3h176.8c10.1 0 18.2 8.2 18.2 18.2v357.8h50.1c10.1 0 18.2 8.2 18.2 18.2v142.1c0 10.1-8.2 18.2-18.2 18.2h-50.1v134.6c-.1 10.1-8.3 18.2-18.3 18.2zm-181.3-36.4h163v-134.6c0-10.1 8.2-18.2 18.2-18.2h50.1v-105.7h-50.1c-10.1 0-18.2-8.2-18.2-18.2v-357.8h-150.3l-309.1 356.1v125.6h278.2c10.1 0 18.2 8.2 18.2 18.2z"/><path d="m2851.7 941.6h-187.7c-7.1 0-13.6-4.2-16.6-10.7s-1.9-14.1 2.8-19.5l187.8-216.2c5-5.7 13-7.8 20.1-5.1s11.8 9.5 11.8 17.1v216.2c0 10.1-8.1 18.2-18.2 18.2zm-147.7-36.4h129.5v-149.2z"/><path d="m3820.8 1236.5h-138.1c-7.8 0-14.7-5-17.2-12.3l-48.2-140.5h-214.6l-48.1 140.5c-2.5 7.4-9.4 12.3-17.2 12.3h-138.4c-5.9 0-11.4-2.8-14.8-7.6s-4.3-10.9-2.4-16.5l230-671c2.5-7.4 9.4-12.3 17.2-12.3h161.9c7.8 0 14.7 5 17.2 12.3l229.9 671c1.9 5.6 1 11.7-2.4 16.5s-8.9 7.6-14.8 7.6zm-125.1-36.4h99.6l-217.4-634.5h-135.9l-217.5 634.5h99.7l48.1-140.5c2.5-7.4 9.4-12.3 17.2-12.3h240.7c7.8 0 14.7 4.9 17.2 12.3zm-103.9-228.5h-163.8c-5.9 0-11.4-2.8-14.8-7.6s-4.3-10.9-2.4-16.5l82-239.1c2.5-7.4 9.5-12.3 17.2-12.3 7.8 0 14.7 5 17.2 12.3l81.9 239.1c1.9 5.6 1 11.7-2.4 16.5-3.5 4.8-9 7.6-14.9 7.6zm-138.3-36.4h112.8l-56.4-164.6z"/><path d="m2553.4 565.6-312.9 670.9h52l312.8-670.9z"/></g></svg>