<?xml version="1.0" encoding="UTF-8" standalone="no"?>
<svg
   enable-background="new 0 0 3839 1000.4"
   viewBox="0 0 3840 999.99998"
   version="1.1"
   id="svg6"
   sodipodi:docname="vectrex.svg"
   width="3840"
   height="1000"
   inkscape:version="1.3.2 (091e20e, 2023-11-25)"
   xmlns:inkscape="http://www.inkscape.org/namespaces/inkscape"
   xmlns:sodipodi="http://sodipodi.sourceforge.net/DTD/sodipodi-0.dtd"
   xmlns="http://www.w3.org/2000/svg"
   xmlns:svg="http://www.w3.org/2000/svg">
  <defs
     id="defs6" />
  <sodipodi:namedview
     id="namedview6"
     pagecolor="#ffffff"
     bordercolor="#000000"
     borderopacity="0.25"
     inkscape:showpageshadow="2"
     inkscape:pageopacity="0.0"
     inkscape:pagecheckerboard="0"
     inkscape:deskcolor="#d1d1d1"
     inkscape:zoom="0.23590563"
     inkscape:cx="1920.2594"
     inkscape:cy="500.20001"
     inkscape:window-width="1312"
     inkscape:window-height="449"
     inkscape:window-x="0"
     inkscape:window-y="23"
     inkscape:window-maximized="0"
     inkscape:current-layer="svg6" />
  <g
     id="g7"
     transform="scale(1.0002605,0.99960016)">
    <g
       fill="#ffffff"
       id="g6">
      <path
         d="m 2638,471.5 -148,169.1 c -8.2,9.4 -22.4,10.3 -31.8,2.1 -9.4,-8.2 -10.3,-22.4 -2.1,-31.8 l 122.1,-139.5 h -8.8 -111.1 -68.4 v 514.4 h 179.5 V 651 h 110.7 l 158.4,-179.5 z"
         id="path1" />
      <path
         d="m 3270,722.1 c 0,-55.3 -16.8,-106.8 -45.5,-149.5 L 3062,758.1 3052.5,769 h -0.1 c -12.6,13.6 -30.6,22.1 -50.5,22.1 -8.7,0 -16.9,-1.6 -24.6,-4.5 l 85.2,-97.3 133.3,-152.2 c -48.8,-51.1 -117.6,-83 -193.9,-83 -148.1,0 -268.1,120 -268.1,268.1 0,148.1 120,268.1 268.1,268.1 C 3150,990.1 3270,870.1 3270,722.1 Z m -337,0 c 0,-38.1 30.9,-69 69,-69 9.7,0 19,2 27.4,5.7 l -86.5,98.8 c -6.3,-10.4 -9.9,-22.5 -9.9,-35.5 z"
         id="path2" />
      <path
         d="m 1311.4,758.1 -9.5,10.9 h -0.1 c -12.6,13.6 -30.6,22.1 -50.5,22.1 -8.7,0 -16.9,-1.6 -24.6,-4.5 l 85.2,-97.3 133.3,-152.2 c -48.8,-51.1 -117.6,-83 -193.9,-83 -148.1,0 -268.1,120 -268.1,268.1 0,148.1 120,268.1 268.1,268.1 148.1,0 268.1,-120 268.1,-268.1 0,-55.3 -16.8,-106.8 -45.5,-149.5 z m -129.1,-36 c 0,-38.1 30.9,-69 69,-69 9.7,0 19,2 27.4,5.7 l -86.5,98.8 c -6.3,-10.4 -9.9,-22.5 -9.9,-35.5 z"
         id="path3" />
      <path
         d="M 2291.2,292 V 0 l -406.1,465 c -24.1,-7.1 -49.7,-11 -76.2,-11 -148.1,0 -268.1,120 -268.1,268.1 0,148.1 120,268.1 268.1,268.1 148.1,0 268.1,-120 268.1,-268.1 0,-55.3 -16.8,-106.8 -45.5,-149.5 L 1869,758.1 1859.5,769 h -0.1 c -12.6,13.6 -30.6,22.1 -50.5,22.1 -38.1,0 -69,-30.9 -69,-69 0,-38.1 30.9,-69 69,-69 26.2,0 49,14.6 60.6,36.1 L 2002.8,537 c -27.3,-28.6 -60.8,-51.1 -98.4,-65.5 h 155.7 l 110.3,-126 c 8.2,-9.4 22.4,-10.3 31.8,-2.1 9.4,8.2 10.3,22.4 2.1,31.8 l -84.3,96.3 -9.1,10.4 v 503.9 h 179.5 V 471.5 h 99.5 L 2548.3,292 Z"
         id="path4" />
      <path
         d="m 3839,471.5 h -209.8 l -148.1,169.1 c -8.2,9.4 -22.4,10.3 -31.8,2.1 -9.4,-8.2 -10.3,-22.4 -2.1,-31.8 L 3569.3,471.4 H 3176.5 L 3402.9,730 3179,985.8 h 209.8 l 145.6,-166.3 c 8.2,-9.4 22.4,-10.3 31.8,-2.1 9.4,8.2 10.3,22.4 2.1,31.8 l -119.7,136.7 h 388 L 3612.6,730 Z"
         id="path5" />
      <path
         d="m 942.6,292 -347,396.3 c -11.9,13.6 -32.5,14.9 -46.1,3.1 -13.6,-11.9 -14.9,-32.5 -3.1,-46.1 L 855.8,292 H 0 L 620.1,1000.4 1240.3,292 Z"
         id="path6" />
    </g>
  </g>
</svg>
