<?xml version="1.0" encoding="UTF-8" standalone="no"?>
<svg
   enable-background="new 0 0 3840 1138"
   height="1138"
   viewBox="0 0 3840 1138"
   width="3840"
   version="1.1"
   id="svg13"
   sodipodi:docname="x68000.svg"
   inkscape:version="1.3.2 (091e20e, 2023-11-25)"
   xmlns:inkscape="http://www.inkscape.org/namespaces/inkscape"
   xmlns:sodipodi="http://sodipodi.sourceforge.net/DTD/sodipodi-0.dtd"
   xmlns="http://www.w3.org/2000/svg"
   xmlns:svg="http://www.w3.org/2000/svg">
  <defs
     id="defs13" />
  <sodipodi:namedview
     id="namedview13"
     pagecolor="#ffffff"
     bordercolor="#000000"
     borderopacity="0.25"
     inkscape:showpageshadow="2"
     inkscape:pageopacity="0.0"
     inkscape:pagecheckerboard="true"
     inkscape:deskcolor="#d1d1d1"
     inkscape:zoom="0.20738137"
     inkscape:cx="1921.5805"
     inkscape:cy="569"
     inkscape:window-width="1312"
     inkscape:window-height="449"
     inkscape:window-x="0"
     inkscape:window-y="39"
     inkscape:window-maximized="0"
     inkscape:current-layer="svg13" />
  <g
     id="g15">
    <g
       id="g14">
      <g
         fill="#fff"
         transform="matrix(.99999191 0 0 1.0000353 0 -.040117)"
         id="g13">
        <path
           d="m2683.7 525.8h-249.7c-62.5 0-122.2 50.7-133.2 113.2l-61.5 347.5c-11.1 62.6 30.7 113.3 93.3 113.3h250.2c62.6 0 122.3-50.8 133.3-113.4l61-347.5c10.9-62.4-30.9-113.1-93.4-113.1zm-117.5 491.2h-187.3c-34.3 0-57.2-27.8-51.2-62.1l50.2-284.6c6-34.3 38.8-62.1 73.1-62.1h187.3c34.3 0 57.2 27.8 51.2 62.1l-50.2 284.6c-6.1 34.3-38.8 62.1-73.1 62.1z"
           id="path1" />
        <path
           d="m3214.3 525.8h-249.7c-62.5 0-122.2 50.7-133.2 113.2l-61.5 347.5c-11.1 62.6 30.7 113.3 93.3 113.3h250.2c62.6 0 122.3-50.8 133.3-113.4l61-347.5c10.9-62.4-30.9-113.1-93.4-113.1zm-117.5 491.2h-187.3c-34.3 0-57.2-27.8-51.2-62.1l50.2-284.6c6-34.3 38.8-62.1 73.1-62.1h187.3c34.3 0 57.2 27.8 51.2 62.1l-50.2 284.6c-6.1 34.3-38.8 62.1-73.1 62.1z"
           id="path2" />
        <path
           d="m3744.9 525.8h-249.7c-62.5 0-122.2 50.7-133.2 113.2l-61.5 347.5c-11.1 62.6 30.7 113.3 93.3 113.3h250.2c62.6 0 122.3-50.8 133.3-113.4l61-347.5c10.9-62.4-30.8-113.1-93.4-113.1zm-117.5 491.2h-187.3c-34.3 0-57.2-27.8-51.2-62.1l50.2-284.6c6-34.3 38.8-62.1 73.1-62.1h187.3c34.3 0 57.2 27.8 51.2 62.1l-50.2 284.6c-6.1 34.3-38.8 62.1-73.1 62.1z"
           id="path3" />
        <path
           d="m2189.2 812.7c19.9-19.7 34.6-44.7 39.5-72.3l17.7-101.9c11-62.5-30.8-113.2-93.3-113.2h-249.7c-62.5 0-122.2 50.7-133.2 113.2l-18.2 101.9c-4.9 27.6 1 52.6 13.9 72.3-19.7 19.6-34.3 44.5-39.2 71.9l-18.2 101.9c-11.1 62.6 30.7 113.4 93.3 113.4h250.2c62.6 0 122.3-50.8 133.3-113.4l17.7-101.9c4.8-27.5-1-52.3-13.8-71.9zm-341.9-143c6-34.3 38.8-62.1 73.1-62.1h187.3c34.3 0 57.2 27.8 51.2 62.1l-6.9 39c-6 34.3-38.8 62.1-73.1 62.1h-187.3c-34.3 0-57.2-27.8-51.2-62.1zm261.3 285.2c-6 34.3-38.8 62.1-73.1 62.1h-187.3c-34.3 0-57.2-27.8-51.2-62.1l6.9-39c6-34.3 38.8-62.1 73.1-62.1h187.3c34.3 0 57.2 27.8 51.2 62.1z"
           id="path4" />
        <path
           d="m1579 771.4h-249.7c-10.6 0-21 1.9-31.2 4.7l18.7-105.8c6.1-34.3 38.8-62.1 73.1-62.1h187.3c34.3 0 57.2 27.8 51.2 62.1l-8.5 48.3h82.1l14-79.6c11-62.5-30.8-113.2-93.3-113.2h-249.7c-62.5 0-122.2 50.7-133.2 113.2l-43.3 244.5c-.1.4-.2.7-.3 1.1l-18.2 101.9c-11.1 62.6 30.7 113.4 93.3 113.4h250.2c62.6 0 122.3-50.8 133.3-113.4l17.7-101.9c10.8-62.5-31-113.2-93.5-113.2zm-1.1 183.5c-6 34.3-38.8 62.1-73.1 62.1h-187.3c-29.5 0-49.3-21-50.8-48.6.1-.1.2-.2.3-.3-.2-4.4-1.2-8.6-.3-13.3l7.1-40.3c6.7-33.7 38.7-60.8 72.6-60.8h187.3c34.3 0 57.2 27.8 51.2 62.1z"
           id="path5" />
        <path
           d="m305.8 832.2-305.8 305.8h482.4zm-11.8 89.5 93.1 161.4h-254.4z"
           id="path6" />
        <path
           d="m673.5 487.7h-516.5l375.5 650.3h516.5zm-421.3 54.9h389.6l312 540.5h-389.6z"
           id="path7" />
        <path
           d="m723.6 487.7 176.6 305.8 305.8-305.8zm95.2 54.9h254.5l-161.4 161.4z"
           id="path8" />
        <path
           d="m-331.1 719.7v-141.1h-82.1v-72.9h214.7v72.9h-86.3v141.1h86.3v72.9h-214.7v-72.9z"
           transform="matrix(0 1.5459704 1.5459704 0 415.67057 649.33146)"
           id="path9" />
        <path
           d="m-290.3 890.9-83.4 50.8 83.4 49.2zm-128.4 22.5 214.7-130.8v55.7l-43.9 26.7v150.8l43.9 26v89l-214.7-130.7z"
           transform="matrix(0 1.5459704 1.5459704 0 451.89266 657.95179)"
           id="path10" />
        <path
           d="m-321.4 1356.5c-22.8 17.4-56.1 15-75.2-18.3-17.8-31.1-24.4-90.4-24.4-127.5 0-59.3 4-97.5 9.6-129.9h211.6v72.9h-179.5c-5.2 26.3-5.3 52.9-4.9 62.9 1.3 28.9 5.8 45.2 15 58.2 9.6 13.5 30.8 17.1 45.5-.3 11-13.1 19.6-39.6 10.6-98.9l13.8-8.4 99.5 112.1v99.3l-86.3-99.7c-3 23.9-12.6 60.2-35.3 77.6"
           transform="matrix(0 1.5459704 1.5459704 0 550.35088 651.36905)"
           id="path11" />
        <path
           d="m-338 390.8c-8.2-42.1-13.3-77.9-26.9-77.9-15.1 0-19 28.9-14.7 69.9 4.1 38.8 14.3 75.3 28.8 109.4l-42.5 25.9c-10.5-27.6-23.9-84.4-25.5-135.9-1.6-56.5 3.4-151.9 60.6-156 52.3-3.8 64.8 70.8 76.2 119.6 11.1 47.7 15.1 92.3 31.6 92.3 11.6 0 20.7-15.7 17.5-57.4-3.7-50.1-17.4-92.8-38.6-135.4l46.4-28.3c18.4 47.2 33.3 109.1 34.2 164.9 1.1 66.3-9.6 141.2-66.4 142.9-47.4 1.5-63.9-47.6-80.7-134"
           transform="matrix(0 1.5459704 1.5459704 0 346.11736 647.86124)"
           id="path12" />
        <path
           d="m-323 1563.7c10.3-12.6 14-31 13.9-60.1-.1-21.4-4-43.6-8.1-61.7h-61.9c-5.2 26.2-5.3 53.4-4.9 63.3 1.2 29.1 6.2 46.1 15 58.7 9.3 13.3 31.4 17.7 46-.2m-73.4 63.8c-17.6-29.7-24.4-85.3-24.4-127.9 0-59.3 4-97.9 9.6-130.4h211.6v72.9h-77.5c3.8 22.5 5.9 50.8 5.8 75.2-.5 59.7-14.5 104-36.5 124.2-31.3 28.7-69.1 19-88.6-14"
           transform="matrix(0 1.5459704 1.5459704 0 594.18532 651.0413)"
           id="path13" />
      </g>
    </g>
  </g>
</svg>
