<svg height="580" viewBox="0 0 3840.0003 580" width="3840.0002" xmlns="http://www.w3.org/2000/svg"><g fill="#fff" stroke-linecap="round" stroke-linejoin="round" stroke-miterlimit="0" stroke-width="26.0919" transform="matrix(1.0000002 0 0 .99976224 .000001 -.00003799097)"><path d="m171.22834 85.614209c0-47.291637-38.32253-85.61417121-85.614169-85.61417121-47.291638 0-85.61417189 38.32253421-85.61417189 85.61417121v408.501901c0 47.29164 38.32253389 85.61418 85.61417189 85.61418 47.291639 0 85.614169-38.32254 85.614169-85.61418z"/><path d="m760.74307 93.360254c0-47.291638-37.91485-85.6141721-85.20649-85.6141721h-443.15526c-21.1997-.4076865-37.91484 17.1228341-37.91484 37.9148471v448.455181c0 47.29164 38.32253 85.61418 85.61417 85.61418 47.29163 0 85.61417-38.32254 85.61417-85.61418v-302.5034c0-6.93067 5.70761-12.63828 12.63828-12.63828h198.13566c6.93067 0 13.04596 5.70761 13.04596 12.63828v302.5034c0 47.29164 38.32254 85.61418 85.61418 85.61418 47.29163 0 85.61417-38.32254 85.61417-85.61418z"/><path d="m968.66323 204.65868c-7.33836 0-13.04597-6.1153-13.04597-13.04597s5.70761-12.63828 13.04597-12.63828h302.09567c47.2917 0 85.6142-38.73023 85.6142-85.614176 0-47.291638-38.3225-85.6141721-85.6142-85.6141721h-401.1635c-46.88395 0-85.20648 37.9148471-85.20648 85.2064851v401.571233c0 46.88395 38.73022 85.61417 85.61417 85.61417s85.61417-38.73022 85.61417-85.61417v-103.96006c0-8.15374 6.52298-14.67672 14.67671-14.67672h300.46493c47.2917 0 85.6142-38.32253 85.6142-85.61417s-38.3225-85.61417-85.6142-85.61417z"/><path d="m1759.1674 579.73029c104.7754 0 189.1665-84.7988 189.1665-189.16655v-193.65111c0-104.36775-84.3911-189.1665481-189.1665-189.1665481h-190.3896c-104.3678 0-189.1666 84.7987981-189.1666 189.1665481v193.65111c0 104.36775 84.7988 189.16655 189.1666 189.16655zm17.9382-193.24342c0 12.2306-9.7845 22.01507-22.4228 22.01507h-181.4205c-12.6382 0-22.4227-9.78447-22.4227-22.01507v-185.49737c0-12.2306 9.7845-22.42276 22.4227-22.42276h181.4205c12.6383 0 22.4228 10.19216 22.4228 22.42276z"/><path d="m2160.7386 579.3226h293.942c47.2916 0 85.6142-37.91485 85.6142-85.20649 0-47.29163-38.3226-85.61417-85.6142-85.61417h-298.8342c-6.9307 0-13.046-5.70761-13.046-12.63828v-203.84327c0-7.33835 5.7076-13.04596 13.046-13.04596h298.8342c47.2916 0 85.6142-38.32254 85.6142-85.614176 0-47.291638-38.3226-85.6141721-85.6142-85.6141721h-293.942c-104.3678 0-189.1666 84.7987981-189.1666 189.1665481v193.65111c0 104.36775 84.7988 188.75886 189.1666 188.75886z"/><path d="m2943.0889 579.73029c104.7754 0 189.1666-84.7988 189.1666-189.16655v-193.65111c0-104.36775-84.3912-189.1665481-189.1666-189.1665481h-190.3896c-104.3678 0-189.1666 84.7987981-189.1666 189.1665481v193.65111c0 104.36775 84.7988 189.16655 189.1666 189.16655zm17.9382-193.24342c0 12.2306-9.7845 22.01507-22.4227 22.01507h-181.4206c-12.6382 0-22.4227-9.78447-22.4227-22.01507v-185.49737c0-12.2306 9.7845-22.42276 22.4227-22.42276h181.4206c12.6382 0 22.4227 10.19216 22.4227 22.42276z"/><path d="m3548.0958 178.97443c7.3384 0 13.8614 4.89223 15.8998 11.41522l108.8523 330.22609c11.8229 36.2841 45.6609 59.11455 81.5373 59.11455 46.4763 0 85.6142-38.32254 85.6142-85.61418 0-8.9691-1.6308-17.9382-4.4846-26.90731l-131.6827-399.940485c-11.8229-36.284101-44.8456-59.5222331-80.3143-59.5222331h-436.2246c-17.5305 0-31.3918 14.2690281-31.3918 31.3918631v454.978165c0 46.88396 38.3225 85.20649 85.6141 85.20649 46.884 0 85.6142-38.32253 85.6142-85.20649v-297.61116c0-9.78448 7.7461-17.53052 17.5305-17.53052 9.7845 0 17.9382 7.74604 17.9382 17.53052v298.01885c0 46.88395 37.9149 85.20649 83.9835 85.20649 47.2916 0 87.2449-39.95328 87.2449-86.83724v-295.16504c0-10.19217 4.0768-18.75358 14.269-18.75358z"/></g></svg>