<?xml version="1.0" encoding="UTF-8" standalone="no"?>
<svg
   height="580"
   viewBox="0 0 3840.0003 580"
   width="3840.0002"
   version="1.1"
   id="svg7"
   sodipodi:docname="zmachine.svg"
   inkscape:version="1.3.2 (091e20e, 2023-11-25)"
   xmlns:inkscape="http://www.inkscape.org/namespaces/inkscape"
   xmlns:sodipodi="http://sodipodi.sourceforge.net/DTD/sodipodi-0.dtd"
   xmlns="http://www.w3.org/2000/svg"
   xmlns:svg="http://www.w3.org/2000/svg">
  <defs
     id="defs7" />
  <sodipodi:namedview
     id="namedview7"
     pagecolor="#ffffff"
     bordercolor="#000000"
     borderopacity="0.25"
     inkscape:showpageshadow="2"
     inkscape:pageopacity="0.0"
     inkscape:pagecheckerboard="0"
     inkscape:deskcolor="#d1d1d1"
     inkscape:zoom="0.24557296"
     inkscape:cx="1922.0357"
     inkscape:cy="289.11978"
     inkscape:window-width="1312"
     inkscape:window-height="449"
     inkscape:window-x="0"
     inkscape:window-y="23"
     inkscape:window-maximized="0"
     inkscape:current-layer="svg7" />
  <g
     id="g8"
     transform="scale(1.0000002,0.99976224)">
    <g
       fill="#ffffff"
       stroke-linecap="round"
       stroke-linejoin="round"
       stroke-miterlimit="0"
       stroke-width="26.0919"
       transform="translate(1e-6,-3.8e-5)"
       id="g7">
      <path
         d="M 171.22834,85.614209 C 171.22834,38.322572 132.90581,3.779e-5 85.614171,3.779e-5 38.322533,3.779e-5 -8.9e-7,38.322572 -8.9e-7,85.614209 V 494.11611 c 0,47.29164 38.32253389,85.61418 85.61417188999999,85.61418 47.291639,0 85.614169,-38.32254 85.614169,-85.61418 z"
         id="path1" />
      <path
         d="m 760.74307,93.360254 c 0,-47.291638 -37.91485,-85.6141721 -85.20649,-85.6141721 H 232.38132 C 211.18162,7.3383954 194.46648,24.868916 194.46648,45.660929 V 494.11611 c 0,47.29164 38.32253,85.61418 85.61417,85.61418 47.29163,0 85.61417,-38.32254 85.61417,-85.61418 v -302.5034 c 0,-6.93067 5.70761,-12.63828 12.63828,-12.63828 h 198.13566 c 6.93067,0 13.04596,5.70761 13.04596,12.63828 v 302.5034 c 0,47.29164 38.32254,85.61418 85.61418,85.61418 47.29163,0 85.61417,-38.32254 85.61417,-85.61418 z"
         id="path2" />
      <path
         d="m 968.66323,204.65868 c -7.33836,0 -13.04597,-6.1153 -13.04597,-13.04597 0,-6.93067 5.70761,-12.63828 13.04597,-12.63828 h 302.09567 c 47.2917,0 85.6142,-38.73023 85.6142,-85.614176 0,-47.291638 -38.3225,-85.6141721 -85.6142,-85.6141721 H 869.5954 c -46.88395,0 -85.20648,37.9148471 -85.20648,85.2064851 V 494.5238 c 0,46.88395 38.73022,85.61417 85.61417,85.61417 46.88395,0 85.61417,-38.73022 85.61417,-85.61417 V 390.56374 c 0,-8.15374 6.52298,-14.67672 14.67671,-14.67672 h 300.46493 c 47.2917,0 85.6142,-38.32253 85.6142,-85.61417 0,-47.29164 -38.3225,-85.61417 -85.6142,-85.61417 z"
         id="path3" />
      <path
         d="m 1759.1674,579.73029 c 104.7754,0 189.1665,-84.7988 189.1665,-189.16655 V 196.91263 c 0,-104.36775 -84.3911,-189.1665481 -189.1665,-189.1665481 h -190.3896 c -104.3678,0 -189.1666,84.7987981 -189.1666,189.1665481 v 193.65111 c 0,104.36775 84.7988,189.16655 189.1666,189.16655 z m 17.9382,-193.24342 c 0,12.2306 -9.7845,22.01507 -22.4228,22.01507 h -181.4205 c -12.6382,0 -22.4227,-9.78447 -22.4227,-22.01507 V 200.9895 c 0,-12.2306 9.7845,-22.42276 22.4227,-22.42276 h 181.4205 c 12.6383,0 22.4228,10.19216 22.4228,22.42276 z"
         id="path4" />
      <path
         d="m 2160.7386,579.3226 h 293.942 c 47.2916,0 85.6142,-37.91485 85.6142,-85.20649 0,-47.29163 -38.3226,-85.61417 -85.6142,-85.61417 h -298.8342 c -6.9307,0 -13.046,-5.70761 -13.046,-12.63828 V 192.02039 c 0,-7.33835 5.7076,-13.04596 13.046,-13.04596 h 298.8342 c 47.2916,0 85.6142,-38.32254 85.6142,-85.614176 0,-47.291638 -38.3226,-85.6141721 -85.6142,-85.6141721 h -293.942 c -104.3678,0 -189.1666,84.7987981 -189.1666,189.1665481 v 193.65111 c 0,104.36775 84.7988,188.75886 189.1666,188.75886 z"
         id="path5" />
      <path
         d="m 2943.0889,579.73029 c 104.7754,0 189.1666,-84.7988 189.1666,-189.16655 V 196.91263 c 0,-104.36775 -84.3912,-189.1665481 -189.1666,-189.1665481 h -190.3896 c -104.3678,0 -189.1666,84.7987981 -189.1666,189.1665481 v 193.65111 c 0,104.36775 84.7988,189.16655 189.1666,189.16655 z m 17.9382,-193.24342 c 0,12.2306 -9.7845,22.01507 -22.4227,22.01507 h -181.4206 c -12.6382,0 -22.4227,-9.78447 -22.4227,-22.01507 V 200.9895 c 0,-12.2306 9.7845,-22.42276 22.4227,-22.42276 h 181.4206 c 12.6382,0 22.4227,10.19216 22.4227,22.42276 z"
         id="path6" />
      <path
         d="m 3548.0958,178.97443 c 7.3384,0 13.8614,4.89223 15.8998,11.41522 l 108.8523,330.22609 c 11.8229,36.2841 45.6609,59.11455 81.5373,59.11455 46.4763,0 85.6142,-38.32254 85.6142,-85.61418 0,-8.9691 -1.6308,-17.9382 -4.4846,-26.90731 L 3703.8321,67.268315 C 3692.0092,30.984214 3658.9865,7.7460819 3623.5178,7.7460819 h -436.2246 c -17.5305,0 -31.3918,14.2690281 -31.3918,31.3918631 V 494.11611 c 0,46.88396 38.3225,85.20649 85.6141,85.20649 46.884,0 85.6142,-38.32253 85.6142,-85.20649 V 196.50495 c 0,-9.78448 7.7461,-17.53052 17.5305,-17.53052 9.7845,0 17.9382,7.74604 17.9382,17.53052 V 494.5238 c 0,46.88395 37.9149,85.20649 83.9835,85.20649 47.2916,0 87.2449,-39.95328 87.2449,-86.83724 V 197.72801 c 0,-10.19217 4.0768,-18.75358 14.269,-18.75358 z"
         id="path7" />
    </g>
  </g>
</svg>
