<?xml version="1.0" encoding="UTF-8" standalone="no"?>
<svg
   height="1243"
   viewBox="0 0 3840.0001 1243"
   width="3840"
   version="1.1"
   id="svg25"
   sodipodi:docname="zxspectrum.svg"
   inkscape:version="1.3.2 (091e20e, 2023-11-25)"
   xmlns:inkscape="http://www.inkscape.org/namespaces/inkscape"
   xmlns:sodipodi="http://sodipodi.sourceforge.net/DTD/sodipodi-0.dtd"
   xmlns="http://www.w3.org/2000/svg"
   xmlns:svg="http://www.w3.org/2000/svg">
  <defs
     id="defs25" />
  <sodipodi:namedview
     id="namedview25"
     pagecolor="#ffffff"
     bordercolor="#000000"
     borderopacity="0.25"
     inkscape:showpageshadow="2"
     inkscape:pageopacity="0.0"
     inkscape:pagecheckerboard="true"
     inkscape:deskcolor="#d1d1d1"
     inkscape:zoom="0.125"
     inkscape:cx="1916"
     inkscape:cy="624"
     inkscape:window-width="1312"
     inkscape:window-height="785"
     inkscape:window-x="0"
     inkscape:window-y="39"
     inkscape:window-maximized="0"
     inkscape:current-layer="svg25" />
  <g
     id="g3">
    <g
       id="g2"
       transform="matrix(0.99999889,0,0,1.0000018,0,8.7044424e-4)">
      <path
         d="M 2953.5902,4.8257797 H 2689.2355 L 3566.1949,1238.1703 h 264.4544 z"
         id="path1"
         style="fill:none;stroke:#ffffff;stroke-width:9.6533;stroke-miterlimit:10" />
      <path
         d="M 2689.2355,4.8257797 H 2424.7811 L 3301.8402,1238.1703 h 264.3547 z"
         id="path2"
         style="fill:none;stroke:#ffffff;stroke-width:9.6533;stroke-miterlimit:10" />
      <path
         d="M 2424.7811,4.8257797 H 2160.4264 L 3037.3857,1238.1703 h 264.4545 z"
         id="path3"
         style="fill:none;stroke:#ffffff;stroke-width:9.6533;stroke-miterlimit:10" />
      <path
         d="M 2160.4264,4.8257797 H 1895.9719 L 2773.031,1238.1703 h 264.3547 z"
         id="path4"
         style="fill:none;stroke:#ffffff;stroke-width:9.6533;stroke-miterlimit:10" />
      <path
         d="m 631.75787,158.49524 h 109.03385 v 86.25833 H 631.75787 Z"
         id="path5"
         style="fill:#ffffff;stroke-width:0.997386" />
      <path
         d="M 1.5961039,1041.1224 163.20162,847.96355 H 14.265178 v -55.6441 H 251.38636 v 52.35332 L 89.780844,1037.7319 H 255.57614 v 55.6441 H 1.5961039 Z"
         id="path6"
         style="fill:#ffffff;stroke-width:0.997386" />
      <path
         d="M 372.49074,935.61797 275.42768,792.21973 h 76.8125 l 59.05584,96.23039 61.15073,-96.23039 h 72.62273 L 448.40544,936.11658 553.44902,1093.4757 H 474.54164 L 408.70235,989.26766 341.56623,1093.4757 h -74.71761 z"
         id="path7"
         style="fill:#ffffff;stroke-width:0.997386" />
      <path
         d="m 658.19334,993.45593 c 0,40.08767 31.22378,55.64407 66.63734,55.64407 23.24326,0 58.65682,-6.781 58.65682,-37.4949 0,-32.50894 -45.1897,-37.99357 -89.48158,-49.76061 -44.69091,-11.76703 -89.8806,-29.11842 -89.8806,-85.66 0,-61.62734 58.25779,-91.14464 112.62508,-91.14464 62.84659,0 120.70536,27.42317 120.70536,97.02815 h -64.14343 c -2.09488,-36.2983 -27.83206,-45.57232 -59.45487,-45.57232 -21.14837,0 -45.58871,8.87514 -45.58871,34.20417 0,23.23491 14.36493,26.1268 89.8806,45.57232 21.94643,5.48464 89.48157,19.44552 89.48157,87.75413 0,55.2452 -43.49383,96.6293 -125.29415,96.6293 -66.63734,0 -129.08491,-32.9078 -128.28685,-107.09995 h 64.14342 z"
         id="path8"
         style="fill:#ffffff;stroke-width:0.997386" />
      <path
         d="m 867.88149,875.287 h 56.96096 v 27.82205 h 0.79805 c 14.36493,-23.2349 38.00722,-33.70556 64.94148,-33.70556 68.33322,0 99.15792,55.24521 99.15792,117.27144 0,58.23687 -32.1216,112.58457 -95.7662,112.58457 -26.1362,0 -51.07533,-11.3682 -65.44026,-32.9078 h -0.79806 v 103.8092 H 867.88149 Z M 1029.886,984.97968 c 0,-34.60306 -13.9659,-70.40276 -52.37213,-70.40276 -39.2043,0 -51.87337,35.00194 -51.87337,70.40276 0,35.40082 13.46713,69.20612 52.37216,69.20612 39.30404,0 51.87334,-33.8053 51.87334,-69.20612 z"
         id="path9"
         style="fill:#ffffff;stroke-width:0.997386" />
      <path
         d="m 1162.4624,998.94056 c 1.6959,37.99354 20.2506,55.24524 53.5692,55.24524 24.0414,0 43.4939,-14.7587 47.2846,-28.221 h 52.7712 c -16.8588,51.4559 -52.7712,73.3944 -102.1506,73.3944 -68.832,0 -111.428,-47.2676 -111.428,-114.77841 0,-65.41672 45.1897,-115.1773 111.428,-115.1773 74.3186,0 110.1311,62.4251 105.9414,129.53707 z m 97.4621,-37.99355 c -5.4866,-30.41479 -18.5547,-46.37009 -47.6836,-46.37009 -38.0072,0 -48.9804,29.5173 -49.7785,46.37009 z"
         id="path10"
         style="fill:#ffffff;stroke-width:0.997386" />
      <path
         d="m 1491.1601,952.07187 c -3.7908,-24.43155 -19.4526,-37.49495 -44.2919,-37.49495 -38.4063,0 -51.0753,38.79132 -51.0753,70.90136 0,31.21252 12.27,68.70752 49.7784,68.70752 27.8321,0 43.8929,-17.7503 47.6836,-44.276 h 57.8588 c -7.5815,57.7383 -47.6836,89.4494 -105.0436,89.4494 -65.8393,0 -110.1311,-46.3701 -110.1311,-111.78679 0,-67.90974 40.5011,-118.0692 111.428,-118.0692 51.4743,0 98.7589,27.02428 102.5496,82.66838 h -58.7565 z"
         id="path11"
         style="fill:#ffffff;stroke-width:0.997386" />
      <path
         d="m 1648.077,875.287 h 43.8929 v 40.08769 h -43.8929 v 107.99741 c 0,20.2433 5.0876,25.329 25.3382,25.329 6.2846,0 12.27,-0.3988 18.5547,-1.6952 v 46.8687 c -10.1752,1.6952 -23.2433,2.0941 -35.0146,2.0941 -36.7103,0 -68.8319,-8.4762 -68.8319,-51.8547 V 915.47441 h -36.3114 v -40.08769 h 36.3114 V 809.97 h 59.9536 z"
         id="path12"
         style="fill:#ffffff;stroke-width:0.997386" />
      <path
         d="m 1708.0307,875.287 h 56.9609 v 40.48657 h 0.7981 c 10.9732,-27.42317 40.5011,-46.37008 69.63,-46.37008 4.1898,0 9.2774,0.79776 13.0681,2.09413 v 55.6441 c -5.4866,-1.29637 -14.3649,-2.09413 -21.5474,-2.09413 -43.8928,0 -59.0558,31.61143 -59.0558,70.00387 v 98.32454 h -59.9537 V 875.287 Z"
         id="path13"
         style="fill:#ffffff;stroke-width:0.997386" />
      <path
         d="m 2064.1614,1093.376 h -56.961 v -30.4148 h -1.2968 c -15.163,24.4315 -41.399,36.2983 -66.6374,36.2983 -63.7444,0 -79.8052,-35.8994 -79.8052,-89.8483 V 875.287 h 59.9537 v 123.15496 c 0,35.89944 10.5742,53.54994 38.4062,53.54994 32.5206,0 46.3868,-18.1491 46.3868,-62.42508 V 875.287 h 59.9537 z"
         id="path14"
         style="fill:#ffffff;stroke-width:0.997386" />
      <path
         d="m 2098.7769,875.287 h 56.5619 v 29.5173 h 0.798 c 15.6618,-22.33741 38.4063,-35.40081 66.6374,-35.40081 27.433,0 51.8734,10.1715 63.7444,36.2983 12.6691,-18.94692 35.4135,-36.2983 65.8393,-36.2983 46.3867,0 79.8052,21.53965 79.8052,78.08123 v 145.99098 h -59.9537 V 969.82214 c 0,-29.11842 -2.4939,-53.15108 -36.7104,-53.15108 -33.7177,0 -40.1021,27.82205 -40.1021,55.24521 V 1093.376 h -59.9536 V 971.01879 c 0,-25.32904 1.6958,-54.44745 -36.3114,-54.44745 -11.7713,0 -40.5011,7.57876 -40.5011,50.15946 v 126.5455 h -59.9537 V 875.287 Z"
         id="path15"
         style="fill:#ffffff;stroke-width:0.997386" />
      <path
         d="m 2808.7438,158.49524 h 109.0339 v 86.25833 h -109.0339 z"
         id="path16"
         style="fill:#ffffff;stroke-width:0.997386" />
      <path
         d="M 631.75787,276.76389 H 740.79172 V 638.25111 H 631.75787 Z"
         id="path17"
         style="fill:#ffffff;stroke-width:0.997386" />
      <path
         d="m 2808.8436,276.76389 h 109.0338 v 361.48722 h -109.0338 z"
         id="path18"
         style="fill:#ffffff;stroke-width:0.997386" />
      <path
         d="m 2031.142,158.49524 h 109.0338 V 638.25111 H 2031.142 Z"
         id="path19"
         style="fill:#ffffff;stroke-width:0.997386" />
      <path
         d="M 878.65519,276.76389 H 769.62134 v 86.25833 275.22889 H 878.65519 V 363.02222 H 1262.5182 V 638.25111 H 1371.552 V 363.02222 276.76389 h -109.0338 z"
         id="path20"
         style="fill:#ffffff;stroke-width:0.997386" />
      <path
         d="M 3548.6377,276.76389 H 3055.7409 2946.707 v 86.25833 275.22889 h 109.0339 V 363.02222 h 492.8968 z"
         id="path21"
         style="fill:#ffffff;stroke-width:0.997386" />
      <path
         d="M 0.89780844,300.59711 H 0 v 113.78122 86.25833 1.19665 h 109.03385 v -1.19665 h 383.86298 v 51.35612 H 0.89780844 v 86.25833 H 492.89683 h 109.03385 0.89781 v -86.25833 h -0.89781 v -51.35612 -86.25833 -1.19664 H 492.89683 v 1.19664 H 109.03385 V 363.02222 H 602.82849 V 276.76389 H 0.89780844 Z"
         id="path22"
         style="fill:#ffffff;stroke-width:0.997386" />
      <g
         id="g1">
        <path
           d="m 1400.3816,276.76389 v 86.25833 188.97056 86.25833 h 109.0339 492.8968 V 551.99278 H 1509.4155 V 363.02222 h 492.8968 v -86.25833 h -492.8968 z"
           id="path23"
           style="fill:#ffffff;stroke-width:0.997386" />
      </g>
      <path
         d="m 2771.0359,276.76389 h -100.1556 -4.09 -497.7849 v 86.25833 h 497.7849 v 51.35611 h -497.7849 v 4.58715 81.67118 51.35612 86.25833 h 109.0339 388.751 4.09 100.1556 4.888 4.09 V 276.76389 h -4.09 z M 2278.139,551.99278 v -51.35612 h 388.7511 v 51.35612 z"
         id="path24"
         style="fill:#ffffff;stroke-width:0.997386" />
    </g>
  </g>
</svg>
