<?xml version="1.0" encoding="UTF-8" standalone="no"?>
<svg
   height="1242.9961"
   viewBox="0 0 3840.004 1242.9961"
   width="3840.0039"
   version="1.1"
   id="svg25"
   sodipodi:docname="zxspectrum.svg"
   inkscape:version="1.3.2 (091e20e, 2023-11-25)"
   xmlns:inkscape="http://www.inkscape.org/namespaces/inkscape"
   xmlns:sodipodi="http://sodipodi.sourceforge.net/DTD/sodipodi-0.dtd"
   xmlns="http://www.w3.org/2000/svg"
   xmlns:svg="http://www.w3.org/2000/svg">
  <defs
     id="defs25" />
  <sodipodi:namedview
     id="namedview25"
     pagecolor="#ffffff"
     bordercolor="#000000"
     borderopacity="0.25"
     inkscape:showpageshadow="2"
     inkscape:pageopacity="0.0"
     inkscape:pagecheckerboard="true"
     inkscape:deskcolor="#d1d1d1"
     inkscape:zoom="0.18971061"
     inkscape:cx="1921.3475"
     inkscape:cy="622"
     inkscape:window-width="1312"
     inkscape:window-height="449"
     inkscape:window-x="0"
     inkscape:window-y="39"
     inkscape:window-maximized="0"
     inkscape:current-layer="svg25" />
  <g
     id="g27">
    <g
       id="g26"
       transform="scale(1.000001,0.99919301)">
      <g
         transform="matrix(0.99756393,0,0,0.99801151,0,0.039222)"
         id="g25">
        <g
           fill="none"
           stroke="#ffffff"
           stroke-miterlimit="10"
           stroke-width="9.6786"
           id="g4">
          <path
             d="m 2960.8,4.8 h -265 l 879.1,1236.8 H 3840 Z"
             id="path1" />
          <path
             d="m 2695.8,4.8 h -265.1 l 879.2,1236.8 h 265 z"
             id="path2" />
          <path
             d="m 2430.7,4.8 h -265 l 879.1,1236.8 h 265.1 z"
             id="path3" />
          <path
             d="m 2165.7,4.8 h -265.1 l 879.2,1236.8 h 265 z"
             id="path4" />
        </g>
        <g
           fill="#ffffff"
           id="g24">
          <path
             d="m 633.3,158.9 h 109.3 v 86.5 H 633.3 Z"
             id="path5" />
          <path
             d="m 1.6,1044 162,-193.7 H 14.3 V 794.5 H 252 V 847 L 90,1040.6 h 166.2 v 55.8 H 1.6 Z"
             id="path6" />
          <path
             d="M 373.4,938.2 276.1,794.4 h 77 l 59.2,96.5 61.3,-96.5 h 72.8 l -96.9,144.3 105.3,157.8 h -79.1 l -66,-104.5 -67.3,104.5 h -74.9 z"
             id="path7" />
          <path
             d="m 659.8,996.2 c 0,40.2 31.3,55.8 66.8,55.8 23.3,0 58.8,-6.8 58.8,-37.6 0,-32.6 -45.3,-38.1 -89.7,-49.9 -44.8,-11.8 -90.1,-29.2 -90.1,-85.9 0,-61.8 58.4,-91.4 112.9,-91.4 63,0 121,27.5 121,97.3 h -64.3 c -2.1,-36.4 -27.9,-45.7 -59.6,-45.7 -21.2,0 -45.7,8.9 -45.7,34.3 0,23.3 14.4,26.2 90.1,45.7 22,5.5 89.7,19.5 89.7,88 0,55.4 -43.6,96.9 -125.6,96.9 -66.8,0 -129.4,-33 -128.6,-107.4 h 64.3 z"
             id="path8" />
          <path
             d="m 870,877.7 h 57.1 v 27.9 h 0.8 c 14.4,-23.3 38.1,-33.8 65.1,-33.8 68.5,0 99.4,55.4 99.4,117.6 0,58.4 -32.2,112.9 -96,112.9 -26.2,0 -51.2,-11.4 -65.6,-33 H 930 v 104.1 h -60 z m 162.4,110 c 0,-34.7 -14,-70.6 -52.5,-70.6 -39.3,0 -52,35.1 -52,70.6 0,35.5 13.5,69.4 52.5,69.4 39.4,0 52,-33.9 52,-69.4 z"
             id="path9" />
          <path
             d="m 1165.3,1001.7 c 1.7,38.1 20.3,55.4 53.7,55.4 24.1,0 43.6,-14.8 47.4,-28.3 h 52.9 c -16.9,51.6 -52.9,73.6 -102.4,73.6 -69,0 -111.7,-47.4 -111.7,-115.1 0,-65.6 45.3,-115.5 111.7,-115.5 74.5,0 110.4,62.6 106.2,129.9 z m 97.7,-38.1 c -5.5,-30.5 -18.6,-46.5 -47.8,-46.5 -38.1,0 -49.1,29.6 -49.9,46.5 z"
             id="path10" />
          <path
             d="m 1494.8,954.7 c -3.8,-24.5 -19.5,-37.6 -44.4,-37.6 -38.5,0 -51.2,38.9 -51.2,71.1 0,31.3 12.3,68.9 49.9,68.9 27.9,0 44,-17.8 47.8,-44.4 h 58 c -7.6,57.9 -47.8,89.7 -105.3,89.7 -66,0 -110.4,-46.5 -110.4,-112.1 0,-68.1 40.6,-118.4 111.7,-118.4 51.6,0 99,27.1 102.8,82.9 h -58.9 z"
             id="path11" />
          <path
             d="m 1652.1,877.7 h 44 v 40.2 h -44 v 108.3 c 0,20.3 5.1,25.4 25.4,25.4 6.3,0 12.3,-0.4 18.6,-1.7 v 47 c -10.2,1.7 -23.3,2.1 -35.1,2.1 -36.8,0 -69,-8.5 -69,-52 V 918 h -36.4 v -40.2 h 36.4 v -65.6 h 60.1 z"
             id="path12" />
          <path
             d="m 1712.2,877.7 h 57.1 v 40.6 h 0.8 c 11,-27.5 40.6,-46.5 69.8,-46.5 4.2,0 9.3,0.8 13.1,2.1 v 55.8 c -5.5,-1.3 -14.4,-2.1 -21.6,-2.1 -44,0 -59.2,31.7 -59.2,70.2 v 98.6 h -60.1 V 877.7 Z"
             id="path13" />
          <path
             d="m 2069.2,1096.4 h -57.1 v -30.5 h -1.3 c -15.2,24.5 -41.5,36.4 -66.8,36.4 -63.9,0 -80,-36 -80,-90.1 V 877.7 h 60.1 v 123.5 c 0,36 10.6,53.7 38.5,53.7 32.6,0 46.5,-18.2 46.5,-62.6 V 877.7 h 60.1 z"
             id="path14" />
          <path
             d="m 2103.9,877.7 h 56.7 v 29.6 h 0.8 c 15.7,-22.4 38.5,-35.5 66.8,-35.5 27.5,0 52,10.2 63.9,36.4 12.7,-19 35.5,-36.4 66,-36.4 46.5,0 80,21.6 80,78.3 v 146.4 H 2378 v -124 c 0,-29.2 -2.5,-53.3 -36.8,-53.3 -33.8,0 -40.2,27.9 -40.2,55.4 v 121.8 h -60.1 V 973.7 c 0,-25.4 1.7,-54.6 -36.4,-54.6 -11.8,0 -40.6,7.6 -40.6,50.3 v 126.9 h -60.1 V 877.7 Z"
             id="path15" />
          <path
             d="m 2815.6,158.9 h 109.3 v 86.5 h -109.3 z"
             id="path16" />
          <path
             d="M 633.3,277.5 H 742.6 V 640 H 633.3 Z"
             id="path17" />
          <path
             d="M 2815.7,277.5 H 2925 V 640 h -109.3 z"
             id="path18" />
          <path
             d="m 2036.1,158.9 h 109.3 V 640 h -109.3 z"
             id="path19" />
          <path
             d="M 880.8,277.5 H 771.5 V 364 640 H 880.8 V 364 h 384.8 v 276 h 109.3 V 364 277.5 h -109.3 z"
             id="path20" />
          <path
             d="M 3557.3,277.5 H 3063.2 2953.9 V 364 640 h 109.3 V 364 h 494.1 z"
             id="path21" />
          <path
             d="M 0.9,301.4 H 0 v 114.1 86.5 1.2 H 109.3 V 502 h 384.8 v 51.5 H 0.9 V 640 h 493.2 109.3 0.9 v -86.5 h -0.9 V 502 415.5 414.3 H 494.1 v 1.2 H 109.3 V 364 h 495 V 277.5 H 0.9 Z"
             id="path22" />
          <path
             d="M 1403.8,277.5 V 364 553.5 640 h 109.3 494.1 V 553.5 H 1513.1 V 364 h 494.1 v -86.5 h -494.1 z"
             id="path23" />
          <path
             d="m 2777.8,277.5 h -100.4 -4.1 -499 V 364 h 499 v 51.5 h -499 v 4.6 81.9 51.5 86.5 h 109.3 389.7 4.1 100.4 4.9 4.1 V 277.5 h -4.1 z m -494.1,276 V 502 h 389.7 v 51.5 z"
             id="path24" />
        </g>
      </g>
    </g>
  </g>
</svg>
