<?xml version="1.0" encoding="UTF-8" standalone="no"?>
<svg
   height="1258"
   viewBox="0 0 3840 1258"
   width="3840"
   version="1.1"
   id="svg34"
   sodipodi:docname="amiga.svg"
   inkscape:version="1.3.2 (091e20e, 2023-11-25)"
   xmlns:inkscape="http://www.inkscape.org/namespaces/inkscape"
   xmlns:sodipodi="http://sodipodi.sourceforge.net/DTD/sodipodi-0.dtd"
   xmlns:xlink="http://www.w3.org/1999/xlink"
   xmlns="http://www.w3.org/2000/svg"
   xmlns:svg="http://www.w3.org/2000/svg">
  <defs
     id="defs34" />
  <sodipodi:namedview
     id="namedview34"
     pagecolor="#ffffff"
     bordercolor="#000000"
     borderopacity="0.25"
     inkscape:showpageshadow="2"
     inkscape:pageopacity="0.0"
     inkscape:pagecheckerboard="0"
     inkscape:deskcolor="#d1d1d1"
     inkscape:zoom="0.18759936"
     inkscape:cx="1921.6483"
     inkscape:cy="629"
     inkscape:window-width="1312"
     inkscape:window-height="449"
     inkscape:window-x="0"
     inkscape:window-y="39"
     inkscape:window-maximized="0"
     inkscape:current-layer="svg34" />
  <linearGradient
     id="a">
    <stop
       offset="0"
       stop-color="#6d83ee"
       id="stop1" />
    <stop
       offset=".24"
       stop-color="#0044c6"
       id="stop2" />
    <stop
       offset="1"
       stop-color="#84cd28"
       id="stop3" />
  </linearGradient>
  <linearGradient
     id="b"
     gradientTransform="matrix(1 0 0 -1 0 15280.942)"
     gradientUnits="userSpaceOnUse"
     x1="370.0282"
     x2="586.2901"
     xlink:href="#a"
     y1="14585.846"
     y2="13991.669" />
  <linearGradient
     id="c"
     gradientTransform="matrix(1 0 0 -1 0 15280.942)"
     gradientUnits="userSpaceOnUse"
     x1="83.739098"
     x2="449.0777"
     xlink:href="#a"
     y1="14537.668"
     y2="14021.581" />
  <linearGradient
     id="d">
    <stop
       offset="0"
       stop-color="#8dbc30"
       id="stop4" />
    <stop
       offset=".31"
       stop-color="#e4d300"
       id="stop5" />
    <stop
       offset=".49"
       stop-color="#e6970b"
       id="stop6" />
    <stop
       offset=".66"
       stop-color="#e86316"
       id="stop7" />
    <stop
       offset=".81"
       stop-color="#e93e1d"
       id="stop8" />
    <stop
       offset=".92"
       stop-color="#ea2822"
       id="stop9" />
    <stop
       offset="1"
       stop-color="#eb2024"
       id="stop10" />
  </linearGradient>
  <linearGradient
     id="e"
     gradientTransform="matrix(1 0 0 -1 0 15280.942)"
     gradientUnits="userSpaceOnUse"
     x1="332.41931"
     x2="1367.9995"
     xlink:href="#d"
     y1="14663.933"
     y2="14663.933" />
  <linearGradient
     id="f"
     gradientTransform="matrix(1 0 0 -1 0 15280.942)"
     gradientUnits="userSpaceOnUse"
     x1="431.08701"
     x2="1705.7705"
     xlink:href="#d"
     y1="14217.662"
     y2="15110.208" />
  <linearGradient
     id="g"
     gradientTransform="matrix(1 0 0 -1 0 15280.942)"
     gradientUnits="userSpaceOnUse"
     x1="587.37769"
     x2="708.61261"
     y1="14126.164"
     y2="14036.55">
    <stop
       offset="0"
       stop-opacity="0"
       id="stop11" />
    <stop
       offset=".16"
       id="stop12" />
  </linearGradient>
  <linearGradient
     id="h"
     gradientTransform="matrix(1 0 0 -1 0 15280.942)"
     gradientUnits="userSpaceOnUse"
     x1="368.58719"
     x2="440.39911"
     y1="14126.098"
     y2="14078.918">
    <stop
       offset="0"
       stop-opacity="0"
       id="stop13" />
    <stop
       offset=".25"
       id="stop14" />
  </linearGradient>
  <linearGradient
     id="i"
     gradientTransform="matrix(1 0 0 -1 0 15280.942)"
     gradientUnits="userSpaceOnUse"
     x1="470.51569"
     x2="510.12689"
     y1="14290.253"
     y2="14262.137">
    <stop
       offset=".2"
       stop-opacity="0"
       id="stop15" />
    <stop
       offset=".69"
       id="stop16" />
  </linearGradient>
  <g
     id="g35">
    <g
       transform="scale(1.000269 1.00015741999)"
       id="g34">
      <g
         fill="#8b8b8b"
         id="g18">
        <path
           d="m1516.257 1211.753c-.182-.158-.339-.329-.529-.484-.18-.155-.336-.324-.525-.476-.181-.158-.338-.329-.528-.482-.181-.158-.337-.327-.527-.482-.181-.155-.338-.327-.527-.479-.18-.158-.337-.327-.526-.479-.182-.158-.339-.329-.529-.482-.18-.158-.336-.327-.525-.479-.181-.158-.338-.329-.528-.482-.181-.158-.338-.327-.527-.479-.181-.158-.338-.329-.527-.482-.18-.158-.337-.327-.526-.479-.181-.158-.338-.327-.528-.482-.181-.155-.338-.327-.527-.479-.181-.158-.338-.329-.527-.482-.181-.155-.338-.327-.527-.479-.181-.158-.337-.327-.527-.482-.181-.155-.338-.327-.527-.479-.18-.158-.337-.327-.526-.479-.182-.158-.339-.329-.529-.482-.18-.158-.336-.327-.525-.479-.181-.158-.339-.329-.528-.482-.181-.158-.338-.327-.527-.479-.181-.158-.337-.329-.527-.482-.18-.158-.337-.327-.526-.479-.181-.158-.338-.327-.528-.482-.181-.155-.338-.327-.527-.479-.181-.158-.337-.329-.527-.482-.18-.155-.337-.327-.526-.479-.182-.158-.339-.329-.529-.482-.18-.158-.336-.327-.525-.479-.181-.158-.338-.327-.528-.482-.181-.155-.337-.327-.527-.479-.181-.158-.337-.327-.527-.479-.18-.158-.337-.327-.526-.482-.182-.158-.339-.327-.529-.482-.18-.155-.336-.327-.525-.479-.181-.155-.338-.327-.528-.479-.181-.158-.338-.329-.528-.482-.18-.158-.336-.327-.525-.479-.181-.158-.339-.327-.528-.482-.18-.155-.337-.327-.526-.479-.182-.158-.339-.329-.529-.482-.18-.155-.336-.327-.525-.479-.181-.158-.339-.327-.528-.482-.181-.155-.337-.327-.527-.479-.181-.158-.337-.327-.526-.479-.18-.158-.337-.327-.526-.482-.182-.158-.339-.327-.529-.482-.18-.155-.336-.327-.525-.479-.181-.155-.338-.327-.528-.479-.181-.158-.337-.327-.526-.482-.181-.155-.338-.327-.527-.479-.18-.158-.337-.327-.526-.479-.181-.158-.338-.329-.528-.482-.181-.158-.337-.327-.527-.482-.181-.155-.338-.327-.527-.479-.18-.158-.337-.327-.526-.479-.182-.158-.339-.329-.529-.482-.18-.158-.336-.327-.525-.479-.181-.158-.338-.329-.528-.482-.181-.158-.338-.327-.527-.479-.181-.158-.337-.329-.527-.482-.181-.158-.338-.327-.527-.479-.181-.158-.337-.327-.527-.482-.181-.158-.338-.327-.527-.479-.18-.158-.337-.327-.526-.479-.181-.158-.338-.329-.528-.482-.181-.158-.337-.327-.527-.482-.181-.155-.338-.327-.527-.479-.18-.158-.337-.327-.526-.479-.182-.158-.339-.329-.529-.482-.18-.158-.336-.327-.525-.479-.181-.158-.338-.329-.528-.482-.181-.158-.338-.327-.527-.479-.696-.607-1.473-1.173-2.294-1.714-.563-1.736-1.112-3.483-1.475-5.288-2.191-10.867-3.286-25.342-3.286-43.429l-27.875-450.881c0-24.052-2.558-39.673-7.643-46.896-.754-1.067-1.633-2.027-2.576-2.934-.165-.171-.357-.318-.529-.484-.164-.169-.355-.313-.525-.476-.165-.171-.357-.318-.528-.482-.164-.171-.356-.316-.527-.482-.165-.169-.356-.316-.527-.479-.164-.169-.356-.316-.526-.479-.165-.171-.358-.318-.529-.482-.164-.169-.355-.316-.525-.479-.165-.169-.357-.318-.528-.482-.164-.169-.356-.316-.527-.482-.165-.169-.356-.316-.527-.479-.164-.169-.355-.316-.526-.479-.165-.169-.357-.318-.529-.482-.164-.169-.355-.316-.526-.479-.164-.171-.355-.316-.526-.479-.165-.171-.357-.318-.528-.482-.164-.171-.356-.316-.527-.482-.165-.169-.356-.316-.527-.479-.164-.169-.355-.316-.526-.479-.165-.171-.358-.318-.529-.482-.164-.169-.355-.316-.525-.479-.165-.169-.357-.318-.528-.482-.164-.169-.356-.316-.527-.482-.165-.169-.356-.316-.527-.479-.164-.169-.355-.316-.526-.479-.165-.169-.358-.318-.529-.482-.164-.169-.355-.316-.525-.479-.165-.169-.357-.316-.528-.482-.164-.169-.355-.316-.526-.479-.165-.169-.357-.318-.529-.482-.164-.169-.355-.316-.525-.479-.165-.169-.357-.316-.528-.482-.164-.169-.356-.316-.527-.479-.165-.169-.356-.316-.527-.482-.164-.169-.355-.313-.526-.479-.165-.169-.358-.316-.529-.482-.164-.169-.355-.316-.526-.479-.164-.169-.355-.316-.526-.479-.165-.169-.358-.318-.529-.482-.164-.169-.355-.316-.525-.479-.165-.169-.357-.316-.528-.482-.164-.169-.355-.316-.526-.479-.165-.169-.357-.318-.529-.482-.164-.169-.355-.316-.525-.479-.165-.169-.357-.316-.528-.482-.164-.169-.356-.316-.527-.479-.165-.169-.356-.316-.527-.482-.164-.169-.355-.313-.526-.479-.165-.169-.358-.316-.529-.482-.164-.169-.355-.313-.525-.479-.165-.169-.357-.316-.528-.479-.164-.171-.356-.318-.527-.482-.165-.169-.356-.316-.527-.479-.164-.171-.355-.316-.526-.479-.165-.171-.358-.318-.529-.484-.164-.169-.355-.313-.525-.476-.165-.171-.357-.318-.528-.482-.164-.169-.356-.316-.526-.479-.165-.172-.358-.318-.529-.482-.164-.169-.355-.316-.525-.479-.165-.169-.357-.318-.528-.482-.165-.171-.357-.316-.528-.482-.164-.169-.355-.313-.525-.479-.165-.169-.357-.316-.528-.479-.164-.171-.356-.318-.527-.482-.165-.169-.356-.316-.527-.479-.164-.171-.355-.316-.526-.479-.165-.171-.358-.318-.529-.484-.164-.169-.355-.313-.525-.476-.165-.171-.357-.318-.528-.482-.164-.169-.355-.316-.526-.479-.165-.171-.357-.318-.529-.482-.164-.169-.355-.316-.525-.479-.165-.169-.357-.318-.528-.482-.164-.169-.356-.316-.527-.482-5.406-5.568-14.161-8.363-26.273-8.363-12.589 0-21.888 2.406-27.875 7.193-5.996 4.809-16.184 17.983-30.572 39.564l-284.152 404.617-16.184 23.377-16.188 22.482-15.286 23.377-35.051 44.073c-10.789 11.395-24.123 17.983-40.015 19.782-15.874 1.799-26.667 4.648-32.372 8.54-5.686 3.905-8.541 10.341-8.541 19.336 0 5.427 1.828 9.481 5.468 12.178.185.152.331.335.527.482.185.152.331.335.527.479.185.152.33.335.526.479.185.155.332.337.528.482.185.152.331.335.527.482.185.152.331.335.527.479.185.152.331.335.527.479.185.152.332.338.527.482.185.152.331.335.526.479.185.152.331.335.526.482.186.152.332.335.528.479.185.155.33.335.525.479.185.155.331.338.527.482.185.152.332.335.527.482.185.152.331.335.526.479.185.152.331.335.526.479.185.155.331.337.527.482.185.152.332.335.527.482.185.152.331.335.526.479.185.152.331.335.526.479.186.155.332.337.528.482.185.152.33.335.525.479.185.152.331.335.527.482.185.152.332.335.527.479.185.152.331.338.527.482.185.152.33.335.526.479.186.152.332.335.528.482.185.152.33.335.525.479.185.152.332.335.528.482.185.152.332.335.528.479.185.152.33.335.525.479.185.155.331.335.527.482.185.152.331.335.526.479.186.155.332.337.528.482.185.152.33.335.525.479.185.152.331.335.527.482.185.152.332.335.527.479.185.152.331.335.526.482.185.152.331.335.526.479.186.152.332.335.528.482.185.152.33.335.525.479.185.152.331.335.527.479.185.155.332.337.527.482.185.152.331.335.526.479.185.155.331.335.526.482.185.152.331.335.527.479.185.152.332.338.527.482.185.152.331.335.527.479.185.155.33.335.526.482.186.152.332.335.528.479.185.152.33.335.525.479.185.155.332.338.528.482.185.155.332.335.528.482.185.152.33.335.525.479.185.152.331.335.527.479.185.155.332.337.527.482.185.152.331.335.526.479.185.155.331.335.526.482.185.152.331.335.527.479.185.152.332.337.527.482.185.152.331.335.526.479.185.152.331.335.526.482.186.152.332.335.528.479.185.155.33.335.525.479.185.155.331.337.527.482.185.152.332.335.527.482.185.152.331.335.526.479.185.152.331.335.526.479.186.155.332.338.528.482.185.152.33.335.525.479.185.155.331.335.527.482.185.152.332.335.527.479.185.155.331.337.527.482.185.152.33.335.526.479.185.152.332.335.528.482 3.589 2.964 9.101 4.485 16.641 4.485h24.276l76.43-5.397 59.344 3.23 34.171 2.166c19.177 0 28.773-6.912 28.773-20.767 0-4.741-1.473-8.662-4.255-11.852-.744-.944-1.585-1.834-2.555-2.651-.177-.158-.343-.324-.528-.479-.176-.161-.341-.327-.525-.479-.177-.161-.343-.327-.527-.482-.177-.161-.343-.327-.528-.482-.176-.158-.341-.324-.525-.479-.177-.158-.343-.324-.528-.479-.176-.161-.342-.327-.526-.482-.177-.161-.343-.324-.528-.482-.176-.158-.341-.324-.525-.479-.177-.158-.343-.324-.527-.479-.176-.161-.343-.327-.527-.482-.176-.161-.342-.324-.527-.479-.176-.161-.342-.324-.526-.482-.177-.158-.343-.324-.528-.479-.176-.161-.341-.327-.525-.479-.177-.161-.343-.327-.527-.482-.176-.161-.343-.324-.527-.482-.176-.158-.342-.324-.527-.479-.176-.161-.342-.324-.526-.479-.177-.161-.343-.327-.528-.482-.176-.161-.341-.324-.525-.479-.177-.161-.343-.327-.527-.482-.176-.158-.342-.324-.526-.479-.177-.161-.343-.327-.528-.482-.176-.161-.341-.324-.525-.479-.177-.161-.343-.327-.527-.482-.176-.158-.343-.324-.527-.479-.176-.161-.342-.327-.526-.482-.176-.158-.343-.324-.527-.479-.176-.161-.342-.324-.527-.482-.176-.158-.342-.324-.527-.479-.176-.161-.342-.324-.526-.479-.177-.161-.343-.327-.528-.482-.176-.161-.341-.324-.525-.479-.177-.161-.343-.327-.527-.482-.176-.158-.342-.324-.526-.479-.177-.161-.343-.327-.528-.482-.176-.161-.341-.324-.525-.479-.177-.161-.343-.327-.527-.482-.176-.158-.343-.324-.527-.479-.176-.161-.342-.327-.527-.482-.176-.158-.342-.324-.526-.479-.177-.161-.343-.327-.528-.482-.176-.158-.341-.324-.525-.479-.177-.158-.343-.327-.527-.479-.176-.161-.343-.327-.527-.482-.176-.161-.342-.324-.526-.479-.176-.161-.342-.327-.526-.482-.177-.158-.343-.324-.527-.479-.176-.161-.343-.327-.527-.482-.176-.161-.342-.324-.526-.479-.176-.161-.343-.327-.527-.482-.176-.158-.342-.324-.527-.479-.176-.161-.343-.327-.527-.482-.176-.158-.342-.324-.526-.479-.177-.161-.343-.327-.528-.482-.176-.158-.341-.324-.525-.479-.177-.158-.343-.327-.527-.479-.176-.161-.343-.327-.527-.482-.176-.161-.342-.324-.526-.479-.176-.161-.342-.327-.526-.482-.177-.158-.343-.324-.528-.479-.176-.161-.341-.327-.525-.479-.177-.161-.343-.327-.527-.482-.176-.161-.342-.324-.526-.482-.177-.158-.343-.324-.528-.479-.176-.161-.341-.327-.525-.479-.177-.161-.343-.327-.527-.482-.176-.161-.343-.327-.527-.482-.176-.158-.342-.324-.526-.479-.176-.161-.342-.324-.526-.479-.177-.161-.343-.327-.528-.482-.176-.161-.341-.324-.525-.479-.259-.234-.536-.457-.812-.68-.594-.512-1.321-.95-2.002-1.41-.321-.207-.579-.446-.918-.642-3.865-2.354-8.938-4.033-15.318-4.988-4.452-.528-8.62-1.165-12.511-1.905 1.185-7.849 4.606-17.009 10.355-27.516 3.02-7.22 8.15-16.862 15.398-28.901 3.626-6.009 9.358-15.354 17.211-28.001l28.073-42.443h143.151l2.437 42.631v36.867c0 16.786-2.697 28.629-8.092 35.515-5.395 6.896-15.892 11.242-31.47 13.041-15.595 1.796-26.232 4.493-31.923 8.094-5.704 3.592-8.541 9.299-8.541 17.08 0 5.791 1.797 10.091 5.355 12.938.178.158.339.329.528.482.178.158.339.329.527.479.178.158.339.329.527.482.178.158.339.329.526.479.178.158.34.329.528.482.178.158.338.329.525.479.178.158.339.329.528.479.178.161.339.329.526.482.178.158.34.329.528.479.178.158.338.332.525.479.178.161.339.332.528.482.178.158.339.332.527.482.178.158.339.329.527.479.177.158.339.329.526.479.178.161.34.332.528.482.178.158.339.329.526.482.178.158.339.329.526.479.178.158.34.329.528.482.178.158.338.329.525.479.178.158.339.329.528.479.178.161.339.329.526.482.178.158.34.329.528.479.178.158.338.332.525.479.178.161.339.332.528.482.178.158.339.332.527.482.178.158.339.329.527.479.177.158.338.329.526.479.178.161.34.332.528.482.177.158.338.329.525.479.178.158.339.332.528.482.177.158.339.329.527.479.178.161.339.332.527.482.178.158.339.329.526.479.178.158.34.332.528.482.178.158.338.329.525.479.178.158.339.332.528.482.178.158.339.329.526.479.178.158.34.332.528.482.177.158.338.329.525.479.178.158.339.329.528.482.178.158.34.329.528.479.177.158.338.329.525.479.178.158.34.332.528.482.177.158.339.329.527.479.178.161.339.332.527.482.178.158.339.329.526.479.178.158.34.332.528.482.178.158.338.329.525.479.178.158.339.332.528.482.178.158.339.329.526.479.178.158.34.332.528.482.178.158.338.329.525.479.178.158.339.329.528.482.178.158.339.329.527.479.178.158.339.329.527.482.178.158.339.329.526.479.178.158.34.329.528.482.178.158.338.329.525.479.178.158.339.329.528.479.178.161.339.332.527.482.178.158.339.329.527.479.177.158.338.329.526.479.178.161.339.332.528.482.178.158.339.332.528.482.178.158.338.329.525.479.178.158.339.329.528.482.178.158.339.329.527.479.178.158.339.329.527.482.178.158.339.329.526.479.178.158.34.329.528.482.178.158.338.329.525.479.178.158.339.329.528.479.178.161.339.332.527.482.178.158.339.329.527.479.177.158.338.329.526.479 3.441 3.064 8.696 4.632 15.852 4.632h29.675c22.772-.898 44.198-2.025 64.29-3.372 20.075-1.353 38.507-2.025 55.296-2.025l52.964 2.697 28.772 2.7c17.984 0 26.977-6.602 26.977-19.839.026-5.646-2.114-10.191-6.373-13.633zm-324.271-254.786 79.36-117.424 4.554 117.424z"
           id="path16" />
        <path
           d="m2635.806 1210.046c-.159-.169-.357-.316-.526-.479-.16-.172-.359-.318-.528-.482-.16-.172-.358-.316-.526-.479-.16-.171-.359-.316-.527-.482-.16-.171-.358-.316-.527-.482-.16-.169-.359-.316-.527-.479-.16-.169-.358-.316-.526-.479-.16-.172-.359-.316-.528-.482-.16-.169-.357-.316-.526-.479-.16-.172-.359-.316-.528-.482-.16-.169-.359-.316-.527-.479-.159-.171-.357-.316-.525-.479-.16-.171-.359-.318-.528-.482-.159-.169-.357-.316-.526-.479-.16-.172-.359-.318-.528-.482-.16-.171-.358-.316-.526-.479-.16-.172-.359-.316-.527-.482-.16-.172-.358-.316-.527-.482-.16-.169-.359-.316-.527-.479-.16-.169-.358-.316-.526-.479-.16-.171-.359-.316-.528-.482-.159-.169-.357-.316-.526-.479-.16-.171-.358-.316-.527-.482-.16-.169-.359-.316-.527-.479-.16-.172-.358-.316-.527-.482-.16-.169-.358-.313-.526-.479-.16-.169-.359-.316-.527-.482-.16-.169-.359-.316-.527-.479-.16-.171-.359-.316-.527-.479-.159-.171-.357-.316-.526-.482-.16-.169-.359-.316-.528-.482-.16-.169-.358-.313-.526-.479-.16-.169-.359-.316-.527-.479-.16-.172-.359-.316-.528-.482-.159-.172-.357-.316-.526-.479-.16-.171-.358-.316-.527-.482-.16-.169-.359-.316-.527-.479-.16-.171-.358-.316-.527-.482-.16-.169-.358-.313-.526-.479-.16-.169-.359-.316-.527-.482-.16-.169-.359-.316-.527-.479-.16-.172-.359-.316-.527-.479-.159-.171-.357-.316-.526-.482-.16-.169-.359-.316-.528-.482-.16-.169-.358-.313-.526-.479-.16-.169-.359-.316-.527-.479-.16-.172-.358-.316-.527-.482-.16-.169-.359-.316-.527-.479-.16-.172-.358-.316-.526-.482-.16-.169-.359-.316-.528-.479-.16-.171-.358-.316-.526-.479-.16-.171-.359-.318-.528-.482-.16-.171-.358-.316-.527-.482-.16-.169-.359-.316-.527-.479-.16-.169-.358-.316-.526-.479-.16-.172-.359-.316-.527-.482-.16-.172-.359-.316-.527-.482-.16-.169-.358-.316-.527-.479-.16-.169-.358-.316-.527-.479-.159-.171-.358-.316-.527-.482-.16-.169-.359-.316-.527-.479-.16-.172-.358-.316-.526-.482-.16-.169-.359-.316-.528-.479-.16-.172-.358-.316-.526-.479-.16-.172-.358-.318-.527-.482-.16-.172-.358-.316-.527-.482-.16-.169-.359-.316-.527-.479-.16-.169-.358-.316-.526-.479-.16-.171-.359-.316-.527-.482-.16-.171-.359-.316-.527-.482-.16-.169-.359-.316-.527-.479-.159-.169-.357-.316-.526-.479-.16-.172-.359-.316-.528-.482-.16-.169-.358-.316-.526-.479-4.482-4.765-12.47-7.342-23.752-7.862.463-9.993 3.112-23.633 7.996-41.009l113.294-394.735c5.987-19.782 11.691-32.668 17.086-38.663 5.395-5.987 16.031-10.341 31.918-13.038 15.879-2.697 26.821-5.848 32.821-9.443 5.987-3.595 8.994-9.286 8.994-17.085 0-5.878-1.635-10.211-4.835-13.057-.168-.166-.35-.321-.528-.479-.168-.169-.349-.324-.527-.482-.168-.166-.349-.321-.527-.479-.168-.169-.349-.324-.526-.482-.168-.166-.349-.321-.527-.479-.168-.169-.349-.324-.527-.482-.168-.166-.349-.321-.527-.479-.168-.166-.349-.321-.526-.479-.168-.169-.35-.324-.528-.482-.168-.169-.348-.321-.525-.479-.168-.169-.35-.324-.528-.482-.168-.166-.349-.321-.527-.479-.168-.169-.349-.324-.527-.482-.168-.166-.349-.321-.526-.479-.168-.169-.35-.324-.528-.482-.168-.166-.348-.321-.525-.479-.168-.166-.35-.324-.528-.482-.168-.166-.349-.321-.526-.479-.168-.169-.35-.324-.528-.482-.168-.166-.349-.321-.526-.479-.168-.169-.349-.321-.526-.479-.168-.169-.35-.324-.528-.482-.168-.169-.348-.321-.525-.479-.168-.169-.35-.324-.528-.482-.168-.166-.349-.321-.527-.479-.168-.169-.349-.324-.527-.482-.168-.166-.349-.321-.526-.479-.168-.169-.35-.324-.528-.482-.168-.166-.348-.321-.525-.479-.168-.166-.35-.324-.528-.482-.168-.166-.349-.321-.526-.479-.168-.169-.35-.324-.528-.482-.168-.166-.348-.321-.526-.479-.168-.166-.349-.321-.527-.482-.168-.166-.349-.321-.527-.479-.168-.169-.349-.321-.527-.479-.167-.169-.349-.324-.526-.482-.168-.166-.35-.324-.528-.482-.168-.166-.348-.321-.525-.479-.168-.166-.35-.321-.528-.479-.168-.169-.349-.324-.527-.482-.168-.166-.349-.321-.527-.479-.168-.169-.349-.324-.526-.482-.168-.166-.35-.321-.528-.479-.168-.169-.349-.324-.526-.482-.168-.166-.349-.321-.526-.479-.168-.166-.349-.321-.527-.482-.168-.166-.349-.321-.527-.479-.168-.169-.349-.321-.527-.479-.168-.169-.349-.324-.526-.482-.168-.166-.35-.324-.528-.482-.167-.166-.348-.321-.525-.479-.168-.166-.35-.321-.528-.479-.168-.169-.349-.324-.527-.482-.168-.166-.349-.321-.527-.479-.168-.169-.349-.324-.526-.482-.168-.166-.35-.321-.528-.479-.168-.169-.348-.321-.525-.479-.168-.169-.35-.324-.528-.482-.168-.169-.349-.321-.526-.479-.168-.169-.35-.324-.528-.482-.168-.169-.348-.321-.526-.479-.168-.169-.349-.324-.527-.482-.168-.166-.349-.321-.527-.479-.168-.169-.349-.324-.527-.482-.168-.166-.349-.321-.526-.479-.168-.169-.35-.324-.528-.482-.168-.166-.349-.321-.526-.479-.168-.169-.349-.324-.526-.482-.168-.166-.35-.321-.528-.479-.168-.169-.348-.321-.525-.479-.168-.169-.35-.324-.528-.482-.168-.169-.349-.321-.526-.479-.168-.169-.35-.324-.528-.482-.168-.169-.348-.321-.526-.479-2.996-2.988-7.539-4.507-13.674-4.507l-47.658 2.879c-22.79 2.879-62.944 4.311-120.489 4.311-7.8 0-17.396 0-28.772 0-11.395 0-18.293 0-20.685 0h-41.361c-8.402 0-14.99 2.011-19.779 6.028-4.807 4.022-7.194 9.457-7.194 16.342 0 4.477 1.509 8.05 4.433 10.78.163.166.353.318.527.479.163.169.353.318.526.479.163.169.354.321.528.482.163.169.354.318.527.479.163.169.354.321.527.482.163.166.354.318.526.479.163.169.354.318.528.482.162.169.353.318.526.479.163.169.354.321.527.482.163.166.354.318.527.479.163.169.354.318.527.482.163.166.354.318.526.479.163.169.354.318.528.482.162.166.353.318.526.479.163.169.354.318.527.482.163.166.354.318.527.479.163.169.354.318.527.479.163.169.354.321.527.482.163.166.354.318.526.479.163.169.354.321.528.482.162.169.353.318.526.479.163.169.354.321.527.482.163.166.354.318.527.479.163.169.354.318.527.482.163.166.354.318.526.479.163.169.354.318.528.482.162.166.353.318.526.479.163.169.354.318.527.482.163.166.354.316.526.479.163.169.354.318.528.482.162.166.353.318.526.479.163.166.354.318.528.482.163.166.354.316.527.479.163.169.354.318.527.479.163.169.354.318.526.482.163.166.354.318.528.482.162.166.353.316.526.479.163.166.354.318.527.479.163.169.354.318.528.482.162.166.353.318.526.479.163.169.354.318.527.482.163.166.354.318.527.479.163.169.353.318.527.479.163.169.353.321.526.482.163.166.354.318.528.482.163.166.354.316.527.479.163.169.354.318.527.479.163.169.354.318.526.482.163.166.354.318.528.482.162.166.353.316.526.479.163.166.354.318.527.479.163.169.354.318.527.482.163.166.354.318.527.479.163.169.354.318.526.479.163.169.354.321.528.482.162.169.353.318.526.479.163.169.354.321.527.482.163.166.353.318.526.479.163.169.354.321.528.482.162.169.353.318.525.479.163.169.354.321.527.482.163.166.354.318.527.479.163.169.354.318.527.482.163.166.354.318.527.479.163.169.354.318.527.482.163.166.354.318.527.479.163.169.354.318.526.479.163.169.354.321.528.482.162.169.353.318.526.479.163.169.354.321.527.482.163.166.353.318.526.479.163.169.354.321.528.482.162.169.353.318.525.479.163.169.354.321.528.482.163.166.354.318.527.479 3.273 3.372 8.693 5.459 16.111 6.354-1.035 4.482-2.454 9.843-4.302 16.198l-112.397 392.939c-9.6 34.167-16.498 54.399-20.681 60.696-4.205 6.292-15.892 11.395-35.069 15.286-19.19 3.905-31.474 7.195-36.869 9.892-5.394 2.697-8.092 7.642-8.092 14.832 0 3.018.498 5.652 1.484 7.911-.084-.076-.193-.136-.278-.21-.174-.161-.343-.324-.525-.479-.175-.161-.345-.324-.528-.479-.174-.163-.345-.327-.527-.482-.174-.161-.344-.324-.526-.479-.174-.161-.344-.324-.526-.482-.175-.161-.345-.324-.529-.482-.174-.161-.343-.321-.525-.476-.175-.163-.344-.327-.528-.482-.174-.161-.345-.324-.527-.482-.174-.161-.344-.324-.527-.479-.174-.161-.344-.324-.526-.479-.175-.163-.345-.327-.528-.482-.174-.161-.344-.324-.527-.482-.174-.161-.344-.324-.527-.479-.174-.161-.344-.324-.526-.479-.175-.163-.346-.327-.529-.482-.174-.161-.343-.324-.525-.479-.175-.161-.345-.324-.528-.482-.174-.161-.345-.324-.527-.479-.174-.163-.344-.324-.527-.482-.174-.161-.344-.324-.527-.479-.174-.161-.344-.324-.527-.482-.174-.161-.344-.324-.527-.479-.174-.161-.344-.324-.526-.479-.175-.163-.345-.327-.528-.482-.174-.161-.344-.324-.527-.482-.174-.161-.344-.324-.527-.479-.174-.161-.344-.324-.526-.479-.175-.163-.346-.327-.529-.482-.174-.161-.343-.324-.525-.479-.175-.161-.345-.324-.528-.482-.174-.161-.345-.324-.527-.479-.174-.163-.344-.324-.527-.482-.174-.161-.344-.324-.526-.479-.175-.161-.345-.324-.528-.482-.174-.161-.343-.324-.525-.479-.175-.161-.345-.324-.528-.482-.174-.161-.344-.324-.526-.479-.175-.161-.346-.324-.529-.482-.174-.161-.343-.324-.525-.479-.174-.161-.344-.324-.528-.479-.174-.163-.344-.327-.527-.482-.174-.161-.344-.324-.527-.479-.174-.161-.344-.324-.526-.482-.175-.161-.346-.324-.529-.482-.174-.161-.344-.324-.526-.479-.174-.161-.344-.324-.526-.479-.175-.161-.345-.324-.529-.482-.174-.161-.343-.324-.525-.479-.175-.161-.344-.324-.528-.482-.174-.161-.345-.324-.527-.479-.174-.161-.344-.324-.527-.482-.174-.158-.344-.321-.526-.479-.174-.161-.344-.324-.528-.479-.174-.163-.344-.327-.527-.482-.174-.161-.344-.324-.527-.479-.174-.161-.344-.324-.526-.482-3.895-3.592-9.808-6.023-17.807-7.247-.097-.016-.183-.033-.28-.049.369-5.348 1.508-13.784 3.45-25.415 2.388-14.358 4.789-26.637 7.194-36.81l88.117-367.216c5.395-22.139 10.636-36.356 15.735-42.653 5.089-6.278 17.983-10.467 38.668-12.557 20.681-2.098 31.021-10.624 31.021-25.6 0-5.467-1.722-9.533-5.125-12.225-.179-.161-.339-.332-.528-.482-.178-.158-.337-.329-.526-.479-.178-.158-.338-.332-.527-.482-.178-.158-.338-.329-.527-.479-.178-.158-.338-.332-.527-.482-.178-.158-.337-.329-.526-.479-.179-.158-.339-.332-.528-.482-.178-.158-.337-.329-.525-.479-.179-.158-.338-.332-.527-.482-.178-.158-.337-.329-.526-.479-.178-.158-.338-.332-.528-.482-.178-.158-.337-.329-.526-.479-.179-.158-.338-.329-.527-.482-.178-.158-.338-.329-.527-.479-.178-.158-.338-.332-.527-.479-.178-.158-.337-.332-.526-.482-.178-.158-.338-.329-.528-.482-.178-.155-.337-.329-.526-.479-.178-.158-.338-.329-.527-.479-.178-.158-.338-.332-.528-.482-.178-.158-.337-.329-.525-.479-.179-.158-.338-.332-.527-.482-.178-.158-.337-.329-.526-.479-.178-.158-.338-.332-.528-.482-.178-.158-.337-.329-.526-.479-.179-.158-.338-.329-.527-.482-.178-.158-.338-.329-.527-.479-.178-.158-.338-.332-.527-.479-.178-.158-.337-.332-.526-.482-.178-.158-.338-.329-.528-.482-.178-.155-.337-.329-.526-.479-.178-.158-.338-.329-.527-.479-.178-.158-.338-.332-.527-.482-.178-.158-.338-.329-.527-.479-.178-.158-.337-.332-.526-.479-.179-.161-.339-.332-.528-.482-.178-.158-.337-.332-.526-.479-.178-.158-.338-.332-.527-.482-.178-.158-.338-.329-.526-.479-.178-.161-.339-.332-.528-.482-.178-.158-.337-.332-.526-.479-.178-.158-.339-.332-.527-.482-.178-.158-.338-.329-.528-.482-.178-.155-.337-.329-.526-.479-.178-.158-.338-.329-.527-.479-.178-.158-.338-.332-.527-.482-.178-.158-.338-.329-.527-.479-.178-.158-.337-.332-.526-.479-.179-.161-.339-.332-.528-.482-.178-.158-.337-.332-.526-.479-.178-.158-.338-.332-.527-.482-.178-.158-.338-.329-.526-.479-.178-.161-.338-.332-.528-.482-.178-.158-.337-.329-.526-.479-.179-.158-.339-.332-.527-.482-.178-.158-.338-.329-.527-.479-.178-.158-.338-.332-.527-.482-.178-.158-.337-.329-.526-.479-.179-.158-.338-.332-.528-.482-.178-.158-.337-.329-.526-.479-.178-.158-.338-.332-.527-.482-.178-.158-.338-.329-.527-.479-.178-.158-.338-.332-.527-.479-.178-.158-.337-.332-.526-.482-.178-.158-.338-.332-.527-.482-.178-.158-.339-.329-.528-.479-.178-.158-.337-.329-.526-.479-.179-.158-.339-.332-.527-.482-.178-.158-.338-.329-.527-.479-.178-.158-.338-.332-.527-.482-.178-.158-.337-.329-.526-.479-.178-.158-.338-.332-.528-.482-.178-.158-.337-.329-.526-.479-.178-.158-.338-.332-.527-.482-.178-.158-.338-.329-.527-.479-3.294-2.917-8.328-4.411-15.184-4.411h-28.772-67.427c-14.384 0-27.579 0-39.561 0-12.001 0-23.378 0-34.167 0h-8.994c-7.194 0-11.996.857-14.388 2.572-2.401 1.728-6.602 7.163-12.589 16.323l-206.38300000001 318.622-10.757-274.943c0-11.985-.902-19.475-2.697-22.482-.326-.642-.906-1.184-1.662-1.655-.168-.136-.275-.297-.473-.425-.186-.155-.304-.337-.527-.479-.186-.155-.304-.34-.527-.482-.186-.155-.304-.337-.526-.479-.186-.155-.305-.337-.528-.482-.186-.155-.303-.337-.526-.479-.186-.155-.304-.337-.527-.479-.186-.158-.304-.34-.527-.482-.186-.155-.304-.337-.527-.479-.186-.158-.304-.34-.527-.482-.186-.155-.304-.337-.528-.479-.186-.158-.303-.34-.526-.482-.186-.155-.304-.337-.527-.479-.186-.158-.304-.337-.527-.479-.186-.158-.304-.34-.528-.482-.186-.155-.303-.34-.526-.479-.186-.158-.304-.34-.527-.482-.186-.155-.304-.337-.527-.479-.186-.158-.304-.34-.526-.482-.186-.155-.304-.337-.527-.479-.186-.158-.304-.34-.528-.482-.186-.155-.303-.337-.526-.479-.186-.158-.304-.34-.527-.482-.186-.155-.305-.337-.528-.479-.185-.158-.303-.34-.526-.482-.186-.155-.304-.337-.527-.479-.186-.158-.304-.34-.527-.482-.186-.155-.304-.337-.527-.479-.186-.155-.304-.337-.527-.479-.186-.158-.304-.34-.527-.482-.186-.155-.304-.337-.527-.479-.186-.158-.304-.34-.527-.482-.186-.155-.304-.337-.527-.479-.186-.158-.304-.34-.528-.482-.186-.155-.303-.337-.526-.479-.186-.158-.304-.34-.527-.482-.186-.155-.304-.337-.527-.479-.186-.158-.304-.34-.527-.482-.186-.155-.304-.337-.527-.479-.186-.158-.304-.34-.528-.482-.186-.155-.303-.337-.526-.479-.186-.155-.304-.34-.527-.482-.186-.155-.304-.337-.527-.479-.186-.155-.304-.337-.528-.482-.186-.155-.303-.337-.526-.479-.186-.155-.304-.337-.527-.479-.186-.158-.305-.34-.528-.482-.185-.155-.303-.337-.526-.479-.186-.158-.304-.34-.527-.482-.186-.155-.304-.337-.527-.479-.186-.158-.304-.34-.527-.482-.186-.155-.304-.337-.526-.479-.186-.158-.305-.34-.528-.482-.186-.155-.303-.337-.526-.479-.186-.155-.304-.34-.527-.482-.186-.155-.304-.337-.527-.479-.186-.155-.304-.337-.528-.482-.186-.155-.303-.337-.526-.479-.186-.155-.304-.337-.527-.479-.186-.158-.304-.34-.527-.482-.186-.155-.304-.337-.527-.479-.186-.158-.304-.34-.527-.482-.186-.155-.304-.337-.528-.479-.186-.158-.303-.34-.526-.482-.186-.155-.304-.337-.527-.479-.186-.158-.304-.34-.527-.482-.186-.155-.304-.337-.527-.479-.186-.155-.304-.337-.527-.479-.186-.158-.304-.34-.528-.482-.186-.155-.304-.337-.526-.479-.186-.158-.304-.34-.526-.482-.186-.155-.304-.337-.527-.479-.186-.158-.304-.34-.527-.482-.186-.155-.304-.337-.527-.479-.172-.144-.261-.321-.464-.454-1.855-1.633-5.625-2.504-11.57-2.504h-16.188-62.94-44.96-44.956l-33.269-3.6c-6.606 0-12.297 2.112-17.086 6.297-4.807 4.202-7.194 8.989-7.194 14.385 0 4.058 1.437 7.495 4.189 10.363.151.171.367.316.528.482.15.171.366.313.525.479.151.171.367.313.528.482.151.171.367.313.527.479.151.171.367.316.527.482.151.171.366.313.526.479.151.171.367.313.528.482.151.169.367.313.527.479.151.171.367.313.527.482.151.169.366.313.526.479.151.171.367.313.528.482.15.169.366.313.526.479.151.171.367.313.528.479.151.171.367.316.527.482.151.171.367.313.527.479.151.171.366.313.526.482.151.169.367.313.528.482.15.169.366.31.526.476.151.171.367.316.528.482.151.171.366.313.526.482.151.169.367.313.528.479.15.171.366.313.526.479.151.171.367.316.528.482.151.171.367.313.526.482.151.169.367.313.527.479.151.171.367.313.527.482.151.169.367.313.527.479.151.171.367.313.527.479.151.171.366.313.526.482.151.169.368.313.528.482.15.169.366.31.526.476.151.171.367.316.528.482.151.171.366.313.526.482.151.169.367.313.528.479.15.171.366.313.526.479.151.171.367.316.528.482.151.171.367.313.527.482.151.169.367.313.527.479.151.172.366.313.526.479.151.171.367.316.528.482.15.171.366.313.526.479.151.172.367.313.528.482.151.171.367.313.527.479.151.171.367.316.527.482.151.171.366.313.526.479.151.171.367.313.528.482.15.169.366.313.526.479.151.171.367.313.528.482.151.171.367.313.527.479.151.171.367.313.527.482.151.169.367.313.527.479.151.171.366.313.526.479.151.171.368.316.528.482.15.171.366.313.526.479.151.171.367.313.528.482.151.171.367.313.527.479.151.171.367.316.527.482.151.171.366.313.526.479.151.171.367.313.528.482.15.169.366.313.526.479.151.171.367.313.528.482.151.169.366.313.526.479.151.171.367.313.528.482.15.169.366.313.526.479.151.171.367.313.528.479.151.171.367.316.527.482.151.171.367.313.527.479.151.171.366.313.526.482.151.169.367.313.528.482.15.169.366.31.526.476.151.171.367.316.528.482.151.171.367.316.528.482.15.171.366.313.525.479.151.171.367.313.528.482.15.171.366.313.526.479 4.072 4.616 11.541 7.762 22.413 9.449.314.049.592.098.902.147-2.515 10.638-7.161 26.131-13.96 46.528l-116.894 329.097c-19.191 53.362-32.075 84.073-38.664 92.167 0 0-2.579 2.839-5.715 6.289-6.313 6.94-14.302 12.295-23.313 14.913-15.828 4.597-23.746 11.773-23.746 21.51 0 6.044 1.99 10.554 5.949 13.55.184.155.334.335.528.482.184.152.333.332.527.479.184.155.333.335.526.482.184.152.333.332.526.479.184.155.334.335.528.482.183.152.332.332.525.479.184.152.334.335.528.482.184.152.334.332.528.479.183.155.332.335.525.479.184.155.334.335.528.482.184.152.333.332.526.479.184.155.334.335.528.482.183.152.332.335.525.479.184.155.334.335.528.482.184.152.333.335.527.479.184.155.333.335.526.482.184.152.333.332.526.479.184.155.334.335.528.482.183.152.332.332.525.479.184.152.334.335.528.482.184.152.333.332.527.479.184.155.333.335.526.482.184.152.333.332.527.479.184.152.334.335.527.479.184.155.333.335.527.482.184.155.333.335.527.479.184.155.333.335.526.482.184.152.334.332.528.479.183.155.332.335.525.479.184.155.334.335.528.482.184.155.333.335.527.482.184.152.333.332.526.479.184.155.334.335.527.482.184.152.333.332.527.479.184.155.333.335.526.482.184.152.333.332.526.479.184.152.334.335.528.479.184.155.333.335.527.482.184.155.333.335.527.479.184.155.333.335.526.482.184.152.334.332.528.479.183.155.332.335.525.479.184.155.334.335.528.482.184.155.333.335.527.482.184.152.333.332.526.479.184.155.333.335.527.479.184.155.334.335.528.482.183.155.332.335.525.479.184.155.334.335.528.482.184.152.333.335.527.479.184.155.333.335.526.482.184.152.333.335.527.479.184.155.334.335.527.482.184.152.333.332.527.479.184.155.333.335.527.482.184.152.333.332.527.479.184.155.333.335.527.482.184.152.333.332.526.479.184.152.333.335.526.479.184.155.334.335.528.482.183.155.332.335.525.479.184.155.334.335.528.482.184.152.333.335.527.479.184.155.333.335.526.482.184.152.333.332.526.479.184.155.334.335.528.482.184.152.333.335.527.479.184.155.333.335.527.482.184.152.333.332.526.479.184.155.334.335.528.482.183.152.332.332.525.479.184.152.334.335.528.482.184.152.333.332.527.479.184.155.333.335.526.482.184.152.333.332.527.479 3.89 3.249 9.842 4.912 17.956 4.912l69.859-2.697 53.052 2.161 33.269 3.233c19.177 0 28.773-7.223 28.773-21.665 0-6.091-2.197-10.771-6.45-14.13-.16-.144-.317-.291-.484-.433-.175-.161-.343-.327-.526-.479-.176-.163-.344-.327-.528-.482-.175-.161-.343-.327-.526-.482-.175-.158-.343-.324-.526-.479-.175-.161-.344-.327-.528-.482-.175-.161-.342-.324-.525-.479-.175-.161-.344-.324-.528-.479-.175-.161-.343-.327-.527-.482-.175-.161-.343-.324-.527-.479-.175-.161-.343-.327-.526-.479-.175-.163-.344-.327-.528-.482-.175-.161-.343-.327-.527-.482-.175-.161-.343-.324-.527-.479-.175-.161-.343-.327-.526-.479-.175-.163-.344-.327-.528-.482-.175-.161-.342-.324-.525-.479-.175-.161-.344-.327-.528-.482-.175-.161-.343-.327-.527-.479-.175-.161-.343-.327-.527-.482-.174-.161-.343-.324-.526-.479-.175-.161-.344-.327-.528-.482-.174-.161-.342-.324-.525-.479-.175-.161-.344-.327-.528-.482-.174-.161-.343-.324-.526-.479-.176-.161-.344-.327-.528-.482-.174-.161-.343-.324-.526-.479-.175-.161-.343-.327-.526-.479-.175-.163-.344-.327-.528-.482-.175-.161-.342-.324-.525-.479-.175-.161-.344-.327-.528-.482-.175-.161-.343-.327-.527-.479-.175-.161-.343-.327-.527-.482-.175-.161-.343-.324-.526-.479-.175-.161-.344-.327-.528-.482-.174-.161-.342-.324-.525-.479-.175-.161-.344-.327-.528-.482-.175-.161-.343-.324-.527-.479-.175-.161-.343-.327-.527-.482-.175-.158-.343-.324-.526-.479-.175-.161-.344-.327-.528-.482-.175-.161-.343-.324-.527-.479-.175-.161-.343-.324-.527-.482-.175-.158-.343-.324-.526-.479-.175-.161-.344-.327-.528-.482-.175-.161-.342-.324-.525-.479-.175-.161-.344-.324-.528-.479-.175-.161-.343-.327-.527-.482-.175-.161-.343-.324-.527-.479-.175-.161-.344-.327-.527-.482-.175-.161-.343-.324-.527-.479-.175-.161-.343-.327-.527-.482-.175-.158-.343-.324-.526-.479-.175-.161-.344-.327-.528-.482-.175-.161-.343-.324-.527-.479-.175-.161-.343-.324-.527-.482-.175-.158-.343-.324-.526-.479-.175-.161-.344-.327-.528-.482-.175-.161-.342-.324-.525-.479-.175-.161-.344-.324-.528-.479-.175-.161-.343-.327-.527-.482-.175-.161-.343-.324-.527-.479-.174-.161-.343-.327-.526-.479-.175-.163-.344-.327-.528-.484-.175-.158-.342-.321-.525-.476-.175-.161-.344-.327-.528-.482-.174-.161-.343-.327-.526-.479-.175-.163-.344-.327-.528-.482-.175-.161-.342-.324-.525-.479-.175-.161-.344-.327-.528-.482-.175-.161-.343-.327-.527-.479-.175-.161-.343-.327-.527-.482-.16-.147-.308-.302-.475-.444-3.72-3.821-9.571-6.27-17.705-7.247-7.552-1.208-14.21-2.425-20.164-3.655-.01-.468-.043-.898-.043-1.377 0-12.633.898-23.012 2.697-31.133 1.795-8.124 8.384-31.15 19.779-69.07l14.388-48.738 55.226-150.566 9.942 295.602c0 18.029 2.096 29.748 6.297 35.155.596.77 1.293 1.47 2.048 2.131.171.163.348.324.528.482.171.163.347.321.527.479.171.163.347.324.527.482.17.161.346.321.526.479.171.163.348.324.529.482.171.163.347.321.526.479.171.163.346.321.526.479.171.163.348.324.528.482.17.163.347.324.527.479.171.163.347.324.527.482.17.163.346.321.526.479.172.163.348.324.529.482.17.163.346.321.525.479.171.163.348.324.528.482.171.163.347.321.527.479.171.163.347.324.527.482.17.161.346.321.526.479.171.163.348.324.529.482.17.161.346.321.525.479.171.163.348.324.528.479.17.163.346.324.526.482.171.163.348.324.529.482.17.161.346.321.525.476.171.166.348.324.528.482.171.163.347.324.527.482.171.163.347.321.527.479.17.163.346.324.526.479.171.166.348.324.529.482.17.163.347.324.526.482.17.161.346.321.526.479.171.163.348.324.529.482.17.161.346.321.525.479.171.163.348.324.528.479.17.163.347.324.527.482.171.163.347.321.527.479.17.163.346.324.526.479.171.166.348.324.528.482.171.163.347.324.527.482.171.163.347.321.527.479.17.163.346.324.526.479.171.166.348.324.529.482.17.163.346.324.525.479.171.163.348.324.528.482.171.163.347.324.527.479.171.163.347.324.527.482.17.163.346.321.526.479.171.163.348.324.529.482.17.163.346.321.525.479.171.163.348.324.528.482.17.163.346.321.526.479.172.163.348.324.529.482.17.163.347.321.526.479.17.163.346.324.526.479.172.163.348.324.529.482.17.163.346.324.525.479.171.163.348.324.528.482.17.163.347.324.527.479.171.163.347.324.527.482.171.163.346.321.526.479.171.163.348.324.529.482.17.163.346.321.525.479.171.163.348.324.528.482.17.163.346.321.526.479.172.163.348.324.529.482.17.163.346.321.525.479.171.163.348.324.528.482.171.163.347.321.527.479.171.163.347.324.527.482.17.161.346.321.526.479.171.163.348.324.529.482.17.161.346.321.525.479.171.163.348.324.528.479.171.163.347.324.527.482.171.163.347.321.527.479.17.163.346.324.526.479 4.486 4.297 12.06 6.455 22.754 6.455 11.395 0 20.385-2.697 26.991-8.091 6.589-5.397 16.776-18.571 30.572-39.548l204.205-304.395-51.831 202.243c-8.401 32.973-15.147 53.501-20.232 61.591-5.098 8.091-13.644 12.742-25.626 13.936l-9.892 1.799-10.789.901-15.286 2.7c-10.789 3.595-16.184 10.491-16.184 20.68 0 6.398 1.955 11.15 5.825 14.296.177.161.34.329.526.482.178.158.342.329.528.482.177.158.34.327.525.479.177.158.341.329.528.479.177.158.34.329.527.482.177.158.341.329.527.479.177.158.34.329.526.482.177.158.342.329.528.479.177.161.34.329.525.479.178.161.341.329.528.482.177.158.34.329.526.479.177.161.342.329.528.482.177.158.34.329.525.479.178.161.341.329.528.482.177.158.341.329.527.479.177.161.341.329.527.482.177.158.34.329.526.479.178.161.342.329.528.482.177.158.34.329.525.479.178.161.341.329.528.482.177.158.341.329.527.479.177.158.341.329.527.479.177.161.34.332.527.482.177.158.34.329.526.479.177.161.342.329.528.482.177.158.34.329.525.479.178.161.341.329.528.482.177.158.341.329.527.479.177.161.341.329.527.482.177.158.34.329.526.479.178.161.342.329.528.482.177.158.34.329.525.479.178.161.341.329.528.482.177.158.341.329.527.479.177.158.341.329.527.479.177.161.34.329.526.482.178.158.341.329.528.482.177.158.341.327.527.479.177.158.341.329.527.479.177.161.34.329.526.482.178.158.342.329.528.482.177.158.34.327.525.479.177.158.341.329.528.479.177.158.34.329.527.482.177.158.341.329.527.479.177.158.341.329.527.482.177.158.341.329.527.479.177.158.341.329.527.479.177.161.34.329.526.482.178.158.342.329.528.482.177.158.34.327.525.479.178.158.341.329.528.479.177.161.34.329.526.482.178.158.342.329.528.482.177.158.34.327.525.479.178.158.341.329.528.479.177.158.34.329.527.482.177.158.341.329.527.479.177.158.34.329.526.482.177.158.342.329.528.479.177.161.34.329.525.479.178.161.341.329.528.482.177.158.341.329.527.482.177.158.341.327.527.479.177.158.34.329.526.479.178.161.341.329.528.482.177.158.341.329.527.479.177.161.341.329.527.482.177.158.341.329.527.479.177.161.341.329.527.482.177.158.341.329.526.479.177.161.341.329.526.482.177.158.342.329.528.479.177.161.34.329.525.479.178.161.341.329.528.482 3.741 3.353 9.44 5.065 17.177 5.065l44.961-3.595c21.578-2.392 47.348-3.6 77.328-3.6 26.977 0 61.737 2.406 104.305 7.196h28.772c20.977 0 31.474-6.885 31.474-20.656 0-3.217-.696-6.033-1.946-8.532.018.014.042.022.06.035.184.155.333.335.526.482.185.152.334.335.528.482.183.152.333.332.525.479.184.152.334.332.528.479.184.155.333.335.526.482.184.152.334.335.528.479.184.155.333.335.526.482.184.152.333.332.526.479.185.152.334.335.528.482.183.152.333.332.525.479.184.152.334.335.528.482.184.152.333.332.527.479.184.152.333.335.527.479.184.155.333.335.526.482.184.152.334.335.528.482.183.152.333.332.525.479.184.152.334.332.528.479.184.155.333.335.526.482.184.152.334.335.528.479.183.155.332.335.525.479.184.155.334.335.528.482.184.155.333.335.527.482.184.152.333.332.527.479.184.155.333.335.526.479.184.155.334.335.528.482.183.152.332.332.525.479.184.155.334.335.528.482.184.152.333.335.527.479.184.155.333.335.527.482.184.152.334.332.527.479.184.155.333.335.527.482.184.152.333.332.527.479.184.155.333.335.526.482.184.152.334.332.528.479.184.155.333.335.527.482.184.152.333.332.527.479.184.155.333.335.526.479.184.155.334.335.528.482.183.152.332.332.525.479.184.155.334.335.528.482.184.152.333.335.527.479.184.155.333.335.527.482.184.152.333.332.526.479.185.155.334.335.528.482.183.152.333.332.525.479.184.152.334.335.528.482.184.152.333.332.526.479.184.152.334.335.528.482.183.152.332.332.525.479.184.152.334.335.528.482.184.152.333.332.527.479.184.152.333.335.527.479.184.155.333.335.526.482.184.152.334.335.528.482.184.152.333.332.526.479.184.152.333.332.526.479.185.155.334.335.528.482.183.152.333.332.525.479 3.891 3.249 9.843 4.91 17.954 4.91h3.6c37.766-3.595 61.436-5.685 71.036-6.292 9.582-.591 23.67-.898 42.259-.898l97.111 3.595h52.15c18.576 0 27.875-6.45 27.875-19.347 0-5.255-1.695-9.454-4.978-12.66-.169-.169-.368-.316-.536-.48z"
           id="path17" />
        <path
           d="m3832.366 1211.568c-.184-.155-.333-.329-.525-.479-.185-.158-.335-.329-.529-.482-.184-.155-.333-.329-.525-.479-.184-.155-.335-.329-.527-.482-.185-.155-.335-.329-.527-.479-.185-.158-.335-.329-.527-.482-.184-.155-.334-.329-.526-.479-.185-.155-.335-.329-.528-.482-.184-.155-.333-.327-.525-.479-.185-.155-.335-.329-.528-.479-.184-.158-.334-.329-.526-.482-.185-.155-.334-.329-.527-.479-.185-.155-.334-.329-.527-.482-.185-.155-.335-.329-.527-.479-.184-.158-.334-.329-.527-.482-.184-.155-.333-.329-.527-.479-.184-.155-.333-.329-.527-.482-.184-.155-.335-.329-.527-.479-.185-.158-.335-.329-.527-.482-.184-.155-.334-.329-.526-.479-.185-.155-.335-.329-.528-.482-.184-.155-.333-.327-.525-.479-.185-.155-.335-.329-.528-.479-.184-.158-.333-.329-.527-.482-.184-.155-.333-.329-.527-.479-.184-.155-.333-.329-.526-.482-.184-.155-.335-.329-.527-.479-.185-.158-.335-.329-.527-.482-.185-.155-.334-.329-.527-.479-.184-.155-.334-.329-.526-.482-.185-.155-.335-.329-.528-.479-.184-.158-.333-.329-.525-.479-.185-.158-.335-.332-.528-.482-.184-.155-.334-.329-.527-.482-.184-.155-.334-.327-.527-.479-.184-.155-.334-.329-.527-.479-.184-.158-.335-.332-.528-.482-.184-.155-.333-.329-.525-.479-.185-.155-.335-.329-.528-.482-.184-.155-.333-.329-.527-.479-.184-.158-.333-.329-.527-.482-.184-.155-.334-.329-.527-.479-.184-.155-.334-.329-.527-.482-.184-.155-.335-.329-.528-.479-.184-.158-.333-.329-.525-.479-.185-.158-.335-.332-.528-.482-.184-.155-.333-.329-.527-.482-.184-.155-.333-.327-.527-.479-.184-.155-.333-.329-.526-.479-.184-.158-.335-.332-.529-.482-.184-.155-.333-.329-.525-.479-.184-.155-.335-.329-.527-.482-.184-.155-.334-.329-.527-.479-.184-.158-.334-.329-.527-.482-.184-.155-.333-.329-.525-.479-.185-.155-.335-.329-.528-.482-.184-.155-.334-.329-.527-.479-.184-.158-.335-.329-.527-.482-.184-.155-.334-.329-.527-.479-.184-.155-.335-.329-.528-.482-.184-.155-.333-.327-.525-.479-.185-.155-.335-.329-.528-.479-.184-.158-.333-.329-.527-.482-.184-.155-.333-.329-.527-.479-.184-.155-.334-.329-.527-.482-.184-.155-.335-.329-.527-.479-.184-.158-.334-.329-.527-.482-.184-.155-.334-.329-.526-.479-.185-.155-.335-.329-.528-.482-.184-.155-.333-.329-.526-.479-.184-.158-.334-.329-.527-.482-.184-.155-.333-.329-.526-.479-.184-.155-.335-.329-.529-.482-.184-.155-.333-.327-.525-.479-.184-.155-.335-.329-.527-.479-4.341-3.668-10.964-6.151-19.968-7.394-.61-.084-1.16-.21-1.756-.302-2.091-10.78-3.17-24.887-3.17-42.552l-27.876-450.881c0-24.052-2.558-39.673-7.642-46.896-.754-1.067-1.634-2.027-2.577-2.936-.164-.169-.356-.316-.527-.479-.165-.171-.356-.318-.527-.482-.165-.169-.356-.316-.527-.479-.165-.171-.356-.316-.527-.482-.165-.169-.356-.316-.527-.479-.165-.169-.356-.316-.526-.479-.165-.171-.357-.318-.529-.482-.164-.169-.355-.316-.525-.479-.165-.169-.356-.318-.528-.482-.164-.169-.356-.316-.527-.482-.165-.169-.356-.316-.527-.479-.164-.169-.355-.316-.525-.479-.165-.169-.358-.318-.529-.482-.163-.169-.355-.316-.525-.479-.165-.169-.357-.316-.528-.482-.164-.169-.356-.316-.526-.479-.165-.169-.357-.316-.529-.482-.164-.169-.354-.316-.525-.479-.165-.169-.356-.316-.528-.482-.165-.169-.356-.316-.527-.479-.165-.169-.356-.316-.527-.482-.165-.169-.356-.313-.526-.479-.165-.169-.357-.316-.529-.482-.164-.169-.355-.313-.525-.479-.165-.169-.356-.316-.528-.479-.164-.171-.356-.318-.527-.482-.165-.169-.356-.316-.527-.479-.165-.171-.356-.318-.527-.482-.165-.169-.356-.316-.526-.479-.165-.169-.357-.318-.529-.482-.164-.169-.355-.316-.525-.479-.165-.169-.356-.316-.528-.482-.164-.169-.356-.316-.527-.479-.165-.169-.356-.316-.527-.482-.164-.169-.355-.313-.525-.479-.165-.169-.358-.316-.529-.482-.163-.169-.355-.313-.524-.479-.165-.169-.357-.316-.528-.479-.164-.171-.356-.318-.527-.482-.165-.169-.356-.316-.527-.479-.163-.171-.355-.316-.525-.479-.165-.171-.356-.318-.528-.482-.165-.171-.357-.316-.527-.482-.165-.169-.357-.316-.527-.479-.165-.169-.356-.316-.526-.479-.166-.171-.357-.318-.529-.482-.164-.169-.355-.316-.525-.479-.165-.169-.356-.318-.528-.482-.164-.169-.356-.316-.527-.482-.165-.169-.356-.316-.526-.479-.165-.169-.357-.316-.527-.479-.165-.171-.357-.318-.527-.482-.165-.169-.357-.316-.527-.479-.164-.171-.356-.316-.526-.479-.165-.171-.357-.318-.529-.484-.164-.169-.354-.313-.524-.476-.165-.171-.356-.318-.528-.482-.164-.169-.355-.316-.525-.479-.165-.172-.358-.318-.529-.482-.163-.169-.355-.316-.525-.479-.165-.169-.357-.318-.528-.482-.164-.169-.356-.316-.527-.482-.165-.169-.356-.316-.527-.479-.163-.169-.355-.316-.525-.479-.165-.169-.358-.318-.529-.482-.163-.169-.354-.316-.524-.479-.165-.169-.357-.316-.528-.482-.165-.169-.356-.316-.527-.479-.165-.169-.356-.316-.527-.482-.164-.169-.356-.313-.526-.479-.165-.169-.357-.316-.528-.482-.164-.169-.356-.316-.527-.479-.165-.169-.356-.316-.527-.482-.165-.169-.356-.316-.527-.479-.165-.169-.356-.316-.527-.482-5.406-5.568-14.161-8.363-26.274-8.363-12.588 0-21.887 2.406-27.874 7.193-5.997 4.809-16.184 17.983-30.573 39.564l-284.152 404.617-16.184 23.377-16.188 22.482-15.286 23.377-35.051 44.073c-8.248 8.709-10.967 14.6-18.881 17.703 9.285-31.873 26.553-92.705 26.553-92.705 6.589-23.377 14.079-39.561 22.48-48.556 8.388-8.989 20.371-13.487 35.967-13.487 24.572-2.289 36.864-10.605 36.864-24.966 0-4.137-1.261-7.408-3.667-9.89-.152-.174-.364-.31-.528-.479-.152-.177-.363-.313-.527-.482-.152-.174-.364-.31-.527-.479-.152-.177-.363-.313-.526-.482-.153-.174-.365-.31-.528-.479-.152-.177-.363-.313-.526-.479-.152-.177-.364-.313-.528-.482-.152-.177-.363-.313-.527-.482-.152-.174-.364-.31-.527-.479-.152-.177-.364-.313-.527-.479-.152-.177-.363-.313-.526-.482-.153-.177-.365-.313-.528-.482-.152-.174-.363-.31-.526-.479-.152-.174-.364-.31-.528-.479-.152-.177-.363-.313-.527-.482-.152-.174-.364-.31-.527-.479-.152-.177-.363-.313-.526-.482-.153-.174-.365-.31-.528-.479-.152-.177-.363-.313-.526-.479-.152-.177-.364-.313-.528-.482-.152-.177-.363-.313-.527-.482-.152-.174-.364-.31-.527-.479-.152-.177-.363-.31-.526-.479-.152-.177-.364-.313-.528-.482-.152-.177-.363-.313-.527-.479-.152-.177-.364-.313-.527-.482-.153-.174-.363-.31-.526-.479-.153-.177-.364-.313-.528-.482-.152-.177-.363-.31-.526-.479-.152-.177-.364-.313-.528-.482-.152-.174-.363-.31-.527-.479-.152-.177-.364-.313-.527-.482-.152-.174-.363-.31-.526-.479-.153-.177-.365-.313-.528-.482-.152-.174-.363-.31-.527-.479-.152-.177-.363-.31-.526-.479-.152-.177-.364-.313-.528-.482-.152-.177-.363-.313-.527-.479-.152-.177-.364-.313-.527-.482-.153-.174-.363-.31-.526-.479-.153-.177-.364-.313-.528-.482-.152-.177-.363-.31-.526-.479-.152-.177-.364-.313-.528-.482-.152-.174-.363-.31-.527-.479-.152-.177-.364-.313-.527-.482-.152-.174-.363-.31-.526-.479-.153-.177-.365-.313-.528-.482-.152-.174-.363-.31-.526-.479-.152-.174-.364-.31-.528-.479-.152-.177-.363-.313-.527-.482-.152-.177-.364-.313-.527-.479-.152-.177-.363-.313-.526-.482-.152-.174-.364-.31-.528-.479-.153-.177-.363-.313-.527-.482-.152-.174-.364-.31-.527-.479-.152-.177-.363-.313-.526-.482-.153-.174-.364-.31-.528-.479-.152-.177-.363-.313-.527-.482-.152-.174-.363-.31-.526-.479-.153-.177-.365-.313-.528-.482-.152-.174-.363-.31-.526-.479-.152-.174-.364-.31-.528-.479-.152-.177-.363-.313-.527-.482-.152-.177-.364-.313-.527-.479-.152-.177-.363-.313-.526-.482-.152-.174-.364-.31-.528-.479-.153-.177-.363-.313-.527-.482-.152-.174-.364-.31-.527-.479-.152-.177-.363-.313-.526-.482-.153-.174-.364-.31-.528-.479-.152-.177-.363-.313-.526-.479-.152-.177-.364-.313-.528-.482-.152-.177-.363-.313-.527-.482-.152-.174-.364-.31-.527-.479-.153-.177-.363-.31-.526-.479-3.508-4.055-9.952-6.088-19.335-6.088h-43.161c-20.99 2.406-44.664 3.598-71.036 3.598-1.8 0-5.098 0-9.891 0-2.401 0-6.292 0-11.687 0l-80.927-2.697-44.961-.901c-20.99 0-31.47 6.605-31.47 19.782 0 7.127 2.275 12.078 6.714 14.968.135.128.288.242.429.365.17.166.347.327.527.482.17.166.348.324.528.482.17.163.346.321.525.479.17.163.348.324.528.479.17.166.347.327.527.482.17.163.347.324.527.479.17.166.347.324.526.482.17.163.348.324.528.479.17.166.346.324.526.479.17.166.347.327.527.482.17.166.347.324.527.482.17.163.347.324.527.479.17.163.346.324.526.479.17.166.347.327.527.482.17.166.347.324.527.482.17.163.347.321.527.479.17.163.347.324.526.479.17.166.348.327.528.482.17.166.346.324.525.479.17.166.348.324.528.482.17.163.347.324.527.479.17.166.347.324.527.482.17.163.347.324.526.479.171.166.348.324.528.482.17.163.347.324.526.479.17.163.346.324.526.479.17.166.348.327.528.482.17.166.346.324.525.479.17.166.347.324.527.482.17.163.347.324.526.479.17.166.348.327.528.482.17.166.346.324.525.479.17.166.348.324.528.482.17.163.347.324.527.479.17.166.347.324.527.482.17.163.347.324.526.479.171.166.348.324.528.482.17.163.346.324.526.479.17.163.347.324.527.479.17.166.347.327.527.482.17.166.347.324.527.479.17.166.347.324.526.482.17.163.347.324.527.479.17.166.347.327.527.482.17.163.347.324.527.479.17.166.347.324.526.482.17.163.348.324.528.479.17.166.347.324.526.482.17.163.347.324.526.479.171.166.348.324.528.482.17.163.346.324.526.479.17.163.347.324.527.479.17.166.347.327.527.482.17.166.347.324.527.479.17.166.347.324.526.482.17.163.347.324.527.479.17.166.347.327.527.482.17.163.347.324.527.479.17.166.347.324.526.482.17.163.348.324.528.479.17.166.346.324.525.479.17.166.348.327.528.482.17.166.347.324.527.482.17.163.347.324.527.479.17.163.347.324.526.479.17.166.348.327.528.482.17.166.346.324.526.479.17.166.347.324.527.482.17.163.347.324.527.479.091.09.159.199.253.283 3.099 3.775 8.107 5.729 15.171 5.729 4.009.514 7.654 1.045 11.134 1.584-.203 7.43-1.345 14.165-3.511 20.128l-33.269 117.286c-4.807 16.13-10.044 26.43-15.735 30.894-5.704 4.485-16.044 6.719-31.021 6.719-33.163 0-61.629-7.236-85.465-21.633-23.609-31.318-35.453-71.963-35.453-122.004 0-53.43 12.279-105.058 36.864-154.906 24.572-49.835 58.137-91.873 100.71-126.1 35.967-28.812 74.025-51.027 114.192-66.637 40.154-15.607 79.424-23.418 117.792-23.418.405 0 .771.027 1.17.033.102 1.837.156 3.742.156 5.729l-1.795 45.859c0 15.618 3.166 26.226 9.452 31.92.171.169.352.321.528.482.171.166.35.318.525.479.171.166.351.321.528.482.171.166.351.318.527.479.171.169.351.321.527.479.171.169.35.321.526.482.171.166.352.321.528.482.171.166.35.318.525.479.171.166.351.321.528.479.171.169.35.321.526.482.171.166.352.321.528.482.17.166.35.318.525.479.171.166.352.321.528.479.171.169.351.321.527.482.171.166.351.318.527.479.171.166.35.321.526.479.171.169.352.324.528.482.171.169.35.321.525.479.171.169.352.321.528.482.171.166.351.321.527.479.171.169.351.321.527.482.171.166.351.321.527.479.171.169.351.321.527.482.171.166.351.321.527.479.171.169.35.321.526.482.172.166.352.321.528.479.171.169.351.321.527.482.171.166.351.318.527.479.171.166.35.321.526.479.171.169.352.324.528.482.171.169.35.321.525.479.171.169.352.321.528.482.171.166.351.321.527.479.171.169.351.321.527.482.171.166.35.321.526.479.171.169.352.321.528.482.171.166.35.321.525.479.171.166.351.321.528.482.171.166.35.321.526.479.172.169.352.321.528.482.17.166.35.318.526.479.171.166.351.321.528.482.171.166.351.318.527.479.171.169.351.321.527.479.171.169.351.321.527.482.171.166.351.321.527.479.171.169.351.321.527.482.171.166.35.321.526.479.171.169.352.321.528.482.171.166.35.321.525.479.171.166.351.321.528.482.171.166.35.321.526.479.172.169.352.321.528.482.17.166.35.318.526.479.171.166.351.321.528.482.171.166.351.318.527.479.171.169.351.321.527.479.171.169.35.321.526.482.171.166.352.321.528.482.171.166.35.318.525.479.171.166.352.321.528.479.171.169.351.321.526.482.171.166.351.321.527.479.171.166.35.321.526.482.171.166.352.321.528.479.171.169.35.321.525.479.171.169.352.321.528.482.171.166.35.321.526.479.171.169.351.324.528.482.171.169.351.321.527.479.171.169.35.321.526.482.171.166.352.321.528.482.171.166.35.318.525.479.172.166.352.321.528.479.171.169.351.321.526.482 3.682 3.598 8.485 5.429 14.452 5.429 14.388 0 26.075-15.583 35.069-46.762l22.476-68.332c3.599-8.349 5.399-15.161 5.399-20.443 0-4.703-1.895-8.668-5.672-11.898-.232-.218-.44-.441-.688-.65-.176-.161-.342-.324-.527-.479-.176-.161-.341-.324-.526-.482-.177-.161-.343-.324-.528-.482-.176-.158-.341-.321-.525-.476-.177-.161-.342-.327-.528-.482-.177-.161-.342-.324-.528-.482-.176-.158-.34-.321-.525-.479-.177-.161-.342-.324-.528-.482-.176-.158-.341-.324-.526-.479-.176-.161-.342-.324-.527-.479-.176-.161-.341-.324-.526-.482-.177-.158-.342-.324-.528-.479-.176-.161-.341-.327-.527-.482-.176-.161-.342-.324-.527-.479-.176-.161-.341-.324-.526-.482-.177-.158-.343-.324-.529-.482-.176-.158-.34-.321-.525-.476-.177-.161-.342-.327-.528-.482-.176-.161-.342-.324-.527-.482-.176-.158-.341-.321-.526-.479-.176-.161-.341-.324-.526-.479-.177-.161-.343-.327-.528-.482-.176-.161-.341-.324-.525-.479-.177-.161-.342-.324-.528-.482-.176-.161-.341-.324-.526-.479-.177-.161-.343-.327-.528-.482-.176-.161-.341-.324-.525-.479-.177-.161-.342-.324-.528-.482-.177-.161-.342-.324-.528-.482-.176-.158-.34-.321-.525-.476-.177-.161-.342-.327-.528-.482-.176-.161-.341-.324-.527-.482-.176-.158-.342-.321-.527-.479-.176-.161-.341-.324-.526-.479-.177-.161-.343-.327-.529-.482-.176-.161-.34-.324-.525-.479-.177-.161-.342-.324-.528-.482-.176-.161-.34-.324-.525-.479-.177-.161-.343-.327-.529-.482-.176-.161-.34-.324-.525-.479-.177-.161-.342-.324-.528-.482-.176-.161-.342-.324-.527-.479-.176-.161-.342-.324-.527-.482-.176-.158-.341-.324-.526-.479-.177-.161-.343-.324-.528-.482-.176-.161-.34-.321-.525-.479-.177-.161-.342-.324-.528-.482-.176-.158-.342-.324-.527-.479-.176-.161-.341-.324-.526-.479-.176-.161-.341-.324-.526-.482-.177-.161-.343-.324-.528-.482-.176-.158-.341-.321-.525-.476-.177-.161-.342-.327-.528-.482-.176-.161-.342-.324-.527-.482-.176-.161-.341-.324-.527-.479-.176-.161-.342-.324-.527-.482-.176-.158-.341-.324-.526-.479-.177-.161-.343-.324-.529-.482-.176-.158-.34-.321-.525-.479-.177-.161-.342-.324-.528-.482-.176-.158-.341-.324-.527-.479-.176-.161-.342-.324-.527-.479-.176-.161-.341-.324-.526-.482-.177-.158-.343-.324-.529-.482-.176-.158-.34-.321-.525-.476-.177-.161-.342-.327-.528-.482-.176-.161-.341-.324-.526-.482-.177-.161-.343-.324-.528-.482-.176-.158-.341-.321-.525-.476-.177-.161-.342-.327-.528-.482-.176-.161-.342-.324-.527-.482-.176-.158-.342-.324-.527-.479-.176-.161-.341-.324-.526-.479-.225-.204-.456-.406-.695-.604-3.747-3.296-9.404-5.846-17.006-7.636-29.378-6.436-63.253-9.669-101.608-9.669-56.957 0-114.955 8.404-173.99 25.179-59.053 16.789-114.053 40.168-165.001 70.139-62.351 36.568-110.597 80.334-144.764 131.276-34.172 50.956-51.253 104.906-51.253 161.849 0 66.931 24.792 122.236 74.386 165.945.178.158.345.321.524.476.181.161.352.327.534.487.177.158.343.318.52.474.18.161.349.324.53.484.179.158.348.321.527.482.178.158.347.321.526.479.178.158.345.318.524.476.18.161.349.324.53.484.179.158.348.321.527.479.179.161.347.324.526.482s.348.321.527.479.348.324.527.482c.178.158.347.321.526.479.178.158.345.321.524.476.181.161.352.327.534.487.177.158.343.318.52.474.18.161.349.324.53.484.179.158.348.321.527.482.178.158.347.321.526.479.178.158.345.318.524.476.18.161.349.324.53.484.179.158.348.321.527.479.179.161.347.324.526.482.178.158.345.318.523.476.181.161.352.327.534.487.177.155.343.316.52.474.18.158.349.324.53.484.179.158.348.321.527.479s.347.321.526.479c.178.158.345.321.523.479.181.161.352.327.534.484.177.158.343.318.52.476.18.158.349.324.53.482.179.158.348.324.527.482.178.158.347.321.526.479s.348.324.527.482c.178.158.345.318.523.476.181.161.352.327.534.487.177.155.343.316.52.474.18.158.349.324.53.484.179.158.348.321.527.479s.347.321.526.479c.178.158.345.321.523.479.181.161.352.327.534.484.177.158.343.318.52.476.18.158.349.324.53.482.179.158.348.324.527.482.178.158.347.321.526.479.178.158.345.321.524.476.18.161.349.327.53.484.179.158.348.324.527.482s.347.321.526.479c.178.158.345.321.523.476.181.161.352.327.534.487.177.158.343.318.52.474.18.161.349.324.53.484.179.158.348.321.527.482.179.158.347.321.526.479s.348.321.527.479.348.324.527.482c.178.158.347.321.526.479.178.158.345.321.524.476.18.161.349.327.53.484.179.158.348.324.527.482s.347.321.526.479c.178.158.345.321.523.476.181.161.352.327.534.487.177.158.343.318.52.474.18.161.349.324.53.484.179.158.348.321.527.482.179.158.347.321.526.479.178.158.345.318.523.476.181.161.352.327.534.487.177.155.343.318.52.474.18.161.349.324.53.484 3.439 3.045 6.984 6.044 10.663 8.981 56.338 44.955 129.478 67.434 219.399 67.434 77.54 0 145.96-23.581 187.014-49.753.013.01.031.016.043.024.186.155.332.338.528.482.185.152.33.335.525.479.185.152.332.335.528.482.185.152.331.335.527.479.185.152.331.337.527.482.185.152.331.335.527.479.185.152.332.335.527.482.185.152.331.335.526.479.185.152.331.335.526.479.185.155.331.337.527.482.186.152.332.335.527.482.185.152.331.335.526.479.185.152.331.335.526.479.186.155.333.337.528.482.185.152.33.335.525.479.185.152.331.335.527.482.186.152.332.335.527.479.185.152.331.335.526.482.185.152.331.335.526.479.186.152.332.335.528.482.185.152.33.335.525.479.186.152.332.335.527.479.185.155.332.338.527.482.185.152.331.335.526.479.185.155.331.335.526.482.185.152.332.335.528.479.185.155.331.337.527.482.185.152.331.335.527.479.185.155.33.335.526.482.186.152.332.335.528.479.185.155.331.338.526.482.185.152.331.335.526.479.186.152.332.335.528.482.185.152.33.335.525.479.186.152.331.335.527.479.185.155.332.337.527.482.185.152.331.335.526.479.185.155.331.335.526.482.185.152.331.335.527.479.185.152.332.338.527.482.185.152.331.335.526.479.185.152.331.335.526.482.186.152.333.335.528.479.185.155.33.335.525.479.185.155.331.338.527.482.186.152.332.335.527.482.185.152.331.335.526.479.185.152.331.335.526.479.186.155.332.337.528.482.185.152.33.335.525.479.185.155.332.337.528.482.185.152.33.335.526.479.186.155.332.337.528.482.185.152.331.335.526.479.185.152.331.335.526.482.186.152.333.335.528.479.185.155.33.335.525.479.185.155.331.337.527.482.186.152.332.335.527.482.185.152.331.335.526.479.185.152.331.335.526.479.186.155.333.338.528.482.185.152.33.335.525.479.186.155.332.335.527.482.186.152.332.335.527.479.185.155.331.337.526.482.185.152.331.335.526.479.185.152.331.335.527.482 3.589 2.961 9.101 4.485 16.641 4.485l57.019-3.47c21.083-1.284 42.221-1.35 63.311-.201l27.683 1.505 34.172 2.166c19.177 0 28.772-6.912 28.772-20.767 0-4.741-1.473-8.662-4.255-11.852-.744-.944-1.584-1.834-2.555-2.651-.177-.158-.343-.324-.528-.479-.176-.161-.341-.327-.525-.479-.177-.161-.343-.327-.527-.482-.176-.161-.343-.324-.527-.482-.176-.158-.342-.324-.527-.479-.176-.161-.342-.324-.526-.479-.177-.161-.343-.327-.527-.482-.176-.161-.343-.324-.527-.479-.176-.161-.342-.327-.527-.482-.176-.158-.342-.324-.526-.479-.177-.161-.343-.327-.528-.482-.176-.161-.341-.324-.525-.479-.177-.161-.343-.327-.527-.482-.176-.158-.343-.324-.527-.479-.176-.161-.342-.327-.526-.482-.176-.158-.342-.324-.526-.479-.177-.161-.343-.327-.528-.482-.176-.158-.342-.324-.526-.479-.176-.161-.342-.324-.526-.479-.177-.161-.343-.327-.528-.482-.176-.161-.341-.324-.525-.479-.177-.161-.343-.327-.527-.482-.176-.158-.342-.324-.526-.479-.177-.161-.343-.327-.528-.482-.176-.161-.341-.324-.525-.479-.177-.161-.343-.327-.527-.482-.176-.158-.343-.324-.527-.479-.176-.161-.342-.327-.527-.482-.176-.158-.342-.324-.526-.479-.177-.161-.343-.327-.528-.482-.176-.158-.341-.324-.525-.479-.177-.158-.343-.327-.527-.479-.176-.161-.343-.327-.527-.482-.176-.161-.342-.324-.526-.479-.176-.161-.342-.327-.526-.482-.177-.158-.343-.324-.527-.479-.176-.161-.343-.327-.527-.482-.176-.161-.342-.324-.526-.479-.176-.161-.342-.327-.526-.482-.177-.158-.343-.324-.528-.479-.176-.161-.342-.327-.526-.482-.176-.158-.342-.324-.526-.479-.177-.161-.343-.327-.528-.482-.176-.158-.341-.324-.525-.479-.177-.158-.343-.327-.527-.479-.176-.161-.343-.327-.527-.482-.176-.161-.342-.324-.527-.479-.176-.161-.342-.327-.526-.482-.177-.158-.343-.324-.527-.479-.176-.161-.343-.327-.527-.482-.176-.161-.342-.324-.527-.479-.176-.161-.342-.324-.526-.482-.177-.158-.343-.324-.528-.479-.176-.161-.341-.327-.525-.479-.177-.161-.343-.327-.527-.482-.176-.161-.343-.324-.527-.482-.176-.158-.342-.324-.527-.479-.176-.161-.342-.324-.526-.479-.177-.161-.343-.327-.528-.482-.176-.161-.341-.324-.525-.479-.177-.161-.343-.327-.527-.482-.176-.158-.343-.324-.527-.479-.176-.161-.342-.327-.526-.482-.176-.158-.342-.324-.526-.479-.177-.161-.343-.327-.527-.482-.177-.158-.343-.324-.528-.479-.176-.161-.341-.327-.525-.479-.177-.161-.343-.327-.527-.482-.176-.161-.343-.324-.527-.482-.176-.158-.342-.324-.527-.479-.176-.161-.342-.324-.526-.479-.177-.161-.343-.327-.528-.482-.176-.161-.341-.324-.525-.479-.259-.234-.536-.457-.812-.68-.594-.512-1.321-.95-2.002-1.41-.321-.207-.579-.446-.918-.642-3.865-2.354-8.938-4.033-15.318-4.988-4.451-.528-8.62-1.165-12.511-1.905 1.185-7.849 4.606-17.009 10.354-27.516 3.021-7.22 8.15-16.862 15.398-28.901 3.626-6.009 9.358-15.354 17.212-28.001l28.072-42.443h143.151l2.438 42.631v36.867c0 16.786-2.697 28.629-8.092 35.515-5.395 6.896-15.892 11.242-31.469 13.041-15.596 1.796-26.232 4.493-31.923 8.094-5.704 3.592-8.541 9.299-8.541 17.08 0 5.791 1.797 10.091 5.355 12.938.178.158.339.329.528.482.177.158.339.329.527.479.178.158.339.329.527.482.177.158.339.329.527.479.178.158.339.329.527.479.178.161.339.332.527.482.177.158.338.329.526.479.178.158.339.332.528.482.177.158.339.329.527.479.178.158.339.332.527.482.178.158.339.329.526.479.178.158.34.332.528.482.178.158.338.329.525.479.178.158.339.329.528.482.177.158.339.329.527.479.178.158.339.329.527.482.177.158.338.329.526.479.178.158.34.329.528.482.177.158.338.329.525.479.178.158.34.329.528.479.177.161.338.329.526.482.178.158.34.329.528.479.177.158.338.332.525.479.178.161.34.332.528.482.177.158.339.332.527.482.178.158.339.329.527.479.178.158.339.332.527.482.177.158.339.329.527.479.178.158.339.329.527.482.177.158.338.329.526.479.178.158.34.329.528.482.177.158.338.329.525.479.178.158.34.329.528.479.177.161.339.332.527.482.178.158.339.329.527.479.177.158.338.329.526.479.178.161.34.332.528.482.177.158.339.332.527.482.178.158.339.329.527.479.178.158.339.329.526.479.178.161.34.332.528.482.178.158.338.329.525.479.178.158.339.332.528.482.178.158.339.329.527.479.178.161.339.332.527.482.178.158.339.329.526.479.178.161.34.332.528.482.178.158.338.329.525.479.178.158.339.332.528.482.177.158.338.329.526.479.178.158.34.332.528.482.177.158.339.329.526.479.178.158.339.329.526.479.178.161.34.332.528.482.178.158.338.329.525.479.178.158.339.332.528.482.177.158.339.329.527.479.178.161.339.332.527.482.178.158.339.329.526.479.178.158.34.332.528.482.178.158.338.329.525.479.178.158.339.332.528.482.177.158.338.329.526.479.178.158.34.332.528.482.177.158.338.329.525.479.178.158.34.329.528.482.178.158.339.329.527.479.178.158.339.329.527.482.177.158.338.329.526.479.178.158.34.329.528.482.177.158.338.329.525.479.178.158.34.329.528.479.177.161.339.332.527.482.178.158.339.329.527.479.178.158.339.332.527.482 3.44 3.064 8.696 4.629 15.851 4.629h29.674c22.772-.898 44.198-2.025 64.29-3.372 20.075-1.353 38.507-2.025 55.297-2.025l71.035 2.697 28.773 2.7c17.983 0 26.977-6.602 26.977-19.839.033-5.751-2.187-10.355-6.601-13.822zm-342.109-254.601 79.36-117.424 4.553 117.424z"
           id="path18" />
      </g>
      <path
         d="m1279.468 1001.922h-181.099l-28.072 42.443c-7.854 12.647-13.585 21.991-17.211 28-7.248 12.041-12.378 21.682-15.398 28.903-7.248 13.249-10.856 24.388-10.856 33.409 0 17.463 17.674 28.297 53.048 32.511 16.188 2.419 24.28 9.344 24.28 20.779 0 13.854-9.595 20.766-28.772 20.766l-34.172-2.163-59.344-3.231-76.43 5.395h-24.276c-14.388 0-21.583-5.395-21.583-16.184 0-8.994 2.854-15.43 8.541-19.334 5.704-3.891 16.498-6.741 32.372-8.541 15.892-1.8 29.226-8.388 40.015-19.783l35.051-44.072 15.286-23.378 16.188-22.48 16.184-23.378 284.152-404.618c14.388-21.578 24.576-34.755 30.572-39.562 5.987-4.789 15.286-7.194 27.875-7.194 13.783 0 23.225 3.613 28.324 10.821 5.085 7.221 7.643 22.844 7.643 46.895l27.875 450.88c0 18.087 1.095 32.563 3.286 43.431 1.864 9.246 6.418 17.708 12.891 24.568 5.732 6.075 12.725 10.991 20.687 13.518 10.73 3.406 16.1 9.599 16.1 18.573 0 13.235-8.994 19.837-26.977 19.837l-28.772-2.697-52.963-2.697c-16.79 0-35.222.673-55.296 2.024-20.093 1.346-41.518 2.473-64.29 3.37h-29.674c-13.796 0-20.681-5.691-20.681-17.086 0-7.782 2.836-13.486 8.541-17.081 5.691-3.599 16.327-6.297 31.923-8.092 15.578-1.8 26.075-6.144 31.47-13.042 5.395-6.885 8.092-18.728 8.092-35.513v-36.869zm-3.568-44.956-8.065-207.964-140.55 207.964z"
         id="path19" />
      <path
         d="m2654.329 694.406-113.295 394.736c-5.395 19.195-8.092 33.875-8.092 44.063 0 22.184 11.983 33.269 35.967 33.269 21.578 0 32.367 6.741 32.367 20.214 0 12.898-9.299 19.348-27.875 19.348h-52.15l-97.111-3.595c-18.589 0-32.677.305-42.259.898-9.6.606-33.27 2.697-71.036 6.292h-3.599c-15.578 0-23.378-5.983-23.378-17.983 0-7.19 2.697-12.135 8.092-14.833s17.678-5.987 36.869-9.891c19.177-3.891 30.864-8.994 35.069-15.286 4.183-6.297 11.081-26.528 20.681-60.695l112.397-392.941c4.183-14.384 6.292-23.966 6.292-28.772 0-15.582-11.099-23.378-33.269-23.378-19.191 0-28.772-5.731-28.772-17.198 0-6.885 2.388-12.32 7.194-16.341 4.789-4.017 11.377-6.027 19.779-6.027h41.361 20.685 28.772c57.545 0 97.699-1.432 120.489-4.313l47.658-2.877c11.983 0 17.983 5.704 17.983 17.081 0 7.8-3.007 13.491-8.994 17.086-6 3.595-16.942 6.745-32.821 9.443-15.887 2.697-26.524 7.051-31.918 13.038-5.395 5.994-11.1 18.879-17.086 38.662z"
         id="path20" />
      <path
         d="m3206.417 1033.392s-19.08 67.218-27.914 97.365c-10.318 35.214-107.753 90.565-226.55 90.565-89.921 0-163.062-22.48-219.399-67.436-56.355-44.961-84.522-103.098-84.522-174.443 0-56.943 17.081-110.893 51.253-161.85 34.167-50.943 82.413-94.71 144.764-131.278 50.948-29.971 105.948-53.349 165.001-70.138 59.035-16.776 117.033-25.178 173.99-25.178 38.354 0 72.23 3.231 101.608 9.667 14.976 3.528 22.48 9.977 22.48 19.348 0 5.282-1.8 12.095-5.399 20.443l-22.476 68.334c-8.994 31.178-20.681 46.76-35.069 46.76-15.596 0-23.378-12.279-23.378-36.869l1.795-45.858c0-15.578-3.146-26.524-9.438-32.816-6.297-6.297-16.947-9.443-31.923-9.443-38.368 0-77.637 7.809-117.792 23.418-40.167 15.609-78.226 37.825-114.192 66.638-42.573 34.225-76.139 76.264-100.71 126.099-24.585 49.848-36.864 101.478-36.864 154.907 0 55.247 14.384 99.081 43.161 131.507 28.772 32.426 68.024 48.627 117.792 48.627 14.976 0 25.317-2.235 31.021-6.719 5.691-4.466 10.928-14.766 15.735-30.895l33.27-117.284c2.387-6.575 3.595-14.038 3.595-22.395 0-13.123-2.697-21.637-8.092-25.514-5.395-3.878-19.783-7.306-43.161-10.3-12.589 0-18.881-5.982-18.881-17.983 0-13.177 10.479-19.783 31.47-19.783l44.96.902 80.927 2.697h11.687 9.892c26.371 0 50.045-1.194 71.036-3.599h43.161c14.976 0 22.476 5.17 22.476 15.497 0 14.362-12.292 22.678-36.864 24.967-15.596 0-27.579 4.497-35.967 13.486-8.404 8.993-15.894 25.176-22.483 48.554z"
         id="path21" />
      <path
         d="m3577.739 1001.922h-181.099l-28.073 42.443c-7.854 12.647-13.585 21.991-17.211 28-7.248 12.041-12.378 21.682-15.398 28.903-7.248 13.249-10.856 24.388-10.856 33.409 0 17.463 17.674 28.297 53.048 32.511 16.188 2.419 24.28 9.344 24.28 20.779 0 13.854-9.595 20.766-28.772 20.766l-34.171-2.163-27.683-1.507c-21.09-1.148-42.229-1.081-63.311.202l-57.019 3.469c-14.388 0-21.583-5.395-21.583-16.184 0-8.994 2.854-15.43 8.541-19.334 5.704-3.891 16.498-6.741 32.372-8.541 15.892-1.8 17.188-8.388 27.977-19.783l35.051-44.072 15.286-23.378 16.188-22.48 16.184-23.378 284.152-404.618c14.389-21.578 24.576-34.755 30.572-39.562 5.987-4.789 15.286-7.194 27.875-7.194 13.783 0 23.225 3.613 28.324 10.821 5.085 7.221 7.643 22.844 7.643 46.895l27.875 450.88c0 30.657 3.146 50.943 9.443 60.862 6.292 9.923 18.123 16.089 35.518 18.49 17.378 2.401 26.075 9.317 26.075 20.739 0 13.235-8.994 19.837-26.977 19.837l-28.772-2.697-71.036-2.697c-16.79 0-35.222.673-55.296 2.024-20.093 1.346-41.518 2.473-64.29 3.37h-29.675c-13.796 0-20.68-5.691-20.68-17.086 0-7.782 2.836-13.486 8.541-17.081 5.691-3.599 16.327-6.297 31.923-8.092 15.578-1.8 26.075-6.144 31.47-13.042 5.395-6.885 8.092-18.728 8.092-35.513v-36.869zm-3.568-44.956-8.065-207.964-140.55 207.964z"
         id="path22" />
      <path
         d="m2141.034 727.658-284.125 423.526c-13.796 20.977-23.984 34.154-30.572 39.548-6.606 5.395-15.596 8.092-26.991 8.092-11.996 0-20.093-2.697-24.276-8.105-4.201-5.408-6.297-17.126-6.297-35.154l-14.429-429.015-90.774 247.481-14.389 48.739c-11.395 37.919-17.983 60.947-19.778 69.07-1.8 8.119-2.697 18.499-2.697 31.133 0 14.442 3.442 23.925 10.34 28.436 6.885 4.524 23.517 8.877 49.902 13.091 14.976 1.8 22.48 8.419 22.48 19.855 0 14.442-9.595 21.664-28.772 21.664l-33.269-3.231-53.052-2.163-69.859 2.697c-15.582 0-23.378-5.987-23.378-17.983 0-9.736 7.918-16.912 23.746-21.51 9.011-2.617 17-7.972 23.313-14.914 3.136-3.448 5.715-6.288 5.715-6.288 6.588-8.092 19.473-38.803 38.664-92.165l116.894-329.099c10.789-32.367 16.184-52.446 16.184-60.242 0-6.588-2.85-11.382-8.541-14.388-5.704-2.994-17.238-5.843-34.62-8.541-17.391-2.697-26.075-9.133-26.075-19.334 0-5.395 2.388-10.183 7.194-14.384 4.789-4.187 10.479-6.297 17.086-6.297l33.269 3.599h44.956 44.961 62.939 16.188c7.194 0 11.377 1.207 12.589 3.595 1.795 3.007 2.697 10.497 2.697 22.48l14.384 367.651 242.791-374.831c5.987-9.16 10.188-14.595 12.589-16.323 2.392-1.714 7.194-2.572 14.388-2.572h8.994 34.167 39.562 67.427 28.772c13.177 0 19.783 5.395 19.783 16.157 0 14.976-10.34 23.504-31.021 25.599-20.685 2.091-33.579 6.279-38.668 12.557-5.098 6.297-10.34 20.515-15.735 42.654l-88.117 367.215c-2.406 10.174-4.806 22.453-7.194 36.81-2.401 14.375-3.595 23.957-3.595 28.732 0 10.17 2.836 17.66 8.541 22.449 5.691 4.793 16.327 8.388 31.918 10.78 15.582 2.388 23.382 9.272 23.382 20.636 0 13.769-10.497 20.654-31.474 20.654h-28.772c-42.569-4.789-77.328-7.194-104.305-7.194-29.98 0-55.75 1.207-77.328 3.599l-44.961 3.595c-14.99 0-22.476-6.292-22.476-18.881 0-10.188 5.395-17.086 16.184-20.681l15.286-2.697 10.789-.902 9.891-1.8c11.983-1.194 20.528-5.843 25.626-13.935 5.085-8.092 11.83-28.62 20.232-61.593z"
         id="path23" />
      <path
         d="m405.688 750.35h-187.467l332.419 483.67h187.457z"
         fill="url(#b)"
         id="path24" />
      <path
         d="m717.814 1234.02h20.283l-332.409-483.67h-20.293z"
         id="path25" />
      <path
         d="m187.467 750.35h-187.467l332.419 483.67h187.467z"
         fill="url(#c)"
         id="path26" />
      <path
         d="m499.593 1234.02h20.293l-332.419-483.67h-20.293z"
         id="path27" />
      <path
         d="m1180.532 0-848.113 1234.02h187.457l848.124-1234.02z"
         fill="url(#e)"
         id="path28" />
      <path
         d="m1398.754 0-848.114 1234.02h187.457l848.123-1234.02z"
         fill="url(#f)"
         id="path29" />
      <path
         d="m1565.928 0-848.114 1234.02h20.283l848.123-1234.02z"
         id="path30" />
      <path
         d="m1347.707 0-848.114 1234.02h20.293l848.114-1234.02z"
         id="path31" />
      <path
         d="m540.642 1219.475 9.998 14.545 93.768-136.322-9.989-14.545z"
         fill="url(#g)"
         id="path32" />
      <path
         d="m416.169 1083.153-93.778 136.322 9.989 14.535 93.778-136.361z"
         fill="url(#h)"
         id="path33" />
      <path
         d="m441.54 1075.28 93.738-136.371-9.93-14.457-93.778 136.322z"
         fill="url(#i)"
         id="path34" />
    </g>
  </g>
</svg>
