<?xml version="1.0" encoding="UTF-8" standalone="no"?>
<svg
   height="1220"
   viewBox="0 0 3839.9999 1220"
   width="3840"
   version="1.1"
   id="svg15"
   sodipodi:docname="apple2.svg"
   inkscape:version="1.3.2 (091e20e, 2023-11-25)"
   xmlns:inkscape="http://www.inkscape.org/namespaces/inkscape"
   xmlns:sodipodi="http://sodipodi.sourceforge.net/DTD/sodipodi-0.dtd"
   xmlns="http://www.w3.org/2000/svg"
   xmlns:svg="http://www.w3.org/2000/svg">
  <defs
     id="defs15" />
  <sodipodi:namedview
     id="namedview15"
     pagecolor="#ffffff"
     bordercolor="#000000"
     borderopacity="0.25"
     inkscape:showpageshadow="2"
     inkscape:pageopacity="0.0"
     inkscape:pagecheckerboard="0"
     inkscape:deskcolor="#d1d1d1"
     inkscape:zoom="0.19344262"
     inkscape:cx="1920.4661"
     inkscape:cy="610"
     inkscape:window-width="1312"
     inkscape:window-height="449"
     inkscape:window-x="0"
     inkscape:window-y="39"
     inkscape:window-maximized="0"
     inkscape:current-layer="svg15" />
  <g
     id="g16">
    <g
       transform="scale(1 1.000082)"
       id="g15">
      <path
         d="m3399.8 396.1h-98v-131.6h251.6v582.8h-251.6v-131.6h98z"
         id="path1" />
      <path
         d="m3742 715.7h98v131.6h-251.6v-582.8h251.6v131.6h-98z"
         id="path2" />
      <path
         d="m1105.6 396.9h284.5v450.5h-153.6v-318.9h-84.8c-27.8 0-50.8 8.6-69.1 25.9-18.3 17.2-27.4 39.5-27.4 66.6 0 26.7 9.4 49.2 28.2 67.4s42 27.3 69.8 27.3h48.3v131.6h-94.3c-58 0-109.2-23.4-153.6-70.1-44.5-46.7-66.7-99.2-66.7-157.7 0-58.9 21.1-110.7 63.3-155.5 42.2-44.7 94-67.1 155.4-67.1z"
         id="path3" />
      <path
         d="m1437.6 979v-582.1h289.6c59 0 109.6 22.3 151.7 66.8 42.2 44.5 63.3 98.7 63.3 162.4 0 61.8-21.2 114.1-63.6 157-42.4 42.8-93.9 64.3-154.3 64.3h-98v-131.7h43.9c29.3 0 53.9-8.2 73.9-24.8 20-16.5 30-37.9 30-64.1 0-25.3-9.5-47.6-28.5-67-20.5-20.9-45.6-31.3-75.3-31.3h-79v450.5z"
         id="path4" />
      <path
         d="m1972.9 979v-582.1h289.6c59 0 109.6 22.3 151.7 66.8 42.2 44.5 63.3 98.7 63.3 162.4 0 61.8-21.2 114.1-63.6 157-42.4 42.8-93.9 64.3-154.3 64.3h-98v-131.7h43.9c29.3 0 53.9-8.2 73.9-24.8 20-16.5 30-37.9 30-64.1 0-25.3-9.5-47.6-28.5-67-20.5-20.9-45.6-31.3-75.3-31.3h-79v450.5z"
         id="path5" />
      <path
         d="m2508.2 264.5h153.6v582.8h-153.6z"
         id="path6" />
      <path
         d="m3207.3 715.7v131.6h-259.6c-69.2 0-128-20-176.2-59.9-51.7-42.8-77.5-98.6-77.5-167.2 0-58.4 25.3-110.2 76.1-155.5 50.7-45.3 110.2-67.9 178.4-67.9h258.9v131.3l-102.5 149.6h-174l108.2-149.2h-79c-29.3 0-52.9 8.5-70.9 25.5s-27.1 38.6-27.1 64.8c0 27.7 9.5 50.8 28.5 69.2 19 18.5 42.2 27.7 69.5 27.7z"
         id="path7" />
      <path
         d="m716.9 1211.2c71.9 0 157.2-61.7 214.8-152h-816.3c50.6 91.4 115.7 160.7 190.9 160.7 91.6 0 80.6-56.3 200.1-56.3 118.8 0 98.6 47.6 210.5 47.6z"
         fill="#0f9ad6"
         id="path8" />
      <path
         d="m115.4 1059.2h816.4c29.6-46.4 52-100.4 61.4-157.5h-945.6c18.1 54 40.9 108.8 67.8 157.5z"
         fill="#943f95"
         id="path9" />
      <path
         d="m47.6 901.6h945.5c1.8-10.6 3.1-21.4 3.9-32.2-28-14.1-54.1-33.8-78.3-59.2-19.8-20.9-36-42.9-48.4-66.1h-862.8c7.8 46.4 21.4 101.5 40.1 157.5z"
         fill="#e61d32"
         id="path10" />
      <path
         d="m839.1 619.5c0-11.2.7-22.1 2-32.9h-835.9c-3.4 25.2-5.2 52.3-5.2 81.7 0 20.3 2.6 46.3 7.5 75.8h862.8c-20.7-38.6-31.2-80.3-31.2-124.6z"
         fill="#f38020"
         id="path11" />
      <path
         d="m57.1 429.1c-24.4 41.1-43.2 92.7-51.9 157.5h835.8c6.8-57.9 31.6-110.1 74.3-155.4.7-.7 1.4-1.4 2.1-2.1z"
         fill="#f6bf16"
         id="path12" />
      <g
         fill="#62b947"
         id="g14">
        <path
           d="m347.00039 268.09961s-5.03009.15039-13.83203 1.17578c-4.40097.5127-9.74508 1.24409-15.875 2.28516-6.12993 1.04106-13.04532 2.3918-20.58984 4.14257-7.54453 1.75078-15.71852 3.90113-24.36329 6.54297-8.64476 2.64185-17.76075 5.77598-27.1914 9.49024-4.71533 1.85713-9.50847 3.85834-14.36133 6.01758-4.85286 2.15923-9.7657 4.47497-14.7168 6.95898-4.95109 2.48401-9.94113 5.1373-14.95117 7.96875-5.01003 2.83145-10.04063 5.84141-15.07031 9.04297s-10.05833 6.59511-15.06836 10.18945c-5.01004 3.59434-10.00008 7.39061-14.95117 11.40039-4.9511 4.00979-9.86394 8.23179-14.7168 12.67969s-9.646 9.12061-14.36133 14.0293c-4.71532 4.90868-9.35212 10.05317-13.89062 15.44531-4.53851 5.39214-8.9784 11.03143-13.300784 16.92969-4.322383 5.89826-8.52678 12.05537-12.59375 18.48242-1.662741 2.62764-3.197078 5.50006-4.8125 8.21875h860.339844c3.20509-3.33793 6.42672-6.64166 9.73047-9.76563 4.04843-3.82812 8.16953-7.49726 12.36328-11.00976s8.45899-6.86719 12.79492-10.07031c4.33594-3.20313 8.7418-6.2543 13.2168-9.1543-2.4125-3.125-5.72325-7.25001-9.89453-12.07617-4.17129-4.82617-9.20274-10.35352-15.05664-16.28321-5.8539-5.92968-12.52989-12.26172-19.99024-18.69726-3.73017-3.21777-7.65593-6.46119-11.77343-9.69336-4.11751-3.23218-8.42657-6.45313-12.92188-9.625s-9.17742-6.29517-14.04102-9.33203c-4.86359-3.03686-9.9085-5.98731-15.13085-8.81446-5.22236-2.82714-10.62176-5.52954-16.19336-8.07226-5.57161-2.54272-11.31524-4.92578-17.22657-7.10938-5.91132-2.18359-11.9909-4.16821-18.23242-5.91796-6.24152-1.74976-12.64483-3.26465-19.20703-4.50586s-13.28289-2.20923-20.15625-2.86719-13.89923-1.00586-21.07422-1.00586c-6.83124 0-13.3471.25537-19.57617.73437-6.22907.47901-12.17159 1.18204-17.86133 2.07618s-11.12659 1.9792-16.33984 3.22461c-5.21325 1.2454-10.2043 2.65078-15.00391 4.18359-4.7996 1.53281-9.40667 3.19287-13.85547 4.94922-4.4488 1.75634-8.7376 3.60938-12.89843 5.52539-8.32168 3.83203-16.13087 7.92032-23.67774 12.00781-7.54687 4.0875-14.83262 8.17383-22.10742 12.00586s-14.53946 7.40899-22.04492 10.47461c-3.75273 1.53281-7.56605 2.93818-11.47071 4.18359s-7.9001 2.33047-12.01953 3.22461-8.36272 1.59717-12.75976 2.07617c-4.39704.47901-8.94805.73438-13.68555.73438-5.21874 0-10.21902-.28223-15.03516-.8125-4.81613-.53027-9.44756-1.30899-13.92773-2.29883s-8.80867-2.1916-13.01953-3.57031-8.3043-2.93399-12.3125-4.63086-7.9325-3.53613-11.80469-5.48047c-3.87219-1.94433-7.69326-3.99414-11.49609-6.11523-7.60566-4.24219-15.13907-8.76602-22.86719-13.29102-7.72812-4.52499-15.65138-9.05078-24.03516-13.29297-4.19189-2.12109-8.49734-4.1709-12.95312-6.11523-4.45578-1.94434-9.06133-3.7836-13.84766-5.48047-4.78632-1.69687-9.75398-3.25215-14.9375-4.63086-5.18351-1.37871-10.58311-2.58047-16.23047-3.57031-5.64735-.98985-11.54285-1.7666-17.7207-2.29688-6.17785-.53027-12.63712-.81445-19.41211-.81445z"
           transform="translate(-25.1)"
           id="path13" />
        <path
           d="m692.1 208.6c15.6-15.5 49-127.5 49-208.6-73.6 17.1-142.5 57.5-182.3 112.7-39.7 55.2-62.3 125-48.9 208.6 99.5-8.6 146.2-58.6 182.2-112.7z"
           id="path14" />
      </g>
    </g>
  </g>
</svg>
