<svg enable-background="new 0 0 3839 844.1" viewBox="0 0 3839 844.1" xmlns="http://www.w3.org/2000/svg"><path d="m2181 773h26.1.1v69.4h28.7v-69.4h26.1v-23.9h-81z"/><path d="m2319.6 772.9c-11 0-16.8 3.8-21.2 9h-.3v-32.8h-25.9v93.4h25.9v-35.8c0-10.9 5.9-13.1 10.3-13.1 7.6 0 8.5 5.5 8.5 13.3v35.5h25.9v-46.5c0-15.6-11.1-23-23.2-23z"/><path d="m2389.7 772.9c-21.4 0-35.8 16.1-35.8 35.8 0 22.6 16.3 35.4 38 35.4 15.4 0 29.7-6.8 34.9-21.4h-24.2c-2.1 3.2-6.6 4.8-10.8 4.8-8.1 0-12.5-5.5-13.2-13.2h49.6c0-26.4-11.6-41.4-38.5-41.4zm-10.9 27.9c1.2-7.4 5.6-11.4 13.3-11.4 6.7 0 11.4 5.1 11.4 11.4z"/><path d="m2531.2 749.1h-48.1v93.3h28.7v-28.2h17c21.4 0 36.6-10.6 36.6-33.2 0-13.4-8.9-31.9-34.2-31.9zm-8.2 42.8h-11.1v-18.9h12.8c7.1 0 13.6.5 13.6 9 0 9.4-7.9 9.9-15.3 9.9z"/><path d="m2599.8 785.4h-.3v-10.8h-24.8v67.8h25.9v-26.8c0-14.5 5.5-20.5 15.7-20.5 5.2 0 7.6.8 10.2 1.7v-22.9c-2.5-.6-5-1-7.6-1-9.4 0-14.9 4.4-19.1 12.5z"/><path d="m2664.4 772.9c-25.5 0-37 16.7-37 35.5 0 18.9 11.5 35.7 37 35.7s37-16.9 37-35.7-11.6-35.5-37-35.5zm0 52.3c-9.8 0-11.1-9.6-11.1-16.8s1.3-16.7 11.1-16.7 11.1 9.5 11.1 16.7c0 7.1-1.3 16.8-11.1 16.8z"/><path d="m2722.2 755.5c-5 5-5.7 12.4-5.4 19.1h-10.6v15.9h10.5v51.9h25.9v-51.9h13.1v-15.9h-13.6c-.4-6.3 1.7-8.1 8-8.1 2.1 0 4.2.6 6.3.9v-17.8c-3.9-.1-7.7-.5-11.6-.5-10.5 0-17 .8-22.6 6.4z"/><path d="m2796.3 772.9c-21.4 0-35.8 16.1-35.8 35.8 0 22.6 16.3 35.4 38 35.4 15.4 0 29.7-6.8 34.9-21.4h-24.2c-2.1 3.2-6.6 4.8-10.8 4.8-8.1 0-12.5-5.5-13.2-13.2h49.6c0-26.4-11.6-41.4-38.5-41.4zm-11 27.9c1.2-7.4 5.6-11.4 13.3-11.4 6.7 0 11.4 5.1 11.4 11.4z"/><path d="m2894 801.1c-8.6-2.8-18.4-3.4-22.7-5.2-1.4-.6-3-1.5-3-3.5 0-4.4 4.1-5.2 7.8-5.2 2 0 4.1.7 5.7 2 1.7 1.2 2.9 2.9 3 5.1v-.2h23.6c-.6-17.4-18.3-21.4-32.9-21.4-13.6 0-32 4.5-32 21.6 0 11.6 8 17.9 27.7 21.3 12 2.1 14.2 3.3 14.2 7.2s-5.4 5.2-8.8 5.2c-3.1 0-5.6-.8-6.9-2-1.9-1.7-3-3.6-3.1-6h-24.7c.4 17.5 17.9 23.9 33.8 23.9 16.5 0 34.5-5.1 34.5-23.9 0-11.1-7.6-16.2-16.2-18.9z"/><path d="m2969 801.1c-8.6-2.8-18.4-3.4-22.7-5.2-1.4-.6-3-1.5-3-3.5 0-4.4 4.1-5.2 7.8-5.2 2 0 4.1.7 5.7 2 1.7 1.2 2.9 2.9 3 5.1v-.2h23.6c-.6-17.4-18.3-21.4-32.9-21.4-13.6 0-32 4.5-32 21.6 0 11.6 8 17.9 27.7 21.3 12 2.1 14.2 3.3 14.2 7.2s-5.4 5.2-8.8 5.2c-3.1 0-5.6-.8-6.9-2-1.9-1.7-3-3.6-3.1-6h-24.7c.4 17.5 17.9 23.9 33.8 23.9 16.5 0 34.5-5.1 34.5-23.9 0-11.1-7.6-16.2-16.2-18.9z"/><path d="m2996.1 774.6h25.9v67.8h-25.9z"/><path d="m2996.1 749.1h25.9v18.2h-25.9z"/><path d="m3070.8 772.9c-25.5 0-37 16.7-37 35.5 0 18.9 11.5 35.7 37 35.7s37-16.9 37-35.7-11.5-35.5-37-35.5zm0 52.3c-9.8 0-11.1-9.6-11.1-16.8s1.3-16.7 11.1-16.7 11.1 9.5 11.1 16.7c0 7.1-1.3 16.8-11.1 16.8z"/><path d="m3166.3 772.9c-10.3 0-17.3 3.5-22.1 10.3h-.3v-8.6h-24.9-.1v67.9h25.9v-35.8c0-10.9 5.9-13.1 10.3-13.1 7.6 0 8.5 5.5 8.5 13.3v35.5h25.9v-46.5c0-15.6-11.1-23-23.2-23z"/><path d="m3269.7 827.2v-27.8c0-13 .3-26.5-32.1-26.5-7.9 0-16.6.8-23.1 3.9-6.7 3.1-11.4 8.8-11.8 18.3h24c.2-2.9 1.7-6.9 9.7-6.9 4.2 0 8.5 1.7 8.5 6.3 0 4.3-3.6 5.3-7.1 6-13.2 2.5-38.3 1.7-38.3 23.1 0 14.2 10.8 20.5 23.9 20.5 8.3 0 16.3-1.8 21.8-8.1h.3c-.1 1.8.2 4.6.9 6.4h26.4c-2.8-4.4-3.1-10.1-3.1-15.2zm-24.9-9c-.4 7.1-4.9 10.6-10.8 10.6-4.7 0-8.1-3.2-8.1-6.3 0-4.6 3.1-6 8.8-7.3 3.5-.8 7-1.7 10.1-3.3z"/><path d="m3284 749.1h25.9v93.3h-25.9z"/><path d="m3399.7 749.1-34.3 93.3h28.9l4.2-13.3h29.6l3.9 13.3h29.8l-34-93.3zm4.9 60 9-28.7h.3l8.4 28.7z"/><path d="m3492.8 785.4h-.3v-10.8h-24.8v67.8h25.9v-26.8c0-14.5 5.5-20.5 15.7-20.5 5.2 0 7.6.8 10.2 1.7v-22.9c-2.5-.6-5-1-7.6-1-9.4 0-14.9 4.4-19.1 12.5z"/><path d="m3557.7 825.2c-10 0-11.4-8.5-11.4-16.7s1.5-16.8 11.4-16.8c2.7 0 4.9.8 6.5 2.2 1.7 1.4 2.6 3.7 2.9 6.4v-.1h24.6c-1.6-18.6-16.7-27.4-34.5-27.4-20.4 0-36.7 14.3-36.7 35.7s16.3 35.5 36.7 35.5c9.1 0 17.4-2.6 23.5-7.4 6.3-5 10.6-12.2 11.8-21.3h-24.7c-.6 5.3-4.5 9.9-10.1 9.9z"/><path d="m3669.2 827.2v-27.8c0-13 .3-26.5-32.1-26.5-7.9 0-16.6.8-23.1 3.9-6.7 3.1-11.4 8.8-11.8 18.3h24c.2-2.9 1.7-6.9 9.7-6.9 4.2 0 8.5 1.7 8.5 6.3 0 4.3-3.6 5.3-7.1 6-13.2 2.5-38.3 1.7-38.3 23.1 0 14.2 10.8 20.5 23.9 20.5 8.3 0 16.3-1.8 21.8-8.1h.3c-.1 1.8.2 4.6.9 6.4h26.4c-2.8-4.4-3.1-10.1-3.1-15.2zm-24.9-9c-.4 7.1-4.9 10.6-10.8 10.6-4.7 0-8.1-3.2-8.1-6.3 0-4.6 3.1-6 8.8-7.3 3.5-.8 7-1.7 10.1-3.3z"/><path d="m3727.5 781.9h-.3c-3.9-5.7-10.8-9.1-18.5-9.1-22.8 0-28.9 19.4-28.9 35.3 0 17 9.3 35.9 28.5 35.9 12.7 0 16.6-4.8 19.9-9.1h.3v7.5h24.9v-93.4h-25.9zm-10.4 43.3c-9.3 0-11.4-8.7-11.4-16.8 0-7.9 2.1-16.7 11.4-16.7s11.4 8.7 11.4 16.7-2.1 16.8-11.4 16.8z"/><path d="m3802.6 827.5c-8.1 0-12.5-5.5-13.2-13.2h49.6c0-26.4-11.6-41.4-38.5-41.4-21.4 0-35.8 16.1-35.8 35.8 0 22.6 16.3 35.4 38 35.4 15.4 0 29.7-6.8 34.9-21.4h-24.2c-2.1 3.2-6.6 4.8-10.8 4.8zm.2-38.1c6.7 0 11.4 5.1 11.4 11.4h-24.7c1.2-7.4 5.6-11.4 13.3-11.4z"/><path d="m3720.9 118v15h-29.5v19.9h-29.5v24.8.1h-.1-29.5v29.7h-29.5v34.6h-29.5v39.6h-29.5v257.2h29.5v39.6h29.5v34.5l29.5.1v29.7h29.6v24.8h29.5v19.9h29.5v15h118.1v-163.7h-88.6v-19.8h-29.5v-19.8h-29.5v-19.7h147.6v-138.4h-147.6v-19.8h29.5v-19.8h29.5v-19.8h88.6v-163.7z"/><path d="m3374.2 0v499.2 19.8h-29.5v19.8h-73.8v-19.8h-29.5v-39.6h-29.5v-138.3h29.5v-39.6h29.5v-19.8h73.8v-163.7h-103.3v15h-29.5v19.9h-29.6v24.8l-29.5.1v29.7h-29.5v34.6h-29.5v39.6h-29.6v257.1h29.6v39.6h29.5v34.5l29.5.1v29.7h29.5v24.8h29.6v19.9h29.5v15h132.8v-15h29.5l.1-19.9h29.5v-24.8h29.4v-29.7l29.5-.1v-34.5h29.5v-578.4z"/><path d="m3012.6 242.1-.1-34.6h-29.5v-29.7l-29.5-.1v-24.8h-29.5v-19.9h-29.5v-15h-132.9v15h-29.5v19.9h-29.5v24.9h-29.5v29.7h-29.6v34.6h-29.5v39.6h-29.5v257.2h29.5v39.6h29.5v34.5l29.6.1v29.7h29.5v24.8h29.5v19.9h29.5v15h103.4v-163.7h-73.9v-19.8h-29.5v-39.6h-29.5v-138.3h29.5v-39.6h29.5v-19.8h73.9v19.8h29.5v401h147.6v-460.4z"/><path d="m2444.3 118v15h-29.5v19.9h-29.5v24.9h-29.5v29.7h-29.5v34.6h-29.6v39.6h-29.5v257.1h29.5v39.6l29.6-.1v.1 34.5l29.5.1v29.7h29.5v24.8h29.5v19.9h29.5v15h118.1v-163.6h-88.6v-19.8h-29.5v-39.6h-29.5v-138.3h29.5v-39.6h29.5v-19.8h88.6v-163.7z"/><g fill="#eec21a"><path d="m1802.3 207.5v34.6l-29.5.1v39.5h-29.5v257.2h29.5v39.6h29.5v34.5h29.6v.1 29.7h29.5v24.8h29.5v19.9h29.5v15h147.6v-15h29.5l.1-19.9h29.5v-24.8h29.5v-29.8l29.5-.1v-34.5h29.5v-39.6h29.5v-257.1h-29.5v-39.5l-29.5-.1v-34.6h-29.5v-29.7h-29.6v-24.8h-29.5l-.1-20h-29.5v-15h-147.6v15h-29.5v19.9l-29.5.1v24.8h-29.5v29.7m265.6 271.9h-29.5v39.6h-29.5v19.8h-88.6v-19.8h-29.5v-39.6h-29.5v-138.3h29.5v-39.6h29.5v-19.7h88.6v19.7h29.5v39.6h29.5z"/><path d="m1637.1 444.6h39.7v-30.7h.1 29.5v-38.5h14.8v-133.2l-14.8-.1v-34.6h-29.6v-29.7h-29.5v-24.8l-29.5-.1v-19.9h-29.5v-15h-103.3l-.1 15h-29.5v19.9l-29.5.1v24.8h-29.5v29.7h-29.5v34.6l-29.5.1v460.2h147.5v-420.7l88.6.1v79h-29.5v19.8h-29.5v121.5l87.1 200.3h147.6z"/><path d="m1241.4 538.8v-19.8h-29.5v-39.6h-29.5l-.1-217.5h86.9v-54.4l-29.5-.1v-29.7h-29.5v-24.8h-29.5v-89.2h-147.5v89.2h-29.5l-.1 24.9h-29.5v29.7h-29.5v54.4h90.3v276.9h29.5v39.6h29.5v34.5l29.5.1v29.7h29.4v24.8h29.5l.1 19.9h29.5v15h103.4v-163.6z"/><path d="m892.9 242.1v-34.6h-29.5v-29.7l-29.5-.1v-24.8h-29.5v-19.9h-29.5l-.1-15h-29.5-118.1v15h-29.5v19.9l-29.5.1v24.8h-29.5v29.7h-29.5v34.6l-29.6.1v138.5h29.5l.1-.1v39.5h29.5v39.6h206.6v19.7h29.5l.1 39.6h-29.6v19.7h-88.5l-.1-19.7h-29.5v-19.8h-147.6v79.2h29.5l.1 34.5 29.5.1v29.7h29.5v24.8h29.5v19.9h29.5v15h147.6l.1-15h29.5v-19.9h29.5v-24.8h29.5v-29.8h29.5l.1-34.6h29.5v-138.5h-29.5l-.1-39.5h-29.5v-39.5h-206.6l-.1-19.7h-29.5v-39.6h29.5l.1-19.7 88.5-.1v19.8h29.5l.1 19.8h147.6v-79.2z"/><path d="m428 242.1v-34.6h-29.5l-.1-29.7h-29.4v-24.9h-29.5v-19.9h-29.5v-15h-132.9v15h-29.5v19.9l-29.5.1v24.8h-29.5v29.7h-29.6v34.6l-29.5.1v39.5h-29.5v257.1h29.5v39.6h29.5v34.5h29.6v.1 29.7h29.5v24.8h29.5v19.9h29.5v15h103.4v-163.6h-73.9v-19.8h-29.5v-39.6h-29.5v-138.3h29.5v-39.6h29.5l.1-19.7 73.8-.1v19.8h29.5v401h147.5v-460.4z"/></g></svg>