<?xml version="1.0" encoding="UTF-8" standalone="no"?>
<svg
   enable-background="new 0 0 3840 569.9"
   height="570"
   viewBox="0 0 3840 569.99998"
   width="3840"
   version="1.1"
   id="svg16"
   sodipodi:docname="atari800.svg"
   inkscape:version="1.3.2 (091e20e, 2023-11-25)"
   xmlns:inkscape="http://www.inkscape.org/namespaces/inkscape"
   xmlns:sodipodi="http://sodipodi.sourceforge.net/DTD/sodipodi-0.dtd"
   xmlns="http://www.w3.org/2000/svg"
   xmlns:svg="http://www.w3.org/2000/svg">
  <defs
     id="defs16" />
  <sodipodi:namedview
     id="namedview16"
     pagecolor="#ffffff"
     bordercolor="#000000"
     borderopacity="0.25"
     inkscape:showpageshadow="2"
     inkscape:pageopacity="0.0"
     inkscape:pagecheckerboard="0"
     inkscape:deskcolor="#d1d1d1"
     inkscape:zoom="0.24557292"
     inkscape:cx="1922.0361"
     inkscape:cy="285.04772"
     inkscape:window-width="1312"
     inkscape:window-height="449"
     inkscape:window-x="0"
     inkscape:window-y="39"
     inkscape:window-maximized="0"
     inkscape:current-layer="svg16" />
  <g
     id="g17">
    <path
       d="m480.5 14.8h-420.7c-32.9 0-59.8 26.9-59.8 59.8v420.7c0 32.9 26.9 59.8 59.8 59.8h420.7c32.9 0 59.8-26.9 59.8-59.8v-420.7c-.1-32.9-26.9-59.8-59.8-59.8z"
       fill="#353535"
       id="path1" />
    <g
       fill="#fff"
       id="g4">
      <path
         d="m208.2 117h26.7v62.7c.1 17.5-.4 34.9-1.1 52.3-1.2 25.2-2.8 50.4-6.9 75.3-2.9 17.2-8.8 33.7-16.2 49.4-12 25.3-30.9 46.7-52.1 64.7-19 16.7-41.6 28.9-65.5 37.1-13.5 4.6-27.3 8.2-41.5 10.2 0-17.5 0-35.1 0-52.6 17-2.6 33.3-8.6 48.5-16.6 18-9.5 34.2-22.3 47.9-37.4 14.1-15.6 25.3-33.6 33.9-52.8 10-22 15.4-45.8 19.1-69.7 4.6-30.3 6.5-60.9 7.2-91.6 0-10.2-.1-20.6 0-31z"
         id="path2" />
      <path
         d="m245.6 117c16.4-.1 32.7 0 49.1 0v351.8c-16.3 0-32.7-.1-49 .1-.2-37.4 0-74.8-.1-112.2 0-79.9 0-159.8 0-239.7z"
         id="path3" />
      <path
         d="m305.6 117h26.5c-.3 35.7.9 71.6 5.2 107.1 3.5 27.6 8.4 55.4 19.4 81.1 10.4 24.9 25.4 48 45 66.6 18.7 17.8 41.3 31.5 65.9 39.4 6.9 2.2 13.9 3.9 21 5v52.6c-14-1.9-27.8-5.5-41.2-10.1-15.9-5.5-31.3-12.7-45.5-21.9-10.3-6.6-19.7-14.6-28.8-22.9-14.9-13.7-28.2-29.3-38.2-47-7.8-13.7-13.5-28.6-18-43.8-4.1-15.2-5.8-31-7.4-46.6-3.1-33.8-4.2-67.8-4-101.8.1-19.3.1-38.5.1-57.7z"
         id="path4" />
    </g>
    <g
       fill="#353535"
       id="g9">
      <path
         d="m793.8 37.7c21-26.9 64.5-31.5 90.3-8.9 10.5 8.9 17.9 21.1 21.7 34.3 47.7 164.2 95.7 328.3 143.3 492.5-28.2 0-56.3-.1-84.5 0-13.3-45.3-26.3-90.6-39.4-135.9-54.5-.1-108.9 0-163.3-.1-13.3 45.3-26.5 90.6-39.6 136-28-.1-56 0-84-.1 45.3-156.5 90.7-313.1 136.3-469.7 5.4-16.4 7.4-34.7 19.2-48.1m49.8 100.6c-20 68-39.5 136.2-59.4 204.2 39.6.2 79.1.1 118.7.1-19.8-68.1-39.5-136.2-59.3-204.3z"
         id="path5" />
      <path
         d="m1387.1 41.2c14.7-21.3 43-31.6 68-25 22.9 5.3 40.4 25 46.4 47.2 47.7 164.1 95.5 328.1 143.2 492.2-28.2.2-56.4 0-84.6.1-13.1-45.3-26.1-90.7-39.3-136-54.4 0-108.7-.1-163.1 0-13 45.3-26.4 90.6-39.4 135.9-28 0-55.9 0-83.9 0 45.3-157.5 91.2-314.9 136.8-472.3 4.8-14.1 6.7-29.8 15.9-42.1m-6.9 301.4c39.4.1 78.8 0 118.2 0-19.6-68.3-39.5-136.4-59.1-204.6-19.6 68.2-39.5 136.4-59.1 204.6z"
         id="path6" />
      <path
         d="m986.1 15.4h305.6v82.4c-37.5 0-75 0-112.5 0v457.8c-26.9 0-53.7 0-80.6 0 0-152.6 0-305.2 0-457.8-37.5-.1-75 0-112.5 0 0-27.5-.1-54.9 0-82.4z"
         id="path7" />
      <path
         d="m1734.3 18.7c7.7-2.7 16-3.6 24.2-3.4 32.1.1 64.3 0 96.4 0 54.1 1 105.7 34.6 129.1 83.2 16.2 31.6 17.9 68.4 13.8 103.1-2.8 36.3-18.1 72.6-46 96.7-14.7 13.1-33.1 21.1-48.9 32.8-8.7 6.6-9.1 19.4-4.6 28.6 42.6 65.8 87 130.6 130.5 195.9-31.8.1-63.7-.1-95.5.1-41.7-62.6-82.9-125.5-124.4-188.2-12.2-17.8-15.5-41.5-8.2-61.8 5.7-15.6 19.4-27 34.6-32.9 29-11.1 57.6-28.5 73.7-55.9 12.2-20.6 11.6-46 6.1-68.5-6.4-29.2-34.9-52.2-65-51.2-20.8.1-41.6-.1-62.4.1-9.4-.2-18.3 8-18.1 17.5-.1 147 0 293.9 0 440.9-27.1-.1-54.1 0-81.2 0-.1-158.2.1-316.4-.1-474.7 0-27.8 19.7-53.9 46-62.3z"
         id="path8" />
      <path
         d="m2071.3 15.4h85.4c0 180.1.1 360.2-.1 540.3-28.4-.1-56.9 0-85.4 0 .1-180.2.1-360.3.1-540.3z"
         id="path9" />
    </g>
    <g
       fill="#9f3a35"
       id="g16">
      <path
         d="m2478.8 198.5c29 0 52.6-23.5 52.6-52.6s-23.5-52.6-52.6-52.6c-29 0-52.6 23.5-52.6 52.6s23.5 52.6 52.6 52.6zm0-70.4c9.8 0 17.8 8 17.8 17.8s-8 17.8-17.8 17.8-17.8-8-17.8-17.8 7.9-17.8 17.8-17.8z"
         id="path10" />
      <path
         d="m2614.7 207.4c8.1-18.5 12.3-38.5 12.3-59.1 0-81.8-66.5-148.3-148.2-148.3s-148.3 66.5-148.3 148.3c0 20.6 4.2 40.6 12.3 59.1-44.9 39-70.9 95.1-70.9 155.7 0 114 92.8 206.8 206.8 206.8s206.8-92.8 206.8-206.8c.1-60.6-25.9-116.8-70.8-155.7zm-135.9 327.7c-95 0-172.1-77-172.1-172.1 0-61.9 32.8-115.9 81.8-146.3-14.5-19.1-23.2-42.8-23.2-68.6 0-62.7 50.8-113.5 113.5-113.5s113.5 50.8 113.5 113.5c0 25.8-8.7 49.5-23.2 68.6 49 30.3 81.8 84.4 81.8 146.3-.1 95.1-77.1 172.1-172.1 172.1z"
         id="path11" />
      <path
         d="m2478.8 263.2c-56.8 0-102.8 46-102.8 102.8s46 102.8 102.8 102.8 102.8-46 102.8-102.8-46.1-102.8-102.8-102.8zm0 170.7c-37.5 0-68-30.5-68-68s30.5-68 68-68 68 30.5 68 68-30.5 68-68 68z"
         id="path12" />
      <path
         d="m2974.9 0c-157.1 0-285 127.8-285 285 0 157.1 127.8 285 285 285 157.1 0 284.9-127.8 284.9-285 .1-157.2-127.8-285-284.9-285zm0 535.2c-138 0-250.2-112.3-250.2-250.2 0-138 112.3-250.2 250.2-250.2s250.2 112.2 250.2 250.2c0 137.9-112.2 250.2-250.2 250.2z"
         id="path13" />
      <path
         d="m2974.9 101c-101.4 0-184 82.5-184 184 0 101.4 82.5 184 184 184 101.4 0 184-82.5 184-184s-82.6-184-184-184zm0 333.2c-82.3 0-149.3-67-149.3-149.2 0-82.3 67-149.2 149.3-149.2s149.2 67 149.2 149.2c0 82.3-66.9 149.2-149.2 149.2z"
         id="path14" />
      <path
         d="m3555.1 0c-157.1 0-285 127.8-285 285 0 157.1 127.8 285 285 285 157.1 0 284.9-127.8 284.9-285s-127.8-285-284.9-285zm0 535.2c-138 0-250.2-112.3-250.2-250.2 0-138 112.3-250.2 250.2-250.2s250.2 112.2 250.2 250.2c0 137.9-112.3 250.2-250.2 250.2z"
         id="path15" />
      <path
         d="m3555.1 101c-101.4 0-184 82.5-184 184 0 101.4 82.5 184 184 184 101.4 0 184-82.5 184-184-.1-101.5-82.6-184-184-184zm0 333.2c-82.3 0-149.3-67-149.3-149.2 0-82.3 67-149.2 149.3-149.2s149.2 67 149.2 149.2c0 82.3-67 149.2-149.2 149.2z"
         id="path16" />
    </g>
  </g>
</svg>
