<svg height="548.57141" viewBox="0 0 3840 548.57141" width="3840" xmlns="http://www.w3.org/2000/svg"><g transform="matrix(4.2197802 0 0 4.2197802 -7447.912053 -3882.197784)"><path d="m1855 1000h-10v-10h-30v-40-20h-10v-10h-30v10h-10v20 70 20h10v10h20 10 40v-10h10v-20z" fill="#120f26"/><path d="m1845 1020h-40v-70h-30v90h20 10 40z" fill="#e22b17"/><path d="m1845 1000h-40v-70h-30v90h20 10 40z" fill="#ffda40"/></g><g transform="matrix(4.2197802 0 0 4.2197802 -485.274554 -3882.197784)"><path d="m245 1040h10v10h30v-10h10v-20-60-20h-10v-10h-10v-10h-60v10h-10v10h-10v20 60 20h10v10h30v-10z" fill="#120f26"/><path d="m275 960v-10h-60v10h-10v80h30v-20h20v20h30v-80zm-40 40v-30h20v30z" fill="#e22b17"/><path d="m275 940v-10h-60v10h-10v80h30v-20h20v20h30v-80zm-40 40v-30h20v30z" fill="#ffda40"/></g><g transform="matrix(4.2197802 0 0 4.2197802 -2974.944872 -4726.153824)"><path d="m875 1160v10 20 20 20h10v10h10v10h60v-10h10v-10h10v-20-10-20-20-20h-10v-10h-10v-10h-60v10h-10v10h-10z" fill="#120f26"/><path d="m965 1160h-10v-10h-60v10h-10v30h10v10h20v10h20v10h-20v-10h-30v20h10v10h60v-10h10v-30h-10v-10h-20v-10h-20v-10h20v10h30z" fill="#e22b17"/><path d="m965 1140h-10v-10h-60v10h-10v30h10v10h20v10h20v10h-20v-10h-30v20h10v10h60v-10h10v-30h-10v-10h-20v-10h-20v-10h20v10h30z" fill="#ffda40"/></g><g transform="matrix(4.2197802 0 0 4.2197802 -3228.131684 -4726.153824)"><path d="m1045 1240h10v10h30v-10h10v-20-40h10v-10h10v-20-20h-10v-10h-70v10h-10v20 20h10v10h10v40z" fill="#120f26"/><path d="m1105 1170v-20h-70v20h20v70h30v-70z" fill="#e22b17"/><path d="m1105 1150v-20h-70v20h20v70h30v-70z" fill="#ffda40"/></g><g transform="matrix(4.2197802 0 0 4.2197802 -232.087911 -4726.153824)"><path d="m525 1140h-10v-10h-10v-10h-40-10-20v10h-10v20 70 20h10v10h30v-10h10v-10h20v-10h10 10v-10h10v-20-30z" fill="#120f26"/><path d="m465 1220h30v-10h20v-50h-10v-10h-40-10-20v90h30zm20-50v20h-10v10h-10v-30z" fill="#e22b17"/><path d="m465 1200h30v-10h20v-50h-10v-10h-40-10-20v90h30zm20-50v20h-10v10h-10v-30z" fill="#ffda40"/></g><g transform="matrix(4.2197802 0 0 4.2197802 -5506.813161 -3882.197784)"><path d="m1765 1040h10v10h20 10 40v-10h10v-20-20h-10v-10h-30v-40-20h-10v-10h-30v10h-10v20 70z" fill="#120f26"/><path d="m1805 1020v-70h-30v90h20 10 40v-20z" fill="#e22b17"/><path d="m1805 1000v-70h-30v90h20 10 40v-20z" fill="#ffda40"/></g><g transform="matrix(4.2197802 0 0 4.2197802 1455.824169 -3882.197784)"><path d="m285 930h-10v-10h-60v10h-10v10h-10v20 60 20h10v10h30v-10h10 10v10h30v-10h10v-20-60-20h-10z" fill="#120f26"/><path d="m275 960v-10h-60v10h-10v80h30v-20h20v20h30v-80zm-40 40v-30h20v30z" fill="#e22b17"/><path d="m275 940v-10h-60v10h-10v80h30v-20h20v20h30v-80zm-40 40v-30h20v30z" fill="#ffda40"/></g><g transform="matrix(4.2197802 0 0 4.2197802 -5084.835141 -4726.153824)"><path d="m1845 1190h10v10h10v10 10 20h10v10h30v-10h10v-20-10-10h10v-10h10v-10h10v-20-10-20h-10v-10h-30v10h-10v20h-10v-20h-10v-10h-30v10h-10v20 10 20h10z" fill="#120f26"/><path d="m1915 1200v-10h10v-10h10v-30h-30v30h-20-10v-30h-30v30h10v10h10v10h10v40h30v-40z" fill="#e22b17"/><path d="m1915 1180v-10h10v-10h10v-30h-30v30h-20-10v-30h-30v30h10v10h10v10h10v40h30v-40z" fill="#ffda40"/></g><g transform="matrix(4.2197802 0 0 4.2197802 -274.285713 -3882.197784)"><path d="m885 950v-20h-10v-10h-40-10-20v10h-10v20 70 20h10v10h20 10 40v-10h10v-20-20h-10v-10-10-10h10z" fill="#120f26"/><path d="m835 1040h40v-20h-40v-10h30v-20h-30v-20h40v-20h-40-10-20v90h20z" fill="#e22b17"/><path d="m835 1020h40v-20h-40v-10h30v-20h-30v-20h40v-20h-40-10-20v90h20z" fill="#ffda40"/></g><g transform="matrix(4.2197802 0 0 4.2197802 696.263733 -3882.197784)"><path d="m735 1040v-10h10v-20-50-20h-10v-10h-10v-10h-40-20-10v10h-10v20 70 20h10v10h10 20 30v-10h10z" fill="#120f26"/><path d="m725 960v-10h-40-20-10v90h10 20 30v-10h20v-70zm-40 10h20v40h-10v10h-10z" fill="#e22b17"/><path d="m725 940v-10h-40-20-10v90h10 20 30v-10h20v-70zm-40 10h20v40h-10v10h-10z" fill="#ffda40"/></g></svg>