<?xml version="1.0" encoding="UTF-8" standalone="no"?>
<svg
   height="548.00006"
   viewBox="0 0 3840 548.00006"
   width="3840"
   version="1.1"
   id="svg30"
   sodipodi:docname="auto-lastplayed.svg"
   inkscape:version="1.3.2 (091e20e, 2023-11-25)"
   xmlns:inkscape="http://www.inkscape.org/namespaces/inkscape"
   xmlns:sodipodi="http://sodipodi.sourceforge.net/DTD/sodipodi-0.dtd"
   xmlns="http://www.w3.org/2000/svg"
   xmlns:svg="http://www.w3.org/2000/svg">
  <defs
     id="defs30" />
  <sodipodi:namedview
     id="namedview30"
     pagecolor="#ffffff"
     bordercolor="#000000"
     borderopacity="0.25"
     inkscape:showpageshadow="2"
     inkscape:pageopacity="0.0"
     inkscape:pagecheckerboard="0"
     inkscape:deskcolor="#d1d1d1"
     inkscape:zoom="0.24557292"
     inkscape:cx="1922.0361"
     inkscape:cy="272.83139"
     inkscape:window-width="1312"
     inkscape:window-height="449"
     inkscape:window-x="0"
     inkscape:window-y="23"
     inkscape:window-maximized="0"
     inkscape:current-layer="svg30" />
  <g
     id="g31"
     transform="matrix(1,0,0,0.99895834,4.7e-5,1.5983333e-5)">
    <g
       transform="matrix(4.2197802,0,0,4.2197802,-7447.9121,-3882.1978)"
       id="g3">
      <path
         d="m 1855,1000 h -10 v -10 h -30 v -40 -20 h -10 v -10 h -30 v 10 h -10 v 20 70 20 h 10 v 10 h 20 10 40 v -10 h 10 v -20 z"
         fill="#120f26"
         id="path1" />
      <path
         d="m 1845,1020 h -40 v -70 h -30 v 90 h 20 10 40 z"
         fill="#e22b17"
         id="path2" />
      <path
         d="m 1845,1000 h -40 v -70 h -30 v 90 h 20 10 40 z"
         fill="#ffda40"
         id="path3" />
    </g>
    <g
       transform="matrix(4.2197802,0,0,4.2197802,-485.27455,-3882.1978)"
       id="g6">
      <path
         d="m 245,1040 h 10 v 10 h 30 v -10 h 10 v -20 -60 -20 h -10 v -10 h -10 v -10 h -60 v 10 h -10 v 10 h -10 v 20 60 20 h 10 v 10 h 30 v -10 z"
         fill="#120f26"
         id="path4" />
      <path
         d="m 275,960 v -10 h -60 v 10 h -10 v 80 h 30 v -20 h 20 v 20 h 30 v -80 z m -40,40 v -30 h 20 v 30 z"
         fill="#e22b17"
         id="path5" />
      <path
         d="m 275,940 v -10 h -60 v 10 h -10 v 80 h 30 v -20 h 20 v 20 h 30 v -80 z m -40,40 v -30 h 20 v 30 z"
         fill="#ffda40"
         id="path6" />
    </g>
    <g
       transform="matrix(4.2197802,0,0,4.2197802,-2974.9449,-4726.1538)"
       id="g9">
      <path
         d="m 875,1160 v 10 20 20 20 h 10 v 10 h 10 v 10 h 60 v -10 h 10 v -10 h 10 v -20 -10 -20 -20 -20 h -10 v -10 h -10 v -10 h -60 v 10 h -10 v 10 h -10 z"
         fill="#120f26"
         id="path7" />
      <path
         d="m 965,1160 h -10 v -10 h -60 v 10 h -10 v 30 h 10 v 10 h 20 v 10 h 20 v 10 h -20 v -10 h -30 v 20 h 10 v 10 h 60 v -10 h 10 v -30 h -10 v -10 h -20 v -10 h -20 v -10 h 20 v 10 h 30 z"
         fill="#e22b17"
         id="path8" />
      <path
         d="m 965,1140 h -10 v -10 h -60 v 10 h -10 v 30 h 10 v 10 h 20 v 10 h 20 v 10 h -20 v -10 h -30 v 20 h 10 v 10 h 60 v -10 h 10 v -30 h -10 v -10 h -20 v -10 h -20 v -10 h 20 v 10 h 30 z"
         fill="#ffda40"
         id="path9" />
    </g>
    <g
       transform="matrix(4.2197802,0,0,4.2197802,-3228.1317,-4726.1538)"
       id="g12">
      <path
         d="m 1045,1240 h 10 v 10 h 30 v -10 h 10 v -20 -40 h 10 v -10 h 10 v -20 -20 h -10 v -10 h -70 v 10 h -10 v 20 20 h 10 v 10 h 10 v 40 z"
         fill="#120f26"
         id="path10" />
      <path
         d="m 1105,1170 v -20 h -70 v 20 h 20 v 70 h 30 v -70 z"
         fill="#e22b17"
         id="path11" />
      <path
         d="m 1105,1150 v -20 h -70 v 20 h 20 v 70 h 30 v -70 z"
         fill="#ffda40"
         id="path12" />
    </g>
    <g
       transform="matrix(4.2197802,0,0,4.2197802,-232.08791,-4726.1538)"
       id="g15">
      <path
         d="m 525,1140 h -10 v -10 h -10 v -10 h -40 -10 -20 v 10 h -10 v 20 70 20 h 10 v 10 h 30 v -10 h 10 v -10 h 20 v -10 h 10 10 v -10 h 10 v -20 -30 z"
         fill="#120f26"
         id="path13" />
      <path
         d="m 465,1220 h 30 v -10 h 20 v -50 h -10 v -10 h -40 -10 -20 v 90 h 30 z m 20,-50 v 20 h -10 v 10 h -10 v -30 z"
         fill="#e22b17"
         id="path14" />
      <path
         d="m 465,1200 h 30 v -10 h 20 v -50 h -10 v -10 h -40 -10 -20 v 90 h 30 z m 20,-50 v 20 h -10 v 10 h -10 v -30 z"
         fill="#ffda40"
         id="path15" />
    </g>
    <g
       transform="matrix(4.2197802,0,0,4.2197802,-5506.8132,-3882.1978)"
       id="g18">
      <path
         d="m 1765,1040 h 10 v 10 h 20 10 40 v -10 h 10 v -20 -20 h -10 v -10 h -30 v -40 -20 h -10 v -10 h -30 v 10 h -10 v 20 70 z"
         fill="#120f26"
         id="path16" />
      <path
         d="m 1805,1020 v -70 h -30 v 90 h 20 10 40 v -20 z"
         fill="#e22b17"
         id="path17" />
      <path
         d="m 1805,1000 v -70 h -30 v 90 h 20 10 40 v -20 z"
         fill="#ffda40"
         id="path18" />
    </g>
    <g
       transform="matrix(4.2197802,0,0,4.2197802,1455.8242,-3882.1978)"
       id="g21">
      <path
         d="m 285,930 h -10 v -10 h -60 v 10 h -10 v 10 h -10 v 20 60 20 h 10 v 10 h 30 v -10 h 10 10 v 10 h 30 v -10 h 10 v -20 -60 -20 h -10 z"
         fill="#120f26"
         id="path19" />
      <path
         d="m 275,960 v -10 h -60 v 10 h -10 v 80 h 30 v -20 h 20 v 20 h 30 v -80 z m -40,40 v -30 h 20 v 30 z"
         fill="#e22b17"
         id="path20" />
      <path
         d="m 275,940 v -10 h -60 v 10 h -10 v 80 h 30 v -20 h 20 v 20 h 30 v -80 z m -40,40 v -30 h 20 v 30 z"
         fill="#ffda40"
         id="path21" />
    </g>
    <g
       transform="matrix(4.2197802,0,0,4.2197802,-5084.8351,-4726.1538)"
       id="g24">
      <path
         d="m 1845,1190 h 10 v 10 h 10 v 10 10 20 h 10 v 10 h 30 v -10 h 10 v -20 -10 -10 h 10 v -10 h 10 v -10 h 10 v -20 -10 -20 h -10 v -10 h -30 v 10 h -10 v 20 h -10 v -20 h -10 v -10 h -30 v 10 h -10 v 20 10 20 h 10 z"
         fill="#120f26"
         id="path22" />
      <path
         d="m 1915,1200 v -10 h 10 v -10 h 10 v -30 h -30 v 30 h -20 -10 v -30 h -30 v 30 h 10 v 10 h 10 v 10 h 10 v 40 h 30 v -40 z"
         fill="#e22b17"
         id="path23" />
      <path
         d="m 1915,1180 v -10 h 10 v -10 h 10 v -30 h -30 v 30 h -20 -10 v -30 h -30 v 30 h 10 v 10 h 10 v 10 h 10 v 40 h 30 v -40 z"
         fill="#ffda40"
         id="path24" />
    </g>
    <g
       transform="matrix(4.2197802,0,0,4.2197802,-274.28571,-3882.1978)"
       id="g27">
      <path
         d="m 885,950 v -20 h -10 v -10 h -40 -10 -20 v 10 h -10 v 20 70 20 h 10 v 10 h 20 10 40 v -10 h 10 v -20 -20 h -10 v -10 -10 -10 h 10 z"
         fill="#120f26"
         id="path25" />
      <path
         d="m 835,1040 h 40 v -20 h -40 v -10 h 30 v -20 h -30 v -20 h 40 v -20 h -40 -10 -20 v 90 h 20 z"
         fill="#e22b17"
         id="path26" />
      <path
         d="m 835,1020 h 40 v -20 h -40 v -10 h 30 v -20 h -30 v -20 h 40 v -20 h -40 -10 -20 v 90 h 20 z"
         fill="#ffda40"
         id="path27" />
    </g>
    <g
       transform="matrix(4.2197802,0,0,4.2197802,696.26373,-3882.1978)"
       id="g30">
      <path
         d="m 735,1040 v -10 h 10 v -20 -50 -20 h -10 v -10 h -10 v -10 h -40 -20 -10 v 10 h -10 v 20 70 20 h 10 v 10 h 10 20 30 v -10 h 10 z"
         fill="#120f26"
         id="path28" />
      <path
         d="m 725,960 v -10 h -40 -20 -10 v 90 h 10 20 30 v -10 h 20 v -70 z m -40,10 h 20 v 40 h -10 v 10 h -10 z"
         fill="#e22b17"
         id="path29" />
      <path
         d="m 725,940 v -10 h -40 -20 -10 v 90 h 10 20 30 v -10 h 20 v -70 z m -40,10 h 20 v 40 h -10 v 10 h -10 z"
         fill="#ffda40"
         id="path30" />
    </g>
  </g>
</svg>
