<?xml version="1.0" encoding="UTF-8" standalone="no"?>
<svg
   enable-background="new 0 0 3839 665.43"
   height="666"
   viewBox="0 0 3840 666.00001"
   width="3840"
   version="1.1"
   id="svg27"
   sodipodi:docname="auto-favorites.svg"
   inkscape:version="1.3.2 (091e20e, 2023-11-25)"
   xmlns:inkscape="http://www.inkscape.org/namespaces/inkscape"
   xmlns:sodipodi="http://sodipodi.sourceforge.net/DTD/sodipodi-0.dtd"
   xmlns="http://www.w3.org/2000/svg"
   xmlns:svg="http://www.w3.org/2000/svg">
  <defs
     id="defs27" />
  <sodipodi:namedview
     id="namedview27"
     pagecolor="#ffffff"
     bordercolor="#000000"
     borderopacity="0.25"
     inkscape:showpageshadow="2"
     inkscape:pageopacity="0.0"
     inkscape:pagecheckerboard="0"
     inkscape:deskcolor="#d1d1d1"
     inkscape:zoom="0.24557292"
     inkscape:cx="1922.0361"
     inkscape:cy="333.91304"
     inkscape:window-width="1312"
     inkscape:window-height="449"
     inkscape:window-x="0"
     inkscape:window-y="23"
     inkscape:window-maximized="0"
     inkscape:current-layer="svg27" />
  <g
     id="g28"
     transform="scale(1,1.0005959)">
    <g
       transform="scale(1.0002605)"
       id="g27">
      <path
         d="m 3429.51,614.24 v 51.19 h 307.12 v -51.19 h 51.18 V 563.05 H 3839 V 460.68 409.49 307.12 204.75 102.37 h -51.19 V 51.19 h -51.18 V 0 h -307.12 v 51.19 h -51.19 v 51.18 h -51.19 v 102.38 51.18 102.38 102.37 102.37 h 51.19 v 51.19 z"
         fill="#120f26"
         id="path1" />
      <path
         d="m 3736.63,614.24 v -51.19 h 51.18 V 409.49 h -51.18 v -51.18 h -102.38 v -51.19 h -102.37 v -51.19 h 102.37 v 51.19 h 153.56 V 204.75 h -51.18 v -51.19 h -307.12 v 51.19 h -51.19 v 153.56 h 51.19 v 51.18 h 102.37 v 51.19 h 102.37 v 51.19 h -102.37 v -51.19 h -153.56 v 102.37 h 51.19 v 51.19 z"
         fill="#e22b17"
         id="path2" />
      <path
         d="m 3736.63,511.87 v -51.19 h 51.18 V 307.12 h -51.18 v -51.19 h -102.38 v -51.18 h -102.37 v -51.19 h 102.37 v 51.19 h 153.56 V 102.37 h -51.18 V 51.19 h -307.12 v 51.18 h -51.19 v 153.56 h 51.19 v 51.19 h 102.37 v 51.19 h 102.37 v 51.18 h -102.37 v -51.18 h -153.56 v 102.37 h 51.19 v 51.19 z"
         fill="#ffda40"
         id="path3" />
      <path
         d="m 2968.83,665.43 h 102.37 51.19 204.74 v -51.19 h 51.19 V 511.87 409.49 h -51.19 v -51.18 -51.19 -51.19 h 51.19 V 153.56 51.19 h -51.19 V 0 h -204.74 -51.19 -102.37 v 51.19 h -51.19 v 102.37 358.31 102.37 h 51.19 z"
         fill="#120f26"
         id="path4" />
      <path
         d="M 3327.13,255.93 V 153.56 h -204.74 -51.19 -102.37 v 460.68 h 102.37 51.19 204.74 V 511.87 h -204.74 v -51.19 h 153.56 V 358.31 H 3122.39 V 255.93 Z"
         fill="#e22b17"
         id="path5" />
      <path
         d="M 3327.13,153.56 V 51.19 h -204.74 -51.19 -102.37 v 460.68 h 102.37 51.19 204.74 V 409.49 h -204.74 v -51.18 h 153.56 V 255.93 H 3122.39 V 153.56 Z"
         fill="#ffda40"
         id="path6" />
      <path
         d="m 2610.52,307.12 v 204.75 102.37 h 51.19 v 51.19 h 153.56 v -51.19 h 51.18 V 511.87 307.12 h 51.19 v -51.19 h 51.19 V 153.56 51.19 h -51.19 V 0 h -358.31 v 51.19 h -51.18 v 102.37 102.37 h 51.18 v 51.19 z"
         fill="#120f26"
         id="path7" />
      <path
         d="M 2815.27,614.24 V 255.93 h 102.37 V 153.56 h -358.31 v 102.37 h 102.38 v 358.31 z"
         fill="#e22b17"
         id="path8" />
      <path
         d="M 2815.27,511.87 V 153.56 h 102.37 V 51.19 h -358.31 v 102.37 h 102.38 v 358.31 z"
         fill="#ffda40"
         id="path9" />
      <path
         d="m 2354.59,665.43 h 153.56 v -51.19 h 51.18 V 511.87 153.56 51.19 h -51.18 V 0 h -153.56 v 51.19 h -51.19 v 102.37 358.31 102.37 h 51.19 z"
         fill="#120f26"
         id="path10" />
      <path
         d="m 2354.59,153.56 h 153.56 v 460.68 h -153.56 z"
         fill="#e22b17"
         id="path11" />
      <path
         d="m 2354.59,51.19 h 153.56 v 460.68 h -153.56 z"
         fill="#ffda40"
         id="path12" />
      <path
         d="m 2047.47,665.43 v -51.19 h 51.18 51.19 v 51.19 h 153.56 v -51.19 h 51.19 V 511.87 460.68 358.31 255.93 204.75 102.37 H 2303.4 V 51.19 h -51.19 V 0 h -204.74 -51.19 -102.37 v 51.19 h -51.19 v 102.37 358.31 102.37 h 51.19 v 51.19 z"
         fill="#120f26"
         id="path13" />
      <path
         d="m 2047.47,460.68 h 102.37 v 51.19 102.37 H 2303.4 V 460.68 h -51.19 v -51.19 h -51.19 V 358.3 h 102.37 V 204.75 h -51.19 v -51.19 h -204.75 -51.19 -102.37 v 460.68 h 153.56 V 460.68 Z m 102.37,-204.75 v 51.19 h -51.19 v 51.19 h -51.19 V 255.93 Z"
         fill="#e22b17"
         id="path14" />
      <path
         d="m 2047.47,358.31 h 102.37 V 409.5 511.87 H 2303.4 V 358.31 h -51.19 v -51.19 h -51.19 v -51.19 h 102.37 V 102.37 H 2252.2 V 51.19 h -204.75 -51.19 -102.37 v 460.68 h 153.56 V 358.31 Z m 102.37,-204.75 v 51.19 h -51.19 v 51.19 h -51.19 V 153.56 Z"
         fill="#ffda40"
         id="path15" />
      <path
         d="m 1791.53,665.43 v -51.19 h 51.19 v -51.19 h 51.19 V 460.68 204.75 102.37 h -51.19 V 51.19 h -51.19 V 0 h -307.12 v 51.19 h -51.18 v 51.18 h -51.19 v 102.38 255.93 102.37 h 51.19 v 51.19 h 51.18 v 51.19 z"
         fill="#120f26"
         id="path16" />
      <path
         d="m 1791.53,614.24 v -51.19 h 51.19 v -358.3 h -51.19 v -51.19 h -307.12 v 51.19 h -51.19 v 358.31 h 51.19 v 51.19 h 307.12 z M 1586.79,511.87 V 255.93 h 102.37 v 255.93 h -102.37 z"
         fill="#e22b17"
         id="path17" />
      <path
         d="m 1791.53,511.87 v -51.19 h 51.19 V 102.37 h -51.19 V 51.19 h -307.12 v 51.19 h -51.19 v 358.31 h 51.19 v 51.19 h 307.12 z M 1586.79,409.49 V 153.56 h 102.37 v 255.93 z"
         fill="#ffda40"
         id="path18" />
      <path
         d="M 460.68,153.56 V 51.19 H 409.49 V 0 H 204.75 153.56 51.19 V 51.19 H 0 v 102.37 358.31 102.37 h 51.19 v 51.19 h 153.56 v -51.19 h 51.18 V 511.87 h 102.38 v -51.19 h 51.18 V 358.31 307.12 255.93 h 51.19 z"
         fill="#120f26"
         id="path19" />
      <path
         d="M 409.49,255.93 V 153.56 H 204.75 153.56 51.19 V 614.24 H 204.75 V 460.68 H 358.31 V 358.31 H 204.75 V 255.93 Z"
         fill="#e22b17"
         id="path20" />
      <path
         d="M 409.49,153.56 V 51.19 H 204.75 153.56 51.19 V 511.87 H 204.75 V 358.31 H 358.31 V 255.93 H 204.75 V 153.56 Z"
         fill="#ffda40"
         id="path21" />
      <path
         d="m 870.17,665.43 v -51.19 h 51.19 V 511.87 204.75 102.37 H 870.17 V 51.19 H 818.99 V 0 H 511.87 v 51.19 h -51.19 v 51.18 h -51.19 v 102.38 307.12 102.37 h 51.19 v 51.19 h 153.56 v -51.19 h 51.19 51.18 v 51.19 z"
         fill="#120f26"
         id="path22" />
      <path
         d="M 818.99,204.75 V 153.56 H 511.87 v 51.19 H 460.68 V 614.24 H 614.24 V 511.87 H 716.61 V 614.24 H 870.17 V 204.75 Z M 614.24,409.49 V 255.93 h 102.37 v 153.56 z"
         fill="#e22b17"
         id="path23" />
      <path
         d="M 818.99,102.37 V 51.19 H 511.87 v 51.19 H 460.68 V 511.87 H 614.24 V 409.49 H 716.61 V 511.86 H 870.17 V 102.37 Z M 614.24,307.12 V 153.56 h 102.37 v 153.56 z"
         fill="#ffda40"
         id="path24" />
      <path
         d="m 921.36,409.49 h 51.19 v 51.19 51.19 h 51.18 v 51.18 51.19 h 51.19 v 51.19 h 153.56 v -51.19 h 51.19 v -51.19 -51.18 h 51.18 v -51.19 -51.19 h 51.19 v -51.18 -51.19 h 51.19 V 204.75 153.56 51.19 h -51.19 V 0 h -153.56 v 51.19 h -51.19 v 102.37 51.19 h -51.18 V 153.56 51.19 h -51.19 V 0 H 921.36 v 51.19 h -51.19 v 102.37 51.19 102.37 h 51.19 v 51.19 z"
         fill="#120f26"
         id="path25" />
      <path
         d="m 1074.92,511.87 v 102.37 h 153.56 V 511.87 h 51.19 V 409.49 h 51.18 V 307.12 h 51.19 V 153.56 h -153.56 v 153.56 h -51.19 v 102.37 h -51.18 V 307.12 h -51.19 V 153.56 H 921.36 v 153.56 h 51.19 v 102.37 h 51.18 v 102.38 z"
         fill="#e22b17"
         id="path26" />
      <path
         d="m 1074.92,409.49 v 102.38 h 153.56 V 409.49 h 51.19 V 307.12 h 51.18 V 204.75 h 51.19 V 51.19 h -153.56 v 153.56 h -51.19 v 102.37 h -51.18 V 204.75 h -51.19 V 51.19 H 921.36 v 153.56 h 51.19 v 102.37 h 51.18 v 102.37 z"
         fill="#ffda40"
         id="path27" />
    </g>
  </g>
</svg>
