<?xml version="1.0" encoding="UTF-8" standalone="no"?>
<svg
   enable-background="new 0 0 3839 1178.4"
   height="1179"
   viewBox="0 0 3840 1178.9999"
   width="3840"
   version="1.1"
   id="svg14"
   sodipodi:docname="c64.svg"
   inkscape:version="1.3.2 (091e20e, 2023-11-25)"
   xmlns:inkscape="http://www.inkscape.org/namespaces/inkscape"
   xmlns:sodipodi="http://sodipodi.sourceforge.net/DTD/sodipodi-0.dtd"
   xmlns="http://www.w3.org/2000/svg"
   xmlns:svg="http://www.w3.org/2000/svg">
  <defs
     id="defs14" />
  <sodipodi:namedview
     id="namedview14"
     pagecolor="#ffffff"
     bordercolor="#000000"
     borderopacity="0.25"
     inkscape:showpageshadow="2"
     inkscape:pageopacity="0.0"
     inkscape:pagecheckerboard="0"
     inkscape:deskcolor="#d1d1d1"
     inkscape:zoom="0.20033956"
     inkscape:cx="1919.2415"
     inkscape:cy="589"
     inkscape:window-width="1312"
     inkscape:window-height="449"
     inkscape:window-x="0"
     inkscape:window-y="39"
     inkscape:window-maximized="0"
     inkscape:current-layer="svg14" />
  <g
     id="g16">
    <g
       id="g15"
       transform="scale(1,1.0008489)">
      <g
         transform="scale(1.0002605,0.99966692)"
         id="g14">
        <g
           clip-rule="evenodd"
           fill-rule="evenodd"
           id="g5">
          <path
             d="m 0,611.3 h 2247.7 v 58.4 H 0 Z"
             fill="#f20029"
             id="path1" />
          <path
             d="m 0,738.5 h 2247.7 v 58.4 H 0 Z"
             fill="#fd7801"
             id="path2" />
          <path
             d="M 0,865.7 H 2247.7 V 924 H 0 Z"
             fill="#f2f540"
             id="path3" />
          <path
             d="m 0,992.8 h 2247.7 v 58.3 H 0 Z"
             fill="#48cc31"
             id="path4" />
          <path
             d="m 0,1119.9 h 2247.7 v 58.4 H 0 Z"
             fill="#14a3fd"
             id="path5" />
        </g>
        <g
           fill="#002684"
           id="g11">
          <path
             d="m 2918.7,773.2 c 0,-8.3 -0.8,-19.9 -8.3,-25.7 -7.5,-5.8 -19.1,-6.6 -27.4,-7.5 -43.2,-4.2 -88,-4.2 -132,-4.2 -40.7,0 -84.7,0 -124.5,7.5 -9.1,1.7 -17.4,4.1 -24.9,10 -19.1,14.9 -17.4,56.4 -17.4,78 v 21.6 9.1 c 10,-10 19.9,-18.3 32.4,-24.9 46.5,-26.6 139.5,-24.1 191.7,-24.1 56.4,0 125.3,0.8 179.3,18.3 19.9,6.6 36.5,15.8 51.5,30.7 33.2,32.4 34,94.6 34,137.8 0,78.9 -13.3,149.4 -101.3,166.8 -34,6.6 -68.9,9.1 -102.9,10 -49.8,0.8 -98.8,1.7 -148.6,1.7 -69.7,0 -199.9,4.2 -253.1,-44 -38.2,-34 -40.7,-100.4 -42.3,-147.8 -0.8,-36.5 -1.7,-73.9 -1.7,-110.4 0,-66.4 -7.5,-174.3 47.3,-221.5 52.3,-45.7 230.7,-43.2 296.2,-43.2 36.5,0 73,0 109.6,1.7 50.6,1.7 136.1,4.1 174.3,43.2 26.6,27.4 25.7,81.3 25.7,117 z m -48.1,169.4 c -44.8,-6.6 -93,-5 -138.6,-5 -33.2,0 -67.2,-1.7 -100.4,3.3 -32.4,5 -44.8,24.9 -44.8,56.4 0,14.1 3.3,32.4 13.3,43.2 16.6,17.4 110.4,13.3 132,13.3 29.1,0 57.3,-0.8 86.3,-1.7 20.8,-0.8 63.1,1.7 79.7,-14.1 10,-10 11.6,-28.2 11.6,-41.5 -0.1,-30.8 -6.8,-49 -39.1,-53.9 z"
             id="path6" />
          <path
             d="m 3731.9,1068.6 v 102.9 H 3571.7 V 1068.6 H 3130.2 V 857.1 l 328.6,-239 h 273 V 944.2 H 3839 v 124.5 z M 3571.8,746.7 h -34 l -257.2,176 v 21.6 h 291.3 z"
             id="path7" />
          <path
             d="M 3383.3,158.1 H 3312 v 204.5 h 74.4 V 255.7 c 0,-27.9 17.1,-41.9 48.1,-41.9 31,0 38.8,9.3 40.3,35.6 h 69.8 c 0,-69.7 -9.3,-96.1 -83.7,-96.1 -45,0 -60.5,9.3 -77.5,43.4 z m 342.5,164.2 c -71.3,0 -82.1,-6.2 -82.1,-41.9 H 3839 c -3.1,-99.2 -3.1,-122.4 -134.9,-122.4 -111.6,0 -136.5,20.1 -136.5,108.5 0,82.2 32.6,102.3 122.5,103.9 100.8,0 148.8,-4.7 148.8,-71.3 H 3766 c -3,15.5 -9.2,23.2 -40.2,23.2 z m -83.6,-85.2 c 3.1,-21.7 9.3,-29.5 58.9,-29.5 54.3,0 62,3.1 65.1,29.5 z m -2771.1,7.7 h 74.4 C 939.3,175 919.1,158 815.3,158 c -117.8,0 -144.2,18.6 -144.2,105.4 0,86.8 24.8,107 134.9,107 116.3,0 139.5,-15.5 139.5,-88.4 h -74.4 c 0,20.2 -7.7,29.5 -65.1,29.5 -49.6,0 -60.5,-12.4 -60.5,-52.7 0,-38.8 10.8,-38.8 69.8,-38.8 43.4,0 51.1,4.7 55.8,24.8 z m 1728,12.4 c 0,-83.7 -24.8,-100.7 -144.2,-100.7 -128.7,0 -144.1,21.7 -144.1,108.5 0,86.8 21.7,105.4 144.1,105.4 130.2,0 144.2,-21.7 144.2,-113.2 z m -212.3,4.7 c 0,-41.9 9.3,-46.5 63.6,-46.5 60.5,0 71.3,1.5 71.3,46.5 0,41.9 -7.8,49.6 -65.1,49.6 -62.1,0 -69.8,-6.2 -69.8,-49.6 z m 880.2,-4.7 c 0,-83.7 -23.3,-100.7 -142.6,-100.7 -127.1,0 -142.6,20.1 -142.6,107 0,88.4 21.7,107 142.6,107 130.3,-0.1 142.6,-21.8 142.6,-113.3 z m -210.7,4.7 c 0,-41.9 9.3,-46.5 63.5,-46.5 60.5,0 71.3,1.5 71.3,46.5 0,41.9 -7.7,49.6 -65.1,49.6 -61.9,0 -69.7,-6.2 -69.7,-49.6 z m -1780.7,-4.7 c 0,-83.7 -23.3,-100.7 -142.6,-100.7 -128.7,0 -144.2,20.1 -144.2,107 0,88.4 21.7,107 144.2,107 130.2,-0.1 142.6,-21.8 142.6,-113.3 z m -209.3,4.7 c 0,-41.9 9.3,-46.5 62,-46.5 60.5,0 71.3,1.5 71.3,46.5 0,41.9 -7.8,49.6 -65.1,49.6 -60.5,0 -68.2,-6.2 -68.2,-49.6 z M 2858,71.3 v 119.4 c -17,-23.3 -32.5,-35.6 -94.5,-35.6 -99.2,0 -117.8,26.4 -117.8,107 0,82.2 26.4,105.4 122.5,105.4 60.5,0 79.1,-15.5 93,-41.8 v 37.2 h 74.4 V 71.3 Z m -54.3,142.5 c 41.8,0 55.8,6.2 55.8,38.7 0,49.6 -3.1,54.3 -62,54.3 -58.9,0 -74.4,-1.6 -74.4,-43.4 0,-48 18.6,-49.6 80.6,-49.6 z M 1393.3,158.1 h -69.7 V 362.6 H 1398 V 257.2 c 0,-31 15.5,-41.8 57.4,-41.8 38.8,0 49.6,13.9 49.6,52.7 v 94.5 h 76 V 254.1 c 0,-29.5 23.2,-38.7 58.9,-38.7 34.1,0 49.6,9.3 49.6,38.7 v 108.5 h 74.4 V 241.7 c 0,-60.4 -37.2,-88.4 -105.4,-88.4 -58.9,0 -80.6,21.7 -88.4,45 -15.5,-26.4 -37.2,-45 -96.1,-45 -55.8,0 -71.3,18.6 -80.6,52.7 z m 500.6,0 h -69.8 v 204.5 h 74.4 V 257.2 c 0,-31 18.6,-41.8 55.8,-41.8 38.8,0 49.6,12.4 49.6,52.7 v 94.5 h 76 V 254.1 c 0,-29.5 21.7,-38.7 57.4,-38.7 34.1,0 51.1,10.8 51.1,38.7 v 108.5 h 74.4 V 241.7 c 0,-60.4 -37.2,-88.4 -105.4,-88.4 -58.9,0 -79.1,20.1 -88.4,45 -15.5,-26.4 -37.2,-45 -96.1,-45 -54.2,0 -68.2,18.6 -79,52.7 z"
             id="path8" />
          <path
             d="m 334.5,388.8 c -20.4,11.4 -43.8,18 -68.8,18 -77.7,0 -141,-63.2 -141,-141 0,-77.8 63.2,-141 141,-141 25,0 48.4,6.5 68.8,18 V 9 C 312.6,3.1 289.5,0 265.7,0 119,0 0,119 0,265.8 c 0,146.8 119,265.8 265.8,265.8 23.8,0 46.8,-3.2 68.8,-9 z"
             id="path9" />
          <path
             d="M 334.5,149.8 H 446 V 256.2 H 334.5 Z"
             id="path10" />
          <path
             d="M 566.3,149.8 459.9,256.1 h -49 V 149.8 Z"
             id="path11" />
        </g>
        <g
           fill="#f20029"
           id="g13">
          <path
             d="M 334.5,275.5 H 446 V 381.9 H 334.5 Z"
             id="path12" />
          <path
             d="M 566.3,381.8 459.9,275.5 h -49 v 106.3 z"
             id="path13" />
        </g>
      </g>
    </g>
  </g>
</svg>
