<svg enable-background="new 0 0 3839 1272.2" height="1272.5314" viewBox="0 0 3840 1272.5314" width="3840" xmlns="http://www.w3.org/2000/svg"><g transform="scale(1.0002605)"><path d="m2345.7 176.3h50.4v160.2h-50.4z"/><path d="m1448.8 176.3h50.4v159.9h-50.4z"/><path d="m928.8 176.3v45.5 34.7 37.5 42.4h50.3v-42.4h155.3v-37.5h-155.3v-34.7h155.3v-45.5h-155.3z"/><path d="m2250.9 233.7h-122v-57.4h-50.3v57.4 45.6 57.1h50.3v-57.1h122v56.8h50.4v-56.8-45.6-57.4h-50.4z"/><path d="m2843.8 176.3h-145.9-32.2v159.9h32.2v.4h145.9c30.1 0 54.5-21.4 54.5-71.7v-6.9-3-7c-.1-50.3-24.4-71.7-54.5-71.7zm8.2 79.8v.4 7.4c0 17.8-10.7 27-23.8 27h-112.1v-69h112.1c13.2 0 23.8 9.1 23.8 27z"/><path d="m2490.9 176.3h-50.5v114.2 45.6.3h50.5v-.3h155.2v-45.6h-155.2z"/><path d="m1983.4 176.3h-115.6c-34.5 0-62.5 28-62.5 62.5v34.9c0 34.5 28 62.5 62.5 62.5h115.6c34.5 0 62.5-28 62.5-62.5v-1.9h-50.4v.4c0 10.2-8.2 18.4-18.4 18.4h-102.9c-10.2 0-18.4-8.2-18.4-18.4v-31.8c0-10.2 8.2-18.4 18.4-18.4h102.9c10.2 0 18.4 8.2 18.4 18.4v.4h50.4v-1.9c0-34.7-28-62.6-62.5-62.6z"/><path d="m1773.9 254.2v-29.5c0-26.8-21.7-48.5-48.5-48.5h-169.4-12.5v159.9h50.4v-42.1h84l40.2 42.1h62.7l-40.7-42.5c19.1-3 33.8-19.5 33.8-39.4zm-63.6 2.3h-116.4v-34.7h116.4c9.6 0 17.4 7.8 17.4 17.4s-7.8 17.3-17.4 17.3z"/><path d="m1325.3 176.3h-40.4-4.8-50.4-.4l-92.9 160.2h60.8l22-42.4h126.8l22 42.4h60.8l-93-160.2zm-86.8 80.2 18-34.7h52.1l18 34.7z"/><path d="m928.8 0h1969.5v134.4h-1969.5z"/><path d="m928.8 378.3h1969.5v134.4h-1969.5z"/><g fill="#ffe000"><path d="m2222.6 677.3h127.4v502.1h-127.4z"/><path d="m2053.3 677.3v271.2l-198.8-271.2h-101.8v502.1h127.3v-251.9l184.7 251.9h115.8v-502.1z"/><path d="m1583.4 677.3v271.2l-198.9-271.2h-101.7v502.1h127.2v-251.9l184.8 251.9h115.9v-502.1z"/><path d="m2544.8 677.3h127.4v502.1h-127.4z"/><path d="m2248.6 868.7h254.2v127.4h-254.2z"/><path d="m2248.6 677.2h254.2v127.4h-254.2z"/><path d="m2248.6 1052h254.2v127.4h-254.2z"/><path d="m2560.5 1052.1h254.2v127.4h-254.2z"/><path d="m493.8 860.7h254.2v127.3h-254.2z"/><path d="m1113.4 677.3h127.3v502.1h-127.3z"/><path d="m684.3 677.3h127.3v502.1h-127.3z"/><path d="m414.3 677.3h127.4v502.1h-127.4z"/><path d="m972.7 868.7h254.2v127.3h-254.2z"/><path d="m1155.8 677.3h-142.2l-238.2 502.1h142.2z"/><path d="m372.3 847.3c-25.8-34.8-67.8-53.6-111-53.6-77.4 0-129.7 59.4-129.7 134.9 0 76.8 52.9 132.3 131.7 132.3 41.3 0 82.6-20 109.1-51.6v151.7c-42 12.9-72.3 22.6-111.6 22.6-67.8 0-132.3-25.8-182.6-71.6-53.7-48.6-78.2-111.8-78.2-184 0-66.5 25.2-130.4 71.6-178.1 47.8-49 116.8-78.7 185.2-78.7 40.6 0 78.1 9 115.5 24.5z"/></g><path d="m3827 927.4c0-98.4-19.8-188.4-33.5-238.8-7.6-27.9-29.1-49.9-57-57.6-104.5-29-267.9-36.4-369.5-36.4s-265 7.4-369.5 36.4c-27.8 7.7-49.4 29.7-57 57.6-13.7 50.4-33.5 140.4-33.5 238.8s19.8 188.4 33.5 238.8c7.6 27.9 29.1 49.9 57 57.6 104.5 29 267.9 36.4 369.5 36.4s265-7.4 369.5-36.4c27.8-7.7 49.4-29.7 57-57.6 13.7-50.5 33.5-140.5 33.5-238.8z" fill="#fff"/><path d="m3367 1272.2c-56.3 0-249.4-2.7-372.7-36.8-31.7-8.8-56.7-34.1-65.4-66.1-12.6-46.7-33.9-140.2-33.9-242s21.2-195.3 33.9-241.9c8.7-32 33.7-57.3 65.4-66 123.2-34.2 316.4-36.8 372.7-36.8s249.5 2.7 372.7 36.8c31.7 8.8 56.7 34.1 65.4 66 12.7 46.7 33.9 140.2 33.9 241.9 0 101.9-21.2 195.3-33.9 242-8.7 32-33.7 57.3-65.4 66.1-123.1 34.1-316.4 36.8-372.7 36.8zm0-665.7c-55.5 0-246 2.6-366.3 35.9-23.5 6.5-42.1 25.4-48.6 49.2-12.3 45.5-33.1 136.7-33.1 235.7s20.7 190.2 33.1 235.7c6.5 23.8 25.1 42.7 48.6 49.2 120.3 33.3 310.7 35.9 366.3 35.9s245.9-2.6 366.3-35.9c23.5-6.5 42.1-25.4 48.6-49.2 12.3-45.5 33.1-136.7 33.1-235.7s-20.7-190.2-33.1-235.7c-6.4-23.8-25.1-42.7-48.6-49.2-120.2-33.3-310.7-35.9-366.3-35.9z"/><g fill="#ff001f"><path d="m3207.7 649.7h127.7v555.3h-127.7z"/><path d="m3271.5 867.6h254.8v127.7h-254.8z"/><path d="m3207.7 649.7h318.7v127.7h-318.7z"/></g></g></svg>