<?xml version="1.0" encoding="UTF-8" standalone="no"?>
<svg
   height="404"
   viewBox="0 0 3840 404"
   width="3840"
   version="1.1"
   id="svg43"
   sodipodi:docname="coco.svg"
   inkscape:version="1.3.2 (091e20e, 2023-11-25)"
   xmlns:inkscape="http://www.inkscape.org/namespaces/inkscape"
   xmlns:sodipodi="http://sodipodi.sourceforge.net/DTD/sodipodi-0.dtd"
   xmlns:xlink="http://www.w3.org/1999/xlink"
   xmlns="http://www.w3.org/2000/svg"
   xmlns:svg="http://www.w3.org/2000/svg">
  <defs
     id="defs43" />
  <sodipodi:namedview
     id="namedview43"
     pagecolor="#ffffff"
     bordercolor="#000000"
     borderopacity="0.25"
     inkscape:showpageshadow="2"
     inkscape:pageopacity="0.0"
     inkscape:pagecheckerboard="0"
     inkscape:deskcolor="#d1d1d1"
     inkscape:zoom="0.21510417"
     inkscape:cx="1917.6755"
     inkscape:cy="199.90315"
     inkscape:window-width="1312"
     inkscape:window-height="449"
     inkscape:window-x="0"
     inkscape:window-y="39"
     inkscape:window-maximized="0"
     inkscape:current-layer="svg43" />
  <linearGradient
     id="a"
     gradientUnits="userSpaceOnUse"
     x1="909.49982"
     x2="909.49982"
     xlink:href="#k"
     y1="133.5766"
     y2="316.69281" />
  <linearGradient
     id="b"
     gradientUnits="userSpaceOnUse"
     x1="1295.1185"
     x2="1295.1185"
     xlink:href="#k"
     y1="80.167702"
     y2="316.69269" />
  <linearGradient
     id="c"
     gradientUnits="userSpaceOnUse"
     x1="1466.0016"
     x2="1466.0016"
     xlink:href="#k"
     y1="80.167702"
     y2="316.69269" />
  <linearGradient
     id="d"
     gradientUnits="userSpaceOnUse"
     x1="2030.5834"
     x2="2030.5834"
     xlink:href="#k"
     y1="80.167702"
     y2="316.69269" />
  <linearGradient
     id="e"
     gradientUnits="userSpaceOnUse"
     x1="760.71368"
     x2="760.71368"
     xlink:href="#k"
     y1="80.167702"
     y2="316.69269" />
  <linearGradient
     id="f"
     gradientUnits="userSpaceOnUse"
     x1="573.19061"
     x2="573.19061"
     xlink:href="#k"
     y1="133.5766"
     y2="316.69269" />
  <linearGradient
     id="g"
     gradientUnits="userSpaceOnUse"
     x1="1643.6339"
     x2="1643.6339"
     xlink:href="#k"
     y1="133.5766"
     y2="316.69269" />
  <linearGradient
     id="h"
     gradientUnits="userSpaceOnUse"
     x1="405.42719"
     x2="405.42719"
     xlink:href="#k"
     y1="80.167702"
     y2="316.69269" />
  <linearGradient
     id="i"
     gradientUnits="userSpaceOnUse"
     x1="1056.1359"
     x2="1056.1359"
     xlink:href="#k"
     y1="126.4236"
     y2="323.84579" />
  <linearGradient
     id="j"
     gradientUnits="userSpaceOnUse"
     x1="1837.2412"
     x2="1837.2412"
     xlink:href="#k"
     y1="126.4236"
     y2="323.84579" />
  <linearGradient
     id="k">
    <stop
       offset="0"
       stop-color="#fff"
       id="stop1" />
    <stop
       offset="1"
       stop-color="#a5a7aa"
       id="stop2" />
    <stop
       offset="1"
       id="stop3" />
  </linearGradient>
  <g
     id="g45">
    <g
       id="g44">
      <g
         transform="matrix(1 0 0 .99972261 0 .11206690514)"
         id="g43">
        <g
           id="g22">
          <path
             d="m2389.3 404h-2345.7c-24.1 0-43.6-19.5-43.6-43.6v-316.8c0-24.1 19.5-43.6 43.6-43.6h2345.7c24.1 0 43.6 19.5 43.6 43.6v316.7c.1 24.2-19.4 43.7-43.6 43.7z"
             id="path3" />
          <path
             d="m873 133.6h73v183.1h-73z"
             fill="url(#a)"
             id="path4" />
          <path
             d="m1258.6 160.1v58.7c0 13.8-11.2 25-25 25h-20.2v73h38.1c44.2 0 80-35.8 80-80v-58.7c0-13.8 11.2-25 25-25h20.2v-73h-38.1c-44.2.1-80 35.9-80 80z"
             fill="url(#b)"
             id="path5" />
          <path
             d="m1456.2 133.6v-53.4h-73v236.5h73v-115.5c0-5.4 4.4-9.8 9.8-9.8s9.8 4.4 9.8 9.8v115.5h73v-130.9c0-28.9-23.4-52.3-52.3-52.3h-40.3z"
             fill="url(#c)"
             id="path6" />
          <path
             d="m2116.6 316.7-40.2-105.7 35.6-54.4h-77l-32.5 49.7v-126.1h-57.9v236.5h57.9v-49.8c0-9.2 12.8-11.6 16.1-3l20.1 52.7h77.9z"
             fill="url(#d)"
             id="path7" />
          <path
             d="m786.9 80.2v53.4h-27.3c-50.6 0-91.6 41-91.6 91.6s41 91.6 91.6 91.6h27.3 27.3 39.3v-236.6zm-26.2 201c-16.1 0-29.2-13.1-29.2-29.2s13.1-29.2 29.2-29.2 29.2 13.1 29.2 29.2-13.1 29.2-29.2 29.2z"
             fill="url(#e)"
             id="path8" />
          <path
             d="m605.2 133.6h-96.5v57.9h58.1c4.2 0 7.6 3.4 7.6 7.6s-3.4 7.6-7.6 7.6h-21.7c-30 0-55.4 23.5-56.2 53.5-.9 31.1 24.1 56.6 55.1 56.6h30.4 10.2 53.4 9.4 10.2v-131c-.1-28.8-23.5-52.2-52.4-52.2zm-39.3 147.6c-16.1 0-29.2-13.1-29.2-29.2s13.1-29.2 29.2-29.2 29.2 13.1 29.2 29.2-13.1 29.2-29.2 29.2z"
             fill="url(#f)"
             id="path9" />
          <path
             d="m1675.7 133.6h-96.5v57.9h58.1c4.2 0 7.6 3.4 7.6 7.6s-3.4 7.6-7.6 7.6h-21.7c-30 0-55.4 23.5-56.2 53.5-.9 31.1 24.1 56.6 55.1 56.6h30.4 10.2 53.4 9.4 10.2v-131c-.2-28.8-23.6-52.2-52.4-52.2zm-39.3 147.6c-16.1 0-29.2-13.1-29.2-29.2s13.1-29.2 29.2-29.2 29.2 13.1 29.2 29.2-13.1 29.2-29.2 29.2z"
             fill="url(#g)"
             id="path10" />
          <path
             d="m447.4 216.3c27.1-9.7 46.6-35.6 46.6-66 0-38.7-31.4-70.1-70.1-70.1-1.4 0-107.5 0-107.5 0v236.5h66.6v-45.6c0-8.4 11.4-11 15-3.3l23 48.9h73.6zm-53.2 17.3c-16.1 0-29.2-13.1-29.2-29.2s13.1-29.2 29.2-29.2 29.2 13.1 29.2 29.2-13 29.2-29.2 29.2z"
             fill="url(#h)"
             id="path11" />
          <path
             d="m1056.1 126.4c-54.5 0-98.7 44.2-98.7 98.7s44.2 98.7 98.7 98.7 98.7-44.2 98.7-98.7-44.1-98.7-98.7-98.7zm0 154.8c-16.1 0-29.2-13.1-29.2-29.2s13.1-29.2 29.2-29.2 29.2 13.1 29.2 29.2-13 29.2-29.2 29.2z"
             fill="url(#i)"
             id="path12" />
          <path
             d="m1864.5 262.5c-4.2 10.9-14.8 18.7-27.2 18.7-16.1 0-29.2-13.1-29.2-29.2s13.1-29.2 29.2-29.2c12.4 0 23 7.8 27.2 18.7h70.1c.9-5.3 1.4-10.8 1.4-16.4 0-54.5-44.2-98.7-98.7-98.7s-98.7 44.2-98.7 98.7 44.2 98.7 98.7 98.7c41.3 0 76.6-25.3 91.4-61.3z"
             fill="url(#j)"
             id="path13" />
          <path
             d="m2821.3 33.7v93.2h-39.9v-93.2h-55.7v-31.8h151.3v31.9h-55.7z"
             id="path14" />
          <path
             d="m3047.8 68.4c-4.1 7.1-11.4 8.8-19.1 10.1 18.9 1.3 21.9 10.5 21.9 27.9v20.4h-37.5c0-7.5.4-15.4-1.1-22.7-1.7-8.2-7.5-9-15-9h-62.6v31.7h-38v-124.9h92c6.7 0 13.7.2 20.4.2 14.2.2 30.2-1.3 38.6 12.7 4.9 8.1 4.5 19.3 4.5 28.3 0 8.3.2 18-4.1 25.3zm-49.7-35.2h-63.7v30.7h53.6c2.8 0 5.6-.2 8.4-.2 13.7-.4 17.4-.7 17.4-15.7 0-12.8-3.1-14.8-15.7-14.8z"
             id="path15" />
          <path
             d="m3215 118.8c-9 9.7-28.7 9.4-40.9 9.6-9.7.4-19.5.4-29.2.4-16.3 0-36 .6-51.9-3-6-1.3-11.2-3.7-15.6-8.1-6.4-6.2-7.1-14.2-7.1-22.7 0-3.2.2-6.4.4-9.6h36.7c0 2.8 0 5.4.9 8.1.6 1.7 1.3 2.8 2.8 3.9 3.6 2.8 14.2 2.4 18.4 2.4 5.4 0 10.7.2 16.1.2 6.7 0 13.3-.2 20.1-.2 4.7 0 16.5.6 19.7-3.9 1.3-2.1 1.3-4.9 1.3-7.1 0-9.6-7.5-9.2-15.2-9.4-20.1-.6-40.1-1.7-60.2-2.4-10.9-.4-24.7-.7-32.6-9.6-6.6-7.3-7.1-17.8-7.1-27.2 0-22.3 5.8-36.4 29.8-38.8 16.1-1.7 32.8-1.5 49.1-1.5 15.7 0 32.4-.4 47.8 3.4 17.1 4.3 20.6 15.6 20.6 31.9v6h-36.9v-1.9c0-3.6-.4-6.2-3.6-8.2-3.6-2.4-12-2.2-16.1-2.2h-32.4c-3.9 0-15-.2-18.4 2.2-2.4 1.7-3 4.7-3 7.5 0 2.2.6 5.2 2.4 6.7 1.3 1.1 3.2 1.5 4.9 1.7 4.3.7 8.8.7 13.1.9 8.4.4 16.9.7 25.3.9 14.4.4 35.1.2 49.1 3.9 4.5 1.3 8.4 3.2 12 6.4 7.7 6.7 8.1 19.7 8.1 29.1 0 10.6-.9 22.6-8.4 30.6z"
             id="path16" />
          <path
             d="m3466.8 120.7c-12.4 9-42.2 7.7-57 7.7h-17.1c-15.4 0-40.7 1.1-53.8-7.7-8.8-6-9.6-18-9.6-27.7 0-8.2.7-17.1 6.7-23.2 4.5-4.7 11.4-5.6 17.6-6.7-2.8-.2-5.8-.4-8.6-1.1-12.6-3.4-14.2-15.7-14.2-27 0-18.2 5.4-28.9 24.4-31.9 15.6-2.4 31.9-2.6 47.6-2.6 8.6 0 17.2.2 25.9.6 11.1.6 26.8.9 36.2 7.3 8.6 5.8 9.9 17.6 9.9 27.2 0 7.3-.9 15.7-5.8 21.4-4.5 5.2-10.5 5.8-17.1 6.2 6.7 1.1 12.6 1.9 17.6 6.7 6.6 6.2 6.7 17.1 6.7 25.5.1 9.2-1.2 19.5-9.4 25.3zm-29.1-40.7c-2.8-2.8-13.1-2.6-16.7-2.6-6.7-.2-13.5-.4-20.2-.4-6.2 0-28.1-.6-32.2 2.4-2.8 2.1-2.8 6.7-2.8 9.9 0 2.8.2 6 2.4 8.1 4.3 3.8 27.4 2.8 32.8 2.8 6.6 0 13.1-.2 19.7-.4 4.7 0 15.9.6 18.4-4.9.9-2.1.9-4.9.9-7.1 0-2.5-.2-5.9-2.3-7.8zm-16.7-51.1c-7.5-.2-14.8-.4-22.3-.4-7.7 0-15.7-.2-23.4.9-6.4.9-8.1 4.3-8.1 10.5 0 6.6 2.2 8.8 8.6 9.6 13.3 1.3 27.6.7 40.9.7 4.3 0 16.9 0 19.9-3 1.9-1.9 1.9-5.4 1.9-7.9 0-10.8-8.8-10.2-17.5-10.4z"
             id="path17" />
          <path
             d="m3628.4 126.2c-15 2.4-35.2 2.2-50.4 2.2-9.4 0-18.6-.2-27.9-.4-20.6-.4-44.6-1.1-49.1-26.1-2.1-11.6-1.5-25.7-1.5-37.5 0-7.5 0-14.8.2-22.3.2-10.5.9-22.5 8.6-30.6 5.1-5.2 12.2-7.9 19.3-9 15-2.4 35.1-2.2 50.4-2.2 9.2 0 18.6.4 27.7.6 32.1.8 50.6 4.1 50.6 41.2v44.6c0 20.9-5.3 35.7-27.9 39.5zm-18.2-91c-4.3-1.9-10.7-2.1-15.4-2.1-7.5 0-15-.2-22.7-.2s-16.1-.2-23.6 1.5c-2.2.6-4.5 1.3-6.2 3.2-5.1 5.2-4.7 20.1-4.7 26.8 0 6.2-.4 20.8 3.9 25.9 1.9 2.2 4.1 3.2 6.9 3.9 8.1 1.9 21.4 1.9 29.8 1.7l16.5-.4c4.7-.2 11.1-.2 15.4-2.3 9.4-4.1 8.1-20.6 8.1-28.9 0-8.1 1.4-24.7-8-29.1z"
             id="path18" />
          <path
             d="m3249.8 65.9h49.7v33.2h-49.7z"
             id="path19" />
          <path
             d="m2831.7 404h-246c-24.1 0-43.6-19.5-43.6-43.6v-82.7c0-24.1 19.5-43.6 43.6-43.6h246c24.1 0 43.6 19.5 43.6 43.6v82.7c.1 24.1-19.5 43.6-43.6 43.6z"
             fill="#dd243c"
             id="path20" />
          <path
             d="m3314 404h-246c-24.1 0-43.6-19.5-43.6-43.6v-82.7c0-24.1 19.5-43.6 43.6-43.6h246c24.1 0 43.6 19.5 43.6 43.6v82.7c.1 24.1-19.5 43.6-43.6 43.6z"
             fill="#1aaa4b"
             id="path21" />
          <path
             d="m3796.4 404h-246c-24.1 0-43.6-19.5-43.6-43.6v-82.7c0-24.1 19.5-43.6 43.6-43.6h246c24.1 0 43.6 19.5 43.6 43.6v82.7c0 24.1-19.5 43.6-43.6 43.6z"
             fill="#1094d2"
             id="path22" />
        </g>
        <g
           id="g42">
          <path
             d="m2389.3 404h-2345.7c-24.1 0-43.6-19.5-43.6-43.6v-316.8c0-24.1 19.5-43.6 43.6-43.6h2345.7c24.1 0 43.6 19.5 43.6 43.6v316.7c.1 24.2-19.4 43.7-43.6 43.7z"
             id="path23" />
          <path
             d="m873 133.6h73v183.1h-73z"
             fill="url(#a)"
             id="path24" />
          <path
             d="m1258.6 160.1v58.7c0 13.8-11.2 25-25 25h-20.2v73h38.1c44.2 0 80-35.8 80-80v-58.7c0-13.8 11.2-25 25-25h20.2v-73h-38.1c-44.2.1-80 35.9-80 80z"
             fill="url(#b)"
             id="path25" />
          <path
             d="m1456.2 133.6v-53.4h-73v236.5h73v-115.5c0-5.4 4.4-9.8 9.8-9.8s9.8 4.4 9.8 9.8v115.5h73v-130.9c0-28.9-23.4-52.3-52.3-52.3h-40.3z"
             fill="url(#c)"
             id="path26" />
          <path
             d="m2116.6 316.7-40.2-105.7 35.6-54.4h-77l-32.5 49.7v-126.1h-57.9v236.5h57.9v-49.8c0-9.2 12.8-11.6 16.1-3l20.1 52.7h77.9z"
             fill="url(#d)"
             id="path27" />
          <path
             d="m786.9 80.2v53.4h-27.3c-50.6 0-91.6 41-91.6 91.6s41 91.6 91.6 91.6h27.3 27.3 39.3v-236.6zm-26.2 201c-16.1 0-29.2-13.1-29.2-29.2s13.1-29.2 29.2-29.2 29.2 13.1 29.2 29.2-13.1 29.2-29.2 29.2z"
             fill="url(#e)"
             id="path28" />
          <path
             d="m605.2 133.6h-96.5v57.9h58.1c4.2 0 7.6 3.4 7.6 7.6s-3.4 7.6-7.6 7.6h-21.7c-30 0-55.4 23.5-56.2 53.5-.9 31.1 24.1 56.6 55.1 56.6h30.4 10.2 53.4 9.4 10.2v-131c-.1-28.8-23.5-52.2-52.4-52.2zm-39.3 147.6c-16.1 0-29.2-13.1-29.2-29.2s13.1-29.2 29.2-29.2 29.2 13.1 29.2 29.2-13.1 29.2-29.2 29.2z"
             fill="url(#f)"
             id="path29" />
          <path
             d="m1675.7 133.6h-96.5v57.9h58.1c4.2 0 7.6 3.4 7.6 7.6s-3.4 7.6-7.6 7.6h-21.7c-30 0-55.4 23.5-56.2 53.5-.9 31.1 24.1 56.6 55.1 56.6h30.4 10.2 53.4 9.4 10.2v-131c-.2-28.8-23.6-52.2-52.4-52.2zm-39.3 147.6c-16.1 0-29.2-13.1-29.2-29.2s13.1-29.2 29.2-29.2 29.2 13.1 29.2 29.2-13.1 29.2-29.2 29.2z"
             fill="url(#g)"
             id="path30" />
          <path
             d="m447.4 216.3c27.1-9.7 46.6-35.6 46.6-66 0-38.7-31.4-70.1-70.1-70.1-1.4 0-107.5 0-107.5 0v236.5h66.6v-45.6c0-8.4 11.4-11 15-3.3l23 48.9h73.6zm-53.2 17.3c-16.1 0-29.2-13.1-29.2-29.2s13.1-29.2 29.2-29.2 29.2 13.1 29.2 29.2-13 29.2-29.2 29.2z"
             fill="url(#h)"
             id="path31" />
          <path
             d="m1056.1 126.4c-54.5 0-98.7 44.2-98.7 98.7s44.2 98.7 98.7 98.7 98.7-44.2 98.7-98.7-44.1-98.7-98.7-98.7zm0 154.8c-16.1 0-29.2-13.1-29.2-29.2s13.1-29.2 29.2-29.2 29.2 13.1 29.2 29.2-13 29.2-29.2 29.2z"
             fill="url(#i)"
             id="path32" />
          <path
             d="m1864.5 262.5c-4.2 10.9-14.8 18.7-27.2 18.7-16.1 0-29.2-13.1-29.2-29.2s13.1-29.2 29.2-29.2c12.4 0 23 7.8 27.2 18.7h70.1c.9-5.3 1.4-10.8 1.4-16.4 0-54.5-44.2-98.7-98.7-98.7s-98.7 44.2-98.7 98.7 44.2 98.7 98.7 98.7c41.3 0 76.6-25.3 91.4-61.3z"
             fill="url(#j)"
             id="path33" />
          <path
             d="m2821.3 33.7v93.2h-39.9v-93.2h-55.7v-31.8h151.3v31.9h-55.7z"
             id="path34" />
          <path
             d="m3047.8 68.4c-4.1 7.1-11.4 8.8-19.1 10.1 18.9 1.3 21.9 10.5 21.9 27.9v20.4h-37.5c0-7.5.4-15.4-1.1-22.7-1.7-8.2-7.5-9-15-9h-62.6v31.7h-38v-124.9h92c6.7 0 13.7.2 20.4.2 14.2.2 30.2-1.3 38.6 12.7 4.9 8.1 4.5 19.3 4.5 28.3 0 8.3.2 18-4.1 25.3zm-49.7-35.2h-63.7v30.7h53.6c2.8 0 5.6-.2 8.4-.2 13.7-.4 17.4-.7 17.4-15.7 0-12.8-3.1-14.8-15.7-14.8z"
             id="path35" />
          <path
             d="m3215 118.8c-9 9.7-28.7 9.4-40.9 9.6-9.7.4-19.5.4-29.2.4-16.3 0-36 .6-51.9-3-6-1.3-11.2-3.7-15.6-8.1-6.4-6.2-7.1-14.2-7.1-22.7 0-3.2.2-6.4.4-9.6h36.7c0 2.8 0 5.4.9 8.1.6 1.7 1.3 2.8 2.8 3.9 3.6 2.8 14.2 2.4 18.4 2.4 5.4 0 10.7.2 16.1.2 6.7 0 13.3-.2 20.1-.2 4.7 0 16.5.6 19.7-3.9 1.3-2.1 1.3-4.9 1.3-7.1 0-9.6-7.5-9.2-15.2-9.4-20.1-.6-40.1-1.7-60.2-2.4-10.9-.4-24.7-.7-32.6-9.6-6.6-7.3-7.1-17.8-7.1-27.2 0-22.3 5.8-36.4 29.8-38.8 16.1-1.7 32.8-1.5 49.1-1.5 15.7 0 32.4-.4 47.8 3.4 17.1 4.3 20.6 15.6 20.6 31.9v6h-36.9v-1.9c0-3.6-.4-6.2-3.6-8.2-3.6-2.4-12-2.2-16.1-2.2h-32.4c-3.9 0-15-.2-18.4 2.2-2.4 1.7-3 4.7-3 7.5 0 2.2.6 5.2 2.4 6.7 1.3 1.1 3.2 1.5 4.9 1.7 4.3.7 8.8.7 13.1.9 8.4.4 16.9.7 25.3.9 14.4.4 35.1.2 49.1 3.9 4.5 1.3 8.4 3.2 12 6.4 7.7 6.7 8.1 19.7 8.1 29.1 0 10.6-.9 22.6-8.4 30.6z"
             id="path36" />
          <path
             d="m3466.8 120.7c-12.4 9-42.2 7.7-57 7.7h-17.1c-15.4 0-40.7 1.1-53.8-7.7-8.8-6-9.6-18-9.6-27.7 0-8.2.7-17.1 6.7-23.2 4.5-4.7 11.4-5.6 17.6-6.7-2.8-.2-5.8-.4-8.6-1.1-12.6-3.4-14.2-15.7-14.2-27 0-18.2 5.4-28.9 24.4-31.9 15.6-2.4 31.9-2.6 47.6-2.6 8.6 0 17.2.2 25.9.6 11.1.6 26.8.9 36.2 7.3 8.6 5.8 9.9 17.6 9.9 27.2 0 7.3-.9 15.7-5.8 21.4-4.5 5.2-10.5 5.8-17.1 6.2 6.7 1.1 12.6 1.9 17.6 6.7 6.6 6.2 6.7 17.1 6.7 25.5.1 9.2-1.2 19.5-9.4 25.3zm-29.1-40.7c-2.8-2.8-13.1-2.6-16.7-2.6-6.7-.2-13.5-.4-20.2-.4-6.2 0-28.1-.6-32.2 2.4-2.8 2.1-2.8 6.7-2.8 9.9 0 2.8.2 6 2.4 8.1 4.3 3.8 27.4 2.8 32.8 2.8 6.6 0 13.1-.2 19.7-.4 4.7 0 15.9.6 18.4-4.9.9-2.1.9-4.9.9-7.1 0-2.5-.2-5.9-2.3-7.8zm-16.7-51.1c-7.5-.2-14.8-.4-22.3-.4-7.7 0-15.7-.2-23.4.9-6.4.9-8.1 4.3-8.1 10.5 0 6.6 2.2 8.8 8.6 9.6 13.3 1.3 27.6.7 40.9.7 4.3 0 16.9 0 19.9-3 1.9-1.9 1.9-5.4 1.9-7.9 0-10.8-8.8-10.2-17.5-10.4z"
             id="path37" />
          <path
             d="m3628.4 126.2c-15 2.4-35.2 2.2-50.4 2.2-9.4 0-18.6-.2-27.9-.4-20.6-.4-44.6-1.1-49.1-26.1-2.1-11.6-1.5-25.7-1.5-37.5 0-7.5 0-14.8.2-22.3.2-10.5.9-22.5 8.6-30.6 5.1-5.2 12.2-7.9 19.3-9 15-2.4 35.1-2.2 50.4-2.2 9.2 0 18.6.4 27.7.6 32.1.8 50.6 4.1 50.6 41.2v44.6c0 20.9-5.3 35.7-27.9 39.5zm-18.2-91c-4.3-1.9-10.7-2.1-15.4-2.1-7.5 0-15-.2-22.7-.2s-16.1-.2-23.6 1.5c-2.2.6-4.5 1.3-6.2 3.2-5.1 5.2-4.7 20.1-4.7 26.8 0 6.2-.4 20.8 3.9 25.9 1.9 2.2 4.1 3.2 6.9 3.9 8.1 1.9 21.4 1.9 29.8 1.7l16.5-.4c4.7-.2 11.1-.2 15.4-2.3 9.4-4.1 8.1-20.6 8.1-28.9 0-8.1 1.4-24.7-8-29.1z"
             id="path38" />
          <path
             d="m3249.8 65.9h49.7v33.2h-49.7z"
             id="path39" />
          <path
             d="m2831.7 404h-246c-24.1 0-43.6-19.5-43.6-43.6v-82.7c0-24.1 19.5-43.6 43.6-43.6h246c24.1 0 43.6 19.5 43.6 43.6v82.7c.1 24.1-19.5 43.6-43.6 43.6z"
             fill="#dd243c"
             id="path40" />
          <path
             d="m3314 404h-246c-24.1 0-43.6-19.5-43.6-43.6v-82.7c0-24.1 19.5-43.6 43.6-43.6h246c24.1 0 43.6 19.5 43.6 43.6v82.7c.1 24.1-19.5 43.6-43.6 43.6z"
             fill="#1aaa4b"
             id="path41" />
          <path
             d="m3796.4 404h-246c-24.1 0-43.6-19.5-43.6-43.6v-82.7c0-24.1 19.5-43.6 43.6-43.6h246c24.1 0 43.6 19.5 43.6 43.6v82.7c0 24.1-19.5 43.6-43.6 43.6z"
             fill="#1094d2"
             id="path42" />
        </g>
      </g>
    </g>
  </g>
</svg>
