<svg enable-background="new 0 0 3840 1254" viewBox="0 0 3840 1254" xmlns="http://www.w3.org/2000/svg" xmlns:xlink="http://www.w3.org/1999/xlink"><linearGradient id="a" gradientUnits="userSpaceOnUse" x1="84.9899" x2="3755.01" y1="626.9904" y2="626.9904"><stop offset="0" stop-color="#d81526"/><stop offset=".25" stop-color="#de551e"/><stop offset=".5" stop-color="#eeb824"/><stop offset=".75" stop-color="#75b230"/><stop offset="1" stop-color="#49a070"/></linearGradient><g fill="#d8d8d8"><path d="m1091.2 1252.6c-41.9 0-76-34.1-76-76v-587.2c0-13.7 11.1-24.8 24.8-24.8h272.8c13.7 0 24.8 11.1 24.8 24.8v638.4c0 13.7-11.1 24.8-24.8 24.8z"/><path d="m1938.6 1252.6c-41.9 0-76-34.1-76-76v-587.2c0-13.7 11.1-24.8 24.8-24.8h272c13.7 0 24.8 11.1 24.8 24.8v638.4c0 13.7-11.1 24.8-24.8 24.8z"/><path d="m1229.3 1252.6c-13.7 0-24.8-11.1-24.8-24.8v-249.4c0-13.7 11.1-24.8 24.8-24.8h15.7c-26.1-38.8-40.5-84.8-40.5-132.1v-20.2c0-130.5 106.1-236.6 236.6-236.6h512.9c13.7 0 24.8 11.1 24.8 24.8v249.4c0 13.4-10.6 24.2-23.8 24.8 26.1 38.8 40.5 84.8 40.5 132.1v20.2c0 130.5-106.1 236.6-236.6 236.6z"/><path d="m835.4 690.7c-129.4 0-234.6-105.2-234.6-234.6v-221.5c0-129.4 105.2-234.6 234.6-234.6l391.4.4c129.2.1 234.3 105.4 234.3 234.6v221.1c0 129.4-105.2 234.6-234.6 234.6zm304.1-301.1v-90.7h-217.1v90.7z"/><path d="m3214.3 692c-129.4 0-234.6-105.2-234.6-234.6v-221.6c0-129.4 105.2-234.6 234.6-234.6l391.4.4c129.2.2 234.3 105.4 234.3 234.6v221.1c0 129.4-105.2 234.6-234.6 234.6h-391.1zm304.1-301.2v-90.7h-217.1v90.7z"/><path d="m2285.9 1254c-129.4 0-234.6-105.2-234.6-234.6v-221.5c0-129.4 105.2-234.6 234.6-234.6l391.4.4c129.2.1 234.3 105.4 234.3 234.6v221.1c0 129.4-105.2 234.6-234.6 234.6zm304.1-301.2v-90.7h-217.1v90.7z"/><path d="m234.6 692c-129.4 0-234.6-105.3-234.6-234.6v-221.6c0-129.3 105.2-234.6 234.6-234.6l433.2.2c41.9 0 75.9 34.1 75.9 76v197.9c0 13.7-11.1 24.8-24.8 24.8h-397.3v90.7h397.3c13.7 0 24.8 11.1 24.8 24.8l48.8 251.6c0 13.7-11.1 24.8-24.8 24.8z"/><path d="m2613.6 692c-129.4 0-234.6-105.2-234.6-234.6v-221.6c0-129.4 105.2-234.6 234.6-234.6l433.2.2c41.9 0 75.9 34.1 75.9 76v197.9c0 13.7-11.1 24.8-24.8 24.8h-397.3v90.7h397.3c13.7 0 24.8 11.1 24.8 24.8v251.6c0 13.7-11.1 24.8-24.8 24.8z"/><path d="m1552.6 691c-129.4 0-234.6-105.2-234.6-234.6v-429.8c0-13.7 11.1-24.8 24.8-24.8h220.9c41.9 0 76 34.1 76 76v312.1h257.3c13.7 0 24.8 11.1 24.8 24.8v251.6c0 13.7-11.1 24.8-24.8 24.8h-344.4z"/><path d="m2013.1 692c-129.4 0-234.6-105.2-234.6-234.6v-431.5c0-6.6 2.6-12.9 7.3-17.5 4.6-4.6 11-7.3 17.5-7.3 0 0 643 .4 643 .4 41.9 0 75.9 34.1 75.9 76v197.9c0 13.7-11.1 24.8-24.8 24.8h-11.4v90.7h11.4c13.7 0 24.8 11.1 24.8 24.8v251.6c0 13.7-11.1 24.8-24.8 24.8h-484.3z"/><path d="m3392.3 1250.8c-41.4-.5-75.1-34.5-75.1-76v-312.7h-217.1v365.7c0 13.7-11.1 24.8-24.8 24.8h-220.9c-41.9 0-76-34.1-76-76v-588.5c0-13.7 11.1-24.8 24.8-24.8h266.8c.6 0 1.2 0 1.7.1l332.7.3c129.2.1 234.3 105.4 234.3 234.6v430.3c0 6.6-2.7 13-7.4 17.6-4.6 4.6-10.9 7.2-17.4 7.2 0-.1-221.6-2.6-221.6-2.6z"/><path d="m546.2 1252.6c-8.9 0-17-4.7-21.5-12.4l-368.6-638.4c-4.4-7.7-4.4-17.1 0-24.8s12.6-12.4 21.5-12.4h314.1c8.9 0 17 4.7 21.5 12.4l159.4 276.1 159.4-276.1c4.4-7.7 12.6-12.4 21.5-12.4h314.1c8.9 0 17 4.7 21.5 12.4 4.4 7.7 4.4 17.1 0 24.8l-368.6 638.4c-4.4 7.7-12.6 12.4-21.5 12.4z"/></g><path d="m1040 1176.7v-587.3h272.8v638.4h-221.7c-28.2 0-51.1-22.9-51.1-51.1z"/><path d="m1887.5 1176.7v-587.3h272v638.4h-220.9c-28.2 0-51.1-22.9-51.1-51.1z"/><path d="m1229.3 1227.8v-249.4h69.7c-42.8-38.8-69.7-94.8-69.7-156.9v-20.2c0-116.8 95-211.8 211.8-211.8h512.9v249.4h-53c42.8 38.8 69.7 94.8 69.7 156.9v20.2c0 116.8-95 211.8-211.8 211.8z"/><path d="m835.4 665.9c-115.7 0-209.8-94.1-209.8-209.8v-221.5c0-115.7 94.1-209.8 209.8-209.8l391.4.4c115.6.1 209.6 94.2 209.6 209.8v221.1c0 115.7-94.1 209.8-209.8 209.8z"/><path d="m3214.3 667.2c-115.7 0-209.8-94.1-209.8-209.8v-221.6c0-115.7 94.1-209.8 209.8-209.8l391.4.4c115.6.1 209.6 94.2 209.6 209.8v221.1c0 115.7-94.1 209.8-209.8 209.8h-391.2z"/><path d="m2285.9 1229.2c-115.7 0-209.8-94.1-209.8-209.8v-221.5c0-115.7 94.1-209.8 209.8-209.8l391.4.4c115.6.1 209.6 94.2 209.6 209.8v221.1c0 115.7-94.1 209.8-209.8 209.8z"/><path d="m234.6 667.2c-115.9 0-209.8-93.9-209.8-209.8v-221.6c0-115.6 94.1-209.8 209.8-209.8l433.2.2c28.2 0 51.1 22.9 51.1 51.2l136.6 589.8z"/><path d="m2613.6 667.2c-115.9 0-209.8-93.9-209.8-209.8v-221.6c0-115.7 94.1-209.8 209.8-209.8l433.2.2c28.2 0 51.1 22.9 51.1 51.2v338.2 251.6z"/><path d="m1552.6 666.2c-115.9 0-209.8-93.9-209.8-209.8v-429.8h220.9c28.3 0 51.2 22.9 51.2 51.2v336.8h282.1v251.6z"/><path d="m2013.1 667.2c-115.9 0-209.8-93.9-209.8-209.8v-431.5l643 .4c28.2 0 51.1 22.9 51.1 51.2v197.9h-36.2v140.3h36.2v251.6h-484.3z"/><path d="m3342 1174.8v-337.5h-266.7v390.5h-220.9c-28.3 0-51.2-22.9-51.2-51.2v-588.5h266.8v.1l334.4.3c115.8.1 209.6 94 209.6 209.8v430.3l-221.5-2.5c-28-.4-50.5-23.2-50.5-51.3z"/><path d="m546.2 1227.8-368.6-638.4h314.1l180.9 313.3 180.9-313.3h314.1l-368.6 638.4z"/><path d="m1364.2 573.1h45.9v45.9h-45.9z"/><path d="m835.4 605.7h391.1c82.6 0 149.6-67 149.6-149.6v-221.1c0-82.6-66.9-149.5-149.4-149.6l-391.2-.4c-82.7-.1-149.8 66.9-149.8 149.6v221.5c.1 82.6 67.1 149.6 149.7 149.6zm2-333.8c0-32 26-58 58-58h271c32 0 58 26 58 58v144.6c0 32-26 58-58 58h-271c-32 0-58-26-58-58zm2768.2-185.3-391.1-.4c-82.7-.1-149.8 66.9-149.8 149.6v221.5c0 82.6 67 149.6 149.6 149.6h391.1c82.6 0 149.6-67 149.6-149.6v-221.1c0-82.5-66.9-149.5-149.4-149.6zm-2.2 331.2c0 32-26 58-58 58h-271c-32 0-58-26-58-58v-144.7c0-32 26-58 58-58h271c32 0 58 26 58 58zm-2944.7 58h-364c-32 0-58-26-58-58v-144.7c0-32 26-58 58-58h364v-128.7l-424-.2c-82.6 0-149.7 67-149.7 149.6v221.5c0 82.7 67 149.7 149.6 149.7h424.1zm1954.9 131.2h424.1v-131.2h-364c-32 0-58-26-58-58v-144.7c0-32 26-58 58-58h364v-128.7l-424-.2c-82.7-.1-149.8 66.9-149.8 149.6v221.5c.1 82.7 67.1 149.7 149.7 149.7zm-1061-1h284.1v-131.2h-224c-32 0-58-26-58-58v-330h-151.7v369.6c0 82.6 66.9 149.6 149.6 149.6zm460.5 1h424.1v-131.2h-383.3c-21.4 0-38.8-17.4-38.8-38.8s17.4-38.8 38.8-38.8h347.1v-103.3h-346c-22 0-39.9-17.9-39.9-39.9s17.9-39.9 39.9-39.9h382.2v-128.7l-573.7-.4v371.3c0 82.7 66.9 149.7 149.6 149.7zm-912.9 560.6h152.4v-518h-152.4zm847.5 0h151.6v-518h-151.6zm-188.8-323.5h-285c-18.1 0-32.7-14.7-32.7-32.7 0-18.1 14.7-32.7 32.7-32.7h419.9v-129h-452.6c-83.7 0-151.6 67.9-151.6 151.6v20.2c0 83.7 67.9 151.6 151.6 151.6h285c18.1 0 32.7 14.7 32.7 32.7s-14.7 32.7-32.7 32.7h-436.6v129h469.3c83.7 0 151.6-67.9 151.6-151.6v-20.2c0-83.7-67.9-151.6-151.6-151.6zm918.3-195.4-391.1-.4c-82.7-.1-149.8 66.9-149.8 149.6v221.5c0 82.6 67 149.6 149.6 149.6h391.1c82.6 0 149.6-67 149.6-149.6v-221.1c0-82.6-66.9-149.6-149.4-149.6zm-2.2 331.1c0 32-26 58-58 58h-271c-32 0-58-26-58-58v-144.6c0-32 26-58 58-58h271c32 0 58 26 58 58zm729.4-331.1-391.1-.4c-1.1 0-2.3.1-3.4.2v-.2h-146.4v519.4h151.6v-332.5c0-32 26-58 58-58h271c32 0 58 26 58 58v330.8l151.6 1.7v-369.4c.1-82.6-66.8-149.6-149.3-149.6zm-2731.8 374.4-215.7-373.5h-175.1l299.1 518h183.3l299.1-518h-175.1z" fill="url(#a)"/></svg>