<?xml version="1.0" encoding="UTF-8" standalone="no"?>
<svg
   height="548.00006"
   viewBox="0 0 3840 548.00005"
   width="3840"
   version="1.1"
   id="svg33"
   sodipodi:docname="custom-collections.svg"
   inkscape:version="1.3.2 (091e20e, 2023-11-25)"
   xmlns:inkscape="http://www.inkscape.org/namespaces/inkscape"
   xmlns:sodipodi="http://sodipodi.sourceforge.net/DTD/sodipodi-0.dtd"
   xmlns="http://www.w3.org/2000/svg"
   xmlns:svg="http://www.w3.org/2000/svg">
  <defs
     id="defs33" />
  <sodipodi:namedview
     id="namedview33"
     pagecolor="#ffffff"
     bordercolor="#000000"
     borderopacity="0.25"
     inkscape:showpageshadow="2"
     inkscape:pageopacity="0.0"
     inkscape:pagecheckerboard="0"
     inkscape:deskcolor="#d1d1d1"
     inkscape:zoom="0.24557292"
     inkscape:cx="1922.0361"
     inkscape:cy="272.83139"
     inkscape:window-width="1312"
     inkscape:window-height="449"
     inkscape:window-x="0"
     inkscape:window-y="39"
     inkscape:window-maximized="0"
     inkscape:current-layer="svg33" />
  <g
     id="g34">
    <g
       transform="matrix(4.2197802 0 0 4.21538462376 -2088.791199 -3878.15385383965)"
       id="g3">
      <path
         d="m505 1040h10v10h60v-10h10v-10h10v-20-20h-10v-10h10v-20-20h-10v-10h-10v-10h-60v10h-10v10h-10v20 50 20h10zm50-50h-10v-10h10z"
         fill="#120f26"
         id="path1" />
      <path
         d="m585 1010h-30v10h-20v-50h20v10h30v-20h-10v-10h-60v10h-10v70h10v10h60v-10h10z"
         fill="#e22b17"
         id="path2" />
      <path
         d="m585 990h-30v10h-20v-50h20v10h30v-20h-10v-10h-60v10h-10v70h10v10h60v-10h10z"
         fill="#ffda40"
         id="path3" />
    </g>
    <g
       transform="matrix(4.2197802 0 0 4.21538462376 -780.659339 -4721.23073863269)"
       id="g6">
      <path
         d="m295 1130h-10v10h-10v20 50 20h10v10h10v10h60v-10h10v-10h10v-20-50-20h-10v-10h-10v-10h-60z"
         fill="#120f26"
         id="path4" />
      <path
         d="m355 1240v-10h10v-70h-10v-10h-60v10h-10v70h10v10zm-40-20v-50h20v50z"
         fill="#e22b17"
         id="path5" />
      <path
         d="m355 1220v-10h10v-70h-10v-10h-60v10h-10v70h10v10zm-40-20v-50h20v50z"
         fill="#ffda40"
         id="path6" />
    </g>
    <g
       transform="matrix(4.2197802 0 0 4.21538462376 -6688.351599 -3878.15385383965)"
       id="g9">
      <path
         d="m1765 950v70 20h10v10h20 10 40v-10h10v-20-20h-10v-10h-30v-40-20h-10v-10h-30v10h-10z"
         fill="#120f26"
         id="path7" />
      <path
         d="m1805 1020v-70h-30v90h20 10 40v-20z"
         fill="#e22b17"
         id="path8" />
      <path
         d="m1805 1000v-70h-30v90h20 10 40v-20z"
         fill="#ffda40"
         id="path9" />
    </g>
    <g
       transform="matrix(4.2197802 0 0 4.21538462376 -6350.769199 -3878.15385383965)"
       id="g12">
      <path
         d="m1775 1040v10h20 10 40v-10h10v-20-20h-10v-10h-30v-40-20h-10v-10h-30v10h-10v20 70 20z"
         fill="#120f26"
         id="path10" />
      <path
         d="m1775 1040h20 10 40v-20h-40v-70h-30z"
         fill="#e22b17"
         id="path11" />
      <path
         d="m1775 1020h20 10 40v-20h-40v-70h-30z"
         fill="#ffda40"
         id="path12" />
    </g>
    <g
       transform="matrix(4.2197802 0 0 4.21538462376 -1919.999999 -3878.15385383965)"
       id="g15">
      <path
         d="m805 1040v10h20 10 40v-10h10v-20-20h-10v-10-10-10h10v-20-20h-10v-10h-40-10-20v10h-10v20 70 20z"
         fill="#120f26"
         id="path13" />
      <path
         d="m835 1040h40v-20h-40v-10h30v-20h-30v-20h40v-20h-40-10-20v90h20z"
         fill="#e22b17"
         id="path14" />
      <path
         d="m835 1020h40v-20h-40v-10h30v-20h-30v-20h40v-20h-40-10-20v90h20z"
         fill="#ffda40"
         id="path15" />
    </g>
    <g
       transform="matrix(4.2197802 0 0 4.21538462376 -316.483509 -3878.15385383965)"
       id="g18">
      <path
         d="m505 1040h10v10h60v-10h10v-10h10v-20-20h-10v-10h10v-20-20h-10v-10h-10v-10h-60v10h-10v10h-10v20 50 20h10zm50-50h-10v-10h10z"
         fill="#120f26"
         id="path16" />
      <path
         d="m575 950h-60v10h-10v70h10v10h60v-10h10v-20h-30v10h-20v-50h20v10h30v-20h-10z"
         fill="#e22b17"
         id="path17" />
      <path
         d="m575 930h-60v10h-10v70h10v10h60v-10h10v-20h-30v10h-20v-50h20v10h30v-20h-10z"
         fill="#ffda40"
         id="path18" />
    </g>
    <g
       transform="matrix(4.2197802 0 0 4.21538462376 -2173.186799 -4721.23073863269)"
       id="g21">
      <path
         d="m1045 1220v20h10v10h30v-10h10v-20-40h10v-10h10v-20-20h-10v-10h-70v10h-10v20 20h10v10h10z"
         fill="#120f26"
         id="path19" />
      <path
         d="m1085 1170h20v-20h-70v20h20v70h30z"
         fill="#e22b17"
         id="path20" />
      <path
         d="m1085 1150h20v-20h-70v20h20v70h30z"
         fill="#ffda40"
         id="path21" />
    </g>
    <g
       transform="matrix(4.2197802 0 0 4.21538462376 -3312.527499 -3878.15385383965)"
       id="g24">
      <path
         d="m1425 950v-20h-10v-10h-30v10h-10v20 70 20h10v10h30v-10h10v-20z"
         fill="#120f26"
         id="path22" />
      <path
         d="m1385 950h30v90h-30z"
         fill="#e22b17"
         id="path23" />
      <path
         d="m1385 930h30v90h-30z"
         fill="#ffda40"
         id="path24" />
    </g>
    <g
       transform="matrix(4.2197802 0 0 4.21538462376 1498.022001 -4721.23073863269)"
       id="g27">
      <path
         d="m355 1130v-10h-60v10h-10v10h-10v20 50 20h10v10h10v10h60v-10h10v-10h10v-20-50-20h-10v-10z"
         fill="#120f26"
         id="path25" />
      <path
         d="m355 1240v-10h10v-70h-10v-10h-60v10h-10v70h10v10zm-40-20v-50h20v50z"
         fill="#e22b17"
         id="path26" />
      <path
         d="m355 1220v-10h10v-70h-10v-10h-60v10h-10v70h10v10zm-40-20v-50h20v50z"
         fill="#ffda40"
         id="path27" />
    </g>
    <g
       transform="matrix(4.2197802 0 0 4.21538462376 -5717.802199 -3878.15385383965)"
       id="g30">
      <path
         d="m2075 1040h10v10h30v-10h10 10v10h30v-10h10v-20-70-20h-10v-10h-30v10h-10-10v-10h-30v10h-10v20 70z"
         fill="#120f26"
         id="path28" />
      <path
         d="m2165 1040v-90h-30v40h-10v-20h-10v-20h-30v90h30v-30h10v20h10v10z"
         fill="#e22b17"
         id="path29" />
      <path
         d="m2165 1020v-90h-30v40h-10v-20h-10v-20h-30v90h30v-30h10v20h10v10z"
         fill="#ffda40"
         id="path30" />
    </g>
    <g
       transform="matrix(4.2197802 0 0 4.21538462376 -274.285709 -4721.23073863269)"
       id="g33">
      <path
         d="m955 1250v-10h10v-10h10v-20-10-20-20-20h-10v-10h-10v-10h-60v10h-10v10h-10v20 10 20 20 20h10v10h10v10z"
         fill="#120f26"
         id="path31" />
      <path
         d="m915 1200v10h20v10h-20v-10h-30v20h10v10h60v-10h10v-30h-10v-10h-20v-10h-20v-10h20v10h30v-20h-10v-10h-60v10h-10v30h10v10z"
         fill="#e22b17"
         id="path32" />
      <path
         d="m915 1180v10h20v10h-20v-10h-30v20h10v10h60v-10h10v-30h-10v-10h-20v-10h-20v-10h20v10h30v-20h-10v-10h-60v10h-10v30h10v10z"
         fill="#ffda40"
         id="path33" />
    </g>
  </g>
</svg>
