<svg height="806.00006" viewBox="0 0 3840 806.00006" width="3840" xmlns="http://www.w3.org/2000/svg"><g transform="matrix(6.1935483 0 0 6.20000011926 588.387137 -6944.00013357997)"><path d="m435 1130h-10v20 70 20h10v10h30v-10h10v-10h20v-10h10 10v-10h10v-20-30-20h-10v-10h-10v-10h-40-10-20z" fill="#120f26"/><path d="m465 1220h30v-10h20v-50h-10v-10h-40-10-20v90h30zm20-50v20h-10v10h-10v-30z" fill="#e22b17"/><path d="m465 1200h30v-10h20v-50h-10v-10h-40-10-20v90h30zm20-50v20h-10v10h-10v-30z" fill="#ffda40"/></g><g transform="matrix(6.1935483 0 0 6.20000011926 -3994.838653 -5704.00006968548)"><path d="m745 940h-10v-10h-10v-10h-40-20-10v10h-10v20 70 20h10v10h10 20 30v-10h10 10v-10h10v-20-50z" fill="#120f26"/><path d="m725 960v-10h-40-20-10v90h10 20 30v-10h20v-70zm-40 10h20v40h-10v10h-10z" fill="#e22b17"/><path d="m725 940v-10h-40-20-10v90h10 20 30v-10h20v-70zm-40 10h20v40h-10v10h-10z" fill="#ffda40"/></g><g transform="matrix(6.1935483 0 0 6.20000011926 -4366.451553 -5704.00006968548)"><path d="m885 1000h-10v-10-10-10h10v-20-20h-10v-10h-40-10-20v10h-10v20 70 20h10v10h20 10 40v-10h10v-20z" fill="#120f26"/><path d="m875 1020h-40v-10h30v-20h-30v-20h40v-20h-40-10-20v90h20 10 40z" fill="#e22b17"/><path d="m875 1000h-40v-10h30v-20h-30v-20h40v-20h-40-10-20v90h20 10 40z" fill="#ffda40"/></g><g transform="matrix(6.1935483 0 0 6.20000011926 -4366.451553 -6944.00013357997)"><path d="m965 1140v-10h-10v-10h-60v10h-10v10h-10v20 10 20 20 20h10v10h10v10h60v-10h10v-10h10v-20-10-20-20-20z" fill="#120f26"/><path d="m885 1210v20h10v10h60v-10h10v-30h-10v-10h-20v-10h-20v-10h20v10h30v-20h-10v-10h-60v10h-10v30h10v10h20v10h20v10h-20v-10z" fill="#e22b17"/><path d="m885 1190v20h10v10h60v-10h10v-30h-10v-10h-20v-10h-20v-10h20v10h30v-20h-10v-10h-60v10h-10v30h10v10h20v10h20v10h-20v-10z" fill="#ffda40"/></g><g transform="matrix(6.1935483 0 0 6.20000011926 -8392.257853 -5704.00006968548)"><path d="m1705 980v-10h10v-20-20h-10v-10h-20v10h-10v10h-10v-10h-10v-10h-30v10h-10v20 70 20h10v10h30v-10h10 10v10h30v-10h10v-20-20h-10v-10h-10v-10z" fill="#120f26"/><path d="m1655 980v-30h-30v90h30v-20h10v10h10v10h30v-20h-10v-10h-10v-10h-10v-10h10v-10h10v-10h10v-20h-20v10h-10v10h-10v10z" fill="#e22b17"/><path d="m1655 960v-30h-30v90h30v-20h10v10h10v10h30v-20h-10v-10h-10v-10h-10v-10h10v-10h10v-10h10v-20h-20v10h-10v10h-10v10z" fill="#ffda40"/></g><g transform="matrix(6.1935483 0 0 6.20000011926 -4180.645053 -6944.00013357997)"><path d="m1025 1130v20 20h10v10h10v40 20h10v10h30v-10h10v-20-40h10v-10h10v-20-20h-10v-10h-70v10z" fill="#120f26"/><path d="m1105 1150h-70v20h20v70h30v-70h20z" fill="#e22b17"/><path d="m1105 1130h-70v20h20v70h30v-70h20z" fill="#ffda40"/></g><g transform="matrix(6.1935483 0 0 6.20000011926 960.000037 -6944.00013357997)"><path d="m365 1140v-10h-10v-10h-60v10h-10v10h-10v20 50 20h10v10h10v10h60v-10h10v-10h10v-20-50-20z" fill="#120f26"/><path d="m355 1240v-10h10v-70h-10v-10h-60v10h-10v70h10v10zm-40-20v-50h20v50z" fill="#e22b17"/><path d="m355 1220v-10h10v-70h-10v-10h-60v10h-10v70h10v10zm-40-20v-50h20v50z" fill="#ffda40"/></g></svg>