<svg enable-background="new 0 0 3839 873.6" viewBox="0 0 3839 873.6" xmlns="http://www.w3.org/2000/svg" xmlns:xlink="http://www.w3.org/1999/xlink"><linearGradient id="a"><stop offset="0" stop-color="#f2703e"/><stop offset="1" stop-color="#f89d48"/></linearGradient><linearGradient id="b" gradientUnits="userSpaceOnUse" x1="2487.4795" x2="2487.4795" xlink:href="#a" y1="649.4594" y2="327.5368"/><linearGradient id="c"><stop offset="0" stop-color="#f6944a" stop-opacity="0"/><stop offset="1" stop-color="#fbc090"/></linearGradient><linearGradient id="d" gradientUnits="userSpaceOnUse" x1="2487.4792" x2="2487.4792" xlink:href="#c" y1="649.4593" y2="327.5364"/><linearGradient id="e" gradientUnits="userSpaceOnUse" x1="88.445" x2="874.522" xlink:href="#a" y1="738.7578" y2="-47.3191"/><linearGradient id="f" gradientUnits="userSpaceOnUse" x1=".0001" x2="1056.1088" xlink:href="#c" y1="174.0013" y2="174.0013"/><linearGradient id="g" gradientUnits="userSpaceOnUse" x1="231.6237" x2="693.7598" xlink:href="#c" y1="881.9356" y2="419.7995"/><linearGradient id="h" gradientUnits="userSpaceOnUse" x1="713.6668" x2="1015.1336" xlink:href="#c" y1="639.2708" y2="337.8039"/><linearGradient id="i"><stop offset="0" stop-color="#e65726"/><stop offset="1" stop-color="#f26f48"/></linearGradient><linearGradient id="j" gradientUnits="userSpaceOnUse" x1="672.6917" x2="1056.1088" xlink:href="#i" y1="339.0899" y2="339.0899"/><linearGradient id="k" gradientUnits="userSpaceOnUse" x1="768.5458" x2="960.2547" xlink:href="#i" y1="694.1501" y2="502.4413"/><linearGradient id="l"><stop offset="0" stop-color="#e65726"/><stop offset="1" stop-color="#f27247"/></linearGradient><linearGradient id="m" gradientUnits="userSpaceOnUse" x1="351.2748" x2="607.2753" xlink:href="#l" y1="1001.5876" y2="745.5872"/><linearGradient id="n" gradientUnits="userSpaceOnUse" x1="186.9406" x2="262.2482" xlink:href="#i" y1="837.2534" y2="761.9458"/><linearGradient id="o" gradientUnits="userSpaceOnUse" x1="251.5494" x2="341.7519" xlink:href="#a" y1="756.5253" y2="666.3228"/><linearGradient id="p" gradientUnits="userSpaceOnUse" x1="255.7954" x2="463.7929" xlink:href="#i" y1="585.6448" y2="377.6473"/><linearGradient id="q" gradientUnits="userSpaceOnUse" x1="227.3259" x2="455.8004" xlink:href="#l" y1="338.7169" y2="110.2424"/><linearGradient id="r" gradientUnits="userSpaceOnUse" x1="617.8124" x2="727.5709" xlink:href="#i" y1="543.4167" y2="433.6583"/><linearGradient id="s" gradientUnits="userSpaceOnUse" x1="-26.5477" x2="29.1479" xlink:href="#l" y1="84.8433" y2="29.1478"/><linearGradient id="t" gradientUnits="userSpaceOnUse" x1="624.0901" x2="735.2752" y1="637.9847" y2="637.9847"><stop offset="0" stop-color="#fbc090" stop-opacity=".5"/><stop offset="1" stop-color="#fbc090"/></linearGradient><linearGradient id="u" gradientUnits="userSpaceOnUse" x1="768.5458" x2="960.2547" y1="474.634" y2="282.9251"><stop offset="0" stop-color="#fbc090" stop-opacity="0"/><stop offset="1" stop-color="#fbc090"/></linearGradient><linearGradient id="v" gradientUnits="userSpaceOnUse" x1="446.4341" x2="544.0116" y1="367.629" y2="270.0515"><stop offset="0" stop-color="#f2703e" stop-opacity=".5"/><stop offset="1" stop-color="#f89d48" stop-opacity=".2"/></linearGradient><path d="m3792.2 374.4c-30.4-30.2-71.9-46.8-116.8-46.8-.2 0-.4 0-.6 0h-2317.5c-1-.1-2-.1-3-.1h-167.2c-28.3 0-51.2 22.9-51.2 51.2v219.5c0 28.3 22.9 51.2 51.2 51.2h48.3.2 2439.1c44.9 0 86.5-16.7 117.1-47.1 30.4-30.1 47.1-70.5 47.1-113.8v-.6c.1-43.3-16.5-83.6-46.7-113.5z" fill="url(#b)"/><path d="m1354.3 345.3c.6 0 1.2 0 2 .1h.5.5 2299.7 17.8.6.1c40.2 0 77.2 14.8 104.3 41.6 26.8 26.6 41.6 62.4 41.6 100.9v.6c0 38.5-14.9 74.5-41.9 101.2-27.3 27-64.5 41.9-104.7 41.9h-2439.2c-.1 0-.3 0-.4 0h-48.1c-18.4 0-33.4-15-33.4-33.4v-219.5c0-18.4 15-33.4 33.4-33.4zm0-17.8h-167.2c-28.3 0-51.2 22.9-51.2 51.2v219.5c0 28.3 22.9 51.2 51.2 51.2h48.3.2 2439.1c44.9 0 86.5-16.7 117.1-47.1 30.4-30.1 47.1-70.5 47.1-113.8v-.6c0-43.3-16.6-83.6-46.8-113.5-30.4-30.2-71.9-46.8-116.8-46.8-.2 0-.4 0-.6 0h-2317.4c-1 0-2-.1-3-.1z" fill="url(#d)"/><path d="m826.9 0h-826.9v111.4l672.7 236.6h383.4v-118.8c0-126.6-102.6-229.2-229.2-229.2zm-185 368-289.7-101.9v416l-128.9 46.2v145.3h512v-244.5h-93.4zm30.8 230.3h383.4v-219.5h-383.4z" fill="url(#e)"/><path d="m826.9 17.8c116.6 0 211.4 94.8 211.4 211.4v101h-362.6l-657.9-231.4v-81zm0-17.8h-826.9v111.4l672.7 236.6h383.4v-118.8c0-126.6-102.6-229.2-229.2-229.2z" fill="url(#f)"/><path d="m370 291.2 254.1 89.4v248.5 17.8h17.8 75.5v208.9h-476.3v-115l117.1-42 11.8-4.2v-12.6zm-17.8-25.1v416l-128.9 46.2v145.3h512v-244.5h-93.4v-261.1z" fill="url(#g)"/><path d="m1038.3 396.6v183.9h-347.8v-183.9zm17.8-17.8h-383.4v219.5h383.4z" fill="url(#h)"/><path d="m1056.1 348-17.8-17.8h-362.6l-3 17.8z" fill="url(#j)"/><path d="m690.5 580.5-17.8 17.8h383.4l-17.8-17.8z" fill="url(#k)"/><path d="m223.3 873.6 17.8-17.8h476.3l17.9 17.8z" fill="url(#m)"/><path d="m223.3 728.3 17.8 12.5v115l-17.8 17.8z" fill="url(#n)"/><path d="m352.2 682 17.8 12.6-128.9 46.2-17.8-12.5" fill="url(#o)" opacity=".25"/><path d="m352.2 266.1v416l17.8 12.5v-403.4z" fill="url(#p)"/><path d="m17.8 98.8-17.8 12.6 672.7 236.6 3-17.8z" fill="url(#q)"/><path d="m672.7 378.8v219.5l17.8-17.8v-183.9z" fill="url(#r)"/><path d="m0 0v111.4l17.8-12.6v-81z" fill="url(#s)"/><path d="m641.9 629.1-17.8 17.8h93.3l17.9-17.8z" fill="url(#t)"/><path d="m1038.3 396.6 17.8-17.8h-383.4l17.8 17.8z" fill="url(#u)"/><path d="m624.1 380.6 17.8-12.6-289.7-101.9 17.8 25.1z" fill="url(#v)"/><path d="m1187.2 598.3h48.3v-85h104.7v-43.9h-104.7v-46.8h118.8v-43.9h-167.1z"/><path d="m1379.4 378.7h48.3v219.5h-48.3z"/><path d="m1514.6 458.7 106.3 139.6h41.1v-219.6h-47.7v135.2l-102.9-135.2h-44.5v219.6h47.7z"/><path d="m1729.4 598.3 20.1-49.2h92.8l20.1 49.2h50.5l-94.1-221.1h-44.5l-94.1 221.1zm66.5-163.1 29.2 71.2h-58.3z"/><path d="m2088.8 554.4h-109.5v-175.7h-48.3v219.6h157.8z"/><path d="m2374.5 538.1v-.6c0-29.5-15.7-44.2-41.1-53.9 15.7-8.8 28.9-22.6 28.9-47.4v-.6c0-34.5-27.6-56.8-72.4-56.8h-101.9v219.5h104.4c49.5 0 82.1-20.1 82.1-60.2zm-139.6-117h47.7c20.4 0 31.7 8.2 31.7 22.6v.6c0 16.3-13.5 23.2-34.8 23.2h-44.5v-46.4zm0 86.5h55.8c24.8 0 35.8 9.1 35.8 23.8v.6c0 16.3-12.9 23.8-34.2 23.8h-57.4z"/><path d="m2586.5 378.7h-48.3v125.8c0 34.8-17.9 52.7-47.4 52.7s-47.4-18.5-47.4-54.3v-124.2h-48.3v125.4c0 64.6 36.1 97.5 95 97.5 59 0 96.3-32.6 96.3-99.1v-123.8z"/><path d="m2668.3 528h37.9l47 70.3h56.5l-53.6-78.4c27.9-10.3 47-32.6 47-68.1v-.6c0-45.2-31-72.4-82.8-72.4h-100.3v219.5h48.3zm0-105.7h48c23.5 0 37.9 10.7 37.9 31.4v.6c0 18.5-13.5 31-37 31h-48.9z"/><path d="m2878.8 458.7 106.3 139.6h41.1v-219.6h-47.7v135.2l-102.9-135.2h-44.5v219.6h47.7z"/><path d="m3141.6 378.7v219.6h47.6v-139.6l106.4 139.6h41v-219.6h-47.6v135.2l-102.9-135.2z"/><path d="m3539.2 421.7v-43h-165.6v219.6h167.2v-43h-119.2v-46.1h103.5v-43h-103.5v-44.5z"/><path d="m3675.3 377.6c-66.2 0-114.3 49.9-114.3 110.9v.6c0 61 47.5 110.3 113.7 110.3s114.3-49.9 114.3-110.9v-.6c0-60.9-47.5-110.3-113.7-110.3zm64.4 111.6c0 36.8-26.3 66.8-64.3 66.8s-64.9-30.6-64.9-67.4v-.6c0-36.8 26.3-66.8 64.3-66.8s64.9 30.6 64.9 67.4z"/></svg>