<svg enable-background="new 0 0 3840 895.2" height="895.20264" viewBox="0 0 3840 895.20262" width="3840" xmlns="http://www.w3.org/2000/svg"><g transform="translate(0 .002355)"><path d="m341.5 590.4c-27.4-38.9-72.7-64.3-123.9-64.3-83.8 0-151.6 67.9-151.6 151.6s67.9 151.6 151.6 151.6c60.8 0 113.2-35.8 137.4-87.5h-133.9v-69h213.8c.1 1.6.1 3.2.1 4.8 0 22.3-3.3 43.8-9.6 64.1-27.4 88.8-110.1 153.5-207.9 153.5-120.1.2-217.5-97.3-217.5-217.4 0-120.2 97.4-217.5 217.6-217.5 89 0 165.5 53.6 199.2 130.2h-75.3z"/><path d="m665.8 464.5-274.8 414h85.1l58.7-88.4h131.1v88.6h70.9v-414.2zm-84 254.7 84-126.5v126.5z"/><path d="m1291.9 464.5-189.6 285.4v-285.4h-70.9l-274.9 414h85.2l189.7-285.8v286h70.9v-.5l189.6-285.5v286h70.9v-414.2z"/><path d="m1635.5 535.4v-70.9h-215.4v414.2l70.9-.3h144.5v-70.9h-144.5v-96.5h144.5v-70.9h-144.5v-104.7z"/><path d="m2014.4 736.3c22.7-51.2 56.8-128 56.8-128h-69.6l-36.6 82.5-54.5-50.3c25-20.1 46.9-45.4 46.9-87.7 0-22.7-9-44.2-25.2-60.4-18.5-18.5-44.6-29.1-71.6-29.1-46.8 0-95.2 33.5-95.2 89.5 0 39 21.5 64.2 42.8 82.9-39.5 28-73.9 57.8-73.9 119.2 0 34.9 12.6 66.6 35.5 89.5 23.1 23.1 55.3 35.8 90.8 35.8 67.2 0 100.6-32.5 126.1-82.8l82.4 76.2 43.2-46.7zm-178.7-199.8c6-6 15.6-9.7 25-9.7 10 0 20.2 4 26.6 10.4 4.5 4.4 6.6 9.5 6.6 15.5 0 17.8-8.6 27.6-31.9 44.9-20.4-16.4-32.9-27.8-32.9-44.9-.1-6.4 2.1-11.7 6.6-16.2m100.8 218.5c-21.9 48.9-37.5 61.5-75.8 61.5-18.8 0-34.7-6-45.9-17.1-11.1-11.1-16.9-26.5-16.9-44.6 0-33.4 17.2-46.7 59.4-76 .2-.1.5-.3.6-.5l79.8 73.7z"/><path d="m2829.7 464.6-274.9 414h85.1l58.7-88.4h131.1v88.6h70.9v-414.2zm-84 254.7 84-126.4v126.4z"/><path d="m2249.7 878.8 189.5-285.5v285.5h70.9l274.9-414h-85.1l-189.8 285.7v-285.9h-70.9v.5l-189.5 285.4v-285.9h-70.9v414.2z"/><path d="m3769.1 464.6v166.7h-128v-166.7h-70.9v414.1h70.9v-176.4h128v176.4h70.9v-414.1z"/><path d="m3159.7 464.6h-231.4v70.9h80.3v343.2h70.9v-343.2h80.2z"/><path d="m3470 767.1c-27.2 30.3-66.6 49.2-110.5 49.2-82.2 0-148.8-66.6-148.8-148.7s66.6-148.7 148.8-148.7c43.2 0 82.1 19.4 109.3 49.3h83.1c-36.3-69-108.8-117.8-192.3-117.8-120 0-217.3 97.3-217.3 217.3s97.3 217.3 217.3 217.3c84.1 0 157-48 193.1-117.9z"/><path d="m1476.7 205.8-70.4-114.2h-51.1v163.4h50.6v-114.1l70.9 114.2h50.6v-163.5h-50.6zm400.5-59.4v-16.1h-26.7v-22.1h-49.3v22.1h-26.7v16.1h26.7v108.6h49.3v-108.6zm-321.8 108.6h49.3v-108.6h-49.3zm0-130.3h49.3v-33.6h-49.3zm860.8 14.3c-39.6 0-71.8 27.2-71.8 61.2 0 33.6 32.2 61.2 71.8 61.2s71.8-27.2 71.8-61.2-31.3-61.2-71.8-61.2zm19.8 83.8c0 17.5-10.1 24.4-20.3 24.4-9.7 0-20.3-7.4-20.3-24.4 0-6.4 0-23.5 0-23.5s0-16.1 0-22.6c0-17 10.1-24.4 20.3-24.4 9.7 0 20.3 6.9 20.3 24.4v23zm-155.6-70.9c-7.8-4.6-16.1-8.7-27.6-9.7-35.4-3.2-62.6 28.1-62.6 57.1 0 37.7 29 52 33.6 53.9 16.6 7.8 37.7 7.8 56.6-4.1v6.4h48.3v-163.4h-48.3c0-.5 0 34.5 0 59.8zm0 48.3v19.3c0 16.6-11.5 21.2-19.3 21.2s-19.3-4.6-19.3-21.2c0-6 0-19.3 0-19.3s0-13.8 0-19.3c0-17 11.5-21.2 19.3-21.2s19.3 4.1 19.3 21.2zm-560.6-58.9c-16.1.5-29.9 7.4-39.1 16.6 0-2.8 0-11.5 0-11.5h-48.8v108.6h48.8s0-66.7 0-71.4c0-9.7 10.1-19.8 23.5-19.8 13.3 0 22.6 10.6 22.6 19.8v71.4h48.8s0-51.6 0-58.9c-.1-43.3-37.4-55.2-55.8-54.8zm399.5 0c-16.1.5-29.9 7.4-39.1 16.6 0-2.8 0-11.5 0-11.5h-48.8v108.6h48.8s0-66.7 0-71.4c0-9.7 10.1-19.8 23.5-19.8 13.3 0 22.6 10.6 22.6 19.8v71.4h48.8s0-51.6 0-58.9c-.5-43.3-37.8-55.2-55.8-54.8zm-103.6 59.9c0-33.6-32.7-61.7-72.7-61.7s-72.3 27.2-72.3 61.2c0 33.6 32.2 61.2 72.3 61.2 33.1 0 61.2-18.9 70-44.7h-48.8v6.4c0 19.8-12.9 24.4-20.3 24.4s-20.7-4.6-20.7-24.4c0-6 0-22.6 0-22.6h92.5zm-88.8-38.2c3.7-6.9 11-9.7 17.5-10.1 6.4 0 13.3 3.2 17.5 10.1 3.2 5.5 3.2 12 3.2 21.2h-41c-.9-9.7-.9-15.7 2.8-21.2zm581.4-51.1c0-5.5-4.1-7.8-12-7.8h-11v28.1h6.9v-11.5h3.2l5.5 11.5h7.4l-6-12.4c3.7-1.5 6-4.3 6-7.9zm-12.9 4.1h-3.2v-8.3h2.8c4.1 0 6 1.4 6 4.1.4 3.3-1.9 4.2-5.6 4.2zm0-23c-13.8 0-25.3 11-25.3 25.3 0 13.8 11.5 25.3 25.3 25.3s25.3-11.5 25.3-25.3c0-14.3-11.5-25.3-25.3-25.3zm0 45.6c-11 0-20.3-9.2-20.3-20.3s9.2-20.3 20.3-20.3c11 0 20.3 9.2 20.3 20.3s-8.8 20.3-20.3 20.3zm-54.8-138.6h-1041.2c-110-.5-184.1 79.2-184.1 174s73.7 173.1 184.6 173.1h1040.8c110.5 0 184.6-78.3 184.6-173.1-.5-95.3-74.7-174.5-184.7-174zm-.4 304.7h-1040.4c-87.9.5-141.3-58.5-141.3-131.2s53.9-130.7 141.3-131.2h1040.3c87.5 0 141.3 58.5 141.3 131.2s-53.8 131.2-141.2 131.2zm.4-304.7h-1041.2c-110-.5-184.1 79.2-184.1 174s73.7 173.1 184.6 173.1h1040.8c110.5 0 184.6-78.3 184.6-173.1-.5-95.3-74.7-174.5-184.7-174zm-.4 304.7h-1040.4c-87.9.5-141.3-58.5-141.3-131.2s53.9-130.7 141.3-131.2h1040.3c87.5 0 141.3 58.5 141.3 131.2s-53.8 131.2-141.2 131.2zm.4-304.7h-1041.2c-110-.5-184.1 79.2-184.1 174s73.7 173.1 184.6 173.1h1040.8c110.5 0 184.6-78.3 184.6-173.1-.5-95.3-74.7-174.5-184.7-174zm-.4 304.7h-1040.4c-87.9.5-141.3-58.5-141.3-131.2s53.9-130.7 141.3-131.2h1040.3c87.5 0 141.3 58.5 141.3 131.2s-53.8 131.2-141.2 131.2z" fill="#e31e26"/></g></svg>