<svg enable-background="new 0 0 3839 447.1" viewBox="0 0 3839 447.1" xmlns="http://www.w3.org/2000/svg"><path d="m1348.9 9c48.3 0 78.2 20.7 106.6 54.5 10.4-9.8 21.5-18.6 33.5-26.1 30-18.7 63.1-28.2 96.1-28.4h448.8l-29.8 46.9h564.7l51.1 88.1 46.7-88.1h373.6l93.8 73.6v-73.6h705v337.8h-650.5l-94.8-73.7v73.7h-527.1l-35.9-58.1c-28.9 32.5-80.7 58-165.6 58l-516.5.2-7.1 46.8h-180.9l4-25.5c-1.8 1.2-3.6 2.5-5.4 3.6-41.7 26.1-89.6 34.6-134.7 24.2-34.6-8-64.6-26.5-88-51.9-30.4 30-71.4 49.6-110.4 49.6h-888.3l-14.1-80.4-36.3 80.4h-148.3c-46.7 7.9-93.7 1.7-135.4-19.7-58-29.7-96.1-83.4-102.1-143.7-10.1-100.2 28.3-180.3 111-231.4 79.4-49.2 163.7-58.8 250.7-28.7l16 5.6 6-13.7h166l12.5 75.3 24.5-75.3" fill="#232f95"/><g fill="#fff"><path d="m2769.3 112h-68.5l-1.9 3.4-78.4 142.5-83.2-142.6-1.9-3.3h-73.6l6 9.9 14.1 23.3c-22.7-21.6-57.4-33.3-102.7-33.3h-148v185.2l-109.6-181.8-1.9-3.2h-56.6l-1.9 3.2-124.7 210.1-5.9 9.9h49v.1h109v-49.4h-64.1l64.2-115.7 90.6 161.7 1.9 3.3h73l-.1-.2h112.2c96.7 0 145.8-37.8 145.8-112.3 0-12.9-1.7-24.9-4.9-35.7l87.8 144.9 1.9 3.1h42.8l1.9-3.3 121.9-210.1zm-413.8 171.1h-59.5v-120.5h83.9c45.4 0 66.5 18.4 66.5 57.7 0 47-22.9 62.8-90.9 62.8z"/><path d="m3196.6 112h-6.6v132.7l-167.8-131.3-1.8-1.4h-44v185.4l-109.8-182.1-1.9-3.2h-56.6l-1.9 3.2-124.7 210.1-5.9 9.9h66.5l.2-.2h91.5v-49.4h-64.2l64.1-115.4 90.6 161.6 1.9 3.4h73.1l-.1-.1h36.9v-134.6l167.2 133.2 1.8 1.4h44v-223.2z"/><path d="m3460.6 112h-130.9c-45.9 0-61.4 14.2-61.4 56.3v110.6c0 42 15.5 56.2 61.4 56.2h130.9c46 0 61.5-14.2 61.5-56.2v-31.3h-6.5l-51.5-.1h-6.6v34.4h-124.7v-117.9h124.7v31h6.6l51.5.2h6.6v-26.9c-.1-42.6-15-56.3-61.6-56.3"/><path d="m3777.6 283.1h-169.9v-39.1h101.4v-49.2h-101.4v-32.3h173.9v-50.5h-238.5v223.2h241v-52.1z"/><path d="m799.8 64.4-74.2 174.5-32-174.5h-64.7l-83.6 257.4-42.9-257.4h-80.7l-122.2 277.3 18.2-116h-121.4l-9.3 59.7h50.7l-5.8 32c-29.1 11.6-78.5 7.2-99.6-30.6-13.3-23.9-25.7-77.4 30.5-126.5 45.8-40 125.1-47.2 170.9-26.2 0 0 5.8-33.5 10.2-64.7-88-30.6-156.3-5.1-202.1 23.3-62.4 38.6-92.4 97.4-84.4 177.4 9.2 92.8 129.4 151.3 231.2 92.4.9-.5 1.6-1 2.3-1.4l-9.6 21.7h68.3l42.9-95.2h75.6l16.7 95.2h111.3l56.7-178.1 36.4 178.1h43.6l85.1-197 8.7 197h65.5l-13.8-318.4zm-381 161.4 27.6-61.8 12 61.8z"/><path d="m897.2 382.9h182.5l11-68.4h-114.3l9.1-56.7h99.3l10.9-68.3h-100.3l8.7-56.8h114.2l10.9-68.3h-181.1z"/><path d="m1788.7 168.4-40.7-104h-75l77.1 167.9-23.7 150.6h65.4l20.1-133.1 117.8-185.4h-76.3z"/><path d="m1610.2 67.1c-72.5-16.7-147.8 41-168.1 129.1-20.4 88 22 173 94.5 189.7s147.8-41 168.1-129.1c20.4-87.9-22-172.9-94.5-189.7m25.6 187.2c-17.7 53-60 83.4-94.7 67.9-34.6-15.5-48.4-71-30.7-124 17.6-53 60-83.4 94.6-67.9 34.7 15.6 48.5 71.1 30.8 124z"/><path d="m1350.7 66.2c-35.4-.6-122.7 0-122.7 0h.7l-50.5 316h147.2c60.6 0 149.3-89.3 68.6-162.3 83-85.9.8-153-43.3-153.7m-38.2 254.7c-36.1 0-57.7 0-57.7 0l10.1-63.5h54.8c51.9 0 50.5 63.5-7.2 63.5zm7.9-128.4c-36.1 0-45.5 0-45.5 0l10.1-59.2h42.6c46.2 0 36.8 59.2-7.2 59.2z"/></g></svg>