<?xml version="1.0" encoding="UTF-8" standalone="no"?>
<svg
   enable-background="new 0 0 3839 447.1"
   height="447"
   viewBox="0 0 3840 446.99999"
   width="3840"
   version="1.1"
   id="svg11"
   sodipodi:docname="gba.svg"
   inkscape:version="1.3.2 (091e20e, 2023-11-25)"
   xmlns:inkscape="http://www.inkscape.org/namespaces/inkscape"
   xmlns:sodipodi="http://sodipodi.sourceforge.net/DTD/sodipodi-0.dtd"
   xmlns="http://www.w3.org/2000/svg"
   xmlns:svg="http://www.w3.org/2000/svg">
  <defs
     id="defs11" />
  <sodipodi:namedview
     id="namedview11"
     pagecolor="#ffffff"
     bordercolor="#000000"
     borderopacity="0.25"
     inkscape:showpageshadow="2"
     inkscape:pageopacity="0.0"
     inkscape:pagecheckerboard="0"
     inkscape:deskcolor="#d1d1d1"
     inkscape:zoom="0.21510417"
     inkscape:cx="1917.6755"
     inkscape:cy="223.1477"
     inkscape:window-width="1312"
     inkscape:window-height="449"
     inkscape:window-x="0"
     inkscape:window-y="39"
     inkscape:window-maximized="0"
     inkscape:current-layer="svg11" />
  <g
     id="g13">
    <g
       id="g12"
       transform="scale(1,0.99776786)">
      <g
         transform="matrix(1.0002651,0,0,1.001697,-0.017757,0.0215468)"
         id="g11">
        <path
           d="m 1348.9,9 c 48.3,0 78.2,20.7 106.6,54.5 10.4,-9.8 21.5,-18.6 33.5,-26.1 30,-18.7 63.1,-28.2 96.1,-28.4 h 448.8 l -29.8,46.9 h 564.7 l 51.1,88.1 46.7,-88.1 h 373.6 l 93.8,73.6 V 55.9 h 705 V 393.7 H 3188.5 L 3093.7,320 v 73.7 h -527.1 l -35.9,-58.1 c -28.9,32.5 -80.7,58 -165.6,58 l -516.5,0.2 -7.1,46.8 h -180.9 l 4,-25.5 c -1.8,1.2 -3.6,2.5 -5.4,3.6 -41.7,26.1 -89.6,34.6 -134.7,24.2 -34.6,-8 -64.6,-26.5 -88,-51.9 -30.4,30 -71.4,49.6 -110.4,49.6 H 437.8 l -14.1,-80.4 -36.3,80.4 H 239.1 c -46.7,7.9 -93.7,1.7 -135.4,-19.7 C 45.7,391.2 7.6,337.5 1.6,277.2 -8.5,177 29.9,96.9 112.6,45.8 192,-3.4 276.3,-13 363.3,17.1 l 16,5.6 6,-13.7 h 166 L 563.8,84.3 588.3,9"
           fill="#232f95"
           id="path1" />
        <g
           fill="#ffffff"
           id="g10">
          <path
             d="m 2769.3,112 h -68.5 l -1.9,3.4 -78.4,142.5 -83.2,-142.6 -1.9,-3.3 h -73.6 l 6,9.9 14.1,23.3 c -22.7,-21.6 -57.4,-33.3 -102.7,-33.3 h -148 v 185.2 l -109.6,-181.8 -1.9,-3.2 h -56.6 l -1.9,3.2 -124.7,210.1 -5.9,9.9 h 49 v 0.1 h 109 V 286 h -64.1 l 64.2,-115.7 90.6,161.7 1.9,3.3 h 73 l -0.1,-0.2 h 112.2 c 96.7,0 145.8,-37.8 145.8,-112.3 0,-12.9 -1.7,-24.9 -4.9,-35.7 l 87.8,144.9 1.9,3.1 h 42.8 l 1.9,-3.3 121.9,-210.1 z M 2355.5,283.1 H 2296 V 162.6 h 83.9 c 45.4,0 66.5,18.4 66.5,57.7 0,47 -22.9,62.8 -90.9,62.8 z"
             id="path2" />
          <path
             d="m 3196.6,112 h -6.6 v 132.7 l -167.8,-131.3 -1.8,-1.4 h -44 v 185.4 l -109.8,-182.1 -1.9,-3.2 h -56.6 l -1.9,3.2 -124.7,210.1 -5.9,9.9 h 66.5 l 0.2,-0.2 h 91.5 v -49.4 h -64.2 l 64.1,-115.4 90.6,161.6 1.9,3.4 h 73.1 l -0.1,-0.1 h 36.9 V 200.6 l 167.2,133.2 1.8,1.4 h 44 V 112 Z"
             id="path3" />
          <path
             d="m 3460.6,112 h -130.9 c -45.9,0 -61.4,14.2 -61.4,56.3 v 110.6 c 0,42 15.5,56.2 61.4,56.2 h 130.9 c 46,0 61.5,-14.2 61.5,-56.2 v -31.3 h -6.5 l -51.5,-0.1 h -6.6 v 34.4 H 3332.8 V 164 h 124.7 v 31 h 6.6 l 51.5,0.2 h 6.6 v -26.9 c -0.1,-42.6 -15,-56.3 -61.6,-56.3"
             id="path4" />
          <path
             d="M 3777.6,283.1 H 3607.7 V 244 h 101.4 v -49.2 h -101.4 v -32.3 h 173.9 V 112 h -238.5 v 223.2 h 241 v -52.1 z"
             id="path5" />
          <path
             d="M 799.8,64.4 725.6,238.9 693.6,64.4 H 628.9 L 545.3,321.8 502.4,64.4 h -80.7 l -122.2,277.3 18.2,-116 H 196.3 l -9.3,59.7 h 50.7 l -5.8,32 c -29.1,11.6 -78.5,7.2 -99.6,-30.6 -13.3,-23.9 -25.7,-77.4 30.5,-126.5 45.8,-40 125.1,-47.2 170.9,-26.2 0,0 5.8,-33.5 10.2,-64.7 -88,-30.6 -156.3,-5.1 -202.1,23.3 -62.4,38.6 -92.4,97.4 -84.4,177.4 9.2,92.8 129.4,151.3 231.2,92.4 0.9,-0.5 1.6,-1 2.3,-1.4 l -9.6,21.7 h 68.3 l 42.9,-95.2 h 75.6 l 16.7,95.2 h 111.3 l 56.7,-178.1 36.4,178.1 h 43.6 l 85.1,-197 8.7,197 h 65.5 L 878.3,64.4 Z m -381,161.4 27.6,-61.8 12,61.8 z"
             id="path6" />
          <path
             d="m 897.2,382.9 h 182.5 l 11,-68.4 H 976.4 l 9.1,-56.7 h 99.3 l 10.9,-68.3 H 995.4 l 8.7,-56.8 h 114.2 l 10.9,-68.3 H 948.1 Z"
             id="path7" />
          <path
             d="M 1788.7,168.4 1748,64.4 h -75 l 77.1,167.9 -23.7,150.6 h 65.4 l 20.1,-133.1 117.8,-185.4 h -76.3 z"
             id="path8" />
          <path
             d="m 1610.2,67.1 c -72.5,-16.7 -147.8,41 -168.1,129.1 -20.4,88 22,173 94.5,189.7 72.5,16.7 147.8,-41 168.1,-129.1 20.4,-87.9 -22,-172.9 -94.5,-189.7 m 25.6,187.2 c -17.7,53 -60,83.4 -94.7,67.9 -34.6,-15.5 -48.4,-71 -30.7,-124 17.6,-53 60,-83.4 94.6,-67.9 34.7,15.6 48.5,71.1 30.8,124 z"
             id="path9" />
          <path
             d="m 1350.7,66.2 c -35.4,-0.6 -122.7,0 -122.7,0 h 0.7 l -50.5,316 h 147.2 c 60.6,0 149.3,-89.3 68.6,-162.3 83,-85.9 0.8,-153 -43.3,-153.7 m -38.2,254.7 c -36.1,0 -57.7,0 -57.7,0 l 10.1,-63.5 h 54.8 c 51.9,0 50.5,63.5 -7.2,63.5 z m 7.9,-128.4 c -36.1,0 -45.5,0 -45.5,0 l 10.1,-59.2 h 42.6 c 46.2,0 36.8,59.2 -7.2,59.2 z"
             id="path10" />
        </g>
      </g>
    </g>
  </g>
</svg>
