<?xml version="1.0" encoding="UTF-8" standalone="no"?>
<svg
   enable-background="new 0 0 3839 589.5"
   height="590"
   viewBox="0 0 3840 590"
   width="3840"
   version="1.1"
   id="svg31"
   sodipodi:docname="intellivision.svg"
   inkscape:version="1.3.2 (091e20e, 2023-11-25)"
   xmlns:inkscape="http://www.inkscape.org/namespaces/inkscape"
   xmlns:sodipodi="http://sodipodi.sourceforge.net/DTD/sodipodi-0.dtd"
   xmlns="http://www.w3.org/2000/svg"
   xmlns:svg="http://www.w3.org/2000/svg">
  <defs
     id="defs31" />
  <sodipodi:namedview
     id="namedview31"
     pagecolor="#ffffff"
     bordercolor="#000000"
     borderopacity="0.25"
     inkscape:showpageshadow="2"
     inkscape:pageopacity="0.0"
     inkscape:pagecheckerboard="0"
     inkscape:deskcolor="#d1d1d1"
     inkscape:zoom="0.24557292"
     inkscape:cx="1922.0361"
     inkscape:cy="293.19194"
     inkscape:window-width="1312"
     inkscape:window-height="449"
     inkscape:window-x="0"
     inkscape:window-y="23"
     inkscape:window-maximized="0"
     inkscape:current-layer="svg31" />
  <g
     id="g32"
     transform="scale(1,1.0005157)">
    <g
       fill="#0035a0"
       transform="scale(1.0002344)"
       id="g31">
      <path
         d="M 0,51.1 H 144.4 V 579.9 H 0 Z"
         id="path1" />
      <path
         d="M 467.9,150 V 359 L 331.7,171.2 c -43.2,-59.6 -137.5,-29 -137.5,44.6 v 364 h 71.7 V 326.5 l 172.3,237.7 c 31.8,44 101.2,21.4 101.2,-32.8 V 150 Z"
         id="path2" />
      <path
         d="M 3767.4,150 V 359 L 3631.2,171.2 c -43.2,-59.6 -137.5,-29 -137.5,44.6 v 364 h 71.7 V 326.5 l 172.3,237.7 c 31.8,44 101.2,21.4 101.2,-32.8 V 150 Z"
         id="path3" />
      <path
         d="m 2333.9,23.2 h -74 L 2144,474.5 2053.9,150 h -149.8 l 110.1,367.9 c 29.2,97.5 168.3,94.8 193.6,-3.8 z"
         id="path4" />
      <path
         d="m 792.6,508 c -11.1,0 -20,-9 -20,-20 V 241.8 c 0,-11.1 9,-20.1 20.1,-20.1 h 82.2 V 150 H 772.5 V 51.1 L 516.2,221.7 h 91.9 c 11.1,0 20.1,9 20.1,20.1 v 245.9 c 0,50.9 41.3,92.1 92.1,92.1 h 52.2 102.2 v -71.7 z"
         id="path5" />
      <path
         d="M 1361.3,488 V 150 H 1217 v 337.6 c 0,50.9 41.3,92.1 92.1,92.1 h 52.2 102.2 V 508 h -82.2 c -11.1,0 -20,-9 -20,-20 z"
         id="path6" />
      <path
         d="m 1632.7,508 c -11.1,0 -20,-9 -20,-20 V 150 h -144.3 v 337.6 c 0,50.9 41.3,92.1 92.1,92.1 h 52.2 102.2 V 508 Z"
         id="path7" />
      <path
         d="M 1195,221.7 V 150 h -158.5 -52.2 c -50.9,0 -92.2,41.3 -92.2,92.2 v 245.5 c 0,50.9 41.3,92.2 92.2,92.2 h 52.2 158.5 v -71.7 h -138.4 c -11.1,0 -20.1,-9 -20.1,-20.1 V 400.8 H 1168 v -71.7 h -131.5 v -87.2 c 0,-11.1 9,-20.1 20.1,-20.1 z"
         id="path8" />
      <path
         d="m 1728.1,257.8 h 144.4 v 321.9 h -144.4 z"
         id="path9" />
      <path
         d="m 1728.1,150 h 144.4 v 71.7 h -144.4 z"
         id="path10" />
      <path
         d="m 2850.1,257.8 h 144.4 v 321.9 h -144.4 z"
         id="path11" />
      <path
         d="m 2850.1,150 h 144.4 v 71.7 h -144.4 z"
         id="path12" />
      <path
         d="M 2319.6,257.8 H 2464 v 321.9 h -144.4 z"
         id="path13" />
      <path
         d="M 2319.6,150 H 2464 v 71.7 h -144.4 z"
         id="path14" />
      <path
         d="m 3244.4,151.6 c -80,0 -223.8,18.1 -223.8,218.6 0,200.5 143.8,218.6 223.8,218.6 80,0 223.8,-18.1 223.8,-218.6 0,-200.5 -143.8,-218.6 -223.8,-218.6 z m 65.4,297.1 c 0,33.7 -26.9,81.1 -65.4,81.1 -38.5,0 -65.4,-47.3 -65.4,-81.1 v -157 c 0,-33.7 26.9,-81.1 65.4,-81.1 38.5,0 65.4,47.3 65.4,81.1 z"
         id="path15" />
      <path
         d="m 2822.5,396.3 c -0.4,-2.6 -1,-5 -1.5,-7.5 -14.3,-66.3 -66.3,-79.1 -147.3,-100.6 0,0 -0.4,-0.1 -0.9,-0.3 l -18.6,-5 c -35.1,-9.4 -28.3,-61.3 8.1,-61.3 h 15.9 15.9 85.2 l -0.5,-71.7 h -138 c -83.6,0 -148.4,58.1 -148.4,143.1 0,87.6 96.6,115.4 147.7,120.9 32.1,3.4 63.1,16.8 63.1,48.3 0,25.3 -21.8,45.9 -45.5,45.9 H 2492.4 V 579 c 0,0 186.3,0.9 188.9,0.8 80,-3.9 143.6,-69.2 143.6,-148.4 0,-13.2 -0.7,-24.7 -2.4,-35.1 z"
         id="path16" />
      <path
         d="m 2820.8,7.2 c 0,-3.9 -3.1,-7 -7,-7 h -45.4 c -3.9,0 -7,3.1 -7,7 v 33.4 c 0,3.9 -3.1,7 -7,7 h -9.9 c -3.9,0 -7,3.1 -7,7 v 42.9 c 0,3.9 3.1,7 7,7 h 69.2 c 3.9,0 7,-3.1 7,-7 0,-3.9 -3.1,-7 -7,-7 h -55.2 c -3.9,0 -7,-3.1 -7,-7 v -15 c 0,-3.9 3.1,-7 7,-7 h 55.2 c 3.9,0 7,-3.1 7,-7 0,-3.9 -3.1,-7 -7,-7 h -13.9 c -3.9,0 -7,-3.1 -7,-7 V 21 c 0,-3.9 3.1,-7 7,-7 h 14 c 3.9,0.2 7,-3 7,-6.8 z"
         id="path17" />
      <path
         d="m 3023.7,7.2 c 0,-3.9 -3.1,-7 -7,-7 h -45.4 c -3.9,0 -7,3.1 -7,7 v 33.4 c 0,3.9 -3.1,7 -7,7 h -9.9 c -3.9,0 -7,3.1 -7,7 v 42.9 c 0,3.9 3.1,7 7,7 h 69.2 c 3.9,0 7,-3.1 7,-7 0,-3.9 -3.1,-7 -7,-7 h -55.2 c -3.9,0 -7,-3.1 -7,-7 v -15 c 0,-3.9 3.1,-7 7,-7 h 55.2 c 3.9,0 7,-3.1 7,-7 0,-3.9 -3.1,-7 -7,-7 h -13.9 c -3.9,0 -7,-3.1 -7,-7 V 21 c 0,-3.9 3.1,-7 7,-7 h 14 c 3.9,0.2 7,-3 7,-6.8 z"
         id="path18" />
      <path
         d="m 3189.6,7.2 c 0,-3.9 -3.1,-7 -7,-7 h -45.4 c -3.9,0 -7,3.1 -7,7 v 33.4 c 0,3.9 -3.1,7 -7,7 h -9.9 c -3.9,0 -7,3.1 -7,7 v 42.9 c 0,3.9 3.1,7 7,7 h 69.2 c 3.9,0 7,-3.1 7,-7 0,-3.9 -3.1,-7 -7,-7 h -55.1 c -3.9,0 -7,-3.1 -7,-7 v -15 c 0,-3.9 3.1,-7 7,-7 h 55.2 c 3.9,0 7,-3.1 7,-7 0,-3.9 -3.1,-7 -7,-7 h -14 c -3.9,0 -7,-3.1 -7,-7 V 21 c 0,-3.9 3.1,-7 7,-7 h 14 c 3.9,0.2 7,-3 7,-6.8 z"
         id="path19" />
      <path
         d="m 2889.2,73 h -31.6 c -3.9,0 -7,-3.1 -7,-7 V 7.2 c 0,-3.9 -3.1,-7 -7,-7 -3.9,0 -7,3.1 -7,7 v 90.2 c 0,3.9 3.1,7 7,7 h 45.6 c 3.9,0 7,-3.1 7,-7 V 80 c 0,-3.9 -3.2,-7 -7,-7 z"
         id="path20" />
      <path
         d="m 3089.1,73.1 h -31.6 c -3.9,0 -7,-3.1 -7,-7 V 7.2 c 0,-3.9 -3.1,-7 -7,-7 -3.9,0 -7,3.1 -7,7 v 90.2 c 0,3.9 3.1,7 7,7 h 45.6 c 3.9,0 7,-3.1 7,-7 V 80 c 0,-3.9 -3.1,-6.9 -7,-6.9 z"
         id="path21" />
      <path
         d="M 3424.9,40.6 V 7.1 c 0,-3.9 -3.1,-7 -7,-7 h -55.2 c -3.9,0 -7,3.1 -7,7 v 90.2 c 0,3.9 3.1,7 7,7 h 17.4 c 3.9,0 7,-3.1 7,-7 V 68.5 c 0,-3.9 3.1,-7 7,-7 h 23.8 c 3.9,0 7,3.1 7,7 v 28.8 c 0,3.9 3.1,7 7,7 3.9,0 7,-3.1 7,-7 V 54.4 c 0,-3.9 -3.1,-7 -7,-7 -3.8,0.2 -7,-3 -7,-6.8 z m -48.1,-26.4 h 27.2 c 3.9,0 7,3.1 7,7 v 19.4 c 0,3.9 -3.1,7 -7,7 h -27.2 c -3.9,0 -7,-3.1 -7,-7 V 21.3 c 0,-4 3.1,-7.1 7,-7.1 z"
         id="path22" />
      <path
         d="M 3269.6,24.6 V 7.2 c 0,-3.9 -3.1,-7 -7,-7 H 3211 c -3.9,0 -7,3.1 -7,7 v 90.2 c 0,3.9 3.1,7 7,7 h 51.6 c 3.9,0 7,-3.1 7,-7 0,-3.9 -3.1,-7 -7,-7 h -37.7 c -3.9,0 -7,-3.1 -7,-7 v -45 c 0,-3.9 3.1,-7 7,-7 h 37.7 c 3.8,0.2 7,-3 7,-6.8 z"
         id="path23" />
      <path
         d="M 3746.4,24.6 V 7.2 c 0,-3.9 -3.1,-7 -7,-7 h -51.6 c -3.9,0 -7,3.1 -7,7 v 90.2 c 0,3.9 3.1,7 7,7 h 51.6 c 3.9,0 7,-3.1 7,-7 0,-3.9 -3.1,-7 -7,-7 h -37.7 c -3.9,0 -7,-3.1 -7,-7 v -45 c 0,-3.9 3.1,-7 7,-7 h 37.7 c 3.9,0.2 7,-3 7,-6.8 z"
         id="path24" />
      <path
         d="m 2545.8,4.5 -29.7,69.3 c -1.6,4 -7.7,2.8 -7.7,-1.6 V 7.3 c 0,-3.9 -3.1,-7 -7,-7 h -15.1 c -2.8,0 -5.3,1.6 -6.5,4.3 l -20.5,48.1 c -1.6,3.7 -7,3.1 -7.7,-0.9 l -7.7,-45.6 c -0.6,-3.4 -3.5,-5.9 -6.9,-5.9 h -32.4 c -3.9,0 -7,3.1 -7,7 v 24.4 65.6 c 0,3.9 3,7.2 6.8,7.3 4,0.1 7.2,-3 7.2,-7 V 38.7 c 0,-3.9 3.1,-7 7,-7 h 9.5 c 3.4,0 6.4,2.6 6.9,5.9 l 5.4,32.3 c 0.6,3.4 3.5,5.9 6.9,5.9 h 12.5 c 2.8,0 5.3,-1.6 6.5,-4.3 l 20.2,-47.1 c 1.6,-4 7.7,-2.8 7.7,1.6 v 71.6 c 0,3.9 3.1,7 7,7 h 12.1 c 2.8,0 5.3,-1.6 6.5,-4.3 l 13.5,-31.6 c 1.1,-2.6 3.6,-4.3 6.5,-4.3 h 23.1 c 3.9,0 7,3.1 7,7 v 26.1 c 0,3.9 3.1,7 7,7 h 17.4 c 3.9,0 7,-3.1 7,-7 v -83.1 -7 c 0,-3.9 -3.1,-7 -7,-7 H 2552 c -2.6,-0.1 -5.1,1.5 -6.2,4.1 z m 15.6,9.7 h 19 c 3.9,0 7,3.1 7,7 v 22.2 c 0,3.9 -3.1,7 -7,7 H 2552 c -5,0 -8.3,-5.1 -6.5,-9.8 l 9.5,-22.2 c 1.1,-2.5 3.6,-4.2 6.4,-4.2 z"
         id="path25" />
      <path
         d="m 3345.7,7.2 c 0,-3.9 -3.1,-7 -7,-7 h -18.8 -14 -18.9 c -3.9,0 -7,3.1 -7,7 v 17.4 c 0,3.9 3.1,7 7,7 h 11.9 c 3.9,0 7,3.1 7,7 v 58.8 c 0,3.9 3.1,7 7,7 3.9,0 7,-3.1 7,-7 V 38.6 c 0,-3.9 3.1,-7 7,-7 h 11.9 c 3.9,0 7,-3.1 7,-7 V 7.2 Z"
         id="path26" />
      <path
         d="M 3660,67.4 V 5.8 c 0,-3.1 -2.6,-5.6 -5.6,-5.6 h -2.6 c -3.1,0 -5.6,2.6 -5.6,5.6 v 61.4 c 0,3.1 -2.6,5.6 -5.6,5.6 h -7.9 c -3.1,0 -5.6,2.6 -5.6,5.6 v 20 c 0,3.1 2.6,5.6 5.6,5.6 h 33.3 c 3.1,0 5.6,-2.6 5.6,-5.6 v -20 c 0,-3.1 -2.6,-5.6 -5.6,-5.6 -3.4,0.3 -6,-2.4 -6,-5.4 z"
         id="path27" />
      <path
         d="m 3599.8,0.2 h -46.3 -7 c -3.9,0 -7,3.1 -7,7 v 90.2 c 0,3.9 3.1,7 7,7 3.9,0 7,-3.1 7,-7 V 38.6 c 0,-3.9 3.1,-7 7,-7 h 32.3 c 3.9,0 7,3.1 7,7 v 58.8 c 0,3.9 3.1,7 7,7 3.9,0 7,-3.1 7,-7 V 7.2 c 0,-3.9 -3.1,-7 -7,-7 z"
         id="path28" />
      <path
         d="m 3458.7,0.2 h -1.1 c -3.9,0 -7,3.2 -7,7 v 90.2 c 0,3.9 3.1,7 7,7 h 60.4 c 3.9,0 7,-3.1 7,-7 V 7.2 c 0,-3.9 -3.1,-7 -7,-7 z m 5.9,65.9 V 21.2 c 0,-3.9 3.1,-7 7,-7 h 32.3 c 3.9,0 7,3.1 7,7 v 44.9 c 0,3.9 -3.1,7 -7,7 h -32.3 c -3.9,0 -7,-3.3 -7,-7 z"
         id="path29" />
      <path
         d="M 3778.5,40.6 V 21.2 c 0,-3.9 3.1,-7 7,-7 h 37.2 c 3.9,0 7,-3.1 7,-7 0,-3.9 -3.1,-7 -7,-7 h -51 c -3.9,0 -7,3.1 -7,7 v 47.5 c 0,3.9 3.1,7 7,7 h 29 c 3.9,0 7,3.1 7,7 v 14.9 c 0,3.9 -3.1,7 -7,7 h -37.8 c -3.9,0 -7,3.1 -7,7 0,3.9 3.1,7 7,7 h 69.2 c 3.9,0 7,-3.1 7,-7 V 54.7 c 0,-3.9 -3.1,-7 -7,-7 h -46.5 c -4,-0.1 -7.1,-3.3 -7.1,-7.1 z"
         id="path30" />
      <path
         d="m 2714,0.2 h -14 -46.1 -14 -18.6 c -3.9,0 -7,3.1 -7,7 v 17.3 c 0,3.9 3.1,7 7,7 h 11.7 c 3.9,0 7,3.1 7,7 V 97 c 0,3.9 3,7.2 6.8,7.3 4,0.1 7.2,-3 7.2,-7 V 38.5 c 0,-3.9 3.1,-7 7,-7 h 32.1 c 3.9,0 7,3.1 7,7 V 97 c 0,3.9 3,7.2 6.8,7.3 4,0.1 7.2,-3 7.2,-7 V 38.5 c 0,-3.9 3.1,-7 7,-7 h 11.7 c 3.9,0 7,-3.1 7,-7 V 7 c 0,-3.9 -3.1,-7 -7,-7 z"
         id="path31" />
    </g>
  </g>
</svg>
