<?xml version="1.0" encoding="UTF-8" standalone="no"?>
<svg
   enable-background="new 0 0 3912.9 1002.2"
   height="1002"
   viewBox="0 0 3840.0001 1002"
   width="3840"
   version="1.1"
   id="svg18"
   sodipodi:docname="macintosh.svg"
   inkscape:version="1.3.2 (091e20e, 2023-11-25)"
   xmlns:inkscape="http://www.inkscape.org/namespaces/inkscape"
   xmlns:sodipodi="http://sodipodi.sourceforge.net/DTD/sodipodi-0.dtd"
   xmlns="http://www.w3.org/2000/svg"
   xmlns:svg="http://www.w3.org/2000/svg">
  <defs
     id="defs18" />
  <sodipodi:namedview
     id="namedview18"
     pagecolor="#ffffff"
     bordercolor="#000000"
     borderopacity="0.25"
     inkscape:showpageshadow="2"
     inkscape:pageopacity="0.0"
     inkscape:pagecheckerboard="0"
     inkscape:deskcolor="#d1d1d1"
     inkscape:zoom="0.21510417"
     inkscape:cx="1917.6755"
     inkscape:cy="502.08232"
     inkscape:window-width="1312"
     inkscape:window-height="449"
     inkscape:window-x="0"
     inkscape:window-y="39"
     inkscape:window-maximized="0"
     inkscape:current-layer="svg18" />
  <g
     id="g20">
    <g
       id="g19">
      <g
         transform="scale(1 .9996434)"
         id="g18">
        <path
           d="m553.68653 159.92499c18.20284-22.30348 32.40506-46.60728 41.80653-73.611501 10.2016-29.604627 13.60213-58.009066 10.2016-86.313489-25.00391 1.3002032-51.30802 8.8013754-79.01235 22.903579-27.70433 14.102204-49.9078 31.704955-68.21066 52.608222-18.30286 20.903266-31.70496 44.506959-41.80653 70.210969-11.5018 30.40475-15.50243 58.00907-11.5018 85.01329 27.00422 2.00031 54.00844-4.00063 82.31286-18.20285 25.70402-12.70198 48.0075-30.30473 66.21035-52.60822z"
           fill="#62b847"
           stroke-width="1.00016"
           id="path1" />
        <path
           d="m263.44117 1002.3566c13.50211-.7001 27.70433-3.40049 41.20644-7.40111 6.70105-2.00032 18.20284-6.70105 35.80559-14.20222 14.80232-6.10096 27.00423-10.80169 37.80591-13.50211 15.50243-4.00063 31.70496-6.10096 48.6076-6.10096s33.10517 2.00032 48.6076 6.10096c9.40146 2.70042 22.30348 7.40115 37.8059 14.20222 15.50243 6.70104 27.70433 10.80169 35.8056 13.50211 14.20222 4.00062 28.30442 6.10091 43.20675 5.40081 21.60338 0 41.80653-6.10092 60.70949-18.20281 16.20253-10.80169 32.40506-25.604 49.3077-45.90718 10.80169-12.802 25.00391-32.40506 43.20676-58.70917 19.60306-29.70464 37.1058-61.4096 52.00812-96.51509 5.40085-12.802 11.5018-28.30442 16.90265-45.90717-10.80169-4.00062-22.30349-10.10158-35.10549-18.90295-26.30411-17.50274-47.90749-39.10611-64.11002-64.11002-22.90358-34.40538-34.40538-74.2116-35.10549-119.51868 0-37.1058 8.80138-72.91139 27.00422-105.31646 12.80201-22.90358 30.40476-43.90686 51.30802-62.80981 9.40147-8.80138 19.60307-16.20254 30.40475-22.90358-25.604-37.80591-60.10939-64.81013-102.61603-81.71277-24.3038-9.40147-51.30802-15.50243-81.01266-17.50274-15.50243-1.3002-31.70496-.70011-47.90749 2.00031-13.50211 2.00032-28.30442 6.10096-43.90686 10.80169-10.10158 4.00063-22.90358 8.80138-39.10611 14.80232-16.20253 6.70104-27.70433 10.80168-33.70527 12.802-10.80169 3.40053-20.20316 5.40084-27.00422 5.40084-8.80137 0-20.20316-2.00031-33.70527-6.70105-4.00062-1.3002-16.90264-6.70104-39.80622-15.50242-17.50273-6.70105-32.40506-12.10189-44.50695-15.50242-16.90264-4.00063-32.40507-6.10096-47.20738-6.10096-42.50664.70011-81.71277 12.1019-118.81857 35.10549-37.105797 22.30349-66.11033 52.60822-87.713706 91.11424-27.70433 47.90749-41.80653358 105.31646-41.80653358 170.72668 0 58.70917 10.10157858 118.81857 31.00484558 181.52837 18.902954 57.40897 43.906861 108.01688 74.211594 151.82372 17.50274 26.30412 32.40507 46.60729 44.50696 60.70949 17.50273 21.60338 35.10548 37.1058 52.00813 47.90749 19.90311 13.00203 40.10626 19.10294 61.70964 19.10294z"
           fill="#fff"
           stroke-width="1.00016"
           id="path2" />
        <path
           d="m180.12941 876.70086c8.12184 12.14424 15.78928 23.23636 22.74645 32.7234 3.71249 5.0625 7.25537 9.74391 10.62724 14.04078s6.57116 8.2095 9.59616 11.73449c4.37499 5.4 8.75772 10.41835 13.13271 15.07772 4.375 4.65937 8.74366 8.95932 13.09366 12.92181 4.34999 3.9625 8.68039 7.58932 12.98039 10.89869s8.56988 6.3025 12.79488 9.0025c2.48749 1.625 4.97832 3.14109 7.47734 4.55202 2.49902 1.41094 5.00547 2.71736 7.52031 3.91736 2.51484 1.19999 5.03808 2.29441 7.57304 3.28659 2.53495.99219 5.08201 1.88201 7.64138 2.66951 2.55937.78749 5.13141 1.47234 7.7195 2.05827 2.58808.5859 5.19214 1.0713 7.81323 1.4588s5.26029.6768 7.91868.869c2.6584.1921 5.33586.289 8.03586.289 3.37499-.175 6.7941-.4765 10.23472-.8905 3.44063-.4141 6.90308-.9408 10.36557-1.57203 3.4625-.63124 6.92495-1.36646 10.36557-2.19301 3.44062-.82656 6.85973-1.74567 10.23473-2.74567 3.35-1 7.8998-2.67382 13.81229-5.03632s13.18681-5.41264 21.9868-9.16263c7.4-3.05 14.14916-5.75109 20.39916-8.02609 6.24999-2.275 12.00158-4.12376 17.40157-5.47375 3.875-1 7.79348-1.88279 11.75598-2.64217 3.96249-.75937 7.96765-1.3954 12.01765-1.9079s8.14379-.9006 12.28128-1.15998c4.1375-.25937 8.31992-.39056 12.54492-.39056 4.22499 0 8.40546.12533 12.54296.37689s8.23129.62834 12.28128 1.13459c4.05.50625 8.05711 1.14189 12.01961 1.90595s7.88098 1.65818 11.75597 2.68318c4.69999 1.34999 10.27515 3.19913 16.61264 5.56163 6.33749 2.36249 13.43615 5.23732 21.18614 8.63732 7.75 3.34999 14.67647 6.05066 20.67646 8.25066s11.07459 3.89918 15.12459 5.24918c3.54999 1 7.09326 1.88202 10.64482 2.63045s7.11044 1.363 10.69169 1.83174c3.58124.46875 7.18542.79202 10.82448.95302 3.63906.1609 7.31429.1593 11.03929-.016 2.7 0 5.37746-.095 8.0339-.28507 2.65644-.19043 5.29173-.47487 7.90501-.85534s5.20563-.8574 7.77613-1.42751c2.57051-.57012 5.11912-1.23446 7.64724-1.99383 2.52813-.75937 5.03418-1.61386 7.52031-2.5621s4.95275-1.98975 7.39728-3.12646c4.88906-2.27344 9.69463-4.92298 14.41962-7.94798 4.05-2.7 8.09928-5.65018 12.16021-8.87361 4.06094-3.22344 8.13286-6.72024 12.22661-10.51398 4.09374-3.79375 8.21096-7.88598 12.35939-12.29691 4.14844-4.41093 8.32969-9.14153 12.55468-14.21653 5.4-6.39999 11.64824-14.49973 18.82323-24.28722 7.175-9.78749 15.27511-21.2626 24.3751-34.41259.15113-.22902.29045-.46985.44134-.69911z"
           fill="#0d99d5"
           transform="matrix(1.0001563 0 0 1.0001563 -73.411472 0)"
           id="path3" />
        <path
           d="m114.54591 751.0994c1.70182 4.47945 3.38109 8.98528 5.1613 13.37486 2.7375 6.75 5.56665 13.39494 8.48696 19.93243 2.92031 6.5375 5.93179 12.96887 9.03179 19.29386 3.1 6.325 6.28835 12.5428 9.56491 18.65529s6.64023 12.11868 10.09022 18.01867c3.45 5.89999 6.98546 11.69455 10.60577 17.38205 3.6203 5.68749 7.326 11.26848 11.11349 16.74347.52591.79037.93755 1.31976 1.45876 2.09929h639.24579c4.71792-7.17121 9.32665-14.44666 13.79277-21.87159 4.62968-7.69686 9.12094-15.54046 13.46469-23.55296 4.34374-8.01249 8.53983-16.19265 12.58202-24.56452 4.04218-8.37186 7.93138-16.93583 11.65638-25.71082 2.7-6.39999 5.57485-13.47405 8.44985-21.14904 1.00488-2.68259 1.95525-5.825 2.95266-8.65099z"
           fill="#944094"
           transform="matrix(1.0001563 0 0 1.0001563 -73.411472 0)"
           id="path4" />
        <path
           d="m80.340319 625.59948c.261083 1.62055.446375 3.2274.722543 4.85081 1.284374 7.54999 2.730768 15.13161 4.343072 22.74644 1.612303 7.61484 3.390184 15.26322 5.33315 22.94759 1.942967 7.68437 4.052724 15.40381 6.329089 23.16239 2.276365 7.75859 4.718387 15.55534 7.330887 23.39283 2.3625 7.17499 4.82033 14.24513 7.37189 21.20762.89226 2.43473 1.85984 4.7835 2.77496 7.19224h767.65736c1.85621-5.25927 3.7409-10.37486 5.49719-16.09905-2.7-.99999-5.44403-2.13189-8.2409-3.40376-2.79688-1.27187-5.64671-2.68489-8.55921-4.24738-2.9125-1.5625-5.88728-3.27381-8.93415-5.14568-3.04687-1.87188-6.16573-3.90257-9.36573-6.10257-3.28749-2.18749-6.50181-4.44054-9.64107-6.7548-3.13925-2.31426-6.20364-4.69147-9.19192-7.12974-2.98828-2.43828-5.90039-4.93731-8.73496-7.49688s-5.59207-5.17807-8.27019-7.85619c-2.67813-2.67813-5.27672-5.41572-7.79566-8.20966s-4.95823-5.64437-7.31526-8.5514c-2.35703-2.90702-4.63273-5.8699-6.82511-8.88728s-4.30214-6.09036-6.32713-9.21536c-2.8625-4.29999-5.54601-8.6833-8.05343-13.15224-2.43137-4.33339-4.68052-8.75532-6.78019-13.24793z"
           fill="#e31f32"
           transform="matrix(1.0001563 0 0 1.0001563 -73.41147 0)"
           id="path5" />
        <path
           d="m75.493422 500.09957c-.549067 5.60872-1.114576 11.20806-1.433369 16.95243-.439648 7.92206-.660053 15.97358-.660053 24.14857 0 7.33749.157543 14.69694.474535 22.08053s.792746 14.79067 1.429464 22.22504 1.434978 14.89534 2.394157 22.38517c.752935 5.87937 1.689029 11.79206 2.642165 17.70817h693.325229c-.0657-.14052-.14751-.27331-.21286-.41399-2.15468-4.63828-4.13228-9.36166-5.93657-14.16966-1.8043-4.80801-3.43557-9.69928-4.89181-14.6774-1.45625-4.97812-2.73847-10.04235-3.84901-15.19098-1.11055-5.14863-2.04878-10.3831-2.81597-15.70263-.76719-5.31952-1.36261-10.72344-1.78878-16.21426-.42617-5.49081-.68387-11.06731-.77137-16.72981 0-4.63749.13783-9.25467.414-13.84744s.69121-9.16114 1.2459-13.70098c.19893-1.62816.51297-3.23213.74793-4.85276z"
           fill="#f28020"
           transform="matrix(1.0001563 0 0 1.0001563 -73.411472 0)"
           id="path6" />
        <path
           d="m113.0813 374.50006c-2.63769 4.73666-5.25306 9.48767-7.62967 14.404-3.03652 6.28144-5.860788 12.70871-8.469379 19.27823-2.608591 6.56953-5.001809 13.28183-7.180518 20.13358s-4.142831 13.84321-5.889705 20.97133c-1.746873 7.12812-3.276041 14.39289-4.589126 21.79151-1.313085 7.39863-2.409253 14.93086-3.286596 22.59413-.237437 2.07393-.32964 4.23409-.535072 6.32714h680.321396c.41667-2.86468.79233-5.73924 1.32206-8.57874.83555-4.47871 1.81244-8.92449 2.93119-13.33386 1.11874-4.40937 2.37831-8.78135 3.78261-13.11318 1.40429-4.33183 2.95162-8.62299 4.6438-12.86908 1.69219-4.24609 3.53039-8.44745 5.51281-12.5996 1.98242-4.15214 4.11073-8.25472 6.38572-12.30471 3.2-5.725 6.69837-11.33137 10.47493-16.81573 3.77656-5.48437 7.83053-10.84789 12.13677-16.08538 4.30625-5.2375 8.86506-10.34917 13.65412-15.33354 1.46828-1.52816 3.09787-2.96212 4.60865-4.4661z"
           fill="#f4be1a"
           transform="matrix(1.0001563 0 0 1.0001563 -73.411472 0)"
           id="path7" />
        <path
           d="m821.27529 374.50006c3.41691-3.40153 6.8011-6.82363 10.42415-10.09998 4.7-4.4 9.60045-8.45083 14.67544-12.23833 5.075-3.78749 10.32607-7.3124 15.72606-10.66239-3.2-4.725-6.53965-9.28088-10.01601-13.66974s-7.09089-8.61052-10.8401-12.66599c-3.74922-4.05546-7.63393-7.94525-11.65248-11.67005s-8.17071-7.28505-12.45508-10.68192c-4.28437-3.39688-8.70126-6.62994-13.24793-9.70161-4.54668-3.07168-9.2236-5.98184-14.02906-8.73106s-9.73968-5.33688-14.80042-7.76636c-5.06074-2.42949-10.24757-4.7009-15.56007-6.81339-6.07499-2.35-12.31895-4.49392-18.73145-6.41892-6.41249-1.925-12.99301-3.62967-19.743-5.10467-6.75-1.475-13.66903-2.72012-20.75653-3.72012-7.08749-1-14.34309-1.75551-21.76808-2.25551-3.87499-.325-7.79465-.53076-11.74621-.61514-3.95156-.0844-7.93524-.0473-11.94149.11522-4.00625.1625-8.03523.44947-12.07429.8651-4.03905.41562-8.08873.95951-12.13872 1.63451-3.375.5-6.83198 1.13174-10.36167 1.8708-3.52968.73906-7.1323 1.58593-10.80104 2.51718-7.33749 1.8625-14.93669 4.06307-22.73668 6.41306-10.09999 4-22.90133 8.79847-39.10131 14.79847-8.09999 3.34999-15.02451 6.05029-20.67451 8.16279-5.64999 2.1125-10.02531 3.63794-13.0253 4.63794-5.4 1.7-10.44962 3.05095-14.99961 3.97595-2.275.46249-4.42439.8178-6.43064 1.05842-2.00625.24063-3.86944.36518-5.56944.36518-2.2 0-4.56179-.12377-7.07897-.3847-2.51719-.26094-5.18977-.65919-8.00851-1.20294-2.81875-.54375-5.78456-1.23327-8.88924-2.08171-3.10468-.84843-6.34809-1.85577-9.72309-3.03077-4-1.3-16.90044-6.69954-39.80042-15.49953-8.74999-3.35-16.85051-6.37438-24.2755-8.98688s-14.17341-4.81266-20.2234-6.51265c-4.225-1-8.36291-1.88084-12.42384-2.64022-4.06094-.75937-8.04618-1.39735-11.96493-1.90985s-7.77202-.9006-11.57046-1.15998c-3.79843-.25937-7.54239-.39056-11.24238-.39056-5.3125.0875-10.57293.34187-15.78464.7655-5.21172.42363-10.37415 1.01769-15.48977 1.78097s-10.18435 1.69586-15.20856 2.8023-10.00353 2.38612-14.94102 3.83924c-4.9375 1.45313-9.83365 3.08069-14.68911 4.88401-4.85547 1.80331-9.6708 3.78149-14.44892 5.93852s-9.51887 4.49246-14.22434 7.00672c-4.70546 2.51425-9.37594 5.20772-14.01343 8.08272-4.6375 2.7875-9.14731 5.70098-13.53304 8.73887-4.38574 3.03789-8.64645 6.19969-12.78316 9.48875-4.13672 3.28906-8.15066 6.70543-12.04109 10.24644-3.89042 3.54102-7.658 7.20844-11.30487 11.00219s-7.17238 7.71262-10.57843 11.75988-6.69182 8.22188-9.85978 12.52343c-3.16797 4.30156-6.2183 8.73035-9.15092 13.28699-2.93261 4.55664-5.7479 9.24195-8.4479 14.05444-.75248 1.30123-1.3864 2.68416-2.1188 3.99938z"
           fill="#62b847"
           transform="matrix(1.0001563 0 0 1.0001563 -73.41147 0)"
           id="path8" />
        <g
           stroke-width="1.00016"
           id="g17">
          <path
             d="m1168.8827 351.955c2.9004 0 5.3008.40006 7.3011 1.30021 2.0003.90014 3.6006 3.00046 4.7007 6.50101l114.5179 347.95438c2.3004 6.90108 4.3007 10.30161 6.001 10.30161 2.3003 0 4.6007-3.10049 6.9011-9.50149l112.8176-341.95344c1.1002-4.60072 2.7004-8.20128 4.7007-10.80168 2.0003-2.60041 5.3009-3.90061 9.9016-3.90061h111.1173c8.0013 0 12.1019 3.70057 12.1019 11.10173 0 4.60072-1.3002 7.60119-3.9006 9.00141s-5.9009 2.40037-9.9015 3.00047c-4.0007.60009-8.5014 1.00015-13.4021 1.3002-4.9008.30005-9.9016 1.60025-15.1024 3.90061-6.301 2.90045-10.2016 6.401-11.6018 10.70167s-2.2003 12.10189-2.2003 23.50368v20.5032l9.5014 374.75856c.6001 15.40241 1.6003 26.50415 3.0005 33.40523 1.4002 6.80106 6.7011 12.30192 15.9025 16.30254 5.2008 2.30036 10.3016 3.60057 15.5024 3.8006 5.2008.30004 9.6015.60009 13.3021.80012 3.7006.30005 6.701 1.30021 9.0014 3.00047 2.3004 1.70027 3.4005 5.20081 3.4005 10.30161 0 3.40053-1.6002 6.50102-4.7007 9.00141-3.2005 2.6004-7.6012 3.90061-13.3021 3.90061-9.2014 0-20.2031-1.00016-33.2052-3.00047-12.902-2.00031-28.0043-3.00047-45.207-3.00047-18.903 0-35.5056 1.00016-49.5078 3.00047-14.1022 2.00031-25.1039 3.00047-33.2052 3.00047-11.5018 0-17.2026-4.60072-17.2026-13.80216 0-8.60134 4.3006-12.90202 12.902-12.90202 10.9017 0 19.403-.80012 25.4039-2.6004 6.001-1.70027 10.6017-4.70074 13.8022-9.00141s5.0008-9.80153 5.6009-16.70261c.6001-6.80106.9001-15.40241.9001-25.70402v-19.70308l-6.0009-316.54946c0-6.30099-1.4002-9.40147-4.3007-9.40147-1.7003 0-3.4005 2.90045-5.2008 8.60134l-126.6198 387.56057c-2.9005 8.60134-7.5012 12.90201-13.8022 12.90201-7.5011 0-12.1018-3.40053-13.8021-10.30161l-128.3201-389.26083c-2.9004-7.40116-4.9007-11.10173-6.0009-11.10173-2.9005 0-4.6007 5.40084-5.2008 16.30254l-14.6023 261.74091c-.6001 9.70151-1.0002 18.50289-1.3002 26.50414s-.4001 15.10236-.4001 21.40334c0 26.80419 2.3004 46.30724 6.9011 58.60916 4.6007 12.30193 15.2024 18.40288 31.905 18.40288 1.7003 0 3.4005-.10002 5.2008-.40006 1.7003-.30005 3.7006-.40007 6.001-.40007 10.9017 0 16.4025 4.30068 16.4025 12.90202 0 9.20144-7.2011 13.80216-21.5033 13.80216-6.301 0-14.5023-.6001-24.5039-1.70027-10.0015-1.10017-21.7034-1.70026-34.9054-1.70026-11.5018 0-21.7034.60009-30.6048 1.70026-8.9014 1.20019-16.5026 1.70027-22.8036 1.70027-13.8021 0-20.7032-4.60072-20.7032-13.80216 0-8.60134 4.0006-12.90202 12.1019-12.90202 3.4005 0 6.501.10002 9.0014.40007 2.6004.30004 4.7007.40006 6.501.40006 7.5012 0 13.5021-2.40038 18.1028-7.30114 4.6008-4.80075 8.0013-12.70199 10.3016-23.50367 2.3004-10.80169 4.0007-24.9039 5.2009-42.30662 1.1001-17.40272 2.3003-38.90608 3.4005-64.61009l14.6023-292.44571c0-1.10017.1-3.10048.4-6.00093.3001-2.90046.4001-6.60103.4001-11.10174 0-13.10205-1.2002-22.20347-3.4005-27.40428-2.3004-5.1008-7.5012-9.10142-15.5025-12.00188-5.2008-1.70026-10.0015-2.70042-14.6022-3.00046-4.6008-.30005-8.6014-.6001-12.1019-.90015-3.4006-.30004-6.201-1.10017-8.2013-2.6004-2.0003-1.40022-3.0005-4.40069-3.0005-9.00141 0-7.50117 4.0006-11.20175 12.1019-11.20175h113.0177z"
             id="path9" />
          <path
             d="m1826.5855 794.7242c0 18.40287 1.1001 32.20503 3.4005 41.30645 2.3003 9.20144 8.3013 13.80216 18.1028 13.80216 6.301 0 12.1019-2.90046 17.2027-8.60135 5.2008-5.70089 10.3016-8.60134 15.5024-8.60134 6.9011 0 10.3016 4.30067 10.3016 12.90202 0 4.60071-2.6004 10.20159-7.8012 16.80262s-11.3018 13.10205-18.5029 19.40303c-7.2011 6.30099-14.9023 11.80185-23.3036 16.40257-8.3013 4.60072-15.9025 6.90108-22.9036 6.90108-15.0023 0-27.4043-4.90077-37.2058-14.60229-9.8015-9.80153-17.9028-24.40381-24.2038-43.90686h-5.2008l-18.2029 15.50242c-15.0023 12.60197-29.1045 23.40366-42.3066 32.30505-13.302 8.90139-27.9043 13.30208-44.1069 13.30208-18.4028 0-33.3052-6.20097-44.5069-18.50289-11.2018-12.30192-16.8026-29.40459-16.8026-51.208 0-18.90296 3.2005-35.60557 9.5014-49.9078 6.301-14.30224 15.5025-27.40428 27.7044-39.20613 12.1019-11.80184 26.6041-22.80356 43.6068-33.20519 17.0026-10.40162 35.9056-20.70323 56.6088-31.00484l21.6034-11.20175c4.6007-2.30036 7.3012-4.70074 8.2013-7.30114.9001-2.60041 1.3002-7.0011 1.3002-13.30208v-61.10955c0-24.10377-1.9003-41.60651-5.6009-52.50821s-13.102-16.40256-28.1044-16.40256c-15.0023 0-26.8042 5.00078-35.4055 15.10236-8.6013 10.00156-17.0027 24.3038-25.1039 42.60666-6.401 14.40225-13.4021 26.60415-21.2033 36.60572-7.8013 10.10158-20.3032 15.10236-37.6059 15.10236-4.6007 0-8.5013-1.40022-11.7018-4.30067-3.2005-2.90046-4.7008-6.60104-4.7008-11.20176 0-12.60196 3.9006-26.10407 11.7018-40.50633 7.8013-14.30223 18.703-27.40428 32.8052-39.20612 14.1022-11.80185 30.8048-21.50336 50.1078-29.30458 19.303-7.70121 40.2063-11.60182 62.7098-11.60182 18.4029 0 33.3052 2.20035 44.507 6.50102 11.2017 4.30067 19.703 10.60166 25.5039 18.90295 5.801 8.3013 9.5015 18.70293 11.2018 31.00485 1.7003 12.40194 2.6004 26.60416 2.6004 42.60666v199.6312zm-75.8119-97.31521c-1.7003 0-4.6007 1.20019-8.6013 3.40053l-28.4045 13.80216c-33.9053 17.20268-50.8079 45.90717-50.8079 86.11345 0 16.70261 3.0004 29.30458 9.0014 37.90593 6.0009 8.60134 13.9022 12.90201 23.7037 12.90201 6.9011 0 13.8021-1.90029 20.7032-5.60087s13.2021-8.90139 18.903-15.50242c5.7009-6.60104 10.5016-14.50227 14.2022-23.70371s5.6009-19.50305 5.6009-31.00484v-68.01063c0-6.90108-1.4002-10.30161-4.3007-10.30161z"
             id="path10" />
          <path
             d="m2089.4265 500.87828c12.1019 3.10048 22.5035 7.1011 31.4049 12.10189 8.9014 5.00078 16.1026 10.60165 21.5034 16.90264 5.4008 6.30098 8.2013 13.20206 8.2013 20.70323 0 21.80341-2.2004 38.90608-6.501 51.20801-4.3007 12.40193-9.9016 18.50289-16.8027 18.50289-8.0012 0-15.8024-8.3013-23.3036-25.00391-5.2008-10.9017-9.8015-21.1033-13.8022-30.60478-4.0006-9.50149-8.3013-17.40272-12.902-23.70371-4.6007-6.30098-9.6015-11.30176-15.1023-15.10236-5.5009-3.70058-12.2019-5.60087-20.2032-5.60087-10.3016 0-21.0033 3.90061-31.905 11.60181s-20.7032 18.80294-29.3046 33.40522c-8.6013 14.60228-15.7024 32.10502-21.1033 52.70824-5.5008 20.60322-8.2012 44.00687-8.2012 70.31099 0 26.9042 3.0004 50.90795 9.0014 72.01125 6.0009 21.1033 14.3022 39.00609 25.0039 53.60838 10.6016 14.60228 23.1036 25.70401 37.5058 33.40522 14.3023 7.7012 30.1047 11.60181 47.4074 11.60181 10.9017 0 20.8033-1.9003 29.7047-5.60087 8.9014-3.70058 16.4025-7.90124 22.4035-12.50196 6.0009-4.60072 10.9017-8.70136 14.6023-12.50195 3.7005-3.70058 6.501-5.60088 8.2012-5.60088 7.4012 0 11.2018 3.70058 11.2018 11.20175 0 5.20082-3.0005 11.90186-9.0014 20.20316s-14.4023 16.40256-25.0039 24.10377c-10.6017 7.80122-23.4037 14.50226-38.306 20.20315-14.9023 5.7009-31.0048 8.60135-48.2075 8.60135-23.0036 0-44.2069-4.70074-63.71-14.20222-19.503-9.50149-36.5057-23.0036-50.8079-40.50633-14.4023-17.50274-25.504-38.70605-33.6053-63.70996-8.0012-25.0039-12.1019-53.00828-12.1019-84.01313 0-32.10501 4.4007-61.00953 13.4021-86.51352 8.9014-25.50398 21.1033-47.40741 36.6057-65.51023 15.5025-18.10283 33.9053-32.00501 55.1087-41.80654 21.2033-9.80153 44.5069-14.60228 69.8109-14.60228 13.8021.10002 26.7041 1.60025 38.806 4.70074z"
             id="path11" />
          <path
             d="m2276.6558 824.52885c0 10.30161 1.0001 18.10283 3.0005 23.30365 2.0003 5.20081 5.6008 9.20143 10.8016 12.10189 4.6008 2.30036 9.0014 3.70058 13.3021 4.30067s8.0013 1.3002 11.2018 2.20034c3.1005.90014 5.7009 2.20035 7.8012 3.90061 2.0003 1.70027 3.0005 4.60072 3.0005 8.60135 0 9.20143-5.2009 13.80215-15.5025 13.80215-8.6013 0-18.9029-1.00015-30.9048-3.00047-12.0019-2.00031-24.8039-3.00046-38.406-3.00046-14.7023 0-27.3043 1.00015-37.5059 3.00046-10.3016 2.00032-18.6029 3.00047-24.9038 3.00047-8.6014 0-12.9021-4.90076-12.9021-14.60228 0-4.00062.7001-6.90108 2.2004-8.60134 1.4002-1.70027 3.4005-2.90046 6.0009-3.40053 2.6004-.6001 5.3008-1.00016 8.2013-1.30021 2.9005-.30004 6.0009-1.3002 9.5015-3.00047 6.301-3.40053 10.2016-7.60118 11.6018-12.50195s2.2003-13.10205 2.2003-24.50383v-203.53181c0-15.50242-1.9003-25.80403-5.6008-31.00484-3.7006-5.20081-7.8013-8.50133-12.1019-9.90155-4.3007-1.40022-8.3013-2.30036-12.1019-2.60041-3.7006-.30004-5.6009-3.30051-5.6009-9.0014 0-6.30099 3.9006-11.5018 11.6018-15.50242 7.8012-4.00063 18.803-10.00157 33.0052-18.10283 8.5013-5.20082 15.7024-10.30161 21.7034-15.50243 5.9009-5.20081 10.9017-9.80153 14.9023-13.80215 4.0006-4.00063 7.2011-7.30114 9.8015-9.90155s5.0008-3.90061 7.2012-3.90061c5.7008 0 8.5013 6.00094 8.5013 18.10283zm-5.2008-465.07268c7.5011 9.80154 11.2017 20.70324 11.2017 32.70512 0 12.10189-3.7006 23.00359-11.2017 32.70511-7.5012 9.80153-16.4026 14.60228-26.7042 14.60228s-19.203-4.90077-26.7042-14.60228c-7.5011-9.80154-11.2017-20.70324-11.2017-32.70511 0-12.1019 3.7006-23.0036 11.2017-32.70512 7.5012-9.80153 16.4026-14.60228 26.7042-14.60228 10.4016-.10001 19.203 4.80075 26.7042 14.60228z"
             id="path12" />
          <path
             d="m2451.6831 548.3857c0 7.50117.8002 11.20175 2.6004 11.20175 1.7003 0 4.0007-1.70027 6.9011-5.20081l9.4015-11.20175c12.0019-14.90233 25.904-26.40413 41.6065-34.40538 15.7024-8.00125 32.205-12.10189 49.4077-12.10189 35.5056 0 63.1099 12.20191 82.813 36.60572 19.8031 24.40381 29.6046 60.40944 29.6046 108.1169v185.12893c0 17.80278 4.3007 29.60462 12.902 35.30551 4.0006 2.30036 8.2013 3.70058 12.502 4.30068 4.3006.60009 8.2012 1.20018 11.6018 1.70026 3.4005.6001 6.2009 1.70027 8.2012 3.40053 2.0004 1.70027 3.0005 4.90077 3.0005 9.50149 0 9.20144-5.2008 13.80215-15.5024 13.80215-8.1013 0-17.8028-1.00015-29.2046-3.00046-11.4018-2.00032-24.5038-3.00047-39.3061-3.00047-14.7023 0-27.4043 1.00015-38.006 3.00047-10.6016 2.00031-18.7029 3.00046-24.5038 3.00046-9.2014 0-13.8021-4.90076-13.8021-14.60228 0-4.00062.7001-6.90108 2.2003-8.60134 1.4002-1.70027 3.4005-2.90045 6.0009-3.40053 2.6005-.6001 5.4009-1.00016 8.6014-1.30021 3.1005-.30004 6.501-1.3002 9.9015-3.00046 6.9011-3.40054 10.9017-7.90124 12.1019-13.4021 1.1002-5.40084 1.7003-13.30208 1.7003-23.7037v-174.0272c0-34.40538-6.401-60.40944-19.103-77.91218-12.702-17.50273-30.9048-26.30411-54.6085-26.30411-21.9034 0-39.8062 7.50118-53.7084 22.4035-13.9022 14.90233-20.8033 37.90593-20.8033 68.91077v186.92922c0 9.80153.7001 17.40272 2.2004 22.80356 1.4002 5.50086 5.0008 9.6015 10.8017 12.50195 5.2008 2.90046 9.8015 4.50071 13.8021 4.70074 4.0006.30005 7.6012.70011 10.8017 1.3002 3.1005.6001 5.6009 1.70027 7.3011 3.40053 1.7003 1.70027 2.6005 5.20082 2.6005 10.30161 0 8.60135-5.2009 12.90202-15.5025 12.90202-8.0012 0-17.8028-1.00016-29.2045-3.00047-11.4018-2.00031-24.2038-3.00047-38.406-3.00047-14.7023 0-27.3043 1.00016-37.5059 3.00047-10.3016 2.00031-18.6029 3.00047-24.9039 3.00047-9.2014 0-13.8021-4.90077-13.8021-14.60228 0-4.00063.7001-6.90108 2.2003-8.60135 1.4002-1.70026 3.3005-2.90045 5.6009-3.40053 2.3003-.60009 5.0008-1.00015 8.2013-1.3002 3.1004-.30005 6.501-1.3002 9.9015-3.00047 6.301-2.90045 10.3016-6.90108 12.1019-12.10189 1.7003-5.20081 2.6004-13.50211 2.6004-25.00391v-203.13174c0-15.50243-1.9003-25.80404-5.6009-31.00485s-7.9012-8.3013-12.5019-9.50148c-4.6007-1.10018-8.8014-1.9003-12.502-2.20035-3.7006-.30004-5.6009-3.30051-5.6009-9.0014 0-5.7009 3.7006-10.80169 11.2018-15.10236 7.5012-4.30068 18.4029-10.80169 32.7051-19.40304 16.6026-9.80153 28.3044-19.203 35.2055-28.40444 6.9011-9.20143 12.902-13.80215 18.0028-13.80215 1.7003 0 3.4006 1.40022 5.1008 4.30067 1.7003 2.90045 2.6004 7.50117 2.6004 13.80216v35.40553z"
             id="path13" />
          <path
             d="m2798.3373 500.97829c0 7.50117 3.7006 11.20175 11.2018 11.20175h64.6101c5.2008 0 8.3013.6001 9.5014 1.70027 1.1002 1.20018 1.7003 3.40053 1.7003 6.90108v17.3027c0 4.60072-.6001 7.7012-1.7003 9.50148-1.2001 1.70027-4.3006 2.60041-9.5014 2.60041h-65.4103c-6.901 0-10.3016 3.70058-10.3016 11.20175v217.93406c0 27.00422 2.4004 46.7073 7.3012 59.00922 4.9007 12.40194 13.9021 18.50289 27.1042 18.50289 6.301 0 11.9019-1.10017 16.8026-3.40053 4.9008-2.30036 9.3015-5.00078 13.3021-8.20128 4.0006-3.10049 7.6012-5.90092 10.8017-8.20128 3.1005-2.30036 6.201-3.40053 9.0014-3.40053 5.7009 0 8.6013 4.00062 8.6013 12.10189 0 4.00062-2.6004 9.50148-7.8012 16.40256s-12.2019 13.80216-21.1033 20.70324c-8.9014 6.90107-19.203 12.802-31.0048 17.70276-11.8019 4.90077-24.2038 7.30114-37.4059 7.30114-44.907 0-67.3105-36.40569-67.3105-109.4171v-36.20565l3.4006-185.12893c0-8.00126-.6001-14.50227-1.7003-19.40304-1.1002-4.90076-4.6007-7.30114-10.3016-7.30114h-15.5024c-10.3017 0-15.5025-3.70058-15.5025-11.20175 0-3.40053 1.4003-6.60103 4.3007-9.50148 2.9005-2.90046 6.9011-6.00094 12.1019-9.50149s11.0017-7.7012 17.6027-12.90201c6.6011-5.20082 13.8022-12.1019 21.6034-20.70324 13.5021-16.10252 23.4037-29.80466 29.9047-41.30646 6.401-11.50179 12.2019-17.20268 17.2027-17.20268 3.9006 0 6.301 1.90029 7.1011 5.60087s1.3002 8.80138 1.3002 15.10236v52.20816z"
             id="path14" />
          <path
             d="m2884.8508 617.29647c8.6014-25.30396 21.0033-46.80732 37.0058-64.6101 16.1025-17.80278 35.3055-31.60494 57.709-41.30645 22.4035-9.80154 47.4074-14.60229 74.9117-14.60229 26.4042 0 50.5079 5.00079 72.3113 15.10236 21.8034 10.00157 40.3063 24.10377 55.5087 42.2066s27.0042 39.80622 35.3055 65.01016c8.3013 25.30395 12.502 53.40835 12.502 84.41319 0 30.40475-4.3007 58.30911-12.902 83.51305-8.6014 25.30396-20.8033 46.80732-36.6057 64.6101-15.8025 17.80278-35.2056 31.60494-58.1091 41.30645-23.0036 9.80154-48.8077 14.60229-77.5121 14.60229-25.8041 0-49.4078-5.00078-70.6111-15.10236-21.3033-10.00157-39.5062-24.10377-54.7085-42.2066-15.2024-18.10283-27.0042-39.7062-35.3055-65.01016-8.3013-25.30395-12.502-53.1083-12.502-83.51305 0-31.00485 4.4007-59.20925 13.002-84.41319zm90.4142-52.60822c-17.8028 29.30458-26.7042 70.91108-26.7042 124.91952 0 60.90952 9.6015 108.41694 28.9045 142.52227 19.203 34.20535 44.3069 51.208 75.3118 51.208 31.6049 0 56.4088-14.80231 74.5116-44.40694 18.1028-29.60462 27.1043-71.01109 27.1043-124.41944 0-60.8095-9.6015-108.41694-28.8045-142.52227s-44.1069-51.208-74.5117-51.208c-32.8051 0-58.0091 14.70229-75.8118 43.90686z"
             id="path15" />
          <path
             d="m3438.3373 507.77935c13.2021 7.40116 19.8031 18.60291 19.8031 33.70527 0 20.10314-.9001 34.90546-2.6004 44.30692-1.7002 9.50149-5.5008 14.20222-11.2017 14.20222-6.301 0-10.0016-4.00062-11.2018-12.10189-1.2002-8.00125-5.2008-18.10283-12.1019-30.1047-14.4022-24.70386-33.3052-37.00578-56.8089-37.00578-16.7026 0-30.0046 4.70073-40.0062 14.20221-10.0016 9.40147-15.1024 21.60338-15.1024 36.40569 0 9.70152 2.0003 17.9028 6.001 24.40382 4.0006 6.60103 9.8015 12.70198 17.2027 18.40287 7.5011 5.70089 16.5025 11.30177 27.1042 16.70261 10.6017 5.40085 22.5035 11.60182 35.7056 18.40288 28.1044 14.90233 48.8076 31.60494 62.0097 50.20785 13.202 18.6029 19.8031 41.90655 19.8031 69.91092 0 21.70339-3.3006 41.20644-9.9016 58.30911-6.601 17.10268-15.9025 31.60494-28.0044 43.30677s-26.3041 20.70324-42.6066 27.00422c-16.4026 6.30099-34.3054 9.40147-53.8084 9.40147-19.5031 0-37.0058-2.20034-52.5082-6.50101-15.5025-4.30068-27.3043-9.00141-35.3056-14.20222-5.2008-2.90046-8.3012-6.60104-9.5014-11.20175-1.2002-4.60072-1.7003-10.90171-1.7003-18.90296v-21.50336c0-23.50367.6001-40.60635 1.7003-51.208 1.1001-10.60166 4.9007-15.90249 11.2017-15.90249 4.0006 0 6.9011 1.40022 8.6014 4.30067 1.7002 2.90046 3.3005 7.0011 4.7007 12.50196s3.1005 12.10189 5.2008 19.80309c2.0003 7.70121 5.3008 16.50258 9.9016 26.30411 16.1025 35.00547 39.006 52.50821 68.9107 52.50821 18.4029 0 33.4052-6.30098 45.2071-18.90295 11.8018-12.60197 17.7028-29.60463 17.7028-50.80794 0-10.90171-1.9003-20.50321-5.6009-28.80451-3.7006-8.30129-9.2015-15.80247-16.4026-22.4035s-15.9025-12.90201-26.3041-18.90295-21.8034-12.50195-34.4054-19.40303c-14.4022-7.50118-27.0042-14.80232-37.9059-22.00344-10.9017-7.20113-20.1031-14.90233-27.6043-23.30364-7.5012-8.3013-13.1021-17.80279-16.8026-28.40444-3.7006-10.60166-5.6009-23.10361-5.6009-37.50586 0-35.60557 11.0017-63.90999 33.2052-84.81326 22.1034-21.00328 50.4079-31.40491 84.8132-31.40491 36.3057-.10001 61.0096 3.60057 74.2116 11.00172z"
             id="path16" />
          <path
             d="m3588.6608 548.3857c0 7.50117.6001 11.20175 1.7003 11.20175 1.7003 0 4.0006-1.70027 6.9011-5.20081l8.6013-11.20175c10.9017-14.30224 23.8037-25.70402 38.7061-34.00532 14.9023-8.30129 30.4047-12.50195 46.5072-12.50195 34.4054 0 61.3096 11.80184 80.5126 35.30552 19.203 23.50367 28.8045 57.10892 28.8045 100.81575v192.93015c0 9.20144.6001 16.40256 1.7003 21.50336 1.1001 5.20081 4.0006 9.20144 8.6013 12.10189 4.6007 3.40053 8.6014 5.60088 12.1019 6.50102 3.4005.90014 6.501 1.70026 9.0014 2.60041 2.6004.90014 4.6007 2.20034 6.001 3.9006 1.4002 1.70027 2.2003 4.90077 2.2003 9.50149 0 8.00125-4.3007 12.10189-12.902 12.10189-6.301 0-14.8023-.90014-25.304-2.60041-10.6016-1.70026-22.9036-2.6004-37.1058-2.6004-14.7023 0-28.0043.90014-39.7062 2.6004-11.7018 1.70027-21.6034 2.60041-29.6046 2.60041-10.3016 0-15.5024-4.60072-15.5024-13.80216 0-4.00062.9001-6.90107 2.6004-8.60134 1.7002-1.70027 4.0006-2.90045 6.9011-3.40053 2.9004-.6001 6.2009-1.10017 9.9015-1.70027 3.7006-.60009 7.6012-1.70026 11.6018-3.40053 8.6014-4.00062 13.8022-8.60134 15.5024-13.80216 1.7003-5.20081 2.6004-12.90201 2.6004-23.30364v-174.02719c0-69.51087-22.8035-104.21629-68.4106-104.21629-20.8033 0-38.006 7.50117-51.6081 22.4035s-20.4032 37.90592-20.4032 68.91077v186.92921c0 8.60135.9001 15.80247 2.6004 21.50336s5.2008 10.30161 10.3016 13.80216c4.0006 2.90045 8.0013 4.5007 12.1019 4.70073 4.0006.30005 7.6012.90015 10.8017 1.70027 3.2005.90014 5.7009 2.20034 7.8012 3.90061 2.0003 1.70027 3.0005 5.20081 3.0005 10.30161 0 8.00125-4.9008 12.10189-14.6023 12.10189-5.7009 0-14.3022-.90014-25.804-2.60041-11.4018-1.70026-25.404-2.6004-41.8066-2.6004-16.5025 0-30.4047.90014-41.8065 2.6004-11.4018 1.70027-20.6032 2.60041-27.5043 2.60041-10.3016 0-15.5024-4.60072-15.5024-13.80216 0-4.00062.9001-6.70104 2.6004-8.20128 1.7003-1.40022 3.9006-2.40037 6.501-3.00047 2.6004-.60009 5.7009-1.10017 9.5015-1.70026 3.7006-.6001 7.9012-1.70027 12.5019-3.40053 9.2015-3.40054 14.5023-7.90124 15.9025-13.4021 1.4003-5.40084 2.2004-13.60212 2.2004-24.50383v-429.96719c0-12.60197-2.0003-21.50336-6.001-26.70417-4.0006-5.20082-8.3013-8.70136-12.902-10.80169-4.6007-2.00031-8.9014-3.40053-12.902-4.30067s-6.0009-3.60057-6.0009-8.20129c0-6.30098 3.9006-10.50164 11.6018-12.50195s17.1027-5.00078 28.0044-9.00141c19.9031-7.50117 34.5053-14.50226 43.8068-21.10329 9.4015-6.60104 15.5024-9.90155 18.3029-9.90155 4.5007 0 7.4011 1.40022 8.5013 4.30067s1.7003 6.90108 1.7003 12.10189c0 8.00125-.4001 16.90264-1.3002 26.70417-.9002 9.80154-1.3002 20.40319-1.3002 31.90499v179.92812z"
             id="path17" />
        </g>
      </g>
    </g>
  </g>
</svg>
