<?xml version="1.0" encoding="UTF-8" standalone="no"?>
<svg
   enable-background="new -54.704 -17.335 641.883 266.225"
   height="1592.9999"
   viewBox="0 0 3840 1592.9998"
   width="3840"
   version="1.1"
   id="svg15"
   sodipodi:docname="mame-mame4all.svg"
   inkscape:version="1.3.2 (091e20e, 2023-11-25)"
   xmlns:inkscape="http://www.inkscape.org/namespaces/inkscape"
   xmlns:sodipodi="http://sodipodi.sourceforge.net/DTD/sodipodi-0.dtd"
   xmlns:xlink="http://www.w3.org/1999/xlink"
   xmlns="http://www.w3.org/2000/svg"
   xmlns:svg="http://www.w3.org/2000/svg">
  <defs
     id="defs15" />
  <sodipodi:namedview
     id="namedview15"
     pagecolor="#ffffff"
     bordercolor="#000000"
     borderopacity="0.25"
     inkscape:showpageshadow="2"
     inkscape:pageopacity="0.0"
     inkscape:pagecheckerboard="0"
     inkscape:deskcolor="#d1d1d1"
     inkscape:zoom="0.14824121"
     inkscape:cx="1919.1695"
     inkscape:cy="796"
     inkscape:window-width="1312"
     inkscape:window-height="449"
     inkscape:window-x="0"
     inkscape:window-y="39"
     inkscape:window-maximized="0"
     inkscape:current-layer="svg15" />
  <linearGradient
     id="a">
    <stop
       offset=".0051"
       stop-color="#cbecfc"
       id="stop1" />
    <stop
       offset=".401"
       stop-color="#bbe3f7"
       id="stop2" />
    <stop
       offset=".5431"
       stop-color="#2793c8"
       id="stop3" />
    <stop
       offset="1"
       stop-color="#1e8ec5"
       id="stop4" />
  </linearGradient>
  <linearGradient
     id="b"
     gradientTransform="matrix(1,0,0,-1,654,409.2251)"
     gradientUnits="userSpaceOnUse"
     x1="-387.70309"
     x2="-387.70309"
     xlink:href="#a"
     y1="422.88211"
     y2="243.8304" />
  <linearGradient
     id="c">
    <stop
       offset="0"
       stop-color="#2a76a0"
       id="stop5" />
    <stop
       offset="1"
       stop-color="#223756"
       id="stop6" />
  </linearGradient>
  <linearGradient
     id="d"
     gradientUnits="userSpaceOnUse"
     x1="266.23779"
     x2="266.23779"
     xlink:href="#c"
     y1="-17.7209"
     y2="163.6125" />
  <linearGradient
     id="e"
     gradientUnits="userSpaceOnUse"
     x1="171.582"
     x2="171.582"
     y1="106.7791"
     y2="197.1125">
    <stop
       offset=".0051"
       stop-color="#9ca3a6"
       id="stop7" />
    <stop
       offset="1"
       stop-color="#454547"
       id="stop8" />
  </linearGradient>
  <linearGradient
     id="f"
     gradientTransform="matrix(1,0,0,-1,654,409.2251)"
     gradientUnits="userSpaceOnUse"
     x1="-429.7236"
     x2="-429.7236"
     xlink:href="#a"
     y1="284.8176"
     y2="154.6304" />
  <linearGradient
     id="g"
     gradientUnits="userSpaceOnUse"
     x1="223.1924"
     x2="223.1924"
     xlink:href="#c"
     y1="122.2791"
     y2="219.6125" />
  <linearGradient
     id="h"
     gradientTransform="matrix(1,0,0,-1,654,409.2251)"
     gradientUnits="userSpaceOnUse"
     x1="-296.2861"
     x2="-296.2861"
     xlink:href="#a"
     y1="284.83521"
     y2="153.83521" />
  <linearGradient
     id="i"
     gradientUnits="userSpaceOnUse"
     x1="358.88919"
     x2="358.88919"
     xlink:href="#c"
     y1="122.2791"
     y2="219.6125" />
  <g
     id="g17">
    <g
       id="g16"
       transform="matrix(1,0,0,1.0006281,54.703996,17.345888)">
      <g
         transform="matrix(5.98238,0,0,5.9799042,272.55612,86.326639)"
         id="g15">
        <path
           d="M 583.629,-13.657 H 487.356 L 398.413,77.391 V -13.657 L 341.528,44.391 V -13.657 L 236.423,91.724 V -13.657 L 138.214,84.724 V -13.657 L 78.131,44.724 V -13.657 L -51.036,113.391 H -3.703 L 54.464,53.224 v 60.167 l 51.917,-51.917 v 51.917 l -48.708,48.708 h 49.291 l 97.187,-97.187 v 48.479 h 52.813 l 58.834,-58.833 v 58.833 l 50.583,-50.583 v 50.583 h 122.25 l 32,-32 h -91.668 l 20.5,-19.5 h 30.834 l 30.416,-30.417 h -28.082 l 20.707,-18.708 h 54.625 z"
           fill="url(#b)"
           id="path8"
           style="fill:url(#b)" />
        <path
           d="m 54.048,163.599 50.833,-50.83 V 65.095 L 52.964,117.009 52.962,56.934 -3.066,114.89 H -54.704 L 79.631,-17.239 v 58.412 l 60.083,-58.38 v 98.302 l 98.209,-98.378 -0.002,105.377 105.105,-105.381 v 58.002 l 56.887,-58.05 v 91.042 l 86.811,-88.866 h 96.908 v 1.502 -1.502 h 3.549 L 558.599,14.264 H 503.915 L 486.53,29.972 h 27.807 L 480.918,63.39 450.063,63.388 432.713,79.892 H 524.25 L 489.252,114.89 H 364.879 V 66.429 l -50.583,50.583 V 58.179 L 257.584,114.89 H 202.65 l -0.002,-46.355 -95.063,95.064 z m 53.833,-49.588 -46.585,46.586 h 45.046 l 99.309,-99.312 v 50.602 h 50.69 l 60.957,-60.954 v 58.833 L 367.88,59.188 v 52.702 h 120.129 l 28.998,-29 h -91.795 l 23.65,-22.5 h 30.813 l 27.416,-27.417 h -28.357 l 24.025,-21.707 h 54.568 l 22.752,-23.422 -92.094,-0.003 -91.074,93.229 V -9.982 l -56.887,58.05 V -10.03 L 234.921,95.353 V -10.03 L 136.713,88.352 V -10.109 L 76.631,48.269 V -10.079 L -47.371,111.887 H -4.338 L 55.965,49.511 v 60.257 l 51.917,-51.914 z"
           fill="url(#d)"
           id="path9"
           style="fill:url(#d)" />
        <path
           d="m 186.131,157.056 v -47.333 l -65.833,64 h 48.999 v 22.334 h 16.834 v -22.334 h 18.833 l 17.834,-16.667 z m -16.834,0 h -9.999 l 9.999,-10.999 z"
           fill="#e2e2e2"
           id="path10" />
        <path
           d="m 168.296,197.057 v -22.334 h -50.464 l 69.299,-67.368 v 48.7 h 38.201 l -19.975,18.668 -18.226,-0.002 v 22.336 z m -45.535,-24.336 h 47.536 v 22.335 h 14.833 v -22.335 h 19.438 l 15.692,-14.666 h -34.13 v -0.999 h 1.001 -1.001 v 0.999 h -1 v -45.966 z m 34.275,-14.666 13.262,-14.586 v 13.587 0.999 z m 12.261,-0.999 v -1.001 z m -7.738,-1.001 h 6.737 v -7.413 z"
           fill="url(#e)"
           id="path11"
           style="fill:url(#e)" />
        <path
           d="M 163.214,247.39 285.339,127.265 v 90.125 h -21.875 v -34 l -62.25,64 z"
           fill="url(#f)"
           id="path12"
           style="fill:url(#f)" />
        <path
           d="m 163.215,248.89 v -1.5 l 1.05,1.068 -1.05,-1.068 v 1.5 h -3.667 L 286.837,123.681 v 95.208 h -24.873 v -31.807 l -60.118,61.808 z m 3.661,-3 33.701,-0.002 64.384,-66.194 v 36.195 h 18.877 v -85.046 z"
           fill="url(#g)"
           id="path13"
           style="fill:url(#g)" />
        <path
           d="m 314.464,127.265 -18.5,19.875 v 70.25 h 123.499 l -18.5,-17 h -53.5 v -73.125 l -19.25,19.875 v 53.25 h -13.749 z"
           fill="url(#h)"
           id="path14"
           style="fill:url(#h)" />
        <path
           d="m 294.464,218.889 v -72.342 l 18.899,-20.307 2.6,-2.789 v 75.437 h 10.75 v -52.357 l 22.248,-22.97 v 75.329 h 52.586 l 21.768,19.999 z m 2.998,-71.16 v 68.16 h 118.15 l -15.234,-14.001 h -54.414 l -0.002,-70.919 -16.248,16.777 v 54.142 h -16.75 v -70.813 z"
           fill="url(#i)"
           id="path15"
           style="fill:url(#i)" />
      </g>
    </g>
  </g>
</svg>
