<?xml version="1.0" encoding="UTF-8" standalone="no"?>
<svg
   height="1269"
   viewBox="1.735 -0.002 3839.9998 1268.9999"
   width="3839.9998"
   version="1.1"
   id="svg60"
   sodipodi:docname="mame-libretro.svg"
   inkscape:version="1.3.2 (091e20e, 2023-11-25)"
   xmlns:inkscape="http://www.inkscape.org/namespaces/inkscape"
   xmlns:sodipodi="http://sodipodi.sourceforge.net/DTD/sodipodi-0.dtd"
   xmlns:xlink="http://www.w3.org/1999/xlink"
   xmlns="http://www.w3.org/2000/svg"
   xmlns:svg="http://www.w3.org/2000/svg">
  <defs
     id="defs60" />
  <sodipodi:namedview
     id="namedview60"
     pagecolor="#ffffff"
     bordercolor="#000000"
     borderopacity="0.25"
     inkscape:showpageshadow="2"
     inkscape:pageopacity="0.0"
     inkscape:pagecheckerboard="0"
     inkscape:deskcolor="#d1d1d1"
     inkscape:zoom="0.18582677"
     inkscape:cx="1918.4534"
     inkscape:cy="635"
     inkscape:window-width="1312"
     inkscape:window-height="449"
     inkscape:window-x="0"
     inkscape:window-y="39"
     inkscape:window-maximized="0"
     inkscape:current-layer="svg60" />
  <linearGradient
     id="a"
     gradientTransform="matrix(1,0,0,-1,-0.1797,-14605.497)"
     gradientUnits="userSpaceOnUse"
     x1="3778.6755"
     x2="67.135002"
     y1="-15150.229"
     y2="-15150.229">
    <stop
       offset="0"
       stop-color="#173b66"
       id="stop1" />
    <stop
       offset="1"
       stop-color="#73cdf4"
       id="stop2" />
  </linearGradient>
  <linearGradient
     id="b"
     gradientTransform="matrix(1,0,0,-1,-0.1797,-14605.497)"
     gradientUnits="userSpaceOnUse"
     x1="426.75571"
     x2="399.95911"
     xlink:href="#c"
     y1="-15036.05"
     y2="-15009.254" />
  <linearGradient
     id="c">
    <stop
       offset="0"
       stop-color="#15416f"
       id="stop3" />
    <stop
       offset="1"
       stop-color="#66c3ee"
       id="stop4" />
  </linearGradient>
  <linearGradient
     id="d"
     gradientTransform="matrix(1,0,0,-1,-0.1797,-14605.497)"
     gradientUnits="userSpaceOnUse"
     x1="824.74542"
     x2="800.11652"
     xlink:href="#c"
     y1="-15546.362"
     y2="-15521.733" />
  <linearGradient
     id="e"
     gradientTransform="matrix(1,0,0,-1,-0.1797,-14605.497)"
     gradientUnits="userSpaceOnUse"
     x1="161.92101"
     x2="161.92101"
     xlink:href="#c"
     y1="-15411.464"
     y2="-15382.164" />
  <linearGradient
     id="f"
     gradientTransform="matrix(1,0,0,-1,-0.1797,-14605.497)"
     gradientUnits="userSpaceOnUse"
     x1="810.41388"
     x2="810.41388"
     xlink:href="#c"
     y1="-15677.283"
     y2="-15647.006" />
  <linearGradient
     id="g"
     gradientTransform="matrix(1,0,0,-1,-0.1797,-14605.497)"
     gradientUnits="userSpaceOnUse"
     x1="2892.6028"
     x2="2892.6028"
     xlink:href="#c"
     y1="-15411.273"
     y2="-15380.928" />
  <linearGradient
     id="h"
     gradientTransform="matrix(1,0,0,-1,-0.1797,-14605.497)"
     gradientUnits="userSpaceOnUse"
     x1="1692.713"
     x2="1692.713"
     xlink:href="#c"
     y1="-15417.19"
     y2="-15386.764" />
  <linearGradient
     id="i"
     gradientTransform="matrix(1,0,0,-1,-0.1797,-14605.497)"
     gradientUnits="userSpaceOnUse"
     x1="3535.1479"
     x2="3535.1479"
     xlink:href="#c"
     y1="-14651.538"
     y2="-14618.502" />
  <linearGradient
     id="j"
     gradientTransform="matrix(1,0,0,-1,-0.1797,-14605.497)"
     gradientUnits="userSpaceOnUse"
     x1="3485.7817"
     x2="3485.7817"
     xlink:href="#c"
     y1="-14818.162"
     y2="-14789.562" />
  <linearGradient
     id="k"
     gradientTransform="matrix(1,0,0,-1,-0.1797,-14605.497)"
     gradientUnits="userSpaceOnUse"
     x1="3107.782"
     x2="3107.782"
     xlink:href="#c"
     y1="-15113.777"
     y2="-15088.506" />
  <linearGradient
     id="l"
     gradientTransform="matrix(1,0,0,-1,-0.1797,-14605.497)"
     gradientUnits="userSpaceOnUse"
     x1="3316.9529"
     x2="3316.9529"
     xlink:href="#c"
     y1="-14943.131"
     y2="-14905.398" />
  <linearGradient
     id="m"
     gradientTransform="matrix(1,0,0,-1,-0.1797,-14605.497)"
     gradientUnits="userSpaceOnUse"
     x1="492.52121"
     x2="468.45279"
     xlink:href="#c"
     y1="-15240.098"
     y2="-15216.029" />
  <linearGradient
     id="n"
     gradientTransform="matrix(1,0,0,-1,-0.1797,-14605.497)"
     gradientUnits="userSpaceOnUse"
     x1="804.09949"
     x2="767.64697"
     xlink:href="#c"
     y1="-14802.229"
     y2="-14802.229" />
  <linearGradient
     id="o"
     gradientTransform="matrix(1,0,0,-1,-0.1797,-14605.497)"
     gradientUnits="userSpaceOnUse"
     x1="1162.9591"
     x2="1117.7144"
     xlink:href="#c"
     y1="-14908.143"
     y2="-14908.143" />
  <linearGradient
     id="p"
     gradientTransform="matrix(1,0,0,-1,-0.1797,-14605.497)"
     gradientUnits="userSpaceOnUse"
     x1="1726.1664"
     x2="1685.4543"
     xlink:href="#c"
     y1="-14943.846"
     y2="-14943.846" />
  <linearGradient
     id="q"
     gradientTransform="matrix(1,0,0,-1,-0.1797,-14605.497)"
     gradientUnits="userSpaceOnUse"
     x1="2359.8938"
     x2="2321.1658"
     xlink:href="#c"
     y1="-14803.963"
     y2="-14803.963" />
  <linearGradient
     id="r"
     gradientTransform="matrix(1,0,0,-1,-0.1797,-14605.497)"
     gradientUnits="userSpaceOnUse"
     x1="2710.9958"
     x2="2671.6155"
     xlink:href="#c"
     y1="-14897.854"
     y2="-14897.854" />
  <linearGradient
     id="s"
     gradientTransform="matrix(1,0,0,-1,-0.1797,-14605.497)"
     gradientUnits="userSpaceOnUse"
     x1="678.49261"
     x2="643.77252"
     xlink:href="#c"
     y1="-15240.861"
     y2="-15240.861" />
  <linearGradient
     id="t"
     gradientTransform="matrix(1,0,0,-1,-0.1797,-14605.497)"
     gradientUnits="userSpaceOnUse"
     x1="810.84918"
     x2="786.71252"
     xlink:href="#c"
     y1="-15274.146"
     y2="-15250.009" />
  <linearGradient
     id="u"
     gradientTransform="matrix(1,0,0,-1,-0.1797,-14605.497)"
     gradientUnits="userSpaceOnUse"
     x1="3746.8042"
     x2="3721.8767"
     xlink:href="#c"
     y1="-14721.605"
     y2="-14696.677" />
  <linearGradient
     id="v"
     gradientTransform="matrix(1,0,0,-1,-0.1797,-14605.497)"
     gradientUnits="userSpaceOnUse"
     x1="978.95068"
     x2="942.27759"
     xlink:href="#c"
     y1="-15247.25"
     y2="-15247.25" />
  <linearGradient
     id="w"
     gradientTransform="matrix(1,0,0,-1,-0.1797,-14605.497)"
     gradientUnits="userSpaceOnUse"
     x1="997.85022"
     x2="967.36328"
     xlink:href="#c"
     y1="-14820.167"
     y2="-14789.68" />
  <linearGradient
     id="x"
     gradientTransform="matrix(1,0,0,-1,-0.1797,-14605.497)"
     gradientUnits="userSpaceOnUse"
     x1="1453.4663"
     x2="1425.2167"
     xlink:href="#c"
     y1="-14924.183"
     y2="-14895.933" />
  <linearGradient
     id="y"
     gradientTransform="matrix(1,0,0,-1,-0.1797,-14605.497)"
     gradientUnits="userSpaceOnUse"
     x1="2054.4578"
     x2="2024.6748"
     xlink:href="#c"
     y1="-14961.47"
     y2="-14931.687" />
  <linearGradient
     id="z"
     gradientTransform="matrix(1,0,0,-1,-0.1797,-14605.497)"
     gradientUnits="userSpaceOnUse"
     x1="2548.0273"
     x2="2519.4426"
     xlink:href="#c"
     y1="-14819.156"
     y2="-14790.568" />
  <linearGradient
     id="A"
     gradientTransform="matrix(1,0,0,-1,-0.1797,-14605.497)"
     gradientUnits="userSpaceOnUse"
     x1="3307.2859"
     x2="3283.8015"
     xlink:href="#c"
     y1="-15012.108"
     y2="-14988.626" />
  <linearGradient
     id="B"
     gradientTransform="matrix(1,0,0,-1,-0.1797,-14605.497)"
     gradientUnits="userSpaceOnUse"
     x1="3382.4878"
     x2="3355.5847"
     xlink:href="#c"
     y1="-15311.773"
     y2="-15284.871" />
  <linearGradient
     id="C"
     gradientTransform="matrix(1,0,0,-1,-0.1797,-14605.497)"
     gradientUnits="userSpaceOnUse"
     x1="2988.675"
     x2="2959.5793"
     xlink:href="#c"
     y1="-14919.38"
     y2="-14890.285" />
  <linearGradient
     id="D"
     gradientTransform="matrix(1,0,0,-1,-0.1797,-14605.497)"
     gradientUnits="userSpaceOnUse"
     x1="3294.5244"
     x2="3259.7908"
     xlink:href="#c"
     y1="-14885.651"
     y2="-14850.917" />
  <linearGradient
     id="E"
     gradientTransform="matrix(1,0,0,-1,-0.1797,-14605.497)"
     gradientUnits="userSpaceOnUse"
     x1="1250.5677"
     x2="1225.8203"
     xlink:href="#c"
     y1="-15399.775"
     y2="-15375.027" />
  <linearGradient
     id="F"
     gradientTransform="matrix(1,0,0,-1,-0.1797,-14605.497)"
     gradientUnits="userSpaceOnUse"
     x1="2045.7185"
     x2="2020.9821"
     xlink:href="#c"
     y1="-15242.232"
     y2="-15217.495" />
  <linearGradient
     id="G"
     gradientTransform="matrix(1,0,0,-1,-0.1797,-14605.497)"
     gradientUnits="userSpaceOnUse"
     x1="2364.0522"
     x2="2340.2117"
     xlink:href="#c"
     y1="-15269.031"
     y2="-15245.189" />
  <linearGradient
     id="H"
     gradientTransform="matrix(1,0,0,-1,-0.1797,-14605.497)"
     gradientUnits="userSpaceOnUse"
     x1="2507.1753"
     x2="2477.217"
     xlink:href="#c"
     y1="-15407.465"
     y2="-15377.508" />
  <linearGradient
     id="I"
     gradientTransform="matrix(1,0,0,-1,-0.1797,-14605.497)"
     gradientUnits="userSpaceOnUse"
     x1="1545.9348"
     x2="1504.9176"
     xlink:href="#c"
     y1="-15260.089"
     y2="-15260.089" />
  <linearGradient
     id="J"
     gradientTransform="matrix(1,0,0,-1,-0.1797,-14605.497)"
     gradientUnits="userSpaceOnUse"
     x1="2231.0129"
     x2="2195.6035"
     xlink:href="#c"
     y1="-15238.008"
     y2="-15238.008" />
  <linearGradient
     id="K"
     gradientTransform="matrix(1,0,0,-1,-0.1797,-14605.497)"
     gradientUnits="userSpaceOnUse"
     x1="2534.4329"
     x2="2492.012"
     xlink:href="#c"
     y1="-15233.171"
     y2="-15233.171" />
  <linearGradient
     id="L"
     gradientTransform="matrix(1,0,0,-1,-0.1797,-14605.497)"
     gradientUnits="userSpaceOnUse"
     x1="2980.5332"
     x2="2950.5171"
     xlink:href="#c"
     y1="-15177.936"
     y2="-15147.921" />
  <linearGradient
     id="M"
     gradientTransform="matrix(1,0,0,-1,-0.1797,-14605.497)"
     gradientUnits="userSpaceOnUse"
     x1="3199.8369"
     x2="3199.8369"
     xlink:href="#c"
     y1="-15244.737"
     y2="-15205.329" />
  <g
     id="g62">
    <g
       id="g61"
       transform="scale(1,0.99921261)">
      <g
         transform="scale(1,1.0007432)"
         id="g60">
        <g
           fill="#c0392b"
           transform="matrix(6.7941241,0,0,6.7941241,-10.051693,0.007558)"
           id="g6">
          <path
             d="m 199.027,180.485 c 3.235,0 5.857,2.921 5.857,6.156 H 186.913 V 128.36 h 5.958 v 52.125 z"
             id="path4" />
          <path
             d="m 215.707,186.642 c -3.235,0 -6.057,-2.923 -6.057,-6.156 v -40.459 h 6.057 z"
             id="path5" />
          <path
             d="m 233.678,140.026 h -6.157 V 128.36 h -6.055 v 58.281 h 12.212 c 3.235,0 5.857,-2.923 5.857,-6.156 v -34.75 c 0,-3.235 -2.622,-5.709 -5.857,-5.709 z m -0.1,40.459 h -6.057 v -34.65 h 6.057 z"
             id="path6" />
        </g>
        <g
           stroke-width="6.79412"
           id="g13">
          <path
             d="m 1661.8939,869.68941 h 329.3588 c 0,0 18.7178,3.03018 24.7849,14.16575 6.0672,11.14237 53.6329,109.27669 58.1781,120.40544 4.5521,11.1424 0.5028,19.2274 -6.0807,27.8424 -6.5835,8.6013 -74.8781,86.5027 -74.8781,86.5027 l 83.4727,147.0589 h -125.9699 c 0,0 -98.6575,-168.8204 -104.2151,-176.9054 -5.5712,-8.0851 -5.5712,-21.2521 6.5699,-21.2521 h 43.0069 c 5.5575,0 8.0918,-1.0055 14.6685,-6.5699 6.5767,-5.5712 40.4726,-46.5601 40.4726,-46.5601 0,0 -16.1904,-43.5028 -19.7302,-51.60139 -3.5397,-8.0986 -11.1355,-10.61922 -18.2082,-10.61922 -7.0795,0 -126.9754,0 -126.9754,0 v 313.50131 h -124.4616 z"
             fill="#231f20"
             id="path7" />
          <path
             d="m 1948.8166,1269.0548 -0.9852,-1.6849 c -0.054,-0.082 -24.6558,-42.2119 -49.9979,-85.4157 -25.3217,-43.1359 -51.5267,-87.6103 -54.0745,-91.2791 -2.6293,-3.8591 -4.1716,-8.4859 -4.1851,-13.0175 0,-3.336 0.8764,-6.733 3.2136,-9.4031 2.3372,-2.6769 6.0264,-4.2056 10.3406,-4.1648 12.1547,0 37.4425,0 43.0068,0.014 5.0685,-0.1699 5.7886,-0.3261 12.4808,-5.775 2.7449,-2.2829 13.1059,-14.1318 22.2984,-24.9752 7.1542,-8.4112 13.7988,-16.4146 16.4893,-19.6486 -3.1253,-8.3772 -15.973,-42.72828 -18.976,-49.58356 -2.8603,-6.50877 -8.6693,-8.50624 -15.0829,-8.58777 -3.5398,0 -35.2955,0 -66.1544,0 -24.6695,0 -48.7411,0 -57.4308,0 v 313.50803 h -131.2692 v -399.35858 -3.41065 h 3.4106 329.3452 c 14.0299,-0.38727 21.8159,4.19877 27.7744,15.9526 6.2302,11.46848 53.6192,109.20196 58.3547,120.73843 1.4743,3.6348 2.1741,7.1202 2.1605,10.4425 0,8.0103 -3.9677,14.5055 -8.6897,20.7493 -6.2098,8.1054 -63.1378,73.1183 -73.4309,84.8586 l 85.1712,150.0346 z m 122.0836,-6.8077 -81.7673,-144.0898 1.5762,-1.8004 c 0.082,-0.1019 68.4033,-78.0509 74.7286,-86.3194 4.5181,-5.9312 7.3309,-11.0404 7.3173,-16.6252 -0.014,-2.3779 -0.4824,-4.9393 -1.685,-7.8676 -4.3822,-10.7279 -52.1177,-109.26308 -58.0218,-120.05895 -6.1826,-10.53089 -8.5062,-12.00522 -21.8023,-12.39927 -12.8273,0 -291.896,0 -325.9481,0 v 389.16062 h 117.6538 V 948.74584 h 3.4107 126.9754 c 7.7521,-0.0883 17.1076,2.97583 21.3199,12.65066 3.6553,8.36357 19.7709,51.7305 19.7981,51.778 l 0.6862,1.8412 -1.2501,1.5219 c -0.1563,0.1427 -33.6105,40.7308 -40.9006,46.9814 -6.4545,5.6663 -10.8095,7.5211 -16.8631,7.3784 -5.5643,-0.014 -30.8521,-0.014 -43.0068,-0.014 -5.5168,0.3057 -6.3796,2.4051 -6.7669,6.7738 -0.014,2.901 1.121,6.468 2.9962,9.1584 5.4897,8.0239 93.0727,157.8343 103.3658,175.4311 z"
             fill="#ffffff"
             id="path8" />
          <path
             d="m 2930.683,869.68941 h 329.3452 c 13.6698,0 18.7246,3.03018 24.7849,14.16575 6.0672,11.14237 53.6397,109.27669 58.1781,120.40544 4.5657,11.1424 0.5028,19.2274 -6.0671,27.8424 -6.5835,8.6013 -74.8781,86.5027 -74.8781,86.5027 l 83.4794,147.0589 H 3219.542 c 0,0 -98.6507,-168.8204 -104.2219,-176.9054 -5.5576,-8.0851 -5.5576,-21.2521 6.5835,-21.2521 h 42.9933 c 5.5711,0 8.0918,-1.0055 14.6753,-6.5699 6.5835,-5.5712 40.4726,-46.5601 40.4726,-46.5601 0,0 -16.1904,-43.5028 -19.7302,-51.60139 -3.5329,-8.0918 -11.122,-10.61922 -18.2082,-10.61922 -7.0863,0 -126.9754,0 -126.9754,0 V 1265.6578 H 2930.6762 V 869.68941 Z"
             fill="#231f20"
             id="path9" />
          <path
             d="m 3217.5921,1269.048 -0.9716,-1.6849 c -0.068,-0.088 -24.6694,-42.1983 -50.0115,-85.4089 -25.3217,-43.1291 -51.5267,-87.5967 -54.0745,-91.2791 -2.6293,-3.8523 -4.1648,-8.4859 -4.1783,-13.0243 -0.027,-3.3224 0.8764,-6.7194 3.2136,-9.3963 2.3236,-2.6837 6.0128,-4.192 10.3474,-4.158 h 42.9932 c 5.0685,-0.1495 5.7886,-0.3193 12.4876,-5.7682 2.7449,-2.2964 13.1127,-14.1318 22.3051,-24.9752 7.1407,-8.4112 13.7989,-16.4146 16.4826,-19.6486 -3.1185,-8.35 -15.9662,-42.72149 -18.976,-49.56997 -2.8671,-6.52915 -8.6761,-8.51983 -15.0897,-8.60136 -3.5398,0 -35.2955,0 -66.1476,0 -24.6967,0 -48.7683,0 -57.4308,0 v 313.50123 h -131.2624 v -399.34499 -3.41065 h 3.4106 329.3588 c 14.023,-0.39406 21.8023,4.19198 27.7608,15.93222 6.2505,11.46849 53.6124,109.21555 58.3479,120.73842 1.5015,3.6552 2.1741,7.1406 2.1741,10.4629 -0.014,7.9967 -3.9678,14.4987 -8.6897,20.7357 -6.2098,8.0918 -63.1378,73.1183 -73.4377,84.8586 l 85.1644,150.0346 h -133.7763 z m 122.0972,-6.8009 -81.7809,-144.083 1.6034,-1.8072 c 0.054,-0.1087 68.3897,-78.0509 74.7082,-86.3194 4.4977,-5.9312 7.3241,-11.054 7.3105,-16.6184 0,-2.3983 -0.4756,-4.9461 -1.685,-7.8812 -4.3686,-10.71431 -52.0973,-109.24949 -58.015,-120.05215 -6.169,-10.53089 -8.5198,-12.00522 -21.8023,-12.39248 -12.8341,-0.0136 -291.896,-0.0136 -325.9481,0 v 389.15383 h 117.6334 V 948.74584 h 3.4107 126.9754 c 7.7521,-0.0883 17.1212,2.97583 21.3267,12.65066 3.6485,8.37716 19.7709,51.7237 19.7981,51.778 l 0.693,1.8412 -1.2501,1.5287 c -0.1427,0.1427 -33.6241,40.7104 -40.9006,46.9746 -6.4612,5.6799 -10.8027,7.5347 -16.8631,7.3648 -5.5575,0 -30.8657,0 -42.9932,0 -5.5304,0.3057 -6.3932,2.3983 -6.7805,6.767 -0.027,2.9214 1.1142,6.4748 2.9962,9.172 5.4964,8.0171 93.0591,157.8071 103.3726,175.4243 z"
             fill="#ffffff"
             id="path10" />
          <path
             d="m 2099.5238,1265.6578 c 0,0 0,-253.2986 0,-261.9067 0,-8.60139 2.0179,-12.13434 6.0672,-20.74249 4.0629,-8.60816 50.5958,-94.10541 55.6643,-102.19042 5.0548,-8.0918 12.1411,-11.13557 25.7972,-11.13557 h 327.7486 v 81.95752 c 0,0 -237.1965,0 -246.3006,0 -9.1041,0 -13.1534,0.51635 -19.2274,13.66978 -6.0739,13.15342 -25.2945,59.69998 -25.2945,59.69998 h 249.4191 v 82.4671 h -249.4191 v 74.878 h 290.8225 v 83.3096 h -415.2773 z"
             fill="#231f20"
             id="path11" />
          <path
             d="m 2099.5238,1269.0548 v -3.397 h 3.3971 -3.3971 v 3.397 h -3.397 v -3.397 c 0,-0.014 0,-253.3054 0,-261.9067 -0.054,-9.21286 2.4119,-13.83287 6.3729,-22.18964 4.2735,-8.99542 50.5686,-94.07824 55.868,-102.5573 5.5848,-9.21283 14.7025,-12.88846 28.6916,-12.73219 h 327.7486 3.3835 v 88.75164 h -3.3835 c -0.014,0 -237.1965,0 -246.3006,0 -9.1177,0.55712 -9.6477,-0.89003 -16.1496,11.69948 -4.8307,10.45616 -18.2626,42.72141 -23.3039,54.87611 h 247.7478 v 89.268 l -249.4191,-0.014 v 68.084 h 290.8224 v 90.1104 z m 411.8666,-6.8077 v -76.5018 H 2220.568 v -81.679 h 249.4326 v -75.6661 H 2218.883 l 1.9363,-4.6948 c 0.014,-0.034 19.2138,-46.50577 25.3557,-59.82225 5.6527,-13.71734 13.2146,-16.19719 22.3187,-15.64007 h 242.9035 v -75.1634 c -33.9842,0 -311.5445,0 -324.365,0 -13.3369,0.16306 -18.3917,2.56818 -22.9166,9.52536 -4.8306,7.71133 -51.6354,93.63662 -55.4673,101.83713 -4.124,8.85274 -5.6798,11.31901 -5.7478,19.30893 v 258.4892 z"
             fill="#ffffff"
             id="path12" />
          <path
             d="M 2788.0743,994.15097 V 869.69621 h -148.4855 v 124.45476 h -124.7877 v 145.44183 h 124.7877 v 126.065 h 148.4855 v -126.065 h 121.9206 V 994.15097 Z m -74.8644,116.61433 c -24.1803,0 -43.761,-19.5942 -43.761,-43.7609 0,-24.1667 19.5875,-43.7542 43.761,-43.7542 24.1667,0 43.7474,19.5943 43.7474,43.7542 0,24.1667 -19.5875,43.7609 -43.7474,43.7609 z"
             fill="#231f20"
             id="path13" />
        </g>
        <g
           fill="#ffffff"
           transform="matrix(6.7941241,0,0,6.7941241,-10.051693,0.007558)"
           id="g17">
          <path
             d="m 389.489,186.786 v -18.555 h -18.367 v -22.409 h 18.367 v -18.318 h 22.856 v 18.318 h 17.944 v 22.409 l -17.946,-0.003 v 18.558 z M 372.121,167.23 h 18.369 v 18.554 h 20.854 V 167.23 h 17.944 v -20.407 h -17.443 v -0.5 h 0.5 -0.5 v 0.5 h -0.501 V 128.504 H 390.49 v 18.319 l -18.369,-0.002 z m 28.705,-3.244 v -0.498 -0.502 c 3.279,-0.006 5.932,-2.658 5.938,-5.939 -0.006,-3.281 -2.658,-5.936 -5.938,-5.941 -3.283,0.006 -5.936,2.66 -5.941,5.941 0.006,3.281 2.658,5.934 5.941,5.941 v 0.5 0.498 c -3.836,0 -6.941,-3.107 -6.944,-6.939 0.003,-3.834 3.108,-6.94 6.944,-6.942 3.832,0.002 6.938,3.108 6.938,6.942 0,3.832 -3.106,6.939 -6.938,6.942 z"
             id="path14" />
          <path
             d="m 407.08,173.578 h -12.584 l 6.179,6.18 z"
             id="path15" />
          <path
             d="m 417.392,150.681 v 12.582 l 6.182,-6.18 z"
             id="path16" />
          <path
             d="m 384.181,163.263 v -12.582 l -6.18,6.179 z"
             id="path17" />
        </g>
        <g
           stroke-width="6.79412"
           id="g21">
          <path
             d="m 3680.5233,869.68941 h -238.1272 c -44.1347,0 -79.9397,35.79145 -79.9397,79.93967 v 236.09582 c 0,44.1482 35.805,79.9397 79.9397,79.9397 h 238.1272 c 44.1482,0 79.9397,-35.7915 79.9397,-79.9397 V 949.62908 c -0.02,-44.15501 -35.7915,-79.93967 -79.9397,-79.93967 z m -119.0738,317.03419 c -65.937,0 -119.3999,-53.4561 -119.3999,-119.3931 0,-65.937 53.4629,-119.38637 119.3999,-119.38637 65.937,0 119.3999,53.44937 119.3999,119.38637 0,65.937 -53.4629,119.3931 -119.3999,119.3931 z"
             fill="#231f20"
             id="path18" />
          <path
             d="m 3442.3893,1269.048 c -46.0098,0 -83.3368,-37.3065 -83.3368,-83.3367 V 949.62228 c 0,-46.03698 37.3202,-83.33672 83.3368,-83.35031 h 238.134 v 3.40386 3.39026 h -238.134 c -42.2595,0.0951 -76.4679,34.28315 -76.5426,76.55619 v 236.08902 c 0.075,42.273 34.2831,76.4611 76.5426,76.5358 h 238.134 c 42.2663,-0.075 76.4543,-34.2628 76.5426,-76.5358 V 949.62228 c -0.014,-42.28662 -34.2763,-76.55619 -76.5426,-76.55619 v -3.39026 -3.40386 c 46.0234,0.0136 83.3096,37.32012 83.3232,83.35031 l 0.014,236.08902 c -0.014,46.0234 -37.3201,83.3367 -83.3367,83.3367 z m -3.7436,-201.7243 c 0,-67.81216 54.9916,-122.77663 122.7902,-122.79022 67.819,0.0136 122.797,54.97806 122.8106,122.79022 -0.014,67.8189 -54.9916,122.7902 -122.8106,122.7902 v -3.3903 -3.4038 c 64.0686,-0.1223 115.901,-51.9479 116.0097,-115.9961 -0.1155,-64.055 -51.9479,-115.88059 -116.0097,-115.9893 -64.0686,0.1155 -115.8806,51.9411 -115.9893,115.9893 0.1155,64.055 51.9275,115.8806 115.9893,115.9961 v 3.4038 3.3903 c -67.7986,0 -122.7902,-54.9713 -122.7902,-122.7902 z"
             fill="#ffffff"
             id="path19" />
          <path
             d="m 1414.3364,872.10133 h 41.152 v 42.59236 h -41.152 z"
             fill="#c0392b"
             id="path20" />
          <path
             d="m 2670.2031,953.67158 h 85.4972 l -42.0012,-41.98089 z"
             fill="#ffffff"
             id="path21" />
        </g>
        <g
           transform="matrix(1.0001351,0,0,1.0001351,1.735535,-0.028392)"
           id="g59">
          <path
             d="m 3325,187.9 309.7,2 143.8,-149.6 -529.9,-2 -497.8,499.8 -69.7,3.9 1.9,-480.8 -279.9,285.6 -67,8 V 63.7 l -573.1,567 -71.2,7.6 6,-583.4 -500.8,508.5 -65.8,0.4 -7.7,-488.5 -270.2,272.2 -75.2,3.8 L 781,60.7 67,780.5 302.1,776.7 610.5,477.4 h 59.1 l -2.9,300.7 245.6,-251.3 h 58.8 v 256 l -270.3,268.3 259,-3.8 509.6,-515.4 h 68.6 v 253.2 l 317.7,1.9 307.1,-309.1 59.3,-3.8 -0.9,292.2 245.5,-245.5 h 57.9 l 3.9,247.5 -5,12.9 h 741.6 l 142,-143.9 -461.1,-7.8 -4.2,-66.9 71.8,-75.7 h 174 l 151.1,-153.1 -91.3,-3.9 v -64.4 z"
             fill="url(#a)"
             id="path22"
             style="fill:url(#a)" />
          <path
             d="M 767.3,89.8 80.4,776.7 2.5,806 c 0,0 -4.1,0.3 -1.8,-3 0,0 796.6,-796.8 798,-798 1.4,-1.2 3.2,-0.2 3.2,-0.2 z"
             fill="url(#b)"
             id="path23"
             style="fill:url(#b)" />
          <path
             d="m 978.8,786.6 -254.9,254.9 -75.2,30.3 c 0,0 -3.9,0.4 -1.6,-2.8 L 945.5,771.8 Z"
             fill="url(#d)"
             id="path24"
             style="fill:url(#d)" />
          <path
             d="M 321,806 H 2.5 l 78.1,-29.3 h 221.5 z"
             fill="url(#e)"
             id="path25"
             style="fill:url(#e)" />
          <path
             d="m 971.7,1071.8 h -323 l 75.2,-30.3 H 954 Z"
             fill="url(#f)"
             id="path26"
             style="fill:url(#f)" />
          <path
             d="m 3281.5,805.8 -778.1,-0.2 25,-30.2 h 731 z"
             fill="url(#g)"
             id="path27"
             style="fill:url(#g)" />
          <path
             d="m 1870.3,811.7 -350,-0.2 c -2.3,0 -5.5,-2.3 -5.5,-2.3 l 31,-28 h 306.1 z"
             fill="url(#h)"
             id="path28"
             style="fill:url(#h)" />
          <path
             d="m 3231.2,13 h 602.2 c 5.3,0 5.3,2.1 5.3,2.1 L 3766.9,46 h -510.6 z"
             fill="url(#i)"
             id="path29"
             style="fill:url(#i)" />
          <path
             d="m 3650.1,212.7 h -314.9 l -14.1,-28.6 h 307.8 z"
             fill="url(#j)"
             id="path30"
             style="fill:url(#j)" />
          <path
             d="m 3205.4,508.3 h -167.6 l -28,-25.3 h 174 z"
             fill="url(#k)"
             id="path31"
             style="fill:url(#k)" />
          <path
             d="m 3329.1,337.6 h -92.3 l -8.1,-37.7 h 173 c 2.4,-0.3 3,1 3,1 z"
             fill="url(#l)"
             id="path32"
             style="fill:url(#l)" />
          <path
             d="M 646.3,479.8 321,806 302.2,776.7 618.8,461.7 c 13.6,-15.7 31.8,-11.8 31.8,-11.8 z"
             fill="url(#m)"
             id="path33"
             style="fill:url(#m)" />
          <path
             d="M 767.5,351 V 89.6 L 801.9,4.7 c 0,0 2.1,0.5 2.1,3.9 V 373 l -2.1,15.7 c -0.1,0 -30.7,0.2 -34.4,-37.7 z"
             fill="url(#n)"
             id="path34"
             style="fill:url(#n)" />
          <path
             d="m 1162.8,603.5 c 0,0 -44.4,13.2 -45,-38.2 -0.5,-49.7 -0.1,-470.7 -0.1,-470.7 l 35.4,-94.4 c 0,0 1.2,-0.2 1.2,4.9 l -0.1,555.6 z"
             fill="url(#o)"
             id="path35"
             style="fill:url(#o)" />
          <path
             d="m 1726,671.9 c 0,0 -40,3.9 -40.5,-41.4 l -0.2,-543.9 31.6,-82 c 0,0 4,1 4,6.2 l -0.1,619.1 z"
             fill="url(#p)"
             id="path36"
             style="fill:url(#p)" />
          <path
             d="m 2359.7,390.1 c 0,0 -33.1,3.1 -38.7,-31 V 89.3 l 29.8,-82.5 c 0,0 3.8,0.9 3.8,6 v 337.4 z"
             fill="url(#q)"
             id="path37"
             style="fill:url(#q)" />
          <path
             d="m 2710.8,579.7 c 0,0 -33.5,4.4 -39.4,-29.7 V 90 l 32.9,-85.2 c 0,0 1.8,1.5 1.8,11.6 V 541 Z"
             fill="url(#r)"
             id="path38"
             style="fill:url(#r)" />
          <path
             d="m 652.3,820.8 c 0,0 -5.7,-0.5 -5.5,-7.8 0,-6.2 -0.5,-333.1 -0.5,-333.1 0,0 -8.3,-10.7 4.2,-29.9 3.7,0.9 23.7,4.9 27.9,28.9 v 274.2 z"
             fill="url(#s)"
             id="path39"
             style="fill:url(#s)" />
          <path
             d="m 945,533.9 c 0,0 -281.8,282.2 -284.5,284.9 -2.4,2.6 -8.2,1.9 -8.2,1.9 l 26,-67.7 245,-245.2 c 0,0 9.1,-11.7 26,-11.1 z"
             fill="url(#t)"
             id="path40"
             style="fill:url(#t)" />
          <path
             d="M 3837.3,24.7 3650,212.6 3628.8,184 3766.8,45.9 3838.7,15 c 0.1,0.1 2.4,5.9 -1.4,9.7 z"
             fill="url(#u)"
             id="path41"
             style="fill:url(#u)" />
          <path
             d="M 945.5,771.8 945,533.9 c 0,0 -8.8,-17.9 4.3,-37.1 4,0 25.1,2.9 29.5,28.2 v 261.7 z"
             fill="url(#v)"
             id="path42"
             style="fill:url(#v)" />
          <path
             d="M 1117.7,94.6 836.1,376.3 c -13.5,13.5 -34.3,12.5 -34.3,12.5 -12.2,-24 2.1,-41.2 2.1,-41.2 0,0 343.1,-343 345.6,-345.6 2.2,-2.8 3.7,-1.8 3.7,-1.8 z"
             fill="url(#w)"
             id="path43"
             style="fill:url(#w)" />
          <path
             d="M 1685.3,86.7 1180,592 c -10.5,10.5 -17.2,11.6 -17.2,11.6 -25.7,-12.8 -8.2,-42.5 -8.2,-42.5 0,0 547.9,-547.8 550.4,-550.4 6.4,-7.4 12,-6 12,-6 z"
             fill="url(#x)"
             id="path44"
             style="fill:url(#x)" />
          <path
             d="M 2321,89.3 1749.2,661 c -9.7,9.7 -23.3,10.9 -23.3,10.9 -21.2,-10.6 -5.3,-41.9 -5.3,-41.9 0,0 615.5,-614.8 618,-617.4 6.4,-7.5 12.1,-5.9 12.1,-5.9 z"
             fill="url(#y)"
             id="path45"
             style="fill:url(#y)" />
          <path
             d="m 2671.4,90 -288.8,288.8 c -9.7,9.7 -22.9,11.3 -22.9,11.3 -19.9,-13 -4,-40.6 -4,-40.6 0,0 336.9,-337.6 339.3,-340.2 7.1,-7 9.4,-4.5 9.4,-4.5 z"
             fill="url(#z)"
             id="path46"
             style="fill:url(#z)" />
          <path
             d="m 3404.9,308.8 -199.5,199.5 -21.7,-25.3 145.4,-145.4 75.6,-36.7 c 0.1,0 2.9,2 0.2,7.9 z"
             fill="url(#A)"
             id="path47"
             style="fill:url(#A)" />
          <path
             d="m 3477.5,611.1 -196,194.6 -22.1,-30.3 136.2,-136.2 83.5,-36.5 c -0.1,0 2.6,2.9 -1.6,8.4 z"
             fill="url(#B)"
             id="path48"
             style="fill:url(#B)" />
          <path
             d="m 3256.3,46 -522.5,522.5 c -9.7,9.7 -23.1,11.2 -23.1,11.2 -16.6,-21 -4.7,-40.6 -4.7,-40.6 L 3231,13 Z"
             fill="url(#C)"
             id="path49"
             style="fill:url(#C)" />
          <path
             d="m 3335.2,212.7 -86.1,86.9 c -18.8,15.5 -12.2,38.1 -12.2,38.1 -15.3,-1.4 -21.2,-14 -23.2,-25.1 -1.9,-11.1 2.1,-23.2 9.2,-30.3 l 98.3,-98.1 z"
             fill="url(#D)"
             id="path50"
             style="fill:url(#D)" />
          <path
             d="M 954,1041.5 1483.3,512 c 0,0 9.8,-12.7 29,-12 l -3.1,35.5 c 0,0 -534.4,533.3 -537.4,536.3 z"
             fill="url(#E)"
             id="path51"
             style="fill:url(#E)" />
          <path
             d="m 1851.8,781.3 323.7,-323.8 c 0,0 9.8,-12.7 29,-12 l -5.8,38.2 -328.3,328 z"
             fill="url(#F)"
             id="path52"
             style="fill:url(#F)" />
          <path
             d="m 2230.8,749 249.9,-250 c 5.7,-5.7 12.1,-12 23.1,-12 l -0.7,37.4 -292.7,292.4 c -3.9,3.8 -6.9,2.7 -6.9,2.7 z"
             fill="url(#G)"
             id="path53"
             style="fill:url(#G)" />
          <path
             d="m 2448.8,800.4 47.7,-47.9 37.8,15.8 -30.9,37.3 H 2451 c -2.7,0 -4.1,-3.3 -2.2,-5.2 z"
             fill="url(#H)"
             id="path54"
             style="fill:url(#H)" />
          <path
             d="m 1509.8,797.1 -0.6,-261.6 c 0,0 -11.8,-13.7 3.1,-35.5 4.6,-0.1 28.5,3.2 33.5,32 v 249.3 l -31,28 c 0,-0.1 -5,-3.3 -5,-12.2 z"
             fill="url(#I)"
             id="path55"
             style="fill:url(#I)" />
          <path
             d="m 2199.1,814.8 -0.5,-331.2 c 0,0 -10,-18.2 5.9,-38.2 4,-0.1 22,3.2 26.4,31.9 V 749 l -27.4,70.6 c -0.1,-0.1 -4.1,-1 -4.4,-4.8 z"
             fill="url(#J)"
             id="path56"
             style="fill:url(#J)" />
          <path
             d="M 2496.5,752.5 V 530.9 c 0,0 -14.4,-23 7.2,-43.9 4.7,-0.1 28.1,1.6 30.5,29.4 v 251.9 z"
             fill="url(#K)"
             id="path57"
             style="fill:url(#K)" />
          <path
             d="m 3037.8,508.3 -91.4,91.6 -26.1,32.7 c -26.5,-16.7 -13.3,-46.7 -6.2,-53.8 l 95.7,-95.6 z"
             fill="url(#L)"
             id="path58"
             style="fill:url(#L)" />
          <path
             d="m 3395.6,639.2 h -451 c -17,-1.3 -24.3,-6.7 -24.3,-6.7 -0.1,-24.3 26.1,-32.7 26.1,-32.7 h 528.1 c 3.7,0 4.5,2.9 4.5,2.9 z"
             fill="url(#M)"
             id="path59"
             style="fill:url(#M)" />
        </g>
      </g>
    </g>
  </g>
</svg>
