<svg enable-background="new 0 0 3839 1557.6" viewBox="0 0 3839 1557.6" xmlns="http://www.w3.org/2000/svg"><path d="m0 0h3839v1557.6h-3839z"/><g fill="#fffffa"><path d="m2722.2 513.4h-285.9v-281.6h322.4z"/><path d="m1902.4004 231.80078v.09961c-458.4996 0-458.4996 687.69922 0 687.69922v-.09961h247.0996c83.0999 0 83.0999 124.6992 0 124.6992h-570.1992v281.5h570.1992.0996v-.0019c458.3984-.1012 458.3662-687.6973-.0996-687.6973h-247.0996v.09961c-83.0999 0-83.0999-124.69922 0-124.69922v-.09961h583.4004v-281.5z"/><path d="m3535.8 1325.8-777.1-1094-245.1 141.1 676.9 952.9z"/><path d="m2389.5 1325.8 777-1094h345.3l-777 1094z"/><path d="m595 1325.8 134.4-492.7 134.4 492.7h253.9l134.5-492.7 134.3 492.7h291.8l-298.4-1094h-255.6l-133.6 489.7-133.5-489.7h-255.6l-298.4 1094z"/></g></svg>