<?xml version="1.0" encoding="UTF-8" standalone="no"?>
<svg
   enable-background="new 0 0 3840 857.9"
   height="858.00006"
   viewBox="0 0 3840 858.00004"
   width="3840"
   version="1.1"
   id="svg23"
   sodipodi:docname="n64.svg"
   inkscape:version="1.3.2 (091e20e, 2023-11-25)"
   xmlns:inkscape="http://www.inkscape.org/namespaces/inkscape"
   xmlns:sodipodi="http://sodipodi.sourceforge.net/DTD/sodipodi-0.dtd"
   xmlns="http://www.w3.org/2000/svg"
   xmlns:svg="http://www.w3.org/2000/svg">
  <defs
     id="defs23" />
  <sodipodi:namedview
     id="namedview23"
     pagecolor="#ffffff"
     bordercolor="#000000"
     borderopacity="0.25"
     inkscape:showpageshadow="2"
     inkscape:pageopacity="0.0"
     inkscape:pagecheckerboard="0"
     inkscape:deskcolor="#d1d1d1"
     inkscape:zoom="0.21510417"
     inkscape:cx="1917.6755"
     inkscape:cy="427.69976"
     inkscape:window-width="1312"
     inkscape:window-height="449"
     inkscape:window-x="215"
     inkscape:window-y="39"
     inkscape:window-maximized="0"
     inkscape:current-layer="svg23" />
  <g
     id="g25">
    <g
       id="g24">
      <g
         transform="scale(1 1.0001166)"
         id="g23">
        <g
           fill="#334fa2"
           id="g7">
          <path
             d="m1145.7 626.9h139.4v-310h-94.3v177.8h-.8l-62.2-177.8h-139.5v310h94.3v-178.9h.8z"
             id="path1" />
          <path
             d="m1672 626.9h139.5v-310h-94.4v177.8h-.8l-62.2-177.8h-139.5v310h94.4v-178.9h.7z"
             id="path2" />
          <path
             d="m2578.2 626.9h139.5v-310h-94.3v177.8h-.9l-62.2-177.8h-139.5v310h94.4v-178.9h.7z"
             id="path3" />
          <path
             d="m1342.2 316.9h116.3v310h-116.3z"
             id="path4" />
          <path
             d="m1919.2 401.2h-74v-84.3h264.5v84.3h-74.2v225.7h-116.3z"
             id="path5" />
          <path
             d="m2881.7 556.5h11.4c18.7 0 31.3-5.7 38.6-18.2 7.8-12.9 8.6-36.3 8.6-66.3 0-30.1-.8-53.5-8.6-66.4-7.3-12.4-19.8-18.2-38.6-18.2h-11.4zm-113.9-239.6h137.9c117.6 0 155 66.5 155 158.4 0 93.6-57.8 151.6-148.1 151.6h-144.8z"
             id="path6" />
          <path
             d="m3243 556.5c17.9 0 31.3-8.8 31.3-84.6 0-74.1-12.6-84.6-31.3-84.6s-31.4 10.5-31.4 84.6c.1 75.9 13.6 84.6 31.4 84.6m0-247.8c101.3 0 151.7 66.5 151.7 163.2 0 96.6-50.4 163.2-151.7 163.2s-151.8-66.5-151.8-163.2c.1-96.6 50.6-163.2 151.8-163.2z"
             id="path7" />
        </g>
        <path
           d="m3537.4 428.8c16 0 25.6-16.2 25.6-37-.1-17.6-8.1-36.6-29.5-36.6-13 0-23.2 8.2-27 18.2-1.5 3.1-2 7.5-2 14.8 1.4 19.8 10.9 40.6 32.6 40.6zm65.4-153.1c-6.2-.4-12.2-.3-20.6.1-49.1 2.3-68.9 23.2-75.6 46.8h1.2c12.2-10.7 27.3-15.6 47.6-15.6 38.9 0 74.5 28.2 74.5 81.3 0 50.8-39.1 90.4-91.4 90.4-69.1 0-99.2-52.7-99.2-109.3 0-46 16.3-84.9 43-110 25.5-23.6 58.3-35.5 98.5-36.4 10.7-.6 17 0 22.1.5v52.2z"
           fill="#f01b25"
           id="path8" />
        <path
           d="m3751.5 368v-42.7c0-15.7.9-32.1 1.7-49.4h-1.3c-7.8 16.8-14.5 32.7-23.1 49.9l-20.4 41.3-.3.8h43.4m0 106.7v-55.6h-103.4v-44.4l83-148h82.6v141.4h26.3v51h-26.3v55.6z"
           fill="#f01b25"
           id="path9" />
        <path
           d="m2144 316.9h230.2v81.9h-115.6v32.4h106.4v79.5h-106.4v34.8h119.2v81.3h-233.8z"
           fill="#334fa2"
           id="path10" />
        <g
           fill="#354ea2"
           id="g13">
          <path
             d="m429.5 92.8-99 176.8 99-37.9 94.6 36.2 25.3-28.4v-193.2z"
             id="path11" />
          <path
             d="m737.4 728.2-179-233.6v308.8l-128.9 54.5v-527.5l128.9-49.4 179 255.8v-325.2l121.7-46.9v512.3z"
             id="path12" />
          <path
             d="m121.7 728.2 114.2-50.6-114.2-221.7z"
             id="path13" />
        </g>
        <g
           fill="#23b057"
           id="g16">
          <path
             d="m243.4 164.7 57.3 116.3 29.8-11.4 99-176.8-119.9-46.6z"
             id="path14" />
          <path
             d="m524.1 267.9 91.6-103.2 121.7 46.9v325.2l-179-255.8z"
             id="path15" />
          <path
             d="m121.7 211.6-121.7-46.9v512.3l121.7 51.2v-272.3l179 347.5 128.8 54.5v-527.5l-128.8-49.4v267.8z"
             id="path16" />
        </g>
        <path
           d="m300.7 281v267.8l-179-337.2 121.7-46.9z"
           fill="#f01b25"
           id="path17" />
        <path
           d="m737.4 728.2-179-233.6v127.6l36.6 51.3z"
           fill="#f01b25"
           id="path18" />
        <g
           fill="#ffa623"
           id="g22">
          <path
             d="m558.4 281-128.9 49.4-128.8-49.4 128.8-49.3z"
             id="path19" />
          <path
             d="m615.7 164.7 121.7-46.8 121.7 46.8-121.7 46.9z"
             id="path20" />
          <path
             d="m0 164.7 121.7-46.8 121.7 46.8-121.7 46.9z"
             id="path21" />
          <path
             d="m549.4 46.3-119.9-46.3-119.9 46.2 119.9 46.6z"
             id="path22" />
        </g>
      </g>
    </g>
  </g>
</svg>
