<?xml version="1.0" encoding="UTF-8" standalone="no"?>
<svg
   height="1376.9999"
   viewBox="0 0 3840 1376.9998"
   width="3840"
   version="1.1"
   id="svg19"
   sodipodi:docname="neocd.svg"
   inkscape:version="1.3.2 (091e20e, 2023-11-25)"
   xmlns:inkscape="http://www.inkscape.org/namespaces/inkscape"
   xmlns:sodipodi="http://sodipodi.sourceforge.net/DTD/sodipodi-0.dtd"
   xmlns="http://www.w3.org/2000/svg"
   xmlns:svg="http://www.w3.org/2000/svg">
  <defs
     id="defs19" />
  <sodipodi:namedview
     id="namedview19"
     pagecolor="#ffffff"
     bordercolor="#000000"
     borderopacity="0.25"
     inkscape:showpageshadow="2"
     inkscape:pageopacity="0.0"
     inkscape:pagecheckerboard="0"
     inkscape:deskcolor="#d1d1d1"
     inkscape:zoom="0.17151163"
     inkscape:cx="1921.1525"
     inkscape:cy="688"
     inkscape:window-width="1312"
     inkscape:window-height="449"
     inkscape:window-x="215"
     inkscape:window-y="39"
     inkscape:window-maximized="0"
     inkscape:current-layer="svg19" />
  <g
     id="g20"
     transform="scale(1,1.0007267)">
    <g
       transform="scale(1.0002084,0.99978202)"
       id="g19">
      <path
         d="M 1917.2,774.6 2110.5,581.3 1529.2,0 1335.9,193.3 v 340.5 l 240.8,240.8"
         id="path1" />
      <path
         d="M 1590.8,740.6 1369.9,519.7 V 207.4 l 159.3,-159.2 533.1,533.1 -159.2,159.3"
         fill="#fcea3c"
         id="path2" />
      <path
         d="M 2309.8,780.6 2503.1,587.3 V 246.8 L 2262.3,6 h -340.5 l -193.3,193.3 z"
         id="path3" />
      <path
         d="m 1584.5,290.5 19.3,-39.8 31.3,-1.4 33.2,42 -15.9,36.9 -40.3,6.6 z"
         id="path4" />
      <path
         d="m 1506.5,363.9 12.2,26.4 -33.5,24.2 -21.7,-13.4 -1.7,-23.2 20.2,-16.4 z"
         id="path5" />
      <path
         d="m 1597.1,615.8 63.8,16.9 63.7,-6.6 45.1,-32.6 24.5,-51 16.2,-82 16.8,82.8 -11,45.4 -43.6,55.3 -39.9,20.2 -59,0.4 z"
         id="path6" />
      <g
         fill="#299dd8"
         id="g9">
        <path
           d="m 1980,225.3 -5.5,66.3 49,41.8 56.1,-21.6 -3.7,-59.4 -39.5,-39.5 z"
           id="path7" />
        <path
           d="m 2109.1,154.8 19.8,-32.2 41.7,5.1 14,31.5 -23.8,33.3 -40,-6.2 z"
           id="path8" />
        <path
           d="m 2186.4,455.9 61.2,-26.3 9.3,-28.8 -6.4,-72.3 102.6,-18.4 22.3,118 -5.4,37.7 -44,15.4 -12.5,62.3 -77.6,9.5 -38.5,-30.7 z"
           id="path9" />
      </g>
      <g
         fill="#c2ac6d"
         id="g18">
        <path
           d="M 3687.4,966.7 C 3668.6,934.7 3630.3,914 3590,914 h -64.3 v 381.8 c 0,20.4 16.6,36.9 37,36.9 h 33.4 c 41.3,0 81.1,-26 98.8,-64.6 25.8,-56.2 27.8,-125.4 27.8,-145.2 -0.1,-10 -1,-98 -35.3,-156.2 z m -5.2,295.5 c -15.5,33.8 -50.2,56.5 -86.2,56.5 h -33.4 c -12.7,0 -23,-10.3 -23,-23 V 927.8 h 50.4 c 35.5,0 69.1,18 85.4,45.9 32.3,55.1 33.3,139.6 33.3,149 0,19.2 -1.9,85.8 -26.5,139.5 z"
           id="path10" />
        <path
           d="m 3606.1,885.1 h -255 v 34.3 h 9.1 c 44.5,0 53.6,16.7 53.6,37.4 v 340.5 c 0,20.6 -9.2,37.4 -53.6,37.4 h -9.8 v 34.3 h 74.9 101.6 79.4 c 118.8,0 232.9,-83 232.9,-241.9 -0.2,-168 -127.5,-242 -233.1,-242 z m 0,469.9 h -241.8 v -6.5 c 42.1,-1 63.5,-18.3 63.5,-51.2 V 956.7 c 0,-32.8 -21.1,-50 -62.7,-51.2 V 899 h 241.1 c 53.8,0 107.3,19.9 146.8,54.6 47.2,41.4 72.1,101.4 72.1,173.5 0,156.5 -113.5,227.9 -219,227.9 z"
           id="path11" />
        <path
           d="m 3175.2,932 c 74,0 118.9,67.6 129.2,117 h 29.4 V 874.1 h -25 c 0,0 -8.8,33.5 -28.1,33.5 -25.1,0 -56.7,-26.6 -136.8,-26.6 -114.8,0 -217.1,112.1 -217.1,247.9 0,172.4 115.2,247.4 231.5,247.4 64.5,0 134.3,-37 175.4,-97.6 v -76.1 c -30.1,58.5 -90,120.7 -155.2,120.7 -44,0 -88.8,-20.8 -109.4,-77.4 -10.6,-29.1 -14.2,-67.9 -14.2,-119.2 0.1,-72.3 19.2,-194.7 120.3,-194.7 z m -134.1,194.7 c 0,57.2 4.6,95.4 15,123.9 20,55 64.7,86.6 122.5,86.6 54.5,0 105.7,-39 141.3,-86.4 v 23.5 c -38.1,53.6 -101,88 -161.5,88 -100.4,0 -217.6,-61.1 -217.6,-233.5 0,-61.7 22,-120.6 62,-165.6 38.5,-43.4 90,-68.4 141.2,-68.4 49,0 78.9,10.4 100.8,18 13.8,4.8 24.7,8.6 36,8.6 20.9,0 32.6,-20.4 38,-33.5 h 1.2 v 147 h -4.6 c -16.8,-58.6 -69.2,-117 -140.1,-117 -124.5,0.2 -134.2,159.9 -134.2,208.8 z"
           id="path12" />
        <path
           d="M 472.3,886 H 329.1 v 18.8 h 18.7 c 25,0 45.3,23.3 45.3,48.3 v 232.3 L 149,886 H 0 v 18.8 c 33.3,0 59.5,30 59.5,63.4 v 325.5 C 59.5,1327 24.4,1338 0,1338 v 18.8 H 161.8 V 1338 c -30.3,-0.2 -46.3,-4.3 -56.7,-14.1 C 94.8,1314.1 92,1301.1 92,1283.2 v -305 l 316,385.3 h 17.3 v -410 c 0,-24.3 19,-44.9 47,-45.9 z"
           id="path13" />
        <circle
           cx="1455.8"
           cy="1120"
           r="54.599998"
           id="circle13" />
        <path
           d="m 1771.6,1136.6 v 22.7 h 17.8 c 28.9,0 37,13.9 37,38.8 v 111.3 c -6.6,8 -29.1,18.2 -61,18.2 -6.5,0 -43.3,-0.7 -70.8,-23.3 -28.8,-23.6 -48.2,-71.5 -48.2,-185.3 0,-148.2 52.1,-210.9 127.7,-210.9 24.6,0 107.9,16.6 143.4,123.7 h 22.2 V 877.3 h -21 c -2.7,20.8 -19.1,32.3 -50.1,19.4 -46.8,-19.5 -88.7,-22.4 -119.4,-22.4 -120.9,0 -223.8,111.9 -223.8,245.6 0,154 116.3,244.2 241.1,244.2 59.2,0 121.9,-13.7 171.6,-38.8 v -127.2 c 0,-29.8 20.8,-38.8 48.8,-38.8 v -22.7 z"
           id="path14" />
        <path
           d="m 870,1211.5 c -11.7,64.5 -67.3,114.9 -129.7,113.3 h -53.8 c -16.9,0 -30.6,-13.7 -30.6,-30.6 v -165 h 14.8 c 44,0 72.1,36.9 72.1,100.3 H 762 v -112.4 -5.7 -110.3 h -19.3 c 0,55.8 -23.6,96.1 -72.2,96.1 H 655.7 V 914.3 h 77.4 c 104.2,0 107.8,92.9 107.8,104.9 h 20.8 V 918.3 886 H 486.1 v 18.7 h 26.5 c 20.3,0 36.7,19.2 36.7,39.4 v 346.6 c 0,36.5 -23.9,44.8 -44.2,44.8 h -19 v 21.4 h 63.2 317.8 l 21.4,-145.4 z"
           id="path15" />
        <path
           d="m 1146.4,881.1 c -135.5,0 -239.8,99.8 -239.8,243.2 0,143.4 104.4,243.2 239.8,243.2 135.5,0 239.9,-99.8 239.9,-243.2 0,-143.4 -104.4,-243.2 -239.9,-243.2 z m 0,455 c -65.1,0 -117.8,-59.6 -117.8,-211.8 0,-152.2 52.8,-211.8 117.8,-211.8 65.1,0 117.8,59.6 117.8,211.8 0.1,152.2 -52.7,211.8 -117.8,211.8 z"
           id="path16" />
        <path
           d="m 2373.3,1211.5 c -11.7,64.5 -67.3,114.9 -129.7,113.3 h -53.8 c -16.9,0 -30.6,-13.7 -30.6,-30.6 v -165 h 14.8 c 44,0 72.1,36.9 72.1,100.3 h 19.3 v -112.4 -5.7 -110.3 H 2246 c 0,55.8 -23.6,96.1 -72.2,96.1 H 2159 V 914.3 h 77.4 c 104.2,0 107.8,92.9 107.8,104.9 H 2365 V 918.3 886 h -375.6 v 18.7 h 26.5 c 20.3,0 36.7,19.2 36.7,39.4 v 346.6 c 0,36.5 -23.9,44.8 -44.2,44.8 h -19 v 21.4 h 63.2 317.8 l 21.4,-145.4 z"
           id="path17" />
        <path
           d="m 2649.6,881.1 c -135.5,0 -239.8,99.8 -239.8,243.2 0,143.4 104.4,243.2 239.8,243.2 135.5,0 239.9,-99.8 239.9,-243.2 0,-143.4 -104.4,-243.2 -239.9,-243.2 z m 0,455 c -65.1,0 -117.8,-59.6 -117.8,-211.8 0,-152.2 52.8,-211.8 117.8,-211.8 65.1,0 117.8,59.6 117.8,211.8 0.2,152.2 -52.7,211.8 -117.8,211.8 z"
           id="path18" />
      </g>
    </g>
  </g>
</svg>
