<svg enable-background="new 0 0 3839 1526.6" height="1528.0001" viewBox="0 0 3840 1528.0002" width="3840" xmlns="http://www.w3.org/2000/svg"><g transform="matrix(1.0002605 0 0 1.00091367011 0 .00525943217)"><path d="m3261.2 787h-2686.8c-227.1 1.2-365-151-365-338.8s139.1-337.6 365-338.8h2686.8c225.9 0 365 151 365 338.8s-139 338.8-365 338.8z" fill="#fff"/><g fill="#e31e26"><path d="m773 531.4-181.9-294.8h-132.1v422h130.7v-294.8l183.1 294.8h130.7v-422h-130.5zm1034.3-153.4v-41.7h-69v-57h-127.2v57h-69v41.7h69v280.6h127.2v-280.6zm-831.1 280.6h127.2v-280.6h-127.2zm0-336.4h127.2v-86.7h-127.2zm2223.2 36.8c-102.2 0-185.4 70.2-185.4 158.1 0 86.7 83.2 158.1 185.4 158.1s185.4-70.2 185.4-158.1-80.7-158.1-185.4-158.1zm51.2 216.4c0 45.2-26.2 63-52.3 63-25 0-52.3-19-52.3-63 0-16.7 0-60.7 0-60.7s0-41.7 0-58.2c0-44 26.2-63 52.3-63 25 0 52.3 17.8 52.3 63v59.5zm-401.9-183.1c-20.2-11.9-41.7-22.5-71.4-25-91.5-8.3-161.7 72.5-161.7 147.4 0 97.5 74.9 134.4 86.7 139.1 42.8 20.2 97.5 20.2 146.2-10.7v16.7h125v-422h-124.9c.1-1.2.1 89.2.1 154.5zm0 124.9v49.9c0 42.8-29.7 54.7-49.9 54.7s-49.9-11.9-49.9-54.7c0-15.5 0-49.9 0-49.9s0-35.7 0-49.9c0-44 29.7-54.7 49.9-54.7s49.9 10.7 49.9 54.7zm-1448.1-152.2c-41.7 1.2-77.2 19-101 42.8 0-7.2 0-29.7 0-29.7h-126v280.6h126s0-172.4 0-184.3c0-25 26.2-51.2 60.7-51.2s58.2 27.3 58.2 51.2v184.3h126s0-133.2 0-152.2c0-111.8-96.2-142.7-143.9-141.5zm1032 0c-41.7 1.2-77.2 19-101 42.8 0-7.2 0-29.7 0-29.7h-126v280.6h125.9s0-172.4 0-184.3c0-25 26.2-51.2 60.7-51.2s58.2 27.3 58.2 51.2v184.3h126s0-133.2 0-152.2c-1.1-111.8-97.5-142.7-143.8-141.5zm-267.5 154.6c0-86.7-84.4-159.3-187.9-159.3-103.4 0-186.6 70.2-186.6 158.1 0 86.7 83.2 158.1 186.6 158.1 85.6 0 158.1-48.7 180.7-115.4h-126v16.7c0 51.2-33.3 63-52.3 63s-53.5-11.9-53.5-63c0-15.5 0-58.2 0-58.2zm-229.4-98.7c9.5-17.8 28.5-25 45.2-26.2 16.7 0 34.5 8.3 45.2 26.2 8.3 14.3 8.3 30.9 8.3 54.7h-105.9c-2.3-25-2.3-40.4 7.2-54.7zm1501.5-132c0-14.3-10.7-20.2-30.9-20.2h-28.5v72.5h17.8v-29.7h8.3l14.3 29.7h19l-15.5-32.1c9.6-3.6 15.5-10.7 15.5-20.2zm-33.3 10.7h-8.3v-21.4h7.2c10.7 0 15.5 3.5 15.5 10.7 1 8.4-4.9 10.7-14.4 10.7zm0-59.5c-35.7 0-65.4 28.5-65.4 65.4 0 35.7 29.7 65.4 65.4 65.4s65.4-29.7 65.4-65.4c0-36.9-29.8-65.4-65.4-65.4zm0 117.7c-28.5 0-52.3-23.8-52.3-52.3s23.8-52.3 52.3-52.3 52.3 23.8 52.3 52.3c-.1 28.6-22.6 52.3-52.3 52.3zm-141.5-357.8h-2689.2c-284.1-1.2-475.5 204.5-475.5 449.4s190.2 447 476.7 447h2688c285.3 0 476.7-202.1 476.7-447-1.1-246.1-192.6-450.6-476.7-449.4zm-1.2 787h-2686.8c-227.1 1.2-365-151-365-338.8s139.1-337.6 365-338.8h2686.8c225.9 0 365 151 365 338.8s-139 338.8-365 338.8zm1.2-787h-2689.2c-284.1-1.2-475.5 204.5-475.5 449.4s190.2 447 476.7 447h2688c285.3 0 476.7-202.1 476.7-447-1.1-246.1-192.6-450.6-476.7-449.4zm-1.2 787h-2686.8c-227.1 1.2-365-151-365-338.8s139.1-337.6 365-338.8h2686.8c225.9 0 365 151 365 338.8s-139 338.8-365 338.8zm1.2-787h-2689.2c-284.1-1.2-475.5 204.5-475.5 449.4s190.2 447 476.7 447h2688c285.3 0 476.7-202.1 476.7-447-1.1-246.1-192.6-450.6-476.7-449.4zm-1.2 787h-2686.8c-227.1 1.2-365-151-365-338.8s139.1-337.6 365-338.8h2686.8c225.9 0 365 151 365 338.8s-139 338.8-365 338.8z"/><path d="m1429.8 1137.6s.3.2 0 0c19.5-12.6 32.6-35 32.6-60.4 0-39.4-31.1-71.4-69.7-71.4h-15.5-188.4v79.7 137.9h72.6v-42.4c0-7.5 6.1-13.5 13.5-13.5h98.9c7.5 0 13.5 6.1 13.5 13.5v1.3 41h69.3v-41c-.2-10.6-4.7-30.1-26.8-44.7zm-154.6-24.7c-7.5 0-13.5-6.1-13.5-13.5v-27.7c0-7.5 6.1-13.5 13.5-13.5h98.9c7.5 0 13.5 6.1 13.5 13.5v27.7c0 7.5-6.1 13.5-13.5 13.5z"/><path d="m1977.1 1005.8h-16.5-38.6-26.2-38.6-16.5c-35.7 0-64.6 28.9-64.6 64.6v17.4 135.6h71.2v-53.6h123.2v53.6h71.2v-135.6-17.4c0-35.7-28.9-64.6-64.6-64.6zm-129.5 107v-34.5c0-9.9 8-17.9 17.9-17.9h30.5 26.2 30.5c9.9 0 17.9 8 17.9 17.9v34.5z"/><path d="m2090.2 1005.8h73.7v217.6h-73.7z"/><path d="m2440.6 1005.8h-231.5v217.6h70.2v-145.8c0-8.8 7.2-16 16-16h120.3c8.8 0 16 7.2 16 16v44.4 101.4h69v-101.4-17.5-26.3-12.5c-.1-33.1-26.9-59.9-60-59.9z"/><path d="m2863.4 1005.8h-316.7v217.6h64.2v-136.1-10.3c0-8.5 6.9-15.4 15.4-15.4h54.9c8.5 0 15.4 6.9 15.4 15.4v26.5 119.9h72.5v-136.1-10.3c0-8.5 6.9-15.4 15.4-15.4h54.9c8.5 0 15.4 6.9 15.4 15.4v10.3 136.1h3.5 69v-153.8c-.1-35.3-28.7-63.8-63.9-63.8z"/><path d="m3485.6 1005.8h-231.5v217.6h70.2v-145.8c0-8.8 7.2-16 16-16h120.3c8.8 0 16 7.2 16 16v44.4 101.4h69v-101.4-17.5-26.3-12.5c-.1-33.1-26.9-59.9-60-59.9z"/><path d="m520.6 1005.8h-231.5v217.6h70.2v-145.8c0-8.8 7.2-16 16-16h120.3c8.8 0 16 7.2 16 16v44.4 101.4h69v-101.4-17.5-26.3-12.5c-.1-33.1-26.9-59.9-60-59.9z"/><path d="m243.7 1061.1v-55.3h-179.6-64.1v153.7c0 35.4 28.6 64 64 64h179.7v-55.3h-162.4c-9.5 0-17.2-7.7-17.2-17.2s7.7-17.2 17.2-17.2h152.9v-38.4h-152.9c-9.5 0-17.2-7.7-17.2-17.2s7.7-17.2 17.2-17.2z"/><path d="m1147 1061.1v-55.3h-179.6-64.1v153.7c0 35.4 28.6 64 64 64h179.7v-55.3h-162.4c-9.5 0-17.2-7.7-17.2-17.2s7.7-17.2 17.2-17.2h152.9v-38.4h-152.9c-9.5 0-17.2-7.7-17.2-17.2s7.7-17.2 17.2-17.2z"/><path d="m3211.2 1061.1v-55.3h-179.6-64.1v153.7c0 35.4 28.6 64 64 64h179.7v-55.3h-162.4c-9.5 0-17.2-7.7-17.2-17.2s7.7-17.2 17.2-17.2h152.9v-38.4h-152.9c-9.5 0-17.2-7.7-17.2-17.2s7.7-17.2 17.2-17.2z"/><path d="m3839 1005.8h-261.7v54.7h77c8.4 0 15.2 6.8 15.2 15.2v147.7h77.3v-147.7c0-8.4 6.8-15.2 15.2-15.2h77z"/><path d="m1746.9 1005.8h-261.7v54.7h77c8.4 0 15.2 6.8 15.2 15.2v147.7h77.3v-147.7c0-8.4 6.8-15.2 15.2-15.2h77z"/><path d="m870.5 1005.8h-261.6v54.7h77c8.4 0 15.2 6.8 15.2 15.2v147.7h77.3v-147.7c0-8.4 6.8-15.2 15.2-15.2h77v-54.7z"/><path d="m1779.9 1397.4h-102.2c-11.9 0-20.2-4.8-20.2-15.6 0-9.6 7.2-17.9 16.7-17.9h174.8v-55h-191.4c-35.7 0-65.4 29.9-65.4 63.3 0 47.8 30.9 65.8 72.5 65.8h102.2c10.7 0 21.4 4.8 21.4 15.6 0 9.6-7.2 17.9-16.7 17.9h-179.6v55h196.1c32.1 0 65.4-26.3 65.4-63.3.1-44.3-35.6-65.8-73.6-65.8z"/><path d="m1195 1397.5h-99.9c-11.9 0-21.4-4.8-21.4-15.6 0-9.5 9.5-17.9 17.8-17.9h174.8v-55h-191.4c-38 0-69 29.9-69 63.3 0 47.7 33.3 65.7 74.9 65.7h99.9c11.9 0 21.4 4.8 21.4 15.6 0 9.5-9.5 17.9-17.8 17.9h-177.2v55h196.1c35.7 0 67.7-26.3 67.7-63.3.2-44.2-34.3-65.7-75.9-65.7z"/><path d="m2768.3 1309h-316.7v217.6h64.2v-136.1-10.3c0-8.5 6.9-15.4 15.4-15.4h54.9c8.5 0 15.4 6.9 15.4 15.4v26.5 119.9h72.5v-136.1-10.3c0-8.5 6.9-15.4 15.4-15.4h54.9c8.5 0 15.4 6.9 15.4 15.4v10.3 136.1h3.5 69v-153.8c-.1-35.3-28.7-63.8-63.9-63.8z"/><path d="m1560 1309h-65.4-.4v81.2c0 9.1-7.4 16.4-16.4 16.4h-97.7c-9.1 0-16.4-7.4-16.4-16.4v-81.2h-1.5-67.4v79.7 11.4c0 34.4 27.9 62.3 62.3 62.3h32.8v64.2h76.1v-64.2h33.4c34.4 0 62.3-27.9 62.3-62.3v-91.1z"/><path d="m2408.5 1364.2v-55.3h-179.6-64.1v153.7c0 35.4 28.6 64 64 64h179.7v-55.3h-162.4c-9.5 0-17.2-7.7-17.2-17.2s7.7-17.2 17.2-17.2h152.9v-38.4h-152.9c-9.5 0-17.2-7.7-17.2-17.2s7.7-17.2 17.2-17.2z"/><path d="m2137.2 1308.9h-261.7v54.7h77c8.4 0 15.2 6.8 15.2 15.2v147.7h77.3v-147.7c0-8.4 6.8-15.2 15.2-15.2h77z"/></g></g></svg>