<svg enable-background="new 0 0 3840 854.9" viewBox="0 0 3840 854.9" xmlns="http://www.w3.org/2000/svg"><path d="m486.3 806.3h-142.3v-110.1h133v-.3-35.9h-133v-101.2h142.3v-36.2h-142.3-36.3v36.2 101.2 36.2 110.1 36.3h.7 35.6 142.3z"/><path d="m1433.8 806.3h-142.4v-110.1h133v-.3-35.9h-133v-101.2h142.4v-36.2h-142.4-36.2v36.2 101.2 36.2 110.1 36.3h.7 35.5 142.4z"/><path d="m42.5 522.6h-42.5v320h36.3v-265.5l184.7 265.5h35.4v-320h-36.3v255.2z"/><path d="m677.6 513.5c-93.4 0-169.1 75.7-169.1 169.1s75.7 169.1 169.1 169.1 169.1-75.7 169.1-169.1-75.7-169.1-169.1-169.1zm0 302.6c-73.7 0-133.5-59.8-133.5-133.5s59.8-133.5 133.5-133.5 133.5 59.8 133.5 133.5-59.8 133.5-133.5 133.5z"/><path d="m1626.5 513.5c-93.4 0-169.1 75.7-169.1 169.1s75.7 169.1 169.1 169.1 169.1-75.7 169.1-169.1-75.7-169.1-169.1-169.1zm0 302.6c-73.7 0-133.5-59.8-133.5-133.5s59.8-133.5 133.5-133.5 133.5 59.8 133.5 133.5-59.8 133.5-133.5 133.5z"/><path d="m1180.4 688.5h-185.5v36.3h178.8c-17.7 53-67.6 91.3-126.6 91.3-73.7 0-133.5-59.8-133.5-133.5s59.8-133.5 133.5-133.5c45.9 0 86.3 23.1 110.3 58.4h41.2c-27.7-55.7-85.1-94-151.5-94-93.4 0-169.1 75.7-169.1 169.1s75.7 169.1 169.1 169.1c91.4 0 165.8-72.5 169-163.2z"/><path d="m3508.7 806.3h-142.3v-110.1h133v-.3-35.9h-133v-101.2h142.3v-36.2h-142.3-36.3v36.2 101.2 36.2 110.1 36.3h.7 35.6 142.3z"/><path d="m3840 522.6h-112.4-36.3-112.4v36.2h112.4v283.8h36.3v-283.8h112.4z"/><path d="m3208.6 842.6h51.3l-160-160 160-160h-51.3l-177.3 177.3v-177.3h-36.3v320h36.3v-91.4l42.9-43z"/><path d="m2364.3 513.5c-93.4 0-169.1 75.7-169.1 169.1s75.7 169.1 169.1 169.1 169.1-75.7 169.1-169.1-75.7-169.1-169.1-169.1zm0 302.6c-73.7 0-133.5-59.8-133.5-133.5s59.8-133.5 133.5-133.5 133.5 59.8 133.5 133.5-59.8 133.5-133.5 133.5z"/><path d="m2883.8 756.7c-23.9 35.8-64.7 59.4-111.1 59.4-73.7 0-133.5-59.8-133.5-133.5s59.8-133.5 133.5-133.5c46.3 0 87.1 23.6 111.1 59.4h41c-27.5-56.3-85.2-95.1-152.1-95.1-93.4 0-169.1 75.7-169.1 169.1s75.7 169.1 169.1 169.1c66.8 0 124.6-38.8 152.1-95.1h-41z"/><path d="m2188.7 224.4-39-24.4 79.1-153.3 63.1 39.5z" fill="#11a73b"/><path d="m2249.7 293.3-27.8-36.8 128.6-114.9 44.9 59.4z" fill="#00a0e9"/><g fill="#e60019"><path d="m2103.4 180.8-45-9.9 23.1-170.9 72.7 16z"/><path d="m1938 271.7-133 66.6-50.6 25.3-10 5 243.3 486.2 60.6-30.3-213-425.6 133.1-66.6c57-28.6 126.5-5.3 155.1 51.8 28.6 57 5.4 126.4-51.6 155 0 0-9.5 4.3-14.3 6l-78.2-67.4 15.1-47.8 84.7-.9-.7-67.7-133.8 1.5-43.4 137.2 3 2.6 147 127c14-7 57.4-32.9 57.4-32.9 85.9-47.3 119.8-154.4 75.5-242.8-45.3-90.8-155.5-127.5-246.2-82.2z"/></g></svg>