<?xml version="1.0" encoding="UTF-8" standalone="no"?>
<svg
   enable-background="new 0 0 3839 1306.7"
   height="1306"
   viewBox="0 0 3840 1306"
   width="3840"
   version="1.1"
   id="svg25"
   sodipodi:docname="pce-cd.svg"
   inkscape:version="1.3.2 (091e20e, 2023-11-25)"
   xmlns:inkscape="http://www.inkscape.org/namespaces/inkscape"
   xmlns:sodipodi="http://sodipodi.sourceforge.net/DTD/sodipodi-0.dtd"
   xmlns="http://www.w3.org/2000/svg"
   xmlns:svg="http://www.w3.org/2000/svg">
  <defs
     id="defs25" />
  <sodipodi:namedview
     id="namedview25"
     pagecolor="#ffffff"
     bordercolor="#000000"
     borderopacity="0.25"
     inkscape:showpageshadow="2"
     inkscape:pageopacity="0.0"
     inkscape:pagecheckerboard="0"
     inkscape:deskcolor="#d1d1d1"
     inkscape:zoom="0.18058774"
     inkscape:cx="1921.5037"
     inkscape:cy="653.422"
     inkscape:window-width="1312"
     inkscape:window-height="449"
     inkscape:window-x="0"
     inkscape:window-y="23"
     inkscape:window-maximized="0"
     inkscape:current-layer="svg25" />
  <g
     id="g26"
     transform="scale(0.99999978,0.99935416)">
    <g
       transform="matrix(1.0002607,0,0,1.0002607,0,-0.196642)"
       id="g25">
      <path
         d="m 2717.2,425.1 c -0.7,-49.3 -35.5,-97 -100.7,-137.9 -60.8,-38.1 -148.2,-70.7 -252.8,-94.2 -20.8,-4.7 -42.6,-9 -64.7,-13 l 2,-1.6 46.2,-37.4 c 6,-4.8 0.2,-14.3 -6.8,-11.1 l -47,21.2 -45.5,20.5 -14.5,-2 c -91,-12.6 -187.6,-19 -287.3,-19 h -4.2 l 3.4,-22.4 c 0.1,-0.8 0.7,-1.4 1.5,-1.5 l 45.4,-9 -4.8,31.5 122.8,-24.4 6,-38.7 C 2122.1,47.5 2097,10.5 2058.9,2 2048.8,-0.3 2038.4,-0.4 2028,1.7 l -86.5,17.2 c -48.9,9.7 -88.9,43.6 -107.5,88.4 -8,-24.3 -28.1,-43.8 -54.5,-49.7 -10.1,-2.3 -20.5,-2.4 -30.9,-0.3 l -187.8,37.4 -14.3,93 -10.6,2.2 c -122.3,25.1 -225.2,61 -297.4,103.8 -77.1,45.7 -117.5,98.6 -116.8,153 0.9,64.4 58,123.8 165.1,171.9 l 8.7,3.9 -18.5,120 c -1.8,12 5.3,23.9 17,27.1 3.5,0.9 7.1,1.1 10.7,0.4 l 451.2,-89.8 c -3,3.3 -5,7.5 -5.7,12.1 l -14.5,94.5 c -1.8,12 5.3,23.9 17,27.1 3.5,0.9 7.1,1.1 10.7,0.3 l 79.6,-15.8 c 50.4,-10 93.9,-38.7 123.4,-78.4 l 16.2,-0.6 c 110,-4.3 214.7,-16.2 311.3,-35.5 124.8,-24.8 229.8,-60.8 303.8,-104 79,-46.4 120.3,-99.8 119.5,-154.8 z"
         fill="#ff002b"
         id="path1" />
      <path
         d="m 2306.6,158.3 -232.9,105.2 -74.3,-67.7 27,96.8 -198.8,160.7 232.9,-105.2 74.3,67.7 -26.9,-96.8 z"
         fill="#f7f4e6"
         id="path2" />
      <g
         fill="#ffffff"
         id="g12">
        <path
           d="m 2306.6,158.3 -232.9,105.2 -74.3,-67.7 27,96.8 -198.8,160.7 232.9,-105.2 74.3,67.7 -26.9,-96.8 z"
           id="path3" />
        <path
           d="m 2076.1,251.8 2.1,-0.9 c 1,-3.9 1.8,-7.9 2.4,-11.9 l 3.8,-24.9 -40.8,8.1 z"
           id="path4" />
        <path
           d="m 1886.6,368.4 40.6,-8.1 87.6,-70.8 -16.3,-58.3 -11.8,2.4 -3.4,21.9 c -0.9,5.8 -5.3,10.4 -11,11.5 l -51.8,10.3 c -5.1,1 -9.7,-3.4 -8.9,-8.5 l 21.9,-142.4 c 0.9,-5.8 5.3,-10.4 11,-11.5 l 51.8,-10.3 c 5.1,-1 9.7,3.4 8.9,8.5 l -3.2,20.9 97.6,-19.4 4.7,-30.3 c 6.6,-42.9 -31.4,-79.3 -74,-70.8 l -86.5,17.2 c -55.8,11.1 -98.7,55.9 -107.4,112.2 l -23.8,154.9 c -6.5,42.6 31.5,79 74,70.6 z"
           id="path5" />
        <path
           d="m 1206.6,539.7 c -37.7,-30.1 -57,-61.6 -57.4,-93.6 -1.2,-90 150.1,-179 386.7,-228.4 l 2.5,-16.2 c -242.4,49.7 -406,141.7 -404.6,244.8 0.8,61.2 59.5,116.9 158,161.1 l 2.4,-15.8 c -35,-16 -64.4,-33.4 -87.6,-51.9 z"
           id="path6" />
        <path
           d="m 1946.3,162.5 -2.4,15.4 c 90.9,-0.1 179,5.2 261.5,15.5 l 26.5,-12 c -88.1,-12.2 -184.4,-18.9 -285.6,-18.9 z"
           id="path7" />
        <path
           d="m 2283.5,189.4 -15.9,12.9 c 73,11.8 140.5,27.8 200.1,47.6 70.8,23.5 126.2,51.1 164.8,81.9 37.7,30.1 57,61.6 57.4,93.6 1.2,91.8 -156.2,182.6 -401.2,231.4 -91.7,18.3 -193.5,30 -297.8,34.6 -2.7,5.4 -5.5,10.6 -8.7,15.8 111.3,-4.4 216.1,-16.7 309.4,-35.2 247.4,-49.2 415,-142.2 413.6,-246.6 -1.4,-104.9 -172.2,-193.5 -421.7,-236 z"
           id="path8" />
        <path
           d="m 2451,354.1 -80.2,16 c -4.7,0.9 -8.4,4.8 -9.1,9.5 l -2.5,16.3 96.4,-19.2 c 4.7,-0.9 8.4,-4.8 9.1,-9.5 1.1,-8 -5.9,-14.7 -13.7,-13.1 z"
           id="path9" />
        <path
           d="m 1837.8,482.3 -12.3,80.1 c -1,6.3 4.6,11.7 10.9,10.4 l 91.4,-18.2 15.3,-99.4 -97.9,19.5 c -3.9,0.7 -6.8,3.7 -7.4,7.6 z m 32.9,24.1 28.8,-5.7 -3.6,23.3 -28.8,5.7 z"
           id="path10" />
        <path
           d="m 2534.5,298.5 c -14.4,-21.7 -40.2,-32 -64.8,-27.1 l -100.9,20.1 c -26.6,5.3 -49.6,20.8 -64.7,42.1 -0.5,-0.5 -1,-1 -1.5,-1.5 -14.8,-14.2 -35.7,-20.3 -55.8,-16.3 l -122.4,24.3 9.7,34.9 119.7,-23.8 c 18.2,-3.6 34.5,12 31.7,30.3 l -22.8,148.5 -40.5,8 20,-129.8 c 1,-6.3 -4.6,-11.7 -10.9,-10.4 l -91.4,18.2 -22,142.8 -40.5,8 25.6,-166.2 -44.9,-40.9 -120.5,54.4 12.1,-2.4 40.5,-8 -33.7,218.8 c -9.9,64.3 -59,115.6 -122.8,128.3 l -45,9 6.7,-43.4 31.5,-6.3 c 47.6,-9.5 84.3,-47.7 91.7,-95.8 l 2.5,-16.5 -107.2,21.3 c -18.2,3.6 -34.5,-12 -31.7,-30.3 l 15.6,-101.3 c 2.8,-18 12.5,-33.7 26.5,-44.1 v -0.1 l 71.6,-57.9 -51.2,10.2 c -26.6,5.3 -49.6,20.8 -64.7,42.1 -0.5,-0.5 -1,-1 -1.5,-1.5 -14.8,-14.2 -35.7,-20.3 -55.8,-16.3 l -108.5,21.6 3,-19.7 12.5,-81.4 76.5,-15.2 c 55.8,-11.1 98.7,-55.9 107.4,-112.2 l 11.3,-73.4 c 6.6,-42.9 -31.4,-79.3 -74,-70.8 L 1571.4,104.5 1538,321.8 1356,358 c -4.7,0.9 -8.4,4.7 -9.1,9.5 l -58,377.2 c -1.2,7.9 5.8,14.6 13.6,13 l 244.4,-48.6 79,-15.7 22,-142.8 28.8,-5.7 -22,142.8 115.9,-23.1 3,-19.5 c 13.8,9.3 30.8,12.8 47.4,9.5 l 46,-9.2 c -11.5,14.7 -28,25.3 -47.1,29.1 l -48.5,9.6 c -4.7,0.9 -8.4,4.7 -9.1,9.5 l -14.7,95.3 c -1.2,7.9 5.8,14.6 13.6,13 l 79.6,-15.8 c 78.7,-15.7 139.3,-78.9 151.5,-158.3 l 1.2,-7.6 78.2,-15.6 78.2,-15.6 22,-142.8 28.8,-5.7 -22,142.8 115.9,-23.1 3,-19.5 c 13.8,9.3 30.8,12.8 47.4,9.5 l 164.6,-32.8 c 4.7,-0.9 8.4,-4.7 9.1,-9.5 l 17.2,-111.5 -4.6,0.9 c 4.3,-9 7.3,-18.6 8.9,-28.8 l 3.8,-24.9 c 2.4,-15.5 -0.7,-31.8 -9.5,-45.1 z M 1655.7,172.3 1717,160.1 c 5.1,-1 9.7,3.4 8.9,8.5 l -9.4,61 c -0.9,5.8 -5.3,10.4 -11,11.5 l -62.3,12.4 z m -140.7,506.4 -17.6,3.5 -20.6,4.1 -115.1,22.9 -31.8,6.3 50,-325.3 13.4,-2.7 98.9,-19.7 44.8,-8.9 -6.7,43.4 -12.9,2.6 -103.7,20.6 -14.7,95.7 48.6,-9.7 8.7,-1.7 31.7,-6.3 -6.7,43.4 -17,3.4 -23.4,4.7 -48.6,9.7 -15.3,99.4 106.4,-21.2 5.9,-1.2 32.4,-6.4 z m -94.3,-60.1 3.6,-23.3 89,-17.7 18.4,-119.5 -89,17.7 3,-19.7 74,-14.7 33.6,-6.7 -4.8,31.1 -20.2,131.3 z m 317.9,15.6 -40.5,8 20,-129.8 c 1,-6.3 -4.6,-11.7 -10.9,-10.4 l -91.4,18.2 -22,142.8 -40.5,8 28.6,-186.2 147.7,-29.4 c 18.2,-3.6 34.5,12 31.7,30.3 z m 301.1,-59.9 -40.5,8 28.6,-186.2 40.5,-8 z m 468.7,-237.1 -4,26.1 c -4.4,28.3 -25.9,50.8 -54,56.4 l -98,19.5 -2.9,18.8 c -1,6.3 4.6,11.7 10.9,10.4 l 91.4,-18.2 18.1,-3.6 22.4,-4.4 -6.7,43.4 -7.6,1.5 -140.1,27.9 c -18.2,3.6 -34.5,-12 -31.7,-30.3 l 15.6,-101.3 c 4.4,-28.3 25.9,-50.8 54,-56.4 l 100.9,-20.1 c 18.2,-3.6 34.5,12 31.7,30.3 z"
           id="path11" />
        <path
           d="m 233.6,1290 c -119.6,0 -217,-97.3 -217,-217 0,-119.6 97.3,-217 217,-217 H 619.1 V 963 H 233.6 c -60.6,0 -110,49.3 -110,110 0,60.7 49.3,110 110,110 h 385.5 v 107 z"
           id="path12" />
      </g>
      <path
         d="m 602.5,872.7 v 73.7 H 233.6 c -69.8,0 -126.6,56.8 -126.6,126.6 0,69.8 56.8,126.7 126.6,126.7 h 368.9 v 73.7 H 233.6 c -110.5,0 -200.3,-89.9 -200.3,-200.3 0,-110.5 89.9,-200.3 200.3,-200.3 h 368.9 m 33.3,-33.4 H 602.5 233.6 C 104.8,839.4 0,944.2 0,1073 c 0,128.8 104.8,233.7 233.6,233.7 h 368.9 33.3 v -33.3 -73.7 -33.3 H 602.5 233.6 c -51.5,0 -93.3,-41.9 -93.3,-93.4 0,-51.5 41.9,-93.3 93.3,-93.3 h 368.9 33.3 v -33.3 -73.7 z"
         id="path13" />
      <path
         d="M 695.4,1290 V 856 h 385.5 c 119.6,0 217,97.3 217,217 0,119.6 -97.3,217 -217,217 z m 385.5,-107 c 60.7,0 110,-49.3 110,-110 0,-60.7 -49.3,-110 -110,-110 H 802.4 v 220 z"
         fill="#ffffff"
         id="path14" />
      <path
         d="m 1080.9,872.7 c 110.5,0 200.3,89.9 200.3,200.3 0,110.5 -89.9,200.3 -200.3,200.3 H 712 V 872.7 Z m -295.2,327 h 295.2 c 69.8,0 126.7,-56.8 126.7,-126.7 0,-69.9 -56.8,-126.7 -126.7,-126.7 H 785.7 Z M 1080.9,839.4 H 712 678.7 v 33.3 400.7 33.3 h 33.3 368.9 c 128.8,0 233.6,-104.8 233.6,-233.6 0,-128.9 -104.8,-233.7 -233.6,-233.7 z M 819,979.7 h 261.9 c 51.5,0 93.3,41.9 93.3,93.3 0,51.5 -41.9,93.3 -93.3,93.3 H 819 Z"
         id="path15" />
      <path
         d="m 2351.4,1290 c -119.6,0 -217,-97.3 -217,-217 0,-119.6 97.3,-217 217,-217 h 233.1 c 116,0 215,85.9 225.5,195.6 5.9,62.1 -13.7,121.5 -55.4,167.3 -41.1,45.2 -99.6,71.1 -160.6,71.1 z m 0,-327 c -60.6,0 -110,49.3 -110,110 0,60.7 49.3,110 110,110 H 2594 c 60.7,0 110,-49.3 110,-110 0,-60.7 -49.4,-110 -110,-110 z"
         fill="#ffffff"
         id="path16" />
      <path
         d="m 2584.4,872.7 c 107.5,0 199.2,79.3 208.9,180.6 5.5,57.3 -12.7,112.2 -51.1,154.5 -37.9,41.7 -92,65.6 -148.3,65.6 h -242.6 c -110.5,0 -200.3,-89.9 -200.3,-200.3 0,-110.5 89.9,-200.3 200.3,-200.3 h 233.1 m -233,326.9 H 2594 c 69.8,0 126.7,-56.8 126.7,-126.7 0,-69.9 -56.8,-126.7 -126.7,-126.7 h -242.6 c -69.8,0 -126.6,56.8 -126.6,126.7 -0.1,69.8 56.7,126.7 126.6,126.7 m 233,-360.3 h -233.1 c -128.8,0 -233.6,104.8 -233.6,233.6 0,128.8 104.8,233.7 233.6,233.7 H 2594 c 65.7,0 128.7,-27.9 172.9,-76.5 44.8,-49.3 66,-113.3 59.6,-180.1 -11.3,-118.2 -117.6,-210.7 -242.1,-210.7 z m -233,326.9 c -51.5,0 -93.3,-41.9 -93.3,-93.3 0,-51.5 41.9,-93.3 93.3,-93.3 H 2594 c 51.5,0 93.4,41.9 93.4,93.3 0,51.5 -41.9,93.3 -93.4,93.3 z"
         id="path17" />
      <path
         d="m 1982.4,1290 v -135.1 c 0,-15.6 -12.7,-28.2 -28.2,-28.2 H 1594 V 1290 H 1487 V 856 h 467.2 c 74.6,0 135.3,60.7 135.3,135.3 0,29.8 -9.7,58.3 -27.7,81.8 17.9,23.5 27.7,52 27.7,81.8 V 1290 Z m -28.2,-270.5 c 15.6,0 28.2,-12.7 28.2,-28.2 0,-15.5 -12.7,-28.2 -28.2,-28.2 H 1594 v 56.5 h 360.2 z"
         fill="#ffffff"
         id="path18" />
      <path
         d="m 1954.2,872.7 c 65.5,0 118.6,53.1 118.6,118.6 0,31.8 -12.6,60.5 -32.9,81.8 20.3,21.3 32.9,50.1 32.9,81.8 v 118.4 h -73.7 v -118.4 c 0,-24.8 -20.1,-44.9 -44.9,-44.9 h -376.9 v 163.3 h -73.7 V 937.1 872.7 Z m -376.9,163.5 h 376.9 c 24.8,0 44.9,-20.1 44.9,-44.9 0,-24.8 -20.1,-44.9 -44.9,-44.9 h -376.9 z m 376.9,-196.8 h -450.6 -33.3 v 33.3 64.4 336.2 33.3 h 33.3 73.7 33.3 v -33.3 -130 h 343.6 c 6.4,0 11.6,5.2 11.6,11.6 v 118.4 33.3 h 33.3 73.7 33.3 v -33.3 -118.4 c 0,-29.3 -8.4,-57.6 -24,-81.8 15.6,-24.3 24,-52.5 24,-81.8 0,-83.8 -68.2,-151.9 -151.9,-151.9 z m -343.6,140.3 h 343.6 c 6.4,0 11.6,5.2 11.6,11.6 0,6.4 -5.2,11.6 -11.6,11.6 h -343.6 z"
         id="path19" />
      <path
         d="m 3551.6,1001 v -61 c 0,-48.4 39.4,-87.8 87.8,-87.8 h 88.7 c 9.1,0 16.6,-7.4 16.6,-16.6 0,-9.1 -7.4,-16.6 -16.6,-16.6 h -150.4 v -77.6 h 150.4 c 52,0 94.2,42.3 94.2,94.2 0,39.8 -24.8,73.9 -59.8,87.7 h 59.8 v 77.6 h -270.7 z"
         fill="#ffffff"
         id="path20" />
      <path
         d="m 3728.1,758.1 c 42.8,0 77.6,34.7 77.6,77.6 0,42.8 -34.7,77.6 -77.6,77.6 h -50 v -0.1 h -38.8 c -14.9,0 -26.9,12.1 -26.9,26.9 h 193.2 v 44.3 H 3568.2 V 940 c 0,-39.3 31.8,-71.1 71.1,-71.1 h 38.8 50 c 18.4,0 33.2,-14.9 33.2,-33.2 0,-18.4 -14.9,-33.2 -33.2,-33.2 h -133.7 v -44.3 h 133.7 m 0,-33.4 h -133.7 -33.3 v 33.3 44.3 33.3 h 33.3 39.2 c -54.9,3 -98.6,48.6 -98.6,104.3 v 44.3 33.3 h 33.3 237.4 33.3 V 984.3 940 906.7 h -25.8 c 16.1,-19.3 25.8,-44 25.8,-71 0,-61.2 -49.7,-110.9 -110.9,-110.9 z"
         id="path21" />
      <path
         d="m 3417.9,1290 v -282.1 l -0.2,-16.7 c 0,-15.6 -12.7,-28.2 -28.2,-28.2 h -149.3 v 327 h -107 V 963 h -149.5 c -15.6,0 -28.2,12.7 -28.2,28.2 V 1290 h -107 V 991.3 c 0,-74.6 60.7,-135.3 135.2,-135.3 h 405.9 c 74.7,0 135.4,60.7 135.4,135.3 V 1290 Z"
         fill="#ffffff"
         id="path22" />
      <path
         d="m 3389.4,872.7 c 65.5,0 118.8,53.1 118.8,118.6 v 282.1 h -73.7 V 991.3 h -0.2 c 0,-24.8 -20.1,-44.9 -44.9,-44.9 h -118.1 -47.9 v 327 h -73.7 v -327 h -48.1 -118.1 c -24.8,0 -44.9,20.1 -44.9,44.9 v 282.1 H 2865 V 991.3 c 0,-65.5 53.1,-118.6 118.6,-118.6 h 94.2 24 48.1 73.7 47.9 33.8 z m 0,-33.3 h -84.4 -33.8 -47.9 -73.7 -48.1 -24 -94.2 c -83.8,0 -151.9,68.1 -151.9,151.9 v 282.1 33.3 h 33.3 73.7 33.3 v -33.3 -282.1 c 0,-6.4 5.2,-11.6 11.6,-11.6 h 118.1 14.8 v 293.7 33.3 h 33.3 73.7 33.3 v -33.3 -293.7 h 14.6 118.1 c 6.4,0 11.6,5.2 11.6,11.6 v 33.3 h 0.2 v 248.8 33.3 h 33.3 73.7 33.3 v -33.3 -282.1 c 0.2,-83.8 -68,-151.9 -151.9,-151.9 z"
         id="path23" />
      <path
         d="m 1392.4,1126.5 c -29.5,0 -53.5,-24 -53.5,-53.5 0,-29.5 24,-53.5 53.5,-53.5 29.5,0 53.5,24 53.5,53.5 0,29.5 -24,53.5 -53.5,53.5 z"
         fill="#ffffff"
         id="path24" />
      <path
         d="m 1392.4,1036.2 c 20.3,0 36.8,16.5 36.8,36.8 0,20.3 -16.5,36.8 -36.8,36.8 -20.3,0 -36.8,-16.5 -36.8,-36.8 0,-20.3 16.5,-36.8 36.8,-36.8 m 0,-33.4 c -38.7,0 -70.2,31.5 -70.2,70.2 0,38.7 31.5,70.2 70.2,70.2 38.7,0 70.2,-31.5 70.2,-70.2 0,-38.7 -31.5,-70.2 -70.2,-70.2 z"
         id="path25" />
    </g>
  </g>
</svg>
