<?xml version="1.0" encoding="UTF-8" standalone="no"?>
<svg
   enable-background="new 0 0 3839 1959.6"
   height="1960"
   viewBox="0 0 3840 1960.0001"
   width="3840"
   version="1.1"
   id="svg12"
   sodipodi:docname="pcengine.svg"
   inkscape:version="1.3.2 (091e20e, 2023-11-25)"
   xmlns:inkscape="http://www.inkscape.org/namespaces/inkscape"
   xmlns:sodipodi="http://sodipodi.sourceforge.net/DTD/sodipodi-0.dtd"
   xmlns="http://www.w3.org/2000/svg"
   xmlns:svg="http://www.w3.org/2000/svg">
  <defs
     id="defs12" />
  <sodipodi:namedview
     id="namedview12"
     pagecolor="#ffffff"
     bordercolor="#000000"
     borderopacity="0.25"
     inkscape:showpageshadow="2"
     inkscape:pageopacity="0.0"
     inkscape:pagecheckerboard="0"
     inkscape:deskcolor="#d1d1d1"
     inkscape:zoom="0.12040432"
     inkscape:cx="1918.5358"
     inkscape:cy="980.03125"
     inkscape:window-width="1312"
     inkscape:window-height="449"
     inkscape:window-x="0"
     inkscape:window-y="23"
     inkscape:window-maximized="0"
     inkscape:current-layer="svg12" />
  <g
     id="g13"
     transform="scale(1,0.99996812)">
    <g
       transform="matrix(1.0002492,0,0,1.0002492,0.02195,-0.091005)"
       id="g12">
      <path
         d="M 3839,1022.7 C 3837.4,904 3753.7,789.2 3596.8,690.8 3450.6,599.1 3240.2,520.7 2988.4,464.1 2938.2,452.8 2886,442.4 2832.7,432.8 l 4.8,-3.9 111.3,-89.9 c 14.4,-11.7 0.5,-34.4 -16.5,-26.7 l -113,51 -109.3,49.5 -34.9,-4.8 c -218.9,-30.4 -451.5,-45.8 -691.2,-45.8 h -10 l 8.3,-53.8 c 0.3,-1.8 1.7,-3.3 3.5,-3.7 L 2095,283 2083.3,358.8 2378.7,300 2393,206.9 C 2407.3,114 2346.7,25 2255.1,4.4 2230.7,-1.1 2205.7,-1.3 2180.7,3.6 L 1972.5,45 c -117.6,23.4 -214,104.9 -258.6,212.7 -19.2,-58.4 -67.7,-105.3 -131.1,-119.6 -24.4,-5.5 -49.4,-5.8 -74.4,-0.8 l -451.8,89.9 -34.4,223.8 -25.5,5.2 C 702.3,516.5 454.8,602.9 281,706 95.4,816 -1.7,943.3 0,1074.1 c 2.1,154.9 139.5,298 397.3,413.7 l 20.9,9.4 -44.4,288.8 c -4.4,28.9 12.7,57.6 40.9,65.2 8.5,2.3 17.2,2.6 25.8,0.8 l 1085.8,-216 c -7.2,8 -12.1,18.1 -13.8,29.1 l -35,227.4 c -4.4,28.9 12.7,57.6 40.9,65.2 8.5,2.3 17.2,2.6 25.8,0.8 l 191.5,-38.1 c 121.3,-24.1 226.1,-93.1 296.9,-188.6 l 38.9,-1.5 c 264.6,-10.4 516.6,-39.1 749.1,-85.3 300.2,-59.7 552.9,-146.3 730.9,-250.3 189.9,-111 289.2,-239.6 287.5,-372 z"
         fill="#ff002b"
         id="path1" />
      <g
         fill="#ffffff"
         id="g11">
        <path
           d="m 2851,380.9 -560.5,253 -178.8,-162.8 64.9,233 -478.3,386.5 560.5,-253 178.9,162.8 -65,-233 z"
           id="path2" />
        <path
           d="m 2851,380.9 -560.5,253 -178.8,-162.8 64.9,233 -478.3,386.5 560.5,-253 178.9,162.8 -65,-233 z"
           id="path3" />
        <path
           d="m 2296.2,605.9 5,-2.3 c 2.3,-9.4 4.3,-18.9 5.8,-28.6 l 9.2,-59.9 -98.2,19.5 z"
           id="path4" />
        <path
           d="m 1840.5,886.4 97.7,-19.4 210.8,-170.5 -39.1,-140.4 -28.5,5.7 -8.1,52.6 c -2.1,13.9 -12.7,25 -26.5,27.7 L 1922.1,667 c -12.3,2.4 -23.3,-8.1 -21.4,-20.4 L 1953.4,304 c 2.1,-13.9 12.7,-25 26.5,-27.7 l 124.6,-24.8 c 12.3,-2.4 23.3,8.1 21.4,20.4 l -7.7,50.3 234.9,-46.7 11.2,-73 C 2380.2,99.3 2288.7,11.7 2186.3,32.1 l -208.2,41.4 c -134.3,26.7 -237.6,134.6 -258.4,270 L 1662.4,716 c -15.9,103.1 75.6,190.7 178.1,170.4 z"
           id="path5" />
        <path
           d="M 204.1,1298.5 C 113.5,1226.1 67,1150.3 66,1073.2 63.1,856.7 427.1,642.5 996.5,523.6 l 6,-39 C 419.2,604.1 25.7,825.5 29,1073.7 c 2,147.2 143.2,281.3 380.2,387.7 l 5.8,-37.9 c -84.4,-38.6 -155,-80.4 -210.9,-125 z"
           id="path6" />
        <path
           d="m 1983.9,391.1 -5.7,37.1 c 218.6,-0.3 430.8,12.5 629.2,37.2 l 63.7,-28.8 c -211.8,-29.4 -443.7,-45.5 -687.2,-45.5 z"
           id="path7" />
        <path
           d="m 2795.3,455.8 -38.3,31 c 175.6,28.4 338.1,66.8 481.4,114.4 170.3,56.6 303.7,122.9 396.5,197.1 90.6,72.4 137.1,148.2 138.1,225.3 3,220.9 -375.9,439.4 -965.3,556.7 -220.7,43.9 -465.6,72.2 -716.5,83.2 -6.4,13 -13.3,25.6 -20.8,37.9 267.8,-10.5 519.9,-40.1 744.5,-84.8 595.2,-118.4 998.4,-342.2 995.1,-593.5 C 3806.6,771.3 3395.7,558 2795.3,455.8 Z"
           id="path8" />
        <path
           d="m 3198.2,852 -193,38.4 c -11.4,2.3 -20.2,11.5 -22,23 l -6,39.1 231.8,-46.1 c 11.4,-2.3 20.2,-11.5 22,-23 3,-19 -13.9,-35.2 -32.8,-31.4 z"
           id="path9" />
        <path
           d="m 1723,1160.4 -29.6,192.6 c -2.3,15.2 11.1,28.1 26.2,25.1 l 219.9,-43.7 36.8,-239.2 -235.7,46.9 c -9.2,1.8 -16.2,9.1 -17.6,18.3 z m 79.1,58.1 69.2,-13.8 -8.6,56.1 -69.2,13.8 z"
           id="path10" />
        <path
           d="m 3399.2,718.2 c -34.7,-52.3 -96.6,-76.9 -156,-65.1 l -242.8,48.3 c -64.1,12.8 -119.3,49.9 -155.7,101.2 -1.2,-1.2 -2.4,-2.5 -3.6,-3.7 -35.7,-34.1 -85.8,-48.7 -134.2,-39.1 l -294.4,58.6 23.4,84.1 288,-57.3 c 43.8,-8.7 83,28.8 76.2,73 l -54.9,357 -97.3,19.4 48.1,-312.3 c 2.3,-15.2 -11.1,-28.1 -26.2,-25.1 l -219.9,43.8 -52.9,343.6 -97.3,19.4 61.5,-399.8 -108,-98.4 -290,130.9 29.1,-5.8 97.3,-19.4 -81,526.5 c -23.8,154.8 -141.9,278.2 -295.5,308.7 l -108.3,21.6 16.1,-104.4 75.9,-15.1 c 114.6,-22.8 202.8,-114.9 220.5,-230.4 l 6.1,-39.6 -258,51.3 c -43.8,8.7 -83,-28.8 -76.2,-73 l 37.5,-243.6 c 6.7,-43.3 30.2,-81 63.8,-106.2 l 0.1,-0.2 172.3,-139.3 -123.2,24.5 c -64.1,12.8 -119.3,49.9 -155.7,101.2 -1.2,-1.2 -2.4,-2.5 -3.6,-3.7 -35.7,-34.1 -85.8,-48.7 -134.2,-39.1 l -261,51.9 7.3,-47.3 30.1,-195.9 184,-36.6 c 134.3,-26.7 237.6,-134.6 258.4,-270 l 27.2,-176.7 c 15.9,-103.2 -75.6,-190.8 -178,-170.4 l -431.9,85.9 -80.5,523 -438,87.1 c -11.4,2.3 -20.2,11.4 -21.9,22.9 l -139.6,907.6 c -2.9,19 13.9,35.1 32.7,31.3 l 588,-117 190,-37.8 52.9,-343.6 69.2,-13.8 -52.9,343.6 279,-55.5 7.2,-47 c 33.2,22.3 74.2,30.8 114,22.9 l 110.7,-22 c -27.6,35.4 -67.5,60.9 -113.3,70 l -116.7,23.2 c -11.4,2.3 -20.2,11.4 -21.9,22.9 l -35.3,229.3 c -2.9,19 13.9,35.1 32.7,31.3 l 191.5,-38.1 c 189.5,-37.7 335.1,-189.9 364.5,-380.8 l 2.8,-18.4 188.1,-37.4 188.1,-37.4 52.9,-343.6 69.2,-13.8 -52.9,343.6 279,-55.5 7.2,-47 c 33.2,22.3 74.2,30.8 114,22.9 l 396.1,-78.8 c 11.4,-2.3 20.2,-11.4 21.9,-22.9 l 41.3,-268.3 -11,2.2 c 10.3,-21.6 17.6,-44.9 21.3,-69.3 l 9.2,-60 c 6.1,-38 -1.4,-77.2 -22.6,-109.2 z M 1284.8,414.5 1432.4,385.1 c 12.3,-2.4 23.3,8.1 21.4,20.4 l -22.6,146.7 c -2.1,13.9 -12.7,25 -26.5,27.7 l -149.9,29.8 z m -338.5,1218.6 -42.2,8.4 -49.6,9.9 -277,55.1 -76.4,15.2 120.4,-782.7 32.2,-6.4 238,-47.3 107.8,-21.4 -16.1,104.4 -31.1,6.2 -249.6,49.5 -35.4,230.4 116.9,-23.3 20.9,-4.2 76.4,-15.2 -16.1,104.4 -41,8.2 -56.4,11.2 -116.9,23.3 -36.7,239.2 256.1,-51 14.2,-2.8 78,-15.5 z m -227,-144.7 8.6,-56.1 214.2,-42.6 44.2,-287.4 -214.2,42.6 7.3,-47.3 178,-35.4 80.8,-16.1 -11.5,74.9 -48.6,315.9 z m 765,37.7 -97.3,19.4 48.1,-312.3 c 2.3,-15.2 -11.1,-28.1 -26.2,-25.1 l -219.9,43.7 -52.9,343.6 -97.3,19.4 68.9,-447.9 355.3,-70.7 c 43.8,-8.7 83,28.8 76.2,73 z m 724.5,-144.2 -97.3,19.4 68.9,-447.9 97.3,-19.4 z m 1127.7,-570.5 -9.7,62.8 c -10.5,68.1 -62.4,122.3 -130,135.8 l -235.7,46.9 -7,45.3 c -2.3,15.2 11.1,28.1 26.2,25.1 l 219.9,-43.7 43.5,-8.7 53.8,-10.7 -16.1,104.4 -18.4,3.7 -337,67.1 c -43.8,8.7 -83,-28.8 -76.2,-73 l 37.5,-243.7 c 10.5,-68.1 62.4,-122.3 130,-135.8 l 242.8,-48.3 c 44,-8.9 83.2,28.6 76.4,72.8 z"
           id="path11" />
      </g>
    </g>
  </g>
</svg>
