<?xml version="1.0" encoding="UTF-8" standalone="no"?>
<svg
   enable-background="new 0 0 3839 1395.9"
   height="1396"
   viewBox="0 0 3840.0002 1395.9999"
   width="3840.0002"
   version="1.1"
   id="svg15"
   sodipodi:docname="ps3.svg"
   inkscape:version="1.3.2 (091e20e, 2023-11-25)"
   xmlns:inkscape="http://www.inkscape.org/namespaces/inkscape"
   xmlns:sodipodi="http://sodipodi.sourceforge.net/DTD/sodipodi-0.dtd"
   xmlns="http://www.w3.org/2000/svg"
   xmlns:svg="http://www.w3.org/2000/svg">
  <defs
     id="defs15" />
  <sodipodi:namedview
     id="namedview15"
     pagecolor="#ffffff"
     bordercolor="#000000"
     borderopacity="0.25"
     inkscape:showpageshadow="2"
     inkscape:pageopacity="0.0"
     inkscape:pagecheckerboard="0"
     inkscape:deskcolor="#d1d1d1"
     inkscape:zoom="0.16903023"
     inkscape:cx="1922.733"
     inkscape:cy="698.09998"
     inkscape:window-width="1312"
     inkscape:window-height="449"
     inkscape:window-x="0"
     inkscape:window-y="23"
     inkscape:window-maximized="0"
     inkscape:current-layer="svg15" />
  <g
     id="g16"
     transform="scale(1,0.99985683)">
    <g
       transform="scale(1.0002865)"
       id="g15">
      <path
         d="m 2626.9,1231.4 c 20.2,0.8 41.3,-6.4 41.3,-29.3 0,-15.7 -12.3,-26.4 -29,-26.4 -21.1,0 -31.4,18.9 -30.9,38.1 H 2578 c 1.6,-36.2 24.2,-63.5 61.7,-63.5 29.1,0 58.8,16.8 58.8,49.9 0,18.6 -8.5,33.6 -26.3,40 v 0.5 c 21,4.3 33.7,22.7 33.7,46.7 0,35.2 -30.3,57.1 -65.9,57.1 -43.1,0 -64.7,-26.2 -65.5,-65.1 h 30.3 c -0.8,22.7 11.4,39.7 35.1,39.7 20.2,0 35.7,-12 35.7,-33.3 0,-29.1 -24.8,-32.8 -48.7,-31.7 z"
         id="path1" />
      <path
         d="m 1133,1150.4 h 84.1 c 54.5,0 64.9,35.2 64.9,59.1 0,23.5 -10.4,58.8 -64.9,58.5 h -50.8 v 73.2 H 1133 Z m 33.3,90.2 h 48.9 c 15,0 33.4,-7.4 33.4,-31.5 0,-25.1 -15.2,-31.5 -32.8,-31.5 h -49.5 z"
         id="path2" />
      <path
         d="M 1317.3,1341.1 V 1150.4"
         fill="none"
         stroke="#000000"
         stroke-miterlimit="10"
         stroke-width="30.4864"
         id="path3" />
      <path
         d="m 1481.9,1310.4 c 0,7.4 1.6,10.4 7.2,10.4 1.9,0 4.3,0 7.4,-0.5 v 21.1 c -4.5,1.6 -14.2,3.5 -19.2,3.5 -12.3,0 -21.1,-4.3 -23.5,-16.8 -12.1,11.8 -31.6,16.8 -47.9,16.8 -24.8,0 -47.2,-13.4 -47.2,-40.4 0,-34.4 27.5,-40.1 53.2,-43 21.8,-4 41.3,-1.6 41.3,-19.5 0,-15.7 -16.2,-18.7 -28.6,-18.7 -17.1,0 -29.1,7 -30.4,21.9 h -30.5 c 2.2,-35.6 32.3,-46 62.8,-46 26.9,0 55.3,11 55.3,40.1 v 71.1 z m -30.5,-38.5 c -9.3,6.2 -24,5.9 -37.4,8.3 -13.1,2.1 -24.9,6.9 -24.9,23 0,13.6 17.4,17.6 28.1,17.6 13.4,0 34.2,-7 34.2,-26.2 z"
         id="path4" />
      <path
         d="m 1494.6,1203 h 33.4 l 36.1,103.1 h 0.5 l 35,-103.1 h 31.8 l -53.7,145.6 c -10,24.8 -17.1,47.2 -48.9,47.2 -7.2,0 -14.1,-0.5 -21.1,-1.5 v -25.6 c 4.8,0.8 9.6,1.8 14.4,1.8 14.2,0 17.7,-7.4 21.4,-19.2 l 3.4,-10.7 z"
         id="path5" />
      <path
         d="m 1671.4,1277.6 c 0,29.4 21.5,40.9 48.3,40.9 29.4,0 40.4,-14.4 40.4,-28.9 0,-14.7 -8.1,-20.6 -15.8,-23.5 -13.3,-5.1 -30.8,-8.6 -56.9,-15.8 -32.6,-8.8 -42.2,-28.6 -42.2,-48.4 0,-38.2 35.3,-56.1 69.8,-56.1 39.8,0 73.2,21.1 73.2,61 h -33.4 c -1.5,-24.6 -18.1,-33.7 -41.2,-33.7 -15.5,0 -35,5.6 -35,24.9 0,13.4 9.1,20.8 22.7,24.6 3,0.8 45.1,11.8 55,14.7 25.1,7.4 37.2,28.9 37.2,48.6 0,42.8 -37.9,59.9 -75.9,59.9 -43.5,0 -78.8,-20.8 -79.6,-68.1 h 33.4 z"
         id="path6" />
      <path
         d="m 1804.3,1203 h 23 v -41.4 h 30.4 v 41.4 h 27.5 v 22.7 h -27.5 v 73.7 c 0,12.6 1,19 14.7,19 4.2,0 8.5,0 12.8,-1.1 v 23.5 c -6.7,0.5 -13.1,1.6 -19.7,1.6 -31.8,0 -37.7,-12.3 -38.2,-35.3 v -81.5 h -23 z"
         id="path7" />
      <path
         d="m 2025.4,1310.4 c 0,7.4 1.5,10.4 7.2,10.4 1.9,0 4.3,0 7.5,-0.5 v 21.1 c -4.5,1.6 -14.2,3.5 -19.3,3.5 -12.3,0 -21.1,-4.3 -23.5,-16.8 -12,11.8 -31.6,16.8 -47.9,16.8 -24.8,0 -47.3,-13.4 -47.3,-40.4 0,-34.4 27.5,-40.1 53.2,-43 21.9,-4 41.4,-1.6 41.4,-19.5 0,-15.7 -16.3,-18.7 -28.6,-18.7 -17.1,0 -29.1,7 -30.5,21.9 h -30.4 c 2.2,-35.6 32.3,-46 62.8,-46 26.9,0 55.3,11 55.3,40.1 v 71.1 z m -30.5,-38.5 c -9.4,6.2 -24.1,5.9 -37.4,8.3 -13.1,2.1 -24.9,6.9 -24.9,23 0,13.6 17.3,17.6 28.1,17.6 13.4,0 34.2,-7 34.2,-26.2 z"
         id="path8" />
      <path
         d="m 2043.1,1203 h 23 v -41.4 h 30.5 v 41.4 h 27.5 v 22.7 h -27.5 v 73.7 c 0,12.6 1,19 14.7,19 4.2,0 8.5,0 12.8,-1.1 v 23.5 c -6.8,0.5 -13.1,1.6 -19.8,1.6 -31.8,0 -37.7,-12.3 -38.3,-35.3 v -81.5 h -23 V 1203 Z"
         id="path9" />
      <path
         d="m 2150.3,1150.4 h 30.5 v 28.8 h -30.5 z m 0,52.6 h 30.5 v 138.1 h -30.5 z"
         id="path10" />
      <path
         d="m 2203.6,1271.9 c 0,-42.2 25.4,-72.7 69.8,-72.7 44.3,0 69.7,30.5 69.7,72.7 0,42.5 -25.4,72.9 -69.7,72.9 -44.4,0.1 -69.8,-30.4 -69.8,-72.9 m 109,0 c 0,-23.8 -12,-48.6 -39.2,-48.6 -27.3,0 -39.3,24.8 -39.3,48.6 0,24.1 12,48.9 39.3,48.9 27.2,0 39.2,-24.8 39.2,-48.9"
         id="path11" />
      <path
         d="m 2366.1,1203 h 28.8 v 20.3 l 0.5,0.6 c 9.1,-15.3 24.9,-24.6 43,-24.6 29.9,0 48.9,16 48.9,47 v 94.8 h -30.5 v -86.8 c -0.6,-21.6 -9.1,-31 -27,-31 -20.3,0 -33.4,16.1 -33.4,36.3 v 81.5 H 2366 V 1203 Z"
         id="path12" />
      <path
         d="m 2457.6,0 -503.8,0.1 c -155.4,0 -231.5,95.7 -231.5,220.4 v 378.8 c 0,77.1 -36.5,132.6 -113.8,132.6 H 1168 c -3.2,0 -5.7,2.6 -5.7,5.8 v 76.1 c 0,3.2 2.6,5.7 5.8,5.7 h 498.6 c 155.4,0 231.5,-95.5 231.5,-220.1 v -379 c 0,-77.2 36.6,-132.8 113.7,-132.8 h 445.6 c 3.3,0 5.7,-2.6 5.7,-5.7 v -76 c 0.1,-3.3 -2.5,-5.9 -5.6,-5.9"
         id="path13" />
      <path
         d="M 974.7,0.1 H 5.7 C 2.6,0.1 0,2.6 0,5.8 v 76.1 c 0,3.2 2.6,5.7 5.7,5.7 h 910.8 c 77.2,0 113.8,55.6 113.8,132.8 0,77.1 -36.5,132.6 -113.8,132.6 H 196.1 C 84.2,353 0,447 0,571.7 v 242 c 0,3.2 2.6,5.7 5.7,5.7 H 170 c 3.1,0 5.7,-2.6 5.7,-5.7 v -242 c 0,-77.2 44.5,-131.1 108.3,-131.1 h 690.6 c 155.4,0 231.5,-95.5 231.5,-220.1 0,-124.6 -76,-220.4 -231.4,-220.4"
         id="path14" />
      <path
         d="m 3766.9,399.6 c -2.5,-2.5 -2.6,-6.7 -0.1,-9.2 48.1,-39.9 72.1,-100.2 72.1,-169.9 C 3838.9,95.9 3762.8,0.1 3607.4,0.1 L 2638.4,0 c -3.1,0 -5.8,2.6 -5.8,5.8 v 76 c 0,3.2 2.6,5.7 5.8,5.7 h 910.8 c 77.2,0 113.8,55.6 113.8,132.8 0,77.1 -36.5,132.6 -113.8,132.6 h -0.8 l -0.3,-0.1 -909.7,0.1 c -3.1,0 -5.8,2.6 -5.8,5.8 v 76.1 c 0,3.1 2.6,5.7 5.8,5.7 h 910.8 c 100.5,0.8 113.7,98.5 113.7,148.6 l 0.1,10 c 0,77.2 -36.6,132.8 -113.8,132.8 h -910.8 c -3.1,0 -5.8,2.6 -5.8,5.7 v 76 c 0,3.2 2.6,5.7 5.8,5.7 h 969 c 155.4,0 231.5,-103.2 231.5,-220.4 V 589 c 0.1,-74.4 -23.9,-145.6 -72,-189.4"
         id="path15" />
    </g>
  </g>
</svg>
