<?xml version="1.0" encoding="UTF-8" standalone="no"?>
<svg
   height="1396"
   viewBox="0 0 3840.0002 1395.9999"
   width="3840.0002"
   version="1.1"
   id="svg15"
   sodipodi:docname="ps3.svg"
   inkscape:version="1.3.2 (091e20e, 2023-11-25)"
   xmlns:inkscape="http://www.inkscape.org/namespaces/inkscape"
   xmlns:sodipodi="http://sodipodi.sourceforge.net/DTD/sodipodi-0.dtd"
   xmlns="http://www.w3.org/2000/svg"
   xmlns:svg="http://www.w3.org/2000/svg">
  <defs
     id="defs15" />
  <sodipodi:namedview
     id="namedview15"
     pagecolor="#ffffff"
     bordercolor="#000000"
     borderopacity="0.25"
     inkscape:showpageshadow="2"
     inkscape:pageopacity="0.0"
     inkscape:pagecheckerboard="0"
     inkscape:deskcolor="#d1d1d1"
     inkscape:zoom="0.16905444"
     inkscape:cx="1919.5"
     inkscape:cy="698"
     inkscape:window-width="1312"
     inkscape:window-height="449"
     inkscape:window-x="215"
     inkscape:window-y="39"
     inkscape:window-maximized="0"
     inkscape:current-layer="svg15" />
  <g
     id="g17">
    <g
       id="g16">
      <g
         transform="scale(1.0002865 1.00014328898)"
         id="g15">
        <path
           d="m2626.9 1231.4c20.2.8 41.3-6.4 41.3-29.3 0-15.7-12.3-26.4-29-26.4-21.1 0-31.4 18.9-30.9 38.1h-30.3c1.6-36.2 24.2-63.5 61.7-63.5 29.1 0 58.8 16.8 58.8 49.9 0 18.6-8.5 33.6-26.3 40v.5c21 4.3 33.7 22.7 33.7 46.7 0 35.2-30.3 57.1-65.9 57.1-43.1 0-64.7-26.2-65.5-65.1h30.3c-.8 22.7 11.4 39.7 35.1 39.7 20.2 0 35.7-12 35.7-33.3 0-29.1-24.8-32.8-48.7-31.7z"
           id="path1" />
        <path
           d="m1133 1150.4h84.1c54.5 0 64.9 35.2 64.9 59.1 0 23.5-10.4 58.8-64.9 58.5h-50.8v73.2h-33.3zm33.3 90.2h48.9c15 0 33.4-7.4 33.4-31.5 0-25.1-15.2-31.5-32.8-31.5h-49.5z"
           id="path2" />
        <path
           d="m1317.3 1341.1v-190.7"
           fill="none"
           stroke="#000"
           stroke-miterlimit="10"
           stroke-width="30.4864"
           id="path3" />
        <path
           d="m1481.9 1310.4c0 7.4 1.6 10.4 7.2 10.4 1.9 0 4.3 0 7.4-.5v21.1c-4.5 1.6-14.2 3.5-19.2 3.5-12.3 0-21.1-4.3-23.5-16.8-12.1 11.8-31.6 16.8-47.9 16.8-24.8 0-47.2-13.4-47.2-40.4 0-34.4 27.5-40.1 53.2-43 21.8-4 41.3-1.6 41.3-19.5 0-15.7-16.2-18.7-28.6-18.7-17.1 0-29.1 7-30.4 21.9h-30.5c2.2-35.6 32.3-46 62.8-46 26.9 0 55.3 11 55.3 40.1v71.1zm-30.5-38.5c-9.3 6.2-24 5.9-37.4 8.3-13.1 2.1-24.9 6.9-24.9 23 0 13.6 17.4 17.6 28.1 17.6 13.4 0 34.2-7 34.2-26.2z"
           id="path4" />
        <path
           d="m1494.6 1203h33.4l36.1 103.1h.5l35-103.1h31.8l-53.7 145.6c-10 24.8-17.1 47.2-48.9 47.2-7.2 0-14.1-.5-21.1-1.5v-25.6c4.8.8 9.6 1.8 14.4 1.8 14.2 0 17.7-7.4 21.4-19.2l3.4-10.7z"
           id="path5" />
        <path
           d="m1671.4 1277.6c0 29.4 21.5 40.9 48.3 40.9 29.4 0 40.4-14.4 40.4-28.9 0-14.7-8.1-20.6-15.8-23.5-13.3-5.1-30.8-8.6-56.9-15.8-32.6-8.8-42.2-28.6-42.2-48.4 0-38.2 35.3-56.1 69.8-56.1 39.8 0 73.2 21.1 73.2 61h-33.4c-1.5-24.6-18.1-33.7-41.2-33.7-15.5 0-35 5.6-35 24.9 0 13.4 9.1 20.8 22.7 24.6 3 .8 45.1 11.8 55 14.7 25.1 7.4 37.2 28.9 37.2 48.6 0 42.8-37.9 59.9-75.9 59.9-43.5 0-78.8-20.8-79.6-68.1h33.4z"
           id="path6" />
        <path
           d="m1804.3 1203h23v-41.4h30.4v41.4h27.5v22.7h-27.5v73.7c0 12.6 1 19 14.7 19 4.2 0 8.5 0 12.8-1.1v23.5c-6.7.5-13.1 1.6-19.7 1.6-31.8 0-37.7-12.3-38.2-35.3v-81.5h-23z"
           id="path7" />
        <path
           d="m2025.4 1310.4c0 7.4 1.5 10.4 7.2 10.4 1.9 0 4.3 0 7.5-.5v21.1c-4.5 1.6-14.2 3.5-19.3 3.5-12.3 0-21.1-4.3-23.5-16.8-12 11.8-31.6 16.8-47.9 16.8-24.8 0-47.3-13.4-47.3-40.4 0-34.4 27.5-40.1 53.2-43 21.9-4 41.4-1.6 41.4-19.5 0-15.7-16.3-18.7-28.6-18.7-17.1 0-29.1 7-30.5 21.9h-30.4c2.2-35.6 32.3-46 62.8-46 26.9 0 55.3 11 55.3 40.1v71.1zm-30.5-38.5c-9.4 6.2-24.1 5.9-37.4 8.3-13.1 2.1-24.9 6.9-24.9 23 0 13.6 17.3 17.6 28.1 17.6 13.4 0 34.2-7 34.2-26.2z"
           id="path8" />
        <path
           d="m2043.1 1203h23v-41.4h30.5v41.4h27.5v22.7h-27.5v73.7c0 12.6 1 19 14.7 19 4.2 0 8.5 0 12.8-1.1v23.5c-6.8.5-13.1 1.6-19.8 1.6-31.8 0-37.7-12.3-38.3-35.3v-81.5h-23v-22.6z"
           id="path9" />
        <path
           d="m2150.3 1150.4h30.5v28.8h-30.5zm0 52.6h30.5v138.1h-30.5z"
           id="path10" />
        <path
           d="m2203.6 1271.9c0-42.2 25.4-72.7 69.8-72.7 44.3 0 69.7 30.5 69.7 72.7 0 42.5-25.4 72.9-69.7 72.9-44.4.1-69.8-30.4-69.8-72.9m109 0c0-23.8-12-48.6-39.2-48.6-27.3 0-39.3 24.8-39.3 48.6 0 24.1 12 48.9 39.3 48.9 27.2 0 39.2-24.8 39.2-48.9"
           id="path11" />
        <path
           d="m2366.1 1203h28.8v20.3l.5.6c9.1-15.3 24.9-24.6 43-24.6 29.9 0 48.9 16 48.9 47v94.8h-30.5v-86.8c-.6-21.6-9.1-31-27-31-20.3 0-33.4 16.1-33.4 36.3v81.5h-30.4v-138.1z"
           id="path12" />
        <path
           d="m2457.6 0-503.8.1c-155.4 0-231.5 95.7-231.5 220.4v378.8c0 77.1-36.5 132.6-113.8 132.6h-440.5c-3.2 0-5.7 2.6-5.7 5.8v76.1c0 3.2 2.6 5.7 5.8 5.7h498.6c155.4 0 231.5-95.5 231.5-220.1v-379c0-77.2 36.6-132.8 113.7-132.8h445.6c3.3 0 5.7-2.6 5.7-5.7v-76c.1-3.3-2.5-5.9-5.6-5.9"
           id="path13" />
        <path
           d="m974.7.1h-969c-3.1 0-5.7 2.5-5.7 5.7v76.1c0 3.2 2.6 5.7 5.7 5.7h910.8c77.2 0 113.8 55.6 113.8 132.8 0 77.1-36.5 132.6-113.8 132.6h-720.4c-111.9 0-196.1 94-196.1 218.7v242c0 3.2 2.6 5.7 5.7 5.7h164.3c3.1 0 5.7-2.6 5.7-5.7v-242c0-77.2 44.5-131.1 108.3-131.1h690.6c155.4 0 231.5-95.5 231.5-220.1s-76-220.4-231.4-220.4"
           id="path14" />
        <path
           d="m3766.9 399.6c-2.5-2.5-2.6-6.7-.1-9.2 48.1-39.9 72.1-100.2 72.1-169.9 0-124.6-76.1-220.4-231.5-220.4l-969-.1c-3.1 0-5.8 2.6-5.8 5.8v76c0 3.2 2.6 5.7 5.8 5.7h910.8c77.2 0 113.8 55.6 113.8 132.8 0 77.1-36.5 132.6-113.8 132.6h-.8l-.3-.1-909.7.1c-3.1 0-5.8 2.6-5.8 5.8v76.1c0 3.1 2.6 5.7 5.8 5.7h910.8c100.5.8 113.7 98.5 113.7 148.6l.1 10c0 77.2-36.6 132.8-113.8 132.8h-910.8c-3.1 0-5.8 2.6-5.8 5.7v76c0 3.2 2.6 5.7 5.8 5.7h969c155.4 0 231.5-103.2 231.5-220.4v-9.9c.1-74.4-23.9-145.6-72-189.4"
           id="path15" />
      </g>
    </g>
  </g>
</svg>
