<?xml version="1.0" encoding="UTF-8" standalone="no"?>
<svg
   height="1254"
   viewBox="0 0 3840 1254"
   width="3840"
   version="1.1"
   id="svg22"
   sodipodi:docname="psp.svg"
   inkscape:version="1.3.2 (091e20e, 2023-11-25)"
   xmlns:inkscape="http://www.inkscape.org/namespaces/inkscape"
   xmlns:sodipodi="http://sodipodi.sourceforge.net/DTD/sodipodi-0.dtd"
   xmlns="http://www.w3.org/2000/svg"
   xmlns:svg="http://www.w3.org/2000/svg">
  <defs
     id="defs22" />
  <sodipodi:namedview
     id="namedview22"
     pagecolor="#ffffff"
     bordercolor="#000000"
     borderopacity="0.25"
     inkscape:showpageshadow="2"
     inkscape:pageopacity="0.0"
     inkscape:pagecheckerboard="0"
     inkscape:deskcolor="#d1d1d1"
     inkscape:zoom="0.18819777"
     inkscape:cx="1920.8517"
     inkscape:cy="627"
     inkscape:window-width="1312"
     inkscape:window-height="449"
     inkscape:window-x="215"
     inkscape:window-y="39"
     inkscape:window-maximized="0"
     inkscape:current-layer="svg22" />
  <g
     id="g24">
    <g
       id="g23">
      <g
         transform="scale(1.0002605 1.00023929448)"
         id="g22">
        <path
           d="m683.7 1196.6v-201.2h73.5c52.2 0 65.6 26 65.6 56.2 0 45-40 56.2-77.1 56.2h-43v88.8zm62.6-105.1c35.5 0 57.6-7.3 57.6-41.4 0-25.1-16.2-38.6-52-38.6h-49.2v80z"
           id="path1" />
        <path
           d="m848.3 995.4h16.8v201.1h-16.8z"
           id="path2" />
        <path
           d="m972.9 1112.2c6.1-.6 16.5-2.2 22.1-4.8 5.5-2.5 6.1-10.1 6.1-15.1 0-17.1-10-29.4-36-29.4-23.2 0-39.1 7.6-42.2 32.7h-17c2.5-34.1 27.9-47.8 59.5-47.8 29.3 0 52.5 11.5 52.5 45v78.8c0 13.1 3.3 16.2 17.6 11.2v13.1c-2.5.9-8.4 2.8-13.1 2.8-2.8 0-5.1-.3-7.5-.8-11.2-1.7-13.2-11.4-13.4-21.6-14 15.7-33 24-54 24-25.4 0-48.3-13.7-48.3-41.6 0-24.3 16.8-39.1 50.6-43.6zm28.2 8.4c-14.2 5.9-28.7 7-43.3 8.1-25.5 1.9-40.8 11.2-40.8 30.7 0 17.6 15.4 26 31.3 26 26.5 0 52.8-12.9 52.8-42.2z"
           id="path3" />
        <path
           d="m1059.2 1236c4.5.9 9.2 1.7 14 1.7 19 0 21.8-27.3 28.2-39.9l-56.2-145.9h18.7l46.4 124.3 46.4-124.3h18.2l-54 142.8c-13.7 36.4-22.6 59-45.8 59-5.9 0-11.5-.9-15.9-2z"
           id="path4" />
        <path
           d="m1214.5 1136.5c3.1 36 27.2 49.1 57.9 49.1 36 0 51.1-19.5 51.1-41.6 0-62.3-122.6-21-122.6-100.1 0-27.9 23.2-53.9 68.2-53.9 45.2 0 67.9 27.4 67.6 60.1h-18.2c0-30.7-23.8-43.9-49.4-43.9-38.6 0-52.6 23.8-49.2 44.5 8.7 52 122.7 14.5 122.7 92.5 0 36.9-27.2 58.7-73.5 58.7-41.9 0-72.9-21.8-72.9-65.4z"
           id="path5" />
        <path
           d="m1430 1197.1c-3.9.8-11.1 3.3-19.2 3.3-16.5 0-25.7-7.2-25.7-28.7v-105.9h-20.4v-13.9h20.4v-40.3h16.7v40.3h27.2v13.9h-27.2v99.3c0 14.2.6 20.4 14.6 20.4 4.5 0 9.2-.8 13.7-1.9v13.5"
           id="path6" />
        <path
           d="m1527.5 1112.2c6.1-.6 16.5-2.2 22.1-4.8 5.5-2.5 6.2-10.1 6.2-15.1 0-17.1-10.1-29.4-36-29.4-23.2 0-39.1 7.6-42.2 32.7h-17.1c2.6-34.1 28-47.8 59.5-47.8 29.3 0 52.5 11.5 52.5 45v78.8c0 13.1 3.4 16.2 17.6 11.2v13.1c-2.5.9-8.4 2.8-13.1 2.8-2.8 0-5-.2-7.6-.8-11.2-1.6-13.1-11.4-13.4-21.5-14 15.6-33 24-53.9 24-25.5 0-48.4-13.7-48.4-41.6 0-24.3 16.8-39.1 50.6-43.6zm28.3 8.4c-14.3 5.9-28.8 7-43.3 8.1-25.5 2-40.8 11.2-40.8 30.7 0 17.6 15.3 26 31.3 26 26.5 0 52.8-12.9 52.8-42.2z"
           id="path7" />
        <path
           d="m1671.4 1197.1c-3.9.8-11.2 3.3-19.3 3.3-16.5 0-25.7-7.2-25.7-28.7v-105.9h-20.4v-13.9h20.4v-40.3h16.8v40.3h27.1v13.9h-27.1v99.3c0 14.2.5 20.4 14.5 20.4 4.5 0 9.2-.8 13.7-1.9z"
           id="path8" />
        <path
           d="m1704.1 995.4h18.4v24.9h-18.4zm.8 56.4h16.8v144.7h-16.8z"
           id="path9" />
        <path
           d="m1753.6 1124.2c0-42.2 22.3-76.3 67-76.3 45.3 0 67.1 33.8 67.1 76.3 0 45.9-26.6 76.3-67.1 76.3-36.9-.6-67-25.7-67-76.3m67-61.2c-35.2 0-49.2 29.9-49.2 61.2 0 36.1 17 61.2 49.2 61.2 35.2 0 49.2-30.2 49.2-61.2-.3-34.1-13.7-61.2-49.2-61.2z"
           id="path10" />
        <path
           d="m1928.2 1196.6h-16.7v-144.7h16.7v20.1c13.4-14.2 26.6-24 46.7-24 17.6 0 33.8 5.6 44.1 20.7 7 10.3 7.3 21.3 7.3 33.3v94.7h-16.8v-94.5c0-26-10.6-39.1-37.4-39.1-20.7 0-34.9 13.4-40.2 28.2-3.4 9.2-3.7 17.3-3.7 27.4z"
           id="path11" />
        <path
           d="m2137.9 1196.6v-201.2h73.4c52.3 0 65.7 26 65.7 56.2 0 45-39.9 56.2-77.1 56.2h-43v88.8zm62.6-105.1c35.5 0 57.6-7.3 57.6-41.4 0-25.1-16.2-38.6-52-38.6h-49.2v80z"
           id="path12" />
        <path
           d="m2284.8 1124.2c0-42.2 22.3-76.3 67.1-76.3 45.3 0 67 33.8 67 76.3 0 45.9-26.6 76.3-67 76.3-36.9-.6-67.1-25.7-67.1-76.3m67.1-61.2c-35.2 0-49.2 29.9-49.2 61.2 0 36.1 17 61.2 49.2 61.2 35.2 0 49.2-30.2 49.2-61.2-.3-34.1-13.7-61.2-49.2-61.2z"
           id="path13" />
        <path
           d="m2460.3 1196.6h-16.8v-144.7h16.8v27.1h.5c9.2-23.2 22.9-31 47.2-31v18.2c-37.7-.8-47.8 27.1-47.8 59.6v70.8"
           id="path14" />
        <path
           d="m2601.9 1197.1c-3.9.8-11.2 3.3-19.2 3.3-16.5 0-25.7-7.2-25.7-28.7v-105.9h-20.4v-13.9h20.4v-40.3h16.8v40.3h27.1v13.9h-27.1v99.3c0 14.2.5 20.4 14.5 20.4 4.4 0 9.2-.8 13.6-1.9z"
           id="path15" />
        <path
           d="m2693.9 1112.2c6.1-.6 16.5-2.2 22.1-4.8 5.6-2.5 6.2-10.1 6.2-15.1 0-17.1-10.1-29.4-36-29.4-23.2 0-39.1 7.6-42.2 32.7h-17c2.5-34.1 27.9-47.8 59.5-47.8 29.3 0 52.6 11.5 52.6 45v78.8c0 13.1 3.4 16.2 17.6 11.2v13.1c-2.5.9-8.4 2.8-13.1 2.8-2.8 0-5.1-.2-7.6-.8-11.2-1.6-13.1-11.4-13.4-21.5-14 15.6-33 24-53.9 24-25.4 0-48.3-13.7-48.3-41.6 0-24.3 16.7-39.1 50.5-43.6zm28.2 8.4c-14.3 5.9-28.8 7-43.3 8.1-25.4 2-40.8 11.2-40.8 30.7 0 17.6 15.3 26 31.3 26 26.6 0 52.8-12.9 52.8-42.2z"
           id="path16" />
        <path
           d="m2805.7 1196.6h-16.8v-201.2h16.8v79.6c10.6-17.6 31.3-27.1 51.7-27.1 44.1 0 64.5 36.1 64.5 76.6 0 42.8-18.7 76-65.4 76-18.5 0-40.5-10.3-50.3-29.3h-.6v25.4m49-11.2c28.2 0 49.2-20.4 49.5-56.7 1.4-36.3-14.8-65.7-49.5-65.7-30.5 0-48.9 28-48.9 60.6 0 35 17.3 61.8 48.9 61.8z"
           id="path17" />
        <path
           d="m2958.8 995.4h16.7v201.1h-16.7z"
           id="path18" />
        <path
           d="m3027.2 1128.1c-.3 31.3 16.5 57.3 48.6 57.3 21.8 0 38.8-12 43.9-33.2h18.7c-8.4 27.3-25.7 48.3-62.6 48.3-46.4 0-66.5-33-66.5-75.7 0-42.2 25.2-76.9 66.5-76.9 39.7 0 64 28.2 63.7 80.2zm94.5-13.9c0-28.3-15.7-51.2-45.8-51.2-29.6 0-45.3 23.8-48.6 51.2z"
           id="path19" />
        <path
           d="m2690.3 354.7v307.4h-47.3v-354.7h1148.7v-260h-1148.7v-47.3h1196v354.6z"
           id="path20" />
        <path
           d="m0 0h1196.2v354.7h-1148.9v307.4h-47.3v-354.7h1148.9v-260.1h-1148.9z"
           id="path21" />
        <path
           d="m1806.4 0v614.8h-610.2v47.3h659.9v-614.8h610.2v-47.3z"
           id="path22" />
      </g>
    </g>
  </g>
</svg>
