<?xml version="1.0" encoding="UTF-8" standalone="no"?>
<svg
   height="924"
   viewBox="0 0 3839.9999 923.99998"
   width="3840"
   version="1.1"
   id="svg24"
   sodipodi:docname="retropie.svg"
   inkscape:version="1.3.2 (091e20e, 2023-11-25)"
   xmlns:inkscape="http://www.inkscape.org/namespaces/inkscape"
   xmlns:sodipodi="http://sodipodi.sourceforge.net/DTD/sodipodi-0.dtd"
   xmlns="http://www.w3.org/2000/svg"
   xmlns:svg="http://www.w3.org/2000/svg">
  <defs
     id="defs24" />
  <sodipodi:namedview
     id="namedview24"
     pagecolor="#ffffff"
     bordercolor="#000000"
     borderopacity="0.25"
     inkscape:showpageshadow="2"
     inkscape:pageopacity="0.0"
     inkscape:pagecheckerboard="0"
     inkscape:deskcolor="#d1d1d1"
     showgrid="false"
     inkscape:zoom="0.10794271"
     inkscape:cx="2042.7503"
     inkscape:cy="264.02895"
     inkscape:window-width="1312"
     inkscape:window-height="876"
     inkscape:window-x="215"
     inkscape:window-y="39"
     inkscape:window-maximized="0"
     inkscape:current-layer="svg24" />
  <g
     id="g26">
    <g
       id="g25">
      <g
         transform="matrix(2.0241781 0 0 2.02389113227 -.001583 .03500703635)"
         id="g24">
        <path
           d="m1873.1 447.11c0-.005-36-44.438-56.767-70.271-6.948-8.647-12.102-15.091-13.915-17.459-2.52-3.319-4.314-5.711-5.493-6.885-1.24-1.194-1.428-1.258-2.363-1.588-.648-.195-1.811-.406-3.803-.406h-85.001c-2.765 0-5.47-1.118-7.423-3.074-1.955-1.955-3.076-4.66-3.076-7.425v-12.501h-73.999c-2.767 0-5.47-1.121-7.425-3.074-1.955-1.955-3.076-4.66-3.076-7.425v-57.001c0-2.765 1.121-5.47 3.076-7.425s4.658-3.074 7.425-3.074l74.999-.002v-1.999h-77c-2.765 0-5.47-1.119-7.425-3.074-1.953-1.955-3.074-4.66-3.074-7.425v-54c0-2.765 1.121-5.47 3.074-7.425 1.955-1.956 4.66-3.074 7.425-3.074l74.998-.002v-1.999h-90v169.5c0 2.765-1.118 5.467-3.074 7.423-1.955 1.955-4.658 3.076-7.423 3.076h-64.501c-2.765 0-5.47-1.118-7.425-3.074-1.953-1.955-3.074-4.66-3.074-7.425v-189.5h-4.5v189.5c0 2.765-1.118 5.467-3.074 7.423-1.955 1.955-4.658 3.076-7.423 3.076h-157.5c-2.767 0-5.47-1.118-7.425-3.074-1.955-1.955-3.076-4.66-3.076-7.425v-135.5c0-2.765 1.121-5.47 3.076-7.425 1.955-1.956 4.658-3.076 7.425-3.076h81.998v-99.5h-101.5v246.5c0 2.765-1.121 5.47-3.076 7.426-1.953 1.953-4.658 3.074-7.423 3.074h-122.5c-2.767 0-5.47-1.119-7.425-3.074-1.956-1.956-3.076-4.661-3.076-7.426v-36c0-2.765 1.12-5.47 3.076-7.425 1.955-1.955 4.658-3.074 7.425-3.074l47.499-.002v-125.5h-124v125.5h45.502c2.765 0 5.47 1.119 7.425 3.074 1.956 1.955 3.074 4.66 3.074 7.425v36c0 2.765-1.121 5.47-3.076 7.426-1.956 1.953-4.658 3.074-7.423 3.074h-111.5c-3.131-.015-6.659-.019-10.691-.915-4.014-.871-8.395-2.879-12.111-6.086-.648-.564-.848-.787-1.191-1.128-.312-.321-.642-.668-1.022-1.073-.752-.805-1.694-1.829-2.824-3.076-2.258-2.49-5.264-5.846-8.773-9.793-7.02-7.889-16.051-18.124-24.98-28.272-17.86-20.297-35.305-40.239-35.308-40.243-2.712-3.098-3.36-7.504-1.659-11.252 1.7-3.75 5.444-6.161 9.562-6.161h68.999v-73.5h-87.999v170c0 2.765-1.121 5.467-3.076 7.423-1.953 1.955-4.658 3.076-7.423 3.076h-64c-2.767 0-5.47-1.121-7.425-3.076-1.956-1.956-3.076-4.658-3.076-7.423v-232.04c0-2.765 1.121-5.47 3.076-7.425 1.956-1.953 4.658-3.074 7.425-3.074h85.497v-4.5h-195.42v4.5h84.001c2.765 0 5.47 1.121 7.423 3.074 1.955 1.956 3.076 4.661 3.076 7.425v232c0 2.765-1.121 5.467-3.076 7.423-1.953 1.958-4.658 3.076-7.423 3.076h-64.505c-2.765 0-5.467-1.118-7.422-3.074-1.956-1.955-3.077-4.66-3.077-7.425v-13.503h-76c-2.765 0-5.469-1.118-7.422-3.073-1.956-1.953-3.077-4.658-3.077-7.423v-57.001c0-2.768 1.121-5.47 3.074-7.425 1.956-1.956 4.66-3.074 7.425-3.074l76-.003v-2.498h-76.5c-2.765 0-5.47-1.121-7.425-3.074-1.955-1.956-3.074-4.661-3.074-7.426v-53.5c0-2.765 1.119-5.47 3.074-7.425 1.956-1.956 4.661-3.076 7.425-3.076h77v-3.001h-91.5v171.5c0 2.765-1.121 5.467-3.076 7.423-1.956 1.958-4.658 3.076-7.423 3.076h-67c-1.116-.005-2.322-.027-3.769-.247-1.435-.209-3.058-.686-4.372-1.282-2.675-1.247-3.996-2.313-6.185-3.734-1.142-.783-1.568-1.258-1.983-1.666-.39-.403-.665-.729-.929-1.046-.513-.628-.951-1.222-1.435-1.897-.951-1.335-2.036-2.962-3.314-4.942-2.549-3.95-5.839-9.267-9.653-15.548-7.623-12.553-17.31-28.923-26.856-45.199-19.089-32.545-37.595-64.685-37.604-64.696-1.873-3.253-1.868-7.249.009-10.497 1.877-3.246 5.339-5.243 9.089-5.243l81.5-.002v-100h-99.58l-1.438 245.56c-.034 5.735-4.702 10.403-10.437 10.439-.03 0-82.435.5-86.062.5-6.281.014-11.354-2.072-14.664-4.182-3.172-2.012-4.93-4.003-5.549-4.748l-.001.001-76.876-92.877v.002c-3.698-4.468-3.074-11.089 1.394-14.784 4.468-3.697 11.086-3.074 14.784 1.395l76.744 92.714c.099.093.351.313.708.536.752.452 1.74.931 3.461.944 1.632 0 23.213-.126 44.249-.25 11.746-.07 23.342-.14 31.311-.188l1.44-245.62c.032-5.768 4.731-10.438 10.499-10.438h120.5c2.765 0 5.469 1.119 7.422 3.074 1.956 1.956 3.077 4.661 3.077 7.425v121c0 2.765-1.121 5.47-3.077 7.425-1.953 1.953-4.658 3.074-7.422 3.074h-73.809c3.11 5.373 6.855 11.833 10.976 18.918 11.49 19.761 25.895 44.396 37.511 63.808 7.721 12.91 14.289 23.618 17.663 28.632.464.697.882 1.293 1.182 1.709.615.409 1.095.723 1.425.934.017.001.034.001.052.001 2.599-.002 38.303-.003 56.499-.002v-171.5c0-2.765 1.121-5.47 3.077-7.423 1.956-1.956 4.658-3.077 7.425-3.077h112.5c2.765 0 5.467 1.121 7.423 3.077 1.955 1.953 3.076 4.658 3.076 7.423v24.001c0 2.765-1.121 5.47-3.076 7.423-1.956 1.955-4.658 3.076-7.423 3.076h-77.002v32.5h76.5c2.765 0 5.47 1.121 7.425 3.076 1.956 1.955 3.077 4.658 3.077 7.425v23.5c0 2.765-1.121 5.467-3.077 7.423-1.956 1.958-4.661 3.076-7.425 3.076l-76-.002v36.002h76c2.765 0 5.47 1.121 7.425 3.076 1.956 1.956 3.077 4.658 3.077 7.426v13.497h43.498v-211h-83.998c-2.765 0-5.47-1.119-7.425-3.074-1.956-1.956-3.077-4.661-3.077-7.425v-25.515c0-2.767 1.121-5.47 3.077-7.425 1.956-1.956 4.661-3.077 7.425-3.077h216.5c2.765 0 5.47 1.121 7.425 3.077 1.956 1.955 3.074 4.658 3.074 7.425v25.499c0 2.765-1.118 5.47-3.074 7.425-1.955 1.955-4.66 3.076-7.425 3.076h-85.5v211h43.001v-170c0-2.765 1.121-5.47 3.076-7.425 1.956-1.956 4.661-3.076 7.425-3.076h109c2.765 0 5.47 1.121 7.425 3.076 1.955 1.956 3.074 4.661 3.074 7.425v94.5c0 2.765-1.121 5.468-3.076 7.423-1.953 1.955-4.658 3.076-7.423 3.076h-56.342c4.75 5.417 10.236 11.667 15.898 18.108 16.278 18.516 34.146 38.746 39.771 44.816.504.547.932.995 1.141 1.211 1.172.931 1.792 1.164 2.972 1.467 1.218.291 3.188.41 6.059.398 4.831-.002 74.167-.002 101-.001v-15h-45.502c-2.765 0-5.47-1.121-7.423-3.074-1.956-1.956-3.077-4.661-3.077-7.426v-146.5c0-2.767 1.121-5.47 3.077-7.425 1.953-1.956 4.658-3.076 7.423-3.076h145c2.765 0 5.47 1.121 7.423 3.076 1.956 1.956 3.077 4.658 3.077 7.425v146.5c0 2.765-1.121 5.47-3.077 7.426-1.955 1.953-4.658 3.074-7.423 3.074h-47.503v14.999h101.5v-246.5c0-2.765 1.119-5.47 3.074-7.425 1.956-1.956 4.661-3.074 7.426-3.074h122.5c2.765 0 5.47 1.119 7.425 3.074 1.956 1.956 3.074 4.661 3.074 7.425v120.5c0 2.765-1.118 5.47-3.074 7.423-1.955 1.955-4.66 3.076-7.425 3.076h-82.002v114.5h136.5v-189.5c0-2.765 1.121-5.47 3.076-7.423 1.955-1.956 4.658-3.077 7.425-3.077h25.499c2.765 0 5.47 1.121 7.425 3.077 1.956 1.955 3.074 4.658 3.074 7.423v189.5h43.501v-169.5c0-2.765 1.121-5.47 3.076-7.425 1.956-1.955 4.658-3.074 7.425-3.074h111c2.765 0 5.47 1.119 7.425 3.074 1.956 1.956 3.074 4.661 3.074 7.425v23c0 2.765-1.118 5.47-3.074 7.425-1.955 1.953-4.66 3.074-7.425 3.074h-75.001v33.001h77.002c2.765 0 5.47 1.119 7.426 3.074 1.953 1.956 3.073 4.661 3.073 7.426v22.999c0 2.765-1.12 5.47-3.076 7.426-1.955 1.953-4.658 3.074-7.423 3.074h-75.003v36h74.001c2.765 0 5.47 1.12 7.426 3.076 1.955 1.955 3.074 4.658 3.074 7.425v12.499c21.961-.001 71.016-.001 74.501-.001 3.425.003 6.657.351 9.761 1.268 3.093.901 5.967 2.431 8.28 4.234 4.663 3.705 7.15 7.597 10.3 11.62 1.059 1.39 4.34 5.514 8.773 11.043 4.449 5.552 10.125 12.605 16.223 20.166 12.196 15.123 26.074 32.282 35.224 43.588 6.1 7.537 10.089 12.459 10.1 12.473 3.649 4.507 2.955 11.118-1.55 14.769-1.945 1.575-4.282 2.341-6.604 2.341-3.2 0-6.2-1.32-8.3-3.89z"
           fill="#fee600"
           id="path1" />
        <path
           d="m1881.3 456.5c-4.638.008-9.288-2.034-12.439-5.928l.001-.002c-.194-.238-36.054-44.505-56.78-70.286-6.963-8.667-12.089-15.072-14.009-17.579-2.411-3.199-4.271-5.596-4.935-6.256-.133-.127-.245-.232-.335-.315-.081-.015-.188-.031-.322-.048-.353-.044-.898-.087-1.686-.085h-85.002c-4.248-.009-8.301-1.684-11.312-4.686-3-3.012-4.677-7.062-4.688-11.313v-7h-68.498c-4.253-.012-8.301-1.69-11.314-4.686-.063-.063-.125-.128-.188-.192v11.878c-.01 4.247-1.686 8.3-4.686 11.312-3.012 2.997-7.06 4.679-11.312 4.688h-64.501c-4.248-.009-8.301-1.684-11.316-4.688-.519-.521-.997-1.074-1.435-1.652-.438.579-.918 1.131-1.437 1.652-3.012 2.997-7.06 4.679-11.312 4.688h-157.5c-4.248-.009-8.301-1.684-11.314-4.686-1.523-1.53-2.706-3.328-3.503-5.285-.776 2.344-2.091 4.497-3.87 6.285-3.012 2.997-7.06 4.676-11.312 4.686h-122.5c-4.249-.01-8.302-1.686-11.313-4.686-2.05-2.06-3.482-4.603-4.188-7.362-.705 2.761-2.139 5.304-4.19 7.367-3.009 2.99-7.057 4.671-11.309 4.681h-111.53c-3.114-.019-7.164-.002-11.831-1.041-4.904-1.071-10.051-3.438-14.557-7.312-.76-.654-1.236-1.156-1.452-1.369l-.039-.039-.037-.039c-.337-.347-.688-.716-1.091-1.147-.778-.83-1.739-1.873-2.884-3.137-2.277-2.512-5.291-5.876-8.807-9.832-7.031-7.901-16.067-18.142-25.001-28.295-17.866-20.304-35.312-40.248-35.317-40.252-.54-.618-1.026-1.27-1.458-1.949v77.413c-.009 4.252-1.69 8.3-4.686 11.312-3.011 2.999-7.062 4.679-11.311 4.688h-64.001c-4.252-.009-8.303-1.69-11.314-4.688-.62-.623-1.183-1.29-1.687-1.993-.502.702-1.064 1.367-1.682 1.988-3.016 3.009-7.07 4.684-11.316 4.692h-64.74c-4.248-.009-8.3-1.686-11.312-4.686-2.998-3.012-4.679-7.062-4.688-11.313v-8.002h-70.499c-3.447-.008-6.764-1.111-9.5-3.129v11.131c-.009 4.252-1.69 8.3-4.686 11.309-3.014 3.005-7.066 4.682-11.313 4.69h-67.024c-1.172-.005-2.731-.03-4.539-.305-2.023-.303-3.991-.884-5.901-1.739-3.181-1.481-4.949-2.876-6.857-4.107l-.06-.036-.057-.042c-1.434-.956-2.479-2.024-2.727-2.279l-.05-.048-.048-.051c-.521-.537-.922-1.014-1.231-1.388-.619-.759-1.14-1.466-1.656-2.186-1.029-1.447-2.153-3.133-3.456-5.153-2.599-4.025-5.906-9.369-9.733-15.674-7.649-12.598-17.346-28.982-26.9-45.272-17.089-29.136-33.719-57.958-37.024-63.69l-.738 126.06c-.066 8.758-7.131 15.83-15.919 15.907h-.046c-.039 0-.098 0-.176.002-.158 0-.39.003-.693.003-.605.004-1.495.009-2.626.016-2.264.014-5.5.034-9.392.058-7.786.046-18.203.11-28.732.172-21.072.124-42.539.25-44.413.25h-.062c-7.495-.009-13.52-2.477-17.547-5.036-.919-.583-1.746-1.169-2.483-1.738l-71.499-85.26-9.736-11.761c-2.46-2.971-3.681-6.617-3.676-10.199-.004-2.942.816-5.892 2.413-8.46v-.12l.043.052c.884-1.404 2.001-2.693 3.345-3.802 2.968-2.461 6.614-3.681 10.197-3.676 4.58-.008 9.176 1.985 12.332 5.8l76.291 92.168c.047.004.149.009.384.034 1.571 0 23.194-.127 44.216-.25 9.292-.057 18.491-.111 25.875-.156l1.409-240.19c.06-8.802 7.199-15.898 15.999-15.907h120.5c4.25.011 8.302 1.686 11.311 4.686 3 3.014 4.679 7.064 4.688 11.316v121c-.009 4.252-1.688 8.302-4.688 11.316-3.011 2.998-7.059 4.674-11.311 4.686h-64.264c1.931 3.33 4.006 6.904 6.187 10.653 11.483 19.749 25.882 44.374 37.475 63.749 7.692 12.861 14.277 23.591 17.522 28.407.042.063.085.127.127.189 5.819-.002 22.178-.004 37.027-.004 4.185 0 8.25 0 11.926.001v-165.95c.009-4.252 1.688-8.302 4.688-11.312 3.009-3 7.06-4.679 11.314-4.688h112.5c4.252.009 8.302 1.69 11.311 4.686 3 3.011 4.679 7.062 4.688 11.313v24.001c-.009 4.252-1.688 8.302-4.688 11.312-3.009 2.998-7.059 4.679-11.311 4.688h-71.501v21.499h70.999c4.252.009 8.302 1.688 11.313 4.688 3 3.009 4.679 7.06 4.688 11.313l.002 23.502c-.012 4.249-1.693 8.3-4.686 11.307-3.016 3.007-7.071 4.681-11.318 4.689h-70.5v25.003h70.499c4.252.01 8.302 1.688 11.316 4.688 2.995 3.009 4.679 7.06 4.688 11.313v8h32.496v-200h-78.496c-4.25-.012-8.3-1.686-11.316-4.686-2.998-3.014-4.679-7.062-4.688-11.314v-25.505c.009-4.254 1.69-8.305 4.688-11.313 3.013-3 7.062-4.679 11.316-4.688h216.5c4.253.009 8.303 1.688 11.314 4.686 2.999 3.014 4.676 7.066 4.686 11.316v25.499c-.01 4.248-1.684 8.3-4.686 11.314-3.014 3-7.062 4.676-11.314 4.688h-80.002v200h32.001v-164.49c.011-4.252 1.688-8.302 4.688-11.316 3.014-3 7.064-4.676 11.316-4.686l109-.002c4.25.011 8.3 1.688 11.313 4.688 3 3.016 4.675 7.066 4.686 11.316v94.497c-.011 4.253-1.69 8.303-4.686 11.312-3.014 3-7.063 4.679-11.313 4.688h-44.201c2.55 2.903 5.198 5.919 7.887 8.977 16.256 18.489 34.173 38.773 39.686 44.723.298.322.57.611.773.825.069.05.116.081.142.097l.01.009c0-.002 0 0 .053.017.066.022.218.066.461.128.448.094 2.034.239 4.312.228.063 0 .237-.005.499-.001 3.367-.002 28.007-.004 53.264-.004 15.365 0 30.956 0 42.117.001v-3.999h-40c-4.254-.009-8.302-1.688-11.313-4.686-2.998-3.011-4.679-7.062-4.688-11.313v-146.52c.01-4.254 1.689-8.305 4.686-11.314 3.014-3.002 7.063-4.679 11.315-4.688h145c4.252.009 8.302 1.686 11.312 4.686 2.999 3.012 4.679 7.062 4.689 11.316v146.5c-.011 4.252-1.69 8.303-4.689 11.316-3.012 2.995-7.06 4.674-11.312 4.683h-42.003v4h90.503v-241c.01-4.25 1.686-8.3 4.686-11.316 3.016-3 7.065-4.674 11.315-4.684l122.5-.002c4.247.011 8.3 1.686 11.311 4.686 3.005 3.016 4.679 7.066 4.686 11.316v120.5c-.01 4.245-1.684 8.3-4.686 11.311-3.014 2.998-7.062 4.676-11.313 4.686h-76.504v103.5h125.5v-184c.01-4.252 1.688-8.302 4.686-11.314 3.012-2.998 7.062-4.679 11.316-4.688h25.499c4.252.009 8.302 1.69 11.311 4.688 3.003 3.014 4.679 7.064 4.688 11.314v184h32.5v-164c.01-4.252 1.688-8.3 4.688-11.314 3.011-3 7.063-4.676 11.313-4.686h111c4.247.012 8.298 1.686 11.312 4.686 3.004 3.014 4.676 7.066 4.686 11.314v23.001c-.012 4.248-1.684 8.3-4.688 11.316-3.014 2.995-7.06 4.672-11.312 4.683h-69.503v22.001h71.503c4.25.009 8.3 1.683 11.318 4.688 2.995 3.013 4.669 7.062 4.681 11.311v22.999c-.01 4.25-1.688 8.3-4.69 11.316-3.009 2.995-7.057 4.674-11.309 4.683h-69.504v25.001h68.502c4.249.01 8.302 1.687 11.315 4.686 2.998 3.014 4.674 7.064 4.686 11.316v6.997h69.004c3.791.003 7.572.388 11.295 1.486 3.818 1.119 7.257 2.949 10.165 5.209 5.417 4.313 8.274 8.82 11.251 12.596.964 1.264 4.275 5.428 8.69 10.935 4.444 5.544 10.119 12.596 16.212 20.153 12.194 15.118 26.07 32.275 35.219 43.58 6.055 7.481 10.016 12.368 10.105 12.479v-.005c0-.004-.01-.009 0-.002 2.39 2.947 3.568 6.539 3.566 10.063.01 4.64-2.042 9.282-5.929 12.44-2.944 2.385-6.527 3.566-10.046 3.565h-.3zm-134.7-111.5h44.188c2.379.002 4.048.24 5.388.64l.128.039.115.039c.392.14 1.282.426 2.227 1.041.911.601 1.443 1.128 2.122 1.772l.066.064c1.75 1.779 3.44 4.117 5.979 7.438 1.721 2.248 6.903 8.729 13.835 17.357 20.756 25.817 56.754 70.255 56.754 70.255l-4.273 3.464 4.273-3.464c.997 1.229 2.412 1.847 3.892 1.854 1.119-.005 2.202-.355 3.135-1.11 1.234-1.004 1.852-2.424 1.858-3.896-.01-1.121-.355-2.199-1.163-3.204-.031-.036-.077-.093-.135-.167-.124-.151-.303-.374-.539-.663-.471-.582-1.161-1.434-2.042-2.522-1.764-2.174-4.284-5.289-7.334-9.06-9.151-11.307-23.031-28.466-35.229-43.594-6.102-7.563-11.779-14.621-16.233-20.178-4.452-5.553-7.701-9.635-8.814-11.094-3.364-4.332-5.48-7.607-9.35-10.674-1.76-1.378-4.069-2.607-6.456-3.296-2.466-.729-5.146-1.041-8.202-1.043-3.485 0-52.541 0-74.501.002h-5.502v-17.999c.01-1.284-.553-2.64-1.463-3.536-.899-.913-2.257-1.476-3.536-1.466h-79.501v-47h80.503c1.277.009 2.635-.553 3.534-1.463.91-.899 1.475-2.257 1.466-3.537v-22.999c.01-1.279-.556-2.642-1.461-3.536-.899-.91-2.26-1.473-3.539-1.463h-82.503v-44.002h80.503c1.275.011 2.64-.553 3.536-1.463.908-.895 1.471-2.252 1.461-3.534v-23.001c.01-1.28-.553-2.64-1.463-3.537-.895-.908-2.255-1.473-3.534-1.461h-111c-1.284-.009-2.638.55-3.536 1.461-.911.899-1.475 2.259-1.466 3.537v175h-54.502v-195c.01-1.282-.551-2.638-1.463-3.537-.897-.911-2.26-1.475-3.534-1.463h-25.499c-1.28-.011-2.638.551-3.539 1.466-.908.894-1.473 2.254-1.463 3.534v195h-147.5v-125.51h87.503c1.274.012 2.637-.553 3.538-1.468.906-.892 1.468-2.25 1.461-3.529v-120.5c.01-1.282-.553-2.64-1.463-3.539-.897-.908-2.255-1.47-3.534-1.461h-122.5c-1.282-.009-2.642.553-3.539 1.461-.908.899-1.472 2.259-1.463 3.539v252h-112.5v-25.999h53.005c1.277.009 2.638-.553 3.534-1.463.913-.899 1.475-2.26 1.465-3.537v-146.5c.01-1.282-.552-2.635-1.468-3.539-.894-.911-2.254-1.472-3.531-1.463h-145c-1.279-.009-2.638.553-3.536 1.466-.913.901-1.475 2.254-1.464 3.537v146.5c-.011 1.277.553 2.638 1.466 3.537.895.908 2.257 1.472 3.534 1.463h51v26.001h-5.5c-11.116-.002-29.523-.002-47.617-.002-25.59 0-50.557 0-53.38.002h-.066l-.063-.002h-.254c-2.855-.014-4.896-.081-6.956-.546l-.051-.014-.039-.01c-1.325-.254-3.585-1.223-5.024-2.486l-.278-.22-.254-.262c-.243-.252-.693-.723-1.223-1.298-5.747-6.204-23.567-26.384-39.869-44.925-5.663-6.442-11.151-12.694-15.903-18.113l-8.002-9.126h68.48c1.277.01 2.636-.555 3.532-1.465.913-.899 1.475-2.257 1.466-3.535v-94.497c.01-1.282-.553-2.642-1.464-3.539-.896-.911-2.257-1.473-3.534-1.463h-108.92c-1.28-.009-2.64.553-3.537 1.466-.913.896-1.475 2.257-1.466 3.536v175.5h-54v-222.03h91.002c1.277.011 2.638-.553 3.537-1.466.908-.894 1.473-2.254 1.461-3.534v-25.505c.012-1.284-.551-2.638-1.464-3.537-.896-.913-2.257-1.475-3.534-1.465h-216.51c-1.278-.009-2.64.553-3.539 1.465-.913.901-1.472 2.254-1.463 3.537v25.499c-.011 1.278.553 2.638 1.463 3.534.897.911 2.257 1.475 3.539 1.463h89.495v222h-54.497v-18.997c.009-1.282-.55-2.635-1.465-3.536-.899-.911-2.259-1.475-3.537-1.466h-81.5v-47.002l81.5.002c1.282.009 2.637-.553 3.537-1.463.915-.904 1.475-2.26 1.465-3.534v-23.502c.009-1.279-.553-2.637-1.465-3.536-.899-.91-2.259-1.475-3.537-1.466h-82v-43.497h82.503c1.277.009 2.635-.553 3.536-1.468.908-.895 1.473-2.255 1.463-3.532v-24.001c.009-1.277-.555-2.638-1.465-3.534-.899-.913-2.257-1.475-3.534-1.466h-112.51c-1.28-.009-2.635.553-3.539 1.468-.911.895-1.472 2.255-1.463 3.532v177l-5.504-.004h-17.421c-17.526 0-37.175 0-39.074.002-.016 0-.138.002-.365-.009-2.16112-.021-4.24358-1.55137-5.571-3.207-.342-.47-.796-1.116-1.287-1.855-3.521-5.235-10.07-15.923-17.82-28.879-11.637-19.451-26.049-44.097-37.544-63.866-4.124-7.089-7.871-13.554-10.983-18.927l-4.777-8.257h83.347c1.277.012 2.64-.555 3.534-1.463.913-.899 1.475-2.259 1.465-3.537v-120.98c.009-1.277-.553-2.64-1.468-3.539-.895-.908-2.25-1.47-3.532-1.461h-120.5c-2.734-.009-4.993 2.236-5 4.97l-1.47 251.06-5.436.031c-7.97.049-19.566.117-31.313.188-21.049.124-42.587.25-44.323.25-2.704.044-5.151-1.007-6.252-1.731l-.037-.023-.051-.029c-.745-.471-1.222-.881-1.555-1.19l-.25-.234-76.962-92.979c-1.002-1.207-2.399-1.806-3.857-1.813-1.135.003-2.234.365-3.188 1.151-1.202.996-1.8 2.39-1.81 3.854.004 1.112.353 2.19 1.103 3.127l76.378 92.274.538.646c.399.475 1.697 1.986 4.275 3.623 2.562 1.636 6.64 3.331 11.648 3.323h.062c3.578 0 85.975-.499 86.028-.499 2.708-.003 4.97-2.264 4.97-4.973l1.47-251.03h110.54v111l-86.998.002c-1.792 0-3.434.947-4.33 2.5-.45.773-.672 1.63-.672 2.498 0 .835.207 1.664.626 2.424.014.022.018.03.023.037.007.011.009.016.011.023.007.009.012.018.016.027.012.019.025.042.043.073.037.064.09.158.161.28.142.243.351.605.622 1.076.543.945 1.342 2.328 2.358 4.087 2.034 3.523 4.944 8.555 8.449 14.605 7.011 12.098 16.405 28.262 25.941 44.522 9.539 16.264 19.217 32.618 26.813 45.126 3.8 6.26 7.073 11.546 9.573 15.419 1.255 1.943 2.3 3.512 3.167 4.725.458.641.814 1.122 1.188 1.578.236.281.382.457.615.701.515.5.362.406 1.183.996v.001c2.381 1.56 3.261 2.288 5.349 3.263.764.357 2.041.734 2.922.851 1.053.161 1.906.182 2.942.187h67.001c1.282.009 2.633-.553 3.532-1.466.915-.901 1.477-2.257 1.468-3.534v-177.02h102.51v14.001h-82.498c-1.28-.009-2.637.555-3.537 1.465-.91.897-1.472 2.254-1.463 3.537v53.499c-.009 1.28.553 2.641 1.461 3.534.899.911 2.261 1.476 3.539 1.466h81.998v13.499l-81.498.003c-1.282-.01-2.64.55-3.534 1.461-.913.898-1.475 2.254-1.465 3.539v56.999c-.009 1.277.553 2.638 1.468 3.536.892.906 2.25 1.468 3.532 1.459h81.5v19.004c-.011 1.277.553 2.638 1.465 3.536.897.911 2.25 1.473 3.532 1.464h64.503c1.28.009 2.635-.553 3.532-1.466.913-.901 1.475-2.257 1.465-3.534v-232c.009-1.277-.553-2.637-1.465-3.536-.895-.908-2.254-1.473-3.532-1.463h-89.502v-15.5h206.51v15.5h-90.997c-1.28-.009-2.638.553-3.537 1.463-.911.899-1.475 2.256-1.463 3.536v232c-.009 1.277.55 2.633 1.463 3.534.901.913 2.257 1.475 3.537 1.466h64.001c1.277.009 2.635-.556 3.532-1.466.913-.901 1.475-2.257 1.465-3.534v-175.5h99v84.5l-74.499-.003c-1.958 0-3.749 1.154-4.559 2.945-.296.651-.443 1.346-.443 2.053.003 1.178.413 2.333 1.244 3.304l.002-.001.007.009c.007.009.021.023.036.044.034.039.085.094.149.169.133.151.328.377.585.668.512.585 1.264 1.444 2.22 2.539 1.915 2.186 4.653 5.312 7.949 9.072 6.592 7.521 15.417 17.58 24.343 27.724 8.926 10.145 17.953 20.375 24.962 28.251 3.502 3.938 6.5 7.284 8.738 9.754 1.114 1.229 2.041 2.236 2.757 3.002.361.384.667.705.949.997.402.4.354.371.852.809 2.944 2.555 6.559 4.203 9.71 4.88 3.369.748 6.376.773 9.5.784h111.5c1.277.01 2.635-.553 3.534-1.463.912-.899 1.475-2.262 1.465-3.536v-36.001c.01-1.282-.553-2.64-1.463-3.536-.896-.911-2.257-1.473-3.536-1.464h-51.002v-136.48h135v136.5h-53c-1.281-.009-2.637.553-3.536 1.466-.91.896-1.475 2.255-1.466 3.534v36.001c-.012 1.277.553 2.637 1.463 3.536.899.91 2.255 1.473 3.536 1.463h122.5c1.275.01 2.638-.555 3.532-1.463.913-.899 1.475-2.262 1.466-3.536v-252h112.5v110.5h-87.497c-1.28-.009-2.636.553-3.534 1.463-.913.899-1.476 2.261-1.466 3.539v135.5c-.012 1.277.553 2.638 1.466 3.536.896.911 2.249 1.473 3.534 1.464h157.5c1.275.009 2.633-.553 3.532-1.466.912-.899 1.472-2.252 1.463-3.534v-195h15.502v195c-.01 1.277.555 2.64 1.466 3.536.894.911 2.252 1.473 3.534 1.464h64.501c1.275.009 2.633-.553 3.532-1.466.912-.899 1.472-2.252 1.463-3.534v-175h101v13l-80.496.002c-1.282-.009-2.64.553-3.534 1.461-.911.899-1.475 2.261-1.466 3.539v53.999c-.01 1.277.555 2.64 1.463 3.534.897.911 2.257 1.475 3.537 1.466h82.498v12.999h-80.498c-1.282-.009-2.638.553-3.534 1.464-.913.898-1.478 2.259-1.466 3.536v57.002c-.012 1.275.553 2.638 1.463 3.532.899.912 2.257 1.475 3.537 1.465h79.5v18.002c-.012 1.277.553 2.638 1.468 3.539.89.908 2.248 1.47 3.53 1.461h40.8zm-623.8-56h40.003c4.249.009 8.3 1.686 11.313 4.684 2.051 2.06 3.481 4.604 4.186 7.363.705-2.761 2.138-5.304 4.188-7.361 3.012-3 7.064-4.677 11.313-4.686l41.998-.002v-114.49h-113v114.5-.004zm-164.24-31.66c-.01-.014-.017-.019-.019-.022l-.012-.014-.004-.005-.001.001c.01.02.02.03.03.04zm-9.78-11.92c2.908-4.575 7.979-7.409 13.501-7.413h63.497v-62.497h-76.998v69.905l-.02.005zm383.52-48.65c.718-1.299 1.618-2.503 2.687-3.577 3.012-2.998 7.062-4.678 11.314-4.686l76.498-.002v-88.498h-90.5v96.77zm-833.18-.87c2.97-4.296 7.878-6.896 13.157-6.896l75.999-.002v-89h-88.594l-.57 95.9zm356.66-97.217c.042-.06.086-.119.129-.178h-.259c.05.058.09.118.13.178z"
           id="path2" />
        <path
           d="m1507.4 102.43-35.499-35.501c-1.986-1.983-3.097-4.694-3.075-7.5.021-2.805 1.169-5.5 3.182-7.456l35.501-34.5c4.135-4.019 10.746-3.948 14.793.159l34.501 35.002c4.026 4.083 4.026 10.656 0 14.741l-34.501 35c-1.968 2-4.634 3.119-7.439 3.13h-.033c-2.9-.01-5.6-1.11-7.5-3.08zm-13.2-42.82 20.49 20.491 19.809-20.098-19.914-20.203-20.4 19.81z"
           fill="#fee600"
           id="path3" />
        <path
           d="m1514.8 111c-4.241.002-8.318-1.684-11.318-4.686l3.888-3.89-3.888 3.888-35.5-35.49c-2.999-3-4.683-7.06-4.689-11.296 0-.013 0-.051 0-.106 0-.051 0-.118.01-.202.077-4.219 1.813-8.238 4.844-11.187l35.502-34.5c3.094-3.01 7.146-4.531 11.147-4.524 4.115-.006 8.277 1.6 11.396 4.765l34.501 35.002c3.061 3.101 4.607 7.192 4.602 11.232.01 4.04-1.543 8.129-4.602 11.232l-34.498 34.996c-2.99 3.043-7.082 4.761-11.358 4.774h.1zm0-11h.012c1.353-.011 2.595-.533 3.542-1.492l34.501-34.998c.966-.986 1.432-2.226 1.437-3.512 0-1.291-.471-2.528-1.437-3.51l-34.498-35c-.992-1.003-2.252-1.483-3.563-1.49-1.272.004-2.499.46-3.48 1.412l-35.502 34.5c-.952.921-1.507 2.224-1.516 3.552l-.001.141c.026 1.275.556 2.524 1.466 3.428l35.497 35.5c1 .955 2.2 1.469 3.6 1.469zm-24.5-36.502-3.945-3.945 28.301-27.503 27.555 27.952-27.503 27.905-24.5-24.409zm24.4 8.796 12.115-12.292-12.274-12.452-12.468 12.116 12.7 12.628z"
           id="path4" />
        <g
           transform="matrix(.4161329 0 0 .4161329 197.98398 622.57578)"
           id="g23">
          <path
             d="m-138.83-585.28c-52.105 0-102.82-9.882-142.79-27.826-43.625-19.588-73.443-48.033-86.228-82.256-5.699-15.263-45.744-122.46-66.232-177.32.95.221 1.958.418 3.024.589 1.308.207 2.601.383 3.883.559 4.87.667 9.076 1.239 13.009 3.349 5.274 2.826 6.889 7.111 9.291 14.442l6.747 20.367c1.487 4.496 6.756 6.245 18.799 6.245 1.332 0 2.383-.023 2.926-.045 1.045-.031 2.084-.07 3.116-.11 2.449-.094 4.759-.178 7.072-.178 4.008 0 7.268.286 10.256.904 6.964 1.436 12.711 4.121 16.615 7.761 2.172 2.021 2.969 4.231 4.07 7.291.637 1.765 1.358 3.769 2.434 5.86 5.153 9.997 17.165 15.733 32.959 15.733 2.759 0 5.524-.176 8.223-.528 3.709-.481 7.262-1.286 10.699-2.063 4.481-1.018 8.715-1.971 13.048-2.201 1.247-.066 2.499-.103 3.751-.103 5.883 0 11.589.735 16.964 2.171 7.063 1.894 12.702 4.705 16.761 8.371 1.044.925 1.995 1.838 2.929 2.729 3.063 2.922 6.227 5.94 10.835 8.193 6.822 3.337 14.781 5.097 23.015 5.097 8.58 0 17.144-1.87 24.765-5.419l1.476-.685c6.768-3.159 12.614-5.89 19.581-7.115 4.116-.72 8.356-1.089 12.6-1.089 2.99 0 6.017.185 8.992.547 6.888.833 13.225 3.473 19.933 6.261 7.356 3.06 14.964 6.224 23.64 7.052 1.924.181 3.87.275 5.778.275 6.574 0 12.826-1.063 18.578-3.166 7.27-2.647 11.798-6.918 16.592-11.445l1.252-1.178c10.004-9.38 25.204-10.783 33.376-10.783 1.399 0 2.82.04 4.221.122 4.898.275 9.626 1.195 14.636 2.168 5.97 1.159 12.144 2.363 18.575 2.363 4.665 0 8.967-.627 13.159-1.913 9.45-2.886 16.12-8.552 18.776-15.946l.072-.207.056-.211c1.683-6.318 3.822-9.723 7.883-12.557 4.729-3.314 10.808-5.428 18.075-6.299 1.516-.178 3.178-.268 5.078-.268 1.985 0 3.967.094 6.068.19 2.12.099 4.316.2 6.539.2 1.555 0 2.965-.052 4.317-.153l.866-.056c4.218-.284 12.071-.807 14.311-7.39l3.846-11.33c.595-1.753 1.132-3.64 1.649-5.466 1.401-4.933 2.851-10.039 5.531-13.055 4.043-4.557 10.772-6.184 15.704-6.752l1.084-.12c2.212-.249 4.627-.514 7.063-1.03l-67.281 176.81c-13.026 34.234-43.305 62.776-87.556 82.528-40.632 18.14-91.911 28.12-144.39 28.12"
             fill="#991a37"
             id="path5" />
          <path
             d="m168.72-882.32c-.035.031-.066.066-.1.099-.089.089-.164.167-.176.178l.28-.28m.01-.01-.008.012.01-.01zm.01-.01c-.006.002-.009.007-.014.012l.01-.01zm.05-.05c-.041.04-.117.12-.214.214l.045-.042c.06-.06.12-.12.17-.17m.03-.04c-.011.016-.021.023-.033.038.008-.009.019-.019.025-.023v-.02m.01-.01-.019.023c-.026.023-.05.049-.072.073.07-.05.09-.09.09-.09m-613.23-3.14c17.657 47.266 65.462 175.24 71.73 192.03 28.327 75.831 130.91 113.44 233.85 113.44 103.79 0 207.93-38.201 236.77-113.97 6.723-17.662 55.295-145.25 72.859-191.38-.439 1.145-1.13 2.173-1.975 3.048.095-.092.17-.169.17-.169s-.073.077-.272.279c-.203.204-.278.279-.278.279s0-.002.002-.002c-1.119 1.131-1.504 1.521-1.504 1.521-.004 0 1.117-1.131 1.636-1.657-4.444 4.358-11.065 4.839-16.895 5.508-6.856.786-14.251 3.133-18.97 8.446-4.632 5.214-6.014 13.829-8.208 20.29-1.283 3.776-2.566 7.554-3.845 11.328-1.231 3.626-7.176 3.701-10.681 3.964-1.311.099-2.623.138-3.932.138-4.207 0-8.398-.387-12.607-.387-1.89 0-3.786.075-5.689.3-7.171.859-14.448 3.013-20.414 7.188-5.704 3.982-8.171 8.922-9.915 15.463-2.414 6.728-8.881 10.76-15.432 12.759-3.978 1.22-7.842 1.685-11.649 1.685-11.01 0-21.533-3.877-32.918-4.522-1.478-.087-2.987-.131-4.512-.131-13.028 0-27.333 3.208-36.903 12.177-5.142 4.823-9.242 9.054-16.081 11.544-5.361 1.957-11.099 2.854-16.815 2.854-1.767 0-3.537-.089-5.288-.253-15.479-1.474-27.929-11.415-43.44-13.301-3.189-.385-6.4-.58-9.613-.58-4.522 0-9.042.385-13.492 1.164-8.183 1.441-14.914 4.755-22.34 8.209-6.904 3.213-14.768 4.94-22.592 4.94-7.207 0-14.382-1.467-20.75-4.581-5.202-2.544-8.377-6.385-12.573-10.117-5.272-4.757-12.09-7.704-18.883-9.523-5.951-1.593-12.132-2.34-18.294-2.34-1.34 0-2.685.035-4.021.103-8.298.437-15.973 3.236-24.14 4.302-2.355.303-4.916.483-7.562.483-10.924 0-23.282-3.06-28.373-12.94-2.721-5.278-2.906-10.211-7.572-14.566-5.212-4.853-12.198-7.608-19.09-9.028-3.815-.791-7.552-1.016-11.297-1.016-3.416 0-6.842.185-10.354.298-.512.016-1.505.04-2.763.04-4.706 0-13.121-.34-13.906-2.713-2.087-6.303-4.182-12.616-6.271-18.929-2.558-7.723-4.385-14.602-12.224-18.805-5.911-3.166-12.062-3.433-18.519-4.454-5.29-.84-12.15-2.91-14.21-8.41m-.02-.04c.005.012.007.021.012.033 0 0 0-.02-.01-.03m596.92 19.24-25.55 67.115-38.648 101.5c-12.529 32.923-41.867 60.467-84.84 79.651-39.984 17.852-90.518 27.675-142.29 27.675-51.394 0-101.36-9.723-140.68-27.375-42.34-19.009-71.217-46.452-83.51-79.358-5.423-14.522-41.953-112.32-63.132-169.02 3.759.53 6.84 1.089 9.549 2.539 3.409 1.828 4.523 4.464 6.831 11.504l.476 1.462 3.772 11.375 2.499 7.547c3.237 9.784 16.546 9.784 23.694 9.784 1.409 0 2.519-.028 3.091-.045 1.056-.035 2.106-.073 3.152-.117 2.398-.087 4.662-.174 6.875-.174 3.7 0 6.54.246 9.213.8 6.038 1.241 10.93 3.487 14.146 6.482 1.152 1.075 1.64 2.234 2.732 5.266.69 1.917 1.471 4.081 2.701 6.475 6.065 11.776 19.749 18.528 37.54 18.528 2.982 0 5.971-.195 8.893-.573 3.944-.509 7.616-1.342 11.168-2.147 4.259-.965 8.284-1.873 12.18-2.079 1.16-.066 2.331-.089 3.483-.089 5.43 0 10.689.666 15.629 1.99 6.267 1.673 11.191 4.102 14.702 7.27.921.824 1.816 1.676 2.763 2.572 3.189 3.051 6.806 6.498 12.123 9.096 7.527 3.684 16.268 5.628 25.282 5.628 9.327 0 18.641-2.039 26.941-5.897l1.484-.695c6.436-3.006 11.995-5.602 18.295-6.709 3.818-.669 7.756-1.011 11.703-1.011 2.786 0 5.601.171 8.37.509 6.185.751 12.203 3.257 18.576 5.904 7.71 3.21 15.681 6.526 25.131 7.42 2.084.206 4.192.303 6.265.303 7.18 0 14.025-1.171 20.343-3.473 8.27-3.013 13.403-7.862 18.367-12.543l1.238-1.169c6.363-5.965 17.245-9.389 29.85-9.389 1.305 0 2.626.042 3.927.115 4.552.256 9.112 1.145 13.946 2.084 6.21 1.209 12.633 2.455 19.558 2.455 5.186 0 9.983-.699 14.663-2.133 11.05-3.379 18.908-10.176 22.125-19.145l.145-.404.111-.42c1.366-5.121 2.845-7.557 5.86-9.666 3.967-2.776 9.405-4.642 15.727-5.398 1.312-.155 2.774-.232 4.468-.232 1.868 0 3.792.089 5.829.183 2.182.101 4.437.204 6.777.204 1.685 0 3.224-.054 4.699-.162l.827-.061c4.638-.307 15.503-1.028 18.85-10.877l1.786-5.261 2.058-6.064c.637-1.877 1.191-3.825 1.728-5.714 1.183-4.175 2.527-8.904 4.428-11.044 2.27-2.53 6.55-4.31 12.09-4.99"
             fill="#010101"
             id="path6" />
          <path
             d="m-162.27-1091.1c-9.962 0-18.968 3.825-28.734 4.46-9.52.617-19.023-1.013-28.559-.28-12.162.934-22.5 7.532-34.859 7.532-11.375 0-23.208-.204-33.622 5.211-17.005 8.84-42.183 3.269-56.24 17.805-11.355 11.745-32.774 5.834-45.746 18.109-3.359 3.18-3.875 8.486-8.141 9.951-4.792 1.656-9.791 2.674-14.6 4.29-9.432 3.173-19.496 8.64-23.162 18.546-2.353 6.351.823 7.192-5.599 9.832-4.434 1.826-8.757 3.974-12.563 6.926-6.973 5.409-8.834 12.847-9.842 21.696-.077.661.094 11.999.106 11.987-3.357 2.725-6.313 6.008-8.457 9.781-5.075 8.948-4.088 18.476-.323 27.776 4.086 10.084 7.542 13.895 7.953 24.277-.438 4.975 1.962 10.15 3.776 14.599 7.727 18.976 12.127 33.462 35.171 33.951 4.657.099 6.848 18.392 8.581 22.998 4.275 11.372 14.517 19.196 26.056 22.285 15.607 4.187 40.228-5.06 47.201 13.151 7.907 20.647 32.447 28.283 52.705 26.629 16.365-1.34 40.408-11.703 53.774 3.492 15.452 17.561 41.7 21.994 63.565 16.237 20.045-5.273 34.754-17.441 56.421-9.101 23.918 9.211 46.034 17.343 70.707 3.921 17.362-9.446 23.795-22.599 46.377-18.781 19.917 3.386 38.953 7.594 57.364-3.966 13.434-8.425 13.795-27.877 29.879-29.778 14.16-1.671 27.921 1.687 41.347-5.308 16.23-8.446 20.006-26.8 23.614-43.225 14.287-2.121 26.659-5.998 31.885-21.255 3.269-7.216 6.613-15 7.681-22.921.476-3.156.333-6.381-.367-9.49 2.35-3.046 4.711-5.759 6.381-9.277 8.055-16.981 6.187-36.799-10.222-47.695 4.34-15.55-.535-26.545-14.704-34.755-7.161-4.148-11.1-3.469-13.246-11.289-2.021-7.247-5.34-12.931-11.706-16.665-8.205-4.811-17.501-5.707-26.13-9.272-3.545-9.23-12.567-14.695-21.548-17.657-7.431-2.45-15.186-2.774-22.69-4.777-7.714-2.069-12.072-9.266-19.985-12.143-8.574-3.116-17.676-3.4-26.647-4.344-9.66-1.016-16.372-6.879-25.514-9.249-9.656-2.538-19.141-1.883-28.928-2.475-9.838-.59-18.166-5.734-27.864-6.973-7.696-.983-15.402-.33-23.112-.022-10.538.414-20.038-2.909-30.372-4.197-9.741-1.213-19.262.61-28.933 1.559-9.59 1-18.55-2.1-28.12-2.1"
             fill="#010101"
             id="path7" />
          <path
             d="m-192.32-750.3c-12.885 0-26.497-4.264-35.357-14.538-6.937-8.045-17.443-11.429-27.48-12.489-14.401-1.521-27.387 4.71-41.594 4.71-12.587 0-27.231-4.288-33.935-16.477-2.551-4.67-2.534-10.178-6.466-13.984-5.155-5.05-12.601-7.327-19.449-8.181-13.501-1.673-26.768 2.607-39.278-5.325-4.993-3.161-8.803-8.148-10.083-14.226-.857-3.175-6.136-21.424-6.872-25.298-1.083-5.707-18.447-1.814-24.281-5.144-5.297-3.023-7.952-11.07-9.649-14.829-1.698-3.757-6.909-15.456-7.246-19.128.868-1.744 19.927-5.684 19.927-5.684s-3.331-.936-9.156-2.943c-5.827-2.004-12.634-7.824-14.334-11.093-1.703-3.274-9.759-17.335-7.264-24.467 3.689-4.614 22.306-4.13 26.413-7.568-.956-1.164-11.341-8.88-12.511-10.478-4.007-5.47-3.078-17.565 1.069-22.505 4.364-5.2 23.397-2.583 30.111-6.532 2.597-1.53-9.323-.801-6.984-2.781 3.016-2.55 1.818-11.06 2.274-14.706 1.87-14.972 27.015-10.24 36.605-14.042 2.861-1.137 5.581 1.371 7.981-.649 1.457-1.234 1.32-5.581 2.598-7.594 3.345-5.281 16.202-12.162 21.766-13.86 6.222-1.897 6.202 1.971 12.403-.027 2.97-.957 6.172-2.107 8.683-4.095 2.077-1.612 3.071-4.759 5.481-6.477 5.965-4.254 12.443-7.27 19.216-8.69 6.899-1.446 14.103-1.254 21.527-1.251 5.02 0 7.895-5.705 12.732-7.437 6.948-3.39 11.65-4.485 18.47-5.285 6.126.338 14.693 2.211 20.613.509 5.288-1.514 9.701-4.671 15.207-5.748 12.214-2.382 24.331 1.298 36.581-.823 5.359-.929 10.245-3.307 15.668-3.991 6.416-.807 13.142-.618 19.414 1.057 12.702 3.444 24.502-1.559 37.122-1.409 9.41.111 17.584 4.205 26.808 5.088 11.282 1.069 22.281-1.99 33.519.65 5.13 1.209 9.347 4.278 14.374 5.636 6.28 1.684 12.717-.568 19.151-.722 5.602.495 9.389 2.662 16.816 5.969 6.539 2.729 10.537 5.319 16.426 7.331 6.801 2.321 8.115-1.057 15.541-.246 7.882.86 19.854 6.192 25.278 10.903 2.187 1.897 3 4.769 5.426 6.24 2.516 1.534 5.337 2.585 8.123 3.445 4.853 1.489 1.125-2.983 6.104-2.121 7.628 1.545 20.277 8.662 24.696 12.717 2.341 2.144 4.151 5.005 4.505 8.306.311 3 3.024 3.815 5.78 3.275 1.049-.205 2.141-.544 3.755-.149 5.949 1.926 20.525-1.137 26.725 4.265 4.392 3.83 7.936 3.924 8.824 10.427.401 2.942 1.474 16.976 3.742 16.711 5.852 2.628 16.891.327 22.193 6.686 2.323 2.79 4.19 5.247 2.932 10.009-1.261 4.762-5.559 19.453-4.405 20.34 5.54 4.231 14.306 2.875 16.757 8.997 2.627 6.576-.982 21.346-4.857 25.692-1.156 1.291-7.268 9.178-7.456 10.694 2.875 3.945 2.74 4.877 2.608 7.683-.135 2.809-2.175 10.497-7.061 21.395-4.549 14.747-21.909 11.71-32.966 15.55-1.069 5.881-6.274 30.942-10.833 36.825-9.047 11.666-24.17 10.772-36.975 10.356-6.495-.209-13.17.739-19.194 3.361-2.783 1.209-5.467 2.809-7.682 4.961-2.949 2.858-3.442 5.914-4.601 9.718-4.106 13.438-17.961 19.544-30.333 20.705-10.355.962-19.423-2.164-29.462-3.9-9.757-1.69-20.109-1.096-29.51 2.22-4.438 1.565-8.81 3.806-12.298 7.125-3.275 3.124-5.869 6.604-9.642 9.18-8.246 5.642-18.268 8.049-28.034 8.049-9.987 0-20.048-2.527-28.776-7.66-8.593-5.027-18.766-6.944-28.515-6.944-9.748.012-19.944 1.906-28.517 6.977-8.74 5.12-18.84 7.67-28.86 7.67"
             fill="#991a37"
             id="path8" />
          <path
             d="m-193.61-782.54c-13.185 0-27.114-3.875-36.178-13.198-7.102-7.301-17.851-10.375-28.118-11.337-14.74-1.378-28.027 4.278-42.568 4.278-12.873 0-27.859-3.896-34.721-14.961-2.612-4.238-2.591-9.242-6.618-12.696-5.271-4.586-12.892-6.651-19.898-7.42-13.815-1.528-27.389 2.363-40.186-4.844-5.114-2.868-9.154-7.369-10.322-12.912-.553-2.68-.42-5.43.278-8.07.701-2.607 2.193-4.97.974-7.664-2.212-4.895-9.209-6.935-14.307-7.735-6.532-1.033-12.85-1.138-18.82-4.165-5.419-2.746-9.606-7.542-9.876-13.459-.302-6.665 3.966-11.084 8.198-15.864 4.288-4.837 1.447-8.183-4.366-9.601-6.165-1.502-12.453-4.832-14.38-10.884-2.021-6.31 1.808-12.363 6.732-16.448 4.248-3.518 10.821-5.555 13.597-10.431.947-1.666-4.676-4.146-5.874-5.596-4.1-4.968-2.84-11.363 1.402-15.843 4.464-4.722 10.646-7.061 16.698-9.459 2.817-1.11 5.59-2.468 7.984-4.268 3.082-2.317.835-2.701.216-5.989-2.718-14.434 20.035-17.492 29.847-20.945 2.929-1.028 5.929-2.276 8.385-4.112 1.495-1.118 1.358-5.066 2.662-6.894 3.423-4.796 9.902-7.216 15.597-8.76 6.362-1.718 13.022-2.029 19.362-3.845 3.044-.872 6.32-1.914 8.888-3.718 2.125-1.466 3.141-4.322 5.608-5.881 12.319-7.794 28.236-4.429 41.689-9.023 4.798-1.638 8.076-5.178 13.025-6.752 6.719-2.129 14.104-2.804 21.163-2.47 6.267.309 12.778-.319 18.836-1.866 5.408-1.374 9.926-4.24 15.558-5.218 12.499-2.164 24.897 1.18 37.431-.745 5.481-.844 10.478-3.004 16.034-3.627 6.563-.729 13.447-.56 19.859.962 12.999 3.127 25.074-1.413 37.983-1.279 9.632.1 17.993 3.816 27.432 4.615 11.546.972 22.802-1.801 34.301.596 5.246 1.094 9.563 3.88 14.712 5.112 6.42 1.529 12.928 1.811 19.511 1.67 5.923-.125 11.96.453 17.662 1.982 6.247 1.653 10.407 5.941 16.432 7.77 13.406 4.059 30.233.78 41.768 9.673 2.239 1.72 3.07 4.329 5.554 5.66 2.576 1.394 5.459 2.349 8.309 3.132 4.968 1.352 10.104 1.741 15.127 2.821 5.753 1.238 11.87 3.117 16.39 6.799 2.396 1.948 4.251 4.542 4.61 7.542.316 2.72 3.342 3.777 5.909 4.913 8.204 3.612 17.325 4.239 25.104 8.89 4.942 2.96 9.406 7.842 8.143 13.697-.513 2.364-2.481 3.2-.358 4.968 2.56 2.132 5.711 3.664 8.86 4.911 9.348 3.702 26.802 11.919 19.042 24.108-1.436 2.255-3.641 3.98-6.11 5.2-1.755.868.292 2.473 1.27 3.461 4.391 4.424 10.747 6.47 14.991 11.14 4.086 4.454 6.012 10.631 2.93 16.064-3.465 6.113-9.863 6.768-15.93 9.371-6.617 2.844-2.177 7.477 1.126 10.908 4.541 4.715 7.547 11.154 5.341 17.488-4.654 13.395-20.87 11.187-32.182 14.674-5.315 1.638-11.682 5.545-9.094 11.567 2.722 6.325 1.957 13.412-2.707 18.755-9.252 10.589-24.732 9.774-37.834 9.399-6.646-.185-13.479.671-19.642 3.051-2.844 1.101-5.59 2.551-7.858 4.501-3.016 2.598-3.518 5.372-4.708 8.826-4.2 12.198-18.379 17.746-31.041 18.795-10.594.873-19.871-1.964-30.138-3.544-9.991-1.528-20.581-.997-30.204 2.016-4.54 1.422-9.014 3.459-12.582 6.47-3.355 2.837-6.007 5.996-9.866 8.336-8.44 5.121-18.697 7.308-28.684 7.308-10.218 0-20.515-2.297-29.448-6.96-8.791-4.555-19.201-6.299-29.174-6.299-9.978.007-20.411 1.727-29.181 6.341-8.969 4.698-19.302 7.012-29.56 7.012"
             fill="#cb2027"
             id="path9" />
          <path
             d="m-56.921-991.84c0 21.084-37.507 38.177-83.773 38.177-46.267 0-83.777-17.093-83.777-38.177 0-21.086 37.509-38.183 83.777-38.182 46.262 0 83.769 17.1 83.769 38.16"
             fill="#010101"
             id="path10" />
          <path
             d="m-48.939-853.73c-9.344 0-18.654-1.685-26.927-4.874-10.098-3.896-17.5-9.706-21.413-16.805-.432-.779-.778-1.359-1.057-1.828-1.616-2.699-1.889-3.724-2.089-7.833l-.378-7.669-.562-12.076 9.103 7.953c2.591 2.262 5.589 4.278 8.915 5.991 9.913 5.104 21.715 7.794 34.13 7.794 11.717 0 22.989-2.41 32.6-6.982 3.794-1.805 7.228-4.034 10.206-6.63l9.209-8.017-.675 12.189c-.128 2.276-.262 3.25-.381 4.107-.103.756-.195 1.408-.296 3.283-.635 12.398-11.147 19.985-17.355 23.402-9.505 5.24-20.926 8-33.035 8"
             fill="#ffcd05"
             id="path11" />
          <path
             d="m-107.08-916.65 1.125 24.151c.073 1.547.148 3.088.225 4.628l.15 3.048c.229 4.663.628 6.573 2.815 10.234.257.427.575.955.974 1.683 4.498 8.162 12.823 14.773 24.061 19.112 8.864 3.415 18.817 5.219 28.786 5.219 12.976 0 25.258-2.985 35.517-8.634 12.343-6.789 19.452-16.62 20.019-27.668.087-1.631.158-2.157.252-2.821.154-1.119.293-2.229.421-4.532l1.352-24.383-18.417 16.033c-2.626 2.29-5.665 4.262-9.033 5.86-8.922 4.248-19.431 6.489-30.388 6.489-11.598 0-22.586-2.502-31.773-7.223-2.953-1.521-5.606-3.302-7.882-5.29l-18.185-15.91zm11.426 23.67c2.824 2.464 6.13 4.722 9.949 6.688 10.635 5.473 23.248 8.371 36.489 8.371 12.478 0 24.515-2.591 34.814-7.486 4.424-2.103 8.19-4.618 11.377-7.397-.229 4.154-.452 3.241-.675 7.397-.447 8.699-7.545 15.233-14.697 19.168-9.051 4.982-19.81 7.355-30.543 7.355-8.682 0-17.35-1.554-25.074-4.534-7.337-2.828-14.847-7.399-18.751-14.482-2.204-3.982-2.3-3.053-2.513-7.425-.125-2.55-.254-5.11-.376-7.66"
             fill="#1d1d1b"
             id="path12" />
          <path
             d="m-49.225-883.79c-12.202 0-23.822-2.356-33.603-6.813-13.669-6.217-20.822-15.876-19.617-26.514 1.054-9.359 8.526-17.408 21.036-22.663 9.473-3.975 20.551-6.076 32.038-6.076 11.566 0 22.681 2.133 32.163 6.17.846.298 2.011.767 3.186 1.453 11.642 5.792 18.038 14.139 18.014 23.531-.009 10.136-7.72 19.189-21.157 24.829-9.495 3.98-20.581 6.08-32.065 6.08"
             fill="#ffcd05"
             id="path13" />
          <path
             d="m-49.369-951.01c-12.166 0-23.935 2.241-34.034 6.482-14.308 6.008-22.891 15.543-24.163 26.847-1.451 12.797 7.002 24.676 22.61 31.777 10.441 4.755 22.801 7.273 35.734 7.273 12.162 0 23.939-2.241 34.05-6.482 15.446-6.484 24.31-17.267 24.322-29.586.029-11.405-7.327-21.363-20.725-28.07-1.388-.798-2.739-1.359-3.76-1.725-10.078-4.26-21.837-6.51-34.03-6.51m0 10.31c10.958 0 21.405 2.009 30.31 5.825.835.286 1.768.69 2.576 1.178 6.281 3.095 15.348 9.239 15.324 18.985-.009 7.967-6.569 15.292-17.996 20.091-8.863 3.715-19.259 5.677-30.067 5.677-11.453 0-22.342-2.187-31.469-6.348-11.497-5.229-17.568-12.961-16.628-21.24.833-7.425 7.206-13.998 17.908-18.488 8.863-3.71 19.255-5.67 30.042-5.67"
             fill="#1d1d1b"
             id="path14" />
          <path
             d="m54.508-906.52c-9.344 0-18.653-1.683-26.93-4.877-10.093-3.893-17.496-9.699-21.411-16.798-.432-.777-.777-1.356-1.055-1.823-1.616-2.701-1.888-3.729-2.094-7.831l-.982-19.771 9.139 7.97c2.6 2.267 5.605 4.285 8.927 5.994 9.904 5.097 21.706 7.794 34.128 7.794 11.711 0 22.983-2.415 32.601-6.986 3.783-1.798 7.213-4.029 10.198-6.627l9.189-8.007-.655 12.17c-.124 2.3-.259 3.274-.378 4.13-.104.763-.194 1.41-.297 3.274-.627 12.381-11.137 19.973-17.344 23.399-9.498 5.25-20.919 8.01-33.028 8.01"
             fill="#669a40"
             id="path15" />
          <path
             d="m-3.72-969.47 1.21 24.22c.128 2.544.252 5.083.375 7.634.236 4.675.634 6.58 2.818 10.244.258.425.576.957.974 1.68 4.503 8.164 12.825 14.775 24.065 19.112 8.86 3.415 18.816 5.217 28.785 5.217 12.975 0 25.257-2.983 35.518-8.627 12.347-6.813 19.451-16.636 20.011-27.682.087-1.603.161-2.133.253-2.8.16-1.164.295-2.234.42-4.56l1.312-24.346-18.381 16.015c-2.631 2.29-5.664 4.259-9.022 5.858-8.929 4.243-19.441 6.486-30.389 6.486-11.605 0-22.59-2.502-31.768-7.223-2.955-1.518-5.612-3.3-7.899-5.294l-18.281-15.93zm11.509 23.7c2.822 2.459 6.126 4.719 9.953 6.691 10.628 5.47 23.245 8.364 36.489 8.364 12.479 0 24.513-2.588 34.813-7.484 4.425-2.103 8.184-4.623 11.372-7.399-.225 4.158-.449 3.243-.675 7.399-.441 8.695-7.54 15.228-14.686 19.171-9.054 4.982-19.814 7.348-30.547 7.348-8.683 0-17.351-1.551-25.076-4.529-7.338-2.826-14.851-7.406-18.753-14.479-2.2-3.98-2.295-3.055-2.513-7.425-.129-2.55-.255-5.1-.381-7.65"
             fill="#1d1d1b"
             id="path16" />
          <path
             d="m54.22-936.58c-12.202 0-23.82-2.354-33.604-6.808-13.66-6.214-20.81-15.873-19.618-26.507 1.06-9.371 8.533-17.421 21.043-22.671 9.48-3.978 20.555-6.078 32.032-6.078 11.555 0 22.674 2.131 32.169 6.168.835.293 1.991.764 3.174 1.453 11.646 5.787 18.042 14.139 18.022 23.533-.011 10.133-7.72 19.185-21.151 24.829-9.501 3.99-20.587 6.09-32.069 6.09"
             fill="#669a40"
             id="path17" />
          <path
             d="m54.074-1003.8c-12.154 0-23.92 2.242-34.028 6.479-14.308 6.007-22.891 15.538-24.167 26.848-1.439 12.81 7.011 24.684 22.605 31.781 10.445 4.755 22.805 7.268 35.736 7.268 12.159 0 23.935-2.241 34.051-6.477 15.45-6.491 24.31-17.272 24.322-29.588.023-11.406-7.336-21.372-20.737-28.077-1.392-.794-2.734-1.354-3.741-1.717-10.092-4.21-21.854-6.51-34.038-6.51m0 10.31c10.959 0 21.406 2.008 30.313 5.827.837.284 1.765.69 2.572 1.178 6.279 3.091 15.345 9.238 15.325 18.983-.008 7.963-6.576 15.291-17.994 20.091-8.868 3.713-19.267 5.672-30.07 5.672-11.455 0-22.338-2.182-31.466-6.341-11.498-5.226-17.56-12.968-16.629-21.239.839-7.431 7.206-14 17.91-18.494 8.867-3.72 19.256-5.68 30.043-5.68"
             fill="#1d1d1b"
             id="path18" />
          <path
             d="m-140.26-977.28c-11.866 0-32.135-4.675-32.821-22.194-1.347-34.505-15.855-207.5-19.134-246.39l104.66.402c-5.693 73.585-18.847 242.28-19.889 249.2-.877 5.4-5.19 10.599-11.836 14.258-5.55 3.08-13 4.76-20.98 4.76"
             fill="#fff"
             id="path19" />
          <path
             d="m-199.7-1252.8s18.25 215.18 19.75 253.56c.778 19.895 20.491 28.798 39.688 28.798 9.109 0 17.74-1.981 24.297-5.584 8.509-4.682 14.088-11.675 15.309-19.188 1.257-7.693 20.524-257.13 20.524-257.13l-119.57-.5zm14.97 13.8 89.758.346c-7.569 97.805-18.189 233.04-19.261 241.32-.559 3.189-3.75 6.735-8.34 9.264-4.5 2.469-10.944 3.884-17.68 3.884-1.035 0-25.351-.176-25.95-15.59-1.29-32.67-14.35-189.27-18.53-239.17"
             fill="#010101"
             id="path20" />
          <path
             d="m-2.744-1359.1c0 75.681-61.364 137.04-137.03 137.04-75.692 0-137.05-61.362-137.05-137.04 0-75.68 61.357-137.04 137.05-137.04 75.662 0 137.03 61.4 137.03 137"
             fill="#1d1d1b"
             id="path21" />
          <path
             d="m-49.352-1277.1c-48.802 48.807-127.46 49.283-175.68 1.071-48.221-48.228-47.747-126.89 1.057-175.69 48.805-48.807 127.47-49.281 175.69-1.057 48.212 48.2 47.735 126.9-1.072 175.7"
             fill="#cb2027"
             id="path22" />
          <path
             d="m-65.028-1444.8c19.798 21.892 22.551 47.994 12.677 53.332-9.954 5.528-28.282-5.544-45.289-20.196-16.711-14.83-27.532-32.958-20.455-45.548 6.89-12.5 33.239-9.6 53.072 12.4"
             fill="#fff"
             id="path23" />
        </g>
      </g>
    </g>
  </g>
</svg>
