<?xml version="1.0" encoding="UTF-8" standalone="no"?>
<svg
   height="606"
   viewBox="0 0 3840 606.00003"
   width="3840"
   version="1.1"
   id="svg18"
   sodipodi:docname="satellaview.svg"
   inkscape:version="1.3.2 (091e20e, 2023-11-25)"
   xmlns:inkscape="http://www.inkscape.org/namespaces/inkscape"
   xmlns:sodipodi="http://sodipodi.sourceforge.net/DTD/sodipodi-0.dtd"
   xmlns="http://www.w3.org/2000/svg"
   xmlns:svg="http://www.w3.org/2000/svg">
  <defs
     id="defs18" />
  <sodipodi:namedview
     id="namedview18"
     pagecolor="#ffffff"
     bordercolor="#000000"
     borderopacity="0.25"
     inkscape:showpageshadow="2"
     inkscape:pageopacity="0.0"
     inkscape:pagecheckerboard="0"
     inkscape:deskcolor="#d1d1d1"
     inkscape:zoom="0.21510417"
     inkscape:cx="1917.6755"
     inkscape:cy="302.17918"
     inkscape:window-width="1312"
     inkscape:window-height="449"
     inkscape:window-x="215"
     inkscape:window-y="39"
     inkscape:window-maximized="0"
     inkscape:current-layer="svg18" />
  <g
     id="g20">
    <g
       id="g19">
      <g
         transform="matrix(1.000263 0 0 .99983500747 -.009552 0)"
         id="g18">
        <ellipse
           cx="245.8"
           cy="336.79999"
           rx="183.3"
           ry="311.10001"
           transform="matrix(.7588 -.6514 .6514 .7588 -160.105 241.3762)"
           id="ellipse1" />
        <path
           d="m241.3 3.7h-104.2c-3.5 0-4.2 4.9-.9 5.9 183.9 55.5 298.9 220.2 343.9 337.2 1.2 3.1 5.9 2.3 5.9-1.1v-20.7c0-.3 0-.5-.1-.8-22.7-83.4-118-239.7-243-320-.5-.3-1.1-.5-1.6-.5z"
           id="path1" />
        <path
           d="m351.7 3.7h-44.6c-2.9 0-4.2 3.7-1.9 5.4 83 64.2 149.3 175 174.8 246.4 1.1 3.2 5.9 2.4 5.9-1v-31.1c0-.3 0-.6-.1-.9-17.6-58.7-69.6-160.9-132.1-218-.5-.5-1.2-.8-2-.8z"
           id="path2" />
        <path
           d="m482.9 3.7h-71.1c-2.5 0-3.9 2.8-2.5 4.8 28.1 40.1 54.8 101.5 70.7 146.3 1.1 3.2 5.9 2.4 5.9-1v-147c.1-1.8-1.3-3.1-3-3.1z"
           id="path3" />
        <path
           d="m11.5 602.7h246.3c6.5 0 8.1-9 2.1-11.3-61.8-23.5-148-81.2-213.8-163.4-5.2-6.6-15.5-.2-12 7.4 19.9 43.6 30.2 67.8 30.2 96.4 0 34.7-27.7 53-54.2 62.6-4.5 1.7-3.3 8.3 1.4 8.3z"
           id="path4" />
        <ellipse
           cx="349.39999"
           cy="434.60001"
           fill="#fcda00"
           rx="72.300003"
           ry="53.400002"
           transform="matrix(.9821 -.1885 .1885 .9821 -75.6742 73.6543)"
           id="ellipse4" />
        <ellipse
           cx="180.7"
           cy="403.89999"
           fill="#73b744"
           rx="72.300003"
           ry="53.400002"
           transform="matrix(.9821 -.1885 .1885 .9821 -72.9076 41.2992)"
           id="ellipse5" />
        <path
           d="m122.5 294.7c-12-8.3-53.6-104.8 22-102.9 102.6 2.5 140.2 156 90.3 159.4 0 0-15.9-36.4-60.7-53.2-35.2-13-51.6-3.3-51.6-3.3z"
           fill="#2aa4dd"
           id="path5" />
        <path
           d="m290.9 326.3c-12-8.3-53.6-104.8 22-102.9 102.6 2.5 140.2 156 90.3 159.4 0 0-15.9-36.4-60.7-53.2-35.3-13-51.6-3.3-51.6-3.3z"
           fill="#ed2224"
           id="path6" />
        <path
           d="m712.9 90.7h69.2c25.3 0 26 37.7 0 37.7h-103.7v27.8h134c53.7 0 54.3-90.1-2.5-90.1h-69.8c-27.8 0-27.8-34.6 0-34.6h99.4v-27.8h-127.2c-59.3 0-57.4 87 .6 87zm158.1-87v96.4c0 35.2 25.3 55.6 51.8 55.6h116.1v-151.9h-43.2v124.1h-50.6c-22.2 0-33.4-17.3-33.4-30.9v-93.3zm308.1 95.7h-68.5v55.6h-43.2v-154.4h43.2 68.5c77.2 0 80.2 98.8 0 98.8zm-14.2-71h-54.3v46.9h54.3c34.6-.6 33.9-46.9 0-46.9zm250.7 96.3h-83.3c-21.6 0-30.9-26-28.4-34.6h112.3v-27.7h-112.3c-2.5-9.3 6.2-34.6 27.8-34.6h84v-27.8h-92c-88.3 0-87.7 155 0 155h92v-30.3zm397.6-96.3h74.7v-27.8h-91.4c-37 0-67.3 24.1-67.3 62.4v93.2h43.2v-63h115.5v-30.8h-114.9c.1-24.1 13.7-34 40.2-34zm693.4-27.8c-90.7 0-101.9 155 10.5 155h77.2v-30.9h-77.8c-43.2 0-43.2-96.9 0-96.9h77.8v-27.7zm-235.3 0h-119.2-43.1v155h43.2v-127.8h46.9v127.8h40.1v-127.8h12.3c21.6 0 40.8 9.9 40.8 35.2v92.6h43.2v-100c.7-37.7-22.1-55-64.2-55zm92.7 155h46.9v-155h-46.9zm441.5-77.2c0 42.6-25.3 80.9-99.4 80.9s-99.4-38.3-99.4-80.9c0-43.8 26.6-77.8 99.4-77.8s99.4 34 99.4 77.8zm-46.4-.6c0-40.8-15.4-53.1-53.1-53.1s-53 11.7-53 53.1c0 38.9 14.8 53.1 53.1 53.1 38.2 0 53-14.2 53-53.1zm-678.5-5.5v33.4 50h-121c-69.8 0-71.6-95.7-.6-95.7h75.3c0-9.9-9.9-31.5-36.4-31.5h-82.1v-27.8h96.9c37 .5 67.9 20.3 67.9 71.6zm-46.3 14.8h-62.4c-25.3 0-24.7 37.7 0 37.7h62.4v-19.2zm-547.1 68.5h-43.8v-155h43.8 69.2c78.4 0 85.8 78.4 22.8 93.9l49.4 61.7h-51.2l-39.5-58.6h-50zm0-87.1h63c27.8 0 28.4-40.8 0-40.8h-63zm1505.9-67.9h-119.2-43.2v155h43.2v-127.8h46.9v127.8h40.1v-127.8h12.3c21.6 0 40.8 9.9 40.8 35.2v92.6h43.2v-100c.8-37.7-21.5-55-64.1-55z"
           id="path7" />
        <path
           d="m1298.2 434v-11.1c0-5.7-4.6-10.3-10.3-10.3h-21.3-160.5v-64h197.9c47.2 0 85.6 38.3 85.6 85.6v83c0 47.2-38.3 85.6-85.6 85.6h-128.7c-27.5 0-48.9-5.5-64.1-16.3-15.2-10.9-22.8-26-22.8-45.3v-20.9c0-17.8 11.9-33.3 29.1-37.8zm-131.9 95.8v11.2h116.2c8.7 0 15.8-7 15.8-15.8v-28.9z"
           id="path8" />
        <path
           d="m2355.3 434v-11.1c0-5.7-4.6-10.3-10.3-10.3h-21.2-160.5v-64h197.9c47.2 0 85.6 38.3 85.6 85.6v83c0 47.2-38.3 85.6-85.6 85.6h-128.7c-27.5 0-48.9-5.5-64.1-16.3-15.2-10.9-22.8-26-22.8-45.3v-20.9c0-17.8 11.9-33.3 29.1-37.8zm-131.9 95.8v11.2h116.2c8.7 0 15.8-7 15.8-15.8v-28.9z"
           id="path9" />
        <path
           d="m1679.1 517.2v11.1c0 5.7 4.6 10.3 10.3 10.3h21.2 160.5v64h-197.9c-47.2 0-85.6-38.3-85.6-85.6v-83c0-47.2 38.3-85.6 85.6-85.6h128.7c27.5 0 48.9 5.5 64.1 16.3 15.2 10.9 22.8 26 22.8 45.3v21c0 17.8-11.9 33.3-29.1 37.8zm131.9-96v-11.1h-116.2c-8.7 0-15.8 7-15.8 15.8v28.9z"
           id="path10" />
        <path
           d="m3040.5 517.2v11.1c0 5.7 4.6 10.3 10.3 10.3h21.2 160.5v64h-197.9c-47.2 0-85.6-38.3-85.6-85.6v-83c0-47.2 38.3-85.6 85.6-85.6h128.7c27.5 0 48.9 5.5 64.1 16.3 15.2 10.9 22.8 26 22.8 45.3v21c0 17.8-11.9 33.3-29.1 37.8zm131.9-96v-11.1h-116.2c-8.7 0-15.8 7-15.8 15.8v28.9z"
           id="path11" />
        <path
           d="m1914.6 243.5h91.3v359.1h-91.3z"
           id="path12" />
        <path
           d="m2029.5 243.5h91.3v359.1h-91.3z"
           id="path13" />
        <path
           d="m2537.9 348.5 88.4 172.3 90.5-172.3h93.5l-121.6 230.2c-4.4 8.5-12.1 15.2-23.2 20.1s-23.7 7.3-37.7 7.3-26.7-2.5-38.1-7.3c-11.3-4.9-19.2-11.6-23.5-20.1l-121.7-230.2z"
           id="path14" />
        <path
           d="m3745.5 348.5-88.4 172.3-65.8-172.3h-93.5l-65.8 172.2-88.4-172.3h-93.5l121.7 230.2c4.4 8.5 12.2 15.2 23.5 20.1 11.4 4.9 24 7.3 38.1 7.3 14 0 26.5-2.5 37.7-7.3 11.1-4.9 18.8-11.6 23.2-20.1l50.2-119.2 50.2 119.2c4.4 8.5 12.1 15.2 23.2 20.1s23.6 7.3 37.7 7.3c14 0 26.8-2.5 38.1-7.3 11.3-4.9 19.2-11.6 23.5-20.1l121.8-230.1z"
           id="path15" />
        <path
           d="m2834.1 348.5h91.3v254h-91.3z"
           id="path16" />
        <path
           d="m1577.2 412.6v-64h-47.8v-95.1h-91.2v95.1h-34.7v64h34.7v156.4c0 18.6 15 33.6 33.6 33.6h91.9v-64h-34.3v-126z"
           id="path17" />
        <path
           d="m967.7 384.5h-178.8c-15.9 0-28.9-13-28.9-28.9v-15c0-15.9 13-28.9 28.9-28.9h248.5v-72.3h-259.8c-60.2.1-109 48.9-109 109.1s48.8 109.1 109.1 109.1h178.8c15.9 0 28.9 13 28.9 28.9v15c0 15.9-13 28.9-28.9 28.9h-282.1v72.3h293.3c60.2 0 109.1-48.8 109.1-109.1s-48.9-109.1-109.1-109.1z"
           id="path18" />
        <circle
           cx="2880"
           cy="281.60001"
           r="45.400002"
           id="circle18" />
      </g>
    </g>
  </g>
</svg>
