<svg enable-background="new 0 0 3839 948.2" viewBox="0 0 3839 948.2" xmlns="http://www.w3.org/2000/svg"><path d="m2225.6 921.5v-17c39.4-2.4 50.4-20.6 80.4-50.9l394-389.2-372-380.7c-9.5-9.7-23.7-27.9-63-27.9v-17h371.9v17c-20.5 0-33.2 4.9-33.2 17 0 4.9 7.9 14.6 23.7 30.4l214.5 220.6 223.9-222c12.6-13.4 22.1-23.1 22.1-30.4 0-9.7-12.6-15.8-26.8-15.8v-17h349.8v17c-52 1.2-72.5 21.9-102.4 50.9l-343.6 340.8 397.2 406.2c31.6 32.8 42.5 49.7 85.1 50.9v17h-368.9v-17c23.7 0 30-3.6 30-15.8 0-10.9-26.8-35.1-56.7-65.5l-230.2-234.1-279 276.6c-7.9 8.5-14.2 12.1-14.2 23.1 0 9.7 12.6 15.8 33.1 15.8v17z"/><path d="m411.4 357.7h22.1c6.3 20.6 31.6 30.4 119.8 30.4 216 0 274.3-54.5 274.3-106.7 0-55.8-75.7-111.5-241.1-111.5-212.8 0-359.4 89.8-359.4 129.7 0 8.5 3.2 15.8 6.3 21.9l-18.9 12.1-167.2-168.7 22.1-9.7c6.3 3.6 14.2 7.3 23.7 7.3 45.7 0 141.9-135.8 507.5-135.8 256.9 0 450.8 106.7 450.8 246.1 0 82.5-58.3 146.7-159.2 169.7v2.4c132.4 36.3 223.9 105.4 223.9 220.7 0 156.5-198.6 268-504.3 268-411.4 0-501.3-109.1-554.9-109.1-12.6 0-22.1 4.9-31.6 10.9l-25.3-7.2 126.1-208.6 23.7 10.9c0 3.6-1.6 8.5-1.6 14.6 0 47.3 174.9 145.5 436.6 145.5 198.6 0 307.3-53.3 307.3-129.7 0-66.7-82-139.4-310.5-139.4-118.2 0-143.4 13.4-148.2 35.1h-22.1v-198.9z"/><path d="m1165.5 206.1 22.1-13.4c3.2 3.6 9.5 6.1 18.9 6.1 44.1 0 162.4-172.1 498.1-172.1 195.4 0 439.7 86.1 439.7 254.6 0 322.5-602.1 288.6-762.9 492.3h759.8c34.6 0 47.3-9.7 47.3-29.1h22.1v203.7h-22.1c0-17-12.6-26.7-47.3-26.7h-1012c0-442.5 791.3-423.2 791.3-631.8 0-78.8-118.2-120-225.4-120-181.2 0-335.7 116.4-335.7 169.7 0 10.9 6.3 18.2 12.6 24.3l-20.5 14.6z"/><path d="m2250.1 894.9v-17c39.4-2.4 50.4-20.6 80.4-50.9l394-389.2-371.9-380.8c-9.5-9.7-23.7-27.9-63-27.9v-17h371.9v17c-20.5 0-33.2 4.9-33.2 17 0 4.9 7.9 14.6 23.7 30.4l214.4 220.7 223.9-221.9c12.6-13.4 22.1-23.1 22.1-30.4 0-9.7-12.6-15.8-26.8-15.8v-17h349.9v17c-52 1.2-72.5 21.9-102.4 50.9l-343.6 340.7 397.2 406.3c31.6 32.8 42.5 49.7 85.1 50.9v17h-368.9v-17c23.7 0 30-3.6 30-15.8 0-10.9-26.8-35.1-56.7-65.5l-230.2-234.1-279 276.5c-7.9 8.5-14.2 12.1-14.2 23.1 0 9.7 12.6 15.8 33.1 15.8v17z" fill="#e00000"/><path d="m436 331h22c6.3 20.6 31.6 30.4 119.8 30.4 216 0 274.3-54.5 274.3-106.7 0-55.8-75.7-111.5-241.1-111.5-212.8 0-359.4 89.8-359.4 129.7 0 8.5 3.2 15.8 6.3 21.9l-18.9 11.9-167.2-168.5 22.1-9.7c6.3 3.6 14.2 7.3 23.7 7.3 45.7 0 141.8-135.8 507.5-135.8 256.9 0 450.8 106.7 450.8 246.1 0 82.5-58.3 146.7-159.2 169.7v2.4c132.4 36.3 223.9 105.4 223.9 220.7 0 156.5-198.6 268-504.3 268-411.4 0-501.3-109.1-554.9-109.1-12.6 0-22.1 4.9-31.6 10.9l-25.3-7.3 126.1-208.6 23.7 10.9c0 3.6-1.6 8.5-1.6 14.6 0 47.3 174.9 145.5 436.6 145.5 198.5.1 307.2-53.2 307.2-129.6 0-66.7-82-139.4-310.5-139.4-118.2 0-143.4 13.4-148.2 35.1h-22.1z" fill="#e00000"/><path d="m1189.9 179.4 22.1-13.4c3.2 3.6 9.5 6.1 18.9 6.1 44.2 0 162.4-172.1 498.1-172.1 195.4 0 439.7 86.1 439.7 254.6 0 322.5-602.1 288.6-762.9 492.3h759.8c34.6 0 47.3-9.7 47.3-29.1h22.1v203.7h-22c0-17-12.6-26.7-47.3-26.7h-1012c0-442.5 791.3-423.2 791.3-631.8 0-78.8-118.2-120-225.4-120-181.2 0-335.7 116.4-335.7 169.7 0 10.9 6.3 18.2 12.6 24.3l-20.5 14.6z" fill="#e00000"/><g fill="#fff"><path d="m3732.6 241.6v-54.4c-4.4 7.5-9.7 14.5-16 20.7-18.8 18.6-43.7 28.8-70.1 28.8h-.4c-26.6-.1-51.5-10.6-70.3-29.4-18.6-18.9-28.8-43.8-28.8-70.1v-125l106.2.5v54.7c17.6-30.6 50.1-49.8 86.2-49.8 9.4 0 19 1.3 28.4 4 41.9 11.7 71.2 50.4 71.2 94.1v125.9z"/><path d="m3740.2 173.5v60.6h91.2v-118.5c0-40.4-26.7-76-65.7-86.9-49.2-13.8-95 12.7-111.7 53.9-2 4.2-8.4 2.7-8.4-1.9v-60.6l-91.1-.4v117.4c0 24.4 9.5 47.4 26.6 64.8 17.3 17.4 40.3 27.1 65 27.2 24.6.1 47.8-9.4 65.2-26.6 9-8.9 15.9-19.3 20.5-30.6 0-.1.1-.2.1-.3 2-4.2 8.3-2.8 8.3 1.9z"/><path d="m3546.9 747.4h7.1l-7.1 7.1v-122.1l250.3 87c24.8 8.6 40.9 31.2 40.9 57.5 0 26.4-16.1 48.9-40.9 57.5l-250.3 87z"/><path d="m3794.8 827.4c21.8-7.5 35.8-27.4 35.8-50.4 0-23.1-14.1-42.9-35.8-50.4l-240.4-83.6v47 2.6 47l44 15.4h-44v109 12.3 34.6z"/><path d="m3547 656.9v-108.7c0-54.9 44.6-99.5 99.5-99.5h92.9c54.9 0 99.5 44.6 99.5 99.5v108.7z"/><path d="m3831.4 649.4v-101.2c0-50.7-41.3-92-92-92h-92.9c-50.7 0-92 41.3-92 92v101.2z"/><path d="m3732.6 456.9v-31.5h-79.5v31.5h-106.2v-124.6c0-54.9 44.6-99.5 99.5-99.5h92.9c54.9 0 99.5 44.6 99.5 99.5v124.6z"/><path d="m3831.4 449.3v-117c0-50.7-41.3-92-92-92h-92.9c-50.7 0-92 41.3-92 92v117h46.8 44.3v-31.5h94.5v31.5z"/></g><g fill="#002f82"><path d="m3792.6 443.7v-111.4c0-29.3-23.8-53.2-53.2-53.2h-92.9c-29.3 0-53.2 23.8-53.2 53.2v111.4h-33.4v-111.4c0-47.7 38.8-86.5 86.5-86.5h92.9c47.7 0 86.5 38.8 86.5 86.5v111.4z"/><path d="m3561.3 442.5v-110.2c0-47 38.3-85.2 85.2-85.2h92.9c47 0 85.2 38.3 85.2 85.2v110.2h-30.7v-110.2c0-30-24.5-54.4-54.4-54.4h-92.9c-30 0-54.4 24.5-54.4 54.4v110.2z"/><path d="m3606.8 443.8v-111.6c0-10.6 4.2-20.5 11.7-28 7.4-7.4 17.4-11.5 28.1-11.5h39.6l-.1 119.5h-33.2l.1-86.3h-6.5c-1.8 0-3.3.6-4.6 1.9-.9.9-1.9 2.3-1.9 4.5v111.5z"/><path d="m3608.1 442.5v-110.3c0-10.3 4.1-20 11.4-27.1 7.2-7.2 16.9-11.2 27.2-11.2h38.4l-.1 117h-30.7l.1-86.3h-7.7c-2.8 0-4.6 1.4-5.5 2.3s-2.3 2.6-2.3 5.4v110.3z"/><path d="m3745.8 443.8v-111.6c0-2.3-1.3-3.8-1.9-4.4-.6-.5-2.1-1.9-4.5-1.9h-6.5l.1 86.3h-33.2l-.2-119.5h39.7c10.5 0 20.5 4.1 28 11.5 7.6 7.6 11.7 17.5 11.7 28v111.6z"/><path d="m3700.8 293.9h38.5c10.2 0 19.8 3.9 27.1 11.2 7.2 7.2 11.4 16.8 11.4 27.1v110.4h-30.7v-110.4c0-2.6-1.5-4.5-2.3-5.3-.9-.8-2.6-2.3-5.4-2.3h-7.7l.1 86.3h-30.7z"/><path d="m3560 760.4h33.2v110.3h-33.2z"/><path d="m3561.3 761.7h30.7v107.7h-30.7z"/><path d="m3560 643.9v-95.8c0-47.7 38.8-86.5 86.5-86.5h92.9c47.7 0 86.5 38.8 86.5 86.5v95.7h-33.2v-95.7c0-29.3-23.8-53.2-53.2-53.2h-92.9c-29.3 0-53.2 23.8-53.2 53.2v62.5h106.3l-.1-55.4h33.2l.1 88.7z"/><path d="m3561.3 642.5v-94.4c0-47 38.3-85.2 85.2-85.2h92.9c47 0 85.2 38.3 85.2 85.2v94.4h-30.7v-94.4c0-30-24.5-54.4-54.4-54.4h-92.9c-30 0-54.4 24.5-54.4 54.4v63.7h108.8l-.1-55.4h30.7l.1 86.2z"/><path d="m3745.8 644v-95.8c0-2-4.4-6.3-6.4-6.3h-92.9c-1.8 0-3.3.6-4.6 1.9-.9.9-1.9 2.3-1.9 4.5v15.6h12.9v-8.6l33.2.1-.1 41.7h-79.2v-49c0-10.6 4.2-20.5 11.7-28 7.4-7.4 17.4-11.5 28.1-11.5h92.7c10.5 0 20.5 4.1 28 11.5 7.6 7.6 11.7 17.5 11.7 28v95.9z"/><path d="m3608.1 595.7v-47.7c0-10.3 4.1-20 11.4-27.1 7.2-7.2 16.9-11.2 27.2-11.2h92.7c10.2 0 19.8 3.9 27.1 11.2 7.2 7.2 11.4 16.8 11.4 27.1v94.6h-30.7v-94.5c0-2.6-4.9-7.5-7.6-7.5h-92.9c-2.8 0-4.6 1.4-5.5 2.3s-2.3 2.6-2.3 5.4v16.8h15.4v-8.6l30.7.1-.1 39.2z"/><path d="m3606.8 760.4h33.2v54.7h-33.2z"/><path d="m3608.1 761.7h30.7v52.2h-30.7z"/><path d="m3606.8 802.1 72.2-25.1-119-41.4v-35.2l220.3 76.6-173.5 60.3z"/><path d="m3561.3 734.7 121.5 42.3-74.7 26v32.5l168.4-58.5-215.2-74.8z"/><path d="m3560 868.1 222-77.2c9.1-3.2 9.8-11.4 9.8-13.8s-.7-10.6-9.8-13.8l-222-77.2v-35.2l232.9 81.1c19.5 6.8 32.2 24.6 32.2 45.2s-12.6 38.4-32.2 45.2l-232.9 80.9z"/><path d="m3561.3 685.2 221.2 76.9c9.9 3.4 10.7 12.3 10.7 15 0 2.6-.8 11.5-10.7 15l-221.2 76.9v32.6l231.2-80.3c19-6.7 31.3-23.9 31.3-44 0-20.2-12.2-37.4-31.3-44l-231.2-80.5z"/><path d="m3792.5 228.5v-111.5c0-29.3-23.9-53.2-53.2-53.2h-.2c-29.3 0-53.2 23.8-53.2 53.2v20.4c-.1 21.7-17.9 39.4-39.6 39.4h-.2c-21.7-.1-39.4-17.9-39.4-39.6l-.1-111.6 33.2.1v111.5c0 3.5 2.9 6.4 6.4 6.4 3.6 0 6.5-2.9 6.5-6.4v-20.2c0-47.7 38.8-86.5 86.5-86.5s86.5 38.8 86.5 86.5v111.4z"/><path d="m3793.8 117v110.2h30.7v-110.2c0-47-38.3-85.2-85.2-85.2-47 0-85.2 38.3-85.2 85.2v20.2c0 4.2-3.5 7.6-7.7 7.6s-7.6-3.4-7.6-7.6v-110.3l-30.7-.1.1 110.2v.2c0 21 17.1 38.3 38.2 38.4s38.5-17 38.6-38.2v-20.4c0-30 24.5-54.4 54.4-54.4 30-.1 54.4 24.4 54.4 54.4z"/><path d="m3745.8 228.5v-111.5c0-3.4-2.9-6.2-6.5-6.2-3.5 0-6.4 2.9-6.4 6.4v20.6c-.1 23-9.2 44.7-25.6 61-16.2 16.1-37.9 25-60.9 25h-.4c-23-.1-44.6-9.2-61-25.6-16.1-16.3-25-38-25-60.9v-111.9l33.2.1v111.7c0 14.1 5.5 27.4 15.4 37.4 10 10.1 23.3 15.7 37.6 15.8h.4c14 0 27.3-5.5 37.3-15.4 10.1-10 15.7-23.3 15.8-37.6v-20.4c0-21.8 17.8-39.6 39.7-39.6 21.8 0 39.6 17.8 39.6 39.6v111.4z"/><path d="m3747 117v110.2h30.7v-110.2c0-21.1-17.2-38.4-38.4-38.4-21.1 0-38.5 17.2-38.5 38.4v20.5c-.1 14.6-5.8 28.2-16.1 38.5-10.4 10.3-24.1 15.9-38.6 15.8-14.6-.1-28.2-5.8-38.5-16.1-10.2-10.3-15.8-23.9-15.8-38.3 0-.1 0-.2 0-.3v-110.3l-30.7-.1v110.2.4c0 22.6 8.7 43.8 24.7 60 16 16.1 37.4 25.1 60.1 25.2 22.8.1 44.2-8.6 60.4-24.7 16.1-16 25.1-37.4 25.2-60.1v-20.6c0-4.2 3.4-7.6 7.6-7.6 4.4.1 7.9 3.3 7.9 7.5z"/></g></svg>