<?xml version="1.0" encoding="UTF-8" standalone="no"?>
<svg
   enable-background="new 0 0 3839 603"
   height="603"
   viewBox="0 0 3840 603"
   width="3840"
   version="1.1"
   id="svg5"
   sodipodi:docname="segacd.svg"
   inkscape:version="1.3.2 (091e20e, 2023-11-25)"
   xmlns:inkscape="http://www.inkscape.org/namespaces/inkscape"
   xmlns:sodipodi="http://sodipodi.sourceforge.net/DTD/sodipodi-0.dtd"
   xmlns="http://www.w3.org/2000/svg"
   xmlns:svg="http://www.w3.org/2000/svg">
  <defs
     id="defs5" />
  <sodipodi:namedview
     id="namedview5"
     pagecolor="#ffffff"
     bordercolor="#000000"
     borderopacity="0.25"
     inkscape:showpageshadow="2"
     inkscape:pageopacity="0.0"
     inkscape:pagecheckerboard="0"
     inkscape:deskcolor="#d1d1d1"
     inkscape:zoom="0.21510417"
     inkscape:cx="1917.6755"
     inkscape:cy="302.17918"
     inkscape:window-width="1312"
     inkscape:window-height="449"
     inkscape:window-x="215"
     inkscape:window-y="39"
     inkscape:window-maximized="0"
     inkscape:current-layer="svg5" />
  <linearGradient
     id="a"
     gradientUnits="userSpaceOnUse"
     x1="27.104099"
     x2="3811.8953"
     y1="301.5007"
     y2="301.5007">
    <stop
       offset="0"
       stop-color="#969696"
       id="stop1" />
    <stop
       offset="1"
       stop-color="#fff"
       id="stop2" />
  </linearGradient>
  <g
     id="g7">
    <g
       id="g6"
       transform="scale(1,0.99834438)">
      <g
         transform="matrix(1.0002605,0,0,1.0016584,5.5e-4,-7.5104813e-4)"
         id="g5">
        <path
           d="m 1618,-1618 h 603 v 3839 h -603 z"
           transform="rotate(-90,1919.5001,301.50065)"
           id="path2" />
        <path
           d="M 27.1,27.1 V 575.9 H 3811.9 V 27.1 Z M 3762.2,526.2 H 76.8 V 76.8 H 3762.1 V 526.2 Z M 1872.8,491.4 c -6,-0.5 -10,-3.3 -10,-8.1 0,-7.1 10,-17.9 48.8,-88.5 h 229.2 c 44.8,77.6 50.8,85.2 50.8,91.2 0,2.7 -3.3,5.4 -12,5.4 v 7.6 h 133 v -7.6 c -14,0 -16.7,-3.8 -26.1,-20.6 l -193.8,-337 c -3.3,-5.4 -6,-9.8 -6,-14.1 0,-3.8 4,-7.1 14,-8.1 V 104 H 1955 v 7.6 c 8.7,1.1 14,3.8 14,9.8 0,4.9 -4,10.9 -7.4,16.3 l -182.4,333.2 c -9.4,17.4 -13.4,20.1 -25.4,20.6 v 7.6 h 119 z M 2021.9,190.8 2102.1,333 H 1943 Z M 3735,104 H 2434.7 V 499 H 3735 Z m -3561.7,268.6 -55.5,92.3 8.7,1.6 c 3.3,-1.6 5.3,-4.3 9.4,-4.3 15.4,0 62.2,42.3 225.2,42.3 171.1,0 256.6,-55.4 256.6,-127 0,-196.4 -393.6,-66.2 -393.6,-155.2 0,-33.6 44.8,-59.7 149,-59.7 108.9,0 171.7,38 171.7,45 0,2.7 -0.7,5.4 -1.3,7.6 l 10.7,4.9 51.5,-81.4 L 595,136 c -2,1.6 -3.3,3.8 -12,3.8 -8,0 -89.6,-41.2 -205.8,-41.2 -129.6,0 -247.9,38 -247.9,129.2 0,180.2 388.3,48.3 388.3,154.7 0,29.8 -41.4,58.1 -163.1,58.1 -85.5,0 -171.8,-22.8 -171.8,-54.8 0,-4.3 1.3,-6.5 1.3,-8.7 z M 1131.6,511 h 9.4 v -89 h -9.4 c 0,8.7 -6.7,13 -22.7,13 H 781.5 V 328.6 h 209.8 c 16,0 22.7,4.3 22.7,13 h 9.4 v -91.2 h -9.4 c 0,9.8 -6.7,14.1 -22.7,14.1 H 781.5 V 168 h 321.4 c 16,0 22.7,4.3 22.7,14.1 h 9.4 V 92 h -9.4 c 0,7.6 -6.7,11.9 -22.7,11.9 H 669.2 v 7.6 c 14.7,0 17.4,4.3 17.4,16.3 v 347.3 c 0,11.9 -2.7,16.3 -17.4,16.3 v 7.6 h 439.7 c 16.1,0 22.7,4.4 22.7,12 z m 327.5,-6.5 c 115.6,0 218.5,-41.2 260.6,-60.8 v -7.6 c -8.7,-1.6 -12,-4.9 -12,-13.6 V 315.6 c 0,-11.9 6,-16.3 12.7,-17.4 v -7.6 h -222.5 c -13.4,0 -21.4,-5.4 -21.4,-13 h -9.4 v 95.5 h 9.4 c 0,-7.6 8,-13 21.4,-13 h 114.9 v 45 c -20,11.9 -69.5,35.3 -153.7,35.3 -102.9,0 -193.8,-45 -193.8,-141.1 0,-91.7 90.9,-136.8 203.2,-136.8 88.9,0 161.1,33.6 161.1,50.5 0,3.8 -0.7,7.1 -1.3,9.2 l 9.4,4.9 64.8,-89 -9.4,-3.3 c -2.7,3.3 -8.7,6 -14.7,6 -4.7,0 -30.7,-9.8 -66.2,-22.3 -38.1,-9.8 -90.2,-20.1 -145,-20.1 -139,0 -296.7,61.9 -296.7,203 -0.1,141.2 134.9,203.1 288.6,203.1 z"
           fill="url(#a)"
           id="path3"
           style="fill:url(#a)" />
        <path
           d="m 3054.2,440 c -188.3,18.3 -337.4,-17.9 -346.8,-84.1 -9.6,-67.4 132.5,-146.2 323.4,-179.4 1.4,-0.2 2.3,-1.5 2,-2.9 -0.2,-1.4 -1.5,-2.3 -2.9,-2.1 -314.5,48.9 -552.8,143.5 -542.6,215.5 6.9,48.9 122.8,75.9 295.4,75.9 80.2,0 172.6,-5.9 272,-18.1 1.4,-0.2 2.3,-1.4 2.2,-2.8 -0.1,-1.1 -1.3,-2.1 -2.7,-2 z"
           id="path4" />
        <path
           d="m 3682.9,217.6 c -10.5,-73.7 -261.2,-98 -583.2,-56.5 -1.7,0.2 -2.9,1.8 -2.7,3.5 0.2,1.7 1.7,2.9 3.5,2.8 190.8,-20.5 347.6,15.6 357,82.2 8.4,59.3 -105.3,117.9 -297,152.9 -11.9,-12.1 -28.1,-88.6 -38.5,-151.8 -0.3,-1.9 -2,-3.2 -3.9,-3 -1.9,0.2 -3.3,1.7 -3.3,3.6 V 434 c 0,0.9 0.4,1.8 1.1,2.4 0.6,0.5 1.3,0.8 2.1,0.8 h 0.5 c 327.1,-48.3 575.1,-144.7 564.4,-219.6 z"
           id="path5" />
      </g>
    </g>
  </g>
</svg>
