<svg enable-background="new 0 0 3839 1018.3" height="1018" viewBox="0 0 3840 1018.0001" width="3840" xmlns="http://www.w3.org/2000/svg"><g transform="scale(1.0002605 .99970539543)"><path d="m35.8 777.5h3785.1v210.6h-3785.1z" fill="#fff"/><g fill="#ed2224"><path d="m179.7 265c12.7 23.6 78.1 132.5 85.3 150.7 9.1 18.2 16.3 47.2 9.1 78.1l-23.6 132.5c-7.3 34.5-38.1 61.7-76.2 61.7h-114.4c-34.5-.1-59.9-27.3-59.9-61.8 0-3.6 0-7.3 0-10.9l30.9-174.3h79.9l-25.4 147v1.8c0 10.9 9.1 20 20 20h43.6c14.5 0 27.2-10.9 30.9-23.6l18.2-96.2c3.6-18.2 0-29-16.3-58.1-12.7-23.6-67.2-127.1-83.5-157.9-21.8-39.9-23.6-58.1-18.2-92.6l20-118c7.3-36.3 38.1-61.7 74.4-61.7h114.4c32.7 0 61.7 27.2 61.7 61.7v10.9l-29 168.8h-79.9l25.4-141.6c0-1.8 0-1.8 0-3.6 0-10.9-9.1-20-20-20h-43.6c-14.5 0-25.4 10.9-29 23.6l-14.5 76.2c-5.7 38.3 1.5 56.5 19.7 87.3z"/><path d="m388.4 588.1c0 1.8 0 1.8 0 0 0 12.7 9.1 21.8 20 21.8h43.6c14.5 0 25.4-10.9 29-23.6l107.1-586.3h81.7l-114.4 624.4c-7.3 34.5-38.1 61.7-76.2 61.7h-114.4c-32.7 0-59.9-27.2-59.9-61.7 0-3.6 0-7.3 0-12.7l110.8-611.7h79.9z"/><path d="m1012.8 0h185.2l-12.7 78.1h-103.5l-38.1 216h101.6l-14.5 78h-101.6l-43.6 237.8h101.7l-12.7 76.2h-187z"/><path d="m1548.3 686.1 125.2-686.1h83.5c36.3 366.7 36.3 455.6 38.1 524.6 1.8-72.6 10.9-172.4 74.4-524.6h83.5l-125.2 686.1h-83.5c-34.5-366.7-36.3-442.9-36.3-511.9-3.6 81.7-12.7 161.5-74.4 511.9z"/><path d="m1969.4 686.1h-81.7l123.5-686.1h83.5z"/><path d="m2648.3 78.1h-56.3l-110.7 608h-83.5l112.5-608h-59.9l14.5-78.1h199.7z"/><path d="m2699.1 0h185.1l-12.7 78.1h-103.4l-38.1 216h101.6l-14.5 78h-101.7l-43.5 237.8h101.6l-12.7 76.2h-186.9z"/><path d="m2032.9 686.1 125.3-686.1h83.5c36.3 366.7 36.3 455.6 38.1 524.6 1.8-72.6 10.9-172.4 74.4-524.6h83.5l-125.2 686.1h-83.5c-34.5-366.7-36.3-442.9-36.3-511.9-3.6 81.7-12.7 161.5-74.4 511.9z"/><path d="m2815.3 686.1 125.2-686.1h83.5c36.3 366.7 36.3 455.6 38.1 524.6 1.8-72.6 10.9-172.4 74.4-524.6h83.5l-125.2 686.1h-83.5c-34.5-366.7-36.3-442.9-36.3-511.9-3.6 81.7-12.7 161.5-74.4 511.9z"/><path d="m595.4 686.1 125.2-686.1h179.7c34.5 0 61.7 27.2 61.7 61.7 0 3.6 0 7.3-1.8 10.9l-43.6 243.2c-5.4 36.3-36.3 61.7-74.4 61.7h-107.1l-56.3 306.8zm217.8-384.8c14.5 0 25.4-9.1 29-23.6l34.5-177.9s0-1.8 0-3.6c0-10.9-9.1-20-20-20h-69l-41.7 225.1zm531.8 105.3c0-12.7-9.1-21.8-20-21.8h-65.3l-54.5 303.1h-83.5l123.5-686.1h183.3c34.5 0 61.7 27.2 61.7 61.7 0 3.6 0 7.3-1.8 12.7l-38.1 216c-5.4 29-25.4 49-52.6 58.1 23.6 9.1 34.5 30.9 30.9 56.3v10.9l-49 270.5h-83.6zm-5.4-105.3c14.5 0 25.4-10.9 29-23.6l32.7-177.9c0-1.8 0-1.8 0-3.6 0-10.9-9.1-20-20-20h-65.3l-40 223.3zm1938.5-301.3h187c34.5 0 61.7 27.2 61.7 61.7 0 3.6 0 7.3-1.8 10.9l-99.8 551.8c-5.4 34.5-36.3 61.7-74.4 61.7h-197.8zm43.6 609.9c14.5 0 25.4-10.9 29-23.6l88.9-486.5c0-1.8 0-1.8 0-3.6 0-10.9-9.1-20-20-20h-74.4l-96.2 531.8h72.6v1.9zm334-609.9h116.2c32.7 0 59.9 27.2 59.9 61.7v10.9l-98 551.8c-7.3 34.5-38.1 61.7-76.2 61.7h-114.4c-34.5 0-59.9-27.2-59.9-61.7 0-3.6 0-7.3 0-12.7l98-550c7.2-34.5 38.1-61.7 74.4-61.7zm-89 589.9c0 10.9 9.1 20 20 20h43.6c14.5 0 25.4-10.9 29-23.6l87.1-486.5c0-1.8 0-1.8 0-3.6 0-10.9-9.1-20-20-20h-45.4c-12.7 0-25.4 10.9-29 23.6l-87.1 486.5c1.8 1.8 1.8 3.6 1.8 3.6z"/><path d="m1265.1 902.1 5.4-45.4c0-7.3 1.8-14.5 3.6-21.8 0-3.6 1.8-12.7 1.8-16.3-1.8 3.6-3.6 12.7-5.4 16.3-3.6 7.3-5.4 14.5-9.1 21.8l-20 45.4z"/><path d="m905.7 827.7h-20l-10.9 45.4h21.8c9.1 0 18.2-7.3 21.8-23.6 3.7-18.2-1.8-21.8-12.7-21.8z"/><path d="m9.1 751.5v266.8h3829.9v-266.8zm176 76.2h-49l-10.9 41.7h45.4l-5.4 23.6h-45.4l-12.7 50.8h49l-5.4 23.6h-76.3l41.7-161.5h76.2zm174.3 139.8h-29l-5.4-58.1c-1.8-20-3.6-38.1-1.8-65.3-1.8 12.7-5.4 29-9.1 47.2-3.6 16.3-7.3 32.7-10.9 45.4l-7.3 30.9h-27.2l41.7-161.5h29l5.4 59.9c1.8 18.2 3.6 38.1 1.8 65.3 3.6-14.5 5.4-30.9 9.1-45.4 3.6-16.3 7.3-30.9 10.9-45.4l9.1-32.7h27.3zm221.4-139.8h-30.8l-36.3 137.9h-27.2l36.3-137.9h-32.7l5.4-23.6h90.8zm174.3 0h-49l-10.9 41.7h45.4l-5.4 23.6h-45.4l-12.8 50.9h49l-5.4 23.6h-76.2l41.7-161.5h76.2zm192.4 16.3c-5.4 18.2-14.5 36.3-32.7 39.9 16.3 1.8 18.2 14.5 12.7 29-1.8 7.3-12.7 47.2-7.3 50.8v3.6h-30.9c0-10.9 5.4-30.9 7.3-41.7 1.8-10.9 5.4-23.6-1.8-27.2-7.3-1.8-14.5-1.8-21.8-1.8h-5.4l-18.2 69h-27.2l41.8-161.5h50.8c25.4 0 41.8 9.1 32.7 39.9zm185.1-16.3h-30.9l-36.3 137.9h-27.2l36.3-137.9h-32.7l5.4-23.6h90.8zm156.1 139.8h-29l3.6-41.7h-32.7l-18.2 41.7h-29l78.1-161.5h36.3zm139.8 0h-27.2l41.7-161.5h27.2zm216 0h-27.2l-5.4-58.1c-1.8-20-3.6-38.1-1.8-65.3-1.8 12.7-5.4 29-9.1 47.2-3.6 16.3-7.3 32.7-10.9 45.4l-7.3 30.9h-27.2l41.7-161.5h29l5.4 59.9c1.8 18.2 3.6 38.1 1.8 65.3 3.6-14.5 5.4-30.9 9.1-45.4 3.6-16.3 7.3-30.9 10.9-45.4l9.1-32.7h27.2zm246.9 0h-27.2l12.7-50.8c9.1-32.7 18.2-65.3 27.2-96.2l-67.2 147h-16.3l10.9-147h-1.8c-7.3 32.7-14.5 65.3-23.6 96.2l-12.7 50.8h-27.2l41.7-161.5h43.6l-5.4 76.2c0 12.7-5.4 32.7-7.3 45.4 5.4-16.3 10.9-34.5 16.3-45.4l34.5-76.2h43.6zm226.9-139.8h-49l-10.9 41.7h45.4l-5.4 23.6h-45.4l-12.7 50.8h49l-5.4 23.6h-76.2l41.7-161.5h76.2zm156.1 139.8h-29l-5.4-58.1c-1.8-20-3.6-38.1-1.8-65.3-1.8 12.7-5.4 29-9.1 47.2-3.6 16.3-7.3 32.7-10.9 45.4l-7.3 30.9h-27.2l41.7-161.5h29l5.4 59.9c1.8 18.2 3.6 38.1 1.8 65.3 3.6-14.5 5.4-30.9 9.1-45.4 3.6-16.3 7.3-30.9 10.9-45.4l9.1-32.7h27.2zm226.8-139.8h-30.9l-36.3 137.9h-27.2l36.3-137.9h-32.7l5.4-23.6h90.8zm297.7 25.4h-27.2c3.6-14.5 7.3-29-9.1-29-9.1 0-16.3 3.6-18.2 14.5-3.6 12.7 1.8 16.3 9.1 23.6 7.3 5.4 20 18.2 25.4 27.2 7.3 10.9 7.3 20 3.6 34.5-7.3 30.9-30.9 47.2-58.1 47.2-32.7 0-39.9-20-30.9-49l3.6-12.7h27.2l-1.8 9.1c-5.4 16.3-3.6 27.2 10.9 27.2 10.9 0 18.2-7.3 21.8-18.2 1.8-9.1 0-16.3-5.4-21.8-10.9-12.7-27.2-21.8-32.7-38.1-1.8-7.3-3.6-16.3 0-25.4 7.3-27.2 25.4-43.6 54.5-43.6 41.9 1.9 31 40 27.3 54.5zm150.7 45.4-18.2 69h-27.2l18.2-69-14.5-92.6h29l3.6 41.7c0 7.3 1.8 16.3 0 25.4 5.4-12.7 10.9-21.8 16.3-30.9l21.8-36.3h29zm228.7-45.4h-25.4c3.6-14.5 7.3-29-9.1-29-9.1 0-16.3 3.6-18.2 14.5-3.6 12.7 1.8 16.3 9.1 23.6 7.3 5.4 20 18.2 25.4 27.2 7.3 10.9 7.3 20 3.6 34.5-7.3 30.9-30.9 47.2-58.1 47.2-32.7 0-39.9-20-30.9-49l3.6-12.7h27.2l-1.8 9.1c-5.4 16.3-3.6 27.2 10.9 27.2 10.9 0 18.2-7.3 21.8-18.2 1.8-9.1 0-16.3-5.4-21.8-10.9-12.7-27.2-21.8-32.7-38.1-1.8-7.3-3.6-16.3 0-25.4 7.3-27.2 25.4-43.6 54.5-43.6 41.8 1.9 30.9 40 25.5 54.5zm185.1-25.4h-32.7l-36.3 137.9h-27.2l36.3-137.9h-32.7l5.4-23.6h90.8zm181.5 0h-49l-10.9 41.7h45.4l-5.4 23.6h-45.4l-12.7 50.8h49l-5.4 23.6h-78.1l41.7-161.5h76.2zm205.2 139.8h-27.2l12.7-50.8c9.1-32.7 18.2-65.3 27.2-96.2l-67.2 147h-16.3l10.9-147h-1.8c-7.3 32.7-14.5 65.3-23.6 96.2l-12.7 50.8h-27.2l41.7-161.5h43.6l-5.4 76.2c0 12.7-5.4 32.7-7.3 45.4 5.4-16.3 10.9-34.5 16.3-45.4l34.5-76.2h43.6z"/></g></g></svg>