<?xml version="1.0" encoding="UTF-8" standalone="no"?>
<svg
   enable-background="new 0 0 450 120"
   height="1016.0001"
   viewBox="0 0 3840 1016"
   width="3840"
   version="1.1"
   id="svg23"
   sodipodi:docname="solarus.svg"
   inkscape:version="1.3.2 (091e20e, 2023-11-25)"
   xmlns:inkscape="http://www.inkscape.org/namespaces/inkscape"
   xmlns:sodipodi="http://sodipodi.sourceforge.net/DTD/sodipodi-0.dtd"
   xmlns="http://www.w3.org/2000/svg"
   xmlns:svg="http://www.w3.org/2000/svg">
  <defs
     id="defs23" />
  <sodipodi:namedview
     id="namedview23"
     pagecolor="#ffffff"
     bordercolor="#000000"
     borderopacity="0.25"
     inkscape:showpageshadow="2"
     inkscape:pageopacity="0.0"
     inkscape:pagecheckerboard="0"
     inkscape:deskcolor="#d1d1d1"
     inkscape:zoom="0.23231886"
     inkscape:cx="1919.7753"
     inkscape:cy="507.92261"
     inkscape:window-width="1312"
     inkscape:window-height="449"
     inkscape:window-x="0"
     inkscape:window-y="23"
     inkscape:window-maximized="0"
     inkscape:current-layer="svg23" />
  <g
     id="g24"
     transform="scale(1,1.0001524)">
    <g
       transform="matrix(8.6081284,0,0,8.6081284,-16.871932,-12.05138)"
       id="g23">
      <path
         d="m 436.96,82.68 c 0.26,-0.18 0.52,-0.36 0.77,-0.54 6.75,-5.01 10.32,-12.35 10.32,-21.21 0,-7.19 -1.92,-13.07 -5.72,-17.48 -3.55,-4.12 -9.13,-7.38 -17.05,-9.98 -2.39,-0.81 -4.17,-1.48 -5.48,-2.01 -0.59,-0.24 -0.08,-0.8 0.91,-0.8 2.31,0 4.45,0.32 6.37,0.75 1.94,0.44 3.84,0.98 5.65,1.81 l 9.35,4.28 0.95,-10.24 1.18,-12.72 0.52,-5.65 L 439.38,7 c -2.4,-0.85 -5.23,-1.56 -8.65,-2.17 -3.36,-0.59 -6.89,-0.89 -10.51,-0.89 -9.74,0 -17.74,2.16 -23.79,6.41 V 5.11 H 365.8 v 46.62 c 0,5.59 -1.16,8.09 -1.86,9.08 -0.32,0.47 -1,1.43 -3.96,1.43 -2.96,0 -3.68,-0.97 -4.02,-1.44 -1.15,-1.57 -1.79,-4.59 -1.79,-8.48 V 5.11 H 323.54 V 9.97 C 318.16,6.71 311.22,5.11 302.38,5.11 H 268.96 V 42.25 L 254.3,5.11 H 225.47 L 203.72,61.26 H 188.9 V 5.11 H 158.27 V 30.23 C 149.18,13.1 131.16,1.4 110.45,1.4 85.05,1.4 63.7,19 57.91,42.64 54.34,38.9 48.99,35.9 41.6,33.47 c -2.42,-0.82 -4.22,-1.5 -5.53,-2.03 -0.56,-0.23 -0.32,-0.48 -0.32,-0.48 0,0 0.29,-0.31 1.28,-0.31 2.32,0 4.46,0.33 6.37,0.76 1.97,0.44 3.82,0.96 5.67,1.8 L 58.42,37.48 61.05,8.88 55.7,7 C 53.29,6.14 50.46,5.44 47.05,4.83 43.69,4.24 40.16,3.94 36.55,3.94 26.51,3.94 18.32,6.23 12.2,10.74 5.5,15.7 1.96,23.01 1.96,31.87 c 0,7.69 2.38,13.8 7.07,18.16 3.99,3.7 9.59,6.68 17.12,9.12 3.72,1.24 5.95,2.23 5.8,2.6 -0.15,0.38 -1.57,0.59 -3.04,0.59 -2.75,0 -6.63,-0.57 -10.32,-1.94 C 14.9,59.03 5.29,51.78 5.29,51.78 l -2.97,32.25 5.75,1.7 c 1.79,0.53 3.88,1.05 6.33,1.57 L 2.13,118.97 h 17.88 l 2.08,-5.57 h 2.45 l 2.03,5.57 h 41 V 86.16 h 12.72 l -0.01,0.02 -12.69,32.79 h 17.88 l 2.07,-5.57 H 90 l 2.04,5.57 h 47.68 v -9.45 c 1.84,-0.23 3.51,-0.71 5.01,-1.43 1.15,3.02 2.89,5.12 4.46,6.5 3.6,3.19 8.43,4.81 14.37,4.81 1.99,0 4.01,-0.19 6,-0.55 1.91,-0.35 3.32,-0.68 4.45,-1.03 l 3.86,-1.19 V 87.96 l 8.5,-0.01 c -2.42,2.45 -4.89,6.52 -4.89,12.9 0,7.19 3.11,11.45 5.72,13.75 3.6,3.19 8.43,4.81 14.37,4.81 1.74,0 3.5,-0.15 5.23,-0.43 H 223 l 2.07,-5.57 h 2.45 l 2.04,5.57 h 70.71 V 82.69 H 299.6 V 63.27 l 7.03,19.41 h -2.18 v 36.29 h 54.61 v -3.52 c 3.48,2.61 7.93,3.95 13.29,3.95 2.01,0 4.03,-0.19 6,-0.55 0.91,-0.17 1.71,-0.33 2.42,-0.49 v 0.62 h 66.37 v -36.3 z"
         fill="#3e2d72"
         id="path1" />
      <g
         fill="#ffffff"
         id="g22">
        <path
           d="m 323.51,61.52 -0.4,-0.88 c -0.97,-2.67 -2.13,-5.44 -3.47,-8.31 -1.34,-2.87 -3.44,-4.7 -6.31,-5.48 4.76,-0.98 8.25,-3 10.46,-6.06 2.21,-3.07 3.33,-6.46 3.33,-10.18 0,-6.2 -2.12,-10.78 -6.35,-13.75 -4.25,-2.97 -10.38,-4.45 -18.39,-4.45 H 276.25 V 80.6 H 292.3 V 52.91 h 4.89 c 2.68,0 4.73,0.83 6.16,2.5 1.43,1.66 2.58,3.77 3.42,6.31 l 6.85,18.88 h 17.21 z M 307.65,39.06 c -2.09,1.41 -4.95,2.11 -8.6,2.11 H 292.3 V 24.14 h 6.26 c 4.04,0 7.09,0.67 9.14,2 2.05,1.34 3.09,3.51 3.09,6.51 0,2.88 -1.05,5.01 -3.14,6.41 z"
           id="path2" />
        <path
           d="M 53.12,48.21 C 50.48,45.14 45.86,42.54 39.28,40.38 33.34,38.36 29.6,36.73 28.07,35.49 c -1.53,-1.24 -2.29,-2.74 -2.29,-4.5 0,-2.54 1,-4.45 3.03,-5.72 2.02,-1.27 4.76,-1.91 8.22,-1.91 2.87,0 5.53,0.28 7.98,0.83 2.45,0.55 4.81,1.35 7.09,2.4 l 1.17,-12.72 c -2.02,-0.72 -4.51,-1.33 -7.48,-1.86 -2.96,-0.52 -6.05,-0.78 -9.24,-0.78 -8.49,0 -15.16,1.79 -20.02,5.38 -4.86,3.59 -7.28,8.67 -7.28,15.26 0,5.61 1.58,9.88 4.74,12.82 3.16,2.93 7.97,5.45 14.43,7.53 4.89,1.63 8.15,3.21 9.78,4.74 1.63,1.53 2.45,3.21 2.45,5.04 0,2.34 -1.1,4.2 -3.28,5.57 -2.19,1.37 -5.01,2.05 -8.46,2.05 -3.53,0 -7.05,-0.57 -10.57,-1.71 -3.52,-1.14 -5.84,-2.1 -6.95,-2.89 l -1.27,13.7 c 2.21,0.65 5.08,1.32 8.61,2.01 3.52,0.68 7.21,1.03 11.06,1.03 8.34,0 14.98,-1.82 19.9,-5.48 4.92,-3.65 7.39,-8.77 7.39,-15.36 0.01,-5.41 -1.31,-9.64 -3.96,-12.71 z"
           id="path3" />
        <path
           d="m 436.8,48.21 c -2.64,-3.07 -7.26,-5.67 -13.84,-7.83 -5.94,-2.02 -9.68,-3.65 -11.21,-4.89 -1.53,-1.24 -2.29,-2.74 -2.29,-4.5 0,-2.54 1,-4.45 3.03,-5.72 2.02,-1.27 4.76,-1.91 8.22,-1.91 2.87,0 5.53,0.28 7.98,0.83 2.45,0.55 4.81,1.35 7.09,2.4 l 1.18,-12.72 c -2.02,-0.72 -4.52,-1.33 -7.48,-1.86 -2.96,-0.52 -6.05,-0.78 -9.24,-0.78 -8.49,0 -15.16,1.79 -20.01,5.38 -4.86,3.59 -7.29,8.67 -7.29,15.26 0,5.61 1.59,9.88 4.75,12.82 3.17,2.93 7.98,5.45 14.44,7.53 4.89,1.63 8.15,3.21 9.78,4.74 1.62,1.53 2.45,3.21 2.45,5.04 0,2.34 -1.1,4.2 -3.28,5.57 -2.2,1.37 -5.02,2.05 -8.47,2.05 -3.52,0 -7.04,-0.57 -10.56,-1.71 -3.52,-1.14 -5.84,-2.1 -6.96,-2.89 l -1.26,13.7 c 2.21,0.65 5.08,1.32 8.6,2.01 3.52,0.68 7.21,1.03 11.07,1.03 8.34,0 14.98,-1.82 19.9,-5.48 4.92,-3.65 7.37,-8.77 7.37,-15.36 -0.02,-5.41 -1.32,-9.64 -3.97,-12.71 z"
           id="path4" />
        <path
           d="m 249.34,12.41 h -18.87 l -21.75,56.15 h -27.1 V 12.41 H 165.57 V 80.6 h 54.92 l 5.57,-14.97 h 27.11 l 5.48,14.97 h 17.61 z m -19.07,41.38 9.58,-27.69 9.2,27.69 z"
           id="path5" />
        <path
           d="m 373.1,12.41 v 39.33 c 0,5.81 -1.05,10.22 -3.17,13.26 -2.12,3.03 -5.43,4.55 -9.94,4.55 -4.44,0 -7.72,-1.47 -9.89,-4.4 -2.15,-2.93 -3.22,-7.21 -3.22,-12.81 V 12.41 h -16.05 v 42.95 c 0,8.68 2.52,15.25 7.53,19.71 5.03,4.47 12.26,6.7 21.72,6.7 9.65,0 16.91,-2.32 21.77,-6.94 4.86,-4.63 7.29,-11.61 7.29,-20.94 V 12.41 Z"
           id="path6" />
        <path
           d="m 143.88,90.09 c -1.79,-1.29 -4.39,-1.94 -7.81,-1.94 h -7.79 v 25.35 h 5.96 v -9.28 h 2.69 c 3.03,0 5.4,-0.7 7.09,-2.12 1.7,-1.42 2.55,-3.44 2.55,-6.05 0.01,-2.67 -0.89,-4.65 -2.69,-5.96 z m -4.45,8.79 c -0.76,0.65 -1.81,0.97 -3.14,0.97 l -2.04,-0.06 v -7.28 h 2.04 c 1.31,0 2.35,0.32 3.13,0.94 0.78,0.64 1.16,1.53 1.16,2.66 0,1.2 -0.38,2.12 -1.15,2.77 z"
           id="path7" />
        <path
           d="m 85.38,88.15 -9.81,25.35 h 6.1 l 2.07,-5.57 h 10.08 l 2.04,5.57 h 6.54 l -10,-25.35 z m -0.08,15.38 3.57,-10.29 3.42,10.29 z"
           id="path8" />
        <path
           d="m 19.93,88.15 -9.82,25.35 h 6.1 l 2.08,-5.57 h 10.08 l 2.03,5.57 h 6.54 l -10,-25.35 z m -0.07,15.38 3.56,-10.29 3.42,10.29 z"
           id="path9" />
        <path
           d="m 122.39,106.08 c -0.36,-0.99 -0.79,-2.02 -1.29,-3.09 -0.49,-1.07 -1.28,-1.75 -2.35,-2.04 1.78,-0.37 3.07,-1.11 3.9,-2.26 0.81,-1.13 1.23,-2.39 1.23,-3.77 0,-2.31 -0.78,-4.01 -2.36,-5.11 -1.58,-1.1 -3.86,-1.66 -6.84,-1.66 h -9.71 v 25.35 h 5.96 v -10.3 h 1.81 c 0.99,0 1.77,0.32 2.29,0.94 0.53,0.6 0.96,1.4 1.28,2.34 l 2.55,7.02 h 6.39 l -2.71,-7.09 z m -5.75,-8.02 c -0.77,0.53 -1.84,0.78 -3.2,0.78 h -2.5 v -6.32 h 2.32 c 1.51,0 2.64,0.25 3.42,0.75 0.76,0.49 1.14,1.31 1.14,2.42 0,1.06 -0.4,1.86 -1.18,2.37 z"
           id="path10" />
        <path
           d="M 56.51,106.22 47.23,88.15 h -7.41 v 25.35 h 5.6 V 95.57 l 9.24,17.53 0.21,0.4 H 62.1 V 88.15 h -5.59 z"
           id="path11" />
        <path
           d="m 162.07,103.31 h 4.59 v 5.6 c -0.35,0.13 -0.75,0.24 -1.22,0.33 -0.48,0.1 -1.06,0.14 -1.76,0.14 -2.57,0 -4.65,-0.78 -6.22,-2.33 -1.58,-1.56 -2.38,-3.61 -2.38,-6.19 0,-2.66 0.88,-4.76 2.59,-6.31 1.73,-1.53 4.06,-2.31 7.02,-2.31 1.19,0 2.36,0.13 3.49,0.38 1.15,0.26 2.18,0.64 3.14,1.15 l 0.4,-4.65 v -0.25 c -0.92,-0.37 -2.04,-0.65 -3.34,-0.86 -1.3,-0.21 -2.78,-0.3 -4.45,-0.3 -4.68,0 -8.35,1.15 -11,3.44 -2.65,2.28 -3.98,5.51 -3.98,9.68 0,4.14 1.29,7.37 3.87,9.65 2.59,2.29 6.17,3.44 10.75,3.44 1.7,0 3.37,-0.16 5.01,-0.46 1.63,-0.3 2.91,-0.59 3.84,-0.88 V 98.92 h -10.33 v 4.39 z"
           id="path12" />
        <path
           d="m 370.85,103.31 h 4.59 v 5.6 c -0.34,0.13 -0.73,0.24 -1.21,0.33 -0.48,0.1 -1.07,0.14 -1.77,0.14 -2.56,0 -4.65,-0.78 -6.21,-2.33 -1.58,-1.56 -2.37,-3.61 -2.37,-6.19 0,-2.66 0.86,-4.76 2.58,-6.31 1.72,-1.53 4.06,-2.31 7.02,-2.31 1.19,0 2.36,0.13 3.49,0.38 1.15,0.26 2.18,0.64 3.14,1.15 l 0.38,-4.65 v -0.25 c -0.91,-0.37 -2.02,-0.65 -3.31,-0.86 -1.31,-0.21 -2.79,-0.3 -4.46,-0.3 -4.68,0 -8.34,1.15 -11,3.44 -2.66,2.28 -3.98,5.51 -3.98,9.68 0,4.14 1.29,7.37 3.87,9.65 2.6,2.29 6.18,3.44 10.75,3.44 1.69,0 3.38,-0.16 5,-0.46 1.64,-0.3 2.91,-0.59 3.84,-0.88 V 98.92 h -10.33 v 4.39 z"
           id="path13" />
        <path
           d="m 386.24,88.15 h 5.97 v 25.35 h -5.97 z"
           id="path14" />
        <path
           d="m 200.07,103.31 h 4.57 v 5.6 c -0.34,0.13 -0.74,0.24 -1.21,0.33 -0.48,0.1 -1.07,0.14 -1.76,0.14 -2.58,0 -4.66,-0.78 -6.23,-2.33 -1.58,-1.56 -2.36,-3.61 -2.36,-6.19 0,-2.66 0.86,-4.76 2.58,-6.31 1.73,-1.53 4.06,-2.31 7.02,-2.31 1.19,0 2.35,0.13 3.49,0.38 1.14,0.26 2.18,0.64 3.13,1.15 l 0.4,-4.65 v -0.25 c -0.92,-0.37 -2.03,-0.65 -3.33,-0.86 -1.3,-0.21 -2.78,-0.3 -4.45,-0.3 -4.68,0 -8.34,1.15 -11,3.44 -2.65,2.28 -3.99,5.51 -3.99,9.68 0,4.14 1.29,7.37 3.87,9.65 2.59,2.29 6.17,3.44 10.75,3.44 1.7,0 3.37,-0.16 5,-0.46 1.64,-0.3 2.91,-0.59 3.84,-0.88 V 98.92 h -10.32 z"
           id="path15" />
        <path
           d="m 347.99,106.22 -9.27,-18.07 h -7.42 v 25.35 h 5.59 V 95.57 l 9.24,17.53 0.23,0.4 h 7.23 V 88.15 h -5.6 z"
           id="path16" />
        <path
           d="m 414.09,106.22 -9.27,-18.07 h -7.41 V 113.5 H 403 V 95.57 l 9.24,17.53 0.22,0.4 h 7.23 V 88.15 h -5.6 z"
           id="path17" />
        <path
           d="m 430.84,109.09 v -6.43 h 9.84 V 98.3 h -9.84 v -5.78 h 10.62 v -4.37 h -16.59 v 25.35 h 16.79 v -4.41 z"
           id="path18" />
        <path
           d="m 257.88,105.83 -5.89,-17.68 h -9.24 v 25.35 h 5.78 l -0.08,-20.14 6.67,19.74 h 5.31 l 6.8,-19.71 -0.07,20.11 h 5.73 V 88.15 h -8.98 z"
           id="path19" />
        <path
           d="m 222.89,88.15 -9.81,25.35 h 6.11 l 2.07,-5.57 h 10.08 l 2.04,5.57 h 6.54 l -10,-25.35 z m -0.06,15.38 3.57,-10.29 3.41,10.29 z"
           id="path20" />
        <path
           d="m 283.96,102.66 h 9.84 V 98.3 h -9.84 v -5.78 h 10.62 v -4.37 h -16.59 v 25.35 h 16.8 v -4.41 h -10.83 z"
           id="path21" />
        <path
           d="m 315.89,102.66 h 9.85 V 98.3 h -9.85 v -5.78 h 10.6 v -4.37 h -16.57 v 25.35 h 16.8 v -4.41 h -10.83 z"
           id="path22" />
      </g>
      <path
         d="m 110.45,6.87 c -26.86,0 -48.64,21.77 -48.64,48.64 0,9.23 2.61,17.73 7.08,25.09 h 2.79 c 9.46,-9.46 31.04,-30.95 36.9,-36.82 3.38,3.38 8.01,-1.17 9.35,-2.65 -0.73,-0.72 -1.51,-1.51 -2.32,-2.32 -3.21,-3.2 -5.97,1.7 -5.97,1.7 l -7.03,-7.04 c 0,0 10.97,-5 16.93,0.96 2.14,2.14 3.54,3.54 4.47,4.47 l 8.17,-8.17 c -0.78,-2.15 -0.33,-4.64 1.39,-6.37 2.37,-2.37 6.21,-2.37 8.57,0 2.38,2.36 2.38,6.2 0,8.57 -1.71,1.71 -4.19,2.17 -6.31,1.4 l -8.19,8.18 c 0.93,0.94 2.32,2.33 4.44,4.45 5.98,5.97 0.96,16.94 0.96,16.94 l -7.03,-7.04 c 0,0 4.89,-2.76 1.69,-5.96 -0.81,-0.81 -1.59,-1.59 -2.32,-2.32 -1.48,1.35 -6.03,5.98 -2.65,9.35 -3.68,3.68 -13.55,13.46 -22.74,22.65 h 51.98 c 4.47,-7.36 7.08,-15.86 7.08,-25.09 0.04,-26.85 -21.73,-48.62 -48.6,-48.62 z"
         fill="#ffbc00"
         id="path23" />
    </g>
  </g>
</svg>
