<?xml version="1.0" encoding="UTF-8" standalone="no"?>
<svg
   enable-background="new 0 0 3840 1449.1"
   height="1450"
   viewBox="0 0 3840 1450"
   width="3840"
   version="1.1"
   id="svg19"
   sodipodi:docname="trs-80.svg"
   inkscape:version="1.3.2 (091e20e, 2023-11-25)"
   xmlns:inkscape="http://www.inkscape.org/namespaces/inkscape"
   xmlns:sodipodi="http://sodipodi.sourceforge.net/DTD/sodipodi-0.dtd"
   xmlns:xlink="http://www.w3.org/1999/xlink"
   xmlns="http://www.w3.org/2000/svg"
   xmlns:svg="http://www.w3.org/2000/svg">
  <defs
     id="defs19" />
  <sodipodi:namedview
     id="namedview19"
     pagecolor="#ffffff"
     bordercolor="#000000"
     borderopacity="0.25"
     inkscape:showpageshadow="2"
     inkscape:pageopacity="0.0"
     inkscape:pagecheckerboard="0"
     inkscape:deskcolor="#d1d1d1"
     inkscape:zoom="0.16285627"
     inkscape:cx="1921.9402"
     inkscape:cy="724.56531"
     inkscape:window-width="1312"
     inkscape:window-height="449"
     inkscape:window-x="0"
     inkscape:window-y="23"
     inkscape:window-maximized="0"
     inkscape:current-layer="svg19" />
  <linearGradient
     id="a">
    <stop
       offset="0"
       stop-color="#fff"
       id="stop1" />
    <stop
       offset="1"
       stop-color="#a5a7aa"
       id="stop2" />
    <stop
       offset="1"
       id="stop3" />
  </linearGradient>
  <linearGradient
     id="b"
     gradientUnits="userSpaceOnUse"
     x1="1334.2228"
     x2="1334.2228"
     xlink:href="#a"
     y1="257.5545"
     y2="610.62848" />
  <linearGradient
     id="c"
     gradientUnits="userSpaceOnUse"
     x1="2077.7502"
     x2="2077.7502"
     xlink:href="#a"
     y1="154.5746"
     y2="610.62842" />
  <linearGradient
     id="d"
     gradientUnits="userSpaceOnUse"
     x1="2407.2368"
     x2="2407.2368"
     xlink:href="#a"
     y1="154.5746"
     y2="610.62842" />
  <linearGradient
     id="e"
     gradientUnits="userSpaceOnUse"
     x1="3495.8303"
     x2="3495.8303"
     xlink:href="#a"
     y1="154.5746"
     y2="610.62842" />
  <linearGradient
     id="f"
     gradientUnits="userSpaceOnUse"
     x1="1047.3422"
     x2="1047.3422"
     xlink:href="#a"
     y1="154.5746"
     y2="610.62842" />
  <linearGradient
     id="g"
     gradientUnits="userSpaceOnUse"
     x1="685.77112"
     x2="685.77112"
     xlink:href="#a"
     y1="257.5546"
     y2="610.62842" />
  <linearGradient
     id="h"
     gradientUnits="userSpaceOnUse"
     x1="2749.7371"
     x2="2749.7371"
     xlink:href="#a"
     y1="257.5546"
     y2="610.62842" />
  <linearGradient
     id="i"
     gradientUnits="userSpaceOnUse"
     x1="362.29971"
     x2="362.29971"
     xlink:href="#a"
     y1="154.5746"
     y2="610.62842" />
  <linearGradient
     id="j"
     gradientUnits="userSpaceOnUse"
     x1="1616.958"
     x2="1616.958"
     xlink:href="#a"
     y1="243.7625"
     y2="624.42047" />
  <linearGradient
     id="k"
     gradientUnits="userSpaceOnUse"
     x1="3123.0393"
     x2="3123.0393"
     xlink:href="#a"
     y1="243.7625"
     y2="624.42047" />
  <g
     id="g19"
     transform="scale(1,1.0005999)">
    <path
       d="M 3755.9,779 H 84.1 C 37.7,779 0,741.3 0,694.9 V 84.1 C 0,37.7 37.7,0 84.1,0 h 3671.8 c 46.5,0 84.1,37.7 84.1,84.1 v 610.7 c 0,46.5 -37.7,84.2 -84.1,84.2 z"
       id="path3" />
    <path
       d="m 1263.9,257.6 h 140.7 v 353.1 h -140.7 z"
       fill="url(#b)"
       id="path4"
       style="fill:url(#b)" />
    <path
       d="m 2007.4,308.7 v 113.1 c 0,26.6 -21.5,48.1 -48.1,48.1 h -38.9 v 140.7 h 73.5 c 85.1,0 154.2,-69 154.2,-154.2 v -113 c 0,-26.6 21.5,-48.1 48.1,-48.1 h 38.9 V 154.6 h -73.5 c -85.2,0 -154.2,69 -154.2,154.1 z"
       fill="url(#c)"
       id="path5"
       style="fill:url(#c)" />
    <path
       d="m 2388.4,257.6 v -103 h -140.7 v 456.1 h 140.7 V 388 c 0,-10.4 8.4,-18.8 18.8,-18.8 10.4,0 18.8,8.4 18.8,18.8 v 222.7 h 140.7 V 358.3 c 0,-55.7 -45.1,-100.8 -100.8,-100.8 h -77.5 z"
       fill="url(#d)"
       id="path6"
       style="fill:url(#d)" />
    <path
       d="M 3661.7,610.6 3584.1,406.8 3652.7,302 h -148.6 l -62.7,95.8 V 154.6 h -111.6 v 456.1 h 111.6 v -96 c 0,-17.8 24.7,-22.3 31,-5.7 l 38.7,101.7 h 150.6 z"
       fill="url(#e)"
       id="path7"
       style="fill:url(#e)" />
    <path
       d="m 1097.8,154.6 v 103 h -52.7 c -97.5,0 -176.5,79 -176.5,176.5 0,97.5 79,176.5 176.5,176.5 h 52.7 52.6 75.8 v -456 z m -50.5,387.7 c -31.1,0 -56.3,-25.2 -56.3,-56.3 0,-31.1 25.2,-56.3 56.3,-56.3 31.1,0 56.3,25.2 56.3,56.3 0,31.1 -25.2,56.3 -56.3,56.3 z"
       fill="url(#f)"
       id="path8"
       style="fill:url(#f)" />
    <path
       d="M 747.5,257.6 H 561.4 v 111.6 h 112 c 8,0 14.6,6.5 14.6,14.6 0,8 -6.5,14.6 -14.6,14.6 h -41.8 c -57.9,0 -106.8,45.4 -108.4,103.2 -1.6,60 46.5,109.2 106.2,109.2 h 58.6 19.6 103 18.1 19.6 V 358.3 c 0,-55.6 -45.1,-100.7 -100.8,-100.7 z m -75.8,284.7 c -31.1,0 -56.3,-25.2 -56.3,-56.3 0,-31.1 25.2,-56.3 56.3,-56.3 31.1,0 56.3,25.2 56.3,56.3 0,31.1 -25.1,56.3 -56.3,56.3 z"
       fill="url(#g)"
       id="path9"
       style="fill:url(#g)" />
    <path
       d="m 2811.5,257.6 h -186.1 v 111.6 h 112 c 8,0 14.6,6.5 14.6,14.6 0,8 -6.5,14.6 -14.6,14.6 h -41.8 c -57.9,0 -106.8,45.4 -108.4,103.2 -1.6,60 46.5,109.2 106.2,109.2 h 58.5 19.6 103 18.1 19.6 V 358.3 c 0.1,-55.6 -45.1,-100.7 -100.7,-100.7 z m -75.8,284.7 c -31.1,0 -56.3,-25.2 -56.3,-56.3 0,-31.1 25.2,-56.3 56.3,-56.3 31.1,0 56.3,25.2 56.3,56.3 0,31.1 -25.2,56.3 -56.3,56.3 z"
       fill="url(#h)"
       id="path10"
       style="fill:url(#h)" />
    <path
       d="m 443.1,417.1 c 52.3,-18.7 89.8,-68.6 89.8,-127.3 0,-74.6 -60.5,-135.2 -135.2,-135.2 -2.8,0 -207.2,0 -207.2,0 V 610.7 H 319 v -87.9 c 0,-16.2 22,-21.1 28.9,-6.4 l 44.3,94.4 H 534 Z m -102.4,33.2 c -31.1,0 -56.3,-25.2 -56.3,-56.3 0,-31.1 25.2,-56.3 56.3,-56.3 31.1,0 56.3,25.2 56.3,56.3 0,31.1 -25.2,56.3 -56.3,56.3 z"
       fill="url(#i)"
       id="path11"
       style="fill:url(#i)" />
    <path
       d="m 1617,243.8 c -105.1,0 -190.3,85.2 -190.3,190.3 0,105.1 85.2,190.3 190.3,190.3 105.1,0 190.3,-85.2 190.3,-190.3 0,-105.1 -85.2,-190.3 -190.3,-190.3 z m 0,298.5 c -31.1,0 -56.3,-25.2 -56.3,-56.3 0,-31.1 25.2,-56.3 56.3,-56.3 31.1,0 56.3,25.2 56.3,56.3 0,31.1 -25.2,56.3 -56.3,56.3 z"
       fill="url(#j)"
       id="path12"
       style="fill:url(#j)" />
    <path
       d="m 3175.5,506.2 c -8.1,21.1 -28.5,36.1 -52.5,36.1 -31.1,0 -56.3,-25.2 -56.3,-56.3 0,-31.1 25.2,-56.3 56.3,-56.3 24,0 44.4,15 52.5,36.1 h 135.2 c 1.7,-10.3 2.7,-20.9 2.7,-31.6 0,-105.1 -85.2,-190.3 -190.3,-190.3 -105.1,0 -190.3,85.2 -190.3,190.3 0,105.1 85.2,190.3 190.3,190.3 79.6,0 147.7,-48.9 176.2,-118.2 h -123.8 z"
       fill="url(#k)"
       id="path13"
       style="fill:url(#k)" />
    <path
       d="m 394.5,1056.8 v 384.4 H 229.7 V 1056.8 H 0 V 925.3 h 624.2 v 131.5 z"
       id="path14" />
    <path
       d="m 1328.9,1199.9 c -17,29.4 -47.2,36.4 -78.9,41.8 78.1,5.4 90.5,43.3 90.5,115.3 v 84.3 h -154.7 c 0,-30.9 1.6,-63.4 -4.6,-93.6 -7,-34 -30.9,-37.1 -61.9,-37.1 H 860.9 v 130.7 h -157 v -516 h 379.8 c 27.8,0 56.5,0.8 84.3,0.8 58.8,0.8 124.5,-5.4 159.3,52.6 20.1,33.3 18.6,79.7 18.6,116.8 0,34 0.8,74.2 -17,104.4 z m -205,-145.4 h -263 v 126.9 h 221.2 c 11.6,0 23.2,-0.8 34.8,-0.8 56.5,-1.5 71.9,-3.1 71.9,-65 0.1,-52.6 -13.1,-61.1 -64.9,-61.1 z"
       id="path15" />
    <path
       d="m 2018.9,1408 c -37.1,40.2 -118.3,38.7 -168.6,39.4 -40.2,1.6 -80.4,1.6 -120.7,1.6 -67.3,0 -148.5,2.3 -214.2,-12.4 -24.8,-5.4 -46.4,-15.5 -64.2,-33.3 -26.3,-25.5 -29.4,-58.8 -29.4,-93.6 0,-13.2 0.8,-26.3 1.6,-39.5 H 1575 c 0,11.6 0,22.4 3.9,33.3 2.3,7 5.4,11.6 11.6,16.2 14.7,11.6 58.8,10.1 75.8,10.1 22.4,0 44.1,0.8 66.5,0.8 27.8,0 54.9,-0.8 82.8,-0.8 19.3,0 68.1,2.3 81.2,-16.2 5.4,-8.5 5.4,-20.1 5.4,-29.4 0,-39.4 -30.9,-37.9 -62.6,-38.7 -82.8,-2.3 -165.5,-7 -248.3,-10.1 -44.9,-1.5 -102.1,-3.1 -134.6,-39.4 -27.1,-30.2 -29.4,-73.5 -29.4,-112.2 0,-92 24,-150 123,-160.1 66.5,-7 135.4,-6.2 202.6,-6.2 65,0 133.8,-1.5 197.2,13.9 70.4,17.8 85.1,64.2 85.1,131.5 v 24.8 h -152.4 v -7.7 c 0,-14.7 -1.6,-25.5 -14.7,-34 -14.7,-10.1 -49.5,-9.3 -66.5,-9.3 h -133.8 c -16.2,0 -61.9,-0.8 -75.8,9.3 -10.1,7 -12.4,19.3 -12.4,30.9 0,9.3 2.3,21.7 10.1,27.8 5.4,4.6 13.2,6.2 20.1,7 17.8,3.1 36.3,3.1 54.1,3.9 34.8,1.6 69.6,3.1 104.4,3.9 59.6,1.6 144.6,0.8 202.7,16.2 18.6,5.4 34.8,13.2 49.5,26.3 31.7,27.8 33.3,81.2 33.3,119.9 -0.1,43.3 -3.9,92.8 -34.9,126.1 z"
       id="path16" />
    <path
       d="m 3057.9,1415.7 c -51,37.1 -174,31.7 -235.1,31.7 h -70.4 c -63.4,0 -167.8,4.6 -222,-31.7 -36.4,-24.7 -39.5,-74.2 -39.5,-114.5 0,-34 3.1,-70.4 27.8,-95.9 18.6,-19.3 47.2,-23.2 72.7,-27.8 -11.6,-0.8 -24,-1.5 -35.6,-4.6 -51.8,-13.9 -58.8,-65 -58.8,-111.4 0,-75 22.4,-119.1 100.5,-131.5 64.2,-10.1 131.5,-10.8 196.5,-10.8 35.6,0 71.2,0.8 106.7,2.3 45.6,2.3 110.6,3.9 149.3,30.2 35.6,24 41,72.7 41,112.1 0,30.2 -3.9,65 -24,88.2 -18.6,21.7 -43.3,24 -70.4,25.5 27.8,4.6 51.8,7.7 72.7,27.8 27.1,25.5 27.8,70.4 27.8,105.2 0.3,38.7 -5.1,81.2 -39.2,105.2 z M 2938,1247.9 c -11.6,-11.6 -54.1,-10.8 -68.8,-10.8 -27.8,-0.8 -55.7,-1.6 -83.5,-1.6 -25.5,0 -116,-2.3 -133,10.1 -11.6,8.5 -11.6,27.8 -11.6,41 0,11.6 0.8,24.7 10.1,33.3 17.8,15.5 112.9,11.6 135.4,11.6 27.1,0 54.1,-0.8 81.2,-1.5 19.3,0 65.7,2.3 75.8,-20.1 3.9,-8.5 3.9,-20.1 3.9,-29.4 -0.2,-11 -0.9,-24.9 -9.5,-32.6 z m -68.8,-211.2 c -30.9,-0.8 -61.1,-1.5 -92,-1.5 -31.7,0 -65,-0.8 -96.7,3.9 -26.3,3.9 -33.3,17.8 -33.3,43.3 0,27.1 9.3,36.3 35.6,39.4 54.9,5.4 113.7,3.1 168.6,3.1 17.8,0 69.6,0 82,-12.4 7.7,-7.7 7.7,-22.4 7.7,-32.5 0,-44.8 -36.3,-42.5 -71.9,-43.3 z"
       id="path17" />
    <path
       d="m 3724.7,1438.1 c -61.9,10.1 -145.4,9.3 -208.1,9.3 -38.7,0 -76.6,-0.8 -115.3,-1.5 -85.1,-1.6 -184.1,-4.6 -202.6,-107.5 -8.5,-48 -6.2,-106 -6.2,-154.7 0,-30.9 0,-61.1 0.8,-92 0.8,-43.3 3.9,-92.8 35.6,-126.1 20.9,-21.7 50.3,-32.5 79.7,-37.1 61.9,-10.1 144.6,-9.3 208.1,-9.3 37.9,0 76.6,1.5 114.5,2.3 132.3,3.1 208.8,17 208.8,170.2 v 184.1 c 0,85.8 -21.7,146.9 -115.3,162.3 z m -75,-375.1 c -17.8,-7.7 -44.1,-8.5 -63.4,-8.5 -30.9,0 -61.9,-0.8 -93.6,-0.8 -31.7,0 -66.5,-0.8 -97.5,6.2 -9.3,2.3 -18.6,5.4 -25.5,13.2 -20.9,21.7 -19.3,82.8 -19.3,110.6 0,25.5 -1.6,85.9 16.2,106.7 7.7,9.3 17,13.2 28.6,16.2 33.3,7.7 88.2,7.7 123,7 l 68.1,-1.5 c 19.3,-0.8 45.6,-0.8 63.4,-9.3 38.7,-17 33.3,-85.1 33.3,-119.1 0,-34.1 5.4,-102.9 -33.3,-120.7 z"
       id="path18" />
    <path
       d="m 2162.7,1189.6 h 205.2 v 136.8 h -205.2 z"
       id="path19" />
  </g>
</svg>
