<svg enable-background="new 0 0 3840 1449.1" viewBox="0 0 3840 1449.1" xmlns="http://www.w3.org/2000/svg" xmlns:xlink="http://www.w3.org/1999/xlink"><linearGradient id="a"><stop offset="0" stop-color="#fff"/><stop offset="1" stop-color="#a5a7aa"/><stop offset="1"/></linearGradient><linearGradient id="b" gradientUnits="userSpaceOnUse" x1="1334.2228" x2="1334.2228" xlink:href="#a" y1="257.5545" y2="610.6285"/><linearGradient id="c" gradientUnits="userSpaceOnUse" x1="2077.7502" x2="2077.7502" xlink:href="#a" y1="154.5746" y2="610.6284"/><linearGradient id="d" gradientUnits="userSpaceOnUse" x1="2407.2368" x2="2407.2368" xlink:href="#a" y1="154.5746" y2="610.6284"/><linearGradient id="e" gradientUnits="userSpaceOnUse" x1="3495.8303" x2="3495.8303" xlink:href="#a" y1="154.5746" y2="610.6284"/><linearGradient id="f" gradientUnits="userSpaceOnUse" x1="1047.3422" x2="1047.3422" xlink:href="#a" y1="154.5746" y2="610.6284"/><linearGradient id="g" gradientUnits="userSpaceOnUse" x1="685.7711" x2="685.7711" xlink:href="#a" y1="257.5546" y2="610.6284"/><linearGradient id="h" gradientUnits="userSpaceOnUse" x1="2749.7371" x2="2749.7371" xlink:href="#a" y1="257.5546" y2="610.6284"/><linearGradient id="i" gradientUnits="userSpaceOnUse" x1="362.2997" x2="362.2997" xlink:href="#a" y1="154.5746" y2="610.6284"/><linearGradient id="j" gradientUnits="userSpaceOnUse" x1="1616.958" x2="1616.958" xlink:href="#a" y1="243.7625" y2="624.4205"/><linearGradient id="k" gradientUnits="userSpaceOnUse" x1="3123.0393" x2="3123.0393" xlink:href="#a" y1="243.7625" y2="624.4205"/><path d="m3755.9 779h-3671.8c-46.4 0-84.1-37.7-84.1-84.1v-610.8c0-46.4 37.7-84.1 84.1-84.1h3671.8c46.5 0 84.1 37.7 84.1 84.1v610.7c0 46.5-37.7 84.2-84.1 84.2z"/><path d="m1263.9 257.6h140.7v353.1h-140.7z" fill="url(#b)"/><path d="m2007.4 308.7v113.1c0 26.6-21.5 48.1-48.1 48.1h-38.9v140.7h73.5c85.1 0 154.2-69 154.2-154.2v-113c0-26.6 21.5-48.1 48.1-48.1h38.9v-140.7h-73.5c-85.2 0-154.2 69-154.2 154.1z" fill="url(#c)"/><path d="m2388.4 257.6v-103h-140.7v456.1h140.7v-222.7c0-10.4 8.4-18.8 18.8-18.8s18.8 8.4 18.8 18.8v222.7h140.7v-252.4c0-55.7-45.1-100.8-100.8-100.8h-77.5z" fill="url(#d)"/><path d="m3661.7 610.6-77.6-203.8 68.6-104.8h-148.6l-62.7 95.8v-243.2h-111.6v456.1h111.6v-96c0-17.8 24.7-22.3 31-5.7l38.7 101.7h150.6z" fill="url(#e)"/><path d="m1097.8 154.6v103h-52.7c-97.5 0-176.5 79-176.5 176.5s79 176.5 176.5 176.5h52.7 52.6 75.8v-456zm-50.5 387.7c-31.1 0-56.3-25.2-56.3-56.3s25.2-56.3 56.3-56.3 56.3 25.2 56.3 56.3-25.2 56.3-56.3 56.3z" fill="url(#f)"/><path d="m747.5 257.6h-186.1v111.6h112c8 0 14.6 6.5 14.6 14.6 0 8-6.5 14.6-14.6 14.6h-41.8c-57.9 0-106.8 45.4-108.4 103.2-1.6 60 46.5 109.2 106.2 109.2h58.6 19.6 103 18.1 19.6v-252.5c0-55.6-45.1-100.7-100.8-100.7zm-75.8 284.7c-31.1 0-56.3-25.2-56.3-56.3s25.2-56.3 56.3-56.3 56.3 25.2 56.3 56.3-25.1 56.3-56.3 56.3z" fill="url(#g)"/><path d="m2811.5 257.6h-186.1v111.6h112c8 0 14.6 6.5 14.6 14.6 0 8-6.5 14.6-14.6 14.6h-41.8c-57.9 0-106.8 45.4-108.4 103.2-1.6 60 46.5 109.2 106.2 109.2h58.5 19.6 103 18.1 19.6v-252.5c.1-55.6-45.1-100.7-100.7-100.7zm-75.8 284.7c-31.1 0-56.3-25.2-56.3-56.3s25.2-56.3 56.3-56.3 56.3 25.2 56.3 56.3-25.2 56.3-56.3 56.3z" fill="url(#h)"/><path d="m443.1 417.1c52.3-18.7 89.8-68.6 89.8-127.3 0-74.6-60.5-135.2-135.2-135.2-2.8 0-207.2 0-207.2 0v456.1h128.5v-87.9c0-16.2 22-21.1 28.9-6.4l44.3 94.4h141.8zm-102.4 33.2c-31.1 0-56.3-25.2-56.3-56.3s25.2-56.3 56.3-56.3 56.3 25.2 56.3 56.3-25.2 56.3-56.3 56.3z" fill="url(#i)"/><path d="m1617 243.8c-105.1 0-190.3 85.2-190.3 190.3s85.2 190.3 190.3 190.3 190.3-85.2 190.3-190.3-85.2-190.3-190.3-190.3zm0 298.5c-31.1 0-56.3-25.2-56.3-56.3s25.2-56.3 56.3-56.3 56.3 25.2 56.3 56.3-25.2 56.3-56.3 56.3z" fill="url(#j)"/><path d="m3175.5 506.2c-8.1 21.1-28.5 36.1-52.5 36.1-31.1 0-56.3-25.2-56.3-56.3s25.2-56.3 56.3-56.3c24 0 44.4 15 52.5 36.1h135.2c1.7-10.3 2.7-20.9 2.7-31.6 0-105.1-85.2-190.3-190.3-190.3s-190.3 85.2-190.3 190.3 85.2 190.3 190.3 190.3c79.6 0 147.7-48.9 176.2-118.2h-123.8z" fill="url(#k)"/><path d="m394.5 1056.8v384.4h-164.8v-384.4h-229.7v-131.5h624.2v131.5z"/><path d="m1328.9 1199.9c-17 29.4-47.2 36.4-78.9 41.8 78.1 5.4 90.5 43.3 90.5 115.3v84.3h-154.7c0-30.9 1.6-63.4-4.6-93.6-7-34-30.9-37.1-61.9-37.1h-258.4v130.7h-157v-516h379.8c27.8 0 56.5.8 84.3.8 58.8.8 124.5-5.4 159.3 52.6 20.1 33.3 18.6 79.7 18.6 116.8 0 34 .8 74.2-17 104.4zm-205-145.4h-263v126.9h221.2c11.6 0 23.2-.8 34.8-.8 56.5-1.5 71.9-3.1 71.9-65 .1-52.6-13.1-61.1-64.9-61.1z"/><path d="m2018.9 1408c-37.1 40.2-118.3 38.7-168.6 39.4-40.2 1.6-80.4 1.6-120.7 1.6-67.3 0-148.5 2.3-214.2-12.4-24.8-5.4-46.4-15.5-64.2-33.3-26.3-25.5-29.4-58.8-29.4-93.6 0-13.2.8-26.3 1.6-39.5h151.6c0 11.6 0 22.4 3.9 33.3 2.3 7 5.4 11.6 11.6 16.2 14.7 11.6 58.8 10.1 75.8 10.1 22.4 0 44.1.8 66.5.8 27.8 0 54.9-.8 82.8-.8 19.3 0 68.1 2.3 81.2-16.2 5.4-8.5 5.4-20.1 5.4-29.4 0-39.4-30.9-37.9-62.6-38.7-82.8-2.3-165.5-7-248.3-10.1-44.9-1.5-102.1-3.1-134.6-39.4-27.1-30.2-29.4-73.5-29.4-112.2 0-92 24-150 123-160.1 66.5-7 135.4-6.2 202.6-6.2 65 0 133.8-1.5 197.2 13.9 70.4 17.8 85.1 64.2 85.1 131.5v24.8h-152.4v-7.7c0-14.7-1.6-25.5-14.7-34-14.7-10.1-49.5-9.3-66.5-9.3h-133.8c-16.2 0-61.9-.8-75.8 9.3-10.1 7-12.4 19.3-12.4 30.9 0 9.3 2.3 21.7 10.1 27.8 5.4 4.6 13.2 6.2 20.1 7 17.8 3.1 36.3 3.1 54.1 3.9 34.8 1.6 69.6 3.1 104.4 3.9 59.6 1.6 144.6.8 202.7 16.2 18.6 5.4 34.8 13.2 49.5 26.3 31.7 27.8 33.3 81.2 33.3 119.9-.1 43.3-3.9 92.8-34.9 126.1z"/><path d="m3057.9 1415.7c-51 37.1-174 31.7-235.1 31.7h-70.4c-63.4 0-167.8 4.6-222-31.7-36.4-24.7-39.5-74.2-39.5-114.5 0-34 3.1-70.4 27.8-95.9 18.6-19.3 47.2-23.2 72.7-27.8-11.6-.8-24-1.5-35.6-4.6-51.8-13.9-58.8-65-58.8-111.4 0-75 22.4-119.1 100.5-131.5 64.2-10.1 131.5-10.8 196.5-10.8 35.6 0 71.2.8 106.7 2.3 45.6 2.3 110.6 3.9 149.3 30.2 35.6 24 41 72.7 41 112.1 0 30.2-3.9 65-24 88.2-18.6 21.7-43.3 24-70.4 25.5 27.8 4.6 51.8 7.7 72.7 27.8 27.1 25.5 27.8 70.4 27.8 105.2.3 38.7-5.1 81.2-39.2 105.2zm-119.9-167.8c-11.6-11.6-54.1-10.8-68.8-10.8-27.8-.8-55.7-1.6-83.5-1.6-25.5 0-116-2.3-133 10.1-11.6 8.5-11.6 27.8-11.6 41 0 11.6.8 24.7 10.1 33.3 17.8 15.5 112.9 11.6 135.4 11.6 27.1 0 54.1-.8 81.2-1.5 19.3 0 65.7 2.3 75.8-20.1 3.9-8.5 3.9-20.1 3.9-29.4-.2-11-.9-24.9-9.5-32.6zm-68.8-211.2c-30.9-.8-61.1-1.5-92-1.5-31.7 0-65-.8-96.7 3.9-26.3 3.9-33.3 17.8-33.3 43.3 0 27.1 9.3 36.3 35.6 39.4 54.9 5.4 113.7 3.1 168.6 3.1 17.8 0 69.6 0 82-12.4 7.7-7.7 7.7-22.4 7.7-32.5 0-44.8-36.3-42.5-71.9-43.3z"/><path d="m3724.7 1438.1c-61.9 10.1-145.4 9.3-208.1 9.3-38.7 0-76.6-.8-115.3-1.5-85.1-1.6-184.1-4.6-202.6-107.5-8.5-48-6.2-106-6.2-154.7 0-30.9 0-61.1.8-92 .8-43.3 3.9-92.8 35.6-126.1 20.9-21.7 50.3-32.5 79.7-37.1 61.9-10.1 144.6-9.3 208.1-9.3 37.9 0 76.6 1.5 114.5 2.3 132.3 3.1 208.8 17 208.8 170.2v184.1c0 85.8-21.7 146.9-115.3 162.3zm-75-375.1c-17.8-7.7-44.1-8.5-63.4-8.5-30.9 0-61.9-.8-93.6-.8s-66.5-.8-97.5 6.2c-9.3 2.3-18.6 5.4-25.5 13.2-20.9 21.7-19.3 82.8-19.3 110.6 0 25.5-1.6 85.9 16.2 106.7 7.7 9.3 17 13.2 28.6 16.2 33.3 7.7 88.2 7.7 123 7l68.1-1.5c19.3-.8 45.6-.8 63.4-9.3 38.7-17 33.3-85.1 33.3-119.1 0-34.1 5.4-102.9-33.3-120.7z"/><path d="m2162.7 1189.6h205.2v136.8h-205.2z"/></svg>