<?xml version="1.0" encoding="UTF-8" standalone="no"?>
<svg
   enable-background="new 0 0 3839 1060.5"
   height="1060"
   viewBox="0 0 3840 1060"
   width="3840"
   version="1.1"
   id="svg21"
   sodipodi:docname="virtualboy.svg"
   inkscape:version="1.3.2 (091e20e, 2023-11-25)"
   xmlns:inkscape="http://www.inkscape.org/namespaces/inkscape"
   xmlns:sodipodi="http://sodipodi.sourceforge.net/DTD/sodipodi-0.dtd"
   xmlns="http://www.w3.org/2000/svg"
   xmlns:svg="http://www.w3.org/2000/svg">
  <defs
     id="defs21" />
  <sodipodi:namedview
     id="namedview21"
     pagecolor="#ffffff"
     bordercolor="#000000"
     borderopacity="0.25"
     inkscape:showpageshadow="2"
     inkscape:pageopacity="0.0"
     inkscape:pagecheckerboard="0"
     inkscape:deskcolor="#d1d1d1"
     inkscape:zoom="0.22247859"
     inkscape:cx="1919.2858"
     inkscape:cy="530.38812"
     inkscape:window-width="1312"
     inkscape:window-height="449"
     inkscape:window-x="0"
     inkscape:window-y="23"
     inkscape:window-maximized="0"
     inkscape:current-layer="svg21" />
  <g
     id="g22"
     transform="scale(1,0.99926821)">
    <g
       transform="scale(1.0002605)"
       id="g21">
      <g
         fill="#780117"
         id="g10">
        <path
           d="M 1403.7,26.7 H 1296.3 1188.4 1081 v 111.7 h 107.4 v 862.5 h 107.9 V 138.4 h 107.4 z"
           id="path1" />
        <path
           d="M 1665.8,26.7 V 889 h -107 V 26.7 H 1451 v 816.2 c 0,92.2 72.2,167.1 161.4,167.1 89.1,0 161.4,-74.8 161.4,-167.1 V 26.7 Z"
           id="path2" />
        <path
           d="m 2073,1000.9 h 92 L 1971.5,0 1778,1000.9 h 92 l 22.3,-115 h 158.5 z m -159.3,-226.7 57.7,-298.5 57.7,298.5 z"
           id="path3" />
        <path
           d="M 54.5,26.7 247.9,1027.6 441.3,26.7 H 349.4 L 247.9,551.9 146.4,26.7 Z"
           id="path4" />
        <path
           d="m 2943.3,169.9 c 0,-79 -61.9,-143 -138.2,-143 h -76.6 -75.9 -32 v 974 h 32 152.5 c 76.3,0 138.2,-64 138.2,-143 V 612.3 c 0,-32.3 -15,-71.7 -38.3,-98.4 23.2,-26.6 38.3,-66.1 38.3,-98.4 z M 2835.5,138.4 V 458 h -107 V 138.4 Z m -107,750.8 V 569.7 h 107 v 319.5 z"
           id="path5" />
        <path
           d="m 501.5,26.7 h 107.9 v 974 H 501.5 Z"
           id="path6" />
        <path
           d="M 1076.8,1000.9 955.2,554.5 c 45.3,-23.5 76.4,-71.9 76.4,-127.9 V 169.9 c 0,-79 -61.9,-143 -138.2,-143 H 816.8 708.9 v 111.7 862.3 H 816.8 V 458 138.4 h 107 V 458 h -107 l 2.4,8.8 145.6,534.1 z"
           id="path7" />
        <path
           d="M 2323.9,889.2 V 26.7 h -107.8 v 862.5 55.8 55.9 H 2489 V 889.2 Z"
           id="path8" />
        <path
           d="m 3207.3,17.6 c -89.1,0 -161.4,74.8 -161.4,167.1 v 136.7 409.5 112 c 0,92.2 72.2,167.1 161.4,167.1 89.1,0 161.4,-74.8 161.4,-167.1 V 730.8 581.2 446.5 321.4 184.7 C 3368.6,92.4 3296.4,17.6 3207.3,17.6 Z m 53.5,303.8 v 259.8 149.7 158.3 h -106.9 v -308 -134.7 -308 h 107 z"
           id="path9" />
        <path
           d="m 3781.3,25.9 h -91.8 l -100.2,433 -100.2,-433 h -92.7 l 138,596.6 v 377.6 h 107.8 V 630.4 Z"
           id="path10" />
      </g>
      <g
         fill="#ff0000"
         id="g20">
        <path
           d="m 1379.5,59.6 h -111.2 -111.7 -111.1 v 111.6 h 111.1 v 862.4 h 111.7 V 171.2 h 111.2 z"
           id="path11" />
        <path
           d="M 1648.9,59.6 V 921.9 H 1538.2 V 59.6 h -111.7 v 816.2 c 0,92.2 74.8,167.1 167.1,167.1 92.2,0 167.1,-74.8 167.1,-167.1 V 59.6 Z"
           id="path12" />
        <path
           d="m 2094.4,1033.6 h 95.1 L 1989.3,32.7 1789,1033.6 h 95.1 l 23,-115 h 164.1 z m -164.8,-226.7 59.7,-298.5 59.7,298.5 z"
           id="path13" />
        <path
           d="M 0,59.6 200.3,1060.5 400.5,59.6 H 305.4 L 200.3,584.8 95.3,59.6 Z"
           id="path14" />
        <path
           d="m 2982.5,202.6 c 0,-79 -64,-143 -143,-143 h -79.3 -78.5 -33.2 v 974 h 33.2 157.8 c 79,0 143,-64 143,-143 V 645 c 0,-32.3 -15.6,-71.7 -39.6,-98.4 24,-26.6 39.6,-66.1 39.6,-98.4 z M 2870.8,171.2 V 490.7 H 2760.1 V 171.2 Z M 2760.1,921.9 V 602.4 h 110.7 v 319.5 z"
           id="path15" />
        <path
           d="m 3839,59.6 h -95.3 l -103.6,433 -103.7,-433 h -96 l 142.9,596.5 v 377.5 H 3695 V 664 Z"
           id="path16" />
        <path
           d="m 462.1,59.6 h 111.7 v 974 H 462.1 Z"
           id="path17" />
        <path
           d="M 1057.2,1033.6 931.3,587.3 c 46.9,-23.5 79.1,-71.9 79.1,-127.9 V 202.6 c 0,-79 -64,-143 -143,-143 H 788.1 676.3 v 111.7 862.3 H 788 V 490.8 171.2 H 898.7 V 490.7 H 788 l 2.4,8.8 150.7,534.1 z"
           id="path18" />
        <path
           d="M 2354.2,921.9 V 59.6 h -111.7 v 862.3 55.9 55.8 h 282.6 V 921.9 Z"
           id="path19" />
        <path
           d="m 3241.9,50.5 c -92.2,0 -167.1,74.8 -167.1,167.1 v 136.7 409.5 112.1 c 0,92.2 74.8,167.1 167.1,167.1 92.2,0 167.1,-74.8 167.1,-167.1 V 763.6 613.9 479.3 354.1 217.4 c 0,-92.1 -74.8,-166.9 -167.1,-166.9 z m 55.4,303.6 v 259.8 149.7 158.3 h -110.7 v -308 -134.6 -308 h 110.7 z"
           id="path20" />
      </g>
    </g>
  </g>
</svg>
