<svg enable-background="new 0 0 3839 1836.3" height="1836" viewBox="0 0 3840 1836" width="3840" xmlns="http://www.w3.org/2000/svg"><g fill="#a19fa3" transform="scale(1.0002605 .99983662961)"><path d="m2649.3 209.1c0 115.3 97.1 208.8 216.5 208.8 124.2 0 221.7-91.6 221.7-208.8 0-117.3-97.5-209.1-221.6-209.1-119.5 0-216.6 93.7-216.6 209.1"/><path d="m2685.3 627.2h369.6v1196h-369.6z"/><path d="m3400.8 209.1c0 115.3 97.2 208.8 216.6 208.8 124.2 0 221.6-91.6 221.6-208.8 0-117.3-97.3-209.1-221.6-209.1-119.4 0-216.6 93.7-216.6 209.1"/><path d="m3436.6 627.2h369.8v1196h-369.8z"/><path d="m2097.5 100.6-324.2 1270.8s-247.8-953.9-288.2-1089.2c-40.3-135.5-123.3-194.9-241-194.9s-200.8 59.4-241.2 194.9c-40.1 135.3-288.1 1089.2-288.1 1089.2l-324.2-1270.8h-390.6s375.1 1355.9 426.1 1512.9c39.7 122.6 133.6 222.8 272.9 222.8 159.3 0 233.7-116.1 268.2-222.8 34.1-106 276.9-1001.6 276.9-1001.6s242.9 895.6 276.9 1001.6c34.5 106.7 108.9 222.8 268.1 222.8 139.4 0 233.2-100.2 273.1-222.8 50.9-157 425.7-1512.9 425.7-1512.9z"/></g></svg>