<?xml version="1.0" encoding="UTF-8" standalone="no"?>
<svg
   enable-background="new 0 0 3839 1154.6"
   height="1154"
   viewBox="0 0 3840 1154"
   width="3840"
   version="1.1"
   id="svg2"
   sodipodi:docname="wiiu.svg"
   inkscape:version="1.3.2 (091e20e, 2023-11-25)"
   xmlns:inkscape="http://www.inkscape.org/namespaces/inkscape"
   xmlns:sodipodi="http://sodipodi.sourceforge.net/DTD/sodipodi-0.dtd"
   xmlns="http://www.w3.org/2000/svg"
   xmlns:svg="http://www.w3.org/2000/svg">
  <defs
     id="defs2" />
  <sodipodi:namedview
     id="namedview2"
     pagecolor="#ffffff"
     bordercolor="#000000"
     borderopacity="0.25"
     inkscape:showpageshadow="2"
     inkscape:pageopacity="0.0"
     inkscape:pagecheckerboard="0"
     inkscape:deskcolor="#d1d1d1"
     inkscape:zoom="0.2043519"
     inkscape:cx="1918.2596"
     inkscape:cy="577.4353"
     inkscape:window-width="1312"
     inkscape:window-height="449"
     inkscape:window-x="0"
     inkscape:window-y="23"
     inkscape:window-maximized="0"
     inkscape:current-layer="svg2" />
  <g
     id="g3"
     transform="scale(1,0.99924612)">
    <g
       transform="scale(1.0002344)"
       id="g2">
      <path
         d="m 1802,0 c 78.1,0 139.3,57.7 139.3,131.5 0,73.6 -61.2,131.2 -139.3,131.2 -75.2,0 -136.2,-58.8 -136.2,-131.2 C 1665.7,58.9 1726.8,0 1802,0 m -113.5,1146.3 h 232.3 v -752 H 1688.5 Z M 2138.4,131.5 c 0,72.5 61,131.2 136.1,131.2 78,0 139.3,-57.7 139.3,-131.2 C 2413.8,57.7 2352.5,0 2274.5,0 2199.4,0 2138.4,58.9 2138.4,131.5 m 22.4,1014.8 h 232.4 v -752 h -232.4 z m -842,-1083.1 -204,799.1 c 0,0 -155.7,-599.8 -181,-684.9 C 908.5,92.2 856.2,54.9 782.2,54.9 708.2,54.9 655.9,92.2 630.6,177.4 605.2,262.5 449.4,862.3 449.4,862.3 L 245.6,63.2 H 0 c 0,0 235.7,852.6 267.8,951.3 25.1,77.1 84,140.1 171.6,140.1 100.2,0 147,-73 168.6,-140.1 21.5,-66.6 174.1,-629.8 174.1,-629.8 0,0 152.6,563.2 174.2,629.8 21.5,67.1 68.5,140.1 168.6,140.1 87.6,0 146.6,-63 171.6,-140.1 32,-98.7 267.7,-951.3 267.7,-951.3 z"
         fill="#a19fa3"
         id="path1" />
      <path
         d="m 3261.7,575.4 c 86.9,0 152.5,-67.7 152.5,-174.2 V 0 h -305 v 401.1 c 0.1,106.5 65.6,174.3 152.5,174.3 M 3686.1,0 h -130.4 v 404.3 c 0,195.1 -112.7,300.4 -294,300.4 -181.3,0 -293.9,-105.3 -293.9,-300.4 V 0 h -130.4 c -95.3,0 -152.9,57.6 -152.9,152.9 l 0.1,494.4 c 0,143.4 75.2,218.6 218.6,218.6 h 717.2 c 143.4,0 218.6,-75.2 218.6,-218.6 l 0.1,-494.4 C 3839,57.6 3781.4,0 3686.1,0"
         fill="#17b3e8"
         id="path2" />
    </g>
  </g>
</svg>
