<?xml version="1.0" encoding="UTF-8" standalone="no"?>
<svg
   enable-background="new 0 0 3839 1236.5"
   height="1236"
   viewBox="0 0 3840 1236"
   width="3840"
   version="1.1"
   id="svg24"
   sodipodi:docname="zxspectrum.svg"
   inkscape:version="1.3.2 (091e20e, 2023-11-25)"
   xmlns:inkscape="http://www.inkscape.org/namespaces/inkscape"
   xmlns:sodipodi="http://sodipodi.sourceforge.net/DTD/sodipodi-0.dtd"
   xmlns="http://www.w3.org/2000/svg"
   xmlns:svg="http://www.w3.org/2000/svg">
  <defs
     id="defs24" />
  <sodipodi:namedview
     id="namedview24"
     pagecolor="#ffffff"
     bordercolor="#000000"
     borderopacity="0.25"
     inkscape:showpageshadow="2"
     inkscape:pageopacity="0.0"
     inkscape:pagecheckerboard="0"
     inkscape:deskcolor="#d1d1d1"
     inkscape:zoom="0.19081159"
     inkscape:cx="1918.1225"
     inkscape:cy="618.41107"
     inkscape:window-width="1312"
     inkscape:window-height="449"
     inkscape:window-x="0"
     inkscape:window-y="23"
     inkscape:window-maximized="0"
     inkscape:current-layer="svg24" />
  <g
     id="g25"
     transform="scale(1,0.99933531)">
    <g
       transform="scale(1.0002605)"
       id="g24">
      <path
         d="m 633.1,154.1 h 109.3 v 86.5 H 633.1 Z"
         id="path1" />
      <path
         d="M 2960,0 H 2695.1 L 3574,1236.5 h 265 z"
         fill="#00a7e1"
         id="path2" />
      <path
         d="m 2695.1,0 h -265 L 3309,1236.5 h 265 z"
         fill="#3d9b00"
         id="path3" />
      <path
         d="m 2430.1,0 h -265 L 3044,1236.5 h 265 z"
         fill="#ffc610"
         id="path4" />
      <path
         d="m 2165.1,0 h -265 l 879,1236.5 H 3044 Z"
         fill="#ff1f1f"
         id="path5" />
      <path
         d="M 633.1,272.6 H 742.4 V 635 H 633.1 Z"
         id="path6" />
      <path
         d="m 2815,272.6 h 109.3 V 635 H 2815 Z"
         id="path7" />
      <path
         d="m 2035.6,154.1 h 109.3 v 481 h -109.3 z"
         id="path8" />
      <path
         d="M 880.6,272.6 H 771.3 V 359.1 635 H 880.6 V 359.1 h 384.7 V 635 h 109.2 V 359.1 272.6 h -109.2 z"
         id="path9" />
      <path
         d="m 3556.4,272.6 h -494 -109.3 V 359.1 635 h 109.3 V 359.1 h 494 z"
         id="path10" />
      <path
         d="M 0.9,296.5 H 0 v 114.1 86.5 1.2 h 109.3 v -1.2 H 494 v 51.5 H 0.9 V 635 h 493.1 109.2 0.9 v -86.4 h -0.9 v -51.5 -86.5 -1.3 H 494 v 1.3 H 109.3 V 359.1 H 604.1 V 272.6 H 0.9 Z"
         id="path11" />
      <path
         d="m 1403.4,272.6 v 86.5 189.5 86.4 h 109.3 494 v -86.4 h -494 V 359.1 h 494 v -86.5 h -494 z"
         id="path12" />
      <path
         d="m 2777.1,272.6 h -100.4 -4.1 -498.9 v 86.5 h 498.9 v 51.5 h -498.9 v 4.6 81.9 51.5 86.4 h 109.3 389.6 4.1 100.4 4.9 4.1 V 272.6 h -4.1 z m -494,276 v -51.5 h 389.6 v 51.5 z"
         id="path13" />
      <g
         fill="#00a7e1"
         id="g23">
        <path
           d="m 1.6,1038.8 162,-193.6 H 14.3 v -55.8 h 237.6 v 52.4 L 90,1035.4 h 166.2 v 55.8 H 1.6 Z"
           id="path14" />
        <path
           d="M 373.3,933.2 276,789.4 h 77 l 59.2,96.5 61.3,-96.5 h 72.8 l -96.9,144.3 105.3,157.8 h -79.1 l -66,-104.5 -67.3,104.5 h -74.9 z"
           id="path15" />
        <path
           d="m 659.6,991 c 0,40.2 31.3,55.8 66.8,55.8 23.3,0 58.8,-6.8 58.8,-37.6 0,-32.6 -45.3,-38.1 -89.7,-49.9 -44.8,-11.8 -90.1,-29.2 -90.1,-85.9 0,-61.8 58.4,-91.4 112.9,-91.4 63,0 121,27.5 121,97.3 H 775 c -2.1,-36.4 -27.9,-45.7 -59.6,-45.7 -21.2,0 -45.7,8.9 -45.7,34.3 0,23.3 14.4,26.2 90.1,45.7 22,5.5 89.7,19.5 89.7,88 0,55.4 -43.6,96.9 -125.6,96.9 -66.8,0 -129.4,-33 -128.6,-107.4 z"
           id="path16" />
        <path
           d="m 869.8,872.7 h 57.1 v 27.9 h 0.8 c 14.4,-23.3 38.1,-33.8 65.1,-33.8 68.5,0 99.4,55.4 99.4,117.6 0,58.4 -32.2,112.9 -96,112.9 -26.2,0 -51.2,-11.4 -65.6,-33 h -0.8 v 104.1 h -60 z m 162.3,109.9 c 0,-34.7 -14,-70.6 -52.5,-70.6 -39.3,0 -52,35.1 -52,70.6 0,35.5 13.5,69.4 52.5,69.4 39.4,-0.1 52,-33.9 52,-69.4 z"
           id="path17" />
        <path
           d="m 1165,996.5 c 1.7,38.1 20.3,55.4 53.7,55.4 24.1,0 43.6,-14.8 47.4,-28.3 h 52.9 c -16.9,51.6 -52.9,73.6 -102.4,73.6 -69,0 -111.7,-47.4 -111.7,-115.1 0,-65.6 45.3,-115.5 111.7,-115.5 74.5,0 110.4,62.6 106.2,129.9 z m 97.7,-38 c -5.5,-30.5 -18.6,-46.5 -47.8,-46.5 -38.1,0 -49.1,29.6 -49.9,46.5 z"
           id="path18" />
        <path
           d="m 1494.4,949.7 c -3.8,-24.5 -19.5,-37.6 -44.4,-37.6 -38.5,0 -51.2,38.9 -51.2,71.1 0,31.3 12.3,68.9 49.9,68.9 27.9,0 44,-17.8 47.8,-44.4 h 58 c -7.6,57.9 -47.8,89.7 -105.3,89.7 -66,0 -110.4,-46.5 -110.4,-112.1 0,-68.1 40.6,-118.4 111.7,-118.4 51.6,0 99,27.1 102.8,82.9 z"
           id="path19" />
        <path
           d="m 1651.7,872.7 h 44 v 40.2 h -44 v 108.3 c 0,20.3 5.1,25.4 25.4,25.4 6.3,0 12.3,-0.4 18.6,-1.7 v 47 c -10.2,1.7 -23.3,2.1 -35.1,2.1 -36.8,0 -69,-8.5 -69,-52 V 913 h -36.4 v -40.2 h 36.4 v -65.6 h 60.1 z"
           id="path20" />
        <path
           d="m 1711.8,872.7 h 57.1 v 40.6 h 0.8 c 11,-27.5 40.6,-46.5 69.8,-46.5 4.2,0 9.3,0.8 13.1,2.1 v 55.8 c -5.5,-1.3 -14.4,-2.1 -21.6,-2.1 -44,0 -59.2,31.7 -59.2,70.2 v 98.6 h -60.1 z"
           id="path21" />
        <path
           d="m 2068.7,1091.3 h -57.1 v -30.5 h -1.3 c -15.2,24.5 -41.5,36.4 -66.8,36.4 -63.9,0 -80,-36 -80,-90.1 V 872.7 h 60.1 v 123.5 c 0,36 10.6,53.7 38.5,53.7 32.6,0 46.5,-18.2 46.5,-62.6 V 872.7 h 60.1 z"
           id="path22" />
        <path
           d="m 2103.4,872.7 h 56.7 v 29.6 h 0.8 c 15.7,-22.4 38.5,-35.5 66.8,-35.5 27.5,0 52,10.2 63.9,36.4 12.7,-19 35.5,-36.4 66,-36.4 46.5,0 80,21.6 80,78.3 v 146.4 h -60.1 V 967.3 c 0,-29.2 -2.5,-53.3 -36.8,-53.3 -33.8,0 -40.2,27.9 -40.2,55.4 v 121.8 h -60.1 V 968.6 c 0,-25.4 1.7,-54.6 -36.4,-54.6 -11.8,0 -40.6,7.6 -40.6,50.3 v 126.9 h -60.1 V 872.7 Z"
           id="path23" />
      </g>
      <path
         d="m 2814.9,154.1 h 109.3 v 86.5 h -109.3 z"
         id="path24" />
    </g>
  </g>
</svg>
