<?xml version="1.0" encoding="UTF-8" standalone="no"?>
<svg
   enable-background="new 0 0 3840 1363.8"
   height="682"
   viewBox="0 0 1920 682"
   width="1920"
   version="1.1"
   id="svg27"
   xmlns="http://www.w3.org/2000/svg"
   xmlns:svg="http://www.w3.org/2000/svg">
  <defs
     id="defs27" />
  <linearGradient
     id="a"
     gradientUnits="userSpaceOnUse"
     x1="0"
     x2="3615.6489"
     y1="332.8165"
     y2="332.8165">
    <stop
       offset=".1596"
       stop-color="#ea2427"
       id="stop1" />
    <stop
       offset=".5303"
       stop-color="#ffcc05"
       id="stop2" />
    <stop
       offset=".7318"
       stop-color="#6dbd46"
       id="stop3" />
    <stop
       offset="1"
       stop-color="#46a2da"
       id="stop4" />
  </linearGradient>
  <g
     transform="scale(.49998698 .50007332775)"
     id="g27">
    <path
       d="m299.8 36.3h-299.8v592.9h264.1c206.8 0 303.1-115.4 303.1-297.3 0-149.4-69.7-295.6-267.4-295.6zm-45.7 441h-71.4v-289h58.1c132 0 143.7 103.8 143.7 141.2 0 55.6-16.6 147.8-130.4 147.8zm820.5-122.9c60.6-22.4 88.9-87.2 88.9-148.7 0-112.1-89.7-169.4-193.5-169.4h-348v592.9h182.7v-206.7h97.2c72.2 0 77.2 59 82.2 115.4 2.5 30.7 5.8 61.5 14.9 91.4h182.7c-16.6-27.4-17.4-98-19.9-127.1-6.7-73.9-37.4-128.7-87.2-147.8zm-174.4-59h-95.5v-117.9h85.5c69.8 0 90.5 21.6 90.5 59 0 53.1-46.5 58.9-80.5 58.9zm527.3-259.1-218.4 592.9h183.5l26.6-84.7h188.5l24.9 84.7h189.4l-215.9-592.9zm31.6 381.2 57.3-182.7h1.7l53.2 182.7zm675.9 12.5h80.5c-9.1 44-52.3 65.6-94.7 65.6-111.3 0-133.7-97.2-133.7-152.8 0-40.7-4.2-172.7 121.2-172.7 43.2 0 79.7 30.7 86.4 73.9h175.3c-26.5-139.6-122-221.8-273.2-221.8-133.7 0-292.3 90.5-292.3 316.4 0 168.6 108 304.8 283.2 304.8 64.8 0 127.9-22.4 168.6-74.7l5.8 60.6h115.4v-326.4h-242.5zm592.1-407.8c-180.2 0-300.6 129.5-300.6 310.6s120.4 310.6 300.6 310.6 300.6-129.6 300.6-310.6-120.4-310.6-300.6-310.6zm0 473.4c-46.5 0-117.9-30.7-117.9-162.8s71.4-162.8 117.9-162.8 117.9 30.7 117.9 162.8-71.4 162.8-117.9 162.8zm715.8-459.3v317.2h-1.7l-172.7-317.2h-186.8v592.9h172.7v-323.8h1.7l181.9 323.9h177.7v-593z"
       fill="url(#a)"
       id="path4" />
    <g
       fill="#ec2224"
       id="g14">
      <path
         d="m514.5 1269.5-50.1 86.8h-26.9l50.1-86.8z"
         id="path5" />
      <path
         d="m617.1 1091.8 116.7-202.2c12.1-20.9 34.3-33.7 58.4-33.7h248l13.4-23.3h-170-90.8c-32.7 0-63.1 17.6-79.5 45.9l-44.1 76.3-1.2 2.2-77.8 134.7h26.9z"
         id="path6" />
      <path
         d="m1092.6 765h-209-90.8c-56.9 0-109.5 30.4-137.9 79.6l-44 76.4-1.3 2.3-97.3 168.4h60.5l127.6-220.9c19-33 54.5-53.4 92.6-53.4h269.6z"
         id="path7" />
      <path
         d="m755.4 987.3h209l67.2-116.3h-239.3c-18.7 0-36 10-45.3 26.2l-112.4 194.6h60.4z"
         id="path8" />
      <path
         d="m592.4 1269.5-50.1 86.8h-60.5l50.1-86.8z"
         id="path9" />
      <path
         d="m409.6 1269.5-50.1 86.8h60.5l50.1-86.8z"
         id="path10" />
      <path
         d="m153.9 987.3h142.9l-19.4 33.6c-61.3 106.2 15.3 238.9 137.9 238.9h599.7l-55.7 96.5h60.5l40.6-70.4c9.4-16.2 9.4-36.2 0-52.4s-26.6-26.2-45.3-26.2h-599.8c-38.6 0-73.3-20-92.6-53.5s-19.3-73.4 0-106.9l19.4-33.6c9.4-16.2 9.4-36.2 0-52.4s-26.6-26.2-45.3-26.2h-173.1z"
         id="path11" />
      <path
         d="m92.7 881.4h202.3c38.6 0 73.3 20 92.6 53.5s19.3 73.4 0 106.9l-19.4 33.6c-9.4 16.2-9.4 36.2 0 52.4s26.6 26.2 45.3 26.2h599.7c38.6 0 73.3 20 92.6 53.5 17 29.5 19.1 64.1 6 94.8l-31.3 54.2h61.4l9.2-15.9c61.3-106.2-15.3-238.9-137.9-238.9h-323.9-182.7-93.1l19.4-33.6c61.4-106.4-15.3-239.1-137.9-239.1h-1.5l-34.7 34.7-34.7-34.7h-161.6z"
         id="path12" />
      <path
         d="m233.9 819.3 24.9-25 25 25h26.4l-51.4-51.4-51.3 51.4z"
         id="path13" />
      <path
         d="m79.9 935-79.9-29.1 46.2-29.1 11.4 19.7h237.4c33.2 0 62.9 17.2 79.5 45.9s16.6 63 0 91.8l-19.4 33.6c-12.1 20.9-12.1 46.6 0 67.5s34.3 33.7 58.4 33.7h599.7c33.2 0 62.9 17.2 79.5 45.9s16.6 63 0 91.8l-28.7 49.7h-26.9l36.3-62.8c12.1-20.9 12.1-46.6 0-67.5s-34.3-33.7-58.4-33.7h-417-182.7c-33.2 0-62.9-17.2-79.5-45.9s-16.6-63 0-91.8l19.4-33.6c12.1-20.9 12.1-46.6 0-67.5s-34.3-33.7-58.4-33.7h-225.5z"
         id="path14" />
    </g>
    <path
       d="m1900.7 1015c-9.1-158.6 89.7-250 245-250 140.4 0 235.8 59 235.8 181.9 0 147.8-144.5 194.3-253.3 260.8v.8h261.6v141.2h-500.8c-3.3-55.6 13.3-103.8 41.5-142.8 48.2-67.3 131.2-111.3 205.1-156.1 29.9-18.3 78.1-41.5 78.1-83.9 0-52.3-30.7-70.6-69.8-70.6-66.4 0-88.9 48.2-87.2 118.8h-156z"
       id="path15" />
    <path
       d="m1407.4 964.3c.8-68.1 28.2-117.9 72.2-151.1 44-32.4 103.8-48.2 168.6-48.2 167.8 0 223.4 99.7 223.4 148.7 0 121.2-76.4 121.2-76.4 123.7v1.7c0 6.6 94.7 6.6 94.7 135.4 0 70.6-53.1 181.9-242.5 181.9-259.9 0-260.8-182.7-256.6-225.9h157.8c-.8 30.7 6.6 54 22.4 68.9 15.8 19.1 39.9 25.8 68.9 25.8 47.3 0 77.2-17.4 77.2-64.8 0-50.7-39-59.8-77.2-59.8-24.1 0-35.7 2.5-48.2 4.2v-113c12.5.8 25.8 3.3 48.2 3.3 34.9 0 78.9-7.5 78.9-52.3 0-36.5-41.5-50.7-75.6-50.7-44.8 0-81.4 24.1-79.7 72.2z"
       id="path16" />
    <path
       d="m2692.7 742.6h126.2l-232.5 621.2h-126.2z"
       id="path17" />
    <path
       d="m3136.8 926.2c-3.3-10.8-11.6-22.4-24.1-31.6-11.6-7.5-26.6-10-44.8-10-63.1 0-94.7 61.5-100.5 118.8 39-35.7 81.4-44.8 133.7-44.8 111.3 0 193.5 71.4 193.5 184.4 0 142-99.7 213.4-237.5 213.4-175.2 0-246.6-132.9-246.6-274.9 0-181.9 83.9-316.4 260.8-316.4 124.6 0 199.3 48.2 217.6 161.1zm-158.6 219.2c0 45.7 33.2 79.7 78.9 79.7 49.8 0 84.7-35.7 84.7-79.7 0-40.7-33.2-76.4-84.7-76.4-44.8 0-78.9 33.2-78.9 76.4z"
       id="path18" />
    <path
       d="m3586.9 1235.1h-256.6v-156.1l264.1-307.3h165.3v322.2h78.1v141.2h-78.1v114.6h-172.7v-114.6zm-141.2-141.2h141.2v-161.9z"
       id="path19" />
    <path
       d="m3721.5 629.3v-48.2c0-35.8 26-51.3 58.1-51.3s58.1 15.5 58.1 51.3v48.2zm99.6-20.4v-20c0-31.9-18.2-38.7-41.5-38.7s-41.5 6.8-41.5 38.7v20z"
       id="path20" />
    <path
       d="m3819 443.9c4.6 0 6.4-1 6.4-4.4 0-1.1 0-2.6-.3-4.6h12.9c1 2.8 2.1 8.6 2.1 11.7 0 7.5-2.6 12.9-10.3 14.3 7.2 7.3 10.3 19.2 10.3 29.1 0 15.1-8.1 28.8-24.6 28.8-21 0-24.4-16.8-26.2-32.4-2.4-13.4-1-25.2-11.9-25.2-9.6 0-11.4 9.9-11.4 17.4 0 10.4 4.2 17.7 13.3 18.6v18.5c-21.6-1.3-28-19.7-28-38.2 0-16.4 6.7-33.7 24.4-33.7h43.3zm-23.4 18.6c3.7 5.7 3.6 14.7 5 22.8 1.3 8 4.2 15.1 14 15.1 8.3 0 10.7-10.6 10.7-17.1 0-8.1-4.2-20.8-16-20.8z"
       id="path21" />
    <path
       d="m3753.6 432.3v-14h-25.2v-18.6h25.2v-16.7h13.8v16.8h44.9c7.7 0 11.6-.7 11.6-8.9 0-2.6 0-5.2-.7-7.8h14.3c.3 4.1 1 8 1 12 0 19.4-7.5 23-21.5 23.3h-49.6v14h-13.8z"
       id="path22" />
    <path
       d="m3819 299.2c4.6 0 6.4-1 6.4-4.4 0-1.1 0-2.6-.3-4.6h12.9c1 2.8 2.1 8.6 2.1 11.7 0 7.5-2.6 12.9-10.3 14.3 7.2 7.3 10.3 19.2 10.3 29.1 0 15.1-8.1 28.8-24.6 28.8-21 0-24.4-16.8-26.2-32.4-2.4-13.3-1-25.2-11.9-25.2-9.6 0-11.4 9.9-11.4 17.4 0 10.4 4.2 17.7 13.3 18.5v18.6c-21.6-1.3-28-19.7-28-38.2 0-16.4 6.7-33.7 24.4-33.7h43.3zm-23.4 18.6c3.7 5.7 3.6 14.6 5 22.8 1.3 8 4.2 15.1 14 15.1 8.3 0 10.7-10.6 10.7-17.1 0-8.1-4.2-20.8-16-20.8z"
       id="path23" />
    <path
       d="m3721.5 257.7v-20.3h98.6v-59.1h17.6v79.4z"
       id="path24" />
    <path
       d="m3753.6 178.3v-14h-25.2v-18.6h25.2v-16.8h13.8v16.8h44.9c7.7 0 11.6-.7 11.6-8.9 0-2.6 0-5.2-.7-7.8h14.3c.3 4.1 1 8 1 12 0 19.4-7.5 23-21.5 23.3h-49.6v14z"
       id="path25" />
    <path
       d="m3837.7 36.3v17.6h-11.4v.3c9.6 4.9 13.7 15.5 13.7 26 0 26.5-19.7 39.4-44.9 39.4-30.4 0-43.8-18.1-43.8-36.5 0-10.6 3.9-22.3 13.2-28v-.3h-43v-18.5zm-12.3 41.5c0-16.6-15.1-23.6-29.8-23.6-18.5 0-29.6 8.9-29.6 23.3 0 17.4 15.5 23.6 30.6 23.6 14.4 0 28.8-7.1 28.8-23.3z"
       id="path26" />
    <path
       d="m3815.7 22.6v-22.6h22v22.6z"
       id="path27" />
  </g>
</svg>
