<?xml version="1.0" encoding="UTF-8" standalone="no"?>
<svg
   enable-background="new 0 0 3840 679.2"
   height="340"
   viewBox="0 0 1920 340"
   width="1920"
   version="1.1"
   id="svg26"
   xmlns="http://www.w3.org/2000/svg"
   xmlns:svg="http://www.w3.org/2000/svg">
  <defs
     id="defs26" />
  <g
     transform="scale(.5 .50051525)"
     id="g26">
    <path
       d="m664.2 503.1v-13l10.9-7c31.3-20 50-53.9 50-90.7s-18.7-70.6-50-90.7l-10.9-7v-13-213.8c0-23.7-19.3-43.1-43-43.1h-493.6c-23.7 0-43.1 19.3-43.1 43.1v213.9 13l-10.9 7c-31.3 20-49.9 53.9-49.9 90.7s18.7 70.6 49.9 90.7l10.9 7v13 46.7 22.1l-22.2 1.4c-21.7 1.4-38.6 19.3-38.6 40.9 0 22.8 18.5 41.3 41.2 41.3h219.6c10.5-39.8 46.8-69.2 89.8-69.2s79.4 29.4 89.8 69.2h219.6c22.8 0 41.2-18.5 41.2-41.3 0-21.6-17-39.5-38.7-40.9l-22.2-1.4v-22.3z"
       fill="#fdbc1a"
       id="path1" />
    <path
       d="m519.4 153.1c28.8 0 55.9 11.2 76.2 31.6 20.4 20.4 31.6 47.4 31.6 76.3 0 28.8-11.2 55.9-31.6 76.2-20.4 20.4-47.5 31.6-76.2 31.6s-55.9-11.2-76.2-31.6c-20.4-20.4-31.6-47.5-31.6-76.2 0-28.8 11.2-55.9 31.6-76.3 20.3-20.4 47.4-31.6 76.2-31.6m0-23.7c-72.6 0-131.5 58.9-131.5 131.5s58.9 131.5 131.5 131.5 131.6-58.9 131.6-131.5-58.9-131.5-131.6-131.5z"
       id="path2" />
    <circle
       cx="430.29999"
       cy="260.89999"
       r="31.799999"
       id="circle2" />
    <path
       d="m229.4 153.1c28.8 0 55.9 11.2 76.2 31.6 20.4 20.4 31.6 47.4 31.6 76.3 0 28.8-11.2 55.9-31.6 76.2-20.4 20.4-47.5 31.6-76.2 31.6s-55.9-11.2-76.2-31.6c-20.4-20.4-31.6-47.5-31.6-76.2 0-28.8 11.2-55.9 31.6-76.3 20.3-20.4 47.4-31.6 76.2-31.6m0-23.7c-72.6 0-131.5 58.9-131.5 131.5s58.9 131.5 131.5 131.5 131.5-58.9 131.5-131.5-58.9-131.5-131.5-131.5z"
       id="path3" />
    <circle
       cx="318.5"
       cy="260.89999"
       r="31.799999"
       id="circle3" />
    <path
       d="m621.2 24.8c23.7 0 43 19.3 43 43.1v213.9 13l10.9 7c31.3 20 50 53.9 50 90.7s-18.7 70.6-50 90.7l-10.9 7v13 46.7 22.1l22.2 1.4c21.7 1.4 38.7 19.3 38.7 40.9 0 22.8-18.5 41.3-41.2 41.3h-219.7c-10.5-39.8-46.8-69.2-89.8-69.2s-79.4 29.4-89.8 69.2h-219.7c-22.8 0-41.2-18.5-41.2-41.3 0-21.6 17-39.5 38.6-40.9l22.2-1.4v-22.3-46.7-13l-10.9-7c-31.3-20-49.9-53.9-49.9-90.7s18.7-70.6 49.9-90.7l10.9-7v-13-213.7c0-23.7 19.3-43.1 43.1-43.1zm0-23.7h-493.6c-36.9 0-66.8 29.9-66.8 66.8v213.9c-36.4 23.4-60.8 64.1-60.8 110.6 0 46.6 24.4 87.3 60.9 110.6v46.7c-34 2.2-60.9 30.1-60.9 64.6 0 35.9 29.1 65 64.9 65h240.2c0-38.2 31-69.2 69.2-69.2s69.2 31 69.2 69.2h240.2c35.9 0 64.9-29.1 64.9-65 0-34.5-26.9-62.4-60.9-64.5v-46.7c36.5-23.4 60.9-64 60.9-110.6s-24.3-87.3-60.9-110.6v-214c.2-36.9-29.7-66.8-66.5-66.8z"
       id="path4" />
    <path
       d="m1028.2 222.1h-200.5v457.1h200.6c38.1 0 69-30.9 69-69v-319.1c-.1-38.1-31-69-69.1-69zm45.4 388.1c0 25-20.3 45.3-45.3 45.3h-177v-409.8h176.9c25 0 45.3 20.3 45.3 45.3v319.2z"
       id="path5" />
    <path
       d="m1515.3 452.6-116-77.7v-30.7c0-7.2 6.4-12.9 13.8-11.6 5.8 1 9.8 6.4 9.8 12.3v18 7.1l123 82.6v-161.6c0-38.1-30.9-69-69-69h-131.6c-38.1 0-69 30.9-69 69v100.3c0 23 11.5 44.5 30.6 57.3l116 77.7v30.7c0 7.2-6.4 12.8-13.8 11.6-5.8-.9-9.8-6.4-9.8-12.3v-18-7.1l-123-82.6v161.6c0 38.1 30.9 69 69 69h131.6c38.1 0 69-30.9 69-69v-89.7 22.1-32.6c0-23.1-11.5-44.6-30.6-57.4zm6.9 67.9v89.7c0 25-20.3 45.3-45.3 45.3h-131.6c-25 0-45.3-20.3-45.3-45.3v-117.1l75.7 50.8v12.6c0 17.8 12.5 32.8 29.7 35.6 1.9.3 3.8.5 5.8.5 8.4 0 16.5-3 23-8.4 7.9-6.8 12.5-16.6 12.5-27v-30.7-12.6l-10.5-7-116-77.7c-12.6-8.4-20.1-22.5-20.1-37.7v-100.4c0-25 20.3-45.3 45.3-45.3h131.6c25 0 45.3 20.3 45.3 45.3v117.2l-75.7-50.8v-12.6c0-17.9-12.5-32.8-29.7-35.6-1.9-.3-3.8-.5-5.8-.5-8.4 0-16.5 3-23 8.4-7.9 6.8-12.5 16.6-12.5 27v30.7 12.6l10.5 7 116 77.7c12.6 8.4 20.1 22.5 20.1 37.7z"
       id="path6" />
    <path
       d="m2864.4 452.6-116-77.7v-30.7c0-7.2 6.4-12.9 13.8-11.6 5.8 1 9.8 6.4 9.8 12.3v18 7.1l123 82.6v-161.6c0-38.1-30.9-69-69-69h-131.6c-38.1 0-69 30.9-69 69v100.3c0 23 11.5 44.5 30.6 57.3l116 77.7v30.7c0 7.2-6.4 12.8-13.8 11.6-5.8-.9-9.8-6.4-9.8-12.3v-18-7.1l-123-82.6v161.6c0 38.1 30.9 69 69 69h131.6c38.1 0 69-30.9 69-69v-89.7 22.1-32.6c-.1-23.1-11.5-44.6-30.6-57.4zm6.9 67.9v89.7c0 25-20.3 45.3-45.3 45.3h-131.6c-25 0-45.3-20.3-45.3-45.3v-117.1l75.7 50.8v12.6c0 17.8 12.5 32.8 29.7 35.6 1.9.3 3.9.5 5.8.5 8.4 0 16.5-3 23-8.4 7.9-6.8 12.5-16.6 12.5-27v-30.7-12.6l-10.5-7-116-77.7c-12.6-8.4-20.1-22.5-20.1-37.7v-100.4c0-25 20.3-45.3 45.3-45.3h131.6c25 0 45.3 20.3 45.3 45.3v117.2l-75.6-50.8v-12.6c0-17.9-12.5-32.8-29.7-35.6-1.9-.3-3.9-.5-5.8-.5-8.4 0-16.5 3-23 8.4-7.9 6.8-12.5 16.6-12.5 27v30.7 12.6l10.5 7 116 77.7c12.6 8.4 20.1 22.5 20.1 37.7z"
       id="path7" />
    <path
       d="m2278 452.6-116-77.7v-30.7c0-7.2 6.4-12.9 13.8-11.6 5.8 1 9.8 6.4 9.8 12.3v18 7.1l123 82.6v-161.6c0-38.1-30.9-69-69-69h-131.6c-38.1 0-69 30.9-69 69v100.3c0 23 11.5 44.5 30.6 57.3l116 77.7v30.7c0 7.2-6.4 12.8-13.8 11.6-5.8-.9-9.8-6.4-9.8-12.3v-18-7.1l-123-82.6v161.6c0 38.1 30.9 69 69 69h131.6c38.1 0 69-30.9 69-69v-89.7 22.1-32.6c0-23.1-11.5-44.6-30.6-57.4zm7 67.9v89.7c0 25-20.3 45.3-45.3 45.3h-131.7c-25 0-45.3-20.3-45.3-45.3v-117.1l75.7 50.8v12.6c0 17.8 12.5 32.8 29.7 35.6 1.9.3 3.9.5 5.8.5 8.4 0 16.5-3 23-8.4 7.9-6.8 12.5-16.6 12.5-27v-30.7-12.6l-10.5-7-116-77.7c-12.6-8.4-20.1-22.5-20.1-37.7v-100.4c0-25 20.3-45.3 45.3-45.3h131.6c25 0 45.3 20.3 45.3 45.3v117.2l-75.6-50.8v-12.6c0-17.9-12.5-32.8-29.7-35.6-1.9-.3-3.9-.5-5.8-.5-8.4 0-16.5 3-23 8.4-7.9 6.8-12.5 16.6-12.5 27v30.7 12.6l10.5 7 116 77.7c12.6 8.4 20.1 22.5 20.1 37.7z"
       id="path8" />
    <path
       d="m1128.2 222.1v457.1h123v-457.1zm99.4 433.5h-75.7v-409.9h75.7z"
       id="path9" />
    <path
       d="m3098.8 222.1h-123-59.9v110.5h59.9v346.6h123v-346.6h59.9v-110.5zm36.1 86.8h-59.9v346.7h-75.7v-346.7h-59.9v-63.2h195.4z"
       id="path10" />
    <path
       d="m959.5 308.9h-32.5v283.6h32.5c21.2 0 38.4-17.2 38.4-38.4v-206.8c0-21.1-17.2-38.4-38.4-38.4zm14.8 245.2c0 8.2-6.6 14.8-14.8 14.8h-8.8v-236.3h8.8c8.2 0 14.8 6.6 14.8 14.8z"
       id="path11" />
    <path
       d="m1835.7 222.1h-123v119.3l-23.6 23.6v-142.9h-123v457.1h123v-142.9l23.6 23.6v119.3h123v-170.3l-58.2-58.2 58.2-58.2zm-23.6 160.5-68 68 68 68v136.9h-75.7v-105.4l-70.9-70.9v176.3h-75.7v-409.8h75.7v176.3l70.9-70.9v-105.4h75.7z"
       id="path12" />
    <path
       d="m2477.5 222.1v200.2h-23.6v-200.2h-123v164.7 66.3 23.1c0 38.1 30.9 69 69 69h77.6v23.6h-123v110.3h176.9c38.1 0 69-30.9 69-69v-388zm99.3 388.1c0 25-20.3 45.3-45.3 45.3h-153.3v-63h99.3 23.7v-23.7-23.6-23.7h-23.7-77.6c-25 0-45.3-20.3-45.3-45.3v-23.1-66.3-141.1h75.7v176.6 23.7h23.7 23.6 23.7v-23.7-176.6h75.7z"
       id="path13" />
    <path
       d="m3301.9 332.6h90.2v-110.5h-213.1v457.1h213.1v-110.3h-90.2v-63h90.2v-110.5h-90.2zm66.5 86.5v63.2h-90.2v110.3h90.2v63h-165.8v-409.9h165.8v63.2h-90.2v110.2z"
       id="path14" />
    <path
       d="m3771 222.1h-93.9c-17.4 0-33.2 6.5-45.4 17.1-12.1-10.6-28-17.1-45.4-17.1h-162.9v457.1h123v-334.7c0-6.6 5.3-11.9 11.9-11.9s11.9 5.3 11.9 11.9v334.8h123v-334.9c0-6.6 5.3-11.9 11.9-11.9s11.9 5.3 11.9 11.9v334.8h123v-388.1c0-38.1-30.9-69-69-69zm45.3 433.5h-75.7v-309.9c0-18.1-12.9-34.2-30.9-36.5-21.7-2.8-40.2 14.1-40.2 35.2v311.1h-75.5v-309.8c0-18.1-12.9-34.2-30.9-36.5-21.7-2.8-40.2 14.1-40.2 35.2v311.1h-75.7v-409.8h139.2c11.7 0 22.4 4.5 30.4 11.8 6.8 6.2 11.8 22.3 13.9 29.9.3 1.1 1.8 1.1 2.1 0 2.1-7.6 7-23.6 13.8-29.9 8.1-7.3 18.7-11.8 30.4-11.8h93.9c25 0 45.3 20.3 45.3 45.3v364.6z"
       id="path15" />
    <g
       fill="#fdbc1a"
       id="g25">
      <path
         d="m2825.9 655.6c25 0 45.3-20.3 45.3-45.3v-89.7-10.5c0-15.1-7.5-29.2-20.1-37.7l-116-77.7-10.5-7v-12.6-30.7c0-10.4 4.6-20.3 12.5-27 6.5-5.5 14.6-8.4 23-8.4 1.9 0 3.8.1 5.8.5 17.2 2.8 29.7 17.8 29.7 35.6v12.6l75.6 50.8v-117.2c0-25-20.3-45.3-45.3-45.3h-131.6c-25 0-45.3 20.3-45.3 45.3v100.3c0 15.1 7.5 29.2 20.1 37.7l116 77.7 10.5 7v12.6 30.7c0 10.4-4.6 20.3-12.5 27-6.5 5.5-14.6 8.4-23 8.4-1.9 0-3.8-.2-5.8-.5-17.2-2.8-29.7-17.8-29.7-35.6v-12.6l-75.7-50.8v117.2c0 25 20.3 45.3 45.3 45.3z"
         id="path16" />
      <path
         d="m2239.6 655.6c25 0 45.3-20.3 45.3-45.3v-89.7-10.5c0-15.1-7.5-29.2-20.1-37.7l-116-77.7-10.5-7v-12.6-30.7c0-10.4 4.6-20.3 12.5-27 6.5-5.5 14.6-8.4 23-8.4 1.9 0 3.8.1 5.8.5 17.2 2.8 29.7 17.8 29.7 35.6v12.6l75.6 50.8v-117.2c0-25-20.3-45.3-45.3-45.3h-131.6c-25 0-45.3 20.3-45.3 45.3v100.3c0 15.1 7.5 29.2 20.1 37.7l116 77.7 10.5 7v12.6 30.7c0 10.4-4.6 20.3-12.5 27-6.5 5.5-14.6 8.4-23 8.4-1.9 0-3.8-.2-5.8-.5-17.2-2.8-29.7-17.8-29.7-35.6v-12.6l-75.7-50.8v117.2c0 25 20.3 45.3 45.3 45.3z"
         id="path17" />
      <path
         d="m2576.8 610.2v-364.5h-75.7v176.6 23.7h-23.7-23.6-23.7v-23.7-176.6h-75.7v141.1 66.3 23.1c0 25 20.3 45.3 45.3 45.3h77.6 23.7v23.7 23.6 23.7h-23.7-99.3v63h153.3c25.2.1 45.5-20.3 45.5-45.3z"
         id="path18" />
      <path
         d="m1736.4 655.6h75.7v-136.9l-68-68 68-68.1v-136.9h-75.7v105.4l-70.9 71v-176.4h-75.7v409.9h75.7v-176.4l70.9 71z"
         id="path19" />
      <path
         d="m1151.9 245.7h75.7v409.8h-75.7z"
         id="path20" />
      <path
         d="m1476.8 655.6c25 0 45.3-20.3 45.3-45.3v-89.7-10.5c0-15.1-7.5-29.2-20.1-37.7l-116-77.7-10.5-7v-12.6-30.7c0-10.4 4.6-20.3 12.5-27 6.5-5.5 14.6-8.4 23-8.4 1.9 0 3.8.1 5.8.5 17.2 2.8 29.7 17.8 29.7 35.6v12.6l75.7 50.8v-117.2c0-25-20.3-45.3-45.3-45.3h-131.6c-25 0-45.3 20.3-45.3 45.3v100.3c0 15.1 7.5 29.2 20.1 37.7l116 77.7 10.5 7v12.6 30.7c0 10.4-4.6 20.3-12.5 27-6.5 5.5-14.6 8.4-23 8.4-1.9 0-3.8-.2-5.8-.5-17.2-2.8-29.7-17.8-29.7-35.6v-12.6l-75.7-50.8v117.2c0 25 20.3 45.3 45.3 45.3z"
         id="path21" />
      <path
         d="m1073.6 610.2v-319.1c0-25-20.3-45.3-45.3-45.3h-177v409.8h176.9c25 0 45.4-20.4 45.4-45.4zm-75.7-56.1c0 21.2-17.2 38.4-38.4 38.4h-32.5v-283.6h32.5c21.2 0 38.4 17.2 38.4 38.4z"
         id="path22" />
      <path
         d="m3740.7 345.7v309.9h75.7v-364.5c0-25-20.3-45.3-45.3-45.3h-93.9c-11.7 0-22.4 4.5-30.4 11.8-6.9 6.2-11.8 22.2-13.8 29.9-.3 1.1-1.8 1.1-2.1 0-2.1-7.6-7.1-23.7-13.9-29.9-8.1-7.3-18.7-11.8-30.4-11.8h-139.2v409.8h75.7v-311.2c0-21.1 18.5-38 40.2-35.2 17.9 2.3 30.9 18.4 30.9 36.5v309.9h75.7v-311.2c0-21.1 18.5-38 40.2-35.2 17.6 2.3 30.6 18.4 30.6 36.5z"
         id="path23" />
      <path
         d="m2999.4 655.6h75.7v-346.7h59.8v-63.2h-195.3v63.2h59.8z"
         id="path24" />
      <path
         d="m3368.4 592.5h-90.2v-110.3h90.2v-63.1h-90.2v-110.2h90.2v-63.2h-165.8v409.9h165.8z"
         id="path25" />
    </g>
    <path
       d="m1441.4 84.4c-.4 46.1 36.6 83.9 82.8 84.4 30.9-.1 59.1-17.6 73.1-45.1l.3-.7h-36.4c-9.9 9.8-23.1 15.3-37 15.4-29.8-.8-53.4-25.6-52.6-55.4.8-28.7 23.9-51.9 52.6-52.6 13.7 0 26.9 5.5 36.6 15.2l36.8.1-.3-.7c-14-27.5-42.2-44.9-73.1-45-46.1.5-83.1 38.2-82.8 84.4zm157.9.4c.9 45.7 38.7 82 84.4 81.1s82-38.7 81.1-84.4c-.9-45.1-37.7-81.1-82.7-81.2-46.2.6-83.2 38.4-82.8 84.5zm29.8 0c.6-29.2 24.8-52.4 54-51.8s52.4 24.8 51.8 54c-.6 28.8-24.1 51.8-52.9 51.8-29.5-.3-53.1-24.5-52.9-54zm732.1-83.7h-83.4v166.2h83.8v-32h-52.4v-33.3h52.4v-32h-52.4v-37h52.4v-32zm-1340.8 0h-24.7l-114.5 166.3h35.5s17.7-25.8 17.9-26.1h56.1v26.1h30.2v-166.3zm-63.5 107.5 33.8-49.4v52.3h-35.7c.6-.9 1.9-2.9 1.9-2.9zm987-107.5h-35s-48.8 112.8-49.6 114.6c-.8-1.8-49.8-114.6-49.8-114.6h-35.3v166.3h31.3v-82.8c.5-.1 3-.7 3.5-.8l36.3 83.6h27.9s36-82.8 36.2-83.5c.5.1 3 .7 3.5.8v82.7h31.3v-166.3zm230 0h-31v112.2c.2 11.9-9.4 21.7-21.2 21.9s-21.7-9.3-21.9-21.2c0-.2 0-.4 0-.6v-112.3h-31.4v112.2c-.5 29.3 22.8 53.3 52.1 53.8s53.3-22.8 53.8-52.1c0-.6 0-1.1 0-1.7v-112.1zm197.7.1h-.5v166.8h31.4v-87.8c1.6 2.6 51.8 87.2 51.8 87.2h35.3s-35.4-59.7-35.9-60.6c.7-.2 2.1-.8 2.1-.8 28-10.5 42.2-41.7 31.8-69.7-7.7-20.6-27.1-34.5-49.1-35.2zm66.9 31.9c11.9.4 21.2 10.2 21.1 22.1.2 11.9-9.2 21.7-21.1 22h-36v-44h36zm-484.1-31.9h-.4v166.2h31.4v-59.2h22.4c29.6-.6 53.1-25 52.5-54.5-.5-28.8-23.7-52-52.5-52.5zm53.3 31.9c11.9.2 21.4 10.1 21.2 22-.2 11.6-9.6 20.9-21.2 21.1h-22.4v-43.1zm260.8-31.9h-85.2v31.9h27.1v134.3h31.4v-134.3h27.2v-31.9zm-845.5 0h-32.5s-33.4 65-34.1 66.6c-.8-1.5-34.1-66.6-34.1-66.6h-33.2l51.6 102.2-.1 64.1h31.5l.1-64.2c.1 0 51.2-101.3 51.2-101.3l.3-.7zm-142.5 0h-30.9v166.2h73.8v-32h-42.4v-134.2zm-40.9 0h-29.4v166.2h29.8v-166.2zm-39.4 0h-35s-48.8 112.7-49.6 114.5l-49.8-114.5h-35.3v166.2h31.3v-82.8c.5-.1 3-.7 3.5-.8.3.7 36.3 83.5 36.3 83.5h27.9l36.3-83.5c.5.1 3 .7 3.5.8v82.7h31.3v-166.1zm-282 0h-85.7v166.2h31.9v-65.5h54.2v-31.8h-54.2v-38.3h54.2v-30.6z"
       id="path26" />
  </g>
</svg>
