<?xml version="1.0" encoding="UTF-8" standalone="no"?>
<svg
   enable-background="new 0 0 3839 1557.6"
   height="779"
   viewBox="0 0 1920 779.00005"
   width="1920"
   version="1.1"
   id="svg7"
   xmlns="http://www.w3.org/2000/svg"
   xmlns:svg="http://www.w3.org/2000/svg">
  <defs
     id="defs7" />
  <g
     stroke-width="1.00026"
     transform="scale(.49999999)"
     id="g7">
    <path
       d="m0 0h3840.0001v1558h-3840.0001z"
       id="path1" />
    <g
       fill="#fffffa"
       id="g6">
      <path
         d="m2722.9091 513.53374h-285.9744v-281.67336h322.4839z"
         id="path2" />
      <path
         d="m1902.896 231.86116v.0996c-458.6191 0-458.6191 687.87837 0 687.87837v-.0996h247.1639c83.1216 0 83.1216 124.73167 0 124.73167h-570.3477v281.5733h570.3477.1001c458.5174-.1031 458.4852-687.8783-.1001-687.8783h-247.1639v.0996c-83.1216 0-83.1216-124.7317 0-124.7317v-.0996h583.5524v-281.57334z"
         id="path3" />
      <path
         d="m3536.7211 1326.1454-777.3025-1094.28502-245.1638 141.13676 677.0763 953.14826z"
         id="path4" />
      <path
         d="m2390.1225 1326.1454 777.2024-1094.28502h345.3899l-777.2024 1094.28502z"
         id="path5" />
      <path
         d="m595.155 1326.1454 134.43501-492.82838 134.43501 492.82838h253.96618l134.535-492.82838 134.335 492.82838h291.876l-298.4777-1094.28502h-255.6666l-133.63482 489.82757-133.53478-489.82757h-255.66658l-298.47774 1094.28502z"
         id="path6" />
    </g>
  </g>
</svg>
