<?xml version="1.0" encoding="UTF-8" standalone="no"?>
<svg
   enable-background="new 0 0 3839 1224.6"
   height="612"
   viewBox="0 0 1920 612"
   width="1920"
   version="1.1"
   id="svg36"
   xmlns="http://www.w3.org/2000/svg"
   xmlns:svg="http://www.w3.org/2000/svg">
  <defs
     id="defs36" />
  <g
     transform="scale(.50013024 .49975501228)"
     id="g36">
    <g
       fill="#c2ac6d"
       id="g6">
      <path
         d="m643.3 290.2h-195v25.6h25.4c34.1 0 61.7 31.8 61.7 65.7v316.4l-332.5-407.7h-202.9v25.6c45.3 0 81.1 40.9 81.1 86.3v443.4c0 45.3-47.8 60.4-81.1 60.4v25.6h220.4v-25.6c-41.3-.2-63.1-5.9-77.2-19.2-14.1-13.4-17.9-31.1-17.9-55.4v-415.6l430.5 524.9h23.5v-558.4c0-33.1 25.9-61.2 64-62.6z"
         id="path1" />
      <circle
         cx="1943.7"
         cy="608.79999"
         r="74.400002"
         id="circle1" />
      <path
         d="m2362.6 631.5v31h24.2c39.3 0 50.5 19 50.5 52.9v151.6c-9 11-39.7 24.8-83 24.8-8.8 0-59-1-96.5-31.8-39.2-32.2-65.6-97.4-65.6-252.4 0-201.8 71-287.3 173.9-287.3 33.5 0 147 22.6 195.3 168.6h30.3v-210.6h-28.6c-3.6 28.3-26 44-68.3 26.4-63.9-26.5-121-30.5-162.8-30.5-164.6 0-304.9 152.5-304.9 334.6 0 209.8 158.4 332.7 328.5 332.7 80.6 0 166.1-18.6 233.8-52.9v-173.2c0-40.6 28.3-52.9 66.5-52.9v-31z"
         id="path2" />
      <path
         d="m1185.2 733.6c-15.9 87.9-91.7 156.5-176.7 154.3h-73.4c-23 0-41.7-18.7-41.7-41.7v-224.8h20.1c60 0 98.3 50.2 98.3 136.6h26.3v-153.1-7.8-150.2h-26.3c0 76-32.1 130.9-98.4 130.9h-20.1v-249.1h105.5c142 0 146.8 126.5 146.8 142.8h28.3v-137.4-43.9h-511.7v25.5h36.1c27.6 0 50 26.1 50 53.6v472.1c0 49.7-32.6 61-60.2 61h-25.9v29.2h86.1 433l29.2-198z"
         id="path3" />
      <path
         d="m1533.5 283.5c-184.6 0-326.7 135.9-326.7 331.3s142.2 331.3 326.7 331.3c184.6 0 326.8-135.9 326.8-331.3s-142.2-331.3-326.8-331.3zm0 619.7c-88.7 0-160.4-81.2-160.4-288.5s71.9-288.4 160.4-288.4c88.7 0 160.4 81.2 160.4 288.5.2 207.2-71.7 288.4-160.4 288.4z"
         id="path4" />
      <path
         d="m3163.9 733.6c-15.9 87.9-91.7 156.5-176.7 154.3h-73.4c-23 0-41.7-18.7-41.7-41.7v-224.8h20.1c60 0 98.3 50.2 98.3 136.6h26.3v-153.1-7.8-150.2h-26.3c0 76-32.1 130.9-98.4 130.9h-20.1v-249.1h105.5c142 0 146.8 126.5 146.8 142.8h28.3v-137.4-43.9h-511.7v25.5h36.1c27.6 0 50 26.1 50 53.6v472.1c0 49.7-32.6 61-60.2 61h-25.9v29.2h86.1 433l29.2-198z"
         id="path5" />
      <path
         d="m3512.2 283.5c-184.6 0-326.7 135.9-326.7 331.3s142.2 331.3 326.7 331.3c184.6 0 326.8-135.9 326.8-331.3s-142.2-331.3-326.8-331.3zm0 619.7c-88.7 0-160.4-81.2-160.4-288.5s71.9-288.5 160.4-288.5c88.7 0 160.4 81.2 160.4 288.5.2 207.3-71.7 288.5-160.4 288.5z"
         id="path6" />
    </g>
    <g
       fill="#22cdc4"
       id="g33">
      <path
         d="m162.9 1053.9h49.2l41.7 167.4h-40.8l-6.1-31.9h-40.1l-5.9 31.9h-40.8zm23.9 30.5h-.5l-13.8 74.5h28.6z"
         id="path7" />
      <path
         d="m264.7 1053.9h58.4c38.9 0 55.6 20.2 55.6 78.3 0 60.7-7.7 89.1-59.5 89.1h-54.4v-167.4zm39.4 138.3h10.5c18.3 0 24.6-7.3 24.6-57.4 0-40.8-3.3-51.8-24.1-51.8h-11z"
         id="path8" />
      <path
         d="m381.9 1053.9h42.2l19.9 129.4h.5l20.2-129.4h42.2l-38 167.4h-50.2z"
         id="path9" />
      <path
         d="m537.6 1053.9h49.2l41.7 167.4h-40.8l-6.1-31.9h-40.1l-5.9 31.9h-40.8zm23.9 30.5h-.5l-13.8 74.5h28.6z"
         id="path10" />
      <path
         d="m639.4 1053.9h45.2l32.4 108.8h.5v-108.8h36.6v167.4h-44.5l-34.5-115.3h-.5v115.3h-35.2z"
         id="path11" />
      <path
         d="m844.5 1112.1c0-24.4-2.8-35.2-15.9-35.2-15.7 0-17.1 15-17.1 58.8 0 49.7 1.6 62.6 18 62.6 14.5 0 16.2-16.6 16.4-42.7h38v5.9c0 36.1-10.1 63.1-58.8 63.1-50.4 0-54.4-37.7-54.4-88.1 0-42.9 2.3-85.8 58.1-85.8 34.7 0 53.7 15 53.7 54.4v7z"
         id="path12" />
      <path
         d="m897.6 1053.9h96.8v31.9h-57.4v33.5h53.9v31.9h-53.9v38.2h60v31.9h-99.4z"
         id="path13" />
      <path
         d="m1011.4 1053.9h58.4c38.9 0 55.6 20.2 55.6 78.3 0 60.7-7.7 89.1-59.5 89.1h-54.4zm39.4 138.3h10.6c18.3 0 24.6-7.3 24.6-57.4 0-40.8-3.3-51.8-24.1-51.8h-11z"
         id="path14" />
      <path
         d="m1261.5 1053.9h96.8v31.9h-57.4v33.5h53.9v31.9h-53.9v38.2h60v31.9h-99.4z"
         id="path15" />
      <path
         d="m1375.2 1053.9h45.2l32.4 108.8h.5v-108.8h36.6v167.4h-44.5l-34.5-115.3h-.5v115.3h-35.2z"
         id="path16" />
      <path
         d="m1536.3 1085.8h-35.2v-31.9h109.7v31.9h-35.2v135.5h-39.4z"
         id="path17" />
      <path
         d="m1622 1053.9h96.8v31.9h-57.4v33.5h53.9v31.9h-53.9v38.2h60v31.9h-99.4z"
         id="path18" />
      <path
         d="m1735.8 1053.9h66.1c33.5 0 45 20.6 45 43.6 0 24.4-9.8 36.3-28.1 40.8v.5c25.1 3.5 26.5 19.2 27 41.7.7 33.1 1.9 36.3 7.5 38.7v2.1h-42.4c-3-5.6-4.2-15-4.2-34 0-29.1-4-35.2-16.4-35.2h-15v69.2h-39.4zm39.4 70.6h12.2c15.9 0 20.2-12 20.2-21.8 0-12.7-4.7-21.1-20.4-21.1h-12z"
         id="path19" />
      <path
         d="m1892.6 1085.8h-35.2v-31.9h109.7v31.9h-35.1v135.5h-39.4z"
         id="path20" />
      <path
         d="m1997.6 1053.9h49.2l41.7 167.4h-40.8l-6.1-31.9h-40.1l-5.9 31.9h-40.6zm24 30.5h-.5l-13.8 74.5h28.6z"
         id="path21" />
      <path
         d="m2099.8 1053.9h39.4v167.4h-39.4z"
         id="path22" />
      <path
         d="m2159.2 1053.9h45.2l32.4 108.8h.5v-108.8h36.6v167.4h-44.5l-34.5-115.3h-.5v115.3h-35.2z"
         id="path23" />
      <path
         d="m2294.3 1053.9h57.7l20.6 110h.5l19.9-110h57v167.4h-36.6v-130.3h-.5l-25.6 130.3h-30.5l-27-130.3h-.5v130.3h-35.2v-167.4z"
         id="path24" />
      <path
         d="m2470.6 1053.9h96.8v31.9h-57.4v33.5h53.9v31.9h-53.9v38.2h60v31.9h-99.4z"
         id="path25" />
      <path
         d="m2584.4 1053.9h45.2l32.4 108.8h.5v-108.8h36.6v167.4h-44.5l-34.6-115.3h-.5v115.3h-35.2z"
         id="path26" />
      <path
         d="m2745.4 1085.8h-35.2v-31.9h109.7v31.9h-35.2v135.5h-39.4z"
         id="path27" />
      <path
         d="m2981.7 1170.2v5.9c0 12.7 3.5 22.3 17.1 22.3 13.8 0 17.8-10.3 17.8-19.9 0-36.1-72-15.9-72-78.5 0-26.7 14.3-49.2 54.9-49.2 39.4 0 53.5 19.9 53.5 45.7v4h-38c0-8-.9-13.8-3.3-17.6-2.3-4-6.1-5.9-12-5.9-9.8 0-15.7 5.9-15.7 18 0 34.9 72 17.3 72 76.4 0 38-21.1 53.2-57.2 53.2-28.6 0-55.1-8.7-55.1-43.6v-10.8z"
         id="path28" />
      <path
         d="m3099.3 1155.4-42.4-101.5h43.6l18.8 62.1h.5l19.2-62.1h42.2l-42.4 101.5v65.9h-39.4v-65.9z"
         id="path29" />
      <path
         d="m3220.7 1170.2v5.9c0 12.7 3.5 22.3 17.1 22.3 13.8 0 17.8-10.3 17.8-19.9 0-36.1-72-15.9-72-78.5 0-26.7 14.3-49.2 54.9-49.2 39.4 0 53.4 19.9 53.4 45.7v4h-38c0-8-.9-13.8-3.3-17.6-2.3-4-6.1-5.9-12-5.9-9.8 0-15.7 5.9-15.7 18 0 34.9 72 17.3 72 76.4 0 38-21.1 53.2-57.2 53.2-28.6 0-55.1-8.7-55.1-43.6v-10.8z"
         id="path30" />
      <path
         d="m3337 1085.8h-35.2v-31.9h109.7v31.9h-35.2v135.5h-39.3z"
         id="path31" />
      <path
         d="m3422.7 1053.9h96.8v31.9h-57.4v33.5h53.9v31.9h-53.9v38.2h60v31.9h-99.4z"
         id="path32" />
      <path
         d="m3537 1053.9h57.7l20.6 110h.5l19.9-110h57v167.4h-36.6v-130.3h-.5l-25.6 130.3h-30.5l-27-130.3h-.5v130.3h-35z"
         id="path33" />
    </g>
    <path
       d="m1551.7 54.8c0 30.2 20.3 54.6 45.2 54.6h125.4c3.1 0 5.6 3.1 5.6 6.8 0 3.8-2.5 6.8-5.6 6.8h-170.6v48h191c25 0 45.2-24.5 45.2-54.7s-20.2-54.6-45.2-54.6h-125.4c-3.1 0-5.6-3-5.6-6.8 0-3.7 2.5-6.9 5.6-6.9h170.6v-48h-191c-25 0-45.2 24.6-45.2 54.8z"
       id="path34" />
    <path
       d="m1977.7 0v107l-114.2-107h-62.2v170.9h60v-107.1l114.3 107.1h62.1v-170.9z"
       id="path35" />
    <path
       d="m2287.3 0h-78.6l-97.6 75.3v-75.3h-59.9v170.9h59.9v-75.4l97.6 75.4h78.6l-110.8-85.4z"
       id="path36" />
  </g>
</svg>
