<?xml version="1.0" encoding="UTF-8" standalone="no"?>
<svg
   enable-background="new 0 0 3839 1959.6"
   height="980"
   viewBox="0 0 1920 980.00005"
   width="1920"
   version="1.1"
   id="svg12"
   xmlns="http://www.w3.org/2000/svg"
   xmlns:svg="http://www.w3.org/2000/svg">
  <defs
     id="defs12" />
  <g
     transform="matrix(.50012459 0 0 .50010864603 .01097499978 -.04550104847)"
     id="g12">
    <path
       d="m3839 1022.7c-1.6-118.7-85.3-233.5-242.2-331.9-146.2-91.7-356.6-170.1-608.4-226.7-50.2-11.3-102.4-21.7-155.7-31.3l4.8-3.9 111.3-89.9c14.4-11.7.5-34.4-16.5-26.7l-113 51-109.3 49.5-34.9-4.8c-218.9-30.4-451.5-45.8-691.2-45.8h-10l8.3-53.8c.3-1.8 1.7-3.3 3.5-3.7l109.3-21.7-11.7 75.8 295.4-58.8 14.3-93.1c14.3-92.9-46.3-181.9-137.9-202.5-24.4-5.5-49.4-5.7-74.4-.8l-208.2 41.4c-117.6 23.4-214 104.9-258.6 212.7-19.2-58.4-67.7-105.3-131.1-119.6-24.4-5.5-49.4-5.8-74.4-.8l-451.8 89.9-34.4 223.8-25.5 5.2c-294.4 60.3-541.9 146.7-715.7 249.8-185.6 110-282.7 237.3-281 368.1 2.1 154.9 139.5 298 397.3 413.7l20.9 9.4-44.4 288.8c-4.4 28.9 12.7 57.6 40.9 65.2 8.5 2.3 17.2 2.6 25.8.8l1085.8-216c-7.2 8-12.1 18.1-13.8 29.1l-35 227.4c-4.4 28.9 12.7 57.6 40.9 65.2 8.5 2.3 17.2 2.6 25.8.8l191.5-38.1c121.3-24.1 226.1-93.1 296.9-188.6l38.9-1.5c264.6-10.4 516.6-39.1 749.1-85.3 300.2-59.7 552.9-146.3 730.9-250.3 189.9-111 289.2-239.6 287.5-372z"
       fill="#ff002b"
       id="path1" />
    <g
       fill="#fff"
       id="g11">
      <path
         d="m2851 380.9-560.5 253-178.8-162.8 64.9 233-478.3 386.5 560.5-253 178.9 162.8-65-233z"
         id="path2" />
      <path
         d="m2851 380.9-560.5 253-178.8-162.8 64.9 233-478.3 386.5 560.5-253 178.9 162.8-65-233z"
         id="path3" />
      <path
         d="m2296.2 605.9 5-2.3c2.3-9.4 4.3-18.9 5.8-28.6l9.2-59.9-98.2 19.5z"
         id="path4" />
      <path
         d="m1840.5 886.4 97.7-19.4 210.8-170.5-39.1-140.4-28.5 5.7-8.1 52.6c-2.1 13.9-12.7 25-26.5 27.7l-124.7 24.9c-12.3 2.4-23.3-8.1-21.4-20.4l52.7-342.6c2.1-13.9 12.7-25 26.5-27.7l124.6-24.8c12.3-2.4 23.3 8.1 21.4 20.4l-7.7 50.3 234.9-46.7 11.2-73c15.9-103.2-75.6-190.8-178-170.4l-208.2 41.4c-134.3 26.7-237.6 134.6-258.4 270l-57.3 372.5c-15.9 103.1 75.6 190.7 178.1 170.4z"
         id="path5" />
      <path
         d="m204.1 1298.5c-90.6-72.4-137.1-148.2-138.1-225.3-2.9-216.5 361.1-430.7 930.5-549.6l6-39c-583.3 119.5-976.8 340.9-973.5 589.1 2 147.2 143.2 281.3 380.2 387.7l5.8-37.9c-84.4-38.6-155-80.4-210.9-125z"
         id="path6" />
      <path
         d="m1983.9 391.1-5.7 37.1c218.6-.3 430.8 12.5 629.2 37.2l63.7-28.8c-211.8-29.4-443.7-45.5-687.2-45.5z"
         id="path7" />
      <path
         d="m2795.3 455.8-38.3 31c175.6 28.4 338.1 66.8 481.4 114.4 170.3 56.6 303.7 122.9 396.5 197.1 90.6 72.4 137.1 148.2 138.1 225.3 3 220.9-375.9 439.4-965.3 556.7-220.7 43.9-465.6 72.2-716.5 83.2-6.4 13-13.3 25.6-20.8 37.9 267.8-10.5 519.9-40.1 744.5-84.8 595.2-118.4 998.4-342.2 995.1-593.5-3.4-251.8-414.3-465.1-1014.7-567.3z"
         id="path8" />
      <path
         d="m3198.2 852-193 38.4c-11.4 2.3-20.2 11.5-22 23l-6 39.1 231.8-46.1c11.4-2.3 20.2-11.5 22-23 3-19-13.9-35.2-32.8-31.4z"
         id="path9" />
      <path
         d="m1723 1160.4-29.6 192.6c-2.3 15.2 11.1 28.1 26.2 25.1l219.9-43.7 36.8-239.2-235.7 46.9c-9.2 1.8-16.2 9.1-17.6 18.3zm79.1 58.1 69.2-13.8-8.6 56.1-69.2 13.8z"
         id="path10" />
      <path
         d="m3399.2 718.2c-34.7-52.3-96.6-76.9-156-65.1l-242.8 48.3c-64.1 12.8-119.3 49.9-155.7 101.2-1.2-1.2-2.4-2.5-3.6-3.7-35.7-34.1-85.8-48.7-134.2-39.1l-294.4 58.6 23.4 84.1 288-57.3c43.8-8.7 83 28.8 76.2 73l-54.9 357-97.3 19.4 48.1-312.3c2.3-15.2-11.1-28.1-26.2-25.1l-219.9 43.8-52.9 343.6-97.3 19.4 61.5-399.8-108-98.4-290 130.9 29.1-5.8 97.3-19.4-81 526.5c-23.8 154.8-141.9 278.2-295.5 308.7l-108.3 21.6 16.1-104.4 75.9-15.1c114.6-22.8 202.8-114.9 220.5-230.4l6.1-39.6-258 51.3c-43.8 8.7-83-28.8-76.2-73l37.5-243.6c6.7-43.3 30.2-81 63.8-106.2l.1-.2 172.3-139.3-123.2 24.5c-64.1 12.8-119.3 49.9-155.7 101.2-1.2-1.2-2.4-2.5-3.6-3.7-35.7-34.1-85.8-48.7-134.2-39.1l-261 51.9 7.3-47.3 30.1-195.9 184-36.6c134.3-26.7 237.6-134.6 258.4-270l27.2-176.7c15.9-103.2-75.6-190.8-178-170.4l-431.9 85.9-80.5 523-438 87.1c-11.4 2.3-20.2 11.4-21.9 22.9l-139.6 907.6c-2.9 19 13.9 35.1 32.7 31.3l588-117 190-37.8 52.9-343.6 69.2-13.8-52.9 343.6 279-55.5 7.2-47c33.2 22.3 74.2 30.8 114 22.9l110.7-22c-27.6 35.4-67.5 60.9-113.3 70l-116.7 23.2c-11.4 2.3-20.2 11.4-21.9 22.9l-35.3 229.3c-2.9 19 13.9 35.1 32.7 31.3l191.5-38.1c189.5-37.7 335.1-189.9 364.5-380.8l2.8-18.4 188.1-37.4 188.1-37.4 52.9-343.6 69.2-13.8-52.9 343.6 279-55.5 7.2-47c33.2 22.3 74.2 30.8 114 22.9l396.1-78.8c11.4-2.3 20.2-11.4 21.9-22.9l41.3-268.3-11 2.2c10.3-21.6 17.6-44.9 21.3-69.3l9.2-60c6.1-38-1.4-77.2-22.6-109.2zm-2114.4-303.7 147.6-29.4c12.3-2.4 23.3 8.1 21.4 20.4l-22.6 146.7c-2.1 13.9-12.7 25-26.5 27.7l-149.9 29.8zm-338.5 1218.6-42.2 8.4-49.6 9.9-277 55.1-76.4 15.2 120.4-782.7 32.2-6.4 238-47.3 107.8-21.4-16.1 104.4-31.1 6.2-249.6 49.5-35.4 230.4 116.9-23.3 20.9-4.2 76.4-15.2-16.1 104.4-41 8.2-56.4 11.2-116.9 23.3-36.7 239.2 256.1-51 14.2-2.8 78-15.5zm-227-144.7 8.6-56.1 214.2-42.6 44.2-287.4-214.2 42.6 7.3-47.3 178-35.4 80.8-16.1-11.5 74.9-48.6 315.9zm765 37.7-97.3 19.4 48.1-312.3c2.3-15.2-11.1-28.1-26.2-25.1l-219.9 43.7-52.9 343.6-97.3 19.4 68.9-447.9 355.3-70.7c43.8-8.7 83 28.8 76.2 73zm724.5-144.2-97.3 19.4 68.9-447.9 97.3-19.4zm1127.7-570.5-9.7 62.8c-10.5 68.1-62.4 122.3-130 135.8l-235.7 46.9-7 45.3c-2.3 15.2 11.1 28.1 26.2 25.1l219.9-43.7 43.5-8.7 53.8-10.7-16.1 104.4-18.4 3.7-337 67.1c-43.8 8.7-83-28.8-76.2-73l37.5-243.7c10.5-68.1 62.4-122.3 130-135.8l242.8-48.3c44-8.9 83.2 28.6 76.4 72.8z"
         id="path11" />
    </g>
  </g>
</svg>
