<?xml version="1.0" encoding="UTF-8" standalone="no"?>
<svg
   enable-background="new 0 0 3839.5 1335.5"
   height="668.00006"
   viewBox="0 0 1920 668.00006"
   width="1920"
   version="1.1"
   id="svg17"
   xmlns="http://www.w3.org/2000/svg"
   xmlns:svg="http://www.w3.org/2000/svg">
  <defs
     id="defs17" />
  <g
     transform="matrix(.50006511 0 0 .50020527825 0 -.02411475795)"
     id="g17">
    <g
       fill="#444"
       id="g5">
      <path
         d="m1171.1 378.6h-171.6-68.3v922.8h94v-255h146c445.1 0 445.1-667.8-.1-667.8zm0 573.8h-146v-479.8h146c319.9 0 319.9 479.8 0 479.8z"
         id="path1" />
      <path
         d="m2023.2 1214.2c-214.2 0-387.8-173.6-387.8-387.8s173.6-387.8 387.8-387.8c145.2 0 271.7 79.8 338.1 198h104.7c-73.7-171.7-244.2-291.9-442.9-291.9-266.1 0-481.8 215.7-481.8 481.8s215.7 481.8 481.8 481.8c198.7 0 369.2-120.3 442.9-291.9h-104.7c-66.5 117.9-192.9 197.8-338.1 197.8z"
         id="path2" />
      <path
         d="m2406.2 736.2h131.8v180.2h-131.8z"
         id="path3" />
      <path
         d="m3073.2 888.7v-181.2h-272.5v-164h272.5v-181.2h-272.5-140.9-40.3v923.3h181.2v-396.9z"
         id="path4" />
      <path
         d="m3553.9 791 247.5-428.7h-209.2l-142.9 247.5-142.9-247.5h-209.2l247.5 428.7-285.6 494.6h209.3l180.9-313.4 181 313.4h209.2z"
         id="path5" />
    </g>
    <path
       d="m431.3 456c132.6 16.4 271.7 92.4 271.7 190.3 0 143.9-189.5 246-337.4 246-137.9 0-249.7-55.9-249.7-123.3s111.8-122 249.7-122c95.6 0 228.3 53.5 242.8 121.8 17.3 81.2-43.1 128.6-43.1 128.6s-88.6 76.9-195.9 76.9-184.8-36.6-184.8-87.1 78.1-91.5 185.4-91.5c66.5 0 148.5 31 172.9 81.9 24.4 50.8-32.9 156.4-174 156.4-76.8 0-139-29.7-139-66.2 0-36.6 62.2-63.8 139-63.8 44.2 0 110.2 23.1 126.8 57.9 12.7 26.6-.9 85.1-77.9 110"
       fill="none"
       stroke="#bcbcbc"
       stroke-linecap="round"
       stroke-miterlimit="10"
       stroke-width="40.1142"
       id="path6" />
    <g
       fill="#bcbcbc"
       id="g9">
      <circle
         cx="365.70001"
         cy="447.89999"
         r="30.6"
         id="circle6" />
      <path
         d="m0 696v420.6l373.4-219v-420.6z"
         id="path7" />
      <path
         d="m373.4 1137.7v197.8l373.4-218.9v-197.9z"
         id="path8" />
      <path
         d="m373.4 1137.7v197.8l-373.4-218.9v-197.9z"
         id="path9" />
    </g>
    <path
       d="m32.6 661.8v420.5l373.3-219v-420.5z"
       fill="#ffdd34"
       id="path10" />
    <circle
       cx="409.5"
       cy="409.20001"
       fill="#7b46ce"
       r="30.6"
       id="circle10" />
    <path
       d="m475 417.3c132.6 16.4 271.7 92.4 271.7 190.3 0 143.9-189.5 246-337.4 246-137.9 0-249.7-55.9-249.7-123.3s111.8-122 249.7-122c95.6 0 228.3 53.5 242.8 121.8 17.3 81.2-43.1 128.6-43.1 128.6s-88.6 76.9-195.9 76.9-184.7-36.6-184.7-87.1 78.1-91.5 185.4-91.5c66.5 0 148.5 31 172.9 81.9 24.3 50.8-32.9 156.4-174.1 156.4-76.8 0-139-29.7-139-66.2 0-36.6 62.2-63.8 139-63.8 44.2 0 110.2 23.1 126.8 57.9 12.7 26.6-.9 85.1-77.9 110"
       fill="none"
       stroke="#7b46ce"
       stroke-linecap="round"
       stroke-miterlimit="10"
       stroke-width="40.1142"
       id="path11" />
    <path
       d="m405.9 1103.4v197.9l373.4-219v-197.9z"
       fill="#ff3abd"
       id="path12" />
    <path
       d="m405.9 1103.4v197.9l-373.3-219v-197.9z"
       fill="#7b46ce"
       id="path13" />
    <g
       fill="#444"
       id="g16">
      <path
         d="m1434 8.2h78.2c17.9 0 39 16.7 48.4 25.9l137.1 152.1v-178h46.6v242.8h-81.6c-17.2.1-33.7-7.1-45.3-19.8l-137-152.4v172.2h-46.4z"
         id="path14" />
      <path
         d="m2405.5 252.5c-56 7.4-112.6 8.6-168.8 3.7-33.1-2-65.5-10.6-95.3-25.3-37.6-19.4-49.5-63.1-49-102.8.4-36.6 11.2-75.6 43.9-96.9 21.4-14 44.3-18.7 68.5-23.1 66.3-11.7 132.6-9.1 197.3-2v34.6c-76.3-14.8-156.8-11.1-184.2 23.9-13.6 17.6-20.5 39.5-19.5 61.8 0 33 11.2 82.8 78.2 92.5 43.6 6.4 86.7 1.6 128.6-6.1z"
         id="path15" />
      <path
         d="m1927.9 214.9c6.8 0 111.7.5 147.9 0v36.3c-72.7 2.8-142.5 4.1-216 1-62.2-2.6-72.9-33.8-74.4-64v-180h286.6v34.5h-185.2v61.8h169.2v33.8h-169.2c0 18.3.6 39 .8 42.8 1 23.5 11.9 32.2 40.6 33.8"
         id="path16" />
    </g>
  </g>
</svg>
