<?xml version="1.0" encoding="UTF-8" standalone="no"?>
<svg
   enable-background="new 0 0 3839 987.2"
   height="493.99997"
   viewBox="0 0 1920 493.99996"
   width="1920"
   version="1.1"
   id="svg99"
   xmlns="http://www.w3.org/2000/svg"
   xmlns:svg="http://www.w3.org/2000/svg">
  <defs
     id="defs99" />
  <g
     transform="scale(.50013024 .50040516159)"
     id="g99">
    <g
       fill="#1d2b53"
       id="g78">
      <path
         d="m109.7 438.7h109.7v109.7h-109.7z"
         id="path1" />
      <path
         d="m219.4 438.7h109.7v109.7h-109.7z"
         id="path2" />
      <path
         d="m329.1 438.7h109.7v109.7h-109.7z"
         id="path3" />
      <path
         d="m438.7 438.7h109.7v109.7h-109.7z"
         id="path4" />
      <path
         d="m658.1 438.7h109.7v109.7h-109.7z"
         id="path5" />
      <path
         d="m767.8 438.7h109.7v109.7h-109.7z"
         id="path6" />
      <path
         d="m877.5 438.7h109.7v109.7h-109.7z"
         id="path7" />
      <path
         d="m987.2 438.7h109.7v109.7h-109.7z"
         id="path8" />
      <path
         d="m1316.2 438.7h109.7v109.7h-109.7z"
         id="path9" />
      <path
         d="m1425.9 438.7h109.7v109.7h-109.7z"
         id="path10" />
      <path
         d="m1535.6 438.7h109.7v109.7h-109.7z"
         id="path11" />
      <path
         d="m1864.7 438.7h109.7v109.7h-109.7z"
         id="path12" />
      <path
         d="m1974.3 438.7h109.7v109.7h-109.7z"
         id="path13" />
      <path
         d="m2084 438.7h109.7v109.7h-109.7z"
         id="path14" />
      <path
         d="m2193.7 438.7h109.7v109.7h-109.7z"
         id="path15" />
      <path
         d="m2851.8 438.7h109.7v109.7h-109.7z"
         id="path16" />
      <path
         d="m2961.5 438.7h109.7v109.7h-109.7z"
         id="path17" />
      <path
         d="m0 548.4h109.7v109.7h-109.7z"
         id="path18" />
      <path
         d="m109.7 548.4h109.7v109.7h-109.7z"
         id="path19" />
      <path
         d="m329.1 548.4h109.7v109.7h-109.7z"
         id="path20" />
      <path
         d="m438.7 548.4h109.7v109.7h-109.7z"
         id="path21" />
      <path
         d="m767.8 548.4h109.7v109.7h-109.7z"
         id="path22" />
      <path
         d="m877.5 548.4h109.7v109.7h-109.7z"
         id="path23" />
      <path
         d="m1206.5 548.4h109.7v109.7h-109.7z"
         id="path24" />
      <path
         d="m1316.2 548.4h109.7v109.7h-109.7z"
         id="path25" />
      <path
         d="m1755 548.4h109.7v109.7h-109.7z"
         id="path26" />
      <path
         d="m1864.7 548.4h109.7v109.7h-109.7z"
         id="path27" />
      <path
         d="m2084 548.4h109.7v109.7h-109.7z"
         id="path28" />
      <path
         d="m2193.7 548.4h109.7v109.7h-109.7z"
         id="path29" />
      <path
         d="m2742.1 548.4h109.7v109.7h-109.7z"
         id="path30" />
      <path
         d="m2851.8 548.4h109.7v109.7h-109.7z"
         id="path31" />
      <path
         d="m0 658.1h109.7v109.7h-109.7z"
         id="path32" />
      <path
         d="m109.7 658.1h109.7v109.7h-109.7z"
         id="path33" />
      <path
         d="m219.4 658.1h109.7v109.7h-109.7z"
         id="path34" />
      <path
         d="m329.1 658.1h109.7v109.7h-109.7z"
         id="path35" />
      <path
         d="m438.7 658.1h109.7v109.7h-109.7z"
         id="path36" />
      <path
         d="m767.8 658.1h109.7v109.7h-109.7z"
         id="path37" />
      <path
         d="m877.5 658.1h109.7v109.7h-109.7z"
         id="path38" />
      <path
         d="m1206.5 658.1h109.7v109.7h-109.7z"
         id="path39" />
      <path
         d="m1316.2 658.1h109.7v109.7h-109.7z"
         id="path40" />
      <path
         d="m1755 658.1h109.7v109.7h-109.7z"
         id="path41" />
      <path
         d="m1864.7 658.1h109.7v109.7h-109.7z"
         id="path42" />
      <path
         d="m2084 658.1h109.7v109.7h-109.7z"
         id="path43" />
      <path
         d="m2193.7 658.1h109.7v109.7h-109.7z"
         id="path44" />
      <path
         d="m2413.1 658.1h109.7v109.7h-109.7z"
         id="path45" />
      <path
         d="m2522.8 658.1h109.7v109.7h-109.7z"
         id="path46" />
      <path
         d="m2742.1 658.1h109.7v109.7h-109.7z"
         id="path47" />
      <path
         d="m2851.8 658.1h109.7v109.7h-109.7z"
         id="path48" />
      <path
         d="m2961.5 658.1h109.7v109.7h-109.7z"
         id="path49" />
      <path
         d="m0 767.8h109.7v109.7h-109.7z"
         id="path50" />
      <path
         d="m109.7 767.8h109.7v109.7h-109.7z"
         id="path51" />
      <path
         d="m767.8 767.8h109.7v109.7h-109.7z"
         id="path52" />
      <path
         d="m877.5 767.8h109.7v109.7h-109.7z"
         id="path53" />
      <path
         d="m1206.5 767.8h109.7v109.7h-109.7z"
         id="path54" />
      <path
         d="m1316.2 767.8h109.7v109.7h-109.7z"
         id="path55" />
      <path
         d="m1755 767.8h109.7v109.7h-109.7z"
         id="path56" />
      <path
         d="m1864.7 767.8h109.7v109.7h-109.7z"
         id="path57" />
      <path
         d="m2084 767.8h109.7v109.7h-109.7z"
         id="path58" />
      <path
         d="m2193.7 767.8h109.7v109.7h-109.7z"
         id="path59" />
      <path
         d="m2742.1 767.8h109.7v109.7h-109.7z"
         id="path60" />
      <path
         d="m2851.8 767.8h109.7v109.7h-109.7z"
         id="path61" />
      <path
         d="m0 877.5h109.7v109.7h-109.7z"
         id="path62" />
      <path
         d="m109.7 877.5h109.7v109.7h-109.7z"
         id="path63" />
      <path
         d="m658.1 877.5h109.7v109.7h-109.7z"
         id="path64" />
      <path
         d="m767.8 877.5h109.7v109.7h-109.7z"
         id="path65" />
      <path
         d="m877.5 877.5h109.7v109.7h-109.7z"
         id="path66" />
      <path
         d="m987.2 877.5h109.7v109.7h-109.7z"
         id="path67" />
      <path
         d="m1206.5 877.5h109.7v109.7h-109.7z"
         id="path68" />
      <path
         d="m1316.2 877.5h109.7v109.7h-109.7z"
         id="path69" />
      <path
         d="m1425.9 877.5h109.7v109.7h-109.7z"
         id="path70" />
      <path
         d="m1535.6 877.5h109.7v109.7h-109.7z"
         id="path71" />
      <path
         d="m1755 877.5h109.7v109.7h-109.7z"
         id="path72" />
      <path
         d="m1864.7 877.5h109.7v109.7h-109.7z"
         id="path73" />
      <path
         d="m1974.3 877.5h109.7v109.7h-109.7z"
         id="path74" />
      <path
         d="m2084 877.5h109.7v109.7h-109.7z"
         id="path75" />
      <path
         d="m2742.1 877.5h109.7v109.7h-109.7z"
         id="path76" />
      <path
         d="m2851.8 877.5h109.7v109.7h-109.7z"
         id="path77" />
      <path
         d="m2961.5 877.5h109.7v109.7h-109.7z"
         id="path78" />
    </g>
    <path
       d="m3400.3 329.1h109.7v109.7h-109.7z"
       fill="#00e437"
       id="path79" />
    <path
       d="m3509.9 329.1h109.7v109.7h-109.7z"
       fill="#fff1e8"
       id="path80" />
    <path
       d="m3619.6 329.1h109.7v109.7h-109.7z"
       fill="#83769c"
       id="path81" />
    <path
       d="m3071.2 438.7h109.7v109.7h-109.7z"
       fill="#1d2b53"
       id="path82" />
    <path
       d="m3180.9 438.7h109.7v109.7h-109.7z"
       fill="#1d2b53"
       id="path83" />
    <path
       d="m3509.9 438.7h109.7v109.7h-109.7z"
       fill="#28adff"
       id="path84" />
    <g
       fill="#1d2b53"
       id="g90">
      <path
         d="m3180.9 548.4h109.7v109.7h-109.7z"
         id="path85" />
      <path
         d="m3071.2 658.1h109.7v109.7h-109.7z"
         id="path86" />
      <path
         d="m3180.9 658.1h109.7v109.7h-109.7z"
         id="path87" />
      <path
         d="m3180.9 767.8h109.7v109.7h-109.7z"
         id="path88" />
      <path
         d="m3071.2 877.5h109.7v109.7h-109.7z"
         id="path89" />
      <path
         d="m3180.9 877.5h109.7v109.7h-109.7z"
         id="path90" />
    </g>
    <path
       d="m3509.9 0h109.7v109.7h-109.7z"
       fill="#ff004d"
       id="path91" />
    <path
       d="m3400.3 109.7h109.7v109.7h-109.7z"
       fill="#ffa301"
       id="path92" />
    <path
       d="m3509.9 109.7h109.7v109.7h-109.7z"
       fill="#fff1e8"
       id="path93" />
    <path
       d="m3619.6 109.7h109.7v109.7h-109.7z"
       fill="#fca"
       id="path94" />
    <path
       d="m3290.6 219.4h109.7v109.7h-109.7z"
       fill="#ffec25"
       id="path95" />
    <g
       fill="#fff1e8"
       id="g98">
      <path
         d="m3400.3 219.4h109.7v109.7h-109.7z"
         id="path96" />
      <path
         d="m3509.9 219.4h109.7v109.7h-109.7z"
         id="path97" />
      <path
         d="m3619.6 219.4h109.7v109.7h-109.7z"
         id="path98" />
    </g>
    <path
       d="m3729.3 219.4h109.7v109.7h-109.7z"
       fill="#ff77a8"
       id="path99" />
  </g>
</svg>
