<?xml version="1.0" encoding="UTF-8" standalone="no"?>
<svg
   enable-background="new 0 0 3839 1214.3"
   height="607"
   viewBox="0 0 1920 607"
   width="1920"
   version="1.1"
   id="svg23"
   xmlns:xlink="http://www.w3.org/1999/xlink"
   xmlns="http://www.w3.org/2000/svg"
   xmlns:svg="http://www.w3.org/2000/svg">
  <defs
     id="defs23" />
  <linearGradient
     id="a">
    <stop
       offset="0"
       stop-color="#1be7f2"
       id="stop1" />
    <stop
       offset=".01123279"
       stop-color="#1ce5f1"
       id="stop2" />
    <stop
       offset=".1812"
       stop-color="#2db8e0"
       id="stop3" />
    <stop
       offset=".3516"
       stop-color="#3a93d2"
       id="stop4" />
    <stop
       offset=".5199"
       stop-color="#4677c8"
       id="stop5" />
    <stop
       offset=".6855"
       stop-color="#4e63c0"
       id="stop6" />
    <stop
       offset=".847"
       stop-color="#5257bc"
       id="stop7" />
    <stop
       offset="1"
       stop-color="#5353ba"
       id="stop8" />
  </linearGradient>
  <linearGradient
     id="b"
     gradientUnits="userSpaceOnUse"
     x1="597.97693"
     x2="597.97693"
     xlink:href="#a"
     y1="662.01093"
     y2="0" />
  <linearGradient
     id="c"
     gradientUnits="userSpaceOnUse"
     x1="3240.9927"
     x2="3240.9927"
     xlink:href="#a"
     y1="662.01093"
     y2="0" />
  <linearGradient
     id="d"
     gradientUnits="userSpaceOnUse"
     x1="1830.8784"
     x2="1830.8784"
     xlink:href="#a"
     y1="662.01093"
     y2="0" />
  <g
     transform="scale(.50013024 .49987646391)"
     id="g23">
    <path
       d="m0 0h1196v354.6h-1148.7v307.4h-47.3v-354.6h1148.7v-260.1h-1148.7z"
       fill="url(#b)"
       id="path8" />
    <path
       d="m3839 612.3v49.7h-1196v-354.6h1148.7v-260.1h-1148.7v-47.3h1196v354.6h-1148.7v260.1h1148.7v47.3"
       fill="url(#c)"
       id="path9" />
    <path
       d="m1806 0v614.7h-610v47.3h659.7v-614.7h610.1v-47.3z"
       fill="url(#d)"
       id="path10" />
    <path
       d="m985.8 892.3v232.7h36.3v-210.4h33.6s24.4 0 32.8 10.9c7.1 9.3 8.4 26.1 8.4 37.5 0 12.2-.8 31-4.9 37.9-6.2 10.5-16.4 12.6-25.7 12.6h-22.2v20.7h31.9s28.8 1.2 41.2-11.4c15.2-15.4 19.1-36.2 19.1-64 0-25.2-9.2-50.7-27.9-59.4-15.5-7.1-43.4-7.1-43.4-7.1z"
       id="path11" />
    <path
       d="m1165 892.3h36.3v232.8h-36.3z"
       id="path12" />
    <path
       d="m1394.6 946.6 66.5 174.2-38.1 93.5h30.1l109.9-267.7h-33.6l-47.9 130.4-44.6-130.4z"
       id="path13" />
    <path
       d="m1590.4 1123.7v-22s38.4 1.5 46.4 1.5c17.7 0 26.6-3.8 33.3-10.9 3.9-4.3 7.5-23.3 7.5-30s-1.3-21.3-3.9-27.3c-2.7-5.9-8.9-11.3-18.2-12.1-6.6-.6-16.9-1.9-28.8-2.5-16.8-.8-27.9-9.5-33.2-15.8s-12.4-15.8-12.4-44.8c0-29.1 7.5-45.4 15.1-52.9 7.5-7.6 18.6-10.9 27-12.4 9.7-1.7 25.7-1.8 25.7-1.8l50.9 1.5v22s-37.1-1.5-45.1-1.5c-17.7 0-23.1 3.8-29.7 10.9-3.9 4.2-7 16-7 22.7 0 6.8.8 20.4 3.5 26.3 2.6 5.9 8.9 11.3 18.2 12.2 6.6.5 16.9 1.8 28.8 2.4 16.9.8 27.9 9.5 33.2 15.8s12.5 19.6 12.5 48.6c0 29.1-7.6 49.8-15.1 57.4-7.6 7.6-18.6 10.9-27 12.4-9.8 1.7-25.7 1.8-25.7 1.8z"
       id="path14" />
    <path
       d="m1788.7 914.6h-36.3v170.9s.9 15.6 1.8 21.1 8.9 18.5 29.7 18.5l37.6-.7v-21.9s-10.2.7-16.4.7-13.8-.4-15.1-10.9c-1.4-10.5-1.4-23.1-1.4-23.1v-100.7h41v-21.9h-41v-32"
       id="path15" />
    <path
       d="m2139.3 946.6h36.3v178.5h-36.3z"
       id="path16" />
    <path
       d="m2139.3 892.3h36.3v32.4h-36.3z"
       id="path17" />
    <path
       d="m2265.5 979.3c-5 6.2-11.1 19.1-11.1 56.5s6.1 50.4 11.1 56.5 14.2 10.2 26 10.2c11.9 0 21-4.1 26.1-10.2 5-6.1 11.1-19.1 11.1-56.5 0-37.5-6.1-50.4-11.1-56.5s-14.2-10.2-26.1-10.2c-11.8 0-21 4.1-26 10.2m24.9-34.3c24.7 0 43.9 5.5 54.2 13.9 10.4 8.3 23.2 26 23.2 76.9 0 51-12.8 68.6-23.2 76.9-10.3 8.3-29.5 13.9-54.2 13.9-24.8 0-43.9-5.6-54.3-13.9-10.4-8.4-23.1-26-23.1-76.9 0-51 12.7-68.6 23.1-76.9 10.5-8.3 29.6-13.9 54.3-13.9z"
       id="path18" />
    <path
       d="m2443.1 971.6 35.6-1.5c9.3 0 20.3 2.5 25.6 9.3 5 6.4 8.1 13.9 8.1 26.1v119.3h36.4v-122.3c0-23.1-7.1-36.6-17.8-45-15.2-12.1-42.5-10.9-42.5-10.9l-81.5 1.4v176.8h36v-153.2"
       id="path19" />
    <path
       d="m2067 914.6h-36.3v170.9s.9 15.6 1.7 21.1c.9 5.5 8.8 18.5 29.7 18.5l37.6-.7v-21.9s-10.2.7-16.4.7-13.8-.4-15.1-10.9-1.3-23.1-1.3-23.1v-100.7h40.9v-21.9h-40.8z"
       id="path20" />
    <path
       d="m1339.2 1005.5c0-12.2-3.1-19.8-8.1-26.1-5.3-6.7-16.2-9.3-25.6-9.3l-47.9 1.5v-23.6l57.7-1.5s27.3-1.2 42.6 10.9c10.6 8.5 17.7 21.9 17.7 45v120.6l-69.6 1.5s-31.5.1-47.4-6.3c-15.5-6.3-23.9-23.6-23.9-47.6 0-23.2 7.1-36.6 17.7-45.1 15.3-12.1 42.5-10.9 42.5-10.9h22.2v20.6h-12.5c-9.3 0-19 1.7-24.3 8.5-5 6.3-7.6 11.8-7.6 24 0 16 3.1 23.2 10.6 28.6 6.7 4.9 18.6 5.9 31.9 5.9l24-1.5z"
       id="path21" />
    <path
       d="m1951.9 1005.5c0-12.2-3-19.8-8-26.1-5.4-6.7-16.3-9.3-25.6-9.3l-47.9 1.5v-23.6l57.6-1.5s27.3-1.2 42.5 10.9c10.6 8.5 17.8 21.9 17.8 45v120.6l-69.6 1.5s-31.6.1-47.4-6.3c-15.5-6.3-24-23.6-24-47.6 0-23.2 7.1-36.6 17.7-45.1 15.2-12.1 42.6-10.9 42.6-10.9h22.2v20.6h-12.5c-9.3 0-19 1.7-24.2 8.5-5 6.3-7.7 11.8-7.7 24 0 16 3.1 23.2 10.6 28.6 6.6 4.9 18.6 5.9 31.9 5.9l23.9-1.5v-95.2"
       id="path22" />
    <path
       d="m2853.2 922.3c.5 26.8-.8 40.9-9.8 54.4-8 11.8-23.7 22.6-58.5 22.6l-43.1-1.3c-6.8.1-24.5 2.1-32.8 11.1-7.2 7.6-7.7 13.4-8.4 34v60.2h146.7v29.6h-160.3l-7.7-.1c-10.9 0-21.6-7.4-21.6-22.2v-44.9c.7-52.5 4.5-60.1 15.9-73.8 7.9-9.5 26.4-20.1 49-21.3 4.4-.2 12.8-.8 24.4-.4 8.6.3 17.1.5 20.9.5 20 .2 27.3-3.4 32.7-10.6 6.2-8.1 9.5-17.6 9.5-33.1 0-14.5-2.9-28.4-8.5-34.8-6.8-7.4-13.2-12.3-32-12.3-47.4-.1-102.8 1.1-102.8 1.1v-27.8s54.1-2.4 109.3-3.2c34.4-.5 53.3 8.6 62.9 21.1 10.1 13.2 13.8 25.6 14.2 51.2"
       id="path23" />
  </g>
</svg>
