<?xml version="1.0" encoding="UTF-8" standalone="no"?>
<svg
   enable-background="new 0 0 3839 1015.3"
   height="507.99997"
   viewBox="0 0 1920 507.99997"
   width="1920"
   version="1.1"
   id="svg17"
   xmlns="http://www.w3.org/2000/svg"
   xmlns:svg="http://www.w3.org/2000/svg">
  <defs
     id="defs17" />
  <g
     transform="scale(.50013024 .50029543302)"
     id="g17">
    <path
       d="m2529 88.5c-16.3-51.6-64.9-88.5-121-88.5s-104.7 36.8-121 88.5l-42.8 126.8v-208h-224.2c-39.8 0-76.7 16.3-104.7 42.8v-42.8h-230c-42.8 0-81.1 17.7-109.2 47.1v-47.1h-218.2c-92.9 0-169.6 76.7-169.6 169.6 0 44.3 17.7 85.5 45.8 115h-45.8v197.6h218.2c61.9 0 115-32.5 146-82.6 25.1 48.6 75.2 82.6 134.2 82.6h231.5v-42.8c26.5 26.5 63.4 42.8 104.7 42.8h639.9z"
       fill="#fff"
       id="path1" />
    <g
       fill="#034693"
       id="g9">
      <path
         d="m1407 327.3h-184.4v57.6h184.4c35.4 0 64.9-29.5 64.9-64.9s-29.5-64.9-64.9-64.9h-47.2c-42.8 0-78.2-35.4-78.2-78.2s35.4-78.2 78.2-78.2h182.9v-57.4h-184.4c-75.2 0-135.7 60.4-135.7 135.7s60.4 135.6 135.6 135.6h47.1c4.5 0 7.3 3 7.3 7.3.2 4.4-2.8 7.4-5.6 7.4z"
         id="path2" />
      <path
         d="m1358.2 171.1h184.4v-59.1h-184.4c-35.4 0-64.9 29.5-64.9 64.9s29.5 64.9 64.9 64.9h47.1c42.8 0 78.2 35.4 78.2 78.2s-35.4 78.2-78.2 78.2h-182.7v57.6h184.4c75.2 0 135.7-60.4 135.7-135.7s-60.4-135.7-135.7-135.7h-47.2c-4.5 0-7.3-3-7.3-7.3-.1-3 2.9-6 5.7-6z"
         id="path3" />
      <path
         d="m2020.3 112c-25.1 0-44.3 19.2-44.3 44.3v184.4c0 25.1 19.2 44.3 44.3 44.3h119.5v-129.9h-91.4v57.6h33.9v13.3h-33.9c-7.3 0-13.3-6-13.3-13.3v-129.8c0-7.3 6-13.3 13.3-13.3h163.6v-57.6z"
         id="path4" />
      <path
         d="m2383 384.9h134.2l-91.4-271.4c-3-7.3-8.8-13.3-17.7-13.3-7.3 0-14.8 6-17.7 11.8l-118 343.5h67.9l41.3-122.4v51.6h1.5zm23.6-123.9 19.2 59.1h-39.8z"
         id="path5" />
      <path
         d="m2496.5 101.7c-11.8-38.3-47.1-67.9-89.9-67.9s-78.2 28-88.5 66.4l-107.7 315.6v-231.4h-162.3v57.6h106.2v156.3h-132.7c-32.5 0-57.6-26.5-57.6-57.6v-184.4c0-32.5 26.5-57.6 57.6-57.6h190.2v-57.4h-191.7c-63.4 0-115 51.6-115 115v184.4c0 63.4 51.6 115 115 115h237.5l119.5-346.4c4.5-13.3 16.3-22.1 31-22.1s26.5 8.8 31 22.1l97.4 289.1h-153.3v57.6h233z"
         id="path6" />
      <path
         d="m1685.5 398.1c-32.5 0-57.6-26.5-57.6-57.6v-184.2c0-32.5 26.5-57.6 57.6-57.6h197.6v-57.4h-197.6c-63.4 0-115 51.6-115 115v184.4c0 63.4 51.6 115 115 115h197.6v-57.4z"
         id="path7" />
      <path
         d="m1698.8 314.1h143v-57.6h-200.6v85.5c0 25.1 19.2 44.3 44.3 44.3h197.6v-57.6h-171.1c-7.3-1.4-13.2-7.4-13.2-14.6z"
         id="path8" />
      <path
         d="m1841.8 184.4h-143c0-7.3 6-13.3 13.3-13.3h169.6v-59.1h-196.1c-25.1 0-44.3 19.2-44.3 44.3v85.6h200.6c-.1 0-.1-57.5-.1-57.5z"
         id="path9" />
    </g>
    <g
       fill="#f00"
       id="g16">
      <path
         d="m1232 763.7h179.1v78.1h-179.1z"
         id="path10" />
      <path
         d="m1713.1 937.3v-274.4-78.1h-197.9v78.1h101.2v274.4h-129v78h343.2v-78z"
         id="path11" />
      <path
         d="m716 937.3v-274.4h468.4v-78.1h-498.6c-36.8 0-66.6 29.8-66.6 66.6v297.4c0 36.8 29.8 66.6 66.6 66.6h498.6v-251.7h-303.4v78.1h206.7v95.5z"
         id="path12" />
      <path
         d="m1884.7 651.4v297.4c0 36.8 29.8 66.6 66.6 66.6h482.2c36.8 0 66.6-29.8 66.6-66.6v-297.4c0-36.8-29.8-66.6-66.6-66.6h-482.2c-36.8 0-66.6 29.8-66.6 66.6zm96.8 285.9v-274.4h421.8v274.4z"
         id="path13" />
      <path
         d="m2554.1 651.4v297.4c0 36.8 29.8 66.6 66.6 66.6h482.2c36.8 0 66.6-29.8 66.6-66.6v-297.4c0-36.8-29.8-66.6-66.6-66.6h-482.2c-36.8 0-66.6 29.8-66.6 66.6zm96.8 285.9v-274.4h421.8v274.4z"
         id="path14" />
      <path
         d="m3223.6 651.4v297.4c0 36.8 29.8 66.6 66.6 66.6h482.2c36.8 0 66.6-29.8 66.6-66.6v-297.4c0-36.8-29.8-66.6-66.6-66.6h-482.2c-36.8 0-66.6 29.8-66.6 66.6zm96.8 285.9v-274.4h421.8v274.4z"
         id="path15" />
      <path
         d="m498.6 763.7h-401.8v-100.8h468.4v-78.1h-498.6c-36.8 0-66.6 29.8-66.6 66.6v123.8c0 36.8 29.8 66.6 66.6 66.6h401.8v95.5h-468.4v78.1h498.6c36.8 0 66.6-29.8 66.6-66.6v-118.5c0-36.7-29.9-66.6-66.6-66.6z"
         id="path16" />
    </g>
  </g>
</svg>
