<?xml version="1.0" encoding="UTF-8" standalone="no"?>
<svg
   enable-background="new 0 0 3840 1212.8"
   height="606"
   viewBox="0 0 1920 606"
   width="1920"
   version="1.1"
   id="svg10"
   xmlns="http://www.w3.org/2000/svg"
   xmlns:svg="http://www.w3.org/2000/svg">
  <defs
     id="defs10" />
  <linearGradient
     id="a"
     gradientUnits="userSpaceOnUse"
     x1="607.45972"
     x2="607.45972"
     y1="-.000103"
     y2="1212.8375">
    <stop
       offset=".2483"
       stop-color="#131e31"
       id="stop1" />
    <stop
       offset=".667"
       stop-color="#14437b"
       id="stop2" />
    <stop
       offset=".8383"
       stop-color="#136193"
       id="stop3" />
    <stop
       offset="1"
       stop-color="#0d7bc1"
       id="stop4" />
  </linearGradient>
  <g
     transform="scale(.5 .49962899)"
     id="g10">
    <path
       d="m23 771.7 232.4 96.1c15.7 78.5 85.2 137.8 168.3 137.8 94.7 0 171.7-77 171.7-171.7 0-2.7-.1-5.4-.2-8.1l206.1-147.1c1.7 0 3.5.1 5.2.1 126.1 0 228.7-102.6 228.7-228.7s-102.6-228.7-228.7-228.7-228.7 102.6-228.7 228.7v3l-144.5 209.5c-3.2-.2-6.4-.3-9.6-.3-35.8 0-69.1 11-96.6 29.9l-325-134.4c0-.1-2.1 27.8-2.1 48.6 0 97.8 23.4 166.8 23 165.3z"
       fill="#fff"
       id="path4" />
    <path
       d="m606.4 0c-318.5 0-579.5 245.6-604.3 557.8l325 134.4c27.5-18.8 60.8-29.9 96.6-29.9 3.2 0 6.4.1 9.6.3l144.5-209.5c0-1 0-2 0-3 0-126.1 102.6-228.7 228.7-228.7s228.7 102.6 228.7 228.7-102.6 228.7-228.7 228.7c-1.7 0-3.5 0-5.2-.1l-206.1 147.1c.1 2.7.2 5.4.2 8.1 0 94.7-77 171.7-171.7 171.7-83.1 0-152.6-59.3-168.3-137.8l-232.4-96.1c72 254.5 305.8 441.2 583.4 441.2 334.9 0 606.4-271.5 606.4-606.4 0-335-271.5-606.5-606.4-606.5zm-224.3 920.1-74.5-30.8c13.2 27.5 36 50.5 66.4 63.1 65.6 27.3 141.1-3.8 168.5-69.4 13.2-31.7 13.3-66.7.2-98.6-13.1-31.8-37.8-56.6-69.6-69.9-31.5-13.1-65.3-12.6-94.9-1.4l76.9 31.8c48.4 20.2 71.2 75.7 51.1 124-20.2 48.5-75.8 71.4-124.1 51.2zm576.8-470c0-84-68.4-152.4-152.4-152.4s-152.4 68.4-152.4 152.4 68.4 152.4 152.4 152.4 152.4-68.4 152.4-152.4zm-266.6-.2c0-63.2 51.3-114.5 114.5-114.5s114.5 51.2 114.5 114.5c0 63.2-51.3 114.5-114.5 114.5s-114.5-51.3-114.5-114.5z"
       fill="url(#a)"
       id="path5" />
    <path
       d="m1860.5 414.9-40.6 71.4c-31.3-21.9-73.7-35-110.7-35-42.3 0-68.5 17.5-68.5 48.9 0 38.1 46.5 47 115.6 71.8 74.3 26.3 117 57.2 117 125.2 0 93.1-73.2 145.4-178.5 145.4-51.3 0-113.2-13.2-160.7-42.2l29.6-79.2c38.6 20.4 84.9 32.5 126.1 32.5 55.5 0 81.9-20.5 81.9-50.8 0-34.7-40.3-45.1-105.3-66.6-74.1-24.7-125.4-57.2-125.4-132.5 0-85 68-133.7 165.9-133.7 68.3.1 123.2 21.7 153.6 44.8"
       id="path6" />
    <path
       d="m2178.1 460.1v374.7h-95.7v-374.7h-138.8v-82.1h373v82.1z"
       id="path7" />
    <path
       d="m2518.2 459.8v103h183.1v82h-183.1v107.2h212.5v82.8h-308.1v-456.8h308.1v81.8z"
       id="path8" />
    <path
       d="m2944.2 746.1-30.2 88.7h-100.3l171.3-456.8h96.3l176.1 456.8h-103.7l-30.9-88.7zm88.4-259.1-62.4 182.9h126.1z"
       id="path9" />
    <path
       d="m3748.4 554.6-125 266.9h-54l-123-264.5v277.8h-91.6v-456.8h91.4l153.5 329.8 148.1-329.8h92.2v456.8h-91.6z"
       id="path10" />
  </g>
</svg>
