<?xml version="1.0" encoding="UTF-8" standalone="no"?>
<svg
   enable-background="new 0 0 3839 1000.4"
   height="500"
   viewBox="0 0 1920 500"
   width="1920"
   version="1.1"
   id="svg6"
   xmlns="http://www.w3.org/2000/svg"
   xmlns:svg="http://www.w3.org/2000/svg">
  <defs
     id="defs6" />
  <g
     transform="scale(.50013024 .49980007401)"
     id="g6">
    <g
       fill="#333"
       id="g5">
      <path
         d="m2638 471.5-148 169.1c-8.2 9.4-22.4 10.3-31.8 2.1s-10.3-22.4-2.1-31.8l122.1-139.5h-8.8-111.1-68.4v514.4h179.5v-334.8h110.7l158.4-179.5z"
         id="path1" />
      <path
         d="m3270 722.1c0-55.3-16.8-106.8-45.5-149.5l-162.5 185.5-9.5 10.9h-.1c-12.6 13.6-30.6 22.1-50.5 22.1-8.7 0-16.9-1.6-24.6-4.5l85.2-97.3 133.3-152.2c-48.8-51.1-117.6-83-193.9-83-148.1 0-268.1 120-268.1 268.1s120 268.1 268.1 268.1c148.1-.2 268.1-120.2 268.1-268.2zm-337 0c0-38.1 30.9-69 69-69 9.7 0 19 2 27.4 5.7l-86.5 98.8c-6.3-10.4-9.9-22.5-9.9-35.5z"
         id="path2" />
      <path
         d="m1311.4 758.1-9.5 10.9h-.1c-12.6 13.6-30.6 22.1-50.5 22.1-8.7 0-16.9-1.6-24.6-4.5l85.2-97.3 133.3-152.2c-48.8-51.1-117.6-83-193.9-83-148.1 0-268.1 120-268.1 268.1s120 268.1 268.1 268.1 268.1-120 268.1-268.1c0-55.3-16.8-106.8-45.5-149.5zm-129.1-36c0-38.1 30.9-69 69-69 9.7 0 19 2 27.4 5.7l-86.5 98.8c-6.3-10.4-9.9-22.5-9.9-35.5z"
         id="path3" />
      <path
         d="m2291.2 292v-292l-406.1 465c-24.1-7.1-49.7-11-76.2-11-148.1 0-268.1 120-268.1 268.1s120 268.1 268.1 268.1 268.1-120 268.1-268.1c0-55.3-16.8-106.8-45.5-149.5l-162.5 185.5-9.5 10.9h-.1c-12.6 13.6-30.6 22.1-50.5 22.1-38.1 0-69-30.9-69-69s30.9-69 69-69c26.2 0 49 14.6 60.6 36.1l133.3-152.2c-27.3-28.6-60.8-51.1-98.4-65.5h155.7l110.3-126c8.2-9.4 22.4-10.3 31.8-2.1s10.3 22.4 2.1 31.8l-84.3 96.3-9.1 10.4v503.9h179.5v-514.3h99.5l158.4-179.5z"
         id="path4" />
      <path
         d="m3839 471.5h-209.8l-148.1 169.1c-8.2 9.4-22.4 10.3-31.8 2.1s-10.3-22.4-2.1-31.8l122.1-139.5h-392.8l226.4 258.6-223.9 255.8h209.8l145.6-166.3c8.2-9.4 22.4-10.3 31.8-2.1s10.3 22.4 2.1 31.8l-119.7 136.7h388l-224-255.9z"
         id="path5" />
    </g>
    <path
       d="m942.6 292-347 396.3c-11.9 13.6-32.5 14.9-46.1 3.1-13.6-11.9-14.9-32.5-3.1-46.1l309.4-353.3h-855.8l620.1 708.4 620.2-708.4z"
       fill="#111"
       id="path6" />
  </g>
</svg>
