<svg enable-background="new 0 0 3840 1171.2" height="586" viewBox="0 0 1920 586.00002" width="1920" xmlns="http://www.w3.org/2000/svg" xmlns:xlink="http://www.w3.org/1999/xlink"><radialGradient id="a" cx="602.94427" cy="765.48438" gradientUnits="userSpaceOnUse" r="151.5321"><stop offset=".5225" stop-color="#ffe41b"/><stop offset=".8933" stop-color="#716a13"/><stop offset="1" stop-color="#49482e"/></radialGradient><g transform="scale(.5 .50034153)"><path d="m0 0h3840v1171.2h-3840z"/><g fill="#fff"><path d="m1533.5 565v1.9c85.5 1.6 148.7 18.6 189.4 51 40.8 32.4 61.2 71.6 61.2 117.6 0 51.3-23.2 93.7-69.6 127-46.3 33.4-108.1 50.1-185.1 50.1-66.6 0-117.9-13.3-154.3-39.9s-54.6-56.8-54.6-90.8c0-22.6 8.2-40.9 24.5-54.7s35.9-20.7 58.7-20.7c21.4 0 39.8 6.1 55 18.1 15.3 12.2 22.9 28.2 22.9 47.9 0 26.5-17.7 48.6-53.2 66.5-6.9 3.5-10.5 7.5-10.5 11.8 0 8.2 9.9 15.3 29.9 21.5 19.9 6.2 40.2 9.2 61.1 9.2 68.3 0 102.5-50.2 102.5-150.7 0-99.5-41.1-149.2-123.1-149.2l-68.1 2.8c-13.7 0-20.7-5-20.7-15.2 0-11.6 7.2-17.5 21.7-17.5l49.6 1.9c50.6 0 84.5-11.2 101.8-33.8 17.3-22.5 25.8-54.5 25.8-96.1 0-42.8-6.5-74.3-19.5-94.4-13-20.2-35.4-30.2-67-30.2-17.2 0-33.4 2.9-48.5 8.7s-22.8 11.5-22.8 17.1c0 5.2 5 10.7 14.9 16.4 26 16.6 39.2 34.6 39.2 54 0 19.1-7.2 34.2-21.9 45.5-14.6 11.2-31 16.9-49.3 16.9-21.1 0-39.9-6.5-56.4-19.3-16.5-12.9-24.9-28.8-24.9-48.1 0-32.6 18.4-60.9 55.2-84.6 36.8-23.9 83.9-35.8 141.6-35.8 63.7 0 117.5 13.5 161.2 40.5 43.9 27 65.8 61.4 65.8 103.7-.1 83.3-77.6 133.6-232.5 150.9z"/><path d="m2305.6 298.2v571.8h56c85.6 0 137.3-22.5 155.1-67.3 17.8-44.9 26.7-121.7 26.7-230.4 0-85-5.5-146.2-16.4-183.3-10.8-37.2-27.4-61.6-49.6-73.3-22.2-11.6-50.4-17.5-84.5-17.5zm-173 571.8v-571.8h-89.7v-31h359.4c103.9 0 186.3 29.4 246.9 88.4 60.6 58.9 90.9 133.3 90.9 223.1 0 46.5-9.2 90.4-27.7 131.3-18.5 41-46.9 78.3-85.3 111.8s-77.8 55.1-118.2 64.8c-40.4 9.6-89.9 14.5-148.8 14.5h-317.1v-31z"/><path d="m3432.2 584.4c0-97-2-161-6-191.8-4.1-31-14.4-55.8-31.1-74.7s-44.2-28.3-82.6-28.3c-32.3 0-58.1 7.7-77.3 22.9-19.2 15.3-31.1 39.8-35.9 73.5-4.7 33.7-7.1 99.6-7.1 197.5 0 97 2 161.2 6.1 192.5 4 31.3 14.7 56.3 32.2 74.9 17.4 18.6 44.7 27.8 82.1 27.8 30.9 0 56.2-7.4 75.7-22.4s31.7-39.3 36.6-73c5-33.7 7.3-100.1 7.3-198.9zm-436.6-2.7c0-94.8 31.2-172.4 93.9-232.7 62.5-60.2 137.6-90.4 225.1-90.4 81.3 0 154 28.3 218.1 85 64.3 56.7 96.3 137.4 96.3 241.9 0 98-30.2 176.5-90.9 235.6-60.7 59-134.8 88.6-222.3 88.6-94.6 0-171.7-31.5-231-94.1-59.4-62.6-89.2-140.6-89.2-233.9z"/><path d="m61.8 61.8h1047.7v1047.7h-1047.7z"/></g><path d="m460.1 790.3c0-69.5 56.2-125.8 125.5-125.8s125.5 56.3 125.5 125.8-56.2 125.8-125.5 125.8-125.5-56.3-125.5-125.8z" fill="url(#a)"/><path d="m438 1034.5c0-14.3 66.1-25.9 147.6-25.9s147.6 11.6 147.6 25.9-66.1 25.9-147.6 25.9-147.6-11.6-147.6-25.9z" fill="#888"/><path d="m585.6 139.7 147 147.4-147 147.3-147-147.3z" fill="#f00"/><path d="m722.3 543.1c0-35.4-.7-70-10.8-82.6-11.7-14.7-67.9-19.3-125.2-19.3h-1.4c-57.4 0-113.5 4.5-125.2 19.3-10 12.6-10.8 47.2-10.8 82.6v9.7c0 35.4.7 70 10.8 82.6 11.7 14.7 67.9 19.3 125.2 19.3h1.4c57.4 0 113.5-4.5 125.2-19.3 10-12.6 10.8-47.2 10.8-82.6z" fill="#0000a0"/></g></svg>