<svg enable-background="new -1 -1 568.929 116.145" height="409.99985" viewBox="-1 -1 1920 409.99985" width="1920.0001" xmlns="http://www.w3.org/2000/svg"><g fill="#fff" stroke="#9fcfff" stroke-width="11.9995" transform="matrix(1.0000001 0 0 1.0016018 0 .001602)"><path d="m176.3681 178.07923c0 1.46438-1.01472 2.48307-3.04814 3.04814-2.43931.64863-9.99997.97493-22.68597.97493-11.62749 0-19.10857-.3263-22.44322-.97493-2.7656-.56905-4.51252-2.39952-5.24471-5.48745-2.76561-11.70709-4.91841-17.9705-6.46635-18.78228-1.30123-.56904-12.19655-.85157-32.685936-.85157-13.824071 0-21.181788.3661-22.077129 1.09431-1.384795 1.30123-2.928761 5.65457-4.635879 13.05209-1.543967 6.74888-3.414236 10.40983-5.610806 10.97887-2.76561.64863-12.033389.97493-27.811294.97493-12.439277 0-18.6589159-1.17787-18.6589159-3.53759 0-2.11301 9.1881929-28.09383 27.5645779-77.9385 19.920353-53.911492 30.736077-83.549291 32.443195-88.917356.974926-3.0879423 2.113005-4.6358832 3.414234-4.6358832 2.196571 0 5.59091.2029422 10.186996.6088267 4.592107.4098744 8.030218.6088368 10.306375.6088368 2.196571 0 5.427759-.1432545 9.697542-.4257838 4.26979-.2825292 7.46117-.4257837 9.57418-.4257837 1.54398 0 2.96856 1.3410188 4.26979 4.0270462 3.98327 8.539574 15.61078 37.811267 34.8825 87.819088 19.35529 50.330129 29.02896 76.593479 29.02896 78.790059zm-86.474065-111.117865c-1.707118 3.577394-4.596087 11.344977-8.658947 23.294801-4.393142 12.685994-6.585733 20.127274-6.585733 22.319864 0 1.46438 2.439307 2.27616 7.317923 2.43932 2.518894.16712 6.66532.24671 12.439277.24671 5.368069 0 8.332645-.65261 8.905665-1.94986.16315-.40588.24273-.9789.24273-1.70711 0-2.68205-1.87027-10.08354-5.610802-22.200492-3.660951-11.711073-6.342996-19.188167-8.050113-22.443233z"/><path d="m317.24708 8.0478837-.9789 8.0501233c-.89534 9.029025-1.58376 20.572954-2.07321 34.639767-.6526 15.937082-.97493 34.07472-.97493 54.400956 0 33.58128.93513 57.48889 2.8054 71.71886.16315 1.54396.24274 2.52287.24274 2.92477 0 .89535-.60884 1.42061-1.8265 1.58774-2.92876.4059-13.70469.60884-32.32381.60884-4.39315 0-6.91204-.85157-7.56067-2.56267-.16712-3.08793-.32629-6.17985-.48945-9.27176-.53022-2.33632-1.54946-1.73616-2.80142-.48547-8.78231 8.62313-19.76118 12.92873-32.93264 12.92873-17.15873 0-30.90321-6.01669-41.2255-18.05008-9.8408-11.46436-14.75921-25.94103-14.75921-43.42209 0-17.72776 4.83882-32.323818 14.51249-43.788171 10.24669-12.196534 24.06678-18.296801 41.47222-18.296801 12.27612 0 21.8304 3.903691 28.66286 11.707093 1.13808 1.30123 1.94985 1.953835 2.43931 1.953835.73218 0 1.09828-1.058499 1.09828-3.171499 0-6.26341-.16315-15.614764-.48945-28.054039-.3263-12.439285-.48946-21.750829-.48946-27.930684 0-2.35574 1.94986-4.0230662 1.94986-4.0230662 5.20492-.2467106 21.4683-1.4643841 21.4683-1.4643841l21.58768-3.0481336c1.79068 0 2.68601 3.0481336 2.68601 3.0481336zm-45.98075 112.0927963c0-6.42258-2.24035-12.05329-6.70909-16.89212-4.47272-4.838815-9.88059-7.258223-16.22359-7.258223-6.66929 0-11.9737 2.419408-15.91718 7.258223-3.94348 4.83883-5.91721 10.63268-5.91721 17.38157 0 6.58573 1.98965 12.15675 5.9769 16.70906 4.06684 4.87862 9.35134 7.31792 15.85749 7.31792s11.95381-2.4393 16.34297-7.31792c4.38916-4.87861 6.58971-10.6088 6.58971-17.19851z"/><path d="m580.951 114.89596c0 8.21327-2.64225 12.88894-7.92676 14.02702-.89534.16315-9.31154 1.05849-25.24863 2.68205-9.59407 1.05849-23.90362 2.31594-42.93261 3.78033 1.13808 5.28849 4.59211 9.31155 10.36607 12.07319 4.71546 2.27615 10.07955 3.41423 16.10022 3.41423 7.23437 0 14.51249-1.94986 21.83042-5.85355 3.08793-1.95382 6.17984-3.90368 9.27176-5.85354 1.70711.81177 4.5722 4.96218 8.59925 12.43928 4.02307 7.48107 6.0366 12.24031 6.0366 14.26975 0 .56904-.60884 1.50418-1.8265 2.80541-9.92436 10.65257-25.3322 15.97688-46.22748 15.97688-19.35131 0-34.96606-5.65061-46.8363-16.95181-12.19655-11.46435-18.2968-26.7926-18.2968-45.98474 0-18.7027 5.44766-34.030936 16.34296-45.98474 11.22162-12.359698 26.10418-18.539542 44.64372-18.539542 15.61077 0 28.86581 5.694372 39.76111 17.079138 10.89532 11.384765 16.34297 24.930288 16.34297 40.620644zm-42.68988-7.44128c0-5.04177-1.79068-9.470719-5.36807-13.294823-3.57738-3.820124-7.84717-5.730191-12.80537-5.730191-5.12533 0-9.35134 2.156787-12.68599 6.466363-3.09192 3.983268-4.63588 8.658941-4.63588 14.027011 0 2.19657 1.13808 3.29485 3.41423 3.29485 6.0167 0 15.36805-.93513 28.05403-2.8054 2.68603-.40986 4.02705-1.06247 4.02705-1.95781z"/><path d="m715.60637 177.58978c0 2.19258-1.13808 3.45801-3.41423 3.78032-2.27616.32233-8.21327.48945-17.80735.48945-10.24668 0-16.58968-.24671-19.02899-.73218-2.4393-.48946-3.65698-2.15281-3.65698-5.00198 0-3.82012.11939-9.59408.3661-17.32188.24672-7.72381.3661-13.53756.3661-17.44125 0-3.00835-.0836-7.50097-.24273-13.47788-.16714-5.9769-.24673-10.46953-.24673-13.47787 0-11.13805-4.83882-16.709058-14.51248-16.709058-3.1715 0-6.87225 1.384797-11.09826 4.146418-4.55629 3.09191-6.83245 6.14005-6.83245 9.1484v65.86532c0 2.68204-1.26144 4.1902-3.78033 4.51251-2.84519.32233-8.65894.48945-17.44125.48945-9.51449 0-15.69434-.24671-18.53954-.73218-2.52287-.40589-3.78032-1.74691-3.78032-4.02705 0-6.343.0398-15.89729.12335-28.66287.0796-12.76558.11938-22.35967.11938-28.78225 0-20.246653-1.58376-36.143937-4.75525-47.691856-.16316-.732192-.24274-1.341029-.24274-1.83048 0-1.30123.60882-2.196566 1.8265-2.682048 5.12532-.569038 11.95379-1.464374 20.48939-2.682037 12.92872-2.518894 20.20685-3.780336 21.83438-3.780336.89535 0 1.58376 2.745715 2.07322 8.233166.48945 5.48745 2.07321 8.233166 2.07321 8.233166.0521 1.143816 3.47791-2.825303 13.11178-8.475907 9.63388-5.650594 18.06998-8.475896 25.30832-8.475896 10.32627 0 18.94542 2.439307 25.85746 7.31792 7.72381 5.610806 11.58771 13.418188 11.58771 23.418156v38.909562c0 5.28848.0398 13.19534.12335 23.72456.0756 10.52524.11938 18.4321.11938 23.71661z"/><path d="m817.57582 145.38931c0 2.4393-.30641 6.14005-.91525 11.10223-.60883 4.96218-.91523 8.59926-.91523 10.91522 0 2.31595-.24274 3.8042-.7322 4.45283-.48945.6526-1.83047 1.58376-4.02704 2.8054-10.48942 5.77396-22.12091 8.65895-34.8825 8.65895-23.50172 0-35.2486-8.98525-35.2486-26.95575 0-5.36808.20295-13.43411.60883-24.21004.40589-10.77594.60884-18.84197.60884-24.21003 0-3.5774-2.07322-5.36808-6.21964-5.36808h-1.58376c-.7322.0836-1.26144.12336-1.58376.12336-3.09192 0-4.63589-1.09828-4.63589-3.294853 0-1.301231.0995-3.294855.30641-5.976902.20294-2.682048.30641-4.675672.30641-5.976902 0-1.707115-.10347-4.309576-.30641-7.803402-.20294-3.493817-.30641-6.100257-.30641-7.807382 0-1.623548 2.60246-2.518894 7.80739-2.682038 2.92875-.0796 4.51251-.895346 4.75525-2.439307.48946-3.087942.65261-7.966556.48946-14.635851-.3263-10.48943-.48946-15.001947-.48946-15.001947 0-9.43491.89534-14.15038 2.68205-14.15038 2.19657 0 5.3243.489451 9.39113 1.464384 4.63589 1.058489 7.84717 1.667326 9.63388 1.83047 4.14643.569038 10.40586 1.341029 18.78227 2.315951 2.03342.167134 3.05212.855548 3.05212 2.073211 0 3.251086-.26661 8.169499-.79188 14.755237-.52925 6.585729-.79188 11.547909-.79188 14.882562 0 3.983278 1.17788 5.976902 3.5376 5.976902 2.84519 0 7.15476-.123355 12.92872-.366096 5.77396-.242731 10.12333-.366096 13.0521-.366096 1.7867 0 2.68204.608837 2.68204 1.83048 0 1.870269-.20295 4.675671-.60883 8.416209-.40987 3.740537-.60884 6.54595-.60884 8.416218 0 1.953826.0398 4.799027.12336 8.539564.0796 3.740538.12336 6.585739.12336 8.539568 0 1.70712-1.17787 2.56266-3.53759 2.56266-1.62753 0-4.34937-.0597-8.17347-.18304-3.82411-.12336-6.54594-.18305-8.1695-.18305h-9.1484c-1.22165 0-1.83047 1.79068-1.83047 5.36807v8.65895c.0796 3.90368.12335 6.79265.12335 8.65895 0 6.82847.77198 11.54791 2.31595 14.15037 2.19657 3.49383 6.50616 5.24471 12.92873 5.24471 2.03342 0 4.94229-.46557 8.72262-1.40469 3.78033-.93513 6.44248-1.40469 7.99042-1.40469 1.69916-.004 2.55472.89136 2.55472 2.67807z"/><path d="m1056.8827 105.13873c0 3.1715-1.7469 4.75526-5.2447 4.75526-1.544 0-3.8002-.0995-6.7688-.30641-2.9685-.20294-5.185-.30641-6.6455-.30641-6.7488 0-11.3449 1.05849-13.7843 3.1715-2.4393 2.11699-3.6608 6.3828-3.6608 12.80538 0 3.4978.064 8.8022.187 15.91719.1194 7.11896.183 12.42335.183 15.91718 0 2.35972.1592 5.87742.4855 10.54912.3262 4.67567.4894 8.15358.4894 10.42973 0 1.94985-1.3449 3.04814-4.027 3.29485-3.8998.32233-9.8766.48945-17.9307.48945-7.72384 0-13.90368-.24671-18.53957-.73218-2.68204-.32631-4.02306-1.66334-4.02306-4.02705 0-6.50217.0398-16.2395.12335-29.21201.0796-12.96852.11939-22.70586.11939-29.21201 0-19.108579-1.74692-34.842719-5.24471-47.202407-.16316-.732192-.24274-1.341029-.24274-1.83048 0-1.217664.60882-2.029443 1.8265-2.439307 4.47272-.489451 11.01866-1.380817 19.63782-2.682048 12.84912-2.518893 19.47472-3.780325 19.88062-3.780325 1.4643 0 2.3995 2.562662 2.8054 7.684016.4058 5.121355 1.263 7.371529 2.1966 7.684017 1.4242.187493 2.1965-2.132899 10.0039-6.402686 7.8034-4.269787 15.3282-6.402685 22.5626-6.402685 4.5563 0 6.8325.974923 6.8325 2.928758 0 2.35973-.2468 5.690393-.7323 9.999978-.4894 4.635873-.772 7.970526-.8555 10.003948 0 2.35972.04 5.487451.1193 9.391142.1632 4.799019.2468 7.970519.2468 9.514489z"/><path d="m1182.8791 114.89596c0 8.21327-2.6462 12.88894-7.9307 14.02702-.8954.16315-9.3115 1.05849-25.2486 2.68205-9.5942 1.05849-23.9076 2.31594-42.9327 3.78033 1.1381 5.28849 4.5921 9.31155 10.3661 12.07319 4.7154 2.27615 10.0795 3.41423 16.1002 3.41423 7.2344 0 14.5125-1.94986 21.8305-5.85355 3.0878-1.95382 6.1798-3.90368 9.2717-5.85354 1.7071.81177 4.5722 4.96218 8.5953 12.43928 4.027 7.48107 6.0406 12.24031 6.0406 14.26975 0 .56904-.6089 1.50418-1.8306 2.80541-9.9203 10.65257-25.3281 15.97688-46.2234 15.97688-19.3553 0-34.9661-5.65061-46.8403-16.95181-12.1966-11.46435-18.2968-26.7926-18.2968-45.98474 0-18.7027 5.4477-34.030936 16.3429-45.98474 11.2177-12.359698 26.1043-18.539542 44.6397-18.539542 15.6148 0 28.8659 5.694372 39.7652 17.079138 10.8993 11.388745 16.3509 24.930288 16.3509 40.620644zm-42.6939-7.44128c0-5.04177-1.7867-9.470719-5.3681-13.294823-3.5773-3.820124-7.8511-5.730191-12.8093-5.730191-5.1213 0-9.3513 2.156787-12.686 6.466363-3.0879 3.983268-4.6358 8.658941-4.6358 14.027011 0 2.19657 1.138 3.29485 3.4142 3.29485 6.0167 0 15.3681-.93513 28.054-2.8054 2.69-.40986 4.031-1.06247 4.031-1.95781z"/><path d="m1420.1127 177.22368c.1632 2.19657-.9749 3.29486-3.4142 3.29486-1.548 0-5.9968-.89535-13.3545-2.68205-7.3617-1.7867-11.8902-3.00835-13.5973-3.65697-16.9955 6.66929-33.2987 9.99997-48.9134 9.99997-25.1214 0-45.7381-8.37244-61.8383-25.12528-15.9371-16.50612-23.9076-37.36559-23.9076-62.570442 0-25.777886 7.7239-47.16262 23.1755-64.158191 15.937-17.564619 36.6294-26.3469243 62.0849-26.3469243 12.3557 0 23.9832 2.3597199 34.8865 7.0751903 11.7866 5.204921 21.0584 12.522842 27.8073 21.953772 1.3807 1.953835 2.0732 3.334653 2.0732 4.146432 0 2.60246-3.637 8.436108-10.9153 17.500942-7.2781 9.068813-11.9736 13.59726-14.0866 13.59726-.4855 0-2.3597-1.663346-5.6108-5.001979-3.9833-3.983278-8.0462-7.07121-12.1925-9.267776-6.1839-3.334653-13.0164-5.001979-20.4895-5.001979-12.1965 0-21.8781 4.556296-29.033 13.660919-6.6692 8.37244-9.9999 18.822071-9.9999 31.344923 0 13.255033 3.454 23.744453 10.366 31.468263 7.1549 7.97054 17.2782 11.9538 30.3701 11.9538 8.2929 0 17.5646-2.07321 27.8073-6.21963-.2468-2.68205-.975-9.51449-2.1966-20.4894-1.0585-8.456-1.5837-15.288447-1.5837-20.489389 0-1.543971.5292-2.483085 1.5837-2.805403.4099-.163153 1.0585-.24672 1.9498-.24672 2.3598 0 5.9173.226821 10.6765.668524 4.7552.449663 8.3565.672505 10.7958.672505 2.5985 0 6.5022-.183053 11.7072-.549149 5.2049-.366096 9.1045-.549139 11.707-.549139 2.0334 0 3.0521 1.341018 3.0521 4.023066 0 3.903691-.2268 9.801005-.6725 17.687965s-.6725 13.78031-.6725 17.68399c0 10.48943.772 26.18377 2.32 47.08303z"/><path d="m1558.9145 120.14068c0 6.26341.3661 15.57099 1.0943 27.93067.7362 12.3597 1.0984 21.63146 1.0984 27.8113 0 3.25109-1.4207 4.998-4.2699 5.24472-10.0795.73218-21.6313 1.09828-34.6398 1.09828-1.5439 0-2.5785-2.33584-3.1077-7.01549-.5293-4.67568-1.158-7.05132-1.8902-7.13488-.6526.3263-1.5082 1.01869-2.5667 2.07321-9.1046 9.19217-18.8618 13.78429-29.2676 13.78429-15.8575 0-28.9892-6.25945-39.399-18.78229-9.8409-11.71106-14.7553-25.69431-14.7553-41.9577 0-18.78227 5.0776-33.907567 15.2446-45.371919 10.5691-11.870247 25.0458-17.807351 43.4222-17.807351 12.7655 0 22.8491 4.47273 30.2505 13.418178.3224.409874.6089.608837.8556.608837.7322 0 1.5638-1.969755 2.499-5.913234.9312-3.94348 2.0533-5.917215 3.3546-5.917215 3.0083 0 8.7384.855548 17.1984 2.562673 8.0462 1.627528 13.8241 3.008345 17.322 4.146421 1.2216.489452 1.8304 1.138077 1.8304 1.949856 0 .326297-.1233 1.177875-.3701 2.562662-2.6064 14.711459-3.9037 30.286422-3.9037 46.708982zm-39.2756.73218c0-6.91203-2.1767-12.6263-6.526-17.13882-4.3534-4.512516-10.0239-6.76878-17.0116-6.76878-6.9955 0-12.6462 2.236364-16.9557 6.70909-4.3135 4.47273-6.4664 10.20689-6.4664 17.19851 0 6.58574 2.2762 12.24032 6.8325 16.95181 4.5563 4.71944 10.0796 7.07519 16.5896 7.07519 6.9081 0 12.5588-2.25627 16.9519-6.76879 4.3931-4.51251 6.5857-10.2626 6.5857-17.25821z"/><path d="m1778.0981 176.61484c0 2.84919-1.2217 4.43295-3.661 4.75924-2.4393.32233-8.46.48945-18.05.48945-9.9244 0-16.1003-.24671-18.5396-.73219-2.4393-.48547-3.6609-2.47909-3.6609-5.9769 0-3.73656.1234-9.33144.366-16.76875.2468-7.44129.3661-13.02821.3661-16.77273 0-14.22997-.1631-24.3533-.4854-30.36999-.4894-9.67367-5.0816-14.512491-13.7843-14.512491-3.8241 0-7.6203 1.607638-11.4007 4.818921-3.7842 3.21528-5.8774 6.76879-6.2833 10.67247-.3262 3.41424-.4854 13.41819-.4854 30.0039 0 3.8241.1194 9.61796.3661 17.38156.2426 7.76759.366 13.60123.366 17.50095 0 2.68204-1.1818 4.02704-3.5375 4.02704h-36.9597c-2.2762 0-3.4143-1.66333-3.4143-5.00197 0-3.82012.1234-9.55429.3701-17.19852.2427-7.64025.3661-13.41818.3661-17.32187 0-3.00835-.084-7.56066-.2467-13.66093-.1632-6.09628-.2467-10.69237-.2467-13.7803 0-11.6275-4.429-17.441251-13.2949-17.441251-3.5773 0-7.4412 1.384797-11.5876 4.146431-4.5564 3.00834-6.8286 6.17984-6.8286 9.51449 0 7.40149.04 18.45996.1194 33.1754.08 14.71542.1194 25.7341.1194 33.05202 0 2.03343-.2427 3.29486-.7322 3.78034-.4894.48547-1.7469.81177-3.7803.9789-3.661.32233-9.435.48945-17.3219.48945-5.1214 0-10.935-.24671-17.4412-.73219-1.9499-.16314-3.1119-.44567-3.478-.85157-.366-.40588-.549-1.62752-.549-3.66095 0-6.50217.04-16.23951.1194-29.21201.083-12.96853.1233-22.70586.1233-29.21202 0-13.33462-.9749-28.336549-2.9288-45.005823-.1631-.974933-.2427-1.707125-.2427-2.196576 0-1.380817.5691-2.319931 1.7071-2.805403 1.7867-.732192 5.1651-1.341019 10.1233-1.83047 6.1003-.569048 9.7135-.931164 10.8595-1.098288.8118-.163154 4.0231-1.014721 9.6338-2.562672 3.9834-1.138077 7.1987-1.707115 9.638-1.707115 1.5439 0 2.3557 2.825302 2.4393 8.475896.08 5.650605.4059 8.475907.9748 8.475907.8118-.326308 1.743-.895346 2.8054-1.707115 7.318-5.690403 13.0879-9.594084 17.322-11.707093 6.2593-3.008345 13.0481-4.512518 20.366-4.512518 7.481 0 14.1504 1.667317 20.0039 5.001969 6.5858 3.740537 10.8555 8.985257 12.8053 15.73414 4.3097-5.853547 10.2468-10.775939 17.8114-14.759207 7.5607-3.983278 14.9184-5.976902 22.0771-5.976902 10.7322 0 19.4747 2.483075 26.2236 7.441276 7.6442 5.610806 11.4683 13.62113 11.4683 24.030973 0 4.309575-.1233 10.791841-.3701 19.454771-.2427 8.65895-.3661 15.1452-.3661 19.45478 0 5.12135.1234 12.82925.3661 23.11574.2468 10.27453.3701 17.97845.3701 23.0998z"/><path d="m1913.0002 114.89596c0 8.21327-2.6463 12.88894-7.9308 14.02702-.8953.16315-9.3115 1.05849-25.2486 2.68205-9.594 1.05849-23.9076 2.31594-42.9326 3.78033 1.1381 5.28849 4.5922 9.31155 10.366 12.07319 4.7156 2.27615 10.0797 3.41423 16.1003 3.41423 7.2344 0 14.5125-1.94986 21.8304-5.85355 3.088-1.95382 6.1799-3.90368 9.2717-5.85354 1.7072.81177 4.5723 4.96218 8.5953 12.43928 4.0271 7.48107 6.0406 12.24031 6.0406 14.26975 0 .56904-.6088 1.50418-1.8304 2.80541-9.9205 10.65257-25.3283 15.97688-46.2236 15.97688-19.3552 0-34.966-5.65061-46.8402-16.95181-12.1965-11.46435-18.2968-26.7926-18.2968-45.98474 0-18.7027 5.4476-34.030936 16.343-45.98474 11.2175-12.359698 26.1041-18.539542 44.6397-18.539542 15.6148 0 28.8658 5.694372 39.7651 17.079138 10.8992 11.388745 16.3509 24.930288 16.3509 40.620644zm-42.6898-7.44128c0-5.04177-1.7868-9.470719-5.3681-13.294823-3.5774-3.820124-7.8512-5.730191-12.8094-5.730191-5.1213 0-9.3514 2.156787-12.686 6.466363-3.0879 3.983268-4.6359 8.658941-4.6359 14.027011 0 2.19657 1.1381 3.29485 3.4143 3.29485 6.0167 0 15.368-.93513 28.054-2.8054 2.69-.40986 4.0311-1.06247 4.0311-1.95781z"/><path d="m727.95413 339.8973c0 16.50612-6.95184 30.6565-20.85549 42.44715-12.19654 10.40586-27.03534 17.03139-44.52036 19.88057-.6526.0796-1.17786.11938-1.58376.11938-1.87027 0-6.01669-5.71427-12.43927-17.13883-6.42259-11.42058-9.63387-18.39629-9.63387-20.91916 0-.89535.60882-1.4604 1.83047-1.70712 11.78668-2.68602 19.59405-4.9582 23.41815-6.83245 8.45601-4.22999 12.686-10.48942 12.686-18.78228 0-5.2845-2.76562-11.18182-8.29286-17.68797-9.59408-11.05448-14.79899-17.19453-15.61077-18.41618-5.61081-8.45601-8.41621-17.80735-8.41621-28.05404 0-14.87859 6.87224-27.24226 20.61274-37.07908 11.22163-8.1297 25.00192-13.41421 41.34887-15.85352.89533-.0836 1.58376-.11937 2.07321-.11937 1.22164 0 2.19657.97492 2.92876 2.92478 2.113 5.93711 7.03142 16.66927 14.75522 32.20046.24672.48946.3661.89932.3661 1.22165 0 1.38479-.73219 2.07321-2.19657 2.07321-.6526 0-1.75089-.12336-3.29485-.37007-1.54795-.24275-2.72583-.3661-3.5376-.3661-5.85354 0-10.9749 1.34102-15.36804 4.02705-5.28848 3.08793-7.92676 7.3975-7.92676 12.92873 0 4.96218 2.92479 11.05846 8.78231 18.2968 10.32627 13.0123 15.73414 19.84078 16.22359 20.4894 5.76202 8.95342 8.65099 17.8551 8.65099 26.71699z"/><path d="m828.94864 360.27129c0 2.43534-.30641 6.14006-.91524 11.09827-.60883 4.9582-.91524 8.59925-.91524 10.9152 0 2.31596-.24274 3.80023-.73219 4.45283-.48945.64863-1.83047 1.58376-4.02705 2.80143-10.48942 5.77396-22.1209 8.66293-34.8825 8.66293-23.50172 0-35.24859-8.98525-35.24859-26.95575 0-5.36807.20294-13.4341.60883-24.21004.40588-10.77195.60883-18.84197.60883-24.21004 0-3.57738-2.07322-5.36807-6.21964-5.36807h-1.58376c-.73219.0836-1.26143.11938-1.58376.11938-3.09191 0-4.63588-1.0943-4.63588-3.29088 0-1.30123.0995-3.29485.30641-5.9769.20294-2.68602.30641-4.67567.30641-5.9769 0-1.7111-.10347-4.30958-.30641-7.80738s-.30641-6.09628-.30641-7.80738c0-1.62356 2.60246-2.51889 7.80738-2.68205 2.92876-.0836 4.51252-.89534 4.75526-2.4393.48945-3.08793.6526-7.97054.48945-14.63983-.3263-10.48943-.48945-15.00195-.48945-15.00195 0-9.43093.89534-14.15038 2.68205-14.15038 2.19656 0 5.32429.48548 9.39113 1.46438 4.63588 1.05849 7.84717 1.66733 9.63387 1.8265 4.14643.57302 10.40586 1.345 18.78227 2.31992 2.03343.16316 3.05213.85158 3.05213 2.07323 0 3.25108-.26661 8.17346-.79188 14.7592-.52925 6.58574-.79188 11.54792-.79188 14.87859 0 3.98725 1.17787 5.97691 3.53759 5.97691 2.84519 0 7.15477-.11939 12.92873-.3661 5.77396-.24672 10.12332-.3661 13.05209-.3661 1.7867 0 2.68205.60883 2.68205 1.83047 0 1.87028-.20295 4.67569-.60884 8.41622-.40986 3.73656-.60883 6.54594-.60883 8.41223 0 1.94986.0398 4.79903.12336 8.53958.0796 3.74053.12336 6.58572.12336 8.53956 0 1.71109-1.17788 2.56664-3.5376 2.56664-1.62753 0-4.34936-.0637-8.17347-.18702-3.82012-.11938-6.54594-.18304-8.1695-.18304h-9.1484c-1.22164 0-1.83047 1.79068-1.83047 5.36806v8.66293c.0796 3.89971.12336 6.78868.12336 8.65895 0 6.83245.77198 11.54792 2.31595 14.15038 2.19657 3.4978 6.50614 5.24471 12.92873 5.24471 2.03342 0 4.94229-.46558 8.72261-1.4047 3.78034-.93115 6.44249-1.40468 7.99043-1.40468 1.69915.004 2.55471.89931 2.55471 2.68999z"/><path d="m967.26098 285.13423c0 6.02067-.28651 15.04572-.85555 27.07911-.56903 12.03339-.85157 21.06241-.85157 27.07911 0 5.85752.20295 14.63585.60883 26.34692.40589 11.70709.60884 20.4496.60884 26.22356 0 2.19657-1.01472 3.57739-3.04814 4.14643-3.09191.81177-9.63388 1.22164-19.63782 1.22164-8.86587 0-15.04174-.24672-18.53955-.73219-1.54794-.24672-2.52287-1.22164-2.92875-2.92876-.24274-2.43533-.48945-4.87862-.7322-7.31793-.40588-3.73656-.97492-5.6108-1.70711-5.6108 0 0-2.97254 2.76561-12.3199 8.29683-9.35134 5.53122-17.84714 8.29285-25.49137 8.29285-21.55185 0-34.31744-9.71346-38.30072-29.15232-1.79068-9.02505-2.68601-22.11693-2.68601-39.27167 0-18.53955 1.50417-33.17938 4.51252-43.91154.89534-3.33067 2.56267-5.00198 5.00197-5.00198 3.73656 0 9.43093.0438 17.07515.12337 7.64025.0836 13.33462.11937 17.07914.11937 2.51889 0 3.78034 1.05849 3.78034 3.1715 0 .57302-.0836 1.42459-.24672 2.56267-1.70712 11.05846-2.56267 22.28405-2.56267 33.66485 0 14.15037.44568 23.82802 1.34102 29.02896 1.46439 8.94546 6.78868 13.41819 15.98085 13.41819 3.57739 0 7.46118-1.58376 11.6474-4.75526s6.36289-6.46636 6.52604-9.87661c.16315-3.00836.24672-23.42214.24672-61.23342 0-2.68204.20294-4.2658.60883-4.75525.48946-.81178 1.94985-1.22165 4.38917-1.22165 3.98327 0 9.98007.0438 17.99039.12336 8.00634.0836 14.00712.11938 17.99039.11938 2.43931 0 3.85992.60883 4.26978 1.83047.16714.64465.2507 1.62356.2507 2.92081z"/><path d="m1179.8548 340.02066c0 5.93711.1234 14.78308.3661 26.52996.2468 11.75087.3661 20.55307.3661 26.40662 0 1.71109-1.0147 2.72979-3.0481 3.05212-2.7656.48945-8.9893.73219-18.6589.73219-9.7572 0-16.0207-.24274-18.7863-.73219-1.7907-.32233-2.889-.85555-3.2948-1.58376-.1631-.32233-.2427-1.54397-.2427-3.66096 0-5.60683.1193-14.04293.3661-25.30433.2466-11.26141.366-19.7413.366-25.43567 0-23.09185-.8953-41.46824-2.6821-55.12917-.167-1.29725-.2466-2.1528-.2466-2.56266 0-1.62356 1.0943-2.43932 3.2908-2.43932 2.2762 0 5.7501.24672 10.4297.73617 4.6758.48549 8.1934.7322 10.5492.7322 2.3557 0 5.8933-.20295 10.6088-.60883 4.7194-.4059 8.253-.60884 10.6127-.60884 1.9499 0 2.9248.81576 2.9248 2.43931 0 .32631-.083 1.09431-.2427 2.31595-1.7827 15.84954-2.6781 34.22592-2.6781 55.12121zm3.1715-90.62448c0 14.15037-7.9705 21.22158-23.9076 21.22158-6.8284 0-12.483-1.78671-16.9517-5.36807-4.8827-3.89971-7.322-9.1882-7.322-15.85351 0-6.343 2.5229-11.54394 7.5607-15.61477 4.6359-3.73656 10.203-5.6108 16.7091-5.6108 6.343 0 11.8344 1.91005 16.4703 5.73416 4.9622 4.06684 7.4412 9.23197 7.4412 15.49141z"/><path d="m1320.7338 335.99759c0 18.53556-5.6704 33.58128-17.0114 45.1292-11.3411 11.54792-26.2475 17.32188-44.7035 17.32188-17.8869 0-32.6063-5.69438-44.1542-17.07516-11.544-11.38477-17.3219-26.02062-17.3219-43.91154 0-18.86186 5.5312-34.17021 16.5897-45.92107 11.0545-11.75086 26.0206-17.62829 44.8825-17.62829 18.3764 0 33.2549 5.75407 44.6437 17.26219 11.3808 11.50414 17.0751 26.4464 17.0751 44.82279zm-40.0078 0c0-6.42258-1.9937-12.09706-5.9769-17.01547-3.9833-4.91841-9.1484-7.37761-15.4914-7.37761-6.4226 0-11.7071 2.52288-15.8535 7.56066-3.9037 4.71944-5.8575 10.33025-5.8575 16.83242 0 6.58176 1.9498 12.23633 5.8575 16.9518 4.1464 5.04575 9.4309 7.56066 15.8535 7.56066 6.343 0 11.5877-2.51889 15.7342-7.56066 3.82-4.71547 5.7341-10.37004 5.7341-16.9518z"/><path d="m452.63863 96.479788c0 13.903652-.44967 22.116922-1.34102 24.635812-1.87027 5.77396-7.48108 15.57497-16.83242 29.39506-8.1297 11.87025-15.08551 21.142-20.85549 27.80733-2.11698 2.52287-8.49977 3.78033-19.15234 3.78033-9.27177 0-15.28846-.3263-18.05009-.97493-1.70712-.40589-3.1317-1.22164-4.26978-2.43931-4.87862-5.2845-11.83045-14.4727-20.85947-27.56458-9.67765-14.06682-15.44763-23.70467-17.32187-28.90959-2.03343-5.6108-3.04814-14.02702-3.04814-25.24863 0-3.171499.0398-7.946657.12336-14.333423.0796-6.382796.11937-11.201722.11937-14.452808 0-2.113 1.42061-3.171499 4.26979-3.171499 4.14642 0 10.38596.123365 18.72259.366096 8.33662.24672 14.57615.366096 18.72258.366096 1.87027 0 2.8054 1.261442 2.8054 3.780336 0 2.276153-.16315 5.714271-.48946 10.306376-.32629 4.596085-.48945 8.070012-.48945 10.429732 0 8.456007.24274 15.368034.73219 20.736104.24274 2.76561 2.59848 7.97054 7.07121 15.61078 4.63588 8.05012 8.01032 12.07716 10.12333 12.07716 2.02944 0 5.28451-3.94348 9.75723-11.83442 4.30958-7.39751 6.62552-12.43928 6.95183-15.12531.64862-5.77396.97492-12.765576.97492-20.978842 0-2.355741-.24671-5.913235-.73218-10.672473-.48946-4.759238-.73219-8.272954-.73219-10.549107 0-2.518894.85157-3.780336 2.56266-3.780336 1.94986 0 4.85872.0398 8.71864.119385 3.86389.0836 6.76878.123356 8.72261.123356 1.94986 0 4.89454-.163154 8.842-.489452 3.94348-.326307 6.89213-.489461 8.84199-.489461 2.03342 0 3.37444 1.0585 4.02307 3.171499 1.39673 4.643843 2.08913 14.078753 2.08913 28.308719z"/><path d="m955.88816 70.256229c0 6.020671-.28651 15.045716-.85555 27.079107-.56904 12.033384-.85157 21.058434-.85157 27.079104 0 5.85354.20294 14.63585.60883 26.34692.40588 11.71106.60884 20.45358.60884 26.22356 0 2.19658-1.01473 3.57738-3.04815 4.14642-3.09191.81178-9.63387 1.22166-19.63782 1.22166-8.86587 0-15.04173-.24673-18.53954-.7322-1.54794-.24274-2.52288-1.22164-2.92876-2.92478-.24274-2.43931-.48945-4.87862-.73219-7.31793-.40589-3.73655-.97492-5.6108-1.70712-5.6108 0 0-2.97253 2.7656-12.3199 8.29285-9.35134 5.53122-17.84713 8.29286-25.49136 8.29286-21.55186 0-34.31744-9.71745-38.30071-29.15233-1.79069-9.02903-2.68603-22.11693-2.68603-39.27565 0-18.53954 1.50417-33.175391 4.51252-43.907552.89534-3.334652 2.56267-5.001979 5.00198-5.001979 3.73656 0 9.43093.0398 17.07515.123366 7.64024.0836 13.33462.119375 17.07913.119375 2.5189 0 3.78034 1.05849 3.78034 3.171499 0 .569038-.0836 1.420606-.24672 2.562662-1.70712 11.058468-2.56266 22.28008-2.56266 33.664839 0 14.1464.44567 23.82405 1.34102 29.02897 1.46438 8.94546 6.78868 13.41818 15.98085 13.41818 3.57738 0 7.46117-1.58376 11.64739-4.75526s6.3629-6.46635 6.52604-9.88058c.16316-3.00836.24672-23.41817.24672-61.229428 0-2.682048.20295-4.269787.60884-4.755259.48945-.811779 1.94985-1.221643 4.38916-1.221643 3.98327 0 9.98007.0438 17.9904.123355 8.00633.0836 14.00711.123356 17.99039.123356 2.43931 0 3.85991.608836 4.26978 1.83048.16713.640665.2507 1.615598.2507 2.916828z"/><path d="m1116.6799 222.91788-.9789 8.05013c-.8954 9.02902-1.5838 20.57295-2.0732 34.63976-.6526 15.93709-.975 34.07472-.975 54.40096 0 33.58128.9352 57.48889 2.8054 71.71886.1632 1.54396.2428 2.52287.2428 2.92477 0 .89535-.6089 1.42061-1.8265 1.58774-2.9288.4059-13.7047.60884-32.3238.60884-4.3932 0-6.9121-.85157-7.5607-2.56267-.1671-3.08793-.3263-6.17985-.4894-9.27176-.5303-2.33632-1.5495-1.73616-2.8015-.48547-8.7823 8.62313-19.7612 12.92873-32.9326 12.92873-17.1587 0-30.9032-6.01669-41.22555-18.05008-9.8408-11.46436-14.7592-25.94103-14.7592-43.42209 0-17.72776 4.8388-32.32382 14.5125-43.78817 10.24675-12.19654 24.06685-18.2968 41.47225-18.2968 12.2761 0 21.8304 3.90369 28.6628 11.70709 1.1381 1.30123 1.9499 1.95384 2.4394 1.95384.7321 0 1.0982-1.0585 1.0982-3.1715 0-6.26341-.1631-15.61477-.4894-28.05404-.3263-12.43929-.4895-21.75083-.4895-27.93069 0-2.35574 1.9499-4.02306 1.9499-4.02306 5.2049-.24671 21.4683-1.46439 21.4683-1.46439l21.5877-3.04813c1.7906 0 2.686 3.04813 2.686 3.04813zm-45.9808 112.0928c0-6.42258-2.2403-12.05329-6.7091-16.89212-4.4727-4.83881-9.8806-7.25822-16.2236-7.25822-6.6692 0-11.9737 2.41941-15.9171 7.25822-3.9435 4.83883-5.9172 10.63268-5.9172 17.38157 0 6.58573 1.9896 12.15675 5.9769 16.70906 4.0668 4.87862 9.3513 7.31792 15.8574 7.31792 6.5062 0 11.9539-2.4393 16.343-7.31792 4.3892-4.87861 6.5897-10.6088 6.5897-17.19851z"/></g></svg>