<?xml version="1.0" encoding="UTF-8"?>
<svg width="1920" height="704" version="1.1" viewBox="0 0 1920 704" xmlns="http://www.w3.org/2000/svg">
 <g stroke-width="1.5514">
  <g transform="matrix(14.398 0 0 14.39 4237 -1397.1)" fill="#0077a0" aria-label="ARCADE">
   <path d="m-284.92 121.17h6.036l9.3813 24.847h-6.133l-1.6242-4.1695h-9.1874l-1.6969 4.1695h-6.133zm2.9816 8.3389-2.6423 7.0542h5.2846z"/>
   <path d="m-257.91 121.17q2.5453 0 4.3634 1.0908 0.67875 0.36361 1.6484 1.2605 0.99389 1.0666 1.3575 1.7938 1.0181 1.8908 1.0181 3.7574v0.36361q0 2.5696-1.8181 4.9209-0.87268 0.99388-1.5514 1.4545l-0.58179 0.38786 5.3573 9.8176h-6.9329l-4.7028-8.6783h-2.5453v8.6783h-6.4724v-24.847zm-4.3876 5.2603v5.6239h3.418q2.012 0 2.7877-1.8908 0.16969-0.53331 0.16969-0.89692 0-1.3575-1.1393-2.2787-0.70299-0.55755-1.9878-0.55755z"/>
   <path d="m-236.07 121.17q4.218 0 7.6844 2.6908l0.0485 0.0485-3.6604 4.63q-1.8908-1.4302-4.0725-1.4302-2.7635 0-4.824 2.1332-1.6969 1.9393-1.6969 4.3634 0 2.7392 2.1574 4.7997 1.915 1.6969 4.3634 1.6969 2.2302 0 4.0725-1.4545l3.6604 4.6543q-2.1817 1.7696-5.0906 2.4484-1.3575 0.26665-2.4968 0.26665h-0.31513q-4.3876 0-8.0723-3.1029-1.4302-1.3817-1.7696-1.9393-2.4241-3.3453-2.4241-7.3693 0-4.9209 3.515-8.6783 3.8058-3.7574 8.9207-3.7574zm17.943 0h6.036l9.3813 24.847h-6.133l-1.6242-4.1695h-9.1874l-1.6969 4.1695h-6.133zm2.9817 8.3389-2.6423 7.0542h5.2846z"/>
   <path d="m-196.14 121.17h3.0059q4.4361 0 7.9996 2.8847 1.1151 0.96964 1.7454 1.7696 2.715 3.515 2.715 7.7814 0 4.2179-2.6908 7.7086-1.3333 1.5514-2.2302 2.1575-1.1151 0.87268-2.4241 1.4545-2.3514 1.0908-5.4058 1.0908h-8.8722v-24.847zm0.29089 6.0603v12.727h2.5938q3.3937 0 5.43-2.8362 1.0666-1.6726 1.0666-3.5392 0-2.4484-1.7938-4.4119-1.8908-1.9393-4.7997-1.9393zm16.886-6.0603h18.035v5.6239h-11.563v4.2422h9.0177v5.6239h-9.0177v3.8301h11.563v5.527h-18.035z"/>
  </g>
  <g transform="matrix(14.398 0 0 14.39 4237 -1397.1)" fill="#015888" aria-label="ARCADE">
   <path d="m-284.92 119.32h6.036l9.3813 24.847h-6.133l-1.6242-4.1695h-9.1874l-1.6969 4.1695h-6.133zm2.9816 8.3389-2.6423 7.0542h5.2846z"/>
   <path d="m-257.91 119.32q2.5453 0 4.3634 1.0908 0.67875 0.36361 1.6484 1.2605 0.99389 1.0666 1.3575 1.7938 1.0181 1.8908 1.0181 3.7574v0.36361q0 2.5696-1.8181 4.9209-0.87268 0.99388-1.5514 1.4545l-0.58179 0.38786 5.3573 9.8176h-6.9329l-4.7028-8.6783h-2.5453v8.6783h-6.4724v-24.847zm-4.3876 5.2603v5.6239h3.418q2.012 0 2.7877-1.8908 0.16969-0.5333 0.16969-0.89692 0-1.3575-1.1393-2.2787-0.70299-0.55754-1.9878-0.55754z"/>
   <path d="m-236.07 119.32q4.218 0 7.6844 2.6908l0.0485 0.0485-3.6604 4.63q-1.8908-1.4302-4.0725-1.4302-2.7635 0-4.824 2.1332-1.6969 1.9393-1.6969 4.3634 0 2.7392 2.1574 4.7997 1.915 1.6969 4.3634 1.6969 2.2302 0 4.0725-1.4545l3.6604 4.6543q-2.1817 1.7696-5.0906 2.4484-1.3575 0.26665-2.4968 0.26665h-0.31513q-4.3876 0-8.0723-3.1029-1.4302-1.3817-1.7696-1.9393-2.4241-3.3453-2.4241-7.3693 0-4.9209 3.515-8.6783 3.8058-3.7574 8.9207-3.7574zm17.943 0h6.036l9.3813 24.847h-6.133l-1.6242-4.1695h-9.1874l-1.6969 4.1695h-6.133zm2.9817 8.3389-2.6423 7.0542h5.2846z"/>
   <path d="m-196.14 119.32h3.0059q4.4361 0 7.9996 2.8847 1.1151 0.96964 1.7454 1.7696 2.715 3.515 2.715 7.7814 0 4.218-2.6908 7.7087-1.3333 1.5514-2.2302 2.1575-1.1151 0.87268-2.4241 1.4545-2.3514 1.0908-5.4058 1.0908h-8.8722v-24.847zm0.29089 6.0603v12.727h2.5938q3.3937 0 5.43-2.8362 1.0666-1.6726 1.0666-3.5392 0-2.4483-1.7938-4.4119-1.8908-1.9393-4.7997-1.9393zm16.886-6.0603h18.035v5.6239h-11.563v4.2422h9.0177v5.6239h-9.0177v3.8301h11.563v5.527h-18.035z"/>
  </g>
  <g transform="matrix(14.398 0 0 14.39 4237 -1397.1)" fill="#1e4482" aria-label="ARCADE">
   <path d="m-284.92 117.47h6.036l9.3813 24.847h-6.133l-1.6242-4.1695h-9.1874l-1.6969 4.1695h-6.133zm2.9816 8.3389-2.6423 7.0542h5.2846z"/>
   <path d="m-257.91 117.47q2.5453 0 4.3634 1.0908 0.67875 0.36361 1.6484 1.2605 0.99389 1.0666 1.3575 1.7938 1.0181 1.8908 1.0181 3.7574v0.36362q0 2.5696-1.8181 4.9209-0.87268 0.99388-1.5514 1.4545l-0.58179 0.38786 5.3573 9.8176h-6.9329l-4.7028-8.6783h-2.5453v8.6783h-6.4724v-24.847zm-4.3876 5.2603v5.6239h3.418q2.012 0 2.7877-1.8908 0.16969-0.5333 0.16969-0.89692 0-1.3575-1.1393-2.2787-0.70299-0.55754-1.9878-0.55754z"/>
   <path d="m-236.07 117.47q4.218 0 7.6844 2.6908l0.0485 0.0485-3.6604 4.63q-1.8908-1.4302-4.0725-1.4302-2.7635 0-4.824 2.1332-1.6969 1.9393-1.6969 4.3634 0 2.7392 2.1574 4.7997 1.915 1.6969 4.3634 1.6969 2.2302 0 4.0725-1.4545l3.6604 4.6543q-2.1817 1.7696-5.0906 2.4484-1.3575 0.26665-2.4968 0.26665h-0.31513q-4.3876 0-8.0723-3.1029-1.4302-1.3817-1.7696-1.9393-2.4241-3.3453-2.4241-7.3693 0-4.9209 3.515-8.6783 3.8058-3.7574 8.9207-3.7574zm17.943 0h6.036l9.3813 24.847h-6.133l-1.6242-4.1695h-9.1874l-1.6969 4.1695h-6.133zm2.9817 8.3389-2.6423 7.0542h5.2846z"/>
   <path d="m-196.14 117.47h3.0059q4.4361 0 7.9996 2.8847 1.1151 0.96965 1.7454 1.7696 2.715 3.515 2.715 7.7814 0 4.218-2.6908 7.7087-1.3333 1.5514-2.2302 2.1575-1.1151 0.87267-2.4241 1.4545-2.3514 1.0908-5.4058 1.0908h-8.8722v-24.847zm0.29089 6.0603v12.727h2.5938q3.3937 0 5.43-2.8362 1.0666-1.6726 1.0666-3.5392 0-2.4484-1.7938-4.4119-1.8908-1.9393-4.7997-1.9393zm16.886-6.0603h18.035v5.6239h-11.563v4.2422h9.0177v5.6239h-9.0177v3.8301h11.563v5.527h-18.035z"/>
  </g>
  <g transform="matrix(14.398 0 0 14.39 4237 -1397.1)" fill="#312f80" aria-label="ARCADE">
   <path d="m-284.92 115.61h6.036l9.3813 24.847h-6.133l-1.6242-4.1695h-9.1874l-1.6969 4.1695h-6.133zm2.9816 8.3389-2.6423 7.0542h5.2846z"/>
   <path d="m-257.91 115.61q2.5453 0 4.3634 1.0908 0.67875 0.36362 1.6484 1.2605 0.99389 1.0666 1.3575 1.7938 1.0181 1.8908 1.0181 3.7574v0.36362q0 2.5696-1.8181 4.9209-0.87268 0.99389-1.5514 1.4545l-0.58179 0.38785 5.3573 9.8176h-6.9329l-4.7028-8.6783h-2.5453v8.6783h-6.4724v-24.847zm-4.3876 5.2603v5.6239h3.418q2.012 0 2.7877-1.8908 0.16969-0.5333 0.16969-0.89692 0-1.3575-1.1393-2.2787-0.70299-0.55754-1.9878-0.55754z"/>
   <path d="m-236.07 115.61q4.218 0 7.6844 2.6908l0.0485 0.0485-3.6604 4.63q-1.8908-1.4302-4.0725-1.4302-2.7635 0-4.824 2.1332-1.6969 1.9393-1.6969 4.3634 0 2.7392 2.1574 4.7997 1.915 1.6969 4.3634 1.6969 2.2302 0 4.0725-1.4545l3.6604 4.6543q-2.1817 1.7696-5.0906 2.4483-1.3575 0.26666-2.4968 0.26666h-0.31513q-4.3876 0-8.0723-3.1029-1.4302-1.3817-1.7696-1.9393-2.4241-3.3453-2.4241-7.3693 0-4.9209 3.515-8.6783 3.8058-3.7574 8.9207-3.7574zm17.943 0h6.036l9.3813 24.847h-6.133l-1.6242-4.1695h-9.1874l-1.6969 4.1695h-6.133zm2.9817 8.3389-2.6423 7.0542h5.2846z"/>
   <path d="m-196.14 115.61h3.0059q4.4361 0 7.9996 2.8847 1.1151 0.96964 1.7454 1.7696 2.715 3.515 2.715 7.7814 0 4.218-2.6908 7.7087-1.3333 1.5514-2.2302 2.1574-1.1151 0.87268-2.4241 1.4545-2.3514 1.0908-5.4058 1.0908h-8.8722v-24.847zm0.29089 6.0603v12.727h2.5938q3.3937 0 5.43-2.8362 1.0666-1.6726 1.0666-3.5392 0-2.4484-1.7938-4.4119-1.8908-1.9393-4.7997-1.9393zm16.886-6.0603h18.035v5.6239h-11.563v4.2422h9.0177v5.6239h-9.0177v3.8301h11.563v5.527h-18.035z"/>
  </g>
  <g transform="matrix(14.398 0 0 14.39 4237 -1397.1)" fill="#5a2d7d" aria-label="ARCADE">
   <path d="m-284.92 113.76h6.036l9.3813 24.847h-6.133l-1.6242-4.1695h-9.1874l-1.6969 4.1695h-6.133zm2.9816 8.3389-2.6423 7.0542h5.2846z"/>
   <path d="m-257.91 113.76q2.5453 0 4.3634 1.0908 0.67875 0.36362 1.6484 1.2605 0.99389 1.0666 1.3575 1.7938 1.0181 1.8908 1.0181 3.7574v0.36362q0 2.5696-1.8181 4.9209-0.87268 0.99389-1.5514 1.4545l-0.58179 0.38785 5.3573 9.8176h-6.9329l-4.7028-8.6783h-2.5453v8.6783h-6.4724v-24.847zm-4.3876 5.2603v5.6239h3.418q2.012 0 2.7877-1.8908 0.16969-0.53331 0.16969-0.89692 0-1.3575-1.1393-2.2787-0.70299-0.55755-1.9878-0.55755z"/>
   <path d="m-236.07 113.76q4.218 0 7.6844 2.6908l0.0485 0.0485-3.6604 4.63q-1.8908-1.4302-4.0725-1.4302-2.7635 0-4.824 2.1332-1.6969 1.9393-1.6969 4.3634 0 2.7392 2.1574 4.7997 1.915 1.6969 4.3634 1.6969 2.2302 0 4.0725-1.4545l3.6604 4.6543q-2.1817 1.7696-5.0906 2.4484-1.3575 0.26665-2.4968 0.26665h-0.31513q-4.3876 0-8.0723-3.1028-1.4302-1.3817-1.7696-1.9393-2.4241-3.3453-2.4241-7.3693 0-4.9209 3.515-8.6783 3.8058-3.7574 8.9207-3.7574zm17.943 0h6.036l9.3813 24.847h-6.133l-1.6242-4.1695h-9.1874l-1.6969 4.1695h-6.133zm2.9817 8.3389-2.6423 7.0542h5.2846z"/>
   <path d="m-196.14 113.76h3.0059q4.4361 0 7.9996 2.8847 1.1151 0.96964 1.7454 1.7696 2.715 3.515 2.715 7.7814 0 4.2179-2.6908 7.7087-1.3333 1.5514-2.2302 2.1574-1.1151 0.87268-2.4241 1.4545-2.3514 1.0908-5.4058 1.0908h-8.8722v-24.847zm0.29089 6.0603v12.727h2.5938q3.3937 0 5.43-2.8362 1.0666-1.6726 1.0666-3.5392 0-2.4484-1.7938-4.4119-1.8908-1.9393-4.7997-1.9393zm16.886-6.0603h18.035v5.6239h-11.563v4.2422h9.0177v5.6239h-9.0177v3.8301h11.563v5.527h-18.035z"/>
  </g>
  <g transform="matrix(14.398 0 0 14.39 4237 -1397.1)" fill="#812b84" aria-label="ARCADE">
   <path d="m-284.92 111.91h6.036l9.3813 24.847h-6.133l-1.6242-4.1695h-9.1874l-1.6969 4.1695h-6.133zm2.9816 8.3389-2.6423 7.0542h5.2846z"/>
   <path d="m-257.91 111.91q2.5453 0 4.3634 1.0908 0.67875 0.36362 1.6484 1.2605 0.99389 1.0666 1.3575 1.7938 1.0181 1.8908 1.0181 3.7574v0.36361q0 2.5696-1.8181 4.9209-0.87268 0.99388-1.5514 1.4545l-0.58179 0.38786 5.3573 9.8176h-6.9329l-4.7028-8.6783h-2.5453v8.6783h-6.4724v-24.847zm-4.3876 5.2603v5.6239h3.418q2.012 0 2.7877-1.8908 0.16969-0.53331 0.16969-0.89692 0-1.3575-1.1393-2.2787-0.70299-0.55755-1.9878-0.55755z"/>
   <path d="m-236.07 111.91q4.218 0 7.6844 2.6908l0.0485 0.0485-3.6604 4.63q-1.8908-1.4302-4.0725-1.4302-2.7635 0-4.824 2.1332-1.6969 1.9393-1.6969 4.3634 0 2.7392 2.1574 4.7997 1.915 1.6969 4.3634 1.6969 2.2302 0 4.0725-1.4545l3.6604 4.6543q-2.1817 1.7696-5.0906 2.4484-1.3575 0.26665-2.4968 0.26665h-0.31513q-4.3876 0-8.0723-3.1028-1.4302-1.3817-1.7696-1.9393-2.4241-3.3453-2.4241-7.3693 0-4.9209 3.515-8.6783 3.8058-3.7574 8.9207-3.7574zm17.943 0h6.036l9.3813 24.847h-6.133l-1.6242-4.1695h-9.1874l-1.6969 4.1695h-6.133zm2.9817 8.3389-2.6423 7.0542h5.2846z"/>
   <path d="m-196.14 111.91h3.0059q4.4361 0 7.9996 2.8847 1.1151 0.96964 1.7454 1.7696 2.715 3.515 2.715 7.7814 0 4.2179-2.6908 7.7087-1.3333 1.5514-2.2302 2.1574-1.1151 0.87268-2.4241 1.4545-2.3514 1.0908-5.4058 1.0908h-8.8722v-24.847zm0.29089 6.0603v12.727h2.5938q3.3937 0 5.43-2.8362 1.0666-1.6726 1.0666-3.5392 0-2.4484-1.7938-4.4119-1.8908-1.9393-4.7997-1.9393zm16.886-6.0603h18.035v5.6239h-11.563v4.2422h9.0177v5.6239h-9.0177v3.8301h11.563v5.527h-18.035z"/>
  </g>
  <g transform="matrix(14.398 0 0 14.39 4237 -1397.1)" fill="#ab2085" aria-label="ARCADE">
   <path d="m-284.92 110.06h6.036l9.3813 24.847h-6.133l-1.6242-4.1695h-9.1874l-1.6969 4.1695h-6.133zm2.9816 8.3389-2.6423 7.0542h5.2846z"/>
   <path d="m-257.91 110.06q2.5453 0 4.3634 1.0908 0.67875 0.36361 1.6484 1.2605 0.99389 1.0666 1.3575 1.7938 1.0181 1.8908 1.0181 3.7574v0.36361q0 2.5696-1.8181 4.9209-0.87268 0.99388-1.5514 1.4545l-0.58179 0.38786 5.3573 9.8176h-6.9329l-4.7028-8.6783h-2.5453v8.6783h-6.4724v-24.847zm-4.3876 5.2603v5.6239h3.418q2.012 0 2.7877-1.8908 0.16969-0.5333 0.16969-0.89691 0-1.3575-1.1393-2.2787-0.70299-0.55755-1.9878-0.55755z"/>
   <path d="m-236.07 110.06q4.218 0 7.6844 2.6908l0.0485 0.0485-3.6604 4.63q-1.8908-1.4302-4.0725-1.4302-2.7635 0-4.824 2.1332-1.6969 1.9393-1.6969 4.3634 0 2.7392 2.1574 4.7997 1.915 1.6969 4.3634 1.6969 2.2302 0 4.0725-1.4545l3.6604 4.6543q-2.1817 1.7696-5.0906 2.4484-1.3575 0.26665-2.4968 0.26665h-0.31513q-4.3876 0-8.0723-3.1029-1.4302-1.3817-1.7696-1.9393-2.4241-3.3453-2.4241-7.3693 0-4.9209 3.515-8.6783 3.8058-3.7574 8.9207-3.7574zm17.943 0h6.036l9.3813 24.847h-6.133l-1.6242-4.1695h-9.1874l-1.6969 4.1695h-6.133zm2.9817 8.3389-2.6423 7.0542h5.2846z"/>
   <path d="m-196.14 110.06h3.0059q4.4361 0 7.9996 2.8847 1.1151 0.96964 1.7454 1.7696 2.715 3.515 2.715 7.7814 0 4.2179-2.6908 7.7086-1.3333 1.5514-2.2302 2.1575-1.1151 0.87268-2.4241 1.4545-2.3514 1.0908-5.4058 1.0908h-8.8722v-24.847zm0.29089 6.0603v12.727h2.5938q3.3937 0 5.43-2.8362 1.0666-1.6726 1.0666-3.5392 0-2.4483-1.7938-4.4119-1.8908-1.9393-4.7997-1.9393zm16.886-6.0603h18.035v5.6239h-11.563v4.2422h9.0177v5.6239h-9.0177v3.8301h11.563v5.527h-18.035z"/>
  </g>
  <g transform="matrix(14.398 0 0 14.39 4237 -1397.1)" fill="#d60e89" aria-label="ARCADE">
   <path d="m-284.92 108.21h6.036l9.3813 24.847h-6.133l-1.6242-4.1695h-9.1874l-1.6969 4.1695h-6.133zm2.9816 8.3389-2.6423 7.0542h5.2846z"/>
   <path d="m-257.91 108.21q2.5453 0 4.3634 1.0908 0.67875 0.36361 1.6484 1.2605 0.99389 1.0666 1.3575 1.7938 1.0181 1.8908 1.0181 3.7574v0.36362q0 2.5696-1.8181 4.9209-0.87268 0.99388-1.5514 1.4545l-0.58179 0.38786 5.3573 9.8176h-6.9329l-4.7028-8.6783h-2.5453v8.6783h-6.4724v-24.847zm-4.3876 5.2603v5.6239h3.418q2.012 0 2.7877-1.8908 0.16969-0.5333 0.16969-0.89692 0-1.3575-1.1393-2.2787-0.70299-0.55754-1.9878-0.55754z"/>
   <path d="m-236.07 108.21q4.218 0 7.6844 2.6908l0.0485 0.0485-3.6604 4.63q-1.8908-1.4302-4.0725-1.4302-2.7635 0-4.824 2.1332-1.6969 1.9393-1.6969 4.3634 0 2.7392 2.1574 4.7997 1.915 1.6969 4.3634 1.6969 2.2302 0 4.0725-1.4545l3.6604 4.6543q-2.1817 1.7696-5.0906 2.4484-1.3575 0.26665-2.4968 0.26665h-0.31513q-4.3876 0-8.0723-3.1029-1.4302-1.3817-1.7696-1.9393-2.4241-3.3453-2.4241-7.3693 0-4.9209 3.515-8.6783 3.8058-3.7574 8.9207-3.7574zm17.943 0h6.036l9.3813 24.847h-6.133l-1.6242-4.1695h-9.1874l-1.6969 4.1695h-6.133zm2.9817 8.3389-2.6423 7.0542h5.2846z"/>
   <path d="m-196.14 108.21h3.0059q4.4361 0 7.9996 2.8847 1.1151 0.96965 1.7454 1.7696 2.715 3.515 2.715 7.7814 0 4.218-2.6908 7.7087-1.3333 1.5514-2.2302 2.1575-1.1151 0.87268-2.4241 1.4545-2.3514 1.0908-5.4058 1.0908h-8.8722v-24.847zm0.29089 6.0603v12.727h2.5938q3.3937 0 5.43-2.8362 1.0666-1.6726 1.0666-3.5392 0-2.4483-1.7938-4.4119-1.8908-1.9393-4.7997-1.9393zm16.886-6.0603h18.035v5.6239h-11.563v4.2422h9.0177v5.6239h-9.0177v3.8301h11.563v5.527h-18.035z"/>
  </g>
  <g transform="matrix(14.398 0 0 14.39 4237 -1397.1)" fill="#ec1d22" aria-label="ARCADE">
   <path d="m-284.92 106.35h6.036l9.3813 24.847h-6.133l-1.6242-4.1695h-9.1874l-1.6969 4.1695h-6.133zm2.9816 8.3389-2.6423 7.0542h5.2846z"/>
   <path d="m-257.91 106.35q2.5453 0 4.3634 1.0908 0.67875 0.36362 1.6484 1.2605 0.99389 1.0666 1.3575 1.7938 1.0181 1.8908 1.0181 3.7574v0.36362q0 2.5696-1.8181 4.9209-0.87268 0.99389-1.5514 1.4545l-0.58179 0.38786 5.3573 9.8176h-6.9329l-4.7028-8.6783h-2.5453v8.6783h-6.4724v-24.847zm-4.3876 5.2603v5.6239h3.418q2.012 0 2.7877-1.8908 0.16969-0.5333 0.16969-0.89692 0-1.3575-1.1393-2.2787-0.70299-0.55754-1.9878-0.55754z"/>
   <path d="m-236.07 106.35q4.218 0 7.6844 2.6908l0.0485 0.0485-3.6604 4.63q-1.8908-1.4302-4.0725-1.4302-2.7635 0-4.824 2.1332-1.6969 1.9393-1.6969 4.3634 0 2.7392 2.1574 4.7997 1.915 1.6969 4.3634 1.6969 2.2302 0 4.0725-1.4545l3.6604 4.6543q-2.1817 1.7696-5.0906 2.4483-1.3575 0.26666-2.4968 0.26666h-0.31513q-4.3876 0-8.0723-3.1029-1.4302-1.3817-1.7696-1.9393-2.4241-3.3453-2.4241-7.3693 0-4.9209 3.515-8.6783 3.8058-3.7574 8.9207-3.7574zm17.943 0h6.036l9.3813 24.847h-6.133l-1.6242-4.1695h-9.1874l-1.6969 4.1695h-6.133zm2.9817 8.3389-2.6423 7.0542h5.2846z"/>
   <path d="m-196.14 106.35h3.0059q4.4361 0 7.9996 2.8847 1.1151 0.96965 1.7454 1.7696 2.715 3.515 2.715 7.7814 0 4.218-2.6908 7.7087-1.3333 1.5514-2.2302 2.1574-1.1151 0.87268-2.4241 1.4545-2.3514 1.0908-5.4058 1.0908h-8.8722v-24.847zm0.29089 6.0603v12.727h2.5938q3.3937 0 5.43-2.8362 1.0666-1.6726 1.0666-3.5392 0-2.4484-1.7938-4.4119-1.8908-1.9393-4.7997-1.9393zm16.886-6.0603h18.035v5.6239h-11.563v4.2422h9.0177v5.6239h-9.0177v3.8301h11.563v5.527h-18.035z"/>
  </g>
  <g transform="matrix(14.398 0 0 14.39 4237 -1397.1)" fill="#ef6023" aria-label="ARCADE">
   <path d="m-284.92 104.5h6.036l9.3813 24.847h-6.133l-1.6242-4.1695h-9.1874l-1.6969 4.1695h-6.133zm2.9816 8.3389-2.6423 7.0542h5.2846z"/>
   <path d="m-257.91 104.5q2.5453 0 4.3634 1.0908 0.67875 0.36362 1.6484 1.2605 0.99389 1.0666 1.3575 1.7938 1.0181 1.8908 1.0181 3.7574v0.36362q0 2.5696-1.8181 4.9209-0.87268 0.99389-1.5514 1.4545l-0.58179 0.38785 5.3573 9.8176h-6.9329l-4.7028-8.6783h-2.5453v8.6783h-6.4724v-24.847zm-4.3876 5.2603v5.6239h3.418q2.012 0 2.7877-1.8908 0.16969-0.5333 0.16969-0.89692 0-1.3575-1.1393-2.2787-0.70299-0.55754-1.9878-0.55754z"/>
   <path d="m-236.07 104.5q4.218 0 7.6844 2.6908l0.0485 0.0485-3.6604 4.63q-1.8908-1.4302-4.0725-1.4302-2.7635 0-4.824 2.1332-1.6969 1.9393-1.6969 4.3634 0 2.7392 2.1574 4.7997 1.915 1.6969 4.3634 1.6969 2.2302 0 4.0725-1.4545l3.6604 4.6543q-2.1817 1.7696-5.0906 2.4483-1.3575 0.26665-2.4968 0.26665h-0.31513q-4.3876 0-8.0723-3.1028-1.4302-1.3817-1.7696-1.9393-2.4241-3.3453-2.4241-7.3693 0-4.9209 3.515-8.6783 3.8058-3.7574 8.9207-3.7574zm17.943 0h6.036l9.3813 24.847h-6.133l-1.6242-4.1695h-9.1874l-1.6969 4.1695h-6.133zm2.9817 8.3389-2.6423 7.0542h5.2846z"/>
   <path d="m-196.14 104.5h3.0059q4.4361 0 7.9996 2.8847 1.1151 0.96964 1.7454 1.7696 2.715 3.515 2.715 7.7814 0 4.218-2.6908 7.7087-1.3333 1.5514-2.2302 2.1574-1.1151 0.87268-2.4241 1.4545-2.3514 1.0908-5.4058 1.0908h-8.8722v-24.847zm0.29089 6.0603v12.727h2.5938q3.3937 0 5.43-2.8362 1.0666-1.6726 1.0666-3.5392 0-2.4484-1.7938-4.4119-1.8908-1.9393-4.7997-1.9393zm16.886-6.0603h18.035v5.6239h-11.563v4.2422h9.0177v5.6239h-9.0177v3.8301h11.563v5.527h-18.035z"/>
  </g>
  <g transform="matrix(14.398 0 0 14.39 4237 -1397.1)" fill="#f67c1c" aria-label="ARCADE">
   <path d="m-284.92 102.65h6.036l9.3813 24.847h-6.133l-1.6242-4.1695h-9.1874l-1.6969 4.1695h-6.133zm2.9816 8.3389-2.6423 7.0542h5.2846z"/>
   <path d="m-257.91 102.65q2.5453 0 4.3634 1.0908 0.67875 0.36361 1.6484 1.2605 0.99389 1.0666 1.3575 1.7938 1.0181 1.8908 1.0181 3.7574v0.36362q0 2.5696-1.8181 4.9209-0.87268 0.99388-1.5514 1.4545l-0.58179 0.38786 5.3573 9.8176h-6.9329l-4.7028-8.6783h-2.5453v8.6783h-6.4724v-24.847zm-4.3876 5.2603v5.6239h3.418q2.012 0 2.7877-1.8908 0.16969-0.5333 0.16969-0.89692 0-1.3575-1.1393-2.2787-0.70299-0.55754-1.9878-0.55754z"/>
   <path d="m-236.07 102.65q4.218 0 7.6844 2.6908l0.0485 0.0485-3.6604 4.63q-1.8908-1.4302-4.0725-1.4302-2.7635 0-4.824 2.1332-1.6969 1.9393-1.6969 4.3634 0 2.7392 2.1574 4.7997 1.915 1.6969 4.3634 1.6969 2.2302 0 4.0725-1.4545l3.6604 4.6543q-2.1817 1.7696-5.0906 2.4484-1.3575 0.26665-2.4968 0.26665h-0.31513q-4.3876 0-8.0723-3.1029-1.4302-1.3817-1.7696-1.9393-2.4241-3.3453-2.4241-7.3693 0-4.9209 3.515-8.6783 3.8058-3.7574 8.9207-3.7574zm17.943 0h6.036l9.3813 24.847h-6.133l-1.6242-4.1695h-9.1874l-1.6969 4.1695h-6.133zm2.9817 8.3389-2.6423 7.0542h5.2846z"/>
   <path d="m-196.14 102.65h3.0059q4.4361 0 7.9996 2.8847 1.1151 0.96965 1.7454 1.7696 2.715 3.515 2.715 7.7814 0 4.218-2.6908 7.7087-1.3333 1.5514-2.2302 2.1575-1.1151 0.87267-2.4241 1.4545-2.3514 1.0908-5.4058 1.0908h-8.8722v-24.847zm0.29089 6.0603v12.727h2.5938q3.3937 0 5.43-2.8362 1.0666-1.6726 1.0666-3.5392 0-2.4483-1.7938-4.4119-1.8908-1.9393-4.7997-1.9393zm16.886-6.0603h18.035v5.6239h-11.563v4.2422h9.0177v5.6239h-9.0177v3.8301h11.563v5.527h-18.035z"/>
  </g>
  <g transform="matrix(14.398 0 0 14.39 4237 -1397.1)" fill="#f7a41d" aria-label="ARCADE">
   <path d="m-284.92 100.8h6.036l9.3813 24.847h-6.133l-1.6242-4.1695h-9.1874l-1.6969 4.1695h-6.133zm2.9816 8.3389-2.6423 7.0542h5.2846z"/>
   <path d="m-257.91 100.8q2.5453 0 4.3634 1.0908 0.67875 0.36362 1.6484 1.2605 0.99389 1.0666 1.3575 1.7938 1.0181 1.8908 1.0181 3.7574v0.36361q0 2.5696-1.8181 4.9209-0.87268 0.99388-1.5514 1.4545l-0.58179 0.38786 5.3573 9.8176h-6.9329l-4.7028-8.6783h-2.5453v8.6783h-6.4724v-24.847zm-4.3876 5.2603v5.6239h3.418q2.012 0 2.7877-1.8908 0.16969-0.53331 0.16969-0.89692 0-1.3575-1.1393-2.2787-0.70299-0.55755-1.9878-0.55755z"/>
   <path d="m-236.07 100.8q4.218 0 7.6844 2.6908l0.0485 0.0485-3.6604 4.63q-1.8908-1.4302-4.0725-1.4302-2.7635 0-4.824 2.1332-1.6969 1.9393-1.6969 4.3634 0 2.7392 2.1574 4.7997 1.915 1.6969 4.3634 1.6969 2.2302 0 4.0725-1.4545l3.6604 4.6543q-2.1817 1.7696-5.0906 2.4484-1.3575 0.26665-2.4968 0.26665h-0.31513q-4.3876 0-8.0723-3.1028-1.4302-1.3817-1.7696-1.9393-2.4241-3.3453-2.4241-7.3693 0-4.9209 3.515-8.6783 3.8058-3.7574 8.9207-3.7574zm17.943 0h6.036l9.3813 24.847h-6.133l-1.6242-4.1695h-9.1874l-1.6969 4.1695h-6.133zm2.9817 8.3389-2.6423 7.0542h5.2846z"/>
   <path d="m-196.14 100.8h3.0059q4.4361 0 7.9996 2.8847 1.1151 0.96964 1.7454 1.7696 2.715 3.515 2.715 7.7814 0 4.2179-2.6908 7.7087-1.3333 1.5514-2.2302 2.1574-1.1151 0.87268-2.4241 1.4545-2.3514 1.0908-5.4058 1.0908h-8.8722v-24.847zm0.29089 6.0603v12.727h2.5938q3.3937 0 5.43-2.8362 1.0666-1.6726 1.0666-3.5392 0-2.4484-1.7938-4.4119-1.8908-1.9393-4.7997-1.9393zm16.886-6.0603h18.035v5.6239h-11.563v4.2422h9.0177v5.6239h-9.0177v3.8301h11.563v5.527h-18.035z"/>
  </g>
  <g transform="matrix(14.398 0 0 14.39 4237 -1397.1)" fill="#fec705" aria-label="ARCADE">
   <path d="m-284.92 98.946h6.036l9.3813 24.847h-6.133l-1.6242-4.1695h-9.1874l-1.6969 4.1695h-6.133zm2.9816 8.3389-2.6423 7.0542h5.2846z"/>
   <path d="m-257.91 98.946q2.5453 0 4.3634 1.0908 0.67875 0.36362 1.6484 1.2605 0.99389 1.0666 1.3575 1.7938 1.0181 1.8908 1.0181 3.7574v0.36362q0 2.5696-1.8181 4.9209-0.87268 0.99389-1.5514 1.4545l-0.58179 0.38785 5.3573 9.8176h-6.9329l-4.7028-8.6783h-2.5453v8.6783h-6.4724v-24.847zm-4.3876 5.2603v5.6239h3.418q2.012 0 2.7877-1.8908 0.16969-0.53331 0.16969-0.89692 0-1.3575-1.1393-2.2787-0.70299-0.55755-1.9878-0.55755z"/>
   <path d="m-236.07 98.946q4.218 0 7.6844 2.6908l0.0485 0.0485-3.6604 4.63q-1.8908-1.4302-4.0725-1.4302-2.7635 0-4.824 2.1332-1.6969 1.9393-1.6969 4.3634 0 2.7392 2.1574 4.7997 1.915 1.6969 4.3634 1.6969 2.2302 0 4.0725-1.4545l3.6604 4.6543q-2.1817 1.7696-5.0906 2.4484-1.3575 0.26665-2.4968 0.26665h-0.31513q-4.3876 0-8.0723-3.1028-1.4302-1.3817-1.7696-1.9393-2.4241-3.3453-2.4241-7.3693 0-4.9209 3.515-8.6783 3.8058-3.7574 8.9207-3.7574zm17.943 0h6.036l9.3813 24.847h-6.133l-1.6242-4.1695h-9.1874l-1.6969 4.1695h-6.133zm2.9817 8.3389-2.6423 7.0542h5.2846z"/>
   <path d="m-196.14 98.946h3.0059q4.4361 0 7.9996 2.8847 1.1151 0.96964 1.7454 1.7696 2.715 3.515 2.715 7.7814 0 4.2179-2.6908 7.7087-1.3333 1.5514-2.2302 2.1574-1.1151 0.87268-2.4241 1.4545-2.3514 1.0908-5.4058 1.0908h-8.8722v-24.847zm0.29089 6.0603v12.727h2.5938q3.3937 0 5.43-2.8362 1.0666-1.6726 1.0666-3.5392 0-2.4484-1.7938-4.4119-1.8908-1.9393-4.7997-1.9393zm16.886-6.0603h18.035v5.6239h-11.563v4.2422h9.0177v5.6239h-9.0177v3.8301h11.563v5.527h-18.035z"/>
  </g>
  <g transform="matrix(14.398 0 0 14.39 4237 -1397.1)" fill="#fff" aria-label="ARCADE">
   <path d="m-284.92 97.094h6.036l9.3813 24.847h-6.133l-1.6242-4.1695h-9.1874l-1.6969 4.1695h-6.133zm2.9816 8.3389-2.6423 7.0542h5.2846z"/>
   <path d="m-257.91 97.094q2.5453 0 4.3634 1.0908 0.67875 0.36362 1.6484 1.2605 0.99389 1.0666 1.3575 1.7938 1.0181 1.8908 1.0181 3.7574v0.36362q0 2.5696-1.8181 4.9209-0.87268 0.99388-1.5514 1.4545l-0.58179 0.38785 5.3573 9.8176h-6.9329l-4.7028-8.6783h-2.5453v8.6783h-6.4724v-24.847zm-4.3876 5.2603v5.6239h3.418q2.012 0 2.7877-1.8908 0.16969-0.53331 0.16969-0.89692 0-1.3575-1.1393-2.2787-0.70299-0.55755-1.9878-0.55755z"/>
   <path d="m-236.07 97.094q4.218 0 7.6844 2.6908l0.0485 0.04848-3.6604 4.63q-1.8908-1.4302-4.0725-1.4302-2.7635 0-4.824 2.1332-1.6969 1.9393-1.6969 4.3634 0 2.7392 2.1574 4.7997 1.915 1.6969 4.3634 1.6969 2.2302 0 4.0725-1.4545l3.6604 4.6543q-2.1817 1.7696-5.0906 2.4484-1.3575 0.26665-2.4968 0.26665h-0.31513q-4.3876 0-8.0723-3.1028-1.4302-1.3817-1.7696-1.9393-2.4241-3.3453-2.4241-7.3693 0-4.9209 3.515-8.6783 3.8058-3.7574 8.9207-3.7574zm17.943 0h6.036l9.3813 24.847h-6.133l-1.6242-4.1695h-9.1874l-1.6969 4.1695h-6.133zm2.9817 8.3389-2.6423 7.0542h5.2846z"/>
   <path d="m-196.14 97.094h3.0059q4.4361 0 7.9996 2.8847 1.1151 0.96964 1.7454 1.7696 2.715 3.515 2.715 7.7814 0 4.2179-2.6908 7.7087-1.3333 1.5514-2.2302 2.1574-1.1151 0.87268-2.4241 1.4545-2.3514 1.0908-5.4058 1.0908h-8.8722v-24.847zm0.29089 6.0603v12.727h2.5938q3.3937 0 5.43-2.8362 1.0666-1.6726 1.0666-3.5392 0-2.4484-1.7938-4.4119-1.8908-1.9393-4.7997-1.9393zm16.886-6.0603h18.035v5.6239h-11.563v4.2422h9.0177v5.6239h-9.0177v3.8301h11.563v5.527h-18.035z"/>
  </g>
 </g>
</svg>
