<svg enable-background="new 0 0 3840 630.9" height="316" viewBox="0 0 1920 315.99999" width="1920" xmlns="http://www.w3.org/2000/svg"><g transform="scale(.5 .50087177)"><path d="m3840 290.4v-290.4h-341.7-269.2v290.4 219 121.5h269.2 341.7v-121.5h-341.7v-70h120v-78.9h-120v-70.1z"/><path d="m3258.4 601.7v-572.5h552.4v232h-341.8v128.5h120.1v20.5h-120.1v128.4h341.8v63.1z" fill="#f2b11c"/><path d="m3302.2 269.5v-196.5h259" style="fill:none;stroke:#000;stroke-width:20.2827;stroke-linecap:round;stroke-linejoin:round;stroke-miterlimit:10"/><path d="m1610.2 315.4 285.1-135.2c-50.7-106.5-159.3-180.2-285.1-180.2-174.2 0-315.4 141.2-315.4 315.4s141.2 315.4 315.4 315.4c125.8 0 234.4-73.7 285.1-180.3z"/><path d="m1610.2 601.7c-157.8 0-286.2-128.4-286.2-286.2s128.4-286.2 286.2-286.2c55.2 0 108.8 15.7 154.9 45.5 36.7 23.7 67.4 55.3 89.9 92.3l-313 148.4 313 148.4c-22.5 37.1-53.2 68.6-89.9 92.3-46.2 29.7-99.7 45.5-154.9 45.5z" fill="#f2b11c"/><path d="m1599.6 391.2 188.1 89.2c-13.8 14.8-29.4 27.9-46.4 38.9" style="fill:none;stroke:#000;stroke-width:20.2827;stroke-linecap:round;stroke-linejoin:round;stroke-miterlimit:10"/><path d="m0 630.9h686.7l-343.4-630.9z"/><path d="m49.1 601.7 294.2-540.6 294.2 540.6z" fill="#f2b11c"/><path d="m495.3 431.9 68.5 126h-129.5" style="fill:none;stroke:#000;stroke-width:20.2827;stroke-linecap:round;stroke-linejoin:round;stroke-miterlimit:10"/><circle cx="343.29999" cy="399.29999" r="30.6"/><path d="m1827.3 630.9h686.7l-343.4-630.9z"/><path d="m1876.4 601.7 294.2-540.6 294.2 540.6z" fill="#f2b11c"/><path d="m2322.6 431.9 68.5 126h-129.5" style="fill:none;stroke:#000;stroke-width:20.2827;stroke-linecap:round;stroke-linejoin:round;stroke-miterlimit:10"/><circle cx="2170.6001" cy="399.29999" r="30.6"/><path d="m2882.3 630.9h-352.9v-630.9h352.9c174.2 0 315.4 141.2 315.4 315.4.1 174.2-141.2 315.5-315.4 315.5z"/><path d="m2558.6 601.7v-572.5h323.7c157.8 0 286.2 128.4 286.2 286.2s-128.4 286.2-286.2 286.2h-323.7z" fill="#f2b11c"/><path d="m3124.6 323.7c-4.2 122.9-100.2 222.8-221.4 233.2" style="fill:none;stroke:#000;stroke-width:20.2827;stroke-linecap:round;stroke-linejoin:round;stroke-miterlimit:10"/><circle cx="2879.7" cy="396.20001" r="30.6"/><path d="m1285.8 200.6c0-110.8-89.8-200.6-200.5-200.6h-383.2v355 46.2 229.7h583.7l-208.1-229.7h7.6c110.7 0 200.5-89.8 200.5-200.6z"/><path d="m731.3 601.7v-572.5h353.9c94.5 0 171.4 76.9 171.4 171.4s-76.9 171.4-171.3 171.4h-7.6c-11.6 0-22 6.8-26.7 17.4s-2.7 22.9 5.1 31.4l163.9 180.9z" fill="#f2b11c"/><path d="m1211.6 218.4c-8.7 61.9-62 109.8-126.3 109.8" style="fill:none;stroke:#000;stroke-width:20.2827;stroke-linecap:round;stroke-linejoin:round;stroke-miterlimit:10"/><circle cx="1005.5" cy="203.8" r="30.6"/><path d="m1011.5 431.9c3 6.6 7.1 12.8 12.1 18.3l97.6 107.7h-129.4" style="fill:none;stroke:#000;stroke-width:20.2827;stroke-linecap:round;stroke-linejoin:round;stroke-miterlimit:10"/></g></svg>