<?xml version="1.0" encoding="UTF-8" standalone="no"?>
<svg
   height="704.00037"
   viewBox="0 0 1920 704.00037"
   width="1920"
   version="1.1"
   id="svg56"
   xmlns="http://www.w3.org/2000/svg"
   xmlns:svg="http://www.w3.org/2000/svg">
  <defs
     id="defs56" />
  <g
     id="g112">
    <g
       id="g57">
      <g
         font-family="'Helvetica Neue'"
         font-size="49.6457"
         font-stretch="condensed"
         font-weight="bold"
         stroke-width="1.55143"
         transform="matrix(14.398191 0 0 14.389565 4237.0284 -1397.1359)"
         id="g56">
        <g
           id="text4"
           style="fill:#0077a0"
           aria-label="ARCADE">
          <path
             style="font-stretch:normal;font-size:49.6457px;font-family:Basic_LAZER"
             d="m -284.918,121.17096 h 6.03602 l 9.38129,24.84709 h -6.13299 l -1.62415,-4.16946 h -9.18736 l -1.69688,4.16946 h -6.13298 z m 2.98165,8.33893 -2.64228,7.05415 h 5.28455 z"
             id="path57" />
          <path
             style="font-stretch:normal;font-size:49.6457px;font-family:Basic_LAZER;letter-spacing:-1.55143"
             d="m -257.91346,121.17096 q 2.54531,0 4.36339,1.09085 0.67875,0.36361 1.64839,1.26053 0.99389,1.06661 1.3575,1.79384 1.01813,1.89081 1.01813,3.75737 v 0.36361 q 0,2.56956 -1.81808,4.92094 -0.87268,0.99388 -1.55143,1.45446 l -0.58179,0.38786 5.35728,9.81763 h -6.93294 l -4.70277,-8.6783 h -2.54531 v 8.6783 h -6.47237 v -24.84709 z m -4.38763,5.26031 v 5.62393 h 3.41799 q 2.01201,0 2.78772,-1.8908 0.16969,-0.53331 0.16969,-0.89692 0,-1.3575 -1.13933,-2.27866 -0.70299,-0.55755 -1.98777,-0.55755 z"
             id="path58" />
          <path
             style="font-stretch:normal;font-size:49.6457px;font-family:Basic_LAZER;letter-spacing:-0.310285"
             d="m -236.07227,121.17096 q 4.21795,0 7.68442,2.69076 l 0.0485,0.0485 -3.6604,4.63004 q -1.8908,-1.43022 -4.0725,-1.43022 -2.76348,0 -4.82397,2.13322 -1.69687,1.93928 -1.69687,4.36339 0,2.73924 2.15745,4.79973 1.91505,1.69687 4.36339,1.69687 2.23018,0 4.0725,-1.45446 l 3.6604,4.65428 q -2.18169,1.7696 -5.09062,2.44835 -1.3575,0.26665 -2.49683,0.26665 h -0.31513 q -4.38764,0 -8.07228,-3.10286 -1.43022,-1.38174 -1.76959,-1.93928 -2.42411,-3.34527 -2.42411,-7.36928 0,-4.92094 3.51495,-8.6783 3.80585,-3.75737 8.92071,-3.75737 z m 17.94324,0 h 6.03603 l 9.38129,24.84709 h -6.13299 l -1.62415,-4.16946 h -9.18736 l -1.69688,4.16946 h -6.13299 z m 2.98166,8.33893 -2.64228,7.05415 h 5.28455 z"
             id="path59" />
          <path
             style="font-stretch:normal;font-size:49.6457px;font-family:Basic_LAZER;letter-spacing:-0.930857"
             d="m -196.13753,121.17096 h 3.00589 q 4.43612,0 7.99955,2.88469 1.11509,0.96964 1.74536,1.7696 2.715,3.51495 2.715,7.78138 0,4.21794 -2.69076,7.70865 -1.33326,1.55143 -2.23018,2.15746 -1.11509,0.87268 -2.42411,1.45446 -2.35138,1.09085 -5.40575,1.09085 h -2.715 -6.15723 v -24.84709 z m 0.29089,6.06027 v 12.72656 h 2.5938 q 3.39374,0 5.42999,-2.83621 1.06661,-1.67263 1.06661,-3.53919 0,-2.44835 -1.79384,-4.41188 -1.8908,-1.93928 -4.79973,-1.93928 z m 16.88632,-6.06027 h 18.03535 v 5.62393 h -11.56299 v 4.24218 h 9.01768 v 5.62393 h -9.01768 v 3.83009 h 11.56299 v 5.52696 h -18.03535 z"
             id="path60" />
        </g>
        <g
           id="text8"
           style="fill:#015888"
           aria-label="ARCADE">
          <path
             style="font-stretch:normal;font-size:49.6457px;font-family:Basic_LAZER"
             d="m -284.918,119.31885 h 6.03602 l 9.38129,24.84709 h -6.13299 l -1.62415,-4.16946 h -9.18736 l -1.69688,4.16946 h -6.13298 z m 2.98165,8.33892 -2.64228,7.05415 h 5.28455 z"
             id="path61" />
          <path
             style="font-stretch:normal;font-size:49.6457px;font-family:Basic_LAZER;letter-spacing:-1.55143"
             d="m -257.91346,119.31885 q 2.54531,0 4.36339,1.09085 0.67875,0.36361 1.64839,1.26053 0.99389,1.06661 1.3575,1.79384 1.01813,1.8908 1.01813,3.75737 v 0.36361 q 0,2.56955 -1.81808,4.92094 -0.87268,0.99388 -1.55143,1.45446 l -0.58179,0.38786 5.35728,9.81763 h -6.93294 l -4.70277,-8.6783 h -2.54531 v 8.6783 h -6.47237 v -24.84709 z m -4.38763,5.26031 v 5.62393 h 3.41799 q 2.01201,0 2.78772,-1.89081 0.16969,-0.5333 0.16969,-0.89692 0,-1.3575 -1.13933,-2.27866 -0.70299,-0.55754 -1.98777,-0.55754 z"
             id="path62" />
          <path
             style="font-stretch:normal;font-size:49.6457px;font-family:Basic_LAZER;letter-spacing:-0.310285"
             d="m -236.07227,119.31885 q 4.21795,0 7.68442,2.69076 l 0.0485,0.0485 -3.6604,4.63004 q -1.8908,-1.43022 -4.0725,-1.43022 -2.76348,0 -4.82397,2.13321 -1.69687,1.93929 -1.69687,4.36339 0,2.73924 2.15745,4.79974 1.91505,1.69687 4.36339,1.69687 2.23018,0 4.0725,-1.45446 l 3.6604,4.65428 q -2.18169,1.7696 -5.09062,2.44835 -1.3575,0.26665 -2.49683,0.26665 h -0.31513 q -4.38764,0 -8.07228,-3.10286 -1.43022,-1.38174 -1.76959,-1.93928 -2.42411,-3.34527 -2.42411,-7.36929 0,-4.92093 3.51495,-8.6783 3.80585,-3.75736 8.92071,-3.75736 z m 17.94324,0 h 6.03603 l 9.38129,24.84709 h -6.13299 l -1.62415,-4.16946 h -9.18736 l -1.69688,4.16946 h -6.13299 z m 2.98166,8.33892 -2.64228,7.05415 h 5.28455 z"
             id="path63" />
          <path
             style="font-stretch:normal;font-size:49.6457px;font-family:Basic_LAZER;letter-spacing:-0.930857"
             d="m -196.13753,119.31885 h 3.00589 q 4.43612,0 7.99955,2.88469 1.11509,0.96964 1.74536,1.76959 2.715,3.51496 2.715,7.78138 0,4.21795 -2.69076,7.70866 -1.33326,1.55143 -2.23018,2.15746 -1.11509,0.87268 -2.42411,1.45446 -2.35138,1.09085 -5.40575,1.09085 h -2.715 -6.15723 v -24.84709 z m 0.29089,6.06026 v 12.72656 h 2.5938 q 3.39374,0 5.42999,-2.8362 1.06661,-1.67263 1.06661,-3.5392 0,-2.44834 -1.79384,-4.41187 -1.8908,-1.93929 -4.79973,-1.93929 z m 16.88632,-6.06026 h 18.03535 v 5.62393 h -11.56299 v 4.24218 h 9.01768 v 5.62393 h -9.01768 v 3.83009 h 11.56299 v 5.52696 h -18.03535 z"
             id="path64" />
        </g>
        <g
           id="text12"
           style="fill:#1e4482"
           aria-label="ARCADE">
          <path
             style="font-stretch:normal;font-size:49.6457px;font-family:Basic_LAZER"
             d="m -284.918,117.46674 h 6.03602 l 9.38129,24.84709 h -6.13299 l -1.62415,-4.16947 h -9.18736 l -1.69688,4.16947 h -6.13298 z m 2.98165,8.33892 -2.64228,7.05415 h 5.28455 z"
             id="path65" />
          <path
             style="font-stretch:normal;font-size:49.6457px;font-family:Basic_LAZER;letter-spacing:-1.55143"
             d="m -257.91346,117.46674 q 2.54531,0 4.36339,1.09085 0.67875,0.36361 1.64839,1.26053 0.99389,1.06661 1.3575,1.79384 1.01813,1.8908 1.01813,3.75736 v 0.36362 q 0,2.56955 -1.81808,4.92094 -0.87268,0.99388 -1.55143,1.45446 l -0.58179,0.38786 5.35728,9.81763 h -6.93294 l -4.70277,-8.6783 h -2.54531 v 8.6783 h -6.47237 v -24.84709 z m -4.38763,5.26031 v 5.62392 h 3.41799 q 2.01201,0 2.78772,-1.8908 0.16969,-0.5333 0.16969,-0.89692 0,-1.3575 -1.13933,-2.27866 -0.70299,-0.55754 -1.98777,-0.55754 z"
             id="path66" />
          <path
             style="font-stretch:normal;font-size:49.6457px;font-family:Basic_LAZER;letter-spacing:-0.310285"
             d="m -236.07227,117.46674 q 4.21795,0 7.68442,2.69076 l 0.0485,0.0485 -3.6604,4.63004 q -1.8908,-1.43022 -4.0725,-1.43022 -2.76348,0 -4.82397,2.13321 -1.69687,1.93929 -1.69687,4.36339 0,2.73924 2.15745,4.79973 1.91505,1.69688 4.36339,1.69688 2.23018,0 4.0725,-1.45447 l 3.6604,4.65429 q -2.18169,1.7696 -5.09062,2.44835 -1.3575,0.26665 -2.49683,0.26665 h -0.31513 q -4.38764,0 -8.07228,-3.10286 -1.43022,-1.38174 -1.76959,-1.93928 -2.42411,-3.34527 -2.42411,-7.36929 0,-4.92093 3.51495,-8.6783 3.80585,-3.75736 8.92071,-3.75736 z m 17.94324,0 h 6.03603 l 9.38129,24.84709 h -6.13299 l -1.62415,-4.16947 h -9.18736 l -1.69688,4.16947 h -6.13299 z m 2.98166,8.33892 -2.64228,7.05415 h 5.28455 z"
             id="path67" />
          <path
             style="font-stretch:normal;font-size:49.6457px;font-family:Basic_LAZER;letter-spacing:-0.930857"
             d="m -196.13753,117.46674 h 3.00589 q 4.43612,0 7.99955,2.88468 1.11509,0.96965 1.74536,1.7696 2.715,3.51496 2.715,7.78138 0,4.21795 -2.69076,7.70866 -1.33326,1.55143 -2.23018,2.15746 -1.11509,0.87267 -2.42411,1.45446 -2.35138,1.09085 -5.40575,1.09085 h -2.715 -6.15723 v -24.84709 z m 0.29089,6.06026 v 12.72656 h 2.5938 q 3.39374,0 5.42999,-2.8362 1.06661,-1.67264 1.06661,-3.5392 0,-2.44835 -1.79384,-4.41187 -1.8908,-1.93929 -4.79973,-1.93929 z m 16.88632,-6.06026 h 18.03535 v 5.62392 h -11.56299 v 4.24219 h 9.01768 v 5.62393 h -9.01768 v 3.83008 h 11.56299 v 5.52697 h -18.03535 z"
             id="path68" />
        </g>
        <g
           id="text16"
           style="fill:#312f80"
           aria-label="ARCADE">
          <path
             style="font-stretch:normal;font-size:49.6457px;font-family:Basic_LAZER"
             d="m -284.918,115.61463 h 6.03602 l 9.38129,24.84709 h -6.13299 l -1.62415,-4.16947 h -9.18736 l -1.69688,4.16947 h -6.13298 z m 2.98165,8.33892 -2.64228,7.05415 h 5.28455 z"
             id="path69" />
          <path
             style="font-stretch:normal;font-size:49.6457px;font-family:Basic_LAZER;letter-spacing:-1.55143"
             d="m -257.91346,115.61463 q 2.54531,0 4.36339,1.09084 0.67875,0.36362 1.64839,1.26054 0.99389,1.06661 1.3575,1.79384 1.01813,1.8908 1.01813,3.75736 v 0.36362 q 0,2.56955 -1.81808,4.92093 -0.87268,0.99389 -1.55143,1.45447 l -0.58179,0.38785 5.35728,9.81764 h -6.93294 l -4.70277,-8.67831 h -2.54531 v 8.67831 h -6.47237 v -24.84709 z m -4.38763,5.26031 v 5.62392 h 3.41799 q 2.01201,0 2.78772,-1.8908 0.16969,-0.5333 0.16969,-0.89692 0,-1.3575 -1.13933,-2.27866 -0.70299,-0.55754 -1.98777,-0.55754 z"
             id="path70" />
          <path
             style="font-stretch:normal;font-size:49.6457px;font-family:Basic_LAZER;letter-spacing:-0.310285"
             d="m -236.07227,115.61463 q 4.21795,0 7.68442,2.69075 l 0.0485,0.0485 -3.6604,4.63004 q -1.8908,-1.43022 -4.0725,-1.43022 -2.76348,0 -4.82397,2.13321 -1.69687,1.93928 -1.69687,4.36339 0,2.73924 2.15745,4.79973 1.91505,1.69688 4.36339,1.69688 2.23018,0 4.0725,-1.45447 l 3.6604,4.65429 q -2.18169,1.76959 -5.09062,2.44834 -1.3575,0.26666 -2.49683,0.26666 h -0.31513 q -4.38764,0 -8.07228,-3.10286 -1.43022,-1.38174 -1.76959,-1.93929 -2.42411,-3.34526 -2.42411,-7.36928 0,-4.92093 3.51495,-8.6783 3.80585,-3.75736 8.92071,-3.75736 z m 17.94324,0 h 6.03603 l 9.38129,24.84709 h -6.13299 l -1.62415,-4.16947 h -9.18736 l -1.69688,4.16947 h -6.13299 z m 2.98166,8.33892 -2.64228,7.05415 h 5.28455 z"
             id="path71" />
          <path
             style="font-stretch:normal;font-size:49.6457px;font-family:Basic_LAZER;letter-spacing:-0.930857"
             d="m -196.13753,115.61463 h 3.00589 q 4.43612,0 7.99955,2.88468 1.11509,0.96964 1.74536,1.7696 2.715,3.51495 2.715,7.78138 0,4.21795 -2.69076,7.70866 -1.33326,1.55143 -2.23018,2.15745 -1.11509,0.87268 -2.42411,1.45447 -2.35138,1.09085 -5.40575,1.09085 h -2.715 -6.15723 v -24.84709 z m 0.29089,6.06026 v 12.72656 h 2.5938 q 3.39374,0 5.42999,-2.8362 1.06661,-1.67264 1.06661,-3.5392 0,-2.44835 -1.79384,-4.41187 -1.8908,-1.93929 -4.79973,-1.93929 z m 16.88632,-6.06026 h 18.03535 v 5.62392 h -11.56299 v 4.24219 h 9.01768 v 5.62393 h -9.01768 v 3.83008 h 11.56299 v 5.52697 h -18.03535 z"
             id="path72" />
        </g>
        <g
           id="text20"
           style="fill:#5a2d7d"
           aria-label="ARCADE">
          <path
             style="font-stretch:normal;font-size:49.6457px;font-family:Basic_LAZER"
             d="m -284.918,113.76251 h 6.03602 l 9.38129,24.84709 h -6.13299 l -1.62415,-4.16946 h -9.18736 l -1.69688,4.16946 h -6.13298 z m 2.98165,8.33893 -2.64228,7.05415 h 5.28455 z"
             id="path73" />
          <path
             style="font-stretch:normal;font-size:49.6457px;font-family:Basic_LAZER;letter-spacing:-1.55143"
             d="m -257.91346,113.76251 q 2.54531,0 4.36339,1.09085 0.67875,0.36362 1.64839,1.26054 0.99389,1.0666 1.3575,1.79384 1.01813,1.8908 1.01813,3.75736 v 0.36362 q 0,2.56955 -1.81808,4.92093 -0.87268,0.99389 -1.55143,1.45447 l -0.58179,0.38785 5.35728,9.81763 h -6.93294 l -4.70277,-8.6783 h -2.54531 v 8.6783 h -6.47237 v -24.84709 z m -4.38763,5.26031 v 5.62393 h 3.41799 q 2.01201,0 2.78772,-1.8908 0.16969,-0.53331 0.16969,-0.89692 0,-1.3575 -1.13933,-2.27866 -0.70299,-0.55755 -1.98777,-0.55755 z"
             id="path74" />
          <path
             style="font-stretch:normal;font-size:49.6457px;font-family:Basic_LAZER;letter-spacing:-0.310285"
             d="m -236.07227,113.76251 q 4.21795,0 7.68442,2.69076 l 0.0485,0.0485 -3.6604,4.63005 q -1.8908,-1.43023 -4.0725,-1.43023 -2.76348,0 -4.82397,2.13322 -1.69687,1.93928 -1.69687,4.36339 0,2.73924 2.15745,4.79973 1.91505,1.69687 4.36339,1.69687 2.23018,0 4.0725,-1.45446 l 3.6604,4.65428 q -2.18169,1.7696 -5.09062,2.44835 -1.3575,0.26665 -2.49683,0.26665 h -0.31513 q -4.38764,0 -8.07228,-3.10285 -1.43022,-1.38174 -1.76959,-1.93929 -2.42411,-3.34526 -2.42411,-7.36928 0,-4.92094 3.51495,-8.6783 3.80585,-3.75737 8.92071,-3.75737 z m 17.94324,0 h 6.03603 l 9.38129,24.84709 h -6.13299 l -1.62415,-4.16946 h -9.18736 l -1.69688,4.16946 h -6.13299 z m 2.98166,8.33893 -2.64228,7.05415 h 5.28455 z"
             id="path75" />
          <path
             style="font-stretch:normal;font-size:49.6457px;font-family:Basic_LAZER;letter-spacing:-0.930857"
             d="m -196.13753,113.76251 h 3.00589 q 4.43612,0 7.99955,2.88469 1.11509,0.96964 1.74536,1.7696 2.715,3.51495 2.715,7.78138 0,4.21794 -2.69076,7.70866 -1.33326,1.55143 -2.23018,2.15745 -1.11509,0.87268 -2.42411,1.45447 -2.35138,1.09084 -5.40575,1.09084 h -2.715 -6.15723 v -24.84709 z m 0.29089,6.06027 v 12.72656 h 2.5938 q 3.39374,0 5.42999,-2.83621 1.06661,-1.67263 1.06661,-3.53919 0,-2.44835 -1.79384,-4.41188 -1.8908,-1.93928 -4.79973,-1.93928 z m 16.88632,-6.06027 h 18.03535 v 5.62393 h -11.56299 v 4.24219 h 9.01768 v 5.62392 h -9.01768 v 3.83009 h 11.56299 v 5.52696 h -18.03535 z"
             id="path76" />
        </g>
        <g
           id="text24"
           style="fill:#812b84"
           aria-label="ARCADE">
          <path
             style="font-stretch:normal;font-size:49.6457px;font-family:Basic_LAZER"
             d="m -284.918,111.9104 h 6.03602 l 9.38129,24.84709 h -6.13299 l -1.62415,-4.16946 h -9.18736 l -1.69688,4.16946 h -6.13298 z m 2.98165,8.33893 -2.64228,7.05415 h 5.28455 z"
             id="path77" />
          <path
             style="font-stretch:normal;font-size:49.6457px;font-family:Basic_LAZER;letter-spacing:-1.55143"
             d="m -257.91346,111.9104 q 2.54531,0 4.36339,1.09085 0.67875,0.36362 1.64839,1.26053 0.99389,1.06661 1.3575,1.79384 1.01813,1.89081 1.01813,3.75737 v 0.36361 q 0,2.56956 -1.81808,4.92094 -0.87268,0.99388 -1.55143,1.45446 l -0.58179,0.38786 5.35728,9.81763 h -6.93294 l -4.70277,-8.6783 h -2.54531 v 8.6783 h -6.47237 V 111.9104 Z m -4.38763,5.26031 v 5.62393 h 3.41799 q 2.01201,0 2.78772,-1.8908 0.16969,-0.53331 0.16969,-0.89692 0,-1.3575 -1.13933,-2.27866 -0.70299,-0.55755 -1.98777,-0.55755 z"
             id="path78" />
          <path
             style="font-stretch:normal;font-size:49.6457px;font-family:Basic_LAZER;letter-spacing:-0.310285"
             d="m -236.07227,111.9104 q 4.21795,0 7.68442,2.69076 l 0.0485,0.0485 -3.6604,4.63005 q -1.8908,-1.43023 -4.0725,-1.43023 -2.76348,0 -4.82397,2.13322 -1.69687,1.93928 -1.69687,4.36339 0,2.73924 2.15745,4.79973 1.91505,1.69687 4.36339,1.69687 2.23018,0 4.0725,-1.45446 l 3.6604,4.65428 q -2.18169,1.7696 -5.09062,2.44835 -1.3575,0.26665 -2.49683,0.26665 h -0.31513 q -4.38764,0 -8.07228,-3.10285 -1.43022,-1.38174 -1.76959,-1.93929 -2.42411,-3.34527 -2.42411,-7.36928 0,-4.92094 3.51495,-8.6783 3.80585,-3.75737 8.92071,-3.75737 z m 17.94324,0 h 6.03603 l 9.38129,24.84709 h -6.13299 l -1.62415,-4.16946 h -9.18736 l -1.69688,4.16946 h -6.13299 z m 2.98166,8.33893 -2.64228,7.05415 h 5.28455 z"
             id="path79" />
          <path
             style="font-stretch:normal;font-size:49.6457px;font-family:Basic_LAZER;letter-spacing:-0.930857"
             d="m -196.13753,111.9104 h 3.00589 q 4.43612,0 7.99955,2.88469 1.11509,0.96964 1.74536,1.7696 2.715,3.51495 2.715,7.78138 0,4.21794 -2.69076,7.70866 -1.33326,1.55142 -2.23018,2.15745 -1.11509,0.87268 -2.42411,1.45446 -2.35138,1.09085 -5.40575,1.09085 h -2.715 -6.15723 V 111.9104 Z m 0.29089,6.06027 v 12.72656 h 2.5938 q 3.39374,0 5.42999,-2.83621 1.06661,-1.67263 1.06661,-3.53919 0,-2.44835 -1.79384,-4.41188 -1.8908,-1.93928 -4.79973,-1.93928 z m 16.88632,-6.06027 h 18.03535 v 5.62393 h -11.56299 v 4.24218 h 9.01768 v 5.62393 h -9.01768 v 3.83009 h 11.56299 v 5.52696 h -18.03535 z"
             id="path80" />
        </g>
        <g
           id="text28"
           style="fill:#ab2085"
           aria-label="ARCADE">
          <path
             style="font-stretch:normal;font-size:49.6457px;font-family:Basic_LAZER"
             d="m -284.918,110.05829 h 6.03602 l 9.38129,24.84709 h -6.13299 l -1.62415,-4.16946 h -9.18736 l -1.69688,4.16946 h -6.13298 z m 2.98165,8.33893 -2.64228,7.05415 h 5.28455 z"
             id="path81" />
          <path
             style="font-stretch:normal;font-size:49.6457px;font-family:Basic_LAZER;letter-spacing:-1.55143"
             d="m -257.91346,110.05829 q 2.54531,0 4.36339,1.09085 0.67875,0.36361 1.64839,1.26053 0.99389,1.06661 1.3575,1.79384 1.01813,1.8908 1.01813,3.75737 v 0.36361 q 0,2.56956 -1.81808,4.92094 -0.87268,0.99388 -1.55143,1.45446 l -0.58179,0.38786 5.35728,9.81763 h -6.93294 l -4.70277,-8.6783 h -2.54531 v 8.6783 h -6.47237 v -24.84709 z m -4.38763,5.26031 v 5.62393 h 3.41799 q 2.01201,0 2.78772,-1.89081 0.16969,-0.5333 0.16969,-0.89691 0,-1.3575 -1.13933,-2.27866 -0.70299,-0.55755 -1.98777,-0.55755 z"
             id="path82" />
          <path
             style="font-stretch:normal;font-size:49.6457px;font-family:Basic_LAZER;letter-spacing:-0.310285"
             d="m -236.07227,110.05829 q 4.21795,0 7.68442,2.69076 l 0.0485,0.0485 -3.6604,4.63004 q -1.8908,-1.43022 -4.0725,-1.43022 -2.76348,0 -4.82397,2.13321 -1.69687,1.93929 -1.69687,4.3634 0,2.73924 2.15745,4.79973 1.91505,1.69687 4.36339,1.69687 2.23018,0 4.0725,-1.45446 l 3.6604,4.65428 q -2.18169,1.7696 -5.09062,2.44835 -1.3575,0.26665 -2.49683,0.26665 h -0.31513 q -4.38764,0 -8.07228,-3.10286 -1.43022,-1.38174 -1.76959,-1.93928 -2.42411,-3.34527 -2.42411,-7.36928 0,-4.92094 3.51495,-8.67831 3.80585,-3.75736 8.92071,-3.75736 z m 17.94324,0 h 6.03603 l 9.38129,24.84709 h -6.13299 l -1.62415,-4.16946 h -9.18736 l -1.69688,4.16946 h -6.13299 z m 2.98166,8.33893 -2.64228,7.05415 h 5.28455 z"
             id="path83" />
          <path
             style="font-stretch:normal;font-size:49.6457px;font-family:Basic_LAZER;letter-spacing:-0.930857"
             d="m -196.13753,110.05829 h 3.00589 q 4.43612,0 7.99955,2.88469 1.11509,0.96964 1.74536,1.76959 2.715,3.51496 2.715,7.78139 0,4.21794 -2.69076,7.70865 -1.33326,1.55143 -2.23018,2.15746 -1.11509,0.87268 -2.42411,1.45446 -2.35138,1.09085 -5.40575,1.09085 h -2.715 -6.15723 v -24.84709 z m 0.29089,6.06027 v 12.72655 h 2.5938 q 3.39374,0 5.42999,-2.8362 1.06661,-1.67263 1.06661,-3.5392 0,-2.44834 -1.79384,-4.41187 -1.8908,-1.93928 -4.79973,-1.93928 z m 16.88632,-6.06027 h 18.03535 v 5.62393 h -11.56299 v 4.24218 h 9.01768 v 5.62393 h -9.01768 v 3.83009 h 11.56299 v 5.52696 h -18.03535 z"
             id="path84" />
        </g>
        <g
           id="text32"
           style="fill:#d60e89"
           aria-label="ARCADE">
          <path
             style="font-stretch:normal;font-size:49.6457px;font-family:Basic_LAZER"
             d="m -284.918,108.20618 h 6.03602 l 9.38129,24.84709 h -6.13299 l -1.62415,-4.16946 h -9.18736 l -1.69688,4.16946 h -6.13298 z m 2.98165,8.33892 -2.64228,7.05415 h 5.28455 z"
             id="path85" />
          <path
             style="font-stretch:normal;font-size:49.6457px;font-family:Basic_LAZER;letter-spacing:-1.55143"
             d="m -257.91346,108.20618 q 2.54531,0 4.36339,1.09085 0.67875,0.36361 1.64839,1.26053 0.99389,1.06661 1.3575,1.79384 1.01813,1.8908 1.01813,3.75736 v 0.36362 q 0,2.56955 -1.81808,4.92094 -0.87268,0.99388 -1.55143,1.45446 l -0.58179,0.38786 5.35728,9.81763 h -6.93294 l -4.70277,-8.6783 h -2.54531 v 8.6783 h -6.47237 v -24.84709 z m -4.38763,5.26031 v 5.62393 h 3.41799 q 2.01201,0 2.78772,-1.89081 0.16969,-0.5333 0.16969,-0.89692 0,-1.3575 -1.13933,-2.27866 -0.70299,-0.55754 -1.98777,-0.55754 z"
             id="path86" />
          <path
             style="font-stretch:normal;font-size:49.6457px;font-family:Basic_LAZER;letter-spacing:-0.310285"
             d="m -236.07227,108.20618 q 4.21795,0 7.68442,2.69076 l 0.0485,0.0485 -3.6604,4.63004 q -1.8908,-1.43022 -4.0725,-1.43022 -2.76348,0 -4.82397,2.13321 -1.69687,1.93929 -1.69687,4.36339 0,2.73924 2.15745,4.79973 1.91505,1.69688 4.36339,1.69688 2.23018,0 4.0725,-1.45446 l 3.6604,4.65428 q -2.18169,1.7696 -5.09062,2.44835 -1.3575,0.26665 -2.49683,0.26665 h -0.31513 q -4.38764,0 -8.07228,-3.10286 -1.43022,-1.38174 -1.76959,-1.93928 -2.42411,-3.34527 -2.42411,-7.36929 0,-4.92093 3.51495,-8.6783 3.80585,-3.75736 8.92071,-3.75736 z m 17.94324,0 h 6.03603 l 9.38129,24.84709 h -6.13299 l -1.62415,-4.16946 h -9.18736 l -1.69688,4.16946 h -6.13299 z m 2.98166,8.33892 -2.64228,7.05415 h 5.28455 z"
             id="path87" />
          <path
             style="font-stretch:normal;font-size:49.6457px;font-family:Basic_LAZER;letter-spacing:-0.930857"
             d="m -196.13753,108.20618 h 3.00589 q 4.43612,0 7.99955,2.88468 1.11509,0.96965 1.74536,1.7696 2.715,3.51496 2.715,7.78138 0,4.21795 -2.69076,7.70866 -1.33326,1.55143 -2.23018,2.15746 -1.11509,0.87268 -2.42411,1.45446 -2.35138,1.09085 -5.40575,1.09085 h -2.715 -6.15723 v -24.84709 z m 0.29089,6.06026 V 126.993 h 2.5938 q 3.39374,0 5.42999,-2.8362 1.06661,-1.67264 1.06661,-3.5392 0,-2.44834 -1.79384,-4.41187 -1.8908,-1.93929 -4.79973,-1.93929 z m 16.88632,-6.06026 h 18.03535 v 5.62392 h -11.56299 v 4.24219 h 9.01768 v 5.62393 h -9.01768 v 3.83009 h 11.56299 v 5.52696 h -18.03535 z"
             id="path88" />
        </g>
        <g
           id="text36"
           style="fill:#ec1d22"
           aria-label="ARCADE">
          <path
             style="font-stretch:normal;font-size:49.6457px;font-family:Basic_LAZER"
             d="m -284.918,106.35407 h 6.03602 l 9.38129,24.84709 h -6.13299 l -1.62415,-4.16947 h -9.18736 l -1.69688,4.16947 h -6.13298 z m 2.98165,8.33892 -2.64228,7.05415 h 5.28455 z"
             id="path89" />
          <path
             style="font-stretch:normal;font-size:49.6457px;font-family:Basic_LAZER;letter-spacing:-1.55143"
             d="m -257.91346,106.35407 q 2.54531,0 4.36339,1.09084 0.67875,0.36362 1.64839,1.26054 0.99389,1.06661 1.3575,1.79384 1.01813,1.8908 1.01813,3.75736 v 0.36362 q 0,2.56955 -1.81808,4.92093 -0.87268,0.99389 -1.55143,1.45447 l -0.58179,0.38786 5.35728,9.81763 h -6.93294 l -4.70277,-8.6783 h -2.54531 v 8.6783 h -6.47237 v -24.84709 z m -4.38763,5.26031 v 5.62392 h 3.41799 q 2.01201,0 2.78772,-1.8908 0.16969,-0.5333 0.16969,-0.89692 0,-1.3575 -1.13933,-2.27866 -0.70299,-0.55754 -1.98777,-0.55754 z"
             id="path90" />
          <path
             style="font-stretch:normal;font-size:49.6457px;font-family:Basic_LAZER;letter-spacing:-0.310285"
             d="m -236.07227,106.35407 q 4.21795,0 7.68442,2.69075 l 0.0485,0.0485 -3.6604,4.63004 q -1.8908,-1.43022 -4.0725,-1.43022 -2.76348,0 -4.82397,2.13321 -1.69687,1.93929 -1.69687,4.36339 0,2.73924 2.15745,4.79973 1.91505,1.69688 4.36339,1.69688 2.23018,0 4.0725,-1.45447 l 3.6604,4.65429 q -2.18169,1.7696 -5.09062,2.44834 -1.3575,0.26666 -2.49683,0.26666 h -0.31513 q -4.38764,0 -8.07228,-3.10286 -1.43022,-1.38174 -1.76959,-1.93928 -2.42411,-3.34527 -2.42411,-7.36929 0,-4.92093 3.51495,-8.6783 3.80585,-3.75736 8.92071,-3.75736 z m 17.94324,0 h 6.03603 l 9.38129,24.84709 h -6.13299 l -1.62415,-4.16947 h -9.18736 l -1.69688,4.16947 h -6.13299 z m 2.98166,8.33892 -2.64228,7.05415 h 5.28455 z"
             id="path91" />
          <path
             style="font-stretch:normal;font-size:49.6457px;font-family:Basic_LAZER;letter-spacing:-0.930857"
             d="m -196.13753,106.35407 h 3.00589 q 4.43612,0 7.99955,2.88468 1.11509,0.96965 1.74536,1.7696 2.715,3.51495 2.715,7.78138 0,4.21795 -2.69076,7.70866 -1.33326,1.55143 -2.23018,2.15745 -1.11509,0.87268 -2.42411,1.45447 -2.35138,1.09085 -5.40575,1.09085 h -2.715 -6.15723 v -24.84709 z m 0.29089,6.06026 v 12.72656 h 2.5938 q 3.39374,0 5.42999,-2.8362 1.06661,-1.67264 1.06661,-3.5392 0,-2.44835 -1.79384,-4.41187 -1.8908,-1.93929 -4.79973,-1.93929 z m 16.88632,-6.06026 h 18.03535 v 5.62392 h -11.56299 v 4.24219 h 9.01768 v 5.62393 h -9.01768 v 3.83008 h 11.56299 v 5.52697 h -18.03535 z"
             id="path92" />
        </g>
        <g
           id="text40"
           style="fill:#ef6023"
           aria-label="ARCADE">
          <path
             style="font-stretch:normal;font-size:49.6457px;font-family:Basic_LAZER"
             d="m -284.918,104.50195 h 6.03602 l 9.38129,24.84709 h -6.13299 l -1.62415,-4.16946 h -9.18736 l -1.69688,4.16946 h -6.13298 z m 2.98165,8.33893 -2.64228,7.05415 h 5.28455 z"
             id="path93" />
          <path
             style="font-stretch:normal;font-size:49.6457px;font-family:Basic_LAZER;letter-spacing:-1.55143"
             d="m -257.91346,104.50195 q 2.54531,0 4.36339,1.09085 0.67875,0.36362 1.64839,1.26054 0.99389,1.0666 1.3575,1.79384 1.01813,1.8908 1.01813,3.75736 v 0.36362 q 0,2.56955 -1.81808,4.92093 -0.87268,0.99389 -1.55143,1.45447 l -0.58179,0.38785 5.35728,9.81763 h -6.93294 l -4.70277,-8.6783 h -2.54531 v 8.6783 h -6.47237 v -24.84709 z m -4.38763,5.26032 v 5.62392 h 3.41799 q 2.01201,0 2.78772,-1.8908 0.16969,-0.5333 0.16969,-0.89692 0,-1.3575 -1.13933,-2.27866 -0.70299,-0.55754 -1.98777,-0.55754 z"
             id="path94" />
          <path
             style="font-stretch:normal;font-size:49.6457px;font-family:Basic_LAZER;letter-spacing:-0.310285"
             d="m -236.07227,104.50195 q 4.21795,0 7.68442,2.69076 l 0.0485,0.0485 -3.6604,4.63005 q -1.8908,-1.43022 -4.0725,-1.43022 -2.76348,0 -4.82397,2.13321 -1.69687,1.93928 -1.69687,4.36339 0,2.73924 2.15745,4.79973 1.91505,1.69688 4.36339,1.69688 2.23018,0 4.0725,-1.45447 l 3.6604,4.65429 q -2.18169,1.76959 -5.09062,2.44834 -1.3575,0.26665 -2.49683,0.26665 h -0.31513 q -4.38764,0 -8.07228,-3.10285 -1.43022,-1.38174 -1.76959,-1.93929 -2.42411,-3.34526 -2.42411,-7.36928 0,-4.92094 3.51495,-8.6783 3.80585,-3.75737 8.92071,-3.75737 z m 17.94324,0 h 6.03603 l 9.38129,24.84709 h -6.13299 l -1.62415,-4.16946 h -9.18736 l -1.69688,4.16946 h -6.13299 z m 2.98166,8.33893 -2.64228,7.05415 h 5.28455 z"
             id="path95" />
          <path
             style="font-stretch:normal;font-size:49.6457px;font-family:Basic_LAZER;letter-spacing:-0.930857"
             d="m -196.13753,104.50195 h 3.00589 q 4.43612,0 7.99955,2.88469 1.11509,0.96964 1.74536,1.7696 2.715,3.51495 2.715,7.78138 0,4.21795 -2.69076,7.70866 -1.33326,1.55143 -2.23018,2.15745 -1.11509,0.87268 -2.42411,1.45447 -2.35138,1.09084 -5.40575,1.09084 h -2.715 -6.15723 v -24.84709 z m 0.29089,6.06027 v 12.72656 h 2.5938 q 3.39374,0 5.42999,-2.83621 1.06661,-1.67263 1.06661,-3.53919 0,-2.44835 -1.79384,-4.41187 -1.8908,-1.93929 -4.79973,-1.93929 z m 16.88632,-6.06027 h 18.03535 v 5.62393 h -11.56299 v 4.24219 h 9.01768 v 5.62392 h -9.01768 v 3.83009 h 11.56299 v 5.52696 h -18.03535 z"
             id="path96" />
        </g>
        <g
           id="text44"
           style="fill:#f67c1c"
           aria-label="ARCADE">
          <path
             style="font-stretch:normal;font-size:49.6457px;font-family:Basic_LAZER"
             d="m -284.918,102.64986 h 6.03602 l 9.38129,24.84709 h -6.13299 l -1.62415,-4.16946 h -9.18736 l -1.69688,4.16946 h -6.13298 z m 2.98165,8.33892 -2.64228,7.05415 h 5.28455 z"
             id="path97" />
          <path
             style="font-stretch:normal;font-size:49.6457px;font-family:Basic_LAZER;letter-spacing:-1.55143"
             d="m -257.91346,102.64986 q 2.54531,0 4.36339,1.09085 0.67875,0.36361 1.64839,1.26053 0.99389,1.06661 1.3575,1.79384 1.01813,1.8908 1.01813,3.75736 v 0.36362 q 0,2.56955 -1.81808,4.92094 -0.87268,0.99388 -1.55143,1.45446 l -0.58179,0.38786 5.35728,9.81763 h -6.93294 l -4.70277,-8.6783 h -2.54531 v 8.6783 h -6.47237 v -24.84709 z m -4.38763,5.26031 v 5.62393 h 3.41799 q 2.01201,0 2.78772,-1.89081 0.16969,-0.5333 0.16969,-0.89692 0,-1.3575 -1.13933,-2.27866 -0.70299,-0.55754 -1.98777,-0.55754 z"
             id="path98" />
          <path
             style="font-stretch:normal;font-size:49.6457px;font-family:Basic_LAZER;letter-spacing:-0.310285"
             d="m -236.07227,102.64986 q 4.21795,0 7.68442,2.69076 l 0.0485,0.0485 -3.6604,4.63004 q -1.8908,-1.43022 -4.0725,-1.43022 -2.76348,0 -4.82397,2.13321 -1.69687,1.93929 -1.69687,4.36339 0,2.73924 2.15745,4.79973 1.91505,1.69688 4.36339,1.69688 2.23018,0 4.0725,-1.45447 l 3.6604,4.65429 q -2.18169,1.7696 -5.09062,2.44835 -1.3575,0.26665 -2.49683,0.26665 h -0.31513 q -4.38764,0 -8.07228,-3.10286 -1.43022,-1.38174 -1.76959,-1.93928 -2.42411,-3.34527 -2.42411,-7.36929 0,-4.92093 3.51495,-8.6783 3.80585,-3.75736 8.92071,-3.75736 z m 17.94324,0 h 6.03603 l 9.38129,24.84709 h -6.13299 l -1.62415,-4.16946 h -9.18736 l -1.69688,4.16946 h -6.13299 z m 2.98166,8.33892 -2.64228,7.05415 h 5.28455 z"
             id="path99" />
          <path
             style="font-stretch:normal;font-size:49.6457px;font-family:Basic_LAZER;letter-spacing:-0.930857"
             d="m -196.13753,102.64986 h 3.00589 q 4.43612,0 7.99955,2.88468 1.11509,0.96965 1.74536,1.7696 2.715,3.51496 2.715,7.78138 0,4.21795 -2.69076,7.70866 -1.33326,1.55143 -2.23018,2.15746 -1.11509,0.87267 -2.42411,1.45446 -2.35138,1.09085 -5.40575,1.09085 h -2.715 -6.15723 v -24.84709 z m 0.29089,6.06026 v 12.72656 h 2.5938 q 3.39374,0 5.42999,-2.8362 1.06661,-1.67264 1.06661,-3.5392 0,-2.44834 -1.79384,-4.41187 -1.8908,-1.93929 -4.79973,-1.93929 z m 16.88632,-6.06026 h 18.03535 v 5.62392 h -11.56299 v 4.24219 h 9.01768 v 5.62393 h -9.01768 v 3.83009 h 11.56299 v 5.52696 h -18.03535 z"
             id="path100" />
        </g>
        <g
           id="text48"
           style="fill:#f7a41d"
           aria-label="ARCADE">
          <path
             style="font-stretch:normal;font-size:49.6457px;font-family:Basic_LAZER"
             d="m -284.918,100.79779 h 6.03602 l 9.38129,24.84709 h -6.13299 l -1.62415,-4.16946 h -9.18736 l -1.69688,4.16946 h -6.13298 z m 2.98165,8.33893 -2.64228,7.05415 h 5.28455 z"
             id="path101" />
          <path
             style="font-stretch:normal;font-size:49.6457px;font-family:Basic_LAZER;letter-spacing:-1.55143"
             d="m -257.91346,100.79779 q 2.54531,0 4.36339,1.09085 0.67875,0.36362 1.64839,1.26054 0.99389,1.0666 1.3575,1.79383 1.01813,1.89081 1.01813,3.75737 v 0.36361 q 0,2.56956 -1.81808,4.92094 -0.87268,0.99388 -1.55143,1.45446 l -0.58179,0.38786 5.35728,9.81763 h -6.93294 l -4.70277,-8.6783 h -2.54531 v 8.6783 h -6.47237 v -24.84709 z m -4.38763,5.26031 v 5.62393 h 3.41799 q 2.01201,0 2.78772,-1.8908 0.16969,-0.53331 0.16969,-0.89692 0,-1.3575 -1.13933,-2.27866 -0.70299,-0.55755 -1.98777,-0.55755 z"
             id="path102" />
          <path
             style="font-stretch:normal;font-size:49.6457px;font-family:Basic_LAZER;letter-spacing:-0.310285"
             d="m -236.07227,100.79779 q 4.21795,0 7.68442,2.69076 l 0.0485,0.0485 -3.6604,4.63005 q -1.8908,-1.43023 -4.0725,-1.43023 -2.76348,0 -4.82397,2.13322 -1.69687,1.93928 -1.69687,4.36339 0,2.73924 2.15745,4.79973 1.91505,1.69687 4.36339,1.69687 2.23018,0 4.0725,-1.45446 l 3.6604,4.65428 q -2.18169,1.7696 -5.09062,2.44835 -1.3575,0.26665 -2.49683,0.26665 h -0.31513 q -4.38764,0 -8.07228,-3.10285 -1.43022,-1.38174 -1.76959,-1.93929 -2.42411,-3.34527 -2.42411,-7.36928 0,-4.92094 3.51495,-8.6783 3.80585,-3.75737 8.92071,-3.75737 z m 17.94324,0 h 6.03603 l 9.38129,24.84709 h -6.13299 l -1.62415,-4.16946 h -9.18736 l -1.69688,4.16946 h -6.13299 z m 2.98166,8.33893 -2.64228,7.05415 h 5.28455 z"
             id="path103" />
          <path
             style="font-stretch:normal;font-size:49.6457px;font-family:Basic_LAZER;letter-spacing:-0.930857"
             d="m -196.13753,100.79779 h 3.00589 q 4.43612,0 7.99955,2.88469 1.11509,0.96964 1.74536,1.7696 2.715,3.51495 2.715,7.78138 0,4.21794 -2.69076,7.70866 -1.33326,1.55142 -2.23018,2.15745 -1.11509,0.87268 -2.42411,1.45446 -2.35138,1.09085 -5.40575,1.09085 h -2.715 -6.15723 v -24.84709 z m 0.29089,6.06027 v 12.72656 h 2.5938 q 3.39374,0 5.42999,-2.83621 1.06661,-1.67263 1.06661,-3.53919 0,-2.44835 -1.79384,-4.41188 -1.8908,-1.93928 -4.79973,-1.93928 z m 16.88632,-6.06027 h 18.03535 v 5.62393 h -11.56299 v 4.24218 h 9.01768 v 5.62393 h -9.01768 v 3.83009 h 11.56299 v 5.52696 h -18.03535 z"
             id="path104" />
        </g>
        <g
           id="text52"
           style="fill:#fec705"
           aria-label="ARCADE">
          <path
             style="font-stretch:normal;font-size:49.6457px;font-family:Basic_LAZER"
             d="m -284.918,98.945733 h 6.03602 l 9.38129,24.847087 h -6.13299 l -1.62415,-4.16946 h -9.18736 l -1.69688,4.16946 h -6.13298 z m 2.98165,8.338927 -2.64228,7.05415 h 5.28455 z"
             id="path105" />
          <path
             style="font-stretch:normal;font-size:49.6457px;font-family:Basic_LAZER;letter-spacing:-1.55143"
             d="m -257.91346,98.945733 q 2.54531,0 4.36339,1.090847 0.67875,0.36362 1.64839,1.26054 0.99389,1.0666 1.3575,1.79384 1.01813,1.8908 1.01813,3.75736 v 0.36362 q 0,2.56955 -1.81808,4.92093 -0.87268,0.99389 -1.55143,1.45447 l -0.58179,0.38785 5.35728,9.81763 h -6.93294 l -4.70277,-8.6783 h -2.54531 v 8.6783 h -6.47237 V 98.945733 Z m -4.38763,5.260307 v 5.62393 h 3.41799 q 2.01201,0 2.78772,-1.8908 0.16969,-0.53331 0.16969,-0.89692 0,-1.3575 -1.13933,-2.27866 -0.70299,-0.55755 -1.98777,-0.55755 z"
             id="path106" />
          <path
             style="font-stretch:normal;font-size:49.6457px;font-family:Basic_LAZER;letter-spacing:-0.310285"
             d="m -236.07227,98.945733 q 4.21795,0 7.68442,2.690757 l 0.0485,0.0485 -3.6604,4.63005 q -1.8908,-1.43023 -4.0725,-1.43023 -2.76348,0 -4.82397,2.13322 -1.69687,1.93928 -1.69687,4.36339 0,2.73924 2.15745,4.79973 1.91505,1.69687 4.36339,1.69687 2.23018,0 4.0725,-1.45446 l 3.6604,4.65428 q -2.18169,1.7696 -5.09062,2.44835 -1.3575,0.26665 -2.49683,0.26665 h -0.31513 q -4.38764,0 -8.07228,-3.10285 -1.43022,-1.38174 -1.76959,-1.93929 -2.42411,-3.34526 -2.42411,-7.36928 0,-4.92094 3.51495,-8.6783 3.80585,-3.757367 8.92071,-3.757367 z m 17.94324,0 h 6.03603 l 9.38129,24.847087 h -6.13299 l -1.62415,-4.16946 h -9.18736 l -1.69688,4.16946 h -6.13299 z m 2.98166,8.338927 -2.64228,7.05415 h 5.28455 z"
             id="path107" />
          <path
             style="font-stretch:normal;font-size:49.6457px;font-family:Basic_LAZER;letter-spacing:-0.930857"
             d="m -196.13753,98.945733 h 3.00589 q 4.43612,0 7.99955,2.884687 1.11509,0.96964 1.74536,1.7696 2.715,3.51495 2.715,7.78138 0,4.21794 -2.69076,7.70866 -1.33326,1.55143 -2.23018,2.15745 -1.11509,0.87268 -2.42411,1.45447 -2.35138,1.09084 -5.40575,1.09084 h -2.715 -6.15723 V 98.945733 Z m 0.29089,6.060267 v 12.72656 h 2.5938 q 3.39374,0 5.42999,-2.83621 1.06661,-1.67263 1.06661,-3.53919 0,-2.44835 -1.79384,-4.41188 -1.8908,-1.93928 -4.79973,-1.93928 z m 16.88632,-6.060267 h 18.03535 v 5.623927 h -11.56299 v 4.24219 h 9.01768 v 5.62392 h -9.01768 v 3.83009 h 11.56299 v 5.52696 h -18.03535 z"
             id="path108" />
        </g>
        <g
           id="text56"
           style="fill:#ffffff"
           aria-label="ARCADE">
          <path
             style="font-stretch:normal;font-size:49.6457px;font-family:Basic_LAZER"
             d="m -284.918,97.093683 h 6.03602 l 9.38129,24.847087 h -6.13299 l -1.62415,-4.16946 h -9.18736 l -1.69688,4.16946 h -6.13298 z m 2.98165,8.338927 -2.64228,7.05415 h 5.28455 z"
             id="path109" />
          <path
             style="font-stretch:normal;font-size:49.6457px;font-family:Basic_LAZER;letter-spacing:-1.55143"
             d="m -257.91346,97.093683 q 2.54531,0 4.36339,1.090848 0.67875,0.363615 1.64839,1.260535 0.99389,1.066604 1.3575,1.793834 1.01813,1.89081 1.01813,3.75737 v 0.36362 q 0,2.56955 -1.81808,4.92093 -0.87268,0.99388 -1.55143,1.45447 l -0.58179,0.38785 5.35728,9.81763 h -6.93294 l -4.70277,-8.6783 h -2.54531 v 8.6783 h -6.47237 V 97.093683 Z m -4.38763,5.260307 v 5.62393 h 3.41799 q 2.01201,0 2.78772,-1.8908 0.16969,-0.53331 0.16969,-0.89692 0,-1.3575 -1.13933,-2.27866 -0.70299,-0.55755 -1.98777,-0.55755 z"
             id="path110" />
          <path
             style="font-stretch:normal;font-size:49.6457px;font-family:Basic_LAZER;letter-spacing:-0.310285"
             d="m -236.07227,97.093683 q 4.21795,0 7.68442,2.690758 l 0.0485,0.04848 -3.6604,4.630047 q -1.8908,-1.43023 -4.0725,-1.43023 -2.76348,0 -4.82397,2.13322 -1.69687,1.93928 -1.69687,4.36339 0,2.73924 2.15745,4.79973 1.91505,1.69687 4.36339,1.69687 2.23018,0 4.0725,-1.45446 l 3.6604,4.65428 q -2.18169,1.7696 -5.09062,2.44835 -1.3575,0.26665 -2.49683,0.26665 h -0.31513 q -4.38764,0 -8.07228,-3.10285 -1.43022,-1.38174 -1.76959,-1.93929 -2.42411,-3.34527 -2.42411,-7.36928 0,-4.92094 3.51495,-8.6783 3.80585,-3.757367 8.92071,-3.757367 z m 17.94324,0 h 6.03603 l 9.38129,24.847087 h -6.13299 l -1.62415,-4.16946 h -9.18736 l -1.69688,4.16946 h -6.13299 z m 2.98166,8.338927 -2.64228,7.05415 h 5.28455 z"
             id="path111" />
          <path
             style="font-stretch:normal;font-size:49.6457px;font-family:Basic_LAZER;letter-spacing:-0.930857"
             d="m -196.13753,97.093683 h 3.00589 q 4.43612,0 7.99955,2.884686 1.11509,0.969641 1.74536,1.769601 2.715,3.51495 2.715,7.78138 0,4.21794 -2.69076,7.70866 -1.33326,1.55142 -2.23018,2.15745 -1.11509,0.87268 -2.42411,1.45447 -2.35138,1.09084 -5.40575,1.09084 h -2.715 -6.15723 V 97.093683 Z m 0.29089,6.060267 v 12.72656 h 2.5938 q 3.39374,0 5.42999,-2.83621 1.06661,-1.67263 1.06661,-3.53919 0,-2.44835 -1.79384,-4.41188 -1.8908,-1.93928 -4.79973,-1.93928 z m 16.88632,-6.060267 h 18.03535 v 5.623927 h -11.56299 v 4.24219 h 9.01768 v 5.62392 h -9.01768 v 3.83009 h 11.56299 v 5.52696 h -18.03535 z"
             id="path112" />
        </g>
      </g>
    </g>
  </g>
</svg>
