<svg enable-background="new 0 0 3840 832.7" height="416" viewBox="0 0 1920 415.99999" width="1920" xmlns="http://www.w3.org/2000/svg"><g fill="#e4202f" transform="matrix(.50001302 0 0 .49951969717 -.050001502 0)"><path d="m368.6 4.2c20.9-.1 41.9 0 62.8-.1.1 49.2 0 98.4 0 147.7.2 41.1-1 82.2-2.6 123.2-2.8 59.3-6.5 118.7-16.3 177.2-6.7 40.4-20.7 79.3-38 116.3-28.3 59.6-72.7 110-122.7 152.5-44.7 39.3-98 68-154.1 87.3-31.7 10.9-64.4 19.4-97.6 24 0-41.3 0-82.6 0-123.8 40-6 78.5-20.2 114.2-39 42.4-22.4 80.6-52.6 112.7-88.1 33.2-36.7 59.6-79.2 79.7-124.3 23.6-51.9 36.3-107.9 44.9-164 10.8-71.3 15.3-143.5 16.9-215.6.2-24.5 0-48.9.1-73.3z"/><path d="m456.7 4.3c38.5-.2 77.1 0 115.6-.1v828.2c-38.4.1-76.9-.2-115.4.1-.5-88-.1-176.1-.2-264.1 0-188 .1-376.1 0-564.1z"/><path d="m598 4.2c20.8 0 41.6-.1 62.4 0-.7 84.2 2.2 168.5 12.2 252.1 8.2 65 19.8 130.4 45.7 190.9 24.5 58.5 59.9 113 106 156.8 44 42 97.3 74.2 155.2 92.8 16.2 5.2 32.7 9.2 49.5 11.7v123.8c-33-4.5-65.4-13-96.9-23.7-37.5-13-73.8-29.9-107.1-51.6-24.3-15.7-46.5-34.4-67.7-53.9-35-32.3-66.4-69-89.9-110.6-18.4-32.4-31.9-67.4-42.4-103-9.7-35.9-13.8-72.9-17.5-109.8-7.2-79.7-10-159.7-9.4-239.7-.1-45.3-.1-90.6-.1-135.8z"/><path d="m1409 38.4c32.2-41.2 98.9-48.3 138.4-13.7 16.2 13.6 27.5 32.4 33.3 52.6 73.2 251.8 146.7 503.4 219.8 755.2-43.2 0-86.4-.1-129.6 0-20.4-69.4-40.3-139-60.4-208.4-83.5-.2-167 0-250.5-.1-20.4 69.5-40.6 139-60.7 208.6-42.9-.1-85.9 0-128.9-.1 69.5-240.2 139.1-480.4 209-720.5 8.3-25 11.4-53.1 29.6-73.6m76.2 154.3c-30.6 104.3-60.6 208.8-91.1 313.2 60.7.3 121.4.1 182 .1-30.3-104.5-60.5-208.9-90.9-313.3z"/><path d="m2318.7 43.8c22.5-32.7 66-48.5 104.3-38.4 35.1 8.1 61.9 38.3 71.2 72.3 73.1 251.6 146.5 503.1 219.6 754.7-43.2.3-86.5 0-129.7.2-20.1-69.5-40-139-60.3-208.5-83.4 0-166.7-.1-250.1.1-19.9 69.5-40.5 138.9-60.4 208.4-42.9 0-85.8 0-128.7 0 69.5-241.5 139.8-482.8 209.8-724.2 7.3-21.7 10.2-45.8 24.3-64.6m-10.6 462.2c60.4.1 120.9 0 181.3 0-30.1-104.7-60.6-209.2-90.6-313.8-30.1 104.6-60.6 209.1-90.7 313.8z"/><path d="m1703.7 4.1h468.6v126.4c-57.5 0-115-.1-172.5 0v702c-41.2 0-82.4 0-123.6 0 0-234 0-468 0-702-57.5-.1-115 0-172.5 0 0-42.1 0-84.2 0-126.4z"/><path d="m2851 9.3c11.9-4.1 24.6-5.5 37.1-5.2 49.3.2 98.5 0 147.8.1 82.9 1.5 162.1 53 198 127.7 24.9 48.5 27.4 104.9 21.1 158.1-4.3 55.7-27.7 111.4-70.5 148.3-22.6 20.1-50.7 32.4-75 50.3-13.3 10.1-14 29.8-7.1 43.8 65.4 100.9 133.3 200.3 200.1 300.3-48.8.1-97.6-.1-146.5.1-63.9-96-127.1-192.5-190.8-288.6-18.7-27.4-23.8-63.6-12.6-94.8 8.7-24 29.7-41.5 53-50.5 44.5-17 88.4-43.6 113-85.6 18.8-31.5 17.8-70.5 9.3-105-9.9-44.8-53.6-80.1-99.7-78.6-31.9.2-63.8-.1-95.7.1-14.4-.3-28 12.2-27.8 26.8-.2 225.4.1 450.8-.1 676.1-41.5-.1-83 0-124.5 0-.1-242.6.1-485.2-.1-727.8.5-42.7 30.7-82.7 71-95.6z"/><path d="m3367.9 4.1h131c0 276.2.1 552.3-.1 828.5-43.6-.1-87.3 0-130.9 0 0-276.2 0-552.3 0-828.5z"/><path d="m3801.3 831.7c-19.2-21.3-38.1-42.5-57.3-63.8-19.2-21.9-34.3-39.3-59.4-39.6-21.6 0-32.8 13.6-32.8 31.6 0 21.3 19.2 30.1 41.6 30.4v42.2c-16.8-.6-34.9-3.2-51.1-15.4-24.5-17.1-29.2-45.5-29.2-61.1 0-45.8 31.6-71.8 67.6-71.8 25.4.3 43.4 9.5 67.9 35.2 16.5 17.1 33.1 34.5 49.9 52v-88.3h37.2v148.6z"/><path d="m3617.3 534.6 57.6 41c4.4 3 8.6 6.2 13.3 9.5-1.2-2.4-3.2-10.6-3.2-17.4 0-33.4 25.7-69.4 73.8-69.4 47.2 0 81.2 36.6 81.2 81.5 0 26.9-10.3 50.5-28.4 64.4-15.1 13.3-36.3 18.3-52.9 18.3-23 0-41.6-9.5-57.6-19.8l-83.9-57.3v-50.8zm145.3 84.4c23.3 0 38.7-17.7 38.7-37.8 0-21.9-16.8-39-38.7-39s-39 16.5-39 38.7c0 19.5 14.8 38.1 38.7 38.1z"/><path d="m3728.4 480.8c-70 0-115.2-53.8-115.2-114.6 0-66.2 51.4-114.9 113.4-114.9s113.4 48.5 113.4 115.2c0 67-52.9 114.3-111.3 114.3zm-1.8-44c39.9 0 74.7-28.6 74.7-71.2 0-44.3-38.4-70.3-74.4-70.3-36.6 0-75 26-75 70.6 0 43.7 36 70.9 74.4 70.9z"/><path d="m3728.4 229.5c-70 0-115.2-53.8-115.2-114.6 0-66.2 51.4-114.9 113.4-114.9s113.4 48.4 113.4 115.2c0 67-52.9 114.3-111.3 114.3zm-1.8-44c39.9 0 74.7-28.6 74.7-71.2 0-44.3-38.4-70.3-74.4-70.3-36.6 0-75 26-75 70.6 0 43.7 36 70.9 74.4 70.9z"/></g></svg>