<svg enable-background="new 0 0 3840 776.3" height="387.99997" viewBox="0 0 1920 387.99998" width="1920" xmlns="http://www.w3.org/2000/svg"><g fill="#ad0e0e" transform="matrix(.49999996 0 0 .49974236 .049999996 0)"><path d="m3106.4 125.9c-59.1-82.3-146-125.9-251.1-125.9-105.2 0-192 43.5-251.1 125.9-49.7 69.3-77.1 162.4-77.1 262.2 0 193.2 101.5 388.2 328.2 388.2s328.2-195 328.2-388.2c0-99.8-27.3-192.9-77.1-262.2zm-251.1 420.6c-79.1 0-87.7-107.4-87.7-159.2 0-51.3 8.7-157.4 87.7-157.4s87.7 106.1 87.7 157.4c-.1 51.8-8.7 159.2-87.7 159.2z"/><path d="m3762.8 125.9c-59.1-82.3-145.9-125.9-251.1-125.9s-192 43.5-251.1 125.9c-49.7 69.3-77.1 162.4-77.1 262.2 0 193.2 101.5 388.2 328.2 388.2s328.2-195 328.2-388.2c.1-99.8-27.2-192.9-77.1-262.2zm-251.1 420.6c-79.1 0-87.7-107.4-87.7-159.2 0-51.3 8.7-157.4 87.7-157.4s87.7 106.1 87.7 157.4c0 51.8-8.7 159.2-87.7 159.2z"/><path d="m1326.3 14v238.5h307.1l-245.7 507.8h275.9l324.7-746.3z"/><path d="m2381.8 369c93.1-34.3 155.8-97.9 155.8-170.9 0-109.4-140.4-198-313.7-198s-313.7 88.7-313.7 198c0 73 62.7 136.6 155.8 170.9-102.5 36.8-172.1 108.3-172.1 190.5 0 119.8 147.8 216.9 330 216.9 182.3 0 330-97.1 330-216.9 0-82.3-69.6-153.7-172.1-190.5zm-157.9-208.7c35.4 0 64 28.7 64 64s-28.7 64-64 64c-35.4 0-64-28.7-64-64s28.6-64 64-64zm0 439.2c-42.3 0-76.6-34.3-76.6-76.6s34.3-76.6 76.6-76.6 76.6 34.3 76.6 76.6-34.3 76.6-76.6 76.6z"/><path d="m133.6 460h22.8v53.5c.1 14.9-.3 29.8-1 44.7-1 21.5-2.4 43-5.9 64.2-2.4 14.6-7.5 28.8-13.8 42.2-10.3 21.6-26.4 39.9-44.5 55.3-16.2 14.3-35.5 24.6-55.9 31.7-11.5 4-23.3 7-35.4 8.7 0-15 0-29.9 0-44.9 14.5-2.2 28.5-7.3 41.4-14.1 15.4-8.1 29.2-19.1 40.9-32 12-13.3 21.6-28.7 28.9-45.1 8.6-18.8 13.1-39.1 16.3-59.5 3.9-25.9 5.5-52 6.1-78.1.2-8.9.1-17.8.1-26.6z"/><path d="m165.5 460c14-.1 27.9 0 41.9 0v300.2c-13.9 0-27.9-.1-41.8.1-.2-31.9 0-63.8-.1-95.7 0-68.2.1-136.4 0-204.6z"/><path d="m216.8 460h22.6c-.2 30.5.8 61.1 4.4 91.4 3 23.5 7.2 47.3 16.5 69.2 8.9 21.2 21.7 41 38.4 56.9 15.9 15.2 35.3 26.9 56.3 33.6 5.9 1.9 11.8 3.3 17.9 4.2v44.9c-12-1.6-23.7-4.7-35.1-8.6-13.6-4.7-26.8-10.9-38.8-18.7-8.8-5.7-16.8-12.5-24.5-19.5-12.7-11.7-24.1-25-32.6-40.1-6.7-11.7-11.5-24.4-15.4-37.4-3.5-13-5-26.4-6.3-39.8-2.6-28.9-3.6-57.9-3.4-86.9 0-16.4 0-32.8 0-49.2z"/><path d="m510.7 472.4c11.7-14.9 35.8-17.5 50.2-5 5.9 4.9 10 11.7 12.1 19.1 26.5 91.3 53.2 182.5 79.7 273.8-15.6 0-31.3 0-47 0-7.4-25.2-14.6-50.4-21.9-75.6-30.3-.1-60.5 0-90.8 0-7.4 25.2-14.7 50.4-22 75.6-15.6-.1-31.1 0-46.7 0 25.2-87.1 50.4-174.1 75.7-261.1 3-9.2 4.2-19.4 10.7-26.8m27.6 55.9c-11.1 37.8-22 75.7-33 113.5 22 .1 44 0 66 0-11-37.8-21.9-75.6-33-113.5z"/><path d="m840.5 474.4c8.2-11.8 23.9-17.6 37.8-13.9 12.7 2.9 22.4 13.9 25.8 26.2 26.5 91.2 53.1 182.4 79.6 273.6-15.7.1-31.3 0-47 .1-7.3-25.2-14.5-50.4-21.8-75.6-30.2 0-60.4-.1-90.6 0-7.2 25.2-14.7 50.3-21.9 75.6-15.6 0-31.1 0-46.6 0 25.2-87.5 50.7-175 76.1-262.5 2.4-8 3.4-16.7 8.6-23.5m-3.9 167.5h65.7c-10.9-37.9-22-75.8-32.8-113.7-10.9 37.9-22 75.7-32.9 113.7z"/><path d="m617.6 460h169.9v45.8c-20.9 0-41.7 0-62.5 0v254.5c-14.9 0-29.9 0-44.8 0 0-84.8 0-169.6 0-254.5-20.8 0-41.7 0-62.5 0-.1-15.3-.2-30.5-.1-45.8z"/><path d="m1033.4 461.8c4.3-1.5 8.9-2 13.4-1.9 17.9.1 35.7 0 53.6 0 30.1.6 58.8 19.2 71.8 46.3 9 17.6 9.9 38 7.7 57.3-1.6 20.2-10 40.4-25.5 53.7-8.2 7.3-18.4 11.7-27.2 18.2-4.8 3.7-5.1 10.8-2.6 15.9 23.7 36.6 48.3 72.6 72.5 108.9-17.7 0-35.4 0-53.1 0-23.2-34.8-46.1-69.8-69.2-104.6-6.8-9.9-8.6-23.1-4.6-34.4 3.2-8.7 10.8-15 19.2-18.3 16.1-6.2 32-15.8 41-31 6.8-11.4 6.4-25.6 3.4-38.1-3.6-16.2-19.4-29-36.1-28.5-11.6.1-23.1-.1-34.7.1-5.2-.1-10.2 4.4-10.1 9.7-.1 81.7 0 163.4 0 245.1-15.1 0-30.1 0-45.1 0 0-87.9 0-175.9 0-263.8 0-15.4 11-29.9 25.6-34.6z"/><path d="m1220.8 460h47.5v300.3c-15.8-.1-31.6 0-47.5 0 0-100.1 0-200.2 0-300.3z"/></g></svg>