<?xml version="1.0" encoding="UTF-8" standalone="no"?>
<svg
   height="274.00003"
   viewBox="0 0 1920 274.00003"
   width="1920"
   version="1.1"
   id="svg30"
   sodipodi:docname="auto-lastplayed.svg"
   inkscape:version="1.3.2 (091e20e, 2023-11-25)"
   xmlns:inkscape="http://www.inkscape.org/namespaces/inkscape"
   xmlns:sodipodi="http://sodipodi.sourceforge.net/DTD/sodipodi-0.dtd"
   xmlns="http://www.w3.org/2000/svg"
   xmlns:svg="http://www.w3.org/2000/svg">
  <defs
     id="defs30" />
  <sodipodi:namedview
     id="namedview30"
     pagecolor="#ffffff"
     bordercolor="#000000"
     borderopacity="0.25"
     inkscape:showpageshadow="2"
     inkscape:pageopacity="0.0"
     inkscape:pagecheckerboard="0"
     inkscape:deskcolor="#d1d1d1"
     inkscape:zoom="0.49114583"
     inkscape:cx="961.01803"
     inkscape:cy="136.41569"
     inkscape:window-width="1312"
     inkscape:window-height="449"
     inkscape:window-x="0"
     inkscape:window-y="39"
     inkscape:window-maximized="0"
     inkscape:current-layer="svg30" />
  <g
     id="g31">
    <g
       transform="matrix(2.1098901 0 0 2.10769231188 -3723.956026 -1939.07692691983)"
       id="g3">
      <path
         d="m1855 1000h-10v-10h-30v-40-20h-10v-10h-30v10h-10v20 70 20h10v10h20 10 40v-10h10v-20z"
         fill="#120f26"
         id="path1" />
      <path
         d="m1845 1020h-40v-70h-30v90h20 10 40z"
         fill="#e22b17"
         id="path2" />
      <path
         d="m1845 1000h-40v-70h-30v90h20 10 40z"
         fill="#ffda40"
         id="path3" />
    </g>
    <g
       transform="matrix(2.1098901 0 0 2.10769231188 -242.637251 -1939.07692691983)"
       id="g6">
      <path
         d="m245 1040h10v10h30v-10h10v-20-60-20h-10v-10h-10v-10h-60v10h-10v10h-10v20 60 20h10v10h30v-10z"
         fill="#120f26"
         id="path4" />
      <path
         d="m275 960v-10h-60v10h-10v80h30v-20h20v20h30v-80zm-40 40v-30h20v30z"
         fill="#e22b17"
         id="path5" />
      <path
         d="m275 940v-10h-60v10h-10v80h30v-20h20v20h30v-80zm-40 40v-30h20v30z"
         fill="#ffda40"
         id="path6" />
    </g>
    <g
       transform="matrix(2.1098901 0 0 2.10769231188 -1487.472426 -2360.61536931635)"
       id="g9">
      <path
         d="m875 1160v10 20 20 20h10v10h10v10h60v-10h10v-10h10v-20-10-20-20-20h-10v-10h-10v-10h-60v10h-10v10h-10z"
         fill="#120f26"
         id="path7" />
      <path
         d="m965 1160h-10v-10h-60v10h-10v30h10v10h20v10h20v10h-20v-10h-30v20h10v10h60v-10h10v-30h-10v-10h-20v-10h-20v-10h20v10h30z"
         fill="#e22b17"
         id="path8" />
      <path
         d="m965 1140h-10v-10h-60v10h-10v30h10v10h20v10h20v10h-20v-10h-30v20h10v10h60v-10h10v-30h-10v-10h-20v-10h-20v-10h20v10h30z"
         fill="#ffda40"
         id="path9" />
    </g>
    <g
       transform="matrix(2.1098901 0 0 2.10769231188 -1614.065826 -2360.61536931635)"
       id="g12">
      <path
         d="m1045 1240h10v10h30v-10h10v-20-40h10v-10h10v-20-20h-10v-10h-70v10h-10v20 20h10v10h10v40z"
         fill="#120f26"
         id="path10" />
      <path
         d="m1105 1170v-20h-70v20h20v70h30v-70z"
         fill="#e22b17"
         id="path11" />
      <path
         d="m1105 1150v-20h-70v20h20v70h30v-70z"
         fill="#ffda40"
         id="path12" />
    </g>
    <g
       transform="matrix(2.1098901 0 0 2.10769231188 -116.043931 -2360.61536931635)"
       id="g15">
      <path
         d="m525 1140h-10v-10h-10v-10h-40-10-20v10h-10v20 70 20h10v10h30v-10h10v-10h20v-10h10 10v-10h10v-20-30z"
         fill="#120f26"
         id="path13" />
      <path
         d="m465 1220h30v-10h20v-50h-10v-10h-40-10-20v90h30zm20-50v20h-10v10h-10v-30z"
         fill="#e22b17"
         id="path14" />
      <path
         d="m465 1200h30v-10h20v-50h-10v-10h-40-10-20v90h30zm20-50v20h-10v10h-10v-30z"
         fill="#ffda40"
         id="path15" />
    </g>
    <g
       transform="matrix(2.1098901 0 0 2.10769231188 -2753.406576 -1939.07692691983)"
       id="g18">
      <path
         d="m1765 1040h10v10h20 10 40v-10h10v-20-20h-10v-10h-30v-40-20h-10v-10h-30v10h-10v20 70z"
         fill="#120f26"
         id="path16" />
      <path
         d="m1805 1020v-70h-30v90h20 10 40v-20z"
         fill="#e22b17"
         id="path17" />
      <path
         d="m1805 1000v-70h-30v90h20 10 40v-20z"
         fill="#ffda40"
         id="path18" />
    </g>
    <g
       transform="matrix(2.1098901 0 0 2.10769231188 727.912124 -1939.07692691983)"
       id="g21">
      <path
         d="m285 930h-10v-10h-60v10h-10v10h-10v20 60 20h10v10h30v-10h10 10v10h30v-10h10v-20-60-20h-10z"
         fill="#120f26"
         id="path19" />
      <path
         d="m275 960v-10h-60v10h-10v80h30v-20h20v20h30v-80zm-40 40v-30h20v30z"
         fill="#e22b17"
         id="path20" />
      <path
         d="m275 940v-10h-60v10h-10v80h30v-20h20v20h30v-80zm-40 40v-30h20v30z"
         fill="#ffda40"
         id="path21" />
    </g>
    <g
       transform="matrix(2.1098901 0 0 2.10769231188 -2542.417526 -2360.61536931635)"
       id="g24">
      <path
         d="m1845 1190h10v10h10v10 10 20h10v10h30v-10h10v-20-10-10h10v-10h10v-10h10v-20-10-20h-10v-10h-30v10h-10v20h-10v-20h-10v-10h-30v10h-10v20 10 20h10z"
         fill="#120f26"
         id="path22" />
      <path
         d="m1915 1200v-10h10v-10h10v-30h-30v30h-20-10v-30h-30v30h10v10h10v10h10v40h30v-40z"
         fill="#e22b17"
         id="path23" />
      <path
         d="m1915 1180v-10h10v-10h10v-30h-30v30h-20-10v-30h-30v30h10v10h10v10h10v40h30v-40z"
         fill="#ffda40"
         id="path24" />
    </g>
    <g
       transform="matrix(2.1098901 0 0 2.10769231188 -137.142831 -1939.07692691983)"
       id="g27">
      <path
         d="m885 950v-20h-10v-10h-40-10-20v10h-10v20 70 20h10v10h20 10 40v-10h10v-20-20h-10v-10-10-10h10z"
         fill="#120f26"
         id="path25" />
      <path
         d="m835 1040h40v-20h-40v-10h30v-20h-30v-20h40v-20h-40-10-20v90h20z"
         fill="#e22b17"
         id="path26" />
      <path
         d="m835 1020h40v-20h-40v-10h30v-20h-30v-20h40v-20h-40-10-20v90h20z"
         fill="#ffda40"
         id="path27" />
    </g>
    <g
       transform="matrix(2.1098901 0 0 2.10769231188 348.131889 -1939.07692691983)"
       id="g30">
      <path
         d="m735 1040v-10h10v-20-50-20h-10v-10h-10v-10h-40-20-10v10h-10v20 70 20h10v10h10 20 30v-10h10z"
         fill="#120f26"
         id="path28" />
      <path
         d="m725 960v-10h-40-20-10v90h10 20 30v-10h20v-70zm-40 10h20v40h-10v10h-10z"
         fill="#e22b17"
         id="path29" />
      <path
         d="m725 940v-10h-40-20-10v90h10 20 30v-10h20v-70zm-40 10h20v40h-10v10h-10z"
         fill="#ffda40"
         id="path30" />
    </g>
  </g>
</svg>
