<svg enable-background="new 0 0 3839 695.8" height="348" viewBox="0 0 1920 348" width="1920" xmlns="http://www.w3.org/2000/svg"><g transform="scale(.5001432 .50021561073)"><circle cx="23" cy="30.299999" r="23"/><circle cx="23" cy="98.599998" r="23"/><circle cx="23" cy="166.8" r="23"/><circle cx="23" cy="235" r="23"/><circle cx="23" cy="303.20001" r="23"/><circle cx="53.799999" cy="64.5" r="23"/><circle cx="53.799999" cy="200.89999" r="23"/><circle cx="53.799999" cy="269.10001" r="23"/><circle cx="53.799999" cy="337.29999" r="23"/><circle cx="53.799999" cy="610.20001" r="23"/><circle cx="84.699997" cy="30.299999" r="23"/><circle cx="84.699997" cy="235" r="23"/><circle cx="84.699997" cy="303.20001" r="23"/><circle cx="84.699997" cy="371.39999" r="23"/><circle cx="115.5" cy="132.7" r="23"/><circle cx="115.5" cy="269.10001" r="23"/><circle cx="115.5" cy="337.29999" r="23"/><circle cx="115.5" cy="405.5" r="23"/><circle cx="115.5" cy="610.20001" r="23"/><circle cx="146.3" cy="30.299999" r="23"/><circle cx="146.3" cy="98.599998" r="23"/><circle cx="146.3" cy="166.8" r="23"/><circle cx="146.3" cy="303.20001" r="23"/><circle cx="146.3" cy="371.39999" r="23"/><circle cx="146.3" cy="439.70001" r="23"/><circle cx="177.2" cy="132.7" r="23"/><circle cx="177.2" cy="269.10001" r="23"/><circle cx="177.2" cy="337.29999" r="23"/><circle cx="177.2" cy="405.5" r="23"/><circle cx="177.2" cy="473.79999" r="23"/><circle cx="177.2" cy="610.20001" r="23"/><circle cx="208" cy="30.299999" r="23"/><circle cx="208" cy="303.20001" r="23"/><circle cx="208" cy="371.39999" r="23"/><circle cx="208" cy="439.70001" r="23"/><circle cx="208" cy="507.89999" r="23"/><circle cx="208" cy="576.09998" r="23"/><circle cx="238.89999" cy="64.5" r="23"/><circle cx="238.89999" cy="200.89999" r="23"/><circle cx="238.89999" cy="269.10001" r="23"/><circle cx="238.89999" cy="337.29999" r="23"/><circle cx="238.89999" cy="405.5" r="23"/><circle cx="238.89999" cy="473.79999" r="23"/><circle cx="238.89999" cy="542" r="23"/><circle cx="238.89999" cy="610.20001" r="23"/><circle cx="269.70001" cy="30.299999" r="23"/><circle cx="269.70001" cy="98.599998" r="23"/><circle cx="269.70001" cy="235" r="23"/><circle cx="269.70001" cy="303.20001" r="23"/><circle cx="269.70001" cy="371.39999" r="23"/><circle cx="269.70001" cy="439.70001" r="23"/><circle cx="269.70001" cy="507.89999" r="23"/><circle cx="300.5" cy="64.5" r="23"/><circle cx="300.5" cy="200.89999" r="23"/><circle cx="300.5" cy="269.10001" r="23"/><circle cx="300.5" cy="337.29999" r="23"/><circle cx="300.5" cy="405.5" r="23"/><circle cx="300.5" cy="473.79999" r="23"/><circle cx="300.5" cy="610.20001" r="23"/><circle cx="331.39999" cy="30.299999" r="23"/><circle cx="331.39999" cy="439.70001" r="23"/><circle cx="331.39999" cy="507.89999" r="23"/><circle cx="331.39999" cy="576.09998" r="23"/><circle cx="362.20001" cy="132.7" r="23"/><circle cx="362.20001" cy="269.10001" r="23"/><circle cx="362.20001" cy="473.79999" r="23"/><circle cx="362.20001" cy="542" r="23"/><circle cx="362.20001" cy="610.20001" r="23"/><circle cx="393.10001" cy="30.299999" r="23"/><circle cx="393.10001" cy="98.599998" r="23"/><circle cx="393.10001" cy="166.8" r="23"/><circle cx="393.10001" cy="507.89999" r="23"/><circle cx="423.89999" cy="132.7" r="23"/><circle cx="423.89999" cy="269.10001" r="23"/><circle cx="423.89999" cy="542" r="23"/><circle cx="454.70001" cy="30.299999" r="23"/><circle cx="454.70001" cy="235" r="23"/><circle cx="454.70001" cy="576.09998" r="23"/><circle cx="485.60001" cy="64.5" r="23"/><circle cx="485.60001" cy="200.89999" r="23"/><circle cx="485.60001" cy="610.20001" r="23"/><circle cx="516.40002" cy="30.299999" r="23"/><circle cx="516.40002" cy="98.599998" r="23"/><circle cx="516.40002" cy="166.8" r="23"/><circle cx="516.40002" cy="235" r="23"/><circle cx="516.40002" cy="303.20001" r="23"/><circle cx="516.40002" cy="371.39999" r="23"/><circle cx="516.40002" cy="439.70001" r="23"/><circle cx="516.40002" cy="507.89999" r="23"/><circle cx="516.40002" cy="576.09998" r="23"/><circle cx="516.40002" cy="644.29999" r="23"/><path d="m913.9 19.7c16.7 8.2 29.6 18.6 38.8 31.1s15.2 25.7 18 39.8c2.9 14 4.3 26.8 4.3 38.4 0 14.3-2.1 27.4-6.3 39.4s-10.4 22.7-18.4 32.1-17.6 17-28.7 23.1c-11.1 6-23.4 9.9-36.8 11.7 32.5 2.2 57.7 14 75.5 35.4s26.7 49.5 26.7 84.2c0 14.7-2.6 29.9-7.7 45.5s-13.5 29.7-25.1 42.4-26.5 23.1-44.8 31.1-40.8 12-67.5 12h-235.2v-44.1h67.5v-390.3h-66.8v-44.1h240.6c27.2 0 49.1 4.1 65.9 12.3zm-48.5 191.2c12.9-5.6 23.2-12.7 30.7-21.4 7.6-8.7 12.8-18.4 15.7-29.1s4.3-21.2 4.3-31.4c0-9.8-1.1-19.4-3.3-28.7s-6.6-17.6-13-24.7c-6.5-7.1-15.3-12.9-26.4-17.4s-25.6-6.7-43.4-6.7h-97.6v167.8h84.2c19.6-.1 35.9-2.9 48.8-8.4zm9.4 220.5c13.8-6.9 24.6-15.1 32.4-24.7s13-19.3 15.7-29.1 4-17.8 4-24.1c0-12.9-1.4-25-4.3-36.1s-7.7-20.7-14.4-28.7-15.5-14.4-26.4-19c-10.9-4.7-24.4-7-40.4-7h-109v179.1h88.2c22.3 0 40.3-3.4 54.2-10.4z"/><path d="m1359.7 19.7c16.7 8.2 29.6 18.6 38.8 31.1 9.1 12.5 15.2 25.7 18 39.8 2.9 14 4.3 26.8 4.3 38.4 0 14.3-2.1 27.4-6.3 39.4s-10.4 22.7-18.4 32.1-17.6 17-28.7 23.1c-11.1 6-23.4 9.9-36.8 11.7 32.5 2.2 57.7 14 75.5 35.4s26.7 49.5 26.7 84.2c0 14.7-2.6 29.9-7.7 45.5s-13.5 29.7-25.1 42.4-26.5 23.1-44.8 31.1-40.8 12-67.5 12h-235.3v-44.1h67.5v-390.3h-66.8v-44.1h240.6c27.3 0 49.3 4.1 66 12.3zm-48.5 191.2c12.9-5.6 23.2-12.7 30.7-21.4 7.6-8.7 12.8-18.4 15.7-29.1s4.3-21.2 4.3-31.4c0-9.8-1.1-19.4-3.3-28.7s-6.6-17.6-13-24.7c-6.5-7.1-15.3-12.9-26.4-17.4s-25.6-6.7-43.4-6.7h-97.6v167.8h84.2c19.6-.1 35.9-2.9 48.8-8.4zm9.4 220.5c13.8-6.9 24.6-15.1 32.4-24.7s13-19.3 15.7-29.1 4-17.8 4-24.1c0-12.9-1.4-25-4.3-36.1s-7.7-20.7-14.4-28.7-15.5-14.4-26.4-19c-10.9-4.7-24.4-7-40.4-7h-108.9v179.1h88.2c22.2 0 40.2-3.4 54.1-10.4z"/><path d="m1920.1 7.4v169.8h-52.1c-2.2-38.8-14-70.2-35.4-94.2-21.4-24.1-52.4-36.1-92.9-36.1-51.2 0-90.1 16.9-116.6 50.8s-39.8 81.8-39.8 143.7c0 65.9 12.9 116.5 38.8 151.7 25.8 35.2 63.7 52.8 113.6 52.8 37.9 0 67.6-11 89.2-33.1s33.5-51.4 35.8-87.9h61.5c-1.3 27.2-6.7 51.2-16 72.2-9.4 20.9-22.2 38.7-38.4 53.1-16.3 14.5-35.6 25.4-58.1 32.8s-47.3 11-74.5 11c-40.5 0-74.6-7.1-102.3-21.4-27.6-14.3-49.9-33.1-66.8-56.5s-29.1-49.8-36.4-79.2c-7.4-29.4-11-59.5-11-90.2 0-32.5 4.2-63.7 12.7-93.6s21.4-56.1 38.8-78.9c17.4-22.7 39.5-40.8 66.5-54.1 27-13.4 59.2-20.1 96.6-20.1 34.8 0 63.9 6.7 87.6 20.1s40.8 32.3 51.5 56.8v-69.5z"/><path d="m2381.3 416.4 127.6-409h168.4v44.1h-68.2v390.3h68.2v44.1h-185.8v-44.1h61.5v-390.3h-4.7l-142.3 434.4h-52.1l-142.4-434.4h-4.7v390.3h62.2v44.1h-181.8v-44.1h68.8v-390.3h-68.8v-44.1h170.4z"/><path d="m2831.1 443.8h54.1v42.1h-164.4v-42.1h56.1v-267.3h-55.5v-39.5h109.6v306.8zm4-380.3h-62.2v-56.1h62.2z"/><path d="m3211.4 137v128.3h-42.1v-6c-.4-11.1-2.8-21.9-7-32.4s-10.1-19.9-17.7-28.4-16.5-15.3-26.7-20.4-21.6-7.7-34.1-7.7c-18.7 0-34.6 4.1-47.8 12.4-13.1 8.2-23.8 18.8-32.1 31.7-8.2 12.9-14.3 27.6-18 44.1-3.8 16.5-5.7 33-5.7 49.5 0 16.9 2.1 33.6 6.4 50.1 4.2 16.5 10.6 31.3 19 44.4 8.5 13.1 19.2 23.8 32.1 32.1 12.9 8.2 28.1 12.4 45.5 12.4 19.6 0 36.7-6.2 51.1-18.7 14.5-12.5 24.2-30.1 29.1-52.8l1.3-8h50.8l-.7 12c-2.2 17.4-7.2 33-15 46.8s-17.8 25.4-30.1 34.8-26.3 16.6-42.1 21.7-32.4 7.7-49.8 7.7c-25 0-47.1-4.6-66.5-13.7s-35.8-21.7-49.1-37.8c-13.4-16-23.6-34.8-30.7-56.1-7.1-21.4-10.7-44.1-10.7-68.2 0-31.2 4.1-58.6 12.4-82.2 8.2-23.6 19.2-43.2 32.8-58.8s29.4-27.4 47.5-35.4c18-8 36.9-12 56.5-12 22.7 0 42.1 4.2 58.1 12.7s29.9 22.3 41.4 41.4v-43.5z"/><path d="m3468.4 179.1c-3.8-.4-7.5-.7-11-.7-64.6 0-96.9 43-96.9 129v136.4h66.2v42.1h-175.8v-42.1h55.5v-267.3h-55.5v-39.5h109.6v69.5c5.3-15.1 10.9-27.5 16.7-37.1s12.5-17.2 20.1-22.7c7.6-5.6 16.2-9.5 25.7-11.7 9.6-2.2 21.1-3.6 34.4-4h22.7v50.1c-4-.9-7.9-1.5-11.7-2z"/><path d="m3794.9 441.1c-29.4 33-68.4 49.5-117 49.5-54.4 0-95.4-18.5-123-55.5-26.7-36.5-40.1-79.3-40.1-128.3 0-28.1 4-53.2 12-75.5s19.3-41.2 33.8-56.8 31.9-27.5 52.1-35.8c20.3-8.2 42.9-12.4 67.8-12.4 25.8 0 48.7 4.6 68.5 13.7s36.4 21.9 49.8 38.4 23.4 35.9 30.1 58.1c6.7 22.3 10 46.6 10 72.9.1 54.4-14.6 98.3-44 131.7zm-80.6 0c12.3-5.8 23.5-14.5 33.8-26.1 10.7-11.6 18.7-26.7 24.1-45.5 5.3-18.7 8-40.1 8-64.2 0-44.1-8.9-78.1-26.7-101.9s-43.4-35.8-76.9-35.8c-16 0-30.5 3.2-43.4 9.7s-23.8 15.6-32.8 27.4c-8.9 11.8-15.8 26.1-20.7 42.8s-7.4 35.1-7.4 55.1c0 30.3 3 54 9 71.2s14.1 31.3 24.4 42.4c20.5 22.3 44.3 33.4 71.5 33.4 12.5.2 24.9-2.7 37.1-8.5z"/><path d="m674.8 563.9c3.7 1.8 6.6 4.1 8.6 6.9s3.4 5.7 4 8.8 1 6 1 8.5c0 3.2-.5 6.1-1.4 8.7-.9 2.7-2.3 5-4.1 7.1s-3.9 3.8-6.4 5.1-5.2 2.2-8.2 2.6c7.2.5 12.8 3.1 16.7 7.9 4 4.7 5.9 11 5.9 18.7 0 3.3-.6 6.6-1.7 10.1s-3 6.6-5.6 9.4-5.9 5.1-9.9 6.9c-4.1 1.8-9 2.7-15 2.7h-52.2v-9.8h15v-86.5h-14.8v-9.8h53.4c6.1 0 11 .9 14.7 2.7zm-10.7 42.4c2.9-1.2 5.1-2.8 6.8-4.7s2.8-4.1 3.5-6.4c.6-2.4 1-4.7 1-7 0-2.2-.2-4.3-.7-6.4s-1.5-3.9-2.9-5.5-3.4-2.9-5.9-3.9-5.7-1.5-9.6-1.5h-21.6v37.2h18.7c4.2.1 7.8-.5 10.7-1.8zm2 48.9c3.1-1.5 5.5-3.4 7.2-5.5s2.9-4.3 3.5-6.4c.6-2.2.9-4 .9-5.3 0-2.9-.3-5.5-1-8-.6-2.5-1.7-4.6-3.2-6.4s-3.4-3.2-5.9-4.2c-2.4-1-5.4-1.6-9-1.6h-24.2v39.7h19.6c5.1 0 9.1-.7 12.1-2.3z"/><path d="m754.1 599.3c-.8-.1-1.7-.1-2.4-.1-14.3 0-21.5 9.5-21.5 28.6v30.2h14.7v9.3h-39v-9.3h12.3v-59.3h-12.3v-8.7h24.3v15.4c1.2-3.4 2.4-6.1 3.7-8.2s2.8-3.8 4.4-5c1.7-1.2 3.6-2.1 5.7-2.6s4.7-.8 7.6-.9h5v11.1c-.8-.3-1.7-.4-2.5-.5z"/><path d="m788.4 658h12v9.3h-36.4v-9.3h12.4v-59.3h-12.3v-8.7h24.3zm.9-84.4h-13.8v-12.4h13.8z"/><path d="m851.4 589.9v8.7h-22.2v50.5c0 3.2.6 5.7 1.9 7.5s3.2 2.7 5.6 2.7c2.6 0 4.5-1.1 5.9-3.3 1.3-2.2 2-6.1 2-11.6v-.9h9.6v1.8c0 3.2-.3 6.2-.8 9s-1.5 5.3-3 7.3c-1.4 2.1-3.3 3.7-5.7 4.9s-5.3 1.8-8.9 1.8c-6.7 0-11.5-1.8-14.4-5.3s-4.3-8.8-4.3-15.8v-48.6h-13.3v-8.7h13.3v-15.1l12-4.4v19.6h22.3z"/><path d="m887.1 658h12v9.3h-36.5v-9.3h12.4v-59.3h-12.3v-8.7h24.3v68zm.9-84.4h-13.8v-12.4h13.8z"/><path d="m966.4 589.9v24.9h-9.3c0-.3 0-.6-.1-1 0-.4-.1-.7-.1-1-.2-2.9-.8-5.4-1.9-7.6-1-2.2-2.3-3.8-3.9-4.9-2.4-1.7-4.8-2.7-7.3-3.1s-4.4-.6-5.7-.6c-4.4 0-8.2 1.2-11.3 3.5s-4.6 5.7-4.6 10.2c0 1.8.3 3.3 1 4.4.7 1.2 1.6 2.2 2.8 3s2.5 1.4 4.1 1.9c1.5.5 3.1.9 4.7 1.2s3.5.6 5.6 1c2.2.3 4.4.8 6.6 1.3s4.3 1.1 6.3 1.8c2 .6 3.7 1.4 5 2.3 1.2.8 2.3 1.6 3.3 2.5s2 2 2.8 3.3 1.5 3 2 4.9.7 4.2.7 6.9c0 3.4-.7 6.5-2 9.3s-3.1 5.4-5.4 7.5-4.9 3.8-8 5-6.4 1.8-9.9 1.8c-3.1 0-5.8-.2-8.1-.7s-4.4-1.2-6.2-2.2-3.5-2.4-4.9-4.1-2.8-3.8-4.2-6.3v12.3h-9.3v-26.7h9.3c.4 3.5 1.2 6.4 2.4 8.7 1.2 2.4 2.8 4.3 4.7 5.8s4 2.5 6.3 3.2c2.3.6 4.8 1 7.3 1 4.4 0 8.2-1.2 11.1-3.7 3-2.5 4.4-5.9 4.4-10.4 0-2.9-.7-5.1-2-6.7s-3.1-2.8-5.4-3.6c-1.5-.6-3.3-1-5.4-1.3s-4.3-.6-6.6-1c-2.3-.3-4.6-.8-7-1.3s-4.6-1.3-6.7-2.1c-3.4-1.5-6.1-3.6-8.3-6.3s-3.3-6.7-3.3-11.9c0-3.9.7-7.2 2.1-10.1s3.4-5.3 5.8-7.3 5.3-3.5 8.5-4.4c3.3-1 6.8-1.5 10.5-1.5 4 0 7.7.8 11.3 2.4s6.4 4.1 8.5 7.7v-7.7h9.8z"/><path d="m1004.3 600.2c6-8.4 14-12.6 24-12.6 3.6 0 6.8.5 9.7 1.6 2.9 1 5.5 2.5 7.6 4.5 2.2 2 3.9 4.5 5 7.5 1.2 3 1.8 6.5 1.8 10.4v46.4h12.7v9.3h-37.5v-9.3h12.7v-44c0-5.3-1.2-9.6-3.6-12.7-2.4-3.2-6.1-4.7-11.2-4.7-2.4 0-4.8.4-7.3 1.1s-4.8 2.1-6.9 4-3.8 4.5-5.1 7.9c-1.3 3.3-2 7.5-2 12.5v36h12.7v9.3h-37.2v-9.4h12.4v-88h-12.4v-8.7h24.5v38.9z"/><path d="m1179.7 563.9c3.7 1.8 6.6 4.1 8.6 6.9s3.4 5.7 4 8.8 1 6 1 8.5c0 3.2-.5 6.1-1.4 8.7-.9 2.7-2.3 5-4.1 7.1s-3.9 3.8-6.4 5.1-5.2 2.2-8.2 2.6c7.2.5 12.8 3.1 16.7 7.9 4 4.7 5.9 11 5.9 18.7 0 3.3-.6 6.6-1.7 10.1s-3 6.6-5.6 9.4-5.9 5.1-9.9 6.9c-4.1 1.8-9 2.7-15 2.7h-52.2v-9.8h15v-86.5h-14.8v-9.8h53.4c6.2 0 11 .9 14.7 2.7zm-10.7 42.4c2.9-1.2 5.1-2.8 6.8-4.7s2.8-4.1 3.5-6.4c.6-2.4 1-4.7 1-7 0-2.2-.2-4.3-.7-6.4s-1.5-3.9-2.9-5.5-3.4-2.9-5.9-3.9-5.7-1.5-9.6-1.5h-21.6v37.2h18.7c4.2.1 7.8-.5 10.7-1.8zm2.1 48.9c3.1-1.5 5.5-3.4 7.2-5.5s2.9-4.3 3.5-6.4c.6-2.2.9-4 .9-5.3 0-2.9-.3-5.5-1-8-.6-2.5-1.7-4.6-3.2-6.4s-3.4-3.2-5.9-4.2c-2.4-1-5.4-1.6-9-1.6h-24.2v39.7h19.6c5 0 9-.7 12.1-2.3z"/><path d="m1259 599.3c-.8-.1-1.7-.1-2.4-.1-14.3 0-21.5 9.5-21.5 28.6v30.2h14.7v9.3h-39v-9.3h12.3v-59.3h-12.3v-8.7h24.3v15.4c1.2-3.4 2.4-6.1 3.7-8.2s2.8-3.8 4.4-5c1.7-1.2 3.6-2.1 5.7-2.6s4.7-.8 7.6-.9h5v11.1c-.8-.3-1.6-.4-2.5-.5z"/><path d="m1331.4 657.4c-6.5 7.3-15.2 11-25.9 11-12.1 0-21.1-4.1-27.3-12.3-5.9-8.1-8.9-17.6-8.9-28.5 0-6.2.9-11.8 2.7-16.7s4.3-9.1 7.5-12.6 7.1-6.1 11.6-7.9 9.5-2.7 15-2.7c5.7 0 10.8 1 15.2 3s8.1 4.9 11 8.5c3 3.7 5.2 8 6.7 12.9s2.2 10.3 2.2 16.2c0 11.9-3.3 21.7-9.8 29.1zm-17.8 0c2.7-1.3 5.2-3.2 7.5-5.8 2.4-2.6 4.1-5.9 5.3-10.1s1.8-8.9 1.8-14.2c0-9.8-2-17.3-5.9-22.6-4-5.3-9.6-7.9-17-7.9-3.6 0-6.8.7-9.6 2.2-2.9 1.4-5.3 3.5-7.3 6.1s-3.5 5.8-4.6 9.5-1.6 7.8-1.6 12.2c0 6.7.7 12 2 15.8s3.1 6.9 5.4 9.4c4.5 4.9 9.8 7.4 15.9 7.4 2.6-.1 5.3-.7 8.1-2z"/><path d="m1426.4 658v9.3h-23.4v-15.3c-2.6 5.8-5.9 10-9.9 12.5s-9.2 3.8-15.5 3.8c-7.9 0-14-2.1-18.3-6.2-4.3-4.2-6.4-9.7-6.4-16.6 0-3.9.5-7.1 1.6-9.9 1.1-2.7 2.5-5 4.4-6.9 1.8-1.9 4-3.4 6.4-4.5s5-2 7.8-2.6c2.2-.5 4-.7 5.4-.7s3.4 0 5.9-.1c3.1-.1 5.9-.1 8.6-.1h10.1v-6.7c0-5.6-1.6-10-4.7-13-3.2-3-7.2-4.5-12-4.5-3.9 0-6.7.4-8.5 1.1s-3.5 1.8-5 3.2c-1.4 1.2-2.5 2.6-3.3 4.4-.8 1.7-1.3 4-1.5 6.7h-12.4c.3-4.6 1.3-8.5 3-11.6s4.1-5.7 7.1-7.8c2.5-1.7 5.2-2.9 8.3-3.7s6.9-1.2 11.4-1.2c4.2 0 7.5.3 10.1 1 2.6.6 5 1.7 7.4 3 3.5 2 6.2 4.5 8.2 7.6s3 7.7 3 13.7v45.1zm-29.9-6c4.1-5.1 6.2-12.5 6.5-22.2-1.8-.3-3.6-.5-5.6-.5-1.9 0-4.1-.1-6.4-.1-2.1 0-4.1 0-6 .1s-3.9.3-5.9.7c-4.1.8-7.4 2.3-9.9 4.5-2.4 2.2-3.6 5.8-3.6 10.6 0 4.2 1.1 7.7 3.4 10.4s5.6 4.1 10.1 4.1c7.6 0 13.3-2.5 17.4-7.6z"/><path d="m1504.7 658h12.4v9.3h-24.5v-15.4c-2.1 5.6-5.4 9.8-9.9 12.4-4.5 2.7-9.7 4-15.6 4-8.7 0-16.2-3.4-22.4-10.1-3.2-3.5-5.6-7.7-7.2-12.6s-2.4-11-2.4-18.2c0-4.8.6-9.6 1.8-14.4s3.1-9 5.6-12.8c2.6-3.8 5.9-6.9 10-9.2s9.1-3.5 14.9-3.5c5.9 0 11 1.3 15.2 3.9s7.5 6.3 10 11.1v-32.6h-12.7v-8.7h24.7v96.8zm-26-.4c2.7-1.1 4.8-2.6 6.5-4.4 2.5-2.7 4.3-5.9 5.6-9.7 1.2-3.8 1.9-9.1 1.9-15.8 0-4.6-.5-8.9-1.5-12.7s-2.4-7.1-4.2-9.8-4.1-4.8-6.8-6.3-5.8-2.2-9.3-2.2c-4 0-7.5.9-10.4 2.7s-5.3 4.1-7.2 6.9-3.3 6-4.2 9.5-1.3 7-1.3 10.4c0 5.3.4 9.8 1.3 13.4.8 3.6 2.2 6.9 4.1 10 1.9 3 4.2 5.3 7 7s6.2 2.6 10.4 2.6c2.7.1 5.5-.5 8.1-1.6z"/><path d="m1589.1 589.9v28.5h-9.3v-1.3c-.1-2.5-.6-4.9-1.6-7.2-.9-2.3-2.2-4.4-3.9-6.3s-3.7-3.4-5.9-4.5c-2.3-1.1-4.8-1.7-7.6-1.7-4.1 0-7.7.9-10.6 2.7s-5.3 4.2-7.1 7c-1.8 2.9-3.2 6.1-4 9.8s-1.3 7.3-1.3 11c0 3.8.5 7.5 1.4 11.1.9 3.7 2.3 6.9 4.2 9.9 1.9 2.9 4.2 5.3 7.1 7.1s6.2 2.7 10.1 2.7c4.3 0 8.1-1.4 11.3-4.1s5.4-6.7 6.4-11.7l.3-1.8h11.3l-.1 2.7c-.5 3.9-1.6 7.3-3.3 10.4s-4 5.6-6.7 7.7-5.8 3.7-9.3 4.8-7.2 1.7-11 1.7c-5.5 0-10.4-1-14.7-3s-7.9-4.8-10.9-8.4-5.2-7.7-6.8-12.4-2.4-9.8-2.4-15.1c0-6.9.9-13 2.7-18.2s4.2-9.6 7.3-13c3-3.5 6.5-6.1 10.5-7.9s8.2-2.7 12.5-2.7c5 0 9.3.9 12.9 2.8s6.6 4.9 9.2 9.2v-9.6h9.3z"/><path d="m1673.5 658v9.3h-23.4v-15.3c-2.6 5.8-5.9 10-9.9 12.5s-9.2 3.8-15.5 3.8c-7.9 0-14-2.1-18.3-6.2-4.3-4.2-6.4-9.7-6.4-16.6 0-3.9.5-7.1 1.6-9.9 1.1-2.7 2.5-5 4.4-6.9 1.8-1.9 4-3.4 6.4-4.5s5-2 7.8-2.6c2.2-.5 4-.7 5.4-.7s3.4 0 5.9-.1c3.1-.1 5.9-.1 8.6-.1h10.1v-6.7c0-5.6-1.6-10-4.7-13-3.2-3-7.2-4.5-12-4.5-3.9 0-6.7.4-8.5 1.1s-3.5 1.8-5 3.2c-1.4 1.2-2.5 2.6-3.3 4.4-.8 1.7-1.3 4-1.5 6.7h-12.4c.3-4.6 1.3-8.5 3-11.6s4.1-5.7 7.1-7.8c2.5-1.7 5.2-2.9 8.3-3.7s6.9-1.2 11.4-1.2c4.2 0 7.5.3 10.1 1 2.6.6 5 1.7 7.4 3 3.5 2 6.2 4.5 8.2 7.6s3 7.7 3 13.7v45.1zm-30-6c4.1-5.1 6.2-12.5 6.5-22.2-1.8-.3-3.6-.5-5.6-.5-1.9 0-4.1-.1-6.4-.1-2.1 0-4.1 0-6 .1s-3.9.3-5.9.7c-4.1.8-7.4 2.3-9.9 4.5-2.4 2.2-3.6 5.8-3.6 10.6 0 4.2 1.1 7.7 3.4 10.4s5.6 4.1 10.1 4.1c7.6 0 13.4-2.5 17.4-7.6z"/><path d="m1740.6 589.9v24.9h-9.3c0-.3 0-.6-.1-1 0-.4-.1-.7-.1-1-.2-2.9-.8-5.4-1.9-7.6-1-2.2-2.3-3.8-3.9-4.9-2.4-1.7-4.8-2.7-7.3-3.1s-4.4-.6-5.7-.6c-4.4 0-8.2 1.2-11.3 3.5s-4.6 5.7-4.6 10.2c0 1.8.3 3.3 1 4.4.7 1.2 1.6 2.2 2.8 3s2.5 1.4 4.1 1.9c1.5.5 3.1.9 4.7 1.2s3.5.6 5.6 1c2.2.3 4.4.8 6.6 1.3s4.3 1.1 6.3 1.8c2 .6 3.7 1.4 5 2.3 1.2.8 2.3 1.6 3.3 2.5s2 2 2.8 3.3 1.5 3 2 4.9.7 4.2.7 6.9c0 3.4-.7 6.5-2 9.3-1.3 2.9-3.1 5.4-5.4 7.5s-4.9 3.8-8 5-6.4 1.8-9.9 1.8c-3.1 0-5.8-.2-8.1-.7-2.3-.4-4.4-1.2-6.2-2.2s-3.5-2.4-4.9-4.1-2.8-3.8-4.2-6.3v12.3h-9.3v-26.7h9.3c.4 3.5 1.2 6.4 2.4 8.7 1.2 2.4 2.8 4.3 4.7 5.8s4 2.5 6.3 3.2c2.3.6 4.8 1 7.3 1 4.4 0 8.2-1.2 11.1-3.7 3-2.5 4.4-5.9 4.4-10.4 0-2.9-.7-5.1-2-6.7s-3.1-2.8-5.4-3.6c-1.5-.6-3.3-1-5.4-1.3s-4.3-.6-6.6-1c-2.3-.3-4.6-.8-7-1.3s-4.6-1.3-6.7-2.1c-3.4-1.5-6.1-3.6-8.3-6.3s-3.3-6.7-3.3-11.9c0-3.9.7-7.2 2.1-10.1s3.4-5.3 5.8-7.3 5.3-3.5 8.5-4.4c3.3-1 6.8-1.5 10.5-1.5 4 0 7.7.8 11.3 2.4s6.4 4.1 8.5 7.7v-7.7h9.8z"/><path d="m1798.4 589.9v8.7h-22.2v50.5c0 3.2.6 5.7 1.9 7.5s3.2 2.7 5.6 2.7c2.6 0 4.5-1.1 5.9-3.3 1.3-2.2 2-6.1 2-11.6v-.9h9.6v1.8c0 3.2-.3 6.2-.8 9s-1.5 5.3-3 7.3c-1.4 2.1-3.3 3.7-5.7 4.9s-5.3 1.8-8.9 1.8c-6.7 0-11.5-1.8-14.4-5.3s-4.3-8.8-4.3-15.8v-48.6h-13.3v-8.7h13.3v-15.1l12-4.4v19.6h22.3z"/><path d="m1834.1 658h12v9.3h-36.5v-9.3h12.4v-59.3h-12.3v-8.7h24.3v68zm.9-84.4h-13.8v-12.4h13.8z"/><path d="m1936.7 658v9.3h-36.3v-9.3h12.2v-40.6c0-6.6-1.2-11.7-3.6-15.2s-6.3-5.3-11.8-5.3c-4.4 0-8.1 1-10.9 3s-5.1 4.9-6.7 8.9c-1.6 3.5-2.4 9.2-2.4 17.2v32h12.2v9.3h-37v-9.3h12.9v-59.3h-12.6v-8.7h24.6v13.9c2-5.6 4.8-9.8 8.5-12.4s8.7-3.9 14.9-3.9c2.4 0 4.7.2 7.1.7s4.4 1.2 6.1 2.3c3.5 2.1 6.1 4.7 8 8s2.8 7.7 2.8 13.3v46.1z"/><path d="m2028.1 589.9v8.7h-12.7v62.1c0 3.5-.2 6.7-.6 9.7s-1.1 5.8-2.2 8.4c-2.6 5.9-6.7 10.2-12.4 12.9s-12.2 4-19.4 4c-10.4 0-18.1-1.8-23-5.5-5-3.7-7.9-8.8-8.7-15.4h13.3c.5 3.6 2.3 6.4 5.3 8.6 3.1 2.2 7.6 3.3 13.5 3.3 2.5 0 5-.3 7.5-.9s4.8-1.6 6.8-3.1 3.7-3.5 5.1-6 2.2-5.7 2.4-9.4c.2-2.4.3-4.4.4-6.2 0-1.7.1-3.3.1-4.8v-2.7c-3 4.7-6.4 8.4-10.4 10.9s-9.3 3.8-15.8 3.8c-5.2 0-9.9-1-13.9-3.1-4.1-2.1-7.5-4.9-10.2-8.4-2.8-3.6-4.9-7.7-6.3-12.5s-2.1-9.9-2.1-15.2c0-15.2 3.3-25.9 9.9-32.2 3.4-3.2 7-5.5 10.9-7s7.9-2.3 11.9-2.3c5.6 0 10.7 1.2 15.3 3.6s8.2 6.1 10.9 11.1v-12.3h24.4zm-32 61.7c2.5-2.6 4.3-5.7 5.5-9.5s1.8-8.6 1.8-14.5c0-4.7-.6-9-1.9-12.7-1.2-3.7-2.9-6.8-5-9.3s-4.5-4.4-7.3-5.8c-2.8-1.3-5.7-2-8.7-2-7.1 0-12.7 2.7-16.9 8.2s-6.2 13.1-6.2 22.9c0 4.7.6 9 1.8 12.7 1.2 3.8 2.8 6.9 4.7 9.5 2 2.6 4.3 4.5 7 5.9s5.6 2.1 8.7 2.1c6.1.1 11.6-2.5 16.5-7.5z"/><path d="m2168.6 561.2v37.6h-11.6c-.5-8.6-3.1-15.6-7.9-20.9-4.7-5.3-11.6-8-20.6-8-11.4 0-20 3.8-25.9 11.3s-8.8 18.1-8.8 31.9c0 14.6 2.9 25.8 8.6 33.6s14.1 11.7 25.2 11.7c8.4 0 15-2.4 19.8-7.3s7.4-11.4 7.9-19.5h13.6c-.3 6-1.5 11.4-3.6 16s-4.9 8.6-8.5 11.8-7.9 5.6-12.9 7.3c-5 1.6-10.5 2.4-16.5 2.4-9 0-16.5-1.6-22.7-4.7-6.1-3.2-11.1-7.3-14.8-12.5-3.8-5.2-6.4-11-8.1-17.6-1.6-6.5-2.4-13.2-2.4-20 0-7.2.9-14.1 2.8-20.7s4.7-12.4 8.6-17.5c3.9-5 8.8-9 14.7-12 6-3 13.1-4.4 21.4-4.4 7.7 0 14.2 1.5 19.4 4.4 5.2 3 9 7.2 11.4 12.6v-15.4h10.9z"/><path d="m2245.4 657.4c-6.5 7.3-15.2 11-25.9 11-12.1 0-21.1-4.1-27.3-12.3-5.9-8.1-8.9-17.6-8.9-28.5 0-6.2.9-11.8 2.7-16.7s4.3-9.1 7.5-12.6 7.1-6.1 11.6-7.9 9.5-2.7 15-2.7c5.7 0 10.8 1 15.2 3s8.1 4.9 11 8.5c3 3.7 5.2 8 6.7 12.9s2.2 10.3 2.2 16.2c0 11.9-3.3 21.7-9.8 29.1zm-17.9 0c2.7-1.3 5.2-3.2 7.5-5.8 2.4-2.6 4.1-5.9 5.3-10.1s1.8-8.9 1.8-14.2c0-9.8-2-17.3-5.9-22.6-4-5.3-9.6-7.9-17-7.9-3.6 0-6.8.7-9.6 2.2-2.9 1.4-5.3 3.5-7.3 6.1s-3.5 5.8-4.6 9.5-1.6 7.8-1.6 12.2c0 6.7.7 12 2 15.8s3.1 6.9 5.4 9.4c4.5 4.9 9.8 7.4 15.9 7.4 2.7-.1 5.4-.7 8.1-2z"/><path d="m2335.9 597.1c1.4-2 3-3.8 5-5.2 1.9-1.4 4.1-2.5 6.4-3.3 2.4-.7 4.8-1.1 7.4-1.1 6.6 0 12.3 1.9 17 5.8 2.5 2 4.3 4.6 5.5 7.9s1.8 8 1.8 14.1v42.7h11.3v9.3h-35.4v-9.3h12.2v-39.7c0-2.7-.1-5.3-.4-7.9-.2-2.6-.8-4.9-1.8-6.9-.9-2-2.4-3.6-4.4-4.8s-4.7-1.8-8.3-1.8c-2.2 0-4.3.4-6.5 1.3-2.2.8-4.1 2.2-5.8 4.1s-3.1 4.3-4.1 7.4c-1.1 3.1-1.6 6.8-1.6 11.1v37.2h12v9.3h-36v-9.3h12v-39.7c0-2.7-.1-5.3-.4-7.9-.2-2.6-.8-4.8-1.8-6.8-.9-2-2.4-3.6-4.4-4.8s-4.7-1.9-8.3-1.9c-2.3 0-4.5.5-6.7 1.4s-4.1 2.4-5.8 4.3-3 4.4-4.1 7.5c-1 3.1-1.6 6.7-1.6 11v36.9h12.2v9.3h-36.8v-9.3h12.6v-59.3h-12.6v-8.7h24.6v13.9c1.2-5 3.8-9 7.8-11.9s8.6-4.4 13.9-4.4c5.9 0 10.7 1.5 14.4 4.4s6.2 6.9 7.6 11.9c.8-2.5 1.7-4.7 3.1-6.8z"/><path d="m2475 645.1c-1.4 4.9-3.7 9.1-6.9 12.5-3.1 3.5-6.3 6.1-9.8 7.9s-7.6 2.7-12.3 2.7c-5.6 0-10.8-1.1-15.4-3.4s-8.4-6.3-11.3-12v29.5h12.4v8.9h-36.9v-8.9h12.4v-83.7h-12.2v-8.7h24.2v15.1c2.9-5.9 6.4-10.3 10.5-13.2s9.6-4.3 16.3-4.3c3.7 0 6.9.4 9.6 1.3 2.8.9 5.2 2.1 7.4 3.8 2.2 1.6 4.1 3.6 5.7 5.9s3.2 4.9 4.7 7.6c2.4 4.6 3.6 11.8 3.6 21.3.2 7-.6 12.9-2 17.7zm-22.8 11.8c2.9-1.7 5.3-4 7.2-6.9s3.3-6.1 4.2-9.7 1.3-7.3 1.3-11.2c0-10.6-2-18.6-6.1-24.2-4.1-5.5-9.4-8.3-16-8.3-3.6 0-6.9.8-10.2 2.4-3.2 1.6-6 4.2-8.2 7.9-1.5 2.4-2.7 5.1-3.6 8.3s-1.4 7.3-1.4 12.4c0 6.9.8 12.5 2.5 16.7s3.7 7.4 6.1 9.6 4.8 3.7 7.4 4.4 4.7 1.1 6.5 1.1c3.9 0 7.4-.8 10.3-2.5z"/><path d="m2562.7 658v9.3h-23.4v-15.3c-2.6 5.8-5.9 10-9.9 12.5s-9.2 3.8-15.5 3.8c-7.9 0-14-2.1-18.3-6.2-4.3-4.2-6.4-9.7-6.4-16.6 0-3.9.5-7.1 1.6-9.9 1.1-2.7 2.5-5 4.4-6.9 1.8-1.9 4-3.4 6.4-4.5s5-2 7.8-2.6c2.2-.5 4-.7 5.4-.7s3.4 0 5.9-.1c3.1-.1 5.9-.1 8.6-.1h10.1v-6.7c0-5.6-1.6-10-4.7-13-3.2-3-7.2-4.5-12-4.5-3.9 0-6.7.4-8.5 1.1s-3.5 1.8-5 3.2c-1.4 1.2-2.5 2.6-3.3 4.4-.8 1.7-1.3 4-1.5 6.7h-12.4c.3-4.6 1.3-8.5 3-11.6s4.1-5.7 7.1-7.8c2.5-1.7 5.2-2.9 8.3-3.7s6.9-1.2 11.4-1.2c4.2 0 7.5.3 10.1 1 2.6.6 5 1.7 7.4 3 3.5 2 6.2 4.5 8.2 7.6s3 7.7 3 13.7v45.1zm-30-6c4.1-5.1 6.2-12.5 6.5-22.2-1.8-.3-3.6-.5-5.6-.5-1.9 0-4.1-.1-6.4-.1-2.1 0-4.1 0-6 .1s-3.9.3-5.9.7c-4.1.8-7.4 2.3-9.9 4.5-2.4 2.2-3.6 5.8-3.6 10.6 0 4.2 1.1 7.7 3.4 10.4s5.6 4.1 10.1 4.1c7.6 0 13.4-2.5 17.4-7.6z"/><path d="m2653.1 658v9.3h-36.3v-9.3h12.2v-40.6c0-6.6-1.2-11.7-3.6-15.2s-6.3-5.3-11.8-5.3c-4.4 0-8.1 1-10.9 3s-5.1 4.9-6.7 8.9c-1.6 3.5-2.4 9.2-2.4 17.2v32h12.2v9.3h-37v-9.3h12.9v-59.3h-12.6v-8.7h24.6v13.9c2-5.6 4.8-9.8 8.5-12.4s8.7-3.9 14.9-3.9c2.4 0 4.7.2 7.1.7s4.4 1.2 6.1 2.3c3.5 2.1 6.1 4.7 8 8s2.8 7.7 2.8 13.3v46.1z"/><path d="m2691 598.7h-12l19 54.2 18.4-54.2h-12.2v-8.7h31.7v8.7h-6.8c-3.7 10.1-6.9 19-9.9 26.9-2.9 7.9-5.5 14.8-7.7 20.8s-4.1 11.2-5.7 15.6-3 8.1-4.3 11.2c-1.1 2.6-2.1 4.8-2.9 6.7s-1.7 3.5-2.7 5c-.9 1.4-2 2.7-3.3 3.7s-2.9 2-4.7 2.7c-2.7 1.2-5.9 1.8-9.6 1.8-1.4 0-2.8-.1-4.3-.4-1.5-.2-2.9-.5-4.3-.7v-9.8c2.8.7 5.7 1 8.7 1 1.2 0 2.3-.2 3.5-.6 1.1-.4 2.2-1.2 3.3-2.4s2.1-2.8 3.1-4.9 2-4.7 3-8l-25.9-68.8h-7.4v-8.7h33z"/><path d="m2848.7 651.9 28.3-90.7h37.3v9.8h-15.1v86.5h15.1v9.8h-41.2v-9.8h13.6v-86.5h-1l-31.6 96.3h-11.6l-31.6-96.3h-1v86.5h13.8v9.8h-40.3v-9.8h15.3v-86.5h-15.3v-9.8h37.8z"/><path d="m2948.4 658h12v9.3h-36.4v-9.3h12.4v-59.3h-12.3v-8.7h24.3zm.9-84.4h-13.8v-12.4h13.8z"/><path d="m3032.8 589.9v28.5h-9.3v-1.3c-.1-2.5-.6-4.9-1.6-7.2-.9-2.3-2.2-4.4-3.9-6.3s-3.7-3.4-5.9-4.5c-2.3-1.1-4.8-1.7-7.6-1.7-4.1 0-7.7.9-10.6 2.7s-5.3 4.2-7.1 7c-1.8 2.9-3.2 6.1-4 9.8s-1.3 7.3-1.3 11c0 3.8.5 7.5 1.4 11.1.9 3.7 2.3 6.9 4.2 9.9 1.9 2.9 4.2 5.3 7.1 7.1s6.2 2.7 10.1 2.7c4.3 0 8.1-1.4 11.3-4.1s5.4-6.7 6.4-11.7l.3-1.8h11.3l-.1 2.7c-.5 3.9-1.6 7.3-3.3 10.4s-4 5.6-6.7 7.7-5.8 3.7-9.3 4.8-7.2 1.7-11 1.7c-5.5 0-10.4-1-14.7-3s-7.9-4.8-10.9-8.4-5.2-7.7-6.8-12.4-2.4-9.8-2.4-15.1c0-6.9.9-13 2.7-18.2s4.2-9.6 7.3-13c3-3.5 6.5-6.1 10.5-7.9s8.2-2.7 12.5-2.7c5 0 9.3.9 12.9 2.8s6.6 4.9 9.2 9.2v-9.6h9.3z"/><path d="m3089.8 599.3c-.8-.1-1.7-.1-2.4-.1-14.3 0-21.5 9.5-21.5 28.6v30.2h14.7v9.3h-39v-9.3h12.3v-59.3h-12.3v-8.7h24.3v15.4c1.2-3.4 2.4-6.1 3.7-8.2s2.8-3.8 4.4-5c1.7-1.2 3.6-2.1 5.7-2.6s4.7-.8 7.6-.9h5v11.1c-.8-.3-1.7-.4-2.5-.5z"/><path d="m3162.2 657.4c-6.5 7.3-15.2 11-25.9 11-12.1 0-21.1-4.1-27.3-12.3-5.9-8.1-8.9-17.6-8.9-28.5 0-6.2.9-11.8 2.7-16.7s4.3-9.1 7.5-12.6 7.1-6.1 11.6-7.9 9.5-2.7 15-2.7c5.7 0 10.8 1 15.2 3s8.1 4.9 11 8.5c3 3.7 5.2 8 6.7 12.9s2.2 10.3 2.2 16.2c-.1 11.9-3.3 21.7-9.8 29.1zm-17.9 0c2.7-1.3 5.2-3.2 7.5-5.8 2.4-2.6 4.1-5.9 5.3-10.1s1.8-8.9 1.8-14.2c0-9.8-2-17.3-5.9-22.6-4-5.3-9.6-7.9-17-7.9-3.6 0-6.8.7-9.6 2.2-2.9 1.4-5.3 3.5-7.3 6.1s-3.5 5.8-4.6 9.5-1.6 7.8-1.6 12.2c0 6.7.7 12 2 15.8s3.1 6.9 5.4 9.4c4.5 4.9 9.8 7.4 15.9 7.4 2.6-.1 5.4-.7 8.1-2z"/><path d="m3246.9 589.9v28.5h-9.3v-1.3c-.1-2.5-.6-4.9-1.6-7.2-.9-2.3-2.2-4.4-3.9-6.3s-3.7-3.4-5.9-4.5c-2.3-1.1-4.8-1.7-7.6-1.7-4.1 0-7.7.9-10.6 2.7s-5.3 4.2-7.1 7c-1.8 2.9-3.2 6.1-4 9.8s-1.3 7.3-1.3 11c0 3.8.5 7.5 1.4 11.1.9 3.7 2.3 6.9 4.2 9.9 1.9 2.9 4.2 5.3 7.1 7.1s6.2 2.7 10.1 2.7c4.3 0 8.1-1.4 11.3-4.1s5.4-6.7 6.4-11.7l.3-1.8h11.3l-.1 2.7c-.5 3.9-1.6 7.3-3.3 10.4s-4 5.6-6.7 7.7-5.8 3.7-9.3 4.8-7.2 1.7-11 1.7c-5.5 0-10.4-1-14.7-3s-7.9-4.8-10.9-8.4-5.2-7.7-6.8-12.4-2.4-9.8-2.4-15.1c0-6.9.9-13 2.7-18.2s4.2-9.6 7.3-13c3-3.5 6.5-6.1 10.5-7.9s8.2-2.7 12.5-2.7c5 0 9.3.9 12.9 2.8s6.6 4.9 9.2 9.2v-9.6h9.3z"/><path d="m3318.7 657.4c-6.5 7.3-15.2 11-25.9 11-12.1 0-21.1-4.1-27.3-12.3-5.9-8.1-8.9-17.6-8.9-28.5 0-6.2.9-11.8 2.7-16.7s4.3-9.1 7.5-12.6 7.1-6.1 11.6-7.9 9.5-2.7 15-2.7c5.7 0 10.8 1 15.2 3s8.1 4.9 11 8.5c3 3.7 5.2 8 6.7 12.9s2.2 10.3 2.2 16.2c-.1 11.9-3.3 21.7-9.8 29.1zm-17.9 0c2.7-1.3 5.2-3.2 7.5-5.8 2.4-2.6 4.1-5.9 5.3-10.1s1.8-8.9 1.8-14.2c0-9.8-2-17.3-5.9-22.6-4-5.3-9.6-7.9-17-7.9-3.6 0-6.8.7-9.6 2.2-2.9 1.4-5.3 3.5-7.3 6.1s-3.5 5.8-4.6 9.5-1.6 7.8-1.6 12.2c0 6.7.7 12 2 15.8s3.1 6.9 5.4 9.4c4.5 4.9 9.8 7.4 15.9 7.4 2.6-.1 5.4-.7 8.1-2z"/><path d="m3409.2 597.1c1.4-2 3-3.8 5-5.2 1.9-1.4 4.1-2.5 6.4-3.3 2.4-.7 4.8-1.1 7.4-1.1 6.6 0 12.3 1.9 17 5.8 2.5 2 4.3 4.6 5.5 7.9s1.8 8 1.8 14.1v42.7h11.3v9.3h-35.4v-9.3h12.2v-39.7c0-2.7-.1-5.3-.4-7.9-.2-2.6-.8-4.9-1.8-6.9-.9-2-2.4-3.6-4.4-4.8s-4.7-1.8-8.3-1.8c-2.2 0-4.3.4-6.5 1.3-2.2.8-4.1 2.2-5.8 4.1s-3.1 4.3-4.1 7.4c-1.1 3.1-1.6 6.8-1.6 11.1v37.2h12v9.3h-36v-9.3h12v-39.7c0-2.7-.1-5.3-.4-7.9-.2-2.6-.8-4.8-1.8-6.8-.9-2-2.4-3.6-4.4-4.8s-4.7-1.9-8.3-1.9c-2.3 0-4.5.5-6.7 1.4s-4.1 2.4-5.8 4.3-3 4.4-4.1 7.5c-1 3.1-1.6 6.7-1.6 11v36.9h12.2v9.3h-36.8v-9.3h12.6v-59.3h-12.6v-8.7h24.6v13.9c1.2-5 3.8-9 7.8-11.9s8.6-4.4 13.9-4.4c5.9 0 10.7 1.5 14.4 4.4s6.2 6.9 7.6 11.9c.7-2.5 1.7-4.7 3.1-6.8z"/><path d="m3548.3 645.1c-1.4 4.9-3.7 9.1-6.9 12.5-3.1 3.5-6.3 6.1-9.8 7.9s-7.6 2.7-12.3 2.7c-5.6 0-10.8-1.1-15.4-3.4s-8.4-6.3-11.3-12v29.5h12.4v8.9h-36.9v-8.9h12.4v-83.7h-12.2v-8.7h24.2v15.1c2.9-5.9 6.4-10.3 10.5-13.2s9.6-4.3 16.3-4.3c3.7 0 6.9.4 9.6 1.3 2.8.9 5.2 2.1 7.4 3.8 2.2 1.6 4.1 3.6 5.7 5.9s3.2 4.9 4.7 7.6c2.4 4.6 3.6 11.8 3.6 21.3.1 7-.6 12.9-2 17.7zm-22.8 11.8c2.9-1.7 5.3-4 7.2-6.9s3.3-6.1 4.2-9.7 1.3-7.3 1.3-11.2c0-10.6-2-18.6-6.1-24.2-4.1-5.5-9.4-8.3-16-8.3-3.6 0-6.9.8-10.2 2.4-3.2 1.6-6 4.2-8.2 7.9-1.5 2.4-2.7 5.1-3.6 8.3s-1.4 7.3-1.4 12.4c0 6.9.8 12.5 2.5 16.7s3.7 7.4 6.1 9.6 4.8 3.7 7.4 4.4 4.7 1.1 6.5 1.1c3.9 0 7.4-.8 10.3-2.5z"/><path d="m3582.9 638.1c0 7.5 1.2 12.9 3.7 16.3s6.2 5 11.3 5c3.4 0 6.6-.9 9.8-2.7s5.7-4.8 7.6-9c1.8-4.2 2.7-9.6 2.7-16.3v-32.8h-13v-8.7h25v68h12.3v9.3h-24.3v-14.8c-1.9 5.7-4.6 9.8-8.1 12.2s-8.4 3.6-14.6 3.6c-4.7 0-9.1-.9-13-2.7s-6.9-4.8-9-9.2c-.4-.9-.7-1.8-1-2.7s-.5-2-.7-3.3-.3-2.9-.4-4.7-.1-4.1-.1-6.9v-40.2h-12.2v-8.7h24.2v48.3z"/><path d="m3694.9 589.9v8.7h-22.2v50.5c0 3.2.6 5.7 1.9 7.5s3.2 2.7 5.6 2.7c2.6 0 4.5-1.1 5.9-3.3 1.3-2.2 2-6.1 2-11.6v-.9h9.6v1.8c0 3.2-.3 6.2-.8 9s-1.5 5.3-3 7.3c-1.4 2.1-3.3 3.7-5.7 4.9s-5.3 1.8-8.9 1.8c-6.7 0-11.5-1.8-14.4-5.3s-4.3-8.8-4.3-15.8v-48.6h-13.3v-8.7h13.3v-15.1l12-4.4v19.6h22.3z"/><path d="m3723.4 643.5c1.2 3 2.7 5.7 4.4 8.1 2 2.6 4.3 4.5 7 5.8s6.5 1.9 11.3 1.9c2.2 0 4.3-.3 6.4-1s4.1-1.7 5.8-3 3.2-2.9 4.5-4.7 2.2-3.9 2.7-6.1l.1-1.2h11.4l-.3 1.3c-1.5 7.4-5.1 13.2-10.7 17.5-5.7 4.2-13 6.4-21.9 6.4-11.7 0-20.5-3.4-26.5-10.2s-9-16.7-9-29.6c0-6.2.8-12 2.5-17.2s4.2-9.6 7.7-13c3.5-3.6 7.4-6.2 11.9-8 4.4-1.8 9-2.7 13.8-2.7 4.2 0 8.4.7 12.4 2.1s7.1 3.2 9.4 5.3c4.6 4.2 7.8 9 9.4 14.4 1.6 5.3 2.4 11 2.4 16.9v4.7h-57.1c.5 5.1 1.2 9.3 2.4 12.3zm40.7-30.4c-.9-3.1-2.2-5.8-4-8.3s-4-4.5-6.7-6-5.8-2.3-9.3-2.3c-6 0-11.1 2.3-15.2 7-4.1 4.6-6.5 10.9-7.2 18.7h43.7c.1-3.1-.4-6.1-1.3-9.1z"/><path d="m3836.4 599.3c-.8-.1-1.7-.1-2.4-.1-14.3 0-21.5 9.5-21.5 28.6v30.2h14.7v9.3h-39v-9.3h12.3v-59.3h-12.3v-8.7h24.3v15.4c1.2-3.4 2.4-6.1 3.7-8.2s2.8-3.8 4.4-5c1.7-1.2 3.6-2.1 5.7-2.6s4.7-.8 7.6-.9h5v11.1c-.8-.3-1.7-.4-2.5-.5z"/></g></svg>