<?xml version="1.0" encoding="UTF-8" standalone="no"?>
<svg
   enable-background="new 0 0 3839 1272.2"
   height="636"
   viewBox="0 0 1920 636"
   width="1920"
   version="1.1"
   id="svg32"
   sodipodi:docname="channelf.svg"
   inkscape:version="1.3.2 (091e20e, 2023-11-25)"
   xmlns:inkscape="http://www.inkscape.org/namespaces/inkscape"
   xmlns:sodipodi="http://sodipodi.sourceforge.net/DTD/sodipodi-0.dtd"
   xmlns="http://www.w3.org/2000/svg"
   xmlns:svg="http://www.w3.org/2000/svg">
  <defs
     id="defs32" />
  <sodipodi:namedview
     id="namedview32"
     pagecolor="#ffffff"
     bordercolor="#000000"
     borderopacity="0.25"
     inkscape:showpageshadow="2"
     inkscape:pageopacity="0.0"
     inkscape:pagecheckerboard="0"
     inkscape:deskcolor="#d1d1d1"
     inkscape:zoom="0.18545712"
     inkscape:cx="1919.5812"
     inkscape:cy="636.26568"
     inkscape:window-width="1312"
     inkscape:window-height="449"
     inkscape:window-x="0"
     inkscape:window-y="23"
     inkscape:window-maximized="0"
     inkscape:current-layer="svg32" />
  <g
     id="g1"
     transform="scale(0.49999999)">
    <g
       id="g33"
       transform="scale(1,0.9995824)">
      <g
         transform="scale(1.0002605)"
         id="g32">
        <path
           d="m 2345.7,176.3 h 50.4 v 160.2 h -50.4 z"
           id="path1" />
        <path
           d="m 1448.8,176.3 h 50.4 v 159.9 h -50.4 z"
           id="path2" />
        <path
           d="m 928.8,176.3 v 45.5 34.7 37.5 42.4 h 50.3 V 294 h 155.3 V 256.5 H 979.1 v -34.7 h 155.3 V 176.3 H 979.1 Z"
           id="path3" />
        <path
           d="m 2250.9,233.7 h -122 v -57.4 h -50.3 v 57.4 45.6 57.1 h 50.3 v -57.1 h 122 v 56.8 h 50.4 v -56.8 -45.6 -57.4 h -50.4 z"
           id="path4" />
        <path
           d="m 2843.8,176.3 h -145.9 -32.2 v 159.9 h 32.2 v 0.4 h 145.9 c 30.1,0 54.5,-21.4 54.5,-71.7 v -6.9 -3 -7 c -0.1,-50.3 -24.4,-71.7 -54.5,-71.7 z m 8.2,79.8 v 0.4 7.4 c 0,17.8 -10.7,27 -23.8,27 h -112.1 v -69 h 112.1 c 13.2,0 23.8,9.1 23.8,27 z"
           id="path5" />
        <path
           d="m 2490.9,176.3 h -50.5 v 114.2 45.6 0.3 h 50.5 v -0.3 h 155.2 v -45.6 h -155.2 z"
           id="path6" />
        <path
           d="m 1983.4,176.3 h -115.6 c -34.5,0 -62.5,28 -62.5,62.5 v 34.9 c 0,34.5 28,62.5 62.5,62.5 h 115.6 c 34.5,0 62.5,-28 62.5,-62.5 v -1.9 h -50.4 v 0.4 c 0,10.2 -8.2,18.4 -18.4,18.4 h -102.9 c -10.2,0 -18.4,-8.2 -18.4,-18.4 v -31.8 c 0,-10.2 8.2,-18.4 18.4,-18.4 h 102.9 c 10.2,0 18.4,8.2 18.4,18.4 v 0.4 h 50.4 v -1.9 c 0,-34.7 -28,-62.6 -62.5,-62.6 z"
           id="path7" />
        <path
           d="m 1773.9,254.2 v -29.5 c 0,-26.8 -21.7,-48.5 -48.5,-48.5 H 1556 1543.5 v 159.9 h 50.4 V 294 h 84 l 40.2,42.1 h 62.7 l -40.7,-42.5 c 19.1,-3 33.8,-19.5 33.8,-39.4 z m -63.6,2.3 h -116.4 v -34.7 h 116.4 c 9.6,0 17.4,7.8 17.4,17.4 0,9.6 -7.8,17.3 -17.4,17.3 z"
           id="path8" />
        <path
           d="m 1325.3,176.3 h -40.4 -4.8 -50.4 -0.4 l -92.9,160.2 h 60.8 l 22,-42.4 H 1346 l 22,42.4 h 60.8 l -93,-160.2 z m -86.8,80.2 18,-34.7 h 52.1 l 18,34.7 z"
           id="path9" />
        <path
           d="M 928.8,0 H 2898.3 V 134.4 H 928.8 Z"
           id="path10" />
        <path
           d="M 928.8,378.3 H 2898.3 V 512.7 H 928.8 Z"
           id="path11" />
        <g
           fill="#ffe000"
           id="g26">
          <path
             d="M 2222.6,677.3 H 2350 v 502.1 h -127.4 z"
             id="path12" />
          <path
             d="M 2053.3,677.3 V 948.5 L 1854.5,677.3 h -101.8 v 502.1 H 1880 V 927.5 l 184.7,251.9 h 115.8 V 677.3 Z"
             id="path13" />
          <path
             d="M 1583.4,677.3 V 948.5 L 1384.5,677.3 h -101.7 v 502.1 H 1410 V 927.5 l 184.8,251.9 h 115.9 V 677.3 Z"
             id="path14" />
          <path
             d="m 2544.8,677.3 h 127.4 v 502.1 h -127.4 z"
             id="path15" />
          <path
             d="m 2248.6,868.7 h 254.2 v 127.4 h -254.2 z"
             id="path16" />
          <path
             d="m 2248.6,677.2 h 254.2 v 127.4 h -254.2 z"
             id="path17" />
          <path
             d="m 2248.6,1052 h 254.2 v 127.4 h -254.2 z"
             id="path18" />
          <path
             d="m 2560.5,1052.1 h 254.2 v 127.4 h -254.2 z"
             id="path19" />
          <path
             d="M 493.8,860.7 H 748 V 988 H 493.8 Z"
             id="path20" />
          <path
             d="m 1113.4,677.3 h 127.3 v 502.1 h -127.3 z"
             id="path21" />
          <path
             d="m 684.3,677.3 h 127.3 v 502.1 H 684.3 Z"
             id="path22" />
          <path
             d="m 414.3,677.3 h 127.4 v 502.1 H 414.3 Z"
             id="path23" />
          <path
             d="m 972.7,868.7 h 254.2 V 996 H 972.7 Z"
             id="path24" />
          <path
             d="M 1155.8,677.3 H 1013.6 L 775.4,1179.4 H 917.6 Z"
             id="path25" />
          <path
             d="m 372.3,847.3 c -25.8,-34.8 -67.8,-53.6 -111,-53.6 -77.4,0 -129.7,59.4 -129.7,134.9 0,76.8 52.9,132.3 131.7,132.3 41.3,0 82.6,-20 109.1,-51.6 V 1161 c -42,12.9 -72.3,22.6 -111.6,22.6 C 193,1183.6 128.5,1157.8 78.2,1112 24.5,1063.4 0,1000.2 0,928 0,861.5 25.2,797.6 71.6,749.9 c 47.8,-49 116.8,-78.7 185.2,-78.7 40.6,0 78.1,9 115.5,24.5 z"
             id="path26" />
        </g>
        <path
           d="m 3827,927.4 c 0,-98.4 -19.8,-188.4 -33.5,-238.8 -7.6,-27.9 -29.1,-49.9 -57,-57.6 -104.5,-29 -267.9,-36.4 -369.5,-36.4 -101.6,0 -265,7.4 -369.5,36.4 -27.8,7.7 -49.4,29.7 -57,57.6 -13.7,50.4 -33.5,140.4 -33.5,238.8 0,98.4 19.8,188.4 33.5,238.8 7.6,27.9 29.1,49.9 57,57.6 104.5,29 267.9,36.4 369.5,36.4 101.6,0 265,-7.4 369.5,-36.4 27.8,-7.7 49.4,-29.7 57,-57.6 13.7,-50.5 33.5,-140.5 33.5,-238.8 z"
           fill="#ffffff"
           id="path27" />
        <path
           d="m 3367,1272.2 c -56.3,0 -249.4,-2.7 -372.7,-36.8 -31.7,-8.8 -56.7,-34.1 -65.4,-66.1 -12.6,-46.7 -33.9,-140.2 -33.9,-242 0,-101.8 21.2,-195.3 33.9,-241.9 8.7,-32 33.7,-57.3 65.4,-66 123.2,-34.2 316.4,-36.8 372.7,-36.8 56.3,0 249.5,2.7 372.7,36.8 31.7,8.8 56.7,34.1 65.4,66 12.7,46.7 33.9,140.2 33.9,241.9 0,101.9 -21.2,195.3 -33.9,242 -8.7,32 -33.7,57.3 -65.4,66.1 -123.1,34.1 -316.4,36.8 -372.7,36.8 z m 0,-665.7 c -55.5,0 -246,2.6 -366.3,35.9 -23.5,6.5 -42.1,25.4 -48.6,49.2 -12.3,45.5 -33.1,136.7 -33.1,235.7 0,99 20.7,190.2 33.1,235.7 6.5,23.8 25.1,42.7 48.6,49.2 120.3,33.3 310.7,35.9 366.3,35.9 55.6,0 245.9,-2.6 366.3,-35.9 23.5,-6.5 42.1,-25.4 48.6,-49.2 12.3,-45.5 33.1,-136.7 33.1,-235.7 0,-99 -20.7,-190.2 -33.1,-235.7 -6.4,-23.8 -25.1,-42.7 -48.6,-49.2 -120.2,-33.3 -310.7,-35.9 -366.3,-35.9 z"
           id="path28" />
        <g
           fill="#ff001f"
           id="g31">
          <path
             d="m 3207.7,649.7 h 127.7 V 1205 h -127.7 z"
             id="path29" />
          <path
             d="m 3271.5,867.6 h 254.8 v 127.7 h -254.8 z"
             id="path30" />
          <path
             d="m 3207.7,649.7 h 318.7 v 127.7 h -318.7 z"
             id="path31" />
        </g>
      </g>
    </g>
  </g>
</svg>
