<svg height="274" viewBox="0 0 1920 273.99999" width="1920" xmlns="http://www.w3.org/2000/svg"><g transform="matrix(2.1098901 0 0 2.10769214309 -1044.395599 -1939.07677163191)"><path d="m505 1040h10v10h60v-10h10v-10h10v-20-20h-10v-10h10v-20-20h-10v-10h-10v-10h-60v10h-10v10h-10v20 50 20h10zm50-50h-10v-10h10z" fill="#120f26"/><path d="m585 1010h-30v10h-20v-50h20v10h30v-20h-10v-10h-60v10h-10v70h10v10h60v-10h10z" fill="#e22b17"/><path d="m585 990h-30v10h-20v-50h20v10h30v-20h-10v-10h-60v10h-10v70h10v10h60v-10h10z" fill="#ffda40"/></g><g transform="matrix(2.1098901 0 0 2.10769214309 -390.329669 -2360.61518027019)"><path d="m295 1130h-10v10h-10v20 50 20h10v10h10v10h60v-10h10v-10h10v-20-50-20h-10v-10h-10v-10h-60z" fill="#120f26"/><path d="m355 1240v-10h10v-70h-10v-10h-60v10h-10v70h10v10zm-40-20v-50h20v50z" fill="#e22b17"/><path d="m355 1220v-10h10v-70h-10v-10h-60v10h-10v70h10v10zm-40-20v-50h20v50z" fill="#ffda40"/></g><g transform="matrix(2.1098901 0 0 2.10769214309 -3344.175799 -1939.07677163191)"><path d="m1765 950v70 20h10v10h20 10 40v-10h10v-20-20h-10v-10h-30v-40-20h-10v-10h-30v10h-10z" fill="#120f26"/><path d="m1805 1020v-70h-30v90h20 10 40v-20z" fill="#e22b17"/><path d="m1805 1000v-70h-30v90h20 10 40v-20z" fill="#ffda40"/></g><g transform="matrix(2.1098901 0 0 2.10769214309 -3175.384599 -1939.07677163191)"><path d="m1775 1040v10h20 10 40v-10h10v-20-20h-10v-10h-30v-40-20h-10v-10h-30v10h-10v20 70 20z" fill="#120f26"/><path d="m1775 1040h20 10 40v-20h-40v-70h-30z" fill="#e22b17"/><path d="m1775 1020h20 10 40v-20h-40v-70h-30z" fill="#ffda40"/></g><g transform="matrix(2.1098901 0 0 2.10769214309 -959.999999 -1939.07677163191)"><path d="m805 1040v10h20 10 40v-10h10v-20-20h-10v-10-10-10h10v-20-20h-10v-10h-40-10-20v10h-10v20 70 20z" fill="#120f26"/><path d="m835 1040h40v-20h-40v-10h30v-20h-30v-20h40v-20h-40-10-20v90h20z" fill="#e22b17"/><path d="m835 1020h40v-20h-40v-10h30v-20h-30v-20h40v-20h-40-10-20v90h20z" fill="#ffda40"/></g><g transform="matrix(2.1098901 0 0 2.10769214309 -158.241754 -1939.07677163191)"><path d="m505 1040h10v10h60v-10h10v-10h10v-20-20h-10v-10h10v-20-20h-10v-10h-10v-10h-60v10h-10v10h-10v20 50 20h10zm50-50h-10v-10h10z" fill="#120f26"/><path d="m575 950h-60v10h-10v70h10v10h60v-10h10v-20h-30v10h-20v-50h20v10h30v-20h-10z" fill="#e22b17"/><path d="m575 930h-60v10h-10v70h10v10h60v-10h10v-20h-30v10h-20v-50h20v10h30v-20h-10z" fill="#ffda40"/></g><g transform="matrix(2.1098901 0 0 2.10769214309 -1086.593399 -2360.61518027019)"><path d="m1045 1220v20h10v10h30v-10h10v-20-40h10v-10h10v-20-20h-10v-10h-70v10h-10v20 20h10v10h10z" fill="#120f26"/><path d="m1085 1170h20v-20h-70v20h20v70h30z" fill="#e22b17"/><path d="m1085 1150h20v-20h-70v20h20v70h30z" fill="#ffda40"/></g><g transform="matrix(2.1098901 0 0 2.10769214309 -1656.263749 -1939.07677163191)"><path d="m1425 950v-20h-10v-10h-30v10h-10v20 70 20h10v10h30v-10h10v-20z" fill="#120f26"/><path d="m1385 950h30v90h-30z" fill="#e22b17"/><path d="m1385 930h30v90h-30z" fill="#ffda40"/></g><g transform="matrix(2.1098901 0 0 2.10769214309 749.011001 -2360.61518027019)"><path d="m355 1130v-10h-60v10h-10v10h-10v20 50 20h10v10h10v10h60v-10h10v-10h10v-20-50-20h-10v-10z" fill="#120f26"/><path d="m355 1240v-10h10v-70h-10v-10h-60v10h-10v70h10v10zm-40-20v-50h20v50z" fill="#e22b17"/><path d="m355 1220v-10h10v-70h-10v-10h-60v10h-10v70h10v10zm-40-20v-50h20v50z" fill="#ffda40"/></g><g transform="matrix(2.1098901 0 0 2.10769214309 -2858.901099 -1939.07677163191)"><path d="m2075 1040h10v10h30v-10h10 10v10h30v-10h10v-20-70-20h-10v-10h-30v10h-10-10v-10h-30v10h-10v20 70z" fill="#120f26"/><path d="m2165 1040v-90h-30v40h-10v-20h-10v-20h-30v90h30v-30h10v20h10v10z" fill="#e22b17"/><path d="m2165 1020v-90h-30v40h-10v-20h-10v-20h-30v90h30v-30h10v20h10v10z" fill="#ffda40"/></g><g transform="matrix(2.1098901 0 0 2.10769214309 -137.142854 -2360.61518027019)"><path d="m955 1250v-10h10v-10h10v-20-10-20-20-20h-10v-10h-10v-10h-60v10h-10v10h-10v20 10 20 20 20h10v10h10v10z" fill="#120f26"/><path d="m915 1200v10h20v10h-20v-10h-30v20h10v10h60v-10h10v-30h-10v-10h-20v-10h-20v-10h20v10h30v-20h-10v-10h-60v10h-10v30h10v10z" fill="#e22b17"/><path d="m915 1180v10h20v10h-20v-10h-30v20h10v10h60v-10h10v-30h-10v-10h-20v-10h-20v-10h20v10h30v-20h-10v-10h-60v10h-10v30h10v10z" fill="#ffda40"/></g></svg>