<svg enable-background="new 0 0 3844 1052.6" height="521" viewBox="0 0 1920 521" width="1920" xmlns="http://www.w3.org/2000/svg" xmlns:xlink="http://www.w3.org/1999/xlink"><linearGradient id="a"><stop offset="0" stop-color="#806530"/><stop offset=".03405" stop-color="#886b34"/><stop offset=".08821567" stop-color="#a07d3e"/><stop offset=".1387" stop-color="#bb924a"/><stop offset="1" stop-color="#886c33"/></linearGradient><linearGradient id="b" gradientUnits="userSpaceOnUse" x1="2771.3655" x2="2821.8252" xlink:href="#a" y1="927.48651" y2="927.48651"/><linearGradient id="c" gradientUnits="userSpaceOnUse" x1="2605.3716" x2="2654.2109" xlink:href="#a" y1="914.97113" y2="914.97113"/><linearGradient id="d" gradientUnits="userSpaceOnUse" x1="2273.6726" x2="2322.9573" y1="895.16248" y2="895.16248"><stop offset=".6503" stop-color="#806530"/><stop offset="1" stop-color="#806630"/></linearGradient><linearGradient id="e"><stop offset=".6588" stop-color="#806530"/><stop offset=".7426" stop-color="#886b34"/><stop offset=".8758" stop-color="#a07d3e"/><stop offset="1" stop-color="#bb924a"/></linearGradient><linearGradient id="f" gradientUnits="userSpaceOnUse" x1="3412.1895" x2="3554.1357" xlink:href="#e" y1="450.46591" y2="592.41217"/><linearGradient id="g"><stop offset=".513" stop-color="#806530"/><stop offset=".535" stop-color="#866a33"/><stop offset=".6323" stop-color="#9e7c3d"/><stop offset=".7366" stop-color="#ae8844"/><stop offset=".8519" stop-color="#b89049"/><stop offset="1" stop-color="#bb924a"/></linearGradient><linearGradient id="h" gradientUnits="userSpaceOnUse" x1="1235.5702" x2="1235.5702" xlink:href="#g" y1="425.13831" y2="465.0033"/><linearGradient id="i" gradientUnits="userSpaceOnUse" x1="2425.5374" x2="2516.4529" y1="669.13141" y2="669.13141"><stop offset=".7145" stop-color="#bb924a"/><stop offset=".7303" stop-color="#b38c46"/><stop offset=".7847" stop-color="#9c7b3d"/><stop offset=".8436" stop-color="#8c6e35"/><stop offset=".9102" stop-color="#836731"/><stop offset="1" stop-color="#806530"/></linearGradient><linearGradient id="j" gradientUnits="userSpaceOnUse" x1="2787.5344" x2="3123.1636" xlink:href="#g" y1="659.24237" y2="659.24237"/><linearGradient id="k" gradientUnits="userSpaceOnUse" x1="3561.4473" x2="3733.2825" xlink:href="#e" y1="275.78229" y2="447.6174"/><linearGradient id="l" gradientUnits="userSpaceOnUse" x1="3755.9224" x2="3843.991" y1="303.36691" y2="303.36691"><stop offset="0" stop-color="#806530"/><stop offset=".2454" stop-color="#886b34"/><stop offset=".6359" stop-color="#a07d3e"/><stop offset="1" stop-color="#bb924a"/></linearGradient><linearGradient id="m" gradientUnits="userSpaceOnUse" x1="2524.0435" x2="2886.4302" xlink:href="#a" y1="782.01288" y2="419.6261"/><linearGradient id="n" gradientUnits="userSpaceOnUse" x1="1512.9333" x2="1572.9244" y1="271.21759" y2="271.21759"><stop offset="0" stop-color="#bb924a"/><stop offset=".03193273" stop-color="#b38c46"/><stop offset=".1416" stop-color="#9c7b3d"/><stop offset=".2608" stop-color="#8c6e35"/><stop offset=".3951" stop-color="#836731"/><stop offset=".5765" stop-color="#806530"/></linearGradient><linearGradient id="o" gradientUnits="userSpaceOnUse" x1="3226.1003" x2="3628.0354" y1="637.96832" y2="637.96832"><stop offset="0" stop-color="#806530"/><stop offset=".0553931" stop-color="#886b34"/><stop offset=".2457" stop-color="#9f7c3d"/><stop offset=".4524" stop-color="#af8945"/><stop offset=".6854" stop-color="#b89049"/><stop offset="1" stop-color="#bb924a"/></linearGradient><linearGradient id="p"><stop offset="0" stop-color="#8a6d33"/><stop offset=".3749" stop-color="#836731"/><stop offset="1" stop-color="#806530"/></linearGradient><linearGradient id="q" gradientUnits="userSpaceOnUse" x1="3213.3987" x2="3280.6765" xlink:href="#p" y1="244.3237" y2="244.3237"/><linearGradient id="r" gradientUnits="userSpaceOnUse" x1="3054.7932" x2="3207.1868" y1="268.76889" y2="421.1626"><stop offset="0" stop-color="#806530"/><stop offset=".2361" stop-color="#866933"/><stop offset=".5427" stop-color="#96763a"/><stop offset=".8869" stop-color="#b18a45"/><stop offset="1" stop-color="#bb924a"/></linearGradient><linearGradient id="s" gradientUnits="userSpaceOnUse" x1="1194.0439" x2="1194.0439" xlink:href="#g" y1="219.71809" y2="1003.459"/><linearGradient id="t" gradientUnits="userSpaceOnUse" x1="1688.0929" x2="1962.1155" y1="546.93951" y2="546.93951"><stop offset="0" stop-color="#bb924a"/><stop offset=".03352663" stop-color="#b38c46"/><stop offset=".1487" stop-color="#9c7b3d"/><stop offset=".2738" stop-color="#8c6e35"/><stop offset=".4148" stop-color="#836731"/><stop offset=".6052" stop-color="#806530"/><stop offset=".6257" stop-color="#876b33"/><stop offset=".7039" stop-color="#9f7d3d"/><stop offset=".7879" stop-color="#af8a44"/><stop offset=".8808" stop-color="#b99249"/><stop offset="1" stop-color="#bc944a"/></linearGradient><linearGradient id="u" gradientUnits="userSpaceOnUse" x1="2645.3071" x2="2700.7483" xlink:href="#p" y1="196.7475" y2="196.7475"/><linearGradient id="v" gradientUnits="userSpaceOnUse" x1="2434.1128" x2="2556.4746" y1="211.8632" y2="334.22501"><stop offset=".3544" stop-color="#806530"/><stop offset=".3836" stop-color="#866a33"/><stop offset=".5125" stop-color="#9e7c3d"/><stop offset=".6508" stop-color="#ae8844"/><stop offset=".8037" stop-color="#b89049"/><stop offset="1" stop-color="#bb924a"/></linearGradient><linearGradient id="w" gradientUnits="userSpaceOnUse" x1="2683.717" x2="2823.6777" xlink:href="#g" y1="234.0188" y2="234.0188"/><linearGradient id="x" gradientUnits="userSpaceOnUse" x1="1293.6185" x2="1687.6185" y1="343.86069" y2="737.86072"><stop offset="0" stop-color="#806530"/><stop offset=".05174923" stop-color="#876b33"/><stop offset=".25" stop-color="#9f7d3d"/><stop offset=".4627" stop-color="#af8a44"/><stop offset=".6979" stop-color="#b99249"/><stop offset="1" stop-color="#bc944a"/></linearGradient><linearGradient id="y" gradientUnits="userSpaceOnUse" x1="2294.0315" x2="2348.1912" xlink:href="#p" y1="184.0097" y2="184.0097"/><linearGradient id="z" gradientUnits="userSpaceOnUse" x1="1942.5087" x2="2317.7871" y1="347.04791" y2="722.32642"><stop offset=".6503" stop-color="#806530"/><stop offset=".6661" stop-color="#866a33"/><stop offset=".7359" stop-color="#9e7c3d"/><stop offset=".8108" stop-color="#ae8844"/><stop offset=".8937" stop-color="#b89049"/><stop offset="1" stop-color="#bb924a"/></linearGradient><linearGradient id="A" gradientUnits="userSpaceOnUse" x1="431.638" x2="935.07233" y1="566.34552" y2="566.34552"><stop offset=".8447" stop-color="#806530"/><stop offset=".8517" stop-color="#866a33"/><stop offset=".8827" stop-color="#9e7c3d"/><stop offset=".916" stop-color="#ae8844"/><stop offset=".9528" stop-color="#b89049"/><stop offset="1" stop-color="#bb924a"/></linearGradient><linearGradient id="B" gradientUnits="userSpaceOnUse" x1="428.82639" x2="428.82639" y1="74.976601" y2="941.31079"><stop offset=".1895" stop-color="#806530"/><stop offset=".2262" stop-color="#866a33"/><stop offset=".388" stop-color="#9e7c3d"/><stop offset=".5615" stop-color="#ae8844"/><stop offset=".7535" stop-color="#b89049"/><stop offset="1" stop-color="#bb924a"/></linearGradient><linearGradient id="C"><stop offset=".1895" stop-color="#e4bf48"/><stop offset=".2114" stop-color="#ebca62"/><stop offset=".2418" stop-color="#f2d680"/><stop offset=".2741" stop-color="#f8df98"/><stop offset=".3086" stop-color="#fce6a8"/><stop offset=".3466" stop-color="#feeab2"/><stop offset=".3955" stop-color="#ffebb5"/><stop offset=".5479" stop-color="#f7d75b"/></linearGradient><linearGradient id="D" gradientUnits="userSpaceOnUse" x1="3558.4565" x2="3558.4565" xlink:href="#C" y1="240.0571" y2="1040.9808"/><linearGradient id="E"><stop offset="0" stop-color="#bb924a"/><stop offset=".1895" stop-color="#f6d55b"/><stop offset=".2231" stop-color="#dcba52"/><stop offset=".261" stop-color="#c6a24b"/><stop offset=".3018" stop-color="#b69246"/><stop offset=".3469" stop-color="#ad8843"/><stop offset=".4048" stop-color="#aa8542"/><stop offset=".5219" stop-color="#fff"/><stop offset=".6688" stop-color="#b48f43"/><stop offset="1" stop-color="#e4bf48"/></linearGradient><linearGradient id="F" gradientUnits="userSpaceOnUse" x1="3303.5378" x2="3868.3474" xlink:href="#E" y1="277.76581" y2="842.57538"/><linearGradient id="G" gradientUnits="userSpaceOnUse" x1="2406.5906" x2="2406.5906" xlink:href="#C" y1="159.90421" y2="931.14099"/><linearGradient id="H" gradientUnits="userSpaceOnUse" x1="2072.0818" x2="2722.6746" xlink:href="#E" y1="211.71291" y2="862.30579"/><linearGradient id="I" gradientUnits="userSpaceOnUse" x1="2981.1802" x2="2981.1802" xlink:href="#C" y1="174.9801" y2="1002.6836"/><linearGradient id="J" gradientUnits="userSpaceOnUse" x1="2695.9607" x2="3210.03" xlink:href="#E" y1="297.84869" y2="811.91809"/><linearGradient id="K" gradientUnits="userSpaceOnUse" x1="1816.0713" x2="1816.0713" xlink:href="#C" y1="147.75" y2="915.09558"/><linearGradient id="L" gradientUnits="userSpaceOnUse" x1="1509.7103" x2="1951.3239" xlink:href="#E" y1="265.2511" y2="706.86462"/><linearGradient id="M" gradientUnits="userSpaceOnUse" x1="1225.8131" x2="1225.8131" xlink:href="#C" y1="166.40891" y2="1003.4589"/><linearGradient id="N" gradientUnits="userSpaceOnUse" x1="960.06653" x2="1580.8561" xlink:href="#E" y1="229.91" y2="850.69952"/><linearGradient id="O" gradientUnits="userSpaceOnUse" x1="452.22769" x2="452.22769" xlink:href="#C" y1="4.7474" y2="1047.1499"/><linearGradient id="P" gradientUnits="userSpaceOnUse" x1="78.269798" x2="731.95831" xlink:href="#E" y1="134.1104" y2="787.79883"/><g transform="matrix(.50013024 0 0 .49976018363 -2.50065144999 -2.34887268819)"><path d="m228.9 1018.4-61 17.7c-1.2.3-2.4.7-3.7 1s-2.6.6-4 .9-2.8.6-4.2.8c-1.4.3-2.9.5-4.5.8l61.6-17.8c1.5-.2 2.9-.5 4.3-.7 1.4-.3 2.8-.5 4.1-.8s2.6-.6 3.8-.9c1.2-.4 2.4-.7 3.6-1z" fill="#dda544"/><path d="m2681.1 932.9-26.3-14.1c0-.5.1-.9.1-1.4s.1-.9.1-1.4.1-.9.1-1.4.1-.9.1-1.4l26.3 13.9c0 .5-.1 1-.1 1.5s-.1 1-.1 1.5-.1 1-.1 1.5c-.1.3-.1.8-.1 1.3z" fill="#d3ac6e"/><path d="m2443.3 919.8-18-13.7c0-.5 0-.9.1-1.4 0-.5 0-.9.1-1.4 0-.5 0-.9.1-1.4s0-.9.1-1.4l18 13.5c0 .5 0 1-.1 1.5 0 .5 0 1-.1 1.5 0 .5 0 1-.1 1.5 0 .3-.1.8-.1 1.3z" fill="#d3ac6e"/><path d="m1353.2 897.4-20.6 13.4c-1.9 1.3-4 2.4-6.1 3.4-2.2 1-4.4 1.9-6.7 2.7s-4.8 1.4-7.3 1.8c-2.5.5-5.1.8-7.7.9l21.5-13.7c2.5-.1 5-.4 7.4-.9 2.4-.4 4.8-1 7-1.8 2.3-.7 4.4-1.6 6.5-2.6 2.1-.9 4.1-2 6-3.2z" fill="#dda544"/><path d="m2112.1 909.8-6.5-13.3c0-.5 0-.9 0-1.4s0-.9 0-1.4 0-.9 0-1.4 0-.9 0-1.4l6.5 13.1v1.5 1.5 1.5z" fill="#d3ac6e"/><path d="m2801.8 932-30.5-14.1c1.4.7 2.9 1.3 4.5 1.8 1.5.5 3.1 1 4.7 1.5 1.6.4 3.3.8 4.9 1.1 1.7.3 3.4.5 5.1.6l31.2 14.3c-1.8-.1-3.6-.4-5.3-.7s-3.5-.7-5.1-1.1c-1.7-.4-3.3-.9-4.9-1.5-1.5-.6-3.1-1.2-4.6-1.9z" fill="url(#b)"/><path d="m1586.9 880.7-12.1 12.8c-2.2 2.3-4.6 4.4-7.4 6.2-2.7 1.9-5.7 3.5-8.8 4.9-3.2 1.4-6.5 2.5-10.1 3.2-3.5.8-7.2 1.3-11 1.4l13.4-13.3c3.7-.1 7.2-.6 10.6-1.3s6.6-1.8 9.7-3.1 5.9-2.9 8.5-4.7c2.7-1.8 5.1-3.9 7.2-6.1z" fill="#bb924a"/><path d="m2629.9 918.3-24.5-13.6c1.7.9 3.5 1.8 5.3 2.6s3.8 1.4 5.7 2 4 1 6.1 1.4 4.2.6 6.4.8l25.3 13.9c-2.2-.1-4.5-.4-6.6-.8s-4.3-.9-6.3-1.5-4-1.3-5.9-2.1-3.8-1.7-5.5-2.7z" fill="url(#c)"/><path d="m2286.2 894-12.6-12.8c2.1 2.1 4.5 4.1 7.1 5.8s5.4 3.3 8.4 4.5c3 1.3 6.2 2.3 9.5 3s6.8 1.2 10.4 1.3l13.8 13.3c-3.7-.1-7.3-.6-10.8-1.3s-6.8-1.8-9.9-3.1-6-2.9-8.7-4.7c-2.5-1.8-5-3.8-7.2-6z" fill="url(#d)"/><path d="m3594.4 551.8-58-.9c2.9-2 4.8-4.5 5.7-7.2.9-2.6.9-5.4 0-8.1-.9-2.6-2.7-5-5.2-6.9-2.6-1.9-5.9-3.3-9.9-3.9-13.9-1.9-27.8-3.9-41.7-5.8s-27.8-3.8-41.7-5.6-27.8-3.7-41.8-5.4c-13.9-1.8-27.8-3.5-41.8-5.3l51.6-.8c14.4 1.8 28.8 3.6 43.3 5.5s28.8 3.7 43.3 5.6c14.4 1.9 28.8 3.8 43.2 5.8s28.8 3.9 43.2 6c4.2.6 7.6 2 10.3 4 2.6 2 4.5 4.5 5.4 7.2s1 5.6 0 8.3-2.9 5.4-5.9 7.5z" fill="url(#f)"/><path d="m1328.7 425.1 20.7 3.5c-12.7.6-25.4 1.3-38.1 2s-25.4 1.4-38.1 2.1-25.4 1.5-38.1 2.2-25.4 1.6-38.1 2.4c-9.3.6-16.9 2.6-23.1 5.3s-11 6.1-14.6 9.4-6 6.5-7.6 9c-1.5 2.4-2.2 4-2.2 4l-27.9-2.2s.7-1.6 2.3-4.1 4.1-5.9 7.9-9.3 8.7-6.9 15.1-9.7 14.3-4.9 23.9-5.5c13.2-.8 26.3-1.7 39.5-2.4 13.2-.8 26.3-1.6 39.5-2.3s26.3-1.5 39.5-2.2c13.1-.8 26.3-1.5 39.4-2.2z" fill="url(#h)"/><path d="m2443.6 913.9-18-13.5h.7.7.7.7c6.2 0 12.1-1 17.6-2.8s10.3-4.4 14.5-7.7c4.2-3.2 7.6-7.1 10.1-11.5s3.9-9.2 4.2-14.3c1.8-36.4 3.6-72.7 5.3-109.1 1.8-36.4 3.6-72.7 5.3-109.1 1.8-36.4 3.6-72.7 5.3-109.1 1.8-36.4 3.6-72.7 5.3-109.1l20.6-3.5c-1.8 37.7-3.7 75.4-5.5 113s-3.7 75.4-5.5 113c-1.8 37.7-3.7 75.4-5.5 113-1.8 37.7-3.7 75.4-5.5 113-.3 5.3-1.8 10.3-4.3 14.8s-6.1 8.5-10.4 11.9-9.4 6.1-15 7.9c-5.6 1.9-11.8 2.9-18.2 2.9-.2 0-.5 0-.7 0s-.5 0-.7 0-.5 0-.7 0-.8.2-1 .2z" fill="url(#i)"/><path d="m2516.5 424.3-20.6 3.5c-18.3-.9-36.6-1.7-54.9-2.6s-36.6-1.6-54.9-2.3-36.6-1.4-54.9-2-36.6-1.2-54.9-1.8l12.7-3.8c19 .6 37.9 1.2 56.9 1.8 19 .7 37.9 1.4 56.9 2.1s37.9 1.5 56.9 2.4 37.8 1.7 56.8 2.7z" fill="#806530"/><path d="m1964.2 399.3-1.4 4.4c-18.9 5.6-37.7 11.2-56.5 16.9s-37.6 11.4-56.3 17.2c-18.8 5.8-37.5 11.6-56.2 17.5s-37.4 11.8-56 17.8l-6.7-1.9c19.3-6.2 38.7-12.3 58-18.4 19.4-6.1 38.8-12.1 58.2-18.1s38.9-11.9 58.4-17.8 39-11.8 58.5-17.6z" fill="#806530"/><path d="m3003.5 1002.7-37.5-16.6c34.4-38.1 60.1-76.8 78.5-115.4s29.3-77.2 34.1-115 3.4-74.7-2.8-110.1-17.5-69.3-32.4-100.9c-14.7-31.6-33.1-60.9-53.7-87.2s-43.3-49.5-66.7-69-47.4-35.2-70.4-46.3c-23.1-11.2-45.3-17.8-65-19.1l31.1-7.3c20.4 1.4 43.4 8.2 67.3 19.8s48.8 27.8 73 48 47.8 44.3 69.1 71.5 40.4 57.6 55.6 90.3c15.5 32.7 27.1 67.8 33.6 104.5s7.9 75 2.9 114.1-16.3 79.1-35.4 119.1c-19 40.1-45.7 80.2-81.3 119.6z" fill="url(#j)"/><path d="m3519.2 318.1 57.4-7.5c2-.3 4.1-.5 6.2-.7s4.2-.4 6.3-.5 4.3-.2 6.5-.3 4.4-.1 6.6-.1c2.7 0 5.4 0 8.1.1s5.5.3 8.3.5 5.6.5 8.5.8 5.7.7 8.6 1.1c32.3 4.6 55.4 14.7 71.8 27.1s26.2 27.3 31.9 41.6 7.4 28 7.6 38.1-.9 16.7-.9 16.7l-63.3 3.2s1.1-6.3.9-16.1-1.9-23-7.4-36.8-14.9-28.1-30.8-40.2c-15.8-12-38.1-21.7-69.3-26.2-2.8-.4-5.6-.7-8.3-1s-5.5-.5-8.2-.7-5.4-.3-8-.4-5.2-.1-7.8-.1c-2.1 0-4.3 0-6.4.1s-4.2.2-6.2.3c-2.1.1-4.1.3-6.1.5-2.1 0-4 .2-6 .5z" fill="url(#k)"/><path d="m3821.8 304.7-65.9 7.7c2.7-.3 5.4-1.1 7.9-2s4.8-2.1 6.7-3.3c2-1.2 3.6-2.3 4.8-3.1 1.2-.9 1.9-1.5 2-1.6l66.7-8c-.1.1-.9.8-2.1 1.7s-2.9 2.1-4.9 3.3-4.4 2.4-7 3.4c-2.6.8-5.3 1.6-8.2 1.9z" fill="url(#l)"/><path d="m2772.4 311.6c-.5-2.9-1.4-5.6-2.9-8.1s-3.5-4.7-6.3-6.7c-2.7-2-6.2-3.8-10.4-5.4-2.8-1.1-5.8-2.1-8.9-3-3.1-.8-6.4-1.6-9.9-2.1-3.5-.6-7.1-1-10.9-1.3s-7.8-.4-12-.4l-27.3 8.4c4 0 7.9.1 11.6.4s7.2.7 10.6 1.2 6.5 1.2 9.6 2.1c3 .8 5.9 1.8 8.6 2.9 4.1 1.5 7.4 3.3 10.1 5.2 2.6 1.9 4.6 4.1 6 6.5s2.3 5 2.8 7.8.5 5.9.3 9.1c-3.2 45.8-6.4 91.6-9.6 137.4s-6.4 91.6-9.6 137.4-6.4 91.6-9.6 137.4-6.4 91.6-9.6 137.4c-.4 5-1.9 9.7-4.4 14-2.5 4.2-5.9 8-10 11.2-4.1 3.1-9 5.7-14.3 7.4s-11.1 2.7-17.2 2.7c-.3 0-.6 0-.9 0s-.6 0-1 0c-.3 0-.6 0-1 0s-.6 0-1-.1l26.3 13.9c.3 0 .7 0 1 .1h1 1 1c6.3 0 12.3-1 17.8-2.8s10.5-4.4 14.8-7.7 7.8-7.2 10.4-11.6 4.1-9.3 4.5-14.5c3.3-47.5 6.6-94.9 9.9-142.4s6.6-94.9 9.9-142.4 6.6-94.9 9.9-142.4 6.6-94.9 9.9-142.4c.3-3.1.3-6.2-.2-9.2z" fill="url(#m)"/><path d="m1560.3 267.6 12.6 9c-.9-.7-2-1.3-3.2-1.8s-2.4-1-3.8-1.4-2.8-.7-4.4-.9-3.2-.3-5-.3c-1.9 0-4 .1-6.2.4s-4.5.7-6.9 1.3-5 1.3-7.7 2.2-5.5 2-8.5 3.3l-14.3-8.9c3.1-1.3 6-2.5 8.8-3.4 2.8-1 5.5-1.7 8-2.3s4.9-1 7.2-1.3 4.4-.4 6.4-.4c1.8 0 3.6.1 5.2.3s3.1.5 4.5.9 2.7.9 3.9 1.5c1.3.5 2.4 1.1 3.4 1.8z" fill="url(#n)"/><path d="m2122.4 258.4-6.9 9.3c-1.8 1.8-12.3 11.2-27 24.2-14.7 13.1-33.6 29.8-52.2 46.3s-37.1 32.9-50.8 45.1-22.7 20.3-22.6 20.4l1.4-4.4c-.1-.1 9.2-8.5 23.4-21.1s33.3-29.5 52.6-46.7c19.3-17.1 38.9-34.5 54.1-48s26.1-23.3 28-25.1z" fill="#8b7035"/><path d="m3628 1030-59.2-17.5c-47.7-14.1-94.8-34.2-138.2-61.6s-83.1-62-115.6-105.1c-32.6-43.1-58.1-94.7-73.3-156s-20-132.4-11.2-214.5c2.6-23.2 7.4-44.4 13.6-63.6 6.2-19.1 13.8-36.2 21.9-51s16.8-27.6 25.2-38.2 16.5-18.9 23.5-25c3.2-2.8 5.4-6.2 6.6-9.8s1.4-7.4.7-11.1-2.4-7.2-4.9-10.2-5.9-5.5-10.1-7.1c-1.2-.5-2.4-.9-3.7-1.3s-2.5-.8-3.8-1.1-2.6-.6-4-.8c-1.3-.2-2.7-.4-4.1-.6l49.2-9.7c1.4.2 2.9.4 4.2.6 1.4.3 2.8.5 4.1.9 1.4.3 2.7.7 4 1.1s2.6.9 3.8 1.3c4.3 1.7 7.8 4.2 10.4 7.4 2.6 3.1 4.3 6.7 5.1 10.5s.5 7.8-.7 11.5-3.5 7.3-6.9 10.2c-7.3 6.3-15.7 14.9-24.3 25.9-8.7 10.9-17.7 24.1-26.1 39.5s-16.3 33.1-22.7 52.9-11.4 41.8-14.1 65.8c-9.1 85-4.1 158.7 11.6 222.2s42.2 117 75.9 161.7c33.8 44.7 74.8 80.5 119.8 108.8 45.1 28.5 94 49.3 143.3 63.9z" fill="url(#o)"/><path d="m3340.6 245.9-49.2 9.7c.1-.5.1-.9.2-1.4s.1-.9.2-1.4.1-.9.2-1.4.1-.9.2-1.4l49.2-9.9c-.1.5-.1 1-.2 1.5s-.1 1-.2 1.5-.1 1-.2 1.5c-.1.3-.2.8-.2 1.3z" fill="#d3ac6e"/><path d="m3213.4 250 46.4-9.9c1.1-.2 2.1-.4 3.2-.6s2.2-.3 3.3-.4 2.2-.2 3.4-.3c1.1-.1 2.3-.1 3.5-.1h1.9c.6 0 1.2 0 1.9.1.6 0 1.3.1 1.9.1.6.1 1.3.1 1.9.2l-47.1 10c-.6-.1-1.2-.1-1.8-.2s-1.2-.1-1.8-.1-1.2-.1-1.8-.1-1.2 0-1.8 0c-1.1 0-2.2 0-3.3.1s-2.2.1-3.3.3c-1.1.1-2.1.3-3.2.4-1.2.1-2.3.3-3.3.5z" fill="url(#q)"/><path d="m3158.4 469.9-42.9 1.9c1.7-16.2 3.3-32.4 5-48.7 1.7-16.2 3.3-32.4 5-48.7 1.7-16.2 3.3-32.4 5-48.7 1.7-16.2 3.3-32.5 5-48.7.5-5.3-.3-10.4-2.4-15.3s-5.3-9.3-9.5-13.2-9.3-7.3-15-9.8c-5.8-2.5-12.2-4.3-19.1-4.9l41.9-10.5c7.2.7 13.8 2.5 19.8 5.1s11.3 6.1 15.6 10.1 7.7 8.7 9.8 13.7 3 10.4 2.5 15.8c-1.7 16.8-3.5 33.6-5.2 50.4s-3.5 33.6-5.2 50.4-3.5 33.6-5.2 50.4c-1.6 17.1-3.3 33.9-5.1 50.7z" fill="url(#r)"/><path d="m1318.4 219.7 21.1 10.6c-76.7 6.6-135.7 44.5-178 100.7s-67.8 130.9-77.7 211.1-4.1 165.9 16.4 244.3 55.5 149.5 104.1 200.3l-25.9 16.6c-50.4-52.7-86.7-126.3-107.8-207.6-21.2-81.2-27.2-170-16.9-253.1 10.2-83.1 36.7-160.4 80.5-218.7s104.7-97.3 184.2-104.2z" fill="url(#s)"/><path d="m3131.6 223.4-41.9 10.5c0-.5.1-.9.1-1.4s.1-.9.1-1.4.1-.9.1-1.4.1-.9.1-1.4l41.9-10.7c-.1.5-.1 1-.1 1.5s-.1 1-.1 1.5-.1 1-.1 1.5c0 .3-.1.8-.1 1.3z" fill="#d3ac6e"/><path d="m33.5 215.5 65.7 10.8c-1.1-.2-2.1-.3-3.2-.5-1.1-.1-2.2-.2-3.2-.3s-2.2-.2-3.3-.2-2.2-.1-3.3-.1-2.2 0-3.3.1-2.2.1-3.4.2-2.3.2-3.4.3-2.3.3-3.4.5l-66.8-10.8c1.2-.2 2.4-.4 3.6-.5s2.4-.3 3.5-.3c1.2-.1 2.3-.2 3.5-.2s2.3-.1 3.5-.1 2.3 0 3.5.1c1.1 0 2.3.1 3.4.2s2.3.2 3.4.3c1 .1 2.1.3 3.2.5z" fill="#dda544"/><path d="m1022.5 203.5 31.3 11.2c-1.6-.6-3.1-1-4.8-1.5-1.6-.4-3.3-.8-5-1.1s-3.5-.5-5.2-.7c-1.8-.1-3.6-.2-5.4-.2-.4 0-.8 0-1.2 0s-.8 0-1.3 0-.8 0-1.3.1-.8.1-1.3.1l-32.2-11.3c.4 0 .9-.1 1.3-.1s.9 0 1.3-.1h1.3 1.3c1.9 0 3.8.1 5.6.2s3.6.4 5.4.7 3.5.7 5.2 1.1c1.8.5 3.4 1 5 1.6z" fill="#806530"/><path d="m1962.1 260.8-1.3 9.2s-.7-1.1-2.2-2.9c-1.4-1.9-3.5-4.5-6.3-7.7s-6.2-7-10.2-11-8.6-8.3-13.8-12.6-10.9-8.5-17.1-12.6c-6.2-4-13-7.8-20.1-11-7.2-3.2-14.8-5.9-22.9-7.8s-16.5-2.9-25.4-2.9c-11.9.1-23 1-33.5 2.8-10.4 1.8-20.1 4.3-29.1 7.7s-17.2 7.6-24.8 12.7-14.4 10.9-20.5 17.6-11.6 13.9-16.4 21.6-8.9 16-12.2 24.8-5.8 18.1-7.5 27.8c-1.7 9.8-2.5 20.1-2.5 30.9.9 42.1 1.7 84.3 2.6 126.4s1.7 84.3 2.6 126.4 1.7 84.3 2.6 126.4 1.7 84.3 2.6 126.4c.1 5.2 1.5 10.2 3.9 14.7s5.9 8.5 10.1 11.9 9.3 6.1 14.8 8 11.7 2.9 18.1 2.9l-5.2 13.1c-6.6 0-13.9-1.1-19.7-3-5.8-2-11-4.8-15.4-8.3s-8-7.7-10.5-12.4-4-9.8-4.1-15.2c-.9-43.7-1.8-87.3-2.6-131s-1.8-87.3-2.6-131c-.9-43.7-1.8-87.3-2.6-131s-1.8-87.3-2.6-131c-.1-11.2.8-21.9 2.6-32s4.4-19.8 7.8-28.9 7.7-17.6 12.6-25.6c5-8 10.7-15.5 17-22.4 6.4-6.9 13.4-13 21.3-18.3 7.8-5.2 16.4-9.6 25.7-13.2 9.3-3.5 19.4-6.2 30.2-8s22.4-2.8 34.7-2.9c9.2 0 17.9 1.1 26.3 3s16.3 4.7 23.7 8 14.4 7.2 20.9 11.4c6.4 4.2 12.4 8.6 17.7 13 5.4 4.4 10.1 8.9 14.3 13s7.7 8 10.6 11.4 5.1 6.1 6.5 8c1.2 2.5 1.9 3.6 1.9 3.6z" fill="url(#t)"/><path d="m2645.3 205.1 25.9-11.5c1.9-.8 3.8-1.6 5.8-2.2s4.1-1.2 6.2-1.6 4.3-.8 6.5-1 4.5-.3 6.8-.3h1.1 1.1 1.1c.4 0 .7 0 1.1.1l-27 11.7c-.3 0-.7 0-1-.1-.3 0-.7 0-1 0s-.7 0-1 0-.7 0-1 0c-2.2 0-4.4.1-6.5.3s-4.2.5-6.3 1c-2 .4-4 .9-6 1.6s-4 1.2-5.8 2z" fill="url(#u)"/><path d="m2519 371.7-20.6 5.4c.6-12.3 1.2-24.6 1.8-36.9s1.2-24.6 1.8-36.9 1.2-24.6 1.8-36.9 1.2-24.6 1.8-36.9c.3-5.3-.9-10.4-3.2-15.1s-5.8-9-10.1-12.7c-4.4-3.7-9.6-6.8-15.5-9s-12.4-3.6-19.4-3.9l19.2-12.1c7.2.3 13.9 1.7 20.1 4 6.1 2.3 11.6 5.5 16.1 9.3s8.1 8.3 10.5 13.2 3.6 10.2 3.3 15.7c-.6 12.8-1.3 25.5-1.9 38.3s-1.3 25.5-1.9 38.3-1.3 25.5-1.9 38.3-1.3 25.1-1.9 37.9z" fill="url(#v)"/><path d="m2711.1 284.7-27.3 8.4c-.5 0 6-6.7 16-16.6 10.1-9.9 23.7-23.2 37.4-36.4s27.5-26.4 37.8-36.4c10.4-9.9 17.4-16.5 17.5-16.5l31.2-12.2c-.1 0-7.4 6.8-18.1 17.1-10.8 10.3-25 24-39.2 37.7s-28.3 27.4-38.7 37.7c-10.4 10.2-17.2 17.1-16.6 17.2z" fill="url(#w)"/><path d="m1488.7 172.3 15.1 12.3c-6.9.3-13.5 1.6-19.4 3.7s-11.2 5.2-15.6 8.8-7.9 7.9-10.2 12.6-3.5 9.8-3.3 15.1c.5 12.3 1 24.6 1.5 37 .5 12.3 1 24.6 1.5 36.9s1 24.6 1.5 36.9 1 24.6 1.5 37c.2 4.2.3 8.5.5 12.7s.3 8.5.5 12.7.3 8.5.5 12.7.3 8.5.5 12.7c1.5 36.4 2.9 72.8 4.4 109.2s2.9 72.8 4.4 109.2 3 72.8 4.4 109.2c1.5 36.4 3 72.8 4.4 109.2.2 5.2 1.7 10 4.1 14.4s5.9 8.3 10.1 11.6 9.1 5.9 14.6 7.8c5.2 1.7 10.9 2.7 16.9 2.8l-11.3 13.3c-10.3 2-14.9-1-20.6-2.9s-10.8-4.6-15.1-8-7.9-7.5-10.4-12c-2.5-4.6-4-9.6-4.3-14.9-1.5-37.7-3.1-75.4-4.6-113.1s-3.1-75.4-4.6-113.1-3.1-75.4-4.6-113.1-3.1-75.4-4.6-113.1c-.2-4.4-.4-8.8-.5-13.2-.2-4.4-.4-8.8-.5-13.2-.2-4.4-.4-8.8-.5-13.2-.2-4.4-.4-8.8-.5-13.2-.5-12.8-1-25.5-1.6-38.3-.5-12.8-1-25.5-1.5-38.3s-1-25.5-1.5-38.3-1-25.5-1.6-38.3c-.2-5.5 1-10.8 3.4-15.6s6.1-9.3 10.6-13.1 10-6.9 16.2-9.2c6.2-2.1 13-3.5 20.2-3.7z" fill="url(#x)"/><path d="m2294 196.7 13.3-11.8c2.3-2.1 4.9-4 7.8-5.6s5.9-3.1 9.2-4.3 6.7-2.1 10.3-2.7 7.4-.9 11.2-.9h.6.6.6.6l-14.7 12.3c-.2 0-.4 0-.6 0s-.4 0-.6 0-.4 0-.6 0-.4 0-.6 0c-3.7 0-7.3.3-10.8.9s-6.8 1.5-10 2.6-6.1 2.5-8.9 4.1c-2.6 1.6-5.1 3.4-7.4 5.4z" fill="url(#y)"/><path d="m2476.6 176.4-19.2 12.1c0-.5 0-.9.1-1.4s0-.9.1-1.4c0-.5 0-.9.1-1.4s0-.9.1-1.4l19.2-12.3c0 .5 0 1-.1 1.5 0 .5 0 1-.1 1.5 0 .5 0 1-.1 1.5s-.1.9-.1 1.3z" fill="#d3ac6e"/><path d="m1488.5 166.4 15.1 12.5v1.4 1.4 1.4 1.4l-15.1-12.3c0-.5 0-1-.1-1.5 0-.5 0-1-.1-1.5s0-1-.1-1.5c.3-.3.3-.8.3-1.3z" fill="#d3ac6e"/><path d="m2112.2 903.9-6.5-13.1c6.6 0 12.9-1 18.6-2.9s10.8-4.6 15.1-8 7.8-7.4 10.2-11.9 3.8-9.5 3.9-14.7c1.1-53 2.1-105.9 3.2-158.9s2.1-105.9 3.2-158.9 2.1-105.9 3.2-158.9 2.1-105.9 3.2-158.9c.1-5.3-1.2-10.4-3.6-15s-6-8.9-10.5-12.4-9.8-6.5-15.8-8.5-12.5-3.2-19.5-3.3l6.9-12.5c7.2.1 14 1.3 20.2 3.5s11.7 5.1 16.3 8.8 8.3 8 10.9 12.9c2.5 4.8 3.9 10.1 3.8 15.6-1.1 54.9-2.2 109.8-3.3 164.6s-2.2 109.8-3.3 164.6c-1.1 54.9-2.2 109.8-3.3 164.6-1.1 54.9-2.2 109.7-3.3 164.6-.1 5.4-1.6 10.6-4.1 15.2-2.5 4.7-6.1 8.9-10.6 12.4s-9.8 6.3-15.7 8.3c-5.9 1.7-12.4 2.8-19.2 2.8z" fill="url(#z)"/><path d="m2123.8 165.8-6.9 12.5c0-.5 0-.9 0-1.4s0-.9 0-1.4 0-.9 0-1.4 0-.9 0-1.4l6.9-12.7v1.5 1.5 1.5z" fill="#d3ac6e"/><path d="m934.1 331.2c-1.1-13.7-3.1-27.8-6.1-42.4-2.9-14.6-6.8-29.7-11.4-45.4-4.7-15.7-10.2-32.1-16.4-49.4-6.3-17.2-13.3-35.3-21.1-54.3l-37.6-13.9c8 19.7 15.3 38.4 21.8 56.3 6.5 17.8 12.2 34.8 17 51.1s8.8 31.9 11.8 47 5.2 29.7 6.3 43.9c3.3 43.7-1.2 94.9-13.6 149.4s-32.9 112.4-61.8 169.5c-28.9 57-66.1 113.2-112.1 164.3s-100.7 97.1-164.5 133.8c-17.6 10.1-33.6 19.3-47.7 27.4s-26.2 15-36.2 20.7c-9.9 5.7-17.7 10.1-23 13-5.3 3-8 4.5-8.1 4.5l51.8-16.7s2.7-1.5 7.8-4.4 12.6-7.1 22.2-12.6 21.3-12.2 34.9-19.9c13.6-7.8 29-16.6 46-26.4 61.6-35.5 114.4-79.9 158.8-129.2s80.3-103.5 108.2-158.6c27.9-55 47.6-110.9 59.6-163.6s16.5-101.9 13.4-144.1z" fill="url(#A)"/><path d="m886 108.4 36.1 14.5c-4.3.4-8.4 1-12.3 2-4 .9-7.8 2.1-11.4 3.6-3.6 1.4-7.1 3.1-10.3 5s-6.2 4-8.9 6.2l-37.6-13.9c2.8-2.4 5.9-4.5 9.3-6.5s6.9-3.7 10.6-5.2 7.7-2.7 11.8-3.7c4-.9 8.3-1.6 12.7-2z" fill="#806530"/><path d="m885.4 102.6 36.1 14.7c0 .5.1.9.1 1.4.1.5.1.9.2 1.4s.1.9.2 1.4.1.9.1 1.4l-36.1-14.5c-.1-.5-.1-1-.2-1.5s-.1-1-.2-1.5-.1-1-.2-1.5c.1-.3 0-.8 0-1.3z" fill="#d3ac6e"/><path d="m564.7 86.9 47.2 15.2c-5.7-1.8-11.6-3.5-17.7-4.9s-12.4-2.6-19-3.6c-6.5-1-13.3-1.7-20.2-2.2-7-.5-14.1-.8-21.5-.8-3.3 0-6.6.1-10 .2s-6.8.3-10.2.5-7 .5-10.5.8-7.1.7-10.8 1.1c-48 6-84.3 18.6-111.4 35.2-27.1 16.7-45.2 37.4-56.9 59.8-11.7 22.3-17.1 46.2-18.9 69-1.8 22.9-.1 44.7 2.5 63.1.8 5.7 5.1 36.8 11.5 82.2 6.3 45.4 14.7 105.2 23.5 168.1s18 129.1 26.1 187.2 15.1 108.4 19.5 139.5c.6 3.9 1.6 7.7 3 11.2 1.5 3.5 3.3 6.7 5.5 9.4s4.8 4.9 7.6 6.5c2.8 1.5 6 2.4 9.3 2.4h1.3c.4 0 .9-.1 1.3-.1.4-.1.9-.1 1.3-.2.5-.1.9-.2 1.4-.3l-54.2 14.4c-.5.1-.9.2-1.4.3s-.9.2-1.4.2c-.5.1-.9.1-1.4.1s-.9 0-1.4 0c-3.5 0-6.7-.9-9.7-2.5-2.9-1.6-5.6-3.9-7.9-6.7s-4.2-6.1-5.7-9.8c-1.5-3.6-2.6-7.6-3.1-11.7-4.5-32.3-11.8-84.3-20.2-144.6s-18-128.8-27.1-194-17.5-126.8-24.1-173.9-11.1-79.3-11.9-85.2c-2.7-19-4.5-41.7-2.6-65.4s7.5-48.4 19.6-71.5 30.8-44.6 59-61.9c28.1-17.3 65.6-30.3 115.4-36.5 3.8-.4 7.5-.8 11.1-1.2 3.7-.3 7.3-.6 10.9-.8s7.1-.4 10.6-.5 6.9 0 10.3 0c7.7 0 15.1.3 22.3.8s14.2 1.3 20.9 2.3c6.8 1 13.3 2.3 19.6 3.7 6.4 1.5 12.6 3.2 18.5 5.1z" fill="url(#B)"/><path d="m816.6 64.6 38.5 16c7.8 3.3 15.2 6.5 21.9 9.8s13 6.4 18.6 9.5 10.6 6.1 14.9 9 8 5.7 11 8.3l-36.1-14.7c-3.1-2.7-6.9-5.6-11.4-8.6s-9.7-6.1-15.5-9.4c-5.8-3.2-12.2-6.5-19.2-9.9-7-3.2-14.6-6.6-22.7-10z" fill="#bb924a"/><path d="m3401.4 560.6c2.5-20.3 5.9-39.9 10.1-58.7 57.7 7.2 115.4 14.8 173 22.9 16.7 2.3 21.9 18.6 9.8 27 32-18.1 64.3-40.4 94.7-65.2-87.5-12.9-175.1-24.9-262.8-35.9 33.3-93.6 98-154.9 209.3-139.3 129.5 18.6 110.4 123.7 110.5 123.5 45.3-45.8 81.6-95.4 98-140.6 0 0-14.7 12.5-28.2 10.4-125.6-19.6-251.3-37.2-377.3-52.9-16.4-2-32.7-4-49.1-6-16.1-1.9-32.1-3.8-48.2-5.7-.2 1.9-.5 3.9-.7 5.8 5.7.7 11.2 2 16.2 4 17.3 6.7 21.4 27.9 7.9 39.6-29 25.2-76.4 87.8-87.2 184.1-39.1 364.2 181 519.5 392.5 567.5-227.7-75.9-294.4-267.6-268.5-480.5z" fill="url(#D)"/><path d="m3376.5 253.8c4 .5 7.9.9 11.8 1.4 15.6 1.9 31.6 3.8 49 6 125.4 15.6 252.2 33.4 377 52.9 1.5.2 3 .4 4.6.4 2.1 0 4.3-.2 6.3-.6-7.1 14.5-16.2 29.6-27.2 45.1-12 17.1-26.1 34.4-42.1 51.7-.1-.6-.1-1.3-.2-1.9-2-20.5-9.1-39.6-20.5-55.3-20.2-27.7-53.3-45-98.4-51.5-11.9-1.7-23.6-2.5-34.8-2.5-86.4 0-150.3 51.2-184.8 148l-4 11.1 11.7 1.5c80 10 160.9 21 240.8 32.7-18.9 14.5-37.9 27.6-56.9 39.4-3.4-8.8-12.1-15.3-23.1-16.8-57.3-8-115.6-15.7-173.1-22.9l-8.5-1.1-1.9 8.4c-4.2 18.8-7.7 38.9-10.3 59.7-23.4 191.7 30.1 339.5 152 428.4-54.9-26.1-110.9-63.7-157-118.2-39.5-46.6-68.2-101.5-85.3-163.2-19-68.5-24-146.6-14.8-232 4.7-41.6 16.7-80.4 35.7-115.2 19.5-35.7 40.3-55.8 48.3-62.8 8.7-7.6 12.7-18.8 10.8-30-.7-4.6-2.5-8.9-5.1-12.7m-35.3-13.7c-.2 1.9-.5 3.9-.7 5.8 5.7.7 11.2 2 16.2 4 17.3 6.7 21.4 27.9 7.9 39.6-29 25.2-76.4 87.8-87.2 184.1-39.1 364.2 181 519.5 392.5 567.5-227.8-75.8-294.5-267.5-268.5-480.3 2.5-20.3 5.9-39.9 10.1-58.7 57.7 7.2 115.4 14.8 173 22.9 16.7 2.3 21.9 18.6 9.8 27 32-18.1 64.3-40.4 94.7-65.2-87.5-12.9-175.1-24.9-262.8-35.9 29.8-83.8 84.8-141.7 175.9-141.7 10.7 0 21.8.8 33.5 2.4 129.3 18.6 110.4 123.6 110.4 123.6 45.3-45.8 81.6-95.4 98-140.6 0 0-12.5 10.6-25 10.6-1 0-2.1-.1-3.1-.2-125.6-19.6-251.3-37.2-377.3-52.9-16.4-2-32.7-4-49.1-6-16.1-2.3-32.2-4.2-48.3-6z" fill="url(#F)"/><path d="m2528.8 173c-17.3-.8-34.6-1.7-51.9-2.4-.1 2-.2 3.9-.3 5.9 28.7 1.3 51.1 20.2 50 42.2-2.5 51-5 102-7.5 153.1-76.2-3.7-152.3-6.7-228.6-9 1.5-51.1 3.1-102.1 4.6-153.2.6-22 24.4-39.1 53.1-38.1.1-2 .1-3.9.2-5.9-17.3-.6-34.6-1.1-52-1.7-40.2-1.2-80.4-2.2-120.5-3-17.3-.3-34.7-.7-52-.9 0 2-.1 3.9-.1 5.9 28.7.4 51.6 18.7 51.2 40.7-4.4 219.5-8.8 439-13.2 658.5-.5 22-22.7 39.3-49.6 38.9 0 2-.1 3.9-.1 5.9 16.3.3 32.5.5 48.8.9 37.7.8 75.4 1.7 113.1 2.8 16.3.5 32.5 1 48.8 1.6.1-2 .1-3.9.2-5.9-26.9-.9-48.2-19.4-47.6-41.3 4.5-150.8 9-301.7 13.5-452.5 75.9 2.3 151.7 5.3 227.6 9-7.4 150.7-14.8 301.5-22.2 452.2-1.1 22-23.8 38.7-50.7 37.5-.1 2-.2 3.9-.3 5.9 16.3.7 32.5 1.5 48.8 2.3 37.7 1.8 75.4 3.9 113 6.1 16.2 1 32.5 1.9 48.7 3 .1-2 .2-3.9.4-5.9-26.9-1.7-47.7-20.8-46.4-42.7 12.9-219.2 25.8-438.3 38.7-657.5 1.3-21.9 25.5-38.4 54.2-36.6.1-2 .2-3.9.4-5.9-17.3-1.1-34.6-2.1-51.9-3.2-40.1-2.6-80.3-4.7-120.4-6.7z" fill="url(#G)"/><path d="m2165.6 170.1c3.4.1 6.7.1 10.1.2 40 .8 80.5 1.8 120.4 3 3.4.1 6.7.2 10.1.3-12.3 8.6-20.2 21.3-20.6 35.6l-2.9 96.5-1.7 56.7-.3 9.5 9.5.3c76 2.3 152.8 5.3 228.4 9l9.5.5.5-9.5 3.6-74 3.9-79.1c.6-11.3-3.7-22.5-12-31.6-1.8-2-3.7-3.8-5.8-5.5 3.3.2 6.7.3 10.1.5 39.8 1.9 80.3 4.1 120.3 6.5 3.3.2 6.6.4 9.9.6-8.1 5.3-14.4 12.4-18 20.6l-2.6-1.6-.9 16-19.7 333.8-19.1 323.6c-.8 14.2 5.6 27.5 16.6 37.2-3.1-.2-6.2-.4-9.3-.6-37.6-2.2-75.7-4.3-113.1-6.1-3-.1-6.1-.3-9.2-.4 9.3-6.6 16.1-15.7 19-26.2h1l.4-9 10.8-220 11.4-232.2.5-9.5-9.5-.5c-75.6-3.7-152.2-6.7-227.7-9l-9.5-.3-.3 9.5-2.7 90.5-10.8 362c-.4 14.2 6.4 27.3 17.7 36.7-3.1-.1-6.2-.2-9.3-.3-37.4-1.1-75.5-2.1-113.2-2.8-3-.1-6-.1-9-.2 9-6.8 15.4-16 18-26.5h1l.2-9.3 5.7-285.6 7.5-372.9.2-9.7h-1.2c-1.8-7.8-5.8-15.2-11.9-21.5-1.9-1.7-3.9-3.5-6-5.2m-41.7-10.2c0 2-.1 3.9-.1 5.9 28.7.4 51.6 18.7 51.2 40.7-4.4 219.5-8.8 439-13.2 658.5-.5 21.7-22.1 38.9-48.6 38.9-.3 0-.6 0-1 0 0 2-.1 3.9-.1 5.9 16.3.3 32.5.5 48.8.9 37.7.8 75.4 1.7 113.1 2.8 16.3.5 32.5 1 48.8 1.6.1-2 .1-3.9.2-5.9-26.9-.9-48.2-19.4-47.6-41.3 4.5-150.8 9-301.7 13.5-452.5 75.9 2.3 151.7 5.3 227.6 9-7.4 150.7-14.8 301.5-22.2 452.2-1.1 21.2-22.3 37.5-48 37.5-.9 0-1.8 0-2.7-.1-.1 2-.2 3.9-.3 5.9 16.3.7 32.5 1.5 48.8 2.3 37.7 1.8 75.4 3.9 113 6.1 16.2 1 32.5 1.9 48.7 3 .1-2 .2-3.9.4-5.9-26.9-1.7-47.7-20.8-46.4-42.7 12.9-219.2 25.8-438.3 38.7-657.5 1.2-20.8 23.2-36.7 49.9-36.7 1.4 0 2.9 0 4.3.1.1-2 .2-3.9.4-5.9-17.3-1.1-34.6-2.1-51.9-3.2-40.1-2.4-80.3-4.5-120.4-6.5-17.3-.8-34.6-1.7-51.9-2.4-.1 2-.2 3.9-.3 5.9 28.7 1.3 51.1 20.2 50 42.2-2.5 51-5 102-7.5 153.1-76.2-3.7-152.3-6.7-228.6-9 1.5-51.1 3.1-102.1 4.6-153.2.6-21.4 23.1-38.1 50.8-38.1h2.4c.1-2 .1-3.9.2-5.9-17.3-.6-34.6-1.1-52-1.7-40.2-1.2-80.4-2.2-120.5-3-17.5-.4-34.8-.7-52.1-1z" fill="url(#H)"/><path d="m3281.3 233.2c-17.2-1.9-34.5-3.8-51.8-5.6-15.2-1.6-30.4-3.2-45.6-4.8-17.3-1.8-34.5-3.5-51.8-5.2-.2 1.9-.4 3.9-.6 5.8 28.6 2.8 49.9 22.9 47.7 44.8-6.9 67.2-13.9 134.5-20.8 201.7-43.3-121.2-145.8-233.6-334.8-294.9-.3-.2-114.8 109.5-114.5 109.7 17.5-.2 32 2.1 43.6 6.8 17 6.4 20.8 16.1 19.9 29.6-13.3 189.8-26.5 379.7-39.8 569.5-1.5 21.9-24.6 38.2-51.5 36.4-.1 2-.3 3.9-.4 5.9 16.2 1.1 32.5 2.2 48.7 3.3 14.3 1 28.6 2 42.9 3.1 16.2 1.2 32.5 2.4 48.7 3.7.2-1.9.3-3.9.5-5.8-26.9-2.1-47.4-21.5-45.8-43.4 14.2-192.6 28.4-385.3 42.5-577.9 81.7 5.5 204.1 98.7 265 229.6 61.8 131 62.3 299.6-80.2 457.3 89.9-53.7 157.7-137.6 178.8-333.5 14.1-132.1 28.2-264.1 42.4-396.2 2.3-21.8 27.4-37.1 56-33.9.5-2.1.7-4 .9-6z" fill="url(#I)"/><path d="m2826 185.7c206.9 68.8 290.1 194 323.5 287.4l14.1 39.4 4.3-41.7 15.3-148.4 5.5-53.1v-.2-.2l1-10.2h-1.4c-1.2-7.7-4.6-15.1-10-21.7-1.7-2.1-3.5-4-5.5-5.8 3.4.3 6.7.7 10.1 1 15.4 1.6 30.7 3.2 45.6 4.8 3.4.4 6.8.7 10.2 1.1-13.1 7.7-22 19.8-23.5 33.8l-41.5 387.7-.9 8.5c-9.8 91.1-30.2 161.9-62.4 216.2-15.5 26.2-33.8 48.8-55.9 69 88.1-128 102.3-274.9 37.6-412-29-62.2-74.2-120.9-127.3-165.1-49.9-41.6-103-67.1-145.7-70l-9.4-.6-.7 9.4-28.5 387.7-14 190.2-2.7 36.1c-11.4-.8-22.6-1.6-33.5-2.4-3-.2-6-.4-9-.6 9.5-6.4 16.4-15.5 19.4-26h.9l.6-8.8 36.4-521.2 3.4-48.3c1.3-19.6-6.9-32-25.9-39.1-7.3-2.9-15.7-5-25-6.2 26.8-25.6 80.2-76.7 94.9-90.7m-53.5 732.4c2.6 4.5 6.1 8.7 10.1 12.4-3.1-.2-6.2-.5-9.3-.7-2.5-.2-5.1-.4-7.6-.6zm51.2-743.1c-.5 0-114.8 109.5-114.5 109.7h1.8c16.7 0 30.6 2.3 41.8 6.8 17 6.4 20.8 16.1 19.9 29.6-13.3 189.8-26.5 379.7-39.8 569.5-1.5 20.8-22.4 36.5-47.5 36.5-1.3 0-2.6 0-4-.1-.1 2-.3 3.9-.4 5.9 16.2 1.1 32.5 2.2 48.7 3.3 14.3 1 28.6 2 42.9 3.1 16.2 1.2 32.5 2.4 48.7 3.7.2-1.9.3-3.9.5-5.8-26.9-2.1-47.4-21.5-45.8-43.4s0 0 0 0c14.2-192.6 28.4-385.3 42.5-577.9 81.7 5.5 204.1 98.7 265 229.6 61.8 131 62.3 299.6-80.2 457.3 89.9-53.7 157.7-137.6 178.8-333.5 14.1-132.1 28.2-264.1 42.4-396.2 2.1-19.9 23.1-34.3 48.4-34.3 2.5 0 5 .1 7.5.4.2-1.9.4-3.9.6-5.8-17.2-1.9-34.5-3.8-51.8-5.6-15.2-1.6-30.4-3.2-45.6-4.8-17.3-1.8-34.5-3.5-51.8-5.2-.2 1.9-.4 3.9-.6 5.8 28.6 2.8 49.9 22.9 47.7 44.8-6.9 67.2-13.9 134.5-20.8 201.7-43-121.3-145.5-233.8-334.4-295.1z" fill="url(#J)"/><path d="m1883.1 147.8c-55.4.2-121.2 15.9-181.7 36-103.6 34.3-191.7 81.4-191.7 81.4 1.1 1.8 2.1 3.6 3.2 5.3 37.1-16.1 54.1-3.1 54.5 9.8 5.9 195.8 11.8 391.7 17.7 587.5.6 22-20.7 40.4-47.6 41.3.1 2 .1 3.9.2 5.9 16.3-.6 32.5-1.1 48.8-1.6 37.7-1.1 75.4-2.1 113.1-2.8 16.3-.3 32.5-.6 48.8-.9 0-2-.1-3.9-.1-5.9-26.9.4-49.1-16.9-49.6-38.9-3.5-174.6-7.1-349.2-10.6-523.8-.2-44.8 14.6-81.2 40-109 25.4-27.7 62.5-41.9 110.9-42.3 73.7-.5 123.1 70.9 123 70.9-27.6 39.7-54.9 79.5-82 119.3-50.1 30-99.7 60.4-149.1 91 77.2-24.7 155-48.7 233.1-71.9-.5-.3 150.5-133.5 158.1-140.9.5.4-80.3-110.9-239-110.4z" fill="url(#K)"/><path d="m1884.1 157.2c34.5 0 67.9 5.5 99.3 16.3 25.3 8.7 49.4 20.8 71.7 36 27.7 18.9 45.9 38.2 54.2 47.8-12.9 11.6-42.6 37.9-71.5 63.5-19.6 17.4-39.9 35.4-55 48.8-8.1 7.2-14 12.5-18.2 16.2-2.3 2.1-4 3.6-5.2 4.7-.1.1-.2.2-.3.3-52.6 15.6-105.4 31.7-157.9 48.2 27.8-17 55.7-33.9 83.6-50.7l1.8-1.1 1.2-1.7c26.9-39.7 54.5-79.8 81.9-119.2l1.7-2.4v-3c0-3.3-1.3-5.1-4.2-8.8-1.4-1.9-3.8-4.9-6.9-8.5-5.5-6.3-14.4-15.9-26-25.5-29.7-24.6-62.4-37.6-94.6-37.6-.3 0-.6 0-.9 0-51 .4-90.6 15.7-117.9 45.4-28.4 31-42.8 69.8-42.5 115.4v.1.1l2.3 116.1 8.2 407.7.2 9.3h1c2.6 10.5 9 19.7 18 26.5-3 .1-6 .1-9 .2-37.4.8-75.5 1.7-113.2 2.8-3.1.1-6.2.2-9.3.3 8.6-7.2 14.7-16.5 16.8-26.9h1.2l-.3-9.8-6.7-221.3-11-366.2c-.3-10.9-8-22.4-24.2-25.7 35.2-16.8 91-41.6 151.7-61.6 69.5-23.1 131.3-35.4 178.8-35.5zm0-9.5c-.3 0-.7 0-1 0-55.4.2-121.2 15.9-181.7 36-103.6 34.3-191.6 81.4-191.7 81.4 1.1 1.8 2.1 3.6 3.2 5.3 12.3-5.3 22.4-7.5 30.4-7.5 16.1 0 23.8 8.7 24 17.3 5.9 195.8 11.8 391.7 17.7 587.5.6 22-20.7 40.4-47.6 41.3.1 2 .1 3.9.2 5.9 16.3-.6 32.5-1.1 48.8-1.6 37.7-1.1 75.4-2.1 113.1-2.8 16.3-.3 32.5-.6 48.8-.9 0-2-.1-3.9-.1-5.9-.3 0-.7 0-1 0-26.5 0-48.2-17.2-48.6-38.9-3.5-174.6-7.1-349.2-10.6-523.8-.2-44.8 14.6-81.2 40-109 25.4-27.7 62.5-41.9 110.9-42.3h.8c73.3 0 122.3 70.9 122.2 70.9-27.6 39.7-54.9 79.5-82 119.3-50.1 30-99.7 60.4-149.1 91 77.2-24.7 155-48.7 233.1-71.9-.5-.3 150.5-133.5 158.1-140.9.5.3-80-110.3-237.9-110.4z" fill="url(#L)"/><path d="m1316.1 173.9c-106.8 5.4-213.6 12.2-320.4 20.4.1 1.9.3 3.9.4 5.9 16.4-1.3 31.4 3.5 41.6 11.8 10.4 8.6 10.8 23.8 1.4 33.5-84.9 83.8-236.6 578.3 139.2 758-201.5-210.8-178-756.4 140-783.7 2.5 49.1 4.9 98.1 7.4 147.2.1 1.9.2 3.8.3 5.7-57.2 2.9-114.3 6.2-171.4 9.9-13.6 24.8-24.5 51.9-32.9 80.4 0 0 10.6-26.2 49.1-28.7 52.6-3.4 105.2-6.4 157.9-9 7.6 150.7 15.2 301.4 22.8 452.2 1.1 22-19.9 40.8-46.8 42.3.1 2 .2 3.9.3 5.9 16.2-.9 32.5-1.7 48.7-2.6 37.7-1.9 75.4-3.6 113.1-5.1 16.3-.7 32.5-1.3 48.8-1.9-.1-2-.1-3.9-.2-5.9-26.9 1-49.5-15.9-50.4-37.9-6.1-150.8-12.2-301.6-18.3-452.4-.7-17.5-1.4-35.1-2.1-52.6-2.1-51-4.1-102.1-6.2-153.1-.9-21.9 21.6-40.7 50.3-41.8-.1-2-.1-3.9-.2-5.9-41.7 1.5-83.4 3.2-125.2 5.2-15.7.6-31.5 1.4-47.2 2.2z" fill="url(#M)"/><path d="m1447 177.5c-2.1 1.7-4.1 3.5-5.9 5.5-5.9 6.4-9.8 13.8-11.4 21.6h-1.2l.4 9.9 3 73.3 3.2 79.8 2.1 52.6 9 222.9 9.3 229.4c.6 14.2 8.3 26.8 20.1 35.4-3.1.1-6.1.2-9.1.4-37.2 1.5-75.3 3.2-113.2 5.1-3.1.2-6.2.3-9.3.5 8.4-7.3 14.3-16.7 16.2-27.1h1.2l-.5-10-2.2-43.6-20.6-408.6-.5-9.5-9.5.5c-52.5 2.6-105.6 5.7-158 9-11.2.7-20.4 3.3-27.8 6.6 5.4-13.9 11.4-27.2 18-39.7 55-3.5 110.9-6.7 166-9.5l9.5-.5-.5-9.5-.1-1.7-.2-3.9-2.7-53.8-4.7-93.3-.5-9.8-9.8.8c-110.5 9.5-196.8 82.1-242.9 204.3-67.2 178-37.1 415.8 65.1 557.2-48.2-29.6-88-66.7-118.5-110.6-34.3-49.3-57.2-107.5-68.2-173-7.4-44.2-9.4-91.6-5.8-140.7 3.2-43.4 10.6-87.2 22-130.1 10-37.7 22.9-73.7 37.3-103.8 13.1-27.5 27-49.2 39.3-61.3l.1-.1.1-.1c6.5-6.7 9.9-15.7 9.4-24.7-.5-8.9-4.6-16.9-11.5-22.7-1.8-1.5-3.6-2.8-5.6-4 92.5-6.8 186-12.6 278.3-17.2 16-.8 31.9-1.6 47.2-2.3 27.8-1.4 55.6-2.6 83.4-3.7m41.5-11.1c-41.7 1.5-83.4 3.2-125.2 5.2-15.8.7-31.5 1.5-47.3 2.3-106.8 5.4-213.6 12.2-320.4 20.4.1 1.9.3 3.9.4 5.9 1.8-.1 3.5-.2 5.2-.2 14.3 0 27.3 4.6 36.4 12 10.4 8.6 10.8 23.8 1.4 33.5-84.9 83.8-236.6 578.3 139.2 758-201.5-210.8-178-756.4 140-783.7 2.5 49.1 4.9 98.1 7.4 147.2.1 1.9.2 3.8.3 5.7-57.2 2.9-114.3 6.2-171.4 9.9-13.6 24.8-24.5 51.9-32.9 80.4 0 0 10.6-26.2 49.1-28.7 52.6-3.4 105.2-6.4 157.9-9 7.6 150.7 15.2 301.4 22.8 452.2 1.1 22-19.9 40.8-46.8 42.3.1 2 .2 3.9.3 5.9 16.2-.9 32.5-1.7 48.7-2.6 37.7-1.9 75.4-3.6 113.1-5.1 16.3-.7 32.5-1.3 48.8-1.9-.1-2-.1-3.9-.2-5.9-.7 0-1.5 0-2.2 0-25.9 0-47.3-16.6-48.2-37.9-6.1-150.8-12.2-301.6-18.3-452.4-.7-17.5-1.4-35.1-2.1-52.6-2.1-51-4.1-102.1-6.2-153.1-.9-21.9 21.6-40.7 50.3-41.8 0-2.1 0-4-.1-6z" fill="url(#N)"/><path d="m885.4 102.6c-45.6-40.4-252.6-117.4-452.6-93.2-203.5 23.9-392.5 149.3-427.8 200.3.3 1.9.6 3.9.9 5.8 37.3-5.9 71.1 12.4 75.5 40.6 37.6 246.1 75.2 492.3 112.7 738.4 4.3 28.4-7.8 39.6-42.7 45.1.4 2.5.8 5 1.2 7.6 92.9-14.6 185.8-28 278.9-40.3 0 0 44.4-25 114.8-65.6 255.2-147 365-442.3 352-617-4.5-57-24.9-119.6-56.9-198.4 11.3-9.4 26.9-15.9 44.5-17.4-.1-2-.3-4-.5-5.9zm-153.8 294.6c-2.4 158.6-105.3 387.8-359.8 540.2-20.1 12-36.3-5.7-39.3-26.7-18-129.1-83.4-597.9-83.4-597.9-10.7-76-7.7-210.5 191.4-235.3 257-30 292.7 208.3 291.1 319.7z" fill="url(#O)"/><path d="m511.5 14.2c157.8 0 306.1 53.2 357.2 87.6-12.5 3.3-24 9-33.2 16.7l-5.4 4.4 2.6 6.4c36 88.5 52.3 145.2 56.3 195.5 3.2 43.3-1.4 94-13.4 146.6-12.9 56.5-33.4 112.8-61 167.3-30.1 59.5-67.3 114.1-110.7 162.2-47.8 53.1-102.4 97.5-162.2 132-64.6 37.2-105.1 60.1-113.1 64.6-77.4 10.2-155.6 21.4-233 33.2 8-9.1 10.5-21.1 8-37.8l-63-412.9-49.8-325.4c-4.4-28.5-33.6-49.3-69.7-49.7 21.9-23.8 70.6-61 139.1-97.1 41.5-21.9 84.5-40.5 127.9-55.2 49.8-16.9 98.9-28.3 145.9-33.8 24.8-3 50.9-4.6 77.5-4.6m-271.8 300c.1.5.1 1 .2 1.7l.7 4.9 2.6 18.5 9.3 66.4c20 143.1 57.7 413.3 70.7 506.4 3.2 22.5 18.2 38.8 35.8 38.8 5.9 0 11.9-1.8 17.7-5.3 265.2-158.9 362-394.6 364.3-548.2.8-52.8-6-184.4-86.3-266-43.1-43.7-100.7-65.9-171.3-65.9-14.1 0-28.9.9-44 2.7-77.3 9.6-133.4 36.6-166.8 80.2-31.5 41.1-42.6 96.9-32.9 165.8m271.8-309.5c-26.1 0-52.4 1.4-78.7 4.6-203.5 24-392.5 149.4-427.8 200.4.3 1.9.6 3.9.9 5.8 4.7-.8 9.4-1.1 14-1.1 31.4 0 57.7 17.1 61.5 41.7 37.6 246.1 75.2 492.3 112.7 738.4 4.3 28.4-7.8 39.6-42.7 45.1.4 2.5.8 5 1.2 7.6 92.9-14.6 185.8-28 278.9-40.3.1 0 44.4-25 114.8-65.6 255.2-147 365-442.3 352-617-4.5-57-24.9-119.6-56.9-198.4 11.3-9.4 26.9-15.9 44.5-17.4-.2-1.9-.4-3.9-.6-5.8-39.5-35.2-201-98-373.8-98zm-152.5 936.6c-13.9 0-24.1-14.3-26.4-30.6-18-129.1-83.4-597.9-83.4-597.9-10.7-76-7.7-210.5 191.4-235.3 15-1.8 29.4-2.6 42.9-2.6 218.2 0 249.7 217.4 248.2 322.3-2.5 158.6-105.4 387.8-359.9 540.2-4.5 2.7-8.8 3.9-12.8 3.9z" fill="url(#P)"/><g fill="#d3ac6e"><path d="m1515.5 910 11.2-13.3.2 5.9-11.2 13.3z"/><path d="m1748.3 903.9 5.2-13.1.1 5.9-5.2 13.1z"/></g></g></svg>