<?xml version="1.0" encoding="UTF-8" standalone="no"?>
<svg
   height="403.00003"
   viewBox="0 0 1920 403.00003"
   width="1920"
   version="1.1"
   id="svg21"
   sodipodi:docname="desktop.svg"
   inkscape:version="1.3.2 (091e20e, 2023-11-25)"
   xmlns:inkscape="http://www.inkscape.org/namespaces/inkscape"
   xmlns:sodipodi="http://sodipodi.sourceforge.net/DTD/sodipodi-0.dtd"
   xmlns="http://www.w3.org/2000/svg"
   xmlns:svg="http://www.w3.org/2000/svg">
  <defs
     id="defs21" />
  <sodipodi:namedview
     id="namedview21"
     pagecolor="#ffffff"
     bordercolor="#000000"
     borderopacity="0.25"
     inkscape:showpageshadow="2"
     inkscape:pageopacity="0.0"
     inkscape:pagecheckerboard="0"
     inkscape:deskcolor="#d1d1d1"
     inkscape:zoom="0.49114583"
     inkscape:cx="961.01803"
     inkscape:cy="201.56946"
     inkscape:window-width="1312"
     inkscape:window-height="449"
     inkscape:window-x="0"
     inkscape:window-y="39"
     inkscape:window-maximized="0"
     inkscape:current-layer="svg21" />
  <g
     id="g22">
    <g
       transform="matrix(3.09677415 0 0 3.10000005963 294.1935685 -3472.00006678999)"
       id="g3">
      <path
         d="m435 1130h-10v20 70 20h10v10h30v-10h10v-10h20v-10h10 10v-10h10v-20-30-20h-10v-10h-10v-10h-40-10-20z"
         fill="#120f26"
         id="path1" />
      <path
         d="m465 1220h30v-10h20v-50h-10v-10h-40-10-20v90h30zm20-50v20h-10v10h-10v-30z"
         fill="#e22b17"
         id="path2" />
      <path
         d="m465 1200h30v-10h20v-50h-10v-10h-40-10-20v90h30zm20-50v20h-10v10h-10v-30z"
         fill="#ffda40"
         id="path3" />
    </g>
    <g
       transform="matrix(3.09677415 0 0 3.10000005963 -1997.4193265 -2852.00003484274)"
       id="g6">
      <path
         d="m745 940h-10v-10h-10v-10h-40-20-10v10h-10v20 70 20h10v10h10 20 30v-10h10 10v-10h10v-20-50z"
         fill="#120f26"
         id="path4" />
      <path
         d="m725 960v-10h-40-20-10v90h10 20 30v-10h20v-70zm-40 10h20v40h-10v10h-10z"
         fill="#e22b17"
         id="path5" />
      <path
         d="m725 940v-10h-40-20-10v90h10 20 30v-10h20v-70zm-40 10h20v40h-10v10h-10z"
         fill="#ffda40"
         id="path6" />
    </g>
    <g
       transform="matrix(3.09677415 0 0 3.10000005963 -2183.2257765 -2852.00003484274)"
       id="g9">
      <path
         d="m885 1000h-10v-10-10-10h10v-20-20h-10v-10h-40-10-20v10h-10v20 70 20h10v10h20 10 40v-10h10v-20z"
         fill="#120f26"
         id="path7" />
      <path
         d="m875 1020h-40v-10h30v-20h-30v-20h40v-20h-40-10-20v90h20 10 40z"
         fill="#e22b17"
         id="path8" />
      <path
         d="m875 1000h-40v-10h30v-20h-30v-20h40v-20h-40-10-20v90h20 10 40z"
         fill="#ffda40"
         id="path9" />
    </g>
    <g
       transform="matrix(3.09677415 0 0 3.10000005963 -2183.2257765 -3472.00006678999)"
       id="g12">
      <path
         d="m965 1140v-10h-10v-10h-60v10h-10v10h-10v20 10 20 20 20h10v10h10v10h60v-10h10v-10h10v-20-10-20-20-20z"
         fill="#120f26"
         id="path10" />
      <path
         d="m885 1210v20h10v10h60v-10h10v-30h-10v-10h-20v-10h-20v-10h20v10h30v-20h-10v-10h-60v10h-10v30h10v10h20v10h20v10h-20v-10z"
         fill="#e22b17"
         id="path11" />
      <path
         d="m885 1190v20h10v10h60v-10h10v-30h-10v-10h-20v-10h-20v-10h20v10h30v-20h-10v-10h-60v10h-10v30h10v10h20v10h20v10h-20v-10z"
         fill="#ffda40"
         id="path12" />
    </g>
    <g
       transform="matrix(3.09677415 0 0 3.10000005963 -4196.1289265 -2852.00003484274)"
       id="g15">
      <path
         d="m1705 980v-10h10v-20-20h-10v-10h-20v10h-10v10h-10v-10h-10v-10h-30v10h-10v20 70 20h10v10h30v-10h10 10v10h30v-10h10v-20-20h-10v-10h-10v-10z"
         fill="#120f26"
         id="path13" />
      <path
         d="m1655 980v-30h-30v90h30v-20h10v10h10v10h30v-20h-10v-10h-10v-10h-10v-10h10v-10h10v-10h10v-20h-20v10h-10v10h-10v10z"
         fill="#e22b17"
         id="path14" />
      <path
         d="m1655 960v-30h-30v90h30v-20h10v10h10v10h30v-20h-10v-10h-10v-10h-10v-10h10v-10h10v-10h10v-20h-20v10h-10v10h-10v10z"
         fill="#ffda40"
         id="path15" />
    </g>
    <g
       transform="matrix(3.09677415 0 0 3.10000005963 -2090.3225265 -3472.00006678999)"
       id="g18">
      <path
         d="m1025 1130v20 20h10v10h10v40 20h10v10h30v-10h10v-20-40h10v-10h10v-20-20h-10v-10h-70v10z"
         fill="#120f26"
         id="path16" />
      <path
         d="m1105 1150h-70v20h20v70h30v-70h20z"
         fill="#e22b17"
         id="path17" />
      <path
         d="m1105 1130h-70v20h20v70h30v-70h20z"
         fill="#ffda40"
         id="path18" />
    </g>
    <g
       transform="matrix(3.09677415 0 0 3.10000005963 480.0000185 -3472.00006678999)"
       id="g21">
      <path
         d="m365 1140v-10h-10v-10h-60v10h-10v10h-10v20 50 20h10v10h10v10h60v-10h10v-10h10v-20-50-20z"
         fill="#120f26"
         id="path19" />
      <path
         d="m355 1240v-10h10v-70h-10v-10h-60v10h-10v70h10v10zm-40-20v-50h20v50z"
         fill="#e22b17"
         id="path20" />
      <path
         d="m355 1220v-10h10v-70h-10v-10h-60v10h-10v70h10v10zm-40-20v-50h20v50z"
         fill="#ffda40"
         id="path21" />
    </g>
  </g>
</svg>
