<?xml version="1.0" encoding="UTF-8" standalone="no"?>
<svg
   enable-background="new 0 0 3840 895.2"
   height="448"
   viewBox="0 0 1920 447.99999"
   width="1920"
   version="1.1"
   id="svg11"
   sodipodi:docname="gameandwatch.svg"
   inkscape:version="1.3.2 (091e20e, 2023-11-25)"
   xmlns:inkscape="http://www.inkscape.org/namespaces/inkscape"
   xmlns:sodipodi="http://sodipodi.sourceforge.net/DTD/sodipodi-0.dtd"
   xmlns="http://www.w3.org/2000/svg"
   xmlns:svg="http://www.w3.org/2000/svg">
  <defs
     id="defs11" />
  <sodipodi:namedview
     id="namedview11"
     pagecolor="#ffffff"
     bordercolor="#000000"
     borderopacity="0.25"
     inkscape:showpageshadow="2"
     inkscape:pageopacity="0.0"
     inkscape:pagecheckerboard="0"
     inkscape:deskcolor="#d1d1d1"
     inkscape:zoom="0.24557292"
     inkscape:cx="1922.036"
     inkscape:cy="447.93213"
     inkscape:window-width="1312"
     inkscape:window-height="449"
     inkscape:window-x="0"
     inkscape:window-y="23"
     inkscape:window-maximized="0"
     inkscape:current-layer="svg11" />
  <g
     id="g1"
     transform="scale(0.5)">
    <g
       id="g12"
       transform="scale(1,1.0008907)">
      <g
         transform="translate(0,0.002355)"
         id="g11">
        <path
           d="M 341.5,590.4 C 314.1,551.5 268.8,526.1 217.6,526.1 133.8,526.1 66,594 66,677.7 c 0,83.7 67.9,151.6 151.6,151.6 60.8,0 113.2,-35.8 137.4,-87.5 H 221.1 v -69 h 213.8 c 0.1,1.6 0.1,3.2 0.1,4.8 0,22.3 -3.3,43.8 -9.6,64.1 C 398,830.5 315.3,895.2 217.5,895.2 97.4,895.4 0,797.9 0,677.8 0,557.6 97.4,460.3 217.6,460.3 c 89,0 165.5,53.6 199.2,130.2 h -75.3 z"
           id="path1" />
        <path
           d="M 665.8,464.5 391,878.5 h 85.1 l 58.7,-88.4 h 131.1 v 88.6 h 70.9 V 464.5 Z m -84,254.7 84,-126.5 v 126.5 z"
           id="path2" />
        <path
           d="M 1291.9,464.5 1102.3,749.9 V 464.5 h -70.9 l -274.9,414 h 85.2 l 189.7,-285.8 v 286 h 70.9 v -0.5 l 189.6,-285.5 v 286 h 70.9 V 464.5 Z"
           id="path3" />
        <path
           d="m 1635.5,535.4 v -70.9 h -215.4 v 414.2 l 70.9,-0.3 h 144.5 V 807.5 H 1491 V 711 h 144.5 V 640.1 H 1491 V 535.4 Z"
           id="path4" />
        <path
           d="m 2014.4,736.3 c 22.7,-51.2 56.8,-128 56.8,-128 h -69.6 l -36.6,82.5 -54.5,-50.3 c 25,-20.1 46.9,-45.4 46.9,-87.7 0,-22.7 -9,-44.2 -25.2,-60.4 -18.5,-18.5 -44.6,-29.1 -71.6,-29.1 -46.8,0 -95.2,33.5 -95.2,89.5 0,39 21.5,64.2 42.8,82.9 -39.5,28 -73.9,57.8 -73.9,119.2 0,34.9 12.6,66.6 35.5,89.5 23.1,23.1 55.3,35.8 90.8,35.8 67.2,0 100.6,-32.5 126.1,-82.8 l 82.4,76.2 43.2,-46.7 z M 1835.7,536.5 c 6,-6 15.6,-9.7 25,-9.7 10,0 20.2,4 26.6,10.4 4.5,4.4 6.6,9.5 6.6,15.5 0,17.8 -8.6,27.6 -31.9,44.9 -20.4,-16.4 -32.9,-27.8 -32.9,-44.9 -0.1,-6.4 2.1,-11.7 6.6,-16.2 M 1936.5,755 c -21.9,48.9 -37.5,61.5 -75.8,61.5 -18.8,0 -34.7,-6 -45.9,-17.1 -11.1,-11.1 -16.9,-26.5 -16.9,-44.6 0,-33.4 17.2,-46.7 59.4,-76 0.2,-0.1 0.5,-0.3 0.6,-0.5 l 79.8,73.7 z"
           id="path5" />
        <path
           d="m 2829.7,464.6 -274.9,414 h 85.1 l 58.7,-88.4 h 131.1 v 88.6 h 70.9 V 464.6 Z m -84,254.7 84,-126.4 v 126.4 z"
           id="path6" />
        <path
           d="m 2249.7,878.8 189.5,-285.5 v 285.5 h 70.9 l 274.9,-414 h -85.1 L 2510.1,750.5 V 464.6 h -70.9 v 0.5 L 2249.7,750.5 V 464.6 h -70.9 v 414.2 z"
           id="path7" />
        <path
           d="m 3769.1,464.6 v 166.7 h -128 V 464.6 h -70.9 v 414.1 h 70.9 V 702.3 h 128 V 878.7 H 3840 V 464.6 Z"
           id="path8" />
        <path
           d="m 3159.7,464.6 h -231.4 v 70.9 h 80.3 v 343.2 h 70.9 V 535.5 h 80.2 z"
           id="path9" />
        <path
           d="m 3470,767.1 c -27.2,30.3 -66.6,49.2 -110.5,49.2 -82.2,0 -148.8,-66.6 -148.8,-148.7 0,-82.1 66.6,-148.7 148.8,-148.7 43.2,0 82.1,19.4 109.3,49.3 h 83.1 c -36.3,-69 -108.8,-117.8 -192.3,-117.8 -120,0 -217.3,97.3 -217.3,217.3 0,120 97.3,217.3 217.3,217.3 84.1,0 157,-48 193.1,-117.9 z"
           id="path10" />
        <path
           d="M 1476.7,205.8 1406.3,91.6 h -51.1 V 255 h 50.6 V 140.9 l 70.9,114.2 h 50.6 V 91.6 h -50.6 z m 400.5,-59.4 v -16.1 h -26.7 v -22.1 h -49.3 v 22.1 h -26.7 v 16.1 h 26.7 V 255 h 49.3 V 146.4 Z M 1555.4,255 h 49.3 V 146.4 h -49.3 z m 0,-130.3 h 49.3 V 91.1 h -49.3 z m 860.8,14.3 c -39.6,0 -71.8,27.2 -71.8,61.2 0,33.6 32.2,61.2 71.8,61.2 39.6,0 71.8,-27.2 71.8,-61.2 0,-34 -31.3,-61.2 -71.8,-61.2 z m 19.8,83.8 c 0,17.5 -10.1,24.4 -20.3,24.4 -9.7,0 -20.3,-7.4 -20.3,-24.4 0,-6.4 0,-23.5 0,-23.5 0,0 0,-16.1 0,-22.6 0,-17 10.1,-24.4 20.3,-24.4 9.7,0 20.3,6.9 20.3,24.4 v 23 z m -155.6,-70.9 c -7.8,-4.6 -16.1,-8.7 -27.6,-9.7 -35.4,-3.2 -62.6,28.1 -62.6,57.1 0,37.7 29,52 33.6,53.9 16.6,7.8 37.7,7.8 56.6,-4.1 v 6.4 h 48.3 V 92.1 h -48.3 c 0,-0.5 0,34.5 0,59.8 z m 0,48.3 v 19.3 c 0,16.6 -11.5,21.2 -19.3,21.2 -7.8,0 -19.3,-4.6 -19.3,-21.2 0,-6 0,-19.3 0,-19.3 0,0 0,-13.8 0,-19.3 0,-17 11.5,-21.2 19.3,-21.2 7.8,0 19.3,4.1 19.3,21.2 z m -560.6,-58.9 c -16.1,0.5 -29.9,7.4 -39.1,16.6 0,-2.8 0,-11.5 0,-11.5 h -48.8 V 255 h 48.8 c 0,0 0,-66.7 0,-71.4 0,-9.7 10.1,-19.8 23.5,-19.8 13.3,0 22.6,10.6 22.6,19.8 V 255 h 48.8 c 0,0 0,-51.6 0,-58.9 -0.1,-43.3 -37.4,-55.2 -55.8,-54.8 z m 399.5,0 c -16.1,0.5 -29.9,7.4 -39.1,16.6 0,-2.8 0,-11.5 0,-11.5 h -48.8 V 255 h 48.8 c 0,0 0,-66.7 0,-71.4 0,-9.7 10.1,-19.8 23.5,-19.8 13.3,0 22.6,10.6 22.6,19.8 V 255 h 48.8 c 0,0 0,-51.6 0,-58.9 -0.5,-43.3 -37.8,-55.2 -55.8,-54.8 z m -103.6,59.9 c 0,-33.6 -32.7,-61.7 -72.7,-61.7 -40,0 -72.3,27.2 -72.3,61.2 0,33.6 32.2,61.2 72.3,61.2 33.1,0 61.2,-18.9 70,-44.7 h -48.8 v 6.4 c 0,19.8 -12.9,24.4 -20.3,24.4 -7.4,0 -20.7,-4.6 -20.7,-24.4 0,-6 0,-22.6 0,-22.6 h 92.5 z M 1926.9,163 c 3.7,-6.9 11,-9.7 17.5,-10.1 6.4,0 13.3,3.2 17.5,10.1 3.2,5.5 3.2,12 3.2,21.2 h -41 c -0.9,-9.7 -0.9,-15.7 2.8,-21.2 z m 581.4,-51.1 c 0,-5.5 -4.1,-7.8 -12,-7.8 h -11 v 28.1 h 6.9 v -11.5 h 3.2 l 5.5,11.5 h 7.4 l -6,-12.4 c 3.7,-1.5 6,-4.3 6,-7.9 z m -12.9,4.1 h -3.2 v -8.3 h 2.8 c 4.1,0 6,1.4 6,4.1 0.4,3.3 -1.9,4.2 -5.6,4.2 z m 0,-23 c -13.8,0 -25.3,11 -25.3,25.3 0,13.8 11.5,25.3 25.3,25.3 13.8,0 25.3,-11.5 25.3,-25.3 0,-14.3 -11.5,-25.3 -25.3,-25.3 z m 0,45.6 c -11,0 -20.3,-9.2 -20.3,-20.3 0,-11.1 9.2,-20.3 20.3,-20.3 11,0 20.3,9.2 20.3,20.3 0,11.1 -8.8,20.3 -20.3,20.3 z M 2440.6,0 H 1399.4 c -110,-0.5 -184.1,79.2 -184.1,174 0,94.8 73.7,173.1 184.6,173.1 h 1040.8 c 110.5,0 184.6,-78.3 184.6,-173.1 C 2624.8,78.7 2550.6,-0.5 2440.6,0 Z m -0.4,304.7 H 1399.8 c -87.9,0.5 -141.3,-58.5 -141.3,-131.2 0,-72.7 53.9,-130.7 141.3,-131.2 h 1040.3 c 87.5,0 141.3,58.5 141.3,131.2 0,72.7 -53.8,131.2 -141.2,131.2 z M 2440.6,0 H 1399.4 c -110,-0.5 -184.1,79.2 -184.1,174 0,94.8 73.7,173.1 184.6,173.1 h 1040.8 c 110.5,0 184.6,-78.3 184.6,-173.1 C 2624.8,78.7 2550.6,-0.5 2440.6,0 Z m -0.4,304.7 H 1399.8 c -87.9,0.5 -141.3,-58.5 -141.3,-131.2 0,-72.7 53.9,-130.7 141.3,-131.2 h 1040.3 c 87.5,0 141.3,58.5 141.3,131.2 0,72.7 -53.8,131.2 -141.2,131.2 z M 2440.6,0 H 1399.4 c -110,-0.5 -184.1,79.2 -184.1,174 0,94.8 73.7,173.1 184.6,173.1 h 1040.8 c 110.5,0 184.6,-78.3 184.6,-173.1 C 2624.8,78.7 2550.6,-0.5 2440.6,0 Z m -0.4,304.7 H 1399.8 c -87.9,0.5 -141.3,-58.5 -141.3,-131.2 0,-72.7 53.9,-130.7 141.3,-131.2 h 1040.3 c 87.5,0 141.3,58.5 141.3,131.2 0,72.7 -53.8,131.2 -141.2,131.2 z"
           fill="#e31e26"
           id="path11" />
      </g>
    </g>
  </g>
</svg>
