<svg height="611" viewBox="0 0 1920 611" width="1920" xmlns="http://www.w3.org/2000/svg"><g transform="scale(.50013024 .49999999)"><rect fill="#ea316e" height="1222" ry="27.405733" stroke-linecap="round" stroke-linejoin="round" stroke-miterlimit="0" stroke-width=".373495" width="3839"/><g transform="translate(48.516645 1629.9906)"><g fill="none" stroke="#fff" transform="matrix(58.861917 -7.4296453 7.4296453 58.861917 -2857.0875 -3171.4858)"><g fill="#fff" stroke="none" transform="matrix(.09789437 .01208859 -.01208859 .09789437 50.44469 36.83699)"><circle cx="114.279" cy="10.335" r="10"/><circle cx="139.612" cy="10" r="10"/></g><g fill="none" stroke="#fff"><g transform="matrix(.09789437 .01208859 -.01208859 .09789437 50.602 36.83699)"><path d="m126.419 29.906c-55.287 0-55.475 85.041-.353 85.041 55.04 0 55.854-85.041.353-85.041" fill="none" stroke="#fff"/><path d="m126.419 24.906c-16.061.162-30.552 7.196-39.236 20.915-7.67 12.116-9.111 27.837-5.282 41.478 4.06 14.461 14.838 25.804 29.094 30.463 15.53 5.076 33.615 1.679 46.006-8.884 14.374-12.252 18.58-33.677 13.679-51.324-5.627-20.263-23.637-32.441-44.261-32.648-6.451-.065-6.445 9.935 0 10 14.639.147 27.712 7.472 33.298 21.396 5.004 12.474 3.672 27.057-3.529 38.379-8.21 12.908-24.446 17.367-38.892 14.402-14.073-2.889-23.502-13.993-26.563-27.657-2.375-10.605-.264-22.11 5.525-31.254 6.572-10.381 18.226-15.146 30.161-15.266 6.445-.065 6.452-10.065 0-10z" fill="#fff" stroke="none"/></g><g transform="matrix(.09789437 .01208859 -.01208859 .09789437 50.366035 36.601025)"><path d="m178.397 29.906c48.716 110.468 51.349 116.265 104.041 0" fill="none" stroke="#fff"/><path d="m174.08 32.43c9.586 21.736 18.656 43.999 30.382 64.701 5.241 9.255 12.593 21.893 24.465 22.801 11.569.885 20.021-12.921 25.149-21.195 12.939-20.876 22.563-43.995 32.68-66.306 2.642-5.825-5.975-10.913-8.635-5.047-9.592 21.154-18.926 42.655-30.574 62.786-3.169 5.476-6.566 10.959-10.974 15.536-1.543 1.604-2.545 2.424-4.268 3.411-1.201.688-2.065.857-3.379.815-.582-.051-.556-.041.08.027-.424-.069-.837-.193-1.248-.316-.165-.049-.753-.289-1.728-.876-1.604-.966-2.992-2.424-4.532-4.152-4.226-4.744-7.359-10.551-10.383-16.096-10.744-19.703-19.356-40.625-28.401-61.135-2.597-5.891-11.211-.797-8.634 5.046z" fill="#fff" stroke="none"/></g><g transform="matrix(.09789437 .01208859 -.01208859 .09789437 50.13007 36.601025)"><path d="m332.958 87.255c57.148-12.938 36.661-53.914 3.234-57.148s-51.756 33.427-40.974 59.305c10.782 25.879 32.349 26.958 51.756 24.801" fill="none" stroke="#fff"/><path d="m334.288 92.076c16.119-3.771 37.565-12.266 39.429-31.426 1.37-14.087-9.762-25.941-21.77-31.407-17.438-7.938-37.938-4.605-51.258 9.353-13.145 13.773-17.356 35.85-9.787 53.338 4.761 10.999 12.667 20.207 24.025 24.604 10.208 3.952 21.323 3.826 32.048 2.674 6.342-.682 6.408-10.688 0-10-9.54 1.025-19.151 1.334-28.321-1.903-10.214-3.605-17.066-13.445-20.092-23.452-5.278-17.456 3.682-39.335 20.828-46.488 13.844-5.774 32.803-1.287 41.323 11.511 9.107 13.679-4.028 24.854-16.167 29.692-4.179 1.665-8.544 2.838-12.917 3.862-6.278 1.468-3.615 11.11 2.659 9.642z" fill="#fff" stroke="none"/></g><g transform="matrix(.09789437 .01208859 -.01208859 .09789437 50.837965 36.758335)"><path d="m10.822 29.224c-19.854 55.69 12.757 96.622 61.59 83.698" fill="none" stroke="#fff"/><path d="m6 27.895c-8.2 23.498-9.661 51.774 6.323 72.444 14.666 18.965 39.169 23.091 61.417 17.404 6.244-1.596 3.594-11.24-2.658-9.643-18.687 4.776-39.448 1.689-51.529-14.664-13.413-18.157-10.924-42.782-3.91-62.883 2.13-6.105-7.532-8.706-9.643-2.658z" fill="#fff" stroke="none"/></g></g></g><path d="m2909.5159-1209.3751c-42.0694 21.9998-69.7583 39.8261-86.5932 86.9418-13.7622 38.5173-6.2983 89.1671 8.2718 127.93644 40.1576 106.85547 98.292 173.42448 162.4831 247.77485 32.4891 37.6314 98.8252 88.91779 98.8252 88.91779s79.3052-61.95364 126.2387-117.11687c32.8322-38.58999 64.795-94.99344 82.4639-143.95833 14.061-38.96518 30.3465-93.97208 31.3577-146.61248.372-19.4145-11.3946-59.3856-21.1092-75.9491-18.8431-32.1328-28.7569-37.18-60.4587-53.6875-25.0938-13.0668-40.8868-17.387-77.1533-18.9527-19.9117-.86-44.5422 16.4309-54.6605 34.7227-8.5746 15.502-15.8058 45.7506-21.5255 62.76-7.853 23.3508-17.6662 55.3393-17.6662 55.3393s-23.4763-71.5772-44.7465-106.6283c-12.1616-20.041-23.0342-47.9213-43.8464-56.0745-21.1857-8.2989-61.8786 4.1274-81.881 14.5864z" fill="#fff"/></g></g></svg>