<svg enable-background="new 1.735 -0.002 565.195 186.787" height="635" viewBox="1.735 -.002 1920 634.99995" width="1920" xmlns="http://www.w3.org/2000/svg" xmlns:xlink="http://www.w3.org/1999/xlink"><linearGradient id="a" gradientTransform="matrix(1 0 0 -1 -.1797 -14605.497)" gradientUnits="userSpaceOnUse" x1="3778.6755" x2="67.135002" y1="-15150.229" y2="-15150.229"><stop offset="0" stop-color="#173b66"/><stop offset="1" stop-color="#73cdf4"/></linearGradient><linearGradient id="b" gradientTransform="matrix(1 0 0 -1 -.1797 -14605.497)" gradientUnits="userSpaceOnUse" x1="426.75571" x2="399.95911" xlink:href="#c" y1="-15036.05" y2="-15009.254"/><linearGradient id="c"><stop offset="0" stop-color="#15416f"/><stop offset="1" stop-color="#66c3ee"/></linearGradient><linearGradient id="d" gradientTransform="matrix(1 0 0 -1 -.1797 -14605.497)" gradientUnits="userSpaceOnUse" x1="824.74542" x2="800.11652" xlink:href="#c" y1="-15546.362" y2="-15521.733"/><linearGradient id="e" gradientTransform="matrix(1 0 0 -1 -.1797 -14605.497)" gradientUnits="userSpaceOnUse" x1="161.92101" x2="161.92101" xlink:href="#c" y1="-15411.464" y2="-15382.164"/><linearGradient id="f" gradientTransform="matrix(1 0 0 -1 -.1797 -14605.497)" gradientUnits="userSpaceOnUse" x1="810.41388" x2="810.41388" xlink:href="#c" y1="-15677.283" y2="-15647.006"/><linearGradient id="g" gradientTransform="matrix(1 0 0 -1 -.1797 -14605.497)" gradientUnits="userSpaceOnUse" x1="2892.6028" x2="2892.6028" xlink:href="#c" y1="-15411.273" y2="-15380.928"/><linearGradient id="h" gradientTransform="matrix(1 0 0 -1 -.1797 -14605.497)" gradientUnits="userSpaceOnUse" x1="1692.713" x2="1692.713" xlink:href="#c" y1="-15417.19" y2="-15386.764"/><linearGradient id="i" gradientTransform="matrix(1 0 0 -1 -.1797 -14605.497)" gradientUnits="userSpaceOnUse" x1="3535.1479" x2="3535.1479" xlink:href="#c" y1="-14651.538" y2="-14618.502"/><linearGradient id="j" gradientTransform="matrix(1 0 0 -1 -.1797 -14605.497)" gradientUnits="userSpaceOnUse" x1="3485.7817" x2="3485.7817" xlink:href="#c" y1="-14818.162" y2="-14789.562"/><linearGradient id="k" gradientTransform="matrix(1 0 0 -1 -.1797 -14605.497)" gradientUnits="userSpaceOnUse" x1="3107.782" x2="3107.782" xlink:href="#c" y1="-15113.777" y2="-15088.506"/><linearGradient id="l" gradientTransform="matrix(1 0 0 -1 -.1797 -14605.497)" gradientUnits="userSpaceOnUse" x1="3316.9529" x2="3316.9529" xlink:href="#c" y1="-14943.131" y2="-14905.398"/><linearGradient id="m" gradientTransform="matrix(1 0 0 -1 -.1797 -14605.497)" gradientUnits="userSpaceOnUse" x1="492.52121" x2="468.45279" xlink:href="#c" y1="-15240.098" y2="-15216.029"/><linearGradient id="n" gradientTransform="matrix(1 0 0 -1 -.1797 -14605.497)" gradientUnits="userSpaceOnUse" x1="804.09949" x2="767.64697" xlink:href="#c" y1="-14802.229" y2="-14802.229"/><linearGradient id="o" gradientTransform="matrix(1 0 0 -1 -.1797 -14605.497)" gradientUnits="userSpaceOnUse" x1="1162.9591" x2="1117.7144" xlink:href="#c" y1="-14908.143" y2="-14908.143"/><linearGradient id="p" gradientTransform="matrix(1 0 0 -1 -.1797 -14605.497)" gradientUnits="userSpaceOnUse" x1="1726.1664" x2="1685.4543" xlink:href="#c" y1="-14943.846" y2="-14943.846"/><linearGradient id="q" gradientTransform="matrix(1 0 0 -1 -.1797 -14605.497)" gradientUnits="userSpaceOnUse" x1="2359.8938" x2="2321.1658" xlink:href="#c" y1="-14803.963" y2="-14803.963"/><linearGradient id="r" gradientTransform="matrix(1 0 0 -1 -.1797 -14605.497)" gradientUnits="userSpaceOnUse" x1="2710.9958" x2="2671.6155" xlink:href="#c" y1="-14897.854" y2="-14897.854"/><linearGradient id="s" gradientTransform="matrix(1 0 0 -1 -.1797 -14605.497)" gradientUnits="userSpaceOnUse" x1="678.49261" x2="643.77252" xlink:href="#c" y1="-15240.861" y2="-15240.861"/><linearGradient id="t" gradientTransform="matrix(1 0 0 -1 -.1797 -14605.497)" gradientUnits="userSpaceOnUse" x1="810.84918" x2="786.71252" xlink:href="#c" y1="-15274.146" y2="-15250.009"/><linearGradient id="u" gradientTransform="matrix(1 0 0 -1 -.1797 -14605.497)" gradientUnits="userSpaceOnUse" x1="3746.8042" x2="3721.8767" xlink:href="#c" y1="-14721.605" y2="-14696.677"/><linearGradient id="v" gradientTransform="matrix(1 0 0 -1 -.1797 -14605.497)" gradientUnits="userSpaceOnUse" x1="978.95068" x2="942.27759" xlink:href="#c" y1="-15247.25" y2="-15247.25"/><linearGradient id="w" gradientTransform="matrix(1 0 0 -1 -.1797 -14605.497)" gradientUnits="userSpaceOnUse" x1="997.85022" x2="967.36328" xlink:href="#c" y1="-14820.167" y2="-14789.68"/><linearGradient id="x" gradientTransform="matrix(1 0 0 -1 -.1797 -14605.497)" gradientUnits="userSpaceOnUse" x1="1453.4663" x2="1425.2167" xlink:href="#c" y1="-14924.183" y2="-14895.933"/><linearGradient id="y" gradientTransform="matrix(1 0 0 -1 -.1797 -14605.497)" gradientUnits="userSpaceOnUse" x1="2054.4578" x2="2024.6748" xlink:href="#c" y1="-14961.47" y2="-14931.687"/><linearGradient id="z" gradientTransform="matrix(1 0 0 -1 -.1797 -14605.497)" gradientUnits="userSpaceOnUse" x1="2548.0273" x2="2519.4426" xlink:href="#c" y1="-14819.156" y2="-14790.568"/><linearGradient id="A" gradientTransform="matrix(1 0 0 -1 -.1797 -14605.497)" gradientUnits="userSpaceOnUse" x1="3307.2859" x2="3283.8015" xlink:href="#c" y1="-15012.108" y2="-14988.626"/><linearGradient id="B" gradientTransform="matrix(1 0 0 -1 -.1797 -14605.497)" gradientUnits="userSpaceOnUse" x1="3382.4878" x2="3355.5847" xlink:href="#c" y1="-15311.773" y2="-15284.871"/><linearGradient id="C" gradientTransform="matrix(1 0 0 -1 -.1797 -14605.497)" gradientUnits="userSpaceOnUse" x1="2988.675" x2="2959.5793" xlink:href="#c" y1="-14919.38" y2="-14890.285"/><linearGradient id="D" gradientTransform="matrix(1 0 0 -1 -.1797 -14605.497)" gradientUnits="userSpaceOnUse" x1="3294.5244" x2="3259.7908" xlink:href="#c" y1="-14885.651" y2="-14850.917"/><linearGradient id="E" gradientTransform="matrix(1 0 0 -1 -.1797 -14605.497)" gradientUnits="userSpaceOnUse" x1="1250.5677" x2="1225.8203" xlink:href="#c" y1="-15399.775" y2="-15375.027"/><linearGradient id="F" gradientTransform="matrix(1 0 0 -1 -.1797 -14605.497)" gradientUnits="userSpaceOnUse" x1="2045.7185" x2="2020.9821" xlink:href="#c" y1="-15242.232" y2="-15217.495"/><linearGradient id="G" gradientTransform="matrix(1 0 0 -1 -.1797 -14605.497)" gradientUnits="userSpaceOnUse" x1="2364.0522" x2="2340.2117" xlink:href="#c" y1="-15269.031" y2="-15245.189"/><linearGradient id="H" gradientTransform="matrix(1 0 0 -1 -.1797 -14605.497)" gradientUnits="userSpaceOnUse" x1="2507.1753" x2="2477.217" xlink:href="#c" y1="-15407.465" y2="-15377.508"/><linearGradient id="I" gradientTransform="matrix(1 0 0 -1 -.1797 -14605.497)" gradientUnits="userSpaceOnUse" x1="1545.9348" x2="1504.9176" xlink:href="#c" y1="-15260.089" y2="-15260.089"/><linearGradient id="J" gradientTransform="matrix(1 0 0 -1 -.1797 -14605.497)" gradientUnits="userSpaceOnUse" x1="2231.0129" x2="2195.6035" xlink:href="#c" y1="-15238.008" y2="-15238.008"/><linearGradient id="K" gradientTransform="matrix(1 0 0 -1 -.1797 -14605.497)" gradientUnits="userSpaceOnUse" x1="2534.4329" x2="2492.012" xlink:href="#c" y1="-15233.171" y2="-15233.171"/><linearGradient id="L" gradientTransform="matrix(1 0 0 -1 -.1797 -14605.497)" gradientUnits="userSpaceOnUse" x1="2980.5332" x2="2950.5171" xlink:href="#c" y1="-15177.936" y2="-15147.921"/><linearGradient id="M" gradientTransform="matrix(1 0 0 -1 -.1797 -14605.497)" gradientUnits="userSpaceOnUse" x1="3199.8369" x2="3199.8369" xlink:href="#c" y1="-15244.737" y2="-15205.329"/><g transform="matrix(.50000002 0 0 .50037162001 .8675 -.0009995)"><g fill="#c0392b" transform="matrix(6.7941241 0 0 6.7941241 -10.051693 .007558)"><path d="m199.027 180.485c3.235 0 5.857 2.921 5.857 6.156h-17.971v-58.281h5.958v52.125z"/><path d="m215.707 186.642c-3.235 0-6.057-2.923-6.057-6.156v-40.459h6.057z"/><path d="m233.678 140.026h-6.157v-11.666h-6.055v58.281h12.212c3.235 0 5.857-2.923 5.857-6.156v-34.75c0-3.235-2.622-5.709-5.857-5.709zm-.1 40.459h-6.057v-34.65h6.057z"/></g><g stroke-width="6.79412"><path d="m1661.8939 869.68941h329.3588s18.7178 3.03018 24.7849 14.16575c6.0672 11.14237 53.6329 109.27669 58.1781 120.40544 4.5521 11.1424.5028 19.2274-6.0807 27.8424-6.5835 8.6013-74.8781 86.5027-74.8781 86.5027l83.4727 147.0589h-125.9699s-98.6575-168.8204-104.2151-176.9054c-5.5712-8.0851-5.5712-21.2521 6.5699-21.2521h43.0069c5.5575 0 8.0918-1.0055 14.6685-6.5699 6.5767-5.5712 40.4726-46.5601 40.4726-46.5601s-16.1904-43.5028-19.7302-51.60139c-3.5397-8.0986-11.1355-10.61922-18.2082-10.61922-7.0795 0-126.9754 0-126.9754 0v313.50131h-124.4616z" fill="#231f20"/><path d="m1948.8166 1269.0548-.9852-1.6849c-.054-.082-24.6558-42.2119-49.9979-85.4157-25.3217-43.1359-51.5267-87.6103-54.0745-91.2791-2.6293-3.8591-4.1716-8.4859-4.1851-13.0175 0-3.336.8764-6.733 3.2136-9.4031 2.3372-2.6769 6.0264-4.2056 10.3406-4.1648 12.1547 0 37.4425 0 43.0068.014 5.0685-.1699 5.7886-.3261 12.4808-5.775 2.7449-2.2829 13.1059-14.1318 22.2984-24.9752 7.1542-8.4112 13.7988-16.4146 16.4893-19.6486-3.1253-8.3772-15.973-42.72828-18.976-49.58356-2.8603-6.50877-8.6693-8.50624-15.0829-8.58777-3.5398 0-35.2955 0-66.1544 0-24.6695 0-48.7411 0-57.4308 0v313.50803h-131.2692v-399.35858-3.41065h3.4106 329.3452c14.0299-.38727 21.8159 4.19877 27.7744 15.9526 6.2302 11.46848 53.6192 109.20196 58.3547 120.73843 1.4743 3.6348 2.1741 7.1202 2.1605 10.4425 0 8.0103-3.9677 14.5055-8.6897 20.7493-6.2098 8.1054-63.1378 73.1183-73.4309 84.8586l85.1712 150.0346zm122.0836-6.8077-81.7673-144.0898 1.5762-1.8004c.082-.1019 68.4033-78.0509 74.7286-86.3194 4.5181-5.9312 7.3309-11.0404 7.3173-16.6252-.014-2.3779-.4824-4.9393-1.685-7.8676-4.3822-10.7279-52.1177-109.26308-58.0218-120.05895-6.1826-10.53089-8.5062-12.00522-21.8023-12.39927-12.8273 0-291.896 0-325.9481 0v389.16062h117.6538v-313.50126h3.4107 126.9754c7.7521-.0883 17.1076 2.97583 21.3199 12.65066 3.6553 8.36357 19.7709 51.7305 19.7981 51.778l.6862 1.8412-1.2501 1.5219c-.1563.1427-33.6105 40.7308-40.9006 46.9814-6.4545 5.6663-10.8095 7.5211-16.8631 7.3784-5.5643-.014-30.8521-.014-43.0068-.014-5.5168.3057-6.3796 2.4051-6.7669 6.7738-.014 2.901 1.121 6.468 2.9962 9.1584 5.4897 8.0239 93.0727 157.8343 103.3658 175.4311z" fill="#fff"/><path d="m2930.683 869.68941h329.3452c13.6698 0 18.7246 3.03018 24.7849 14.16575 6.0672 11.14237 53.6397 109.27669 58.1781 120.40544 4.5657 11.1424.5028 19.2274-6.0671 27.8424-6.5835 8.6013-74.8781 86.5027-74.8781 86.5027l83.4794 147.0589h-125.9834s-98.6507-168.8204-104.2219-176.9054c-5.5576-8.0851-5.5576-21.2521 6.5835-21.2521h42.9933c5.5711 0 8.0918-1.0055 14.6753-6.5699 6.5835-5.5712 40.4726-46.5601 40.4726-46.5601s-16.1904-43.5028-19.7302-51.60139c-3.5329-8.0918-11.122-10.61922-18.2082-10.61922-7.0863 0-126.9754 0-126.9754 0v313.50131h-124.4548v-395.96839z" fill="#231f20"/><path d="m3217.5921 1269.048-.9716-1.6849c-.068-.088-24.6694-42.1983-50.0115-85.4089-25.3217-43.1291-51.5267-87.5967-54.0745-91.2791-2.6293-3.8523-4.1648-8.4859-4.1783-13.0243-.027-3.3224.8764-6.7194 3.2136-9.3963 2.3236-2.6837 6.0128-4.192 10.3474-4.158h42.9932c5.0685-.1495 5.7886-.3193 12.4876-5.7682 2.7449-2.2964 13.1127-14.1318 22.3051-24.9752 7.1407-8.4112 13.7989-16.4146 16.4826-19.6486-3.1185-8.35-15.9662-42.72149-18.976-49.56997-2.8671-6.52915-8.6761-8.51983-15.0897-8.60136-3.5398 0-35.2955 0-66.1476 0-24.6967 0-48.7683 0-57.4308 0v313.50123h-131.2624v-399.34499-3.41065h3.4106 329.3588c14.023-.39406 21.8023 4.19198 27.7608 15.93222 6.2505 11.46849 53.6124 109.21555 58.3479 120.73842 1.5015 3.6552 2.1741 7.1406 2.1741 10.4629-.014 7.9967-3.9678 14.4987-8.6897 20.7357-6.2098 8.0918-63.1378 73.1183-73.4377 84.8586l85.1644 150.0346h-133.7763zm122.0972-6.8009-81.7809-144.083 1.6034-1.8072c.054-.1087 68.3897-78.0509 74.7082-86.3194 4.4977-5.9312 7.3241-11.054 7.3105-16.6184 0-2.3983-.4756-4.9461-1.685-7.8812-4.3686-10.71431-52.0973-109.24949-58.015-120.05215-6.169-10.53089-8.5198-12.00522-21.8023-12.39248-12.8341-.0136-291.896-.0136-325.9481 0v389.15383h117.6334v-313.50126h3.4107 126.9754c7.7521-.0883 17.1212 2.97583 21.3267 12.65066 3.6485 8.37716 19.7709 51.7237 19.7981 51.778l.693 1.8412-1.2501 1.5287c-.1427.1427-33.6241 40.7104-40.9006 46.9746-6.4612 5.6799-10.8027 7.5347-16.8631 7.3648-5.5575 0-30.8657 0-42.9932 0-5.5304.3057-6.3932 2.3983-6.7805 6.767-.027 2.9214 1.1142 6.4748 2.9962 9.172 5.4964 8.0171 93.0591 157.8071 103.3726 175.4243z" fill="#fff"/><path d="m2099.5238 1265.6578s0-253.2986 0-261.9067c0-8.60139 2.0179-12.13434 6.0672-20.74249 4.0629-8.60816 50.5958-94.10541 55.6643-102.19042 5.0548-8.0918 12.1411-11.13557 25.7972-11.13557h327.7486v81.95752s-237.1965 0-246.3006 0-13.1534.51635-19.2274 13.66978c-6.0739 13.15342-25.2945 59.69998-25.2945 59.69998h249.4191v82.4671h-249.4191v74.878h290.8225v83.3096h-415.2773z" fill="#231f20"/><path d="m2099.5238 1269.0548v-3.397h3.3971-3.3971v3.397h-3.397v-3.397c0-.014 0-253.3054 0-261.9067-.054-9.21286 2.4119-13.83287 6.3729-22.18964 4.2735-8.99542 50.5686-94.07824 55.868-102.5573 5.5848-9.21283 14.7025-12.88846 28.6916-12.73219h327.7486 3.3835v88.75164h-3.3835c-.014 0-237.1965 0-246.3006 0-9.1177.55712-9.6477-.89003-16.1496 11.69948-4.8307 10.45616-18.2626 42.72141-23.3039 54.87611h247.7478v89.268l-249.4191-.014v68.084h290.8224v90.1104zm411.8666-6.8077v-76.5018h-290.8224v-81.679h249.4326v-75.6661h-251.1176l1.9363-4.6948c.014-.034 19.2138-46.50577 25.3557-59.82225 5.6527-13.71734 13.2146-16.19719 22.3187-15.64007h242.9035v-75.1634c-33.9842 0-311.5445 0-324.365 0-13.3369.16306-18.3917 2.56818-22.9166 9.52536-4.8306 7.71133-51.6354 93.63662-55.4673 101.83713-4.124 8.85274-5.6798 11.31901-5.7478 19.30893v258.4892z" fill="#fff"/><path d="m2788.0743 994.15097v-124.45476h-148.4855v124.45476h-124.7877v145.44183h124.7877v126.065h148.4855v-126.065h121.9206v-145.44183zm-74.8644 116.61433c-24.1803 0-43.761-19.5942-43.761-43.7609s19.5875-43.7542 43.761-43.7542c24.1667 0 43.7474 19.5943 43.7474 43.7542 0 24.1667-19.5875 43.7609-43.7474 43.7609z" fill="#231f20"/></g><g fill="#fff" transform="matrix(6.7941241 0 0 6.7941241 -10.051693 .007558)"><path d="m389.489 186.786v-18.555h-18.367v-22.409h18.367v-18.318h22.856v18.318h17.944v22.409l-17.946-.003v18.558zm-17.368-19.556h18.369v18.554h20.854v-18.554h17.944v-20.407h-17.443v-.5h.5-.5v.5h-.501v-18.319h-20.854v18.319l-18.369-.002zm28.705-3.244v-.498-.502c3.279-.006 5.932-2.658 5.938-5.939-.006-3.281-2.658-5.936-5.938-5.941-3.283.006-5.936 2.66-5.941 5.941.006 3.281 2.658 5.934 5.941 5.941v.5.498c-3.836 0-6.941-3.107-6.944-6.939.003-3.834 3.108-6.94 6.944-6.942 3.832.002 6.938 3.108 6.938 6.942 0 3.832-3.106 6.939-6.938 6.942z"/><path d="m407.08 173.578h-12.584l6.179 6.18z"/><path d="m417.392 150.681v12.582l6.182-6.18z"/><path d="m384.181 163.263v-12.582l-6.18 6.179z"/></g><g stroke-width="6.79412"><path d="m3680.5233 869.68941h-238.1272c-44.1347 0-79.9397 35.79145-79.9397 79.93967v236.09582c0 44.1482 35.805 79.9397 79.9397 79.9397h238.1272c44.1482 0 79.9397-35.7915 79.9397-79.9397v-236.09582c-.02-44.15501-35.7915-79.93967-79.9397-79.93967zm-119.0738 317.03419c-65.937 0-119.3999-53.4561-119.3999-119.3931s53.4629-119.38637 119.3999-119.38637 119.3999 53.44937 119.3999 119.38637-53.4629 119.3931-119.3999 119.3931z" fill="#231f20"/><path d="m3442.3893 1269.048c-46.0098 0-83.3368-37.3065-83.3368-83.3367v-236.08902c0-46.03698 37.3202-83.33672 83.3368-83.35031h238.134v3.40386 3.39026h-238.134c-42.2595.0951-76.4679 34.28315-76.5426 76.55619v236.08902c.075 42.273 34.2831 76.4611 76.5426 76.5358h238.134c42.2663-.075 76.4543-34.2628 76.5426-76.5358v-236.08902c-.014-42.28662-34.2763-76.55619-76.5426-76.55619v-3.39026-3.40386c46.0234.0136 83.3096 37.32012 83.3232 83.35031l.014 236.08902c-.014 46.0234-37.3201 83.3367-83.3367 83.3367zm-3.7436-201.7243c0-67.81216 54.9916-122.77663 122.7902-122.79022 67.819.0136 122.797 54.97806 122.8106 122.79022-.014 67.8189-54.9916 122.7902-122.8106 122.7902v-3.3903-3.4038c64.0686-.1223 115.901-51.9479 116.0097-115.9961-.1155-64.055-51.9479-115.88059-116.0097-115.9893-64.0686.1155-115.8806 51.9411-115.9893 115.9893.1155 64.055 51.9275 115.8806 115.9893 115.9961v3.4038 3.3903c-67.7986 0-122.7902-54.9713-122.7902-122.7902z" fill="#fff"/><path d="m1414.3364 872.10133h41.152v42.59236h-41.152z" fill="#c0392b"/><path d="m2670.2031 953.67158h85.4972l-42.0012-41.98089z" fill="#fff"/></g><g transform="matrix(1.0001351 0 0 1.0001351 1.735535 -.028392)"><path d="m3325 187.9 309.7 2 143.8-149.6-529.9-2-497.8 499.8-69.7 3.9 1.9-480.8-279.9 285.6-67 8v-291.1l-573.1 567-71.2 7.6 6-583.4-500.8 508.5-65.8.4-7.7-488.5-270.2 272.2-75.2 3.8 2.9-290.6-714 719.8 235.1-3.8 308.4-299.3h59.1l-2.9 300.7 245.6-251.3h58.8v256l-270.3 268.3 259-3.8 509.6-515.4h68.6v253.2l317.7 1.9 307.1-309.1 59.3-3.8-.9 292.2 245.5-245.5h57.9l3.9 247.5-5 12.9h741.6l142-143.9-461.1-7.8-4.2-66.9 71.8-75.7h174l151.1-153.1-91.3-3.9v-64.4z" fill="url(#a)"/><path d="m767.3 89.8-686.9 686.9-77.9 29.3s-4.1.3-1.8-3c0 0 796.6-796.8 798-798 1.4-1.2 3.2-.2 3.2-.2z" fill="url(#b)"/><path d="m978.8 786.6-254.9 254.9-75.2 30.3s-3.9.4-1.6-2.8l298.4-297.2z" fill="url(#d)"/><path d="m321 806h-318.5l78.1-29.3h221.5z" fill="url(#e)"/><path d="m971.7 1071.8h-323l75.2-30.3h230.1z" fill="url(#f)"/><path d="m3281.5 805.8-778.1-.2 25-30.2h731z" fill="url(#g)"/><path d="m1870.3 811.7-350-.2c-2.3 0-5.5-2.3-5.5-2.3l31-28h306.1z" fill="url(#h)"/><path d="m3231.2 13h602.2c5.3 0 5.3 2.1 5.3 2.1l-71.8 30.9h-510.6z" fill="url(#i)"/><path d="m3650.1 212.7h-314.9l-14.1-28.6h307.8z" fill="url(#j)"/><path d="m3205.4 508.3h-167.6l-28-25.3h174z" fill="url(#k)"/><path d="m3329.1 337.6h-92.3l-8.1-37.7h173c2.4-.3 3 1 3 1z" fill="url(#l)"/><path d="m646.3 479.8-325.3 326.2-18.8-29.3 316.6-315c13.6-15.7 31.8-11.8 31.8-11.8z" fill="url(#m)"/><path d="m767.5 351v-261.4l34.4-84.9s2.1.5 2.1 3.9v364.4l-2.1 15.7c-.1 0-30.7.2-34.4-37.7z" fill="url(#n)"/><path d="m1162.8 603.5s-44.4 13.2-45-38.2c-.5-49.7-.1-470.7-.1-470.7l35.4-94.4s1.2-.2 1.2 4.9l-.1 555.6z" fill="url(#o)"/><path d="m1726 671.9s-40 3.9-40.5-41.4l-.2-543.9 31.6-82s4 1 4 6.2l-.1 619.1z" fill="url(#p)"/><path d="m2359.7 390.1s-33.1 3.1-38.7-31v-269.8l29.8-82.5s3.8.9 3.8 6v337.4z" fill="url(#q)"/><path d="m2710.8 579.7s-33.5 4.4-39.4-29.7v-460l32.9-85.2s1.8 1.5 1.8 11.6v524.6z" fill="url(#r)"/><path d="m652.3 820.8s-5.7-.5-5.5-7.8c0-6.2-.5-333.1-.5-333.1s-8.3-10.7 4.2-29.9c3.7.9 23.7 4.9 27.9 28.9v274.2z" fill="url(#s)"/><path d="m945 533.9s-281.8 282.2-284.5 284.9c-2.4 2.6-8.2 1.9-8.2 1.9l26-67.7 245-245.2s9.1-11.7 26-11.1z" fill="url(#t)"/><path d="m3837.3 24.7-187.3 187.9-21.2-28.6 138-138.1 71.9-30.9c.1.1 2.4 5.9-1.4 9.7z" fill="url(#u)"/><path d="m945.5 771.8-.5-237.9s-8.8-17.9 4.3-37.1c4 0 25.1 2.9 29.5 28.2v261.7z" fill="url(#v)"/><path d="m1117.7 94.6-281.6 281.7c-13.5 13.5-34.3 12.5-34.3 12.5-12.2-24 2.1-41.2 2.1-41.2s343.1-343 345.6-345.6c2.2-2.8 3.7-1.8 3.7-1.8z" fill="url(#w)"/><path d="m1685.3 86.7-505.3 505.3c-10.5 10.5-17.2 11.6-17.2 11.6-25.7-12.8-8.2-42.5-8.2-42.5s547.9-547.8 550.4-550.4c6.4-7.4 12-6 12-6z" fill="url(#x)"/><path d="m2321 89.3-571.8 571.7c-9.7 9.7-23.3 10.9-23.3 10.9-21.2-10.6-5.3-41.9-5.3-41.9s615.5-614.8 618-617.4c6.4-7.5 12.1-5.9 12.1-5.9z" fill="url(#y)"/><path d="m2671.4 90-288.8 288.8c-9.7 9.7-22.9 11.3-22.9 11.3-19.9-13-4-40.6-4-40.6s336.9-337.6 339.3-340.2c7.1-7 9.4-4.5 9.4-4.5z" fill="url(#z)"/><path d="m3404.9 308.8-199.5 199.5-21.7-25.3 145.4-145.4 75.6-36.7c.1 0 2.9 2 .2 7.9z" fill="url(#A)"/><path d="m3477.5 611.1-196 194.6-22.1-30.3 136.2-136.2 83.5-36.5c-.1 0 2.6 2.9-1.6 8.4z" fill="url(#B)"/><path d="m3256.3 46-522.5 522.5c-9.7 9.7-23.1 11.2-23.1 11.2-16.6-21-4.7-40.6-4.7-40.6l525-526.1z" fill="url(#C)"/><path d="m3335.2 212.7-86.1 86.9c-18.8 15.5-12.2 38.1-12.2 38.1-15.3-1.4-21.2-14-23.2-25.1-1.9-11.1 2.1-23.2 9.2-30.3l98.3-98.1z" fill="url(#D)"/><path d="m954 1041.5 529.3-529.5s9.8-12.7 29-12l-3.1 35.5s-534.4 533.3-537.4 536.3z" fill="url(#E)"/><path d="m1851.8 781.3 323.7-323.8s9.8-12.7 29-12l-5.8 38.2-328.3 328z" fill="url(#F)"/><path d="m2230.8 749 249.9-250c5.7-5.7 12.1-12 23.1-12l-.7 37.4-292.7 292.4c-3.9 3.8-6.9 2.7-6.9 2.7z" fill="url(#G)"/><path d="m2448.8 800.4 47.7-47.9 37.8 15.8-30.9 37.3h-52.4c-2.7 0-4.1-3.3-2.2-5.2z" fill="url(#H)"/><path d="m1509.8 797.1-.6-261.6s-11.8-13.7 3.1-35.5c4.6-.1 28.5 3.2 33.5 32v249.3l-31 28c0-.1-5-3.3-5-12.2z" fill="url(#I)"/><path d="m2199.1 814.8-.5-331.2s-10-18.2 5.9-38.2c4-.1 22 3.2 26.4 31.9v271.7l-27.4 70.6c-.1-.1-4.1-1-4.4-4.8z" fill="url(#J)"/><path d="m2496.5 752.5v-221.6s-14.4-23 7.2-43.9c4.7-.1 28.1 1.6 30.5 29.4v251.9z" fill="url(#K)"/><path d="m3037.8 508.3-91.4 91.6-26.1 32.7c-26.5-16.7-13.3-46.7-6.2-53.8l95.7-95.6z" fill="url(#L)"/><path d="m3395.6 639.2h-451c-17-1.3-24.3-6.7-24.3-6.7-.1-24.3 26.1-32.7 26.1-32.7h528.1c3.7 0 4.5 2.9 4.5 2.9z" fill="url(#M)"/></g></g></svg>