<?xml version="1.0" encoding="UTF-8" standalone="no"?>
<svg
   enable-background="new 0 0 3839.5 1071.8"
   height="536"
   viewBox="0 0 1920 536"
   width="1920"
   version="1.1"
   id="svg41"
   sodipodi:docname="mame.svg"
   inkscape:version="1.3.2 (091e20e, 2023-11-25)"
   xmlns:inkscape="http://www.inkscape.org/namespaces/inkscape"
   xmlns:sodipodi="http://sodipodi.sourceforge.net/DTD/sodipodi-0.dtd"
   xmlns:xlink="http://www.w3.org/1999/xlink"
   xmlns="http://www.w3.org/2000/svg"
   xmlns:svg="http://www.w3.org/2000/svg">
  <defs
     id="defs41" />
  <sodipodi:namedview
     id="namedview41"
     pagecolor="#ffffff"
     bordercolor="#000000"
     borderopacity="0.25"
     inkscape:showpageshadow="2"
     inkscape:pageopacity="0.0"
     inkscape:pagecheckerboard="0"
     inkscape:deskcolor="#d1d1d1"
     inkscape:zoom="0.22016272"
     inkscape:cx="1921.3062"
     inkscape:cy="535.96722"
     inkscape:window-width="1312"
     inkscape:window-height="449"
     inkscape:window-x="0"
     inkscape:window-y="23"
     inkscape:window-maximized="0"
     inkscape:current-layer="svg41" />
  <linearGradient
     id="a"
     gradientTransform="matrix(1,0,0,-1,-0.1797,-14605.497)"
     gradientUnits="userSpaceOnUse"
     x1="3778.6755"
     x2="67.135002"
     y1="-15150.229"
     y2="-15150.229">
    <stop
       offset="0"
       stop-color="#173b66"
       id="stop1" />
    <stop
       offset="1"
       stop-color="#73cdf4"
       id="stop2" />
  </linearGradient>
  <linearGradient
     id="b">
    <stop
       offset="0"
       stop-color="#15416f"
       id="stop3" />
    <stop
       offset="1"
       stop-color="#66c3ee"
       id="stop4" />
  </linearGradient>
  <linearGradient
     id="c"
     gradientTransform="matrix(1,0,0,-1,-0.1797,-14605.497)"
     gradientUnits="userSpaceOnUse"
     x1="426.75571"
     x2="399.95911"
     xlink:href="#b"
     y1="-15036.05"
     y2="-15009.254" />
  <linearGradient
     id="d"
     gradientTransform="matrix(1,0,0,-1,-0.1797,-14605.497)"
     gradientUnits="userSpaceOnUse"
     x1="824.74542"
     x2="800.11652"
     xlink:href="#b"
     y1="-15546.362"
     y2="-15521.733" />
  <linearGradient
     id="e"
     gradientTransform="matrix(1,0,0,-1,-0.1797,-14605.497)"
     gradientUnits="userSpaceOnUse"
     x1="161.92101"
     x2="161.92101"
     xlink:href="#b"
     y1="-15411.464"
     y2="-15382.164" />
  <linearGradient
     id="f"
     gradientTransform="matrix(1,0,0,-1,-0.1797,-14605.497)"
     gradientUnits="userSpaceOnUse"
     x1="810.41388"
     x2="810.41388"
     xlink:href="#b"
     y1="-15677.283"
     y2="-15647.006" />
  <linearGradient
     id="g"
     gradientTransform="matrix(1,0,0,-1,-0.1797,-14605.497)"
     gradientUnits="userSpaceOnUse"
     x1="2892.6028"
     x2="2892.6028"
     xlink:href="#b"
     y1="-15411.273"
     y2="-15380.928" />
  <linearGradient
     id="h"
     gradientTransform="matrix(1,0,0,-1,-0.1797,-14605.497)"
     gradientUnits="userSpaceOnUse"
     x1="1692.713"
     x2="1692.713"
     xlink:href="#b"
     y1="-15417.19"
     y2="-15386.764" />
  <linearGradient
     id="i"
     gradientTransform="matrix(1,0,0,-1,-0.1797,-14605.497)"
     gradientUnits="userSpaceOnUse"
     x1="3535.1479"
     x2="3535.1479"
     xlink:href="#b"
     y1="-14651.538"
     y2="-14618.502" />
  <linearGradient
     id="j"
     gradientTransform="matrix(1,0,0,-1,-0.1797,-14605.497)"
     gradientUnits="userSpaceOnUse"
     x1="3485.7817"
     x2="3485.7817"
     xlink:href="#b"
     y1="-14818.162"
     y2="-14789.562" />
  <linearGradient
     id="k"
     gradientTransform="matrix(1,0,0,-1,-0.1797,-14605.497)"
     gradientUnits="userSpaceOnUse"
     x1="3107.782"
     x2="3107.782"
     xlink:href="#b"
     y1="-15113.777"
     y2="-15088.506" />
  <linearGradient
     id="l"
     gradientTransform="matrix(1,0,0,-1,-0.1797,-14605.497)"
     gradientUnits="userSpaceOnUse"
     x1="3316.9529"
     x2="3316.9529"
     xlink:href="#b"
     y1="-14943.131"
     y2="-14905.398" />
  <linearGradient
     id="m"
     gradientTransform="matrix(1,0,0,-1,-0.1797,-14605.497)"
     gradientUnits="userSpaceOnUse"
     x1="492.52121"
     x2="468.45279"
     xlink:href="#b"
     y1="-15240.098"
     y2="-15216.029" />
  <linearGradient
     id="n"
     gradientTransform="matrix(1,0,0,-1,-0.1797,-14605.497)"
     gradientUnits="userSpaceOnUse"
     x1="804.09949"
     x2="767.64697"
     xlink:href="#b"
     y1="-14802.229"
     y2="-14802.229" />
  <linearGradient
     id="o"
     gradientTransform="matrix(1,0,0,-1,-0.1797,-14605.497)"
     gradientUnits="userSpaceOnUse"
     x1="1162.9591"
     x2="1117.7144"
     xlink:href="#b"
     y1="-14908.143"
     y2="-14908.143" />
  <linearGradient
     id="p"
     gradientTransform="matrix(1,0,0,-1,-0.1797,-14605.497)"
     gradientUnits="userSpaceOnUse"
     x1="1726.1664"
     x2="1685.4543"
     xlink:href="#b"
     y1="-14943.846"
     y2="-14943.846" />
  <linearGradient
     id="q"
     gradientTransform="matrix(1,0,0,-1,-0.1797,-14605.497)"
     gradientUnits="userSpaceOnUse"
     x1="2359.8938"
     x2="2321.1658"
     xlink:href="#b"
     y1="-14803.963"
     y2="-14803.963" />
  <linearGradient
     id="r"
     gradientTransform="matrix(1,0,0,-1,-0.1797,-14605.497)"
     gradientUnits="userSpaceOnUse"
     x1="2710.9958"
     x2="2671.6155"
     xlink:href="#b"
     y1="-14897.854"
     y2="-14897.854" />
  <linearGradient
     id="s"
     gradientTransform="matrix(1,0,0,-1,-0.1797,-14605.497)"
     gradientUnits="userSpaceOnUse"
     x1="678.49261"
     x2="643.77252"
     xlink:href="#b"
     y1="-15240.861"
     y2="-15240.861" />
  <linearGradient
     id="t"
     gradientTransform="matrix(1,0,0,-1,-0.1797,-14605.497)"
     gradientUnits="userSpaceOnUse"
     x1="810.84918"
     x2="786.71252"
     xlink:href="#b"
     y1="-15274.146"
     y2="-15250.009" />
  <linearGradient
     id="u"
     gradientTransform="matrix(1,0,0,-1,-0.1797,-14605.497)"
     gradientUnits="userSpaceOnUse"
     x1="3746.8042"
     x2="3721.8767"
     xlink:href="#b"
     y1="-14721.605"
     y2="-14696.677" />
  <linearGradient
     id="v"
     gradientTransform="matrix(1,0,0,-1,-0.1797,-14605.497)"
     gradientUnits="userSpaceOnUse"
     x1="978.95068"
     x2="942.27759"
     xlink:href="#b"
     y1="-15247.25"
     y2="-15247.25" />
  <linearGradient
     id="w"
     gradientTransform="matrix(1,0,0,-1,-0.1797,-14605.497)"
     gradientUnits="userSpaceOnUse"
     x1="997.85022"
     x2="967.36328"
     xlink:href="#b"
     y1="-14820.167"
     y2="-14789.68" />
  <linearGradient
     id="x"
     gradientTransform="matrix(1,0,0,-1,-0.1797,-14605.497)"
     gradientUnits="userSpaceOnUse"
     x1="1453.4663"
     x2="1425.2167"
     xlink:href="#b"
     y1="-14924.183"
     y2="-14895.933" />
  <linearGradient
     id="y"
     gradientTransform="matrix(1,0,0,-1,-0.1797,-14605.497)"
     gradientUnits="userSpaceOnUse"
     x1="2054.4578"
     x2="2024.6748"
     xlink:href="#b"
     y1="-14961.47"
     y2="-14931.687" />
  <linearGradient
     id="z"
     gradientTransform="matrix(1,0,0,-1,-0.1797,-14605.497)"
     gradientUnits="userSpaceOnUse"
     x1="2548.0273"
     x2="2519.4426"
     xlink:href="#b"
     y1="-14819.156"
     y2="-14790.568" />
  <linearGradient
     id="A"
     gradientTransform="matrix(1,0,0,-1,-0.1797,-14605.497)"
     gradientUnits="userSpaceOnUse"
     x1="3307.2859"
     x2="3283.8015"
     xlink:href="#b"
     y1="-15012.108"
     y2="-14988.626" />
  <linearGradient
     id="B"
     gradientTransform="matrix(1,0,0,-1,-0.1797,-14605.497)"
     gradientUnits="userSpaceOnUse"
     x1="3382.4878"
     x2="3355.5847"
     xlink:href="#b"
     y1="-15311.773"
     y2="-15284.871" />
  <linearGradient
     id="C"
     gradientTransform="matrix(1,0,0,-1,-0.1797,-14605.497)"
     gradientUnits="userSpaceOnUse"
     x1="2988.675"
     x2="2959.5793"
     xlink:href="#b"
     y1="-14919.38"
     y2="-14890.285" />
  <linearGradient
     id="D"
     gradientTransform="matrix(1,0,0,-1,-0.1797,-14605.497)"
     gradientUnits="userSpaceOnUse"
     x1="3294.5244"
     x2="3259.7908"
     xlink:href="#b"
     y1="-14885.651"
     y2="-14850.917" />
  <linearGradient
     id="E"
     gradientTransform="matrix(1,0,0,-1,-0.1797,-14605.497)"
     gradientUnits="userSpaceOnUse"
     x1="1250.5677"
     x2="1225.8203"
     xlink:href="#b"
     y1="-15399.775"
     y2="-15375.027" />
  <linearGradient
     id="F"
     gradientTransform="matrix(1,0,0,-1,-0.1797,-14605.497)"
     gradientUnits="userSpaceOnUse"
     x1="2045.7185"
     x2="2020.9821"
     xlink:href="#b"
     y1="-15242.232"
     y2="-15217.495" />
  <linearGradient
     id="G"
     gradientTransform="matrix(1,0,0,-1,-0.1797,-14605.497)"
     gradientUnits="userSpaceOnUse"
     x1="2364.0522"
     x2="2340.2117"
     xlink:href="#b"
     y1="-15269.031"
     y2="-15245.189" />
  <linearGradient
     id="H"
     gradientTransform="matrix(1,0,0,-1,-0.1797,-14605.497)"
     gradientUnits="userSpaceOnUse"
     x1="2507.1753"
     x2="2477.217"
     xlink:href="#b"
     y1="-15407.465"
     y2="-15377.508" />
  <linearGradient
     id="I"
     gradientTransform="matrix(1,0,0,-1,-0.1797,-14605.497)"
     gradientUnits="userSpaceOnUse"
     x1="1545.9348"
     x2="1504.9176"
     xlink:href="#b"
     y1="-15260.089"
     y2="-15260.089" />
  <linearGradient
     id="J"
     gradientTransform="matrix(1,0,0,-1,-0.1797,-14605.497)"
     gradientUnits="userSpaceOnUse"
     x1="2231.0129"
     x2="2195.6035"
     xlink:href="#b"
     y1="-15238.008"
     y2="-15238.008" />
  <linearGradient
     id="K"
     gradientTransform="matrix(1,0,0,-1,-0.1797,-14605.497)"
     gradientUnits="userSpaceOnUse"
     x1="2534.4329"
     x2="2492.012"
     xlink:href="#b"
     y1="-15233.171"
     y2="-15233.171" />
  <linearGradient
     id="L"
     gradientTransform="matrix(1,0,0,-1,-0.1797,-14605.497)"
     gradientUnits="userSpaceOnUse"
     x1="2980.5332"
     x2="2950.5171"
     xlink:href="#b"
     y1="-15177.936"
     y2="-15147.921" />
  <linearGradient
     id="M"
     gradientTransform="matrix(1,0,0,-1,-0.1797,-14605.497)"
     gradientUnits="userSpaceOnUse"
     x1="3199.8369"
     x2="3199.8369"
     xlink:href="#b"
     y1="-15244.737"
     y2="-15205.329" />
  <g
     id="g1"
     transform="scale(0.50000002)">
    <g
       id="g42"
       transform="scale(1,1.0000612)">
      <g
         transform="matrix(1.0001351,0,0,1.0001351,5.35e-4,-0.026392)"
         id="g41">
        <path
           d="m 3325,187.9 309.7,2 143.8,-149.6 -529.9,-2 -497.8,499.8 -69.7,3.9 1.9,-480.8 -279.9,285.6 -67,8 V 63.7 l -573.1,567 -71.2,7.6 6,-583.4 -500.8,508.5 -65.8,0.4 -7.7,-488.5 -270.2,272.2 -75.2,3.8 L 781,60.7 67,780.5 302.1,776.7 610.5,477.4 h 59.1 l -2.9,300.7 245.6,-251.3 h 58.8 v 256 l -270.3,268.3 259,-3.8 509.6,-515.4 h 68.6 v 253.2 l 317.7,1.9 307.1,-309.1 59.3,-3.8 -0.9,292.2 245.5,-245.5 h 57.9 l 3.9,247.5 -5,12.9 h 741.6 l 142,-143.9 -461.1,-7.8 -4.2,-66.9 71.8,-75.7 h 174 l 151.1,-153.1 -91.3,-3.9 v -64.4 z"
           fill="url(#a)"
           id="path4"
           style="fill:url(#a)" />
        <path
           d="M 767.3,89.8 80.4,776.7 2.5,806 c 0,0 -4.1,0.3 -1.8,-3 0,0 796.6,-796.8 798,-798 1.4,-1.2 3.2,-0.2 3.2,-0.2 z"
           fill="url(#c)"
           id="path5"
           style="fill:url(#c)" />
        <path
           d="m 978.8,786.6 -254.9,254.9 -75.2,30.3 c 0,0 -3.9,0.4 -1.6,-2.8 L 945.5,771.8 Z"
           fill="url(#d)"
           id="path6"
           style="fill:url(#d)" />
        <path
           d="M 321,806 H 2.5 l 78.1,-29.3 h 221.5 z"
           fill="url(#e)"
           id="path7"
           style="fill:url(#e)" />
        <path
           d="m 971.7,1071.8 h -323 l 75.2,-30.3 H 954 Z"
           fill="url(#f)"
           id="path8"
           style="fill:url(#f)" />
        <path
           d="m 3281.5,805.8 -778.1,-0.2 25,-30.2 h 731 z"
           fill="url(#g)"
           id="path9"
           style="fill:url(#g)" />
        <path
           d="m 1870.3,811.7 -350,-0.2 c -2.3,0 -5.5,-2.3 -5.5,-2.3 l 31,-28 h 306.1 z"
           fill="url(#h)"
           id="path10"
           style="fill:url(#h)" />
        <path
           d="m 3231.2,13 h 602.2 c 5.3,0 5.3,2.1 5.3,2.1 L 3766.9,46 h -510.6 z"
           fill="url(#i)"
           id="path11"
           style="fill:url(#i)" />
        <path
           d="m 3650.1,212.7 h -314.9 l -14.1,-28.6 h 307.8 z"
           fill="url(#j)"
           id="path12"
           style="fill:url(#j)" />
        <path
           d="m 3205.4,508.3 h -167.6 l -28,-25.3 h 174 z"
           fill="url(#k)"
           id="path13"
           style="fill:url(#k)" />
        <path
           d="m 3329.1,337.6 h -92.3 l -8.1,-37.7 h 173 c 2.4,-0.3 3,1 3,1 z"
           fill="url(#l)"
           id="path14"
           style="fill:url(#l)" />
        <path
           d="M 646.3,479.8 321,806 302.2,776.7 618.8,461.7 c 13.6,-15.7 31.8,-11.8 31.8,-11.8 z"
           fill="url(#m)"
           id="path15"
           style="fill:url(#m)" />
        <path
           d="M 767.5,351 V 89.6 L 801.9,4.7 c 0,0 2.1,0.5 2.1,3.9 V 373 l -2.1,15.7 c -0.1,0 -30.7,0.2 -34.4,-37.7 z"
           fill="url(#n)"
           id="path16"
           style="fill:url(#n)" />
        <path
           d="m 1162.8,603.5 c 0,0 -44.4,13.2 -45,-38.2 -0.5,-49.7 -0.1,-470.7 -0.1,-470.7 l 35.4,-94.4 c 0,0 1.2,-0.2 1.2,4.9 l -0.1,555.6 z"
           fill="url(#o)"
           id="path17"
           style="fill:url(#o)" />
        <path
           d="m 1726,671.9 c 0,0 -40,3.9 -40.5,-41.4 l -0.2,-543.9 31.6,-82 c 0,0 4,1 4,6.2 l -0.1,619.1 z"
           fill="url(#p)"
           id="path18"
           style="fill:url(#p)" />
        <path
           d="m 2359.7,390.1 c 0,0 -33.1,3.1 -38.7,-31 V 89.3 l 29.8,-82.5 c 0,0 3.8,0.9 3.8,6 v 337.4 z"
           fill="url(#q)"
           id="path19"
           style="fill:url(#q)" />
        <path
           d="m 2710.8,579.7 c 0,0 -33.5,4.4 -39.4,-29.7 V 90 l 32.9,-85.2 c 0,0 1.8,1.5 1.8,11.6 V 541 Z"
           fill="url(#r)"
           id="path20"
           style="fill:url(#r)" />
        <path
           d="m 652.3,820.8 c 0,0 -5.7,-0.5 -5.5,-7.8 0,-6.2 -0.5,-333.1 -0.5,-333.1 0,0 -8.3,-10.7 4.2,-29.9 3.7,0.9 23.7,4.9 27.9,28.9 v 274.2 z"
           fill="url(#s)"
           id="path21"
           style="fill:url(#s)" />
        <path
           d="m 945,533.9 c 0,0 -281.8,282.2 -284.5,284.9 -2.4,2.6 -8.2,1.9 -8.2,1.9 l 26,-67.7 245,-245.2 c 0,0 9.1,-11.7 26,-11.1 z"
           fill="url(#t)"
           id="path22"
           style="fill:url(#t)" />
        <path
           d="M 3837.3,24.7 3650,212.6 3628.8,184 3766.8,45.9 3838.7,15 c 0.1,0.1 2.4,5.9 -1.4,9.7 z"
           fill="url(#u)"
           id="path23"
           style="fill:url(#u)" />
        <path
           d="M 945.5,771.8 945,533.9 c 0,0 -8.8,-17.9 4.3,-37.1 4,0 25.1,2.9 29.5,28.2 v 261.7 z"
           fill="url(#v)"
           id="path24"
           style="fill:url(#v)" />
        <path
           d="M 1117.7,94.6 836.1,376.3 c -13.5,13.5 -34.3,12.5 -34.3,12.5 -12.2,-24 2.1,-41.2 2.1,-41.2 0,0 343.1,-343 345.6,-345.6 2.2,-2.8 3.7,-1.8 3.7,-1.8 z"
           fill="url(#w)"
           id="path25"
           style="fill:url(#w)" />
        <path
           d="M 1685.3,86.7 1180,592 c -10.5,10.5 -17.2,11.6 -17.2,11.6 -25.7,-12.8 -8.2,-42.5 -8.2,-42.5 0,0 547.9,-547.8 550.4,-550.4 6.4,-7.4 12,-6 12,-6 z"
           fill="url(#x)"
           id="path26"
           style="fill:url(#x)" />
        <path
           d="M 2321,89.3 1749.2,661 c -9.7,9.7 -23.3,10.9 -23.3,10.9 -21.2,-10.6 -5.3,-41.9 -5.3,-41.9 0,0 615.5,-614.8 618,-617.4 6.4,-7.5 12.1,-5.9 12.1,-5.9 z"
           fill="url(#y)"
           id="path27"
           style="fill:url(#y)" />
        <path
           d="m 2671.4,90 -288.8,288.8 c -9.7,9.7 -22.9,11.3 -22.9,11.3 -19.9,-13 -4,-40.6 -4,-40.6 0,0 336.9,-337.6 339.3,-340.2 7.1,-7 9.4,-4.5 9.4,-4.5 z"
           fill="url(#z)"
           id="path28"
           style="fill:url(#z)" />
        <path
           d="m 3404.9,308.8 -199.5,199.5 -21.7,-25.3 145.4,-145.4 75.6,-36.7 c 0.1,0 2.9,2 0.2,7.9 z"
           fill="url(#A)"
           id="path29"
           style="fill:url(#A)" />
        <path
           d="m 3477.5,611.1 -196,194.6 -22.1,-30.3 136.2,-136.2 83.5,-36.5 c -0.1,0 2.6,2.9 -1.6,8.4 z"
           fill="url(#B)"
           id="path30"
           style="fill:url(#B)" />
        <path
           d="m 3256.3,46 -522.5,522.5 c -9.7,9.7 -23.1,11.2 -23.1,11.2 -16.6,-21 -4.7,-40.6 -4.7,-40.6 L 3231,13 Z"
           fill="url(#C)"
           id="path31"
           style="fill:url(#C)" />
        <path
           d="m 3335.2,212.7 -86.1,86.9 c -18.8,15.5 -12.2,38.1 -12.2,38.1 -15.3,-1.4 -21.2,-14 -23.2,-25.1 -1.9,-11.1 2.1,-23.2 9.2,-30.3 l 98.3,-98.1 z"
           fill="url(#D)"
           id="path32"
           style="fill:url(#D)" />
        <path
           d="M 954,1041.5 1483.3,512 c 0,0 9.8,-12.7 29,-12 l -3.1,35.5 c 0,0 -534.4,533.3 -537.4,536.3 z"
           fill="url(#E)"
           id="path33"
           style="fill:url(#E)" />
        <path
           d="m 1851.8,781.3 323.7,-323.8 c 0,0 9.8,-12.7 29,-12 l -5.8,38.2 -328.3,328 z"
           fill="url(#F)"
           id="path34"
           style="fill:url(#F)" />
        <path
           d="m 2230.8,749 249.9,-250 c 5.7,-5.7 12.1,-12 23.1,-12 l -0.7,37.4 -292.7,292.4 c -3.9,3.8 -6.9,2.7 -6.9,2.7 z"
           fill="url(#G)"
           id="path35"
           style="fill:url(#G)" />
        <path
           d="m 2448.8,800.4 47.7,-47.9 37.8,15.8 -30.9,37.3 H 2451 c -2.7,0 -4.1,-3.3 -2.2,-5.2 z"
           fill="url(#H)"
           id="path36"
           style="fill:url(#H)" />
        <path
           d="m 1509.8,797.1 -0.6,-261.6 c 0,0 -11.8,-13.7 3.1,-35.5 4.6,-0.1 28.5,3.2 33.5,32 v 249.3 l -31,28 c 0,-0.1 -5,-3.3 -5,-12.2 z"
           fill="url(#I)"
           id="path37"
           style="fill:url(#I)" />
        <path
           d="m 2199.1,814.8 -0.5,-331.2 c 0,0 -10,-18.2 5.9,-38.2 4,-0.1 22,3.2 26.4,31.9 V 749 l -27.4,70.6 c -0.1,-0.1 -4.1,-1 -4.4,-4.8 z"
           fill="url(#J)"
           id="path38"
           style="fill:url(#J)" />
        <path
           d="M 2496.5,752.5 V 530.9 c 0,0 -14.4,-23 7.2,-43.9 4.7,-0.1 28.1,1.6 30.5,29.4 v 251.9 z"
           fill="url(#K)"
           id="path39"
           style="fill:url(#K)" />
        <path
           d="m 3037.8,508.3 -91.4,91.6 -26.1,32.7 c -26.5,-16.7 -13.3,-46.7 -6.2,-53.8 l 95.7,-95.6 z"
           fill="url(#L)"
           id="path40"
           style="fill:url(#L)" />
        <path
           d="m 3395.6,639.2 h -451 c -17,-1.3 -24.3,-6.7 -24.3,-6.7 -0.1,-24.3 26.1,-32.7 26.1,-32.7 h 528.1 c 3.7,0 4.5,2.9 4.5,2.9 z"
           fill="url(#M)"
           id="path41"
           style="fill:url(#M)" />
      </g>
    </g>
  </g>
</svg>
