<svg enable-background="new 0 0 3839.5 1071.8" height="536" viewBox="0 0 1920 535.99998" width="1920" xmlns="http://www.w3.org/2000/svg" xmlns:xlink="http://www.w3.org/1999/xlink"><linearGradient id="a" gradientTransform="matrix(1 0 0 -1 -.1797 -14605.497)" gradientUnits="userSpaceOnUse" x1="3778.6755" x2="67.135002" y1="-15150.229" y2="-15150.229"><stop offset="0" stop-color="#173b66"/><stop offset="1" stop-color="#73cdf4"/></linearGradient><linearGradient id="b"><stop offset="0" stop-color="#15416f"/><stop offset="1" stop-color="#66c3ee"/></linearGradient><linearGradient id="c" gradientTransform="matrix(1 0 0 -1 -.1797 -14605.497)" gradientUnits="userSpaceOnUse" x1="426.75571" x2="399.95911" xlink:href="#b" y1="-15036.05" y2="-15009.254"/><linearGradient id="d" gradientTransform="matrix(1 0 0 -1 -.1797 -14605.497)" gradientUnits="userSpaceOnUse" x1="824.74542" x2="800.11652" xlink:href="#b" y1="-15546.362" y2="-15521.733"/><linearGradient id="e" gradientTransform="matrix(1 0 0 -1 -.1797 -14605.497)" gradientUnits="userSpaceOnUse" x1="161.92101" x2="161.92101" xlink:href="#b" y1="-15411.464" y2="-15382.164"/><linearGradient id="f" gradientTransform="matrix(1 0 0 -1 -.1797 -14605.497)" gradientUnits="userSpaceOnUse" x1="810.41388" x2="810.41388" xlink:href="#b" y1="-15677.283" y2="-15647.006"/><linearGradient id="g" gradientTransform="matrix(1 0 0 -1 -.1797 -14605.497)" gradientUnits="userSpaceOnUse" x1="2892.6028" x2="2892.6028" xlink:href="#b" y1="-15411.273" y2="-15380.928"/><linearGradient id="h" gradientTransform="matrix(1 0 0 -1 -.1797 -14605.497)" gradientUnits="userSpaceOnUse" x1="1692.713" x2="1692.713" xlink:href="#b" y1="-15417.19" y2="-15386.764"/><linearGradient id="i" gradientTransform="matrix(1 0 0 -1 -.1797 -14605.497)" gradientUnits="userSpaceOnUse" x1="3535.1479" x2="3535.1479" xlink:href="#b" y1="-14651.538" y2="-14618.502"/><linearGradient id="j" gradientTransform="matrix(1 0 0 -1 -.1797 -14605.497)" gradientUnits="userSpaceOnUse" x1="3485.7817" x2="3485.7817" xlink:href="#b" y1="-14818.162" y2="-14789.562"/><linearGradient id="k" gradientTransform="matrix(1 0 0 -1 -.1797 -14605.497)" gradientUnits="userSpaceOnUse" x1="3107.782" x2="3107.782" xlink:href="#b" y1="-15113.777" y2="-15088.506"/><linearGradient id="l" gradientTransform="matrix(1 0 0 -1 -.1797 -14605.497)" gradientUnits="userSpaceOnUse" x1="3316.9529" x2="3316.9529" xlink:href="#b" y1="-14943.131" y2="-14905.398"/><linearGradient id="m" gradientTransform="matrix(1 0 0 -1 -.1797 -14605.497)" gradientUnits="userSpaceOnUse" x1="492.52121" x2="468.45279" xlink:href="#b" y1="-15240.098" y2="-15216.029"/><linearGradient id="n" gradientTransform="matrix(1 0 0 -1 -.1797 -14605.497)" gradientUnits="userSpaceOnUse" x1="804.09949" x2="767.64697" xlink:href="#b" y1="-14802.229" y2="-14802.229"/><linearGradient id="o" gradientTransform="matrix(1 0 0 -1 -.1797 -14605.497)" gradientUnits="userSpaceOnUse" x1="1162.9591" x2="1117.7144" xlink:href="#b" y1="-14908.143" y2="-14908.143"/><linearGradient id="p" gradientTransform="matrix(1 0 0 -1 -.1797 -14605.497)" gradientUnits="userSpaceOnUse" x1="1726.1664" x2="1685.4543" xlink:href="#b" y1="-14943.846" y2="-14943.846"/><linearGradient id="q" gradientTransform="matrix(1 0 0 -1 -.1797 -14605.497)" gradientUnits="userSpaceOnUse" x1="2359.8938" x2="2321.1658" xlink:href="#b" y1="-14803.963" y2="-14803.963"/><linearGradient id="r" gradientTransform="matrix(1 0 0 -1 -.1797 -14605.497)" gradientUnits="userSpaceOnUse" x1="2710.9958" x2="2671.6155" xlink:href="#b" y1="-14897.854" y2="-14897.854"/><linearGradient id="s" gradientTransform="matrix(1 0 0 -1 -.1797 -14605.497)" gradientUnits="userSpaceOnUse" x1="678.49261" x2="643.77252" xlink:href="#b" y1="-15240.861" y2="-15240.861"/><linearGradient id="t" gradientTransform="matrix(1 0 0 -1 -.1797 -14605.497)" gradientUnits="userSpaceOnUse" x1="810.84918" x2="786.71252" xlink:href="#b" y1="-15274.146" y2="-15250.009"/><linearGradient id="u" gradientTransform="matrix(1 0 0 -1 -.1797 -14605.497)" gradientUnits="userSpaceOnUse" x1="3746.8042" x2="3721.8767" xlink:href="#b" y1="-14721.605" y2="-14696.677"/><linearGradient id="v" gradientTransform="matrix(1 0 0 -1 -.1797 -14605.497)" gradientUnits="userSpaceOnUse" x1="978.95068" x2="942.27759" xlink:href="#b" y1="-15247.25" y2="-15247.25"/><linearGradient id="w" gradientTransform="matrix(1 0 0 -1 -.1797 -14605.497)" gradientUnits="userSpaceOnUse" x1="997.85022" x2="967.36328" xlink:href="#b" y1="-14820.167" y2="-14789.68"/><linearGradient id="x" gradientTransform="matrix(1 0 0 -1 -.1797 -14605.497)" gradientUnits="userSpaceOnUse" x1="1453.4663" x2="1425.2167" xlink:href="#b" y1="-14924.183" y2="-14895.933"/><linearGradient id="y" gradientTransform="matrix(1 0 0 -1 -.1797 -14605.497)" gradientUnits="userSpaceOnUse" x1="2054.4578" x2="2024.6748" xlink:href="#b" y1="-14961.47" y2="-14931.687"/><linearGradient id="z" gradientTransform="matrix(1 0 0 -1 -.1797 -14605.497)" gradientUnits="userSpaceOnUse" x1="2548.0273" x2="2519.4426" xlink:href="#b" y1="-14819.156" y2="-14790.568"/><linearGradient id="A" gradientTransform="matrix(1 0 0 -1 -.1797 -14605.497)" gradientUnits="userSpaceOnUse" x1="3307.2859" x2="3283.8015" xlink:href="#b" y1="-15012.108" y2="-14988.626"/><linearGradient id="B" gradientTransform="matrix(1 0 0 -1 -.1797 -14605.497)" gradientUnits="userSpaceOnUse" x1="3382.4878" x2="3355.5847" xlink:href="#b" y1="-15311.773" y2="-15284.871"/><linearGradient id="C" gradientTransform="matrix(1 0 0 -1 -.1797 -14605.497)" gradientUnits="userSpaceOnUse" x1="2988.675" x2="2959.5793" xlink:href="#b" y1="-14919.38" y2="-14890.285"/><linearGradient id="D" gradientTransform="matrix(1 0 0 -1 -.1797 -14605.497)" gradientUnits="userSpaceOnUse" x1="3294.5244" x2="3259.7908" xlink:href="#b" y1="-14885.651" y2="-14850.917"/><linearGradient id="E" gradientTransform="matrix(1 0 0 -1 -.1797 -14605.497)" gradientUnits="userSpaceOnUse" x1="1250.5677" x2="1225.8203" xlink:href="#b" y1="-15399.775" y2="-15375.027"/><linearGradient id="F" gradientTransform="matrix(1 0 0 -1 -.1797 -14605.497)" gradientUnits="userSpaceOnUse" x1="2045.7185" x2="2020.9821" xlink:href="#b" y1="-15242.232" y2="-15217.495"/><linearGradient id="G" gradientTransform="matrix(1 0 0 -1 -.1797 -14605.497)" gradientUnits="userSpaceOnUse" x1="2364.0522" x2="2340.2117" xlink:href="#b" y1="-15269.031" y2="-15245.189"/><linearGradient id="H" gradientTransform="matrix(1 0 0 -1 -.1797 -14605.497)" gradientUnits="userSpaceOnUse" x1="2507.1753" x2="2477.217" xlink:href="#b" y1="-15407.465" y2="-15377.508"/><linearGradient id="I" gradientTransform="matrix(1 0 0 -1 -.1797 -14605.497)" gradientUnits="userSpaceOnUse" x1="1545.9348" x2="1504.9176" xlink:href="#b" y1="-15260.089" y2="-15260.089"/><linearGradient id="J" gradientTransform="matrix(1 0 0 -1 -.1797 -14605.497)" gradientUnits="userSpaceOnUse" x1="2231.0129" x2="2195.6035" xlink:href="#b" y1="-15238.008" y2="-15238.008"/><linearGradient id="K" gradientTransform="matrix(1 0 0 -1 -.1797 -14605.497)" gradientUnits="userSpaceOnUse" x1="2534.4329" x2="2492.012" xlink:href="#b" y1="-15233.171" y2="-15233.171"/><linearGradient id="L" gradientTransform="matrix(1 0 0 -1 -.1797 -14605.497)" gradientUnits="userSpaceOnUse" x1="2980.5332" x2="2950.5171" xlink:href="#b" y1="-15177.936" y2="-15147.921"/><linearGradient id="M" gradientTransform="matrix(1 0 0 -1 -.1797 -14605.497)" gradientUnits="userSpaceOnUse" x1="3199.8369" x2="3199.8369" xlink:href="#b" y1="-15244.737" y2="-15205.329"/><g transform="matrix(.50006757 0 0 .50009814413 .00026750001 -.01319680733)"><path d="m3325 187.9 309.7 2 143.8-149.6-529.9-2-497.8 499.8-69.7 3.9 1.9-480.8-279.9 285.6-67 8v-291.1l-573.1 567-71.2 7.6 6-583.4-500.8 508.5-65.8.4-7.7-488.5-270.2 272.2-75.2 3.8 2.9-290.6-714 719.8 235.1-3.8 308.4-299.3h59.1l-2.9 300.7 245.6-251.3h58.8v256l-270.3 268.3 259-3.8 509.6-515.4h68.6v253.2l317.7 1.9 307.1-309.1 59.3-3.8-.9 292.2 245.5-245.5h57.9l3.9 247.5-5 12.9h741.6l142-143.9-461.1-7.8-4.2-66.9 71.8-75.7h174l151.1-153.1-91.3-3.9v-64.4z" fill="url(#a)"/><path d="m767.3 89.8-686.9 686.9-77.9 29.3s-4.1.3-1.8-3c0 0 796.6-796.8 798-798 1.4-1.2 3.2-.2 3.2-.2z" fill="url(#c)"/><path d="m978.8 786.6-254.9 254.9-75.2 30.3s-3.9.4-1.6-2.8l298.4-297.2z" fill="url(#d)"/><path d="m321 806h-318.5l78.1-29.3h221.5z" fill="url(#e)"/><path d="m971.7 1071.8h-323l75.2-30.3h230.1z" fill="url(#f)"/><path d="m3281.5 805.8-778.1-.2 25-30.2h731z" fill="url(#g)"/><path d="m1870.3 811.7-350-.2c-2.3 0-5.5-2.3-5.5-2.3l31-28h306.1z" fill="url(#h)"/><path d="m3231.2 13h602.2c5.3 0 5.3 2.1 5.3 2.1l-71.8 30.9h-510.6z" fill="url(#i)"/><path d="m3650.1 212.7h-314.9l-14.1-28.6h307.8z" fill="url(#j)"/><path d="m3205.4 508.3h-167.6l-28-25.3h174z" fill="url(#k)"/><path d="m3329.1 337.6h-92.3l-8.1-37.7h173c2.4-.3 3 1 3 1z" fill="url(#l)"/><path d="m646.3 479.8-325.3 326.2-18.8-29.3 316.6-315c13.6-15.7 31.8-11.8 31.8-11.8z" fill="url(#m)"/><path d="m767.5 351v-261.4l34.4-84.9s2.1.5 2.1 3.9v364.4l-2.1 15.7c-.1 0-30.7.2-34.4-37.7z" fill="url(#n)"/><path d="m1162.8 603.5s-44.4 13.2-45-38.2c-.5-49.7-.1-470.7-.1-470.7l35.4-94.4s1.2-.2 1.2 4.9l-.1 555.6z" fill="url(#o)"/><path d="m1726 671.9s-40 3.9-40.5-41.4l-.2-543.9 31.6-82s4 1 4 6.2l-.1 619.1z" fill="url(#p)"/><path d="m2359.7 390.1s-33.1 3.1-38.7-31v-269.8l29.8-82.5s3.8.9 3.8 6v337.4z" fill="url(#q)"/><path d="m2710.8 579.7s-33.5 4.4-39.4-29.7v-460l32.9-85.2s1.8 1.5 1.8 11.6v524.6z" fill="url(#r)"/><path d="m652.3 820.8s-5.7-.5-5.5-7.8c0-6.2-.5-333.1-.5-333.1s-8.3-10.7 4.2-29.9c3.7.9 23.7 4.9 27.9 28.9v274.2z" fill="url(#s)"/><path d="m945 533.9s-281.8 282.2-284.5 284.9c-2.4 2.6-8.2 1.9-8.2 1.9l26-67.7 245-245.2s9.1-11.7 26-11.1z" fill="url(#t)"/><path d="m3837.3 24.7-187.3 187.9-21.2-28.6 138-138.1 71.9-30.9c.1.1 2.4 5.9-1.4 9.7z" fill="url(#u)"/><path d="m945.5 771.8-.5-237.9s-8.8-17.9 4.3-37.1c4 0 25.1 2.9 29.5 28.2v261.7z" fill="url(#v)"/><path d="m1117.7 94.6-281.6 281.7c-13.5 13.5-34.3 12.5-34.3 12.5-12.2-24 2.1-41.2 2.1-41.2s343.1-343 345.6-345.6c2.2-2.8 3.7-1.8 3.7-1.8z" fill="url(#w)"/><path d="m1685.3 86.7-505.3 505.3c-10.5 10.5-17.2 11.6-17.2 11.6-25.7-12.8-8.2-42.5-8.2-42.5s547.9-547.8 550.4-550.4c6.4-7.4 12-6 12-6z" fill="url(#x)"/><path d="m2321 89.3-571.8 571.7c-9.7 9.7-23.3 10.9-23.3 10.9-21.2-10.6-5.3-41.9-5.3-41.9s615.5-614.8 618-617.4c6.4-7.5 12.1-5.9 12.1-5.9z" fill="url(#y)"/><path d="m2671.4 90-288.8 288.8c-9.7 9.7-22.9 11.3-22.9 11.3-19.9-13-4-40.6-4-40.6s336.9-337.6 339.3-340.2c7.1-7 9.4-4.5 9.4-4.5z" fill="url(#z)"/><path d="m3404.9 308.8-199.5 199.5-21.7-25.3 145.4-145.4 75.6-36.7c.1 0 2.9 2 .2 7.9z" fill="url(#A)"/><path d="m3477.5 611.1-196 194.6-22.1-30.3 136.2-136.2 83.5-36.5c-.1 0 2.6 2.9-1.6 8.4z" fill="url(#B)"/><path d="m3256.3 46-522.5 522.5c-9.7 9.7-23.1 11.2-23.1 11.2-16.6-21-4.7-40.6-4.7-40.6l525-526.1z" fill="url(#C)"/><path d="m3335.2 212.7-86.1 86.9c-18.8 15.5-12.2 38.1-12.2 38.1-15.3-1.4-21.2-14-23.2-25.1-1.9-11.1 2.1-23.2 9.2-30.3l98.3-98.1z" fill="url(#D)"/><path d="m954 1041.5 529.3-529.5s9.8-12.7 29-12l-3.1 35.5s-534.4 533.3-537.4 536.3z" fill="url(#E)"/><path d="m1851.8 781.3 323.7-323.8s9.8-12.7 29-12l-5.8 38.2-328.3 328z" fill="url(#F)"/><path d="m2230.8 749 249.9-250c5.7-5.7 12.1-12 23.1-12l-.7 37.4-292.7 292.4c-3.9 3.8-6.9 2.7-6.9 2.7z" fill="url(#G)"/><path d="m2448.8 800.4 47.7-47.9 37.8 15.8-30.9 37.3h-52.4c-2.7 0-4.1-3.3-2.2-5.2z" fill="url(#H)"/><path d="m1509.8 797.1-.6-261.6s-11.8-13.7 3.1-35.5c4.6-.1 28.5 3.2 33.5 32v249.3l-31 28c0-.1-5-3.3-5-12.2z" fill="url(#I)"/><path d="m2199.1 814.8-.5-331.2s-10-18.2 5.9-38.2c4-.1 22 3.2 26.4 31.9v271.7l-27.4 70.6c-.1-.1-4.1-1-4.4-4.8z" fill="url(#J)"/><path d="m2496.5 752.5v-221.6s-14.4-23 7.2-43.9c4.7-.1 28.1 1.6 30.5 29.4v251.9z" fill="url(#K)"/><path d="m3037.8 508.3-91.4 91.6-26.1 32.7c-26.5-16.7-13.3-46.7-6.2-53.8l95.7-95.6z" fill="url(#L)"/><path d="m3395.6 639.2h-451c-17-1.3-24.3-6.7-24.3-6.7-.1-24.3 26.1-32.7 26.1-32.7h528.1c3.7 0 4.5 2.9 4.5 2.9z" fill="url(#M)"/></g></svg>