<?xml version="1.0" encoding="UTF-8" standalone="no"?>
<svg
   enable-background="new 0 0 3839 1191.1"
   height="596"
   viewBox="0 0 1920 596"
   width="1920"
   version="1.1"
   id="svg23"
   sodipodi:docname="mastersystem.svg"
   inkscape:version="1.3.2 (091e20e, 2023-11-25)"
   xmlns:inkscape="http://www.inkscape.org/namespaces/inkscape"
   xmlns:sodipodi="http://sodipodi.sourceforge.net/DTD/sodipodi-0.dtd"
   xmlns="http://www.w3.org/2000/svg"
   xmlns:svg="http://www.w3.org/2000/svg">
  <defs
     id="defs23" />
  <sodipodi:namedview
     id="namedview23"
     pagecolor="#ffffff"
     bordercolor="#000000"
     borderopacity="0.25"
     inkscape:showpageshadow="2"
     inkscape:pageopacity="0.0"
     inkscape:pagecheckerboard="0"
     inkscape:deskcolor="#d1d1d1"
     inkscape:zoom="0.19808975"
     inkscape:cx="1918.3224"
     inkscape:cy="595.68958"
     inkscape:window-width="1312"
     inkscape:window-height="449"
     inkscape:window-x="0"
     inkscape:window-y="23"
     inkscape:window-maximized="0"
     inkscape:current-layer="svg23" />
  <g
     id="g1"
     transform="scale(0.50000001)">
    <g
       id="g24"
       transform="scale(1,1.0005211)">
      <g
         transform="scale(1.0002344)"
         id="g23">
        <path
           d="M 2645.7,106.6 C 2626.1,44.4 2567.5,0 2500.1,0 2432.6,0 2374,44.4 2354.5,106.5 L 2303,259.2 V 8.9 h -269.9 c -48,0 -92.3,19.5 -126.1,51.5 V 8.9 h -277 c -51.5,0 -97.6,21.3 -131.4,56.8 V 8.9 H 1236 c -111.9,0 -204.2,92.4 -204.2,204.2 0,53.3 21.3,103 55,138.5 h -55 v 237.9 h 262.8 c 74.6,0 138.5,-39.1 175.8,-99.4 30.2,58.6 90.6,99.4 161.5,99.4 h 278.7 V 538 c 32,32 76.4,51.5 126.1,51.5 h 770.5 z"
           fill="#ffffff"
           id="path1" />
        <g
           fill="#034693"
           id="g10">
          <path
             d="m 1294.6,394.2 h -221.9 v 69.2 h 221.9 c 42.6,0 78.1,-35.5 78.1,-78.1 0,-42.6 -35.5,-78.1 -78.1,-78.1 h -56.8 c -51.5,0 -94.1,-42.6 -94.1,-94.1 0,-51.5 42.6,-94.1 94.1,-94.1 h 220.1 V 49.7 H 1236 c -90.6,0 -163.3,72.8 -163.3,163.3 0,90.5 72.8,163.3 163.3,163.3 h 56.8 c 5.3,0 8.9,3.6 8.9,8.9 -0.1,5.4 -3.6,9 -7.1,9 z"
             id="path2" />
          <path
             d="m 1236,206 h 221.9 V 135 H 1236 c -42.6,0 -78.1,35.5 -78.1,78.1 0,42.6 35.5,78.1 78.1,78.1 h 56.8 c 51.5,0 94.1,42.6 94.1,94.1 0,51.5 -42.6,94.1 -94.1,94.1 h -220.1 v 69.2 h 221.9 c 90.6,0 163.3,-72.8 163.3,-163.3 0,-90.5 -72.8,-163.3 -163.3,-163.3 h -56.8 c -5.3,0 -8.9,-3.6 -8.9,-8.9 -0.1,-3.6 3.5,-7.1 7.1,-7.1 z"
             id="path3" />
          <path
             d="m 2033.1,135 c -30.2,0 -53.3,23.1 -53.3,53.3 v 221.9 c 0,30.2 23.1,53.3 53.3,53.3 H 2177 V 307.2 h -110.1 v 69.2 h 40.8 v 16 h -40.8 c -8.9,0 -16,-7.1 -16,-16 V 220.2 c 0,-8.9 7.1,-16 16,-16 H 2264 V 135 Z"
             id="path4" />
          <path
             d="m 2469.9,463.4 h 161.5 L 2521.3,136.7 c -3.6,-8.9 -10.6,-16 -21.3,-16 -8.9,0 -17.8,7.1 -21.3,14.2 l -142,413.7 h 81.7 l 49.7,-147.3 v 62.2 z m 28.4,-149.1 23.1,71 h -48 z"
             id="path5" />
          <path
             d="m 2606.6,122.5 c -14.2,-46.2 -56.8,-81.7 -108.3,-81.7 -51.5,0 -94.1,33.7 -106.5,79.9 L 2262.2,500.6 V 221.9 h -195.3 v 69.2 h 127.8 v 188.2 h -159.8 c -39.1,0 -69.2,-32 -69.2,-69.2 V 188.2 c 0,-39.1 32,-69.2 69.2,-69.2 h 229 V 49.7 h -230.8 c -76.4,0 -138.5,62.2 -138.5,138.5 v 221.9 c 0,76.4 62.2,138.5 138.5,138.5 H 2319 l 143.8,-417.2 c 5.3,-16 19.5,-26.6 37.3,-26.6 17.8,0 32,10.6 37.3,26.6 l 117.2,348 h -184.7 v 69.2 h 280.5 z"
             id="path6" />
          <path
             d="m 1630.1,479.4 c -39.1,0 -69.2,-32 -69.2,-69.2 v -222 c 0,-39.1 32,-69.2 69.2,-69.2 H 1868 V 49.7 h -237.9 c -76.4,0 -138.5,62.2 -138.5,138.5 v 221.9 c 0,76.4 62.2,138.5 138.5,138.5 H 1868 v -69.2 z"
             id="path7" />
          <path
             d="m 1646.1,378.2 h 172.2 V 309 h -241.5 v 103 c 0,30.2 23.1,53.3 53.3,53.3 H 1868 V 396 h -205.9 c -8.9,-1.8 -16,-9 -16,-17.8 z"
             id="path8" />
          <path
             d="m 1818.3,221.9 h -172.2 c 0,-8.9 7.1,-16 16,-16 h 204.2 v -71 h -236.1 c -30.2,0 -53.3,23.1 -53.3,53.3 v 103 h 241.5 c -0.1,0 -0.1,-69.3 -0.1,-69.3 z"
             id="path9" />
          <path
             d="m 0,1118.5 h 3839 v 45.9 H 0 Z"
             id="path10" />
        </g>
        <g
           fill="#ff0000"
           id="g22">
          <path
             d="M 374,642.4 H 524.3 V 669 h -33.7 c -23.1,0 -33.1,6.5 -33.1,30.2 v 313.7 c 0,23.7 10.1,30.2 33.1,30.2 h 33.7 v 26.6 h -197 v -26.6 h 32.5 c 23.1,0 33.1,-6.5 33.1,-30.2 V 672 h -1.2 L 256.2,1069.7 H 238.4 L 97.6,672 h -1.2 v 287.6 c 0,54.4 5.9,81.7 68.6,83.4 v 26.6 H 0 V 1043 c 52.7,-4.7 66.9,-14.8 66.9,-97.6 V 699.3 c 0,-23.7 -10.1,-30.2 -33.1,-30.2 H 0 v -26.6 h 151.5 l 113,320.8 h 1.2 z"
             id="path11" />
          <path
             d="m 736.2,867.9 c 0,-37.9 -16.6,-55 -63.9,-55 -39.7,0 -55,11.8 -55,20.1 0,6.5 13,20.1 13,33.7 0,20.7 -14.2,29 -33.1,29 -21.3,0 -31.4,-17.2 -31.4,-37.3 0,-36.7 43.8,-72.2 115.4,-72.2 76.3,0 109.5,27.2 109.5,90.5 0,29.6 -1.8,113.6 -1.8,136.1 0,10.7 8.3,27.2 21.9,27.2 16,0 20.1,-7.1 26,-7.1 5.9,0 7.7,3 7.7,10.1 0,8.9 -21.9,32.5 -52.7,32.5 -30.2,0 -45,-15.4 -52.7,-44.4 -26,31.4 -66.3,47.3 -106.5,47.3 -44.4,0 -82.9,-20.7 -82.9,-70.4 0,-55.6 71,-92.9 186.4,-108.3 v -31.8 z m 0,55.7 c -102.4,14.2 -129,35.5 -129,79.3 0,28.4 23.1,46.2 49.7,46.2 36.7,0 79.3,-29.6 79.3,-78.1 z"
             id="path12" />
          <path
             d="m 1042.2,789.2 h 20.7 v 98.2 h -20.7 c -12.4,-43.8 -39.7,-77.5 -88.2,-77.5 -26,0 -54.4,13.6 -54.4,43.2 0,20.7 15.4,33.7 53.3,42 l 58,12.4 c 43.8,9.5 71,36.7 71,80.5 0,58 -42.6,90.5 -96.5,90.5 -30.2,0 -60.4,-8.9 -84,-29 l -18.3,26 H 862.4 V 963.2 H 883 c 14.8,52.1 45.6,91.7 104.2,91.7 26,0 59.2,-15.4 59.2,-45.6 0,-29 -20.7,-39.7 -65.7,-50.3 L 935,948.4 c -52.6,-12.4 -68,-39.1 -68,-79.9 0,-50.9 36.1,-82.3 86.4,-82.3 26,0 52.1,7.7 72.2,23.7 z"
             id="path13" />
          <path
             d="m 1101.9,795.1 c 62.7,-4.1 75.2,-69.8 78.7,-119.5 h 23.7 v 119.5 h 88.2 v 26.6 h -88.2 v 175.8 c 0,29 9.5,45.6 36.7,45.6 37.9,0 46.2,-50.3 46.2,-79.9 h 23.7 c -0.6,74 -26.6,115.4 -90,115.4 -39.1,0 -71,-26.6 -71,-63.9 V 821.8 H 1102 v -26.7 z"
             id="path14" />
          <path
             d="m 1384.2,936.6 v 8.3 c 0,68.6 38.5,104.2 85.2,104.2 45,0 71,-24.9 90,-63.9 l 20.1,11.2 c -24.3,53.3 -61,82.3 -120.1,82.3 -81.7,0 -135.5,-56.2 -135.5,-136.7 0,-99.4 53.9,-155.6 138.5,-155.6 69.2,0 113,62.7 117.2,150.3 H 1384.2 Z M 1489,912.9 c 24.3,0 30.2,-3.6 30.2,-22.5 0,-50.3 -24.3,-80.5 -62.1,-80.5 -46.8,0 -67.5,38.5 -72.8,103 z"
             id="path15" />
          <path
             d="m 1592.5,801 110.1,-5.9 v 70.4 h 1.2 c 7.1,-31.4 35.5,-79.3 88.2,-79.3 26,0 46.8,18.9 46.8,46.2 0,22.5 -11.8,40.2 -35.5,40.2 -19.5,0 -32.5,-14.8 -32.5,-32 0,-10.7 3,-18.9 14.2,-26.6 v -1.2 h -1.2 c -61.5,4.7 -81.1,106.5 -81.1,155.1 v 59.2 c 0,15.4 10.1,18.9 34.3,18.9 h 21.3 v 23.7 h -161 V 1046 h 19.5 c 22.5,0 31.4,-5.9 31.4,-29 V 841.3 c 0,-14.2 -8.9,-16.6 -28.4,-16.6 h -27.2 V 801 Z"
             id="path16" />
          <path
             d="m 2235.8,637.7 h 20.7 l 7.1,153.3 H 2240 c -17.2,-65.7 -59.8,-130.8 -135.5,-130.8 -58,0 -84,35.5 -84,70.4 0,29.6 15.4,55.6 71,71 l 92.3,25.4 c 67.5,18.3 99.4,62.7 99.4,124.9 0,70.4 -52.1,126.6 -145,126.6 -48.5,0 -91.1,-17.2 -123.7,-45.6 l -26.6,42.6 h -19.5 L 1966,908 l 22.5,-2.4 c 17.2,95.3 75.8,146.2 149.7,146.2 59.2,0 97.6,-31.4 97.6,-86.4 0,-34.3 -16,-57.4 -56.8,-68.1 l -95.9,-24.9 c -69.2,-17.8 -110.1,-49.7 -110.1,-116 0,-79.3 53.3,-123.1 129.6,-123.1 42.6,0 76.9,12.4 108.9,41.4 z"
             id="path17" />
          <path
             d="m 2479,795.1 h 117.8 v 23.7 c -29,0.6 -38.5,11.8 -49.7,39.7 l -76.9,186.4 c -43.8,106.5 -82.3,146.2 -132,146.2 -28.4,0 -54.4,-14.2 -54.4,-46.2 0,-20.1 16.6,-33.7 36.1,-33.7 16.6,0 28.4,12.4 28.4,24.9 0,10.7 -4.1,16 -4.1,20.1 0,5.9 3.6,8.3 7.1,8.3 25.4,0 51.5,-34.3 81.7,-99.4 l -93,-210.8 c -13,-29 -18.3,-35.5 -42,-35.5 h -7.1 v -23.7 h 139.7 v 23.7 h -8.3 c -21.9,0 -32.5,1.8 -32.5,12.4 0,4.7 2.4,11.8 5.3,18.3 l 65.1,149.1 46.2,-114.2 c 11.2,-27.2 15.4,-37.9 15.4,-47.3 0,-13 -14.8,-18.3 -24.9,-18.3 H 2479 Z"
             id="path18" />
          <path
             d="m 2788.6,789.2 h 20.7 v 98.2 h -20.7 c -12.4,-43.8 -39.7,-77.5 -88.2,-77.5 -26,0 -54.4,13.6 -54.4,43.2 0,20.7 15.4,33.7 53.3,42 l 58,12.4 c 43.8,9.5 71,36.7 71,80.5 0,58 -42.6,90.5 -96.5,90.5 -30.2,0 -60.4,-8.9 -84,-29 l -18.3,26 h -20.7 V 963.2 h 20.7 c 14.8,52.1 45.6,91.7 104.2,91.7 26,0 59.2,-15.4 59.2,-45.6 0,-29 -20.7,-39.7 -65.7,-50.3 l -45.6,-10.7 c -52.7,-12.4 -68.1,-39.1 -68.1,-79.9 0,-50.9 36.1,-82.3 86.4,-82.3 26,0 52.1,7.7 72.2,23.7 z"
             id="path19" />
          <path
             d="m 2848.3,795.1 c 62.7,-4.1 75.2,-69.8 78.7,-119.5 h 23.7 v 119.5 h 88.2 v 26.6 h -88.2 v 175.8 c 0,29 9.5,45.6 36.7,45.6 37.9,0 46.2,-50.3 46.2,-79.9 h 23.7 c -0.6,74 -26.6,115.4 -90,115.4 -39.1,0 -71,-26.6 -71,-63.9 V 821.8 h -47.9 v -26.7 z"
             id="path20" />
          <path
             d="m 3130.6,936.6 v 8.3 c 0,68.6 38.5,104.2 85.2,104.2 45,0 71,-24.9 90,-63.9 l 20.1,11.2 c -24.3,53.3 -61,82.3 -120.1,82.3 -81.7,0 -135.5,-56.2 -135.5,-136.7 0,-99.4 53.9,-155.6 138.5,-155.6 69.2,0 113,62.7 117.2,150.3 h -195.4 z m 104.8,-23.7 c 24.3,0 30.2,-3.6 30.2,-22.5 0,-50.3 -24.3,-80.5 -62.1,-80.5 -46.8,0 -67.5,38.5 -72.8,103 z"
             id="path21" />
          <path
             d="m 3694,1046.1 h 14.2 c 23.7,0 32,-7.1 32,-27.2 V 876.2 c 0,-32 -18.3,-54.4 -52.1,-54.4 -36.1,0 -66.3,27.8 -66.3,69.8 v 127.2 c 0,20.1 8.3,27.2 32,27.2 h 14.2 v 23.7 H 3521.2 V 1046 h 14.2 c 23.7,0 32,-7.1 32,-27.2 V 882.7 c 0,-38.5 -22.5,-61 -56.2,-61 -28.4,0 -62.1,34.3 -62.1,95.9 v 101.2 c 0,20.1 8.3,27.2 32,27.2 h 14.2 v 23.7 H 3343.8 V 1046 h 18.9 c 23.7,0 32,-7.1 32,-27.2 V 841.3 c 0,-14.2 -8.9,-16.6 -28.4,-16.6 h -22.5 V 801 l 105.3,-5.9 v 50.3 h 1.2 c 26.6,-49.1 62.1,-59.2 84.6,-59.2 42.6,0 72.8,26 81.1,60.4 26.6,-43.8 56.2,-60.4 92.3,-60.4 38.5,0 86.4,37.3 86.4,95.3 v 137.3 c 0,20.1 8.3,27.2 32,27.2 h 12.4 v 23.7 h -145 v -23.6 z"
             id="path22" />
        </g>
      </g>
    </g>
  </g>
</svg>
