<svg enable-background="new 0 0 3840 1850" height="926" viewBox="0 0 1920 926" width="1920" xmlns="http://www.w3.org/2000/svg"><g transform="scale(.5 .50054054)"><path d="m1511.6 37.1v1172.5h233.8v-519.8l299.4 519.8 286-.1-266.9-467.5c116.4-63.7 191.8-187.6 191.8-329.6 0-207.2-168-375.2-375.2-375.2-2.6 0-5.1.1-7.7.2v-.2h-361.2zm233.8 230.1h119.3c192.1 0 192.1 297.7 0 297.8h-119.3z"/><path d="m833.8 0c-343 0-621.1 278.1-621.1 621.1 0 342.9 278.1 620.9 621.1 620.9s620.9-277.9 620.9-620.9-277.9-621.1-620.9-621.1zm0 235.2c213.1 0 385.9 172.8 385.9 385.9s-172.8 385.9-385.9 385.9-385.9-172.8-385.9-385.9 172.8-385.9 385.9-385.9z"/><path d="m3239.2 5.5c-339.9 0-615.6 275.7-615.6 615.6s275.7 615.4 615.6 615.4c205.9 0 388.3-101.1 500-256.3l-190-135.3c-69.5 96-182.5 158.6-310.1 158.6-211.2 0-382.3-171.1-382.3-382.3s171.1-382.5 382.3-382.5c125.5 0 237 60.4 306.7 153.8l187.6-138.2c-112.1-151-291.8-248.8-494.2-248.8z"/><path d="m2330.8 37.1h235.1v1172.5h-235.1z"/><path d="m389.4 1791.6h-101.4l-22.2 52.8h-53.1l108.2-251.4h38.4l105.2 251.4h-52.8zm-14.3-40-35.8-90.5-35.8 90.5z"/><path d="m899.3 1635.2v209.2h-49v-209.2h-56.5v-42.2h162.1v42.2z"/><path d="m1351.9 1592.9h35.4l66.7 159.8 69.7-159.8h35.4l42.2 251.4h-49.8l-22.6-154.9-67.5 154.9h-16.4l-64.4-154.9-25.6 154.9h-49.7z"/><path d="m2241.2 1718.8c0 76.5-55 131.2-134.2 131.2-79.1 0-134.2-54.6-134.2-131.2s55-131.5 134.2-131.5 134.2 55 134.2 131.5zm-50.5 0c0-50.9-34.7-87.1-83.7-87.1s-83.7 36.2-83.7 87.1 34.7 86.7 83.7 86.7 83.7-35.8 83.7-86.7z"/><path d="m2749.2 1650.2c-14.7-19.6-32-21.5-41.1-21.5-26.4 0-34.7 16.6-34.7 29.4 0 6 1.9 11.7 7.9 17 6 5.7 14.3 8.7 30.2 14.3 19.6 6.8 38.1 13.6 50.9 25.3 11.3 10.2 21.5 27.1 21.5 52.8 0 49-35.4 82.5-87.4 82.5-46.4 0-73.5-28.3-86.7-47.5l32-30.5c12.1 24.5 35.1 33.5 52.8 33.5 22.2 0 38.8-13.6 38.8-34.7 0-9-3-16.2-9.8-22.6-9.4-8.7-24.5-13.6-38.8-18.5-13.2-4.5-29-10.5-41.8-21.9-8.3-7.2-20-21.1-20-46.7 0-36.9 24.9-73.9 80.7-73.9 15.8 0 45.6 3 71.2 29.4z"/><path d="m3270.4 1757.7h29.4v39.2h-29.4v47.5h-46v-47.5h-122.9v-21.9l124.8-182h44.1zm-46 0v-95.7l-64.8 95.7z"/><path d="m3492 1775.7c0 41.5-33.2 74.2-87.4 74.2-54.3 0-87.4-32.8-87.4-74.2 0-29 17-53.5 44.8-62.6-19.2-9.4-36.2-27.9-36.2-55.8 0-36.6 26.4-70.1 78.8-70.1s78.8 33.5 78.8 70.1c0 27.9-17 46.4-36.2 55.8 27.8 9.1 44.8 33.6 44.8 62.6zm-49-3.3c0-23-16.6-39.2-38.4-39.2s-38.4 16.2-38.4 39.2 16.6 39.2 38.4 39.2 38.4-16.3 38.4-39.2zm-3.4-114.6c0-20.7-14.3-35.1-35.1-35.1-20.7 0-35.1 14.3-35.1 35.1 0 20.7 14.3 35.1 35.1 35.1 20.8-.1 35.1-14.4 35.1-35.1z"/><path d="m3579.4 1699.2 92.3-106.3h61.8l-106.2 116.1 111.9 135.3h-64.8l-89.3-112.7-5.7 5.7v107h-49v-251.4h49z"/><path d="m480.4 1263.1 926.6-1226h-313.1l-1093.9 1447.2h3840v-221.2z" fill="#e31c1c"/></g></svg>