<svg enable-background="new 0 0 3839 1306.7" height="654" viewBox="0 0 1920 654" width="1920" xmlns="http://www.w3.org/2000/svg"><g transform="matrix(.50013023997 0 0 .5005727453 0 -.09840797082)"><path d="m2717.2 425.1c-.7-49.3-35.5-97-100.7-137.9-60.8-38.1-148.2-70.7-252.8-94.2-20.8-4.7-42.6-9-64.7-13l2-1.6 46.2-37.4c6-4.8.2-14.3-6.8-11.1l-47 21.2-45.5 20.5-14.5-2c-91-12.6-187.6-19-287.3-19h-4.2l3.4-22.4c.1-.8.7-1.4 1.5-1.5l45.4-9-4.8 31.5 122.8-24.4 6-38.7c5.9-38.6-19.2-75.6-57.3-84.1-10.1-2.3-20.5-2.4-30.9-.3l-86.5 17.2c-48.9 9.7-88.9 43.6-107.5 88.4-8-24.3-28.1-43.8-54.5-49.7-10.1-2.3-20.5-2.4-30.9-.3l-187.8 37.4-14.3 93-10.6 2.2c-122.3 25.1-225.2 61-297.4 103.8-77.1 45.7-117.5 98.6-116.8 153 .9 64.4 58 123.8 165.1 171.9l8.7 3.9-18.5 120c-1.8 12 5.3 23.9 17 27.1 3.5.9 7.1 1.1 10.7.4l451.2-89.8c-3 3.3-5 7.5-5.7 12.1l-14.5 94.5c-1.8 12 5.3 23.9 17 27.1 3.5.9 7.1 1.1 10.7.3l79.6-15.8c50.4-10 93.9-38.7 123.4-78.4l16.2-.6c110-4.3 214.7-16.2 311.3-35.5 124.8-24.8 229.8-60.8 303.8-104 79-46.4 120.3-99.8 119.5-154.8z" fill="#ff002b"/><path d="m2306.6 158.3-232.9 105.2-74.3-67.7 27 96.8-198.8 160.7 232.9-105.2 74.3 67.7-26.9-96.8z" fill="#f7f4e6"/><g fill="#fff"><path d="m2306.6 158.3-232.9 105.2-74.3-67.7 27 96.8-198.8 160.7 232.9-105.2 74.3 67.7-26.9-96.8z"/><path d="m2076.1 251.8 2.1-.9c1-3.9 1.8-7.9 2.4-11.9l3.8-24.9-40.8 8.1z"/><path d="m1886.6 368.4 40.6-8.1 87.6-70.8-16.3-58.3-11.8 2.4-3.4 21.9c-.9 5.8-5.3 10.4-11 11.5l-51.8 10.3c-5.1 1-9.7-3.4-8.9-8.5l21.9-142.4c.9-5.8 5.3-10.4 11-11.5l51.8-10.3c5.1-1 9.7 3.4 8.9 8.5l-3.2 20.9 97.6-19.4 4.7-30.3c6.6-42.9-31.4-79.3-74-70.8l-86.5 17.2c-55.8 11.1-98.7 55.9-107.4 112.2l-23.8 154.9c-6.5 42.6 31.5 79 74 70.6z"/><path d="m1206.6 539.7c-37.7-30.1-57-61.6-57.4-93.6-1.2-90 150.1-179 386.7-228.4l2.5-16.2c-242.4 49.7-406 141.7-404.6 244.8.8 61.2 59.5 116.9 158 161.1l2.4-15.8c-35-16-64.4-33.4-87.6-51.9z"/><path d="m1946.3 162.5-2.4 15.4c90.9-.1 179 5.2 261.5 15.5l26.5-12c-88.1-12.2-184.4-18.9-285.6-18.9z"/><path d="m2283.5 189.4-15.9 12.9c73 11.8 140.5 27.8 200.1 47.6 70.8 23.5 126.2 51.1 164.8 81.9 37.7 30.1 57 61.6 57.4 93.6 1.2 91.8-156.2 182.6-401.2 231.4-91.7 18.3-193.5 30-297.8 34.6-2.7 5.4-5.5 10.6-8.7 15.8 111.3-4.4 216.1-16.7 309.4-35.2 247.4-49.2 415-142.2 413.6-246.6-1.4-104.9-172.2-193.5-421.7-236z"/><path d="m2451 354.1-80.2 16c-4.7.9-8.4 4.8-9.1 9.5l-2.5 16.3 96.4-19.2c4.7-.9 8.4-4.8 9.1-9.5 1.1-8-5.9-14.7-13.7-13.1z"/><path d="m1837.8 482.3-12.3 80.1c-1 6.3 4.6 11.7 10.9 10.4l91.4-18.2 15.3-99.4-97.9 19.5c-3.9.7-6.8 3.7-7.4 7.6zm32.9 24.1 28.8-5.7-3.6 23.3-28.8 5.7z"/><path d="m2534.5 298.5c-14.4-21.7-40.2-32-64.8-27.1l-100.9 20.1c-26.6 5.3-49.6 20.8-64.7 42.1-.5-.5-1-1-1.5-1.5-14.8-14.2-35.7-20.3-55.8-16.3l-122.4 24.3 9.7 34.9 119.7-23.8c18.2-3.6 34.5 12 31.7 30.3l-22.8 148.5-40.5 8 20-129.8c1-6.3-4.6-11.7-10.9-10.4l-91.4 18.2-22 142.8-40.5 8 25.6-166.2-44.9-40.9-120.5 54.4 12.1-2.4 40.5-8-33.7 218.8c-9.9 64.3-59 115.6-122.8 128.3l-45 9 6.7-43.4 31.5-6.3c47.6-9.5 84.3-47.7 91.7-95.8l2.5-16.5-107.2 21.3c-18.2 3.6-34.5-12-31.7-30.3l15.6-101.3c2.8-18 12.5-33.7 26.5-44.1v-.1l71.6-57.9-51.2 10.2c-26.6 5.3-49.6 20.8-64.7 42.1-.5-.5-1-1-1.5-1.5-14.8-14.2-35.7-20.3-55.8-16.3l-108.5 21.6 3-19.7 12.5-81.4 76.5-15.2c55.8-11.1 98.7-55.9 107.4-112.2l11.3-73.4c6.6-42.9-31.4-79.3-74-70.8l-179.5 35.7-33.4 217.3-182 36.2c-4.7.9-8.4 4.7-9.1 9.5l-58 377.2c-1.2 7.9 5.8 14.6 13.6 13l244.4-48.6 79-15.7 22-142.8 28.8-5.7-22 142.8 115.9-23.1 3-19.5c13.8 9.3 30.8 12.8 47.4 9.5l46-9.2c-11.5 14.7-28 25.3-47.1 29.1l-48.5 9.6c-4.7.9-8.4 4.7-9.1 9.5l-14.7 95.3c-1.2 7.9 5.8 14.6 13.6 13l79.6-15.8c78.7-15.7 139.3-78.9 151.5-158.3l1.2-7.6 78.2-15.6 78.2-15.6 22-142.8 28.8-5.7-22 142.8 115.9-23.1 3-19.5c13.8 9.3 30.8 12.8 47.4 9.5l164.6-32.8c4.7-.9 8.4-4.7 9.1-9.5l17.2-111.5-4.6.9c4.3-9 7.3-18.6 8.9-28.8l3.8-24.9c2.4-15.5-.7-31.8-9.5-45.1zm-878.8-126.2 61.3-12.2c5.1-1 9.7 3.4 8.9 8.5l-9.4 61c-.9 5.8-5.3 10.4-11 11.5l-62.3 12.4zm-140.7 506.4-17.6 3.5-20.6 4.1-115.1 22.9-31.8 6.3 50-325.3 13.4-2.7 98.9-19.7 44.8-8.9-6.7 43.4-12.9 2.6-103.7 20.6-14.7 95.7 48.6-9.7 8.7-1.7 31.7-6.3-6.7 43.4-17 3.4-23.4 4.7-48.6 9.7-15.3 99.4 106.4-21.2 5.9-1.2 32.4-6.4zm-94.3-60.1 3.6-23.3 89-17.7 18.4-119.5-89 17.7 3-19.7 74-14.7 33.6-6.7-4.8 31.1-20.2 131.3zm317.9 15.6-40.5 8 20-129.8c1-6.3-4.6-11.7-10.9-10.4l-91.4 18.2-22 142.8-40.5 8 28.6-186.2 147.7-29.4c18.2-3.6 34.5 12 31.7 30.3zm301.1-59.9-40.5 8 28.6-186.2 40.5-8zm468.7-237.1-4 26.1c-4.4 28.3-25.9 50.8-54 56.4l-98 19.5-2.9 18.8c-1 6.3 4.6 11.7 10.9 10.4l91.4-18.2 18.1-3.6 22.4-4.4-6.7 43.4-7.6 1.5-140.1 27.9c-18.2 3.6-34.5-12-31.7-30.3l15.6-101.3c4.4-28.3 25.9-50.8 54-56.4l100.9-20.1c18.2-3.6 34.5 12 31.7 30.3z"/><path d="m233.6 1290c-119.6 0-217-97.3-217-217 0-119.6 97.3-217 217-217h385.5v107h-385.5c-60.6 0-110 49.3-110 110s49.3 110 110 110h385.5v107z"/></g><path d="m602.5 872.7v73.7h-368.9c-69.8 0-126.6 56.8-126.6 126.6s56.8 126.7 126.6 126.7h368.9v73.7h-368.9c-110.5 0-200.3-89.9-200.3-200.3 0-110.5 89.9-200.3 200.3-200.3h368.9m33.3-33.4h-33.3-368.9c-128.8 0-233.6 104.8-233.6 233.6s104.8 233.7 233.6 233.7h368.9 33.3v-33.3-73.7-33.3h-33.3-368.9c-51.5 0-93.3-41.9-93.3-93.4s41.9-93.3 93.3-93.3h368.9 33.3v-33.3-73.7z"/><path d="m695.4 1290v-434h385.5c119.6 0 217 97.3 217 217 0 119.6-97.3 217-217 217zm385.5-107c60.7 0 110-49.3 110-110s-49.3-110-110-110h-278.5v220z" fill="#fff"/><path d="m1080.9 872.7c110.5 0 200.3 89.9 200.3 200.3 0 110.5-89.9 200.3-200.3 200.3h-368.9v-400.6zm-295.2 327h295.2c69.8 0 126.7-56.8 126.7-126.7s-56.8-126.7-126.7-126.7h-295.2zm295.2-360.3h-368.9-33.3v33.3 400.7 33.3h33.3 368.9c128.8 0 233.6-104.8 233.6-233.6 0-128.9-104.8-233.7-233.6-233.7zm-261.9 140.3h261.9c51.5 0 93.3 41.9 93.3 93.3 0 51.5-41.9 93.3-93.3 93.3h-261.9z"/><path d="m2351.4 1290c-119.6 0-217-97.3-217-217 0-119.6 97.3-217 217-217h233.1c116 0 215 85.9 225.5 195.6 5.9 62.1-13.7 121.5-55.4 167.3-41.1 45.2-99.6 71.1-160.6 71.1zm0-327c-60.6 0-110 49.3-110 110s49.3 110 110 110h242.6c60.7 0 110-49.3 110-110s-49.4-110-110-110z" fill="#fff"/><path d="m2584.4 872.7c107.5 0 199.2 79.3 208.9 180.6 5.5 57.3-12.7 112.2-51.1 154.5-37.9 41.7-92 65.6-148.3 65.6h-242.6c-110.5 0-200.3-89.9-200.3-200.3 0-110.5 89.9-200.3 200.3-200.3h233.1m-233 326.9h242.6c69.8 0 126.7-56.8 126.7-126.7s-56.8-126.7-126.7-126.7h-242.6c-69.8 0-126.6 56.8-126.6 126.7-.1 69.8 56.7 126.7 126.6 126.7m233-360.3h-233.1c-128.8 0-233.6 104.8-233.6 233.6s104.8 233.7 233.6 233.7h242.7c65.7 0 128.7-27.9 172.9-76.5 44.8-49.3 66-113.3 59.6-180.1-11.3-118.2-117.6-210.7-242.1-210.7zm-233 326.9c-51.5 0-93.3-41.9-93.3-93.3 0-51.5 41.9-93.3 93.3-93.3h242.6c51.5 0 93.4 41.9 93.4 93.3 0 51.5-41.9 93.3-93.4 93.3z"/><path d="m1982.4 1290v-135.1c0-15.6-12.7-28.2-28.2-28.2h-360.2v163.3h-107v-434h467.2c74.6 0 135.3 60.7 135.3 135.3 0 29.8-9.7 58.3-27.7 81.8 17.9 23.5 27.7 52 27.7 81.8v135.1zm-28.2-270.5c15.6 0 28.2-12.7 28.2-28.2s-12.7-28.2-28.2-28.2h-360.2v56.5h360.2z" fill="#fff"/><path d="m1954.2 872.7c65.5 0 118.6 53.1 118.6 118.6 0 31.8-12.6 60.5-32.9 81.8 20.3 21.3 32.9 50.1 32.9 81.8v118.4h-73.7v-118.4c0-24.8-20.1-44.9-44.9-44.9h-376.9v163.3h-73.7v-336.2-64.4zm-376.9 163.5h376.9c24.8 0 44.9-20.1 44.9-44.9s-20.1-44.9-44.9-44.9h-376.9zm376.9-196.8h-450.6-33.3v33.3 64.4 336.2 33.3h33.3 73.7 33.3v-33.3-130h343.6c6.4 0 11.6 5.2 11.6 11.6v118.4 33.3h33.3 73.7 33.3v-33.3-118.4c0-29.3-8.4-57.6-24-81.8 15.6-24.3 24-52.5 24-81.8 0-83.8-68.2-151.9-151.9-151.9zm-343.6 140.3h343.6c6.4 0 11.6 5.2 11.6 11.6s-5.2 11.6-11.6 11.6h-343.6z"/><path d="m3551.6 1001v-61c0-48.4 39.4-87.8 87.8-87.8h88.7c9.1 0 16.6-7.4 16.6-16.6 0-9.1-7.4-16.6-16.6-16.6h-150.4v-77.6h150.4c52 0 94.2 42.3 94.2 94.2 0 39.8-24.8 73.9-59.8 87.7h59.8v77.6h-270.7z" fill="#fff"/><path d="m3728.1 758.1c42.8 0 77.6 34.7 77.6 77.6 0 42.8-34.7 77.6-77.6 77.6h-50v-.1h-38.8c-14.9 0-26.9 12.1-26.9 26.9h193.2v44.3h-237.4v-44.4c0-39.3 31.8-71.1 71.1-71.1h38.8 50c18.4 0 33.2-14.9 33.2-33.2 0-18.4-14.9-33.2-33.2-33.2h-133.7v-44.3h133.7m0-33.4h-133.7-33.3v33.3 44.3 33.3h33.3 39.2c-54.9 3-98.6 48.6-98.6 104.3v44.3 33.3h33.3 237.4 33.3v-33.3-44.3-33.3h-25.8c16.1-19.3 25.8-44 25.8-71 0-61.2-49.7-110.9-110.9-110.9z"/><path d="m3417.9 1290v-282.1l-.2-16.7c0-15.6-12.7-28.2-28.2-28.2h-149.3v327h-107v-327h-149.5c-15.6 0-28.2 12.7-28.2 28.2v298.8h-107v-298.7c0-74.6 60.7-135.3 135.2-135.3h405.9c74.7 0 135.4 60.7 135.4 135.3v298.7z" fill="#fff"/><path d="m3389.4 872.7c65.5 0 118.8 53.1 118.8 118.6v282.1h-73.7v-282.1h-.2c0-24.8-20.1-44.9-44.9-44.9h-118.1-47.9v327h-73.7v-327h-48.1-118.1c-24.8 0-44.9 20.1-44.9 44.9v282.1h-73.6v-282.1c0-65.5 53.1-118.6 118.6-118.6h94.2 24 48.1 73.7 47.9 33.8zm0-33.3h-84.4-33.8-47.9-73.7-48.1-24-94.2c-83.8 0-151.9 68.1-151.9 151.9v282.1 33.3h33.3 73.7 33.3v-33.3-282.1c0-6.4 5.2-11.6 11.6-11.6h118.1 14.8v293.7 33.3h33.3 73.7 33.3v-33.3-293.7h14.6 118.1c6.4 0 11.6 5.2 11.6 11.6v33.3h.2v248.8 33.3h33.3 73.7 33.3v-33.3-282.1c.2-83.8-68-151.9-151.9-151.9z"/><path d="m1392.4 1126.5c-29.5 0-53.5-24-53.5-53.5s24-53.5 53.5-53.5 53.5 24 53.5 53.5-24 53.5-53.5 53.5z" fill="#fff"/><path d="m1392.4 1036.2c20.3 0 36.8 16.5 36.8 36.8s-16.5 36.8-36.8 36.8-36.8-16.5-36.8-36.8 16.5-36.8 36.8-36.8m0-33.4c-38.7 0-70.2 31.5-70.2 70.2s31.5 70.2 70.2 70.2 70.2-31.5 70.2-70.2-31.5-70.2-70.2-70.2z"/></g></svg>