<svg enable-background="new 0 0 3840 602.4" height="301" viewBox="0 0 1920 300.99998" width="1920" xmlns="http://www.w3.org/2000/svg"><g transform="matrix(.5 0 0 .499750955 0 -.0499750955)"><path d="m1082.5 285c-30 0-57.9-18.3-69.2-47.5l-21.4-55.4c-13.4-34.7 1-73.9 33.6-91.7l148.1-81.2c11-6.1 23.3-9.1 35.7-9.1 8.1 0 16.2 1.3 24 4 19.7 6.7 35.7 21.4 44 40.5l30.2 69.1c7.9 18 8.2 38.5 1.1 56.8s-21.4 33-39.4 40.9c-158.2 68.9-161.1 69.6-168.6 71.5-6.2 1.4-12.2 2.1-18.1 2.1z"/><path d="m3019 598.2c-36.8 0-69.7-16.8-91.5-43-21.8 26.3-54.7 43-91.5 43s-69.7-16.8-91.5-43c-21.8 26.3-54.7 43-91.5 43-65.5 0-118.9-53.3-118.9-118.9v-195.5c0-65.6 53.3-118.9 118.9-118.9h366c65.5 0 118.9 53.3 118.9 118.9v195.6c0 65.5-53.4 118.8-118.9 118.8z"/><path d="m3019 239h-220.8-32.4-112.8c-24.7 0-44.7 20-44.7 44.7v26.9 17.8 150.9c0 24.7 20 44.7 44.7 44.7s44.7-20 44.7-44.7v-150.8h68 25.5v150.9c0 24.7 20 44.7 44.7 44.7s44.7-20 44.7-44.7v-150.9h93.5v150.9c0 24.7 20 44.7 44.7 44.7s44.7-20 44.7-44.7v-150.9-14-30.7c.2-24.7-19.8-44.8-44.5-44.8z" fill="#ffe900"/><path d="m3548.4 598.2c-36.8 0-69.7-16.8-91.5-43-21.8 26.3-54.7 43-91.5 43-65.5 0-118.9-53.3-118.9-118.9v-195.5c0-65.6 53.3-118.9 118.9-118.9h183c65.5 0 118.9 53.3 118.9 118.9v195.6c0 65.5-53.3 118.8-118.9 118.8z"/><path d="m3548.4 239h-183c-24.7 0-44.7 20-44.7 44.7v26.9 17.8 150.9c0 24.7 20 44.7 44.7 44.7s44.7-20 44.7-44.7v-150.8h93.5v150.9c0 24.7 20 44.7 44.7 44.7s44.7-20 44.7-44.7v-150.9-14-30.7c.1-24.7-19.9-44.8-44.6-44.8z" fill="#ffe900"/><path d="m3192.2 598.2c-65.5 0-118.9-53.3-118.9-118.9v-74.1c0-65.6 53.3-118.9 118.9-118.9s118.9 53.3 118.9 118.9v74.1c0 65.6-53.3 118.9-118.9 118.9z"/><path d="m3192.2 405.1c-65.5 0-118.9-53.3-118.9-118.9s53.3-118.9 118.9-118.9 118.9 53.3 118.9 118.9-53.3 118.9-118.9 118.9z"/><path d="m3192.2 241.5c-24.7 0-44.7 20-44.7 44.7s20 44.7 44.7 44.7 44.7-20 44.7-44.7-20-44.7-44.7-44.7z" fill="#ffe900"/><path d="m3721.1 598.2c-65.5 0-118.9-53.3-118.9-118.9v-74.1c0-65.6 53.3-118.9 118.9-118.9s118.9 53.4 118.9 119v74.1c0 65.5-53.3 118.8-118.9 118.8z"/><path d="m3721.1 405.1c-65.5 0-118.9-53.3-118.9-118.9s53.3-118.9 118.9-118.9 118.9 53.4 118.9 118.9c0 65.6-53.3 118.9-118.9 118.9z"/><g fill="#ffe900"><path d="m3721.1 330.9c24.7 0 44.7-20 44.7-44.7s-20-44.7-44.7-44.7-44.7 20-44.7 44.7 20 44.7 44.7 44.7z"/><path d="m3192.2 360.6c-24.7 0-44.7 20-44.7 44.7v74.1c0 24.7 20 44.7 44.7 44.7s44.7-20 44.7-44.7v-74.1c0-24.7-20-44.7-44.7-44.7z"/><path d="m3721.1 360.6c-24.7 0-44.7 20-44.7 44.7v74.1c0 24.7 20 44.7 44.7 44.7s44.7-20 44.7-44.7v-74.1c0-24.7-20-44.7-44.7-44.7z"/></g><path d="m74.2 595.9c-41 0-74.2-33.2-74.2-74.2v-376.9c0-41 33.2-74.2 74.2-74.2h119.9c211.6 0 243.2 124 243.2 197.8 0 108.2-72.8 181.6-188.5 193.9v59.4c0 41-33.2 74.2-74.2 74.2z"/><path d="m542.1 602.4c-130.4 0-221.4-90.9-221.4-221.1 0-130.5 91-221.6 221.4-221.6s221.4 91.1 221.4 221.6c0 130.2-91.1 221.1-221.4 221.1z"/><path d="m895 595.9c-12.6 0-24.8-3.2-35.5-9-10.6 5.8-22.6 9-35.5 9h-87.5c-41 0-74.2-33.2-74.2-74.2v-405c0-41 33.2-74.2 74.2-74.2h87.5c41 0 74.2 33.2 74.2 74.2v49.5h95.4c27.5 0 52.7 15.2 65.6 39.5s11.2 53.7-4.3 76.4l-60.7 89 69.5 111.2c14.3 22.9 15.1 51.7 2 75.3s-37.9 38.2-64.9 38.2h-105.8z"/><path d="m1173.4 602.4c-128.3 0-221.4-93.2-221.4-221.6 0-130.2 86.2-221.1 209.7-221.1 122.7 0 202 91 202 231.9v17.8c0 21.3-9 40.5-23.3 54v47c0 29.4-17.4 56-44.3 67.9-36.3 16-77.6 24.1-122.7 24.1z"/><path d="m1684.2 595.9c-15.7 0-30.3-4.9-42.3-13.2-12 8.3-26.6 13.2-42.3 13.2h-87.5c-15.7 0-30.3-4.9-42.3-13.2-12 8.3-26.6 13.2-42.3 13.2h-87.5c-41 0-74.2-33.2-74.2-74.2v-281.3c0-41 33.2-74.2 74.2-74.2h79.7c9.7 0 18.9 1.9 27.4 5.2 20.2-7.7 42.4-11.7 65.9-11.7 30.9 0 59.1 7.6 83 21.7 25.4-14.2 54.6-21.7 86.1-21.7 74.6 0 163.6 34 163.6 196.2v165.8c0 41-33.2 74.2-74.2 74.2z"/><path d="m1966.1 602.4c-130.4 0-221.4-90.9-221.4-221.1 0-130.5 91-221.6 221.4-221.6s221.4 91.1 221.4 221.6c0 130.2-91 221.1-221.4 221.1z"/><path d="m2342.8 595.9c-18 0-34.5-6.4-47.4-17.1-12.8 10.7-29.4 17.1-47.4 17.1h-87.5c-41 0-74.2-33.2-74.2-74.2v-281.3c0-41 33.2-74.2 74.2-74.2h79.7c9.7 0 18.9 1.9 27.4 5.2 20.2-7.7 42.4-11.7 65.9-11.7 100.6 0 170.9 76.7 170.9 186.5v175.5c0 41-33.2 74.2-74.2 74.2zm-75.9-229.7"/><g fill="#fff"><path d="m74.2 144.8h119.9c115 0 169 38.9 169 123.7 0 76.1-55.6 121.5-149.6 121.5h-38.9v131.8h-100.4zm100.4 173.9h25.9c34.6 0 62.1-12.4 62.1-51.8 0-38.3-27.5-50.8-62.1-50.8h-25.9z"/><path d="m394.9 381.3c0-93.4 63.6-147.4 147.2-147.4s147.2 54 147.2 147.4c0 92.9-63.6 146.9-147.2 146.9s-147.2-54-147.2-146.9zm204 0c0-42.1-16.5-79.4-56.9-79.4s-56.9 37.3-56.9 79.4c0 41.6 16.5 78.8 56.9 78.8s56.9-37.2 56.9-78.8z"/><path d="m736.5 116.7h87.5v241.9h1l72.9-118.3h95.7l-87.9 129.1 95.2 152.3h-105.9l-70-139.3h-1v139.3h-87.5z"/><path d="m1340.2 240.4h79.7v51.8h1c17.5-40.5 52.5-58.3 92.3-58.3 35.9 0 65.6 17.3 79.2 54 20.4-37.8 53.9-54 89.9-54 72.9 0 89.4 45.9 89.4 122v165.8h-87.5v-151.2c0-31.9-10.2-55.6-35-55.6-31.1 0-49.6 27.5-49.6 88v118.8h-87.5v-151.2c0-31.9-10.2-55.6-35-55.6-31.1 0-49.6 27.5-49.6 88v118.8h-87.5v-281.3z"/><path d="m1818.9 381.3c0-93.4 63.6-147.4 147.2-147.4s147.2 54 147.2 147.4c0 92.9-63.6 146.9-147.2 146.9s-147.2-54-147.2-146.9zm204 0c0-42.1-16.5-79.4-56.9-79.4s-56.9 37.3-56.9 79.4c0 41.6 16.5 78.8 56.9 78.8s56.9-37.2 56.9-78.8z"/><path d="m2160.6 240.4h79.7v51.8h1c17.5-40.5 52.5-58.3 92.3-58.3 69 0 96.7 54 96.7 112.3v175.5h-87.5v-136.1c0-52.9-16.5-70.7-40.3-70.7-36 0-54.4 27.5-54.4 88v118.8h-87.5z"/><path d="m1114.6 409.4c4.9 38.9 31.6 54 74.4 54 23.8 0 51-5.9 77.3-21.6v68.6c-28.2 12.4-60.3 17.8-92.8 17.8-83.6 0-147.2-54.5-147.2-147.4s56.9-146.9 135.6-146.9c93.8 0 127.8 74 127.8 157.7v17.8zm96.2-55.1c0-32.4-13.6-58.9-48.6-58.9-31.6 0-46.6 26.5-48.6 58.9z"/><path d="m1061.1 155.4 21.4 55.4c4.4-1.1 156.9-67.5 156.9-67.5l-30.2-69.1z"/></g></g></svg>