<svg enable-background="new 0 0 3839 793.5" height="397" viewBox="0 0 1920 397" width="1920" xmlns="http://www.w3.org/2000/svg" xmlns:xlink="http://www.w3.org/1999/xlink"><linearGradient id="a" gradientUnits="userSpaceOnUse" x1="1980.522" x2="1980.522" y1="793.52148" y2="0"><stop offset=".3079"/><stop offset=".3997" stop-color="#1b0007"/><stop offset=".5976" stop-color="#610018"/><stop offset=".8838" stop-color="#ce0033"/><stop offset="1" stop-color="#fd003e"/></linearGradient><radialGradient id="b" cx="4565.3945" cy="10807.459" fx="4567.188" fy="10804.322" gradientTransform="matrix(1 0 0 -1 -4213.2275 11144.49)" gradientUnits="userSpaceOnUse" r="224.4259"><stop offset="0" stop-color="#fff"/><stop offset=".1072" stop-color="#e1e7f2"/><stop offset=".4368" stop-color="#88a1cc"/><stop offset=".7055" stop-color="#476eb0"/><stop offset=".8997" stop-color="#1e4e9f"/><stop offset="1" stop-color="#0f4298"/></radialGradient><clipPath id="c"><path d="m209.1 479.9c25.3-6.2 50.6-12 75.9-18 25.4-6 50.3-13.6 75-22 24.4-8.3 48.5-17.7 72.9-25.5 20.3-6.5 40.9-12.4 60.5-21-1.6-33.6-12-64.9-29-91.7-21.8 6.3-44 11.6-66.1 17.3-25.2 6.6-50.3 13.6-75.4 20.6-24.6 6.8-49.3 13.6-73.8 20.5-26.2 7.4-52.4 15.3-78.1 24.3-11 3.8-22 7.4-33.1 10.8-5.9 1.7-11.7 3.7-17.5 5.8-2.2.7-4.3 1.4-6.5 2.2 0 35 9.5 67.7 26 95.9 22.9-7.4 46-13.6 69.2-19.2z"/></clipPath><clipPath id="d"><path d="m209.1 479.9c25.3-6.2 50.6-12 75.9-18 25.4-6 50.3-13.6 75-22 24.4-8.3 48.5-17.7 72.9-25.5 20.3-6.5 40.9-12.4 60.5-21-1.6-33.6-12-64.9-29-91.7-21.8 6.3-44 11.6-66.1 17.3-25.2 6.6-50.3 13.6-75.4 20.6-24.6 6.8-49.3 13.6-73.8 20.5-26.2 7.4-52.4 15.3-78.1 24.3-11 3.8-22 7.4-33.1 10.8-5.9 1.7-11.7 3.7-17.5 5.8-2.2.7-4.3 1.4-6.5 2.2 0 35 9.5 67.7 26 95.9 22.9-7.4 46-13.6 69.2-19.2z"/></clipPath><g transform="matrix(.50012601 0 0 .50029920364 .00965150019 -.0261585561)"><path d="m2044.6 6.3c3-1.5 6.5-3.2 10.5-5 13.2-6.2 23.7 12.3 11.6 20.5-4.2 2.9-8 5.5-11.1 7.6-38.8 27.2-72.7 59.2-72.7 167.4 0 135.9 112.5 268.4 112.5 366.9 0 76.4-21.6 146.5-191.1 228.7-5.6 2.7-12.2.6-15.3-4.7-3.3-5.7-1.1-13 4.6-16.1 67.7-36.2 87.6-111.2 84.7-175.6-6-134-114.5-249.2-112.5-359.1 1.2-65.6 27.2-154.3 178.8-230.6z" fill="url(#a)"/><path d="m1938.7 552.3c-9.6-3.6-29.1-13.9-41.4-41.1l-134.3-297.8c-5.7-12.7-23.5-13.2-29.9-.9l-99.4 188.7c-5.1 9.8-15.3 15.9-26.3 15.9h-119.2-4c-4 0-8 3.2-8.6 7.1-.8 5.1 2.9 9.5 7.8 9.9 33.1 3 53 25.1 52.7 60.8-.2 32.9-27.7 59.9-60.7 59.9h-8.6c-88.3 0-92.1-101.4-92.1-123.6 0-25.8 0-77.6 0-77.6 0-38.1 15.3-104.9 89.7-104.9 69.5 0 108.5 32 140.3 74.4 5.2 7 16.3 1.2 13.6-7.1l-27.9-87.4c-2.7-8.4-12.6-12.1-20.2-7.5-20.5 12.6-32.5 10.5-32.5 10.5-10.1.3-42.2-8.8-81.2-8.8-62.2 0-112.5 24.7-146.9 57.9-3.4 3.3-9.1 2.2-10.8-2.3l-15.4-37.5c-3.2-7.8-7.3-12.8-15.7-12.8h-177.2v-.1h-92.2c-5.9 0-11.6-.2-17.5-.5-31.6-1.7-142.6-7.5-199.4-7.5-71.2 0-127 22.3-132.6 74.8-4.2 39.5 23.2 60.1 38.9 74.5 8.5 7.8 48.5 33.1 69 42.6 21.4 9.9 106.8 52.7 98 86.6-8.8 33.6-37.7 41.9-71 41.9-52.3 0-108.4-43.3-150-82.1-7.2-6.8-18.4 1.6-13.9 10.5 17.2 33.6 39.2 74.5 53.6 96.1 4.1 6.1 11.5 9.1 18.7 7.2 15.5-3.9 35.6-6 47.8-5.4 15.7.7 48.6 5 63 5 119.8 0 157.3-31.5 161.2-86.1 5.4-75.1-84.3-125.1-138.9-147-48.8-19.7-67.7-49.3-65.6-64 3.4-25.5 27.7-29.8 48-29 63 2.4 181.8 33.1 181.8 76.3v200.5c0 11.2-12.2 31.4-27.7 31.4h-.3c-2.8 0-5.6 1-7.6 3-5.4 5.4-1.6 11.7 3.5 11.7h66.9 66.3 189.1c6.1 0 11.4-3.6 13.8-9.3l10.3-25.1c2-4.8 8.1-6.3 12-2.8 33.7 30.5 83.1 49.6 150.6 49.6 15.7 0 48.4-4.3 63.6-9.9 4.8-1.7 10-2.7 15.1-2.7h126.5 20.4c7.5 0 11.1-9.4 5.5-14.4-2.5-2.2-4.7-4.2-6.3-5.7-12-10.9-11.5-18.3-11.8-24.6-.3-6.2 1-12.3 3.9-17.9l89.6-170.2 76.5 169.9c2.6 5.7 3.8 11.9 3.3 18.1-.1.8-.1 1.5-.2 2.1-1.4 8-8.6 24.2-22.1 24.2h-2.2c-3.3 0-6.6 1.1-9.1 3.3-7.5 6.7-2.9 15.1 3.7 15.1h113.3c5.2 0 9.4-4.7 8.3-10.1-.5-2.4-2.7-4.8-5.6-5.8zm-657.9-236.5c-15.4 24.3-23.8 50-23.8 72.6 0 30.1 5.6 59.6 17.3 86 2.6 5.8 1.4 12.6-3 17.1-21.7 22-69.1 52.7-136.9 52.7h-16.6c-15.1 0-27.4-12.2-27.4-27.4v-92.3-4.9c0-5.1 7.7-11.5 16.4-9.8 13.3 2.6 36.6 10.9 55.3 21.7 13.1 7.6 24.9 15.5 38.5 26.8 6 4.9 15 .6 15-7.1v-29-57.3-29c0-7.7-9.1-12-15-7.1-13.6 11.2-25.4 19.1-38.5 26.8-18.6 10.7-42.7 22-55.9 25.1-10.2 2.4-13.8-1.6-15.7-5.5v-5.6-90.6c0-14.4 11.7-26.1 26.1-26.1h33.5c54.9 0 105 31.5 129.1 52.3 3.1 2.5 3.8 7.2 1.6 10.6z"/><path d="m3838.7 232.1c-.8-2.4-3.2-3.9-5.8-3.9h-26.3-49.5-26.3c-2.6 0-4.9 1.5-5.8 3.9-1.1 3.3.7 6.6 3.7 7.6 9.5 3.1 32.2 13.1 32.2 36.9v143.1c0 5.5-6.4 8.4-10.6 4.9l-150.4-124.8c-46.9-39-113.4-64.9-157.3-79.1-9.7-3.1-16.4 9.7-8.2 15.8 1.4 1.1 2.9 2.2 4.4 3.3 50.1 37.7 55.5 91.7 55.5 97.8v192.4 9.3c0 7.2-5.9 13.1-13.1 13.1-16.8 0-54.3-27.3-73.5-47.3-18-18.8-26.6-44.8-46.8-68.5-16.1-18.8-29.7-25.8-29.7-25.8 101.1 0 104.1-82 104.1-91.2 0-13.7 0-91.6-126.6-91.6h-292.1-49.7c-2.6 0-4.9 1.5-5.8 3.9-1.1 3.3.7 6.7 3.7 7.6 9.5 3.1 32.2 13.1 32.2 36.9v180.1c0 62.2-43.5 83-78.4 83-63.6 0-88-37.5-88-84.6v-27.3-151.2c0-23.9 22.7-33.9 32.2-36.9 2.5-.8 4.1-3 4.1-5.6v-.1c0-3.2-2.6-5.9-5.9-5.9h-114-17.5-229.9-117.1c-7.1 0-13.7 4.1-16.8 10.5l-18.8 39c-3.2 6.7 4.4 13.3 10.6 9.2 25.2-17.1 67.6-36.7 129.6-39.1 6.8-.2 12.4 5.2 12.4 12v246.9c0 11.7-4.3 20.8-10.2 27.7-4.5 5.4-11.3 8.4-18.4 8.4h-15.2c-4.9 0-9.9-1.3-14.1-4.1-9.7-6.3-18.8-15.1-24.4-27.5l-134.3-297.8c-5.8-12.7-23.5-13.2-29.9-.9l-139.7 265.1-40.3 76.4 2.8 14.6h40.5 7.2 88c7.5 0 11.1-9.4 5.5-14.4 0 0-.1 0-.1-.1-2.5-2.2-4.6-4.1-6.2-5.6-11.9-10.7-11.5-18.1-11.8-24.4s1-12.6 3.9-18.1l89.7-170.2 76.5 169.9c2.6 5.7 3.8 11.9 3.3 18.1-.1.8-.1 1.5-.2 2.1-1.4 8-8.6 24.2-22.1 24.2h-.2c-2.7 0-5.4.8-7.5 2.5-8.8 6.8-4.1 15.9 2.7 15.9h112.9 6.6 89.2 26.3 53.9c4.6 0 8.6-3.5 8.8-8.1.2-3.7-2.1-7.2-5.5-8.4-11.3-4.3-36.3-17.2-36.3-45.4v-246.8c0-7 5.7-12.3 12.7-12 47.9 1.9 84.2 14 109.7 27.4 4.1 2.2 6.7 6.4 6.7 11v159.1h.4c4.1 73.1 38.8 129.2 165.9 129.2 73.7 0 142.7-38.6 142.7-109.7 0-8.7 0-182.3 0-182.3 0-10.8 3.4-18.4 7.7-23.7 6.3-7.7 15.9-11.8 25.9-11.8h15c10 0 19.7 4.1 25.9 11.8 4.3 5.4 7.7 13 7.7 23.7v220.7c0 32.8-26 45.2-38.2 49.2-2.9.9-5.2 3.3-5.9 6.4-1 5.4 3 10.1 8.2 10.1h54.3 61.3 56.8c3.5 0 6.8-2.1 8-5.4 1.7-4.7-.8-9.6-5.1-11-11.9-3.9-38.5-16.3-38.5-49.3v-209.3-24.9c0-18.7 16.1-25.5 27.1-25.5h31.6c29.4 0 58.6 24.8 58.6 66.2 0 60.7-39.5 75.4-55.7 75.4-10.8 0-19.2.2-28.2-3.1 0 0-.1 0-.1-.1-5.7-2.7-11.7 2.6-9.9 8.5.1.3.1.5.2.5 9.5 32.1 26.5 81.2 49.8 112.5 36.1 48.7 104.6 87.5 219.6 87.5h49.4c3.1 0 6-1.9 6.9-4.7 1.3-4-.9-8-4.6-9.2-9.9-3-30.9-11.9-30.9-34.3v-161.5c0-5.5 6.4-8.4 10.6-4.9l238.7 198.2c6.9 5.7 17.2.8 17.2-8.1v-289.4c0-23.9 22.7-33.9 32.2-36.9 3.3-1 5.2-4.3 4.1-7.7z"/><circle cx="303.89999" cy="402.89999" fill="url(#b)" r="189.89999"/><path clip-path="url(#c)" d="m99.4 574c-9.2 0-18.1-.2-26.9-.6-13.2-.6-23.7-11.6-23.1-24.9.5-13.4 11.8-23.8 25.2-23 74.9 3.8 176.3-11 271.4-39.5 92.9-28 166.2-64.5 196-97.8 3.5-3.9 8.6-10.3 10.9-16.8 1.5-4.4-1.2-9.2-5.9-10-10-1.6-32.3-1.9-80.4 9.7-51 12.2-114.5 33.3-175.8 53.8-63.5 21.1-123.5 41.1-171.5 52.2-48.3 11.1-99.6 17.6-114.6-18.7-6-14.3-9.2-36.9 9.2-63.4 39.6-56.9 160.9-100 229.6-120.6 103.1-31.1 213.1-49.4 280.1-46.8 13.3.5 23.6 11.6 23 24.9-.5 13.3-11.6 23.6-24.9 23-62.1-2.4-166 15.1-264.6 44.7-103.7 31.1-181.9 70.2-204 102-1.1 1.6-2.1 3.2-2.8 4.6-2.1 3.9-.4 10.4 6.6 11 10.5.9 30.5-1.5 66.8-11.3 43.6-11.6 96.2-28.7 152-47.3 159.3-53.1 259.2-83.3 303.2-56.7 12.3 7.4 20.1 18.8 22.3 33 3.5 21.5-4.4 43.2-23.6 64.5-36 40.2-115.4 81-217.9 111.7-90.5 27.3-183.6 42.3-260.3 42.3z"/><path clip-path="url(#d)" d="m91.8 527.1c-22-37.6-33.6-80.5-33.6-124.1v-40.2l38.1-12.8c1-.3 2.1-.6 3-1 .8-.3 1.6-.5 2.4-.8 7.1-2.5 13.9-4.6 20.3-6.6 11.4-3.5 23-7.3 34.4-11.3 27-9.5 53.9-17.3 76.8-23.8 17.7-4.9 35.6-10 52.9-14.7 7.4-2.1 14.7-4.1 22.1-6.1l12-3.3c21-5.9 42.6-11.8 64.3-17.5 6.9-1.7 13.8-3.6 20.8-5.4 15.2-3.8 29.6-7.5 43.8-11.6l40.3-11.6 22.4 35.5c22.4 35.6 35.5 76.7 37.6 118.7l2 38.5-35.4 15.4c-18.6 8.1-37 13.9-54.7 19.5-3.7 1.1-7.3 2.4-11 3.5-13.3 4.2-26.4 9.1-40.3 14-10.3 3.7-21 7.6-31.8 11.2-29.2 9.9-55.4 17.6-80.1 23.5-8.5 2.1-17 4-25.5 6-16.5 3.8-33.4 7.8-50 11.9-26 6.4-46.9 12.1-65.6 18l-42.4 13.4z" fill="none"/><path d="m56.8 437.8c-7-.6-8.6-7.1-6.6-11 .7-1.4 1.6-3 2.8-4.6 10.1-14.6 32.1-30.7 62.9-46.9 3.3-22.4 10.4-43.5 20.8-62.7-51 21.9-100.3 49.9-122.9 82.4-18.3 26.4-15.1 49.1-9.2 63.4 15 36.3 66.4 29.8 114.6 18.7 2.9-.7 5.8-1.4 8.8-2.1-6-14.6-10.2-30.2-12.4-46.4-31.3 8-49.1 10.1-58.8 9.2z"/><path d="m448.2 279.4c27.9-3.3 53-4.7 73.5-3.9 13.3.5 24.4-9.8 24.9-23 .5-13.3-9.8-24.4-23-24.9-33.2-1.3-76.9 2.6-125.1 10.6 18.8 10.8 35.6 24.8 49.7 41.2z"/><path d="m601.1 355.5c-2.3-14.2-10-25.6-22.3-33-21.4-12.9-55.9-12.5-104-2.5 7 14.4 12.2 29.8 15.4 45.9 32.2-6.3 48.7-5.9 56.9-4.5 4.6.8 7.4 5.6 5.9 10-2.3 6.5-7.4 12.9-10.9 16.8-11 12.3-28 25.1-49.6 37.6-2.7 22.7-9.4 44.2-19.4 63.7 47.1-21.9 83.4-45.7 104.5-69.4 19.1-21.4 27-43.1 23.5-64.6z"/><path d="m156.9 523.2c-29.6 2.7-57.4 3.5-82.3 2.2-13.4-.7-24.7 9.7-25.2 23s10 24.3 23.1 24.9c8.7.4 17.7.6 26.9.6 33.1 0 69.2-2.8 106.8-8.2-18.8-11.1-35.4-25.6-49.3-42.5z"/><g fill="none"><path d="m398.4 238.2c-27.8-16-60.1-25.2-94.6-25.2-72.2 0-135 40.3-167.1 99.6 38.2-16.4 77.3-29.3 106.7-38.2 52.1-15.7 105.9-28.1 155-36.2z"/><path d="m115.9 375.3c-1.3 9-2 18.3-2 27.7 0 8.7.6 17.3 1.7 25.6 2.6-.7 5.2-1.3 7.9-2.1 43.6-11.6 96.2-28.7 152-47.3 82-27.3 148.2-48.6 199.2-59.2-7.1-14.7-16.1-28.3-26.6-40.6-56.6 6.6-125 21-191.1 40.8-56.1 16.8-104.7 36-141.1 55.1z"/><path d="m206.2 565.9c28.5 17.1 61.9 27 97.6 27 73.7 0 137.7-42 169.1-103.4-32.9 15.3-71.2 29.7-113.4 42.3-51.3 15.4-103.6 27-153.3 34.1z"/><path d="m492.4 425.7c.9-7.5 1.4-15.1 1.4-22.8 0-12.7-1.3-25-3.6-37-7 1.4-14.8 3.1-23.4 5.1-51 12.2-114.5 33.3-175.8 53.8-59.8 19.9-116.3 38.7-162.8 50.2 7.2 17.6 17 33.8 28.8 48.3 59.4-5.4 125.7-18.3 189.1-37.3 58.5-17.7 109.3-38.8 146.3-60.3z"/></g></g></svg>