<svg enable-background="new 0 0 3839 603" height="302" viewBox="0 0 1920 302" width="1920" xmlns="http://www.w3.org/2000/svg" xmlns:xlink="http://www.w3.org/1999/xlink"><linearGradient id="a" gradientUnits="userSpaceOnUse" x1="27.104099" x2="3811.8953" y1="301.5007" y2="301.5007"><stop offset="0" stop-color="#969696"/><stop offset="1" stop-color="#fff"/></linearGradient><g transform="matrix(.50013024 0 0 .50082919203 .00027499999 -.00037552407)"><path d="m1618-1618h603v3839h-603z" transform="matrix(0 -1 1 0 1617.99945 2221.00075)"/><path d="m27.1 27.1v548.8h3784.8v-548.8zm3735.1 499.1h-3685.4v-449.4h3685.3v449.4zm-1889.4-34.8c-6-.5-10-3.3-10-8.1 0-7.1 10-17.9 48.8-88.5h229.2c44.8 77.6 50.8 85.2 50.8 91.2 0 2.7-3.3 5.4-12 5.4v7.6h133v-7.6c-14 0-16.7-3.8-26.1-20.6l-193.8-337c-3.3-5.4-6-9.8-6-14.1 0-3.8 4-7.1 14-8.1v-7.6h-145.7v7.6c8.7 1.1 14 3.8 14 9.8 0 4.9-4 10.9-7.4 16.3l-182.4 333.2c-9.4 17.4-13.4 20.1-25.4 20.6v7.6h119zm149.1-300.6 80.2 142.2h-159.1zm1713.1-86.8h-1300.3v395h1300.3zm-3561.7 268.6-55.5 92.3 8.7 1.6c3.3-1.6 5.3-4.3 9.4-4.3 15.4 0 62.2 42.3 225.2 42.3 171.1 0 256.6-55.4 256.6-127 0-196.4-393.6-66.2-393.6-155.2 0-33.6 44.8-59.7 149-59.7 108.9 0 171.7 38 171.7 45 0 2.7-.7 5.4-1.3 7.6l10.7 4.9 51.5-81.4-10.7-2.7c-2 1.6-3.3 3.8-12 3.8-8 0-89.6-41.2-205.8-41.2-129.6 0-247.9 38-247.9 129.2 0 180.2 388.3 48.3 388.3 154.7 0 29.8-41.4 58.1-163.1 58.1-85.5 0-171.8-22.8-171.8-54.8 0-4.3 1.3-6.5 1.3-8.7zm958.3 138.4h9.4v-89h-9.4c0 8.7-6.7 13-22.7 13h-327.4v-106.4h209.8c16 0 22.7 4.3 22.7 13h9.4v-91.2h-9.4c0 9.8-6.7 14.1-22.7 14.1h-209.8v-96.5h321.4c16 0 22.7 4.3 22.7 14.1h9.4v-90.1h-9.4c0 7.6-6.7 11.9-22.7 11.9h-433.7v7.6c14.7 0 17.4 4.3 17.4 16.3v347.3c0 11.9-2.7 16.3-17.4 16.3v7.6h439.7c16.1 0 22.7 4.4 22.7 12zm327.5-6.5c115.6 0 218.5-41.2 260.6-60.8v-7.6c-8.7-1.6-12-4.9-12-13.6v-106.9c0-11.9 6-16.3 12.7-17.4v-7.6h-222.5c-13.4 0-21.4-5.4-21.4-13h-9.4v95.5h9.4c0-7.6 8-13 21.4-13h114.9v45c-20 11.9-69.5 35.3-153.7 35.3-102.9 0-193.8-45-193.8-141.1 0-91.7 90.9-136.8 203.2-136.8 88.9 0 161.1 33.6 161.1 50.5 0 3.8-.7 7.1-1.3 9.2l9.4 4.9 64.8-89-9.4-3.3c-2.7 3.3-8.7 6-14.7 6-4.7 0-30.7-9.8-66.2-22.3-38.1-9.8-90.2-20.1-145-20.1-139 0-296.7 61.9-296.7 203-.1 141.2 134.9 203.1 288.6 203.1z" fill="url(#a)"/><path d="m3054.2 440c-188.3 18.3-337.4-17.9-346.8-84.1-9.6-67.4 132.5-146.2 323.4-179.4 1.4-.2 2.3-1.5 2-2.9-.2-1.4-1.5-2.3-2.9-2.1-314.5 48.9-552.8 143.5-542.6 215.5 6.9 48.9 122.8 75.9 295.4 75.9 80.2 0 172.6-5.9 272-18.1 1.4-.2 2.3-1.4 2.2-2.8-.1-1.1-1.3-2.1-2.7-2z"/><path d="m3682.9 217.6c-10.5-73.7-261.2-98-583.2-56.5-1.7.2-2.9 1.8-2.7 3.5s1.7 2.9 3.5 2.8c190.8-20.5 347.6 15.6 357 82.2 8.4 59.3-105.3 117.9-297 152.9-11.9-12.1-28.1-88.6-38.5-151.8-.3-1.9-2-3.2-3.9-3s-3.3 1.7-3.3 3.6v182.7c0 .9.4 1.8 1.1 2.4.6.5 1.3.8 2.1.8h.5c327.1-48.3 575.1-144.7 564.4-219.6z"/></g></svg>