<?xml version="1.0" encoding="UTF-8" standalone="no"?>
<svg
   enable-background="new 0 0 3839 1426.2"
   height="713"
   viewBox="0 0 1920 713.00005"
   width="1920"
   version="1.1"
   id="svg29"
   sodipodi:docname="supergrafx.svg"
   inkscape:version="1.3.2 (091e20e, 2023-11-25)"
   xmlns:inkscape="http://www.inkscape.org/namespaces/inkscape"
   xmlns:sodipodi="http://sodipodi.sourceforge.net/DTD/sodipodi-0.dtd"
   xmlns="http://www.w3.org/2000/svg"
   xmlns:svg="http://www.w3.org/2000/svg">
  <defs
     id="defs29" />
  <sodipodi:namedview
     id="namedview29"
     pagecolor="#ffffff"
     bordercolor="#000000"
     borderopacity="0.25"
     inkscape:showpageshadow="2"
     inkscape:pageopacity="0.0"
     inkscape:pagecheckerboard="0"
     inkscape:deskcolor="#d1d1d1"
     inkscape:zoom="0.16544418"
     inkscape:cx="1922.0984"
     inkscape:cy="713.2315"
     inkscape:window-width="1312"
     inkscape:window-height="449"
     inkscape:window-x="0"
     inkscape:window-y="23"
     inkscape:window-maximized="0"
     inkscape:current-layer="svg29" />
  <g
     id="g1"
     transform="scale(0.49999999)">
    <g
       id="g30"
       transform="scale(1,0.99967542)">
      <g
         fill="#65b7ff"
         transform="matrix(1.0002605,0,0,1.0002605,0,-0.108517)"
         id="g29">
        <path
           d="M 285.1,673.4 H 124 L 0,797.4 v 205.9 l 124,124 67.6,-0.1 V 972.4 H 154.9 V 828.3 h 99.4 v 84.3 H 409.1 V 797.4 Z"
           id="path1" />
        <path
           d="m 217.6,972.4 v 154.8 h 36.7 v 144.1 h -99.4 v -92.9 H 0 v 123.8 l 124,124 h 161.1 l 124,-124 v -205.9 l -124,-123.9 z"
           id="path2" />
        <path
           d="M 641.8,1271.3 H 605.1 V 673.4 H 450.2 v 628.8 l 124,124 h 67.6 z"
           id="path3" />
        <path
           d="m 704.5,673.4 v 597.9 h -36.7 v 154.9 h 67.5 l 124,-124 V 673.4 Z"
           id="path4" />
        <path
           d="M 1866.3,972.4 V 828.3 673.4 h -154.9 v 752.8 h 154.9 v -29.5 -269.5 z"
           id="path5" />
        <path
           d="m 1996.6,673.4 h -29.1 -21.2 -53.9 v 154.9 h 73.3 v 67.6 54.7 21.8 h -73.3 v 154.8 h 73.3 v 24.6 52.9 216.4 h 154.9 v -218.1 -51.2 -17.6 l -84.4,-84.4 84.4,-84.4 v -14.8 -54.1 -65.3 -21 -12.8 z"
           id="path6" />
        <path
           d="m 1520.7,972.4 h 121.6 v 154.9 h -121.6 z"
           id="path7" />
        <path
           d="m 1668.3,673.4 h -173.7 -154.8 v 752.8 h 122.2 206.3 v -154.9 h -173.7 v -58.6 -85.5 -154.8 -29.1 -115 h 173.7 z"
           id="path8" />
        <path
           d="m 1183.4,673.4 h -104.3 v 154.9 h 73.4 v 193.2 h -73.4 v 154.9 h 104.3 l 124,-124 v -255 z"
           id="path9" />
        <path
           d="M 1053.1,1176.4 V 1021.5 828.3 673.4 H 898.2 v 752.8 h 154.9 z"
           id="path10" />
        <path
           d="m 2916.9,1025.8 v -32.9 c 0,-26.1 -21.2,-47.3 -47.3,-47.3 H 2647 c -0.2,0 -0.4,0.2 -0.4,0.4 v 207.5 c 0,0.2 0.2,0.4 0.4,0.4 h 45.6 c 0.2,0 0.4,-0.2 0.4,-0.4 v -79.9 c 0,-0.2 0.2,-0.4 0.4,-0.4 h 91 c 0.1,0 0.2,0.1 0.3,0.2 l 67.6,80.5 c 0.1,0.1 0.2,0.2 0.3,0.2 h 59.5 c 0.3,0 0.6,-0.4 0.3,-0.7 l -66.7,-79.5 c -0.2,-0.3 -0.1,-0.7 0.3,-0.7 h 23.6 c 26.2,-0.1 47.3,-21.3 47.3,-47.4 z m -223.9,9.6 v -52 c 0,-0.2 0.2,-0.4 0.4,-0.4 h 177.2 v 52.9 h -177.2 c -0.3,-0.1 -0.4,-0.3 -0.4,-0.5 z"
           id="path11" />
        <path
           d="m 2602.9,982.9 v -37.3 h -229.6 c -26.1,0 -47.3,21.2 -47.3,47.3 v 113.7 c 0,26.1 21.2,47.3 47.3,47.3 h 229.6 v -118.2 h -138.5 v 37.3 h 92.1 v 43.5 H 2372.3 V 982.9 Z"
           id="path12" />
        <path
           d="m 3524.9,982.9 v -37.3 h -196.4 -46.4 v 37.3 171.1 h 46.4 v -80.9 h 165.9 v -37.3 h -165.9 v -52.9 z"
           id="path13" />
        <path
           d="m 3839,945.6 h -65.6 l -78.8,78.8 -78.9,-78.8 h -65.6 l 104.2,104.2 -104.2,104.2 h 65.6 l 78.9,-78.9 78.8,78.9 h 65.6 l -104.2,-104.2 z"
           id="path14" />
        <path
           d="M 3193.8,1154 H 3246 L 3139.1,945.6 h -90.4 L 2941.8,1154 h 52.2 l 87.6,-171.1 h 24.5 z"
           id="path15" />
        <path
           d="M 2325.9,791 H 3839 v 37.3 H 2325.9 Z"
           id="path16" />
        <path
           d="M 2325.9,673.4 H 3839 v 37.3 H 2325.9 Z"
           id="path17" />
        <path
           d="M 2325.9,1383.8 H 3839 v 37.3 H 2325.9 Z"
           id="path18" />
        <path
           d="M 2325.9,1266.3 H 3839 v 37.3 H 2325.9 Z"
           id="path19" />
        <path
           d="m 2197.9,105.2 -167.5,75.6 -53.5,-48.7 19.4,69.7 -142.9,115.5 167.4,-75.6 53.5,48.7 -19.3,-69.6 z"
           id="path20" />
        <path
           d="m 2197.9,105.2 -167.5,75.6 -53.5,-48.7 19.4,69.7 -142.9,115.5 167.4,-75.6 53.5,48.7 -19.3,-69.6 z"
           id="path21" />
        <path
           d="m 2032,172.4 1.5,-0.7 c 0.7,-2.8 1.2,-5.6 1.8,-8.6 l 2.7,-17.9 -29.4,5.8 z"
           id="path22" />
        <path
           d="m 1895.8,256.2 29.2,-5.8 63,-50.9 -11.6,-41.9 -8.5,1.7 -2.4,15.7 c -0.6,4.1 -3.8,7.5 -7.9,8.3 l -37.2,7.4 c -3.7,0.7 -7,-2.4 -6.4,-6.1 l 15.8,-102.4 c 0.6,-4.1 3.8,-7.5 7.9,-8.3 l 37.2,-7.4 c 3.7,-0.7 7,2.4 6.4,6.1 l -2.3,15 70.2,-13.9 3.4,-21.8 C 2057.4,21 2030,-5.1 1999.4,1 l -62.2,12.4 c -40.1,7.9 -71,40.2 -77.3,80.7 l -17.1,111.3 c -5,30.8 22.4,56.9 53,50.8 z"
           id="path23" />
        <path
           d="m 1406.8,379.4 c -27.1,-21.6 -40.9,-44.3 -41.3,-67.3 -0.9,-64.7 107.9,-128.7 278.1,-164.3 l 1.8,-11.6 c -174.4,35.7 -292,101.8 -291,176 0.6,44 42.8,84.1 113.6,115.8 l 1.8,-11.3 c -25.2,-11.5 -46.4,-23.9 -63,-37.3 z"
           id="path24" />
        <path
           d="m 1938.7,108.3 -1.7,11 c 65.4,-0.1 128.7,3.7 188.1,11.1 l 19.1,-8.6 c -63.5,-8.8 -132.7,-13.6 -205.5,-13.5 z"
           id="path25" />
        <path
           d="m 2181.2,127.6 -11.5,9.3 c 52.5,8.5 101,19.9 143.9,34.2 50.9,16.9 90.8,36.7 118.5,58.9 27.1,21.6 40.9,44.3 41.3,67.3 0.9,66 -112.4,131.3 -288.5,166.4 -66,13.1 -139.2,21.6 -214.1,24.9 -1.9,3.9 -4,7.7 -6.2,11.3 80,-3.2 155.4,-12 222.5,-25.3 177.9,-35.4 298.4,-102.3 297.4,-177.4 -1,-75.4 -123.8,-139.1 -303.3,-169.6 z"
           id="path26" />
        <path
           d="m 2301.7,246 -57.7,11.5 c -3.4,0.7 -6,3.4 -6.5,6.9 l -1.8,11.6 69.3,-13.8 c 3.4,-0.7 6,-3.4 6.5,-6.9 0.8,-5.6 -4.2,-10.5 -9.8,-9.3 z"
           id="path27" />
        <path
           d="m 1860.7,338.2 -8.8,57.6 c -0.7,4.5 3.4,8.4 7.9,7.5 l 65.7,-13.1 11,-71.5 -70.5,13.9 c -2.7,0.6 -4.9,2.8 -5.3,5.6 z m 23.6,17.4 20.7,-4.1 -2.6,16.8 -20.7,4.1 z"
           id="path28" />
        <path
           d="m 2361.7,206 c -10.3,-15.6 -28.9,-23 -46.6,-19.5 l -72.6,14.4 c -19.1,3.8 -35.6,14.9 -46.6,30.3 -0.4,-0.4 -0.7,-0.7 -1.1,-1.1 -10.7,-10.1 -25.7,-14.6 -40.1,-11.6 l -88,17.5 7,25.1 86.1,-17.1 c 13.1,-2.6 24.8,8.6 22.8,21.8 l -16.4,106.7 -29.1,5.8 14.4,-93.3 c 0.7,-4.5 -3.4,-8.4 -7.9,-7.5 l -65.7,13.1 -15.8,102.7 -29.1,5.7 18.4,-119.5 -32.3,-29.4 -86.6,39.1 8.7,-1.8 29.1,-5.8 -24.2,157.4 c -7.1,46.3 -42.4,83.1 -88.3,92.3 l -32.4,6.4 4.8,-31.2 22.7,-4.5 c 34.2,-6.8 60.6,-34.3 65.9,-68.8 l 1.9,-11.8 -77.1,15.4 c -13.1,2.6 -24.8,-8.6 -22.8,-21.8 l 11.2,-72.8 c 2,-13 9,-24.3 19.1,-31.8 v -0.1 l 51.5,-41.6 -36.8,7.3 c -19.1,3.8 -35.6,14.9 -46.6,30.3 -0.4,-0.4 -0.7,-0.7 -1.1,-1.1 -10.7,-10.1 -25.7,-14.6 -40.1,-11.6 l -78,15.5 2.2,-14.1 9,-58.6 55,-10.9 c 40.1,-7.9 71,-40.2 77.3,-80.7 l 8.1,-52.8 c 4.8,-30.9 -22.6,-57 -53.2,-50.9 l -129.1,25.7 -24.1,156.2 -130.9,26 c -3.4,0.7 -6,3.4 -6.5,6.9 L 1466,527.1 c -0.9,5.6 4.1,10.5 9.8,9.4 l 175.8,-34.9 56.8,-11.3 15.8,-102.7 20.7,-4.1 -15.9,102.6 83.4,-16.6 2.1,-14 c 9.9,6.6 22.1,9.2 34.1,6.9 l 33.1,-6.6 c -8.3,10.6 -20.2,18.2 -33.9,20.9 l -34.9,7 c -3.4,0.7 -6,3.4 -6.5,6.9 l -10.5,68.6 c -0.9,5.6 4.1,10.5 9.8,9.4 l 57.3,-11.4 c 56.6,-11.3 100.1,-56.7 109,-113.8 l 0.9,-5.5 56.2,-11.2 56.2,-11.2 15.8,-102.7 20.7,-4.1 -15.8,102.7 83.4,-16.6 2.1,-14 c 9.9,6.6 22.1,9.2 34.1,6.8 L 2344,364 c 3.4,-0.7 6,-3.4 6.5,-6.9 l 12.4,-80.2 -3.3,0.6 c 3.1,-6.4 5.2,-13.4 6.4,-20.7 l 2.7,-17.9 c 1.6,-11.6 -0.6,-23.4 -7,-32.9 z m -631.9,-90.8 44.1,-8.7 c 3.7,-0.7 7,2.4 6.4,6.1 l -6.7,43.8 c -0.6,4.1 -3.8,7.5 -7.9,8.3 l -44.8,8.9 z m -101.2,364.2 -12.6,2.6 -14.8,2.9 -82.8,16.5 -22.9,4.5 36,-233.9 9.6,-1.9 71.1,-14.1 32.2,-6.4 -4.8,31.2 -9.3,1.9 -74.6,14.8 -10.6,68.8 34.9,-6.9 6.3,-1.2 22.9,-4.5 -4.8,31.2 -12.3,2.5 -16.9,3.4 -34.9,7 -11,71.5 76.6,-15.2 4.2,-0.9 23.3,-4.7 z m -67.9,-43.2 2.6,-16.8 64.1,-12.7 13.2,-85.9 -64.1,12.7 2.2,-14.1 53.2,-10.6 24.2,-4.8 -3.4,22.4 -14.6,94.4 z m 228.7,11.2 -29.1,5.8 14.4,-93.3 c 0.7,-4.5 -3.4,-8.4 -7.9,-7.5 l -65.7,13.1 -15.8,102.7 -29.1,5.8 20.6,-133.8 L 1783,319 c 13.1,-2.6 24.8,8.6 22.8,21.8 z m 216.5,-43 -29.1,5.8 20.6,-133.9 29.1,-5.8 z m 337.1,-170.5 -2.9,18.8 c -3.1,20.4 -18.7,36.5 -38.8,40.6 l -70.4,14 -2.1,13.5 c -0.7,4.5 3.4,8.4 7.9,7.5 l 65.7,-13.1 13,-2.6 16.1,-3.2 -4.8,31.2 -5.5,1.1 -100.8,20 c -13.1,2.6 -24.8,-8.6 -22.8,-21.8 l 11.2,-72.8 c 3.1,-20.4 18.7,-36.5 38.8,-40.6 l 72.5,-14.5 c 13.2,-2.5 24.9,8.7 22.9,21.9 z"
           id="path29" />
      </g>
    </g>
  </g>
</svg>
