<svg enable-background="new 0 0 3839 1060.5" height="530" viewBox="0 0 1920 529.99998" width="1920" xmlns="http://www.w3.org/2000/svg"><g transform="scale(.50013024 .49976426469)"><g fill="#780117"><path d="m1403.7 26.7h-107.4-107.9-107.4v111.7h107.4v862.5h107.9v-862.5h107.4z"/><path d="m1665.8 26.7v862.3h-107v-862.3h-107.8v816.2c0 92.2 72.2 167.1 161.4 167.1 89.1 0 161.4-74.8 161.4-167.1v-816.2z"/><path d="m2073 1000.9h92l-193.5-1000.9-193.5 1000.9h92l22.3-115h158.5zm-159.3-226.7 57.7-298.5 57.7 298.5z"/><path d="m54.5 26.7 193.4 1000.9 193.4-1000.9h-91.9l-101.5 525.2-101.5-525.2z"/><path d="m2943.3 169.9c0-79-61.9-143-138.2-143h-76.6-75.9-32v974h32 152.5c76.3 0 138.2-64 138.2-143v-245.6c0-32.3-15-71.7-38.3-98.4 23.2-26.6 38.3-66.1 38.3-98.4zm-107.8-31.5v319.6h-107v-319.6zm-107 750.8v-319.5h107v319.5z"/><path d="m501.5 26.7h107.9v974h-107.9z"/><path d="m1076.8 1000.9-121.6-446.4c45.3-23.5 76.4-71.9 76.4-127.9v-256.7c0-79-61.9-143-138.2-143h-76.6-107.9v111.7 862.3h107.9v-542.9-319.6h107v319.6h-107l2.4 8.8 145.6 534.1z"/><path d="m2323.9 889.2v-862.5h-107.8v862.5 55.8 55.9h272.9v-111.7z"/><path d="m3207.3 17.6c-89.1 0-161.4 74.8-161.4 167.1v136.7 409.5 112c0 92.2 72.2 167.1 161.4 167.1 89.1 0 161.4-74.8 161.4-167.1v-112.1-149.6-134.7-125.1-136.7c-.1-92.3-72.3-167.1-161.4-167.1zm53.5 303.8v259.8 149.7 158.3h-106.9v-308-134.7-308h107z"/><path d="m3781.3 25.9h-91.8l-100.2 433-100.2-433h-92.7l138 596.6v377.6h107.8v-369.7z"/></g><g fill="#f00"><path d="m1379.5 59.6h-111.2-111.7-111.1v111.6h111.1v862.4h111.7v-862.4h111.2z"/><path d="m1648.9 59.6v862.3h-110.7v-862.3h-111.7v816.2c0 92.2 74.8 167.1 167.1 167.1 92.2 0 167.1-74.8 167.1-167.1v-816.2z"/><path d="m2094.4 1033.6h95.1l-200.2-1000.9-200.3 1000.9h95.1l23-115h164.1zm-164.8-226.7 59.7-298.5 59.7 298.5z"/><path d="m0 59.6 200.3 1000.9 200.2-1000.9h-95.1l-105.1 525.2-105-525.2z"/><path d="m2982.5 202.6c0-79-64-143-143-143h-79.3-78.5-33.2v974h33.2 157.8c79 0 143-64 143-143v-245.6c0-32.3-15.6-71.7-39.6-98.4 24-26.6 39.6-66.1 39.6-98.4zm-111.7-31.4v319.5h-110.7v-319.5zm-110.7 750.7v-319.5h110.7v319.5z"/><path d="m3839 59.6h-95.3l-103.6 433-103.7-433h-96l142.9 596.5v377.5h111.7v-369.6z"/><path d="m462.1 59.6h111.7v974h-111.7z"/><path d="m1057.2 1033.6-125.9-446.3c46.9-23.5 79.1-71.9 79.1-127.9v-256.8c0-79-64-143-143-143h-79.3-111.8v111.7 862.3h111.7v-542.8-319.6h110.7v319.5h-110.7l2.4 8.8 150.7 534.1z"/><path d="m2354.2 921.9v-862.3h-111.7v862.3 55.9 55.8h282.6v-111.7z"/><path d="m3241.9 50.5c-92.2 0-167.1 74.8-167.1 167.1v136.7 409.5 112.1c0 92.2 74.8 167.1 167.1 167.1 92.2 0 167.1-74.8 167.1-167.1v-112.3-149.7-134.6-125.2-136.7c0-92.1-74.8-166.9-167.1-166.9zm55.4 303.6v259.8 149.7 158.3h-110.7v-308-134.6-308h110.7z"/></g></g></svg>