<?xml version="1.0" encoding="UTF-8" standalone="no"?>
<svg
   enable-background="new 0 0 3839 1836.3"
   height="918"
   viewBox="0 0 1920 918"
   width="1920"
   version="1.1"
   id="svg5"
   sodipodi:docname="wii.svg"
   inkscape:version="1.3.2 (091e20e, 2023-11-25)"
   xmlns:inkscape="http://www.inkscape.org/namespaces/inkscape"
   xmlns:sodipodi="http://sodipodi.sourceforge.net/DTD/sodipodi-0.dtd"
   xmlns="http://www.w3.org/2000/svg"
   xmlns:svg="http://www.w3.org/2000/svg">
  <defs
     id="defs5" />
  <sodipodi:namedview
     id="namedview5"
     pagecolor="#ffffff"
     bordercolor="#000000"
     borderopacity="0.25"
     inkscape:showpageshadow="2"
     inkscape:pageopacity="0.0"
     inkscape:pagecheckerboard="0"
     inkscape:deskcolor="#d1d1d1"
     inkscape:zoom="0.12848584"
     inkscape:cx="1922.3908"
     inkscape:cy="918.38914"
     inkscape:window-width="1312"
     inkscape:window-height="449"
     inkscape:window-x="0"
     inkscape:window-y="23"
     inkscape:window-maximized="0"
     inkscape:current-layer="svg5" />
  <g
     id="g1"
     transform="scale(0.49999999)">
    <g
       id="g6"
       transform="scale(1,0.99957624)">
      <g
         fill="#a19fa3"
         transform="scale(1.0002605)"
         id="g5">
        <path
           d="m 2649.3,209.1 c 0,115.3 97.1,208.8 216.5,208.8 124.2,0 221.7,-91.6 221.7,-208.8 C 3087.5,91.8 2990,0 2865.9,0 2746.4,0 2649.3,93.7 2649.3,209.1"
           id="path1" />
        <path
           d="m 2685.3,627.2 h 369.6 v 1196 h -369.6 z"
           id="path2" />
        <path
           d="m 3400.8,209.1 c 0,115.3 97.2,208.8 216.6,208.8 124.2,0 221.6,-91.6 221.6,-208.8 C 3839,91.8 3741.7,0 3617.4,0 3498,0 3400.8,93.7 3400.8,209.1"
           id="path3" />
        <path
           d="m 3436.6,627.2 h 369.8 v 1196 h -369.8 z"
           id="path4" />
        <path
           d="m 2097.5,100.6 -324.2,1270.8 c 0,0 -247.8,-953.9 -288.2,-1089.2 -40.3,-135.5 -123.3,-194.9 -241,-194.9 -117.7,0 -200.8,59.4 -241.2,194.9 C 962.8,417.5 714.8,1371.4 714.8,1371.4 L 390.6,100.6 H 0 c 0,0 375.1,1355.9 426.1,1512.9 39.7,122.6 133.6,222.8 272.9,222.8 159.3,0 233.7,-116.1 268.2,-222.8 34.1,-106 276.9,-1001.6 276.9,-1001.6 0,0 242.9,895.6 276.9,1001.6 34.5,106.7 108.9,222.8 268.1,222.8 139.4,0 233.2,-100.2 273.1,-222.8 50.9,-157 425.7,-1512.9 425.7,-1512.9 z"
           id="path5" />
      </g>
    </g>
  </g>
</svg>
