<?xml version="1.0" encoding="UTF-8" standalone="no"?>
<svg
   enable-background="new 0 0 3839 493"
   height="247"
   viewBox="0 0 1920 247"
   width="1920"
   version="1.1"
   id="svg11"
   sodipodi:docname="wonderswan.svg"
   inkscape:version="1.3.2 (091e20e, 2023-11-25)"
   xmlns:inkscape="http://www.inkscape.org/namespaces/inkscape"
   xmlns:sodipodi="http://sodipodi.sourceforge.net/DTD/sodipodi-0.dtd"
   xmlns="http://www.w3.org/2000/svg"
   xmlns:svg="http://www.w3.org/2000/svg">
  <defs
     id="defs11" />
  <sodipodi:namedview
     id="namedview11"
     pagecolor="#ffffff"
     bordercolor="#000000"
     borderopacity="0.25"
     inkscape:showpageshadow="2"
     inkscape:pageopacity="0.0"
     inkscape:pagecheckerboard="0"
     inkscape:deskcolor="#d1d1d1"
     inkscape:zoom="0.24557292"
     inkscape:cx="1922.036"
     inkscape:cy="248.39872"
     inkscape:window-width="1312"
     inkscape:window-height="449"
     inkscape:window-x="0"
     inkscape:window-y="23"
     inkscape:window-maximized="0"
     inkscape:current-layer="svg11" />
  <g
     id="g1"
     transform="scale(0.50000001)">
    <g
       id="g12"
       transform="scale(1,1.0017679)">
      <g
         transform="matrix(1.0002533,0,0,1.0002533,0,0.001651)"
         id="g11">
        <path
           d="M 579.1,227.5 C 442.2,-32.9 177.4,-41 86.1,60.2 63.8,84.9 -12.2,226.4 198.7,359.3 89,391.7 0,265.5 0,265.5 137.1,525.9 401.7,534 493.1,432.8 515.4,408.1 591.4,266.5 380.4,133.7 c 109.8,-32.4 198.7,93.8 198.7,93.8 z m -166.6,130 C 371,403.5 282.2,391.1 214.4,329.8 146.6,268.5 125.1,181.5 166.7,135.6 208.3,89.7 297,102 364.8,163.3 c 67.8,61.3 89.3,148.2 47.7,194.2 z"
           fill="#ff0000"
           id="path1" />
        <ellipse
           cx="344.60001"
           cy="296.20001"
           fill="#ff0000"
           rx="62"
           ry="91.5"
           transform="matrix(0.6701,-0.7423,0.7423,0.6701,-106.193,353.5226)"
           id="ellipse1" />
        <path
           d="m 1307.8,208.9 h -22.7 -34.3 -97.4 -7.3 -8.4 l -78.4,54.8 -18.9,88.8 c -2.7,12.7 7,24.7 20,24.7 h 23.9 33.2 97.4 10.1 5.6 l 78.4,-54.8 18.9,-88.8 c 2.6,-12.7 -7.1,-24.7 -20.1,-24.7 z m -65.1,37.5 -15.7,73.7 -46.2,32.3 h -45.3 c -6.6,0 -11.5,-6.1 -10.1,-12.5 l 15.7,-73.8 46.1,-32.3 h 45.4 c 6.6,0.1 11.5,6.1 10.1,12.6 z"
           id="path2" />
        <path
           d="m 1570.2,208.9 h -12.4 -7.9 -97.4 -33.7 -48.6 l -35.9,168.3 h 43.2 l 46.1,-32.2 23.7,-111.2 h 74.6 c 11.7,0 20.5,10.8 18.1,22.3 l -25.8,121.1 h 82.4 l 25.8,-121 c 4.9,-24.3 -19.5,-47.3 -52.2,-47.3 z"
           id="path3" />
        <path
           d="m 3786.3,208.9 h -12.5 -7.9 -97.4 -33.7 -48.6 l -35.9,168.3 h 43.2 l 46.1,-32.2 23.7,-111.2 h 74.6 c 11.8,0 20.5,10.8 18.1,22.3 l -25.8,121.1 h 82.4 l 25.8,-121 c 4.9,-24.3 -19.5,-47.3 -52.1,-47.3 z"
           id="path4" />
        <path
           d="m 1004.3,115.6 -46.1,32.3 -36.7,172.1 -46.2,32.4 h -23 l 43.6,-204.5 6.9,-32.3 h -43.2 l -46,32.3 -36.7,172.2 -46.2,32.3 h -23 l 43.6,-204.5 6.9,-32.3 H 715 l -46,32.3 -49,229.4 h 62.4 20 62.3 82.2 62.4 15.6 l 78.4,-54.8 44.2,-206.9 z"
           id="path5" />
        <path
           d="m 3162.4,233.9 -18.4,86.1 -46.2,32.4 h -16.6 l 30.6,-143.5 h -52 l -35.7,25 -18.3,86.2 -46.2,32.3 h -16.7 l 30.6,-143.5 h -52 l -35.7,25 -30.6,143.4 h 292.3 l 78.3,-54.8 24.2,-113.6 h -52 z"
           id="path6" />
        <path
           d="m 1921.6,211.7 c 6.4,-4.2 12.4,-8.9 17.8,-14.3 22.1,-22.3 38.7,-51.7 38.7,-51.7 h -87.6 c 0,0 -16.5,29.4 -38.7,51.7 -4.2,4.3 -8.9,8.1 -13.7,11.6 h -86.5 -8 -7.7 l -78.4,54.8 -18.9,88.8 c -2.7,12.7 7,24.8 20,24.8 h 19.8 37.2 97.4 26 56.3 l 32.1,-150.5 c 1.4,-6.2 -1.2,-11.9 -5.8,-15.2 z m -80.6,34.7 -22.6,106 h -84.7 c -6.6,0 -11.5,-6.1 -10.1,-12.5 l 15.7,-73.7 46.1,-32.3 h 45.4 c 6.7,0 11.6,6 10.2,12.5 z"
           id="path7" />
        <path
           d="m 2202.4,208.9 h -15 -21.4 -115.2 -7.5 -8.2 l -78.4,54.8 -18.9,88.8 c -2.7,12.7 7,24.8 20,24.8 h 29.2 27.9 111.1 l 34.7,-24.9 h -127.8 c -6.6,0 -11.5,-6.1 -10.1,-12.5 l 5.7,-26.9 h 120.4 l 80.1,-56 2.6,-12 c 3.9,-18.6 -10.2,-36.1 -29.2,-36.1 z m -44.4,37.5 -3.3,15.4 -35.1,24.7 h -85.4 l 4.3,-20.4 46.1,-32.2 h 63.2 c 6.7,0 11.6,6 10.2,12.5 z"
           id="path8" />
        <path
           d="m 2440.9,267.1 c -1.1,3.2 -2.5,6.3 -4.3,9.1 l -6.5,10.3 h 55.9 l 38.1,-26.7 c 0,-20.9 -11.2,-50.9 -58.9,-50.9 h -122.7 -8.2 l -78.4,54.8 -24.2,113.5 h 82.4 l 23.7,-111.1 46.1,-32.2 h 33 c 17.2,0 29.4,16.8 24,33.2 z"
           id="path9" />
        <path
           d="m 2801.3,221.3 h -17.5 -15.1 -74.9 c -10.8,-0.3 -18.2,-7.3 -16.5,-21.2 3.9,-31.2 30.7,-47.6 44,-47.6 h 119.9 l 52.9,-37 h -198.7 c -63.1,0 -97.9,46.7 -105.3,107.4 -5.3,25 13.7,48.6 39.4,48.6 h 17.5 15.1 74.9 c 10.8,0.3 18.2,7.3 16.5,21.2 -3.9,30.6 -29.6,46.9 -43.2,47.5 h -244.7 l -52.9,37 h 124.2 l -0.1,0.1 h 198.7 c 63.1,0 97.9,-46.7 105.3,-107.4 5.1,-25 -13.9,-48.6 -39.5,-48.6 z"
           id="path10" />
        <path
           d="m 3466.9,208.9 h -97.4 c -48,0 -89.7,33.6 -99.6,80.6 -10.1,48.3 -4.2,91 63.6,87.8 h 48.2 l 35.6,-24.9 h -39.1 c -20.3,0 -35.4,-18.7 -31.1,-38.5 l 5.7,-26.6 c 6.6,-31.1 34.1,-53.4 66,-53.4 h 42.8 L 3431,377.3 h 82.4 L 3549.3,209 h -69.8 -12.6 z"
           id="path11" />
      </g>
    </g>
  </g>
</svg>
