<svg enable-background="new 0 0 3839 493" height="247" viewBox="0 0 1920 247" width="1920" xmlns="http://www.w3.org/2000/svg"><g transform="matrix(.50012666 0 0 .50101083392 0 .00082695942)"><path d="m579.1 227.5c-136.9-260.4-401.7-268.5-493-167.3-22.3 24.7-98.3 166.2 112.6 299.1-109.7 32.4-198.7-93.8-198.7-93.8 137.1 260.4 401.7 268.5 493.1 167.3 22.3-24.7 98.3-166.3-112.7-299.1 109.8-32.4 198.7 93.8 198.7 93.8zm-166.6 130c-41.5 46-130.3 33.6-198.1-27.7s-89.3-148.3-47.7-194.2 130.3-33.6 198.1 27.7 89.3 148.2 47.7 194.2z" fill="#f00"/><ellipse cx="344.60001" cy="296.20001" fill="#f00" rx="62" ry="91.5" transform="matrix(.6701 -.7423 .7423 .6701 -106.193 353.5226)"/><path d="m1307.8 208.9h-22.7-34.3-97.4-7.3-8.4l-78.4 54.8-18.9 88.8c-2.7 12.7 7 24.7 20 24.7h23.9 33.2 97.4 10.1 5.6l78.4-54.8 18.9-88.8c2.6-12.7-7.1-24.7-20.1-24.7zm-65.1 37.5-15.7 73.7-46.2 32.3h-45.3c-6.6 0-11.5-6.1-10.1-12.5l15.7-73.8 46.1-32.3h45.4c6.6.1 11.5 6.1 10.1 12.6z"/><path d="m1570.2 208.9h-12.4-7.9-97.4-33.7-48.6l-35.9 168.3h43.2l46.1-32.2 23.7-111.2h74.6c11.7 0 20.5 10.8 18.1 22.3l-25.8 121.1h82.4l25.8-121c4.9-24.3-19.5-47.3-52.2-47.3z"/><path d="m3786.3 208.9h-12.5-7.9-97.4-33.7-48.6l-35.9 168.3h43.2l46.1-32.2 23.7-111.2h74.6c11.8 0 20.5 10.8 18.1 22.3l-25.8 121.1h82.4l25.8-121c4.9-24.3-19.5-47.3-52.1-47.3z"/><path d="m1004.3 115.6-46.1 32.3-36.7 172.1-46.2 32.4h-23l43.6-204.5 6.9-32.3h-43.2l-46 32.3-36.7 172.2-46.2 32.3h-23l43.6-204.5 6.9-32.3h-43.2l-46 32.3-49 229.4h62.4 20 62.3 82.2 62.4 15.6l78.4-54.8 44.2-206.9z"/><path d="m3162.4 233.9-18.4 86.1-46.2 32.4h-16.6l30.6-143.5h-52l-35.7 25-18.3 86.2-46.2 32.3h-16.7l30.6-143.5h-52l-35.7 25-30.6 143.4h292.3l78.3-54.8 24.2-113.6h-52z"/><path d="m1921.6 211.7c6.4-4.2 12.4-8.9 17.8-14.3 22.1-22.3 38.7-51.7 38.7-51.7h-87.6s-16.5 29.4-38.7 51.7c-4.2 4.3-8.9 8.1-13.7 11.6h-86.5-8-7.7l-78.4 54.8-18.9 88.8c-2.7 12.7 7 24.8 20 24.8h19.8 37.2 97.4 26 56.3l32.1-150.5c1.4-6.2-1.2-11.9-5.8-15.2zm-80.6 34.7-22.6 106h-84.7c-6.6 0-11.5-6.1-10.1-12.5l15.7-73.7 46.1-32.3h45.4c6.7 0 11.6 6 10.2 12.5z"/><path d="m2202.4 208.9h-15-21.4-115.2-7.5-8.2l-78.4 54.8-18.9 88.8c-2.7 12.7 7 24.8 20 24.8h29.2 27.9 111.1l34.7-24.9h-127.8c-6.6 0-11.5-6.1-10.1-12.5l5.7-26.9h120.4l80.1-56 2.6-12c3.9-18.6-10.2-36.1-29.2-36.1zm-44.4 37.5-3.3 15.4-35.1 24.7h-85.4l4.3-20.4 46.1-32.2h63.2c6.7 0 11.6 6 10.2 12.5z"/><path d="m2440.9 267.1c-1.1 3.2-2.5 6.3-4.3 9.1l-6.5 10.3h55.9l38.1-26.7c0-20.9-11.2-50.9-58.9-50.9h-122.7-8.2l-78.4 54.8-24.2 113.5h82.4l23.7-111.1 46.1-32.2h33c17.2 0 29.4 16.8 24 33.2z"/><path d="m2801.3 221.3h-17.5-15.1-74.9c-10.8-.3-18.2-7.3-16.5-21.2 3.9-31.2 30.7-47.6 44-47.6h119.9l52.9-37h-198.7c-63.1 0-97.9 46.7-105.3 107.4-5.3 25 13.7 48.6 39.4 48.6h17.5 15.1 74.9c10.8.3 18.2 7.3 16.5 21.2-3.9 30.6-29.6 46.9-43.2 47.5h-244.7l-52.9 37h124.2l-.1.1h198.7c63.1 0 97.9-46.7 105.3-107.4 5.1-25-13.9-48.6-39.5-48.6z"/><path d="m3466.9 208.9h-97.4c-48 0-89.7 33.6-99.6 80.6-10.1 48.3-4.2 91 63.6 87.8h48.2l35.6-24.9h-39.1c-20.3 0-35.4-18.7-31.1-38.5l5.7-26.6c6.6-31.1 34.1-53.4 66-53.4h42.8l-30.6 143.4h82.4l35.9-168.3h-69.8-12.6z"/></g></svg>