<svg height="350.26" viewBox="0 0 598.189 350.26" width="598.189" xmlns="http://www.w3.org/2000/svg"><g fill="#f4f4f4"><path d="m291.761 195.13c13.334-1.834 35.001-6.167 46.334-11.834-3.5 3.334-4.5 3.5-4.5 3.5 17.833.167 21.332.001 30.666-1.666-1.999 5.166-24.5 7.333-35.333 7.833s-30.499 5.667-37.167 2.167z"/><path d="m278.262 195.63c-17-12.666-17.833-17.5-25-24.667s-11.667-10.167-15.333-11.5c3.667 2.833 4.167 6.333 4.167 6.333-6.333-3.833-17.833-5.166-22.333-1.833 1.167 2.5 3.333 3.333 9.667 4.333s15.5 5 25 13.5c9.499 8.5 19.499 13.334 23.832 13.834z"/><path d="m309.134 203.992c-1.549-.718-2.684-1.394-3.525-2.155-.829-.743-1.433-1.717-1.428-2.82.021-1.348.779-2.297 1.588-3.076.838-.787 1.873-1.494 3.006-2.232 2.01-1.27 5.551-2.146 9.717-2.889 4.138-.713 8.757-1.168 12.477-1.17 2.714.031 4.834.16 6.416.949 1.389.545 2.271 1.605 3.366 2.627 1.086 1.079 2.241 2.139 3.146 2.545l4.727 2.203-5.171.645c-.021.004-.065.012-.136.026-.139.03-.379.089-.73.193-.697.206-1.834.596-3.503 1.31-5.839 3.24-14.372 5.313-21.486 5.327-3.213-.004-6.136-.417-8.464-1.483zm28.558-6.503.076-.043.068-.029c.795-.341 1.486-.616 2.082-.84-.447-.405-.868-.819-1.271-1.209-1.063-1.098-2.151-1.986-2.317-1.969l.431-1.435.741-1.306-.741 1.306-.431 1.435-.165-.049-.145-.082c-.411-.296-2.514-.653-5.053-.618-3.478-.002-7.992.437-11.967 1.125-3.947.659-7.494 1.689-8.588 2.444-1.091.709-2.015 1.359-2.579 1.899-.593.55-.665.883-.655.897.002 0-.028.154.45.604.466.429 1.373 1.01 2.761 1.648 1.693.788 4.268 1.213 7.206 1.207 6.551.015 14.894-2.039 20.097-4.985z"/><path d="m247.171 199.733c-4.792-1.379-7.459-5.002-8.695-9.072-1.154-3.704-1.347-7.878-1.376-11.813-.926-.087-1.9-.161-2.924-.222l.17-2.993c11.838.659 17.677 3.347 21.673 5.702 7.017 4.104 11.485 9.103 12.068 15.154l.154 1.641h-1.647c-3.485-.078-7.646 2.416-13.604 2.463-.007 0-.015 0-.022 0-1.778 0-3.707-.244-5.797-.86zm-5.833-9.968c1.139 3.51 2.971 5.973 6.68 7.09 1.824.538 3.457.739 4.971.739 4.406.043 7.897-1.813 11.862-2.333-.979-4.053-4.427-7.868-10.348-11.337-3.033-1.763-6.938-3.698-14.402-4.73.039 3.727.271 7.504 1.237 10.571z"/><path d="m238.907 182.255c5 .5 9.625 5.875 4.5 13.313-2.187-2.188-4.687-5.251-4.5-13.313z"/><path d="m310.157 194.88c3.125 2.688 3.125 6.125 1.313 8.063-2.875-.75-5.75-2.438-5.688-3.875s1.938-3.251 4.375-4.188z"/><path d="m282.595 197.284c.09-3.197 1.419-14.382 3.921-20.655v.002l2.781 1.124c-2.248 5.478-3.669 16.915-3.702 19.594z"/><path d="m298.851 204.655 1.822-2.383c11.012 8.443 29.609 15.287 41.777 18.233l-.71 2.916c-12.503-3.055-31.234-9.876-42.889-18.766zm0-.001v.002z"/><path d="m242.828 210.126.199-2.992c.52.033 1.033.051 1.542.051 6.197.013 12.138-2.646 22.147-8.041l1.423 2.641c-10.028 5.391-16.428 8.389-23.57 8.401-.578 0-1.16-.021-1.741-.06z"/><path d="m253.732 236.23c-4.889-3.363-7.063-7.574-8.205-10.563l-.274-.715.415-.64c1.765-2.746 4.081-5.2 9.3-8.452 5.234-3.276 13.47-7.495 27.489-14.09v.002l1.277 2.714c-13.981 6.572-22.159 10.773-27.174 13.916-4.58 2.883-6.454 4.768-7.942 6.903 1.088 2.589 2.928 5.761 6.819 8.455 4.26 2.938 11.085 5.331 22.315 5.333 1.061 0 2.16-.021 3.299-.065-.536-.44-1.142-1.034-1.184-2.121.006-1.047.732-1.772 1.388-2.138.689-.4 1.514-.662 2.611-.891 2.182-.446 5.456-.706 10.341-.71 1.477.002 3.096.027 4.871.081.029-.443.043-.891.043-1.339.01-5.887-2.416-11.954-3.4-14.183l2.749-1.2c1.035 2.388 3.64 8.714 3.649 15.383 0 1.025-.062 2.058-.203 3.091l-.188 1.341-1.354-.05c-2.306-.084-4.354-.123-6.166-.123-3.651 0-6.347.154-8.233.401-1.083.132-1.907.317-2.459.486.221.116.481.237.768.352 1.221.499 2.93.917 4.456 1.06l.019 2.983c-4.036.441-7.689.642-11.005.644-11.643.004-19.137-2.493-24.022-5.865z"/><path d="m261.851 275.342c.001-.001 0-.001.002-.001v.001zm-1.182-2.758c17.102-7.315 20.932-8.342 24.188-8.369.71 0 1.323.05 1.971.083 4.286.257 13.13 3.771 19.108 7.756l-1.684 2.484c-5.355-3.681-14.514-7.166-17.567-7.244-.712-.035-1.269-.079-1.828-.079-2.292-.026-5.933.796-23.004 8.126z"/><path d="m277.566 285.498c-5.292-.002-10.295 1.084-13.296 1.454-.958.113-1.749.182-2.451.182-.861-.002-1.622-.095-2.337-.439-.722-.34-1.257-.952-1.576-1.541-.639-1.188-.89-2.421-1.69-4.267l2.758-1.182c.653 1.528 1.008 2.711 1.298 3.431.311.759.423.809.522.862.093.05.396.14 1.025.137.501 0 1.199-.054 2.094-.161 2.734-.326 7.987-1.475 13.653-1.477 5.21.002 10.916.96 15.472 4.633l-1.887 2.333c-3.75-3.042-8.719-3.969-13.585-3.965zm-21.351-4.612v.002z"/><path d="m314.856 164.462c-28.418-1.332-59.731-5.374-96.3-24.842l-.885-.472.096-.997c1.665-17.309 3.327-39.263 3.33-39.302l.178-2.314 2.038 1.111c18.355 9.988 30.549 16.807 67.762 20.489 3.793.374 7.738.547 11.781.547 17.576.002 36.928-3.305 53.365-7.805 16.418-4.473 30.012-10.231 35.783-14.766l.407-.317h.517c.996.002 1.718.633 2.098 1.185.408.574.658 1.205.877 1.905.424 1.393.676 3.076.85 4.757.343 3.346.341 6.624.341 6.653h-2.999c-.002-.004 0-1.375-.094-3.231-.092-1.853-.283-4.183-.641-5.977-.141-.755-.341-1.423-.518-1.865-6.828 4.843-19.978 10.196-35.831 14.549-16.653 4.555-36.209 7.907-54.155 7.911-4.128-.002-8.17-.178-12.076-.562-36.051-3.514-49.574-10.299-66.868-19.73-.461 5.951-1.751 22.278-3.062 36.049 35.714 18.795 66.133 22.7 94.147 24.025.897.041 1.813.062 2.746.062 13.853.008 31.215-4.608 46.229-10.291 14.49-5.459 26.92-12.003 31.816-15.994.306-7.334.306-7.334.306-7.341h.002l2.996.125c0 .008 0 0-.332 7.999l-.027.647-.49.425c-5.161 4.443-17.954 11.161-33.21 16.945-15.237 5.752-32.798 10.475-47.29 10.483-.978.002-1.939-.018-2.887-.061z"/><path d="m225.629 99.91h.002zm-2.735-1.228c16.187-36.055 49.411-68.573 88.354-88.389l.707-.36.695.381c51.863 28.412 72.954 56.475 81.719 86.563l-2.881.841c-8.525-29.117-28.63-56.271-79.585-84.391-38.085 19.55-70.556 51.521-86.273 86.583z"/><path d="m278.844 117.852c.755-40.76 12.077-77.793 31.843-107.063l.883-1.31 1.264.953c41.424 31.211 60.146 49.444 72.449 91.272v.002l-2.877.847c-12.07-40.749-29.609-58.08-70.113-88.769-18.863 28.527-29.715 64.493-30.447 104.122z"/><path d="m232.843 130.755c.002-5.454 4.421-9.875 9.875-9.875 5.454 0 9.875 4.421 9.875 9.875 0 5.454-4.421 9.874-9.875 9.875-5.453-.002-9.873-4.421-9.875-9.875zm3.002 0c.006 3.796 3.077 6.868 6.874 6.874 3.798-.006 6.869-3.077 6.875-6.874-.006-3.798-3.077-6.869-6.875-6.875-3.797.006-6.868 3.077-6.874 6.875z"/><path d="m330.345 141.629c.002-5.661 4.588-10.248 10.25-10.25 5.661.002 10.248 4.589 10.25 10.25-.002 5.662-4.589 10.249-10.25 10.25-5.662-.001-10.248-4.588-10.25-10.25zm3 0c.006 4.003 3.246 7.242 7.25 7.25 4.003-.008 7.242-3.247 7.25-7.25-.008-4.003-3.247-7.244-7.25-7.25-4.004.007-7.244 3.247-7.25 7.25z"/><path d="m394.961 128.442c-1.983-.815-2.95-2.652-3.528-4.454-.573-1.836-.761-3.821-.763-5.452 0-.177.002-.36.009-.531.152-3.394 1.41-7.15 4.083-9.042l.4-.266.479.016c1.535.057 3.639.478 5.584 1.525 1.914 1.015 3.787 2.875 3.949 5.635.045.781.104 1.688.104 2.654-.007 2.064-.246 4.466-1.704 6.516-1.465 2.066-4.129 3.417-8.022 3.502l-.308.008zm-1.285-10.341c-.005.128-.007.275-.007.436-.002 1.389.18 3.146.625 4.553.383 1.251.962 2.101 1.517 2.441 3.098-.17 4.496-1.109 5.328-2.238.87-1.188 1.149-2.942 1.142-4.765 0-.844-.053-1.686-.1-2.475-.09-1.41-.967-2.384-2.386-3.179-1.185-.655-2.682-1.021-3.745-1.129-1.205 1.1-2.362 3.985-2.374 6.356z"/><path d="m228.667 266.009c-5.085-15.682-10.512-32.773-12.878-44.755-1.722-8.724-2.451-18.419-2.451-28.548 0-17.766 2.252-36.871 5.448-54.345l2.95.538c-3.172 17.339-5.398 36.292-5.398 53.807 0 9.984.723 19.499 2.395 27.967 2.301 11.684 7.708 28.757 12.788 44.409 5.085 15.69 9.829 29.856 10.888 36.308l-2.962.479c-.941-5.884-5.697-20.218-10.78-35.86z"/><path d="m297.16 342.309c-12.254-.006-24.619-3.197-33.172-6.976-8.605-3.83-13.958-5.61-17.635-9.323-3.674-3.793-4.916-9.077-5.588-18.946-1.298-19.377-12.991-75.202-19.263-94.3-2.525-7.706-3.515-12.94-3.517-17.235.013-6.645 2.367-10.67 4.515-17.359 3.59-11.044 2.98-17.339 10.426-31.889l2.669 1.367c-7.222 14.118-6.498 19.82-10.242 31.444-2.292 7.036-4.379 10.624-4.367 16.438-.002 3.814.889 8.751 3.367 16.301 6.393 19.567 18.034 75.076 19.403 95.032.662 9.798 1.918 14.179 4.744 17.053 2.824 2.953 7.971 4.84 16.7 8.677 8.151 3.61 20.233 6.723 31.959 6.717 12.648-.007 24.69-3.574 31.532-13.529 13.721-19.831 14.777-44.147 28.544-73.454 5.292-11.227 9.747-18.597 12.812-24.585 3.07-6.007 4.726-10.502 4.732-16.367 0-3.514-.61-7.559-1.969-12.693-5.97-22.642-11.332-36.127-11.384-44.716h3.001c-.054 7.412 5.252 21.26 11.281 43.948 1.4 5.293 2.07 9.596 2.07 13.461.007 6.48-1.92 11.614-5.061 17.734-3.148 6.141-7.537 13.394-12.77 24.495-13.564 28.693-14.506 53.041-28.787 73.88-7.66 11.099-20.846 14.827-33.97 14.827-.007-.002-.019-.002-.03-.002z"/><path d="m396.761 166.962c.004-6.197-.999-16.934-.999-29.999h2.999c0 12.934.997 23.53 1.002 29.999z"/><path d="m388.063 226.394c10.833-14.387 13.784-27.566 13.792-38.039 0-5.99-.975-11.091-2.039-14.996-1.057-3.882-2.876-7.351-4.77-9.778-1.854-2.468-3.951-3.703-4.646-3.604-.241.012-.303.039-.461.177-.152.142-.387.494-.557 1.173-1.479 5.935-5.584 15.54-5.607 46.542 0 4.725.1 9.938.319 15.703v.002l-2.999.113c-.221-5.802-.319-11.053-.319-15.818-.022-31.146 4.282-41.639 5.696-47.269.262-1.042.691-1.933 1.381-2.604.684-.675 1.641-1.031 2.547-1.019 2.594.099 4.814 2.026 7.014 4.762 2.157 2.775 4.125 6.55 5.295 10.83 1.117 4.099 2.148 9.472 2.148 15.787.006 11.041-3.176 24.967-14.397 39.847z"/><path d="m369.637 259.198c4.64-7.743 16.632-17.718 22.185-36.657h.002l2.877.843c-5.779 19.728-18.456 30.419-22.482 37.342z"/><path d="m334.286 317.489c13.533-11.544 32.381-32.068 42.912-58.745l.002.002 2.789 1.101c-10.803 27.325-29.951 48.137-43.754 59.926z"/></g></svg>