<svg height="350.26" viewBox="0 0 598.189 350.26" width="598.189" xmlns="http://www.w3.org/2000/svg"><g fill="#f4f4f4" transform="translate(-.718967 -1.749496)"><path d="m457.01172 90.820312c-5.94582.000002-10.78125 4.835437-10.78125 10.781248 0 1.5244.58657 3.30438 1.63672 5.12891 2.74075 4.76183 4.01054 6.60124 4.5664 8.37109s.48995 3.71321.46875 8.81446v.002.002c0 .3793.0204.75356.0586 1.12305.56245 5.42511 5.15788 9.66015 10.72461 9.66015 3.93138 0 7.37994-2.11009 9.26172-5.26171 1.00675-1.68612 1.19192-3.57281 1.50781-5.39258 2.63992-15.20807-3.19963-25.372404-11.35352-31.345705-1.71518-1.256494-3.85552-1.882812-6.08984-1.882813zm0 1.5c1.9536 0 3.77679.548857 5.20312 1.59375 7.7827 5.701373 13.32165 15.140998 10.76368 29.876958-.32624 1.8794-.53069 3.56165-1.31836 4.88086-1.61993 2.71308-4.57936 4.53124-7.97461 4.53124-4.80759 0-8.74798-3.64178-9.23243-8.31445-.0328-.31719-.0506-.63867-.0508-.96484v-.004c.0212-5.08308.1196-7.17662-.53711-9.26758-.65693-2.09166-1.97689-3.94011-4.69921-8.66992-.95558-1.66022-1.43555-3.25939-1.43555-4.38086 0-5.135298 4.14594-9.281247 9.28125-9.281248z" opacity=".991"/><path d="m178.1875 97.5c-13.21143 0-23.9375 10.72607-23.9375 23.9375s10.72607 23.9375 23.9375 23.9375c13.1666 0 23.85138-10.65694 23.92383-23.80664a.75.75 0 0 0 .0137-.13086.75.75 0 0 0 -.0137-.14453.75.75 0 0 0 -.002-.006c-.08316-13.14034-10.76192-23.78697-23.92183-23.78697zm0 1.5c12.40077 0 22.4375 10.03673 22.4375 22.4375s-10.03673 22.4375-22.4375 22.4375-22.4375-10.03673-22.4375-22.4375 10.03673-22.4375 22.4375-22.4375z" opacity=".991"/><path d="m180.35742 87.455078c-.27224-.01738-.44249.02491-.70703.07813-.26454.05321-.58298.129832-.95898.228516-.75201.197367-1.72608.482113-2.85352.828125-2.25489.692024-5.12083 1.631307-7.97461 2.605468-2.85378.974162-5.69497 1.983247-7.90234 2.814454-1.10369.415603-2.04795.78619-2.76367 1.089843-.35787.151827-.65658.286599-.89844.40625s-.40263.188924-.60742.369141c-.2048.180217-.29393.330004-.44336.554688-.14943.224683-.31953.50419-.51563.839843-.39219.671306-.88104 1.561626-1.43359 2.603516-1.10511 2.083778-2.46583 4.773708-3.79492 7.480478-1.32909 2.70676-2.62652 5.42757-3.59961 7.57617-.48655 1.0743-.89027 2.00575-1.18164 2.72656-.14569.3604-.2632.66625-.34961.92187-.0864.25563-.1506.41721-.16797.68946-.0174.27224.0249.44249.0781.70703s.12983.58298.22852.95898c.19737.75201.48211 1.72608.82812 2.85352.69203 2.25489 1.63131 5.12082 2.60547 7.97461.97416 2.85378 1.98325 5.69497 2.81446 7.90234.4156 1.10369.78619 2.04794 1.08984 2.76367.15183.35785.2866.65657.40625.89843s.18892.40263.36914.60742c.18022.2048.33.29393.55469.44336.22468.14943.50419.31953.83984.51563.67131.39219 1.56163.88104 2.60352 1.43359 2.08378 1.10511 4.7737 2.46584 7.48047 3.79492 2.70676 1.32909 5.42757 2.62652 7.57617 3.59961 1.0743.48655 2.00575.89027 2.72656 1.18164.3604.14569.66625.2632.92187.34961.25563.0864.41721.1506.68946.16797.27224.0174.44249-.0249.70703-.0781s.58298-.12983.95898-.22852c.75201-.19737 1.72608-.48211 2.85352-.82812 2.25489-.69203 5.12083-1.63131 7.97461-2.60547s5.69497-1.98325 7.90234-2.81446c1.10369-.4156 2.04795-.78619 2.76367-1.08984.35786-.15183.65658-.2866.89844-.40625s.40263-.18892.60742-.36914c.2048-.18022.29393-.33.44336-.55469.14943-.22468.31953-.50419.51563-.83984.39219-.67131.88104-1.56163 1.43359-2.60352 1.10511-2.08378 2.46583-4.7737 3.79492-7.48047 1.32909-2.70676 2.62652-5.42757 3.59961-7.57617.48655-1.0743.89027-2.00575 1.18164-2.72656.14569-.3604.2632-.66625.34961-.92187.0864-.25563.1506-.41721.16797-.68946.0174-.27224-.0249-.44249-.0781-.70703s-.12983-.58298-.22852-.95898c-.19737-.75201-.48211-1.72608-.82812-2.85352-.69203-2.25489-1.63131-5.12083-2.60547-7.97461s-1.98325-5.69497-2.81446-7.90234c-.4156-1.10369-.78619-2.04795-1.08984-2.76367-.15183-.35786-.2866-.656578-.40625-.898437s-.18892-.402629-.36914-.607422c-.18022-.204794-.33-.293929-.55469-.443359-.22468-.149431-.50419-.319532-.83984-.515625-.67131-.392187-1.56163-.881039-2.60352-1.433594-2.08378-1.10511-4.7737-2.465833-7.48047-3.794922-2.70676-1.329089-5.42757-2.626511-7.57617-3.599609-1.0743-.486549-2.00575-.890264-2.72656-1.181641-.3604-.145688-.66625-.263195-.92187-.349609-.25563-.08641-.41722-.150591-.68946-.167969zm-.0957 1.496094c-.0815-.0052.0942.02063.30469.0918.21052.07117.49793.18131.84179.320312.68773.278004 1.60479.676688 2.66797 1.158203 2.12637.963031 4.83931 2.254393 7.53516 3.578125s5.37528 2.681715 7.4375 3.775391c1.03111.546838 1.91028 1.028157 2.55078 1.402344.32025.187093.58059.347641.76562.470703.18504.123062.3137.246834.25977.185547-.0539-.06129.0519.08012.15039.279293.0985.19918.22428.47888.36914.82031.28972.68288.65706 1.61477 1.06836 2.70703.82261 2.18454 1.82664 5.0171 2.79688 7.85938.97023 2.84227 1.90693 5.69618 2.59179 7.92773.34244 1.11578.62224 2.07744.81055 2.79493.0941.35874.16516.65714.20898.875.0438.21785.0475.39592.0527.31445.005-.0815-.0206.0942-.0918.30469-.0712.21051-.18131.49793-.32031.84179-.278.68773-.67669 1.60479-1.1582 2.66797-.96303 2.12637-2.2544 4.83931-3.57813 7.53516s-2.68171 5.37528-3.77539 7.4375c-.54684 1.03111-1.02816 1.91028-1.40234 2.55078-.1871.32025-.34764.58059-.47071.76562-.12306.18504-.24683.3137-.18554.25977.0613-.0539-.0801.0519-.2793.15039-.19918.0985-.47888.22428-.82031.36914-.68288.28972-1.61477.65706-2.70703 1.06836-2.18454.82261-5.0171 1.82664-7.85938 2.79688-2.84227.97023-5.69618 1.90693-7.92773 2.59179-1.11578.34244-2.07744.62224-2.79493.81055-.35874.0941-.65714.16516-.875.20898-.21785.0438-.39592.0475-.31445.0527.0815.005-.0942-.0206-.30469-.0918-.21051-.0712-.49793-.18131-.84179-.32031-.68773-.278-1.60479-.67669-2.66797-1.1582-2.12637-.96303-4.83931-2.2544-7.53516-3.57813s-5.37528-2.68171-7.4375-3.77539c-1.03111-.54684-1.91028-1.02816-2.55078-1.40234-.32025-.1871-.58059-.34764-.76562-.47071-.18504-.12306-.3137-.24683-.25977-.18554.0539.0613-.0519-.0801-.15039-.2793-.0985-.19918-.22428-.47888-.36914-.82031-.28972-.68288-.65706-1.61477-1.06836-2.70703-.82261-2.18454-1.82664-5.0171-2.79688-7.85938-.97023-2.84227-1.90693-5.69618-2.59179-7.92773-.34244-1.11578-.62224-2.07744-.81055-2.79493-.0941-.35874-.16516-.65714-.20898-.875-.0438-.21785-.0475-.39592-.0527-.31445-.005.0815.0206-.0942.0918-.30469.0712-.21051.18131-.49793.32031-.84179.278-.68773.67669-1.60479 1.1582-2.66797.96303-2.12637 2.2544-4.83931 3.57813-7.53516s2.68171-5.37528 3.77539-7.4375c.54684-1.031106 1.02816-1.910281 1.40234-2.550776.1871-.320248.34764-.580589.47071-.765625.12306-.185037.24683-.313698.18554-.259766-.0613.05393.0801-.05185.2793-.150391.19918-.09854.47888-.224282.82031-.36914.68288-.289717 1.61477-.657056 2.70703-1.06836 2.18454-.822607 5.0171-1.82664 7.85938-2.796875 2.84227-.970234 5.69618-1.906932 7.92773-2.591796 1.11578-.342433 2.07744-.622239 2.79493-.810547.35874-.09416.65714-.165162.875-.208985.21785-.04382.39592-.04753.31445-.05273z" opacity=".991"/><path d="m178.1875 74.548828c-25.88704-.000001-46.88867 21.001631-46.88867 46.888672 0 25.88704 21.00163 46.88867 46.88867 46.88867 25.83889 0 46.79708-20.92735 46.875-46.74805a.75.75 0 0 0 .0137-.14062.75.75 0 0 0 -.0137-.14453.75.75 0 0 0 -.002-.006c-.0833-25.815901-21.03749-46.738143-46.873-46.738142zm0 1.5c25.07638-.000001 45.38867 20.312291 45.38867 45.388672 0 25.07638-20.31229 45.38867-45.38867 45.38867s-45.38867-20.31229-45.38867-45.38867c0-25.076381 20.31229-45.388673 45.38867-45.388672z" opacity=".991"/><path d="m178.1875 52.804688c-37.8961-.000314-68.63313 30.736708-68.63281 68.632812-.00016 19.83564 8.41994 37.7145 21.8789 50.24414l.004.004c10.75416 10.97718 22.01747 14.73378 31.84375 20.39453 9.82754 5.66147 18.31314 13.14871 24.01367 31.88476l.002.006.004.008c6.47204 19.83252 25.12176 34.15849 47.10547 34.1582 27.35125-.00073 49.53943-22.18977 49.53906-49.54102-.00036-13.57903-5.4693-25.89133-14.32226-34.83984l-.0195-.0195-.0215-.0195c-4.16273-3.59987-10.03472-7.63078-14.79687-15.27149-4.76216-7.64071-8.43243-18.90445-7.96485-36.98828v-.01-.01c.00007-37.896104-30.73696-68.633126-68.63306-68.632812zm0 1.5c37.08544-.000307 67.13312 30.047376 67.13281 67.132812-.46979 18.29098 3.26333 29.89385 8.19141 37.80078 4.9192 7.8927 11.00609 12.08779 15.05664 15.58594 8.5791 8.67815 13.8766 20.60139 13.87695 33.77148.00036 26.5406-21.49847 48.04031-48.03906 48.04102-21.33215.00028-39.40515-13.89573-45.67969-33.12305-5.79017-19.01993-14.69243-26.9719-24.69531-32.73437-10.0054-5.76394-21.01702-9.41825-31.52539-20.14649l-.0117-.0117-.0137-.0137c-13.18156-12.25859-21.42593-29.74595-21.42577-49.16991-.00031-37.085436 30.04737-67.133119 67.13281-67.132812z" opacity=".991"/><path d="m235.75 174.03125c-18.61352 0-33.71875 15.10523-33.71875 33.71875s15.10523 33.71875 33.71875 33.71875c18.55868 0 33.61448-15.02062 33.70312-33.55859.00001-.00067 0-.001 0-.002a.75.75 0 0 0 .0156-.1582.75.75 0 0 0 -.0137-.14453.75.75 0 0 0 -.002-.006c-.08321-18.54236-15.14102-33.56818-33.70302-33.56818zm0 1.5c17.80286 0 32.21875 14.41589 32.21875 32.21875s-14.41589 32.21875-32.21875 32.21875-32.21875-14.41589-32.21875-32.21875 14.41589-32.21875 32.21875-32.21875z" opacity=".991"/><g stroke-width="1.5"><path d="m230.5 181.625c-1.92603 0-3.5 1.57397-3.5 3.5v12.87109c0 .70907-.10235.93314-.0801.91016.0223-.023-.19526.0937-.94922.0937h-12.84568c-1.92603 0-3.5 1.57397-3.5 3.5v10.50005c0 1.92603 1.57397 3.5 3.5 3.5h12.86133c.67417 0 .89687.11607.91211.13086.0152.0148.10156.17251.10156.73828v13.00586c0 1.92603 1.57397 3.5 3.5 3.5h10.5c1.92603 0 3.5-1.57397 3.5-3.5v-13.00586c0-.54966.0914-.72758.11133-.74805.0199-.0205.18985-.12109.77734-.12109h12.98633c1.92603 0 3.5-1.57397 3.5-3.5v-10.5c0-1.92603-1.57397-3.5-3.5-3.5h-12.95312c-.35065 0-.60356-.018-.73829-.0449-.13472-.0269-.1226-.0417-.10547-.0234.0343.0366-.0781-.20813-.0781-.94726v-12.85944c0-1.92603-1.57397-3.5-3.5-3.5zm0 1.5h10.5c1.12097 0 2 .87903 2 2v12.85938c0 .80167-.0159 1.43845.48438 1.97265.25012.2671.58703.40536.90429.46875.31726.0634.64455.0742 1.03321.0742h12.95312c1.12097 0 2 .87903 2 2v10.50002c0 1.12097-.87903 2-2 2h-12.98633c-.7354 0-1.38506.0941-1.85351.57617-.46846.48213-.53516 1.11492-.53516 1.79297v13.00586c0 1.12097-.87903 2-2 2h-10.5c-1.12097 0-2-.87903-2-2v-13.00586c0-.68149-.0589-1.33349-.55664-1.81641-.49771-.48291-1.15678-.55273-1.95703-.55273h-12.86133c-1.12097 0-2-.87903-2-2v-10.5c0-1.12097.87903-2 2-2h12.8457c.83982 0 1.51173-.0207 2.02539-.55078.51367-.53005.50391-1.18129.50391-1.95313v-12.87109c0-1.12097.87903-2 2-2z" opacity=".991"/><path d="m235.7793 201.43164c-3.48071 0-6.32032 2.83765-6.32032 6.31836s2.83961 6.31836 6.32032 6.31836c3.38039 0 6.10462-2.69253 6.26172-6.03516a.75.75 0 0 0 .0566-.2832.75.75 0 0 0 -.0566-.2832.75.75 0 0 0 -.002-.004c-.15929-3.3406-2.88084-6.03125-6.25976-6.03125zm0 1.5c2.67005 0 4.81836 2.14831 4.81836 4.81836s-2.14831 4.81836-4.81836 4.81836-4.82032-2.14831-4.82032-4.81836 2.15027-4.81836 4.82032-4.81836z" opacity=".991"/><g stroke-width="1.5"><g><path d="m248.80273 203.10352v1.1875 8.46289l9.75782-5.00196zm1.5 2.37695 4.87305 2.32031-4.87305 2.49805z"/><path d="m222.75391 203.10352-9.75782 5.00195 9.75782 4.64844v-1.1875zm-1.5 2.45507v4.81836l-4.87305-2.32031z"/></g><g transform="matrix(0 -1 1 0 27.84952 443.70724)"><path d="m248.80273 203.10352v1.1875 8.46289l9.75782-5.00196zm1.5 2.37695 4.87305 2.32031-4.87305 2.49805z"/><path d="m222.75391 203.10352-9.75782 5.00195 9.75782 4.64844v-1.1875zm-1.5 2.45507v4.81836l-4.87305-2.32031z"/></g></g></g><path d="m299.66992 25.058594c-20.30166 0-53.96353 6.024235-84.48828 13.412109-15.26237 3.693937-29.82805 7.730795-41.7168 11.533203s-21.06701 7.340863-25.71484 10.166016c-2.69274 1.636765-5.39575 3.37469-8.06445 5.361328l14.99414-8.255859 6.6289-2.296875 2.82618-.238282c3.00015-1.072464 6.25692-2.177576 9.78711-3.30664 11.84351-3.787942 26.38167-7.817417 41.61328-11.503906 30.4632-7.37298 64.13134-13.371094 84.13476-13.371094zm-161.95312 41.988281c-1.82131 1.459242-3.62063 3.064356-5.38282 4.853516zm-27.35938 53.119145c-1.97728 9.64494-3.57337 20.92923-4.68554 34.27539-5.65655 67.8785-8.880956 100.27097-2.10743 132.44531 3.55001 16.86254 8.27366 27.61705 13.55078 34.02539 5.27713 6.40834 11.19825 8.42796 16.76758 7.61914s10.73642-4.33486 14.86328-8.7207c4.12686-4.38585 7.22478-9.64273 8.59571-14.1211 1.3651-4.45933 2.76241-13.20045 4.66211-24.29492s4.28325-24.50163 7.54687-38.10742c2.93611-12.2404 6.61109-24.62062 11.25391-35.625l-1.01563-1.54297c-4.87641 11.36119-8.66532 24.17844-11.69726 36.81836-3.27711 13.66201-5.66541 27.10302-7.56641 38.20508-1.901 11.10205-3.33259 19.9047-4.61914 24.10742-1.28072 4.18369-4.28023 9.31223-8.25195 13.5332-3.97173 4.22098-8.90487 7.52568-13.98633 8.26368-5.08147.73797-10.36337-.97824-15.39453-7.0879-5.03117-6.10965-9.72113-16.65582-13.24219-33.38086-6.711878-31.88143-3.52241-64.12767 2.13477-132.01367.89476-10.73724 2.10046-20.12941 3.56445-28.39062-.14478-2.12501-.24541-3.69701-.37305-6.00781zm189.45508 28.63671c-10.77499 0-28.76779.62415-48.37305 5.0586l.6836 1.40234c19.30534-4.3263 37.03581-4.96094 47.68945-4.96094z"/><path d="m180.01172 40.203125c-5.00992-.07978-10.10275.867112-13.77149 2.21875-7.23485 2.665473-17.57544 8.393685-22.1875 19.923828l1.39454.558594c4.38794-10.969855 14.29735-16.491645 21.3125-19.076172 3.45626-1.273362 8.42593-2.201474 13.22851-2.125 4.80258.07647 9.41244 1.173689 12.25977 3.730469l1.0039-1.117188c-3.27767-2.94322-8.23031-4.033505-13.24023-4.113281z"/><path d="m-421.43945 97.5c-13.21144 0-23.9375 10.72607-23.9375 23.9375s10.72606 23.9375 23.9375 23.9375c13.1566 0 23.83335-10.64142 23.92187-23.77734.00001-.00066 0-.001 0-.002a.75.75 0 0 0 .0156-.1582.75.75 0 0 0 -.0137-.14453.75.75 0 0 0 -.002-.006c-.0831-13.1403-10.76186-23.78693-23.92177-23.78693zm0 1.5c12.40077 0 22.4375 10.03673 22.4375 22.4375s-10.03673 22.4375-22.4375 22.4375c-12.40078 0-22.4375-10.03673-22.4375-22.4375s10.03672-22.4375 22.4375-22.4375z" opacity=".991" transform="scale(-1 1)"/><path d="m427.68359 74.976562.64258 1.591797c10.93427 1.662879 20.58238 7.224638 27.48633 15.222657l1.9082-.03125c-7.35559-8.973669-17.97047-15.174915-30.03711-16.783204zm-40.58593 14.564454c-7.74005 8.335732-12.49166 19.486944-12.53125 31.746094a.75.75 0 0 0 -.002.006.75.75 0 0 0 -.0137.14453.75.75 0 0 0 .0156.1582v.002c.009 2.70803.26078 5.35767.71093 7.93945l1.50391-.0215c-.47099-2.62276-.73047-5.31933-.73047-8.07812 0-11.79332 4.49337-22.531029 11.86133-30.599609zm79.67773 43.876954-1.69141.47851c-5.4138 19.01127-22.89134 32.92969-43.64453 32.92969-13.46032 0-25.54315-5.85789-33.85351-15.1582l-.9043 1.2168c8.57687 9.48003 20.97125 15.4414 34.75781 15.4414 21.74554 0 40.03768-14.82225 45.33594-34.9082z" opacity=".991"/><path d="m421.43945 52.804688c-37.8961-.000314-68.63312 30.736708-68.63281 68.632812v.01.01c.46758 18.08383-3.20269 29.34757-7.96484 36.98828-4.76216 7.64071-10.63415 11.67162-14.79688 15.27149l-.0215.0195-.0215.0195c-8.85296 8.94851-14.31994 21.26081-14.32031 34.83984-.00036 27.35125 22.18782 49.54029 49.53906 49.54102 21.98372.00029 40.63343-14.32568 47.10547-34.1582l.002-.008.004-.006c5.70053-18.73605 14.18418-26.22329 24.01172-31.88476 9.82628-5.66075 21.09154-9.41735 31.8457-20.39453 13.46132-12.52982 21.88298-30.41042 21.88282-50.24805.00031-37.896104-30.73671-68.633126-68.63282-68.632812zm0 1.5c37.08544-.000307 67.13312 30.047376 67.13282 67.132812.00015 19.42396-8.24422 36.91132-21.42579 49.16992l-.0137.0137-.0117.0117c-10.50837 10.72824-21.51998 14.38255-31.52539 20.14649-10.00287 5.76247-18.90514 13.71444-24.69531 32.73437-6.27454 19.22732-24.34754 33.12333-45.67969 33.12305-26.54059-.00071-48.03941-21.50042-48.03906-48.04102.00036-13.17009 5.2959-25.09333 13.875-33.77148 4.05055-3.49815 10.13939-7.69324 15.05859-15.58594 4.93-7.91001 8.66467-19.51698 8.19141-37.82031.0103-37.076363 30.05396-67.113589 67.13281-67.113282z" opacity=".991"/><path d="m299.67056 25.058594v1.5c20.00342 0 53.7263 5.998073 84.26694 13.371094 15.27032 3.686509 29.84622 7.715945 41.71875 11.503906 11.87253 3.78796 20.88694 6.738148 25.25391 9.392578 1.53554.933367 3.87497 1.789268 5.39648 2.804687l.66016.361329 6.36523 4.507812 10.02344 10.621094c-6.60456-9.236274-14.08247-14.455538-21.47852-18.951172-4.64864-2.825647-13.84787-6.363627-25.76562-10.166016s-26.52127-7.839286-41.82227-11.533203c-30.602-7.387833-64.31684-13.412109-84.6185-13.412109zm189.38217 94.078126v4.51953l-.66211-.16992c1.68968 8.89969 3.07428 19.14906 4.06836 31.07812 5.65718 67.886 8.84665 100.13223 2.13477 132.01367-3.52106 16.72504-8.20907 27.27121-13.24023 33.38086-5.03117 6.10966-10.31307 7.82587-15.39454 7.0879-5.08146-.73798-10.0146-4.0427-13.98632-8.26368-3.97173-4.22097-6.97319-9.34951-8.25391-13.5332-1.28655-4.20272-2.71619-13.00537-4.61719-24.10742-1.901-11.10206-4.29125-24.54307-7.56836-38.20508-3.0462-12.69939-6.85628-25.57786-11.76562-36.97852l-1.06446 1.42969c4.69825 11.073 8.41235 23.55549 11.37305 35.89844 3.26363 13.60579 5.64718 27.01295 7.54688 38.10742s3.297 19.83559 4.66211 24.29492c1.37092 4.47837 4.46884 9.73525 8.5957 14.1211 4.12686 4.38584 9.292 7.91188 14.86133 8.7207s11.4924-1.2108 16.76953-7.61914 10.00077-17.16285 13.55078-34.02539c6.77354-32.17434 3.54913-64.56681-2.10742-132.44531-1.15222-13.82667-2.82509-25.43623-4.90235-35.30469zm-189.24023 29.66601v1.5c10.63567 0 28.32578.63096 47.59375 4.9375l.7168-1.39257c-19.5816-4.42168-37.54697-5.04493-48.31055-5.04493z"/><path d="m419.61523 40.203125c-2.55504.04069-5.09167.349247-7.40234 1.027344l3.11133.857422c1.39247-.228432 2.84056-.361296 4.31445-.384766 4.80259-.07647 9.77225.851638 13.22852 2.125 5.14028 1.89379 11.82635 5.376436 16.76367 11.412109l1.19336.666016 3.05078 3.535156 1.35938 3.039063.33789-.134766c-4.61206-11.530143-14.9507-17.258355-22.18555-19.923828-3.66873-1.351638-8.76157-2.298526-13.77149-2.21875zm-12.51757 4.917969.27929.3125c.0622-.05581.12954-.107685.19336-.16211z"/><path d="m363.87695 175.17188c-.26856 0-.42764.052-.67773.11914-.2501.0671-.54935.1602-.90234.27734-.706.23428-1.61929.56413-2.67383.96289-2.10908.79752-4.7844 1.86771-7.44727 2.9707-2.66287 1.103-5.31191 2.23861-7.36719 3.16602-1.02763.4637-1.90544.87543-2.57031 1.20898-.33243.16678-.61162.31399-.83594.44336-.22431.12938-.37259.20463-.5625.39453-.1899.18991-.26515.33819-.39453.5625-.12937.22432-.27463.50155-.4414.83399-.33355.66487-.74528 1.54463-1.20899 2.57226-.92741 2.05528-2.06302 4.70237-3.16601 7.36524-1.103 2.66286-2.17319 5.33819-2.97071 7.44726-.39876 1.05454-.72861 1.96784-.96289 2.67383-.11714.353-.21021.6542-.27734.9043-.0671.25009-.11914.40721-.11914.67578s.052.42569.11914.67578c.0671.2501.1602.5513.27734.9043.23428.70599.56413 1.61929.96289 2.67383.79752 2.10907 1.86771 4.7844 2.97071 7.44726 1.10299 2.66287 2.2386 5.30996 3.16601 7.36524.46371 1.02763.87544 1.90739 1.20899 2.57226.16677.33244.31203.60967.4414.83399.12938.22431.20463.37259.39453.5625.18991.1899.33819.26515.5625.39453.22432.12937.50351.27658.83594.44336.66487.33355 1.54268.74528 2.57031 1.20898 2.05528.92741 4.70432 2.06302 7.36719 3.16602 2.66287 1.10299 5.33819 2.17318 7.44727 2.9707 1.05454.39876 1.96783.72861 2.67383.96289.35299.11714.65224.21021.90234.27734.25009.0671.40917.11915.67773.11914.26857 0 .42569-.052.67578-.11914.2501-.0671.55131-.1602.9043-.27734.70599-.23428 1.61734-.56413 2.67188-.96289 2.10907-.79752 4.7844-1.86771 7.44726-2.9707 2.66287-1.103 5.31191-2.23861 7.36719-3.16602 1.02764-.4637 1.90544-.87543 2.57031-1.20898.33244-.16678.61163-.31399.83594-.44336.22431-.12938.37259-.20463.5625-.39453.1899-.18991.26516-.33819.39453-.5625.12937-.22432.27658-.50155.44336-.83399.33355-.66487.74528-1.54463 1.20898-2.57226.92742-2.05528 2.06107-4.70237 3.16407-7.36524 1.10299-2.66286 2.17318-5.33819 2.9707-7.44726.39876-1.05454.73056-1.96784.96484-2.67383.11714-.353.21022-.6542.27735-.9043.0671-.25009.11914-.40721.11914-.67578s-.052-.42569-.11914-.67578c-.0671-.2501-.16021-.5513-.27735-.9043-.23428-.70599-.56608-1.61929-.96484-2.67383-.79752-2.10907-1.86771-4.7844-2.9707-7.44726-1.103-2.66287-2.23665-5.30996-3.16407-7.36524-.4637-1.02763-.87543-1.90739-1.20898-2.57226-.16678-.33244-.31399-.60967-.44336-.83399-.12937-.22431-.20463-.37259-.39453-.5625-.18991-.1899-.33819-.26515-.5625-.39453-.22431-.12937-.5035-.27658-.83594-.44336-.66487-.33355-1.54267-.74528-2.57031-1.20898-2.05528-.92741-4.70432-2.06302-7.36719-3.16602-2.66286-1.10299-5.33819-2.17318-7.44726-2.9707-1.05454-.39876-1.96589-.72861-2.67188-.96289-.35299-.11714-.6542-.21021-.9043-.27734-.25009-.0671-.40721-.11915-.67578-.11914zm0 1.5c-.0859 0 .083.0136.28711.0684s.48425.14044.82032.25196c.67212.22304 1.5721.54891 2.61523.94336 2.08625.78889 4.75071 1.85478 7.40234 2.95312 2.65164 1.09835 5.29119 2.22911 7.32422 3.14649 1.01652.45868 1.88265.86409 2.51563 1.18164.31649.15877.57474.29676.75781.40234.18307.10559.31267.21697.25195.15625-.0607-.0607.0507.0669.15625.25.10559.18307.24162.44328.40039.75977.31755.63297.72491 1.49911 1.1836 2.51562.91737 2.03303 2.04814 4.67063 3.14648 7.32227 1.09835 2.65163 2.16424 5.31804 2.95313 7.40429.39444 1.04313.72031 1.94311.94336 2.61524.11152.33606.19716.6162.25195.82031.0548.20411.0684.37298.0684.28711 0-.0859-.0136.083-.0684.28711s-.14043.48425-.25195.82031c-.22305.67213-.54892 1.57211-.94336 2.61524-.78889 2.08625-1.85478 4.75266-2.95313 7.40429-1.09834 2.65164-2.22911 5.28924-3.14648 7.32227-.45869 1.01651-.86605 1.88265-1.1836 2.51562-.15877.31649-.2948.5767-.40039.75977-.10558.18307-.21697.31072-.15625.25.0607-.0607-.0689.0507-.25195.15625-.18307.10558-.44132.24357-.75781.40234-.63298.31755-1.49911.72296-2.51563 1.18164-2.03303.91738-4.67258 2.04814-7.32422 3.14649-2.65163 1.09834-5.31609 2.16423-7.40234 2.95312-1.04313.39445-1.94311.72032-2.61523.94336-.33607.11152-.61621.19717-.82032.25196-.2041.0548-.37297.0684-.28711.0684.0859 0-.085-.0136-.28906-.0684-.20411-.0548-.48425-.14044-.82031-.25196-.67213-.22304-1.57016-.54891-2.61328-.94336-2.08626-.78889-4.75266-1.85478-7.4043-2.95312-2.65164-1.09835-5.29119-2.22911-7.32422-3.14649-1.01652-.45868-1.88265-.86409-2.51562-1.18164-.31649-.15877-.57475-.29676-.75782-.40234-.18306-.10559-.31267-.21697-.25195-.15625.0607.0607-.0487-.0669-.1543-.25-.10558-.18307-.24356-.44328-.40234-.75977-.31755-.63297-.72295-1.49911-1.18164-2.51562-.91737-2.03303-2.04814-4.67063-3.14649-7.32227-1.09834-2.65163-2.16423-5.31804-2.95312-7.40429-.39444-1.04313-.72032-1.94311-.94336-2.61524-.11152-.33606-.19716-.6162-.25195-.82031-.0548-.20411-.0684-.37298-.0684-.28711 0 .0859.0136-.083.0684-.28711s.14043-.48425.25195-.82031c.22304-.67213.54892-1.57211.94336-2.61524.78889-2.08625 1.85478-4.75266 2.95312-7.40429 1.09835-2.65164 2.22912-5.28924 3.14649-7.32227.45869-1.01651.86409-1.88265 1.18164-2.51562.15878-.31649.29676-.5767.40234-.75977.10559-.18307.21502-.31072.1543-.25-.0607.0607.0689-.0507.25195-.15625.18307-.10558.44133-.24357.75782-.40234.63297-.31755 1.4991-.72296 2.51562-1.18164 2.03303-.91738 4.67258-2.04814 7.32422-3.14649 2.65164-1.09834 5.31804-2.16423 7.4043-2.95312 1.04312-.39445 1.94115-.72032 2.61328-.94336.33606-.11152.6162-.19717.82031-.25196.20411-.0548.37493-.0684.28906-.0684z" opacity=".991"/><path d="m363.87695 189.625c-10.00127 0-18.125 8.12372-18.125 18.125s8.12373 18.125 18.125 18.125c9.95579 0 18.03789-8.05353 18.11133-17.99219a.75.75 0 0 0 .0137-.13281.75.75 0 0 0 -.0137-.14453.75.75 0 0 0 -.002-.006c-.0831-9.93035-8.15962-17.97461-18.10938-17.97461zm0 1.5c9.19062 0 16.625 7.43438 16.625 16.625s-7.43438 16.625-16.625 16.625c-9.19061 0-16.625-7.43438-16.625-16.625s7.43439-16.625 16.625-16.625z" opacity=".991"/><path d="m374.67773 128.47461c-8.65515 0-15.6875 7.03234-15.6875 15.6875 0 8.65515 7.03235 15.6875 15.6875 15.6875 8.60164 0 15.58565-6.94977 15.67188-15.53125a.75.75 0 0 0 .0156-.15625.75.75 0 0 0 -.0137-.14453.75.75 0 0 0 -.002-.006c-.083-8.58427-7.06822-15.53711-15.67188-15.53711zm0 1.5c7.8445 0 14.1875 6.343 14.1875 14.1875 0 7.84449-6.343 14.1875-14.1875 14.1875-7.84449 0-14.1875-6.34301-14.1875-14.1875 0-7.8445 6.34301-14.1875 14.1875-14.1875z" opacity=".991"/><path d="m413.05664 67.216797c-12.21993-.41693-20.60093 5.030169-25.75586 12.216797-1.23776 1.725567-1.84112 3.870301-1.82031 6.101562.00002.0027-.002.0051-.002.0078.0596 5.945514 4.94315 10.731407 10.88867 10.671875 1.52431-.01527 3.29935-.619139 5.11328-1.6875 4.73415-2.788295 6.56002-4.076839 8.32422-4.650391 1.76419-.573552 3.70738-.526758 8.80859-.556641h.002.002c.37938-.0038.754-.02642 1.12304-.06836 5.41922-.616746 9.60652-5.255815 9.55079-10.822265-.0394-3.931181-2.18322-7.358863-5.35352-9.208985-1.69612-.989818-3.58536-1.155477-5.4082-1.453125-1.90422-.31094-3.72695-.49122-5.47266-.550781zm-.0547 1.492187c1.68025.06136 3.44006.237775 5.28516.539063 1.88258.307402 3.56751.493156 4.89453 1.267578 2.72916 1.592682 4.57731 4.534596 4.61133 7.929687.0481 4.80735-3.55507 8.785201-8.22266 9.316407-.31815.03616-.64135.05535-.96875.05859-5.08304.02972-7.17744-.04675-9.26172.63086-2.08498.677843-3.91877 2.015609-8.62109 4.785156-1.65057.972149-3.24578 1.467284-4.36719 1.478516-5.13504.05142-9.3216-4.05245-9.37304-9.1875-.0196-1.953504.51044-3.782026 1.54101-5.21875 4.92026-6.859462 12.72068-12.029146 24.48242-11.59961z" opacity=".991"/><path d="m298.75195 115.21484c-5.87266.00001-10.64843 4.77773-10.64843 10.65039-.00001 5.87267 4.77576 10.64844 10.64843 10.64844 5.76805 0 10.42381-4.62497 10.58985-10.35351a.75.75 0 0 0 .002-.006.75.75 0 0 0 .0586-.28907.75.75 0 0 0 -.0566-.28515.75.75 0 0 0 -.002-.004c-.16267-5.73154-4.82158-10.36133-10.5918-10.36133zm0 1.5c5.06201 0 9.15039 4.08838 9.15039 9.15039.00001 5.06202-4.08837 9.14844-9.15039 9.14844-5.06201 0-9.14844-4.08643-9.14843-9.14844 0-5.062 4.08643-9.15038 9.14843-9.15039z" opacity=".991"/><path d="m401.94922 38.517578c-3.94618-.249471-6.80591.362297-8.54102 2.148438l1.07618 1.044922c1.27009-1.307452 3.62553-1.931978 7.36914-1.695313 3.7436.236665 8.79126 1.326297 15.21679 3.21875 6.41236 1.888571 13.48778 4.55433 19.32617 6.966797s10.49765 4.607072 11.88282 5.421875c2.95701 1.739418 5.1515 3.417581 7.39453 8.076172l1.35156-.650391c-2.35317-4.887351-4.93292-6.920681-7.98633-8.716797-1.62003-.952964-6.19725-3.090783-12.07031-5.517578s-12.98227-5.107403-19.47461-7.019531c-6.47916-1.908247-11.59874-3.027873-15.54492-3.277344z"/></g></svg>