<svg height="350.71094mm" viewBox="0 0 400.91992 350.71094" width="400.91992mm" xmlns="http://www.w3.org/2000/svg"><g transform="translate(-112.15039 88.007824)"><path d="m230.96359-45.659014c-4.80736 0-8.70455 3.980015-8.70455 8.88953v248.232544c0 4.90951 3.89719 8.89126 8.70455 8.89126h163.29352c4.80736 0 8.70455-3.98175 8.70455-8.89126v-248.232544c0-4.909515-3.89719-8.88953-8.70455-8.88953zm0 1.775132h163.29352c3.87447 0 6.96636 3.157602 6.96636 7.114398v248.232544c0 3.9568-3.09189 7.11612-6.96636 7.11612h-163.29352c-3.87446 0-6.96636-3.15932-6.96636-7.11612v-248.232544c0-3.956796 3.0919-7.114398 6.96636-7.114398z" fill="#f4f4f4"/><path d="m291.51862-20.895568v.887566 45.066527h-46.78018v163.159655c0 4.06836 3.2339 7.37269 7.21758 7.37269h120.86562c3.98371 0 7.21929-3.30426 7.21929-7.37269v-201.742788c0-4.068415-3.23551-7.37096-7.21929-7.37096zm1.7382 1.775133h79.56482c3.05077 0 5.48109 2.480248 5.48109 5.595827v201.742788c0 3.1156-2.43025 5.59756-5.48109 5.59756h-120.86562c-3.05082 0-5.47939-2.48189-5.47939-5.59756v-161.384522h46.78019z" fill="#f4f4f4"/><path d="m262.51679 36.44416c-2.00828 0-3.64946 1.740418-3.64946 3.868146v94.070594c0 2.12773 1.64118 3.86651 3.64946 3.86651h100.18712c2.00829 0 3.64946-1.73878 3.64946-3.86651v-94.070594c0-2.127728-1.64117-3.868146-3.64946-3.868146zm0 1.668485h100.18712c1.16307 0 2.07464.967414 2.07464 2.199661v94.070594c0 1.23224-.91157 2.19803-2.07464 2.19803h-100.18712c-1.16307 0-2.07464-.96579-2.07464-2.19803v-94.070594c0-1.232247.91157-2.199661 2.07464-2.199661z" fill="#f4f4f4"/><path d="m252.31589-22.40027c-4.83118 0-8.59083 4.653942-8.59083 10.234748v34.070759h44.77888v-44.305507zm0 1.775132h34.44986v40.755243h-41.30249v-32.295627c0-4.777043 3.12722-8.459616 6.85263-8.459616z" fill="#f4f4f4"/><g stroke="#f4f4f4"><path d="m299.54988 15.992868h71.97807" fill="#f00" stroke-width="1.756566"/><path d="m253.25086 158.38541h118.27709" fill="none" stroke-width="1.756566"/><path d="m343.37047 119.43498c-2.64921 2.53958-14.92834-1.56708-18.34775-.23461-3.4194 1.33246-9.68241 12.66456-13.35144 12.58705-3.66903-.0775-9.44784-11.66403-12.80792-13.13972-3.36007-1.47569-15.80169 2.1087-18.34128-.5405-2.53958-2.64921 1.56708-14.92834.23462-18.347751-1.33247-3.419405-12.66457-9.68241-12.58705-13.35144.0775-3.669031 11.66402-9.447841 13.13971-12.807919 1.47569-3.360079-2.1087-15.801698.5405-18.341283 2.64921-2.539585 14.92835 1.567077 18.34775.234614 3.41941-1.332463 9.68241-12.664565 13.35144-12.58705 3.66903.07751 9.44784 11.664022 12.80792 13.139713 3.36008 1.475692 15.8017-2.108702 18.34128.540506 2.53959 2.649208-1.56707 14.928341-.23461 18.347747s12.66457 9.68241 12.58705 13.351441c-.0775 3.66903-11.66402 9.44784-13.13971 12.807922-1.47569 3.36008 2.1087 15.80169-.54051 18.34128z" fill="none" stroke-width="2" transform="matrix(.86909722 0 0 .88756632 40.921564 9.820817)"/><path d="m253.25086 176.16722h118.27709" fill="none" stroke-width="1.756566"/><path d="m299.54988-2.1129242h71.97807" fill="#f4f4f4" stroke-width="1.756566"/><ellipse cx="313.44745" cy="88.639732" fill="none" rx="17.270844" ry="17.637865" stroke-width="1.317425"/><ellipse cx="313.44745" cy="88.639732" fill="none" rx="13.919478" ry="14.21528" stroke-width="1.756566"/></g></g></svg>