<svg height="66" width="66" xmlns="http://www.w3.org/2000/svg"><g fill="#f4f4f4" fill-rule="evenodd"><path d="m29.75 17.75v6.5h6.5v-.25-6.25zm.5.5h5.5v5.5h-5.5z"/><path d="m23.75 23.75v6.5h6.5v-.25-6.25zm.5.5h5.5v5.5h-5.5z"/><path d="m35.75 23.75v6.5h6.5v-.25-6.25zm.5.5h5.5v5.5h-5.5z"/><path d="m17.75 29.75v6.5h6.5v-.25-6.25zm.5.5h5.5v5.5h-5.5z"/><path d="m41.75 29.75v6.5h6.5v-.25-6.25zm.5.5h5.5v5.5h-5.5z"/><path d="m23.75 35.75v6.5h6.5v-.25-6.25zm.5.5h5.5v5.5h-5.5z"/><path d="m35.75 35.75v6.5h6.5v-.25-6.25zm.5.5h5.5v5.5h-5.5z"/><path d="m29.75 41.75v6.5h6.5v-.25-6.25zm.5.5h5.5v5.5h-5.5z"/></g></svg>