<svg height="223.68108" viewBox="0 0 430.04346 223.68108" width="430.04346" xmlns="http://www.w3.org/2000/svg"><g fill="#f4f4f4"><path d="m212.78541.01361123c-11.53-.04749998-25.97933-.11630178-39.34765 2.56054697-13.36833 2.6768486-25.73919 8.1294438-32.83203 19.2343748-1.91629 2.999533-3.18385 6.050988-5.46094 15.298828-6.53622 26.537259-7.73142 48.048405-8.76563 68.855469-1.29875 26.14116-1.97174 43.59875-.69726 56.45899 1.27447 12.86023 4.56322 21.18373 11.09766 28.66601h-.002c.48146.5523.9375 1.04297.9375 1.04297l.004.004.002.002c8.12698 8.61796 19.50028 10.11341 26.4414 10.95312 19.29132 2.3337 30.30859 3.00586 30.30859 3.00586 25.03169 1.52576 37.33558 3.04466 44.87305 4.48438 16.2734 3.10758 18.01632 4.2548 24.76758 7.9414.25481.13923.82458.41314 1.73242.84375.90783.43062 2.08605.97826 3.32226 1.53321 2.47243 1.1099 5.04892 2.23309 6.53125 2.55078 0 0 8.15767 1.7048 17.36914-4.13281 4.56977-2.89592 7.37335-9.27334 9.19532-18.05664 1.82196-8.78331 2.61561-20.06247 2.75781-32.96485.28439-25.80475-2.05637-58.09406-4.24024-89.517577-.0821-1.186799-.21308-3.075827-.4707-5.597656-1.03208-10.09209-4.00842-40.550272-17.254-56.716937-6.66952-8.1403414-15.74068-12.2374413-27.33203-14.2832031-11.59134-2.0457619-25.755-2.0950157-42.9375-2.16601567zm-.008 2.00000007c17.18251.071 31.277.1367774 42.59766 2.1347656 11.32065 1.9979882 19.81533 5.8713721 26.13281 13.5820311 12.54643 15.313335 15.77854 45.560293 16.81055 55.652343.25438 2.490171.38485 4.348003.46679 5.533204 2.18414 31.427485 4.51723 63.692175 4.23438 89.357425-.14143 12.83262-.94073 24.01801-2.7168 32.58008s-4.57691 14.40985-8.30664 16.77343c-8.62253 5.46439-15.87891 3.86719-15.87891 3.86719-.90666-.19431-3.69223-1.32432-6.13281-2.41992-1.22029-.5478-2.38679-1.09043-3.2832-1.51563-.89642-.42519-1.58917-.77019-1.63086-.79297h-.002c-6.73075-3.67539-9.00902-5.02997-25.34961-8.15039-7.67654-1.46628-20.05268-2.98738-45.125-4.51562h-.002s-10.94278-.66779-30.18945-2.99609c-6.9111-.83608-17.656-2.31543-25.22071-10.33204l-.002-.002c-.001-.001-.003-.003-.004-.004-.005-.006-.4369-.47171-.89062-.99218v-.002c-6.27424-7.18453-9.36293-14.93317-10.61296-27.54669-1.25002-12.61352-.59512-30.03126.70313-56.16211 1.0338-20.798937 2.22311-42.127823 8.71289-68.476563 2.26091-9.182161 3.39741-11.874706 5.20312-14.701172 6.68416-10.46507 18.45014-15.728708 31.53907-18.3496094 13.08892-2.6209014 27.41726-2.5689844 38.94726-2.5214843z"/><path d="m247.59205 156.31244c-6.70175 0-12.15625 5.45449-12.15625 12.15625s5.4545 12.15625 12.15625 12.15625c6.70176 0 12.15625-5.45449 12.15625-12.15625s-5.45449-12.15625-12.15625-12.15625zm0 2c5.62083 0 10.15625 4.53543 10.15625 10.15625s-4.53542 10.15625-10.15625 10.15625c-5.62082 0-10.15625-4.53543-10.15625-10.15625s4.53543-10.15625 10.15625-10.15625z"/><path d="m278.88698 132.00775c-6.70173 0-12.15625 5.45452-12.15625 12.15625 0 6.70174 5.45452 12.15625 12.15625 12.15625 6.70172 0 12.15625-5.45451 12.15625-12.15625 0-6.70173-5.45453-12.15625-12.15625-12.15625zm0 2c5.62085 0 10.15625 4.5354 10.15625 10.15625 0 5.62086-4.5354 10.15625-10.15625 10.15625s-10.15625-4.53539-10.15625-10.15625c0-5.62085 4.5354-10.15625 10.15625-10.15625z"/><path d="m215.02174 24.597595c-18.8161 0-35.86829 5.705194-48.26172 14.990235-12.39342 9.28504-20.14453 22.203884-20.14453 36.509765 0 14.305882 7.75111 27.222775 20.14453 36.507815 12.39343 9.28504 29.44562 14.99219 48.26172 14.99219s35.87025-5.70715 48.26367-14.99219c12.39343-9.28504 20.14258-22.201933 20.14258-36.507815 0-14.305881-7.74915-27.224725-20.14258-36.509765-12.39342-9.285041-29.44757-14.990235-48.26367-14.990235zm0 2c18.41121 0 35.06171 5.597495 47.06445 14.589844 12.00275 8.992349 19.3418 21.325639 19.3418 34.910156 0 13.584518-7.33905 25.915855-19.3418 34.908205-12.00274 8.99235-28.65324 14.5918-47.06445 14.5918-18.4112 0-35.05975-5.59945-47.0625-14.5918s-19.34375-21.323687-19.34375-34.908205c0-13.584517 7.341-25.917807 19.34375-34.910156s28.6513-14.589844 47.0625-14.589844z"/><path d="m215.02369 43.347595c-20.08177 0-28.53204.173032-35.54882.5-4.03247.188035-6.41147.358001-7.93555.675782-.76204.15889-1.33453.344478-1.81445.716796-.47993.372319-.75311 1.002784-.78321 1.50586-.3777 6.253834-.31602 12.405104-.54492 28.710937v.01563.01367c.22892 16.305942.16713 22.457631.54492 28.71289.0305.50301.30328 1.1337.78321 1.50586.47993.37215 1.05242.55595 1.81445.71484 1.52405.31778 3.90358.48775 7.93555.67578 7.01579.32697 15.46705.50196 35.54882.50196 20.08178 0 28.5301-.17499 35.54688-.50196 4.03247-.18803 6.41342-.358 7.9375-.67578.76204-.15889 1.33453-.34252 1.81445-.71484.47993-.37232.75311-1.00279.78321-1.50586.37779-6.254272.31405-12.405948.54296-28.71289v-.01367-.01563c-.22891-16.305941-.16517-22.457631-.54296-28.71289-.0305-.50301-.30328-1.131753-.78321-1.503907-.47993-.372153-1.05438-.557909-1.8164-.716796-1.52406-.317776-3.90358-.487747-7.93555-.675782-7.01579-.326969-15.4651-.5-35.54688-.5zm0 2c20.07023 0 28.47892.173016 35.45313.498047 4.00903.186965 6.38265.378494 7.62109.636719.61923.129112.93054.285544.99805.33789.0675.05235.007-.07057.0137.04492.37203 6.159798.31037 12.306869.53906 28.607422-.22864 16.299051-.16706 22.447105-.53906 28.605467v.002c-.007.11542.0536-.009-.0137.043-.0673.0522-.37688.21073-.99609.33984-1.23843.25822-3.61352.4478-7.62305.63477-6.97522.32503-15.3829.5-35.45313.5-20.07022 0-28.48087-.17497-35.45507-.5-4.00903-.18697-6.38265-.37654-7.6211-.63477-.61922-.12911-.93054-.2875-.99804-.33984-.0675-.0524-.005.0706-.0117-.0449-.37183-6.156531-.31276-12.311329-.54102-28.591893v-.01367c-.00012-.0089.00013-.0067 0-.01563.22826-16.28156.16919-22.436375.54102-28.591797.007-.115424-.0555.0073.0117-.04492.0673-.05218.37883-.20878.99804-.33789 1.23843-.25822 3.61157-.449754 7.6211-.636719 6.97522-.325032 15.38485-.498047 35.45508-.498047z"/><path d="m170.6526 131.91596c-15.5427 0-28.16406 12.62135-28.16406 28.16406s12.62136 28.16406 28.16406 28.16406 28.16406-12.62135 28.16406-28.16406-12.62136-28.16406-28.16406-28.16406zm0 2c14.46182 0 26.16406 11.70222 26.16406 26.16406 0 14.46183-11.70224 26.16406-26.16406 26.16406s-26.16406-11.70223-26.16406-26.16406c0-14.46184 11.70224-26.16406 26.16406-26.16406z"/><path d="m166.99245 134.664c-2.5898.008-4.70722 2.127-4.71485 4.7168v12.11133c-.00087.12937-.085.21278-.21484.21289h-12.10938-.002c-2.58979.008-4.70917 2.127-4.71679 4.7168v.002 7.31445.002c.008 2.5898 2.127 4.70722 4.71679 4.71485h.002 12.10938c.13051 0 .21289.0851.21289.21484v12.11133c.008 2.58979 2.127 4.70917 4.7168 4.7168h.002 7.31445.002c2.58979-.008 4.70721-2.12701 4.71484-4.7168v-12.11133c0-.13051.0851-.21484.21484-.21484h12.11133.002c2.5898-.008 4.70722-2.12505 4.71485-4.71485v-.002-7.31445-.002c-.008-2.5898-2.12505-4.70918-4.71485-4.7168h-.002-12.11133c-.13051 0-.21289-.0832-.21289-.21289v-12.11133c-.008-2.5898-2.127-4.70917-4.71679-4.7168h-.002-7.31445zm.004 2h7.30859c1.51308.004 2.7182 1.20957 2.72265 2.72266v12.10547c0 1.2103 1.00141 2.21289 2.21289 2.21289h12.10938c1.51151.005 2.71326 1.2092 2.71875 2.7207v7.3086c-.005 1.51308-1.20762 2.71624-2.7207 2.7207h-12.10742c-1.2103 0-2.21484 1.00336-2.21484 2.21484v12.10547c-.004 1.51243-1.20659 2.71716-2.71875 2.72266h-7.30859c-1.51309-.004-2.71821-1.20958-2.72266-2.72266v-12.10547c0-1.2103-1.0014-2.21484-2.21289-2.21484h-12.10547c-1.51243-.004-2.71716-1.20659-2.72266-2.71875v-.002-7.30665-.002c.005-1.51216 1.21023-2.71625 2.72266-2.7207h12.10547.002c1.2101-.001 2.21189-1.00279 2.21289-2.21289v-12.10547c.005-1.51243 1.20659-2.71716 2.71875-2.72266z"/><path d="m170.6526 138.9765c-.64079 0-1.28171.30299-1.63281.91016v.002l-3.3418 5.78711c-.70174 1.21546.22933 2.82765 1.63282 2.82813h6.68164.002c1.40348-.00048 2.33455-1.61267 1.63281-2.82813l-3.3418-5.78711v-.002c-.3511-.60717-.99202-.91016-1.63281-.91016zm0 2.08399 3.14258 5.44336h-6.28516z"/><path d="m157.20143 154.86713c-.32216-.0105-.65121.0628-.95508.23828l-5.78711 3.3418c-1.21434.70219-1.21434 2.56343 0 3.26562l5.78711 3.3418c1.21546.70174 2.82961-.22933 2.83008-1.63281v-6.6836c-.00035-1.05261-.90853-1.83952-1.875-1.87109zm-.125 2.06836v6.28906l-5.44531-3.14453z"/><path d="m184.10182 154.86713c-.96647.0316-1.87465.81848-1.875 1.87109v6.6836c.00047 1.40348 1.61462 2.33455 2.83008 1.63281l5.78711-3.3418c1.21434-.70219 1.21434-2.56343 0-3.26562l-5.78711-3.3418c-.30387-.17544-.63292-.24881-.95508-.23828zm.125 2.06836 5.44531 3.14453-5.44531 3.14453z"/><path d="m170.6526 154.20502c-1.44097 0-2.89538.47493-4.01562 1.4707-1.12025.99577-1.85938 2.5293-1.85938 4.4043 0 3.23283 2.64217 5.875 5.875 5.875s5.875-2.64217 5.875-5.875c0-1.875-.73913-3.40853-1.85937-4.4043-1.12025-.99577-2.57466-1.4707-4.01563-1.4707zm0 2c.99653 0 1.97962.33757 2.6875.9668.70788.62922 1.1875 1.5332 1.1875 2.9082 0 2.15195-1.72305 3.875-3.875 3.875s-3.875-1.72305-3.875-3.875c0-1.375.47962-2.27898 1.1875-2.9082.70788-.62923 1.69097-.9668 2.6875-.9668z"/><path d="m280.32057 11.01947c-1.73768-.01744-2.13498.09948-3.01758.164063l-2.5.18164 1.9375 1.587891c1.74371 1.428692 3.34173 3.027402 4.76758 4.773437v.002c10.38281 12.673994 14.42652 35.601724 16.05469 48.822265l1.99218-.113281c.12866-16.661297-1.9017-29.157729-3.49609-35.582031-1.16445-4.689408-5.94286-12.89639-9.16797-16.785157h-.002c-.88175-1.062771-2.03571-2.375115-3.97852-2.851562v-.002c-.31086-.07594-.90222-.17992-2.58984-.197266zm-.0195 2c1.62038.01666 1.92162.08856 2.13476.140625 1.3112.321553 2.06181 1.158318 2.91407 2.185547 2.93688 3.541234 7.79797 12.079595 8.76953 15.992188 1.00567 4.052556 2.15922 10.935329 2.84375 19.648437-2.4315-11.958088-6.46287-25.43624-13.90625-34.523437l-.002-.002c-1.01722-1.245451-2.22672-2.309552-3.40039-3.40625.25115-.0066.27262-.03891.64649-.03516z"/><path d="m170.65088 181.1834c-.64079 0-1.28171-.30299-1.63281-.91016v-.002l-3.3418-5.78711c-.70174-1.21546.22933-2.82765 1.63282-2.82813h6.68164.002c1.40348.00048 2.33455 1.61267 1.63281 2.82813l-3.3418 5.78711v.002c-.3511.60717-.99202.91016-1.63281.91016zm0-2.08399 3.14258-5.44336h-6.28516z"/></g></svg>