<svg height="350.26" viewBox="0 0 598.189 350.26" width="598.189" xmlns="http://www.w3.org/2000/svg"><g fill="#f4f4f4"><g stroke="none" stroke-width="1.5" transform="translate(-5.947482 -8.72316)"><g><path d="m172.77344 108.22656c-1.78828 0-2.95196.86701-3.48242 1.8711-.53047 1.00409-.54297 2.06509-.54297 2.63867v8.67187c0 2.93174.22333 4.45629 2.11523 6.72657.90004 1.08004 2.32648 2.86365 3.92188 4.39648 1.59539 1.53283 3.33296 2.9082 5.20507 2.9082 1.51795 0 2.51342-.19652 3.31836-.60351.80495-.407 1.34183-.95737 2.07618-1.57422 1.57929-1.32662 4.20507-3.95492 4.98046-4.79492.62589-.67804 2.26172-1.99261 2.26172-4.69336v-9.94532c0-1.17491-.18095-2.52613-.9707-3.64648s-2.21424-1.89453-4.26758-1.89453c-3.49595 0-9.30201-.0495-10.16601-.0566v-.004h-.74414-.006zm0 1.5h3.69336.006c.008.00007 7.15006.0605 10.91601.0605 1.70657 0 2.52693.53048 3.04102 1.25977.51408.72928.69726 1.77299.69726 2.78124v9.94532c0 2.15075-1.0337 2.77707-1.86328 3.67578-.68005.73671-3.39087 3.44364-4.84375 4.66406-.78175.65667-1.24468 1.10952-1.78906 1.38477-.54438.27524-1.24768.4414-2.64063.4414-1.03877 0-2.66663-1.05152-4.16406-2.49023s-2.89127-3.17226-3.81055-4.27539c-1.74672-2.09606-1.76757-2.87556-1.76757-5.76563v-8.67187c0-.51802.0506-1.33649.36914-1.93945.31855-.60297.79105-1.07032 2.15625-1.07032z"/><path d="m181.38477 150.13086c-1.51795 0-2.51147.19652-3.31641.60352-.80494.40699-1.34378.95736-2.07813 1.57421-1.57929 1.32662-4.20507 3.95492-4.98046 4.79493-.62589.67803-2.26172 1.99261-2.26172 4.69336v9.94531c0 1.17492.1829 2.52614.97265 3.64648.78975 1.12035 2.21229 1.89453 4.26563 1.89453 3.49595 0 9.30201.0495 10.16601.0566v.004h.74414.006 3.69922c1.78828 0 2.95196-.86505 3.48242-1.86914.53047-1.00409.54297-2.06705.54297-2.64063v-8.67187c0-2.93173-.22333-4.45629-2.11523-6.72656-.90004-1.08004-2.32648-2.86366-3.92188-4.39649-1.59539-1.53282-3.33296-2.9082-5.20507-2.9082zm0 1.5c1.03877 0 2.66858 1.05152 4.16601 2.49023s2.88932 3.17226 3.8086 4.27539c1.74672 2.09607 1.76757 2.87556 1.76757 5.76563v8.67187c0 .51802-.0506 1.33649-.36914 1.93946-.31855.60296-.79105 1.07031-2.15625 1.07031h-3.69336-.006c-.008-.00006-7.15006-.0606-10.91601-.0606-1.70657 0-2.52693-.52852-3.04102-1.25781-.51408-.72929-.69726-1.77495-.69726-2.7832v-9.94531c0-2.15076 1.0337-2.77708 1.86328-3.67579.68005-.73671 3.39087-3.44363 4.84375-4.66406.78175-.65667 1.24468-1.10756 1.78906-1.38281s1.24768-.44336 2.64063-.44336z"/></g><g transform="matrix(0 -1 1 0 37.90228 323.47326)"><path d="m172.77344 108.22656c-1.78828 0-2.95196.86701-3.48242 1.8711-.53047 1.00409-.54297 2.06509-.54297 2.63867v8.67187c0 2.93174.22333 4.45629 2.11523 6.72657.90004 1.08004 2.32648 2.86365 3.92188 4.39648 1.59539 1.53283 3.33296 2.9082 5.20507 2.9082 1.51795 0 2.51342-.19652 3.31836-.60351.80495-.407 1.34183-.95737 2.07618-1.57422 1.57929-1.32662 4.20507-3.95492 4.98046-4.79492.62589-.67804 2.26172-1.99261 2.26172-4.69336v-9.94532c0-1.17491-.18095-2.52613-.9707-3.64648s-2.21424-1.89453-4.26758-1.89453c-3.49595 0-9.30201-.0495-10.16601-.0566v-.004h-.74414-.006zm0 1.5h3.69336.006c.008.00007 7.15006.0605 10.91601.0605 1.70657 0 2.52693.53048 3.04102 1.25977.51408.72928.69726 1.77299.69726 2.78124v9.94532c0 2.15075-1.0337 2.77707-1.86328 3.67578-.68005.73671-3.39087 3.44364-4.84375 4.66406-.78175.65667-1.24468 1.10952-1.78906 1.38477-.54438.27524-1.24768.4414-2.64063.4414-1.03877 0-2.66663-1.05152-4.16406-2.49023s-2.89127-3.17226-3.81055-4.27539c-1.74672-2.09606-1.76757-2.87556-1.76757-5.76563v-8.67187c0-.51802.0506-1.33649.36914-1.93945.31855-.60297.79105-1.07032 2.15625-1.07032z"/><path d="m181.38477 150.13086c-1.51795 0-2.51147.19652-3.31641.60352-.80494.40699-1.34378.95736-2.07813 1.57421-1.57929 1.32662-4.20507 3.95492-4.98046 4.79493-.62589.67803-2.26172 1.99261-2.26172 4.69336v9.94531c0 1.17492.1829 2.52614.97265 3.64648.78975 1.12035 2.21229 1.89453 4.26563 1.89453 3.49595 0 9.30201.0495 10.16601.0566v.004h.74414.006 3.69922c1.78828 0 2.95196-.86505 3.48242-1.86914.53047-1.00409.54297-2.06705.54297-2.64063v-8.67187c0-2.93173-.22333-4.45629-2.11523-6.72656-.90004-1.08004-2.32648-2.86366-3.92188-4.39649-1.59539-1.53282-3.33296-2.9082-5.20507-2.9082zm0 1.5c1.03877 0 2.66858 1.05152 4.16601 2.49023s2.88932 3.17226 3.8086 4.27539c1.74672 2.09607 1.76757 2.87556 1.76757 5.76563v8.67187c0 .51802-.0506 1.33649-.36914 1.93946-.31855.60296-.79105 1.07031-2.15625 1.07031h-3.69336-.006c-.008-.00006-7.15006-.0606-10.91601-.0606-1.70657 0-2.52693-.52852-3.04102-1.25781-.51408-.72929-.69726-1.77495-.69726-2.7832v-9.94531c0-2.15076 1.0337-2.77708 1.86328-3.67579.68005-.73671 3.39087-3.44363 4.84375-4.66406.78175-.65667 1.24468-1.10756 1.78906-1.38281s1.24768-.44336 2.64063-.44336z"/></g></g><path d="m238.30643 153.14598c-23.702 0-42.9336 19.2316-42.9336 42.93359 0 23.702 19.2316 42.93165 42.9336 42.93165 23.70199 0 42.93164-19.22965 42.93164-42.93165 0-23.70199-19.22965-42.93359-42.93164-42.93359zm0 1.5c22.89133 0 41.43164 18.54226 41.43164 41.43359 0 22.89134-18.54031 41.43165-41.43164 41.43165-22.89134 0-41.4336-18.54031-41.4336-41.43165 0-22.89133 18.54226-41.43359 41.4336-41.43359z" opacity=".991"/><path d="m238.30643 164.41356c-17.47954 0-31.66602 14.18648-31.66602 31.66601 0 17.47954 14.18648 31.66602 31.66602 31.66602 17.42602 0 31.56194-14.10395 31.64843-31.50977a.75.75 0 0 0 .0156-.15625.75.75 0 0 0 -.0137-.14453.75.75 0 0 0 -.002-.006c-.0833-17.40855-14.22042-31.51562-31.64843-31.51562zm0 1.5c16.66887 0 30.16406 13.49714 30.16406 30.16601 0 16.66888-13.49519 30.16602-30.16406 30.16602-16.66888 0-30.16602-13.49714-30.16602-30.16602 0-16.66887 13.49714-30.16601 30.16602-30.16601z" opacity=".991"/><path d="m173.29666 70.796371c-35.93227 0-65.07617 29.143909-65.07617 65.076169 0 35.93227 29.1439 65.07813 65.07617 65.07813 7.95017 0 15.56582-1.43157 22.60938-4.04297a41.413021 42.04895 0 0 1 -.0156-1.13086 41.413021 42.04895 0 0 1 .002-.46094c-7.02107 2.66928-14.6364 4.13477-22.5957 4.13477-35.12161 0-63.57617-28.45652-63.57617-63.57813 0-35.1216 28.45456-63.576169 63.57617-63.576169s63.57813 28.454569 63.57813 63.576169c0 6.24005-.89988 12.26975-2.57422 17.9668a41.413021 42.04895 0 0 1 1.58203-.0859c1.62122-5.68199 2.49219-11.67968 2.49219-17.88086 0-35.93226-29.14586-65.076169-65.07813-65.076169z" opacity=".991"/><path d="m174.0701 46.702621c-3.55592 0-8.00325.278463-12.19141.951172-4.18816.67271-8.10691 1.711446-10.68555 3.369141-4.898 3.148721-6.06322 5.65202-6.84765 9.574218-.7702 3.850959-3.94336 19.38086-3.94336 19.38086l1.46875.298828s3.17177-15.517046 3.94531-19.384766c.75929-3.79648 1.482-5.5812 6.18945-8.607422 2.2241-1.429775 6.02335-2.491819 10.11133-3.148437s8.47648-.933594 11.95313-.933594c3.47891 0 8.19362.260438 12.51562.826172 4.32201.565734 8.29671 1.493503 10.07813 2.580078 3.92195 2.39218 4.29651 3.930185 5.15039 7.345703.87475 3.498996 6.26562 23.001954 6.26562 23.001954l1.44727-.398438s-5.4173-19.604747-6.25781-22.966797c-.86138-3.445528-1.66375-5.726007-5.82422-8.263672-2.25978-1.378348-6.26226-2.208977-10.66406-2.785156-4.40181-.576179-9.15728-.839844-12.71094-.839844z"/><path d="m173.96854 43.755356c-3.25382 0-7.3197.255488-11.15235.871093-3.83264.615606-7.42064 1.562824-9.79297 3.087891-4.48538 2.883466-5.56898 5.204293-6.28711 8.794922l1.11716-1.563186c.73717-2.006503 1.68567-3.209051 5.9805-5.970017 2.01778-1.297148 5.48629-2.269626 9.21875-2.869141 3.73246-.599514 7.74146-.851562 10.91602-.851562 3.17681 0 7.48633.239178 11.43359.755859s7.57773 1.366967 9.18555 2.347656c3.57476 2.18041 4.5182 3.731768 5.38679 5.526732l.74797.785768c-.7877-3.1508-1.54023-5.267855-5.35351-7.59375-2.08618-1.272463-5.74638-2.027561-9.77344-2.554687s-8.37539-.767578-11.62695-.767578z"/><path d="m108.33373 135.49663s-12.177362 99.01393-14.599571 117.90716c-2.452823 19.13206 3.265819 39.92197 24.675781 50.25782 10.77062 5.19961 22.6921 4.50997 32.9082.75585 10.21611-3.75411 18.76602-10.5495 22.89063-17.79882 8.00914-14.07664 34.41992-60.30274 34.41992-60.30274l-1.68359-1.35937s-26.03826 46.85792-34.03906 60.91992c-3.88035 6.82001-12.18788 13.4884-22.10547 17.13281-9.91759 3.64442-21.40491 4.28931-31.73828-.69922-20.798022-10.04042-26.238509-30.00526-23.839852-48.71484 2.42929-18.94841 14.049102-115.75923 14.049102-115.75923z"/><path d="m157.76828 84.744742v.19336c-1.46018.419469-2.54675 1.71155-2.54688 3.285156.00012 1.462982.076 1.564728.002 2.671875l-.002.02539v19.111327s-.0212.65748-.20508 1.45508c-.18386.79761-.55604 1.67447-1.04101 2.07813-.61253.50982-1.60349.79352-2.44532.90625-.84182.11272-1.48828.0742-1.48828.0742l-.0215-.002h-18.4336c-.68631 0-1.3659-.00017-2.68554 0-1.42399.00084-2.53284.9687-3.0625 2.24219h-.41602v1.23633 33.01172h.19336c.41945 1.46019 1.71155 2.54674 3.28516 2.54687 1.46298-.00012 1.56473-.076 2.67187-.002l.0254.002h21.61914l.0391-.004s.35913-.036.78515-.004c.42603.0321.86076.19279.92774.25976.0851.0851.22846.47679.25976.86524s-.004.71094-.004.71094l-.004.041v21.76563c0 .6863-.00017 1.36592 0 2.68554.00084 1.42389.96885 2.53278 2.24219 3.0625v.41602h1.23633 33.01171v-.19336c1.46071-.41912 2.54675-1.71119 2.54688-3.28516-.00012-1.46298-.076-1.56472-.002-2.67187l.002-.0254v-21.54465l-.006-.0469s-.0462-.38846-.0195-.84765c.0266-.4592.18619-.92643.27734-1.01758.0721-.0721.54569-.22614 1.01953-.23438.47384-.008.87891.0586.87891.0586l.0625.01h21.42188c.6863 0 1.36591.00017 2.68554 0 1.42389-.00084 2.53278-.96885 3.0625-2.24219h.41602v-1.23632-33.01172h-.19141c-.41905-1.46082-1.71306-2.54675-3.28711-2.54688-1.46298.00012-1.56473.076-2.67187.002l-.0254-.002h-21.17383l-.0391.004s-.43049.0442-.94141.006c-.51092-.0383-1.043-.21683-1.17383-.34766-.15591-.15591-.33022-.73905-.35156-1.30273-.0213-.56368.0488-1.04102.0488-1.04102l.008-.0547v-20.898875c0-.686314.00017-1.365912 0-2.685547-.00084-1.42399-.9687-2.532844-2.24219-3.0625v-.416016h-1.23633zm.85937 1.5h32.15234.16993l.18359.0332c.94583.171459 1.62443.984067 1.625 1.945312.00017 1.319439 0 1.998985 0 2.685547v20.843749l.008-.11133s-.0897.59856-.0625 1.31836c.0273.71979.11016 1.62774.78907 2.30664.63258.63258 1.46267.73366 2.12304.7832.66038.0495 1.20899-.01 1.20899-.01l-.0781.004h21.10938l-.0508-.002c1.18167.079 1.36362.002 2.77343.002 1.04882.00009 1.90466.80121 1.97461 1.84766l.004.0586v32.15235.16796l-.0332.1836c-.17146.94582-.98406 1.62638-1.94531 1.62695-1.31943.00017-1.99899 0-2.68554 0h-21.35938l.12305.01s-.52368-.0891-1.15235-.0781c-.62867.0109-1.43161.0508-2.05468.67383-.60405.60405-.67941 1.38082-.71485 1.99219-.0354.61136.0293 1.11914.0293 1.11914l-.006-.0918v21.47266l.002-.0508c-.079 1.18167-.002 1.36362-.002 2.77343-.00009 1.04882-.80121 1.90467-1.84766 1.97461l-.0586.004h-32.15234-.16797l-.1836-.0332c-.94582-.17146-1.62638-.98407-1.62695-1.94532-.00017-1.31943 0-1.99899 0-2.68554v-21.72461l-.004.082s.0498-.45098.006-.99609c-.0439-.54512-.13593-1.24728-.69336-1.80469-.57553-.57555-1.3016-.65216-1.875-.69531-.5734-.0432-1.05078.008-1.05078.008l.0762-.004h-21.55665l.0508.002c-1.18168-.079-1.36363-.002-2.77344-.002-1.04882-.00009-1.90466-.80121-1.97461-1.84765l-.004-.0586v-32.15234-.16797l.0332-.18359c.17146-.94583.98406-1.62639 1.94531-1.62696 1.31944-.00017 1.99898 0 2.68554 0h18.41016l-.043-.002s.78593.0485 1.77539-.084c.98947-.13249 2.22737-.42645 3.20508-1.24023.93612-.77916 1.32406-1.94488 1.54297-2.89453s.24414-1.74219.24414-1.74219v-.0137-19.12109l-.002.05078c.079-1.181675.002-1.363622.002-2.773438.00009-1.048812.80118-1.90463 1.84766-1.974609z" opacity=".991"/><g transform="translate(-7.092022 -8.72307)"><g><path d="m182.29492 97.742188c-.33347-.06465-.66631-.04623-.95312.05078-.57364.194024-.97606.556546-1.37696.890625-.65695.547464-3.98743 2.827947-4.38672 3.082027-.30954.19699-.4737.4576-.59374.74219-.12005.2846-.1855.60588-.14649.95703.039.35115.20784.74212.5332 1.01954.32537.27741.76353.41689 1.25.43164 1.50943.0457 5.13938.00013 5.15039 0h.008 4.9414c.46627.00003.84395-.0475 1.17969-.16993.33574-.12242.65449-.34817.82031-.6875.16583-.33932.13452-.71497.0332-.99023s-.26152-.48808-.44336-.66992c-.36361-.36362-1.3203-1.1512-2.40039-2.04297-1.08009-.891769-2.20402-1.80775-2.6543-2.167971-.29239-.233913-.62746-.380663-.96094-.445312zm-.47265 1.470703c.17766-.06009.19699-.09279.49609.146484.43361.346886 1.56234 1.265295 2.63672 2.152345 1.02295.84459 1.98215 1.66453 2.18554 1.85351-.11898.022-.19838.0508-.41992.0508h-4.95898s-.60283-.001-.74024 0c-.80847.008-3.15447.0364-4.35546 0-.24273-.007-.31065-.0624-.32227-.0723-.0116-.01-.0104.002-.0156-.0449-.005-.0467.008-.13997.0371-.20899.0291-.069.086-.10089.0195-.0586.57299-.36463 3.60698-2.41695 4.54101-3.195312.3946-.328834.71882-.562955.89649-.623047z"/><path d="m176.94336 180.6543c-.46626-.00003-.84395.0475-1.17969.16992s-.65448.34817-.82031.6875c-.16583.33932-.13452.71497-.0332.99023.10131.27526.26152.48809.44336.66993.3636.36361 1.3203 1.1512 2.40039 2.04296 1.08009.89177 2.20402 1.8058 2.65429 2.16602.58478.46783 1.34043.59051 1.91407.39648.57363-.19402.97605-.55654 1.37695-.89062.65695-.54746 3.98743-2.82794 4.38672-3.08203.30955-.19699.4737-.45759.59375-.74219.12004-.2846.18549-.60588.14648-.95703-.039-.35115-.20784-.74407-.5332-1.02149-.32536-.27741-.76352-.41494-1.25-.42968-1.50942-.0457-5.13938-.00014-5.15039 0h-.008zm0 1.5h4.95898.74024c.80848-.008 3.15447-.0364 4.35547 0 .24272.007.31064.0624.32226.0723.0116.01.0104-.002.0156.0449.005.0467-.008.13997-.0371.20899-.0291.069-.086.1009-.0195.0586-.573.36463-3.60699 2.41696-4.54102 3.19532-.3946.32883-.71882.561-.89648.62109-.17767.0601-.197.0948-.4961-.14453-.43361-.34689-1.56234-1.2653-2.63672-2.15235-1.02295-.84459-1.98215-1.66453-2.18554-1.85351.11898-.0219.19839-.0508.41992-.0508z"/></g><g transform="matrix(0 -1 1 0 39.04691 324.61705)"><path d="m182.29492 97.742188c-.33347-.06465-.66631-.04623-.95312.05078-.57364.194024-.97606.556546-1.37696.890625-.65695.547464-3.98743 2.827947-4.38672 3.082027-.30954.19699-.4737.4576-.59374.74219-.12005.2846-.1855.60588-.14649.95703.039.35115.20784.74212.5332 1.01954.32537.27741.76353.41689 1.25.43164 1.50943.0457 5.13938.00013 5.15039 0h.008 4.9414c.46627.00003.84395-.0475 1.17969-.16993.33574-.12242.65449-.34817.82031-.6875.16583-.33932.13452-.71497.0332-.99023s-.26152-.48808-.44336-.66992c-.36361-.36362-1.3203-1.1512-2.40039-2.04297-1.08009-.891769-2.20402-1.80775-2.6543-2.167971-.29239-.233913-.62746-.380663-.96094-.445312zm-.47265 1.470703c.17766-.06009.19699-.09279.49609.146484.43361.346886 1.56234 1.265295 2.63672 2.152345 1.02295.84459 1.98215 1.66453 2.18554 1.85351-.11898.022-.19838.0508-.41992.0508h-4.95898s-.60283-.001-.74024 0c-.80847.008-3.15447.0364-4.35546 0-.24273-.007-.31065-.0624-.32227-.0723-.0116-.01-.0104.002-.0156-.0449-.005-.0467.008-.13997.0371-.20899.0291-.069.086-.10089.0195-.0586.57299-.36463 3.60698-2.41695 4.54101-3.195312.3946-.328834.71882-.562955.89649-.623047z"/><path d="m176.94336 180.6543c-.46626-.00003-.84395.0475-1.17969.16992s-.65448.34817-.82031.6875c-.16583.33932-.13452.71497-.0332.99023.10131.27526.26152.48809.44336.66993.3636.36361 1.3203 1.1512 2.40039 2.04296 1.08009.89177 2.20402 1.8058 2.65429 2.16602.58478.46783 1.34043.59051 1.91407.39648.57363-.19402.97605-.55654 1.37695-.89062.65695-.54746 3.98743-2.82794 4.38672-3.08203.30955-.19699.4737-.45759.59375-.74219.12004-.2846.18549-.60588.14648-.95703-.039-.35115-.20784-.74407-.5332-1.02149-.32536-.27741-.76352-.41494-1.25-.42968-1.50942-.0457-5.13938-.00014-5.15039 0h-.008zm0 1.5h4.95898.74024c.80848-.008 3.15447-.0364 4.35547 0 .24272.007.31064.0624.32226.0723.0116.01.0104-.002.0156.0449.005.0467-.008.13997-.0371.20899-.0291.069-.086.1009-.0195.0586-.573.36463-3.60699 2.41696-4.54102 3.19532-.3946.32883-.71882.561-.89648.62109-.17767.0601-.197.0948-.4961-.14453-.43361-.34689-1.56234-1.2653-2.63672-2.15235-1.02295-.84459-1.98215-1.66453-2.18554-1.85351.11898-.0219.19839-.0508.41992-.0508z"/></g></g><path d="m359.8826 152.2534c23.702 0 42.9336 19.2316 42.9336 42.93359 0 23.702-19.2316 42.93165-42.9336 42.93165-23.70199 0-42.93164-19.22965-42.93164-42.93165 0-23.70199 19.22965-42.93359 42.93164-42.93359zm0 1.5c-22.89133 0-41.43164 18.54226-41.43164 41.43359 0 22.89134 18.54031 41.43165 41.43164 41.43165 22.89134 0 41.4336-18.54031 41.4336-41.43165 0-22.89133-18.54226-41.43359-41.4336-41.43359z" opacity=".991"/><path d="m359.8826 163.52098c17.47954 0 31.66602 14.18648 31.66602 31.66601 0 17.47954-14.18648 31.66602-31.66602 31.66602-17.42602 0-31.56194-14.10395-31.64843-31.50977a.75.75 0 0 1 -.0156-.15625.75.75 0 0 1 .0137-.14453.75.75 0 0 1 .002-.006c.0833-17.40855 14.22042-31.51562 31.64843-31.51562zm0 1.5c-16.66887 0-30.16406 13.49714-30.16406 30.16601 0 16.66888 13.49519 30.16602 30.16406 30.16602 16.66888 0 30.16602-13.49714 30.16602-30.16602 0-16.66887-13.49714-30.16601-30.16602-30.16601z" opacity=".991"/><path d="m424.89237 69.9038c35.93227 0 65.07617 29.14391 65.07617 65.07617s-29.1439 65.07812-65.07617 65.07812c-7.95017 0-15.56582-1.43157-22.60938-4.04297a41.413021 42.04895 0 0 0 .0156-1.13086 41.413021 42.04895 0 0 0 -.002-.46094c7.02107 2.66928 14.6364 4.13477 22.5957 4.13477 35.12161 0 63.57617-28.45652 63.57617-63.57812s-28.45456-63.57617-63.57617-63.57617-63.57813 28.45457-63.57813 63.57617c0 6.24005.89988 12.26974 2.57422 17.96679a41.413021 42.04895 0 0 0 -1.58203-.0859c-1.62122-5.68199-2.49219-11.67967-2.49219-17.88085 0-35.93226 29.14586-65.07617 65.07813-65.07617z" opacity=".991"/><path d="m424.11893 45.81005c3.55592 0 8.00325.27846 12.19141.95117s8.10691 1.71145 10.68555 3.36914c4.898 3.14872 6.06322 5.65202 6.84765 9.57422.7702 3.85096 3.94336 19.38086 3.94336 19.38086l-1.46875.29883s-3.17177-15.51705-3.94531-19.38477c-.75929-3.79648-1.482-5.5812-6.18945-8.60742-2.2241-1.42977-6.02335-2.49182-10.11133-3.14844-4.08798-.65661-8.47648-.93359-11.95313-.93359-3.47891 0-8.19362.26044-12.51562.82617-4.32201.56574-8.29671 1.4935-10.07813 2.58008-3.92195 2.39218-4.29651 3.93018-5.15039 7.3457-.87475 3.499-6.26562 23.00196-6.26562 23.00196l-1.44727-.39844s5.4173-19.60475 6.25781-22.9668c.86138-3.44553 1.66375-5.72601 5.82422-8.26367 2.25978-1.37835 6.26226-2.20898 10.66406-2.78516 4.40181-.57618 9.15728-.83984 12.71094-.83984z"/><path d="m424.22049 42.86278c3.25382 0 7.3197.25549 11.15235.8711 3.83264.6156 7.42064 1.56282 9.79297 3.08789 4.48538 2.88346 5.56898 5.20429 6.28711 8.79492l-1.11716-1.56319c-.73717-2.0065-1.68567-3.20905-5.9805-5.97001-2.01778-1.29715-5.48629-2.26963-9.21875-2.86914-3.73246-.59952-7.74146-.85157-10.91602-.85157-3.17681 0-7.48633.23918-11.43359.75586s-7.57773 1.36697-9.18555 2.34766c-3.57476 2.18041-4.5182 3.73177-5.38679 5.52673l-.74797.78577c.7877-3.1508 1.54023-5.26786 5.35351-7.59375 2.08618-1.27246 5.74638-2.02756 9.77344-2.55469 4.02706-.52712 8.37539-.76758 11.62695-.76758z"/><path d="m489.8553 134.60406s12.17736 99.01392 14.59957 117.90715c2.45282 19.13206-3.26582 39.92197-24.67578 50.25782-10.77062 5.19961-22.6921 4.50997-32.9082.75585-10.21611-3.75411-18.76602-10.5495-22.89063-17.79882-8.00914-14.07664-34.41992-60.30274-34.41992-60.30274l1.68359-1.35937s26.03826 46.85792 34.03906 60.91992c3.88035 6.82001 12.18788 13.4884 22.10547 17.13281 9.91759 3.64442 21.40491 4.28931 31.73828-.69922 20.79802-10.04042 26.23851-30.00526 23.83985-48.71484-2.42929-18.94841-14.0491-115.75922-14.0491-115.75922z"/><path d="m440.42075 83.85217v.19336c1.46018.41947 2.54675 1.71155 2.54688 3.28516-.00012 1.46298-.076 1.56472-.002 2.67187l.002.0254v19.11133s.0212.65748.20508 1.45508c.18386.79761.55604 1.67447 1.04101 2.07813.61253.50982 1.60349.79352 2.44532.90625.84182.11272 1.48828.0742 1.48828.0742l.0215-.002h18.4336c.68631 0 1.3659-.00017 2.68554 0 1.42399.00084 2.53284.9687 3.0625 2.24219h.41602v1.23633 33.01171h-.19336c-.41945 1.46019-1.71155 2.54674-3.28516 2.54687-1.46298-.00012-1.56473-.076-2.67187-.002l-.0254.002h-21.61914l-.0391-.004s-.35913-.036-.78515-.004c-.42603.0321-.86076.19279-.92774.25976-.0851.0851-.22846.47679-.25976.86524s.004.71094.004.71094l.004.041v21.76563c0 .6863.00017 1.36592 0 2.68554-.00084 1.42389-.96885 2.53278-2.24219 3.0625v.41602h-1.23633-33.01171v-.19336c-1.46071-.41912-2.54675-1.71119-2.54688-3.28516.00012-1.46298.076-1.56472.002-2.67187l-.002-.0254v-21.54465l.006-.0469s.0462-.38846.0195-.84765c-.0266-.4592-.18619-.92643-.27734-1.01758-.0721-.0721-.54569-.22614-1.01953-.23438-.47384-.008-.87891.0586-.87891.0586l-.0625.01h-21.42188c-.6863 0-1.36591.00017-2.68554 0-1.42389-.00084-2.53278-.96885-3.0625-2.24219h-.41602v-1.23632-33.01171h.19141c.41905-1.46082 1.71306-2.54675 3.28711-2.54688 1.46298.00012 1.56473.076 2.67187.002l.0254-.002h21.17383l.0391.004s.43049.0442.94141.006c.51092-.0383 1.043-.21683 1.17383-.34766.15591-.15591.33022-.73905.35156-1.30273.0213-.56368-.0488-1.04102-.0488-1.04102l-.008-.0547v-20.89888c0-.68631-.00017-1.36591 0-2.68554.00084-1.42399.9687-2.53285 2.24219-3.0625v-.41602h1.23633zm-.85937 1.5h-32.15234-.16993l-.18359.0332c-.94583.17146-1.62443.98407-1.625 1.94531-.00017 1.31944 0 1.99899 0 2.68555v20.84375l-.008-.11133s.0897.59856.0625 1.31836c-.0273.71979-.11016 1.62774-.78907 2.30664-.63258.63258-1.46267.73366-2.12304.7832-.66038.0495-1.20899-.01-1.20899-.01l.0781.004h-21.10938l.0508-.002c-1.18167.079-1.36362.002-2.77343.002-1.04882.00009-1.90466.80121-1.97461 1.84766l-.004.0586v32.15234.16796l.0332.1836c.17146.94582.98406 1.62638 1.94531 1.62695 1.31943.00017 1.99899 0 2.68554 0h21.35938l-.12305.01s.52368-.0891 1.15235-.0781c.62867.0109 1.43161.0508 2.05468.67383.60405.60405.67941 1.38082.71485 1.99219.0354.61136-.0293 1.11914-.0293 1.11914l.006-.0918v21.47266l-.002-.0508c.079 1.18167.002 1.36362.002 2.77343.00009 1.04882.80121 1.90467 1.84766 1.97461l.0586.004h32.15234.16797l.1836-.0332c.94582-.17146 1.62638-.98407 1.62695-1.94532.00017-1.31943 0-1.99899 0-2.68554v-21.72461l.004.082s-.0498-.45098-.006-.99609c.0439-.54512.13593-1.24728.69336-1.80469.57553-.57555 1.3016-.65216 1.875-.69531.5734-.0432 1.05078.008 1.05078.008l-.0762-.004h21.55665l-.0508.002c1.18168-.079 1.36363-.002 2.77344-.002 1.04882-.00009 1.90466-.80121 1.97461-1.84765l.004-.0586v-32.15233-.16797l-.0332-.18359c-.17146-.94583-.98406-1.62639-1.94531-1.62696-1.31944-.00017-1.99898 0-2.68554 0h-18.41016l.043-.002s-.78593.0485-1.77539-.084c-.98947-.13249-2.22737-.42645-3.20508-1.24023-.93612-.77916-1.32406-1.94488-1.54297-2.89453s-.24414-1.74219-.24414-1.74219v-.0137-19.12109l.002.0508c-.079-1.18168-.002-1.36362-.002-2.77344-.00009-1.04881-.80118-1.90463-1.84766-1.97461z" opacity=".991"/><g fill-opacity=".992157" transform="translate(-6.990418 -8.407044)"><g transform="rotate(-90)"><path d="m-172.03516 415.10938c-8.45749 0-15.33008 6.87258-15.33007 15.33007 0 8.45749 6.87259 15.33008 15.33007 15.33008 8.41202.00001 15.24305-6.80236 15.31641-15.19726a.75.75 0 0 0 .0137-.13282.75.75 0 0 0 -.0137-.14453.75.75 0 0 0 -.002-.006c-.083-8.38656-6.9085-15.17969-15.31446-15.17968zm0 1.5c7.64684-.00001 13.83009 6.18324 13.83008 13.83007 0 7.64683-6.18325 13.83008-13.83008 13.83008-7.64682 0-13.83007-6.18325-13.83007-13.83008-.00001-7.64683 6.18324-13.83007 13.83007-13.83007z" opacity=".991"/><path d="m-111.11719 415.10938c-8.45749-.00001-15.33008 6.87258-15.33008 15.33007.00001 8.45749 6.87259 15.33009 15.33008 15.33008 8.40267 0 15.224217-6.78789 15.312502-15.16992.000007-.00066-.000006-.001 0-.002a.75.75 0 0 0 .01563-.15821.75.75 0 0 0 -.01367-.14453.75.75 0 0 0 -.002-.006c-.08304-8.38655-6.906542-15.17968-15.312502-15.17968zm0 1.5c7.64683 0 13.828131 6.18324 13.828128 13.83007-.000002 7.64683-6.181298 13.83008-13.828128 13.83008s-13.83007-6.18325-13.83008-13.83008c0-7.64683 6.18325-13.83008 13.83008-13.83007z" opacity=".991"/></g><g transform="translate(572.01611 -288.86317)"><path d="m-172.03516 415.10938c-8.45749 0-15.33008 6.87258-15.33007 15.33007 0 8.45749 6.87259 15.33008 15.33007 15.33008 8.41202.00001 15.24305-6.80236 15.31641-15.19726a.75.75 0 0 0 .0137-.13282.75.75 0 0 0 -.0137-.14453.75.75 0 0 0 -.002-.006c-.083-8.38656-6.9085-15.17969-15.31446-15.17968zm0 1.5c7.64684-.00001 13.83009 6.18324 13.83008 13.83007 0 7.64683-6.18325 13.83008-13.83008 13.83008-7.64682 0-13.83007-6.18325-13.83007-13.83008-.00001-7.64683 6.18324-13.83007 13.83007-13.83007z" opacity=".991"/><path d="m-111.11719 415.10938c-8.45749-.00001-15.33008 6.87258-15.33008 15.33007.00001 8.45749 6.87259 15.33009 15.33008 15.33008 8.40267 0 15.224217-6.78789 15.312502-15.16992.000007-.00066-.000006-.001 0-.002a.75.75 0 0 0 .01563-.15821.75.75 0 0 0 -.01367-.14453.75.75 0 0 0 -.002-.006c-.08304-8.38655-6.906542-15.17968-15.312502-15.17968zm0 1.5c7.64683 0 13.828131 6.18324 13.828128 13.83007-.000002 7.64683-6.181298 13.83008-13.828128 13.83008s-13.83007-6.18325-13.83008-13.83008c0-7.64683 6.18325-13.83008 13.83008-13.83007z" opacity=".991"/></g></g><path d="m279.01736 206.19481v1.5h40.12696v-1.5z"/><path d="m289.92752 187.71434v.75 5.9375h18.9375v-6.6875zm1.5 1.5h15.9375v3.6875h-15.9375z" opacity=".991"/><path d="m283.11502 164.77684v.75 15h31.375v-15.75zm1.5 1.5h28.375v12.75h-28.375z" opacity=".991"/><path d="m291.25174 167.25536c-.98175 0-1.79492.81318-1.79492 1.79492v7.20312c0 .98174.81317 1.79492 1.79492 1.79492h15.10156c.98175 0 1.79492-.81318 1.79492-1.79492v-7.20312c0-.98174-.81317-1.79492-1.79492-1.79492zm0 1.5h15.10156c.1767 0 .29492.11824.29492.29492v7.20312c0 .17668-.11822.29492-.29492.29492h-15.10156c-.1767 0-.29492-.11824-.29492-.29492v-7.20312c0-.17668.11822-.29492.29492-.29492z" opacity=".991"/><path d="m253.05252 127.02684c-2.20303 0-4 1.79697-4 4v7.5c0 2.20303 1.79697 4 4 4h16.75c2.20303 0 4-1.79697 4-4v-7.5c0-2.20303-1.79697-4-4-4zm0 1.5h16.75c1.39797 0 2.5 1.10203 2.5 2.5v7.5c0 1.39797-1.10203 2.5-2.5 2.5h-16.75c-1.39797 0-2.5-1.10203-2.5-2.5v-7.5c0-1.39797 1.10203-2.5 2.5-2.5z" opacity=".991"/><path d="m328.26932 126.02098c-2.08157.42651-3.71271 2.29944-3.6543 4.40234.0619 2.22931.002 3.3125.002 3.3125l-.002.0195v.0215 6.375c-.00014 1.78852.6508 3.18233 1.86719 3.8457 1.21639.66338 2.77629.59212 4.53711.0606 1.6229-.48993 5.4149-1.50946 9.04882-2.49414 3.63393-.98468 7.06271-1.91655 8.23438-2.33008 2.37598-.83858 3.65322-2.61405 3.56055-4.18945-.0373-.63452-.21777-1.54789-.82617-2.42774-.60841-.87984-1.65632-1.68772-3.24805-2.06836-2.85413-.68251-14.93944-3.70936-17.33399-4.42773-.74775-.22433-1.49169-.24178-2.18554-.0996zm.29101 1.48438c.46444-.10393.9626-.0979 1.46485.0527 2.60545.78163 14.52014 3.75478 17.41601 4.44727 1.28327.30686 1.95411.87398 2.36133 1.46289.40722.5889.53928 1.23803.56445 1.66601.0323.5496-.69043 2.02413-2.56445 2.68555-.95333.33647-4.4933 1.31085-8.125 2.29492s-7.4022 1.99579-9.0918 2.50586c-1.55168.46843-2.71022.42842-3.38476.0606-.67455-.36788-1.08605-1.06782-1.08594-2.5293v-6.37502l-.002.041s.065-1.16681.002-3.4375c-.0353-1.2721 1.05199-2.56323 2.44531-2.875z"/><path d="m214.80252 86.52684v1.5h167v-1.5z"/><path d="m291.70096 84.042465v3.400391h1.5v-1.900391h13.70312v1.990234h1.5v-3.490234z"/></g></svg>