<svg height="350.257" viewBox="0 0 598.191 350.257" width="598.191" xmlns="http://www.w3.org/2000/svg"><g fill="#f7f7f7"><path d="m140.292 319.361c-5.096-.726-10.048-2.006-14.924-3.494l-.58-.176-.046-.603c-.287-3.566-.42-7.171-.42-10.761 0-5.234.286-10.445.811-15.466-2.925-1.269-5.723-2.803-8.509-4.369-2.606-1.708-5.352-3.329-7.849-5.395-7.525 4.692-15.564 8.543-24.172 11.616l-.521.187-.395-.385c-3.69-3.582-6.967-7.566-10.019-11.64l-.366-.49.324-.513c4.784-7.627 9.833-14.494 15.76-20.97-1.6-2.726-3.063-5.531-4.264-8.488-1.461-2.946-2.241-6.06-3.262-8.982-8.598-.669-17.676-2.212-26.397-4.795l-.538-.159-.086-.554c-.784-5.004-1.243-10.042-1.243-15.121 0-.086 0-.168.002-.243l.004-.586.54-.226c8.064-3.378 16.723-5.923 25.065-7.683.225-3.239 1.041-6.316 1.484-9.349l.01-.068.019-.065c.917-2.934 1.511-6.069 2.714-9.098-6.674-5.64-13.051-12.174-18.532-19.36l-.329-.431.232-.487c2.228-4.692 5.117-8.954 7.92-13.201l.345-.523.608.152c8.729 2.168 17.059 5.044 24.851 8.522 2.184-2.197 4.231-4.667 6.777-6.645 2.375-2.163 4.928-4.075 7.566-5.854-2.178-8.653-3.251-17.32-3.638-26.616l-.025-.59.536-.251c4.59-2.144 9.226-4.366 14.188-5.868l.552-.167.379.439c5.732 6.697 10.78 13.896 15.089 21.434 3.136-.779 6.305-1.055 9.439-1.475 2.418-.155 4.868-.292 7.326-.292.735 0 1.471.013 2.208.041 3.308-8.011 7.601-16.196 12.723-23.589l.312-.452.542.08c5.096.726 10.046 2.006 14.924 3.494l.578.176.048.603c.283 3.561.417 7.163.417 10.753 0 5.239-.285 10.452-.807 15.475 2.927 1.269 5.726 2.803 8.508 4.368 2.606 1.709 5.353 3.33 7.849 5.396 7.526-4.695 15.565-8.542 24.173-11.619l.519-.186.397.385c3.69 3.585 6.964 7.569 10.019 11.642l.366.487-.324.517c-4.786 7.626-9.833 14.491-15.759 20.966 1.593 2.718 3.054 5.52 4.251 8.466 1.472 2.954 2.251 6.078 3.274 9.007 8.599.669 17.674 2.212 26.396 4.795l.538.158.086.555c.776 4.991 1.241 10.022 1.241 15.096v.262.588l-.546.229c-8.065 3.38-16.723 5.925-25.063 7.685-.227 3.238-1.042 6.314-1.484 9.346l-.011.067-.021.066c-.915 2.937-1.509 6.073-2.712 9.102 6.672 5.64 13.05 12.174 18.53 19.358l.329.429-.232.49c-2.228 4.692-5.115 8.953-7.92 13.198l-.345.523-.608-.151c-8.727-2.166-17.058-5.042-24.848-8.521-2.184 2.194-4.23 4.667-6.777 6.646-2.376 2.162-4.93 4.074-7.567 5.854 2.178 8.651 3.251 17.32 3.638 26.618l.023.588-.534.251c-4.59 2.145-9.226 4.366-14.188 5.868l-.554.165-.377-.438c-5.732-6.695-10.782-13.895-15.091-21.433-3.135.78-6.301 1.054-9.379 1.468l-.031.003-.031.004c-2.417.15-4.864.291-7.322.291-.735 0-1.471-.012-2.208-.04-3.31 8.011-7.601 16.196-12.723 23.587l-.312.452zm-.293-1.837c5.021-7.324 9.236-15.449 12.465-23.372l.236-.584.63.034c.91.046 1.826.063 2.747.063 2.372 0 4.762-.134 7.152-.283 3.354-.445 6.671-.731 9.812-1.591l.667-.185.339.603c4.234 7.488 9.204 14.645 14.854 21.302 4.402-1.387 8.62-3.369 12.862-5.354-.415-9.199-1.515-17.74-3.713-26.27l-.157-.612.525-.348c2.774-1.843 5.433-3.812 7.931-6.081 2.552-1.978 4.663-4.582 7.102-6.981l.433-.425.555.251c7.669 3.465 15.887 6.339 24.497 8.514 2.598-3.924 5.188-7.812 7.216-11.972-5.454-7.075-11.799-13.519-18.426-19.063l-.506-.425.262-.604c1.269-2.946 1.88-6.217 2.879-9.466.501-3.364 1.368-6.583 1.497-9.791l.029-.692.678-.141c8.26-1.703 16.859-4.191 24.861-7.495-.019-4.666-.436-9.311-1.132-13.936-8.614-2.503-17.586-3.991-26.062-4.614l-.573-.042-.195-.54c-1.165-3.218-1.941-6.475-3.391-9.363l-.015-.029-.015-.034c-1.238-3.063-2.787-5.987-4.491-8.849l-.339-.571.45-.485c5.901-6.379 10.918-13.137 15.683-20.675-2.805-3.711-5.781-7.31-9.075-10.559-8.505 3.08-16.433 6.922-23.853 11.605l-.557.351-.498-.431c-2.462-2.134-5.329-3.824-8.111-5.646-2.912-1.636-5.847-3.238-8.881-4.506l-.613-.255.073-.659c.561-5.161.866-10.538.866-15.937 0-3.343-.117-6.695-.364-10.01-4.463-1.344-8.956-2.49-13.535-3.18-5.021 7.327-9.236 15.452-12.465 23.374l-.238.583-.627-.033c-.912-.046-1.829-.065-2.747-.065-2.393 0-4.803.134-7.15.284-3.355.448-6.671.732-9.816 1.594l-.667.18-.339-.601c-4.232-7.488-9.203-14.645-14.853-21.301-4.405 1.386-8.622 3.369-12.862 5.354.415 9.199 1.513 17.738 3.713 26.269l.159.609-.525.35c-2.778 1.845-5.435 3.813-7.931 6.083-2.554 1.979-4.665 4.582-7.106 6.981l-.433.425-.552-.249c-7.671-3.464-15.885-6.338-24.497-8.517-2.598 3.924-5.188 7.812-7.218 11.973 5.454 7.075 11.801 13.518 18.426 19.063l.506.422-.26.607c-1.269 2.946-1.88 6.217-2.879 9.466-.503 3.362-1.37 6.582-1.497 9.791l-.029.692-.678.14c-8.26 1.704-16.861 4.192-24.863 7.495.02 4.667.432 9.308 1.133 13.937 8.613 2.505 17.586 3.989 26.062 4.612l.571.042.197.542c1.163 3.215 1.941 6.475 3.389 9.361l.015.029.015.035c1.24 3.061 2.786 5.985 4.494 8.85l.339.567-.45.487c-5.901 6.382-10.921 13.14-15.684 20.679 2.803 3.71 5.782 7.309 9.074 10.558 8.506-3.077 16.434-6.923 23.852-11.605l.557-.349.498.429c2.462 2.134 5.331 3.824 8.111 5.646 2.914 1.634 5.849 3.236 8.883 4.506l.609.255-.071.659c-.561 5.159-.868 10.533-.868 15.929 0 3.344.117 6.696.367 10.019 4.463 1.342 8.957 2.488 13.536 3.176zm-8.309-58.259c-8.502-5.217-15.74-13.035-19.571-22.449-2.648-5.993-3.899-12.422-3.899-18.887 0-3.596.387-7.202 1.143-10.777 2.406-9.87 7.558-18.906 15.284-25.513 7.543-6.851 17.447-10.773 27.382-11.805 1.396-.128 2.799-.19 4.207-.19 8.671.002 17.439 2.376 24.874 6.803 8.502 5.22 15.738 13.038 19.566 22.451 2.651 5.992 3.902 12.421 3.902 18.885 0 3.595-.387 7.199-1.14 10.78-2.408 9.87-7.559 18.903-15.287 25.51-7.542 6.856-17.447 10.776-27.37 11.806l-.092-.883.08.883c-1.397.126-2.801.188-4.209.188-8.673-.002-17.441-2.375-24.87-6.802zm20.51-87.665c-9.587.994-19.148 4.792-26.38 11.37-7.433 6.355-12.408 15.052-14.728 24.574-.726 3.432-1.099 6.916-1.099 10.385 0 6.238 1.208 12.419 3.76 18.192 3.669 9.033 10.648 16.594 18.855 21.625 7.127 4.251 15.603 6.548 23.952 6.546 1.352 0 2.699-.058 4.038-.179v-.001c9.587-.991 19.148-4.791 26.38-11.368 7.437-6.357 12.408-15.052 14.729-24.575.724-3.437 1.096-6.92 1.096-10.387 0-6.236-1.207-12.416-3.759-18.194-3.669-9.028-10.646-16.589-18.853-21.623-7.134-4.252-15.608-6.547-23.956-6.547-1.355 0-2.704.061-4.035.182z"/><path d="m381.08 322.423-.613-.021-.195-.579c-2.706-7.881-4.964-16.002-6.771-23.959-3.095-.338-6.225-.641-9.311-1.218-3.146-.458-6.215-1.177-9.267-1.865-4.711 6.87-9.965 13.689-15.635 20.068l-.381.428-.545-.169c-4.344-1.352-8.585-2.976-12.754-4.722l-.57-.24.027-.617c.367-8.38 1.152-16.607 2.403-24.785-2.845-1.373-5.558-2.945-8.272-4.494-2.686-1.621-5.348-3.293-7.928-5.106-6.936 4.782-14.192 9.108-21.827 13.095l-.516.27-.453-.366c-3.523-2.848-6.892-5.861-10.173-8.969l-.455-.43.253-.57c3.405-7.729 7.069-15.104 11.176-22.273-2.124-2.315-4.152-4.71-6.096-7.182-1.898-2.472-3.825-4.961-5.565-7.611-8.192 1.965-16.524 3.394-25.085 4.337l-.582.065-.286-.51c-2.224-3.937-4.356-7.944-6.232-12.083l-.252-.555.427-.434c5.844-5.932 12.112-11.554 18.462-16.722-1.099-2.918-2.201-5.86-3.06-8.881-.965-3.017-1.719-6.082-2.442-9.127-8.262-1.158-16.674-2.833-24.936-5.052l-.556-.149-.09-.568c-.702-4.474-1.135-8.962-1.475-13.454l-.048-.622.573-.255c7.698-3.421 15.433-6.405 23.255-8.941.026-3.124.08-6.259.336-9.384.168-3.168.591-6.298 1.011-9.397-7.322-4.06-14.544-8.643-21.443-13.708l-.463-.341.12-.56c.948-4.438 2.145-8.823 3.528-13.139l.188-.581.611-.032c3.884-.204 7.761-.301 11.626-.301 4.439 0 8.863.13 13.27.39 1.098-2.959 2.422-5.806 3.721-8.642 1.346-2.844 2.792-5.638 4.351-8.377-5.367-6.442-10.4-13.302-15.035-20.528l-.312-.486.32-.482c2.504-3.778 5.208-7.405 7.995-10.954l.387-.491.592.198c8.015 2.69 15.659 5.633 23.201 9.078 2.106-2.331 4.321-4.548 6.584-6.736 2.295-2.107 4.6-4.252 7.07-6.233-2.728-7.989-4.89-16.119-6.651-24.578l-.12-.577.484-.335c3.717-2.567 7.51-5.057 11.447-7.317l.529-.303.473.385c6.448 5.265 12.642 11.002 18.36 16.824 2.809-1.349 5.634-2.727 8.562-3.861 2.919-1.267 5.914-2.265 8.863-3.283.399-8.315 1.279-16.893 2.75-25.296l.099-.562.554-.144c4.397-1.133 8.853-1.954 13.29-2.693l.615-.104.306.548c4.104 7.379 7.762 14.69 11.011 22.336 3.129-.309 6.26-.466 9.396-.54 1.067-.013 2.142-.021 3.218-.021 2.065 0 4.141.035 6.219.163 3.365-7.711 7.242-15.26 11.648-22.627l.297-.497.577.074c4.478.575 8.97 1.283 13.405 2.294l.592.135.089.602c1.209 8.257 1.934 16.583 2.223 24.802 3.024.849 6.005 1.827 8.942 2.904 2.972 1.064 5.877 2.276 8.749 3.552 5.904-5.897 12.307-11.608 19.064-16.851l.453-.352.508.271c3.997 2.14 7.857 4.497 11.646 6.963l.522.339-.143.606c-1.932 8.21-4.171 16.099-6.91 23.93 2.529 1.881 4.917 3.901 7.327 5.931 2.296 2.1 4.64 4.197 6.84 6.473 7.716-3.459 15.59-6.343 23.87-8.895l.564-.175.377.453c2.894 3.471 5.707 7.014 8.332 10.716l.355.501-.343.51c-4.684 6.933-9.774 13.589-15.049 19.833 1.604 2.678 3.222 5.369 4.638 8.166 1.527 2.785 2.811 5.667 4.082 8.525 3.213-.153 6.454-.229 9.713-.229 5.22 0 10.479.2 15.733.621l.57.046.194.539c1.535 4.273 2.803 8.642 3.902 13.027l.149.596-.505.35c-6.893 4.749-13.939 9.079-21.224 13.006.621 3.103.971 6.214 1.417 9.326.257 3.096.606 6.218.692 9.387 8.021 2.638 15.814 5.808 23.617 9.499l.53.25-.025.588c-.183 4.509-.465 9.035-1.051 13.547l-.078.604-.592.145c-8.087 1.971-16.367 3.459-24.486 4.519-.598 3.059-1.206 6.147-2.063 9.166-.767 3.082-1.746 6.078-2.715 9.052 6.383 5.32 12.715 11.189 18.53 17.427l.392.419-.222.531c-1.754 4.183-3.757 8.254-5.874 12.24l-.29.548-.615-.084c-8.33-1.149-16.418-2.668-24.461-4.675-1.632 2.695-3.443 5.256-5.231 7.832-1.877 2.498-3.763 5.012-5.813 7.415 4.153 7.367 7.745 14.942 11.041 22.94l.221.542-.408.417c-3.17 3.227-6.454 6.331-9.878 9.294l-.47.407-.542-.302c-7.357-4.063-14.41-8.446-21.146-13.161-2.506 1.871-5.061 3.7-7.708 5.392-2.636 1.712-5.336 3.34-8.104 4.846 1.19 8.328 1.858 16.8 1.981 25.376l.008.581-.528.24c-4.117 1.864-8.311 3.62-12.611 5.088l-.575.194-.39-.464c-5.371-6.384-10.358-13.076-14.925-19.924-3.021.89-6.091 1.571-9.143 2.236-3.08.627-6.176 1.17-9.305 1.568-1.892 8.238-4.338 16.254-7.283 24.398l-.202.557-.59.029c-3.168.147-6.34.255-9.52.255-1.343.005-2.69-.012-4.04-.054zm4.044-1.715c2.943 0 5.892-.095 8.845-.228 2.906-8.1 5.309-16.056 7.159-24.237l.138-.609.619-.075c3.281-.396 6.537-.961 9.774-1.62 3.246-.707 6.482-1.432 9.623-2.389l.632-.191.366.552c4.52 6.817 9.458 13.484 14.776 19.845 3.844-1.339 7.619-2.912 11.348-4.589-.147-8.512-.835-16.918-2.042-25.178l-.091-.617.55-.293c2.909-1.563 5.748-3.265 8.528-5.069 2.778-1.775 5.463-3.713 8.117-5.705l.516-.388.526.372c6.678 4.701 13.668 9.072 20.972 13.128 3.071-2.679 6.028-5.474 8.896-8.372-3.29-7.936-6.877-15.441-11.025-22.74l-.312-.547.413-.473c2.154-2.482 4.141-5.13 6.123-7.768 1.903-2.737 3.815-5.441 5.484-8.264l.337-.571.642.162c7.988 2.019 16.02 3.551 24.296 4.712 1.902-3.609 3.699-7.275 5.292-11.02-5.789-6.167-12.092-11.977-18.436-17.239l-.465-.386.188-.572c1.031-3.168 2.072-6.311 2.874-9.53.896-3.153 1.519-6.407 2.159-9.676l.122-.628.637-.082c8.063-1.03 16.296-2.489 24.333-4.423.499-4.042.762-8.117.937-12.201-7.76-3.646-15.503-6.767-23.474-9.36l-.604-.198-.011-.634c-.046-3.269-.417-6.563-.69-9.847-.479-3.315-.843-6.604-1.527-9.808l-.139-.653.588-.314c7.254-3.885 14.269-8.167 21.132-12.87-1.007-3.953-2.154-7.879-3.511-11.72-5.017-.386-10.037-.572-15.021-.572-3.435 0-6.851.086-10.233.257l-.608.029-.245-.554c-1.356-3.046-2.688-6.077-4.277-8.975-1.484-2.934-3.203-5.765-4.916-8.627l-.326-.545.411-.484c5.254-6.185 10.325-12.786 14.996-19.656-2.372-3.311-4.903-6.507-7.514-9.651-8.219 2.556-16.021 5.441-23.669 8.9l-.577.261-.434-.459c-2.256-2.382-4.724-4.591-7.156-6.815-2.553-2.15-5.076-4.284-7.734-6.224l-.535-.39.222-.621c2.748-7.775 4.992-15.604 6.929-23.759-3.43-2.218-6.907-4.336-10.483-6.273-6.688 5.222-13.031 10.91-18.872 16.778l-.432.434-.559-.25c-3.028-1.354-6.078-2.637-9.188-3.751-3.106-1.14-6.251-2.161-9.436-3.037l-.632-.175-.02-.653c-.265-8.166-.964-16.442-2.141-24.65-3.978-.882-8.02-1.526-12.068-2.057-4.353 7.327-8.179 14.831-11.497 22.497l-.25.577-.626-.046c-2.226-.158-4.469-.2-6.719-.2-1.067 0-2.133.008-3.187.021-3.311.076-6.611.249-9.893.598l-.657.07-.255-.607c-3.206-7.608-6.816-14.879-10.88-22.222-4.021.677-8.028 1.426-11.967 2.418-1.434 8.337-2.281 16.857-2.656 25.105l-.027.603-.566.196c-3.153 1.091-6.302 2.125-9.339 3.443-3.061 1.184-6.03 2.652-9.039 4.095l-.574.274-.443-.455c-5.66-5.79-11.801-11.505-18.186-16.755-3.521 2.045-6.939 4.28-10.309 6.598 1.769 8.398 3.939 16.461 6.674 24.38l.207.598-.498.39c-2.582 2.026-5.006 4.282-7.445 6.521-2.386 2.311-4.722 4.65-6.913 7.112l-.438.493-.596-.276c-7.481-3.448-15.064-6.39-23.026-9.08-2.511 3.214-4.94 6.483-7.203 9.862 4.619 7.163 9.636 13.957 14.982 20.335l.398.474-.31.537c-1.649 2.869-3.176 5.798-4.587 8.779-1.388 3.031-2.784 6.034-3.888 9.118l-.223.627-.666-.042c-4.589-.282-9.198-.426-13.821-.426-3.632 0-7.273.087-10.92.266-1.231 3.893-2.306 7.84-3.175 11.824 6.86 5.004 14.041 9.532 21.317 13.538l.533.293-.082.604c-.446 3.298-.906 6.582-1.081 9.88-.27 3.281-.312 6.588-.337 9.918l-.004.642-.611.196c-7.774 2.497-15.461 5.437-23.116 8.815.315 4.064.713 8.107 1.322 12.117 8.207 2.179 16.563 3.817 24.762 4.943l.601.083.141.592c.764 3.234 1.546 6.455 2.555 9.612.899 3.157 2.072 6.251 3.248 9.366l.228.598-.499.404c-6.319 5.116-12.562 10.685-18.381 16.559 1.704 3.699 3.614 7.312 5.618 10.877 8.498-.959 16.765-2.404 24.89-4.379l.613-.151.343.534c1.771 2.76 3.795 5.377 5.817 8.013 2.045 2.597 4.189 5.115 6.439 7.542l.444.478-.327.569c-4.1 7.108-7.76 14.421-11.16 22.096 2.972 2.797 6.007 5.508 9.161 8.079 7.574-3.979 14.765-8.295 21.633-13.063l.514-.356.508.362c2.682 1.915 5.48 3.676 8.305 5.382 2.893 1.651 5.754 3.309 8.729 4.703l.602.28-.103.659c-1.269 8.124-2.073 16.298-2.458 24.625 3.771 1.568 7.592 3.023 11.479 4.254 5.605-6.347 10.801-13.13 15.455-19.958l.339-.499.588.133c3.26.733 6.477 1.502 9.756 1.979 3.218.603 6.521.904 9.842 1.272l.628.069.141.617c1.773 7.9 3.995 15.974 6.657 23.811 1.12.029 2.245.042 3.372.042zm-16.367-51.731.143-.876-.145.874c-8.836-1.46-17.467-4.126-25.63-7.848l-.906-.413 25-41.555.683.238c5.554 1.946 11.519 3.016 17.736 3.016.692 0 1.39-.025 2.096-.053l.72-.029 11.686 46.959-.981.133c-4.535.61-9.107.912-13.674.912-5.616 0-11.22-.459-16.728-1.358zm16.726-.415c4.157 0 8.321-.255 12.454-.771l-10.856-43.633c-.475.017-.955.028-1.443.028-6.167 0-12.098-1.02-17.64-2.881l-23.228 38.615c7.753 3.447 15.923 5.924 24.275 7.307 5.414.885 10.922 1.335 16.438 1.335zm22.771-51.129.65-.314c6.108-2.942 11.565-7.016 16.121-11.938l.49-.531 41.599 25.026-.606.789c-7.083 9.211-15.732 17.205-25.455 23.503-6.337 4.105-13.121 7.467-20.189 10.069l-.931.34zm12.923 44.593c6.616-2.507 12.965-5.695 18.911-9.547 9.273-6.006 17.559-13.588 24.404-22.31l-38.661-23.257c-4.438 4.675-9.678 8.582-15.507 11.486zm-97.261-12.355c-6.983-5.28-13.302-11.442-18.707-18.314-6.491-8.233-11.653-17.458-15.326-27.248l-.35-.933 47.431-11.799.313.65c2.942 6.106 7.016 11.563 11.938 16.119l.53.488-24.534 40.786-.51.845zm.535-.707.535-.708zm-17.847-18.705c5.105 6.492 11.045 12.342 17.6 17.397l23.281-38.704c-4.675-4.438-8.582-9.678-11.486-15.507l-44.099 10.972c3.584 9.275 8.533 18.018 14.704 25.842zm129.434-43.082.238-.682c1.946-5.552 3.016-11.517 3.016-17.736 0-.693-.025-1.39-.053-2.096l-.029-.72 47.523-11.824.131.983c.065.501.158 1.026.221 1.586.419 3.814.628 7.639.628 11.458 0 8.776-1.11 17.519-3.338 25.994-1.549 5.908-3.65 11.675-6.239 17.219l-.419.893zm40.903 22.536c2.355-5.174 4.279-10.539 5.719-16.023 2.188-8.326 3.279-16.917 3.279-25.543 0-3.753-.206-7.515-.617-11.257-.021-.187-.047-.377-.075-.572l-44.21 10.998c.017.475.028.956.028 1.444 0 6.168-1.02 12.098-2.879 17.641zm-118.353-40.954c.002-14.939 12.112-27.047 27.05-27.049 14.938.002 27.05 12.11 27.05 27.049 0 14.938-12.111 27.047-27.05 27.05v-.887-.89c13.96-.024 25.249-11.316 25.273-25.273-.024-13.959-11.313-25.249-25.273-25.274-13.958.025-25.249 11.314-25.274 25.274.025 13.957 11.316 25.249 25.274 25.273v.89.887c-14.938-.003-27.048-12.111-27.05-27.05zm-74.23 13.675c-.674-4.782-1.023-9.616-1.023-14.437 0-2.422.086-4.84.268-7.243.859-12.066 3.907-23.93 8.938-34.945l.413-.904 42.283 25.436-.237.682c-1.947 5.554-3.017 11.517-3.017 17.736 0 .693.024 1.39.053 2.098l.027.72-46.612 11.596-.956.236zm.879-.122.878-.124zm.135-21.43c-.177 2.361-.263 4.735-.263 7.115 0 4.407.298 8.831.874 13.215l44.256-11.007c-.016-.475-.028-.957-.028-1.446 0-6.167 1.021-12.097 2.88-17.64l-39.344-23.668c-4.701 10.568-7.556 21.908-8.375 33.431zm148.625-15.389c-2.942-6.108-7.016-11.565-11.939-16.121l-.529-.491 24.958-41.489.513-.851.789.606c1.721 1.321 3.421 2.684 5.062 4.122 9.486 8.309 17.418 18.37 23.233 29.509 2.131 4.067 3.97 8.275 5.526 12.589l.333.924-47.631 11.849zm1.28-1.42 44.324-11.025c-1.455-3.917-3.148-7.744-5.09-11.448-5.712-10.941-13.509-20.832-22.831-28.996-1.355-1.189-2.757-2.329-4.187-3.443l-23.705 39.403c4.677 4.438 8.582 9.679 11.489 15.509zm-131.886-36.694.594-.786c3.382-4.484 7.116-8.709 11.197-12.574 9.146-8.686 19.877-15.63 31.505-20.394 1.137-.463 2.282-.901 3.433-1.323l.927-.339 11.972 48.124-.648.312c-6.106 2.944-11.565 7.016-16.119 11.94l-.492.528zm42.051 23.229c4.438-4.675 9.679-8.582 15.509-11.488l-11.148-44.807c-.821.309-1.637.626-2.444.956-11.424 4.678-21.97 11.504-30.954 20.038l-.611-.643.609.643c-3.768 3.567-7.238 7.452-10.406 11.571zm57.932-12.487c-5.555-1.946-11.52-3.016-17.736-3.016-.693 0-1.391.027-2.098.053l-.721.027-11.981-48.166.979-.135c3.871-.526 7.775-.83 11.69-.895v.002c.68-.015 1.36-.023 2.043-.023 11.906 0 23.771 2.074 34.952 6.156 2.773 1.013 5.499 2.154 8.174 3.403l.894.415-25.515 42.416zm-.099-1.91 23.756-39.489c-2.344-1.067-4.722-2.05-7.137-2.93-10.983-4.012-22.644-6.051-34.344-6.051-.669 0-1.339.009-2.011.021l-.017-.885.012.887c-3.513.056-7.018.311-10.497.75l11.155 44.845c.476-.016.956-.028 1.444-.028 6.168.001 12.097 1.021 17.639 2.88z"/></g></svg>