<svg height="350.26" viewBox="0 0 598.189 350.26" width="598.189" xmlns="http://www.w3.org/2000/svg"><g fill="#f4f4f4" transform="translate(-5.721893 16.812621)"><path d="m77.449219 85.855469c-10.114574 0-18.332029 8.215505-18.332031 18.330081-.000005 10.11457 8.217453 18.33008 18.332031 18.33007 10.114578.00001 18.330082-8.2155 18.330078-18.33007-.000002-10.114576-8.215505-18.330081-18.330078-18.330081zm0 1.5c9.303913 0 16.830076 7.526165 16.830078 16.830081.000004 9.30391-7.526161 16.83008-16.830078 16.83007-9.303918.00001-16.832035-7.52616-16.832031-16.83007.000002-9.303916 7.528117-16.830081 16.832031-16.830081z" opacity=".991"/><path d="m77.449219 90.652344c-7.464496 0-13.533201 6.068707-13.533203 13.533206-.000004 7.4645 6.068703 13.53125 13.533203 13.53125s13.531254-6.06675 13.53125-13.53125c-.000003-7.464498-6.066755-13.533206-13.53125-13.533206zm0 1.5c6.653835 0 12.031248 5.379368 12.03125 12.033206.000003 6.65384-5.377411 12.03125-12.03125 12.03125-6.65384 0-12.033207-5.37741-12.033203-12.03125.000002-6.653839 5.379367-12.033206 12.033203-12.033206z" opacity=".991"/><g stroke-width="1.5"><g transform="translate(.08005 -.009999)"><path d="m76.619141 86.574219v4.761719h1.5v-4.761719z"/><path d="m76.619141 117.05273v4.76368h1.5v-4.76368z"/></g><g transform="matrix(0 1 -1 0 181.643166 26.816714)"><path d="m76.619141 86.574219v4.761719h1.5v-4.761719z"/><path d="m76.619141 117.05273v4.76368h1.5v-4.76368z"/></g><g><g><path d="m77.263672 140.64648c-5.032023 0-9.126957 4.09493-9.126953 9.12696.000002 5.03202 4.094934 9.12695 9.126953 9.12695 4.926741 0 8.899981-3.94306 9.066406-8.83008a.75.75 0 0 0 .002-.004.75.75 0 0 0 .05859-.29297.75.75 0 0 0 -.05859-.29297c-.164171-4.88904-4.140149-8.83399-9.068359-8.83399zm0 1.5c4.221362 0 7.626956 3.40559 7.626953 7.62696-.000002 4.22136-3.405594 7.62695-7.626953 7.62695s-7.626952-3.40559-7.626953-7.62695c-.000004-4.22136 3.405591-7.62696 7.626953-7.62696z" opacity=".991"/><path d="m77.263672 145.21484-4.478516 7.75977h8.958985l-.650391-1.125zm0 3 1.882812 3.25977h-3.763672z" opacity=".991"/></g><g transform="matrix(-1 0 0 -1 154.528396 333.42472)"><path d="m77.263672 140.64648c-5.032023 0-9.126957 4.09493-9.126953 9.12696.000002 5.03202 4.094934 9.12695 9.126953 9.12695 4.926741 0 8.899981-3.94306 9.066406-8.83008a.75.75 0 0 0 .002-.004.75.75 0 0 0 .05859-.29297.75.75 0 0 0 -.05859-.29297c-.164171-4.88904-4.140149-8.83399-9.068359-8.83399zm0 1.5c4.221362 0 7.626956 3.40559 7.626953 7.62696-.000002 4.22136-3.405594 7.62695-7.626953 7.62695s-7.626952-3.40559-7.626953-7.62695c-.000004-4.22136 3.405591-7.62696 7.626953-7.62696z" opacity=".991"/><path d="m77.263672 145.21484-4.478516 7.75977h8.958985l-.650391-1.125zm0 3 1.882812 3.25977h-3.763672z" opacity=".991"/></g></g><g transform="matrix(0 -1 1 0 -89.448162 243.976558)"><g><path d="m77.263672 140.64648c-5.032023 0-9.126957 4.09493-9.126953 9.12696.000002 5.03202 4.094934 9.12695 9.126953 9.12695 4.926741 0 8.899981-3.94306 9.066406-8.83008a.75.75 0 0 0 .002-.004.75.75 0 0 0 .05859-.29297.75.75 0 0 0 -.05859-.29297c-.164171-4.88904-4.140149-8.83399-9.068359-8.83399zm0 1.5c4.221362 0 7.626956 3.40559 7.626953 7.62696-.000002 4.22136-3.405594 7.62695-7.626953 7.62695s-7.626952-3.40559-7.626953-7.62695c-.000004-4.22136 3.405591-7.62696 7.626953-7.62696z" opacity=".991"/><path d="m77.263672 145.21484-4.478516 7.75977h8.958985l-.650391-1.125zm0 3 1.882812 3.25977h-3.763672z" opacity=".991"/></g><g transform="matrix(-1 0 0 -1 154.528396 333.42472)"><path d="m77.263672 140.64648c-5.032023 0-9.126957 4.09493-9.126953 9.12696.000002 5.03202 4.094934 9.12695 9.126953 9.12695 4.926741 0 8.899981-3.94306 9.066406-8.83008a.75.75 0 0 0 .002-.004.75.75 0 0 0 .05859-.29297.75.75 0 0 0 -.05859-.29297c-.164171-4.88904-4.140149-8.83399-9.068359-8.83399zm0 1.5c4.221362 0 7.626956 3.40559 7.626953 7.62696-.000002 4.22136-3.405594 7.62695-7.626953 7.62695s-7.626952-3.40559-7.626953-7.62695c-.000004-4.22136 3.405591-7.62696 7.626953-7.62696z" opacity=".991"/><path d="m77.263672 145.21484-4.478516 7.75977h8.958985l-.650391-1.125zm0 3 1.882812 3.25977h-3.763672z" opacity=".991"/></g></g></g><path d="m94.302734 67.513672c-.527958 0-.976562.4486-.976562.976562v2.94336c0 .52796.448604.976562.976562.976562h11.320316c.52796 0 .97656-.448566.97656-.976562v-2.94336c0-.527998-.4486-.976562-.97656-.976562zm.523438 1.5h10.273438v1.896484h-10.273438z" opacity=".991"/><path d="m508.60547 62.576172c-1.04396 0-1.88672.842774-1.88672 1.886719v2.302734h-2.30078c-1.04396 0-1.88672.842774-1.88672 1.886719v2.943359c0 1.043945.84276 1.886719 1.88672 1.886719h2.30078v2.300781c0 1.043945.84276 1.886719 1.88672 1.886719h2.94336c1.04396 0 1.88672-.842763 1.88672-1.886719v-2.300781h2.30273c1.04396 0 1.88672-.842774 1.88672-1.886719v-2.943359c0-1.043945-.84276-1.886719-1.88672-1.886719h-2.30273v-2.302734c0-1.043956-.84276-1.886719-1.88672-1.886719zm0 1.820312h2.94336c.012 0 .0664.05445.0664.06641v4.123047h4.12305c.012 0 .0664.05443.0664.06641v2.943359c0 .01197-.0544.06641-.0664.06641h-4.12305v4.121094c0 .01196-.0544.06641-.0664.06641h-2.94336c-.012 0-.0664-.05443-.0664-.06641v-4.121094h-4.12109c-.012 0-.0664-.05444-.0664-.06641v-2.943359c0-.01197.0544-.06641.0664-.06641h4.12109v-4.123047c0-.01197.0544-.06641.0664-.06641z" opacity=".991" transform="matrix(.82334514 0 0 .82334514 90.107782 12.387577)"/><path d="m86.263672 45.890625c-27.040055 0-48.976563 21.936499-48.976563 48.976563-.000001 12.537542.103382 38.000562 0 63.693362-.103414 25.7009.000001 52.42968 0 66.04297-.000003 27.04006 21.9365 48.97656 48.976563 48.97656h26.302738v-.75c0-12.55741-.0738-79.66574 0-105.69727.0738-26.04242 0-106.979313 0-120.492185v-.75h-.75c-16.867938 0 1.08199.000001-25.552738 0zm0 1.5c25.852968.000001 10.347411 0 24.802738 0 .0009 14.26359.0733 93.869535 0 119.738285-.0733 25.85689-.001 91.72476 0 104.95117h-24.802738c-26.229401 0-47.476566-21.24717-47.476563-47.47656.000001-13.62088-.103381-40.34246 0-66.03516.103414-25.7008-.000001-51.17187 0-63.701172 0-26.229399 21.247158-47.476563 47.476563-47.476563z" opacity=".991"/><path d="m87.714844 43.054688c-23.208163 0-42.293788 13.671611-49.957032 32.802734l-.205078.513672 3.789063 3.058594.361328-.980469c6.681403-18.126817 24.104599-31.058594 44.560547-31.058594h14.310548v-4.335937zm0 1.5h11.359375v1.335937h-12.810547c-20.725578 0-38.392922 12.912916-45.541016 31.111328l-1.332031-1.074219c7.567129-18.29772 25.910666-31.373047 48.324219-31.373046z" opacity=".991"/><path d="m84.453125 201.45508c-1.200784 0-2.191406.99062-2.191406 2.1914v10.2461c0 1.20078.990622 2.1914 2.191406 2.1914h10.246094c1.200784 0 2.191406-.99062 2.191406-2.1914v-10.2461c0-1.20078-.990622-2.1914-2.191406-2.1914zm0 1.5h10.246094c.39573 0 .691406.29567.691406.6914v10.2461c0 .39573-.295676.6914-.691406.6914h-10.246094c-.39573 0-.691406-.29567-.691406-.6914v-10.2461c0-.39573.295676-.6914.691406-.6914z" opacity=".991"/><path d="m89.576172 204.09766c-2.571639 0-4.671879 2.10023-4.671875 4.67187.000002 2.57164 2.10024 4.67383 4.671875 4.67383 2.571634 0 4.671873-2.10219 4.671875-4.67383.000004-2.57164-2.100237-4.67187-4.671875-4.67187zm0 1.5c1.760977 0 3.171878 1.41089 3.171875 3.17187-.000002 1.76098-1.410901 3.17383-3.171875 3.17383-1.760975 0-3.171874-1.41285-3.171875-3.17383-.000003-1.76098 1.410897-3.17187 3.171875-3.17187z" opacity=".991"/><path d="m520.13281 204.9375-2.80664 2.83398h.92774v3.38282h3.75781v-3.38282h.92578z" opacity=".991"/><path d="m520.13281 201.03125c-3.86479 0-7.01562 3.15083-7.01562 7.01563 0 3.86479 3.15083 7.01367 7.01562 7.01367s7.01367-3.14889 7.01367-7.01367c0-3.86479-3.14888-7.01563-7.01367-7.01563zm0 1.5c3.05413 0 5.51367 2.4615 5.51367 5.51563 0 3.05412-2.45954 5.51367-5.51367 5.51367s-5.51562-2.45955-5.51562-5.51367c0-3.05413 2.46149-5.51563 5.51562-5.51563z" opacity=".991"/><path d="m520.13281 197.81055c-5.64425 0-10.23633 4.59207-10.23633 10.23633 0 5.64425 4.59208 10.23437 10.23633 10.23437 5.64426 0 10.23438-4.59012 10.23438-10.23437 0-5.64426-4.59012-10.23633-10.23438-10.23633zm0 1.5c4.8336 0 8.73438 3.90273 8.73438 8.73633 0 4.83359-3.90078 8.73437-8.73438 8.73437-4.83359 0-8.73633-3.90078-8.73633-8.73437 0-4.8336 3.90274-8.73633 8.73633-8.73633z" opacity=".991"/><path d="m-532.18359-184.63281c-10.11458 0-18.33009 8.2155-18.33008 18.33008 0 10.11457 8.2155 18.33007 18.33008 18.33007 10.0704.00001 18.24507-8.1474 18.3164-18.20117a.75.75 0 0 0 .0137-.1289.75.75 0 0 0 -.0137-.14454.75.75 0 0 0 -.002-.006c-.0831-10.04365-8.2514-18.1797-18.31445-18.17969zm0 1.5c9.30392-.00001 16.83008 7.52616 16.83007 16.83008 0 9.30391-7.52616 16.83008-16.83007 16.83007-9.30392 0-16.83008-7.52616-16.83008-16.83007-.00001-9.30392 7.52616-16.83008 16.83008-16.83008z" opacity=".991" transform="scale(-1)"/><path d="m-532.18359-179.83398c-7.4645 0-13.53126 6.06675-13.53125 13.53125 0 7.46449 6.06675 13.53124 13.53125 13.53125 7.41099 0 13.4295-5.98413 13.51562-13.375a.75.75 0 0 0 .0156-.15625.75.75 0 0 0 -.0137-.14454.75.75 0 0 0 -.002-.006c-.0829-7.39362-6.10264-13.38087-13.51562-13.38086zm0 1.5c6.65384-.00001 12.03125 5.3774 12.03125 12.03125-.00001 6.65383-5.37742 12.03125-12.03125 12.03125-6.65384-.00001-12.03125-5.37742-12.03125-12.03125-.00001-6.65384 5.37741-12.03125 12.03125-12.03125z" opacity=".991" transform="scale(-1)"/><g stroke-width="1.5" transform="matrix(-1 0 0 -1 609.55194 270.49796)"><path d="m76.619141 86.574219v4.761719h1.5v-4.761719z"/><path d="m76.619141 117.05273v4.76368h1.5v-4.76368z"/></g><g stroke-width="1.5" transform="matrix(0 -1 1 0 427.98884 243.67126)"><path d="m76.619141 86.574219v4.761719h1.5v-4.761719z"/><path d="m76.619141 117.05273v4.76368h1.5v-4.76368z"/></g><path d="m-532.36719-130.82422c-5.03201 0-9.1289 4.09494-9.1289 9.12695-.00001 5.03203 4.09688 9.12696 9.1289 9.12696 4.92743 0 8.90103-3.94408 9.06641-8.83203a.75.75 0 0 0 .002-.004.75.75 0 0 0 .0586-.29102.75.75 0 0 0 -.0566-.2832.75.75 0 0 0 -.002-.004c-.16109-4.89181-4.13814-8.83984-9.06836-8.83984zm0 1.5c4.22136 0 7.62695 3.40559 7.62696 7.62695 0 4.22137-3.40559 7.62696-7.62696 7.62696-4.22136 0-7.62891-3.40559-7.6289-7.62696 0-4.22135 3.40754-7.62695 7.6289-7.62695z" opacity=".991" transform="scale(-1)"/><path d="m532.36719 78.693359c-5.03203-.000004-9.12696 4.094931-9.12696 9.126953 0 5.032023 4.09493 9.126958 9.12696 9.126954 4.933-.000002 8.91547-3.951984 9.07226-8.847657a.75.75 0 0 0 .0547-.267578.75.75 0 0 0 .002-.01172.75.75 0 0 0 -.0566-.285156.75.75 0 0 0 -.002-.0039c-.16211-4.890892-4.14077-8.837889-9.07031-8.837891zm0 1.5c4.22136.000002 7.6289 3.405595 7.6289 7.626953 0 4.221359-3.40754 7.626952-7.6289 7.626954-4.22136.000003-7.62696-3.405591-7.62696-7.626954 0-4.221362 3.4056-7.626956 7.62696-7.626953z" opacity=".991"/><path d="m104.75781-558.43359c-5.032015 0-9.126949 4.09493-9.126951 9.12695.000002 5.03202 4.094936 9.12695 9.126951 9.12695 4.93088 0 8.91024-3.94907 9.07031-8.84179a.75.75 0 0 0 .0586-.28516.75.75 0 0 0 -.0566-.2832.75.75 0 0 0 -.002-.002c-.16007-4.89273-4.13943-8.84179-9.07031-8.84179zm0 1.5c4.22136 0 7.62891 3.40559 7.62891 7.62695s-3.40755 7.62695-7.62891 7.62695-7.626949-3.40559-7.626951-7.62695c.000002-4.22136 3.405591-7.62695 7.626951-7.62695z" opacity=".991" transform="rotate(90)"/><path d="m-104.75781 506.30273c-5.03202.00001-9.12891 4.09494-9.12891 9.12696 0 5.03201 4.09689 9.12695 9.12891 9.12695 4.927414 0 8.901016-3.94408 9.066404-8.83203a.75.75 0 0 0 .002-.004.75.75 0 0 0 .05859-.29101.75.75 0 0 0 -.05664-.28516.75.75 0 0 0 -.002-.004c-.162111-4.89089-4.138809-8.83788-9.068354-8.83789zm0 1.5c4.22136.00001 7.626954 3.4056 7.626951 7.62696-.000002 4.22136-3.405591 7.62695-7.626951 7.62695s-7.62891-3.40559-7.62891-7.62695 3.40755-7.62695 7.62891-7.62696z" opacity=".991" transform="rotate(-90)"/><path d="m497.06641 45.890625v.75c0 12.557409.0738 79.665735 0 105.697265-.0738 26.04242 0 106.97932 0 120.49219v.75h26.30273c27.04006 0 48.97656-21.9365 48.97656-48.97656 0-12.53754-.10338-38.00057 0-63.69336.10342-25.70091 0-52.42969 0-66.042972 0-27.040065-21.9365-48.976563-48.97656-48.976563zm1.5 1.5h24.80273c26.2294 0 47.47656 21.247167 47.47656 47.476563 0 13.620872.10339 40.344412 0 66.037112-.10341 25.7008 0 51.16992 0 63.69922 0 26.22939-21.24715 47.47656-47.47656 47.47656h-24.80273c-.00091-14.26359-.0733-93.86954 0-119.73828.0733-25.8569.001-91.724769 0-104.951175z" opacity=".991"/><path d="m509.07422 43.054688v4.335937h14.31055c20.45594 0 37.87914 12.931782 44.56054 31.058594l.36133.980469 3.78906-3.058594-.20508-.513672c-7.66324-19.131128-26.74887-32.802735-49.95703-32.802734zm1.5 1.5h11.35937c22.41355 0 40.7571 13.075321 48.32422 31.373046l-1.33203 1.074219c-7.14809-18.198407-24.81544-31.111328-45.54101-31.111328h-12.81055z" opacity=".991"/><path d="m119.28516 47.800781v.75c0 2.881154-.78865 4.725844-2.06446 5.896485s-3.12997 1.71875-5.43164 1.71875v1.5c2.54136 0 4.81126-.612135 6.44727-2.113282 1.48719-1.364595 2.27811-3.513493 2.42773-6.251953h11.73828 345.00977 11.73828c.14962 2.73846.94055 4.887358 2.42773 6.251953 1.63601 1.501147 3.90591 2.113282 6.44727 2.113282v-1.5c-2.30166 0-4.15583-.548109-5.43164-1.71875s-2.06445-3.015331-2.06445-5.896485v-.75h-13.11719-345.00977z"/><path d="m111.81055 270.60156v1.5h385.90429v-1.5z"/><g stroke-width="1.5" transform="translate(-.342787)"><path d="m129.69336 55.695312c-3.41093 0-6.17969 2.770717-6.17969 6.181641v196.246097c0 3.41092 2.76876 6.18164 6.17969 6.18164h351.11328c3.41092 0 6.17969-2.77072 6.17969-6.18164v-196.246097c0-3.410926-2.76877-6.181641-6.17969-6.181641zm0 1.5h351.11328c2.60586 0 4.67969 2.075771 4.67969 4.681641v196.246097c0 2.60587-2.07383 4.68164-4.67969 4.68164h-351.11328c-2.60587 0-4.67969-2.07577-4.67969-4.68164v-196.246097c0-2.605871 2.07382-4.681641 4.67969-4.681641z" opacity=".991"/><path d="m150.72656 72.25c-.52797 0-.97656.448604-.97656.976562v173.546878c0 .52796.4486.97656.97656.97656h309.04688c.52796 0 .97656-.4486.97656-.97656v-173.546878c0-.527958-.44859-.976562-.97656-.976562zm.52344 1.5h308v172.5h-308z" opacity=".991"/></g><path d="m184.24609 44.947266v1.380859h-9.14062v-1.115234h-12.33789v3.224609h1.5v-1.724609h9.33789v1.115234h12.14062v-1.380859h9.01953v2.078125h1.5v-3.578125z"/></g></svg>