<svg height="350.26" viewBox="0 0 598.189 350.26" width="598.189" xmlns="http://www.w3.org/2000/svg"><g fill="#f4f4f4"><g transform="translate(-66.034392 11.401489)"><path d="m292.74219 36.019531c-23.22694 0-37.44984 15.132092-45.72461 33.419922-8.27478 18.28783-10.75586 39.786237-10.75586 53.060547 0 46.84626 7.34895 87.18047 18.02734 115.86133 5.3392 14.34043 11.50697 25.76923 18.04688 33.65625 6.5399 7.88702 13.496 12.2832 20.40625 12.2832 6.90522 0 13.86329-4.32641 20.40429-12.13086 6.541-7.80444 12.70929-19.13339 18.04883-33.4082 10.67909-28.54962 18.02735-68.88601 18.02735-116.26172 0-13.28102-2.65866-34.776997-11.02149-53.0625s-22.58051-33.417969-45.45898-33.417969zm0 1.5c22.22025 0 35.86836 14.551762 44.0957 32.541016s10.88477 39.360083 10.88477 52.439453c0 47.22048-7.33793 87.40971-17.9336 115.73633-5.29783 14.16331-11.41336 25.35882-17.79297 32.9707-6.3796 7.61188-12.97893 11.59375-19.2539 11.59375-6.26995 0-12.87125-4.0452-19.25196-11.74023-6.3807-7.69503-12.49674-18.99239-17.79492-33.22266-10.59636-28.46053-17.93359-68.64862-17.93359-115.33789 0-13.08608 2.48247-34.454479 10.62109-52.441406 8.13863-17.986928 21.78049-32.539063 44.35938-32.539063z" opacity=".991"/><g stroke-width="1.5" transform="translate(1.060669)"><path d="m291.68164 80.494141c-.30622 0-.26325.03851-.34766.06445-.0844.02594-.18154.058-.29882.09961-.23457.08321-.54761.200388-.93555.349609-.77588.298444-1.84572.722566-3.11328 1.232422-2.53512 1.019713-5.86082 2.382283-9.18164 3.757813-3.32083 1.37553-6.63675 2.764384-9.15039 3.835937-1.25683.535777-2.31261.992478-3.07227 1.330078-.37983.168801-.68545.307039-.91015.414063-.11236.05351-.20323.09733-.28126.138672-.078.04134-.0745-.01537-.29101.201172-.21654.216533-.15983.214943-.20117.292969-.0413.07802-.0871.168897-.14063.28125-.10702.224704-.24526.530324-.41406.910156-.3376.759663-.7943 1.815443-1.33008 3.072265-1.07155 2.513645-2.46041 5.827613-3.83594 9.148443-1.37553 3.32082-2.73614 6.64652-3.75585 9.18164-.50986 1.26756-.93398 2.3374-1.23243 3.11328-.14922.38794-.26835.70293-.35156.9375-.0416.11728-.0737.21247-.0996.29687s-.0644.0434-.0644.34961c0 .30623.0385.26325.0644.34766.0259.0844.058.18154.0996.29883.0832.23457.20234.5476.35156.93554.29845.77589.72257 1.84573 1.23243 3.11329 1.01971 2.53511 2.38032 5.86081 3.75585 9.18164 1.37553 3.32082 2.76439 6.63479 3.83594 9.14843.53578 1.25683.99248 2.31261 1.33008 3.07227.1688.37983.30704.68545.41406.91016.0535.11235.0993.20322.14063.28125.0413.078-.0154.0764.20117.29296.21653.21654.21299.15983.29101.20118.078.0413.1689.0852.28126.13867.2247.10702.53032.24526.91015.41406.75966.3376 1.81544.7943 3.07227 1.33008 2.51364 1.07155 5.82956 2.46041 9.15039 3.83594 3.32082 1.37553 6.64652 2.7381 9.18164 3.75781 1.26756.50986 2.3374.93398 3.11328 1.23242.38794.14922.70098.2664.93555.34961.11728.0416.21442.0737.29882.0996s.0414.0644.34766.0644c.30622 0 .26325-.0385.34766-.0644.0844-.0259.18154-.058.29882-.0996.23457-.0832.54761-.20039.93555-.34961.77589-.29844 1.84572-.72256 3.11328-1.23242 2.53512-1.01971 5.86082-2.38228 9.18164-3.75781 3.32083-1.37553 6.63675-2.76439 9.15039-3.83594 1.25683-.53578 2.31261-.99248 3.07227-1.33008.37983-.1688.68545-.30704.91016-.41406.11235-.0535.20322-.0973.28125-.13867.078-.0413.0745.0154.29101-.20118.21654-.21653.15983-.21494.20117-.29296.0414-.078.0871-.1689.14063-.28125.10702-.22471.24526-.53033.41406-.91016.3376-.75966.7943-1.81544 1.33008-3.07227 1.07155-2.51364 2.45845-5.82761 3.83398-9.14843 1.37553-3.32083 2.7381-6.64653 3.75782-9.18164.50985-1.26756.93397-2.3374 1.23242-3.11329.14922-.38794.26835-.70097.35156-.93554.0416-.11729.0737-.21443.0996-.29883s.0645-.0414.0645-.34766c0-.30622-.0385-.2652-.0645-.34961-.0259-.0844-.058-.17959-.0996-.29687-.0832-.23457-.20234-.54956-.35156-.9375-.29845-.77588-.72257-1.84572-1.23242-3.11328-1.01972-2.53512-2.38229-5.86082-3.75782-9.18164-1.37553-3.32083-2.76243-6.634798-3.83398-9.148443-.53578-1.256822-.99248-2.312602-1.33008-3.072265-.1688-.379832-.30704-.685452-.41406-.910156-.0535-.112353-.0993-.203225-.14063-.28125-.0413-.07803.0154-.07644-.20117-.292969-.21653-.216538-.21299-.159831-.29101-.201172-.078-.04134-.1689-.08516-.28125-.138672-.22471-.107024-.53033-.245262-.91016-.414063-.75966-.3376-1.81544-.794301-3.07227-1.330078-2.51364-1.071553-5.82956-2.460407-9.15039-3.835937-3.32082-1.37553-6.64652-2.7381-9.18164-3.757813-1.26756-.509856-2.33739-.933978-3.11328-1.232422-.38794-.149221-.70098-.266396-.93555-.349609-.11728-.04161-.21442-.07367-.29882-.09961s-.0414-.06445-.34766-.06445zm0 1.529297c.045.01495.0798.02588.14453.04883.2116.07506.51911.189277.90039.335937.76256.293319 1.82618.716318 3.08985 1.224609 2.52733 1.016583 5.85074 2.377916 9.16797 3.751954 3.31722 1.374037 6.63078 2.75986 9.13671 3.828125 1.25297.534132 2.30416.988508 3.05079 1.320312.37331.165902.67034.301894.87304.398438.0618.02943.0944.04715.13672.06836.0212.04233.0389.07492.0684.136719.0965.202701.23254.501689.39844.875.3318.74662.78618 1.797816 1.32031 3.050781 1.06827 2.50593 2.45604 5.817537 3.83008 9.134767 1.37404 3.31722 2.73537 6.64063 3.75195 9.16796.50829 1.26367.92934 2.32924 1.22266 3.0918.14666.38128.26282.68684.33789.89844.0228.0642.0339.0997.0488.14453-.015.0451-.0258.0815-.0488.14648-.0751.2116-.19123.51716-.33789.89844-.29332.76256-.71437 1.82813-1.22266 3.0918-1.01658 2.52734-2.37791 5.85075-3.75195 9.16797s-2.76181 6.62883-3.83008 9.13476c-.53413 1.25297-.98851 2.30612-1.32031 3.05274-.1659.37331-.3019.67034-.39844.87304-.0294.0618-.0471.0944-.0684.13672-.0423.0212-.0749.0389-.13672.0684-.2027.0966-.49973.23254-.87304.39844-.74663.3318-1.79782.78618-3.05079 1.32031-2.50593 1.06827-5.81949 2.45409-9.13671 3.82813-3.31723 1.37404-6.64064 2.73537-9.16797 3.75195-1.26367.50829-2.32729.93129-3.08985 1.22461-.38128.14666-.68879.26087-.90039.33594-.0647.0229-.0995.0339-.14453.0488-.045-.015-.0799-.0259-.14453-.0488-.2116-.0751-.51911-.18928-.90039-.33594-.76256-.29332-1.82813-.71632-3.0918-1.22461-2.52734-1.01658-5.84879-2.37791-9.16601-3.75195s-6.63079-2.75986-9.13672-3.82813c-1.25297-.53413-2.30416-.98851-3.05078-1.32031-.37331-.1659-.67035-.30189-.87305-.39844-.0618-.0294-.0944-.0472-.13672-.0684-.0212-.0423-.0389-.0749-.0684-.13672-.0965-.2027-.23253-.49973-.39844-.87304-.3318-.74662-.78618-1.79977-1.32031-3.05274-1.06826-2.50593-2.45604-5.81754-3.83008-9.13476-1.37403-3.31722-2.73537-6.64063-3.75195-9.16797-.50829-1.26367-.93129-2.32924-1.22461-3.0918-.14666-.38128-.26087-.68684-.33594-.89844-.023-.065-.0338-.10139-.0488-.14648.0149-.0448.0261-.0803.0488-.14453.0751-.2116.18928-.51716.33594-.89844.29332-.76256.71632-1.82813 1.22461-3.0918 1.01658-2.52733 2.37792-5.85074 3.75195-9.16796 1.37404-3.31723 2.76182-6.628837 3.83008-9.134767.53413-1.252965.98851-2.304161 1.32031-3.050781.16591-.373311.3019-.672299.39844-.875.0294-.0618.0472-.09439.0684-.136719.0423-.02121.0749-.03893.13672-.06836.2027-.09654.49974-.232536.87305-.398438.74662-.331804 1.79781-.78618 3.05078-1.320312 2.50593-1.068265 5.8195-2.454088 9.13672-3.828125 3.31722-1.374038 6.63867-2.735371 9.16601-3.751954 1.26367-.508291 2.32924-.93129 3.0918-1.224609.38128-.14666.68879-.260873.90039-.335937.0647-.02295.0995-.03388.14453-.04883z" opacity=".991"/><path d="m291.68164 91.345703c-15.54101.000001-28.15625 12.615237-28.15625 28.156247 0 15.54102 12.61524 28.1543 28.15625 28.1543 15.49749 0 28.0722-12.54627 28.14258-28.02734a.75.75 0 0 0 .0137-.12696.75.75 0 0 0 -.0137-.13281.75.75 0 0 0 -.002-.0137c-.08109-15.47184-12.64977-28.009736-28.14058-28.009737zm0 1.5c14.73035.000001 26.65625 11.925897 26.65625 26.656247 0 14.73036-11.9259 26.6543-26.65625 26.6543s-26.65625-11.92394-26.65625-26.6543c0-14.73035 11.9259-26.656246 26.65625-26.656247z" opacity=".991"/><path d="m291.68164 98.951172c-11.34001 0-20.54883 9.210768-20.54883 20.550778s9.20882 20.54883 20.54883 20.54883c11.29319 0 20.45955-9.13656 20.53516-20.41211a.75.75 0 0 0 .0137-.13672.75.75 0 0 0 -.0156-.15429c-.0852-11.26728-9.24601-20.396488-20.5332-20.396488zm0 1.499998c10.52935 0 19.04883 8.52143 19.04883 19.05078s-8.51948 19.04883-19.04883 19.04883-19.04883-8.51948-19.04883-19.04883 8.51948-19.05078 19.04883-19.05078z" opacity=".991"/></g><path d="m302.81445 280.07031a16.219261 12.727922 0 0 1 -1.53906.89063c-.40608 5.08138-4.11162 8.97656-8.5332 8.97656-4.32884 0-7.96788-3.73531-8.5-8.66016a16.219261 12.727922 0 0 1 -1.55469-.8125c.20069 6.04147 4.57207 10.97266 10.05469 10.97266 5.60233 0 10.05534-5.14599 10.07226-11.36719z" opacity=".991"/></g><g transform="translate(46.965608 .385863)"><path d="m335.19922 43.789062c-1.28763 0-2.34766 1.060023-2.34766 2.347657v9.910156c0 .749524-.11244 1.012049-.13867 1.039063-.0262.02701-.26406.140625-1.00977.140624h-9.9414c-1.28763 0-2.34766 1.060029-2.34766 2.347657v9.351562c0 1.287628 1.06003 2.347657 2.34766 2.347657h9.9414c.79723 0 1.0439.120096 1.04297.11914-.00092-.000956.10547.254237.10547 1.013672v9.957031c0 1.287634 1.06003 2.347657 2.34766 2.347657h9.35156c1.28763 0 2.34766-1.060029 2.34766-2.347657v-9.957031c0-.735272.11144-.967726.13867-.994141.0272-.02641.28704-.138671 1.02539-.138671h9.92578c1.28763 0 2.34766-1.060023 2.34766-2.347657v-9.351562c0-1.287634-1.06003-2.347657-2.34766-2.347657h-9.9414c-.72845 0-.95863-.116691-1-.160156-.0414-.04346-.14844-.303265-.14844-1.003906v-9.925781c0-1.287628-1.06003-2.347657-2.34766-2.347657zm0 1.5h9.35156c.48263 0 .84766.365033.84766.847657v9.925781c0 .804489.0511 1.501779.5625 2.039062.51139.537284 1.22855.625001 2.08594.625h9.9414c.48262 0 .84766.365038.84766.847657v9.351562c0 .482619-.36504.847657-.84766.847657h-9.92578c-.83508 0-1.53192.04017-2.06836.560546-.53644.520381-.5957 1.229093-.5957 2.072266v9.957031c0 .482624-.36503.847657-.84766.847657h-9.35156c-.48262 0-.84766-.365038-.84766-.847657v-9.957031c0-.827506.00025-1.512967-.52929-2.058594-.52955-.545626-1.23399-.574218-2.11915-.574218h-9.9414c-.48263 0-.84766-.365033-.84766-.847657v-9.351562c0-.482624.36503-.847657.84766-.847657h9.9414c.85091 0 1.56211-.05435 2.08594-.59375.52383-.539395.5625-1.241723.5625-2.085937v-9.910156c0-.482619.36504-.847657.84766-.847657z" opacity=".991"/><path d="m319.25 18.5c-4.34036 0-7.875 3.534641-7.875 7.875s3.53464 7.875 7.875 7.875 7.875-3.534641 7.875-7.875-3.53464-7.875-7.875-7.875zm0 1.5c3.5297 0 6.375 2.845301 6.375 6.375s-2.8453 6.375-6.375 6.375-6.375-2.845301-6.375-6.375 2.8453-6.375 6.375-6.375z" opacity=".991"/><path d="m339.875 99c-7.58503 0-13.75 6.16497-13.75 13.75s6.16497 13.75 13.75 13.75 13.75-6.16497 13.75-13.75-6.16497-13.75-13.75-13.75zm0 1.5c6.77437 0 12.25 5.47563 12.25 12.25s-5.47563 12.25-12.25 12.25-12.25-5.47563-12.25-12.25 5.47563-12.25 12.25-12.25z" opacity=".991"/><g stroke="none" stroke-width="1.5" transform="translate(-.062189)"><path d="m317.75 159.375c-4.13325 0-7.5 3.36675-7.5 7.5s3.36675 7.5 7.5 7.5c4.02802 0 7.27402-3.21479 7.43945-7.20312a.75.75 0 0 0 .002-.004.75.75 0 0 0 .0586-.29297.75.75 0 0 0 -.0566-.2832.75.75 0 0 0 -.002-.002c-.15922-3.99391-3.40931-7.21471-7.44145-7.21471zm0 1.5c3.32259 0 6 2.67741 6 6s-2.67741 6-6 6-6-2.67741-6-6 2.67741-6 6-6z" opacity=".991"/><path d="m339.9375 159.375c-4.13325 0-7.5 3.36675-7.5 7.5s3.36675 7.5 7.5 7.5c4.02802 0 7.27402-3.21479 7.43945-7.20312a.75.75 0 0 0 .002-.004.75.75 0 0 0 .0586-.29297.75.75 0 0 0 -.0566-.2832.75.75 0 0 0 -.002-.002c-.15918-3.99404-3.40927-7.21484-7.44141-7.21484zm0 1.5c3.32259 0 6 2.67741 6 6s-2.67741 6-6 6-6-2.67741-6-6 2.67741-6 6-6z" opacity=".991"/><path d="m362.125 159.375c-4.13325 0-7.5 3.36675-7.5 7.5s3.36675 7.5 7.5 7.5c4.02802 0 7.27402-3.21479 7.43945-7.20312a.75.75 0 0 0 .002-.004.75.75 0 0 0 .0586-.29297.75.75 0 0 0 -.0566-.2832.75.75 0 0 0 -.002-.002c-.15922-3.99391-3.40931-7.21471-7.44145-7.21471zm0 1.5c3.32259 0 6 2.67741 6 6s-2.67741 6-6 6-6-2.67741-6-6 2.67741-6 6-6z" opacity=".991"/></g><g stroke-width="1.5"><g transform="translate(-.155939 -.124999)"><path d="m335.46875 193.25a.96875.96875 0 0 1 -.96875.96875.96875.96875 0 0 1 -.96875-.96875.96875.96875 0 0 1 .96875-.96875.96875.96875 0 0 1 .96875.96875" opacity=".991"/><path d="m335.46875 223.375a.96875.96875 0 0 1 -.96875.96875.96875.96875 0 0 1 -.96875-.96875.96875.96875 0 0 1 .96875-.96875.96875.96875 0 0 1 .96875.96875" opacity=".991"/><path d="m335.59375 217.35001a1.09375 1.09375 0 0 1 -1.09375 1.09375 1.09375 1.09375 0 0 1 -1.09375-1.09375 1.09375 1.09375 0 0 1 1.09375-1.09375 1.09375 1.09375 0 0 1 1.09375 1.09375" opacity=".991"/><path d="m335.84375 211.325a1.34375 1.34375 0 0 1 -1.34375 1.34375 1.34375 1.34375 0 0 1 -1.34375-1.34375 1.34375 1.34375 0 0 1 1.34375-1.34375 1.34375 1.34375 0 0 1 1.34375 1.34375" opacity=".991"/><path d="m335.59375 199.27499a1.09375 1.09375 0 0 1 -1.09375 1.09375 1.09375 1.09375 0 0 1 -1.09375-1.09375 1.09375 1.09375 0 0 1 1.09375-1.09375 1.09375 1.09375 0 0 1 1.09375 1.09375" opacity=".991"/><path d="m335.84375 205.3a1.34375 1.34375 0 0 1 -1.34375 1.34375 1.34375 1.34375 0 0 1 -1.34375-1.34375 1.34375 1.34375 0 0 1 1.34375-1.34375 1.34375 1.34375 0 0 1 1.34375 1.34375" opacity=".991"/></g><g transform="translate(5.375312 -.124999)"><path d="m335.46875 193.25a.96875.96875 0 0 1 -.96875.96875.96875.96875 0 0 1 -.96875-.96875.96875.96875 0 0 1 .96875-.96875.96875.96875 0 0 1 .96875.96875" opacity=".991"/><path d="m335.46875 223.375a.96875.96875 0 0 1 -.96875.96875.96875.96875 0 0 1 -.96875-.96875.96875.96875 0 0 1 .96875-.96875.96875.96875 0 0 1 .96875.96875" opacity=".991"/><path d="m335.59375 217.35001a1.09375 1.09375 0 0 1 -1.09375 1.09375 1.09375 1.09375 0 0 1 -1.09375-1.09375 1.09375 1.09375 0 0 1 1.09375-1.09375 1.09375 1.09375 0 0 1 1.09375 1.09375" opacity=".991"/><path d="m335.84375 211.325a1.34375 1.34375 0 0 1 -1.34375 1.34375 1.34375 1.34375 0 0 1 -1.34375-1.34375 1.34375 1.34375 0 0 1 1.34375-1.34375 1.34375 1.34375 0 0 1 1.34375 1.34375" opacity=".991"/><path d="m335.59375 199.27499a1.09375 1.09375 0 0 1 -1.09375 1.09375 1.09375 1.09375 0 0 1 -1.09375-1.09375 1.09375 1.09375 0 0 1 1.09375-1.09375 1.09375 1.09375 0 0 1 1.09375 1.09375" opacity=".991"/><path d="m335.84375 205.3a1.34375 1.34375 0 0 1 -1.34375 1.34375 1.34375 1.34375 0 0 1 -1.34375-1.34375 1.34375 1.34375 0 0 1 1.34375-1.34375 1.34375 1.34375 0 0 1 1.34375 1.34375" opacity=".991"/></g><g transform="translate(10.906562 -.124999)"><path d="m335.46875 193.25a.96875.96875 0 0 1 -.96875.96875.96875.96875 0 0 1 -.96875-.96875.96875.96875 0 0 1 .96875-.96875.96875.96875 0 0 1 .96875.96875" opacity=".991"/><path d="m335.46875 223.375a.96875.96875 0 0 1 -.96875.96875.96875.96875 0 0 1 -.96875-.96875.96875.96875 0 0 1 .96875-.96875.96875.96875 0 0 1 .96875.96875" opacity=".991"/><path d="m335.59375 217.35001a1.09375 1.09375 0 0 1 -1.09375 1.09375 1.09375 1.09375 0 0 1 -1.09375-1.09375 1.09375 1.09375 0 0 1 1.09375-1.09375 1.09375 1.09375 0 0 1 1.09375 1.09375" opacity=".991"/><path d="m335.84375 211.325a1.34375 1.34375 0 0 1 -1.34375 1.34375 1.34375 1.34375 0 0 1 -1.34375-1.34375 1.34375 1.34375 0 0 1 1.34375-1.34375 1.34375 1.34375 0 0 1 1.34375 1.34375" opacity=".991"/><path d="m335.59375 199.27499a1.09375 1.09375 0 0 1 -1.09375 1.09375 1.09375 1.09375 0 0 1 -1.09375-1.09375 1.09375 1.09375 0 0 1 1.09375-1.09375 1.09375 1.09375 0 0 1 1.09375 1.09375" opacity=".991"/><path d="m335.84375 205.3a1.34375 1.34375 0 0 1 -1.34375 1.34375 1.34375 1.34375 0 0 1 -1.34375-1.34375 1.34375 1.34375 0 0 1 1.34375-1.34375 1.34375 1.34375 0 0 1 1.34375 1.34375" opacity=".991"/></g></g><path d="m339.875 241.25c-5.51396 0-10 4.48604-10 10s4.48604 10 10 10 10-4.48604 10-10-4.48604-10-10-10zm0 1.5c4.7033 0 8.5 3.7967 8.5 8.5s-3.7967 8.5-8.5 8.5-8.5-3.7967-8.5-8.5 3.7967-8.5 8.5-8.5z" opacity=".991"/><path d="m339.875 270c-5.51396 0-10 4.48604-10 10s4.48604 10 10 10c5.40869 0 9.77267-4.33417 9.93945-9.70312a.75.75 0 0 0 .002-.002.75.75 0 0 0 .0586-.29492.75.75 0 0 0 -.0586-.29297c-.16457-5.37094-4.53129-9.70699-9.94145-9.70699zm0 1.5c4.7033 0 8.5 3.7967 8.5 8.5s-3.7967 8.5-8.5 8.5-8.5-3.7967-8.5-8.5 3.7967-8.5 8.5-8.5z" opacity=".991"/><g stroke="none" stroke-width="1.5"><path d="m316.77344 299.85938c-.8864 0-1.62305.73665-1.62305 1.62304v2.9375c0 .8864.73665 1.62305 1.62305 1.62305h2.9375c.88639 0 1.62304-.73665 1.62304-1.62305v-2.9375c0-.88639-.73665-1.62304-1.62304-1.62304zm0 1.5h2.9375c.0813 0 .12304.0417.12304.12304v2.9375c0 .0813-.0417.12305-.12304.12305h-2.9375c-.0813 0-.12305-.0417-.12305-.12305v-2.9375c0-.0813.0417-.12304.12305-.12304z" opacity=".991"/><path d="m331.19531 299.85938c-.88639 0-1.62304.73665-1.62304 1.62304v2.9375c0 .8864.73665 1.62305 1.62304 1.62305h2.9375c.8864 0 1.62305-.73666 1.62305-1.62305v-2.9375c0-.88638-.73665-1.62304-1.62305-1.62304zm0 1.5h2.9375c.0813 0 .12305.0417.12305.12304v2.9375c0 .0813-.0417.12305-.12305.12305h-2.9375c-.0813 0-.12304-.0417-.12304-.12305v-2.9375c0-.0813.0417-.12304.12304-.12304z" opacity=".991"/><path d="m345.61719 299.85938c-.8864 0-1.62305.73666-1.62305 1.62304v2.9375c0 .88639.73665 1.62305 1.62305 1.62305h2.9375c.88639 0 1.62304-.73666 1.62304-1.62305v-2.9375c0-.88638-.73665-1.62304-1.62304-1.62304zm0 1.5h2.9375c.0813 0 .12304.0417.12304.12304v2.9375c0 .0813-.0417.12305-.12304.12305h-2.9375c-.0813 0-.12305-.0417-.12305-.12305v-2.9375c0-.0813.0417-.12304.12305-.12304z" opacity=".991"/><path d="m360.03906 299.85938c-.88639 0-1.62304.73666-1.62304 1.62304v2.9375c0 .88639.73665 1.62305 1.62304 1.62305h2.9375c.8864 0 1.625-.73665 1.625-1.62305v-2.9375c0-.88639-.7386-1.62304-1.625-1.62304zm0 1.5h2.9375c.0813 0 .125.0417.125.12304v2.9375c0 .0813-.0437.12305-.125.12305h-2.9375c-.0813 0-.12304-.0417-.12304-.12305v-2.9375c0-.0813.0417-.12304.12304-.12304z" opacity=".991"/></g><path d="m313.77539 11.271484c-7.6007 0-13.74219 6.141491-13.74219 13.742188v299.458988c0 7.60069 6.14149 13.74414 13.74219 13.74414h53.47852c7.60069 0 13.74218-6.14345 13.74218-13.74414v-299.458988c0-7.600697-6.14149-13.742188-13.74218-13.742188zm0 1.5h53.47852c6.79564 0 12.24218 5.446545 12.24218 12.242188v299.458988c0 6.79564-5.44654 12.24414-12.24218 12.24414h-53.47852c-6.79564 0-12.24219-5.4485-12.24219-12.24414v-299.458988c0-6.795644 5.44655-12.242188 12.24219-12.242188z" opacity=".991"/></g></g></svg>