<svg height="350.26" viewBox="0 0 598.189 350.26" width="598.189" xmlns="http://www.w3.org/2000/svg"><g fill="#f4f4f4" transform="translate(1.594513 2.380005)"><path d="m82.802734 132.86523c-1.128745 0-2.060546.93181-2.060546 2.06055v15.58594h-15.585938c-1.128752 0-2.060547.9318-2.060547 2.06055v11.61328c0 1.12874.931801 2.06054 2.060547 2.06054h15.585938v15.58594c0 1.12875.931808 2.06055 2.060546 2.06055h11.613282c1.12875.00001 2.060546-.9318 2.060546-2.06055v-15.58594h15.585938c1.12874 0 2.06055-.9318 2.06055-2.06054v-11.61328c0-1.12875-.9318-2.06055-2.06055-2.06055h-15.585938v-15.58594c0-1.12874-.931801-2.06055-2.060546-2.06055zm0 1.50391h11.613282c.320619 0 .55664.23603.55664.55664v17.08984h17.089844c.32061 0 .55664.23603.55664.55665v11.61328c0 .32061-.23602.55664-.55664.55664h-17.089844v17.08984c0 .32063-.236027.55665-.55664.55664h-11.613282c-.320625 0-.55664-.23601-.55664-.55664v-17.08984h-17.089844c-.32062 0-.556641-.23603-.556641-.55664v-11.61328c0-.32062.236027-.55665.556641-.55665h17.089844v-17.08984c0-.32061.236021-.55664.55664-.55664z" opacity=".991"/><g><path d="m64.125 64.625c-16.145445 0-29.25 13.104555-29.25 29.25 0 16.14545 13.104555 29.25 29.25 29.25 16.10061 0 29.163826-13.03545 29.236328-29.119141a.75.75 0 0 0 .013672-.130859.75.75 0 0 0 -.01367-.144531.75.75 0 0 0 -.002-.0059c-.083226-16.074432-13.140409-29.099569-29.23433-29.099569zm0 1.5c15.334785 0 27.75 12.415215 27.75 27.75 0 15.33479-12.415215 27.75-27.75 27.75s-27.75-12.41521-27.75-27.75c0-15.334785 12.415215-27.75 27.75-27.75z" opacity=".991"/><path d="m64.125 73.375c-11.312954 0-20.5 9.187046-20.5 20.5 0 11.31295 9.187046 20.5 20.5 20.5 11.268119 0 20.413908-9.11792 20.486328-20.369141a.75.75 0 0 0 .013672-.130859.75.75 0 0 0 -.01367-.144531.75.75 0 0 0 -.002-.0059c-.083111-11.241968-9.2229-20.349569-20.48433-20.349569zm0 1.5c10.502294 0 19 8.497706 19 19 0 10.50229-8.497706 19-19 19s-19-8.49771-19-19c0-10.502294 8.497706-19 19-19z" opacity=".991"/></g><g transform="translate(469.375)"><path d="m64.125 64.625c-16.145445 0-29.25 13.104555-29.25 29.25 0 16.14545 13.104555 29.25 29.25 29.25 16.10061 0 29.163826-13.03545 29.236328-29.119141a.75.75 0 0 0 .013672-.130859.75.75 0 0 0 -.01367-.144531.75.75 0 0 0 -.002-.0059c-.083226-16.074432-13.140409-29.099569-29.23433-29.099569zm0 1.5c15.334785 0 27.75 12.415215 27.75 27.75 0 15.33479-12.415215 27.75-27.75 27.75s-27.75-12.41521-27.75-27.75c0-15.334785 12.415215-27.75 27.75-27.75z" opacity=".991"/><path d="m64.125 73.375c-11.312954 0-20.5 9.187046-20.5 20.5 0 11.31295 9.187046 20.5 20.5 20.5 11.268119 0 20.413908-9.11792 20.486328-20.369141a.75.75 0 0 0 .013672-.130859.75.75 0 0 0 -.01367-.144531.75.75 0 0 0 -.002-.0059c-.083111-11.241968-9.2229-20.349569-20.48433-20.349569zm0 1.5c10.502294 0 19 8.497706 19 19 0 10.50229-8.497706 19-19 19s-19-8.49771-19-19c0-10.502294 8.497706-19 19-19z" opacity=".991"/></g><g><path d="m511 123.875c-6.06625 0-11 4.93375-11 11s4.93375 11 11 11c5.96096 0 10.77228-4.78193 10.93945-10.70312a.75.75 0 0 0 .002-.002.75.75 0 0 0 .0586-.29492.75.75 0 0 0 -.0566-.2832.75.75 0 0 0 -.002-.002c-.16082-5.92682-4.97637-10.71476-10.94145-10.71476zm0 1.5c5.25559 0 9.5 4.24441 9.5 9.5s-4.24441 9.5-9.5 9.5-9.5-4.24441-9.5-9.5 4.24441-9.5 9.5-9.5z" opacity=".991"/><path d="m511 169.125c-6.06625 0-11 4.93375-11 11s4.93375 11 11 11c5.96096 0 10.77228-4.78193 10.93945-10.70312a.75.75 0 0 0 .002-.002.75.75 0 0 0 .0586-.29492.75.75 0 0 0 -.0566-.2832.75.75 0 0 0 -.002-.002c-.16082-5.92682-4.97637-10.71476-10.94145-10.71476zm0 1.5c5.25559 0 9.5 4.24441 9.5 9.5s-4.24441 9.5-9.5 9.5-9.5-4.24441-9.5-9.5 4.24441-9.5 9.5-9.5z" opacity=".991"/></g><g transform="matrix(0 -1 1 0 353.5 668.5)"><path d="m511 123.875c-6.06625 0-11 4.93375-11 11s4.93375 11 11 11c5.96096 0 10.77228-4.78193 10.93945-10.70312a.75.75 0 0 0 .002-.002.75.75 0 0 0 .0586-.29492.75.75 0 0 0 -.0566-.2832.75.75 0 0 0 -.002-.002c-.16082-5.92682-4.97637-10.71476-10.94145-10.71476zm0 1.5c5.25559 0 9.5 4.24441 9.5 9.5s-4.24441 9.5-9.5 9.5-9.5-4.24441-9.5-9.5 4.24441-9.5 9.5-9.5z" opacity=".991"/><path d="m511 169.125c-6.06625 0-11 4.93375-11 11s4.93375 11 11 11c5.96096 0 10.77228-4.78193 10.93945-10.70312a.75.75 0 0 0 .002-.002.75.75 0 0 0 .0586-.29492.75.75 0 0 0 -.0566-.2832.75.75 0 0 0 -.002-.002c-.16082-5.92682-4.97637-10.71476-10.94145-10.71476zm0 1.5c5.25559 0 9.5 4.24441 9.5 9.5s-4.24441 9.5-9.5 9.5-9.5-4.24441-9.5-9.5 4.24441-9.5 9.5-9.5z" opacity=".991"/></g><path d="m485.7832 207.93555c-4.50583 0-8.17578 3.66799-8.17578 8.17383 0 4.50583 3.66995 8.17382 8.17578 8.17382 4.50584 0 8.17383-3.66799 8.17383-8.17382 0-4.50584-3.66799-8.17383-8.17383-8.17383zm0 1.5c3.69518 0 6.67383 2.97865 6.67383 6.67383 0 3.69517-2.97865 6.67382-6.67383 6.67382-3.69517 0-6.67578-2.97865-6.67578-6.67382 0-3.69518 2.98061-6.67383 6.67578-6.67383z" opacity=".991"/><path d="m485.7832 237.10352c-4.50583 0-8.17578 3.66799-8.17578 8.17382 0 4.50584 3.66994 8.17578 8.17578 8.17578 4.40058 0 7.94739-3.51803 8.11328-7.8789a.75.75 0 0 0 0-.002.75.75 0 0 0 .0605-.29493.75.75 0 0 0 -.0566-.2832.75.75 0 0 0 -.002-.004c-.16062-4.36565-3.7112-7.88671-8.11524-7.88671zm0 1.5c3.69518 0 6.67383 2.97865 6.67383 6.67382.00001 3.69518-2.97865 6.67578-6.67383 6.67578-3.69517 0-6.67578-2.9806-6.67578-6.67578 0-3.69517 2.98061-6.67382 6.67578-6.67382z" opacity=".991"/><path d="m446.75 285.875c-3.92615 0-7.125 3.19885-7.125 7.125s3.19885 7.125 7.125 7.125 7.125-3.19885 7.125-7.125-3.19885-7.125-7.125-7.125zm0 1.5c3.11549 0 5.625 2.50951 5.625 5.625s-2.50951 5.625-5.625 5.625-5.625-2.50951-5.625-5.625 2.50951-5.625 5.625-5.625z" opacity=".991"/><path d="m415.3418 286.125c-2.53159 0-4.5918 2.06021-4.5918 4.5918v4.5664c0 2.53159 2.06021 4.5918 4.5918 4.5918h4.5664c2.53159 0 4.5918-2.06021 4.5918-4.5918v-4.5664c0-2.53159-2.06021-4.5918-4.5918-4.5918zm0 1.39844h4.5664c1.78111 0 3.19336 1.41225 3.19336 3.19336v4.5664c0 1.78111-1.41225 3.19336-3.19336 3.19336h-4.5664c-1.78111 0-3.19336-1.41225-3.19336-3.19336v-4.5664c0-1.78111 1.41225-3.19336 3.19336-3.19336z" opacity=".991"/><path d="m390 293a1.5 1.5 0 0 1 -1.5 1.5 1.5 1.5 0 0 1 -1.5-1.5 1.5 1.5 0 0 1 1.5-1.5 1.5 1.5 0 0 1 1.5 1.5z" opacity=".991"/><path d="m297.75 279.75c-7.30889 0-13.25 5.94111-13.25 13.25s5.94111 13.25 13.25 13.25 13.25-5.94111 13.25-13.25-5.94111-13.25-13.25-13.25zm0 1.5c6.49823 0 11.75 5.25177 11.75 11.75s-5.25177 11.75-11.75 11.75-11.75-5.25177-11.75-11.75 5.25177-11.75 11.75-11.75z" opacity=".991"/><path d="m265.25 293a1.25 1.25 0 0 1 -1.25 1.25 1.25 1.25 0 0 1 -1.25-1.25 1.25 1.25 0 0 1 1.25-1.25 1.25 1.25 0 0 1 1.25 1.25z" opacity=".991"/><g transform="translate(-.0625)"><path d="m482.8125 290.0625c-1.6144 0-2.9375 1.3231-2.9375 2.9375s1.3231 2.9375 2.9375 2.9375h6.625c1.6144 0 2.9375-1.3231 2.9375-2.9375s-1.3231-2.9375-2.9375-2.9375zm0 1.5h6.625c.80936 0 1.4375.62814 1.4375 1.4375s-.62814 1.4375-1.4375 1.4375h-6.625c-.80936 0-1.4375-.62814-1.4375-1.4375s.62814-1.4375 1.4375-1.4375z" opacity=".991"/><path d="m105.6875 290.0625c-1.6144 0-2.9375 1.3231-2.9375 2.9375s1.3231 2.9375 2.9375 2.9375h6.625c1.6144 0 2.9375-1.3231 2.9375-2.9375s-1.3231-2.9375-2.9375-2.9375zm0 1.5h6.625c.80936 0 1.4375.62814 1.4375 1.4375s-.62814 1.4375-1.4375 1.4375h-6.625c-.80936 0-1.4375-.62814-1.4375-1.4375s.62814-1.4375 1.4375-1.4375z" opacity=".991"/></g><g transform="translate(.25 -.5)"><path d="m145.1875 84.75c-1.61441 0-2.9375 1.3231-2.9375 2.9375v171.125c0 1.6144 1.3231 2.9375 2.9375 2.9375h304.125c1.6144 0 2.9375-1.3231 2.9375-2.9375v-171.125c0-1.6144-1.32309-2.9375-2.9375-2.9375zm0 1.5h304.125c.80935 0 1.4375.62815 1.4375 1.4375v171.125c0 .80936-.62814 1.4375-1.4375 1.4375h-304.125c-.80936 0-1.4375-.62814-1.4375-1.4375v-171.125c0-.80935.62815-1.4375 1.4375-1.4375z" opacity=".991"/><path d="m142.85742 78.5c-4.06276 0-7.35742 3.294662-7.35742 7.357422v174.785158c0 4.06276 3.29466 7.35742 7.35742 7.35742h308.78516c4.06276 0 7.35742-3.29466 7.35742-7.35742v-174.785158c0-4.06276-3.29466-7.357422-7.35742-7.357422zm0 1.5h308.78516c3.2577 0 5.85742 2.599718 5.85742 5.857422v174.785158c0 3.2577-2.59972 5.85742-5.85742 5.85742h-308.78516c-3.2577 0-5.85742-2.59972-5.85742-5.85742v-174.785158c0-3.257704 2.59972-5.857422 5.85742-5.857422z" opacity=".991"/></g><path d="m225.56641 37.433594c-5.88685 0-10.64844 4.763542-10.64844 10.65039s4.76159 10.648438 10.64844 10.648438h142.48242c5.88685 0 10.65039-4.76159 10.65039-10.648438s-4.76354-10.65039-10.65039-10.65039zm0 1.5h142.48242c5.08179 0 9.15039 4.068597 9.15039 9.15039s-4.0686 9.148438-9.15039 9.148438h-142.48242c-5.0818 0-9.14844-4.066645-9.14844-9.148438s4.06664-9.15039 9.14844-9.15039z" opacity=".991"/><path d="m296.80859 40.615234c-4.11531.000003-7.46875 3.353441-7.46875 7.46875s3.35345 7.466794 7.46875 7.466797c4.11532.000004 7.4668-3.351484 7.4668-7.466797s-3.35148-7.468753-7.4668-7.46875zm0 1.5c3.30466-.000002 5.9668 2.664098 5.9668 5.96875 0 3.304653-2.66214 5.9668-5.9668 5.966797-3.30465-.000002-5.96875-2.662148-5.96875-5.966797s2.6641-5.968747 5.96875-5.96875z" opacity=".991"/><path d="m97.900391 23.25c-47.159849 0-85.150391 37.99054-85.150391 85.15039v128.69922c0 47.15985 37.990542 85.15039 85.150391 85.15039h399.199219c47.15985 0 85.15039-37.99054 85.15039-85.15039v-128.69922c0-47.15985-37.99054-85.15039-85.15039-85.15039zm0 1.5h399.199219c46.35479 0 83.65039 37.295594 83.65039 83.65039v128.69922c0 46.35479-37.2956 83.65039-83.65039 83.65039h-399.199219c-46.354795 0-83.650391-37.2956-83.650391-83.65039v-128.69922c0-46.354796 37.295596-83.65039 83.650391-83.65039z" opacity=".991"/><path d="m89.888672 24.041016c-40.816291 0-74.034743 31.259133-74.953125 70.166015l1.314453-6.707031.763672-.660156c4.250415-31.755309 30.61976-56.880444 63.896484-60.757813l9.142578-2.037109c-.05499-.000114-.109047-.0039-.164062-.0039z" opacity=".991"/><path d="m504.92188 23.583985c40.81629 0 74.03474 31.259137 74.95312 70.166017l-1.31445-6.70703-.76367-.66016c-4.25042-31.75531-30.61976-56.880443-63.89649-60.757812l-9.14257-2.037109c.055-.000114.10904-.0039.16406-.0039z" opacity=".991"/></g></svg>